%TF.GenerationSoftware,KiCad,Pcbnew,7.99.0-3012-g423a5b9961*%
%TF.CreationDate,2023-11-25T09:20:11+08:00*%
%TF.ProjectId,drvesc,64727665-7363-42e6-9b69-6361645f7063,V1.0*%
%TF.SameCoordinates,Original*%
%TF.FileFunction,Paste,Top*%
%TF.FilePolarity,Positive*%
%FSLAX46Y46*%
G04 Gerber Fmt 4.6, Leading zero omitted, Abs format (unit mm)*
G04 Created by KiCad (PCBNEW 7.99.0-3012-g423a5b9961) date 2023-11-25 09:20:11*
%MOMM*%
%LPD*%
G01*
G04 APERTURE LIST*
G04 Aperture macros list*
%AMRoundRect*
0 Rectangle with rounded corners*
0 $1 Rounding radius*
0 $2 $3 $4 $5 $6 $7 $8 $9 X,Y pos of 4 corners*
0 Add a 4 corners polygon primitive as box body*
4,1,4,$2,$3,$4,$5,$6,$7,$8,$9,$2,$3,0*
0 Add four circle primitives for the rounded corners*
1,1,$1+$1,$2,$3*
1,1,$1+$1,$4,$5*
1,1,$1+$1,$6,$7*
1,1,$1+$1,$8,$9*
0 Add four rect primitives between the rounded corners*
20,1,$1+$1,$2,$3,$4,$5,0*
20,1,$1+$1,$4,$5,$6,$7,0*
20,1,$1+$1,$6,$7,$8,$9,0*
20,1,$1+$1,$8,$9,$2,$3,0*%
G04 Aperture macros list end*
%ADD10C,0.000000*%
%ADD11RoundRect,0.200000X-0.275000X0.200000X-0.275000X-0.200000X0.275000X-0.200000X0.275000X0.200000X0*%
%ADD12RoundRect,0.200000X0.200000X0.275000X-0.200000X0.275000X-0.200000X-0.275000X0.200000X-0.275000X0*%
%ADD13RoundRect,0.200000X-0.200000X-0.275000X0.200000X-0.275000X0.200000X0.275000X-0.200000X0.275000X0*%
%ADD14RoundRect,0.225000X0.250000X-0.225000X0.250000X0.225000X-0.250000X0.225000X-0.250000X-0.225000X0*%
%ADD15R,1.500000X1.500000*%
%ADD16R,0.750000X0.500000*%
%ADD17R,0.750000X0.400000*%
%ADD18R,1.450000X0.600000*%
%ADD19R,1.450000X0.300000*%
%ADD20RoundRect,0.140000X0.140000X0.170000X-0.140000X0.170000X-0.140000X-0.170000X0.140000X-0.170000X0*%
%ADD21RoundRect,0.140000X-0.170000X0.140000X-0.170000X-0.140000X0.170000X-0.140000X0.170000X0.140000X0*%
%ADD22RoundRect,0.225000X0.225000X0.250000X-0.225000X0.250000X-0.225000X-0.250000X0.225000X-0.250000X0*%
%ADD23RoundRect,0.200000X0.275000X-0.200000X0.275000X0.200000X-0.275000X0.200000X-0.275000X-0.200000X0*%
%ADD24RoundRect,0.218750X-0.218750X-0.256250X0.218750X-0.256250X0.218750X0.256250X-0.218750X0.256250X0*%
%ADD25RoundRect,0.225000X-0.250000X0.225000X-0.250000X-0.225000X0.250000X-0.225000X0.250000X0.225000X0*%
%ADD26R,1.475000X0.300000*%
%ADD27R,0.300000X1.475000*%
%ADD28R,5.170000X5.170000*%
%ADD29RoundRect,0.140000X0.170000X-0.140000X0.170000X0.140000X-0.170000X0.140000X-0.170000X-0.140000X0*%
%ADD30RoundRect,0.225000X-0.225000X-0.250000X0.225000X-0.250000X0.225000X0.250000X-0.225000X0.250000X0*%
%ADD31RoundRect,0.218750X-0.256250X0.218750X-0.256250X-0.218750X0.256250X-0.218750X0.256250X0.218750X0*%
%ADD32RoundRect,0.135000X-0.185000X0.135000X-0.185000X-0.135000X0.185000X-0.135000X0.185000X0.135000X0*%
%ADD33R,1.400000X1.200000*%
%ADD34R,0.762000X0.304800*%
%ADD35R,2.387600X3.098800*%
%ADD36RoundRect,0.249999X0.395001X0.395001X-0.395001X0.395001X-0.395001X-0.395001X0.395001X-0.395001X0*%
%ADD37RoundRect,0.050000X0.387500X0.050000X-0.387500X0.050000X-0.387500X-0.050000X0.387500X-0.050000X0*%
%ADD38RoundRect,0.050000X0.050000X0.387500X-0.050000X0.387500X-0.050000X-0.387500X0.050000X-0.387500X0*%
%ADD39R,1.651000X4.572000*%
G04 APERTURE END LIST*
D10*
%TO.C,U2*%
G36*
X121508000Y-119055348D02*
G01*
X119320400Y-119055348D01*
X119320400Y-117705948D01*
X121508000Y-117705948D01*
X121508000Y-119055348D01*
G37*
G36*
X121508000Y-120604748D02*
G01*
X119320400Y-120604748D01*
X119320400Y-119255348D01*
X121508000Y-119255348D01*
X121508000Y-120604748D01*
G37*
%TD*%
D11*
%TO.C,R1*%
X132003800Y-97866200D03*
X132003800Y-99516200D03*
%TD*%
D12*
%TO.C,R9*%
X101295200Y-112522000D03*
X99645200Y-112522000D03*
%TD*%
D13*
%TO.C,R17*%
X106554000Y-106045000D03*
X108204000Y-106045000D03*
%TD*%
D14*
%TO.C,C14*%
X131087023Y-117269398D03*
X131087023Y-115719398D03*
%TD*%
D15*
%TO.C,Q1*%
X156150723Y-103811302D03*
X156150723Y-102111302D03*
X154450723Y-103811302D03*
X154450723Y-102111302D03*
D16*
X153045723Y-104866302D03*
X153045723Y-103596302D03*
X153045723Y-102326302D03*
X153045723Y-101056302D03*
D17*
X158850723Y-104866302D03*
X158850723Y-103596302D03*
X158850723Y-102326302D03*
X158850723Y-101056302D03*
%TD*%
D18*
%TO.C,J2*%
X104610400Y-103123200D03*
X104610400Y-103923200D03*
D19*
X104610400Y-105123200D03*
X104610400Y-106123200D03*
X104610400Y-106623200D03*
X104610400Y-107623200D03*
D18*
X104610400Y-108823200D03*
X104610400Y-109623200D03*
X104610400Y-109623200D03*
X104610400Y-108823200D03*
D19*
X104610400Y-108123200D03*
X104610400Y-107123200D03*
X104610400Y-105623200D03*
X104610400Y-104623200D03*
D18*
X104610400Y-103923200D03*
X104610400Y-103123200D03*
%TD*%
D20*
%TO.C,C20*%
X124261300Y-108455598D03*
X123301300Y-108455598D03*
%TD*%
D21*
%TO.C,C17*%
X117226500Y-120614698D03*
X117226500Y-121574698D03*
%TD*%
D22*
%TO.C,C10*%
X151638600Y-117703600D03*
X150088600Y-117703600D03*
%TD*%
D23*
%TO.C,R13*%
X122560500Y-104619198D03*
X122560500Y-102969198D03*
%TD*%
D20*
%TO.C,C19*%
X119812100Y-102448555D03*
X118852100Y-102448555D03*
%TD*%
D24*
%TO.C,D3*%
X108869700Y-109369998D03*
X110444700Y-109369998D03*
%TD*%
D20*
%TO.C,C16*%
X114600199Y-114145198D03*
X113640199Y-114145198D03*
%TD*%
D14*
%TO.C,C1*%
X131800600Y-102552800D03*
X131800600Y-101002800D03*
%TD*%
D22*
%TO.C,C9*%
X151607576Y-109809004D03*
X150057576Y-109809004D03*
%TD*%
D25*
%TO.C,C6*%
X134262023Y-101038798D03*
X134262023Y-102588798D03*
%TD*%
D11*
%TO.C,R18*%
X130225800Y-102083600D03*
X130225800Y-103733600D03*
%TD*%
D26*
%TO.C,U1*%
X129817023Y-106954198D03*
X129817023Y-107454198D03*
X129817023Y-107954198D03*
X129817023Y-108454198D03*
X129817023Y-108954198D03*
X129817023Y-109454198D03*
X129817023Y-109954198D03*
X129817023Y-110454198D03*
X129817023Y-110954198D03*
X129817023Y-111454198D03*
X129817023Y-111954198D03*
X129817023Y-112454198D03*
D27*
X131305023Y-113942198D03*
X131805023Y-113942198D03*
X132305023Y-113942198D03*
X132805023Y-113942198D03*
X133305023Y-113942198D03*
X133805023Y-113942198D03*
X134305023Y-113942198D03*
X134805023Y-113942198D03*
X135305023Y-113942198D03*
X135805023Y-113942198D03*
X136305023Y-113942198D03*
X136805023Y-113942198D03*
D26*
X138293023Y-112454198D03*
X138293023Y-111954198D03*
X138293023Y-111454198D03*
X138293023Y-110954198D03*
X138293023Y-110454198D03*
X138293023Y-109954198D03*
X138293023Y-109454198D03*
X138293023Y-108954198D03*
X138293023Y-108454198D03*
X138293023Y-107954198D03*
X138293023Y-107454198D03*
X138293023Y-106954198D03*
D27*
X136805023Y-105466198D03*
X136305023Y-105466198D03*
X135805023Y-105466198D03*
X135305023Y-105466198D03*
X134805023Y-105466198D03*
X134305023Y-105466198D03*
X133805023Y-105466198D03*
X133305023Y-105466198D03*
X132805023Y-105466198D03*
X132305023Y-105466198D03*
X131805023Y-105466198D03*
X131305023Y-105466198D03*
D28*
X134055023Y-109704198D03*
%TD*%
D12*
%TO.C,R12*%
X124908500Y-106093398D03*
X123258500Y-106093398D03*
%TD*%
D20*
%TO.C,C25*%
X113794900Y-112138598D03*
X112834900Y-112138598D03*
%TD*%
D29*
%TO.C,C24*%
X118750500Y-104363598D03*
X118750500Y-103403598D03*
%TD*%
D13*
%TO.C,R7*%
X120497600Y-122301000D03*
X122147600Y-122301000D03*
%TD*%
D23*
%TO.C,R2*%
X111404400Y-122326400D03*
X111404400Y-120676400D03*
%TD*%
D24*
%TO.C,D2*%
X130060200Y-122283400D03*
X131635200Y-122283400D03*
%TD*%
D25*
%TO.C,C5*%
X138275223Y-102003998D03*
X138275223Y-103553998D03*
%TD*%
%TO.C,C4*%
X136522623Y-101063598D03*
X136522623Y-102613598D03*
%TD*%
D30*
%TO.C,C11*%
X137017623Y-115770798D03*
X138567623Y-115770798D03*
%TD*%
D12*
%TO.C,R10*%
X104344200Y-112522000D03*
X102694200Y-112522000D03*
%TD*%
D15*
%TO.C,Q2*%
X156202400Y-112764802D03*
X156202400Y-111064802D03*
X154502400Y-112764802D03*
X154502400Y-111064802D03*
D16*
X153097400Y-113819802D03*
X153097400Y-112549802D03*
X153097400Y-111279802D03*
X153097400Y-110009802D03*
D17*
X158902400Y-113819802D03*
X158902400Y-112549802D03*
X158902400Y-111279802D03*
X158902400Y-110009802D03*
%TD*%
D11*
%TO.C,R11*%
X116175901Y-102004998D03*
X116175901Y-103654998D03*
%TD*%
D22*
%TO.C,C8*%
X151460800Y-100840402D03*
X149910800Y-100840402D03*
%TD*%
D21*
%TO.C,C22*%
X118344100Y-115166398D03*
X118344100Y-116126398D03*
%TD*%
D29*
%TO.C,C29*%
X123042100Y-113377998D03*
X123042100Y-112417998D03*
%TD*%
D30*
%TO.C,C2*%
X135800800Y-99288600D03*
X137350800Y-99288600D03*
%TD*%
D31*
%TO.C,D1*%
X111395800Y-117639600D03*
X111395800Y-119214600D03*
%TD*%
D14*
%TO.C,C13*%
X134820823Y-118882598D03*
X134820823Y-117332598D03*
%TD*%
D12*
%TO.C,R3*%
X134747000Y-122275600D03*
X133097000Y-122275600D03*
%TD*%
D13*
%TO.C,R16*%
X106554000Y-107569000D03*
X108204000Y-107569000D03*
%TD*%
D29*
%TO.C,C23*%
X116312100Y-116121198D03*
X116312100Y-115161198D03*
%TD*%
D20*
%TO.C,C26*%
X113766900Y-108074598D03*
X112806900Y-108074598D03*
%TD*%
%TO.C,C28*%
X113792300Y-113129198D03*
X112832300Y-113129198D03*
%TD*%
D12*
%TO.C,R15*%
X113555700Y-109369998D03*
X111905700Y-109369998D03*
%TD*%
D14*
%TO.C,C12*%
X136624223Y-118870198D03*
X136624223Y-117320198D03*
%TD*%
D21*
%TO.C,C18*%
X120757100Y-102423155D03*
X120757100Y-103383155D03*
%TD*%
D32*
%TO.C,R14*%
X119766500Y-103404555D03*
X119766500Y-104424555D03*
%TD*%
D15*
%TO.C,Q3*%
X156276624Y-120657000D03*
X156276624Y-118957000D03*
X154576624Y-120657000D03*
X154576624Y-118957000D03*
D16*
X153171624Y-121712000D03*
X153171624Y-120442000D03*
X153171624Y-119172000D03*
X153171624Y-117902000D03*
D17*
X158976624Y-121712000D03*
X158976624Y-120442000D03*
X158976624Y-119172000D03*
X158976624Y-117902000D03*
%TD*%
D11*
%TO.C,R8*%
X124333000Y-120726200D03*
X124333000Y-122376200D03*
%TD*%
D21*
%TO.C,C27*%
X117328100Y-115166398D03*
X117328100Y-116126398D03*
%TD*%
D25*
%TO.C,C3*%
X127965200Y-103098000D03*
X127965200Y-104648000D03*
%TD*%
%TO.C,C7*%
X140129423Y-103578198D03*
X140129423Y-105128198D03*
%TD*%
D33*
%TO.C,Y1*%
X120200000Y-99300000D03*
X118000000Y-99300000D03*
X118000000Y-101000000D03*
X120200000Y-101000000D03*
%TD*%
D21*
%TO.C,C15*%
X114628199Y-115161198D03*
X114628199Y-116121198D03*
%TD*%
D34*
%TO.C,U2*%
X122382700Y-120355498D03*
X122382700Y-119555398D03*
X122382700Y-118755298D03*
X122382700Y-117955198D03*
D35*
X120414200Y-119155348D03*
D34*
X118445700Y-117955198D03*
X118445700Y-118755298D03*
X118445700Y-119555398D03*
X118445700Y-120355498D03*
%TD*%
D29*
%TO.C,C21*%
X117734500Y-104360998D03*
X117734500Y-103400998D03*
%TD*%
D36*
%TO.C,U3*%
X119204100Y-110280098D03*
X119204100Y-108680098D03*
X117604100Y-110280098D03*
X117604100Y-108680098D03*
D37*
X121841600Y-112080098D03*
X121841600Y-111680098D03*
X121841600Y-111280098D03*
X121841600Y-110880098D03*
X121841600Y-110480098D03*
X121841600Y-110080098D03*
X121841600Y-109680098D03*
X121841600Y-109280098D03*
X121841600Y-108880098D03*
X121841600Y-108480098D03*
X121841600Y-108080098D03*
X121841600Y-107680098D03*
X121841600Y-107280098D03*
X121841600Y-106880098D03*
D38*
X121004100Y-106042598D03*
X120604100Y-106042598D03*
X120204100Y-106042598D03*
X119804100Y-106042598D03*
X119404100Y-106042598D03*
X119004100Y-106042598D03*
X118604100Y-106042598D03*
X118204100Y-106042598D03*
X117804100Y-106042598D03*
X117404100Y-106042598D03*
X117004100Y-106042598D03*
X116604100Y-106042598D03*
X116204100Y-106042598D03*
X115804100Y-106042598D03*
D37*
X114966600Y-106880098D03*
X114966600Y-107280098D03*
X114966600Y-107680098D03*
X114966600Y-108080098D03*
X114966600Y-108480098D03*
X114966600Y-108880098D03*
X114966600Y-109280098D03*
X114966600Y-109680098D03*
X114966600Y-110080098D03*
X114966600Y-110480098D03*
X114966600Y-110880098D03*
X114966600Y-111280098D03*
X114966600Y-111680098D03*
X114966600Y-112080098D03*
D38*
X115804100Y-112917598D03*
X116204100Y-112917598D03*
X116604100Y-112917598D03*
X117004100Y-112917598D03*
X117404100Y-112917598D03*
X117804100Y-112917598D03*
X118204100Y-112917598D03*
X118604100Y-112917598D03*
X119004100Y-112917598D03*
X119404100Y-112917598D03*
X119804100Y-112917598D03*
X120204100Y-112917598D03*
X120604100Y-112917598D03*
X121004100Y-112917598D03*
%TD*%
D39*
%TO.C,J1*%
X174091600Y-128701800D03*
X171551600Y-128701800D03*
X169011600Y-128701800D03*
X166471600Y-128701800D03*
X163931600Y-128701800D03*
X161391600Y-128701800D03*
X158851600Y-128701800D03*
X156311600Y-128701800D03*
X153771600Y-128701800D03*
X151231600Y-128701800D03*
X148691600Y-128701800D03*
X146151600Y-128701800D03*
X143611600Y-128701800D03*
X141071600Y-128701800D03*
X138531600Y-128701800D03*
X135991600Y-128701800D03*
X133451600Y-128701800D03*
X130911600Y-128701800D03*
X128371600Y-128701800D03*
X125831600Y-128701800D03*
X123291600Y-128701800D03*
X120751600Y-128701800D03*
X118211600Y-128701800D03*
X115671600Y-128701800D03*
X113131600Y-128701800D03*
X110591600Y-128701800D03*
X108051600Y-128701800D03*
X105511600Y-128701800D03*
X102971600Y-128701800D03*
X100431600Y-128701800D03*
%TD*%
M02*
