%TF.GenerationSoftware,KiCad,Pcbnew,7.99.0-3012-g423a5b9961*%
%TF.CreationDate,2023-10-18T14:22:59-04:00*%
%TF.ProjectId,drvesc,64727665-7363-42e6-9b69-6361645f7063,V1.0*%
%TF.SameCoordinates,Original*%
%TF.FileFunction,Other,Comment*%
%FSLAX46Y46*%
G04 Gerber Fmt 4.6, Leading zero omitted, Abs format (unit mm)*
G04 Created by KiCad (PCBNEW 7.99.0-3012-g423a5b9961) date 2023-10-18 14:22:59*
%MOMM*%
%LPD*%
G01*
G04 APERTURE LIST*
%ADD10C,0.150000*%
G04 APERTURE END LIST*
D10*
X183826379Y-136623419D02*
X183826379Y-135623419D01*
X183826379Y-135623419D02*
X184207331Y-135623419D01*
X184207331Y-135623419D02*
X184302569Y-135671038D01*
X184302569Y-135671038D02*
X184350188Y-135718657D01*
X184350188Y-135718657D02*
X184397807Y-135813895D01*
X184397807Y-135813895D02*
X184397807Y-135956752D01*
X184397807Y-135956752D02*
X184350188Y-136051990D01*
X184350188Y-136051990D02*
X184302569Y-136099609D01*
X184302569Y-136099609D02*
X184207331Y-136147228D01*
X184207331Y-136147228D02*
X183826379Y-136147228D01*
X185397807Y-136528180D02*
X185350188Y-136575800D01*
X185350188Y-136575800D02*
X185207331Y-136623419D01*
X185207331Y-136623419D02*
X185112093Y-136623419D01*
X185112093Y-136623419D02*
X184969236Y-136575800D01*
X184969236Y-136575800D02*
X184873998Y-136480561D01*
X184873998Y-136480561D02*
X184826379Y-136385323D01*
X184826379Y-136385323D02*
X184778760Y-136194847D01*
X184778760Y-136194847D02*
X184778760Y-136051990D01*
X184778760Y-136051990D02*
X184826379Y-135861514D01*
X184826379Y-135861514D02*
X184873998Y-135766276D01*
X184873998Y-135766276D02*
X184969236Y-135671038D01*
X184969236Y-135671038D02*
X185112093Y-135623419D01*
X185112093Y-135623419D02*
X185207331Y-135623419D01*
X185207331Y-135623419D02*
X185350188Y-135671038D01*
X185350188Y-135671038D02*
X185397807Y-135718657D01*
X186159712Y-136099609D02*
X186302569Y-136147228D01*
X186302569Y-136147228D02*
X186350188Y-136194847D01*
X186350188Y-136194847D02*
X186397807Y-136290085D01*
X186397807Y-136290085D02*
X186397807Y-136432942D01*
X186397807Y-136432942D02*
X186350188Y-136528180D01*
X186350188Y-136528180D02*
X186302569Y-136575800D01*
X186302569Y-136575800D02*
X186207331Y-136623419D01*
X186207331Y-136623419D02*
X185826379Y-136623419D01*
X185826379Y-136623419D02*
X185826379Y-135623419D01*
X185826379Y-135623419D02*
X186159712Y-135623419D01*
X186159712Y-135623419D02*
X186254950Y-135671038D01*
X186254950Y-135671038D02*
X186302569Y-135718657D01*
X186302569Y-135718657D02*
X186350188Y-135813895D01*
X186350188Y-135813895D02*
X186350188Y-135909133D01*
X186350188Y-135909133D02*
X186302569Y-136004371D01*
X186302569Y-136004371D02*
X186254950Y-136051990D01*
X186254950Y-136051990D02*
X186159712Y-136099609D01*
X186159712Y-136099609D02*
X185826379Y-136099609D01*
X186731141Y-135623419D02*
X187350188Y-135623419D01*
X187350188Y-135623419D02*
X187016855Y-136004371D01*
X187016855Y-136004371D02*
X187159712Y-136004371D01*
X187159712Y-136004371D02*
X187254950Y-136051990D01*
X187254950Y-136051990D02*
X187302569Y-136099609D01*
X187302569Y-136099609D02*
X187350188Y-136194847D01*
X187350188Y-136194847D02*
X187350188Y-136432942D01*
X187350188Y-136432942D02*
X187302569Y-136528180D01*
X187302569Y-136528180D02*
X187254950Y-136575800D01*
X187254950Y-136575800D02*
X187159712Y-136623419D01*
X187159712Y-136623419D02*
X186873998Y-136623419D01*
X186873998Y-136623419D02*
X186778760Y-136575800D01*
X186778760Y-136575800D02*
X186731141Y-136528180D01*
X187778760Y-136623419D02*
X187778760Y-135623419D01*
X187778760Y-135623419D02*
X188016855Y-135623419D01*
X188016855Y-135623419D02*
X188159712Y-135671038D01*
X188159712Y-135671038D02*
X188254950Y-135766276D01*
X188254950Y-135766276D02*
X188302569Y-135861514D01*
X188302569Y-135861514D02*
X188350188Y-136051990D01*
X188350188Y-136051990D02*
X188350188Y-136194847D01*
X188350188Y-136194847D02*
X188302569Y-136385323D01*
X188302569Y-136385323D02*
X188254950Y-136480561D01*
X188254950Y-136480561D02*
X188159712Y-136575800D01*
X188159712Y-136575800D02*
X188016855Y-136623419D01*
X188016855Y-136623419D02*
X187778760Y-136623419D01*
X188540665Y-136718657D02*
X189302569Y-136718657D01*
X189873998Y-136099609D02*
X190016855Y-136147228D01*
X190016855Y-136147228D02*
X190064474Y-136194847D01*
X190064474Y-136194847D02*
X190112093Y-136290085D01*
X190112093Y-136290085D02*
X190112093Y-136432942D01*
X190112093Y-136432942D02*
X190064474Y-136528180D01*
X190064474Y-136528180D02*
X190016855Y-136575800D01*
X190016855Y-136575800D02*
X189921617Y-136623419D01*
X189921617Y-136623419D02*
X189540665Y-136623419D01*
X189540665Y-136623419D02*
X189540665Y-135623419D01*
X189540665Y-135623419D02*
X189873998Y-135623419D01*
X189873998Y-135623419D02*
X189969236Y-135671038D01*
X189969236Y-135671038D02*
X190016855Y-135718657D01*
X190016855Y-135718657D02*
X190064474Y-135813895D01*
X190064474Y-135813895D02*
X190064474Y-135909133D01*
X190064474Y-135909133D02*
X190016855Y-136004371D01*
X190016855Y-136004371D02*
X189969236Y-136051990D01*
X189969236Y-136051990D02*
X189873998Y-136099609D01*
X189873998Y-136099609D02*
X189540665Y-136099609D01*
X191112093Y-136623419D02*
X190778760Y-136147228D01*
X190540665Y-136623419D02*
X190540665Y-135623419D01*
X190540665Y-135623419D02*
X190921617Y-135623419D01*
X190921617Y-135623419D02*
X191016855Y-135671038D01*
X191016855Y-135671038D02*
X191064474Y-135718657D01*
X191064474Y-135718657D02*
X191112093Y-135813895D01*
X191112093Y-135813895D02*
X191112093Y-135956752D01*
X191112093Y-135956752D02*
X191064474Y-136051990D01*
X191064474Y-136051990D02*
X191016855Y-136099609D01*
X191016855Y-136099609D02*
X190921617Y-136147228D01*
X190921617Y-136147228D02*
X190540665Y-136147228D01*
X191302570Y-136718657D02*
X192064474Y-136718657D01*
X193064475Y-135956752D02*
X192302570Y-136242466D01*
X192302570Y-136242466D02*
X193064475Y-136528180D01*
X193969236Y-136623419D02*
X193969236Y-135623419D01*
X193969236Y-136575800D02*
X193873998Y-136623419D01*
X193873998Y-136623419D02*
X193683522Y-136623419D01*
X193683522Y-136623419D02*
X193588284Y-136575800D01*
X193588284Y-136575800D02*
X193540665Y-136528180D01*
X193540665Y-136528180D02*
X193493046Y-136432942D01*
X193493046Y-136432942D02*
X193493046Y-136147228D01*
X193493046Y-136147228D02*
X193540665Y-136051990D01*
X193540665Y-136051990D02*
X193588284Y-136004371D01*
X193588284Y-136004371D02*
X193683522Y-135956752D01*
X193683522Y-135956752D02*
X193873998Y-135956752D01*
X193873998Y-135956752D02*
X193969236Y-136004371D01*
X194445427Y-136623419D02*
X194445427Y-135956752D01*
X194445427Y-136147228D02*
X194493046Y-136051990D01*
X194493046Y-136051990D02*
X194540665Y-136004371D01*
X194540665Y-136004371D02*
X194635903Y-135956752D01*
X194635903Y-135956752D02*
X194731141Y-135956752D01*
X194969237Y-135956752D02*
X195207332Y-136623419D01*
X195207332Y-136623419D02*
X195445427Y-135956752D01*
X196207332Y-136575800D02*
X196112094Y-136623419D01*
X196112094Y-136623419D02*
X195921618Y-136623419D01*
X195921618Y-136623419D02*
X195826380Y-136575800D01*
X195826380Y-136575800D02*
X195778761Y-136480561D01*
X195778761Y-136480561D02*
X195778761Y-136099609D01*
X195778761Y-136099609D02*
X195826380Y-136004371D01*
X195826380Y-136004371D02*
X195921618Y-135956752D01*
X195921618Y-135956752D02*
X196112094Y-135956752D01*
X196112094Y-135956752D02*
X196207332Y-136004371D01*
X196207332Y-136004371D02*
X196254951Y-136099609D01*
X196254951Y-136099609D02*
X196254951Y-136194847D01*
X196254951Y-136194847D02*
X195778761Y-136290085D01*
X196635904Y-136575800D02*
X196731142Y-136623419D01*
X196731142Y-136623419D02*
X196921618Y-136623419D01*
X196921618Y-136623419D02*
X197016856Y-136575800D01*
X197016856Y-136575800D02*
X197064475Y-136480561D01*
X197064475Y-136480561D02*
X197064475Y-136432942D01*
X197064475Y-136432942D02*
X197016856Y-136337704D01*
X197016856Y-136337704D02*
X196921618Y-136290085D01*
X196921618Y-136290085D02*
X196778761Y-136290085D01*
X196778761Y-136290085D02*
X196683523Y-136242466D01*
X196683523Y-136242466D02*
X196635904Y-136147228D01*
X196635904Y-136147228D02*
X196635904Y-136099609D01*
X196635904Y-136099609D02*
X196683523Y-136004371D01*
X196683523Y-136004371D02*
X196778761Y-135956752D01*
X196778761Y-135956752D02*
X196921618Y-135956752D01*
X196921618Y-135956752D02*
X197016856Y-136004371D01*
X197921618Y-136575800D02*
X197826380Y-136623419D01*
X197826380Y-136623419D02*
X197635904Y-136623419D01*
X197635904Y-136623419D02*
X197540666Y-136575800D01*
X197540666Y-136575800D02*
X197493047Y-136528180D01*
X197493047Y-136528180D02*
X197445428Y-136432942D01*
X197445428Y-136432942D02*
X197445428Y-136147228D01*
X197445428Y-136147228D02*
X197493047Y-136051990D01*
X197493047Y-136051990D02*
X197540666Y-136004371D01*
X197540666Y-136004371D02*
X197635904Y-135956752D01*
X197635904Y-135956752D02*
X197826380Y-135956752D01*
X197826380Y-135956752D02*
X197921618Y-136004371D01*
X198350190Y-135956752D02*
X199112095Y-136242466D01*
X199112095Y-136242466D02*
X198350190Y-136528180D01*
X79914979Y-84909019D02*
X79914979Y-83909019D01*
X79914979Y-83909019D02*
X80295931Y-83909019D01*
X80295931Y-83909019D02*
X80391169Y-83956638D01*
X80391169Y-83956638D02*
X80438788Y-84004257D01*
X80438788Y-84004257D02*
X80486407Y-84099495D01*
X80486407Y-84099495D02*
X80486407Y-84242352D01*
X80486407Y-84242352D02*
X80438788Y-84337590D01*
X80438788Y-84337590D02*
X80391169Y-84385209D01*
X80391169Y-84385209D02*
X80295931Y-84432828D01*
X80295931Y-84432828D02*
X79914979Y-84432828D01*
X81486407Y-84813780D02*
X81438788Y-84861400D01*
X81438788Y-84861400D02*
X81295931Y-84909019D01*
X81295931Y-84909019D02*
X81200693Y-84909019D01*
X81200693Y-84909019D02*
X81057836Y-84861400D01*
X81057836Y-84861400D02*
X80962598Y-84766161D01*
X80962598Y-84766161D02*
X80914979Y-84670923D01*
X80914979Y-84670923D02*
X80867360Y-84480447D01*
X80867360Y-84480447D02*
X80867360Y-84337590D01*
X80867360Y-84337590D02*
X80914979Y-84147114D01*
X80914979Y-84147114D02*
X80962598Y-84051876D01*
X80962598Y-84051876D02*
X81057836Y-83956638D01*
X81057836Y-83956638D02*
X81200693Y-83909019D01*
X81200693Y-83909019D02*
X81295931Y-83909019D01*
X81295931Y-83909019D02*
X81438788Y-83956638D01*
X81438788Y-83956638D02*
X81486407Y-84004257D01*
X82248312Y-84385209D02*
X82391169Y-84432828D01*
X82391169Y-84432828D02*
X82438788Y-84480447D01*
X82438788Y-84480447D02*
X82486407Y-84575685D01*
X82486407Y-84575685D02*
X82486407Y-84718542D01*
X82486407Y-84718542D02*
X82438788Y-84813780D01*
X82438788Y-84813780D02*
X82391169Y-84861400D01*
X82391169Y-84861400D02*
X82295931Y-84909019D01*
X82295931Y-84909019D02*
X81914979Y-84909019D01*
X81914979Y-84909019D02*
X81914979Y-83909019D01*
X81914979Y-83909019D02*
X82248312Y-83909019D01*
X82248312Y-83909019D02*
X82343550Y-83956638D01*
X82343550Y-83956638D02*
X82391169Y-84004257D01*
X82391169Y-84004257D02*
X82438788Y-84099495D01*
X82438788Y-84099495D02*
X82438788Y-84194733D01*
X82438788Y-84194733D02*
X82391169Y-84289971D01*
X82391169Y-84289971D02*
X82343550Y-84337590D01*
X82343550Y-84337590D02*
X82248312Y-84385209D01*
X82248312Y-84385209D02*
X81914979Y-84385209D01*
X82819741Y-83909019D02*
X83438788Y-83909019D01*
X83438788Y-83909019D02*
X83105455Y-84289971D01*
X83105455Y-84289971D02*
X83248312Y-84289971D01*
X83248312Y-84289971D02*
X83343550Y-84337590D01*
X83343550Y-84337590D02*
X83391169Y-84385209D01*
X83391169Y-84385209D02*
X83438788Y-84480447D01*
X83438788Y-84480447D02*
X83438788Y-84718542D01*
X83438788Y-84718542D02*
X83391169Y-84813780D01*
X83391169Y-84813780D02*
X83343550Y-84861400D01*
X83343550Y-84861400D02*
X83248312Y-84909019D01*
X83248312Y-84909019D02*
X82962598Y-84909019D01*
X82962598Y-84909019D02*
X82867360Y-84861400D01*
X82867360Y-84861400D02*
X82819741Y-84813780D01*
X83867360Y-84909019D02*
X83867360Y-83909019D01*
X83867360Y-83909019D02*
X84105455Y-83909019D01*
X84105455Y-83909019D02*
X84248312Y-83956638D01*
X84248312Y-83956638D02*
X84343550Y-84051876D01*
X84343550Y-84051876D02*
X84391169Y-84147114D01*
X84391169Y-84147114D02*
X84438788Y-84337590D01*
X84438788Y-84337590D02*
X84438788Y-84480447D01*
X84438788Y-84480447D02*
X84391169Y-84670923D01*
X84391169Y-84670923D02*
X84343550Y-84766161D01*
X84343550Y-84766161D02*
X84248312Y-84861400D01*
X84248312Y-84861400D02*
X84105455Y-84909019D01*
X84105455Y-84909019D02*
X83867360Y-84909019D01*
X84629265Y-85004257D02*
X85391169Y-85004257D01*
X85486408Y-83909019D02*
X86057836Y-83909019D01*
X85772122Y-84909019D02*
X85772122Y-83909019D01*
X86867360Y-84909019D02*
X86391170Y-84909019D01*
X86391170Y-84909019D02*
X86391170Y-83909019D01*
X86962599Y-85004257D02*
X87724503Y-85004257D01*
X88724504Y-84242352D02*
X87962599Y-84528066D01*
X87962599Y-84528066D02*
X88724504Y-84813780D01*
X89629265Y-84909019D02*
X89629265Y-83909019D01*
X89629265Y-84861400D02*
X89534027Y-84909019D01*
X89534027Y-84909019D02*
X89343551Y-84909019D01*
X89343551Y-84909019D02*
X89248313Y-84861400D01*
X89248313Y-84861400D02*
X89200694Y-84813780D01*
X89200694Y-84813780D02*
X89153075Y-84718542D01*
X89153075Y-84718542D02*
X89153075Y-84432828D01*
X89153075Y-84432828D02*
X89200694Y-84337590D01*
X89200694Y-84337590D02*
X89248313Y-84289971D01*
X89248313Y-84289971D02*
X89343551Y-84242352D01*
X89343551Y-84242352D02*
X89534027Y-84242352D01*
X89534027Y-84242352D02*
X89629265Y-84289971D01*
X90105456Y-84909019D02*
X90105456Y-84242352D01*
X90105456Y-84432828D02*
X90153075Y-84337590D01*
X90153075Y-84337590D02*
X90200694Y-84289971D01*
X90200694Y-84289971D02*
X90295932Y-84242352D01*
X90295932Y-84242352D02*
X90391170Y-84242352D01*
X90629266Y-84242352D02*
X90867361Y-84909019D01*
X90867361Y-84909019D02*
X91105456Y-84242352D01*
X91867361Y-84861400D02*
X91772123Y-84909019D01*
X91772123Y-84909019D02*
X91581647Y-84909019D01*
X91581647Y-84909019D02*
X91486409Y-84861400D01*
X91486409Y-84861400D02*
X91438790Y-84766161D01*
X91438790Y-84766161D02*
X91438790Y-84385209D01*
X91438790Y-84385209D02*
X91486409Y-84289971D01*
X91486409Y-84289971D02*
X91581647Y-84242352D01*
X91581647Y-84242352D02*
X91772123Y-84242352D01*
X91772123Y-84242352D02*
X91867361Y-84289971D01*
X91867361Y-84289971D02*
X91914980Y-84385209D01*
X91914980Y-84385209D02*
X91914980Y-84480447D01*
X91914980Y-84480447D02*
X91438790Y-84575685D01*
X92295933Y-84861400D02*
X92391171Y-84909019D01*
X92391171Y-84909019D02*
X92581647Y-84909019D01*
X92581647Y-84909019D02*
X92676885Y-84861400D01*
X92676885Y-84861400D02*
X92724504Y-84766161D01*
X92724504Y-84766161D02*
X92724504Y-84718542D01*
X92724504Y-84718542D02*
X92676885Y-84623304D01*
X92676885Y-84623304D02*
X92581647Y-84575685D01*
X92581647Y-84575685D02*
X92438790Y-84575685D01*
X92438790Y-84575685D02*
X92343552Y-84528066D01*
X92343552Y-84528066D02*
X92295933Y-84432828D01*
X92295933Y-84432828D02*
X92295933Y-84385209D01*
X92295933Y-84385209D02*
X92343552Y-84289971D01*
X92343552Y-84289971D02*
X92438790Y-84242352D01*
X92438790Y-84242352D02*
X92581647Y-84242352D01*
X92581647Y-84242352D02*
X92676885Y-84289971D01*
X93581647Y-84861400D02*
X93486409Y-84909019D01*
X93486409Y-84909019D02*
X93295933Y-84909019D01*
X93295933Y-84909019D02*
X93200695Y-84861400D01*
X93200695Y-84861400D02*
X93153076Y-84813780D01*
X93153076Y-84813780D02*
X93105457Y-84718542D01*
X93105457Y-84718542D02*
X93105457Y-84432828D01*
X93105457Y-84432828D02*
X93153076Y-84337590D01*
X93153076Y-84337590D02*
X93200695Y-84289971D01*
X93200695Y-84289971D02*
X93295933Y-84242352D01*
X93295933Y-84242352D02*
X93486409Y-84242352D01*
X93486409Y-84242352D02*
X93581647Y-84289971D01*
X94010219Y-84242352D02*
X94772124Y-84528066D01*
X94772124Y-84528066D02*
X94010219Y-84813780D01*
G36*
X133171020Y-91832318D02*
G01*
X133804098Y-91832318D01*
X133804098Y-91976909D01*
X133448236Y-92864000D01*
X133306087Y-92864000D01*
X133648027Y-92039436D01*
X133652196Y-92029171D01*
X133656154Y-92019747D01*
X133660421Y-92010008D01*
X133664893Y-92000365D01*
X133665368Y-91999380D01*
X133670038Y-91990030D01*
X133674679Y-91981067D01*
X133678801Y-91973490D01*
X133683907Y-91964571D01*
X133689344Y-91956163D01*
X133691502Y-91953218D01*
X133691502Y-91944914D01*
X133681741Y-91945390D01*
X133670758Y-91945790D01*
X133659958Y-91946038D01*
X133649341Y-91946134D01*
X133648027Y-91946135D01*
X133637665Y-91946135D01*
X133627187Y-91946135D01*
X133616593Y-91946135D01*
X133610658Y-91946135D01*
X133600347Y-91946135D01*
X133589843Y-91946135D01*
X133579445Y-91946135D01*
X133577685Y-91946135D01*
X133297538Y-91946135D01*
X133297538Y-92102450D01*
X133171020Y-92102450D01*
X133171020Y-91832318D01*
G37*
G36*
X134339314Y-91816866D02*
G01*
X134351645Y-91817407D01*
X134363769Y-91818309D01*
X134375687Y-91819571D01*
X134387399Y-91821194D01*
X134398906Y-91823178D01*
X134410206Y-91825522D01*
X134421300Y-91828227D01*
X134432187Y-91831292D01*
X134442869Y-91834718D01*
X134449876Y-91837203D01*
X134460180Y-91841145D01*
X134470209Y-91845371D01*
X134479964Y-91849881D01*
X134489443Y-91854674D01*
X134498648Y-91859750D01*
X134507578Y-91865109D01*
X134516234Y-91870752D01*
X134524614Y-91876678D01*
X134532720Y-91882888D01*
X134540551Y-91889381D01*
X134545619Y-91893867D01*
X134552969Y-91900819D01*
X134559996Y-91908029D01*
X134566702Y-91915497D01*
X134573085Y-91923222D01*
X134579146Y-91931205D01*
X134584886Y-91939445D01*
X134590303Y-91947943D01*
X134595399Y-91956698D01*
X134600172Y-91965712D01*
X134604624Y-91974982D01*
X134607413Y-91981306D01*
X134611297Y-91990934D01*
X134614800Y-92000769D01*
X134617921Y-92010810D01*
X134620659Y-92021056D01*
X134623015Y-92031509D01*
X134624989Y-92042168D01*
X134626582Y-92053033D01*
X134627792Y-92064104D01*
X134628620Y-92075381D01*
X134629065Y-92086865D01*
X134629150Y-92094635D01*
X134628940Y-92105496D01*
X134628311Y-92116219D01*
X134627261Y-92126806D01*
X134625792Y-92137255D01*
X134623903Y-92147567D01*
X134621594Y-92157741D01*
X134618865Y-92167778D01*
X134615717Y-92177677D01*
X134612252Y-92187325D01*
X134608451Y-92196728D01*
X134604314Y-92205887D01*
X134599841Y-92214802D01*
X134595033Y-92223473D01*
X134589888Y-92231899D01*
X134584408Y-92240081D01*
X134578592Y-92248019D01*
X134572455Y-92255667D01*
X134564355Y-92264754D01*
X134555778Y-92273317D01*
X134546724Y-92281355D01*
X134537193Y-92288869D01*
X134527185Y-92295857D01*
X134520951Y-92299799D01*
X134512414Y-92304664D01*
X134503655Y-92309126D01*
X134494675Y-92313182D01*
X134485474Y-92316834D01*
X134476052Y-92320082D01*
X134466408Y-92322925D01*
X134456543Y-92325364D01*
X134446457Y-92327398D01*
X134446457Y-92334481D01*
X134457912Y-92336634D01*
X134469076Y-92339186D01*
X134479947Y-92342137D01*
X134490527Y-92345487D01*
X134500815Y-92349236D01*
X134510811Y-92353383D01*
X134520515Y-92357929D01*
X134529927Y-92362874D01*
X134539047Y-92368218D01*
X134547875Y-92373961D01*
X134556411Y-92380102D01*
X134564655Y-92386642D01*
X134572607Y-92393581D01*
X134580267Y-92400919D01*
X134587636Y-92408655D01*
X134594712Y-92416791D01*
X134601455Y-92425248D01*
X134607764Y-92433949D01*
X134613637Y-92442894D01*
X134619075Y-92452084D01*
X134624078Y-92461518D01*
X134628646Y-92471196D01*
X134632780Y-92481118D01*
X134636477Y-92491285D01*
X134639740Y-92501696D01*
X134642568Y-92512351D01*
X134644961Y-92523250D01*
X134646919Y-92534394D01*
X134648442Y-92545782D01*
X134649529Y-92557414D01*
X134650182Y-92569290D01*
X134650399Y-92581411D01*
X134650200Y-92593596D01*
X134649601Y-92605605D01*
X134648603Y-92617438D01*
X134647205Y-92629095D01*
X134645408Y-92640576D01*
X134643212Y-92651881D01*
X134640617Y-92663010D01*
X134637622Y-92673963D01*
X134634229Y-92684740D01*
X134630435Y-92695341D01*
X134627685Y-92702311D01*
X134623298Y-92712519D01*
X134618563Y-92722444D01*
X134613480Y-92732085D01*
X134608050Y-92741443D01*
X134602272Y-92750518D01*
X134596146Y-92759309D01*
X134589672Y-92767817D01*
X134582851Y-92776042D01*
X134575682Y-92783983D01*
X134568165Y-92791641D01*
X134562960Y-92796588D01*
X134554927Y-92803765D01*
X134546580Y-92810642D01*
X134537920Y-92817218D01*
X134528946Y-92823493D01*
X134519659Y-92829468D01*
X134510058Y-92835143D01*
X134500144Y-92840516D01*
X134489917Y-92845590D01*
X134479376Y-92850362D01*
X134468521Y-92854835D01*
X134461111Y-92857649D01*
X134449762Y-92861578D01*
X134438156Y-92865120D01*
X134426292Y-92868275D01*
X134414171Y-92871044D01*
X134401792Y-92873427D01*
X134389155Y-92875424D01*
X134376261Y-92877034D01*
X134363109Y-92878257D01*
X134349699Y-92879094D01*
X134336032Y-92879545D01*
X134326778Y-92879631D01*
X134312939Y-92879444D01*
X134299357Y-92878884D01*
X134286034Y-92877950D01*
X134272968Y-92876643D01*
X134260159Y-92874962D01*
X134247609Y-92872908D01*
X134235315Y-92870480D01*
X134223280Y-92867678D01*
X134211502Y-92864503D01*
X134199981Y-92860955D01*
X134192444Y-92858382D01*
X134181379Y-92854247D01*
X134170622Y-92849812D01*
X134160175Y-92845077D01*
X134150037Y-92840041D01*
X134140208Y-92834704D01*
X134130689Y-92829067D01*
X134121478Y-92823129D01*
X134112577Y-92816891D01*
X134103984Y-92810352D01*
X134095701Y-92803513D01*
X134090350Y-92798787D01*
X134082643Y-92791453D01*
X134075275Y-92783832D01*
X134068246Y-92775923D01*
X134061557Y-92767726D01*
X134055206Y-92759242D01*
X134049195Y-92750470D01*
X134043522Y-92741410D01*
X134038189Y-92732063D01*
X134033196Y-92722428D01*
X134028541Y-92712505D01*
X134025626Y-92705730D01*
X134021610Y-92695380D01*
X134017990Y-92684845D01*
X134014764Y-92674125D01*
X134011933Y-92663220D01*
X134009498Y-92652131D01*
X134007457Y-92640858D01*
X134005811Y-92629400D01*
X134004560Y-92617757D01*
X134003704Y-92605930D01*
X134003244Y-92593917D01*
X134003156Y-92585807D01*
X134003385Y-92573465D01*
X134003558Y-92570420D01*
X134134070Y-92570420D01*
X134134276Y-92580957D01*
X134134894Y-92591260D01*
X134135925Y-92601329D01*
X134137367Y-92611162D01*
X134139222Y-92620761D01*
X134142777Y-92634720D01*
X134147259Y-92648150D01*
X134152669Y-92661052D01*
X134159006Y-92673426D01*
X134166270Y-92685272D01*
X134174462Y-92696590D01*
X134183581Y-92707380D01*
X134186826Y-92710859D01*
X134197021Y-92720680D01*
X134207821Y-92729535D01*
X134219226Y-92737424D01*
X134231237Y-92744347D01*
X134243853Y-92750304D01*
X134257074Y-92755295D01*
X134270901Y-92759320D01*
X134280455Y-92761467D01*
X134290278Y-92763184D01*
X134300370Y-92764472D01*
X134310731Y-92765331D01*
X134321362Y-92765760D01*
X134326778Y-92765814D01*
X134337542Y-92765599D01*
X134348038Y-92764955D01*
X134358265Y-92763882D01*
X134368223Y-92762379D01*
X134377911Y-92760447D01*
X134391940Y-92756744D01*
X134405363Y-92752075D01*
X134418180Y-92746440D01*
X134430393Y-92739839D01*
X134442000Y-92732272D01*
X134453002Y-92723739D01*
X134463398Y-92714240D01*
X134466729Y-92710859D01*
X134476157Y-92700245D01*
X134484658Y-92689103D01*
X134492231Y-92677434D01*
X134498877Y-92665235D01*
X134504596Y-92652509D01*
X134509387Y-92639255D01*
X134513251Y-92625473D01*
X134516188Y-92611162D01*
X134517630Y-92601329D01*
X134518661Y-92591260D01*
X134519279Y-92580957D01*
X134519485Y-92570420D01*
X134519279Y-92559745D01*
X134518661Y-92549338D01*
X134517630Y-92539198D01*
X134516188Y-92529326D01*
X134514333Y-92519720D01*
X134510778Y-92505813D01*
X134506296Y-92492506D01*
X134500886Y-92479801D01*
X134494550Y-92467696D01*
X134487285Y-92456193D01*
X134479094Y-92445291D01*
X134469974Y-92434990D01*
X134466729Y-92431690D01*
X134456534Y-92422349D01*
X134445734Y-92413927D01*
X134434329Y-92406423D01*
X134422318Y-92399839D01*
X134409703Y-92394173D01*
X134396481Y-92389426D01*
X134382655Y-92385598D01*
X134373100Y-92383556D01*
X134363277Y-92381923D01*
X134353185Y-92380698D01*
X134342824Y-92379881D01*
X134332194Y-92379473D01*
X134326778Y-92379422D01*
X134316013Y-92379626D01*
X134305517Y-92380238D01*
X134295290Y-92381259D01*
X134285333Y-92382688D01*
X134275644Y-92384526D01*
X134261616Y-92388048D01*
X134248192Y-92392489D01*
X134235375Y-92397848D01*
X134223162Y-92404126D01*
X134211555Y-92411324D01*
X134200554Y-92419439D01*
X134190157Y-92428474D01*
X134186826Y-92431690D01*
X134177398Y-92441790D01*
X134168897Y-92452492D01*
X134161324Y-92463795D01*
X134154678Y-92475699D01*
X134148959Y-92488204D01*
X134144168Y-92501310D01*
X134140304Y-92515017D01*
X134137367Y-92529326D01*
X134135925Y-92539198D01*
X134134894Y-92549338D01*
X134134276Y-92559745D01*
X134134070Y-92570420D01*
X134003558Y-92570420D01*
X134004072Y-92561352D01*
X134005217Y-92549468D01*
X134006819Y-92537813D01*
X134008880Y-92526387D01*
X134011399Y-92515190D01*
X134014376Y-92504222D01*
X134017810Y-92493483D01*
X134021718Y-92483011D01*
X134025992Y-92472845D01*
X134030633Y-92462983D01*
X134035640Y-92453427D01*
X134041013Y-92444177D01*
X134046753Y-92435231D01*
X134052859Y-92426591D01*
X134059332Y-92418256D01*
X134066209Y-92410242D01*
X134073406Y-92402564D01*
X134080924Y-92395221D01*
X134088763Y-92388214D01*
X134096922Y-92381544D01*
X134105402Y-92375209D01*
X134114202Y-92369209D01*
X134123323Y-92363546D01*
X134132807Y-92358283D01*
X134142573Y-92353486D01*
X134152621Y-92349155D01*
X134162952Y-92345289D01*
X134173565Y-92341888D01*
X134184460Y-92338954D01*
X134195638Y-92336485D01*
X134207099Y-92334481D01*
X134207099Y-92327154D01*
X134197012Y-92325108D01*
X134187147Y-92322635D01*
X134177503Y-92319735D01*
X134168081Y-92316407D01*
X134158880Y-92312652D01*
X134149900Y-92308469D01*
X134141142Y-92303859D01*
X134132604Y-92298822D01*
X134124331Y-92293421D01*
X134116362Y-92287724D01*
X134106831Y-92280183D01*
X134097777Y-92272177D01*
X134089200Y-92263706D01*
X134081100Y-92254770D01*
X134074963Y-92247286D01*
X134067740Y-92237531D01*
X134061029Y-92227346D01*
X134056030Y-92218889D01*
X134051358Y-92210158D01*
X134047016Y-92201151D01*
X134043001Y-92191870D01*
X134039314Y-92182314D01*
X134037594Y-92177433D01*
X134034503Y-92167533D01*
X134031824Y-92157497D01*
X134029557Y-92147322D01*
X134027702Y-92137011D01*
X134026260Y-92126562D01*
X134025229Y-92115975D01*
X134024611Y-92105251D01*
X134024567Y-92102939D01*
X134155075Y-92102939D01*
X134155259Y-92112724D01*
X134156226Y-92127001D01*
X134158021Y-92140796D01*
X134160645Y-92154111D01*
X134164098Y-92166946D01*
X134168379Y-92179299D01*
X134173488Y-92191172D01*
X134179427Y-92202563D01*
X134186194Y-92213474D01*
X134193789Y-92223904D01*
X134202214Y-92233853D01*
X134211318Y-92243107D01*
X134220956Y-92251450D01*
X134231125Y-92258883D01*
X134241827Y-92265406D01*
X134253061Y-92271019D01*
X134264828Y-92275722D01*
X134277127Y-92279514D01*
X134289958Y-92282396D01*
X134303322Y-92284368D01*
X134317218Y-92285430D01*
X134326778Y-92285632D01*
X134341029Y-92285177D01*
X134354747Y-92283812D01*
X134367933Y-92281537D01*
X134380587Y-92278351D01*
X134392709Y-92274255D01*
X134404298Y-92269249D01*
X134415355Y-92263333D01*
X134425879Y-92256506D01*
X134435871Y-92248770D01*
X134445331Y-92240123D01*
X134451341Y-92233853D01*
X134459766Y-92223904D01*
X134467361Y-92213474D01*
X134474128Y-92202563D01*
X134480067Y-92191172D01*
X134485176Y-92179299D01*
X134489458Y-92166946D01*
X134492910Y-92154111D01*
X134495534Y-92140796D01*
X134497329Y-92127001D01*
X134498296Y-92112724D01*
X134498480Y-92102939D01*
X134498077Y-92088686D01*
X134496866Y-92074961D01*
X134494848Y-92061764D01*
X134492023Y-92049095D01*
X134488391Y-92036954D01*
X134483952Y-92025341D01*
X134478705Y-92014256D01*
X134472652Y-92003700D01*
X134465791Y-91993671D01*
X134458123Y-91984171D01*
X134452563Y-91978131D01*
X134443696Y-91969619D01*
X134434224Y-91961945D01*
X134424147Y-91955108D01*
X134413465Y-91949108D01*
X134402177Y-91943945D01*
X134390284Y-91939620D01*
X134377785Y-91936131D01*
X134364681Y-91933480D01*
X134350972Y-91931666D01*
X134336657Y-91930689D01*
X134326778Y-91930503D01*
X134316897Y-91930689D01*
X134302577Y-91931666D01*
X134288859Y-91933480D01*
X134275741Y-91936131D01*
X134263225Y-91939620D01*
X134251309Y-91943945D01*
X134239995Y-91949108D01*
X134229282Y-91955108D01*
X134219170Y-91961945D01*
X134209658Y-91969619D01*
X134200748Y-91978131D01*
X134192586Y-91987279D01*
X134185226Y-91996956D01*
X134178670Y-92007160D01*
X134172916Y-92017893D01*
X134167965Y-92029153D01*
X134163817Y-92040942D01*
X134160472Y-92053259D01*
X134157929Y-92066104D01*
X134156190Y-92079477D01*
X134155253Y-92093378D01*
X134155075Y-92102939D01*
X134024567Y-92102939D01*
X134024405Y-92094390D01*
X134024596Y-92082770D01*
X134025169Y-92071355D01*
X134026124Y-92060147D01*
X134027462Y-92049144D01*
X134029181Y-92038348D01*
X134031283Y-92027758D01*
X134033767Y-92017374D01*
X134036632Y-92007196D01*
X134039880Y-91997224D01*
X134043510Y-91987458D01*
X134046143Y-91981062D01*
X134050379Y-91971621D01*
X134054938Y-91962443D01*
X134059819Y-91953526D01*
X134065022Y-91944872D01*
X134070547Y-91936479D01*
X134076393Y-91928348D01*
X134082562Y-91920479D01*
X134089053Y-91912872D01*
X134095866Y-91905527D01*
X134103001Y-91898444D01*
X134107936Y-91893867D01*
X134115584Y-91887185D01*
X134123506Y-91880787D01*
X134131704Y-91874671D01*
X134140176Y-91868840D01*
X134148923Y-91863291D01*
X134157945Y-91858026D01*
X134167241Y-91853044D01*
X134176812Y-91848346D01*
X134186658Y-91843931D01*
X134196779Y-91839800D01*
X134203679Y-91837203D01*
X134214224Y-91833536D01*
X134224974Y-91830230D01*
X134235931Y-91827285D01*
X134247093Y-91824700D01*
X134258462Y-91822476D01*
X134270037Y-91820613D01*
X134281818Y-91819110D01*
X134293805Y-91817968D01*
X134305998Y-91817187D01*
X134318397Y-91816766D01*
X134326778Y-91816686D01*
X134339314Y-91816866D01*
G37*
G36*
X135045096Y-92752381D02*
G01*
X135045386Y-92742134D01*
X135046255Y-92732279D01*
X135048316Y-92719746D01*
X135051407Y-92707908D01*
X135055529Y-92696765D01*
X135060681Y-92686316D01*
X135066863Y-92676561D01*
X135074076Y-92667501D01*
X135078069Y-92663232D01*
X135086655Y-92655332D01*
X135095929Y-92648486D01*
X135105889Y-92642693D01*
X135116537Y-92637953D01*
X135127871Y-92634266D01*
X135139893Y-92631633D01*
X135152601Y-92630053D01*
X135162583Y-92629559D01*
X135165996Y-92629526D01*
X135176107Y-92629823D01*
X135188987Y-92631139D01*
X135201180Y-92633509D01*
X135212686Y-92636932D01*
X135223505Y-92641409D01*
X135233637Y-92646939D01*
X135243083Y-92653522D01*
X135251841Y-92661158D01*
X135253923Y-92663232D01*
X135261651Y-92671944D01*
X135268349Y-92681352D01*
X135274016Y-92691453D01*
X135278653Y-92702250D01*
X135282259Y-92713741D01*
X135284835Y-92725926D01*
X135286381Y-92738806D01*
X135286864Y-92748922D01*
X135286896Y-92752381D01*
X135286606Y-92762903D01*
X135285737Y-92773040D01*
X135284288Y-92782790D01*
X135281454Y-92795189D01*
X135277590Y-92806902D01*
X135272696Y-92817927D01*
X135266771Y-92828265D01*
X135259816Y-92837917D01*
X135253923Y-92844704D01*
X135245337Y-92852890D01*
X135236063Y-92859985D01*
X135226103Y-92865988D01*
X135215455Y-92870899D01*
X135204121Y-92874719D01*
X135192099Y-92877448D01*
X135179391Y-92879085D01*
X135169409Y-92879597D01*
X135165996Y-92879631D01*
X135155885Y-92879324D01*
X135143005Y-92877960D01*
X135130812Y-92875504D01*
X135119306Y-92871957D01*
X135108487Y-92867318D01*
X135098355Y-92861588D01*
X135088909Y-92854766D01*
X135080151Y-92846853D01*
X135078069Y-92844704D01*
X135070341Y-92835568D01*
X135063643Y-92825745D01*
X135057976Y-92815235D01*
X135053339Y-92804038D01*
X135049733Y-92792154D01*
X135047157Y-92779583D01*
X135045901Y-92769704D01*
X135045225Y-92759439D01*
X135045096Y-92752381D01*
G37*
G36*
X135996666Y-92879631D02*
G01*
X135984391Y-92879457D01*
X135972297Y-92878936D01*
X135960383Y-92878066D01*
X135948649Y-92876849D01*
X135937096Y-92875284D01*
X135925723Y-92873371D01*
X135914530Y-92871111D01*
X135903518Y-92868503D01*
X135892686Y-92865547D01*
X135882034Y-92862243D01*
X135875033Y-92859847D01*
X135864760Y-92855950D01*
X135854731Y-92851770D01*
X135844947Y-92847307D01*
X135835408Y-92842560D01*
X135826114Y-92837529D01*
X135817064Y-92832215D01*
X135808260Y-92826618D01*
X135799699Y-92820738D01*
X135791384Y-92814574D01*
X135783313Y-92808127D01*
X135778069Y-92803672D01*
X135770419Y-92796719D01*
X135763039Y-92789509D01*
X135755930Y-92782042D01*
X135749091Y-92774317D01*
X135742523Y-92766334D01*
X135736226Y-92758094D01*
X135730199Y-92749596D01*
X135724442Y-92740840D01*
X135718956Y-92731827D01*
X135713740Y-92722556D01*
X135710413Y-92716233D01*
X135705737Y-92706517D01*
X135701417Y-92696603D01*
X135697454Y-92686493D01*
X135693847Y-92676184D01*
X135690596Y-92665679D01*
X135687702Y-92654975D01*
X135685163Y-92644075D01*
X135682982Y-92632976D01*
X135681156Y-92621681D01*
X135679687Y-92610187D01*
X135678906Y-92602415D01*
X135805424Y-92602415D01*
X135807889Y-92616034D01*
X135811071Y-92629137D01*
X135814970Y-92641725D01*
X135819586Y-92653798D01*
X135824919Y-92665356D01*
X135830969Y-92676398D01*
X135837736Y-92686925D01*
X135845220Y-92696937D01*
X135853421Y-92706434D01*
X135862339Y-92715416D01*
X135868683Y-92721117D01*
X135878647Y-92729105D01*
X135889033Y-92736307D01*
X135899839Y-92742724D01*
X135911066Y-92748354D01*
X135922714Y-92753199D01*
X135934783Y-92757259D01*
X135947272Y-92760532D01*
X135960182Y-92763020D01*
X135973513Y-92764723D01*
X135987264Y-92765639D01*
X135996666Y-92765814D01*
X136007611Y-92765600D01*
X136018281Y-92764959D01*
X136028677Y-92763890D01*
X136038798Y-92762394D01*
X136048644Y-92760471D01*
X136058215Y-92758120D01*
X136072057Y-92753793D01*
X136085280Y-92748503D01*
X136097885Y-92742252D01*
X136109872Y-92735039D01*
X136121241Y-92726865D01*
X136131992Y-92717729D01*
X136138815Y-92711103D01*
X136148374Y-92700540D01*
X136156993Y-92689368D01*
X136164672Y-92677585D01*
X136171410Y-92665193D01*
X136177208Y-92652192D01*
X136182066Y-92638581D01*
X136184783Y-92629168D01*
X136187081Y-92619484D01*
X136188961Y-92609529D01*
X136190424Y-92599303D01*
X136191469Y-92588807D01*
X136192095Y-92578039D01*
X136192304Y-92567000D01*
X136192090Y-92555962D01*
X136191446Y-92545194D01*
X136190372Y-92534697D01*
X136188870Y-92524471D01*
X136186938Y-92514517D01*
X136184576Y-92504833D01*
X136181786Y-92495420D01*
X136176795Y-92481809D01*
X136170838Y-92468807D01*
X136163915Y-92456415D01*
X136156026Y-92444633D01*
X136147171Y-92433460D01*
X136137350Y-92422897D01*
X136126767Y-92413120D01*
X136115537Y-92404304D01*
X136103658Y-92396450D01*
X136091131Y-92389558D01*
X136077955Y-92383627D01*
X136064131Y-92378658D01*
X136054555Y-92375880D01*
X136044691Y-92373529D01*
X136034539Y-92371606D01*
X136024098Y-92370110D01*
X136013370Y-92369041D01*
X136002353Y-92368400D01*
X135991048Y-92368187D01*
X135873079Y-92368187D01*
X135873079Y-92232876D01*
X136074091Y-92020629D01*
X136081250Y-92013500D01*
X136088562Y-92006524D01*
X136096027Y-91999700D01*
X136103644Y-91993030D01*
X136111353Y-91986618D01*
X136119770Y-91979843D01*
X136127917Y-91973532D01*
X136133198Y-91969582D01*
X136141090Y-91963079D01*
X136149135Y-91956759D01*
X136157332Y-91950623D01*
X136165682Y-91944669D01*
X136165682Y-91941983D01*
X136155793Y-91942770D01*
X136145665Y-91943605D01*
X136135299Y-91944487D01*
X136133198Y-91944669D01*
X136123366Y-91945442D01*
X136113105Y-91945929D01*
X136102414Y-91946129D01*
X136100225Y-91946135D01*
X136090159Y-91946135D01*
X136079746Y-91946135D01*
X136068984Y-91946135D01*
X136062856Y-91946135D01*
X135709681Y-91946135D01*
X135709681Y-91832318D01*
X136272416Y-91832318D01*
X136272416Y-91979596D01*
X136034768Y-92212360D01*
X136027822Y-92219262D01*
X136020342Y-92226154D01*
X136017671Y-92228480D01*
X136010154Y-92234852D01*
X136002283Y-92241424D01*
X135994948Y-92248606D01*
X135988362Y-92254369D01*
X136002473Y-92254563D01*
X136016323Y-92255142D01*
X136029910Y-92256108D01*
X136043236Y-92257461D01*
X136056300Y-92259199D01*
X136069102Y-92261325D01*
X136081642Y-92263836D01*
X136093920Y-92266734D01*
X136105937Y-92270019D01*
X136117691Y-92273689D01*
X136125382Y-92276351D01*
X136136713Y-92280636D01*
X136147719Y-92285247D01*
X136158398Y-92290184D01*
X136168750Y-92295448D01*
X136178777Y-92301038D01*
X136188477Y-92306954D01*
X136197850Y-92313197D01*
X136206898Y-92319765D01*
X136215619Y-92326660D01*
X136224014Y-92333882D01*
X136229429Y-92338877D01*
X136237322Y-92346636D01*
X136244880Y-92354708D01*
X136252102Y-92363094D01*
X136258990Y-92371793D01*
X136265543Y-92380805D01*
X136271762Y-92390131D01*
X136277645Y-92399770D01*
X136283193Y-92409723D01*
X136288407Y-92419989D01*
X136293285Y-92430569D01*
X136296352Y-92437796D01*
X136300629Y-92448809D01*
X136304486Y-92460049D01*
X136307922Y-92471518D01*
X136310938Y-92483213D01*
X136313532Y-92495137D01*
X136315706Y-92507288D01*
X136317459Y-92519666D01*
X136318792Y-92532272D01*
X136319703Y-92545105D01*
X136320194Y-92558166D01*
X136320288Y-92567000D01*
X136320090Y-92580471D01*
X136319498Y-92593679D01*
X136318510Y-92606625D01*
X136317128Y-92619310D01*
X136315350Y-92631733D01*
X136313178Y-92643894D01*
X136310611Y-92655793D01*
X136307648Y-92667430D01*
X136304291Y-92678805D01*
X136300538Y-92689918D01*
X136297817Y-92697182D01*
X136293430Y-92707795D01*
X136288695Y-92718113D01*
X136283613Y-92728134D01*
X136278183Y-92737860D01*
X136272404Y-92747288D01*
X136266279Y-92756421D01*
X136259805Y-92765257D01*
X136252984Y-92773798D01*
X136245814Y-92782041D01*
X136238297Y-92789989D01*
X136233093Y-92795123D01*
X136225016Y-92802562D01*
X136216629Y-92809675D01*
X136207934Y-92816461D01*
X136198930Y-92822921D01*
X136189616Y-92829055D01*
X136179993Y-92834862D01*
X136170061Y-92840343D01*
X136159820Y-92845498D01*
X136149270Y-92850327D01*
X136138411Y-92854829D01*
X136130999Y-92857649D01*
X136119692Y-92861578D01*
X136108119Y-92865120D01*
X136096279Y-92868275D01*
X136084174Y-92871044D01*
X136071802Y-92873427D01*
X136059163Y-92875424D01*
X136046259Y-92877034D01*
X136033089Y-92878257D01*
X136019652Y-92879094D01*
X136005949Y-92879545D01*
X135996666Y-92879631D01*
G37*
G36*
X136856969Y-91816866D02*
G01*
X136869300Y-91817407D01*
X136881424Y-91818309D01*
X136893342Y-91819571D01*
X136905055Y-91821194D01*
X136916561Y-91823178D01*
X136927861Y-91825522D01*
X136938955Y-91828227D01*
X136949843Y-91831292D01*
X136960525Y-91834718D01*
X136967531Y-91837203D01*
X136977835Y-91841145D01*
X136987864Y-91845371D01*
X136997619Y-91849881D01*
X137007099Y-91854674D01*
X137016303Y-91859750D01*
X137025234Y-91865109D01*
X137033889Y-91870752D01*
X137042270Y-91876678D01*
X137050375Y-91882888D01*
X137058206Y-91889381D01*
X137063274Y-91893867D01*
X137070624Y-91900819D01*
X137077651Y-91908029D01*
X137084357Y-91915497D01*
X137090740Y-91923222D01*
X137096802Y-91931205D01*
X137102541Y-91939445D01*
X137107959Y-91947943D01*
X137113054Y-91956698D01*
X137117828Y-91965712D01*
X137122279Y-91974982D01*
X137125068Y-91981306D01*
X137128953Y-91990934D01*
X137132455Y-92000769D01*
X137135576Y-92010810D01*
X137138314Y-92021056D01*
X137140671Y-92031509D01*
X137142645Y-92042168D01*
X137144237Y-92053033D01*
X137145447Y-92064104D01*
X137146275Y-92075381D01*
X137146721Y-92086865D01*
X137146805Y-92094635D01*
X137146596Y-92105496D01*
X137145966Y-92116219D01*
X137144916Y-92126806D01*
X137143447Y-92137255D01*
X137141558Y-92147567D01*
X137139249Y-92157741D01*
X137136521Y-92167778D01*
X137133372Y-92177677D01*
X137129907Y-92187325D01*
X137126106Y-92196728D01*
X137121969Y-92205887D01*
X137117496Y-92214802D01*
X137112688Y-92223473D01*
X137107543Y-92231899D01*
X137102063Y-92240081D01*
X137096247Y-92248019D01*
X137090111Y-92255667D01*
X137082011Y-92264754D01*
X137073433Y-92273317D01*
X137064379Y-92281355D01*
X137054848Y-92288869D01*
X137044840Y-92295857D01*
X137038606Y-92299799D01*
X137030069Y-92304664D01*
X137021310Y-92309126D01*
X137012331Y-92313182D01*
X137003130Y-92316834D01*
X136993707Y-92320082D01*
X136984063Y-92322925D01*
X136974198Y-92325364D01*
X136964112Y-92327398D01*
X136964112Y-92334481D01*
X136975567Y-92336634D01*
X136986731Y-92339186D01*
X136997603Y-92342137D01*
X137008182Y-92345487D01*
X137018470Y-92349236D01*
X137028466Y-92353383D01*
X137038170Y-92357929D01*
X137047582Y-92362874D01*
X137056702Y-92368218D01*
X137065530Y-92373961D01*
X137074066Y-92380102D01*
X137082310Y-92386642D01*
X137090262Y-92393581D01*
X137097923Y-92400919D01*
X137105291Y-92408655D01*
X137112367Y-92416791D01*
X137119111Y-92425248D01*
X137125419Y-92433949D01*
X137131292Y-92442894D01*
X137136730Y-92452084D01*
X137141734Y-92461518D01*
X137146302Y-92471196D01*
X137150435Y-92481118D01*
X137154133Y-92491285D01*
X137157396Y-92501696D01*
X137160224Y-92512351D01*
X137162616Y-92523250D01*
X137164574Y-92534394D01*
X137166097Y-92545782D01*
X137167184Y-92557414D01*
X137167837Y-92569290D01*
X137168055Y-92581411D01*
X137167855Y-92593596D01*
X137167256Y-92605605D01*
X137166258Y-92617438D01*
X137164860Y-92629095D01*
X137163064Y-92640576D01*
X137160868Y-92651881D01*
X137158272Y-92663010D01*
X137155278Y-92673963D01*
X137151884Y-92684740D01*
X137148091Y-92695341D01*
X137145340Y-92702311D01*
X137140953Y-92712519D01*
X137136218Y-92722444D01*
X137131136Y-92732085D01*
X137125705Y-92741443D01*
X137119927Y-92750518D01*
X137113801Y-92759309D01*
X137107328Y-92767817D01*
X137100506Y-92776042D01*
X137093337Y-92783983D01*
X137085820Y-92791641D01*
X137080616Y-92796588D01*
X137072582Y-92803765D01*
X137064235Y-92810642D01*
X137055575Y-92817218D01*
X137046601Y-92823493D01*
X137037314Y-92829468D01*
X137027713Y-92835143D01*
X137017799Y-92840516D01*
X137007572Y-92845590D01*
X136997031Y-92850362D01*
X136986177Y-92854835D01*
X136978766Y-92857649D01*
X136967418Y-92861578D01*
X136955811Y-92865120D01*
X136943947Y-92868275D01*
X136931826Y-92871044D01*
X136919447Y-92873427D01*
X136906810Y-92875424D01*
X136893916Y-92877034D01*
X136880764Y-92878257D01*
X136867354Y-92879094D01*
X136853687Y-92879545D01*
X136844433Y-92879631D01*
X136830594Y-92879444D01*
X136817013Y-92878884D01*
X136803689Y-92877950D01*
X136790623Y-92876643D01*
X136777815Y-92874962D01*
X136765264Y-92872908D01*
X136752971Y-92870480D01*
X136740935Y-92867678D01*
X136729157Y-92864503D01*
X136717636Y-92860955D01*
X136710099Y-92858382D01*
X136699034Y-92854247D01*
X136688278Y-92849812D01*
X136677831Y-92845077D01*
X136667693Y-92840041D01*
X136657864Y-92834704D01*
X136648344Y-92829067D01*
X136639133Y-92823129D01*
X136630232Y-92816891D01*
X136621639Y-92810352D01*
X136613356Y-92803513D01*
X136608006Y-92798787D01*
X136600299Y-92791453D01*
X136592930Y-92783832D01*
X136585902Y-92775923D01*
X136579212Y-92767726D01*
X136572861Y-92759242D01*
X136566850Y-92750470D01*
X136561178Y-92741410D01*
X136555845Y-92732063D01*
X136550851Y-92722428D01*
X136546196Y-92712505D01*
X136543281Y-92705730D01*
X136539266Y-92695380D01*
X136535645Y-92684845D01*
X136532419Y-92674125D01*
X136529589Y-92663220D01*
X136527153Y-92652131D01*
X136525112Y-92640858D01*
X136523466Y-92629400D01*
X136522215Y-92617757D01*
X136521360Y-92605930D01*
X136520899Y-92593917D01*
X136520811Y-92585807D01*
X136521040Y-92573465D01*
X136521213Y-92570420D01*
X136651725Y-92570420D01*
X136651931Y-92580957D01*
X136652550Y-92591260D01*
X136653580Y-92601329D01*
X136655023Y-92611162D01*
X136656877Y-92620761D01*
X136660432Y-92634720D01*
X136664914Y-92648150D01*
X136670324Y-92661052D01*
X136676661Y-92673426D01*
X136683925Y-92685272D01*
X136692117Y-92696590D01*
X136701236Y-92707380D01*
X136704482Y-92710859D01*
X136714676Y-92720680D01*
X136725476Y-92729535D01*
X136736881Y-92737424D01*
X136748892Y-92744347D01*
X136761508Y-92750304D01*
X136774729Y-92755295D01*
X136788556Y-92759320D01*
X136798110Y-92761467D01*
X136807933Y-92763184D01*
X136818025Y-92764472D01*
X136828387Y-92765331D01*
X136839017Y-92765760D01*
X136844433Y-92765814D01*
X136855198Y-92765599D01*
X136865693Y-92764955D01*
X136875920Y-92763882D01*
X136885878Y-92762379D01*
X136895566Y-92760447D01*
X136909595Y-92756744D01*
X136923018Y-92752075D01*
X136935836Y-92746440D01*
X136948048Y-92739839D01*
X136959655Y-92732272D01*
X136970657Y-92723739D01*
X136981053Y-92714240D01*
X136984384Y-92710859D01*
X136993812Y-92700245D01*
X137002313Y-92689103D01*
X137009886Y-92677434D01*
X137016532Y-92665235D01*
X137022251Y-92652509D01*
X137027043Y-92639255D01*
X137030907Y-92625473D01*
X137033843Y-92611162D01*
X137035286Y-92601329D01*
X137036316Y-92591260D01*
X137036934Y-92580957D01*
X137037140Y-92570420D01*
X137036934Y-92559745D01*
X137036316Y-92549338D01*
X137035286Y-92539198D01*
X137033843Y-92529326D01*
X137031988Y-92519720D01*
X137028434Y-92505813D01*
X137023951Y-92492506D01*
X137018542Y-92479801D01*
X137012205Y-92467696D01*
X137004940Y-92456193D01*
X136996749Y-92445291D01*
X136987630Y-92434990D01*
X136984384Y-92431690D01*
X136974189Y-92422349D01*
X136963390Y-92413927D01*
X136951984Y-92406423D01*
X136939974Y-92399839D01*
X136927358Y-92394173D01*
X136914136Y-92389426D01*
X136900310Y-92385598D01*
X136890756Y-92383556D01*
X136880933Y-92381923D01*
X136870840Y-92380698D01*
X136860479Y-92379881D01*
X136849849Y-92379473D01*
X136844433Y-92379422D01*
X136833668Y-92379626D01*
X136823172Y-92380238D01*
X136812946Y-92381259D01*
X136802988Y-92382688D01*
X136793299Y-92384526D01*
X136779271Y-92388048D01*
X136765848Y-92392489D01*
X136753030Y-92397848D01*
X136740818Y-92404126D01*
X136729211Y-92411324D01*
X136718209Y-92419439D01*
X136707813Y-92428474D01*
X136704482Y-92431690D01*
X136695054Y-92441790D01*
X136686553Y-92452492D01*
X136678979Y-92463795D01*
X136672333Y-92475699D01*
X136666614Y-92488204D01*
X136661823Y-92501310D01*
X136657959Y-92515017D01*
X136655023Y-92529326D01*
X136653580Y-92539198D01*
X136652550Y-92549338D01*
X136651931Y-92559745D01*
X136651725Y-92570420D01*
X136521213Y-92570420D01*
X136521727Y-92561352D01*
X136522872Y-92549468D01*
X136524475Y-92537813D01*
X136526536Y-92526387D01*
X136529054Y-92515190D01*
X136532031Y-92504222D01*
X136535466Y-92493483D01*
X136539374Y-92483011D01*
X136543648Y-92472845D01*
X136548288Y-92462983D01*
X136553295Y-92453427D01*
X136558669Y-92444177D01*
X136564408Y-92435231D01*
X136570514Y-92426591D01*
X136576987Y-92418256D01*
X136583864Y-92410242D01*
X136591061Y-92402564D01*
X136598580Y-92395221D01*
X136606418Y-92388214D01*
X136614577Y-92381544D01*
X136623057Y-92375209D01*
X136631858Y-92369209D01*
X136640979Y-92363546D01*
X136650462Y-92358283D01*
X136660228Y-92353486D01*
X136670276Y-92349155D01*
X136680607Y-92345289D01*
X136691220Y-92341888D01*
X136702116Y-92338954D01*
X136713294Y-92336485D01*
X136724754Y-92334481D01*
X136724754Y-92327154D01*
X136714667Y-92325108D01*
X136704802Y-92322635D01*
X136695158Y-92319735D01*
X136685736Y-92316407D01*
X136676535Y-92312652D01*
X136667555Y-92308469D01*
X136658797Y-92303859D01*
X136650260Y-92298822D01*
X136641986Y-92293421D01*
X136634018Y-92287724D01*
X136624486Y-92280183D01*
X136615432Y-92272177D01*
X136606855Y-92263706D01*
X136598755Y-92254770D01*
X136592618Y-92247286D01*
X136585395Y-92237531D01*
X136578684Y-92227346D01*
X136573685Y-92218889D01*
X136569014Y-92210158D01*
X136564671Y-92201151D01*
X136560656Y-92191870D01*
X136556969Y-92182314D01*
X136555249Y-92177433D01*
X136552158Y-92167533D01*
X136549479Y-92157497D01*
X136547212Y-92147322D01*
X136545357Y-92137011D01*
X136543915Y-92126562D01*
X136542885Y-92115975D01*
X136542266Y-92105251D01*
X136542222Y-92102939D01*
X136672730Y-92102939D01*
X136672914Y-92112724D01*
X136673881Y-92127001D01*
X136675676Y-92140796D01*
X136678300Y-92154111D01*
X136681753Y-92166946D01*
X136686034Y-92179299D01*
X136691144Y-92191172D01*
X136697082Y-92202563D01*
X136703849Y-92213474D01*
X136711445Y-92223904D01*
X136719869Y-92233853D01*
X136728974Y-92243107D01*
X136738611Y-92251450D01*
X136748780Y-92258883D01*
X136759482Y-92265406D01*
X136770716Y-92271019D01*
X136782483Y-92275722D01*
X136794782Y-92279514D01*
X136807613Y-92282396D01*
X136820977Y-92284368D01*
X136834873Y-92285430D01*
X136844433Y-92285632D01*
X136858684Y-92285177D01*
X136872402Y-92283812D01*
X136885589Y-92281537D01*
X136898243Y-92278351D01*
X136910364Y-92274255D01*
X136921953Y-92269249D01*
X136933010Y-92263333D01*
X136943534Y-92256506D01*
X136953526Y-92248770D01*
X136962986Y-92240123D01*
X136968997Y-92233853D01*
X136977421Y-92223904D01*
X136985017Y-92213474D01*
X136991784Y-92202563D01*
X136997722Y-92191172D01*
X137002832Y-92179299D01*
X137007113Y-92166946D01*
X137010565Y-92154111D01*
X137013189Y-92140796D01*
X137014985Y-92127001D01*
X137015951Y-92112724D01*
X137016136Y-92102939D01*
X137015732Y-92088686D01*
X137014521Y-92074961D01*
X137012503Y-92061764D01*
X137009678Y-92049095D01*
X137006046Y-92036954D01*
X137001607Y-92025341D01*
X136996360Y-92014256D01*
X136990307Y-92003700D01*
X136983446Y-91993671D01*
X136975778Y-91984171D01*
X136970218Y-91978131D01*
X136961351Y-91969619D01*
X136951880Y-91961945D01*
X136941802Y-91955108D01*
X136931120Y-91949108D01*
X136919832Y-91943945D01*
X136907939Y-91939620D01*
X136895440Y-91936131D01*
X136882336Y-91933480D01*
X136868627Y-91931666D01*
X136854312Y-91930689D01*
X136844433Y-91930503D01*
X136834552Y-91930689D01*
X136820233Y-91931666D01*
X136806514Y-91933480D01*
X136793397Y-91936131D01*
X136780880Y-91939620D01*
X136768965Y-91943945D01*
X136757650Y-91949108D01*
X136746937Y-91955108D01*
X136736825Y-91961945D01*
X136727314Y-91969619D01*
X136718404Y-91978131D01*
X136710241Y-91987279D01*
X136702882Y-91996956D01*
X136696325Y-92007160D01*
X136690571Y-92017893D01*
X136685620Y-92029153D01*
X136681472Y-92040942D01*
X136678127Y-92053259D01*
X136675585Y-92066104D01*
X136673845Y-92079477D01*
X136672909Y-92093378D01*
X136672730Y-92102939D01*
X136542222Y-92102939D01*
X136542060Y-92094390D01*
X136542251Y-92082770D01*
X136542824Y-92071355D01*
X136543780Y-92060147D01*
X136545117Y-92049144D01*
X136546837Y-92038348D01*
X136548938Y-92027758D01*
X136551422Y-92017374D01*
X136554288Y-92007196D01*
X136557535Y-91997224D01*
X136561166Y-91987458D01*
X136563798Y-91981062D01*
X136568035Y-91971621D01*
X136572593Y-91962443D01*
X136577474Y-91953526D01*
X136582677Y-91944872D01*
X136588202Y-91936479D01*
X136594049Y-91928348D01*
X136600217Y-91920479D01*
X136606708Y-91912872D01*
X136613521Y-91905527D01*
X136620656Y-91898444D01*
X136625591Y-91893867D01*
X136633239Y-91887185D01*
X136641162Y-91880787D01*
X136649359Y-91874671D01*
X136657831Y-91868840D01*
X136666578Y-91863291D01*
X136675600Y-91858026D01*
X136684896Y-91853044D01*
X136694468Y-91848346D01*
X136704314Y-91843931D01*
X136714435Y-91839800D01*
X136721334Y-91837203D01*
X136731879Y-91833536D01*
X136742629Y-91830230D01*
X136753586Y-91827285D01*
X136764749Y-91824700D01*
X136776117Y-91822476D01*
X136787692Y-91820613D01*
X136799473Y-91819110D01*
X136811460Y-91817968D01*
X136823653Y-91817187D01*
X136836052Y-91816766D01*
X136844433Y-91816686D01*
X136856969Y-91816866D01*
G37*
G36*
X137780616Y-91832318D02*
G01*
X137918613Y-91832318D01*
X137507796Y-92475409D01*
X137507796Y-92531341D01*
X137838501Y-92531341D01*
X137838501Y-92285632D01*
X137965019Y-92285632D01*
X137965019Y-92864000D01*
X137838501Y-92864000D01*
X137838501Y-92645158D01*
X137381279Y-92645158D01*
X137381279Y-92461487D01*
X137780616Y-91832318D01*
G37*
G36*
X138619834Y-91832318D02*
G01*
X138757831Y-91832318D01*
X138347015Y-92475409D01*
X138347015Y-92531341D01*
X138677720Y-92531341D01*
X138677720Y-92285632D01*
X138804237Y-92285632D01*
X138804237Y-92864000D01*
X138677720Y-92864000D01*
X138677720Y-92645158D01*
X138220497Y-92645158D01*
X138220497Y-92461487D01*
X138619834Y-91832318D01*
G37*
G36*
X139866450Y-92864000D02*
G01*
X139866450Y-92082422D01*
X139974893Y-92082422D01*
X139974893Y-92196484D01*
X139984663Y-92196484D01*
X139985944Y-92184972D01*
X139987680Y-92173975D01*
X139989871Y-92163494D01*
X139992517Y-92153528D01*
X139995618Y-92144077D01*
X140000461Y-92132277D01*
X140006113Y-92121392D01*
X140012574Y-92111424D01*
X140019844Y-92102372D01*
X140021788Y-92100252D01*
X140030111Y-92092410D01*
X140039206Y-92085613D01*
X140049071Y-92079862D01*
X140059707Y-92075156D01*
X140071114Y-92071496D01*
X140083291Y-92068882D01*
X140096240Y-92067314D01*
X140106458Y-92066824D01*
X140109960Y-92066791D01*
X140122852Y-92067297D01*
X140135151Y-92068817D01*
X140146857Y-92071350D01*
X140157969Y-92074897D01*
X140168487Y-92079456D01*
X140178413Y-92085029D01*
X140187744Y-92091615D01*
X140196483Y-92099214D01*
X140204628Y-92107827D01*
X140212179Y-92117452D01*
X140219137Y-92128091D01*
X140225502Y-92139743D01*
X140231273Y-92152408D01*
X140236451Y-92166087D01*
X140241035Y-92180779D01*
X140245026Y-92196484D01*
X140253330Y-92196484D01*
X140254624Y-92184972D01*
X140256399Y-92173975D01*
X140258654Y-92163494D01*
X140261390Y-92153528D01*
X140264607Y-92144077D01*
X140269645Y-92132277D01*
X140275537Y-92121392D01*
X140282284Y-92111424D01*
X140289887Y-92102372D01*
X140291921Y-92100252D01*
X140300584Y-92092410D01*
X140309964Y-92085613D01*
X140320062Y-92079862D01*
X140330877Y-92075156D01*
X140342410Y-92071496D01*
X140354661Y-92068882D01*
X140367628Y-92067314D01*
X140377825Y-92066824D01*
X140381314Y-92066791D01*
X140394511Y-92067261D01*
X140407177Y-92068671D01*
X140419309Y-92071022D01*
X140430910Y-92074313D01*
X140441978Y-92078544D01*
X140452514Y-92083715D01*
X140462518Y-92089827D01*
X140471989Y-92096879D01*
X140480927Y-92104871D01*
X140489334Y-92113803D01*
X140494642Y-92120280D01*
X140502062Y-92130622D01*
X140508753Y-92141681D01*
X140514714Y-92153457D01*
X140519944Y-92165950D01*
X140524445Y-92179159D01*
X140528216Y-92193086D01*
X140530325Y-92202769D01*
X140532109Y-92212771D01*
X140533568Y-92223091D01*
X140534704Y-92233730D01*
X140535515Y-92244687D01*
X140536001Y-92255964D01*
X140536163Y-92267558D01*
X140536163Y-92864000D01*
X140417950Y-92864000D01*
X140417950Y-92263651D01*
X140417618Y-92251503D01*
X140416622Y-92240096D01*
X140414962Y-92229430D01*
X140412638Y-92219504D01*
X140408799Y-92208137D01*
X140403922Y-92197927D01*
X140398008Y-92188874D01*
X140396701Y-92187203D01*
X140389725Y-92179533D01*
X140381927Y-92173163D01*
X140373306Y-92168094D01*
X140363862Y-92164324D01*
X140353595Y-92161854D01*
X140342505Y-92160684D01*
X140337838Y-92160580D01*
X140327924Y-92161030D01*
X140316324Y-92162860D01*
X140305608Y-92166097D01*
X140295774Y-92170741D01*
X140286822Y-92176792D01*
X140278753Y-92184250D01*
X140274335Y-92189401D01*
X140267862Y-92198927D01*
X140262486Y-92209646D01*
X140258975Y-92219080D01*
X140256166Y-92229277D01*
X140254059Y-92240238D01*
X140252655Y-92251961D01*
X140251953Y-92264448D01*
X140251865Y-92270978D01*
X140251865Y-92864000D01*
X140150748Y-92864000D01*
X140150748Y-92263651D01*
X140150405Y-92251503D01*
X140149374Y-92240096D01*
X140147657Y-92229430D01*
X140145253Y-92219504D01*
X140141281Y-92208137D01*
X140136237Y-92197927D01*
X140130119Y-92188874D01*
X140128766Y-92187203D01*
X140121544Y-92179533D01*
X140113463Y-92173163D01*
X140104523Y-92168094D01*
X140094725Y-92164324D01*
X140084068Y-92161854D01*
X140072552Y-92160684D01*
X140067706Y-92160580D01*
X140057814Y-92161030D01*
X140046308Y-92162860D01*
X140035756Y-92166097D01*
X140026158Y-92170741D01*
X140017514Y-92176792D01*
X140009824Y-92184250D01*
X140005668Y-92189401D01*
X139999617Y-92198927D01*
X139994591Y-92209646D01*
X139991309Y-92219080D01*
X139988684Y-92229277D01*
X139986714Y-92240238D01*
X139985402Y-92251961D01*
X139984745Y-92264448D01*
X139984663Y-92270978D01*
X139984663Y-92864000D01*
X139866450Y-92864000D01*
G37*
G36*
X140705668Y-92864000D02*
G01*
X140705668Y-92082422D01*
X140814112Y-92082422D01*
X140814112Y-92196484D01*
X140823882Y-92196484D01*
X140825162Y-92184972D01*
X140826898Y-92173975D01*
X140829089Y-92163494D01*
X140831735Y-92153528D01*
X140834837Y-92144077D01*
X140839680Y-92132277D01*
X140845332Y-92121392D01*
X140851792Y-92111424D01*
X140859063Y-92102372D01*
X140861006Y-92100252D01*
X140869330Y-92092410D01*
X140878424Y-92085613D01*
X140888289Y-92079862D01*
X140898925Y-92075156D01*
X140910332Y-92071496D01*
X140922510Y-92068882D01*
X140935459Y-92067314D01*
X140945676Y-92066824D01*
X140949178Y-92066791D01*
X140962071Y-92067297D01*
X140974369Y-92068817D01*
X140986075Y-92071350D01*
X140997187Y-92074897D01*
X141007706Y-92079456D01*
X141017631Y-92085029D01*
X141026963Y-92091615D01*
X141035701Y-92099214D01*
X141043846Y-92107827D01*
X141051398Y-92117452D01*
X141058356Y-92128091D01*
X141064720Y-92139743D01*
X141070491Y-92152408D01*
X141075669Y-92166087D01*
X141080254Y-92180779D01*
X141084244Y-92196484D01*
X141092549Y-92196484D01*
X141093842Y-92184972D01*
X141095617Y-92173975D01*
X141097872Y-92163494D01*
X141100609Y-92153528D01*
X141103826Y-92144077D01*
X141108863Y-92132277D01*
X141114756Y-92121392D01*
X141121503Y-92111424D01*
X141129105Y-92102372D01*
X141131139Y-92100252D01*
X141139802Y-92092410D01*
X141149182Y-92085613D01*
X141159280Y-92079862D01*
X141170096Y-92075156D01*
X141181629Y-92071496D01*
X141193879Y-92068882D01*
X141206847Y-92067314D01*
X141217043Y-92066824D01*
X141220532Y-92066791D01*
X141233730Y-92067261D01*
X141246395Y-92068671D01*
X141258528Y-92071022D01*
X141270128Y-92074313D01*
X141281197Y-92078544D01*
X141291733Y-92083715D01*
X141301736Y-92089827D01*
X141311207Y-92096879D01*
X141320146Y-92104871D01*
X141328552Y-92113803D01*
X141333861Y-92120280D01*
X141341281Y-92130622D01*
X141347971Y-92141681D01*
X141353932Y-92153457D01*
X141359163Y-92165950D01*
X141363663Y-92179159D01*
X141367434Y-92193086D01*
X141369543Y-92202769D01*
X141371327Y-92212771D01*
X141372787Y-92223091D01*
X141373922Y-92233730D01*
X141374733Y-92244687D01*
X141375220Y-92255964D01*
X141375382Y-92267558D01*
X141375382Y-92864000D01*
X141257168Y-92864000D01*
X141257168Y-92263651D01*
X141256836Y-92251503D01*
X141255840Y-92240096D01*
X141254180Y-92229430D01*
X141251856Y-92219504D01*
X141248017Y-92208137D01*
X141243141Y-92197927D01*
X141237227Y-92188874D01*
X141235919Y-92187203D01*
X141228944Y-92179533D01*
X141221145Y-92173163D01*
X141212524Y-92168094D01*
X141203080Y-92164324D01*
X141192813Y-92161854D01*
X141181723Y-92160684D01*
X141177057Y-92160580D01*
X141167142Y-92161030D01*
X141155543Y-92162860D01*
X141144826Y-92166097D01*
X141134992Y-92170741D01*
X141126040Y-92176792D01*
X141117971Y-92184250D01*
X141113554Y-92189401D01*
X141107080Y-92198927D01*
X141101704Y-92209646D01*
X141098193Y-92219080D01*
X141095384Y-92229277D01*
X141093278Y-92240238D01*
X141091873Y-92251961D01*
X141091171Y-92264448D01*
X141091083Y-92270978D01*
X141091083Y-92864000D01*
X140989967Y-92864000D01*
X140989967Y-92263651D01*
X140989623Y-92251503D01*
X140988593Y-92240096D01*
X140986875Y-92229430D01*
X140984471Y-92219504D01*
X140980500Y-92208137D01*
X140975455Y-92197927D01*
X140969337Y-92188874D01*
X140967985Y-92187203D01*
X140960762Y-92179533D01*
X140952681Y-92173163D01*
X140943742Y-92168094D01*
X140933943Y-92164324D01*
X140923286Y-92161854D01*
X140911771Y-92160684D01*
X140906924Y-92160580D01*
X140897032Y-92161030D01*
X140885526Y-92162860D01*
X140874974Y-92166097D01*
X140865376Y-92170741D01*
X140856732Y-92176792D01*
X140849042Y-92184250D01*
X140844886Y-92189401D01*
X140838835Y-92198927D01*
X140833810Y-92209646D01*
X140830528Y-92219080D01*
X140827902Y-92229277D01*
X140825933Y-92240238D01*
X140824620Y-92251961D01*
X140823964Y-92264448D01*
X140823882Y-92270978D01*
X140823882Y-92864000D01*
X140705668Y-92864000D01*
G37*
X98069400Y-99002600D02*
X98069400Y-93012580D01*
X176453800Y-99002600D02*
X176453800Y-93012580D01*
X98069400Y-93599000D02*
X176453800Y-93599000D01*
X98069400Y-93599000D02*
X176453800Y-93599000D01*
X98069400Y-93599000D02*
X99195904Y-93012579D01*
X98069400Y-93599000D02*
X99195904Y-94185421D01*
X176453800Y-93599000D02*
X175327296Y-94185421D01*
X176453800Y-93599000D02*
X175327296Y-93012579D01*
G36*
X180281031Y-118158788D02*
G01*
X180280857Y-118171063D01*
X180280336Y-118183157D01*
X180279466Y-118195071D01*
X180278249Y-118206805D01*
X180276684Y-118218358D01*
X180274771Y-118229731D01*
X180272511Y-118240924D01*
X180269903Y-118251936D01*
X180266947Y-118262769D01*
X180263643Y-118273420D01*
X180261247Y-118280421D01*
X180257350Y-118290695D01*
X180253170Y-118300723D01*
X180248707Y-118310507D01*
X180243960Y-118320046D01*
X180238929Y-118329340D01*
X180233615Y-118338390D01*
X180228018Y-118347195D01*
X180222138Y-118355755D01*
X180215974Y-118364070D01*
X180209527Y-118372141D01*
X180205072Y-118377386D01*
X180198119Y-118385036D01*
X180190909Y-118392415D01*
X180183442Y-118399524D01*
X180175717Y-118406363D01*
X180167734Y-118412931D01*
X180159494Y-118419229D01*
X180150996Y-118425256D01*
X180142240Y-118431012D01*
X180133227Y-118436498D01*
X180123956Y-118441714D01*
X180117633Y-118445041D01*
X180107917Y-118449717D01*
X180098003Y-118454037D01*
X180087893Y-118458000D01*
X180077584Y-118461608D01*
X180067079Y-118464858D01*
X180056375Y-118467753D01*
X180045475Y-118470291D01*
X180034376Y-118472473D01*
X180023081Y-118474298D01*
X180011587Y-118475767D01*
X180003815Y-118476548D01*
X180003815Y-118350031D01*
X180017434Y-118347565D01*
X180030537Y-118344383D01*
X180043125Y-118340484D01*
X180055198Y-118335868D01*
X180066756Y-118330535D01*
X180077798Y-118324485D01*
X180088325Y-118317718D01*
X180098337Y-118310234D01*
X180107834Y-118302033D01*
X180116816Y-118293115D01*
X180122517Y-118286772D01*
X180130505Y-118276807D01*
X180137707Y-118266421D01*
X180144124Y-118255615D01*
X180149754Y-118244388D01*
X180154599Y-118232740D01*
X180158659Y-118220671D01*
X180161932Y-118208182D01*
X180164420Y-118195272D01*
X180166123Y-118181941D01*
X180167039Y-118168190D01*
X180167214Y-118158788D01*
X180167000Y-118147843D01*
X180166359Y-118137173D01*
X180165290Y-118126777D01*
X180163794Y-118116656D01*
X180161871Y-118106810D01*
X180159520Y-118097239D01*
X180155193Y-118083397D01*
X180149903Y-118070174D01*
X180143652Y-118057569D01*
X180136439Y-118045582D01*
X180128265Y-118034213D01*
X180119129Y-118023463D01*
X180112503Y-118016639D01*
X180101940Y-118007080D01*
X180090768Y-117998461D01*
X180078985Y-117990782D01*
X180066593Y-117984044D01*
X180053592Y-117978246D01*
X180039981Y-117973388D01*
X180030568Y-117970672D01*
X180020884Y-117968373D01*
X180010929Y-117966493D01*
X180000703Y-117965030D01*
X179990207Y-117963986D01*
X179979439Y-117963359D01*
X179968400Y-117963150D01*
X179957362Y-117963365D01*
X179946594Y-117964009D01*
X179936097Y-117965082D01*
X179925871Y-117966585D01*
X179915917Y-117968517D01*
X179906233Y-117970878D01*
X179896820Y-117973669D01*
X179883209Y-117978659D01*
X179870207Y-117984616D01*
X179857815Y-117991539D01*
X179846033Y-117999428D01*
X179834860Y-118008283D01*
X179824297Y-118018104D01*
X179814520Y-118028687D01*
X179805704Y-118039917D01*
X179797850Y-118051796D01*
X179790958Y-118064324D01*
X179785027Y-118077499D01*
X179780058Y-118091323D01*
X179777280Y-118100899D01*
X179774929Y-118110763D01*
X179773006Y-118120915D01*
X179771510Y-118131356D01*
X179770441Y-118142084D01*
X179769800Y-118153101D01*
X179769587Y-118164406D01*
X179769587Y-118282375D01*
X179634276Y-118282375D01*
X179422029Y-118081363D01*
X179414900Y-118074204D01*
X179407924Y-118066892D01*
X179401100Y-118059427D01*
X179394430Y-118051810D01*
X179388018Y-118044101D01*
X179381243Y-118035684D01*
X179374932Y-118027537D01*
X179370982Y-118022257D01*
X179364479Y-118014365D01*
X179358159Y-118006320D01*
X179352023Y-117998122D01*
X179346069Y-117989772D01*
X179343383Y-117989772D01*
X179344170Y-117999661D01*
X179345005Y-118009789D01*
X179345887Y-118020155D01*
X179346069Y-118022257D01*
X179346842Y-118032088D01*
X179347329Y-118042349D01*
X179347529Y-118053040D01*
X179347535Y-118055229D01*
X179347535Y-118065295D01*
X179347535Y-118075709D01*
X179347535Y-118086470D01*
X179347535Y-118092599D01*
X179347535Y-118445774D01*
X179233718Y-118445774D01*
X179233718Y-117883038D01*
X179380996Y-117883038D01*
X179613760Y-118120686D01*
X179620662Y-118127632D01*
X179627554Y-118135112D01*
X179629880Y-118137783D01*
X179636252Y-118145300D01*
X179642824Y-118153171D01*
X179650006Y-118160506D01*
X179655769Y-118167093D01*
X179655963Y-118152981D01*
X179656542Y-118139132D01*
X179657508Y-118125544D01*
X179658861Y-118112218D01*
X179660599Y-118099154D01*
X179662725Y-118086352D01*
X179665236Y-118073812D01*
X179668134Y-118061534D01*
X179671419Y-118049518D01*
X179675089Y-118037763D01*
X179677751Y-118030072D01*
X179682036Y-118018741D01*
X179686647Y-118007736D01*
X179691584Y-117997057D01*
X179696848Y-117986704D01*
X179702438Y-117976678D01*
X179708354Y-117966978D01*
X179714597Y-117957604D01*
X179721165Y-117948556D01*
X179728060Y-117939835D01*
X179735282Y-117931440D01*
X179740277Y-117926025D01*
X179748036Y-117918132D01*
X179756108Y-117910575D01*
X179764494Y-117903352D01*
X179773193Y-117896464D01*
X179782205Y-117889911D01*
X179791531Y-117883693D01*
X179801170Y-117877809D01*
X179811123Y-117872261D01*
X179821389Y-117867047D01*
X179831969Y-117862169D01*
X179839196Y-117859102D01*
X179850209Y-117854825D01*
X179861449Y-117850968D01*
X179872918Y-117847532D01*
X179884613Y-117844517D01*
X179896537Y-117841922D01*
X179908688Y-117839748D01*
X179921066Y-117837995D01*
X179933672Y-117836663D01*
X179946505Y-117835751D01*
X179959566Y-117835260D01*
X179968400Y-117835167D01*
X179981871Y-117835364D01*
X179995079Y-117835957D01*
X180008025Y-117836944D01*
X180020710Y-117838326D01*
X180033133Y-117840104D01*
X180045294Y-117842276D01*
X180057193Y-117844844D01*
X180068830Y-117847806D01*
X180080205Y-117851164D01*
X180091318Y-117854916D01*
X180098582Y-117857637D01*
X180109195Y-117862024D01*
X180119513Y-117866759D01*
X180129534Y-117871841D01*
X180139260Y-117877272D01*
X180148688Y-117883050D01*
X180157821Y-117889176D01*
X180166657Y-117895649D01*
X180175198Y-117902471D01*
X180183441Y-117909640D01*
X180191389Y-117917157D01*
X180196523Y-117922361D01*
X180203962Y-117930438D01*
X180211075Y-117938825D01*
X180217861Y-117947520D01*
X180224321Y-117956525D01*
X180230455Y-117965838D01*
X180236262Y-117975461D01*
X180241743Y-117985393D01*
X180246898Y-117995634D01*
X180251727Y-118006184D01*
X180256229Y-118017044D01*
X180259049Y-118024455D01*
X180262978Y-118035762D01*
X180266520Y-118047335D01*
X180269675Y-118059175D01*
X180272444Y-118071281D01*
X180274827Y-118083653D01*
X180276824Y-118096291D01*
X180278434Y-118109195D01*
X180279657Y-118122366D01*
X180280494Y-118135802D01*
X180280945Y-118149505D01*
X180281031Y-118158788D01*
G37*
G36*
X179233718Y-117214057D02*
G01*
X179233718Y-117076060D01*
X179876809Y-117486876D01*
X179932741Y-117486876D01*
X179932741Y-117156171D01*
X179687032Y-117156171D01*
X179687032Y-117029654D01*
X180265400Y-117029654D01*
X180265400Y-117156171D01*
X180046558Y-117156171D01*
X180046558Y-117613394D01*
X179862887Y-117613394D01*
X179233718Y-117214057D01*
G37*
G36*
X180153781Y-116592703D02*
G01*
X180143534Y-116592413D01*
X180133679Y-116591544D01*
X180121146Y-116589483D01*
X180109308Y-116586392D01*
X180098165Y-116582270D01*
X180087716Y-116577118D01*
X180077961Y-116570936D01*
X180068901Y-116563723D01*
X180064632Y-116559730D01*
X180056732Y-116551144D01*
X180049886Y-116541870D01*
X180044093Y-116531910D01*
X180039353Y-116521262D01*
X180035666Y-116509928D01*
X180033033Y-116497906D01*
X180031453Y-116485198D01*
X180030959Y-116475216D01*
X180030926Y-116471803D01*
X180031223Y-116461692D01*
X180032539Y-116448812D01*
X180034909Y-116436619D01*
X180038332Y-116425113D01*
X180042809Y-116414294D01*
X180048339Y-116404162D01*
X180054922Y-116394716D01*
X180062558Y-116385958D01*
X180064632Y-116383876D01*
X180073344Y-116376148D01*
X180082752Y-116369450D01*
X180092853Y-116363783D01*
X180103650Y-116359146D01*
X180115141Y-116355540D01*
X180127326Y-116352964D01*
X180140206Y-116351418D01*
X180150322Y-116350935D01*
X180153781Y-116350903D01*
X180164303Y-116351193D01*
X180174440Y-116352062D01*
X180184190Y-116353511D01*
X180196589Y-116356345D01*
X180208302Y-116360209D01*
X180219327Y-116365103D01*
X180229665Y-116371028D01*
X180239317Y-116377983D01*
X180246104Y-116383876D01*
X180254290Y-116392462D01*
X180261385Y-116401736D01*
X180267388Y-116411696D01*
X180272299Y-116422344D01*
X180276119Y-116433678D01*
X180278848Y-116445700D01*
X180280485Y-116458408D01*
X180280997Y-116468390D01*
X180281031Y-116471803D01*
X180280724Y-116481914D01*
X180279360Y-116494794D01*
X180276904Y-116506987D01*
X180273357Y-116518493D01*
X180268718Y-116529312D01*
X180262988Y-116539444D01*
X180256166Y-116548890D01*
X180248253Y-116557648D01*
X180246104Y-116559730D01*
X180236968Y-116567458D01*
X180227145Y-116574156D01*
X180216635Y-116579823D01*
X180205438Y-116584460D01*
X180193554Y-116588066D01*
X180180983Y-116590642D01*
X180171104Y-116591898D01*
X180160839Y-116592574D01*
X180153781Y-116592703D01*
G37*
G36*
X179233718Y-115949123D02*
G01*
X179233718Y-115316046D01*
X179378309Y-115316046D01*
X180265400Y-115671908D01*
X180265400Y-115814057D01*
X179440836Y-115472117D01*
X179430571Y-115467948D01*
X179421147Y-115463989D01*
X179411408Y-115459723D01*
X179401765Y-115455251D01*
X179400780Y-115454776D01*
X179391430Y-115450106D01*
X179382467Y-115445464D01*
X179374890Y-115441342D01*
X179365971Y-115436236D01*
X179357563Y-115430800D01*
X179354618Y-115428642D01*
X179346314Y-115428642D01*
X179346790Y-115438402D01*
X179347190Y-115449386D01*
X179347438Y-115460186D01*
X179347534Y-115470803D01*
X179347535Y-115472117D01*
X179347535Y-115482479D01*
X179347535Y-115492957D01*
X179347535Y-115503551D01*
X179347535Y-115509486D01*
X179347535Y-115519797D01*
X179347535Y-115530301D01*
X179347535Y-115540699D01*
X179347535Y-115542459D01*
X179347535Y-115822606D01*
X179503850Y-115822606D01*
X179503850Y-115949123D01*
X179233718Y-115949123D01*
G37*
G36*
X179233718Y-114696402D02*
G01*
X179233718Y-114558405D01*
X179876809Y-114969221D01*
X179932741Y-114969221D01*
X179932741Y-114638516D01*
X179687032Y-114638516D01*
X179687032Y-114511998D01*
X180265400Y-114511998D01*
X180265400Y-114638516D01*
X180046558Y-114638516D01*
X180046558Y-115095739D01*
X179862887Y-115095739D01*
X179233718Y-114696402D01*
G37*
G36*
X179233718Y-114270686D02*
G01*
X179233718Y-113637609D01*
X179378309Y-113637609D01*
X180265400Y-113993471D01*
X180265400Y-114135620D01*
X179440836Y-113793680D01*
X179430571Y-113789511D01*
X179421147Y-113785552D01*
X179411408Y-113781286D01*
X179401765Y-113776814D01*
X179400780Y-113776339D01*
X179391430Y-113771669D01*
X179382467Y-113767027D01*
X179374890Y-113762906D01*
X179365971Y-113757799D01*
X179357563Y-113752363D01*
X179354618Y-113750205D01*
X179346314Y-113750205D01*
X179346790Y-113759966D01*
X179347190Y-113770949D01*
X179347438Y-113781749D01*
X179347534Y-113792366D01*
X179347535Y-113793680D01*
X179347535Y-113804042D01*
X179347535Y-113814520D01*
X179347535Y-113825114D01*
X179347535Y-113831049D01*
X179347535Y-113841360D01*
X179347535Y-113851864D01*
X179347535Y-113862262D01*
X179347535Y-113864022D01*
X179347535Y-114144169D01*
X179503850Y-114144169D01*
X179503850Y-114270686D01*
X179233718Y-114270686D01*
G37*
G36*
X179505072Y-113445634D02*
G01*
X179493082Y-113444900D01*
X179481295Y-113443797D01*
X179469709Y-113442324D01*
X179458326Y-113440482D01*
X179447144Y-113438271D01*
X179436164Y-113435691D01*
X179425385Y-113432741D01*
X179414809Y-113429423D01*
X179404434Y-113425735D01*
X179394261Y-113421677D01*
X179387591Y-113418767D01*
X179377747Y-113414114D01*
X179368182Y-113409130D01*
X179358896Y-113403816D01*
X179349890Y-113398171D01*
X179341162Y-113392195D01*
X179332713Y-113385889D01*
X179324544Y-113379252D01*
X179316653Y-113372285D01*
X179309042Y-113364987D01*
X179301710Y-113357358D01*
X179296977Y-113352089D01*
X179290116Y-113343894D01*
X179283547Y-113335428D01*
X179277270Y-113326692D01*
X179271285Y-113317685D01*
X179265592Y-113308408D01*
X179260191Y-113298860D01*
X179255082Y-113289042D01*
X179250265Y-113278954D01*
X179245740Y-113268595D01*
X179241507Y-113257965D01*
X179238847Y-113250728D01*
X179235137Y-113239665D01*
X179231791Y-113228366D01*
X179228811Y-113216830D01*
X179226196Y-113205059D01*
X179223945Y-113193051D01*
X179222060Y-113180807D01*
X179220539Y-113168327D01*
X179219384Y-113155611D01*
X179218593Y-113142659D01*
X179218167Y-113129470D01*
X179218086Y-113120547D01*
X179218264Y-113107482D01*
X179218799Y-113094667D01*
X179219690Y-113082100D01*
X179220937Y-113069783D01*
X179222541Y-113057714D01*
X179224500Y-113045894D01*
X179226817Y-113034324D01*
X179229489Y-113023002D01*
X179232518Y-113011930D01*
X179235903Y-113001106D01*
X179238358Y-112994029D01*
X179242266Y-112983601D01*
X179246478Y-112973473D01*
X179250996Y-112963645D01*
X179255818Y-112954118D01*
X179260945Y-112944892D01*
X179266377Y-112935966D01*
X179272113Y-112927341D01*
X179278155Y-112919016D01*
X179284501Y-112910992D01*
X179291152Y-112903268D01*
X179295755Y-112898286D01*
X179302902Y-112891067D01*
X179310327Y-112884158D01*
X179318031Y-112877558D01*
X179326015Y-112871267D01*
X179334277Y-112865285D01*
X179342819Y-112859612D01*
X179351640Y-112854248D01*
X179360739Y-112849193D01*
X179370118Y-112844448D01*
X179379776Y-112840011D01*
X179386369Y-112837225D01*
X179396467Y-112833297D01*
X179406791Y-112829755D01*
X179417344Y-112826599D01*
X179428124Y-112823830D01*
X179439131Y-112821447D01*
X179450366Y-112819451D01*
X179461828Y-112817841D01*
X179473518Y-112816617D01*
X179485436Y-112815780D01*
X179497581Y-112815329D01*
X179505804Y-112815243D01*
X179520337Y-112815489D01*
X179534808Y-112816224D01*
X179549218Y-112817450D01*
X179563568Y-112819167D01*
X179577856Y-112821373D01*
X179592083Y-112824070D01*
X179606249Y-112827258D01*
X179620354Y-112830936D01*
X179634398Y-112835104D01*
X179648381Y-112839763D01*
X179662303Y-112844912D01*
X179676164Y-112850552D01*
X179689963Y-112856682D01*
X179703702Y-112863302D01*
X179717380Y-112870413D01*
X179730996Y-112878014D01*
X179744600Y-112886118D01*
X179758302Y-112894798D01*
X179772101Y-112904054D01*
X179785997Y-112913887D01*
X179799990Y-112924296D01*
X179814081Y-112935281D01*
X179828269Y-112946843D01*
X179842554Y-112958980D01*
X179856937Y-112971694D01*
X179871417Y-112984984D01*
X179878693Y-112991846D01*
X179885994Y-112998851D01*
X179893319Y-113006000D01*
X179900669Y-113013294D01*
X179908042Y-113020731D01*
X179915441Y-113028313D01*
X179922863Y-113036038D01*
X179930310Y-113043908D01*
X179937781Y-113051922D01*
X179945276Y-113060080D01*
X179952796Y-113068382D01*
X179960340Y-113076827D01*
X180111282Y-113247065D01*
X180117510Y-113255004D01*
X180123006Y-113262696D01*
X180128624Y-113271062D01*
X180134241Y-113279549D01*
X180139912Y-113288436D01*
X180145019Y-113296839D01*
X180147186Y-113300554D01*
X180153048Y-113300554D01*
X180152477Y-113290793D01*
X180151996Y-113279810D01*
X180151698Y-113269010D01*
X180151584Y-113258393D01*
X180151582Y-113257079D01*
X180151582Y-113247156D01*
X180151582Y-113237173D01*
X180151582Y-113227128D01*
X180151582Y-113217023D01*
X180151582Y-113206994D01*
X180151582Y-113196258D01*
X180151582Y-113186102D01*
X180151582Y-113179654D01*
X180151582Y-112805474D01*
X180265400Y-112805474D01*
X180265400Y-113438551D01*
X180124716Y-113438551D01*
X179889754Y-113171105D01*
X179883120Y-113163632D01*
X179876531Y-113156294D01*
X179866728Y-113145541D01*
X179857025Y-113135094D01*
X179847420Y-113124951D01*
X179837913Y-113115113D01*
X179828506Y-113105579D01*
X179819197Y-113096351D01*
X179809987Y-113087427D01*
X179800876Y-113078808D01*
X179791864Y-113070494D01*
X179788882Y-113067790D01*
X179779964Y-113059874D01*
X179771073Y-113052246D01*
X179762207Y-113044905D01*
X179753367Y-113037852D01*
X179744553Y-113031086D01*
X179735765Y-113024608D01*
X179727002Y-113018418D01*
X179718265Y-113012515D01*
X179709554Y-113006900D01*
X179700868Y-113001573D01*
X179695092Y-112998181D01*
X179686439Y-112993270D01*
X179677790Y-112988613D01*
X179666265Y-112982797D01*
X179654748Y-112977431D01*
X179643238Y-112972516D01*
X179631735Y-112968051D01*
X179620241Y-112964036D01*
X179608754Y-112960471D01*
X179603013Y-112958858D01*
X179591404Y-112955881D01*
X179579657Y-112953302D01*
X179567773Y-112951119D01*
X179555752Y-112949333D01*
X179543593Y-112947944D01*
X179531297Y-112946951D01*
X179518864Y-112946356D01*
X179506293Y-112946158D01*
X179496349Y-112946342D01*
X179481928Y-112947308D01*
X179468099Y-112949104D01*
X179454863Y-112951728D01*
X179442219Y-112955180D01*
X179430168Y-112959461D01*
X179418709Y-112964571D01*
X179407842Y-112970510D01*
X179397568Y-112977277D01*
X179387887Y-112984872D01*
X179378798Y-112993296D01*
X179370417Y-113002425D01*
X179362861Y-113012133D01*
X179356129Y-113022420D01*
X179350222Y-113033287D01*
X179345138Y-113044734D01*
X179340879Y-113056760D01*
X179337445Y-113069366D01*
X179334834Y-113082552D01*
X179333048Y-113096317D01*
X179332087Y-113110662D01*
X179331903Y-113120547D01*
X179332089Y-113131489D01*
X179332648Y-113142151D01*
X179333578Y-113152532D01*
X179334880Y-113162633D01*
X179336554Y-113172453D01*
X179339764Y-113186658D01*
X179343810Y-113200231D01*
X179348694Y-113213173D01*
X179354415Y-113225485D01*
X179360973Y-113237165D01*
X179368368Y-113248213D01*
X179376600Y-113258631D01*
X179379531Y-113261964D01*
X179388727Y-113271392D01*
X179398456Y-113279892D01*
X179408717Y-113287466D01*
X179419510Y-113294112D01*
X179430836Y-113299831D01*
X179442694Y-113304622D01*
X179455085Y-113308486D01*
X179468008Y-113311423D01*
X179481463Y-113313432D01*
X179495451Y-113314514D01*
X179505072Y-113314720D01*
X179505072Y-113445634D01*
G37*
G36*
X180265400Y-111771349D02*
G01*
X179483822Y-111771349D01*
X179483822Y-111662906D01*
X179597884Y-111662906D01*
X179597884Y-111653136D01*
X179586372Y-111651855D01*
X179575375Y-111650119D01*
X179564894Y-111647928D01*
X179554928Y-111645282D01*
X179545477Y-111642181D01*
X179533677Y-111637338D01*
X179522792Y-111631686D01*
X179512824Y-111625225D01*
X179503772Y-111617955D01*
X179501652Y-111616011D01*
X179493810Y-111607688D01*
X179487013Y-111598593D01*
X179481262Y-111588728D01*
X179476556Y-111578092D01*
X179472896Y-111566685D01*
X179470282Y-111554508D01*
X179468714Y-111541559D01*
X179468224Y-111531341D01*
X179468191Y-111527839D01*
X179468697Y-111514947D01*
X179470217Y-111502648D01*
X179472750Y-111490942D01*
X179476297Y-111479830D01*
X179480856Y-111469312D01*
X179486429Y-111459386D01*
X179493015Y-111450055D01*
X179500614Y-111441316D01*
X179509227Y-111433171D01*
X179518852Y-111425620D01*
X179529491Y-111418662D01*
X179541143Y-111412297D01*
X179553808Y-111406526D01*
X179567487Y-111401348D01*
X179582179Y-111396764D01*
X179597884Y-111392773D01*
X179597884Y-111384469D01*
X179586372Y-111383175D01*
X179575375Y-111381400D01*
X179564894Y-111379145D01*
X179554928Y-111376409D01*
X179545477Y-111373192D01*
X179533677Y-111368154D01*
X179522792Y-111362262D01*
X179512824Y-111355515D01*
X179503772Y-111347912D01*
X179501652Y-111345878D01*
X179493810Y-111337215D01*
X179487013Y-111327835D01*
X179481262Y-111317737D01*
X179476556Y-111306922D01*
X179472896Y-111295389D01*
X179470282Y-111283138D01*
X179468714Y-111270171D01*
X179468224Y-111259974D01*
X179468191Y-111256485D01*
X179468661Y-111243288D01*
X179470071Y-111230622D01*
X179472422Y-111218490D01*
X179475713Y-111206889D01*
X179479944Y-111195821D01*
X179485115Y-111185285D01*
X179491227Y-111175281D01*
X179498279Y-111165810D01*
X179506271Y-111156872D01*
X179515203Y-111148465D01*
X179521680Y-111143157D01*
X179532022Y-111135737D01*
X179543081Y-111129046D01*
X179554857Y-111123085D01*
X179567350Y-111117855D01*
X179580559Y-111113354D01*
X179594486Y-111109583D01*
X179604169Y-111107474D01*
X179614171Y-111105690D01*
X179624491Y-111104231D01*
X179635130Y-111103095D01*
X179646087Y-111102284D01*
X179657364Y-111101798D01*
X179668958Y-111101636D01*
X180265400Y-111101636D01*
X180265400Y-111219849D01*
X179665051Y-111219849D01*
X179652903Y-111220181D01*
X179641496Y-111221177D01*
X179630830Y-111222837D01*
X179620904Y-111225161D01*
X179609537Y-111229000D01*
X179599327Y-111233877D01*
X179590274Y-111239791D01*
X179588603Y-111241098D01*
X179580933Y-111248074D01*
X179574563Y-111255872D01*
X179569494Y-111264493D01*
X179565724Y-111273937D01*
X179563254Y-111284204D01*
X179562084Y-111295294D01*
X179561980Y-111299961D01*
X179562430Y-111309875D01*
X179564260Y-111321475D01*
X179567497Y-111332191D01*
X179572141Y-111342025D01*
X179578192Y-111350977D01*
X179585650Y-111359046D01*
X179590801Y-111363464D01*
X179600327Y-111369937D01*
X179611046Y-111375313D01*
X179620480Y-111378824D01*
X179630677Y-111381633D01*
X179641638Y-111383740D01*
X179653361Y-111385144D01*
X179665848Y-111385846D01*
X179672378Y-111385934D01*
X180265400Y-111385934D01*
X180265400Y-111487051D01*
X179665051Y-111487051D01*
X179652903Y-111487394D01*
X179641496Y-111488425D01*
X179630830Y-111490142D01*
X179620904Y-111492546D01*
X179609537Y-111496518D01*
X179599327Y-111501562D01*
X179590274Y-111507680D01*
X179588603Y-111509033D01*
X179580933Y-111516255D01*
X179574563Y-111524336D01*
X179569494Y-111533276D01*
X179565724Y-111543074D01*
X179563254Y-111553731D01*
X179562084Y-111565247D01*
X179561980Y-111570093D01*
X179562430Y-111579985D01*
X179564260Y-111591491D01*
X179567497Y-111602043D01*
X179572141Y-111611641D01*
X179578192Y-111620285D01*
X179585650Y-111627975D01*
X179590801Y-111632131D01*
X179600327Y-111638182D01*
X179611046Y-111643208D01*
X179620480Y-111646490D01*
X179630677Y-111649115D01*
X179641638Y-111651085D01*
X179653361Y-111652397D01*
X179665848Y-111653054D01*
X179672378Y-111653136D01*
X180265400Y-111653136D01*
X180265400Y-111771349D01*
G37*
G36*
X180265400Y-110932131D02*
G01*
X179483822Y-110932131D01*
X179483822Y-110823687D01*
X179597884Y-110823687D01*
X179597884Y-110813917D01*
X179586372Y-110812637D01*
X179575375Y-110810901D01*
X179564894Y-110808710D01*
X179554928Y-110806064D01*
X179545477Y-110802962D01*
X179533677Y-110798119D01*
X179522792Y-110792467D01*
X179512824Y-110786007D01*
X179503772Y-110778736D01*
X179501652Y-110776793D01*
X179493810Y-110768469D01*
X179487013Y-110759375D01*
X179481262Y-110749510D01*
X179476556Y-110738874D01*
X179472896Y-110727467D01*
X179470282Y-110715289D01*
X179468714Y-110702340D01*
X179468224Y-110692123D01*
X179468191Y-110688621D01*
X179468697Y-110675728D01*
X179470217Y-110663430D01*
X179472750Y-110651724D01*
X179476297Y-110640612D01*
X179480856Y-110630093D01*
X179486429Y-110620168D01*
X179493015Y-110610836D01*
X179500614Y-110602098D01*
X179509227Y-110593953D01*
X179518852Y-110586401D01*
X179529491Y-110579443D01*
X179541143Y-110573079D01*
X179553808Y-110567308D01*
X179567487Y-110562130D01*
X179582179Y-110557545D01*
X179597884Y-110553555D01*
X179597884Y-110545250D01*
X179586372Y-110543957D01*
X179575375Y-110542182D01*
X179564894Y-110539927D01*
X179554928Y-110537190D01*
X179545477Y-110533973D01*
X179533677Y-110528936D01*
X179522792Y-110523043D01*
X179512824Y-110516296D01*
X179503772Y-110508694D01*
X179501652Y-110506660D01*
X179493810Y-110497997D01*
X179487013Y-110488617D01*
X179481262Y-110478519D01*
X179476556Y-110467703D01*
X179472896Y-110456170D01*
X179470282Y-110443920D01*
X179468714Y-110430952D01*
X179468224Y-110420756D01*
X179468191Y-110417267D01*
X179468661Y-110404069D01*
X179470071Y-110391404D01*
X179472422Y-110379271D01*
X179475713Y-110367671D01*
X179479944Y-110356602D01*
X179485115Y-110346066D01*
X179491227Y-110336063D01*
X179498279Y-110326592D01*
X179506271Y-110317653D01*
X179515203Y-110309247D01*
X179521680Y-110303938D01*
X179532022Y-110296518D01*
X179543081Y-110289828D01*
X179554857Y-110283867D01*
X179567350Y-110278636D01*
X179580559Y-110274136D01*
X179594486Y-110270365D01*
X179604169Y-110268256D01*
X179614171Y-110266472D01*
X179624491Y-110265012D01*
X179635130Y-110263877D01*
X179646087Y-110263066D01*
X179657364Y-110262579D01*
X179668958Y-110262417D01*
X180265400Y-110262417D01*
X180265400Y-110380631D01*
X179665051Y-110380631D01*
X179652903Y-110380963D01*
X179641496Y-110381959D01*
X179630830Y-110383619D01*
X179620904Y-110385943D01*
X179609537Y-110389782D01*
X179599327Y-110394658D01*
X179590274Y-110400572D01*
X179588603Y-110401880D01*
X179580933Y-110408855D01*
X179574563Y-110416654D01*
X179569494Y-110425275D01*
X179565724Y-110434719D01*
X179563254Y-110444986D01*
X179562084Y-110456076D01*
X179561980Y-110460742D01*
X179562430Y-110470657D01*
X179564260Y-110482256D01*
X179567497Y-110492973D01*
X179572141Y-110502807D01*
X179578192Y-110511759D01*
X179585650Y-110519828D01*
X179590801Y-110524245D01*
X179600327Y-110530719D01*
X179611046Y-110536095D01*
X179620480Y-110539606D01*
X179630677Y-110542415D01*
X179641638Y-110544521D01*
X179653361Y-110545926D01*
X179665848Y-110546628D01*
X179672378Y-110546716D01*
X180265400Y-110546716D01*
X180265400Y-110647832D01*
X179665051Y-110647832D01*
X179652903Y-110648176D01*
X179641496Y-110649206D01*
X179630830Y-110650924D01*
X179620904Y-110653328D01*
X179609537Y-110657299D01*
X179599327Y-110662344D01*
X179590274Y-110668462D01*
X179588603Y-110669814D01*
X179580933Y-110677037D01*
X179574563Y-110685118D01*
X179569494Y-110694057D01*
X179565724Y-110703856D01*
X179563254Y-110714513D01*
X179562084Y-110726028D01*
X179561980Y-110730875D01*
X179562430Y-110740767D01*
X179564260Y-110752273D01*
X179567497Y-110762825D01*
X179572141Y-110772423D01*
X179578192Y-110781067D01*
X179585650Y-110788757D01*
X179590801Y-110792913D01*
X179600327Y-110798964D01*
X179611046Y-110803989D01*
X179620480Y-110807271D01*
X179630677Y-110809897D01*
X179641638Y-110811866D01*
X179653361Y-110813179D01*
X179665848Y-110813835D01*
X179672378Y-110813917D01*
X180265400Y-110813917D01*
X180265400Y-110932131D01*
G37*
X137761600Y-131749800D02*
X181586820Y-131749800D01*
X137761600Y-97002600D02*
X181586820Y-97002600D01*
X181000400Y-131749800D02*
X181000400Y-97002600D01*
X181000400Y-131749800D02*
X181000400Y-97002600D01*
X181000400Y-131749800D02*
X180413979Y-130623296D01*
X181000400Y-131749800D02*
X181586821Y-130623296D01*
X181000400Y-97002600D02*
X181586821Y-98129104D01*
X181000400Y-97002600D02*
X180413979Y-98129104D01*
M02*
