%TF.GenerationSoftware,KiCad,Pcbnew,7.99.0-3012-g423a5b9961*%
%TF.CreationDate,2023-10-18T14:22:59-04:00*%
%TF.ProjectId,drvesc,64727665-7363-42e6-9b69-6361645f7063,V1.0*%
%TF.SameCoordinates,Original*%
%TF.FileFunction,Soldermask,Bot*%
%TF.FilePolarity,Negative*%
%FSLAX46Y46*%
G04 Gerber Fmt 4.6, Leading zero omitted, Abs format (unit mm)*
G04 Created by KiCad (PCBNEW 7.99.0-3012-g423a5b9961) date 2023-10-18 14:22:59*
%MOMM*%
%LPD*%
G01*
G04 APERTURE LIST*
G04 Aperture macros list*
%AMRoundRect*
0 Rectangle with rounded corners*
0 $1 Rounding radius*
0 $2 $3 $4 $5 $6 $7 $8 $9 X,Y pos of 4 corners*
0 Add a 4 corners polygon primitive as box body*
4,1,4,$2,$3,$4,$5,$6,$7,$8,$9,$2,$3,0*
0 Add four circle primitives for the rounded corners*
1,1,$1+$1,$2,$3*
1,1,$1+$1,$4,$5*
1,1,$1+$1,$6,$7*
1,1,$1+$1,$8,$9*
0 Add four rect primitives between the rounded corners*
20,1,$1+$1,$2,$3,$4,$5,0*
20,1,$1+$1,$4,$5,$6,$7,0*
20,1,$1+$1,$6,$7,$8,$9,0*
20,1,$1+$1,$8,$9,$2,$3,0*%
%AMFreePoly0*
4,1,17,2.675000,1.605000,1.875000,1.605000,1.875000,0.935000,2.675000,0.935000,2.675000,0.335000,1.875000,0.335000,1.875000,-0.335000,2.675000,-0.335000,2.675000,-0.935000,1.875000,-0.935000,1.875000,-1.605000,2.675000,-1.605000,2.675000,-2.205000,-1.875000,-2.205000,-1.875000,2.205000,2.675000,2.205000,2.675000,1.605000,2.675000,1.605000,$1*%
%AMFreePoly1*
4,1,19,0.500000,-0.750000,0.000000,-0.750000,0.000000,-0.744911,-0.071157,-0.744911,-0.207708,-0.704816,-0.327430,-0.627875,-0.420627,-0.520320,-0.479746,-0.390866,-0.500000,-0.250000,-0.500000,0.250000,-0.479746,0.390866,-0.420627,0.520320,-0.327430,0.627875,-0.207708,0.704816,-0.071157,0.744911,0.000000,0.744911,0.000000,0.750000,0.500000,0.750000,0.500000,-0.750000,0.500000,-0.750000,
$1*%
%AMFreePoly2*
4,1,19,0.000000,0.744911,0.071157,0.744911,0.207708,0.704816,0.327430,0.627875,0.420627,0.520320,0.479746,0.390866,0.500000,0.250000,0.500000,-0.250000,0.479746,-0.390866,0.420627,-0.520320,0.327430,-0.627875,0.207708,-0.704816,0.071157,-0.744911,0.000000,-0.744911,0.000000,-0.750000,-0.500000,-0.750000,-0.500000,0.750000,0.000000,0.750000,0.000000,0.744911,0.000000,0.744911,
$1*%
G04 Aperture macros list end*
%ADD10C,0.650000*%
%ADD11O,2.100000X1.000000*%
%ADD12O,1.600000X1.000000*%
%ADD13R,1.700000X1.700000*%
%ADD14O,1.700000X1.700000*%
%ADD15C,2.000000*%
%ADD16FreePoly0,0.000000*%
%ADD17R,0.850000X0.500000*%
%ADD18RoundRect,0.250000X0.362500X1.425000X-0.362500X1.425000X-0.362500X-1.425000X0.362500X-1.425000X0*%
%ADD19FreePoly1,90.000000*%
%ADD20FreePoly2,90.000000*%
%ADD21R,1.651000X4.572000*%
G04 APERTURE END LIST*
D10*
%TO.C,J2*%
X103165400Y-103483200D03*
X103165400Y-109263200D03*
D11*
X103695400Y-102053200D03*
D12*
X99515400Y-102053200D03*
D11*
X103695400Y-110693200D03*
D12*
X99515400Y-110693200D03*
%TD*%
D13*
%TO.C,TP2*%
X111317000Y-99415600D03*
%TD*%
%TO.C,J3*%
X99900000Y-99136200D03*
D14*
X102440000Y-99136200D03*
X104980000Y-99136200D03*
X107520000Y-99136200D03*
%TD*%
D15*
%TO.C,SW2*%
X126923800Y-120774600D03*
X126923800Y-114274600D03*
%TD*%
%TO.C,SW1*%
X122809000Y-98628200D03*
X129309000Y-98628200D03*
%TD*%
D13*
%TO.C,TP3*%
X111400000Y-103124000D03*
%TD*%
%TO.C,TP1*%
X115000000Y-99415600D03*
%TD*%
D16*
%TO.C,Q4*%
X156632624Y-102971600D03*
D17*
X153082624Y-104876600D03*
X153082624Y-103606600D03*
X153082624Y-102336600D03*
X153082624Y-101066600D03*
%TD*%
D18*
%TO.C,R4*%
X151346924Y-103583602D03*
X145421924Y-103583602D03*
%TD*%
D19*
%TO.C,JP2*%
X102006400Y-116311200D03*
D20*
X102006400Y-115011200D03*
%TD*%
D21*
%TO.C,J1*%
X174091600Y-128701800D03*
X171551600Y-128701800D03*
X169011600Y-128701800D03*
X166471600Y-128701800D03*
X163931600Y-128701800D03*
X161391600Y-128701800D03*
X158851600Y-128701800D03*
X156311600Y-128701800D03*
X153771600Y-128701800D03*
X151231600Y-128701800D03*
X148691600Y-128701800D03*
X146151600Y-128701800D03*
X143611600Y-128701800D03*
X141071600Y-128701800D03*
X138531600Y-128701800D03*
X135991600Y-128701800D03*
X133451600Y-128701800D03*
X130911600Y-128701800D03*
X128371600Y-128701800D03*
X125831600Y-128701800D03*
X123291600Y-128701800D03*
X120751600Y-128701800D03*
X118211600Y-128701800D03*
X115671600Y-128701800D03*
X113131600Y-128701800D03*
X110591600Y-128701800D03*
X108051600Y-128701800D03*
X105511600Y-128701800D03*
X102971600Y-128701800D03*
X100431600Y-128701800D03*
%TD*%
D16*
%TO.C,Q5*%
X156683424Y-111912400D03*
D17*
X153133424Y-113817400D03*
X153133424Y-112547400D03*
X153133424Y-111277400D03*
X153133424Y-110007400D03*
%TD*%
D19*
%TO.C,JP1*%
X100609400Y-108534200D03*
D20*
X100609400Y-107234200D03*
%TD*%
D18*
%TO.C,R5*%
X151413824Y-112623600D03*
X145488824Y-112623600D03*
%TD*%
%TO.C,R6*%
X151483900Y-120381802D03*
X145558900Y-120381802D03*
%TD*%
D16*
%TO.C,Q6*%
X156737400Y-119797602D03*
D17*
X153187400Y-121702602D03*
X153187400Y-120432602D03*
X153187400Y-119162602D03*
X153187400Y-117892602D03*
%TD*%
M02*
