%TF.GenerationSoftware,KiCad,Pcbnew,8.99.0-3334-g98ae574c78*%
%TF.CreationDate,2024-12-09T23:46:28-05:00*%
%TF.ProjectId,SmartPowerBoard,536d6172-7450-46f7-9765-72426f617264,rev?*%
%TF.SameCoordinates,Original*%
%TF.FileFunction,Copper,L4,Bot*%
%TF.FilePolarity,Positive*%
%FSLAX46Y46*%
G04 Gerber Fmt 4.6, Leading zero omitted, Abs format (unit mm)*
G04 Created by KiCad (PCBNEW 8.99.0-3334-g98ae574c78) date 2024-12-09 23:46:28*
%MOMM*%
%LPD*%
G01*
G04 APERTURE LIST*
G04 Aperture macros list*
%AMRoundRect*
0 Rectangle with rounded corners*
0 $1 Rounding radius*
0 $2 $3 $4 $5 $6 $7 $8 $9 X,Y pos of 4 corners*
0 Add a 4 corners polygon primitive as box body*
4,1,4,$2,$3,$4,$5,$6,$7,$8,$9,$2,$3,0*
0 Add four circle primitives for the rounded corners*
1,1,$1+$1,$2,$3*
1,1,$1+$1,$4,$5*
1,1,$1+$1,$6,$7*
1,1,$1+$1,$8,$9*
0 Add four rect primitives between the rounded corners*
20,1,$1+$1,$2,$3,$4,$5,0*
20,1,$1+$1,$4,$5,$6,$7,0*
20,1,$1+$1,$6,$7,$8,$9,0*
20,1,$1+$1,$8,$9,$2,$3,0*%
G04 Aperture macros list end*
%TA.AperFunction,ComponentPad*%
%ADD10R,1.520000X1.520000*%
%TD*%
%TA.AperFunction,ComponentPad*%
%ADD11C,1.520000*%
%TD*%
%TA.AperFunction,ComponentPad*%
%ADD12R,2.100000X2.100000*%
%TD*%
%TA.AperFunction,ComponentPad*%
%ADD13C,2.100000*%
%TD*%
%TA.AperFunction,HeatsinkPad*%
%ADD14C,0.500000*%
%TD*%
%TA.AperFunction,HeatsinkPad*%
%ADD15R,3.200000X3.200000*%
%TD*%
%TA.AperFunction,ComponentPad*%
%ADD16O,2.100000X1.000000*%
%TD*%
%TA.AperFunction,ComponentPad*%
%ADD17O,1.800000X1.000000*%
%TD*%
%TA.AperFunction,SMDPad,CuDef*%
%ADD18RoundRect,0.140000X0.170000X-0.140000X0.170000X0.140000X-0.170000X0.140000X-0.170000X-0.140000X0*%
%TD*%
%TA.AperFunction,SMDPad,CuDef*%
%ADD19R,3.000000X0.500000*%
%TD*%
%TA.AperFunction,SMDPad,CuDef*%
%ADD20RoundRect,0.140000X-0.140000X-0.170000X0.140000X-0.170000X0.140000X0.170000X-0.140000X0.170000X0*%
%TD*%
%TA.AperFunction,SMDPad,CuDef*%
%ADD21RoundRect,0.135000X-0.135000X-0.185000X0.135000X-0.185000X0.135000X0.185000X-0.135000X0.185000X0*%
%TD*%
%TA.AperFunction,SMDPad,CuDef*%
%ADD22R,1.400000X1.000000*%
%TD*%
%TA.AperFunction,SMDPad,CuDef*%
%ADD23R,1.000000X1.400000*%
%TD*%
%TA.AperFunction,SMDPad,CuDef*%
%ADD24RoundRect,0.140000X-0.170000X0.140000X-0.170000X-0.140000X0.170000X-0.140000X0.170000X0.140000X0*%
%TD*%
%TA.AperFunction,SMDPad,CuDef*%
%ADD25RoundRect,0.135000X0.185000X-0.135000X0.185000X0.135000X-0.185000X0.135000X-0.185000X-0.135000X0*%
%TD*%
%TA.AperFunction,ViaPad*%
%ADD26C,0.500000*%
%TD*%
%TA.AperFunction,Conductor*%
%ADD27C,0.300000*%
%TD*%
%TA.AperFunction,Conductor*%
%ADD28C,0.125000*%
%TD*%
%TA.AperFunction,Conductor*%
%ADD29C,0.130000*%
%TD*%
%TA.AperFunction,Conductor*%
%ADD30C,0.500000*%
%TD*%
G04 APERTURE END LIST*
D10*
%TO.P,J6,1,1*%
%TO.N,GND*%
X142375000Y-105675000D03*
D11*
%TO.P,J6,2,2*%
X142375000Y-102675000D03*
%TO.P,J6,3,3*%
X142375000Y-99675000D03*
%TO.P,J6,4,4*%
%TO.N,/Connectors/12V_{OUT}*%
X145375000Y-105675000D03*
%TO.P,J6,5,5*%
X145375000Y-102675000D03*
%TO.P,J6,6,6*%
X145375000Y-99675000D03*
%TD*%
D12*
%TO.P,J7,1,Pin_1*%
%TO.N,/Connectors/3.3V_{OUT}*%
X150760000Y-104200000D03*
D13*
%TO.P,J7,2,Pin_2*%
%TO.N,GND*%
X155840000Y-104200000D03*
%TO.P,J7,3,Pin_3*%
%TO.N,/Connectors/5V_{OUT}*%
X160920000Y-104200000D03*
%TO.P,J7,4,Pin_4*%
%TO.N,GND*%
X166000000Y-104200000D03*
%TD*%
D10*
%TO.P,J1,1,1*%
%TO.N,/12V_{IN}*%
X137110352Y-80300000D03*
D11*
%TO.P,J1,2,2*%
%TO.N,GND*%
X137110352Y-83299999D03*
%TD*%
D14*
%TO.P,U6,57,GND*%
%TO.N,GND*%
X177350000Y-90075000D03*
X177350000Y-92775000D03*
D15*
X178700000Y-91425000D03*
D14*
X180050000Y-90075000D03*
X180050000Y-92775000D03*
%TD*%
D16*
%TO.P,J2,S1,SHIELD*%
%TO.N,GND*%
X185475000Y-81110000D03*
D17*
X189655000Y-81110000D03*
D16*
X185475000Y-72470000D03*
D17*
X189655000Y-72470000D03*
%TD*%
D18*
%TO.P,C52,1*%
%TO.N,Net-(U9-C1P)*%
X188515000Y-101120000D03*
%TO.P,C52,2*%
%TO.N,Net-(U9-C1N)*%
X188515000Y-100160000D03*
%TD*%
D19*
%TO.P,U9,1,N.C.(GND)*%
%TO.N,GND*%
X186300000Y-103350000D03*
%TO.P,U9,2,C2P*%
%TO.N,Net-(U9-C2P)*%
X186300000Y-102650000D03*
%TO.P,U9,3,C2N*%
%TO.N,Net-(U9-C2N)*%
X186300000Y-101950000D03*
%TO.P,U9,4,C1P*%
%TO.N,Net-(U9-C1P)*%
X186300000Y-101250000D03*
%TO.P,U9,5,C1N*%
%TO.N,Net-(U9-C1N)*%
X186300000Y-100550000D03*
%TO.P,U9,6,VBAT*%
%TO.N,/OLED Display/V_{BAT}*%
X186300000Y-99850000D03*
%TO.P,U9,7,N.C*%
%TO.N,unconnected-(U9-N.C-Pad7)*%
X186300000Y-99150000D03*
%TO.P,U9,8,VSS*%
%TO.N,GND*%
X186300000Y-98450000D03*
%TO.P,U9,9,VDD*%
%TO.N,/MCU/3.3V_{CC}*%
X186300000Y-97750000D03*
%TO.P,U9,10,BS0*%
%TO.N,GND*%
X186300000Y-97050000D03*
%TO.P,U9,11,BS1*%
%TO.N,/MCU/3.3V_{CC}*%
X186300000Y-96350000D03*
%TO.P,U9,12,BS2*%
%TO.N,GND*%
X186300000Y-95650000D03*
%TO.P,U9,13,CS#*%
X186300000Y-94950000D03*
%TO.P,U9,14,RES#*%
%TO.N,/OLED Display/RES#*%
X186300000Y-94250000D03*
%TO.P,U9,15,D/C#*%
%TO.N,GND*%
X186300000Y-93550000D03*
%TO.P,U9,16,R/W#*%
X186300000Y-92850000D03*
%TO.P,U9,17,E/RD#*%
X186300000Y-92150000D03*
%TO.P,U9,18,D0*%
%TO.N,/MCU/SCL*%
X186300000Y-91450000D03*
%TO.P,U9,19,D1*%
%TO.N,/MCU/SDA*%
X186300000Y-90750000D03*
%TO.P,U9,20,D2*%
X186300000Y-90050000D03*
%TO.P,U9,21,D3*%
%TO.N,GND*%
X186300000Y-89350000D03*
%TO.P,U9,22,D4*%
X186300000Y-88650000D03*
%TO.P,U9,23,D5*%
X186300000Y-87950000D03*
%TO.P,U9,24,D6*%
X186300000Y-87250000D03*
%TO.P,U9,25,D7*%
X186300000Y-86550000D03*
%TO.P,U9,26,IREF*%
%TO.N,Net-(U9-IREF)*%
X186300000Y-85850000D03*
%TO.P,U9,27,VCOMH*%
%TO.N,Net-(U9-VCOMH)*%
X186300000Y-85150000D03*
%TO.P,U9,28,VCC*%
%TO.N,Net-(U9-VCC)*%
X186300000Y-84450000D03*
%TO.P,U9,29,VLSS*%
%TO.N,GND*%
X186300000Y-83750000D03*
%TO.P,U9,30,N.C.(GND)*%
X186300000Y-83050000D03*
%TD*%
D20*
%TO.P,C50,1*%
%TO.N,GND*%
X183190000Y-84140000D03*
%TO.P,C50,2*%
%TO.N,Net-(U9-VCC)*%
X184150000Y-84140000D03*
%TD*%
D21*
%TO.P,R43,1*%
%TO.N,GND*%
X183155000Y-86090000D03*
%TO.P,R43,2*%
%TO.N,Net-(U9-IREF)*%
X184175000Y-86090000D03*
%TD*%
D22*
%TO.P,Q4,1*%
%TO.N,/MCU/GPIO15*%
X182490000Y-106585000D03*
%TO.P,Q4,2*%
%TO.N,GND*%
X182490000Y-104685000D03*
%TO.P,Q4,3*%
%TO.N,Net-(Q1-Pad1)*%
X184690000Y-105635000D03*
%TD*%
D20*
%TO.P,C49,1*%
%TO.N,GND*%
X183210000Y-85115000D03*
%TO.P,C49,2*%
%TO.N,Net-(U9-VCOMH)*%
X184170000Y-85115000D03*
%TD*%
D23*
%TO.P,Q1,1*%
%TO.N,Net-(Q1-Pad1)*%
X183915000Y-102215000D03*
%TO.P,Q1,2*%
%TO.N,/Inner Buck Converter 4V/4V_{CC}*%
X182015000Y-102215000D03*
%TO.P,Q1,3*%
%TO.N,/OLED Display/V_{BAT}*%
X182965000Y-100015000D03*
%TD*%
D24*
%TO.P,C47,1*%
%TO.N,/MCU/3.3V_{CC}*%
X183190000Y-96730000D03*
%TO.P,C47,2*%
%TO.N,GND*%
X183190000Y-97690000D03*
%TD*%
D21*
%TO.P,R42,1*%
%TO.N,/Inner Buck Converter 4V/4V_{CC}*%
X182280000Y-103515000D03*
%TO.P,R42,2*%
%TO.N,Net-(Q1-Pad1)*%
X183300000Y-103515000D03*
%TD*%
D24*
%TO.P,C48,1*%
%TO.N,/MCU/3.3V_{CC}*%
X184140000Y-96730000D03*
%TO.P,C48,2*%
%TO.N,GND*%
X184140000Y-97690000D03*
%TD*%
D18*
%TO.P,C51,1*%
%TO.N,Net-(U9-C2P)*%
X188515000Y-102970000D03*
%TO.P,C51,2*%
%TO.N,Net-(U9-C2N)*%
X188515000Y-102010000D03*
%TD*%
D25*
%TO.P,R18,1*%
%TO.N,/MCU/3.3V_{CC}*%
X184115000Y-95395000D03*
%TO.P,R18,2*%
%TO.N,/OLED Display/RES#*%
X184115000Y-94375000D03*
%TD*%
D21*
%TO.P,R44,1*%
%TO.N,/MCU/GPIO15*%
X182205000Y-107810000D03*
%TO.P,R44,2*%
%TO.N,GND*%
X183225000Y-107810000D03*
%TD*%
D26*
%TO.N,GND*%
X190700000Y-95550000D03*
X189130000Y-95710000D03*
X142850000Y-86050000D03*
X158425000Y-104150000D03*
X160775000Y-81850000D03*
X189100000Y-98490000D03*
X163850000Y-104175000D03*
X157200000Y-106175000D03*
X181850000Y-98450000D03*
X144410000Y-82160000D03*
X176050000Y-98900000D03*
X137225000Y-72775000D03*
X138425000Y-72775000D03*
X166300000Y-74250000D03*
X168950000Y-92100000D03*
X178000000Y-99300000D03*
X156500000Y-95400000D03*
X165400000Y-101250000D03*
X165825000Y-80725000D03*
X136775000Y-82175000D03*
X187550000Y-105700000D03*
X154400000Y-106175000D03*
X190700000Y-97700000D03*
X189300000Y-77750000D03*
X174000000Y-94200000D03*
X134425000Y-78325000D03*
X190750000Y-88500000D03*
X190700000Y-91400000D03*
X165120000Y-79140000D03*
X149400000Y-82050000D03*
X190700000Y-96600000D03*
X163925000Y-101325000D03*
X175825000Y-79725000D03*
X190700000Y-92450000D03*
X174150000Y-84250000D03*
X158250000Y-102675000D03*
X188700000Y-92130000D03*
X175850000Y-105600000D03*
X167750000Y-101200000D03*
X146765000Y-77770000D03*
X180800000Y-105900000D03*
X161400000Y-78950000D03*
X190250000Y-104500000D03*
X180900000Y-75850000D03*
X148320000Y-79130000D03*
X155700000Y-96750000D03*
X164840000Y-86870000D03*
X157450000Y-89900000D03*
X136125000Y-72775000D03*
X184025000Y-82425000D03*
X190750000Y-87450000D03*
X189300000Y-75600000D03*
X189450000Y-85000000D03*
X190750000Y-89600000D03*
X134475000Y-82175000D03*
X172250000Y-84250000D03*
X177710000Y-94060000D03*
X165175000Y-106000000D03*
X170400000Y-106650000D03*
X155675000Y-106175000D03*
X167700000Y-80750000D03*
X163634663Y-77806885D03*
X144570000Y-78710000D03*
X150520000Y-81150000D03*
X134425000Y-76025000D03*
X163800000Y-105825000D03*
X152130000Y-93650000D03*
X188750000Y-87960000D03*
X163900000Y-102800000D03*
X166450000Y-101300000D03*
X175650000Y-75700000D03*
X189300000Y-76650000D03*
X178000000Y-99300000D03*
X148350000Y-74225000D03*
X190700000Y-93550000D03*
X165000000Y-91680000D03*
X142800000Y-82400000D03*
X135575000Y-82175000D03*
X134425000Y-77225000D03*
X168050000Y-106550000D03*
%TO.N,/OLED Display/RES#*%
X188350000Y-94275000D03*
X137025000Y-92425000D03*
%TO.N,/Buck Converter 5V/SW*%
X169125000Y-76350000D03*
X161050000Y-76900000D03*
X168250000Y-76650000D03*
X167150000Y-77075000D03*
%TO.N,/MCU/1.1V*%
X177975000Y-87000000D03*
X180450000Y-87075000D03*
X179575000Y-95725000D03*
%TO.N,/Buck Converter 3.3V/SW*%
X152400000Y-76400000D03*
X150275000Y-76850000D03*
X144300000Y-76850000D03*
X151575000Y-76550000D03*
%TO.N,/MCU/USB_P*%
X183300000Y-77300000D03*
X179900000Y-83600000D03*
%TO.N,/MCU/USB_M*%
X181800000Y-83600000D03*
X186075000Y-77025000D03*
%TO.N,/Buck Converter 5V/EN*%
X163075000Y-82175000D03*
X174225000Y-91575000D03*
%TO.N,/Buck Converter 5V/V_{CC}*%
X168100000Y-78225000D03*
X160125000Y-79525000D03*
%TO.N,/MCU/QSPI_CS*%
X174350000Y-95175000D03*
X176000000Y-86950000D03*
%TO.N,/Buck Converter 3.3V/EN*%
X146350000Y-82225000D03*
X173325000Y-90500000D03*
%TO.N,/MCU/CRIT*%
X176225000Y-95750000D03*
X157200000Y-93800000D03*
%TO.N,/MCU/WARN*%
X176925000Y-95750000D03*
X157175000Y-94750000D03*
%TO.N,/MCU/SDA*%
X173350000Y-89850000D03*
X182180000Y-94800000D03*
X155600000Y-94925000D03*
X183600000Y-90050000D03*
X183350000Y-91300000D03*
%TO.N,/MCU/SCL*%
X154950000Y-94925000D03*
X173350000Y-88950000D03*
X182360000Y-88080000D03*
%TO.N,Net-(U6-USB_DP)*%
X179325000Y-87025000D03*
X178900000Y-83625000D03*
%TO.N,Net-(U6-USB_DM)*%
X180825000Y-83625000D03*
X179900000Y-87050000D03*
%TO.N,/MCU/QSPI_SD1*%
X173070000Y-95175000D03*
X176500155Y-86456031D03*
%TO.N,/MCU/QSPI_SD3*%
X173100000Y-102875000D03*
X178400000Y-88700000D03*
%TO.N,/MCU/QSPI_SCLK*%
X171800000Y-102900000D03*
X177775000Y-88900000D03*
%TO.N,/MCU/QSPI_SD2*%
X171795000Y-95175000D03*
X176875000Y-85925000D03*
%TO.N,/MCU/QSPI_SD0*%
X170575000Y-102925000D03*
X177250000Y-89200000D03*
%TO.N,/Connectors/12V_{OUT}*%
X145750000Y-101150000D03*
X145275000Y-106925000D03*
X146500000Y-100950000D03*
X145825000Y-104200000D03*
X145000000Y-97300000D03*
X144925000Y-104250000D03*
X144850000Y-101200000D03*
X146175000Y-106875000D03*
X146500000Y-104100000D03*
X146750000Y-106600000D03*
X147350000Y-97700000D03*
X146425000Y-98625000D03*
X145900000Y-97250000D03*
X146875000Y-98175000D03*
%TO.N,/Connectors/5V_{OUT}*%
X161660000Y-103460000D03*
X162072500Y-102000000D03*
X162072500Y-100850000D03*
X162072500Y-103000000D03*
%TO.N,/Connectors/3.3V_{OUT}*%
X158550000Y-86450000D03*
X153387500Y-101337500D03*
X151987500Y-102737500D03*
X158975000Y-86875000D03*
X152637500Y-102087500D03*
%TO.N,/Inner Buck Converter 4V/SW*%
X171575000Y-87800000D03*
X167725000Y-91975000D03*
%TO.N,/Inner Buck Converter 4V/4V_{CC}*%
X163250000Y-88450000D03*
X170200000Y-94300000D03*
X163850000Y-91950000D03*
X181150000Y-102200000D03*
%TO.N,/MCU/USB_BOOT*%
X171300000Y-93500000D03*
X143925000Y-92350000D03*
%TO.N,/MCU/RUN*%
X174900000Y-107350000D03*
X182325000Y-96050000D03*
X140500000Y-92375000D03*
X178200000Y-103650000D03*
%TO.N,/Buck Converter 5V/5V_{OUT}*%
X184050000Y-79150000D03*
X169725000Y-84100000D03*
X161250000Y-86350000D03*
X183000000Y-74250000D03*
X168675000Y-84075000D03*
X168125000Y-84075000D03*
X163300000Y-89750000D03*
X163350000Y-86350000D03*
X170100000Y-86975000D03*
%TO.N,/12V_{IN}*%
X147875000Y-87350000D03*
X138700000Y-80490000D03*
X160550000Y-75250000D03*
X160975000Y-74925000D03*
X143975000Y-80025000D03*
X148450000Y-87325000D03*
X142775000Y-75500000D03*
X138230176Y-81419824D03*
X148200000Y-86725000D03*
X182100000Y-77100000D03*
X143275000Y-75000000D03*
X140100000Y-80490000D03*
X139350000Y-80490000D03*
X161325000Y-80550000D03*
X143975000Y-80775000D03*
X180950000Y-77075000D03*
X181525000Y-77075000D03*
X138780176Y-81969824D03*
X142387500Y-75887500D03*
X139405176Y-82594824D03*
X144525000Y-80375000D03*
%TO.N,/Buck Converter 3.3V/3.3V_{OUT}*%
X153425000Y-84150000D03*
X154575000Y-84150000D03*
X152000000Y-84250000D03*
X155625000Y-84175000D03*
%TO.N,/Buck Converter 3.3V/V_{CC}*%
X142980000Y-79160000D03*
X150400000Y-77775000D03*
%TO.N,/MCU/3.3V_{CC}*%
X176850000Y-80325000D03*
X176575000Y-83775000D03*
X177750000Y-97600000D03*
X178725000Y-87000000D03*
X178900000Y-95700000D03*
X171300000Y-94475000D03*
X182975000Y-92425000D03*
X158400000Y-94125000D03*
X182250000Y-87325000D03*
X153400000Y-93675000D03*
X181925000Y-97075000D03*
X175775000Y-83775000D03*
X175875000Y-103000000D03*
X181250000Y-87075000D03*
X173500000Y-91575000D03*
X184175000Y-88600000D03*
X174225000Y-87200000D03*
X153450000Y-89975000D03*
X179650000Y-74200000D03*
X177400000Y-83775000D03*
%TO.N,/MCU/GPIO15*%
X177690000Y-95820000D03*
%TD*%
D27*
%TO.N,GND*%
X186300000Y-92150000D02*
X186300000Y-93550000D01*
X184140000Y-98090000D02*
X184140000Y-97690000D01*
X186300000Y-97050000D02*
X184780000Y-97050000D01*
X183190000Y-85095000D02*
X183210000Y-85115000D01*
X186300000Y-95650000D02*
X189070000Y-95650000D01*
X186300000Y-98450000D02*
X184500000Y-98450000D01*
X189100000Y-98490000D02*
X189060000Y-98450000D01*
X188680000Y-92150000D02*
X188700000Y-92130000D01*
X188750000Y-87960000D02*
X186310000Y-87960000D01*
X189060000Y-98450000D02*
X186300000Y-98450000D01*
X189070000Y-95650000D02*
X189130000Y-95710000D01*
X183210000Y-85115000D02*
X183210000Y-86035000D01*
X186300000Y-92150000D02*
X188680000Y-92150000D01*
X184500000Y-98450000D02*
X184140000Y-98090000D01*
X186310000Y-87960000D02*
X186300000Y-87950000D01*
X184780000Y-97050000D02*
X184140000Y-97690000D01*
X183190000Y-84140000D02*
X183190000Y-85095000D01*
X186300000Y-86550000D02*
X186300000Y-89350000D01*
X186300000Y-83050000D02*
X186300000Y-83750000D01*
X186300000Y-94950000D02*
X186300000Y-95650000D01*
X183210000Y-86035000D02*
X183155000Y-86090000D01*
%TO.N,/OLED Display/RES#*%
X188350000Y-94275000D02*
X186325000Y-94275000D01*
X186175000Y-94375000D02*
X186300000Y-94250000D01*
X184115000Y-94375000D02*
X186175000Y-94375000D01*
D28*
X186425000Y-94200000D02*
X186300000Y-94250000D01*
D27*
X186325000Y-94275000D02*
X186300000Y-94250000D01*
D28*
%TO.N,/MCU/USB_P*%
X179900000Y-83600000D02*
X179900000Y-80700000D01*
X179900000Y-80700000D02*
X183300000Y-77300000D01*
%TO.N,/MCU/USB_M*%
X181800000Y-82075000D02*
X181800000Y-83600000D01*
X181804074Y-82075000D02*
X181800000Y-82075000D01*
X186075000Y-77025000D02*
X186075000Y-77804074D01*
X186075000Y-77804074D02*
X181804074Y-82075000D01*
D29*
%TO.N,/Buck Converter 5V/EN*%
X174225000Y-87857610D02*
X168542390Y-82175000D01*
X174225000Y-91575000D02*
X174225000Y-87857610D01*
X168542390Y-82175000D02*
X163075000Y-82175000D01*
D28*
%TO.N,/MCU/QSPI_CS*%
X174350000Y-95175000D02*
X176000000Y-93525000D01*
X176000000Y-93525000D02*
X176000000Y-86950000D01*
D29*
%TO.N,/Buck Converter 3.3V/EN*%
X148700000Y-84725000D02*
X148275000Y-84300000D01*
X173815000Y-88757390D02*
X169782610Y-84725000D01*
X148275000Y-84300000D02*
X148275000Y-84150000D01*
X169782610Y-84725000D02*
X148700000Y-84725000D01*
X173357610Y-90500000D02*
X173815000Y-90042610D01*
X173325000Y-90500000D02*
X173357610Y-90500000D01*
X173815000Y-90042610D02*
X173815000Y-88757390D01*
X148275000Y-84150000D02*
X146350000Y-82225000D01*
D28*
%TO.N,/MCU/CRIT*%
X160375000Y-96975000D02*
X157200000Y-93800000D01*
X157200000Y-93800000D02*
X157229074Y-93800000D01*
X175000000Y-96975000D02*
X160375000Y-96975000D01*
X176225000Y-95750000D02*
X175000000Y-96975000D01*
%TO.N,/MCU/WARN*%
X159925000Y-97500000D02*
X157175000Y-94750000D01*
X176925000Y-96125000D02*
X176925000Y-95750000D01*
X176925000Y-95750000D02*
X175175000Y-97500000D01*
X175175000Y-97500000D02*
X159925000Y-97500000D01*
%TO.N,/MCU/SDA*%
X183350000Y-91300000D02*
X182512500Y-92137500D01*
X182512500Y-92137500D02*
X182512500Y-94467500D01*
X155600000Y-94925000D02*
X155600000Y-94745926D01*
X185950000Y-90050000D02*
X186300000Y-90050000D01*
X173162500Y-90037500D02*
X173350000Y-89850000D01*
X173133426Y-90037500D02*
X173162500Y-90037500D01*
X155600000Y-94745926D02*
X160045926Y-90300000D01*
X183600000Y-90050000D02*
X186300000Y-90050000D01*
X182512500Y-94467500D02*
X182180000Y-94800000D01*
X160045926Y-90300000D02*
X172870926Y-90300000D01*
X172870926Y-90300000D02*
X173133426Y-90037500D01*
X185050000Y-90050000D02*
X185950000Y-90050000D01*
X186300000Y-90050000D02*
X186300000Y-90750000D01*
%TO.N,/MCU/SCL*%
X154950000Y-94400000D02*
X154950000Y-94925000D01*
X184345926Y-91450000D02*
X182360000Y-89464074D01*
X173350000Y-88950000D02*
X160400000Y-88950000D01*
X186300000Y-91450000D02*
X184345926Y-91450000D01*
X160400000Y-88950000D02*
X154950000Y-94400000D01*
X182360000Y-89464074D02*
X182360000Y-88080000D01*
%TO.N,Net-(U6-USB_DP)*%
X179325000Y-87025000D02*
X179325000Y-84050000D01*
X179325000Y-84050000D02*
X178900000Y-83625000D01*
%TO.N,Net-(U6-USB_DM)*%
X179900000Y-84550000D02*
X180825000Y-83625000D01*
X179900000Y-87050000D02*
X179900000Y-84550000D01*
%TO.N,/MCU/QSPI_SD1*%
X176500155Y-86456031D02*
X176500155Y-87103919D01*
X176500155Y-87103919D02*
X176425000Y-87179074D01*
X176425000Y-93754074D02*
X174541574Y-95637500D01*
X176425000Y-87179074D02*
X176425000Y-93754074D01*
X174541574Y-95637500D02*
X173532500Y-95637500D01*
X173532500Y-95637500D02*
X173070000Y-95175000D01*
%TO.N,/MCU/QSPI_SD3*%
X173100000Y-102875000D02*
X174150000Y-101825000D01*
X181277500Y-99101441D02*
X181277500Y-89812820D01*
X180164680Y-88700000D02*
X178400000Y-88700000D01*
X181032500Y-99346441D02*
X181277500Y-99101441D01*
X174150000Y-101825000D02*
X179475000Y-101825000D01*
X179475000Y-101825000D02*
X181032500Y-100267500D01*
X181277500Y-89812820D02*
X180164680Y-88700000D01*
X181032500Y-100267500D02*
X181032500Y-99346441D01*
%TO.N,/MCU/QSPI_SCLK*%
X180294840Y-89162500D02*
X178037500Y-89162500D01*
X180875000Y-89742660D02*
X180294840Y-89162500D01*
X180875000Y-98250000D02*
X180875000Y-89742660D01*
X178037500Y-89162500D02*
X177775000Y-88900000D01*
X171800000Y-102900000D02*
X174275000Y-100425000D01*
X174275000Y-100425000D02*
X178700000Y-100425000D01*
X178700000Y-100425000D02*
X180875000Y-98250000D01*
%TO.N,/MCU/QSPI_SD2*%
X176875000Y-87250000D02*
X176962655Y-87162345D01*
X176962655Y-86012655D02*
X176875000Y-85925000D01*
X171795000Y-95175000D02*
X172645000Y-96025000D01*
X176875000Y-94275000D02*
X176875000Y-87250000D01*
X176962655Y-87162345D02*
X176962655Y-86012655D01*
X172645000Y-96025000D02*
X175125000Y-96025000D01*
X175125000Y-96025000D02*
X176875000Y-94275000D01*
%TO.N,/MCU/QSPI_SD0*%
X177475000Y-89425000D02*
X180225000Y-89425000D01*
X180462500Y-89662500D02*
X180462500Y-97762500D01*
X180462500Y-97762500D02*
X178500000Y-99725000D01*
X173775000Y-99725000D02*
X170575000Y-102925000D01*
X170575000Y-102825000D02*
X170575000Y-102925000D01*
X177250000Y-89200000D02*
X177475000Y-89425000D01*
X180225000Y-89425000D02*
X180462500Y-89662500D01*
X178500000Y-99725000D02*
X173775000Y-99725000D01*
D27*
%TO.N,/Inner Buck Converter 4V/4V_{CC}*%
X182015000Y-103250000D02*
X182280000Y-103515000D01*
D30*
X181150000Y-102200000D02*
X182000000Y-102200000D01*
D27*
X182015000Y-102215000D02*
X182015000Y-103250000D01*
D30*
X182000000Y-102200000D02*
X182015000Y-102215000D01*
D27*
%TO.N,Net-(U9-VCOMH)*%
X186265000Y-85115000D02*
X186300000Y-85150000D01*
X184170000Y-85115000D02*
X186265000Y-85115000D01*
%TO.N,Net-(U9-VCC)*%
X184460000Y-84450000D02*
X186300000Y-84450000D01*
X184150000Y-84140000D02*
X184460000Y-84450000D01*
%TO.N,Net-(U9-C2N)*%
X186300000Y-101950000D02*
X188455000Y-101950000D01*
X188455000Y-101950000D02*
X188515000Y-102010000D01*
%TO.N,/MCU/3.3V_{CC}*%
X182845000Y-97075000D02*
X183190000Y-96730000D01*
X184140000Y-96730000D02*
X184520000Y-96350000D01*
X188060000Y-96540000D02*
X188060000Y-97590000D01*
X184115000Y-95395000D02*
X184115000Y-96705000D01*
X184115000Y-96705000D02*
X184140000Y-96730000D01*
X187900000Y-97750000D02*
X186300000Y-97750000D01*
X183190000Y-96730000D02*
X184140000Y-96730000D01*
X181925000Y-97075000D02*
X182845000Y-97075000D01*
X187870000Y-96350000D02*
X188060000Y-96540000D01*
X188060000Y-97590000D02*
X187900000Y-97750000D01*
X184520000Y-96350000D02*
X186300000Y-96350000D01*
X186300000Y-96350000D02*
X187870000Y-96350000D01*
%TO.N,Net-(U9-C2P)*%
X188195000Y-102650000D02*
X188515000Y-102970000D01*
X186300000Y-102650000D02*
X188195000Y-102650000D01*
%TO.N,Net-(U9-C1N)*%
X188515000Y-100160000D02*
X188125000Y-100550000D01*
X188125000Y-100550000D02*
X186300000Y-100550000D01*
%TO.N,Net-(U9-C1P)*%
X186300000Y-101250000D02*
X188385000Y-101250000D01*
X188385000Y-101250000D02*
X188515000Y-101120000D01*
D30*
%TO.N,/OLED Display/V_{BAT}*%
X182965000Y-100015000D02*
X183130000Y-99850000D01*
X183130000Y-99850000D02*
X186300000Y-99850000D01*
D27*
%TO.N,Net-(Q1-Pad1)*%
X183915000Y-102215000D02*
X183915000Y-102900000D01*
X184690000Y-105635000D02*
X184690000Y-104905000D01*
X183915000Y-102900000D02*
X183300000Y-103515000D01*
X184690000Y-104905000D02*
X183300000Y-103515000D01*
%TO.N,Net-(U9-IREF)*%
X184415000Y-85850000D02*
X186300000Y-85850000D01*
X184175000Y-86090000D02*
X184415000Y-85850000D01*
D28*
%TO.N,/MCU/GPIO15*%
X182205000Y-107810000D02*
X172230000Y-107810000D01*
X173950000Y-98430000D02*
X176170000Y-98430000D01*
X182620000Y-106460000D02*
X182490000Y-106585000D01*
X172230000Y-107810000D02*
X168860000Y-104440000D01*
X177690000Y-96830000D02*
X177690000Y-95820000D01*
X177600000Y-96920000D02*
X177690000Y-96830000D01*
X177600000Y-97000000D02*
X177600000Y-96920000D01*
X182205000Y-106870000D02*
X182620000Y-106460000D01*
X176170000Y-98430000D02*
X177600000Y-97000000D01*
X182205000Y-107810000D02*
X182205000Y-106870000D01*
X168860000Y-104440000D02*
X168860000Y-103520000D01*
X168860000Y-103520000D02*
X173950000Y-98430000D01*
%TD*%
%TA.AperFunction,Conductor*%
%TO.N,GND*%
G36*
X147915781Y-84740797D02*
G01*
X147920856Y-84745594D01*
X148247487Y-85072225D01*
X148352775Y-85177513D01*
X148481725Y-85251962D01*
X148625550Y-85290500D01*
X169497010Y-85290500D01*
X169564049Y-85310185D01*
X169584691Y-85326819D01*
X170271018Y-86013146D01*
X170304503Y-86074469D01*
X170299519Y-86144161D01*
X170257647Y-86200094D01*
X170192183Y-86224511D01*
X170180010Y-86224349D01*
X170180010Y-86224500D01*
X170026080Y-86224500D01*
X169881092Y-86253340D01*
X169881082Y-86253343D01*
X169744511Y-86309912D01*
X169744498Y-86309919D01*
X169621584Y-86392048D01*
X169621580Y-86392051D01*
X169517051Y-86496580D01*
X169517048Y-86496584D01*
X169434919Y-86619498D01*
X169434912Y-86619511D01*
X169378343Y-86756082D01*
X169378340Y-86756092D01*
X169349500Y-86901079D01*
X169349500Y-86901082D01*
X169349500Y-87048918D01*
X169349500Y-87048920D01*
X169349499Y-87048920D01*
X169378340Y-87193907D01*
X169378343Y-87193917D01*
X169434912Y-87330488D01*
X169434919Y-87330501D01*
X169517048Y-87453415D01*
X169517051Y-87453419D01*
X169621580Y-87557948D01*
X169621584Y-87557951D01*
X169744498Y-87640080D01*
X169744511Y-87640087D01*
X169842049Y-87680488D01*
X169881087Y-87696658D01*
X169881091Y-87696658D01*
X169881092Y-87696659D01*
X170026079Y-87725500D01*
X170026082Y-87725500D01*
X170173920Y-87725500D01*
X170274487Y-87705495D01*
X170318913Y-87696658D01*
X170455495Y-87640084D01*
X170578416Y-87557951D01*
X170638306Y-87498060D01*
X170699627Y-87464577D01*
X170769319Y-87469561D01*
X170825253Y-87511432D01*
X170849670Y-87576896D01*
X170847603Y-87609935D01*
X170824500Y-87726079D01*
X170824500Y-87726082D01*
X170824500Y-87873918D01*
X170824500Y-87873920D01*
X170824499Y-87873920D01*
X170853340Y-88018907D01*
X170853343Y-88018917D01*
X170909912Y-88155488D01*
X170909918Y-88155499D01*
X170935717Y-88194110D01*
X170956594Y-88260787D01*
X170938109Y-88328167D01*
X170886130Y-88374857D01*
X170832614Y-88387000D01*
X164104436Y-88387000D01*
X164037397Y-88367315D01*
X163991642Y-88314511D01*
X163982819Y-88287193D01*
X163975318Y-88249488D01*
X163971658Y-88231087D01*
X163956342Y-88194110D01*
X163915087Y-88094511D01*
X163915080Y-88094498D01*
X163832951Y-87971584D01*
X163832948Y-87971580D01*
X163728419Y-87867051D01*
X163728415Y-87867048D01*
X163605501Y-87784919D01*
X163605488Y-87784912D01*
X163468917Y-87728343D01*
X163468907Y-87728340D01*
X163323920Y-87699500D01*
X163323918Y-87699500D01*
X163176082Y-87699500D01*
X163176080Y-87699500D01*
X163031092Y-87728340D01*
X163031082Y-87728343D01*
X162894511Y-87784912D01*
X162894498Y-87784919D01*
X162771584Y-87867048D01*
X162771580Y-87867051D01*
X162667051Y-87971580D01*
X162667048Y-87971584D01*
X162584919Y-88094498D01*
X162584912Y-88094511D01*
X162528343Y-88231082D01*
X162528341Y-88231091D01*
X162517181Y-88287193D01*
X162484795Y-88349103D01*
X162424079Y-88383677D01*
X162395564Y-88387000D01*
X160325880Y-88387000D01*
X160194428Y-88422222D01*
X160182686Y-88425369D01*
X160078832Y-88485330D01*
X160054313Y-88499485D01*
X160054308Y-88499489D01*
X155943073Y-92610723D01*
X155881750Y-92644208D01*
X155855773Y-92647041D01*
X154301880Y-92651814D01*
X154301880Y-93267790D01*
X154282195Y-93334829D01*
X154229391Y-93380584D01*
X154160233Y-93390528D01*
X154096677Y-93361503D01*
X154069619Y-93323984D01*
X154067954Y-93324875D01*
X154065080Y-93319498D01*
X153982951Y-93196584D01*
X153982948Y-93196580D01*
X153878419Y-93092051D01*
X153878415Y-93092048D01*
X153755501Y-93009919D01*
X153755488Y-93009912D01*
X153618917Y-92953343D01*
X153618907Y-92953340D01*
X153473920Y-92924500D01*
X153473918Y-92924500D01*
X153326082Y-92924500D01*
X153326080Y-92924500D01*
X153181092Y-92953340D01*
X153181082Y-92953343D01*
X153044511Y-93009912D01*
X153044498Y-93009919D01*
X152921584Y-93092048D01*
X152921580Y-93092051D01*
X152817051Y-93196580D01*
X152817048Y-93196584D01*
X152734919Y-93319498D01*
X152734912Y-93319511D01*
X152678343Y-93456082D01*
X152678340Y-93456092D01*
X152649500Y-93601079D01*
X152649500Y-93601082D01*
X152649500Y-93748918D01*
X152649500Y-93748920D01*
X152649499Y-93748920D01*
X152678340Y-93893907D01*
X152678343Y-93893917D01*
X152734912Y-94030488D01*
X152734919Y-94030501D01*
X152817048Y-94153415D01*
X152817051Y-94153419D01*
X152921580Y-94257948D01*
X152921584Y-94257951D01*
X153044498Y-94340080D01*
X153044511Y-94340087D01*
X153181082Y-94396656D01*
X153181087Y-94396658D01*
X153181091Y-94396658D01*
X153181092Y-94396659D01*
X153326079Y-94425500D01*
X153326082Y-94425500D01*
X153473920Y-94425500D01*
X153571462Y-94406096D01*
X153618913Y-94396658D01*
X153746251Y-94343913D01*
X153755488Y-94340087D01*
X153755488Y-94340086D01*
X153755495Y-94340084D01*
X153878416Y-94257951D01*
X153982951Y-94153416D01*
X154065084Y-94030495D01*
X154065086Y-94030488D01*
X154067954Y-94025125D01*
X154070142Y-94026294D01*
X154107145Y-93980363D01*
X154173436Y-93958289D01*
X154241138Y-93975558D01*
X154288756Y-94026689D01*
X154301880Y-94082209D01*
X154301880Y-94506707D01*
X154287240Y-94565157D01*
X154284916Y-94569504D01*
X154228342Y-94706086D01*
X154228340Y-94706092D01*
X154199500Y-94851079D01*
X154199500Y-94851082D01*
X154199500Y-94998918D01*
X154199500Y-94998920D01*
X154199499Y-94998920D01*
X154228340Y-95143907D01*
X154228343Y-95143917D01*
X154284913Y-95280490D01*
X154287235Y-95284833D01*
X154301880Y-95343292D01*
X154301880Y-96039985D01*
X154301880Y-96039986D01*
X157617213Y-96039782D01*
X157684251Y-96059462D01*
X157704897Y-96076100D01*
X159579309Y-97950512D01*
X159707690Y-98024632D01*
X159850879Y-98063000D01*
X159850880Y-98063000D01*
X168801896Y-98063000D01*
X168868935Y-98082685D01*
X168914690Y-98135489D01*
X168925895Y-98186627D01*
X168939166Y-102592894D01*
X168919684Y-102659992D01*
X168902848Y-102680948D01*
X168514310Y-103069488D01*
X168409489Y-103174308D01*
X168409485Y-103174313D01*
X168335369Y-103302687D01*
X168335368Y-103302688D01*
X168322825Y-103349500D01*
X168297000Y-103445880D01*
X168297000Y-104514120D01*
X168314229Y-104578419D01*
X168335368Y-104657311D01*
X168335369Y-104657312D01*
X168350171Y-104682951D01*
X168363061Y-104705276D01*
X168409488Y-104785690D01*
X168409490Y-104785692D01*
X168911227Y-105287429D01*
X168944712Y-105348752D01*
X168947545Y-105374736D01*
X168958842Y-109125126D01*
X168939360Y-109192225D01*
X168886694Y-109238139D01*
X168834843Y-109249500D01*
X135828481Y-109249500D01*
X135821528Y-109249305D01*
X135529703Y-109232916D01*
X135515885Y-109231359D01*
X135231172Y-109182984D01*
X135217615Y-109179890D01*
X134940100Y-109099939D01*
X134926975Y-109095346D01*
X134660165Y-108984830D01*
X134647637Y-108978797D01*
X134394874Y-108839100D01*
X134383100Y-108831702D01*
X134147569Y-108664584D01*
X134136697Y-108655914D01*
X133921357Y-108463475D01*
X133911524Y-108453642D01*
X133805170Y-108334632D01*
X133719085Y-108238302D01*
X133710415Y-108227430D01*
X133543297Y-107991899D01*
X133535899Y-107980125D01*
X133396202Y-107727362D01*
X133390172Y-107714841D01*
X133279653Y-107448024D01*
X133275060Y-107434899D01*
X133195109Y-107157384D01*
X133192015Y-107143827D01*
X133145759Y-106871584D01*
X133143638Y-106859103D01*
X133142084Y-106845306D01*
X133125695Y-106553472D01*
X133125500Y-106546519D01*
X133125500Y-102560258D01*
X136304500Y-102560258D01*
X136304500Y-102789741D01*
X136327294Y-102962872D01*
X136334452Y-103017238D01*
X136376538Y-103174308D01*
X136393842Y-103238887D01*
X136481650Y-103450876D01*
X136481657Y-103450890D01*
X136596392Y-103649617D01*
X136736081Y-103831661D01*
X136736089Y-103831670D01*
X136898330Y-103993911D01*
X136898338Y-103993918D01*
X136898339Y-103993919D01*
X136948962Y-104032764D01*
X137080382Y-104133607D01*
X137080385Y-104133608D01*
X137080388Y-104133611D01*
X137279112Y-104248344D01*
X137279117Y-104248346D01*
X137279123Y-104248349D01*
X137370480Y-104286190D01*
X137491113Y-104336158D01*
X137712762Y-104395548D01*
X137940266Y-104425500D01*
X137940273Y-104425500D01*
X138169727Y-104425500D01*
X138169734Y-104425500D01*
X138397238Y-104395548D01*
X138618887Y-104336158D01*
X138830888Y-104248344D01*
X139029612Y-104133611D01*
X139211661Y-103993919D01*
X139211665Y-103993914D01*
X139211670Y-103993911D01*
X139373911Y-103831670D01*
X139373914Y-103831665D01*
X139373919Y-103831661D01*
X139513611Y-103649612D01*
X139628344Y-103450888D01*
X139716158Y-103238887D01*
X139775548Y-103017238D01*
X139805500Y-102789734D01*
X139805500Y-102560266D01*
X139775548Y-102332762D01*
X139716158Y-102111113D01*
X139658560Y-101972060D01*
X139628349Y-101899123D01*
X139628346Y-101899117D01*
X139628344Y-101899112D01*
X139513611Y-101700388D01*
X139513608Y-101700385D01*
X139513607Y-101700382D01*
X139373918Y-101518338D01*
X139373911Y-101518330D01*
X139211670Y-101356089D01*
X139211661Y-101356081D01*
X139104588Y-101273920D01*
X144099499Y-101273920D01*
X144128340Y-101418907D01*
X144128343Y-101418917D01*
X144184912Y-101555488D01*
X144184919Y-101555501D01*
X144267048Y-101678415D01*
X144267051Y-101678419D01*
X144350829Y-101762197D01*
X144384314Y-101823520D01*
X144379330Y-101893212D01*
X144363467Y-101922763D01*
X144296924Y-102014351D01*
X144296924Y-102014352D01*
X144206850Y-102191131D01*
X144197822Y-102218917D01*
X144145537Y-102379832D01*
X144145536Y-102379835D01*
X144145536Y-102379837D01*
X144114500Y-102575790D01*
X144114500Y-102774209D01*
X144140482Y-102938250D01*
X144145537Y-102970168D01*
X144185745Y-103093913D01*
X144206850Y-103158868D01*
X144237442Y-103218907D01*
X144296923Y-103335646D01*
X144413544Y-103496161D01*
X144413546Y-103496163D01*
X144427826Y-103510443D01*
X144461311Y-103571766D01*
X144456327Y-103641458D01*
X144427827Y-103685805D01*
X144342048Y-103771584D01*
X144259919Y-103894498D01*
X144259912Y-103894511D01*
X144203343Y-104031082D01*
X144203340Y-104031092D01*
X144174500Y-104176079D01*
X144174500Y-104176082D01*
X144174500Y-104323918D01*
X144174500Y-104323920D01*
X144174499Y-104323920D01*
X144203340Y-104468907D01*
X144203343Y-104468917D01*
X144259912Y-104605488D01*
X144259919Y-104605501D01*
X144342048Y-104728415D01*
X144342050Y-104728418D01*
X144361348Y-104747715D01*
X144394835Y-104809037D01*
X144389852Y-104878729D01*
X144373987Y-104908283D01*
X144296930Y-105014343D01*
X144296924Y-105014352D01*
X144206850Y-105191131D01*
X144176193Y-105285484D01*
X144145537Y-105379832D01*
X144145536Y-105379835D01*
X144145536Y-105379837D01*
X144114500Y-105575790D01*
X144114500Y-105774209D01*
X144139953Y-105934912D01*
X144145537Y-105970168D01*
X144167294Y-106037127D01*
X144206850Y-106158868D01*
X144250481Y-106244498D01*
X144296923Y-106335646D01*
X144413544Y-106496161D01*
X144467383Y-106550000D01*
X144518110Y-106600727D01*
X144551594Y-106662050D01*
X144552045Y-106712599D01*
X144524500Y-106851077D01*
X144524500Y-106851082D01*
X144524500Y-106998918D01*
X144524500Y-106998920D01*
X144524499Y-106998920D01*
X144553340Y-107143907D01*
X144553343Y-107143917D01*
X144609912Y-107280488D01*
X144609919Y-107280501D01*
X144692048Y-107403415D01*
X144692051Y-107403419D01*
X144796580Y-107507948D01*
X144796584Y-107507951D01*
X144919498Y-107590080D01*
X144919511Y-107590087D01*
X145056082Y-107646656D01*
X145056087Y-107646658D01*
X145056091Y-107646658D01*
X145056092Y-107646659D01*
X145201079Y-107675500D01*
X145201082Y-107675500D01*
X145348920Y-107675500D01*
X145446462Y-107656096D01*
X145493913Y-107646658D01*
X145630495Y-107590084D01*
X145694273Y-107547469D01*
X145760950Y-107526591D01*
X145813274Y-107539205D01*
X145813876Y-107537753D01*
X145940206Y-107590080D01*
X145956087Y-107596658D01*
X145956091Y-107596658D01*
X145956092Y-107596659D01*
X146101079Y-107625500D01*
X146101082Y-107625500D01*
X146248920Y-107625500D01*
X146346462Y-107606096D01*
X146393913Y-107596658D01*
X146530495Y-107540084D01*
X146653416Y-107457951D01*
X146676468Y-107434899D01*
X146724549Y-107386819D01*
X146785872Y-107353334D01*
X146812230Y-107350500D01*
X146823920Y-107350500D01*
X146921462Y-107331096D01*
X146968913Y-107321658D01*
X147105495Y-107265084D01*
X147228416Y-107182951D01*
X147332951Y-107078416D01*
X147415084Y-106955495D01*
X147471658Y-106818913D01*
X147481975Y-106767049D01*
X147500500Y-106673920D01*
X147500500Y-106526079D01*
X147471659Y-106381092D01*
X147471658Y-106381091D01*
X147471658Y-106381087D01*
X147471656Y-106381082D01*
X147415087Y-106244511D01*
X147415080Y-106244498D01*
X147332951Y-106121584D01*
X147332948Y-106121580D01*
X147228419Y-106017051D01*
X147228415Y-106017048D01*
X147105501Y-105934919D01*
X147105488Y-105934912D01*
X146968917Y-105878343D01*
X146968907Y-105878340D01*
X146823920Y-105849500D01*
X146823918Y-105849500D01*
X146759500Y-105849500D01*
X146692461Y-105829815D01*
X146646706Y-105777011D01*
X146635500Y-105725500D01*
X146635500Y-105575790D01*
X146618570Y-105468906D01*
X146604463Y-105379832D01*
X146543151Y-105191136D01*
X146543149Y-105191133D01*
X146543149Y-105191131D01*
X146499213Y-105104902D01*
X146461452Y-105030791D01*
X146448557Y-104962126D01*
X146474833Y-104897385D01*
X146531940Y-104857128D01*
X146567865Y-104851174D01*
X146567858Y-104851097D01*
X146569034Y-104850981D01*
X146571938Y-104850500D01*
X146573920Y-104850500D01*
X146692686Y-104826875D01*
X146718913Y-104821658D01*
X146855495Y-104765084D01*
X146978416Y-104682951D01*
X147082951Y-104578416D01*
X147165084Y-104455495D01*
X147221658Y-104318913D01*
X147243960Y-104206798D01*
X147250500Y-104173920D01*
X147250500Y-104026079D01*
X147221659Y-103881092D01*
X147221658Y-103881091D01*
X147221658Y-103881087D01*
X147203367Y-103836929D01*
X147165087Y-103744511D01*
X147165080Y-103744498D01*
X147082951Y-103621584D01*
X147082948Y-103621580D01*
X146978419Y-103517051D01*
X146978415Y-103517048D01*
X146855501Y-103434919D01*
X146855488Y-103434912D01*
X146718917Y-103378343D01*
X146718907Y-103378340D01*
X146618447Y-103358357D01*
X146602047Y-103349778D01*
X146583935Y-103345964D01*
X146571729Y-103333919D01*
X146556536Y-103325972D01*
X146547377Y-103309888D01*
X146534203Y-103296888D01*
X146530447Y-103280156D01*
X146521962Y-103265256D01*
X146522952Y-103246773D01*
X146518899Y-103228715D01*
X146525139Y-103205990D01*
X146525703Y-103195486D01*
X146526172Y-103194178D01*
X146528744Y-103187138D01*
X146543151Y-103158864D01*
X146561584Y-103102135D01*
X149209500Y-103102135D01*
X149209500Y-105297870D01*
X149209501Y-105297876D01*
X149215908Y-105357483D01*
X149266202Y-105492328D01*
X149266206Y-105492335D01*
X149352452Y-105607544D01*
X149352455Y-105607547D01*
X149467664Y-105693793D01*
X149467671Y-105693797D01*
X149602517Y-105744091D01*
X149602516Y-105744091D01*
X149609444Y-105744835D01*
X149662127Y-105750500D01*
X151857872Y-105750499D01*
X151917483Y-105744091D01*
X152052331Y-105693796D01*
X152167546Y-105607546D01*
X152253796Y-105492331D01*
X152294702Y-105382656D01*
X152300220Y-105367862D01*
X152300220Y-105367861D01*
X152304091Y-105357483D01*
X152310500Y-105297873D01*
X152310499Y-104078006D01*
X154290000Y-104078006D01*
X154290000Y-104321993D01*
X154328165Y-104562959D01*
X154403560Y-104794998D01*
X154514323Y-105012380D01*
X154581543Y-105104901D01*
X154581544Y-105104902D01*
X155200689Y-104485756D01*
X155219668Y-104531574D01*
X155296274Y-104646224D01*
X155393776Y-104743726D01*
X155508426Y-104820332D01*
X155554242Y-104839309D01*
X154935096Y-105458454D01*
X154935097Y-105458456D01*
X155027619Y-105525676D01*
X155245001Y-105636439D01*
X155477040Y-105711834D01*
X155718007Y-105750000D01*
X155961993Y-105750000D01*
X156202959Y-105711834D01*
X156434998Y-105636439D01*
X156652377Y-105525678D01*
X156744901Y-105458454D01*
X156744902Y-105458454D01*
X156125757Y-104839309D01*
X156171574Y-104820332D01*
X156286224Y-104743726D01*
X156383726Y-104646224D01*
X156460332Y-104531574D01*
X156479309Y-104485757D01*
X157098454Y-105104902D01*
X157098454Y-105104901D01*
X157165678Y-105012377D01*
X157276439Y-104794998D01*
X157351834Y-104562959D01*
X157390000Y-104321993D01*
X157390000Y-104078006D01*
X157389995Y-104077973D01*
X159369500Y-104077973D01*
X159369500Y-104322026D01*
X159406170Y-104553553D01*
X159407679Y-104563076D01*
X159483096Y-104795185D01*
X159593762Y-105012380D01*
X159593896Y-105012642D01*
X159737339Y-105210076D01*
X159737343Y-105210081D01*
X159909918Y-105382656D01*
X159909923Y-105382660D01*
X160060879Y-105492335D01*
X160107361Y-105526106D01*
X160324815Y-105636904D01*
X160556924Y-105712321D01*
X160797973Y-105750500D01*
X160797974Y-105750500D01*
X161042026Y-105750500D01*
X161042027Y-105750500D01*
X161283076Y-105712321D01*
X161515185Y-105636904D01*
X161732639Y-105526106D01*
X161930083Y-105382655D01*
X162102655Y-105210083D01*
X162246106Y-105012639D01*
X162356904Y-104795185D01*
X162432321Y-104563076D01*
X162470500Y-104322027D01*
X162470500Y-104078006D01*
X164450000Y-104078006D01*
X164450000Y-104321993D01*
X164488165Y-104562959D01*
X164563560Y-104794998D01*
X164674323Y-105012380D01*
X164741543Y-105104901D01*
X164741544Y-105104902D01*
X165360690Y-104485756D01*
X165379668Y-104531574D01*
X165456274Y-104646224D01*
X165553776Y-104743726D01*
X165668426Y-104820332D01*
X165714242Y-104839309D01*
X165095096Y-105458454D01*
X165095097Y-105458456D01*
X165187619Y-105525676D01*
X165405001Y-105636439D01*
X165637040Y-105711834D01*
X165878007Y-105750000D01*
X166121993Y-105750000D01*
X166362959Y-105711834D01*
X166594998Y-105636439D01*
X166812377Y-105525678D01*
X166904901Y-105458454D01*
X166904902Y-105458454D01*
X166285757Y-104839309D01*
X166331574Y-104820332D01*
X166446224Y-104743726D01*
X166543726Y-104646224D01*
X166620332Y-104531574D01*
X166639309Y-104485757D01*
X167258454Y-105104902D01*
X167258454Y-105104901D01*
X167325678Y-105012377D01*
X167436439Y-104794998D01*
X167511834Y-104562959D01*
X167550000Y-104321993D01*
X167550000Y-104078006D01*
X167511834Y-103837040D01*
X167436439Y-103605001D01*
X167325676Y-103387619D01*
X167258456Y-103295097D01*
X167258454Y-103295096D01*
X166639309Y-103914241D01*
X166620332Y-103868426D01*
X166543726Y-103753776D01*
X166446224Y-103656274D01*
X166331574Y-103579668D01*
X166285756Y-103560689D01*
X166904902Y-102941544D01*
X166904901Y-102941543D01*
X166812380Y-102874323D01*
X166594998Y-102763560D01*
X166362959Y-102688165D01*
X166121993Y-102650000D01*
X165878007Y-102650000D01*
X165637040Y-102688165D01*
X165405001Y-102763560D01*
X165187626Y-102874319D01*
X165095097Y-102941544D01*
X165714243Y-103560689D01*
X165668426Y-103579668D01*
X165553776Y-103656274D01*
X165456274Y-103753776D01*
X165379668Y-103868426D01*
X165360690Y-103914243D01*
X164741544Y-103295097D01*
X164674319Y-103387626D01*
X164563560Y-103605001D01*
X164488165Y-103837040D01*
X164450000Y-104078006D01*
X162470500Y-104078006D01*
X162470500Y-104077973D01*
X162432321Y-103836924D01*
X162414679Y-103782630D01*
X162412685Y-103712793D01*
X162448765Y-103652960D01*
X162463714Y-103641216D01*
X162550916Y-103582951D01*
X162655451Y-103478416D01*
X162737584Y-103355495D01*
X162794158Y-103218913D01*
X162819204Y-103093001D01*
X162823000Y-103073920D01*
X162823000Y-102926079D01*
X162794159Y-102781092D01*
X162794158Y-102781091D01*
X162794158Y-102781087D01*
X162768095Y-102718165D01*
X162737587Y-102644511D01*
X162737583Y-102644504D01*
X162687059Y-102568888D01*
X162666182Y-102502214D01*
X162684666Y-102434834D01*
X162687031Y-102431151D01*
X162737584Y-102355495D01*
X162794158Y-102218913D01*
X162813927Y-102119531D01*
X162823000Y-102073920D01*
X162823000Y-101926079D01*
X162794159Y-101781092D01*
X162794158Y-101781091D01*
X162794158Y-101781087D01*
X162776351Y-101738097D01*
X162737587Y-101644511D01*
X162737580Y-101644498D01*
X162655452Y-101521585D01*
X162652197Y-101518330D01*
X162646549Y-101512682D01*
X162613064Y-101451363D01*
X162618046Y-101381671D01*
X162646549Y-101337317D01*
X162655451Y-101328416D01*
X162737584Y-101205495D01*
X162794158Y-101068913D01*
X162803707Y-101020909D01*
X162823000Y-100923920D01*
X162823000Y-100776079D01*
X162794159Y-100631092D01*
X162794158Y-100631091D01*
X162794158Y-100631087D01*
X162787843Y-100615842D01*
X162737587Y-100494511D01*
X162737580Y-100494498D01*
X162655451Y-100371584D01*
X162655448Y-100371580D01*
X162550919Y-100267051D01*
X162550915Y-100267048D01*
X162428001Y-100184919D01*
X162427988Y-100184912D01*
X162291417Y-100128343D01*
X162291407Y-100128340D01*
X162146420Y-100099500D01*
X162146418Y-100099500D01*
X161998582Y-100099500D01*
X161998580Y-100099500D01*
X161853592Y-100128340D01*
X161853582Y-100128343D01*
X161717011Y-100184912D01*
X161716998Y-100184919D01*
X161594084Y-100267048D01*
X161594080Y-100267051D01*
X161489551Y-100371580D01*
X161489548Y-100371584D01*
X161407419Y-100494498D01*
X161407412Y-100494511D01*
X161350843Y-100631082D01*
X161350840Y-100631092D01*
X161322000Y-100776079D01*
X161322000Y-100776082D01*
X161322000Y-100923918D01*
X161322000Y-100923920D01*
X161321999Y-100923920D01*
X161350840Y-101068907D01*
X161350843Y-101068917D01*
X161407412Y-101205488D01*
X161407419Y-101205501D01*
X161489548Y-101328415D01*
X161489551Y-101328419D01*
X161498451Y-101337319D01*
X161531936Y-101398642D01*
X161526952Y-101468334D01*
X161498451Y-101512681D01*
X161489551Y-101521580D01*
X161489548Y-101521584D01*
X161407419Y-101644498D01*
X161407412Y-101644511D01*
X161350843Y-101781082D01*
X161350840Y-101781092D01*
X161322000Y-101926079D01*
X161322000Y-101926082D01*
X161322000Y-102073918D01*
X161322000Y-102073920D01*
X161321999Y-102073920D01*
X161350840Y-102218907D01*
X161350843Y-102218917D01*
X161407412Y-102355488D01*
X161407419Y-102355501D01*
X161457939Y-102431109D01*
X161463912Y-102450185D01*
X161474419Y-102467194D01*
X161474139Y-102482848D01*
X161478817Y-102497787D01*
X161473528Y-102517063D01*
X161473172Y-102537053D01*
X161461153Y-102562172D01*
X161460332Y-102565167D01*
X161457939Y-102568891D01*
X161413381Y-102635577D01*
X161359769Y-102680382D01*
X161290444Y-102689089D01*
X161284688Y-102687934D01*
X161082491Y-102655909D01*
X161042027Y-102649500D01*
X160797973Y-102649500D01*
X160757515Y-102655908D01*
X160556927Y-102687678D01*
X160324812Y-102763097D01*
X160107357Y-102873896D01*
X159909923Y-103017339D01*
X159909918Y-103017343D01*
X159737343Y-103189918D01*
X159737339Y-103189923D01*
X159593896Y-103387357D01*
X159483097Y-103604812D01*
X159407678Y-103836927D01*
X159369500Y-104077973D01*
X157389995Y-104077973D01*
X157351834Y-103837040D01*
X157276439Y-103605001D01*
X157165676Y-103387619D01*
X157098456Y-103295097D01*
X157098454Y-103295096D01*
X156479309Y-103914241D01*
X156460332Y-103868426D01*
X156383726Y-103753776D01*
X156286224Y-103656274D01*
X156171574Y-103579668D01*
X156125756Y-103560689D01*
X156744902Y-102941544D01*
X156744901Y-102941543D01*
X156652380Y-102874323D01*
X156434998Y-102763560D01*
X156202959Y-102688165D01*
X155961993Y-102650000D01*
X155718007Y-102650000D01*
X155477040Y-102688165D01*
X155245001Y-102763560D01*
X155027626Y-102874319D01*
X154935097Y-102941544D01*
X155554243Y-103560689D01*
X155508426Y-103579668D01*
X155393776Y-103656274D01*
X155296274Y-103753776D01*
X155219668Y-103868426D01*
X155200690Y-103914243D01*
X154581544Y-103295097D01*
X154514319Y-103387626D01*
X154403560Y-103605001D01*
X154328165Y-103837040D01*
X154290000Y-104078006D01*
X152310499Y-104078006D01*
X152310499Y-103490575D01*
X152330184Y-103423537D01*
X152365606Y-103387475D01*
X152465916Y-103320451D01*
X152570451Y-103215916D01*
X152652584Y-103092995D01*
X152709158Y-102956413D01*
X152717534Y-102914306D01*
X152733742Y-102883654D01*
X152749808Y-102852941D01*
X152750060Y-102852797D01*
X152750196Y-102852541D01*
X152780412Y-102835513D01*
X152810524Y-102818366D01*
X152811039Y-102818253D01*
X152811066Y-102818239D01*
X152811098Y-102818240D01*
X152814813Y-102817432D01*
X152856413Y-102809158D01*
X152992995Y-102752584D01*
X153115916Y-102670451D01*
X153220451Y-102565916D01*
X153302584Y-102442995D01*
X153359158Y-102306413D01*
X153384017Y-102181442D01*
X153416402Y-102119531D01*
X153477118Y-102084957D01*
X153481442Y-102084017D01*
X153539782Y-102072412D01*
X153606413Y-102059158D01*
X153730948Y-102007574D01*
X153742988Y-102002587D01*
X153742988Y-102002586D01*
X153742995Y-102002584D01*
X153865916Y-101920451D01*
X153970451Y-101815916D01*
X154052584Y-101692995D01*
X154109158Y-101556413D01*
X154124688Y-101478342D01*
X154138000Y-101411420D01*
X154138000Y-101263579D01*
X154109159Y-101118592D01*
X154109158Y-101118591D01*
X154109158Y-101118587D01*
X154109156Y-101118582D01*
X154052587Y-100982011D01*
X154052580Y-100981998D01*
X153970451Y-100859084D01*
X153970448Y-100859080D01*
X153865919Y-100754551D01*
X153865915Y-100754548D01*
X153743001Y-100672419D01*
X153742988Y-100672412D01*
X153606417Y-100615843D01*
X153606407Y-100615840D01*
X153461420Y-100587000D01*
X153461418Y-100587000D01*
X153313582Y-100587000D01*
X153313580Y-100587000D01*
X153168592Y-100615840D01*
X153168582Y-100615843D01*
X153032011Y-100672412D01*
X153031998Y-100672419D01*
X152909084Y-100754548D01*
X152909080Y-100754551D01*
X152804551Y-100859080D01*
X152804548Y-100859084D01*
X152722419Y-100981998D01*
X152722412Y-100982011D01*
X152665843Y-101118582D01*
X152665840Y-101118591D01*
X152640982Y-101243558D01*
X152608596Y-101305468D01*
X152547880Y-101340042D01*
X152543558Y-101340982D01*
X152418591Y-101365840D01*
X152418582Y-101365843D01*
X152282011Y-101422412D01*
X152281998Y-101422419D01*
X152159084Y-101504548D01*
X152159080Y-101504551D01*
X152054551Y-101609080D01*
X152054548Y-101609084D01*
X151972419Y-101731998D01*
X151972412Y-101732011D01*
X151915842Y-101868584D01*
X151915840Y-101868592D01*
X151907574Y-101910149D01*
X151875189Y-101972060D01*
X151814473Y-102006634D01*
X151810149Y-102007574D01*
X151768592Y-102015840D01*
X151768584Y-102015842D01*
X151632011Y-102072412D01*
X151631998Y-102072419D01*
X151509084Y-102154548D01*
X151509080Y-102154551D01*
X151404551Y-102259080D01*
X151404548Y-102259084D01*
X151322419Y-102381998D01*
X151322412Y-102382011D01*
X151265843Y-102518582D01*
X151265840Y-102518591D01*
X151259654Y-102549693D01*
X151227268Y-102611603D01*
X151166552Y-102646177D01*
X151138037Y-102649500D01*
X149662129Y-102649500D01*
X149662123Y-102649501D01*
X149602516Y-102655908D01*
X149467671Y-102706202D01*
X149467664Y-102706206D01*
X149352455Y-102792452D01*
X149352452Y-102792455D01*
X149266206Y-102907664D01*
X149266202Y-102907671D01*
X149215908Y-103042517D01*
X149209501Y-103102116D01*
X149209500Y-103102135D01*
X146561584Y-103102135D01*
X146604463Y-102970168D01*
X146628506Y-102818366D01*
X146635500Y-102774209D01*
X146635500Y-102575790D01*
X146618299Y-102467194D01*
X146604463Y-102379832D01*
X146543151Y-102191136D01*
X146543149Y-102191133D01*
X146543149Y-102191131D01*
X146490601Y-102088000D01*
X146453077Y-102014354D01*
X146368093Y-101897383D01*
X146344614Y-101831580D01*
X146360439Y-101763526D01*
X146410545Y-101714831D01*
X146468412Y-101700500D01*
X146573920Y-101700500D01*
X146684944Y-101678415D01*
X146718913Y-101671658D01*
X146855495Y-101615084D01*
X146978416Y-101532951D01*
X147082951Y-101428416D01*
X147165084Y-101305495D01*
X147221658Y-101168913D01*
X147250500Y-101023918D01*
X147250500Y-100876082D01*
X147250500Y-100876079D01*
X147221659Y-100731092D01*
X147221658Y-100731091D01*
X147221658Y-100731087D01*
X147174303Y-100616761D01*
X147165087Y-100594511D01*
X147165080Y-100594498D01*
X147082951Y-100471584D01*
X147082948Y-100471580D01*
X146978419Y-100367051D01*
X146978415Y-100367048D01*
X146855501Y-100284919D01*
X146855488Y-100284912D01*
X146718917Y-100228343D01*
X146718908Y-100228340D01*
X146669475Y-100218507D01*
X146607564Y-100186121D01*
X146572991Y-100125404D01*
X146575737Y-100058573D01*
X146604463Y-99970168D01*
X146618257Y-99883072D01*
X146635500Y-99774209D01*
X146635500Y-99575790D01*
X146617253Y-99460585D01*
X146626207Y-99391292D01*
X146671204Y-99337840D01*
X146692271Y-99326627D01*
X146721823Y-99314386D01*
X146780489Y-99290087D01*
X146780492Y-99290085D01*
X146780495Y-99290084D01*
X146903416Y-99207951D01*
X147007951Y-99103416D01*
X147090084Y-98980495D01*
X147111554Y-98928659D01*
X147155392Y-98874259D01*
X147178653Y-98861556D01*
X147230495Y-98840084D01*
X147353416Y-98757951D01*
X147457951Y-98653416D01*
X147540084Y-98530495D01*
X147568876Y-98460981D01*
X147612714Y-98406581D01*
X147635974Y-98393879D01*
X147705495Y-98365084D01*
X147828416Y-98282951D01*
X147932951Y-98178416D01*
X148015084Y-98055495D01*
X148071658Y-97918913D01*
X148086223Y-97845690D01*
X148100500Y-97773920D01*
X148100500Y-97626079D01*
X148071659Y-97481092D01*
X148071658Y-97481091D01*
X148071658Y-97481087D01*
X148027268Y-97373920D01*
X148015087Y-97344511D01*
X148015080Y-97344498D01*
X147932951Y-97221584D01*
X147932948Y-97221580D01*
X147828419Y-97117051D01*
X147828415Y-97117048D01*
X147705501Y-97034919D01*
X147705488Y-97034912D01*
X147568917Y-96978343D01*
X147568907Y-96978340D01*
X147423920Y-96949500D01*
X147423918Y-96949500D01*
X147276082Y-96949500D01*
X147276080Y-96949500D01*
X147131092Y-96978340D01*
X147131082Y-96978343D01*
X146994511Y-97034912D01*
X146994498Y-97034919D01*
X146871584Y-97117048D01*
X146841424Y-97147208D01*
X146780100Y-97180692D01*
X146710409Y-97175706D01*
X146654476Y-97133834D01*
X146632127Y-97083716D01*
X146622420Y-97034919D01*
X146621658Y-97031087D01*
X146599811Y-96978343D01*
X146565087Y-96894511D01*
X146565080Y-96894498D01*
X146482951Y-96771584D01*
X146482948Y-96771580D01*
X146378419Y-96667051D01*
X146378415Y-96667048D01*
X146255501Y-96584919D01*
X146255488Y-96584912D01*
X146118917Y-96528343D01*
X146118907Y-96528340D01*
X145973920Y-96499500D01*
X145973918Y-96499500D01*
X145826082Y-96499500D01*
X145826080Y-96499500D01*
X145681092Y-96528340D01*
X145681082Y-96528343D01*
X145544511Y-96584912D01*
X145544500Y-96584918D01*
X145480725Y-96627531D01*
X145414047Y-96648408D01*
X145361724Y-96635797D01*
X145361124Y-96637247D01*
X145218917Y-96578343D01*
X145218907Y-96578340D01*
X145073920Y-96549500D01*
X145073918Y-96549500D01*
X144926082Y-96549500D01*
X144926080Y-96549500D01*
X144781092Y-96578340D01*
X144781082Y-96578343D01*
X144644511Y-96634912D01*
X144644498Y-96634919D01*
X144521584Y-96717048D01*
X144521580Y-96717051D01*
X144417051Y-96821580D01*
X144417048Y-96821584D01*
X144334919Y-96944498D01*
X144334912Y-96944511D01*
X144278343Y-97081082D01*
X144278340Y-97081092D01*
X144249500Y-97226079D01*
X144249500Y-97226082D01*
X144249500Y-97373918D01*
X144249500Y-97373920D01*
X144249499Y-97373920D01*
X144278340Y-97518907D01*
X144278343Y-97518917D01*
X144334912Y-97655488D01*
X144334919Y-97655501D01*
X144417048Y-97778415D01*
X144417051Y-97778419D01*
X144521580Y-97882948D01*
X144521584Y-97882951D01*
X144644498Y-97965080D01*
X144644511Y-97965087D01*
X144768924Y-98016620D01*
X144781087Y-98021658D01*
X144781091Y-98021658D01*
X144781092Y-98021659D01*
X144926079Y-98050500D01*
X144926082Y-98050500D01*
X145073920Y-98050500D01*
X145180998Y-98029200D01*
X145218913Y-98021658D01*
X145355495Y-97965084D01*
X145419273Y-97922469D01*
X145485950Y-97901591D01*
X145528719Y-97908391D01*
X145540687Y-97912533D01*
X145544505Y-97915084D01*
X145681087Y-97971658D01*
X145752656Y-97985894D01*
X145760685Y-97988673D01*
X145782497Y-98004205D01*
X145806232Y-98016620D01*
X145810528Y-98024164D01*
X145817600Y-98029200D01*
X145827554Y-98054063D01*
X145840806Y-98077336D01*
X145840341Y-98086005D01*
X145843568Y-98094065D01*
X145838500Y-98120360D01*
X145837067Y-98147105D01*
X145831016Y-98159192D01*
X145830346Y-98162672D01*
X145828091Y-98165036D01*
X145823233Y-98174743D01*
X145759918Y-98269500D01*
X145759914Y-98269508D01*
X145723373Y-98357726D01*
X145679532Y-98412129D01*
X145613237Y-98434194D01*
X145589415Y-98432746D01*
X145474211Y-98414500D01*
X145474204Y-98414500D01*
X145275796Y-98414500D01*
X145275791Y-98414500D01*
X145079837Y-98445536D01*
X145079835Y-98445536D01*
X145079832Y-98445537D01*
X144985484Y-98476193D01*
X144891131Y-98506850D01*
X144714352Y-98596924D01*
X144714349Y-98596926D01*
X144636605Y-98653411D01*
X144553839Y-98713544D01*
X144553837Y-98713546D01*
X144553836Y-98713546D01*
X144413546Y-98853836D01*
X144413546Y-98853837D01*
X144413544Y-98853839D01*
X144400928Y-98871204D01*
X144296926Y-99014349D01*
X144296924Y-99014352D01*
X144206850Y-99191131D01*
X144201526Y-99207517D01*
X144145537Y-99379832D01*
X144145536Y-99379835D01*
X144145536Y-99379837D01*
X144114500Y-99575790D01*
X144114500Y-99774209D01*
X144145536Y-99970162D01*
X144145537Y-99970168D01*
X144174261Y-100058570D01*
X144206850Y-100158868D01*
X144237238Y-100218507D01*
X144296923Y-100335646D01*
X144384507Y-100456195D01*
X144407987Y-100522001D01*
X144392162Y-100590054D01*
X144371871Y-100616761D01*
X144267048Y-100721584D01*
X144184919Y-100844498D01*
X144184912Y-100844511D01*
X144128343Y-100981082D01*
X144128340Y-100981092D01*
X144099500Y-101126079D01*
X144099500Y-101126082D01*
X144099500Y-101273918D01*
X144099500Y-101273920D01*
X144099499Y-101273920D01*
X139104588Y-101273920D01*
X139032188Y-101218365D01*
X139032187Y-101218364D01*
X139029619Y-101216394D01*
X139029617Y-101216392D01*
X139029612Y-101216389D01*
X138830888Y-101101656D01*
X138830876Y-101101650D01*
X138618887Y-101013842D01*
X138522442Y-100988000D01*
X138397238Y-100954452D01*
X138359215Y-100949446D01*
X138169741Y-100924500D01*
X138169734Y-100924500D01*
X137940266Y-100924500D01*
X137940258Y-100924500D01*
X137723715Y-100953009D01*
X137712762Y-100954452D01*
X137619076Y-100979554D01*
X137491112Y-101013842D01*
X137279123Y-101101650D01*
X137279109Y-101101657D01*
X137080382Y-101216392D01*
X136898338Y-101356081D01*
X136736081Y-101518338D01*
X136596392Y-101700382D01*
X136481657Y-101899109D01*
X136481650Y-101899123D01*
X136393842Y-102111112D01*
X136334453Y-102332759D01*
X136334451Y-102332770D01*
X136304500Y-102560258D01*
X133125500Y-102560258D01*
X133125500Y-94398579D01*
X133145185Y-94331540D01*
X133197989Y-94285785D01*
X133247239Y-94274600D01*
X147570759Y-94013937D01*
X147630533Y-90048920D01*
X152699499Y-90048920D01*
X152728340Y-90193907D01*
X152728343Y-90193917D01*
X152784912Y-90330488D01*
X152784919Y-90330501D01*
X152867048Y-90453415D01*
X152867051Y-90453419D01*
X152971580Y-90557948D01*
X152971584Y-90557951D01*
X153094498Y-90640080D01*
X153094511Y-90640087D01*
X153231082Y-90696656D01*
X153231087Y-90696658D01*
X153231091Y-90696658D01*
X153231092Y-90696659D01*
X153376079Y-90725500D01*
X153376082Y-90725500D01*
X153523920Y-90725500D01*
X153621462Y-90706096D01*
X153668913Y-90696658D01*
X153805495Y-90640084D01*
X153928416Y-90557951D01*
X154032951Y-90453416D01*
X154115084Y-90330495D01*
X154171658Y-90193913D01*
X154200500Y-90048918D01*
X154200500Y-89901082D01*
X154200500Y-89901079D01*
X154171659Y-89756092D01*
X154171658Y-89756091D01*
X154171658Y-89756087D01*
X154138519Y-89676082D01*
X154115087Y-89619511D01*
X154115080Y-89619498D01*
X154032951Y-89496584D01*
X154032948Y-89496580D01*
X153928419Y-89392051D01*
X153928415Y-89392048D01*
X153805501Y-89309919D01*
X153805488Y-89309912D01*
X153668917Y-89253343D01*
X153668907Y-89253340D01*
X153523920Y-89224500D01*
X153523918Y-89224500D01*
X153376082Y-89224500D01*
X153376080Y-89224500D01*
X153231092Y-89253340D01*
X153231082Y-89253343D01*
X153094511Y-89309912D01*
X153094498Y-89309919D01*
X152971584Y-89392048D01*
X152971580Y-89392051D01*
X152867051Y-89496580D01*
X152867048Y-89496584D01*
X152784919Y-89619498D01*
X152784912Y-89619511D01*
X152728343Y-89756082D01*
X152728340Y-89756092D01*
X152699500Y-89901079D01*
X152699500Y-89901082D01*
X152699500Y-90048918D01*
X152699500Y-90048920D01*
X152699499Y-90048920D01*
X147630533Y-90048920D01*
X147658085Y-88221275D01*
X147678778Y-88154544D01*
X147732266Y-88109590D01*
X147794854Y-88101551D01*
X147795017Y-88099903D01*
X147801080Y-88100500D01*
X147801082Y-88100500D01*
X147948920Y-88100500D01*
X148074598Y-88075500D01*
X148093913Y-88071658D01*
X148145750Y-88050185D01*
X148215219Y-88042716D01*
X148229200Y-88046086D01*
X148231086Y-88046658D01*
X148376079Y-88075500D01*
X148376082Y-88075500D01*
X148523920Y-88075500D01*
X148621462Y-88056096D01*
X148668913Y-88046658D01*
X148805495Y-87990084D01*
X148928416Y-87907951D01*
X149032951Y-87803416D01*
X149115084Y-87680495D01*
X149171658Y-87543913D01*
X149189659Y-87453419D01*
X149200500Y-87398920D01*
X149200500Y-87251079D01*
X149171659Y-87106092D01*
X149171658Y-87106091D01*
X149171658Y-87106087D01*
X149164863Y-87089683D01*
X149115087Y-86969511D01*
X149115080Y-86969498D01*
X149032951Y-86846584D01*
X149032948Y-86846580D01*
X148986819Y-86800451D01*
X148953334Y-86739128D01*
X148950500Y-86712770D01*
X148950500Y-86651079D01*
X148925205Y-86523920D01*
X157799499Y-86523920D01*
X157828340Y-86668907D01*
X157828343Y-86668917D01*
X157884912Y-86805488D01*
X157884919Y-86805501D01*
X157967048Y-86928415D01*
X157967051Y-86928419D01*
X158071580Y-87032948D01*
X158071584Y-87032951D01*
X158194498Y-87115080D01*
X158194511Y-87115087D01*
X158228658Y-87129231D01*
X158283062Y-87173071D01*
X158295766Y-87196337D01*
X158309913Y-87230489D01*
X158309919Y-87230501D01*
X158392048Y-87353415D01*
X158392051Y-87353419D01*
X158496580Y-87457948D01*
X158496584Y-87457951D01*
X158619498Y-87540080D01*
X158619511Y-87540087D01*
X158708377Y-87576896D01*
X158756087Y-87596658D01*
X158756091Y-87596658D01*
X158756092Y-87596659D01*
X158901079Y-87625500D01*
X158901082Y-87625500D01*
X159048920Y-87625500D01*
X159146768Y-87606036D01*
X159193913Y-87596658D01*
X159321251Y-87543913D01*
X159330488Y-87540087D01*
X159330488Y-87540086D01*
X159330495Y-87540084D01*
X159453416Y-87457951D01*
X159557951Y-87353416D01*
X159640084Y-87230495D01*
X159696658Y-87093913D01*
X159712338Y-87015087D01*
X159725500Y-86948920D01*
X159725500Y-86801079D01*
X159696659Y-86656092D01*
X159696658Y-86656091D01*
X159696658Y-86656087D01*
X159681505Y-86619505D01*
X159640087Y-86519511D01*
X159640080Y-86519498D01*
X159576216Y-86423920D01*
X160499499Y-86423920D01*
X160528340Y-86568907D01*
X160528343Y-86568917D01*
X160584912Y-86705488D01*
X160584919Y-86705501D01*
X160667048Y-86828415D01*
X160667051Y-86828419D01*
X160771580Y-86932948D01*
X160771584Y-86932951D01*
X160894498Y-87015080D01*
X160894511Y-87015087D01*
X160976192Y-87048920D01*
X161031087Y-87071658D01*
X161031091Y-87071658D01*
X161031092Y-87071659D01*
X161176079Y-87100500D01*
X161176082Y-87100500D01*
X161323920Y-87100500D01*
X161421462Y-87081096D01*
X161468913Y-87071658D01*
X161584168Y-87023918D01*
X161605488Y-87015087D01*
X161605488Y-87015086D01*
X161605495Y-87015084D01*
X161728416Y-86932951D01*
X161832951Y-86828416D01*
X161915084Y-86705495D01*
X161971658Y-86568913D01*
X161981486Y-86519505D01*
X162000500Y-86423920D01*
X162599499Y-86423920D01*
X162628340Y-86568907D01*
X162628343Y-86568917D01*
X162684912Y-86705488D01*
X162684919Y-86705501D01*
X162767048Y-86828415D01*
X162767051Y-86828419D01*
X162871580Y-86932948D01*
X162871584Y-86932951D01*
X162994498Y-87015080D01*
X162994511Y-87015087D01*
X163076192Y-87048920D01*
X163131087Y-87071658D01*
X163131091Y-87071658D01*
X163131092Y-87071659D01*
X163276079Y-87100500D01*
X163276082Y-87100500D01*
X163423920Y-87100500D01*
X163521462Y-87081096D01*
X163568913Y-87071658D01*
X163684168Y-87023918D01*
X163705488Y-87015087D01*
X163705488Y-87015086D01*
X163705495Y-87015084D01*
X163828416Y-86932951D01*
X163932951Y-86828416D01*
X164015084Y-86705495D01*
X164071658Y-86568913D01*
X164081486Y-86519505D01*
X164100500Y-86423920D01*
X164100500Y-86276079D01*
X164071659Y-86131092D01*
X164071658Y-86131091D01*
X164071658Y-86131087D01*
X164070652Y-86128658D01*
X164015087Y-85994511D01*
X164015080Y-85994498D01*
X163932951Y-85871584D01*
X163932948Y-85871580D01*
X163828419Y-85767051D01*
X163828415Y-85767048D01*
X163705501Y-85684919D01*
X163705488Y-85684912D01*
X163568917Y-85628343D01*
X163568907Y-85628340D01*
X163423920Y-85599500D01*
X163423918Y-85599500D01*
X163276082Y-85599500D01*
X163276080Y-85599500D01*
X163131092Y-85628340D01*
X163131082Y-85628343D01*
X162994511Y-85684912D01*
X162994498Y-85684919D01*
X162871584Y-85767048D01*
X162871580Y-85767051D01*
X162767051Y-85871580D01*
X162767048Y-85871584D01*
X162684919Y-85994498D01*
X162684912Y-85994511D01*
X162628343Y-86131082D01*
X162628340Y-86131092D01*
X162599500Y-86276079D01*
X162599500Y-86276082D01*
X162599500Y-86423918D01*
X162599500Y-86423920D01*
X162599499Y-86423920D01*
X162000500Y-86423920D01*
X162000500Y-86276079D01*
X161971659Y-86131092D01*
X161971658Y-86131091D01*
X161971658Y-86131087D01*
X161970652Y-86128658D01*
X161915087Y-85994511D01*
X161915080Y-85994498D01*
X161832951Y-85871584D01*
X161832948Y-85871580D01*
X161728419Y-85767051D01*
X161728415Y-85767048D01*
X161605501Y-85684919D01*
X161605488Y-85684912D01*
X161468917Y-85628343D01*
X161468907Y-85628340D01*
X161323920Y-85599500D01*
X161323918Y-85599500D01*
X161176082Y-85599500D01*
X161176080Y-85599500D01*
X161031092Y-85628340D01*
X161031082Y-85628343D01*
X160894511Y-85684912D01*
X160894498Y-85684919D01*
X160771584Y-85767048D01*
X160771580Y-85767051D01*
X160667051Y-85871580D01*
X160667048Y-85871584D01*
X160584919Y-85994498D01*
X160584912Y-85994511D01*
X160528343Y-86131082D01*
X160528340Y-86131092D01*
X160499500Y-86276079D01*
X160499500Y-86276082D01*
X160499500Y-86423918D01*
X160499500Y-86423920D01*
X160499499Y-86423920D01*
X159576216Y-86423920D01*
X159557951Y-86396584D01*
X159557948Y-86396580D01*
X159453419Y-86292051D01*
X159453415Y-86292048D01*
X159330501Y-86209919D01*
X159330489Y-86209913D01*
X159296337Y-86195766D01*
X159241934Y-86151924D01*
X159229231Y-86128658D01*
X159215087Y-86094511D01*
X159215080Y-86094498D01*
X159132951Y-85971584D01*
X159132948Y-85971580D01*
X159028419Y-85867051D01*
X159028415Y-85867048D01*
X158905501Y-85784919D01*
X158905488Y-85784912D01*
X158768917Y-85728343D01*
X158768907Y-85728340D01*
X158623920Y-85699500D01*
X158623918Y-85699500D01*
X158476082Y-85699500D01*
X158476080Y-85699500D01*
X158331092Y-85728340D01*
X158331082Y-85728343D01*
X158194511Y-85784912D01*
X158194498Y-85784919D01*
X158071584Y-85867048D01*
X158071580Y-85867051D01*
X157967051Y-85971580D01*
X157967048Y-85971584D01*
X157884919Y-86094498D01*
X157884912Y-86094511D01*
X157828343Y-86231082D01*
X157828340Y-86231092D01*
X157799500Y-86376079D01*
X157799500Y-86376082D01*
X157799500Y-86523918D01*
X157799500Y-86523920D01*
X157799499Y-86523920D01*
X148925205Y-86523920D01*
X148921659Y-86506092D01*
X148921658Y-86506091D01*
X148921658Y-86506087D01*
X148910166Y-86478342D01*
X148884941Y-86417442D01*
X148865085Y-86369508D01*
X148865084Y-86369505D01*
X148865082Y-86369502D01*
X148865080Y-86369498D01*
X148782951Y-86246584D01*
X148782948Y-86246580D01*
X148678419Y-86142051D01*
X148678415Y-86142048D01*
X148555501Y-86059919D01*
X148555488Y-86059912D01*
X148418917Y-86003343D01*
X148418907Y-86003340D01*
X148273920Y-85974500D01*
X148273918Y-85974500D01*
X148126082Y-85974500D01*
X148126080Y-85974500D01*
X147981092Y-86003340D01*
X147981091Y-86003341D01*
X147981090Y-86003341D01*
X147981087Y-86003342D01*
X147921463Y-86028039D01*
X147863984Y-86051847D01*
X147794514Y-86059315D01*
X147732035Y-86028039D01*
X147696383Y-85967950D01*
X147692546Y-85935416D01*
X147709189Y-84831403D01*
X147729882Y-84764671D01*
X147783370Y-84719717D01*
X147852670Y-84710817D01*
X147915781Y-84740797D01*
G37*
%TD.AperFunction*%
%TA.AperFunction,Conductor*%
G36*
X172606269Y-90865236D02*
G01*
X172614107Y-90863967D01*
X172639314Y-90874939D01*
X172665691Y-90882685D01*
X172672522Y-90889395D01*
X172678170Y-90891854D01*
X172701755Y-90918111D01*
X172742047Y-90978414D01*
X172742051Y-90978419D01*
X172787345Y-91023712D01*
X172820831Y-91085035D01*
X172823652Y-91109580D01*
X172825215Y-91216414D01*
X172815789Y-91265680D01*
X172778343Y-91356082D01*
X172778340Y-91356092D01*
X172749500Y-91501079D01*
X172749500Y-91501082D01*
X172749500Y-91648918D01*
X172749500Y-91648920D01*
X172749499Y-91648920D01*
X172778340Y-91793907D01*
X172778343Y-91793917D01*
X172826613Y-91910452D01*
X172836039Y-91956090D01*
X172851433Y-93007985D01*
X172832731Y-93075305D01*
X172780602Y-93121828D01*
X172727978Y-93133798D01*
X172026752Y-93136807D01*
X171959629Y-93117410D01*
X171923119Y-93081700D01*
X171882951Y-93021584D01*
X171882949Y-93021581D01*
X171778419Y-92917051D01*
X171778415Y-92917048D01*
X171655501Y-92834919D01*
X171655488Y-92834912D01*
X171518917Y-92778343D01*
X171518907Y-92778340D01*
X171373920Y-92749500D01*
X171373918Y-92749500D01*
X171226082Y-92749500D01*
X171226080Y-92749500D01*
X171081092Y-92778340D01*
X171081082Y-92778343D01*
X170944511Y-92834912D01*
X170944498Y-92834919D01*
X170821584Y-92917048D01*
X170821580Y-92917051D01*
X170717051Y-93021580D01*
X170717046Y-93021586D01*
X170672703Y-93087949D01*
X170619090Y-93132754D01*
X170570134Y-93143056D01*
X168910724Y-93150177D01*
X168920175Y-96287626D01*
X168900693Y-96354725D01*
X168848027Y-96400639D01*
X168796176Y-96412000D01*
X160659564Y-96412000D01*
X160592525Y-96392315D01*
X160571883Y-96375681D01*
X158978965Y-94782763D01*
X158945480Y-94721440D01*
X158950464Y-94651748D01*
X158978966Y-94607400D01*
X158982951Y-94603416D01*
X159065084Y-94480495D01*
X159121658Y-94343913D01*
X159150500Y-94198918D01*
X159150500Y-94051082D01*
X159150500Y-94051079D01*
X159121659Y-93906092D01*
X159121658Y-93906091D01*
X159121658Y-93906087D01*
X159086656Y-93821584D01*
X159065087Y-93769511D01*
X159065080Y-93769498D01*
X158982951Y-93646584D01*
X158982948Y-93646580D01*
X158878419Y-93542051D01*
X158878415Y-93542048D01*
X158755501Y-93459919D01*
X158755488Y-93459912D01*
X158618917Y-93403343D01*
X158618907Y-93403340D01*
X158473920Y-93374500D01*
X158473918Y-93374500D01*
X158326082Y-93374500D01*
X158326080Y-93374500D01*
X158181092Y-93403340D01*
X158181082Y-93403343D01*
X158044511Y-93459912D01*
X158044502Y-93459917D01*
X158030683Y-93469151D01*
X158022045Y-93471855D01*
X158015314Y-93477902D01*
X157989227Y-93482130D01*
X157964005Y-93490027D01*
X157955278Y-93487632D01*
X157946344Y-93489081D01*
X157922108Y-93478532D01*
X157896625Y-93471541D01*
X157888883Y-93464071D01*
X157882280Y-93461197D01*
X157858694Y-93434941D01*
X157854547Y-93428735D01*
X157833667Y-93362058D01*
X157852150Y-93294677D01*
X157869962Y-93272164D01*
X159118207Y-92023920D01*
X163099499Y-92023920D01*
X163128340Y-92168907D01*
X163128343Y-92168917D01*
X163184912Y-92305488D01*
X163184919Y-92305501D01*
X163267048Y-92428415D01*
X163267051Y-92428419D01*
X163371580Y-92532948D01*
X163371584Y-92532951D01*
X163494498Y-92615080D01*
X163494511Y-92615087D01*
X163571656Y-92647041D01*
X163631087Y-92671658D01*
X163631091Y-92671658D01*
X163631092Y-92671659D01*
X163776079Y-92700500D01*
X163776082Y-92700500D01*
X163923920Y-92700500D01*
X164021462Y-92681096D01*
X164068913Y-92671658D01*
X164205495Y-92615084D01*
X164328416Y-92532951D01*
X164432951Y-92428416D01*
X164515084Y-92305495D01*
X164571658Y-92168913D01*
X164591432Y-92069505D01*
X164595527Y-92048920D01*
X166974499Y-92048920D01*
X167003340Y-92193907D01*
X167003343Y-92193917D01*
X167059912Y-92330488D01*
X167059919Y-92330501D01*
X167142048Y-92453415D01*
X167142051Y-92453419D01*
X167246580Y-92557948D01*
X167246584Y-92557951D01*
X167369498Y-92640080D01*
X167369511Y-92640087D01*
X167506082Y-92696656D01*
X167506087Y-92696658D01*
X167506091Y-92696658D01*
X167506092Y-92696659D01*
X167651079Y-92725500D01*
X167651082Y-92725500D01*
X167798920Y-92725500D01*
X167924598Y-92700500D01*
X167943913Y-92696658D01*
X168080495Y-92640084D01*
X168203416Y-92557951D01*
X168307951Y-92453416D01*
X168390084Y-92330495D01*
X168446658Y-92193913D01*
X168471405Y-92069505D01*
X168475500Y-92048920D01*
X168475500Y-91901079D01*
X168446659Y-91756092D01*
X168446658Y-91756091D01*
X168446658Y-91756087D01*
X168436301Y-91731082D01*
X168390087Y-91619511D01*
X168390080Y-91619498D01*
X168307951Y-91496584D01*
X168307948Y-91496580D01*
X168203419Y-91392051D01*
X168203415Y-91392048D01*
X168080501Y-91309919D01*
X168080488Y-91309912D01*
X167943917Y-91253343D01*
X167943907Y-91253340D01*
X167798920Y-91224500D01*
X167798918Y-91224500D01*
X167651082Y-91224500D01*
X167651080Y-91224500D01*
X167506092Y-91253340D01*
X167506082Y-91253343D01*
X167369511Y-91309912D01*
X167369498Y-91309919D01*
X167246584Y-91392048D01*
X167246580Y-91392051D01*
X167142051Y-91496580D01*
X167142048Y-91496584D01*
X167059919Y-91619498D01*
X167059912Y-91619511D01*
X167003343Y-91756082D01*
X167003340Y-91756092D01*
X166974500Y-91901079D01*
X166974500Y-91901082D01*
X166974500Y-92048918D01*
X166974500Y-92048920D01*
X166974499Y-92048920D01*
X164595527Y-92048920D01*
X164600500Y-92023920D01*
X164600500Y-91876079D01*
X164571659Y-91731092D01*
X164571658Y-91731091D01*
X164571658Y-91731087D01*
X164553392Y-91686988D01*
X164515087Y-91594511D01*
X164515080Y-91594498D01*
X164432951Y-91471584D01*
X164432948Y-91471580D01*
X164328419Y-91367051D01*
X164328415Y-91367048D01*
X164205501Y-91284919D01*
X164205488Y-91284912D01*
X164068917Y-91228343D01*
X164068907Y-91228340D01*
X163923920Y-91199500D01*
X163923918Y-91199500D01*
X163776082Y-91199500D01*
X163776080Y-91199500D01*
X163631092Y-91228340D01*
X163631082Y-91228343D01*
X163494511Y-91284912D01*
X163494498Y-91284919D01*
X163371584Y-91367048D01*
X163371580Y-91367051D01*
X163267051Y-91471580D01*
X163267048Y-91471584D01*
X163184919Y-91594498D01*
X163184912Y-91594511D01*
X163128343Y-91731082D01*
X163128340Y-91731092D01*
X163099500Y-91876079D01*
X163099500Y-91876082D01*
X163099500Y-92023918D01*
X163099500Y-92023920D01*
X163099499Y-92023920D01*
X159118207Y-92023920D01*
X160242809Y-90899319D01*
X160304132Y-90865834D01*
X160330490Y-90863000D01*
X172598652Y-90863000D01*
X172606269Y-90865236D01*
G37*
%TD.AperFunction*%
%TA.AperFunction,Conductor*%
G36*
X181572501Y-70045185D02*
G01*
X181618256Y-70097989D01*
X181629373Y-70144814D01*
X181859125Y-76220496D01*
X181841988Y-76288232D01*
X181790951Y-76335949D01*
X181722218Y-76348499D01*
X181711022Y-76346799D01*
X181598920Y-76324500D01*
X181598918Y-76324500D01*
X181451082Y-76324500D01*
X181451080Y-76324500D01*
X181306093Y-76353340D01*
X181306090Y-76353341D01*
X181306088Y-76353341D01*
X181306087Y-76353342D01*
X181284949Y-76362097D01*
X181215481Y-76369564D01*
X181190052Y-76362097D01*
X181168913Y-76353342D01*
X181168909Y-76353341D01*
X181168906Y-76353340D01*
X181023920Y-76324500D01*
X181023918Y-76324500D01*
X180876082Y-76324500D01*
X180876080Y-76324500D01*
X180731092Y-76353340D01*
X180731082Y-76353343D01*
X180594511Y-76409912D01*
X180594498Y-76409919D01*
X180471584Y-76492048D01*
X180471580Y-76492051D01*
X180367051Y-76596580D01*
X180367048Y-76596584D01*
X180284919Y-76719498D01*
X180284912Y-76719511D01*
X180228343Y-76856082D01*
X180228340Y-76856092D01*
X180199500Y-77001079D01*
X180199500Y-77001082D01*
X180199500Y-77148918D01*
X180199500Y-77148920D01*
X180199499Y-77148920D01*
X180228340Y-77293907D01*
X180228343Y-77293917D01*
X180284912Y-77430488D01*
X180284919Y-77430501D01*
X180367048Y-77553415D01*
X180367051Y-77553419D01*
X180471580Y-77657948D01*
X180471584Y-77657951D01*
X180594498Y-77740080D01*
X180594511Y-77740087D01*
X180709953Y-77787904D01*
X180731087Y-77796658D01*
X180731091Y-77796658D01*
X180731092Y-77796659D01*
X180876079Y-77825500D01*
X180876082Y-77825500D01*
X181023920Y-77825500D01*
X181121462Y-77806096D01*
X181168913Y-77796658D01*
X181190047Y-77787903D01*
X181259513Y-77780434D01*
X181284946Y-77787901D01*
X181306087Y-77796658D01*
X181306091Y-77796658D01*
X181306092Y-77796659D01*
X181451079Y-77825500D01*
X181451082Y-77825500D01*
X181598919Y-77825500D01*
X181671577Y-77811047D01*
X181741168Y-77817274D01*
X181796346Y-77860136D01*
X181819591Y-77926026D01*
X181803524Y-77994023D01*
X181783450Y-78020345D01*
X179554310Y-80249488D01*
X179449489Y-80354308D01*
X179449485Y-80354313D01*
X179375369Y-80482687D01*
X179375368Y-80482688D01*
X179358965Y-80543907D01*
X179337000Y-80625880D01*
X179337000Y-80625882D01*
X179337000Y-82558442D01*
X179317315Y-82625481D01*
X179264511Y-82671236D01*
X179214823Y-82682429D01*
X172701729Y-82778180D01*
X172738193Y-85269902D01*
X172719491Y-85337222D01*
X172667362Y-85383745D01*
X172598357Y-85394699D01*
X172534383Y-85366607D01*
X172526525Y-85359397D01*
X168889616Y-81722488D01*
X168889611Y-81722484D01*
X168760667Y-81648039D01*
X168760666Y-81648038D01*
X168724708Y-81638403D01*
X168616840Y-81609500D01*
X168616837Y-81609500D01*
X167120193Y-81609500D01*
X167053154Y-81589815D01*
X167007399Y-81537011D01*
X166996202Y-81486994D01*
X166983093Y-80398920D01*
X176099499Y-80398920D01*
X176128340Y-80543907D01*
X176128343Y-80543917D01*
X176184912Y-80680488D01*
X176184919Y-80680501D01*
X176267048Y-80803415D01*
X176267051Y-80803419D01*
X176371580Y-80907948D01*
X176371584Y-80907951D01*
X176494498Y-80990080D01*
X176494511Y-80990087D01*
X176587054Y-81028419D01*
X176631087Y-81046658D01*
X176631091Y-81046658D01*
X176631092Y-81046659D01*
X176776079Y-81075500D01*
X176776082Y-81075500D01*
X176923920Y-81075500D01*
X177026554Y-81055084D01*
X177068913Y-81046658D01*
X177196251Y-80993913D01*
X177205488Y-80990087D01*
X177205488Y-80990086D01*
X177205495Y-80990084D01*
X177328416Y-80907951D01*
X177432951Y-80803416D01*
X177515084Y-80680495D01*
X177571658Y-80543913D01*
X177590846Y-80447452D01*
X177600500Y-80398920D01*
X177600500Y-80251079D01*
X177571659Y-80106092D01*
X177571658Y-80106091D01*
X177571658Y-80106087D01*
X177568689Y-80098918D01*
X177515087Y-79969511D01*
X177515080Y-79969498D01*
X177432951Y-79846584D01*
X177432948Y-79846580D01*
X177328419Y-79742051D01*
X177328415Y-79742048D01*
X177205501Y-79659919D01*
X177205488Y-79659912D01*
X177068917Y-79603343D01*
X177068907Y-79603340D01*
X176923920Y-79574500D01*
X176923918Y-79574500D01*
X176776082Y-79574500D01*
X176776080Y-79574500D01*
X176631092Y-79603340D01*
X176631082Y-79603343D01*
X176494511Y-79659912D01*
X176494498Y-79659919D01*
X176371584Y-79742048D01*
X176371580Y-79742051D01*
X176267051Y-79846580D01*
X176267048Y-79846584D01*
X176184919Y-79969498D01*
X176184912Y-79969511D01*
X176128343Y-80106082D01*
X176128340Y-80106092D01*
X176099500Y-80251079D01*
X176099500Y-80251082D01*
X176099500Y-80398918D01*
X176099500Y-80398920D01*
X176099499Y-80398920D01*
X166983093Y-80398920D01*
X166961296Y-78589771D01*
X163611296Y-78539771D01*
X163611295Y-78539772D01*
X163645179Y-81419922D01*
X163626285Y-81487189D01*
X163574023Y-81533562D01*
X163504986Y-81544318D01*
X163452297Y-81524483D01*
X163430501Y-81509919D01*
X163430488Y-81509912D01*
X163293917Y-81453343D01*
X163293907Y-81453340D01*
X163148920Y-81424500D01*
X163148918Y-81424500D01*
X163001082Y-81424500D01*
X163001080Y-81424500D01*
X162856092Y-81453340D01*
X162856082Y-81453343D01*
X162719511Y-81509912D01*
X162719498Y-81509919D01*
X162596584Y-81592048D01*
X162596580Y-81592051D01*
X162492051Y-81696580D01*
X162492048Y-81696584D01*
X162409919Y-81819498D01*
X162409912Y-81819511D01*
X162353343Y-81956082D01*
X162353340Y-81956092D01*
X162324500Y-82101079D01*
X162324500Y-82101082D01*
X162324500Y-82248918D01*
X162324500Y-82248920D01*
X162324499Y-82248920D01*
X162353340Y-82393907D01*
X162353343Y-82393917D01*
X162409912Y-82530488D01*
X162409919Y-82530501D01*
X162492048Y-82653415D01*
X162492051Y-82653419D01*
X162596580Y-82757948D01*
X162596584Y-82757951D01*
X162719498Y-82840080D01*
X162719511Y-82840087D01*
X162840206Y-82890080D01*
X162856087Y-82896658D01*
X162856091Y-82896658D01*
X162856092Y-82896659D01*
X163001079Y-82925500D01*
X163001082Y-82925500D01*
X163148920Y-82925500D01*
X163260311Y-82903342D01*
X163293913Y-82896658D01*
X163430495Y-82840084D01*
X163514544Y-82783923D01*
X163581219Y-82763047D01*
X163648599Y-82781531D01*
X163659197Y-82789802D01*
X163661295Y-82789770D01*
X163661296Y-82789771D01*
X166961515Y-82740514D01*
X166963366Y-82740500D01*
X168256790Y-82740500D01*
X168323829Y-82760185D01*
X168344471Y-82776819D01*
X168680668Y-83113016D01*
X168685053Y-83121047D01*
X168692373Y-83126545D01*
X168701535Y-83151232D01*
X168714153Y-83174339D01*
X168713500Y-83183468D01*
X168716685Y-83192049D01*
X168711047Y-83217767D01*
X168709169Y-83244031D01*
X168703683Y-83251358D01*
X168701724Y-83260298D01*
X168683075Y-83278887D01*
X168667297Y-83299964D01*
X168657411Y-83304469D01*
X168652240Y-83309624D01*
X168633380Y-83315420D01*
X168619152Y-83321905D01*
X168607131Y-83324500D01*
X168601082Y-83324500D01*
X168456087Y-83353342D01*
X168437114Y-83361200D01*
X168426165Y-83363564D01*
X168402037Y-83361799D01*
X168377977Y-83364385D01*
X168358271Y-83358598D01*
X168356481Y-83358468D01*
X168355617Y-83357819D01*
X168352554Y-83356920D01*
X168343917Y-83353343D01*
X168343911Y-83353341D01*
X168198920Y-83324500D01*
X168198918Y-83324500D01*
X168051082Y-83324500D01*
X168051080Y-83324500D01*
X167906092Y-83353340D01*
X167906082Y-83353343D01*
X167769511Y-83409912D01*
X167769498Y-83409919D01*
X167646584Y-83492048D01*
X167646580Y-83492051D01*
X167542051Y-83596580D01*
X167542048Y-83596584D01*
X167459919Y-83719498D01*
X167459912Y-83719511D01*
X167403343Y-83856082D01*
X167403340Y-83856092D01*
X167374500Y-84001079D01*
X167374500Y-84035500D01*
X167354815Y-84102539D01*
X167302011Y-84148294D01*
X167250500Y-84159500D01*
X156488884Y-84159500D01*
X156421845Y-84139815D01*
X156376090Y-84087011D01*
X156367267Y-84059692D01*
X156346659Y-83956092D01*
X156346658Y-83956091D01*
X156346658Y-83956087D01*
X156336303Y-83931087D01*
X156290087Y-83819511D01*
X156290080Y-83819498D01*
X156207951Y-83696584D01*
X156207948Y-83696580D01*
X156103419Y-83592051D01*
X156103415Y-83592048D01*
X155980501Y-83509919D01*
X155980488Y-83509912D01*
X155843917Y-83453343D01*
X155843907Y-83453340D01*
X155698920Y-83424500D01*
X155698918Y-83424500D01*
X155551082Y-83424500D01*
X155551080Y-83424500D01*
X155406092Y-83453340D01*
X155406082Y-83453343D01*
X155269511Y-83509912D01*
X155269500Y-83509918D01*
X155187597Y-83564644D01*
X155120919Y-83585521D01*
X155053539Y-83567036D01*
X155049816Y-83564643D01*
X154930501Y-83484919D01*
X154930488Y-83484912D01*
X154793917Y-83428343D01*
X154793907Y-83428340D01*
X154648920Y-83399500D01*
X154648918Y-83399500D01*
X154501082Y-83399500D01*
X154501080Y-83399500D01*
X154356092Y-83428340D01*
X154356082Y-83428343D01*
X154219511Y-83484912D01*
X154219498Y-83484919D01*
X154096584Y-83567048D01*
X154096580Y-83567051D01*
X154087681Y-83575951D01*
X154026358Y-83609436D01*
X153956666Y-83604452D01*
X153912319Y-83575951D01*
X153903419Y-83567051D01*
X153903415Y-83567048D01*
X153780501Y-83484919D01*
X153780488Y-83484912D01*
X153643917Y-83428343D01*
X153643907Y-83428340D01*
X153498920Y-83399500D01*
X153498918Y-83399500D01*
X153351082Y-83399500D01*
X153351080Y-83399500D01*
X153206092Y-83428340D01*
X153206082Y-83428343D01*
X153069511Y-83484912D01*
X153069498Y-83484919D01*
X152946584Y-83567048D01*
X152946580Y-83567051D01*
X152842051Y-83671580D01*
X152781826Y-83761713D01*
X152728213Y-83806517D01*
X152658888Y-83815224D01*
X152595861Y-83785069D01*
X152583241Y-83771873D01*
X152478419Y-83667051D01*
X152478415Y-83667048D01*
X152355501Y-83584919D01*
X152355488Y-83584912D01*
X152218917Y-83528343D01*
X152218907Y-83528340D01*
X152073920Y-83499500D01*
X152073918Y-83499500D01*
X151926082Y-83499500D01*
X151926080Y-83499500D01*
X151781092Y-83528340D01*
X151781082Y-83528343D01*
X151644511Y-83584912D01*
X151644498Y-83584919D01*
X151521584Y-83667048D01*
X151521580Y-83667051D01*
X151417051Y-83771580D01*
X151417048Y-83771584D01*
X151334919Y-83894498D01*
X151334912Y-83894511D01*
X151278342Y-84031084D01*
X151278340Y-84031091D01*
X151272651Y-84059693D01*
X151240265Y-84121604D01*
X151179549Y-84156177D01*
X151151034Y-84159500D01*
X148985600Y-84159500D01*
X148956159Y-84150855D01*
X148926173Y-84144332D01*
X148921157Y-84140577D01*
X148918561Y-84139815D01*
X148897919Y-84123181D01*
X148860411Y-84085673D01*
X148828317Y-84030085D01*
X148818625Y-83993913D01*
X148801962Y-83931725D01*
X148751264Y-83843913D01*
X148727515Y-83802778D01*
X148727511Y-83802773D01*
X147857508Y-82932770D01*
X147824023Y-82871447D01*
X147829007Y-82801755D01*
X147870879Y-82745822D01*
X147936343Y-82721405D01*
X147943268Y-82721104D01*
X149916926Y-82691201D01*
X149975218Y-79598920D01*
X159374499Y-79598920D01*
X159403340Y-79743907D01*
X159403343Y-79743917D01*
X159459912Y-79880488D01*
X159459919Y-79880501D01*
X159542048Y-80003415D01*
X159542051Y-80003419D01*
X159646580Y-80107948D01*
X159646584Y-80107951D01*
X159769498Y-80190080D01*
X159769511Y-80190087D01*
X159906082Y-80246656D01*
X159906087Y-80246658D01*
X159906091Y-80246658D01*
X159906092Y-80246659D01*
X160051079Y-80275500D01*
X160051082Y-80275500D01*
X160198920Y-80275500D01*
X160296462Y-80256096D01*
X160343913Y-80246658D01*
X160430610Y-80210746D01*
X160500077Y-80203278D01*
X160562556Y-80234553D01*
X160598209Y-80294641D01*
X160599678Y-80349499D01*
X160574500Y-80476077D01*
X160574500Y-80476082D01*
X160574500Y-80623918D01*
X160574500Y-80623920D01*
X160574499Y-80623920D01*
X160603340Y-80768907D01*
X160603343Y-80768917D01*
X160659912Y-80905488D01*
X160659919Y-80905501D01*
X160742048Y-81028415D01*
X160742051Y-81028419D01*
X160846580Y-81132948D01*
X160846584Y-81132951D01*
X160969498Y-81215080D01*
X160969511Y-81215087D01*
X161106082Y-81271656D01*
X161106087Y-81271658D01*
X161106091Y-81271658D01*
X161106092Y-81271659D01*
X161251079Y-81300500D01*
X161251082Y-81300500D01*
X161398920Y-81300500D01*
X161496462Y-81281096D01*
X161543913Y-81271658D01*
X161680495Y-81215084D01*
X161803416Y-81132951D01*
X161907951Y-81028416D01*
X161990084Y-80905495D01*
X162046658Y-80768913D01*
X162064247Y-80680488D01*
X162075500Y-80623920D01*
X162075500Y-80476079D01*
X162046659Y-80331092D01*
X162046658Y-80331091D01*
X162046658Y-80331087D01*
X162023633Y-80275500D01*
X161990087Y-80194511D01*
X161990080Y-80194498D01*
X161907951Y-80071584D01*
X161907948Y-80071580D01*
X161803419Y-79967051D01*
X161803415Y-79967048D01*
X161680501Y-79884919D01*
X161680488Y-79884912D01*
X161543917Y-79828343D01*
X161543907Y-79828340D01*
X161398920Y-79799500D01*
X161398918Y-79799500D01*
X161251082Y-79799500D01*
X161251080Y-79799500D01*
X161106092Y-79828340D01*
X161106082Y-79828343D01*
X161019390Y-79864252D01*
X160949920Y-79871721D01*
X160887441Y-79840445D01*
X160851790Y-79780356D01*
X160850321Y-79725499D01*
X160875500Y-79598920D01*
X160875500Y-79451079D01*
X160846659Y-79306092D01*
X160846658Y-79306091D01*
X160846658Y-79306087D01*
X160833574Y-79274500D01*
X160790087Y-79169511D01*
X160790080Y-79169498D01*
X160707951Y-79046584D01*
X160707948Y-79046580D01*
X160603419Y-78942051D01*
X160603415Y-78942048D01*
X160480501Y-78859919D01*
X160480488Y-78859912D01*
X160343917Y-78803343D01*
X160343907Y-78803340D01*
X160198920Y-78774500D01*
X160198918Y-78774500D01*
X160051082Y-78774500D01*
X160051080Y-78774500D01*
X159906092Y-78803340D01*
X159906082Y-78803343D01*
X159769511Y-78859912D01*
X159769498Y-78859919D01*
X159646584Y-78942048D01*
X159646580Y-78942051D01*
X159542051Y-79046580D01*
X159542048Y-79046584D01*
X159459919Y-79169498D01*
X159459912Y-79169511D01*
X159403343Y-79306082D01*
X159403340Y-79306092D01*
X159374500Y-79451079D01*
X159374500Y-79451082D01*
X159374500Y-79598918D01*
X159374500Y-79598920D01*
X159374499Y-79598920D01*
X149975218Y-79598920D01*
X149994003Y-78602395D01*
X150014948Y-78535741D01*
X150068605Y-78490990D01*
X150137938Y-78482352D01*
X150165431Y-78490173D01*
X150181087Y-78496658D01*
X150181091Y-78496658D01*
X150181092Y-78496659D01*
X150326079Y-78525500D01*
X150326082Y-78525500D01*
X150473920Y-78525500D01*
X150571462Y-78506096D01*
X150618913Y-78496658D01*
X150746251Y-78443913D01*
X150755488Y-78440087D01*
X150755488Y-78440086D01*
X150755495Y-78440084D01*
X150878416Y-78357951D01*
X150982951Y-78253416D01*
X151065084Y-78130495D01*
X151070128Y-78118319D01*
X151110279Y-78021384D01*
X151121658Y-77993913D01*
X151135162Y-77926026D01*
X151150500Y-77848920D01*
X151150500Y-77701079D01*
X151121659Y-77556092D01*
X151121658Y-77556091D01*
X151121658Y-77556087D01*
X151120521Y-77553343D01*
X151065087Y-77419511D01*
X151065079Y-77419496D01*
X151040115Y-77382136D01*
X151019236Y-77315459D01*
X151037720Y-77248079D01*
X151089698Y-77201388D01*
X151158668Y-77190211D01*
X151212104Y-77210140D01*
X151219497Y-77215079D01*
X151219499Y-77215080D01*
X151219505Y-77215084D01*
X151219507Y-77215085D01*
X151219511Y-77215087D01*
X151299162Y-77248079D01*
X151356087Y-77271658D01*
X151356091Y-77271658D01*
X151356092Y-77271659D01*
X151501079Y-77300500D01*
X151501082Y-77300500D01*
X151648920Y-77300500D01*
X151754781Y-77279442D01*
X151793913Y-77271658D01*
X151930495Y-77215084D01*
X152053416Y-77132951D01*
X152053417Y-77132949D01*
X152057597Y-77130157D01*
X152124274Y-77109279D01*
X152173938Y-77118696D01*
X152181087Y-77121658D01*
X152181091Y-77121658D01*
X152181092Y-77121659D01*
X152326079Y-77150500D01*
X152326082Y-77150500D01*
X152473920Y-77150500D01*
X152604218Y-77124581D01*
X152618913Y-77121658D01*
X152746251Y-77068913D01*
X152755488Y-77065087D01*
X152755488Y-77065086D01*
X152755495Y-77065084D01*
X152878416Y-76982951D01*
X152982951Y-76878416D01*
X153065084Y-76755495D01*
X153121658Y-76618913D01*
X153136459Y-76544505D01*
X153150500Y-76473920D01*
X153150500Y-76326079D01*
X153121659Y-76181092D01*
X153121658Y-76181091D01*
X153121658Y-76181087D01*
X153115029Y-76165083D01*
X153065087Y-76044511D01*
X153065080Y-76044498D01*
X152982951Y-75921584D01*
X152982948Y-75921580D01*
X152878419Y-75817051D01*
X152878415Y-75817048D01*
X152755501Y-75734919D01*
X152755488Y-75734912D01*
X152618917Y-75678343D01*
X152618907Y-75678340D01*
X152473920Y-75649500D01*
X152473918Y-75649500D01*
X152326082Y-75649500D01*
X152326080Y-75649500D01*
X152181092Y-75678340D01*
X152181082Y-75678343D01*
X152044511Y-75734912D01*
X152044498Y-75734919D01*
X151917402Y-75819843D01*
X151850724Y-75840721D01*
X151801057Y-75831301D01*
X151798195Y-75830115D01*
X151793914Y-75828342D01*
X151793907Y-75828340D01*
X151648920Y-75799500D01*
X151648918Y-75799500D01*
X151501082Y-75799500D01*
X151501080Y-75799500D01*
X151356092Y-75828340D01*
X151356082Y-75828343D01*
X151219511Y-75884912D01*
X151219498Y-75884919D01*
X151096584Y-75967048D01*
X151096580Y-75967051D01*
X150992051Y-76071580D01*
X150992048Y-76071584D01*
X150909919Y-76194498D01*
X150907046Y-76199875D01*
X150905789Y-76199203D01*
X150866428Y-76248040D01*
X150800133Y-76270100D01*
X150732435Y-76252816D01*
X150726825Y-76249281D01*
X150630501Y-76184919D01*
X150630488Y-76184912D01*
X150493917Y-76128343D01*
X150493907Y-76128340D01*
X150348920Y-76099500D01*
X150348918Y-76099500D01*
X150201082Y-76099500D01*
X150201080Y-76099500D01*
X150056092Y-76128340D01*
X150056082Y-76128343D01*
X149919511Y-76184912D01*
X149919498Y-76184919D01*
X149796584Y-76267048D01*
X149796580Y-76267051D01*
X149692051Y-76371580D01*
X149692048Y-76371584D01*
X149609919Y-76494498D01*
X149609912Y-76494511D01*
X149553343Y-76631082D01*
X149553340Y-76631092D01*
X149524500Y-76776079D01*
X149524500Y-76776082D01*
X149524500Y-76923918D01*
X149524500Y-76923920D01*
X149524499Y-76923920D01*
X149553340Y-77068907D01*
X149553343Y-77068917D01*
X149609912Y-77205488D01*
X149609919Y-77205501D01*
X149692048Y-77328415D01*
X149695914Y-77333126D01*
X149694520Y-77334269D01*
X149723937Y-77388143D01*
X149718953Y-77457835D01*
X149717333Y-77461952D01*
X149678342Y-77556087D01*
X149678340Y-77556092D01*
X149649500Y-77701079D01*
X149649500Y-77701082D01*
X149649500Y-77848918D01*
X149649500Y-77848920D01*
X149649499Y-77848920D01*
X149678340Y-77993907D01*
X149678343Y-77993917D01*
X149729872Y-78118319D01*
X149737341Y-78187788D01*
X149706066Y-78250267D01*
X149645977Y-78285919D01*
X149615311Y-78289771D01*
X146885296Y-78289771D01*
X146818257Y-78270086D01*
X146772502Y-78217282D01*
X146761296Y-78165771D01*
X146761296Y-75323920D01*
X159799499Y-75323920D01*
X159828340Y-75468907D01*
X159828343Y-75468917D01*
X159884912Y-75605488D01*
X159884919Y-75605501D01*
X159967048Y-75728415D01*
X159967051Y-75728419D01*
X160071580Y-75832948D01*
X160071584Y-75832951D01*
X160194498Y-75915080D01*
X160194511Y-75915087D01*
X160331082Y-75971656D01*
X160331087Y-75971658D01*
X160331091Y-75971658D01*
X160331092Y-75971659D01*
X160476079Y-76000500D01*
X160476082Y-76000500D01*
X160623914Y-76000500D01*
X160623918Y-76000500D01*
X160623921Y-76000499D01*
X160627678Y-76000129D01*
X160629635Y-76000500D01*
X160630010Y-76000500D01*
X160630010Y-76000571D01*
X160696325Y-76013143D01*
X160747039Y-76061204D01*
X160763718Y-76129054D01*
X160741067Y-76195150D01*
X160698302Y-76232885D01*
X160694508Y-76234913D01*
X160571584Y-76317048D01*
X160571580Y-76317051D01*
X160467051Y-76421580D01*
X160467048Y-76421584D01*
X160384919Y-76544498D01*
X160384912Y-76544511D01*
X160328343Y-76681082D01*
X160328340Y-76681092D01*
X160299500Y-76826079D01*
X160299500Y-76826082D01*
X160299500Y-76973918D01*
X160299500Y-76973920D01*
X160299499Y-76973920D01*
X160328340Y-77118907D01*
X160328343Y-77118917D01*
X160384912Y-77255488D01*
X160384919Y-77255501D01*
X160467048Y-77378415D01*
X160467051Y-77378419D01*
X160571580Y-77482948D01*
X160571584Y-77482951D01*
X160694498Y-77565080D01*
X160694511Y-77565087D01*
X160831082Y-77621656D01*
X160831087Y-77621658D01*
X160831091Y-77621658D01*
X160831092Y-77621659D01*
X160976079Y-77650500D01*
X160976082Y-77650500D01*
X161123920Y-77650500D01*
X161221462Y-77631096D01*
X161268913Y-77621658D01*
X161405495Y-77565084D01*
X161528416Y-77482951D01*
X161632951Y-77378416D01*
X161715084Y-77255495D01*
X161759229Y-77148920D01*
X166399499Y-77148920D01*
X166428340Y-77293907D01*
X166428343Y-77293917D01*
X166484912Y-77430488D01*
X166484919Y-77430501D01*
X166567048Y-77553415D01*
X166567051Y-77553419D01*
X166671580Y-77657948D01*
X166671584Y-77657951D01*
X166794498Y-77740080D01*
X166794511Y-77740087D01*
X166909953Y-77787904D01*
X166931087Y-77796658D01*
X166931091Y-77796658D01*
X166931092Y-77796659D01*
X167076079Y-77825500D01*
X167076082Y-77825500D01*
X167223919Y-77825500D01*
X167237843Y-77822730D01*
X167246193Y-77821069D01*
X167315784Y-77827295D01*
X167370962Y-77870157D01*
X167394208Y-77936047D01*
X167384949Y-77990134D01*
X167378343Y-78006083D01*
X167378340Y-78006092D01*
X167349500Y-78151079D01*
X167349500Y-78151082D01*
X167349500Y-78298918D01*
X167349500Y-78298920D01*
X167349499Y-78298920D01*
X167378340Y-78443907D01*
X167378343Y-78443917D01*
X167434912Y-78580488D01*
X167434919Y-78580501D01*
X167517048Y-78703415D01*
X167517051Y-78703419D01*
X167621580Y-78807948D01*
X167621584Y-78807951D01*
X167744498Y-78890080D01*
X167744511Y-78890087D01*
X167881082Y-78946656D01*
X167881087Y-78946658D01*
X167881091Y-78946658D01*
X167881092Y-78946659D01*
X168026079Y-78975500D01*
X168026082Y-78975500D01*
X168173920Y-78975500D01*
X168271462Y-78956096D01*
X168318913Y-78946658D01*
X168455495Y-78890084D01*
X168578416Y-78807951D01*
X168682951Y-78703416D01*
X168765084Y-78580495D01*
X168821658Y-78443913D01*
X168850500Y-78298918D01*
X168850500Y-78151082D01*
X168850500Y-78151079D01*
X168821659Y-78006092D01*
X168821658Y-78006091D01*
X168821658Y-78006087D01*
X168768684Y-77878195D01*
X168765087Y-77869511D01*
X168765080Y-77869498D01*
X168682951Y-77746584D01*
X168682948Y-77746580D01*
X168578419Y-77642051D01*
X168578415Y-77642048D01*
X168479593Y-77576017D01*
X168434788Y-77522405D01*
X168426081Y-77453080D01*
X168456236Y-77390052D01*
X168501032Y-77358354D01*
X168605488Y-77315087D01*
X168605488Y-77315086D01*
X168605495Y-77315084D01*
X168728416Y-77232951D01*
X168832951Y-77128416D01*
X168832957Y-77128406D01*
X168836097Y-77124581D01*
X168893838Y-77085239D01*
X168956152Y-77081617D01*
X169051079Y-77100500D01*
X169051082Y-77100500D01*
X169198920Y-77100500D01*
X169296462Y-77081096D01*
X169343913Y-77071658D01*
X169480495Y-77015084D01*
X169603416Y-76932951D01*
X169707951Y-76828416D01*
X169790084Y-76705495D01*
X169846658Y-76568913D01*
X169861459Y-76494505D01*
X169875500Y-76423920D01*
X169875500Y-76276079D01*
X169846659Y-76131092D01*
X169846658Y-76131091D01*
X169846658Y-76131087D01*
X169845520Y-76128340D01*
X169790087Y-75994511D01*
X169790080Y-75994498D01*
X169707951Y-75871584D01*
X169707948Y-75871580D01*
X169603419Y-75767051D01*
X169603415Y-75767048D01*
X169480501Y-75684919D01*
X169480488Y-75684912D01*
X169343917Y-75628343D01*
X169343907Y-75628340D01*
X169198920Y-75599500D01*
X169198918Y-75599500D01*
X169051082Y-75599500D01*
X169051080Y-75599500D01*
X168906092Y-75628340D01*
X168906082Y-75628343D01*
X168769511Y-75684912D01*
X168769498Y-75684919D01*
X168646584Y-75767048D01*
X168646580Y-75767051D01*
X168542050Y-75871581D01*
X168538892Y-75875430D01*
X168481146Y-75914764D01*
X168418848Y-75918382D01*
X168323922Y-75899500D01*
X168323918Y-75899500D01*
X168176082Y-75899500D01*
X168176080Y-75899500D01*
X168031092Y-75928340D01*
X168031082Y-75928343D01*
X167894511Y-75984912D01*
X167894498Y-75984919D01*
X167771584Y-76067048D01*
X167771580Y-76067051D01*
X167667051Y-76171580D01*
X167667048Y-76171584D01*
X167584919Y-76294498D01*
X167584914Y-76294507D01*
X167579932Y-76306536D01*
X167536089Y-76360938D01*
X167469794Y-76383001D01*
X167417920Y-76373641D01*
X167368917Y-76353343D01*
X167368907Y-76353340D01*
X167223920Y-76324500D01*
X167223918Y-76324500D01*
X167076082Y-76324500D01*
X167076080Y-76324500D01*
X166931092Y-76353340D01*
X166931082Y-76353343D01*
X166794511Y-76409912D01*
X166794498Y-76409919D01*
X166671584Y-76492048D01*
X166671580Y-76492051D01*
X166567051Y-76596580D01*
X166567048Y-76596584D01*
X166484919Y-76719498D01*
X166484912Y-76719511D01*
X166428343Y-76856082D01*
X166428340Y-76856092D01*
X166399500Y-77001079D01*
X166399500Y-77001082D01*
X166399500Y-77148918D01*
X166399500Y-77148920D01*
X166399499Y-77148920D01*
X161759229Y-77148920D01*
X161771658Y-77118913D01*
X161800500Y-76973918D01*
X161800500Y-76826082D01*
X161800500Y-76826079D01*
X161771659Y-76681092D01*
X161771658Y-76681091D01*
X161771658Y-76681087D01*
X161753811Y-76638000D01*
X161715087Y-76544511D01*
X161715080Y-76544498D01*
X161632951Y-76421584D01*
X161632948Y-76421580D01*
X161528419Y-76317051D01*
X161528415Y-76317048D01*
X161405501Y-76234919D01*
X161405488Y-76234912D01*
X161268917Y-76178343D01*
X161268907Y-76178340D01*
X161123920Y-76149500D01*
X161123918Y-76149500D01*
X160976082Y-76149500D01*
X160976076Y-76149500D01*
X160972308Y-76149871D01*
X160970352Y-76149500D01*
X160969990Y-76149500D01*
X160969990Y-76149431D01*
X160903662Y-76136850D01*
X160852953Y-76088783D01*
X160836282Y-76020932D01*
X160858940Y-75954838D01*
X160901712Y-75917106D01*
X160905491Y-75915085D01*
X160905495Y-75915084D01*
X161028416Y-75832951D01*
X161132951Y-75728416D01*
X161151138Y-75701197D01*
X161164258Y-75681562D01*
X161217870Y-75636756D01*
X161219907Y-75635891D01*
X161293306Y-75605488D01*
X161330495Y-75590084D01*
X161453416Y-75507951D01*
X161557951Y-75403416D01*
X161640084Y-75280495D01*
X161696658Y-75143913D01*
X161719102Y-75031082D01*
X161725500Y-74998920D01*
X161725500Y-74851079D01*
X161696659Y-74706092D01*
X161696658Y-74706091D01*
X161696658Y-74706087D01*
X161678020Y-74661090D01*
X161640087Y-74569511D01*
X161640080Y-74569498D01*
X161557951Y-74446584D01*
X161557948Y-74446580D01*
X161453419Y-74342051D01*
X161453415Y-74342048D01*
X161351455Y-74273920D01*
X178899499Y-74273920D01*
X178928340Y-74418907D01*
X178928343Y-74418917D01*
X178984912Y-74555488D01*
X178984919Y-74555501D01*
X179067048Y-74678415D01*
X179067051Y-74678419D01*
X179171580Y-74782948D01*
X179171584Y-74782951D01*
X179294498Y-74865080D01*
X179294511Y-74865087D01*
X179431082Y-74921656D01*
X179431087Y-74921658D01*
X179431091Y-74921658D01*
X179431092Y-74921659D01*
X179576079Y-74950500D01*
X179576082Y-74950500D01*
X179723920Y-74950500D01*
X179821462Y-74931096D01*
X179868913Y-74921658D01*
X180005495Y-74865084D01*
X180128416Y-74782951D01*
X180232951Y-74678416D01*
X180315084Y-74555495D01*
X180371658Y-74418913D01*
X180388366Y-74334919D01*
X180400500Y-74273920D01*
X180400500Y-74126079D01*
X180371659Y-73981092D01*
X180371658Y-73981091D01*
X180371658Y-73981087D01*
X180371656Y-73981082D01*
X180315087Y-73844511D01*
X180315080Y-73844498D01*
X180232951Y-73721584D01*
X180232948Y-73721580D01*
X180128419Y-73617051D01*
X180128415Y-73617048D01*
X180005501Y-73534919D01*
X180005488Y-73534912D01*
X179868917Y-73478343D01*
X179868907Y-73478340D01*
X179723920Y-73449500D01*
X179723918Y-73449500D01*
X179576082Y-73449500D01*
X179576080Y-73449500D01*
X179431092Y-73478340D01*
X179431082Y-73478343D01*
X179294511Y-73534912D01*
X179294498Y-73534919D01*
X179171584Y-73617048D01*
X179171580Y-73617051D01*
X179067051Y-73721580D01*
X179067048Y-73721584D01*
X178984919Y-73844498D01*
X178984912Y-73844511D01*
X178928343Y-73981082D01*
X178928340Y-73981092D01*
X178899500Y-74126079D01*
X178899500Y-74126082D01*
X178899500Y-74273918D01*
X178899500Y-74273920D01*
X178899499Y-74273920D01*
X161351455Y-74273920D01*
X161330501Y-74259919D01*
X161330488Y-74259912D01*
X161269259Y-74234551D01*
X161269258Y-74234551D01*
X161257066Y-74229501D01*
X161193913Y-74203342D01*
X161193907Y-74203340D01*
X161048920Y-74174500D01*
X161048918Y-74174500D01*
X160901082Y-74174500D01*
X160901080Y-74174500D01*
X160756092Y-74203340D01*
X160756082Y-74203343D01*
X160619511Y-74259912D01*
X160619498Y-74259919D01*
X160496584Y-74342048D01*
X160496580Y-74342051D01*
X160392055Y-74446577D01*
X160392050Y-74446582D01*
X160360738Y-74493442D01*
X160307125Y-74538245D01*
X160305091Y-74539109D01*
X160194508Y-74584914D01*
X160194498Y-74584919D01*
X160071584Y-74667048D01*
X160071580Y-74667051D01*
X159967051Y-74771580D01*
X159967048Y-74771584D01*
X159884919Y-74894498D01*
X159884912Y-74894511D01*
X159828343Y-75031082D01*
X159828340Y-75031092D01*
X159799500Y-75176079D01*
X159799500Y-75176082D01*
X159799500Y-75323918D01*
X159799500Y-75323920D01*
X159799499Y-75323920D01*
X146761296Y-75323920D01*
X146761296Y-70149500D01*
X146780981Y-70082461D01*
X146833785Y-70036706D01*
X146885296Y-70025500D01*
X163940881Y-70025500D01*
X181505462Y-70025500D01*
X181572501Y-70045185D01*
G37*
%TD.AperFunction*%
%TA.AperFunction,Conductor*%
G36*
X146694895Y-70045185D02*
G01*
X146740650Y-70097989D01*
X146751855Y-70149352D01*
X146759601Y-76828415D01*
X146761295Y-78289023D01*
X146761287Y-78290560D01*
X146726513Y-81385350D01*
X146706077Y-81452164D01*
X146652762Y-81497323D01*
X146583496Y-81506489D01*
X146574887Y-81504525D01*
X146574887Y-81504530D01*
X146423920Y-81474500D01*
X146423918Y-81474500D01*
X146276082Y-81474500D01*
X146276080Y-81474500D01*
X146131092Y-81503340D01*
X146131082Y-81503343D01*
X145994511Y-81559912D01*
X145994498Y-81559919D01*
X145871584Y-81642048D01*
X145871580Y-81642051D01*
X145767051Y-81746580D01*
X145767048Y-81746584D01*
X145684919Y-81869498D01*
X145684912Y-81869511D01*
X145628343Y-82006082D01*
X145628340Y-82006092D01*
X145599500Y-82151079D01*
X145599500Y-82151082D01*
X145599500Y-82298918D01*
X145599500Y-82298920D01*
X145599499Y-82298920D01*
X145628340Y-82443907D01*
X145628343Y-82443917D01*
X145684912Y-82580488D01*
X145684919Y-82580501D01*
X145767048Y-82703415D01*
X145767051Y-82703419D01*
X145871580Y-82807948D01*
X145871584Y-82807951D01*
X145994498Y-82890080D01*
X145994511Y-82890087D01*
X146097558Y-82932770D01*
X146131087Y-82946658D01*
X146131091Y-82946658D01*
X146131092Y-82946659D01*
X146269999Y-82974290D01*
X146331909Y-83006675D01*
X146333488Y-83008226D01*
X147215487Y-83890225D01*
X147248972Y-83951548D01*
X147243988Y-84021240D01*
X147202116Y-84077173D01*
X147136652Y-84101590D01*
X147128635Y-84101903D01*
X133250329Y-84194735D01*
X133183160Y-84175500D01*
X133137053Y-84123003D01*
X133125500Y-84070738D01*
X133125500Y-79492135D01*
X135849852Y-79492135D01*
X135849852Y-81107870D01*
X135849853Y-81107876D01*
X135856260Y-81167483D01*
X135906554Y-81302328D01*
X135906558Y-81302335D01*
X135992804Y-81417544D01*
X135992807Y-81417547D01*
X136108016Y-81503793D01*
X136108023Y-81503797D01*
X136242869Y-81554091D01*
X136242868Y-81554091D01*
X136249796Y-81554835D01*
X136302479Y-81560500D01*
X137393256Y-81560499D01*
X137460295Y-81580184D01*
X137506050Y-81632987D01*
X137507817Y-81637046D01*
X137565090Y-81775315D01*
X137565095Y-81775325D01*
X137647224Y-81898239D01*
X137647227Y-81898243D01*
X137751756Y-82002772D01*
X137751760Y-82002775D01*
X137874674Y-82084904D01*
X137874683Y-82084909D01*
X137997224Y-82135667D01*
X138051627Y-82179508D01*
X138064332Y-82202775D01*
X138115090Y-82325315D01*
X138115095Y-82325325D01*
X138197224Y-82448239D01*
X138197227Y-82448243D01*
X138301756Y-82552772D01*
X138301760Y-82552775D01*
X138424674Y-82634904D01*
X138424687Y-82634911D01*
X138561258Y-82691480D01*
X138561263Y-82691482D01*
X138581970Y-82695601D01*
X138643881Y-82727983D01*
X138678457Y-82788698D01*
X138679398Y-82793027D01*
X138683516Y-82813729D01*
X138683519Y-82813741D01*
X138740088Y-82950312D01*
X138740095Y-82950325D01*
X138822224Y-83073239D01*
X138822227Y-83073243D01*
X138926756Y-83177772D01*
X138926760Y-83177775D01*
X139049674Y-83259904D01*
X139049687Y-83259911D01*
X139157261Y-83304469D01*
X139186263Y-83316482D01*
X139186267Y-83316482D01*
X139186268Y-83316483D01*
X139331255Y-83345324D01*
X139331258Y-83345324D01*
X139479096Y-83345324D01*
X139596826Y-83321905D01*
X139624089Y-83316482D01*
X139737502Y-83269505D01*
X139760664Y-83259911D01*
X139760664Y-83259910D01*
X139760671Y-83259908D01*
X139883592Y-83177775D01*
X139988127Y-83073240D01*
X140070260Y-82950319D01*
X140071777Y-82946658D01*
X140115919Y-82840087D01*
X140126834Y-82813737D01*
X140137931Y-82757948D01*
X140155676Y-82668744D01*
X140155676Y-82520903D01*
X140126835Y-82375916D01*
X140126834Y-82375915D01*
X140126834Y-82375911D01*
X140105878Y-82325319D01*
X140070263Y-82239335D01*
X140070256Y-82239322D01*
X139988127Y-82116408D01*
X139988124Y-82116404D01*
X139883595Y-82011875D01*
X139883591Y-82011872D01*
X139760677Y-81929743D01*
X139760664Y-81929736D01*
X139624093Y-81873167D01*
X139624081Y-81873164D01*
X139603379Y-81869046D01*
X139541468Y-81836661D01*
X139506894Y-81775945D01*
X139505959Y-81771650D01*
X139501834Y-81750911D01*
X139492888Y-81729313D01*
X139445263Y-81614335D01*
X139445256Y-81614322D01*
X139363127Y-81491408D01*
X139363124Y-81491404D01*
X139323901Y-81452181D01*
X139290416Y-81390858D01*
X139295400Y-81321166D01*
X139337272Y-81265233D01*
X139402736Y-81240816D01*
X139411582Y-81240500D01*
X139423920Y-81240500D01*
X139521462Y-81221096D01*
X139568913Y-81211658D01*
X139677548Y-81166659D01*
X139747016Y-81159191D01*
X139772449Y-81166658D01*
X139881087Y-81211658D01*
X139881091Y-81211658D01*
X139881092Y-81211659D01*
X140026079Y-81240500D01*
X140026082Y-81240500D01*
X140173920Y-81240500D01*
X140271462Y-81221096D01*
X140318913Y-81211658D01*
X140455495Y-81155084D01*
X140578416Y-81072951D01*
X140682951Y-80968416D01*
X140765084Y-80845495D01*
X140821658Y-80708913D01*
X140844533Y-80593917D01*
X140850500Y-80563920D01*
X140850500Y-80416079D01*
X140821659Y-80271092D01*
X140821658Y-80271091D01*
X140821658Y-80271087D01*
X140813372Y-80251082D01*
X140765087Y-80134511D01*
X140765080Y-80134498D01*
X140682951Y-80011584D01*
X140682948Y-80011580D01*
X140578419Y-79907051D01*
X140578415Y-79907048D01*
X140455501Y-79824919D01*
X140455488Y-79824912D01*
X140318917Y-79768343D01*
X140318907Y-79768340D01*
X140173920Y-79739500D01*
X140173918Y-79739500D01*
X140026082Y-79739500D01*
X140026080Y-79739500D01*
X139881092Y-79768340D01*
X139881082Y-79768343D01*
X139772452Y-79813339D01*
X139702983Y-79820808D01*
X139677548Y-79813339D01*
X139568917Y-79768343D01*
X139568907Y-79768340D01*
X139423920Y-79739500D01*
X139423918Y-79739500D01*
X139276082Y-79739500D01*
X139276080Y-79739500D01*
X139131093Y-79768340D01*
X139131085Y-79768342D01*
X139072452Y-79792629D01*
X139002982Y-79800098D01*
X138977548Y-79792629D01*
X138918914Y-79768342D01*
X138918906Y-79768340D01*
X138773920Y-79739500D01*
X138773918Y-79739500D01*
X138626082Y-79739500D01*
X138626079Y-79739500D01*
X138519042Y-79760791D01*
X138449451Y-79754564D01*
X138394273Y-79711701D01*
X138371029Y-79645811D01*
X138370851Y-79639174D01*
X138370851Y-79492129D01*
X138370850Y-79492123D01*
X138370849Y-79492116D01*
X138364443Y-79432517D01*
X138316264Y-79303343D01*
X138314149Y-79297671D01*
X138314145Y-79297664D01*
X138266426Y-79233920D01*
X142229499Y-79233920D01*
X142258340Y-79378907D01*
X142258343Y-79378917D01*
X142314912Y-79515488D01*
X142314919Y-79515501D01*
X142397048Y-79638415D01*
X142397051Y-79638419D01*
X142501580Y-79742948D01*
X142501584Y-79742951D01*
X142624498Y-79825080D01*
X142624511Y-79825087D01*
X142719065Y-79864252D01*
X142761087Y-79881658D01*
X142761091Y-79881658D01*
X142761092Y-79881659D01*
X142906079Y-79910500D01*
X142906082Y-79910500D01*
X143053917Y-79910500D01*
X143053918Y-79910500D01*
X143076307Y-79906046D01*
X143145897Y-79912272D01*
X143201076Y-79955133D01*
X143224322Y-80021022D01*
X143224500Y-80027663D01*
X143224500Y-80098918D01*
X143224500Y-80098920D01*
X143224499Y-80098920D01*
X143253340Y-80243907D01*
X143253343Y-80243917D01*
X143298339Y-80352548D01*
X143305808Y-80422017D01*
X143298339Y-80447452D01*
X143253343Y-80556082D01*
X143253340Y-80556092D01*
X143224500Y-80701079D01*
X143224500Y-80701082D01*
X143224500Y-80848918D01*
X143224500Y-80848920D01*
X143224499Y-80848920D01*
X143253340Y-80993907D01*
X143253343Y-80993917D01*
X143309912Y-81130488D01*
X143309919Y-81130501D01*
X143392048Y-81253415D01*
X143392051Y-81253419D01*
X143496580Y-81357948D01*
X143496584Y-81357951D01*
X143619498Y-81440080D01*
X143619511Y-81440087D01*
X143743412Y-81491408D01*
X143756087Y-81496658D01*
X143756091Y-81496658D01*
X143756092Y-81496659D01*
X143901079Y-81525500D01*
X143901082Y-81525500D01*
X144048920Y-81525500D01*
X144154364Y-81504525D01*
X144193913Y-81496658D01*
X144330495Y-81440084D01*
X144453416Y-81357951D01*
X144557951Y-81253416D01*
X144621710Y-81157993D01*
X144675319Y-81113191D01*
X144700612Y-81105270D01*
X144743913Y-81096658D01*
X144880495Y-81040084D01*
X145003416Y-80957951D01*
X145107951Y-80853416D01*
X145190084Y-80730495D01*
X145246658Y-80593913D01*
X145275500Y-80448918D01*
X145275500Y-80301082D01*
X145275500Y-80301079D01*
X145246659Y-80156092D01*
X145246658Y-80156091D01*
X145246658Y-80156087D01*
X145237721Y-80134511D01*
X145190087Y-80019511D01*
X145190080Y-80019498D01*
X145107951Y-79896584D01*
X145107948Y-79896580D01*
X145003419Y-79792051D01*
X145003415Y-79792048D01*
X144880501Y-79709919D01*
X144880488Y-79709912D01*
X144743917Y-79653343D01*
X144743907Y-79653340D01*
X144662088Y-79637065D01*
X144600177Y-79604680D01*
X144583177Y-79584338D01*
X144557949Y-79546581D01*
X144453419Y-79442051D01*
X144453415Y-79442048D01*
X144330501Y-79359919D01*
X144330488Y-79359912D01*
X144193917Y-79303343D01*
X144193907Y-79303340D01*
X144048920Y-79274500D01*
X144048918Y-79274500D01*
X143901082Y-79274500D01*
X143901077Y-79274500D01*
X143878691Y-79278953D01*
X143809099Y-79272726D01*
X143753922Y-79229862D01*
X143730678Y-79163972D01*
X143730500Y-79157336D01*
X143730500Y-79086079D01*
X143701659Y-78941092D01*
X143701658Y-78941091D01*
X143701658Y-78941087D01*
X143680530Y-78890080D01*
X143645087Y-78804511D01*
X143645080Y-78804498D01*
X143562951Y-78681584D01*
X143562948Y-78681580D01*
X143458419Y-78577051D01*
X143458415Y-78577048D01*
X143335501Y-78494919D01*
X143335488Y-78494912D01*
X143198917Y-78438343D01*
X143198907Y-78438340D01*
X143053920Y-78409500D01*
X143053918Y-78409500D01*
X142906082Y-78409500D01*
X142906080Y-78409500D01*
X142761092Y-78438340D01*
X142761082Y-78438343D01*
X142624511Y-78494912D01*
X142624498Y-78494919D01*
X142501584Y-78577048D01*
X142501580Y-78577051D01*
X142397051Y-78681580D01*
X142397048Y-78681584D01*
X142314919Y-78804498D01*
X142314912Y-78804511D01*
X142258343Y-78941082D01*
X142258340Y-78941092D01*
X142229500Y-79086079D01*
X142229500Y-79086082D01*
X142229500Y-79233918D01*
X142229500Y-79233920D01*
X142229499Y-79233920D01*
X138266426Y-79233920D01*
X138227899Y-79182455D01*
X138227897Y-79182453D01*
X138223636Y-79179263D01*
X138223627Y-79179257D01*
X138112682Y-79096203D01*
X138112680Y-79096202D01*
X137977834Y-79045908D01*
X137977835Y-79045908D01*
X137918235Y-79039501D01*
X137918233Y-79039500D01*
X137918225Y-79039500D01*
X137918216Y-79039500D01*
X136302481Y-79039500D01*
X136302475Y-79039501D01*
X136242868Y-79045908D01*
X136108023Y-79096202D01*
X136108016Y-79096206D01*
X135992807Y-79182452D01*
X135992804Y-79182455D01*
X135906558Y-79297664D01*
X135906554Y-79297671D01*
X135856260Y-79432517D01*
X135849853Y-79492116D01*
X135849853Y-79492123D01*
X135849852Y-79492135D01*
X133125500Y-79492135D01*
X133125500Y-75865259D01*
X135359852Y-75865259D01*
X135359852Y-76094742D01*
X135379370Y-76242988D01*
X135389804Y-76322239D01*
X135435960Y-76494498D01*
X135449194Y-76543888D01*
X135537002Y-76755877D01*
X135537008Y-76755889D01*
X135639234Y-76932951D01*
X135651744Y-76954618D01*
X135791433Y-77136662D01*
X135791441Y-77136671D01*
X135953682Y-77298912D01*
X135953690Y-77298919D01*
X136135734Y-77438608D01*
X136135737Y-77438609D01*
X136135740Y-77438612D01*
X136334464Y-77553345D01*
X136334469Y-77553347D01*
X136334475Y-77553350D01*
X136415147Y-77586765D01*
X136546465Y-77641159D01*
X136768114Y-77700549D01*
X136995618Y-77730501D01*
X136995625Y-77730501D01*
X137225079Y-77730501D01*
X137225086Y-77730501D01*
X137452590Y-77700549D01*
X137674239Y-77641159D01*
X137886240Y-77553345D01*
X138084964Y-77438612D01*
X138267013Y-77298920D01*
X138267017Y-77298915D01*
X138267022Y-77298912D01*
X138429263Y-77136671D01*
X138429266Y-77136666D01*
X138429271Y-77136662D01*
X138568963Y-76954613D01*
X138586684Y-76923920D01*
X143549499Y-76923920D01*
X143578340Y-77068907D01*
X143578343Y-77068917D01*
X143634912Y-77205488D01*
X143634919Y-77205501D01*
X143717048Y-77328415D01*
X143717051Y-77328419D01*
X143821580Y-77432948D01*
X143821584Y-77432951D01*
X143944498Y-77515080D01*
X143944511Y-77515087D01*
X144037054Y-77553419D01*
X144081087Y-77571658D01*
X144081091Y-77571658D01*
X144081092Y-77571659D01*
X144226079Y-77600500D01*
X144226082Y-77600500D01*
X144373920Y-77600500D01*
X144496999Y-77576017D01*
X144518913Y-77571658D01*
X144655495Y-77515084D01*
X144778416Y-77432951D01*
X144882951Y-77328416D01*
X144965084Y-77205495D01*
X145021658Y-77068913D01*
X145042254Y-76965373D01*
X145050500Y-76923920D01*
X145050500Y-76776079D01*
X145021659Y-76631092D01*
X145021658Y-76631091D01*
X145021658Y-76631087D01*
X145012574Y-76609156D01*
X144965087Y-76494511D01*
X144965080Y-76494498D01*
X144882951Y-76371584D01*
X144882948Y-76371580D01*
X144778419Y-76267051D01*
X144778415Y-76267048D01*
X144655501Y-76184919D01*
X144655488Y-76184912D01*
X144518917Y-76128343D01*
X144518907Y-76128340D01*
X144373920Y-76099500D01*
X144373918Y-76099500D01*
X144226082Y-76099500D01*
X144226080Y-76099500D01*
X144081092Y-76128340D01*
X144081082Y-76128343D01*
X143944511Y-76184912D01*
X143944498Y-76184919D01*
X143821584Y-76267048D01*
X143821580Y-76267051D01*
X143717051Y-76371580D01*
X143717048Y-76371584D01*
X143634919Y-76494498D01*
X143634912Y-76494511D01*
X143578343Y-76631082D01*
X143578340Y-76631092D01*
X143549500Y-76776079D01*
X143549500Y-76776082D01*
X143549500Y-76923918D01*
X143549500Y-76923920D01*
X143549499Y-76923920D01*
X138586684Y-76923920D01*
X138683696Y-76755889D01*
X138683862Y-76755488D01*
X138697511Y-76722538D01*
X138739327Y-76621584D01*
X138771510Y-76543888D01*
X138830900Y-76322239D01*
X138860852Y-76094735D01*
X138860852Y-75961420D01*
X141636999Y-75961420D01*
X141665840Y-76106407D01*
X141665843Y-76106417D01*
X141722412Y-76242988D01*
X141722419Y-76243001D01*
X141804548Y-76365915D01*
X141804551Y-76365919D01*
X141909080Y-76470448D01*
X141909084Y-76470451D01*
X142031998Y-76552580D01*
X142032011Y-76552587D01*
X142168582Y-76609156D01*
X142168587Y-76609158D01*
X142168591Y-76609158D01*
X142168592Y-76609159D01*
X142313579Y-76638000D01*
X142313582Y-76638000D01*
X142461420Y-76638000D01*
X142558962Y-76618596D01*
X142606413Y-76609158D01*
X142742995Y-76552584D01*
X142865916Y-76470451D01*
X142970451Y-76365916D01*
X143052584Y-76242995D01*
X143055745Y-76235361D01*
X143099579Y-76180958D01*
X143122854Y-76168248D01*
X143130495Y-76165084D01*
X143253416Y-76082951D01*
X143357951Y-75978416D01*
X143440084Y-75855495D01*
X143476199Y-75768303D01*
X143520038Y-75713904D01*
X143543296Y-75701202D01*
X143630495Y-75665084D01*
X143753416Y-75582951D01*
X143857951Y-75478416D01*
X143940084Y-75355495D01*
X143996658Y-75218913D01*
X144011459Y-75144505D01*
X144025500Y-75073920D01*
X144025500Y-74926079D01*
X143996659Y-74781092D01*
X143996658Y-74781091D01*
X143996658Y-74781087D01*
X143954132Y-74678419D01*
X143940087Y-74644511D01*
X143940080Y-74644498D01*
X143857951Y-74521584D01*
X143857948Y-74521580D01*
X143753419Y-74417051D01*
X143753415Y-74417048D01*
X143630501Y-74334919D01*
X143630488Y-74334912D01*
X143493917Y-74278343D01*
X143493907Y-74278340D01*
X143348920Y-74249500D01*
X143348918Y-74249500D01*
X143201082Y-74249500D01*
X143201080Y-74249500D01*
X143056092Y-74278340D01*
X143056082Y-74278343D01*
X142919511Y-74334912D01*
X142919498Y-74334919D01*
X142796584Y-74417048D01*
X142796580Y-74417051D01*
X142692051Y-74521580D01*
X142692048Y-74521584D01*
X142609919Y-74644498D01*
X142609913Y-74644510D01*
X142573799Y-74731694D01*
X142529957Y-74786096D01*
X142506694Y-74798799D01*
X142419510Y-74834913D01*
X142419498Y-74834919D01*
X142296584Y-74917048D01*
X142296580Y-74917051D01*
X142192051Y-75021580D01*
X142192048Y-75021584D01*
X142109919Y-75144498D01*
X142109912Y-75144512D01*
X142106748Y-75152150D01*
X142062903Y-75206551D01*
X142039650Y-75219248D01*
X142032012Y-75222412D01*
X142031998Y-75222419D01*
X141909084Y-75304548D01*
X141909080Y-75304551D01*
X141804551Y-75409080D01*
X141804548Y-75409084D01*
X141722419Y-75531998D01*
X141722412Y-75532011D01*
X141665843Y-75668582D01*
X141665840Y-75668592D01*
X141637000Y-75813579D01*
X141637000Y-75813582D01*
X141637000Y-75961418D01*
X141637000Y-75961420D01*
X141636999Y-75961420D01*
X138860852Y-75961420D01*
X138860852Y-75865267D01*
X138830900Y-75637763D01*
X138771510Y-75416114D01*
X138691279Y-75222419D01*
X138683701Y-75204124D01*
X138683698Y-75204118D01*
X138683696Y-75204113D01*
X138568963Y-75005389D01*
X138568960Y-75005386D01*
X138568959Y-75005383D01*
X138461305Y-74865087D01*
X138429271Y-74823340D01*
X138429270Y-74823339D01*
X138429263Y-74823331D01*
X138267022Y-74661090D01*
X138267013Y-74661082D01*
X138084969Y-74521393D01*
X137886242Y-74406658D01*
X137886228Y-74406651D01*
X137674239Y-74318843D01*
X137452590Y-74259453D01*
X137414567Y-74254447D01*
X137225093Y-74229501D01*
X137225086Y-74229501D01*
X136995618Y-74229501D01*
X136995610Y-74229501D01*
X136779067Y-74258010D01*
X136768114Y-74259453D01*
X136697615Y-74278343D01*
X136546464Y-74318843D01*
X136334475Y-74406651D01*
X136334461Y-74406658D01*
X136135734Y-74521393D01*
X135953690Y-74661082D01*
X135791433Y-74823339D01*
X135651744Y-75005383D01*
X135537009Y-75204110D01*
X135537002Y-75204124D01*
X135449194Y-75416113D01*
X135424587Y-75507948D01*
X135398449Y-75605501D01*
X135389805Y-75637760D01*
X135389803Y-75637771D01*
X135359852Y-75865259D01*
X133125500Y-75865259D01*
X133125500Y-72728480D01*
X133125695Y-72721527D01*
X133135214Y-72552028D01*
X133142084Y-72429691D01*
X133143638Y-72415898D01*
X133192015Y-72131167D01*
X133195109Y-72117615D01*
X133266563Y-71869596D01*
X133275061Y-71840096D01*
X133279653Y-71826975D01*
X133390175Y-71560151D01*
X133396195Y-71547651D01*
X133535902Y-71294868D01*
X133543297Y-71283100D01*
X133584842Y-71224548D01*
X133710422Y-71047559D01*
X133719077Y-71036705D01*
X133911534Y-70821346D01*
X133921346Y-70811534D01*
X134136705Y-70619077D01*
X134147559Y-70610422D01*
X134383105Y-70443293D01*
X134394868Y-70435902D01*
X134647651Y-70296195D01*
X134660151Y-70290175D01*
X134926979Y-70179651D01*
X134940096Y-70175061D01*
X135217621Y-70095107D01*
X135231167Y-70092015D01*
X135515898Y-70043638D01*
X135529691Y-70042084D01*
X135821528Y-70025695D01*
X135828481Y-70025500D01*
X146627856Y-70025500D01*
X146694895Y-70045185D01*
G37*
%TD.AperFunction*%
%TD*%
%TA.AperFunction,Conductor*%
%TO.N,GND*%
G36*
X146376437Y-85249567D02*
G01*
X146443404Y-85269486D01*
X146488974Y-85322449D01*
X146500000Y-85373566D01*
X146500000Y-92827302D01*
X146480315Y-92894341D01*
X146427511Y-92940096D01*
X146377310Y-92951295D01*
X144646925Y-92969574D01*
X144579681Y-92950599D01*
X144533371Y-92898281D01*
X144522698Y-92829231D01*
X144542513Y-92776690D01*
X144590084Y-92705495D01*
X144646658Y-92568913D01*
X144675500Y-92423918D01*
X144675500Y-92276082D01*
X144675500Y-92276079D01*
X144646659Y-92131092D01*
X144646658Y-92131091D01*
X144646658Y-92131087D01*
X144646656Y-92131082D01*
X144590087Y-91994511D01*
X144590080Y-91994498D01*
X144507951Y-91871584D01*
X144507948Y-91871580D01*
X144403419Y-91767051D01*
X144403415Y-91767048D01*
X144280501Y-91684919D01*
X144280488Y-91684912D01*
X144143917Y-91628343D01*
X144143907Y-91628340D01*
X143998920Y-91599500D01*
X143998918Y-91599500D01*
X143851082Y-91599500D01*
X143851080Y-91599500D01*
X143706092Y-91628340D01*
X143706082Y-91628343D01*
X143569511Y-91684912D01*
X143569498Y-91684919D01*
X143446584Y-91767048D01*
X143446580Y-91767051D01*
X143342051Y-91871580D01*
X143342048Y-91871584D01*
X143259919Y-91994498D01*
X143259912Y-91994511D01*
X143203343Y-92131082D01*
X143203340Y-92131092D01*
X143174500Y-92276079D01*
X143174500Y-92276082D01*
X143174500Y-92423918D01*
X143174500Y-92423920D01*
X143174499Y-92423920D01*
X143203340Y-92568907D01*
X143203343Y-92568917D01*
X143259912Y-92705488D01*
X143259919Y-92705501D01*
X143317588Y-92791808D01*
X143338466Y-92858486D01*
X143319981Y-92925866D01*
X143268003Y-92972556D01*
X143215796Y-92984692D01*
X141214402Y-93005833D01*
X141147158Y-92986858D01*
X141100848Y-92934540D01*
X141090175Y-92865490D01*
X141109990Y-92812949D01*
X141131671Y-92780501D01*
X141165084Y-92730495D01*
X141221658Y-92593913D01*
X141250500Y-92448918D01*
X141250500Y-92301082D01*
X141250500Y-92301079D01*
X141221659Y-92156092D01*
X141221658Y-92156091D01*
X141221658Y-92156087D01*
X141185792Y-92069498D01*
X141165087Y-92019511D01*
X141165080Y-92019498D01*
X141082951Y-91896584D01*
X141082948Y-91896580D01*
X140978419Y-91792051D01*
X140978415Y-91792048D01*
X140855501Y-91709919D01*
X140855488Y-91709912D01*
X140718917Y-91653343D01*
X140718907Y-91653340D01*
X140573920Y-91624500D01*
X140573918Y-91624500D01*
X140426082Y-91624500D01*
X140426080Y-91624500D01*
X140281092Y-91653340D01*
X140281082Y-91653343D01*
X140144511Y-91709912D01*
X140144498Y-91709919D01*
X140021584Y-91792048D01*
X140021580Y-91792051D01*
X139917051Y-91896580D01*
X139917048Y-91896584D01*
X139834919Y-92019498D01*
X139834912Y-92019511D01*
X139778343Y-92156082D01*
X139778340Y-92156092D01*
X139749500Y-92301079D01*
X139749500Y-92301082D01*
X139749500Y-92448918D01*
X139749500Y-92448920D01*
X139749499Y-92448920D01*
X139778340Y-92593907D01*
X139778343Y-92593917D01*
X139834912Y-92730488D01*
X139834919Y-92730501D01*
X139900005Y-92827908D01*
X139920883Y-92894585D01*
X139902399Y-92961966D01*
X139850420Y-93008656D01*
X139798213Y-93020792D01*
X137748347Y-93042446D01*
X137681103Y-93023471D01*
X137634793Y-92971153D01*
X137624120Y-92902103D01*
X137643935Y-92849562D01*
X137658404Y-92827908D01*
X137690084Y-92780495D01*
X137746658Y-92643913D01*
X137775500Y-92498918D01*
X137775500Y-92351082D01*
X137775500Y-92351079D01*
X137746659Y-92206092D01*
X137746658Y-92206091D01*
X137746658Y-92206087D01*
X137746656Y-92206082D01*
X137690087Y-92069511D01*
X137690080Y-92069498D01*
X137607951Y-91946584D01*
X137607948Y-91946580D01*
X137503419Y-91842051D01*
X137503415Y-91842048D01*
X137380501Y-91759919D01*
X137380488Y-91759912D01*
X137243917Y-91703343D01*
X137243907Y-91703340D01*
X137098920Y-91674500D01*
X137098918Y-91674500D01*
X136951082Y-91674500D01*
X136951080Y-91674500D01*
X136806092Y-91703340D01*
X136806082Y-91703343D01*
X136669511Y-91759912D01*
X136669498Y-91759919D01*
X136546584Y-91842048D01*
X136546580Y-91842051D01*
X136442051Y-91946580D01*
X136442048Y-91946584D01*
X136359919Y-92069498D01*
X136359912Y-92069511D01*
X136303343Y-92206082D01*
X136303340Y-92206092D01*
X136274500Y-92351079D01*
X136274500Y-92351082D01*
X136274500Y-92498918D01*
X136274500Y-92498920D01*
X136274499Y-92498920D01*
X136303340Y-92643907D01*
X136303343Y-92643917D01*
X136359912Y-92780488D01*
X136359919Y-92780501D01*
X136416186Y-92864710D01*
X136437064Y-92931388D01*
X136418579Y-92998768D01*
X136366601Y-93045458D01*
X136314394Y-93057594D01*
X133250810Y-93089955D01*
X133183566Y-93070980D01*
X133137256Y-93018662D01*
X133125500Y-92965962D01*
X133125500Y-85327669D01*
X133145185Y-85260630D01*
X133197989Y-85214875D01*
X133249930Y-85203670D01*
X146376437Y-85249567D01*
G37*
%TD.AperFunction*%
%TD*%
%TA.AperFunction,Conductor*%
%TO.N,GND*%
G36*
X149594670Y-78543465D02*
G01*
X149640425Y-78596269D01*
X149651620Y-78646138D01*
X149698303Y-82171869D01*
X149679508Y-82239164D01*
X149627314Y-82285613D01*
X149571883Y-82297487D01*
X147271569Y-82252382D01*
X147204928Y-82231387D01*
X147160217Y-82177696D01*
X147150000Y-82128406D01*
X147150000Y-78647780D01*
X147169685Y-78580741D01*
X147222489Y-78534986D01*
X147274000Y-78523780D01*
X149527631Y-78523780D01*
X149594670Y-78543465D01*
G37*
%TD.AperFunction*%
%TD*%
%TA.AperFunction,Conductor*%
%TO.N,GND*%
G36*
X166528384Y-78797661D02*
G01*
X166595033Y-78818631D01*
X166639764Y-78872305D01*
X166650000Y-78921638D01*
X166650000Y-81485500D01*
X166630315Y-81552539D01*
X166577511Y-81598294D01*
X166526000Y-81609500D01*
X164137045Y-81609500D01*
X164070006Y-81589815D01*
X164024251Y-81537011D01*
X164013056Y-81483824D01*
X164048314Y-78874694D01*
X164068903Y-78807931D01*
X164122320Y-78762894D01*
X164174683Y-78752397D01*
X166528384Y-78797661D01*
G37*
%TD.AperFunction*%
%TD*%
%TA.AperFunction,Conductor*%
%TO.N,GND*%
G36*
X156492580Y-95101409D02*
G01*
X156532409Y-95139160D01*
X156592048Y-95228415D01*
X156592051Y-95228419D01*
X156696580Y-95332948D01*
X156696584Y-95332951D01*
X156819498Y-95415080D01*
X156819511Y-95415087D01*
X156956082Y-95471656D01*
X156956087Y-95471658D01*
X156956091Y-95471658D01*
X156956092Y-95471659D01*
X157099413Y-95500168D01*
X157116169Y-95508933D01*
X157134648Y-95512953D01*
X157159686Y-95531697D01*
X157161323Y-95532553D01*
X157162902Y-95534104D01*
X157207590Y-95578792D01*
X157241075Y-95640115D01*
X157236091Y-95709807D01*
X157194219Y-95765740D01*
X157128755Y-95790157D01*
X157117876Y-95790456D01*
X156087609Y-95773566D01*
X156020902Y-95752786D01*
X155976018Y-95699239D01*
X155967210Y-95629926D01*
X155997273Y-95566855D01*
X156020748Y-95546483D01*
X156078416Y-95507951D01*
X156182951Y-95403416D01*
X156265084Y-95280495D01*
X156265085Y-95280492D01*
X156265087Y-95280489D01*
X156314746Y-95160599D01*
X156358586Y-95106195D01*
X156424880Y-95084130D01*
X156492580Y-95101409D01*
G37*
%TD.AperFunction*%
%TD*%
%TA.AperFunction,NonConductor*%
G36*
X155521475Y-92819685D02*
G01*
X155567230Y-92872489D01*
X155577174Y-92941647D01*
X155548149Y-93005203D01*
X155542117Y-93011681D01*
X154825938Y-93727858D01*
X154764615Y-93761343D01*
X154694923Y-93756359D01*
X154638990Y-93714487D01*
X154614573Y-93649023D01*
X154614276Y-93642310D01*
X154602137Y-92926099D01*
X154620682Y-92858738D01*
X154672704Y-92812095D01*
X154726119Y-92800000D01*
X155454436Y-92800000D01*
X155521475Y-92819685D01*
G37*
%TD.AperFunction*%
%TA.AperFunction,Conductor*%
%TO.N,GND*%
G36*
X189353472Y-70025695D02*
G01*
X189645306Y-70042084D01*
X189659103Y-70043638D01*
X189943827Y-70092015D01*
X189957384Y-70095109D01*
X190234899Y-70175060D01*
X190248025Y-70179653D01*
X190514841Y-70290172D01*
X190527355Y-70296198D01*
X190693444Y-70387992D01*
X190780125Y-70435899D01*
X190791899Y-70443297D01*
X191027430Y-70610415D01*
X191038302Y-70619085D01*
X191253642Y-70811524D01*
X191263475Y-70821357D01*
X191455919Y-71036702D01*
X191464579Y-71047561D01*
X191584266Y-71216245D01*
X191607005Y-71282307D01*
X191607135Y-71287618D01*
X191718601Y-107803910D01*
X191703130Y-107864270D01*
X191639100Y-107980125D01*
X191631702Y-107991899D01*
X191464584Y-108227430D01*
X191455914Y-108238302D01*
X191263475Y-108453642D01*
X191253642Y-108463475D01*
X191038302Y-108655914D01*
X191027430Y-108664584D01*
X190791899Y-108831702D01*
X190780125Y-108839100D01*
X190527362Y-108978797D01*
X190514834Y-108984830D01*
X190248024Y-109095346D01*
X190234899Y-109099939D01*
X189957384Y-109179890D01*
X189943827Y-109182984D01*
X189659114Y-109231359D01*
X189645296Y-109232916D01*
X189353472Y-109249305D01*
X189346519Y-109249500D01*
X169874000Y-109249500D01*
X169806961Y-109229815D01*
X169761206Y-109177011D01*
X169750000Y-109125500D01*
X169750000Y-106425564D01*
X169769685Y-106358525D01*
X169822489Y-106312770D01*
X169891647Y-106302826D01*
X169955203Y-106331851D01*
X169961681Y-106337883D01*
X171779488Y-108155690D01*
X171884310Y-108260512D01*
X172012690Y-108334632D01*
X172155880Y-108373000D01*
X172304121Y-108373000D01*
X181497904Y-108373000D01*
X181564943Y-108392685D01*
X181585585Y-108409319D01*
X181677396Y-108501130D01*
X181677400Y-108501133D01*
X181677402Y-108501135D01*
X181815607Y-108582869D01*
X181856268Y-108594682D01*
X181969791Y-108627664D01*
X181969794Y-108627664D01*
X181969796Y-108627665D01*
X182005819Y-108630500D01*
X182404180Y-108630499D01*
X182440204Y-108627665D01*
X182594393Y-108582869D01*
X182652369Y-108548581D01*
X182720093Y-108531398D01*
X182778612Y-108548581D01*
X182835805Y-108582404D01*
X182975000Y-108622844D01*
X182975000Y-108622843D01*
X183475000Y-108622843D01*
X183614194Y-108582404D01*
X183752285Y-108500738D01*
X183752294Y-108500731D01*
X183865731Y-108387294D01*
X183865738Y-108387285D01*
X183947406Y-108249191D01*
X183947407Y-108249188D01*
X183992166Y-108095128D01*
X183992167Y-108095122D01*
X183994931Y-108060000D01*
X183475000Y-108060000D01*
X183475000Y-108622843D01*
X182975000Y-108622843D01*
X182975000Y-108070408D01*
X182975004Y-108069404D01*
X182975039Y-108065034D01*
X182975500Y-108059181D01*
X182975499Y-107933999D01*
X182995183Y-107866962D01*
X183047986Y-107821206D01*
X183099499Y-107810000D01*
X183225000Y-107810000D01*
X183225000Y-107692220D01*
X183231239Y-107670971D01*
X183232820Y-107648882D01*
X183240891Y-107638100D01*
X183244685Y-107625181D01*
X183261418Y-107610681D01*
X183274693Y-107592950D01*
X183294126Y-107582339D01*
X183297489Y-107579426D01*
X183305659Y-107576041D01*
X183318830Y-107571128D01*
X183327711Y-107567817D01*
X183371041Y-107560000D01*
X183994931Y-107560000D01*
X183992167Y-107524877D01*
X183992166Y-107524871D01*
X183947407Y-107370811D01*
X183947406Y-107370808D01*
X183865738Y-107232714D01*
X183865731Y-107232705D01*
X183752291Y-107119265D01*
X183751374Y-107118723D01*
X183750801Y-107118110D01*
X183746128Y-107114485D01*
X183746713Y-107113730D01*
X183703692Y-107067651D01*
X183690499Y-107011996D01*
X183690499Y-106736064D01*
X183710184Y-106669027D01*
X183762988Y-106623272D01*
X183832146Y-106613328D01*
X183857828Y-106619882D01*
X183882517Y-106629091D01*
X183942127Y-106635500D01*
X185437872Y-106635499D01*
X185497483Y-106629091D01*
X185632331Y-106578796D01*
X185747546Y-106492546D01*
X185833796Y-106377331D01*
X185884091Y-106242483D01*
X185890500Y-106182873D01*
X185890499Y-105087128D01*
X185884091Y-105027517D01*
X185849584Y-104935000D01*
X185833797Y-104892671D01*
X185833793Y-104892664D01*
X185747547Y-104777455D01*
X185747544Y-104777452D01*
X185632335Y-104691206D01*
X185632328Y-104691202D01*
X185497482Y-104640908D01*
X185497483Y-104640908D01*
X185437883Y-104634501D01*
X185437881Y-104634500D01*
X185437873Y-104634500D01*
X185437865Y-104634500D01*
X185357886Y-104634500D01*
X185290847Y-104614815D01*
X185254783Y-104579390D01*
X185241159Y-104559000D01*
X185195277Y-104490331D01*
X185195275Y-104490329D01*
X185195273Y-104490326D01*
X185016628Y-104311681D01*
X184983143Y-104250358D01*
X184988127Y-104180666D01*
X185029999Y-104124733D01*
X185095463Y-104100316D01*
X185104309Y-104100000D01*
X185290000Y-104100000D01*
X185290000Y-104099999D01*
X185903551Y-104099999D01*
X185903552Y-104100000D01*
X186696448Y-104100000D01*
X186696448Y-104099999D01*
X186300000Y-103703552D01*
X185903551Y-104099999D01*
X185290000Y-104099999D01*
X185298010Y-104080661D01*
X185297420Y-104079581D01*
X185302404Y-104009889D01*
X185330905Y-103965542D01*
X185859629Y-103436818D01*
X185920952Y-103403333D01*
X185947304Y-103400499D01*
X186652690Y-103400499D01*
X186719728Y-103420184D01*
X186740370Y-103436818D01*
X187269094Y-103965542D01*
X187302579Y-104026865D01*
X187299211Y-104073953D01*
X187310000Y-104100000D01*
X187847828Y-104100000D01*
X187847844Y-104099999D01*
X187907372Y-104093598D01*
X187907379Y-104093596D01*
X188042086Y-104043354D01*
X188042093Y-104043350D01*
X188157187Y-103957190D01*
X188157190Y-103957187D01*
X188243350Y-103842093D01*
X188243354Y-103842086D01*
X188247427Y-103831167D01*
X188289298Y-103775233D01*
X188354762Y-103750816D01*
X188363609Y-103750500D01*
X188749682Y-103750500D01*
X188749690Y-103750500D01*
X188785993Y-103747643D01*
X188785995Y-103747642D01*
X188785997Y-103747642D01*
X188867647Y-103723920D01*
X188941395Y-103702494D01*
X189080687Y-103620117D01*
X189195117Y-103505687D01*
X189277494Y-103366395D01*
X189322643Y-103210993D01*
X189325500Y-103174690D01*
X189325500Y-102765310D01*
X189322643Y-102729007D01*
X189307944Y-102678415D01*
X189277495Y-102573609D01*
X189277495Y-102573608D01*
X189277494Y-102573607D01*
X189277494Y-102573605D01*
X189265379Y-102553120D01*
X189248196Y-102485399D01*
X189265379Y-102426880D01*
X189277494Y-102406395D01*
X189315519Y-102275514D01*
X189322642Y-102250997D01*
X189322643Y-102250991D01*
X189325499Y-102214697D01*
X189325500Y-102214690D01*
X189325500Y-101805310D01*
X189322643Y-101769007D01*
X189322642Y-101769002D01*
X189275318Y-101606113D01*
X189276718Y-101605706D01*
X189269211Y-101544909D01*
X189275378Y-101523904D01*
X189275318Y-101523887D01*
X189322642Y-101360997D01*
X189322643Y-101360991D01*
X189325499Y-101324697D01*
X189325500Y-101324690D01*
X189325500Y-100915310D01*
X189322643Y-100879007D01*
X189321628Y-100875514D01*
X189277495Y-100723609D01*
X189277495Y-100723608D01*
X189277494Y-100723607D01*
X189277494Y-100723605D01*
X189265379Y-100703120D01*
X189248196Y-100635399D01*
X189265379Y-100576880D01*
X189277494Y-100556395D01*
X189322643Y-100400993D01*
X189325500Y-100364690D01*
X189325500Y-99955310D01*
X189322643Y-99919007D01*
X189277494Y-99763605D01*
X189195117Y-99624313D01*
X189195115Y-99624311D01*
X189195112Y-99624307D01*
X189080692Y-99509887D01*
X189080684Y-99509881D01*
X188974581Y-99447132D01*
X188941395Y-99427506D01*
X188941394Y-99427505D01*
X188941393Y-99427505D01*
X188941390Y-99427504D01*
X188785997Y-99382357D01*
X188785991Y-99382356D01*
X188749697Y-99379500D01*
X188749690Y-99379500D01*
X188424500Y-99379500D01*
X188357461Y-99359815D01*
X188311706Y-99307011D01*
X188300500Y-99255500D01*
X188300499Y-98852129D01*
X188300499Y-98852128D01*
X188296067Y-98810898D01*
X188296068Y-98784393D01*
X188299999Y-98747833D01*
X188300000Y-98747819D01*
X188300000Y-98321308D01*
X188319685Y-98254269D01*
X188336319Y-98233627D01*
X188565273Y-98004672D01*
X188565272Y-98004672D01*
X188565276Y-98004669D01*
X188636465Y-97898127D01*
X188685501Y-97779744D01*
X188693390Y-97740084D01*
X188697920Y-97717311D01*
X188697920Y-97717309D01*
X188710500Y-97654070D01*
X188710500Y-96475928D01*
X188685502Y-96350261D01*
X188685501Y-96350260D01*
X188685501Y-96350256D01*
X188646159Y-96255276D01*
X188636466Y-96231874D01*
X188615382Y-96200319D01*
X188565278Y-96125332D01*
X188565272Y-96125325D01*
X188336319Y-95896372D01*
X188302834Y-95835049D01*
X188300000Y-95808691D01*
X188300000Y-95352179D01*
X188299999Y-95352168D01*
X188295815Y-95313258D01*
X188295170Y-95295968D01*
X188300066Y-95145468D01*
X188310390Y-95114113D01*
X188319685Y-95082461D01*
X188321264Y-95081092D01*
X188321919Y-95079104D01*
X188347573Y-95058295D01*
X188372489Y-95036706D01*
X188374814Y-95036200D01*
X188376183Y-95035090D01*
X188383787Y-95034247D01*
X188417929Y-95026820D01*
X188417858Y-95026097D01*
X188423920Y-95025500D01*
X188523924Y-95005607D01*
X188568913Y-94996658D01*
X188686097Y-94948119D01*
X188705488Y-94940087D01*
X188705488Y-94940086D01*
X188705495Y-94940084D01*
X188828416Y-94857951D01*
X188932951Y-94753416D01*
X189015084Y-94630495D01*
X189071658Y-94493913D01*
X189085400Y-94424831D01*
X189100500Y-94348920D01*
X189100500Y-94201079D01*
X189071659Y-94056092D01*
X189071658Y-94056091D01*
X189071658Y-94056087D01*
X189047011Y-93996584D01*
X189015087Y-93919511D01*
X189015080Y-93919498D01*
X188932951Y-93796584D01*
X188932948Y-93796580D01*
X188828419Y-93692051D01*
X188828415Y-93692048D01*
X188705501Y-93609919D01*
X188705488Y-93609912D01*
X188568917Y-93553343D01*
X188568907Y-93553340D01*
X188423920Y-93524499D01*
X188417858Y-93523903D01*
X188417973Y-93522730D01*
X188416776Y-93522379D01*
X188409354Y-93523632D01*
X188383712Y-93512670D01*
X188356961Y-93504815D01*
X188352031Y-93499126D01*
X188345109Y-93496167D01*
X188329462Y-93473080D01*
X188311206Y-93452011D01*
X188309157Y-93443119D01*
X188305911Y-93438329D01*
X188301392Y-93409410D01*
X188300037Y-93403527D01*
X188295141Y-93203027D01*
X188295815Y-93200505D01*
X188295815Y-93186742D01*
X188299999Y-93147831D01*
X188300000Y-93147821D01*
X188300000Y-92552179D01*
X188299999Y-92552168D01*
X188295815Y-92513258D01*
X188295815Y-92486742D01*
X188299999Y-92447831D01*
X188300000Y-92447821D01*
X188300000Y-91852182D01*
X188299999Y-91852164D01*
X188296068Y-91815602D01*
X188296068Y-91789094D01*
X188300500Y-91747873D01*
X188300499Y-91152128D01*
X188300498Y-91152111D01*
X188296320Y-91113253D01*
X188296320Y-91086747D01*
X188300500Y-91047873D01*
X188300499Y-90452128D01*
X188300498Y-90452111D01*
X188296320Y-90413253D01*
X188296320Y-90386747D01*
X188300500Y-90347873D01*
X188300499Y-89752128D01*
X188296067Y-89710898D01*
X188296068Y-89684393D01*
X188299999Y-89647833D01*
X188300000Y-89647819D01*
X188300000Y-89052179D01*
X188299999Y-89052168D01*
X188295815Y-89013258D01*
X188295815Y-88986742D01*
X188299999Y-88947831D01*
X188300000Y-88947821D01*
X188300000Y-88352179D01*
X188299999Y-88352168D01*
X188295815Y-88313258D01*
X188295815Y-88286742D01*
X188299999Y-88247831D01*
X188300000Y-88247821D01*
X188300000Y-87652179D01*
X188299999Y-87652168D01*
X188295815Y-87613258D01*
X188295815Y-87586742D01*
X188299999Y-87547831D01*
X188300000Y-87547821D01*
X188300000Y-86952179D01*
X188299999Y-86952168D01*
X188295815Y-86913258D01*
X188295815Y-86886742D01*
X188299999Y-86847831D01*
X188300000Y-86847821D01*
X188300000Y-86252182D01*
X188299999Y-86252164D01*
X188296068Y-86215602D01*
X188296068Y-86189094D01*
X188300500Y-86147873D01*
X188300499Y-85552128D01*
X188300498Y-85552111D01*
X188296320Y-85513253D01*
X188296320Y-85486747D01*
X188300500Y-85447873D01*
X188300499Y-84852128D01*
X188300498Y-84852111D01*
X188296320Y-84813253D01*
X188296320Y-84786747D01*
X188300500Y-84747873D01*
X188300499Y-84152128D01*
X188296067Y-84110898D01*
X188296068Y-84084393D01*
X188299999Y-84047833D01*
X188300000Y-84047819D01*
X188300000Y-83452179D01*
X188299999Y-83452168D01*
X188295815Y-83413258D01*
X188295815Y-83386742D01*
X188299999Y-83347831D01*
X188300000Y-83347821D01*
X188300000Y-82752172D01*
X188299999Y-82752155D01*
X188293598Y-82692627D01*
X188293596Y-82692620D01*
X188243354Y-82557913D01*
X188243350Y-82557906D01*
X188157190Y-82442812D01*
X188157187Y-82442809D01*
X188042093Y-82356649D01*
X188042086Y-82356645D01*
X187907379Y-82306403D01*
X187907372Y-82306401D01*
X187847844Y-82300000D01*
X187310000Y-82300000D01*
X187301989Y-82319338D01*
X187302579Y-82320418D01*
X187297595Y-82390110D01*
X187269094Y-82434457D01*
X186564457Y-83139095D01*
X186503134Y-83172580D01*
X186433443Y-83167596D01*
X186389095Y-83139095D01*
X186300000Y-83050000D01*
X186210905Y-83139095D01*
X186149582Y-83172580D01*
X186079890Y-83167596D01*
X186035543Y-83139095D01*
X185330905Y-82434457D01*
X185307375Y-82401623D01*
X185223151Y-82230847D01*
X185222821Y-82228957D01*
X185221568Y-82227511D01*
X185216850Y-82194701D01*
X185211153Y-82162016D01*
X185211896Y-82160250D01*
X185211624Y-82158353D01*
X185225000Y-82129063D01*
X185225000Y-81410000D01*
X185725000Y-81410000D01*
X185725000Y-82110000D01*
X185796674Y-82110000D01*
X185863713Y-82129685D01*
X185909468Y-82182489D01*
X185919412Y-82251647D01*
X185911235Y-82281453D01*
X185903552Y-82300000D01*
X186300000Y-82696448D01*
X186696448Y-82300000D01*
X186388603Y-82300000D01*
X186321564Y-82280315D01*
X186275809Y-82227511D01*
X186265865Y-82158353D01*
X186294890Y-82094797D01*
X186341151Y-82061439D01*
X186498671Y-81996192D01*
X186498684Y-81996185D01*
X186662462Y-81886751D01*
X186662466Y-81886748D01*
X186801748Y-81747466D01*
X186801751Y-81747462D01*
X186911185Y-81583684D01*
X186911192Y-81583671D01*
X186986569Y-81401692D01*
X186986569Y-81401690D01*
X186994862Y-81360000D01*
X186191988Y-81360000D01*
X186209205Y-81350060D01*
X186265060Y-81294205D01*
X186304556Y-81225796D01*
X186325000Y-81149496D01*
X186325000Y-81070504D01*
X186304556Y-80994204D01*
X186265060Y-80925795D01*
X186209205Y-80869940D01*
X186191988Y-80860000D01*
X186994862Y-80860000D01*
X188285138Y-80860000D01*
X189088012Y-80860000D01*
X189070795Y-80869940D01*
X189014940Y-80925795D01*
X188975444Y-80994204D01*
X188955000Y-81070504D01*
X188955000Y-81149496D01*
X188975444Y-81225796D01*
X189014940Y-81294205D01*
X189070795Y-81350060D01*
X189088012Y-81360000D01*
X188285138Y-81360000D01*
X188293430Y-81401690D01*
X188293430Y-81401692D01*
X188368807Y-81583671D01*
X188368814Y-81583684D01*
X188478248Y-81747462D01*
X188478251Y-81747466D01*
X188617533Y-81886748D01*
X188617537Y-81886751D01*
X188781315Y-81996185D01*
X188781328Y-81996192D01*
X188963306Y-82071569D01*
X188963318Y-82071572D01*
X189156504Y-82109999D01*
X189156508Y-82110000D01*
X189405000Y-82110000D01*
X189405000Y-81410000D01*
X189905000Y-81410000D01*
X189905000Y-82110000D01*
X190153492Y-82110000D01*
X190153495Y-82109999D01*
X190346681Y-82071572D01*
X190346693Y-82071569D01*
X190528671Y-81996192D01*
X190528684Y-81996185D01*
X190692462Y-81886751D01*
X190692466Y-81886748D01*
X190831748Y-81747466D01*
X190831751Y-81747462D01*
X190941185Y-81583684D01*
X190941192Y-81583671D01*
X191016569Y-81401692D01*
X191016569Y-81401690D01*
X191024862Y-81360000D01*
X190221988Y-81360000D01*
X190239205Y-81350060D01*
X190295060Y-81294205D01*
X190334556Y-81225796D01*
X190355000Y-81149496D01*
X190355000Y-81070504D01*
X190334556Y-80994204D01*
X190295060Y-80925795D01*
X190239205Y-80869940D01*
X190221988Y-80860000D01*
X191024862Y-80860000D01*
X191016569Y-80818309D01*
X191016569Y-80818307D01*
X190941192Y-80636328D01*
X190941185Y-80636315D01*
X190831751Y-80472537D01*
X190831748Y-80472533D01*
X190692466Y-80333251D01*
X190692462Y-80333248D01*
X190528684Y-80223814D01*
X190528671Y-80223807D01*
X190346693Y-80148430D01*
X190346681Y-80148427D01*
X190153495Y-80110000D01*
X189905000Y-80110000D01*
X189905000Y-80810000D01*
X189405000Y-80810000D01*
X189405000Y-80110000D01*
X189156504Y-80110000D01*
X188963318Y-80148427D01*
X188963306Y-80148430D01*
X188781328Y-80223807D01*
X188781315Y-80223814D01*
X188617537Y-80333248D01*
X188617533Y-80333251D01*
X188478251Y-80472533D01*
X188478248Y-80472537D01*
X188368814Y-80636315D01*
X188368807Y-80636328D01*
X188293430Y-80818307D01*
X188293430Y-80818309D01*
X188285138Y-80860000D01*
X186994862Y-80860000D01*
X186986569Y-80818309D01*
X186986569Y-80818307D01*
X186911192Y-80636328D01*
X186911185Y-80636315D01*
X186801751Y-80472537D01*
X186801748Y-80472533D01*
X186662466Y-80333251D01*
X186662462Y-80333248D01*
X186498684Y-80223814D01*
X186498674Y-80223809D01*
X186489157Y-80219867D01*
X186434754Y-80176026D01*
X186412689Y-80109731D01*
X186429969Y-80042032D01*
X186433648Y-80036597D01*
X186435512Y-80033367D01*
X186435515Y-80033365D01*
X186511281Y-79902135D01*
X186550500Y-79755766D01*
X186550500Y-79604234D01*
X186511281Y-79457865D01*
X186435515Y-79326635D01*
X186328365Y-79219485D01*
X186262750Y-79181602D01*
X186197136Y-79143719D01*
X186123950Y-79124109D01*
X186050766Y-79104500D01*
X185899234Y-79104500D01*
X185899229Y-79104500D01*
X185897545Y-79104952D01*
X185896070Y-79104916D01*
X185891178Y-79105561D01*
X185891077Y-79104797D01*
X185827695Y-79103282D01*
X185769836Y-79064114D01*
X185742338Y-78999883D01*
X185753932Y-78930982D01*
X185777777Y-78897499D01*
X186525512Y-78149765D01*
X186599632Y-78021384D01*
X186638000Y-77878194D01*
X186638000Y-77570890D01*
X186657685Y-77503851D01*
X186658898Y-77501999D01*
X186740080Y-77380501D01*
X186740080Y-77380500D01*
X186740084Y-77380495D01*
X186742808Y-77373920D01*
X186796656Y-77243917D01*
X186796658Y-77243913D01*
X186815554Y-77148918D01*
X186825500Y-77098920D01*
X186825500Y-76951079D01*
X186796659Y-76806092D01*
X186796658Y-76806091D01*
X186796658Y-76806087D01*
X186760795Y-76719505D01*
X186740087Y-76669511D01*
X186740080Y-76669498D01*
X186657951Y-76546584D01*
X186657948Y-76546580D01*
X186553419Y-76442051D01*
X186553415Y-76442048D01*
X186430501Y-76359919D01*
X186430488Y-76359912D01*
X186293917Y-76303343D01*
X186293907Y-76303340D01*
X186148920Y-76274500D01*
X186148918Y-76274500D01*
X186001082Y-76274500D01*
X186001080Y-76274500D01*
X185856092Y-76303340D01*
X185856082Y-76303343D01*
X185719511Y-76359912D01*
X185719498Y-76359919D01*
X185596584Y-76442048D01*
X185596580Y-76442051D01*
X185492051Y-76546580D01*
X185492048Y-76546584D01*
X185409919Y-76669498D01*
X185409912Y-76669511D01*
X185353343Y-76806082D01*
X185353340Y-76806092D01*
X185324500Y-76951079D01*
X185324500Y-76951082D01*
X185324500Y-77098918D01*
X185324500Y-77098920D01*
X185324499Y-77098920D01*
X185353340Y-77243907D01*
X185353343Y-77243917D01*
X185409912Y-77380488D01*
X185409919Y-77380501D01*
X185470521Y-77471198D01*
X185491399Y-77537876D01*
X185472914Y-77605256D01*
X185455100Y-77627770D01*
X184592823Y-78490046D01*
X184531500Y-78523531D01*
X184461808Y-78518547D01*
X184436258Y-78505471D01*
X184405495Y-78484916D01*
X184405491Y-78484914D01*
X184405489Y-78484913D01*
X184268917Y-78428343D01*
X184268907Y-78428340D01*
X184123920Y-78399500D01*
X184123918Y-78399500D01*
X183976082Y-78399500D01*
X183976080Y-78399500D01*
X183831092Y-78428340D01*
X183831082Y-78428343D01*
X183694511Y-78484912D01*
X183694498Y-78484919D01*
X183571584Y-78567048D01*
X183571580Y-78567051D01*
X183467051Y-78671580D01*
X183467048Y-78671584D01*
X183384919Y-78794498D01*
X183384912Y-78794511D01*
X183328343Y-78931082D01*
X183328340Y-78931092D01*
X183299500Y-79076079D01*
X183299500Y-79076082D01*
X183299500Y-79223918D01*
X183299500Y-79223920D01*
X183299499Y-79223920D01*
X183328340Y-79368907D01*
X183328343Y-79368917D01*
X183384913Y-79505489D01*
X183384914Y-79505491D01*
X183384916Y-79505495D01*
X183405468Y-79536253D01*
X183426345Y-79602928D01*
X183407861Y-79670308D01*
X183390046Y-79692823D01*
X182720394Y-80362475D01*
X182659071Y-80395960D01*
X182589379Y-80390976D01*
X182533446Y-80349104D01*
X182509029Y-80283640D01*
X182508722Y-80273282D01*
X182525452Y-78920583D01*
X182545964Y-78853796D01*
X182561752Y-78834449D01*
X183312099Y-78084102D01*
X183373420Y-78050619D01*
X183375587Y-78050168D01*
X183518913Y-78021658D01*
X183655495Y-77965084D01*
X183778416Y-77882951D01*
X183882951Y-77778416D01*
X183965084Y-77655495D01*
X184021658Y-77518913D01*
X184050500Y-77373918D01*
X184050500Y-77226082D01*
X184050500Y-77226079D01*
X184021659Y-77081092D01*
X184021658Y-77081091D01*
X184021658Y-77081087D01*
X183988519Y-77001082D01*
X183965087Y-76944511D01*
X183965080Y-76944498D01*
X183882951Y-76821584D01*
X183882948Y-76821580D01*
X183778419Y-76717051D01*
X183778415Y-76717048D01*
X183655501Y-76634919D01*
X183655488Y-76634912D01*
X183518917Y-76578343D01*
X183518907Y-76578340D01*
X183373920Y-76549500D01*
X183373918Y-76549500D01*
X183226082Y-76549500D01*
X183226080Y-76549500D01*
X183081092Y-76578340D01*
X183081082Y-76578343D01*
X182944511Y-76634912D01*
X182944498Y-76634919D01*
X182872942Y-76682732D01*
X182806264Y-76703610D01*
X182738884Y-76685125D01*
X182712325Y-76663071D01*
X182706097Y-76656224D01*
X182682951Y-76621584D01*
X182590335Y-76528968D01*
X182588372Y-76526810D01*
X182574328Y-76497924D01*
X182558932Y-76469728D01*
X182558487Y-76465342D01*
X182557822Y-76463973D01*
X182558106Y-76461582D01*
X182556107Y-76441844D01*
X182573079Y-75069537D01*
X182593592Y-75002749D01*
X182646957Y-74957650D01*
X182716234Y-74948563D01*
X182744515Y-74956509D01*
X182781087Y-74971658D01*
X182781091Y-74971658D01*
X182781092Y-74971659D01*
X182926079Y-75000500D01*
X182926082Y-75000500D01*
X183073920Y-75000500D01*
X183171462Y-74981096D01*
X183218913Y-74971658D01*
X183355495Y-74915084D01*
X183478416Y-74832951D01*
X183582951Y-74728416D01*
X183665084Y-74605495D01*
X183721658Y-74468913D01*
X183743220Y-74360515D01*
X183750500Y-74323920D01*
X183750500Y-74176079D01*
X183721659Y-74031092D01*
X183721658Y-74031091D01*
X183721658Y-74031087D01*
X183721656Y-74031082D01*
X183665087Y-73894511D01*
X183665079Y-73894497D01*
X183658733Y-73884999D01*
X183658732Y-73884998D01*
X183582951Y-73771583D01*
X183478419Y-73667051D01*
X183478415Y-73667048D01*
X183355501Y-73584919D01*
X183355488Y-73584912D01*
X183218917Y-73528343D01*
X183218907Y-73528340D01*
X183073920Y-73499500D01*
X183073918Y-73499500D01*
X182926082Y-73499500D01*
X182926080Y-73499500D01*
X182781092Y-73528340D01*
X182781083Y-73528343D01*
X182764931Y-73535033D01*
X182695461Y-73542499D01*
X182632983Y-73511221D01*
X182597333Y-73451131D01*
X182593493Y-73418948D01*
X182608321Y-72220000D01*
X183955138Y-72220000D01*
X184758012Y-72220000D01*
X184740795Y-72229940D01*
X184684940Y-72285795D01*
X184645444Y-72354204D01*
X184625000Y-72430504D01*
X184625000Y-72509496D01*
X184645444Y-72585796D01*
X184684940Y-72654205D01*
X184740795Y-72710060D01*
X184758012Y-72720000D01*
X183955138Y-72720000D01*
X183963430Y-72761690D01*
X183963430Y-72761692D01*
X184038807Y-72943671D01*
X184038814Y-72943684D01*
X184148248Y-73107462D01*
X184148251Y-73107466D01*
X184287533Y-73246748D01*
X184287537Y-73246751D01*
X184451315Y-73356185D01*
X184451328Y-73356192D01*
X184633306Y-73431569D01*
X184633318Y-73431572D01*
X184826504Y-73469999D01*
X184826508Y-73470000D01*
X185225000Y-73470000D01*
X185225000Y-72770000D01*
X185725000Y-72770000D01*
X185725000Y-73308215D01*
X185705315Y-73375254D01*
X185663002Y-73415601D01*
X185621638Y-73439483D01*
X185621632Y-73439487D01*
X185514487Y-73546632D01*
X185514485Y-73546635D01*
X185438719Y-73677863D01*
X185399500Y-73824234D01*
X185399500Y-73975765D01*
X185438719Y-74122136D01*
X185469864Y-74176079D01*
X185514485Y-74253365D01*
X185621635Y-74360515D01*
X185752865Y-74436281D01*
X185899234Y-74475500D01*
X185899236Y-74475500D01*
X186050764Y-74475500D01*
X186050766Y-74475500D01*
X186197135Y-74436281D01*
X186328365Y-74360515D01*
X186435515Y-74253365D01*
X186511281Y-74122135D01*
X186550500Y-73975766D01*
X186550500Y-73824234D01*
X186511281Y-73677865D01*
X186435515Y-73546635D01*
X186435513Y-73546633D01*
X186431451Y-73539597D01*
X186433654Y-73538325D01*
X186413041Y-73485022D01*
X186427073Y-73416576D01*
X186475882Y-73366582D01*
X186489163Y-73360129D01*
X186498682Y-73356186D01*
X186498684Y-73356185D01*
X186662462Y-73246751D01*
X186662466Y-73246748D01*
X186801748Y-73107466D01*
X186801751Y-73107462D01*
X186911185Y-72943684D01*
X186911192Y-72943671D01*
X186986569Y-72761692D01*
X186986569Y-72761690D01*
X186994862Y-72720000D01*
X186191988Y-72720000D01*
X186209205Y-72710060D01*
X186265060Y-72654205D01*
X186304556Y-72585796D01*
X186325000Y-72509496D01*
X186325000Y-72430504D01*
X186304556Y-72354204D01*
X186265060Y-72285795D01*
X186209205Y-72229940D01*
X186191988Y-72220000D01*
X186994862Y-72220000D01*
X188285138Y-72220000D01*
X189088012Y-72220000D01*
X189070795Y-72229940D01*
X189014940Y-72285795D01*
X188975444Y-72354204D01*
X188955000Y-72430504D01*
X188955000Y-72509496D01*
X188975444Y-72585796D01*
X189014940Y-72654205D01*
X189070795Y-72710060D01*
X189088012Y-72720000D01*
X188285138Y-72720000D01*
X188293430Y-72761690D01*
X188293430Y-72761692D01*
X188368807Y-72943671D01*
X188368814Y-72943684D01*
X188478248Y-73107462D01*
X188478251Y-73107466D01*
X188617533Y-73246748D01*
X188617537Y-73246751D01*
X188781315Y-73356185D01*
X188781328Y-73356192D01*
X188963306Y-73431569D01*
X188963318Y-73431572D01*
X189156504Y-73469999D01*
X189156508Y-73470000D01*
X189405000Y-73470000D01*
X189405000Y-72770000D01*
X189905000Y-72770000D01*
X189905000Y-73470000D01*
X190153492Y-73470000D01*
X190153495Y-73469999D01*
X190346681Y-73431572D01*
X190346693Y-73431569D01*
X190528671Y-73356192D01*
X190528684Y-73356185D01*
X190692462Y-73246751D01*
X190692466Y-73246748D01*
X190831748Y-73107466D01*
X190831751Y-73107462D01*
X190941185Y-72943684D01*
X190941192Y-72943671D01*
X191016569Y-72761692D01*
X191016569Y-72761690D01*
X191024862Y-72720000D01*
X190221988Y-72720000D01*
X190239205Y-72710060D01*
X190295060Y-72654205D01*
X190334556Y-72585796D01*
X190355000Y-72509496D01*
X190355000Y-72430504D01*
X190334556Y-72354204D01*
X190295060Y-72285795D01*
X190239205Y-72229940D01*
X190221988Y-72220000D01*
X191024862Y-72220000D01*
X191016569Y-72178309D01*
X191016569Y-72178307D01*
X190941192Y-71996328D01*
X190941185Y-71996315D01*
X190831751Y-71832537D01*
X190831748Y-71832533D01*
X190692466Y-71693251D01*
X190692462Y-71693248D01*
X190528684Y-71583814D01*
X190528671Y-71583807D01*
X190346693Y-71508430D01*
X190346681Y-71508427D01*
X190153495Y-71470000D01*
X189905000Y-71470000D01*
X189905000Y-72170000D01*
X189405000Y-72170000D01*
X189405000Y-71470000D01*
X189156504Y-71470000D01*
X188963318Y-71508427D01*
X188963306Y-71508430D01*
X188781328Y-71583807D01*
X188781315Y-71583814D01*
X188617537Y-71693248D01*
X188617533Y-71693251D01*
X188478251Y-71832533D01*
X188478248Y-71832537D01*
X188368814Y-71996315D01*
X188368807Y-71996328D01*
X188293430Y-72178307D01*
X188293430Y-72178309D01*
X188285138Y-72220000D01*
X186994862Y-72220000D01*
X186986569Y-72178309D01*
X186986569Y-72178307D01*
X186911192Y-71996328D01*
X186911185Y-71996315D01*
X186801751Y-71832537D01*
X186801748Y-71832533D01*
X186662466Y-71693251D01*
X186662462Y-71693248D01*
X186498684Y-71583814D01*
X186498671Y-71583807D01*
X186316693Y-71508430D01*
X186316681Y-71508427D01*
X186123495Y-71470000D01*
X185725000Y-71470000D01*
X185725000Y-72170000D01*
X185225000Y-72170000D01*
X185225000Y-71470000D01*
X184826504Y-71470000D01*
X184633318Y-71508427D01*
X184633306Y-71508430D01*
X184451328Y-71583807D01*
X184451315Y-71583814D01*
X184287537Y-71693248D01*
X184287533Y-71693251D01*
X184148251Y-71832533D01*
X184148248Y-71832537D01*
X184038814Y-71996315D01*
X184038807Y-71996328D01*
X183963430Y-72178307D01*
X183963430Y-72178309D01*
X183955138Y-72220000D01*
X182608321Y-72220000D01*
X182626558Y-70745441D01*
X182633947Y-70147965D01*
X182654460Y-70081176D01*
X182707825Y-70036077D01*
X182757938Y-70025500D01*
X189302405Y-70025500D01*
X189346519Y-70025500D01*
X189353472Y-70025695D01*
G37*
%TD.AperFunction*%
%TA.AperFunction,Conductor*%
G36*
X180348084Y-101850630D02*
G01*
X180404018Y-101892501D01*
X180428435Y-101957966D01*
X180426368Y-101991003D01*
X180399500Y-102126077D01*
X180399500Y-102126082D01*
X180399500Y-102273918D01*
X180399500Y-102273920D01*
X180399499Y-102273920D01*
X180428340Y-102418907D01*
X180428343Y-102418917D01*
X180484912Y-102555488D01*
X180484919Y-102555501D01*
X180567048Y-102678415D01*
X180567051Y-102678419D01*
X180671580Y-102782948D01*
X180671584Y-102782951D01*
X180794498Y-102865080D01*
X180794511Y-102865087D01*
X180847649Y-102887097D01*
X180931087Y-102921658D01*
X180931099Y-102921660D01*
X180934205Y-102922603D01*
X180935643Y-102923545D01*
X180936714Y-102923989D01*
X180936629Y-102924192D01*
X180992645Y-102960899D01*
X181016969Y-103015441D01*
X181019124Y-103014932D01*
X181020907Y-103022479D01*
X181071202Y-103157328D01*
X181071206Y-103157335D01*
X181157452Y-103272544D01*
X181157455Y-103272547D01*
X181272666Y-103358794D01*
X181272669Y-103358796D01*
X181320616Y-103376679D01*
X181342833Y-103393309D01*
X181366890Y-103407148D01*
X181372204Y-103415296D01*
X181376550Y-103418549D01*
X181387409Y-103435865D01*
X181389829Y-103440541D01*
X181438535Y-103558127D01*
X181492445Y-103638811D01*
X181495625Y-103644955D01*
X181501025Y-103672735D01*
X181509480Y-103699739D01*
X181509500Y-103701951D01*
X181509500Y-103708331D01*
X181508563Y-103711518D01*
X181508957Y-103713541D01*
X181505206Y-103722953D01*
X181489815Y-103775370D01*
X181459812Y-103807597D01*
X181432814Y-103827807D01*
X181432808Y-103827814D01*
X181346649Y-103942906D01*
X181346645Y-103942913D01*
X181296403Y-104077620D01*
X181296401Y-104077627D01*
X181290000Y-104137155D01*
X181290000Y-104435000D01*
X182366000Y-104435000D01*
X182433039Y-104454685D01*
X182478794Y-104507489D01*
X182490000Y-104559000D01*
X182490000Y-104811000D01*
X182470315Y-104878039D01*
X182417511Y-104923794D01*
X182366000Y-104935000D01*
X181290000Y-104935000D01*
X181290000Y-105232844D01*
X181296401Y-105292372D01*
X181296403Y-105292379D01*
X181346645Y-105427086D01*
X181346649Y-105427093D01*
X181432809Y-105542187D01*
X181437584Y-105546962D01*
X181471069Y-105608285D01*
X181466085Y-105677977D01*
X181437584Y-105722324D01*
X181432452Y-105727455D01*
X181346206Y-105842664D01*
X181346202Y-105842671D01*
X181295908Y-105977517D01*
X181289501Y-106037116D01*
X181289500Y-106037135D01*
X181289501Y-107123000D01*
X181269816Y-107190039D01*
X181217013Y-107235794D01*
X181165501Y-107247000D01*
X175746479Y-107247000D01*
X175679440Y-107227315D01*
X175633685Y-107174511D01*
X175624862Y-107147192D01*
X175621659Y-107131092D01*
X175621658Y-107131091D01*
X175621658Y-107131087D01*
X175572328Y-107011993D01*
X175565087Y-106994511D01*
X175565080Y-106994498D01*
X175482951Y-106871584D01*
X175482948Y-106871580D01*
X175378419Y-106767051D01*
X175378415Y-106767048D01*
X175255501Y-106684919D01*
X175255488Y-106684912D01*
X175118917Y-106628343D01*
X175118907Y-106628340D01*
X174973920Y-106599500D01*
X174973918Y-106599500D01*
X174826082Y-106599500D01*
X174826080Y-106599500D01*
X174681092Y-106628340D01*
X174681082Y-106628343D01*
X174544511Y-106684912D01*
X174544498Y-106684919D01*
X174421584Y-106767048D01*
X174421580Y-106767051D01*
X174317051Y-106871580D01*
X174317048Y-106871584D01*
X174234919Y-106994498D01*
X174234912Y-106994511D01*
X174178343Y-107131082D01*
X174178340Y-107131092D01*
X174175138Y-107147192D01*
X174142752Y-107209103D01*
X174082036Y-107243677D01*
X174053521Y-107247000D01*
X172514564Y-107247000D01*
X172447525Y-107227315D01*
X172426883Y-107210681D01*
X169786319Y-104570117D01*
X169752834Y-104508794D01*
X169750000Y-104482436D01*
X169750000Y-103477563D01*
X169758642Y-103448128D01*
X169765165Y-103418141D01*
X169768922Y-103413121D01*
X169769685Y-103410524D01*
X169786315Y-103389886D01*
X169789652Y-103386549D01*
X169797382Y-103378818D01*
X169858701Y-103345332D01*
X169928393Y-103350313D01*
X169984329Y-103392182D01*
X169988169Y-103397609D01*
X169992049Y-103403417D01*
X170096580Y-103507948D01*
X170096584Y-103507951D01*
X170219498Y-103590080D01*
X170219511Y-103590087D01*
X170356082Y-103646656D01*
X170356087Y-103646658D01*
X170356091Y-103646658D01*
X170356092Y-103646659D01*
X170501079Y-103675500D01*
X170501082Y-103675500D01*
X170648920Y-103675500D01*
X170774598Y-103650500D01*
X170793913Y-103646658D01*
X170930495Y-103590084D01*
X171053416Y-103507951D01*
X171079058Y-103482309D01*
X171112319Y-103449049D01*
X171173642Y-103415564D01*
X171243334Y-103420548D01*
X171287681Y-103449049D01*
X171321580Y-103482948D01*
X171321584Y-103482951D01*
X171444498Y-103565080D01*
X171444511Y-103565087D01*
X171577369Y-103620118D01*
X171581087Y-103621658D01*
X171581091Y-103621658D01*
X171581092Y-103621659D01*
X171726079Y-103650500D01*
X171726082Y-103650500D01*
X171873920Y-103650500D01*
X171999598Y-103625500D01*
X172018913Y-103621658D01*
X172155495Y-103565084D01*
X172278416Y-103482951D01*
X172325502Y-103435865D01*
X172374819Y-103386549D01*
X172436142Y-103353064D01*
X172505834Y-103358048D01*
X172550181Y-103386549D01*
X172621580Y-103457948D01*
X172621584Y-103457951D01*
X172744498Y-103540080D01*
X172744511Y-103540087D01*
X172881082Y-103596656D01*
X172881087Y-103596658D01*
X172881091Y-103596658D01*
X172881092Y-103596659D01*
X173026079Y-103625500D01*
X173026082Y-103625500D01*
X173173920Y-103625500D01*
X173271462Y-103606096D01*
X173318913Y-103596658D01*
X173455495Y-103540084D01*
X173578416Y-103457951D01*
X173682951Y-103353416D01*
X173765084Y-103230495D01*
X173821658Y-103093913D01*
X173850168Y-102950586D01*
X173882553Y-102888676D01*
X173884045Y-102887156D01*
X174346884Y-102424319D01*
X174408207Y-102390834D01*
X174434565Y-102388000D01*
X175149319Y-102388000D01*
X175216358Y-102407685D01*
X175262113Y-102460489D01*
X175272057Y-102529647D01*
X175252421Y-102580891D01*
X175209919Y-102644498D01*
X175209912Y-102644511D01*
X175153343Y-102781082D01*
X175153340Y-102781092D01*
X175124500Y-102926079D01*
X175124500Y-102926082D01*
X175124500Y-103073918D01*
X175124500Y-103073920D01*
X175124499Y-103073920D01*
X175153340Y-103218907D01*
X175153343Y-103218917D01*
X175209912Y-103355488D01*
X175209919Y-103355501D01*
X175292048Y-103478415D01*
X175292051Y-103478419D01*
X175396580Y-103582948D01*
X175396584Y-103582951D01*
X175519498Y-103665080D01*
X175519511Y-103665087D01*
X175656082Y-103721656D01*
X175656087Y-103721658D01*
X175656091Y-103721658D01*
X175656092Y-103721659D01*
X175801079Y-103750500D01*
X175801082Y-103750500D01*
X175948920Y-103750500D01*
X176082541Y-103723920D01*
X177449499Y-103723920D01*
X177478340Y-103868907D01*
X177478343Y-103868917D01*
X177534912Y-104005488D01*
X177534919Y-104005501D01*
X177617048Y-104128415D01*
X177617051Y-104128419D01*
X177721580Y-104232948D01*
X177721584Y-104232951D01*
X177844498Y-104315080D01*
X177844511Y-104315087D01*
X177981082Y-104371656D01*
X177981087Y-104371658D01*
X177981091Y-104371658D01*
X177981092Y-104371659D01*
X178126079Y-104400500D01*
X178126082Y-104400500D01*
X178273920Y-104400500D01*
X178371462Y-104381096D01*
X178418913Y-104371658D01*
X178555495Y-104315084D01*
X178678416Y-104232951D01*
X178782951Y-104128416D01*
X178865084Y-104005495D01*
X178921658Y-103868913D01*
X178935325Y-103800204D01*
X178950500Y-103723920D01*
X178950500Y-103576079D01*
X178921659Y-103431092D01*
X178921658Y-103431091D01*
X178921658Y-103431087D01*
X178910162Y-103403333D01*
X178865087Y-103294511D01*
X178865080Y-103294498D01*
X178782951Y-103171584D01*
X178782948Y-103171580D01*
X178678419Y-103067051D01*
X178678415Y-103067048D01*
X178555501Y-102984919D01*
X178555488Y-102984912D01*
X178418917Y-102928343D01*
X178418907Y-102928340D01*
X178273920Y-102899500D01*
X178273918Y-102899500D01*
X178126082Y-102899500D01*
X178126080Y-102899500D01*
X177981092Y-102928340D01*
X177981082Y-102928343D01*
X177844511Y-102984912D01*
X177844498Y-102984919D01*
X177721584Y-103067048D01*
X177721580Y-103067051D01*
X177617051Y-103171580D01*
X177617048Y-103171584D01*
X177534919Y-103294498D01*
X177534912Y-103294511D01*
X177478343Y-103431082D01*
X177478340Y-103431092D01*
X177449500Y-103576079D01*
X177449500Y-103576082D01*
X177449500Y-103723918D01*
X177449500Y-103723920D01*
X177449499Y-103723920D01*
X176082541Y-103723920D01*
X176082551Y-103723918D01*
X176093913Y-103721658D01*
X176199547Y-103677902D01*
X176230488Y-103665087D01*
X176230488Y-103665086D01*
X176230495Y-103665084D01*
X176353416Y-103582951D01*
X176396287Y-103540080D01*
X176454059Y-103482309D01*
X176457948Y-103478419D01*
X176457951Y-103478416D01*
X176540084Y-103355495D01*
X176542231Y-103350313D01*
X176574442Y-103272547D01*
X176596658Y-103218913D01*
X176621523Y-103093913D01*
X176625500Y-103073920D01*
X176625500Y-102926079D01*
X176596659Y-102781092D01*
X176596658Y-102781091D01*
X176596658Y-102781087D01*
X176554132Y-102678419D01*
X176540087Y-102644511D01*
X176540080Y-102644498D01*
X176497579Y-102580891D01*
X176476701Y-102514213D01*
X176495185Y-102446833D01*
X176547164Y-102400143D01*
X176600681Y-102388000D01*
X179549117Y-102388000D01*
X179549120Y-102388000D01*
X179692310Y-102349632D01*
X179820690Y-102275512D01*
X179925512Y-102170690D01*
X180217072Y-101879129D01*
X180278393Y-101845646D01*
X180348084Y-101850630D01*
G37*
%TD.AperFunction*%
%TA.AperFunction,Conductor*%
G36*
X178445889Y-96299191D02*
G01*
X178544505Y-96365084D01*
X178544507Y-96365085D01*
X178544511Y-96365087D01*
X178657770Y-96412000D01*
X178681087Y-96421658D01*
X178681091Y-96421658D01*
X178681092Y-96421659D01*
X178826079Y-96450500D01*
X178826082Y-96450500D01*
X178973920Y-96450500D01*
X179118908Y-96421659D01*
X179118908Y-96421658D01*
X179118913Y-96421658D01*
X179159866Y-96404693D01*
X179229335Y-96397224D01*
X179254773Y-96404693D01*
X179356082Y-96446656D01*
X179356087Y-96446658D01*
X179356091Y-96446658D01*
X179356092Y-96446659D01*
X179501079Y-96475500D01*
X179501082Y-96475500D01*
X179648920Y-96475500D01*
X179751308Y-96455133D01*
X179820900Y-96461360D01*
X179876077Y-96504222D01*
X179899322Y-96570112D01*
X179899500Y-96576750D01*
X179899500Y-97477936D01*
X179879815Y-97544975D01*
X179863181Y-97565617D01*
X178303117Y-99125681D01*
X178241794Y-99159166D01*
X178215436Y-99162000D01*
X176490913Y-99162000D01*
X176423874Y-99142315D01*
X176378119Y-99089511D01*
X176368175Y-99020353D01*
X176397200Y-98956797D01*
X176428913Y-98930613D01*
X176479352Y-98901491D01*
X176515690Y-98880512D01*
X176620512Y-98775690D01*
X176620511Y-98775690D01*
X176679080Y-98717121D01*
X177164658Y-98231542D01*
X177225979Y-98198059D01*
X177295671Y-98203043D01*
X177321227Y-98216122D01*
X177394500Y-98265081D01*
X177394511Y-98265087D01*
X177530242Y-98321308D01*
X177531087Y-98321658D01*
X177531091Y-98321658D01*
X177531092Y-98321659D01*
X177676079Y-98350500D01*
X177676082Y-98350500D01*
X177823920Y-98350500D01*
X177944747Y-98326465D01*
X177968913Y-98321658D01*
X178105495Y-98265084D01*
X178228416Y-98182951D01*
X178332951Y-98078416D01*
X178415084Y-97955495D01*
X178471658Y-97818913D01*
X178484556Y-97754072D01*
X178500500Y-97673920D01*
X178500500Y-97526079D01*
X178471659Y-97381092D01*
X178471658Y-97381091D01*
X178471658Y-97381087D01*
X178430901Y-97282690D01*
X178415087Y-97244511D01*
X178415080Y-97244498D01*
X178332951Y-97121584D01*
X178332948Y-97121580D01*
X178274563Y-97063195D01*
X178241078Y-97001872D01*
X178242468Y-96943422D01*
X178253000Y-96904121D01*
X178253000Y-96755880D01*
X178253000Y-96402294D01*
X178272685Y-96335255D01*
X178325489Y-96289500D01*
X178394647Y-96279556D01*
X178445889Y-96299191D01*
G37*
%TD.AperFunction*%
%TA.AperFunction,Conductor*%
G36*
X183706095Y-97460378D02*
G01*
X183706113Y-97460318D01*
X183869002Y-97507642D01*
X183869005Y-97507642D01*
X183869007Y-97507643D01*
X183905310Y-97510500D01*
X184016000Y-97510500D01*
X184083039Y-97530185D01*
X184108693Y-97552135D01*
X184268193Y-97731635D01*
X184276124Y-97748444D01*
X184288294Y-97762489D01*
X184293036Y-97784286D01*
X184298008Y-97794824D01*
X184297000Y-97802510D01*
X184299500Y-97813999D01*
X184299500Y-98047869D01*
X184299501Y-98047876D01*
X184305908Y-98107483D01*
X184356202Y-98242329D01*
X184356203Y-98242331D01*
X184365264Y-98254433D01*
X184373003Y-98275180D01*
X184384977Y-98293812D01*
X184388127Y-98315724D01*
X184389684Y-98319897D01*
X184390000Y-98328747D01*
X184390000Y-98476000D01*
X184370315Y-98543039D01*
X184317511Y-98588794D01*
X184309453Y-98590546D01*
X184300000Y-98600000D01*
X184300000Y-98747832D01*
X184303931Y-98784399D01*
X184304589Y-98801235D01*
X184304448Y-98806103D01*
X184299500Y-98852127D01*
X184299500Y-98977284D01*
X184299448Y-98979083D01*
X184289169Y-99010680D01*
X184279815Y-99042539D01*
X184278410Y-99043755D01*
X184277835Y-99045526D01*
X184252087Y-99066565D01*
X184227011Y-99088294D01*
X184224945Y-99088743D01*
X184223731Y-99089736D01*
X184216668Y-99090543D01*
X184175500Y-99099500D01*
X183990951Y-99099500D01*
X183923912Y-99079815D01*
X183891684Y-99049811D01*
X183822546Y-98957454D01*
X183786691Y-98930613D01*
X183707335Y-98871206D01*
X183707328Y-98871202D01*
X183572482Y-98820908D01*
X183572483Y-98820908D01*
X183512883Y-98814501D01*
X183512881Y-98814500D01*
X183512873Y-98814500D01*
X183512864Y-98814500D01*
X182417129Y-98814500D01*
X182417123Y-98814501D01*
X182357516Y-98820908D01*
X182222671Y-98871202D01*
X182222664Y-98871206D01*
X182107455Y-98957452D01*
X182063766Y-99015813D01*
X182007832Y-99057683D01*
X181938140Y-99062667D01*
X181876817Y-99029181D01*
X181843333Y-98967857D01*
X181840500Y-98941501D01*
X181840500Y-97949500D01*
X181860185Y-97882461D01*
X181912989Y-97836706D01*
X181964500Y-97825500D01*
X181998920Y-97825500D01*
X182096462Y-97806096D01*
X182143913Y-97796658D01*
X182208549Y-97769884D01*
X182278017Y-97762416D01*
X182340497Y-97793691D01*
X182376149Y-97853780D01*
X182380001Y-97884446D01*
X182380001Y-97894649D01*
X182382854Y-97930910D01*
X182427969Y-98086196D01*
X182510278Y-98225374D01*
X182510285Y-98225383D01*
X182624616Y-98339714D01*
X182624625Y-98339721D01*
X182763804Y-98422031D01*
X182919089Y-98467145D01*
X182940000Y-98468789D01*
X183440000Y-98468789D01*
X183460910Y-98467145D01*
X183623688Y-98419855D01*
X183624078Y-98421197D01*
X183685084Y-98413661D01*
X183706301Y-98419891D01*
X183706312Y-98419855D01*
X183869089Y-98467145D01*
X183890000Y-98468789D01*
X183890000Y-97940000D01*
X183440000Y-97940000D01*
X183440000Y-98468789D01*
X182940000Y-98468789D01*
X182940000Y-97821111D01*
X182959685Y-97754072D01*
X183012489Y-97708317D01*
X183029114Y-97702947D01*
X183028909Y-97702271D01*
X183034737Y-97700502D01*
X183034744Y-97700501D01*
X183037310Y-97699437D01*
X183040029Y-97698897D01*
X183040567Y-97698734D01*
X183040583Y-97698786D01*
X183084760Y-97690000D01*
X183190000Y-97690000D01*
X183191291Y-97688708D01*
X183199711Y-97660033D01*
X183209277Y-97626705D01*
X183209592Y-97626381D01*
X183209685Y-97626068D01*
X183232227Y-97599891D01*
X183238340Y-97594528D01*
X183259669Y-97580277D01*
X183295996Y-97543949D01*
X183299035Y-97541284D01*
X183327205Y-97528210D01*
X183354450Y-97513334D01*
X183360712Y-97512660D01*
X183362412Y-97511872D01*
X183364884Y-97512212D01*
X183380808Y-97510500D01*
X183424682Y-97510500D01*
X183424690Y-97510500D01*
X183460993Y-97507643D01*
X183460995Y-97507642D01*
X183460997Y-97507642D01*
X183623887Y-97460318D01*
X183624293Y-97461718D01*
X183685091Y-97454211D01*
X183706095Y-97460378D01*
G37*
%TD.AperFunction*%
%TA.AperFunction,Conductor*%
G36*
X177632231Y-90007685D02*
G01*
X177652873Y-90024319D01*
X178027577Y-90399024D01*
X178027578Y-90399024D01*
X178071175Y-90293775D01*
X178071179Y-90293760D01*
X178099999Y-90148873D01*
X178100000Y-90148871D01*
X178100000Y-90112000D01*
X178119685Y-90044961D01*
X178172489Y-89999206D01*
X178224000Y-89988000D01*
X179176000Y-89988000D01*
X179243039Y-90007685D01*
X179288794Y-90060489D01*
X179300000Y-90112000D01*
X179300000Y-90148873D01*
X179328820Y-90293759D01*
X179328822Y-90293767D01*
X179372421Y-90399024D01*
X179687819Y-90083627D01*
X179749142Y-90050142D01*
X179818834Y-90055126D01*
X179874767Y-90096998D01*
X179899184Y-90162462D01*
X179899500Y-90171308D01*
X179899500Y-90527691D01*
X179879815Y-90594730D01*
X179863181Y-90615372D01*
X179725975Y-90752577D01*
X179822953Y-90792747D01*
X179877356Y-90836588D01*
X179899421Y-90902882D01*
X179899500Y-90907308D01*
X179899500Y-91942690D01*
X179879815Y-92009729D01*
X179827011Y-92055484D01*
X179822953Y-92057251D01*
X179725974Y-92097421D01*
X179863181Y-92234627D01*
X179896666Y-92295950D01*
X179899500Y-92322308D01*
X179899500Y-93227691D01*
X179879815Y-93294730D01*
X179863181Y-93315372D01*
X179725975Y-93452577D01*
X179822953Y-93492747D01*
X179877356Y-93536588D01*
X179899421Y-93602882D01*
X179899500Y-93607308D01*
X179899500Y-94873249D01*
X179879815Y-94940288D01*
X179827011Y-94986043D01*
X179757853Y-94995987D01*
X179751309Y-94994866D01*
X179648922Y-94974500D01*
X179648918Y-94974500D01*
X179501082Y-94974500D01*
X179501080Y-94974500D01*
X179356093Y-95003340D01*
X179356086Y-95003342D01*
X179315128Y-95020307D01*
X179245659Y-95027774D01*
X179220226Y-95020306D01*
X179118917Y-94978343D01*
X179118907Y-94978340D01*
X178973920Y-94949500D01*
X178973918Y-94949500D01*
X178826082Y-94949500D01*
X178826080Y-94949500D01*
X178681092Y-94978340D01*
X178681082Y-94978343D01*
X178544511Y-95034912D01*
X178544498Y-95034919D01*
X178421584Y-95117048D01*
X178320202Y-95218430D01*
X178258879Y-95251914D01*
X178189187Y-95246930D01*
X178163631Y-95233850D01*
X178045506Y-95154922D01*
X178045488Y-95154912D01*
X177908917Y-95098343D01*
X177908907Y-95098340D01*
X177763920Y-95069500D01*
X177763918Y-95069500D01*
X177616082Y-95069500D01*
X177616080Y-95069500D01*
X177471093Y-95098340D01*
X177471085Y-95098342D01*
X177427066Y-95116575D01*
X177357596Y-95124042D01*
X177326662Y-95114137D01*
X177318358Y-95110215D01*
X177280495Y-95084916D01*
X177152751Y-95032002D01*
X177150020Y-95030713D01*
X177126071Y-95009418D01*
X177101118Y-94989309D01*
X177100134Y-94986354D01*
X177097807Y-94984285D01*
X177089171Y-94953415D01*
X177079053Y-94923015D01*
X177079822Y-94919998D01*
X177078984Y-94916999D01*
X177088406Y-94886367D01*
X177096332Y-94855316D01*
X177099024Y-94851849D01*
X177099527Y-94850217D01*
X177101753Y-94848337D01*
X177115289Y-94830912D01*
X177325512Y-94620690D01*
X177347199Y-94583127D01*
X177399632Y-94492310D01*
X177438000Y-94349120D01*
X177438000Y-93623953D01*
X177457685Y-93556914D01*
X177510489Y-93511159D01*
X177537810Y-93502335D01*
X177568765Y-93496177D01*
X177674024Y-93452577D01*
X177474319Y-93252872D01*
X177440834Y-93191549D01*
X177438000Y-93165191D01*
X177438000Y-92823861D01*
X177450000Y-92794891D01*
X177450000Y-92774999D01*
X177703554Y-92774999D01*
X177703554Y-92775001D01*
X178027577Y-93099024D01*
X178027578Y-93099024D01*
X178071175Y-92993775D01*
X178071179Y-92993760D01*
X178099999Y-92848873D01*
X178100000Y-92848871D01*
X178100000Y-92701128D01*
X178099999Y-92701126D01*
X179300000Y-92701126D01*
X179300000Y-92848873D01*
X179328820Y-92993759D01*
X179328822Y-92993767D01*
X179372421Y-93099024D01*
X179651500Y-92819946D01*
X179651500Y-92730053D01*
X179372421Y-92450974D01*
X179372420Y-92450974D01*
X179328823Y-92556228D01*
X179328820Y-92556240D01*
X179300000Y-92701126D01*
X178099999Y-92701126D01*
X178071179Y-92556240D01*
X178071178Y-92556236D01*
X178027577Y-92450975D01*
X177703554Y-92774999D01*
X177450000Y-92774999D01*
X177450000Y-92755109D01*
X177438000Y-92726138D01*
X177438000Y-92384807D01*
X177457685Y-92317768D01*
X177474319Y-92297126D01*
X177674023Y-92097421D01*
X177568767Y-92053822D01*
X177568762Y-92053820D01*
X177537807Y-92047663D01*
X177475896Y-92015277D01*
X177441323Y-91954561D01*
X177438000Y-91926046D01*
X177438000Y-90923953D01*
X177457685Y-90856914D01*
X177510489Y-90811159D01*
X177537810Y-90802335D01*
X177568765Y-90796177D01*
X177674024Y-90752577D01*
X177474319Y-90552872D01*
X177440834Y-90491549D01*
X177438000Y-90465191D01*
X177438000Y-90123861D01*
X177450000Y-90094891D01*
X177450000Y-90070837D01*
X177450240Y-90070312D01*
X177457685Y-90044961D01*
X177464525Y-90039033D01*
X177468287Y-90030797D01*
X177490521Y-90016507D01*
X177510489Y-89999206D01*
X177521003Y-89996918D01*
X177527065Y-89993023D01*
X177562000Y-89988000D01*
X177565192Y-89988000D01*
X177632231Y-90007685D01*
G37*
%TD.AperFunction*%
%TA.AperFunction,Conductor*%
G36*
X175081916Y-83227947D02*
G01*
X175129140Y-83279442D01*
X175141027Y-83348293D01*
X175120945Y-83402998D01*
X175109917Y-83419502D01*
X175109912Y-83419511D01*
X175053343Y-83556082D01*
X175053340Y-83556092D01*
X175024500Y-83701079D01*
X175024500Y-83701082D01*
X175024500Y-83848918D01*
X175024500Y-83848920D01*
X175024499Y-83848920D01*
X175053340Y-83993907D01*
X175053343Y-83993917D01*
X175109912Y-84130488D01*
X175109919Y-84130501D01*
X175192048Y-84253415D01*
X175192051Y-84253419D01*
X175296580Y-84357948D01*
X175296584Y-84357951D01*
X175419498Y-84440080D01*
X175419511Y-84440087D01*
X175556082Y-84496656D01*
X175556087Y-84496658D01*
X175556091Y-84496658D01*
X175556092Y-84496659D01*
X175701079Y-84525500D01*
X175701082Y-84525500D01*
X175848920Y-84525500D01*
X175946462Y-84506096D01*
X175993913Y-84496658D01*
X176127547Y-84441304D01*
X176197017Y-84433836D01*
X176222452Y-84441304D01*
X176356087Y-84496658D01*
X176356091Y-84496658D01*
X176356092Y-84496659D01*
X176501079Y-84525500D01*
X176501082Y-84525500D01*
X176648920Y-84525500D01*
X176746462Y-84506096D01*
X176793913Y-84496658D01*
X176885796Y-84458599D01*
X176936124Y-84437753D01*
X176936747Y-84439257D01*
X176997435Y-84426615D01*
X177038495Y-84438670D01*
X177038876Y-84437753D01*
X177181082Y-84496656D01*
X177181087Y-84496658D01*
X177181091Y-84496658D01*
X177181092Y-84496659D01*
X177326079Y-84525500D01*
X177326082Y-84525500D01*
X177473920Y-84525500D01*
X177571462Y-84506096D01*
X177618913Y-84496658D01*
X177755495Y-84440084D01*
X177878416Y-84357951D01*
X177982951Y-84253416D01*
X178065084Y-84130495D01*
X178065087Y-84130488D01*
X178079653Y-84095323D01*
X178123493Y-84040919D01*
X178189787Y-84018854D01*
X178257487Y-84036133D01*
X178297316Y-84073884D01*
X178317048Y-84103415D01*
X178317051Y-84103419D01*
X178421580Y-84207948D01*
X178421584Y-84207951D01*
X178544498Y-84290080D01*
X178544502Y-84290082D01*
X178544505Y-84290084D01*
X178681087Y-84346658D01*
X178681096Y-84346659D01*
X178685452Y-84348464D01*
X178739855Y-84392305D01*
X178761921Y-84458599D01*
X178762000Y-84463026D01*
X178762000Y-86126188D01*
X178742315Y-86193227D01*
X178689511Y-86238982D01*
X178656947Y-86247760D01*
X178657057Y-86248311D01*
X178506092Y-86278340D01*
X178506082Y-86278343D01*
X178397452Y-86323339D01*
X178327983Y-86330808D01*
X178302548Y-86323339D01*
X178193917Y-86278343D01*
X178193907Y-86278340D01*
X178048920Y-86249500D01*
X178048918Y-86249500D01*
X177901082Y-86249500D01*
X177901080Y-86249500D01*
X177756078Y-86278343D01*
X177755918Y-86278392D01*
X177755830Y-86278392D01*
X177750113Y-86279530D01*
X177749897Y-86278444D01*
X177686051Y-86279005D01*
X177626944Y-86241747D01*
X177597363Y-86178449D01*
X177598323Y-86135538D01*
X177625500Y-85998918D01*
X177625500Y-85851082D01*
X177625500Y-85851079D01*
X177596659Y-85706092D01*
X177596658Y-85706091D01*
X177596658Y-85706087D01*
X177573762Y-85650810D01*
X177540087Y-85569511D01*
X177540080Y-85569498D01*
X177457951Y-85446584D01*
X177457948Y-85446580D01*
X177353419Y-85342051D01*
X177353415Y-85342048D01*
X177230501Y-85259919D01*
X177230488Y-85259912D01*
X177093917Y-85203343D01*
X177093907Y-85203340D01*
X176948920Y-85174500D01*
X176948918Y-85174500D01*
X176801082Y-85174500D01*
X176801080Y-85174500D01*
X176656092Y-85203340D01*
X176656082Y-85203343D01*
X176519511Y-85259912D01*
X176519498Y-85259919D01*
X176396584Y-85342048D01*
X176396580Y-85342051D01*
X176292051Y-85446580D01*
X176292048Y-85446584D01*
X176209919Y-85569498D01*
X176209912Y-85569511D01*
X176153342Y-85706084D01*
X176153340Y-85706092D01*
X176145225Y-85746889D01*
X176112839Y-85808800D01*
X176092499Y-85825799D01*
X176021739Y-85873079D01*
X176021735Y-85873082D01*
X175917206Y-85977611D01*
X175917203Y-85977615D01*
X175835074Y-86100529D01*
X175835068Y-86100541D01*
X175802001Y-86180369D01*
X175758159Y-86234771D01*
X175734894Y-86247475D01*
X175644508Y-86284914D01*
X175644498Y-86284919D01*
X175521584Y-86367048D01*
X175521580Y-86367051D01*
X175417051Y-86471580D01*
X175417048Y-86471584D01*
X175334919Y-86594498D01*
X175334912Y-86594511D01*
X175278343Y-86731082D01*
X175278340Y-86731092D01*
X175249500Y-86876079D01*
X175249500Y-86876082D01*
X175249500Y-87023918D01*
X175249500Y-87023920D01*
X175249499Y-87023920D01*
X175278340Y-87168907D01*
X175278343Y-87168917D01*
X175334912Y-87305488D01*
X175334919Y-87305501D01*
X175416102Y-87426999D01*
X175436980Y-87493677D01*
X175437000Y-87495890D01*
X175437000Y-93240435D01*
X175417315Y-93307474D01*
X175400681Y-93328116D01*
X174337902Y-94390895D01*
X174276579Y-94424380D01*
X174274413Y-94424831D01*
X174131092Y-94453340D01*
X174131082Y-94453343D01*
X173994511Y-94509912D01*
X173994498Y-94509919D01*
X173871584Y-94592048D01*
X173871580Y-94592051D01*
X173797681Y-94665951D01*
X173736358Y-94699436D01*
X173666666Y-94694452D01*
X173622319Y-94665951D01*
X173548419Y-94592051D01*
X173548415Y-94592048D01*
X173425501Y-94509919D01*
X173425488Y-94509912D01*
X173288917Y-94453343D01*
X173288907Y-94453340D01*
X173143920Y-94424500D01*
X173143918Y-94424500D01*
X172996082Y-94424500D01*
X172996080Y-94424500D01*
X172851092Y-94453340D01*
X172851082Y-94453343D01*
X172714511Y-94509912D01*
X172714498Y-94509919D01*
X172591584Y-94592048D01*
X172591580Y-94592051D01*
X172520181Y-94663451D01*
X172458858Y-94696936D01*
X172389166Y-94691952D01*
X172344819Y-94663451D01*
X172273419Y-94592051D01*
X172273415Y-94592048D01*
X172150501Y-94509919D01*
X172150489Y-94509913D01*
X172126085Y-94499804D01*
X172071682Y-94455962D01*
X172053557Y-94406685D01*
X172051689Y-94407057D01*
X172021659Y-94256092D01*
X172021658Y-94256091D01*
X172021658Y-94256087D01*
X171968723Y-94128290D01*
X171965087Y-94119511D01*
X171965080Y-94119498D01*
X171922913Y-94056391D01*
X171902035Y-93989714D01*
X171920519Y-93922333D01*
X171922913Y-93918609D01*
X171965080Y-93855501D01*
X171965080Y-93855500D01*
X171965084Y-93855495D01*
X172021658Y-93718913D01*
X172034942Y-93652131D01*
X172050500Y-93573920D01*
X172050500Y-93533051D01*
X172070185Y-93466012D01*
X172122989Y-93420257D01*
X172173680Y-93409054D01*
X173550000Y-93400000D01*
X173554776Y-92430459D01*
X173561772Y-92407058D01*
X173564560Y-92382788D01*
X173571603Y-92374175D01*
X173574790Y-92363519D01*
X173593328Y-92347614D01*
X173608795Y-92328704D01*
X173621689Y-92323282D01*
X173627819Y-92318024D01*
X173640469Y-92313136D01*
X173647413Y-92310880D01*
X173718913Y-92296658D01*
X173819563Y-92254967D01*
X173824195Y-92253463D01*
X173854433Y-92252602D01*
X173884516Y-92249368D01*
X173891899Y-92251535D01*
X173894037Y-92251475D01*
X173896261Y-92252816D01*
X173909941Y-92256833D01*
X174006087Y-92296658D01*
X174006091Y-92296658D01*
X174006092Y-92296659D01*
X174151079Y-92325500D01*
X174151082Y-92325500D01*
X174298920Y-92325500D01*
X174396462Y-92306096D01*
X174443913Y-92296658D01*
X174580495Y-92240084D01*
X174703416Y-92157951D01*
X174807951Y-92053416D01*
X174890084Y-91930495D01*
X174894353Y-91920190D01*
X174913891Y-91873019D01*
X174946658Y-91793913D01*
X174975500Y-91648918D01*
X174975500Y-91501082D01*
X174975500Y-91501079D01*
X174946659Y-91356092D01*
X174946658Y-91356091D01*
X174946658Y-91356087D01*
X174918415Y-91287902D01*
X174890087Y-91219511D01*
X174890080Y-91219498D01*
X174811398Y-91101742D01*
X174790520Y-91035064D01*
X174790500Y-91032851D01*
X174790500Y-87783162D01*
X174790500Y-87783160D01*
X174790004Y-87781309D01*
X174790042Y-87779687D01*
X174789439Y-87775103D01*
X174790153Y-87775008D01*
X174791665Y-87711462D01*
X174806676Y-87680323D01*
X174807948Y-87678418D01*
X174807951Y-87678416D01*
X174890084Y-87555495D01*
X174946658Y-87418913D01*
X174964246Y-87330495D01*
X174975500Y-87273920D01*
X174975500Y-87126079D01*
X174946659Y-86981092D01*
X174946658Y-86981091D01*
X174946658Y-86981087D01*
X174934684Y-86952179D01*
X174890087Y-86844511D01*
X174890080Y-86844498D01*
X174807951Y-86721584D01*
X174807948Y-86721580D01*
X174703419Y-86617051D01*
X174703415Y-86617048D01*
X174580501Y-86534919D01*
X174580488Y-86534912D01*
X174443917Y-86478343D01*
X174443907Y-86478340D01*
X174298920Y-86449500D01*
X174298918Y-86449500D01*
X174151082Y-86449500D01*
X174151080Y-86449500D01*
X174006092Y-86478340D01*
X174006082Y-86478343D01*
X173869506Y-86534914D01*
X173869504Y-86534915D01*
X173853731Y-86545455D01*
X173823437Y-86554940D01*
X173793688Y-86566036D01*
X173790330Y-86565305D01*
X173787053Y-86566332D01*
X173756438Y-86557932D01*
X173725415Y-86551184D01*
X173721698Y-86548401D01*
X173719673Y-86547846D01*
X173697161Y-86530033D01*
X173620968Y-86453840D01*
X173587483Y-86392517D01*
X173584652Y-86365561D01*
X173599409Y-83369961D01*
X173619423Y-83303020D01*
X173672452Y-83257526D01*
X173719914Y-83246622D01*
X175014353Y-83210159D01*
X175081916Y-83227947D01*
G37*
%TD.AperFunction*%
%TA.AperFunction,Conductor*%
G36*
X183926367Y-80851421D02*
G01*
X183938377Y-80860000D01*
X184758012Y-80860000D01*
X184740795Y-80869940D01*
X184684940Y-80925795D01*
X184645444Y-80994204D01*
X184625000Y-81070504D01*
X184625000Y-81149496D01*
X184645444Y-81225796D01*
X184684940Y-81294205D01*
X184740795Y-81350060D01*
X184758012Y-81360000D01*
X183955138Y-81360000D01*
X183963430Y-81401690D01*
X183963430Y-81401692D01*
X184038807Y-81583671D01*
X184038814Y-81583684D01*
X184148248Y-81747462D01*
X184148251Y-81747466D01*
X184287533Y-81886748D01*
X184287537Y-81886751D01*
X184451315Y-81996185D01*
X184451328Y-81996192D01*
X184633306Y-82071569D01*
X184633318Y-82071572D01*
X184654318Y-82075750D01*
X184716229Y-82108135D01*
X184750803Y-82168850D01*
X184747064Y-82238620D01*
X184706198Y-82295292D01*
X184673461Y-82313549D01*
X184557911Y-82356646D01*
X184557906Y-82356649D01*
X184442812Y-82442809D01*
X184442809Y-82442812D01*
X184356649Y-82557906D01*
X184356645Y-82557913D01*
X184306403Y-82692620D01*
X184306401Y-82692627D01*
X184300000Y-82752155D01*
X184300000Y-83205500D01*
X184280315Y-83272539D01*
X184227511Y-83318294D01*
X184176000Y-83329500D01*
X183945302Y-83329500D01*
X183909008Y-83332356D01*
X183909002Y-83332357D01*
X183753609Y-83377504D01*
X183753604Y-83377506D01*
X183732628Y-83389911D01*
X183664903Y-83407092D01*
X183606389Y-83389911D01*
X183586191Y-83377966D01*
X183586190Y-83377965D01*
X183440001Y-83335493D01*
X183440000Y-83335494D01*
X183440000Y-83641645D01*
X183422734Y-83704763D01*
X183417507Y-83713600D01*
X183417504Y-83713608D01*
X183372357Y-83869002D01*
X183372356Y-83869008D01*
X183369500Y-83905302D01*
X183369500Y-84374697D01*
X183372356Y-84410991D01*
X183372357Y-84410997D01*
X183417504Y-84566390D01*
X183417504Y-84566391D01*
X183417505Y-84566393D01*
X183417506Y-84566395D01*
X183427414Y-84583149D01*
X183427433Y-84583180D01*
X183444615Y-84650904D01*
X183437908Y-84680597D01*
X183439682Y-84681113D01*
X183392357Y-84844002D01*
X183392356Y-84844008D01*
X183389500Y-84880302D01*
X183389500Y-85349697D01*
X183392356Y-85385991D01*
X183392357Y-85385997D01*
X183437504Y-85541390D01*
X183437504Y-85541391D01*
X183441276Y-85547769D01*
X183458457Y-85615493D01*
X183453619Y-85645484D01*
X183407335Y-85804791D01*
X183407334Y-85804797D01*
X183404500Y-85840811D01*
X183404500Y-85840819D01*
X183404500Y-85998919D01*
X183404501Y-86090000D01*
X183404501Y-86339181D01*
X183404618Y-86340663D01*
X183405000Y-86350393D01*
X183405000Y-86902844D01*
X183544194Y-86862405D01*
X183544196Y-86862404D01*
X183601386Y-86828582D01*
X183669109Y-86811398D01*
X183727629Y-86828581D01*
X183785607Y-86862869D01*
X183826268Y-86874682D01*
X183939791Y-86907664D01*
X183939794Y-86907664D01*
X183939796Y-86907665D01*
X183975819Y-86910500D01*
X184176000Y-86910499D01*
X184243039Y-86930183D01*
X184288794Y-86982987D01*
X184300000Y-87034499D01*
X184300000Y-87547835D01*
X184304183Y-87586748D01*
X184304799Y-87604831D01*
X184299906Y-87730331D01*
X184289502Y-87761250D01*
X184280315Y-87792539D01*
X184278422Y-87794178D01*
X184277624Y-87796553D01*
X184252145Y-87816947D01*
X184227511Y-87838294D01*
X184224720Y-87838901D01*
X184223078Y-87840216D01*
X184214629Y-87841096D01*
X184176000Y-87849500D01*
X184101080Y-87849500D01*
X183956092Y-87878340D01*
X183956082Y-87878343D01*
X183819511Y-87934912D01*
X183819498Y-87934919D01*
X183696584Y-88017048D01*
X183696580Y-88017051D01*
X183592051Y-88121580D01*
X183592048Y-88121584D01*
X183509919Y-88244498D01*
X183509912Y-88244511D01*
X183453343Y-88381082D01*
X183453340Y-88381092D01*
X183424500Y-88526079D01*
X183424500Y-88526082D01*
X183424500Y-88673918D01*
X183424500Y-88673920D01*
X183424499Y-88673920D01*
X183453340Y-88818907D01*
X183453343Y-88818917D01*
X183509912Y-88955488D01*
X183509919Y-88955501D01*
X183592048Y-89078415D01*
X183592051Y-89078419D01*
X183602008Y-89088376D01*
X183635493Y-89149699D01*
X183630509Y-89219391D01*
X183588637Y-89275324D01*
X183531869Y-89297370D01*
X183532057Y-89298311D01*
X183526708Y-89299374D01*
X183526492Y-89299459D01*
X183526083Y-89299499D01*
X183381092Y-89328340D01*
X183381082Y-89328343D01*
X183244506Y-89384914D01*
X183244504Y-89384915D01*
X183228731Y-89395455D01*
X183198437Y-89404940D01*
X183168688Y-89416036D01*
X183165330Y-89415305D01*
X183162053Y-89416332D01*
X183131438Y-89407932D01*
X183100415Y-89401184D01*
X183096698Y-89398401D01*
X183094673Y-89397846D01*
X183072166Y-89380038D01*
X182959316Y-89267188D01*
X182925834Y-89205867D01*
X182923000Y-89179509D01*
X182923000Y-88625890D01*
X182942685Y-88558851D01*
X182943898Y-88556999D01*
X183025080Y-88435501D01*
X183025080Y-88435500D01*
X183025084Y-88435495D01*
X183081658Y-88298913D01*
X183091821Y-88247821D01*
X183110500Y-88153920D01*
X183110500Y-88006079D01*
X183081659Y-87861092D01*
X183081658Y-87861091D01*
X183081658Y-87861087D01*
X183076859Y-87849500D01*
X183025086Y-87724509D01*
X183025085Y-87724508D01*
X183025084Y-87724505D01*
X182982747Y-87661144D01*
X182961870Y-87594469D01*
X182970329Y-87549874D01*
X182969890Y-87549741D01*
X182971131Y-87545648D01*
X182971294Y-87544791D01*
X182971658Y-87543913D01*
X182985980Y-87471909D01*
X183000500Y-87398920D01*
X183000500Y-87251079D01*
X182971659Y-87106092D01*
X182971658Y-87106091D01*
X182971658Y-87106087D01*
X182971656Y-87106082D01*
X182914439Y-86967946D01*
X182905000Y-86920494D01*
X182905000Y-86340000D01*
X182385069Y-86340000D01*
X182387832Y-86375122D01*
X182399681Y-86415906D01*
X182399480Y-86485776D01*
X182361538Y-86544445D01*
X182297899Y-86573288D01*
X182280604Y-86574500D01*
X182176080Y-86574500D01*
X182031092Y-86603340D01*
X182031082Y-86603343D01*
X181972309Y-86627688D01*
X181902840Y-86635157D01*
X181840361Y-86603881D01*
X181837176Y-86600808D01*
X181728419Y-86492051D01*
X181728415Y-86492048D01*
X181605501Y-86409919D01*
X181605488Y-86409912D01*
X181468917Y-86353343D01*
X181468907Y-86353340D01*
X181323920Y-86324500D01*
X181323918Y-86324500D01*
X181176082Y-86324500D01*
X181176080Y-86324500D01*
X181031092Y-86353340D01*
X181031082Y-86353343D01*
X180897452Y-86408694D01*
X180827982Y-86416163D01*
X180802548Y-86408694D01*
X180668917Y-86353343D01*
X180668907Y-86353340D01*
X180562808Y-86332235D01*
X180500897Y-86299849D01*
X180466323Y-86239133D01*
X180463000Y-86210618D01*
X180463000Y-85840000D01*
X182385069Y-85840000D01*
X182905000Y-85840000D01*
X182905000Y-85365000D01*
X182431210Y-85365000D01*
X182432854Y-85385910D01*
X182469405Y-85511721D01*
X182469205Y-85581590D01*
X182457061Y-85609435D01*
X182432592Y-85650810D01*
X182432592Y-85650811D01*
X182387833Y-85804871D01*
X182387832Y-85804877D01*
X182385069Y-85840000D01*
X180463000Y-85840000D01*
X180463000Y-84834564D01*
X180482685Y-84767525D01*
X180499319Y-84746883D01*
X180663053Y-84583149D01*
X180837099Y-84409102D01*
X180898420Y-84375619D01*
X180900587Y-84375168D01*
X180903322Y-84374624D01*
X181043913Y-84346658D01*
X181180495Y-84290084D01*
X181262316Y-84235412D01*
X181328993Y-84214535D01*
X181396373Y-84233019D01*
X181400098Y-84235413D01*
X181444498Y-84265080D01*
X181444511Y-84265087D01*
X181581082Y-84321656D01*
X181581087Y-84321658D01*
X181581091Y-84321658D01*
X181581092Y-84321659D01*
X181726079Y-84350500D01*
X181726082Y-84350500D01*
X181873920Y-84350500D01*
X181991987Y-84327014D01*
X182018913Y-84321658D01*
X182155495Y-84265084D01*
X182217109Y-84223914D01*
X182283785Y-84203036D01*
X182351165Y-84221520D01*
X182397856Y-84273498D01*
X182410000Y-84327014D01*
X182410000Y-84374624D01*
X182410001Y-84374647D01*
X182412854Y-84410910D01*
X182457969Y-84566197D01*
X182457970Y-84566199D01*
X182467994Y-84583149D01*
X182485177Y-84650873D01*
X182478416Y-84680811D01*
X182480144Y-84681314D01*
X182432855Y-84844081D01*
X182432854Y-84844087D01*
X182431209Y-84864999D01*
X182431210Y-84865000D01*
X182940000Y-84865000D01*
X182940000Y-83335494D01*
X182939998Y-83335493D01*
X182793809Y-83377965D01*
X182793808Y-83377966D01*
X182697165Y-83435120D01*
X182683901Y-83438484D01*
X182672626Y-83446232D01*
X182650701Y-83446907D01*
X182629441Y-83452301D01*
X182616465Y-83447961D01*
X182602790Y-83448383D01*
X182583980Y-83437097D01*
X182563179Y-83430141D01*
X182553341Y-83418714D01*
X182542876Y-83412436D01*
X182528296Y-83389626D01*
X182522890Y-83383347D01*
X182521066Y-83379659D01*
X182465084Y-83244505D01*
X182423382Y-83182093D01*
X182419809Y-83174867D01*
X182415110Y-83148075D01*
X182406984Y-83122121D01*
X182409165Y-83114169D01*
X182407741Y-83106047D01*
X182418272Y-83080971D01*
X182425468Y-83054741D01*
X182433686Y-83044269D01*
X182434796Y-83041628D01*
X182436887Y-83040191D01*
X182442594Y-83032920D01*
X182474998Y-83000000D01*
X182475000Y-83000000D01*
X182484390Y-82240718D01*
X182504902Y-82173932D01*
X182520689Y-82154586D01*
X183795357Y-80879919D01*
X183856675Y-80846437D01*
X183926367Y-80851421D01*
G37*
%TD.AperFunction*%
%TA.AperFunction,Conductor*%
G36*
X185323509Y-79454280D02*
G01*
X185379442Y-79496152D01*
X185403859Y-79561616D01*
X185400559Y-79596177D01*
X185400561Y-79596178D01*
X185400555Y-79596219D01*
X185399951Y-79602552D01*
X185399500Y-79604234D01*
X185399500Y-79755765D01*
X185438719Y-79902136D01*
X185476602Y-79967750D01*
X185514485Y-80033365D01*
X185621635Y-80140515D01*
X185663000Y-80164397D01*
X185711216Y-80214964D01*
X185725000Y-80271784D01*
X185725000Y-80810000D01*
X185225000Y-80810000D01*
X185225000Y-80110000D01*
X184864637Y-80110000D01*
X184797598Y-80090315D01*
X184751843Y-80037511D01*
X184741899Y-79968353D01*
X184770924Y-79904797D01*
X184776934Y-79898341D01*
X185192497Y-79482778D01*
X185253817Y-79449296D01*
X185323509Y-79454280D01*
G37*
%TD.AperFunction*%
%TD*%
M02*
