M48
; DRILL file {KiCad 8.99.0-3334-g98ae574c78} date 2024-12-15T17:16:10-0500
; FORMAT={-:-/ absolute / inch / decimal}
; #@! TF.CreationDate,2024-12-15T17:16:10-05:00
; #@! TF.GenerationSoftware,Kicad,Pcbnew,8.99.0-3334-g98ae574c78
; #@! TF.FileFunction,Plated,1,4,PTH
FMAT,2
INCH
; #@! TA.AperFunction,Plated,PTH,ComponentDrill
T1C0.0079
; #@! TA.AperFunction,Plated,PTH,ViaDrill
T2C0.0118
; #@! TA.AperFunction,Plated,PTH,ComponentDrill
T3C0.0236
; #@! TA.AperFunction,Plated,PTH,ComponentDrill
T4C0.0402
; #@! TA.AperFunction,Plated,PTH,ComponentDrill
T5C0.0551
%
G90
G05
T1
X6.9823Y-3.5463
X6.9823Y-3.6526
X7.0886Y-3.5463
X7.0886Y-3.6526
T2
X5.2898Y-2.85
X5.2898Y-2.8972
X5.2898Y-2.9406
X5.2923Y-2.9931
X5.2923Y-3.0404
X5.2923Y-3.0837
X5.2943Y-3.1183
X5.2943Y-3.2352
X5.2949Y-3.1591
X5.2949Y-3.276
X5.2957Y-3.1972
X5.2957Y-3.3142
X5.3593Y-2.8652
X5.3947Y-3.6388
X5.4026Y-2.8652
X5.4319Y-3.1071
X5.4429Y-3.1516
X5.4433Y-3.1972
X5.4498Y-2.8652
X5.478Y-3.1331
X5.4823Y-3.1764
X5.5207Y-4.0453
X5.5217Y-3.9144
X5.5226Y-4.0069
X5.5236Y-3.9596
X5.5236Y-4.1358
X5.5246Y-4.0886
X5.5246Y-4.185
X5.5276Y-2.9283
X5.5315Y-3.6368
X5.5689Y-2.8256
X5.6063Y-4.2057
X5.6093Y-4.0994
X5.6102Y-3.8602
X5.6112Y-3.9793
X5.6276Y-2.9535
X5.6291Y-3.1165
X5.6343Y-4.2248
X5.6486Y-2.8839
X5.6496Y-2.9409
X5.6512Y-2.9665
X5.6663Y-3.6358
X5.676Y-3.2787
X5.6807Y-2.7799
X5.6811Y-3.0256
X5.69Y-3.1644
X5.6917Y-3.0988
X5.7018Y-3.9793
X5.7057Y-4.1043
X5.7087Y-3.8307
X5.7411Y-4.1024
X5.7441Y-3.8287
X5.748Y-3.878
X5.749Y-3.9783
X5.7618Y-3.2372
X5.7726Y-3.9045
X5.7766Y-4.0049
X5.7766Y-4.0374
X5.7766Y-4.0787
X5.7776Y-4.1299
X5.7776Y-4.1624
X5.7776Y-4.1969
X5.7781Y-3.0618
X5.7785Y-3.875
X5.7925Y-2.8843
X5.8087Y-2.7799
X5.8219Y-3.439
X5.8343Y-2.9205
X5.8346Y-3.4144
X5.8394Y-3.1154
X5.8445Y-3.438
X5.8819Y-3.2303
X5.9063Y-2.7799
X5.9163Y-3.0256
X5.9213Y-3.062
X5.926Y-3.1949
X5.9311Y-3.2785
X5.9512Y-2.8811
X5.9675Y-3.0138
X5.9781Y-4.0505
X5.9807Y-4.0244
X5.9843Y-3.3169
X5.9894Y-3.687
X6.0Y-3.0079
X6.0051Y-4.039
X6.0202Y-4.0084
X6.0358Y-3.2181
X6.0394Y-3.688
X6.0404Y-3.313
X6.0413Y-3.5423
X6.0484Y-2.7799
X6.0551Y-3.0272
X6.0764Y-4.1535
X6.078Y-2.8803
X6.0856Y-3.313
X6.1004Y-3.7372
X6.1023Y-3.9263
X6.1094Y-3.0276
X6.126Y-3.7372
X6.127Y-3.314
X6.1299Y-3.8091
X6.1614Y-3.7559
X6.1807Y-3.0256
X6.188Y-3.7303
X6.189Y-3.6929
X6.1899Y-3.8387
X6.1909Y-4.1551
X6.1984Y-2.7799
X6.1988Y-3.5394
X6.2181Y-3.2094
X6.2181Y-3.2543
X6.2181Y-3.3063
X6.2303Y-4.0423
X6.2343Y-4.1409
X6.2362Y-3.7057
X6.2372Y-4.1004
X6.2421Y-3.4035
X6.2589Y-3.4203
X6.2826Y-3.746
X6.3041Y-3.1309
X6.3209Y-2.9626
X6.3268Y-2.7799
X6.3297Y-3.2224
X6.337Y-2.8882
X6.3376Y-2.9498
X6.3406Y-3.0276
X6.3484Y-3.3996
X6.3514Y-3.1713
X6.3543Y-3.1083
X6.363Y-4.0413
X6.3734Y-4.0644
X6.3808Y-3.7185
X6.3808Y-3.7858
X6.3808Y-3.8988
X6.3808Y-3.9827
X6.3929Y-4.0425
X6.3961Y-4.0697
X6.4203Y-3.2352
X6.4272Y-3.4823
X6.4291Y-3.5335
X6.4311Y-3.3996
X6.4423Y-3.0633
X6.4488Y-4.1663
X6.4508Y-2.7799
X6.4508Y-3.6201
X6.472Y-4.1413
X6.4835Y-4.0339
X6.4898Y-3.4201
X6.4902Y-2.889
X6.4961Y-3.6094
X6.5008Y-3.1157
X6.503Y-4.1732
X6.5118Y-3.9862
X6.5285Y-3.1781
X6.5472Y-2.9232
X6.5531Y-3.9882
X6.5807Y-3.0344
X6.5839Y-2.7799
X6.6024Y-3.1791
X6.6033Y-3.6211
X6.6043Y-3.9843
X6.6161Y-4.1949
X6.6181Y-3.0797
X6.6191Y-3.31
X6.6437Y-3.2726
X6.6496Y-3.31
X6.6508Y-3.222
X6.6526Y-3.6565
X6.6528Y-3.0402
X6.6531Y-3.1665
X6.6535Y-3.1248
X6.6535Y-3.6152
X6.6634Y-3.75
X6.6821Y-3.311
X6.6988Y-2.8652
X6.7043Y-3.389
X6.7087Y-4.1988
X6.7098Y-3.0425
X6.7154Y-2.7819
X6.7156Y-4.0522
X6.7441Y-3.6811
X6.7441Y-3.7195
X6.7549Y-3.4567
X6.7636Y-3.747
X6.7638Y-4.0512
X6.7642Y-3.0409
X6.8043Y-3.3169
X6.8138Y-3.747
X6.815Y-4.0502
X6.8238Y-3.563
X6.8248Y-3.502
X6.8248Y-3.5374
X6.8307Y-3.6053
X6.8433Y-3.3795
X6.8437Y-3.0362
X6.8445Y-2.9248
X6.8461Y-2.9791
X6.8504Y-3.7087
X6.8563Y-3.3169
X6.8593Y-3.4331
X6.8593Y-3.6053
X6.8642Y-3.747
X6.8709Y-2.7827
X6.8858Y-4.2264
X6.9203Y-3.2628
X6.9222Y-3.1033
X6.9232Y-4.1575
X6.9242Y-4.0551
X6.9291Y-3.4232
X6.9307Y-2.9492
X6.9311Y-3.8937
X6.938Y-3.7697
X6.9488Y-3.4038
X6.9518Y-3.2628
X6.9583Y-2.8736
X6.9626Y-3.127
X6.9636Y-3.3829
X6.9656Y-3.7697
X6.9783Y-3.5118
X6.9843Y-3.2628
X6.9957Y-3.7724
X6.9965Y-3.7031
X6.998Y-3.8425
X6.999Y-3.5
X7.002Y-3.3287
X7.0067Y-3.2965
X7.0069Y-3.4252
X7.0138Y-3.9104
X7.0157Y-4.0807
X7.0236Y-3.4951
X7.0364Y-3.4252
X7.0423Y-3.3297
X7.0425Y-2.865
X7.0433Y-3.7677
X7.0512Y-2.7799
X7.0571Y-3.8533
X7.06Y-3.4262
X7.0699Y-3.7687
X7.0816Y-3.268
X7.0837Y-3.4262
X7.0994Y-2.939
X7.1073Y-3.4262
X7.1181Y-4.1693
X7.121Y-3.267
X7.124Y-4.2461
X7.1309Y-2.9813
X7.1319Y-4.0236
X7.1358Y-3.4281
X7.1496Y-3.001
X7.1551Y-3.3339
X7.1574Y-3.268
X7.1594Y-3.876
X7.1624Y-3.8219
X7.1673Y-2.9813
X7.1724Y-3.7323
X7.1752Y-3.438
X7.1781Y-3.7815
X7.1795Y-3.4677
X7.1958Y-3.267
X7.2016Y-3.0449
X7.2037Y-3.6388
X7.2185Y-3.5945
X7.2195Y-2.9764
X7.2307Y-3.428
X7.2343Y-3.2844
X7.2362Y-3.1289
X7.2392Y-3.187
X7.2402Y-3.8858
X7.25Y-3.7618
X7.2508Y-3.4496
X7.251Y-3.4882
X7.2549Y-3.019
X7.2559Y-3.1161
X7.2656Y-2.9044
X7.2756Y-3.6024
X7.2834Y-3.2208
X7.2844Y-3.0918
X7.3248Y-4.1624
X7.3641Y-3.0082
X7.3839Y-4.1614
X7.4406Y-3.3075
X7.4419Y-3.7175
X7.4449Y-3.8776
X7.4461Y-3.7681
X7.4472Y-3.4425
X7.4472Y-3.5
X7.4488Y-3.6358
X7.4902Y-4.1142
X7.4911Y-2.9521
X7.4911Y-2.9934
X7.4911Y-3.0367
X7.5079Y-3.5984
X7.5079Y-3.6398
X7.5079Y-3.6831
X7.5079Y-3.7618
X7.5079Y-3.8031
X7.5079Y-3.8465
X7.5098Y-3.4429
X7.5098Y-3.4843
X7.5098Y-3.5276
T4
X5.398Y-3.1614
X5.398Y-3.2795
X5.6053Y-3.9242
X5.6053Y-4.0423
X5.6053Y-4.1604
X5.7234Y-3.9242
X5.7234Y-4.0423
X5.7234Y-4.1604
T5
X5.9354Y-4.1024
X6.1354Y-4.1024
X6.3354Y-4.1024
X6.5354Y-4.1024
T3
G00X7.3188Y-2.8288
M15
G01X7.3622Y-2.8288
M16
G05
G00X7.3188Y-3.169
M15
G01X7.3622Y-3.169
M16
G05
G00X7.4893Y-2.8288
M15
G01X7.5208Y-2.8288
M16
G05
G00X7.4893Y-3.169
M15
G01X7.5208Y-3.169
M16
G05
M30
