%TF.GenerationSoftware,KiCad,Pcbnew,8.99.0-3334-g98ae574c78*%
%TF.CreationDate,2024-12-09T23:46:28-05:00*%
%TF.ProjectId,SmartPowerBoard,536d6172-7450-46f7-9765-72426f617264,rev?*%
%TF.SameCoordinates,Original*%
%TF.FileFunction,Soldermask,Top*%
%TF.FilePolarity,Negative*%
%FSLAX46Y46*%
G04 Gerber Fmt 4.6, Leading zero omitted, Abs format (unit mm)*
G04 Created by KiCad (PCBNEW 8.99.0-3334-g98ae574c78) date 2024-12-09 23:46:28*
%MOMM*%
%LPD*%
G01*
G04 APERTURE LIST*
G04 Aperture macros list*
%AMRoundRect*
0 Rectangle with rounded corners*
0 $1 Rounding radius*
0 $2 $3 $4 $5 $6 $7 $8 $9 X,Y pos of 4 corners*
0 Add a 4 corners polygon primitive as box body*
4,1,4,$2,$3,$4,$5,$6,$7,$8,$9,$2,$3,0*
0 Add four circle primitives for the rounded corners*
1,1,$1+$1,$2,$3*
1,1,$1+$1,$4,$5*
1,1,$1+$1,$6,$7*
1,1,$1+$1,$8,$9*
0 Add four rect primitives between the rounded corners*
20,1,$1+$1,$2,$3,$4,$5,0*
20,1,$1+$1,$4,$5,$6,$7,0*
20,1,$1+$1,$6,$7,$8,$9,0*
20,1,$1+$1,$8,$9,$2,$3,0*%
G04 Aperture macros list end*
%ADD10C,1.576200*%
%ADD11C,0.836200*%
%ADD12C,0.010000*%
%ADD13RoundRect,0.135000X-0.185000X0.135000X-0.185000X-0.135000X0.185000X-0.135000X0.185000X0.135000X0*%
%ADD14RoundRect,0.135000X0.135000X0.185000X-0.135000X0.185000X-0.135000X-0.185000X0.135000X-0.185000X0*%
%ADD15R,0.250000X0.850000*%
%ADD16R,0.850000X0.250000*%
%ADD17R,1.075000X1.026000*%
%ADD18RoundRect,0.135000X-0.135000X-0.185000X0.135000X-0.185000X0.135000X0.185000X-0.135000X0.185000X0*%
%ADD19RoundRect,0.140000X0.170000X-0.140000X0.170000X0.140000X-0.170000X0.140000X-0.170000X-0.140000X0*%
%ADD20RoundRect,0.140000X-0.140000X-0.170000X0.140000X-0.170000X0.140000X0.170000X-0.140000X0.170000X0*%
%ADD21RoundRect,0.135000X0.185000X-0.135000X0.185000X0.135000X-0.185000X0.135000X-0.185000X-0.135000X0*%
%ADD22RoundRect,0.140000X0.140000X0.170000X-0.140000X0.170000X-0.140000X-0.170000X0.140000X-0.170000X0*%
%ADD23R,3.200000X2.850000*%
%ADD24RoundRect,0.140000X-0.170000X0.140000X-0.170000X-0.140000X0.170000X-0.140000X0.170000X0.140000X0*%
%ADD25RoundRect,0.225000X0.250000X-0.225000X0.250000X0.225000X-0.250000X0.225000X-0.250000X-0.225000X0*%
%ADD26RoundRect,0.099250X0.727750X0.297750X-0.727750X0.297750X-0.727750X-0.297750X0.727750X-0.297750X0*%
%ADD27RoundRect,0.100000X0.130000X0.100000X-0.130000X0.100000X-0.130000X-0.100000X0.130000X-0.100000X0*%
%ADD28RoundRect,0.087500X-0.425000X-0.087500X0.425000X-0.087500X0.425000X0.087500X-0.425000X0.087500X0*%
%ADD29RoundRect,0.087500X-0.087500X-0.425000X0.087500X-0.425000X0.087500X0.425000X-0.087500X0.425000X0*%
%ADD30R,2.100000X2.100000*%
%ADD31C,2.100000*%
%ADD32RoundRect,0.200000X0.800000X-0.200000X0.800000X0.200000X-0.800000X0.200000X-0.800000X-0.200000X0*%
%ADD33RoundRect,0.225000X-0.225000X-0.250000X0.225000X-0.250000X0.225000X0.250000X-0.225000X0.250000X0*%
%ADD34R,1.520000X1.520000*%
%ADD35C,1.520000*%
%ADD36R,1.550000X2.550000*%
%ADD37R,2.400000X1.500000*%
%ADD38RoundRect,0.225000X0.225000X0.250000X-0.225000X0.250000X-0.225000X-0.250000X0.225000X-0.250000X0*%
%ADD39RoundRect,0.225000X-0.250000X0.225000X-0.250000X-0.225000X0.250000X-0.225000X0.250000X0.225000X0*%
%ADD40RoundRect,0.099250X0.297750X-0.727750X0.297750X0.727750X-0.297750X0.727750X-0.297750X-0.727750X0*%
%ADD41RoundRect,0.102000X0.750000X-0.600000X0.750000X0.600000X-0.750000X0.600000X-0.750000X-0.600000X0*%
%ADD42RoundRect,0.050000X-0.387500X-0.050000X0.387500X-0.050000X0.387500X0.050000X-0.387500X0.050000X0*%
%ADD43RoundRect,0.050000X-0.050000X-0.387500X0.050000X-0.387500X0.050000X0.387500X-0.050000X0.387500X0*%
%ADD44R,3.200000X3.200000*%
%ADD45R,1.750000X1.100000*%
%ADD46R,2.800000X1.850000*%
%ADD47RoundRect,0.102000X0.580000X1.085000X-0.580000X1.085000X-0.580000X-1.085000X0.580000X-1.085000X0*%
%ADD48RoundRect,0.150000X-0.150000X0.650000X-0.150000X-0.650000X0.150000X-0.650000X0.150000X0.650000X0*%
%ADD49RoundRect,0.150000X0.425000X-0.150000X0.425000X0.150000X-0.425000X0.150000X-0.425000X-0.150000X0*%
%ADD50RoundRect,0.075000X0.500000X-0.075000X0.500000X0.075000X-0.500000X0.075000X-0.500000X-0.075000X0*%
%ADD51O,2.100000X1.000000*%
%ADD52O,1.800000X1.000000*%
%ADD53R,1.100000X1.750000*%
G04 APERTURE END LIST*
D10*
%TO.C,J6*%
X138843100Y-102675000D02*
G75*
G02*
X137266900Y-102675000I-788100J0D01*
G01*
X137266900Y-102675000D02*
G75*
G02*
X138843100Y-102675000I788100J0D01*
G01*
D11*
X142793100Y-99675000D02*
G75*
G02*
X141956900Y-99675000I-418100J0D01*
G01*
X141956900Y-99675000D02*
G75*
G02*
X142793100Y-99675000I418100J0D01*
G01*
X142793100Y-102675000D02*
G75*
G02*
X141956900Y-102675000I-418100J0D01*
G01*
X141956900Y-102675000D02*
G75*
G02*
X142793100Y-102675000I418100J0D01*
G01*
X145793100Y-99675000D02*
G75*
G02*
X144956900Y-99675000I-418100J0D01*
G01*
X144956900Y-99675000D02*
G75*
G02*
X145793100Y-99675000I418100J0D01*
G01*
X145793100Y-102675000D02*
G75*
G02*
X144956900Y-102675000I-418100J0D01*
G01*
X144956900Y-102675000D02*
G75*
G02*
X145793100Y-102675000I418100J0D01*
G01*
X145793100Y-105675000D02*
G75*
G02*
X144956900Y-105675000I-418100J0D01*
G01*
X144956900Y-105675000D02*
G75*
G02*
X145793100Y-105675000I418100J0D01*
G01*
D12*
X143211200Y-106511200D02*
X141538800Y-106511200D01*
X141538800Y-104838800D01*
X143211200Y-104838800D01*
X143211200Y-106511200D01*
G36*
X143211200Y-106511200D02*
G01*
X141538800Y-106511200D01*
X141538800Y-104838800D01*
X143211200Y-104838800D01*
X143211200Y-106511200D01*
G37*
%TD*%
D13*
%TO.C,R10*%
X183325000Y-78065000D03*
X183325000Y-79085000D03*
%TD*%
D14*
%TO.C,R2*%
X163050000Y-81490000D03*
X162030000Y-81490000D03*
%TD*%
D15*
%TO.C,U5*%
X147665000Y-76320000D03*
X147215000Y-76320000D03*
X146765000Y-76320000D03*
X146315000Y-76320000D03*
X145865000Y-76320000D03*
D16*
X145315000Y-76870000D03*
X145315000Y-77320000D03*
X145315000Y-77770000D03*
X145315000Y-78220000D03*
X145315000Y-78670000D03*
D15*
X145865000Y-79220000D03*
X146315000Y-79220000D03*
X146765000Y-79220000D03*
X147215000Y-79220000D03*
X147665000Y-79220000D03*
D16*
X148215000Y-78670000D03*
X148215000Y-78220000D03*
X148215000Y-77770000D03*
X148215000Y-77320000D03*
X148215000Y-76870000D03*
D17*
X146765000Y-77770000D03*
%TD*%
D18*
%TO.C,R20*%
X172105000Y-93500000D03*
X173125000Y-93500000D03*
%TD*%
D19*
%TO.C,C24*%
X147375000Y-75160000D03*
X147375000Y-74200000D03*
%TD*%
D20*
%TO.C,C32*%
X181245000Y-78272500D03*
X182205000Y-78272500D03*
%TD*%
D14*
%TO.C,R19*%
X179790000Y-98265000D03*
X178770000Y-98265000D03*
%TD*%
D21*
%TO.C,R26*%
X149415000Y-79240000D03*
X149415000Y-78220000D03*
%TD*%
D22*
%TO.C,C45*%
X166930000Y-91975000D03*
X165970000Y-91975000D03*
%TD*%
D23*
%TO.C,L1*%
X171450000Y-75300000D03*
X171450000Y-81000000D03*
%TD*%
D24*
%TO.C,C36*%
X178875000Y-85365000D03*
X178875000Y-86325000D03*
%TD*%
D25*
%TO.C,C30*%
X146700000Y-84850000D03*
X146700000Y-83300000D03*
%TD*%
D24*
%TO.C,C37*%
X179825000Y-85365000D03*
X179825000Y-86325000D03*
%TD*%
D26*
%TO.C,U8*%
X168835000Y-90725000D03*
X168835000Y-89775000D03*
X168835000Y-88825000D03*
X166525000Y-88825000D03*
X166525000Y-89775000D03*
X166525000Y-90725000D03*
%TD*%
D21*
%TO.C,R34*%
X175975000Y-97525000D03*
X175975000Y-96505000D03*
%TD*%
D25*
%TO.C,C31*%
X145200000Y-84850000D03*
X145200000Y-83300000D03*
%TD*%
D24*
%TO.C,C12*%
X180795000Y-85367500D03*
X180795000Y-86327500D03*
%TD*%
D25*
%TO.C,C28*%
X149700000Y-84875000D03*
X149700000Y-83325000D03*
%TD*%
D18*
%TO.C,R1*%
X162030000Y-80500000D03*
X163050000Y-80500000D03*
%TD*%
D19*
%TO.C,C5*%
X166264663Y-77076885D03*
X166264663Y-76116885D03*
%TD*%
D27*
%TO.C,C6*%
X165350000Y-82300000D03*
X164710000Y-82300000D03*
%TD*%
D18*
%TO.C,R33*%
X164065000Y-88775000D03*
X165085000Y-88775000D03*
%TD*%
D28*
%TO.C,U1*%
X153400000Y-91100000D03*
X153400000Y-91750000D03*
X153400000Y-92400000D03*
X153400000Y-93050000D03*
D29*
X154287500Y-93937500D03*
X154937500Y-93937500D03*
X155587500Y-93937500D03*
X156237500Y-93937500D03*
D28*
X157125000Y-93050000D03*
X157125000Y-92400000D03*
X157125000Y-91750000D03*
X157125000Y-91100000D03*
D29*
X156237500Y-90212500D03*
X155587500Y-90212500D03*
X154937500Y-90212500D03*
X154287500Y-90212500D03*
D30*
X155262500Y-92075000D03*
%TD*%
D25*
%TO.C,C2*%
X163650000Y-74925000D03*
X163650000Y-73375000D03*
%TD*%
D21*
%TO.C,R3*%
X166275000Y-79260000D03*
X166275000Y-78240000D03*
%TD*%
D30*
%TO.C,J7*%
X150760000Y-104200000D03*
D31*
X155840000Y-104200000D03*
X160920000Y-104200000D03*
X166000000Y-104200000D03*
%TD*%
D22*
%TO.C,C34*%
X177780000Y-98500000D03*
X176820000Y-98500000D03*
%TD*%
D21*
%TO.C,R11*%
X183300000Y-76135000D03*
X183300000Y-75115000D03*
%TD*%
D19*
%TO.C,C12*%
X180220000Y-97337500D03*
X180220000Y-96377500D03*
%TD*%
D32*
%TO.C,SW1*%
X140475000Y-91275000D03*
X140475000Y-87075000D03*
%TD*%
D18*
%TO.C,R12*%
X179165000Y-75875000D03*
X180185000Y-75875000D03*
%TD*%
D33*
%TO.C,C20*%
X181250000Y-80325000D03*
X182800000Y-80325000D03*
%TD*%
D34*
%TO.C,J1*%
X137110352Y-80300000D03*
D35*
X137110352Y-83299999D03*
%TD*%
D36*
%TO.C,R14*%
X148260000Y-89230000D03*
X150310000Y-89230000D03*
X150310000Y-93180000D03*
X148260000Y-93180000D03*
%TD*%
D37*
%TO.C,L2*%
X155575000Y-81800000D03*
X155575000Y-75500000D03*
%TD*%
D33*
%TO.C,C19*%
X181250000Y-81825000D03*
X182800000Y-81825000D03*
%TD*%
D25*
%TO.C,C1*%
X162150000Y-74925000D03*
X162150000Y-73375000D03*
%TD*%
D14*
%TO.C,R21*%
X173125000Y-94475000D03*
X172105000Y-94475000D03*
%TD*%
D21*
%TO.C,R4*%
X166275000Y-81170000D03*
X166275000Y-80150000D03*
%TD*%
D13*
%TO.C,R37*%
X174050000Y-87925000D03*
X174050000Y-88945000D03*
%TD*%
D19*
%TO.C,C17*%
X176785000Y-77985000D03*
X176785000Y-77025000D03*
%TD*%
D24*
%TO.C,C14*%
X181750000Y-85370000D03*
X181750000Y-86330000D03*
%TD*%
D38*
%TO.C,C46*%
X170525000Y-93425000D03*
X168975000Y-93425000D03*
%TD*%
D39*
%TO.C,C43*%
X167750000Y-85800000D03*
X167750000Y-87350000D03*
%TD*%
D22*
%TO.C,C33*%
X179770000Y-99352500D03*
X178810000Y-99352500D03*
%TD*%
D25*
%TO.C,C22*%
X146100000Y-74900000D03*
X146100000Y-73350000D03*
%TD*%
D21*
%TO.C,R35*%
X176975000Y-97525000D03*
X176975000Y-96505000D03*
%TD*%
D18*
%TO.C,R31*%
X164065000Y-89750000D03*
X165085000Y-89750000D03*
%TD*%
D40*
%TO.C,U2*%
X178075000Y-79675000D03*
X179025000Y-79675000D03*
X179975000Y-79675000D03*
X179975000Y-77365000D03*
X179025000Y-77365000D03*
X178075000Y-77365000D03*
%TD*%
D27*
%TO.C,C27*%
X148420000Y-82225000D03*
X147780000Y-82225000D03*
%TD*%
D25*
%TO.C,C7*%
X164025000Y-85000000D03*
X164025000Y-83450000D03*
%TD*%
D24*
%TO.C,C44*%
X168950000Y-85525000D03*
X168950000Y-86485000D03*
%TD*%
D38*
%TO.C,C8*%
X167025000Y-83475000D03*
X165475000Y-83475000D03*
%TD*%
D24*
%TO.C,C15*%
X183325000Y-87675000D03*
X183325000Y-88635000D03*
%TD*%
D39*
%TO.C,C42*%
X166275000Y-85800000D03*
X166275000Y-87350000D03*
%TD*%
D32*
%TO.C,SW3*%
X137025000Y-91275000D03*
X137025000Y-87075000D03*
%TD*%
D18*
%TO.C,R22*%
X145355000Y-80400000D03*
X146375000Y-80400000D03*
%TD*%
D14*
%TO.C,R17*%
X178265000Y-75930000D03*
X177245000Y-75930000D03*
%TD*%
D25*
%TO.C,C18*%
X175900000Y-82925000D03*
X175900000Y-81375000D03*
%TD*%
D14*
%TO.C,R28*%
X148385000Y-81365000D03*
X147365000Y-81365000D03*
%TD*%
D41*
%TO.C,Y1*%
X177500000Y-102510000D03*
X179600000Y-102510000D03*
X179600000Y-100910000D03*
X177500000Y-100910000D03*
%TD*%
D42*
%TO.C,U6*%
X175262500Y-88825000D03*
X175262500Y-89225000D03*
X175262500Y-89625000D03*
X175262500Y-90025000D03*
X175262500Y-90425000D03*
X175262500Y-90825000D03*
X175262500Y-91225000D03*
X175262500Y-91625000D03*
X175262500Y-92025000D03*
X175262500Y-92425000D03*
X175262500Y-92825000D03*
X175262500Y-93225000D03*
X175262500Y-93625000D03*
X175262500Y-94025000D03*
D43*
X176100000Y-94862500D03*
X176500000Y-94862500D03*
X176900000Y-94862500D03*
X177300000Y-94862500D03*
X177700000Y-94862500D03*
X178100000Y-94862500D03*
X178500000Y-94862500D03*
X178900000Y-94862500D03*
X179300000Y-94862500D03*
X179700000Y-94862500D03*
X180100000Y-94862500D03*
X180500000Y-94862500D03*
X180900000Y-94862500D03*
X181300000Y-94862500D03*
D42*
X182137500Y-94025000D03*
X182137500Y-93625000D03*
X182137500Y-93225000D03*
X182137500Y-92825000D03*
X182137500Y-92425000D03*
X182137500Y-92025000D03*
X182137500Y-91625000D03*
X182137500Y-91225000D03*
X182137500Y-90825000D03*
X182137500Y-90425000D03*
X182137500Y-90025000D03*
X182137500Y-89625000D03*
X182137500Y-89225000D03*
X182137500Y-88825000D03*
D43*
X181300000Y-87987500D03*
X180900000Y-87987500D03*
X180500000Y-87987500D03*
X180100000Y-87987500D03*
X179700000Y-87987500D03*
X179300000Y-87987500D03*
X178900000Y-87987500D03*
X178500000Y-87987500D03*
X178100000Y-87987500D03*
X177700000Y-87987500D03*
X177300000Y-87987500D03*
X176900000Y-87987500D03*
X176500000Y-87987500D03*
X176100000Y-87987500D03*
D44*
X178700000Y-91425000D03*
%TD*%
D18*
%TO.C,R16*%
X177245000Y-74955000D03*
X178265000Y-74955000D03*
%TD*%
D19*
%TO.C,C40*%
X174075000Y-93335000D03*
X174075000Y-92375000D03*
%TD*%
D21*
%TO.C,R39*%
X181170000Y-97035000D03*
X181170000Y-96015000D03*
%TD*%
D14*
%TO.C,R40*%
X179895000Y-84390000D03*
X178875000Y-84390000D03*
%TD*%
D45*
%TO.C,R13*%
X156687500Y-86425000D03*
X156687500Y-87825000D03*
X153937500Y-87825000D03*
X153937500Y-86425000D03*
%TD*%
D19*
%TO.C,C26*%
X150395000Y-79480000D03*
X150395000Y-78520000D03*
%TD*%
D25*
%TO.C,C29*%
X148200000Y-84875000D03*
X148200000Y-83325000D03*
%TD*%
D18*
%TO.C,R29*%
X147365000Y-80400000D03*
X148385000Y-80400000D03*
%TD*%
D20*
%TO.C,C13*%
X173795000Y-86475000D03*
X174755000Y-86475000D03*
%TD*%
D46*
%TO.C,L4*%
X171550000Y-89425000D03*
X171550000Y-91725000D03*
%TD*%
D18*
%TO.C,R7*%
X164305000Y-80450000D03*
X165325000Y-80450000D03*
%TD*%
D21*
%TO.C,R38*%
X174050000Y-90845000D03*
X174050000Y-89825000D03*
%TD*%
D14*
%TO.C,R36*%
X165085000Y-87800000D03*
X164065000Y-87800000D03*
%TD*%
D13*
%TO.C,R27*%
X143850000Y-78200000D03*
X143850000Y-79220000D03*
%TD*%
%TO.C,R5*%
X160740000Y-78500000D03*
X160740000Y-79520000D03*
%TD*%
D47*
%TO.C,L3*%
X179675000Y-82000000D03*
X177469000Y-82000000D03*
%TD*%
D19*
%TO.C,C35*%
X175850000Y-104825000D03*
X175850000Y-103865000D03*
%TD*%
D24*
%TO.C,R8*%
X158387500Y-92415000D03*
X158387500Y-93375000D03*
%TD*%
D14*
%TO.C,R9*%
X180185000Y-74900000D03*
X179165000Y-74900000D03*
%TD*%
D32*
%TO.C,SW2*%
X143925000Y-91275000D03*
X143925000Y-87075000D03*
%TD*%
D14*
%TO.C,R24*%
X146375000Y-81390000D03*
X145355000Y-81390000D03*
%TD*%
D15*
%TO.C,U4*%
X164534663Y-76356885D03*
X164084663Y-76356885D03*
X163634663Y-76356885D03*
X163184663Y-76356885D03*
X162734663Y-76356885D03*
D16*
X162184663Y-76906885D03*
X162184663Y-77356885D03*
X162184663Y-77806885D03*
X162184663Y-78256885D03*
X162184663Y-78706885D03*
D15*
X162734663Y-79256885D03*
X163184663Y-79256885D03*
X163634663Y-79256885D03*
X164084663Y-79256885D03*
X164534663Y-79256885D03*
D16*
X165084663Y-78706885D03*
X165084663Y-78256885D03*
X165084663Y-77806885D03*
X165084663Y-77356885D03*
X165084663Y-76906885D03*
D17*
X163634663Y-77806885D03*
%TD*%
D48*
%TO.C,U7*%
X174350000Y-96900000D03*
X173080000Y-96900000D03*
X171810000Y-96900000D03*
X170540000Y-96900000D03*
X170540000Y-104100000D03*
X171810000Y-104100000D03*
X173080000Y-104100000D03*
X174350000Y-104100000D03*
%TD*%
D49*
%TO.C,J2*%
X184900000Y-79990000D03*
X184900000Y-79190000D03*
D50*
X184900000Y-78040000D03*
X184900000Y-77040000D03*
X184900000Y-76540000D03*
X184900000Y-75540000D03*
D49*
X184900000Y-74390000D03*
X184900000Y-73590000D03*
X184900000Y-73590000D03*
X184900000Y-74390000D03*
D50*
X184900000Y-75040000D03*
X184900000Y-76040000D03*
X184900000Y-77540000D03*
X184900000Y-78540000D03*
D49*
X184900000Y-79190000D03*
X184900000Y-79990000D03*
D51*
X185475000Y-81110000D03*
D52*
X189655000Y-81110000D03*
D51*
X185475000Y-72470000D03*
D52*
X189655000Y-72470000D03*
%TD*%
D19*
%TO.C,C38*%
X179250000Y-97335000D03*
X179250000Y-96375000D03*
%TD*%
D22*
%TO.C,C21*%
X153992500Y-95200000D03*
X153032500Y-95200000D03*
%TD*%
D14*
%TO.C,R6*%
X165325000Y-81440000D03*
X164305000Y-81440000D03*
%TD*%
D24*
%TO.C,C11*%
X177925000Y-85365000D03*
X177925000Y-86325000D03*
%TD*%
D25*
%TO.C,C23*%
X144600000Y-74900000D03*
X144600000Y-73350000D03*
%TD*%
D21*
%TO.C,R25*%
X149415000Y-81150000D03*
X149415000Y-80130000D03*
%TD*%
D19*
%TO.C,C4*%
X167255000Y-79210000D03*
X167255000Y-78250000D03*
%TD*%
%TO.C,C25*%
X149425000Y-77030000D03*
X149425000Y-76070000D03*
%TD*%
D25*
%TO.C,C9*%
X162525000Y-85000000D03*
X162525000Y-83450000D03*
%TD*%
D19*
%TO.C,C3*%
X164875000Y-75205000D03*
X164875000Y-74245000D03*
%TD*%
D22*
%TO.C,C39*%
X184675000Y-92425000D03*
X183715000Y-92425000D03*
%TD*%
D14*
%TO.C,R32*%
X165085000Y-90725000D03*
X164065000Y-90725000D03*
%TD*%
D25*
%TO.C,C10*%
X161025000Y-85000000D03*
X161025000Y-83450000D03*
%TD*%
D14*
%TO.C,R41*%
X181810000Y-84375000D03*
X180790000Y-84375000D03*
%TD*%
D53*
%TO.C,R15*%
X162062500Y-92925000D03*
X160662500Y-92925000D03*
X160662500Y-90175000D03*
X162062500Y-90175000D03*
%TD*%
D24*
%TO.C,C16*%
X182725000Y-85395000D03*
X182725000Y-86355000D03*
%TD*%
M02*
