%TF.GenerationSoftware,KiCad,Pcbnew,8.99.0-3334-g98ae574c78*%
%TF.CreationDate,2024-12-09T23:46:28-05:00*%
%TF.ProjectId,SmartPowerBoard,536d6172-7450-46f7-9765-72426f617264,rev?*%
%TF.SameCoordinates,Original*%
%TF.FileFunction,Legend,Bot*%
%TF.FilePolarity,Positive*%
%FSLAX46Y46*%
G04 Gerber Fmt 4.6, Leading zero omitted, Abs format (unit mm)*
G04 Created by KiCad (PCBNEW 8.99.0-3334-g98ae574c78) date 2024-12-09 23:46:28*
%MOMM*%
%LPD*%
G01*
G04 APERTURE LIST*
G04 Aperture macros list*
%AMRoundRect*
0 Rectangle with rounded corners*
0 $1 Rounding radius*
0 $2 $3 $4 $5 $6 $7 $8 $9 X,Y pos of 4 corners*
0 Add a 4 corners polygon primitive as box body*
4,1,4,$2,$3,$4,$5,$6,$7,$8,$9,$2,$3,0*
0 Add four circle primitives for the rounded corners*
1,1,$1+$1,$2,$3*
1,1,$1+$1,$4,$5*
1,1,$1+$1,$6,$7*
1,1,$1+$1,$8,$9*
0 Add four rect primitives between the rounded corners*
20,1,$1+$1,$2,$3,$4,$5,0*
20,1,$1+$1,$4,$5,$6,$7,0*
20,1,$1+$1,$6,$7,$8,$9,0*
20,1,$1+$1,$8,$9,$2,$3,0*%
G04 Aperture macros list end*
%ADD10C,0.150000*%
%ADD11C,0.100000*%
%ADD12C,0.120000*%
%ADD13C,0.254000*%
%ADD14C,0.203200*%
%ADD15C,1.576200*%
%ADD16C,0.836200*%
%ADD17C,0.010000*%
%ADD18C,3.000000*%
%ADD19R,2.100000X2.100000*%
%ADD20C,2.100000*%
%ADD21C,2.999999*%
%ADD22R,1.520000X1.520000*%
%ADD23C,1.520000*%
%ADD24C,0.650000*%
%ADD25O,2.100000X1.000000*%
%ADD26O,1.800000X1.000000*%
%ADD27RoundRect,0.140000X0.170000X-0.140000X0.170000X0.140000X-0.170000X0.140000X-0.170000X-0.140000X0*%
%ADD28R,3.000000X0.500000*%
%ADD29RoundRect,0.140000X-0.140000X-0.170000X0.140000X-0.170000X0.140000X0.170000X-0.140000X0.170000X0*%
%ADD30RoundRect,0.135000X-0.135000X-0.185000X0.135000X-0.185000X0.135000X0.185000X-0.135000X0.185000X0*%
%ADD31R,1.400000X1.000000*%
%ADD32R,1.000000X1.400000*%
%ADD33RoundRect,0.140000X-0.170000X0.140000X-0.170000X-0.140000X0.170000X-0.140000X0.170000X0.140000X0*%
%ADD34RoundRect,0.135000X0.185000X-0.135000X0.185000X0.135000X-0.185000X0.135000X-0.185000X-0.135000X0*%
G04 APERTURE END LIST*
D10*
X190059580Y-99407142D02*
X190107200Y-99359523D01*
X190107200Y-99359523D02*
X190154819Y-99216666D01*
X190154819Y-99216666D02*
X190154819Y-99121428D01*
X190154819Y-99121428D02*
X190107200Y-98978571D01*
X190107200Y-98978571D02*
X190011961Y-98883333D01*
X190011961Y-98883333D02*
X189916723Y-98835714D01*
X189916723Y-98835714D02*
X189726247Y-98788095D01*
X189726247Y-98788095D02*
X189583390Y-98788095D01*
X189583390Y-98788095D02*
X189392914Y-98835714D01*
X189392914Y-98835714D02*
X189297676Y-98883333D01*
X189297676Y-98883333D02*
X189202438Y-98978571D01*
X189202438Y-98978571D02*
X189154819Y-99121428D01*
X189154819Y-99121428D02*
X189154819Y-99216666D01*
X189154819Y-99216666D02*
X189202438Y-99359523D01*
X189202438Y-99359523D02*
X189250057Y-99407142D01*
X189154819Y-100311904D02*
X189154819Y-99835714D01*
X189154819Y-99835714D02*
X189631009Y-99788095D01*
X189631009Y-99788095D02*
X189583390Y-99835714D01*
X189583390Y-99835714D02*
X189535771Y-99930952D01*
X189535771Y-99930952D02*
X189535771Y-100169047D01*
X189535771Y-100169047D02*
X189583390Y-100264285D01*
X189583390Y-100264285D02*
X189631009Y-100311904D01*
X189631009Y-100311904D02*
X189726247Y-100359523D01*
X189726247Y-100359523D02*
X189964342Y-100359523D01*
X189964342Y-100359523D02*
X190059580Y-100311904D01*
X190059580Y-100311904D02*
X190107200Y-100264285D01*
X190107200Y-100264285D02*
X190154819Y-100169047D01*
X190154819Y-100169047D02*
X190154819Y-99930952D01*
X190154819Y-99930952D02*
X190107200Y-99835714D01*
X190107200Y-99835714D02*
X190059580Y-99788095D01*
X189250057Y-100740476D02*
X189202438Y-100788095D01*
X189202438Y-100788095D02*
X189154819Y-100883333D01*
X189154819Y-100883333D02*
X189154819Y-101121428D01*
X189154819Y-101121428D02*
X189202438Y-101216666D01*
X189202438Y-101216666D02*
X189250057Y-101264285D01*
X189250057Y-101264285D02*
X189345295Y-101311904D01*
X189345295Y-101311904D02*
X189440533Y-101311904D01*
X189440533Y-101311904D02*
X189583390Y-101264285D01*
X189583390Y-101264285D02*
X190154819Y-100692857D01*
X190154819Y-100692857D02*
X190154819Y-101311904D01*
D11*
X190192580Y-94011904D02*
X189383057Y-94011904D01*
X189383057Y-94011904D02*
X189287819Y-93964285D01*
X189287819Y-93964285D02*
X189240200Y-93916666D01*
X189240200Y-93916666D02*
X189192580Y-93821428D01*
X189192580Y-93821428D02*
X189192580Y-93630952D01*
X189192580Y-93630952D02*
X189240200Y-93535714D01*
X189240200Y-93535714D02*
X189287819Y-93488095D01*
X189287819Y-93488095D02*
X189383057Y-93440476D01*
X189383057Y-93440476D02*
X190192580Y-93440476D01*
X189192580Y-92916666D02*
X189192580Y-92726190D01*
X189192580Y-92726190D02*
X189240200Y-92630952D01*
X189240200Y-92630952D02*
X189287819Y-92583333D01*
X189287819Y-92583333D02*
X189430676Y-92488095D01*
X189430676Y-92488095D02*
X189621152Y-92440476D01*
X189621152Y-92440476D02*
X190002104Y-92440476D01*
X190002104Y-92440476D02*
X190097342Y-92488095D01*
X190097342Y-92488095D02*
X190144961Y-92535714D01*
X190144961Y-92535714D02*
X190192580Y-92630952D01*
X190192580Y-92630952D02*
X190192580Y-92821428D01*
X190192580Y-92821428D02*
X190144961Y-92916666D01*
X190144961Y-92916666D02*
X190097342Y-92964285D01*
X190097342Y-92964285D02*
X190002104Y-93011904D01*
X190002104Y-93011904D02*
X189764009Y-93011904D01*
X189764009Y-93011904D02*
X189668771Y-92964285D01*
X189668771Y-92964285D02*
X189621152Y-92916666D01*
X189621152Y-92916666D02*
X189573533Y-92821428D01*
X189573533Y-92821428D02*
X189573533Y-92630952D01*
X189573533Y-92630952D02*
X189621152Y-92535714D01*
X189621152Y-92535714D02*
X189668771Y-92488095D01*
X189668771Y-92488095D02*
X189764009Y-92440476D01*
D10*
X181942857Y-84259580D02*
X181990476Y-84307200D01*
X181990476Y-84307200D02*
X182133333Y-84354819D01*
X182133333Y-84354819D02*
X182228571Y-84354819D01*
X182228571Y-84354819D02*
X182371428Y-84307200D01*
X182371428Y-84307200D02*
X182466666Y-84211961D01*
X182466666Y-84211961D02*
X182514285Y-84116723D01*
X182514285Y-84116723D02*
X182561904Y-83926247D01*
X182561904Y-83926247D02*
X182561904Y-83783390D01*
X182561904Y-83783390D02*
X182514285Y-83592914D01*
X182514285Y-83592914D02*
X182466666Y-83497676D01*
X182466666Y-83497676D02*
X182371428Y-83402438D01*
X182371428Y-83402438D02*
X182228571Y-83354819D01*
X182228571Y-83354819D02*
X182133333Y-83354819D01*
X182133333Y-83354819D02*
X181990476Y-83402438D01*
X181990476Y-83402438D02*
X181942857Y-83450057D01*
X181038095Y-83354819D02*
X181514285Y-83354819D01*
X181514285Y-83354819D02*
X181561904Y-83831009D01*
X181561904Y-83831009D02*
X181514285Y-83783390D01*
X181514285Y-83783390D02*
X181419047Y-83735771D01*
X181419047Y-83735771D02*
X181180952Y-83735771D01*
X181180952Y-83735771D02*
X181085714Y-83783390D01*
X181085714Y-83783390D02*
X181038095Y-83831009D01*
X181038095Y-83831009D02*
X180990476Y-83926247D01*
X180990476Y-83926247D02*
X180990476Y-84164342D01*
X180990476Y-84164342D02*
X181038095Y-84259580D01*
X181038095Y-84259580D02*
X181085714Y-84307200D01*
X181085714Y-84307200D02*
X181180952Y-84354819D01*
X181180952Y-84354819D02*
X181419047Y-84354819D01*
X181419047Y-84354819D02*
X181514285Y-84307200D01*
X181514285Y-84307200D02*
X181561904Y-84259580D01*
X180371428Y-83354819D02*
X180276190Y-83354819D01*
X180276190Y-83354819D02*
X180180952Y-83402438D01*
X180180952Y-83402438D02*
X180133333Y-83450057D01*
X180133333Y-83450057D02*
X180085714Y-83545295D01*
X180085714Y-83545295D02*
X180038095Y-83735771D01*
X180038095Y-83735771D02*
X180038095Y-83973866D01*
X180038095Y-83973866D02*
X180085714Y-84164342D01*
X180085714Y-84164342D02*
X180133333Y-84259580D01*
X180133333Y-84259580D02*
X180180952Y-84307200D01*
X180180952Y-84307200D02*
X180276190Y-84354819D01*
X180276190Y-84354819D02*
X180371428Y-84354819D01*
X180371428Y-84354819D02*
X180466666Y-84307200D01*
X180466666Y-84307200D02*
X180514285Y-84259580D01*
X180514285Y-84259580D02*
X180561904Y-84164342D01*
X180561904Y-84164342D02*
X180609523Y-83973866D01*
X180609523Y-83973866D02*
X180609523Y-83735771D01*
X180609523Y-83735771D02*
X180561904Y-83545295D01*
X180561904Y-83545295D02*
X180514285Y-83450057D01*
X180514285Y-83450057D02*
X180466666Y-83402438D01*
X180466666Y-83402438D02*
X180371428Y-83354819D01*
X181842857Y-86904819D02*
X182176190Y-86428628D01*
X182414285Y-86904819D02*
X182414285Y-85904819D01*
X182414285Y-85904819D02*
X182033333Y-85904819D01*
X182033333Y-85904819D02*
X181938095Y-85952438D01*
X181938095Y-85952438D02*
X181890476Y-86000057D01*
X181890476Y-86000057D02*
X181842857Y-86095295D01*
X181842857Y-86095295D02*
X181842857Y-86238152D01*
X181842857Y-86238152D02*
X181890476Y-86333390D01*
X181890476Y-86333390D02*
X181938095Y-86381009D01*
X181938095Y-86381009D02*
X182033333Y-86428628D01*
X182033333Y-86428628D02*
X182414285Y-86428628D01*
X180985714Y-86238152D02*
X180985714Y-86904819D01*
X181223809Y-85857200D02*
X181461904Y-86571485D01*
X181461904Y-86571485D02*
X180842857Y-86571485D01*
X180557142Y-85904819D02*
X179938095Y-85904819D01*
X179938095Y-85904819D02*
X180271428Y-86285771D01*
X180271428Y-86285771D02*
X180128571Y-86285771D01*
X180128571Y-86285771D02*
X180033333Y-86333390D01*
X180033333Y-86333390D02*
X179985714Y-86381009D01*
X179985714Y-86381009D02*
X179938095Y-86476247D01*
X179938095Y-86476247D02*
X179938095Y-86714342D01*
X179938095Y-86714342D02*
X179985714Y-86809580D01*
X179985714Y-86809580D02*
X180033333Y-86857200D01*
X180033333Y-86857200D02*
X180128571Y-86904819D01*
X180128571Y-86904819D02*
X180414285Y-86904819D01*
X180414285Y-86904819D02*
X180509523Y-86857200D01*
X180509523Y-86857200D02*
X180557142Y-86809580D01*
X186588675Y-105573777D02*
X186550563Y-105497554D01*
X186550563Y-105497554D02*
X186474341Y-105421331D01*
X186474341Y-105421331D02*
X186360006Y-105306997D01*
X186360006Y-105306997D02*
X186321895Y-105230774D01*
X186321895Y-105230774D02*
X186321895Y-105154552D01*
X186512452Y-105192663D02*
X186474341Y-105116440D01*
X186474341Y-105116440D02*
X186398118Y-105040217D01*
X186398118Y-105040217D02*
X186245672Y-105002106D01*
X186245672Y-105002106D02*
X185978893Y-105002106D01*
X185978893Y-105002106D02*
X185826447Y-105040217D01*
X185826447Y-105040217D02*
X185750224Y-105116440D01*
X185750224Y-105116440D02*
X185712113Y-105192663D01*
X185712113Y-105192663D02*
X185712113Y-105345108D01*
X185712113Y-105345108D02*
X185750224Y-105421331D01*
X185750224Y-105421331D02*
X185826447Y-105497554D01*
X185826447Y-105497554D02*
X185978893Y-105535665D01*
X185978893Y-105535665D02*
X186245672Y-105535665D01*
X186245672Y-105535665D02*
X186398118Y-105497554D01*
X186398118Y-105497554D02*
X186474341Y-105421331D01*
X186474341Y-105421331D02*
X186512452Y-105345108D01*
X186512452Y-105345108D02*
X186512452Y-105192663D01*
X185978893Y-106221670D02*
X186512452Y-106221670D01*
X185674002Y-106031113D02*
X186245672Y-105840556D01*
X186245672Y-105840556D02*
X186245672Y-106336004D01*
X181892857Y-85509580D02*
X181940476Y-85557200D01*
X181940476Y-85557200D02*
X182083333Y-85604819D01*
X182083333Y-85604819D02*
X182178571Y-85604819D01*
X182178571Y-85604819D02*
X182321428Y-85557200D01*
X182321428Y-85557200D02*
X182416666Y-85461961D01*
X182416666Y-85461961D02*
X182464285Y-85366723D01*
X182464285Y-85366723D02*
X182511904Y-85176247D01*
X182511904Y-85176247D02*
X182511904Y-85033390D01*
X182511904Y-85033390D02*
X182464285Y-84842914D01*
X182464285Y-84842914D02*
X182416666Y-84747676D01*
X182416666Y-84747676D02*
X182321428Y-84652438D01*
X182321428Y-84652438D02*
X182178571Y-84604819D01*
X182178571Y-84604819D02*
X182083333Y-84604819D01*
X182083333Y-84604819D02*
X181940476Y-84652438D01*
X181940476Y-84652438D02*
X181892857Y-84700057D01*
X181035714Y-84938152D02*
X181035714Y-85604819D01*
X181273809Y-84557200D02*
X181511904Y-85271485D01*
X181511904Y-85271485D02*
X180892857Y-85271485D01*
X180464285Y-85604819D02*
X180273809Y-85604819D01*
X180273809Y-85604819D02*
X180178571Y-85557200D01*
X180178571Y-85557200D02*
X180130952Y-85509580D01*
X180130952Y-85509580D02*
X180035714Y-85366723D01*
X180035714Y-85366723D02*
X179988095Y-85176247D01*
X179988095Y-85176247D02*
X179988095Y-84795295D01*
X179988095Y-84795295D02*
X180035714Y-84700057D01*
X180035714Y-84700057D02*
X180083333Y-84652438D01*
X180083333Y-84652438D02*
X180178571Y-84604819D01*
X180178571Y-84604819D02*
X180369047Y-84604819D01*
X180369047Y-84604819D02*
X180464285Y-84652438D01*
X180464285Y-84652438D02*
X180511904Y-84700057D01*
X180511904Y-84700057D02*
X180559523Y-84795295D01*
X180559523Y-84795295D02*
X180559523Y-85033390D01*
X180559523Y-85033390D02*
X180511904Y-85128628D01*
X180511904Y-85128628D02*
X180464285Y-85176247D01*
X180464285Y-85176247D02*
X180369047Y-85223866D01*
X180369047Y-85223866D02*
X180178571Y-85223866D01*
X180178571Y-85223866D02*
X180083333Y-85176247D01*
X180083333Y-85176247D02*
X180035714Y-85128628D01*
X180035714Y-85128628D02*
X179988095Y-85033390D01*
X179231087Y-99775454D02*
X179307280Y-99737357D01*
X179307280Y-99737357D02*
X179383473Y-99661165D01*
X179383473Y-99661165D02*
X179497762Y-99546875D01*
X179497762Y-99546875D02*
X179573955Y-99508779D01*
X179573955Y-99508779D02*
X179650147Y-99508779D01*
X179612051Y-99699261D02*
X179688244Y-99661165D01*
X179688244Y-99661165D02*
X179764437Y-99584972D01*
X179764437Y-99584972D02*
X179802533Y-99432586D01*
X179802533Y-99432586D02*
X179802533Y-99165912D01*
X179802533Y-99165912D02*
X179764437Y-99013526D01*
X179764437Y-99013526D02*
X179688244Y-98937333D01*
X179688244Y-98937333D02*
X179612051Y-98899237D01*
X179612051Y-98899237D02*
X179459666Y-98899237D01*
X179459666Y-98899237D02*
X179383473Y-98937333D01*
X179383473Y-98937333D02*
X179307280Y-99013526D01*
X179307280Y-99013526D02*
X179269184Y-99165912D01*
X179269184Y-99165912D02*
X179269184Y-99432586D01*
X179269184Y-99432586D02*
X179307280Y-99584972D01*
X179307280Y-99584972D02*
X179383473Y-99661165D01*
X179383473Y-99661165D02*
X179459666Y-99699261D01*
X179459666Y-99699261D02*
X179612051Y-99699261D01*
X178507256Y-99699261D02*
X178964413Y-99699261D01*
X178735835Y-99699261D02*
X178735835Y-98899237D01*
X178735835Y-98899237D02*
X178812027Y-99013526D01*
X178812027Y-99013526D02*
X178888220Y-99089719D01*
X178888220Y-99089719D02*
X178964413Y-99127815D01*
X182389580Y-96207142D02*
X182437200Y-96159523D01*
X182437200Y-96159523D02*
X182484819Y-96016666D01*
X182484819Y-96016666D02*
X182484819Y-95921428D01*
X182484819Y-95921428D02*
X182437200Y-95778571D01*
X182437200Y-95778571D02*
X182341961Y-95683333D01*
X182341961Y-95683333D02*
X182246723Y-95635714D01*
X182246723Y-95635714D02*
X182056247Y-95588095D01*
X182056247Y-95588095D02*
X181913390Y-95588095D01*
X181913390Y-95588095D02*
X181722914Y-95635714D01*
X181722914Y-95635714D02*
X181627676Y-95683333D01*
X181627676Y-95683333D02*
X181532438Y-95778571D01*
X181532438Y-95778571D02*
X181484819Y-95921428D01*
X181484819Y-95921428D02*
X181484819Y-96016666D01*
X181484819Y-96016666D02*
X181532438Y-96159523D01*
X181532438Y-96159523D02*
X181580057Y-96207142D01*
X181818152Y-97064285D02*
X182484819Y-97064285D01*
X181437200Y-96826190D02*
X182151485Y-96588095D01*
X182151485Y-96588095D02*
X182151485Y-97207142D01*
X181484819Y-97492857D02*
X181484819Y-98159523D01*
X181484819Y-98159523D02*
X182484819Y-97730952D01*
X181142857Y-104154819D02*
X181476190Y-103678628D01*
X181714285Y-104154819D02*
X181714285Y-103154819D01*
X181714285Y-103154819D02*
X181333333Y-103154819D01*
X181333333Y-103154819D02*
X181238095Y-103202438D01*
X181238095Y-103202438D02*
X181190476Y-103250057D01*
X181190476Y-103250057D02*
X181142857Y-103345295D01*
X181142857Y-103345295D02*
X181142857Y-103488152D01*
X181142857Y-103488152D02*
X181190476Y-103583390D01*
X181190476Y-103583390D02*
X181238095Y-103631009D01*
X181238095Y-103631009D02*
X181333333Y-103678628D01*
X181333333Y-103678628D02*
X181714285Y-103678628D01*
X180285714Y-103488152D02*
X180285714Y-104154819D01*
X180523809Y-103107200D02*
X180761904Y-103821485D01*
X180761904Y-103821485D02*
X180142857Y-103821485D01*
X179809523Y-103250057D02*
X179761904Y-103202438D01*
X179761904Y-103202438D02*
X179666666Y-103154819D01*
X179666666Y-103154819D02*
X179428571Y-103154819D01*
X179428571Y-103154819D02*
X179333333Y-103202438D01*
X179333333Y-103202438D02*
X179285714Y-103250057D01*
X179285714Y-103250057D02*
X179238095Y-103345295D01*
X179238095Y-103345295D02*
X179238095Y-103440533D01*
X179238095Y-103440533D02*
X179285714Y-103583390D01*
X179285714Y-103583390D02*
X179857142Y-104154819D01*
X179857142Y-104154819D02*
X179238095Y-104154819D01*
X183992857Y-99159580D02*
X184040476Y-99207200D01*
X184040476Y-99207200D02*
X184183333Y-99254819D01*
X184183333Y-99254819D02*
X184278571Y-99254819D01*
X184278571Y-99254819D02*
X184421428Y-99207200D01*
X184421428Y-99207200D02*
X184516666Y-99111961D01*
X184516666Y-99111961D02*
X184564285Y-99016723D01*
X184564285Y-99016723D02*
X184611904Y-98826247D01*
X184611904Y-98826247D02*
X184611904Y-98683390D01*
X184611904Y-98683390D02*
X184564285Y-98492914D01*
X184564285Y-98492914D02*
X184516666Y-98397676D01*
X184516666Y-98397676D02*
X184421428Y-98302438D01*
X184421428Y-98302438D02*
X184278571Y-98254819D01*
X184278571Y-98254819D02*
X184183333Y-98254819D01*
X184183333Y-98254819D02*
X184040476Y-98302438D01*
X184040476Y-98302438D02*
X183992857Y-98350057D01*
X183135714Y-98588152D02*
X183135714Y-99254819D01*
X183373809Y-98207200D02*
X183611904Y-98921485D01*
X183611904Y-98921485D02*
X182992857Y-98921485D01*
X182469047Y-98683390D02*
X182564285Y-98635771D01*
X182564285Y-98635771D02*
X182611904Y-98588152D01*
X182611904Y-98588152D02*
X182659523Y-98492914D01*
X182659523Y-98492914D02*
X182659523Y-98445295D01*
X182659523Y-98445295D02*
X182611904Y-98350057D01*
X182611904Y-98350057D02*
X182564285Y-98302438D01*
X182564285Y-98302438D02*
X182469047Y-98254819D01*
X182469047Y-98254819D02*
X182278571Y-98254819D01*
X182278571Y-98254819D02*
X182183333Y-98302438D01*
X182183333Y-98302438D02*
X182135714Y-98350057D01*
X182135714Y-98350057D02*
X182088095Y-98445295D01*
X182088095Y-98445295D02*
X182088095Y-98492914D01*
X182088095Y-98492914D02*
X182135714Y-98588152D01*
X182135714Y-98588152D02*
X182183333Y-98635771D01*
X182183333Y-98635771D02*
X182278571Y-98683390D01*
X182278571Y-98683390D02*
X182469047Y-98683390D01*
X182469047Y-98683390D02*
X182564285Y-98731009D01*
X182564285Y-98731009D02*
X182611904Y-98778628D01*
X182611904Y-98778628D02*
X182659523Y-98873866D01*
X182659523Y-98873866D02*
X182659523Y-99064342D01*
X182659523Y-99064342D02*
X182611904Y-99159580D01*
X182611904Y-99159580D02*
X182564285Y-99207200D01*
X182564285Y-99207200D02*
X182469047Y-99254819D01*
X182469047Y-99254819D02*
X182278571Y-99254819D01*
X182278571Y-99254819D02*
X182183333Y-99207200D01*
X182183333Y-99207200D02*
X182135714Y-99159580D01*
X182135714Y-99159580D02*
X182088095Y-99064342D01*
X182088095Y-99064342D02*
X182088095Y-98873866D01*
X182088095Y-98873866D02*
X182135714Y-98778628D01*
X182135714Y-98778628D02*
X182183333Y-98731009D01*
X182183333Y-98731009D02*
X182278571Y-98683390D01*
X190009580Y-102307142D02*
X190057200Y-102259523D01*
X190057200Y-102259523D02*
X190104819Y-102116666D01*
X190104819Y-102116666D02*
X190104819Y-102021428D01*
X190104819Y-102021428D02*
X190057200Y-101878571D01*
X190057200Y-101878571D02*
X189961961Y-101783333D01*
X189961961Y-101783333D02*
X189866723Y-101735714D01*
X189866723Y-101735714D02*
X189676247Y-101688095D01*
X189676247Y-101688095D02*
X189533390Y-101688095D01*
X189533390Y-101688095D02*
X189342914Y-101735714D01*
X189342914Y-101735714D02*
X189247676Y-101783333D01*
X189247676Y-101783333D02*
X189152438Y-101878571D01*
X189152438Y-101878571D02*
X189104819Y-102021428D01*
X189104819Y-102021428D02*
X189104819Y-102116666D01*
X189104819Y-102116666D02*
X189152438Y-102259523D01*
X189152438Y-102259523D02*
X189200057Y-102307142D01*
X189104819Y-103211904D02*
X189104819Y-102735714D01*
X189104819Y-102735714D02*
X189581009Y-102688095D01*
X189581009Y-102688095D02*
X189533390Y-102735714D01*
X189533390Y-102735714D02*
X189485771Y-102830952D01*
X189485771Y-102830952D02*
X189485771Y-103069047D01*
X189485771Y-103069047D02*
X189533390Y-103164285D01*
X189533390Y-103164285D02*
X189581009Y-103211904D01*
X189581009Y-103211904D02*
X189676247Y-103259523D01*
X189676247Y-103259523D02*
X189914342Y-103259523D01*
X189914342Y-103259523D02*
X190009580Y-103211904D01*
X190009580Y-103211904D02*
X190057200Y-103164285D01*
X190057200Y-103164285D02*
X190104819Y-103069047D01*
X190104819Y-103069047D02*
X190104819Y-102830952D01*
X190104819Y-102830952D02*
X190057200Y-102735714D01*
X190057200Y-102735714D02*
X190009580Y-102688095D01*
X190104819Y-104211904D02*
X190104819Y-103640476D01*
X190104819Y-103926190D02*
X189104819Y-103926190D01*
X189104819Y-103926190D02*
X189247676Y-103830952D01*
X189247676Y-103830952D02*
X189342914Y-103735714D01*
X189342914Y-103735714D02*
X189390533Y-103640476D01*
X183454819Y-93257142D02*
X182978628Y-92923809D01*
X183454819Y-92685714D02*
X182454819Y-92685714D01*
X182454819Y-92685714D02*
X182454819Y-93066666D01*
X182454819Y-93066666D02*
X182502438Y-93161904D01*
X182502438Y-93161904D02*
X182550057Y-93209523D01*
X182550057Y-93209523D02*
X182645295Y-93257142D01*
X182645295Y-93257142D02*
X182788152Y-93257142D01*
X182788152Y-93257142D02*
X182883390Y-93209523D01*
X182883390Y-93209523D02*
X182931009Y-93161904D01*
X182931009Y-93161904D02*
X182978628Y-93066666D01*
X182978628Y-93066666D02*
X182978628Y-92685714D01*
X183454819Y-94209523D02*
X183454819Y-93638095D01*
X183454819Y-93923809D02*
X182454819Y-93923809D01*
X182454819Y-93923809D02*
X182597676Y-93828571D01*
X182597676Y-93828571D02*
X182692914Y-93733333D01*
X182692914Y-93733333D02*
X182740533Y-93638095D01*
X182883390Y-94780952D02*
X182835771Y-94685714D01*
X182835771Y-94685714D02*
X182788152Y-94638095D01*
X182788152Y-94638095D02*
X182692914Y-94590476D01*
X182692914Y-94590476D02*
X182645295Y-94590476D01*
X182645295Y-94590476D02*
X182550057Y-94638095D01*
X182550057Y-94638095D02*
X182502438Y-94685714D01*
X182502438Y-94685714D02*
X182454819Y-94780952D01*
X182454819Y-94780952D02*
X182454819Y-94971428D01*
X182454819Y-94971428D02*
X182502438Y-95066666D01*
X182502438Y-95066666D02*
X182550057Y-95114285D01*
X182550057Y-95114285D02*
X182645295Y-95161904D01*
X182645295Y-95161904D02*
X182692914Y-95161904D01*
X182692914Y-95161904D02*
X182788152Y-95114285D01*
X182788152Y-95114285D02*
X182835771Y-95066666D01*
X182835771Y-95066666D02*
X182883390Y-94971428D01*
X182883390Y-94971428D02*
X182883390Y-94780952D01*
X182883390Y-94780952D02*
X182931009Y-94685714D01*
X182931009Y-94685714D02*
X182978628Y-94638095D01*
X182978628Y-94638095D02*
X183073866Y-94590476D01*
X183073866Y-94590476D02*
X183264342Y-94590476D01*
X183264342Y-94590476D02*
X183359580Y-94638095D01*
X183359580Y-94638095D02*
X183407200Y-94685714D01*
X183407200Y-94685714D02*
X183454819Y-94780952D01*
X183454819Y-94780952D02*
X183454819Y-94971428D01*
X183454819Y-94971428D02*
X183407200Y-95066666D01*
X183407200Y-95066666D02*
X183359580Y-95114285D01*
X183359580Y-95114285D02*
X183264342Y-95161904D01*
X183264342Y-95161904D02*
X183073866Y-95161904D01*
X183073866Y-95161904D02*
X182978628Y-95114285D01*
X182978628Y-95114285D02*
X182931009Y-95066666D01*
X182931009Y-95066666D02*
X182883390Y-94971428D01*
X181042857Y-108304819D02*
X181376190Y-107828628D01*
X181614285Y-108304819D02*
X181614285Y-107304819D01*
X181614285Y-107304819D02*
X181233333Y-107304819D01*
X181233333Y-107304819D02*
X181138095Y-107352438D01*
X181138095Y-107352438D02*
X181090476Y-107400057D01*
X181090476Y-107400057D02*
X181042857Y-107495295D01*
X181042857Y-107495295D02*
X181042857Y-107638152D01*
X181042857Y-107638152D02*
X181090476Y-107733390D01*
X181090476Y-107733390D02*
X181138095Y-107781009D01*
X181138095Y-107781009D02*
X181233333Y-107828628D01*
X181233333Y-107828628D02*
X181614285Y-107828628D01*
X180185714Y-107638152D02*
X180185714Y-108304819D01*
X180423809Y-107257200D02*
X180661904Y-107971485D01*
X180661904Y-107971485D02*
X180042857Y-107971485D01*
X179233333Y-107638152D02*
X179233333Y-108304819D01*
X179471428Y-107257200D02*
X179709523Y-107971485D01*
X179709523Y-107971485D02*
X179090476Y-107971485D01*
D12*
%TO.C,C52*%
X188155000Y-100532164D02*
X188155000Y-100747836D01*
X188875000Y-100532164D02*
X188875000Y-100747836D01*
D13*
%TO.C,U9*%
X178087000Y-79850000D02*
X178087000Y-106550000D01*
X186286000Y-82151000D02*
X188407000Y-82151000D01*
X186286000Y-82569000D02*
X186286000Y-82151000D01*
X186286027Y-103882973D02*
X186286027Y-104300973D01*
X186286027Y-104300973D02*
X188407027Y-104300973D01*
X192434000Y-86178000D02*
X188407000Y-82151000D01*
X192434000Y-100274000D02*
X188407027Y-104300973D01*
X197387000Y-79850000D02*
X178087000Y-79850000D01*
X197387000Y-79850000D02*
X197387000Y-106550000D01*
X197387000Y-86178000D02*
X192434000Y-86178000D01*
X197387000Y-100274000D02*
X192434000Y-100274000D01*
X197387000Y-106550000D02*
X178087000Y-106550000D01*
D12*
%TO.C,C50*%
X183777836Y-83780000D02*
X183562164Y-83780000D01*
X183777836Y-84500000D02*
X183562164Y-84500000D01*
%TO.C,R43*%
X183818641Y-85710000D02*
X183511359Y-85710000D01*
X183818641Y-86470000D02*
X183511359Y-86470000D01*
D14*
%TO.C,Q4*%
X183437600Y-104212600D02*
X184250400Y-104212600D01*
X184250400Y-104212600D02*
X184250400Y-104871400D01*
X184250400Y-106398600D02*
X184250400Y-107057400D01*
X184250400Y-107057400D02*
X183437600Y-107057400D01*
D12*
%TO.C,C49*%
X183797836Y-84755000D02*
X183582164Y-84755000D01*
X183797836Y-85475000D02*
X183582164Y-85475000D01*
D14*
%TO.C,Q1*%
X181542600Y-100454600D02*
X182201400Y-100454600D01*
X181542600Y-101267400D02*
X181542600Y-100454600D01*
X183728600Y-100454600D02*
X184387400Y-100454600D01*
X184387400Y-100454600D02*
X184387400Y-101267400D01*
D12*
%TO.C,C47*%
X182830000Y-97317836D02*
X182830000Y-97102164D01*
X183550000Y-97317836D02*
X183550000Y-97102164D01*
%TO.C,R42*%
X182943641Y-103135000D02*
X182636359Y-103135000D01*
X182943641Y-103895000D02*
X182636359Y-103895000D01*
%TO.C,C48*%
X183780000Y-97317836D02*
X183780000Y-97102164D01*
X184500000Y-97317836D02*
X184500000Y-97102164D01*
%TO.C,C51*%
X188155000Y-102382164D02*
X188155000Y-102597836D01*
X188875000Y-102382164D02*
X188875000Y-102597836D01*
%TO.C,R18*%
X183735000Y-94731359D02*
X183735000Y-95038641D01*
X184495000Y-94731359D02*
X184495000Y-95038641D01*
%TO.C,R44*%
X182868641Y-107430000D02*
X182561359Y-107430000D01*
X182868641Y-108190000D02*
X182561359Y-108190000D01*
%TD*%
%LPC*%
D15*
%TO.C,J6*%
X138843100Y-102675000D02*
G75*
G02*
X137266900Y-102675000I-788100J0D01*
G01*
X137266900Y-102675000D02*
G75*
G02*
X138843100Y-102675000I788100J0D01*
G01*
D16*
X142793100Y-99675000D02*
G75*
G02*
X141956900Y-99675000I-418100J0D01*
G01*
X141956900Y-99675000D02*
G75*
G02*
X142793100Y-99675000I418100J0D01*
G01*
X142793100Y-102675000D02*
G75*
G02*
X141956900Y-102675000I-418100J0D01*
G01*
X141956900Y-102675000D02*
G75*
G02*
X142793100Y-102675000I418100J0D01*
G01*
X145793100Y-99675000D02*
G75*
G02*
X144956900Y-99675000I-418100J0D01*
G01*
X144956900Y-99675000D02*
G75*
G02*
X145793100Y-99675000I418100J0D01*
G01*
X145793100Y-102675000D02*
G75*
G02*
X144956900Y-102675000I-418100J0D01*
G01*
X144956900Y-102675000D02*
G75*
G02*
X145793100Y-102675000I418100J0D01*
G01*
X145793100Y-105675000D02*
G75*
G02*
X144956900Y-105675000I-418100J0D01*
G01*
X144956900Y-105675000D02*
G75*
G02*
X145793100Y-105675000I418100J0D01*
G01*
D17*
X143211200Y-106511200D02*
X141538800Y-106511200D01*
X141538800Y-104838800D01*
X143211200Y-104838800D01*
X143211200Y-106511200D01*
G36*
X143211200Y-106511200D02*
G01*
X141538800Y-106511200D01*
X141538800Y-104838800D01*
X143211200Y-104838800D01*
X143211200Y-106511200D01*
G37*
%TD*%
D18*
%TO.C,J6*%
X138055000Y-102675000D03*
%TD*%
D19*
%TO.C,J7*%
X150760000Y-104200000D03*
D20*
X155840000Y-104200000D03*
X160920000Y-104200000D03*
X166000000Y-104200000D03*
%TD*%
D21*
%TO.C,J1*%
X137110352Y-75980001D03*
D22*
X137110352Y-80300000D03*
D23*
X137110352Y-83299999D03*
%TD*%
D24*
%TO.C,J2*%
X185975000Y-79680000D03*
X185975000Y-73900000D03*
D25*
X185475000Y-81110000D03*
D26*
X189655000Y-81110000D03*
D25*
X185475000Y-72470000D03*
D26*
X189655000Y-72470000D03*
%TD*%
D27*
%TO.C,C52*%
X188515000Y-101120000D03*
X188515000Y-100160000D03*
%TD*%
D28*
%TO.C,U9*%
X186300000Y-103350000D03*
X186300000Y-102650000D03*
X186300000Y-101950000D03*
X186300000Y-101250000D03*
X186300000Y-100550000D03*
X186300000Y-99850000D03*
X186300000Y-99150000D03*
X186300000Y-98450000D03*
X186300000Y-97750000D03*
X186300000Y-97050000D03*
X186300000Y-96350000D03*
X186300000Y-95650000D03*
X186300000Y-94950000D03*
X186300000Y-94250000D03*
X186300000Y-93550000D03*
X186300000Y-92850000D03*
X186300000Y-92150000D03*
X186300000Y-91450000D03*
X186300000Y-90750000D03*
X186300000Y-90050000D03*
X186300000Y-89350000D03*
X186300000Y-88650000D03*
X186300000Y-87950000D03*
X186300000Y-87250000D03*
X186300000Y-86550000D03*
X186300000Y-85850000D03*
X186300000Y-85150000D03*
X186300000Y-84450000D03*
X186300000Y-83750000D03*
X186300000Y-83050000D03*
%TD*%
D29*
%TO.C,C50*%
X183190000Y-84140000D03*
X184150000Y-84140000D03*
%TD*%
D30*
%TO.C,R43*%
X183155000Y-86090000D03*
X184175000Y-86090000D03*
%TD*%
D31*
%TO.C,Q4*%
X182490000Y-106585000D03*
X182490000Y-104685000D03*
X184690000Y-105635000D03*
%TD*%
D29*
%TO.C,C49*%
X183210000Y-85115000D03*
X184170000Y-85115000D03*
%TD*%
D32*
%TO.C,Q1*%
X183915000Y-102215000D03*
X182015000Y-102215000D03*
X182965000Y-100015000D03*
%TD*%
D33*
%TO.C,C47*%
X183190000Y-96730000D03*
X183190000Y-97690000D03*
%TD*%
D30*
%TO.C,R42*%
X182280000Y-103515000D03*
X183300000Y-103515000D03*
%TD*%
D33*
%TO.C,C48*%
X184140000Y-96730000D03*
X184140000Y-97690000D03*
%TD*%
D27*
%TO.C,C51*%
X188515000Y-102970000D03*
X188515000Y-102010000D03*
%TD*%
D34*
%TO.C,R18*%
X184115000Y-95395000D03*
X184115000Y-94375000D03*
%TD*%
D30*
%TO.C,R44*%
X182205000Y-107810000D03*
X183225000Y-107810000D03*
%TD*%
%LPD*%
M02*
