%TF.GenerationSoftware,KiCad,Pcbnew,8.99.0-3334-g98ae574c78*%
%TF.CreationDate,2024-12-09T23:46:28-05:00*%
%TF.ProjectId,SmartPowerBoard,536d6172-7450-46f7-9765-72426f617264,rev?*%
%TF.SameCoordinates,Original*%
%TF.FileFunction,Soldermask,Bot*%
%TF.FilePolarity,Negative*%
%FSLAX46Y46*%
G04 Gerber Fmt 4.6, Leading zero omitted, Abs format (unit mm)*
G04 Created by KiCad (PCBNEW 8.99.0-3334-g98ae574c78) date 2024-12-09 23:46:28*
%MOMM*%
%LPD*%
G01*
G04 APERTURE LIST*
G04 Aperture macros list*
%AMRoundRect*
0 Rectangle with rounded corners*
0 $1 Rounding radius*
0 $2 $3 $4 $5 $6 $7 $8 $9 X,Y pos of 4 corners*
0 Add a 4 corners polygon primitive as box body*
4,1,4,$2,$3,$4,$5,$6,$7,$8,$9,$2,$3,0*
0 Add four circle primitives for the rounded corners*
1,1,$1+$1,$2,$3*
1,1,$1+$1,$4,$5*
1,1,$1+$1,$6,$7*
1,1,$1+$1,$8,$9*
0 Add four rect primitives between the rounded corners*
20,1,$1+$1,$2,$3,$4,$5,0*
20,1,$1+$1,$4,$5,$6,$7,0*
20,1,$1+$1,$6,$7,$8,$9,0*
20,1,$1+$1,$8,$9,$2,$3,0*%
G04 Aperture macros list end*
%ADD10C,1.576200*%
%ADD11C,0.836200*%
%ADD12C,0.010000*%
%ADD13C,3.000000*%
%ADD14R,2.100000X2.100000*%
%ADD15C,2.100000*%
%ADD16C,2.999999*%
%ADD17R,1.520000X1.520000*%
%ADD18C,1.520000*%
%ADD19C,0.650000*%
%ADD20O,2.100000X1.000000*%
%ADD21O,1.800000X1.000000*%
%ADD22RoundRect,0.140000X0.170000X-0.140000X0.170000X0.140000X-0.170000X0.140000X-0.170000X-0.140000X0*%
%ADD23R,3.000000X0.500000*%
%ADD24RoundRect,0.140000X-0.140000X-0.170000X0.140000X-0.170000X0.140000X0.170000X-0.140000X0.170000X0*%
%ADD25RoundRect,0.135000X-0.135000X-0.185000X0.135000X-0.185000X0.135000X0.185000X-0.135000X0.185000X0*%
%ADD26R,1.400000X1.000000*%
%ADD27R,1.000000X1.400000*%
%ADD28RoundRect,0.140000X-0.170000X0.140000X-0.170000X-0.140000X0.170000X-0.140000X0.170000X0.140000X0*%
%ADD29RoundRect,0.135000X0.185000X-0.135000X0.185000X0.135000X-0.185000X0.135000X-0.185000X-0.135000X0*%
G04 APERTURE END LIST*
D10*
%TO.C,J6*%
X138843100Y-102675000D02*
G75*
G02*
X137266900Y-102675000I-788100J0D01*
G01*
X137266900Y-102675000D02*
G75*
G02*
X138843100Y-102675000I788100J0D01*
G01*
D11*
X142793100Y-99675000D02*
G75*
G02*
X141956900Y-99675000I-418100J0D01*
G01*
X141956900Y-99675000D02*
G75*
G02*
X142793100Y-99675000I418100J0D01*
G01*
X142793100Y-102675000D02*
G75*
G02*
X141956900Y-102675000I-418100J0D01*
G01*
X141956900Y-102675000D02*
G75*
G02*
X142793100Y-102675000I418100J0D01*
G01*
X145793100Y-99675000D02*
G75*
G02*
X144956900Y-99675000I-418100J0D01*
G01*
X144956900Y-99675000D02*
G75*
G02*
X145793100Y-99675000I418100J0D01*
G01*
X145793100Y-102675000D02*
G75*
G02*
X144956900Y-102675000I-418100J0D01*
G01*
X144956900Y-102675000D02*
G75*
G02*
X145793100Y-102675000I418100J0D01*
G01*
X145793100Y-105675000D02*
G75*
G02*
X144956900Y-105675000I-418100J0D01*
G01*
X144956900Y-105675000D02*
G75*
G02*
X145793100Y-105675000I418100J0D01*
G01*
D12*
X143211200Y-106511200D02*
X141538800Y-106511200D01*
X141538800Y-104838800D01*
X143211200Y-104838800D01*
X143211200Y-106511200D01*
G36*
X143211200Y-106511200D02*
G01*
X141538800Y-106511200D01*
X141538800Y-104838800D01*
X143211200Y-104838800D01*
X143211200Y-106511200D01*
G37*
%TD*%
D13*
%TO.C,J6*%
X138055000Y-102675000D03*
%TD*%
D14*
%TO.C,J7*%
X150760000Y-104200000D03*
D15*
X155840000Y-104200000D03*
X160920000Y-104200000D03*
X166000000Y-104200000D03*
%TD*%
D16*
%TO.C,J1*%
X137110352Y-75980001D03*
D17*
X137110352Y-80300000D03*
D18*
X137110352Y-83299999D03*
%TD*%
D19*
%TO.C,J2*%
X185975000Y-79680000D03*
X185975000Y-73900000D03*
D20*
X185475000Y-81110000D03*
D21*
X189655000Y-81110000D03*
D20*
X185475000Y-72470000D03*
D21*
X189655000Y-72470000D03*
%TD*%
D22*
%TO.C,C52*%
X188515000Y-101120000D03*
X188515000Y-100160000D03*
%TD*%
D23*
%TO.C,U9*%
X186300000Y-103350000D03*
X186300000Y-102650000D03*
X186300000Y-101950000D03*
X186300000Y-101250000D03*
X186300000Y-100550000D03*
X186300000Y-99850000D03*
X186300000Y-99150000D03*
X186300000Y-98450000D03*
X186300000Y-97750000D03*
X186300000Y-97050000D03*
X186300000Y-96350000D03*
X186300000Y-95650000D03*
X186300000Y-94950000D03*
X186300000Y-94250000D03*
X186300000Y-93550000D03*
X186300000Y-92850000D03*
X186300000Y-92150000D03*
X186300000Y-91450000D03*
X186300000Y-90750000D03*
X186300000Y-90050000D03*
X186300000Y-89350000D03*
X186300000Y-88650000D03*
X186300000Y-87950000D03*
X186300000Y-87250000D03*
X186300000Y-86550000D03*
X186300000Y-85850000D03*
X186300000Y-85150000D03*
X186300000Y-84450000D03*
X186300000Y-83750000D03*
X186300000Y-83050000D03*
%TD*%
D24*
%TO.C,C50*%
X183190000Y-84140000D03*
X184150000Y-84140000D03*
%TD*%
D25*
%TO.C,R43*%
X183155000Y-86090000D03*
X184175000Y-86090000D03*
%TD*%
D26*
%TO.C,Q4*%
X182490000Y-106585000D03*
X182490000Y-104685000D03*
X184690000Y-105635000D03*
%TD*%
D24*
%TO.C,C49*%
X183210000Y-85115000D03*
X184170000Y-85115000D03*
%TD*%
D27*
%TO.C,Q1*%
X183915000Y-102215000D03*
X182015000Y-102215000D03*
X182965000Y-100015000D03*
%TD*%
D28*
%TO.C,C47*%
X183190000Y-96730000D03*
X183190000Y-97690000D03*
%TD*%
D25*
%TO.C,R42*%
X182280000Y-103515000D03*
X183300000Y-103515000D03*
%TD*%
D28*
%TO.C,C48*%
X184140000Y-96730000D03*
X184140000Y-97690000D03*
%TD*%
D22*
%TO.C,C51*%
X188515000Y-102970000D03*
X188515000Y-102010000D03*
%TD*%
D29*
%TO.C,R18*%
X184115000Y-95395000D03*
X184115000Y-94375000D03*
%TD*%
D25*
%TO.C,R44*%
X182205000Y-107810000D03*
X183225000Y-107810000D03*
%TD*%
M02*
