M48
; DRILL file {KiCad 8.99.0-3258-g13625daeca} date 2025-03-11T23:12:25+0100
; FORMAT={-:-/ absolute / inch / decimal}
; #@! TF.CreationDate,2025-03-11T23:12:25+01:00
; #@! TF.GenerationSoftware,Kicad,Pcbnew,8.99.0-3258-g13625daeca
; #@! TF.FileFunction,NonPlated,1,4,NPTH
FMAT,2
INCH
; #@! TA.AperFunction,NonPlated,NPTH,ComponentDrill
T1C0.0197
; #@! TA.AperFunction,NonPlated,NPTH,ComponentDrill
T2C0.0256
%
G90
G05
T1
X5.1148Y-3.598
X5.1148Y-3.6571
X5.1148Y-3.8579
X5.1148Y-3.9169
X5.1148Y-4.1177
X5.1148Y-4.1768
X5.1443Y-3.598
X5.1443Y-3.6571
X5.1443Y-3.8579
X5.1443Y-3.9169
X5.1443Y-4.1177
X5.1443Y-4.1768
X5.1738Y-3.598
X5.1738Y-3.6571
X5.1738Y-3.8579
X5.1738Y-3.9169
X5.1738Y-4.1177
X5.1738Y-4.1768
X5.788Y-3.598
X5.788Y-3.6571
X5.788Y-3.8579
X5.788Y-3.9169
X5.788Y-4.1177
X5.788Y-4.1768
X5.8175Y-3.598
X5.8175Y-3.6571
X5.8175Y-3.8579
X5.8175Y-3.9169
X5.8175Y-4.1177
X5.8175Y-4.1768
X5.847Y-3.598
X5.847Y-3.6571
X5.847Y-3.8579
X5.847Y-3.9169
X5.847Y-4.1177
X5.847Y-4.1768
T2
X7.1356Y-4.2614
X7.1356Y-4.4889
M30
