%TF.GenerationSoftware,KiCad,Pcbnew,7.99.0-3012-g423a5b9961*%
%TF.CreationDate,2023-10-30T13:08:26-04:00*%
%TF.ProjectId,anyesc,616e7965-7363-42e6-9b69-6361645f7063,V1.0*%
%TF.SameCoordinates,Original*%
%TF.FileFunction,Copper,L2,Inr*%
%TF.FilePolarity,Positive*%
%FSLAX46Y46*%
G04 Gerber Fmt 4.6, Leading zero omitted, Abs format (unit mm)*
G04 Created by KiCad (PCBNEW 7.99.0-3012-g423a5b9961) date 2023-10-30 13:08:26*
%MOMM*%
%LPD*%
G01*
G04 APERTURE LIST*
G04 Aperture macros list*
%AMRoundRect*
0 Rectangle with rounded corners*
0 $1 Rounding radius*
0 $2 $3 $4 $5 $6 $7 $8 $9 X,Y pos of 4 corners*
0 Add a 4 corners polygon primitive as box body*
4,1,4,$2,$3,$4,$5,$6,$7,$8,$9,$2,$3,0*
0 Add four circle primitives for the rounded corners*
1,1,$1+$1,$2,$3*
1,1,$1+$1,$4,$5*
1,1,$1+$1,$6,$7*
1,1,$1+$1,$8,$9*
0 Add four rect primitives between the rounded corners*
20,1,$1+$1,$2,$3,$4,$5,0*
20,1,$1+$1,$4,$5,$6,$7,0*
20,1,$1+$1,$6,$7,$8,$9,0*
20,1,$1+$1,$8,$9,$2,$3,0*%
G04 Aperture macros list end*
%TA.AperFunction,ComponentPad*%
%ADD10RoundRect,0.800000X6.800000X1.500000X-6.800000X1.500000X-6.800000X-1.500000X6.800000X-1.500000X0*%
%TD*%
%TA.AperFunction,ComponentPad*%
%ADD11C,0.500000*%
%TD*%
%TA.AperFunction,ComponentPad*%
%ADD12C,2.000000*%
%TD*%
%TA.AperFunction,ComponentPad*%
%ADD13R,1.700000X1.700000*%
%TD*%
%TA.AperFunction,ComponentPad*%
%ADD14O,1.700000X1.700000*%
%TD*%
%TA.AperFunction,ComponentPad*%
%ADD15R,4.750000X2.950000*%
%TD*%
%TA.AperFunction,ComponentPad*%
%ADD16R,3.950000X4.900000*%
%TD*%
%TA.AperFunction,ComponentPad*%
%ADD17R,3.950000X4.450000*%
%TD*%
%TA.AperFunction,ComponentPad*%
%ADD18R,3.950000X4.850000*%
%TD*%
%TA.AperFunction,ComponentPad*%
%ADD19C,2.500000*%
%TD*%
%TA.AperFunction,ComponentPad*%
%ADD20O,2.100000X1.000000*%
%TD*%
%TA.AperFunction,ComponentPad*%
%ADD21O,1.600000X1.000000*%
%TD*%
%TA.AperFunction,ViaPad*%
%ADD22C,0.500000*%
%TD*%
%TA.AperFunction,ViaPad*%
%ADD23C,0.400000*%
%TD*%
G04 APERTURE END LIST*
D10*
%TO.N,N/C*%
%TO.C,H5*%
X130665000Y-108640400D03*
%TD*%
D11*
%TO.N,GND*%
%TO.C,U1*%
X171632000Y-109781000D03*
X168932000Y-109781000D03*
X171632000Y-112481000D03*
X168932000Y-112481000D03*
%TD*%
D12*
%TO.N,/RP2040/RUN*%
%TO.C,SW2*%
X184673000Y-95547000D03*
%TO.N,GND*%
X184673000Y-102047000D03*
%TD*%
D10*
%TO.N,N/C*%
%TO.C,H5*%
X147765000Y-108640400D03*
%TD*%
%TO.N,N/C*%
%TO.C,H4*%
X147765000Y-102040400D03*
%TD*%
D13*
%TO.N,/RP2040/SWCLK*%
%TO.C,J2*%
X177053000Y-101783000D03*
D14*
%TO.N,/RP2040/SWDIO*%
X177053000Y-99243000D03*
%TO.N,+3V3*%
X177053000Y-96703000D03*
%TO.N,GND*%
X177053000Y-94163000D03*
%TD*%
D15*
%TO.N,+12V*%
%TO.C,U3*%
X158540000Y-109515400D03*
%TO.N,GND*%
X158540000Y-94615400D03*
D16*
%TO.N,/PHASE_A*%
X119390000Y-95740400D03*
D17*
%TO.N,/PHASE_B*%
X119390000Y-102015400D03*
D18*
%TO.N,/PHASE_C*%
X119390000Y-108465400D03*
%TD*%
D19*
%TO.N,/ESC_PWM*%
%TO.C,TP3*%
X163254000Y-93726000D03*
%TD*%
%TO.N,/UART1_RX*%
%TO.C,TP2*%
X167804000Y-93726000D03*
%TD*%
D10*
%TO.N,N/C*%
%TO.C,H6*%
X130665000Y-95440400D03*
%TD*%
%TO.N,N/C*%
%TO.C,H4*%
X130665000Y-102040400D03*
%TD*%
%TO.N,N/C*%
%TO.C,H6*%
X147765000Y-95440400D03*
%TD*%
D12*
%TO.N,/RP2040/USB_BOOT*%
%TO.C,SW1*%
X181117000Y-95547000D03*
%TO.N,GND*%
X181117000Y-102047000D03*
%TD*%
D20*
%TO.N,GND*%
%TO.C,J1*%
X180714000Y-115449210D03*
D21*
X184894000Y-115449210D03*
D20*
X180714000Y-106809210D03*
D21*
X184894000Y-106809210D03*
%TD*%
D19*
%TO.N,/UART1_TX*%
%TO.C,TP1*%
X172354000Y-93726000D03*
%TD*%
D22*
%TO.N,+3V3*%
X178308000Y-121920000D03*
X179070000Y-120396000D03*
X172618400Y-108864400D03*
X170078400Y-115824000D03*
X179070000Y-118110000D03*
X179070000Y-119634000D03*
X165912800Y-111302800D03*
X174193200Y-114198400D03*
X178308000Y-118110000D03*
X178308000Y-118872000D03*
X166878000Y-115824000D03*
X178308000Y-120396000D03*
X179070000Y-121920000D03*
X179070000Y-121158000D03*
X179070000Y-118872000D03*
X169875200Y-106426000D03*
X178308000Y-119634000D03*
X172872400Y-111607600D03*
X172059600Y-115773200D03*
X178308000Y-121158000D03*
%TO.N,GND*%
X146050000Y-88900000D03*
X161798000Y-113284000D03*
X184658000Y-97536000D03*
X163830000Y-99441000D03*
X163830000Y-116332000D03*
X174244000Y-103378000D03*
X138430000Y-90170000D03*
X140970000Y-88900000D03*
X130175000Y-89535000D03*
X159004000Y-93472000D03*
X120015000Y-89535000D03*
X156464000Y-94234000D03*
X160528000Y-93472000D03*
X124460000Y-89535000D03*
X167640000Y-99314000D03*
X163322000Y-96774000D03*
X127000000Y-88900000D03*
X178562000Y-107442000D03*
X132080000Y-90805000D03*
X162825000Y-110350000D03*
X170434000Y-101346000D03*
X158115000Y-90805000D03*
X151765000Y-88900000D03*
X181102000Y-100076000D03*
X157226000Y-93472000D03*
X159766000Y-93472000D03*
X170434000Y-99568000D03*
X147955000Y-90170000D03*
X135255000Y-89535000D03*
X109220000Y-92710000D03*
X142875000Y-90170000D03*
X160528000Y-94234000D03*
X180594000Y-98298000D03*
X160528000Y-95758000D03*
X159766000Y-94234000D03*
X156464000Y-93472000D03*
X184912000Y-100076000D03*
X185420000Y-104648000D03*
X159004000Y-95758000D03*
X163576000Y-101727000D03*
X167894000Y-104648000D03*
X156464000Y-95758000D03*
X159766000Y-95758000D03*
X174244000Y-92202000D03*
X157226000Y-95758000D03*
X181356000Y-103886000D03*
X160528000Y-94996000D03*
X156464000Y-94996000D03*
X184912000Y-107950000D03*
X168910000Y-96774000D03*
X159766000Y-94996000D03*
X161290000Y-92202000D03*
X122555000Y-90170000D03*
X126365000Y-90170000D03*
X154940000Y-90170000D03*
X184912000Y-114046000D03*
X182880000Y-115316000D03*
X177800000Y-114808000D03*
X108585000Y-93980000D03*
X176784000Y-112776000D03*
X165750000Y-105475000D03*
X165862000Y-96520000D03*
X163830000Y-115570000D03*
X174752000Y-96520000D03*
X118110000Y-91440000D03*
D23*
%TO.N,Net-(J1-CC2)*%
X182880000Y-108966000D03*
X181102000Y-109220000D03*
D22*
%TO.N,/RP2040/SWCLK*%
X167792400Y-112115600D03*
X174142400Y-107391200D03*
%TO.N,/RP2040/SWDIO*%
X173831384Y-107961395D03*
X167792400Y-112765103D03*
%TO.N,/PHASE_A*%
X120904000Y-93726000D03*
X118618000Y-96012000D03*
X108585000Y-107315000D03*
X109855000Y-98425000D03*
X111125000Y-94615000D03*
X118618000Y-93726000D03*
X116205000Y-94615000D03*
X109855000Y-107315000D03*
X113665000Y-115570000D03*
X119380000Y-96774000D03*
X117856000Y-97536000D03*
X111125000Y-111760000D03*
X111125000Y-115570000D03*
X109855000Y-111760000D03*
X113665000Y-94615000D03*
X117856000Y-96774000D03*
X111125000Y-107315000D03*
X112395000Y-94615000D03*
X108585000Y-102235000D03*
X118618000Y-96774000D03*
X108585000Y-111760000D03*
X119380000Y-93726000D03*
X109855000Y-115570000D03*
X111125000Y-98425000D03*
X120904000Y-97536000D03*
X114935000Y-98425000D03*
X114935000Y-94615000D03*
X112395000Y-115570000D03*
X111125000Y-102235000D03*
X108585000Y-98425000D03*
X119380000Y-94488000D03*
X120904000Y-94488000D03*
X108585000Y-115570000D03*
X118618000Y-94488000D03*
X119380000Y-97536000D03*
X120904000Y-96774000D03*
X117856000Y-95250000D03*
X117856000Y-93726000D03*
X113665000Y-98425000D03*
X120142000Y-97536000D03*
X118618000Y-95250000D03*
X120142000Y-93726000D03*
X117856000Y-94488000D03*
X109855000Y-102235000D03*
X116205000Y-98425000D03*
X112395000Y-98425000D03*
X118618000Y-97536000D03*
X117856000Y-96012000D03*
%TO.N,/PHASE_B*%
X116205000Y-101600000D03*
X119380000Y-100076000D03*
X118618000Y-101600000D03*
X120904000Y-103124000D03*
X118618000Y-103886000D03*
X117856000Y-100838000D03*
X118618000Y-100838000D03*
X118745000Y-115570000D03*
X118618000Y-103124000D03*
X115570000Y-104775000D03*
X120142000Y-100076000D03*
X115570000Y-108585000D03*
X113030000Y-108585000D03*
X119380000Y-100838000D03*
X113030000Y-104775000D03*
X117856000Y-100076000D03*
X114300000Y-104775000D03*
X117856000Y-101600000D03*
X118618000Y-100076000D03*
X116205000Y-102870000D03*
X117856000Y-103886000D03*
X114300000Y-108585000D03*
X117856000Y-103124000D03*
X119380000Y-103886000D03*
X120904000Y-100838000D03*
X120142000Y-103886000D03*
X114300000Y-112395000D03*
X116840000Y-115570000D03*
X117856000Y-102362000D03*
X115570000Y-112395000D03*
X119380000Y-103124000D03*
X120904000Y-103886000D03*
X118618000Y-102362000D03*
X120904000Y-100076000D03*
X113030000Y-112395000D03*
%TO.N,/PHASE_C*%
X130810000Y-115570000D03*
X121920000Y-114300000D03*
X124460000Y-114300000D03*
X117856000Y-106426000D03*
X123190000Y-115570000D03*
X118110000Y-111760000D03*
X128270000Y-115570000D03*
X125730000Y-114300000D03*
X120650000Y-111760000D03*
X120904000Y-106426000D03*
X125730000Y-115570000D03*
X120904000Y-110236000D03*
X119380000Y-109474000D03*
X123190000Y-114300000D03*
X117856000Y-107950000D03*
X120904000Y-107188000D03*
X117856000Y-107188000D03*
X130810000Y-114300000D03*
X119380000Y-111760000D03*
X128270000Y-114300000D03*
X118618000Y-106426000D03*
X119380000Y-106426000D03*
X120142000Y-110236000D03*
X119380000Y-107188000D03*
X120650000Y-114300000D03*
X120904000Y-109474000D03*
X117856000Y-109474000D03*
X119380000Y-110236000D03*
X118618000Y-107188000D03*
X129540000Y-115570000D03*
X117856000Y-110236000D03*
X118618000Y-110236000D03*
X117856000Y-108712000D03*
X124460000Y-115570000D03*
X127000000Y-115570000D03*
X127000000Y-114300000D03*
X129540000Y-114300000D03*
X118618000Y-107950000D03*
X120142000Y-106426000D03*
X118618000Y-108712000D03*
X118618000Y-109474000D03*
%TO.N,/BOARD_TX*%
X166624000Y-106934000D03*
%TO.N,/BOARD_RX*%
X179070000Y-116586000D03*
X166624000Y-106172000D03*
%TO.N,/BOARD_RX_1*%
X182473600Y-113588800D03*
%TO.N,+12V*%
X140335000Y-116205000D03*
X139065000Y-117449600D03*
X137795000Y-117449600D03*
X160528000Y-109220000D03*
X145415000Y-117449600D03*
X159766000Y-110744000D03*
X147955000Y-114935000D03*
X135255000Y-117449600D03*
X156464000Y-109220000D03*
X153035000Y-117449600D03*
X156464000Y-109982000D03*
X157226000Y-110744000D03*
X159004000Y-108458000D03*
X160528000Y-110744000D03*
X132715000Y-117449600D03*
X159766000Y-109982000D03*
X146685000Y-113665000D03*
X136525000Y-113665000D03*
X160528000Y-108458000D03*
X159004000Y-110744000D03*
X135255000Y-113665000D03*
X154305000Y-114935000D03*
X149225000Y-117449600D03*
X154305000Y-117449600D03*
X136525000Y-117449600D03*
X142875000Y-117449600D03*
X141605000Y-116205000D03*
X150495000Y-116205000D03*
X150495000Y-117449600D03*
X147955000Y-117449600D03*
X133985000Y-114935000D03*
X132715000Y-114935000D03*
X140335000Y-117449600D03*
X144145000Y-117449600D03*
X157226000Y-108458000D03*
X151765000Y-116205000D03*
X137795000Y-114935000D03*
X133985000Y-117449600D03*
X144145000Y-114935000D03*
X149225000Y-114935000D03*
X139065000Y-114935000D03*
X145415000Y-113665000D03*
X156464000Y-110744000D03*
X142875000Y-114935000D03*
X151765000Y-117449600D03*
X159766000Y-109220000D03*
X156464000Y-108458000D03*
X153035000Y-114935000D03*
X159766000Y-108458000D03*
X146685000Y-117449600D03*
X141605000Y-117449600D03*
X160528000Y-109982000D03*
%TO.N,/UART1_TX*%
X171399200Y-108712000D03*
X170891200Y-106578400D03*
X184912000Y-109423200D03*
%TO.N,/RP2040/RUN*%
X167792400Y-113487200D03*
%TO.N,/RP2040/USB_BOOT*%
X168402000Y-101295200D03*
%TO.N,/RP2040/QSPI_CS*%
X174904400Y-108508800D03*
X171196000Y-104038400D03*
%TO.N,/UART1_RX*%
X183540400Y-110794800D03*
X170891200Y-105613200D03*
X170637200Y-108864400D03*
%TO.N,/RP2040/QSPI_SD3*%
X171399200Y-98145600D03*
X172923200Y-110540800D03*
%TO.N,/RP2040/QSPI_SCK*%
X174701200Y-110236000D03*
X172923200Y-98196400D03*
%TO.N,/RP2040/QSPI_SD0*%
X176885600Y-108712000D03*
X174498000Y-99161600D03*
%TO.N,/RP2040/QSPI_SD2*%
X176191655Y-108682843D03*
X173736000Y-104394000D03*
%TO.N,/RP2040/QSPI_SD1*%
X175547374Y-108600653D03*
X172923200Y-104597200D03*
%TO.N,/ESC_PWM*%
X170535600Y-104038400D03*
%TO.N,/RP2040/LED0*%
X169570400Y-104394000D03*
X173024800Y-106172000D03*
%TO.N,/RP2040/LED1*%
X168960800Y-104749600D03*
X172313600Y-106019600D03*
%TO.N,/RP2040/LED2*%
X168402000Y-103479600D03*
X171907200Y-106578400D03*
%TD*%
%TA.AperFunction,Conductor*%
%TO.N,+12V*%
G36*
X161233039Y-108060085D02*
G01*
X161278794Y-108112889D01*
X161290000Y-108164400D01*
X161290000Y-112119235D01*
X161270315Y-112186274D01*
X161242422Y-112216886D01*
X154686000Y-117347999D01*
X154686000Y-122878000D01*
X154666315Y-122945039D01*
X154613511Y-122990794D01*
X154562000Y-123002000D01*
X131950000Y-123002000D01*
X131882961Y-122982315D01*
X131837206Y-122929511D01*
X131826000Y-122878000D01*
X131826000Y-113064400D01*
X131845685Y-112997361D01*
X131898489Y-112951606D01*
X131950000Y-112940400D01*
X156115000Y-112940400D01*
X156115000Y-108164400D01*
X156134685Y-108097361D01*
X156187489Y-108051606D01*
X156239000Y-108040400D01*
X161166000Y-108040400D01*
X161233039Y-108060085D01*
G37*
%TD.AperFunction*%
%TD*%
%TA.AperFunction,Conductor*%
%TO.N,/PHASE_A*%
G36*
X121358039Y-92475685D02*
G01*
X121403794Y-92528489D01*
X121415000Y-92580000D01*
X121415000Y-98936000D01*
X121395315Y-99003039D01*
X121342511Y-99048794D01*
X121291000Y-99060000D01*
X116839999Y-99060000D01*
X112268000Y-103631999D01*
X112268000Y-112776000D01*
X116295681Y-116803681D01*
X116329166Y-116865004D01*
X116332000Y-116891362D01*
X116332000Y-122878000D01*
X116312315Y-122945039D01*
X116259511Y-122990794D01*
X116208000Y-123002000D01*
X109413935Y-123002000D01*
X109346896Y-122982315D01*
X109325566Y-122964988D01*
X109305929Y-122945039D01*
X108018840Y-121637519D01*
X107985840Y-121575936D01*
X107983210Y-121550705D01*
X107971568Y-112776000D01*
X107950068Y-96571457D01*
X107969664Y-96504392D01*
X107986382Y-96483617D01*
X111977681Y-92492319D01*
X112039004Y-92458834D01*
X112065362Y-92456000D01*
X121291000Y-92456000D01*
X121358039Y-92475685D01*
G37*
%TD.AperFunction*%
%TD*%
%TA.AperFunction,Conductor*%
%TO.N,/PHASE_C*%
G36*
X121358039Y-105175685D02*
G01*
X121403794Y-105228489D01*
X121415000Y-105280000D01*
X121415000Y-112940400D01*
X131448000Y-112940400D01*
X131515039Y-112960085D01*
X131560794Y-113012889D01*
X131572000Y-113064400D01*
X131572000Y-122878000D01*
X131552315Y-122945039D01*
X131499511Y-122990794D01*
X131448000Y-123002000D01*
X124281500Y-123002000D01*
X124214461Y-122982315D01*
X124168706Y-122929511D01*
X124157500Y-122878000D01*
X124157500Y-117393862D01*
X124156910Y-117382856D01*
X124156910Y-117382855D01*
X124153488Y-117351038D01*
X124153488Y-117351035D01*
X124129529Y-117274518D01*
X124096044Y-117213195D01*
X124060991Y-117166371D01*
X122351737Y-115457117D01*
X122348485Y-115454196D01*
X122343552Y-115449763D01*
X122343554Y-115449764D01*
X122318624Y-115429675D01*
X122270527Y-115404516D01*
X122240322Y-115382322D01*
X122174000Y-115316000D01*
X120483982Y-115316000D01*
X120416943Y-115296315D01*
X120396301Y-115279681D01*
X117130319Y-112013699D01*
X117096834Y-111952376D01*
X117094000Y-111926018D01*
X117094000Y-105751982D01*
X117113685Y-105684943D01*
X117130319Y-105664301D01*
X117602301Y-105192319D01*
X117663624Y-105158834D01*
X117689982Y-105156000D01*
X121291000Y-105156000D01*
X121358039Y-105175685D01*
G37*
%TD.AperFunction*%
%TD*%
%TA.AperFunction,Conductor*%
%TO.N,GND*%
G36*
X158130677Y-87969685D02*
G01*
X158151319Y-87986319D01*
X161673461Y-91508461D01*
X184860709Y-91508461D01*
X184927748Y-91528146D01*
X184948303Y-91544692D01*
X185406588Y-92002063D01*
X186109794Y-92703867D01*
X186143340Y-92765156D01*
X186146200Y-92791635D01*
X186146200Y-121325608D01*
X186126515Y-121392647D01*
X186110569Y-121412596D01*
X185484872Y-122048225D01*
X184617357Y-122929511D01*
X184582434Y-122964988D01*
X184521376Y-122998955D01*
X184494065Y-123002000D01*
X155015500Y-123002000D01*
X154948461Y-122982315D01*
X154902706Y-122929511D01*
X154891500Y-122878000D01*
X154891500Y-121920000D01*
X177852867Y-121920000D01*
X177871302Y-122048225D01*
X177925117Y-122166061D01*
X177925118Y-122166063D01*
X177983489Y-122233428D01*
X178008642Y-122262457D01*
X178009951Y-122263967D01*
X178118931Y-122334004D01*
X178243225Y-122370499D01*
X178243227Y-122370500D01*
X178243228Y-122370500D01*
X178372773Y-122370500D01*
X178372773Y-122370499D01*
X178497069Y-122334004D01*
X178606049Y-122263967D01*
X178606057Y-122263957D01*
X178607790Y-122262457D01*
X178609893Y-122261496D01*
X178613510Y-122259172D01*
X178613844Y-122259691D01*
X178671343Y-122233428D01*
X178740503Y-122243366D01*
X178770210Y-122262457D01*
X178771945Y-122263961D01*
X178771951Y-122263967D01*
X178880931Y-122334004D01*
X179005225Y-122370499D01*
X179005227Y-122370500D01*
X179005228Y-122370500D01*
X179134773Y-122370500D01*
X179134773Y-122370499D01*
X179259069Y-122334004D01*
X179368049Y-122263967D01*
X179452882Y-122166063D01*
X179506697Y-122048226D01*
X179525133Y-121920000D01*
X179506697Y-121791774D01*
X179452882Y-121673937D01*
X179406320Y-121620201D01*
X179377297Y-121556646D01*
X179387241Y-121487488D01*
X179406321Y-121457798D01*
X179452882Y-121404063D01*
X179506697Y-121286226D01*
X179525133Y-121158000D01*
X179506697Y-121029774D01*
X179452882Y-120911937D01*
X179406320Y-120858201D01*
X179377297Y-120794646D01*
X179387241Y-120725488D01*
X179406321Y-120695798D01*
X179452882Y-120642063D01*
X179506697Y-120524226D01*
X179525133Y-120396000D01*
X179506697Y-120267774D01*
X179452882Y-120149937D01*
X179406320Y-120096201D01*
X179377297Y-120032646D01*
X179387241Y-119963488D01*
X179406321Y-119933798D01*
X179452882Y-119880063D01*
X179506697Y-119762226D01*
X179525133Y-119634000D01*
X179506697Y-119505774D01*
X179452882Y-119387937D01*
X179406320Y-119334201D01*
X179377297Y-119270646D01*
X179387241Y-119201488D01*
X179406321Y-119171798D01*
X179452882Y-119118063D01*
X179506697Y-119000226D01*
X179525133Y-118872000D01*
X179506697Y-118743774D01*
X179452882Y-118625937D01*
X179406320Y-118572201D01*
X179377297Y-118508646D01*
X179387241Y-118439488D01*
X179406321Y-118409798D01*
X179452882Y-118356063D01*
X179506697Y-118238226D01*
X179525133Y-118110000D01*
X179506697Y-117981774D01*
X179452882Y-117863937D01*
X179368049Y-117766033D01*
X179259069Y-117695996D01*
X179259065Y-117695994D01*
X179259064Y-117695994D01*
X179134774Y-117659500D01*
X179134772Y-117659500D01*
X179005228Y-117659500D01*
X179005226Y-117659500D01*
X178880935Y-117695994D01*
X178880932Y-117695995D01*
X178880931Y-117695996D01*
X178826441Y-117731014D01*
X178771947Y-117766035D01*
X178770197Y-117767552D01*
X178768091Y-117768513D01*
X178764490Y-117770828D01*
X178764157Y-117770309D01*
X178706640Y-117796573D01*
X178637482Y-117786625D01*
X178607803Y-117767552D01*
X178606052Y-117766035D01*
X178606049Y-117766033D01*
X178497069Y-117695996D01*
X178497065Y-117695994D01*
X178497064Y-117695994D01*
X178372774Y-117659500D01*
X178372772Y-117659500D01*
X178243228Y-117659500D01*
X178243226Y-117659500D01*
X178118935Y-117695994D01*
X178118932Y-117695995D01*
X178118931Y-117695996D01*
X178067677Y-117728934D01*
X178009950Y-117766033D01*
X177925118Y-117863937D01*
X177925117Y-117863938D01*
X177871302Y-117981774D01*
X177852867Y-118110000D01*
X177871302Y-118238225D01*
X177925117Y-118356061D01*
X177925120Y-118356067D01*
X177971678Y-118409799D01*
X178000702Y-118473355D01*
X177990757Y-118542514D01*
X177971678Y-118572201D01*
X177925120Y-118625932D01*
X177925117Y-118625938D01*
X177871302Y-118743774D01*
X177852867Y-118872000D01*
X177871302Y-119000225D01*
X177925117Y-119118061D01*
X177925120Y-119118067D01*
X177971678Y-119171799D01*
X178000702Y-119235355D01*
X177990757Y-119304514D01*
X177971678Y-119334201D01*
X177925120Y-119387932D01*
X177925117Y-119387938D01*
X177871302Y-119505774D01*
X177852867Y-119634000D01*
X177871302Y-119762225D01*
X177925117Y-119880061D01*
X177925120Y-119880067D01*
X177971678Y-119933799D01*
X178000702Y-119997355D01*
X177990757Y-120066514D01*
X177971678Y-120096201D01*
X177925120Y-120149932D01*
X177925117Y-120149938D01*
X177871302Y-120267774D01*
X177852867Y-120396000D01*
X177871302Y-120524225D01*
X177925117Y-120642061D01*
X177925120Y-120642067D01*
X177971678Y-120695799D01*
X178000702Y-120759355D01*
X177990757Y-120828514D01*
X177971678Y-120858201D01*
X177925120Y-120911932D01*
X177925117Y-120911938D01*
X177871302Y-121029774D01*
X177852867Y-121158000D01*
X177871302Y-121286225D01*
X177925117Y-121404061D01*
X177925120Y-121404067D01*
X177971678Y-121457799D01*
X178000702Y-121521355D01*
X177990757Y-121590514D01*
X177971678Y-121620201D01*
X177925120Y-121673932D01*
X177925117Y-121673938D01*
X177871302Y-121791774D01*
X177852867Y-121920000D01*
X154891500Y-121920000D01*
X154891500Y-117508539D01*
X154911185Y-117441500D01*
X154939078Y-117410888D01*
X155829257Y-116714226D01*
X155993101Y-116586000D01*
X178614867Y-116586000D01*
X178633302Y-116714225D01*
X178687117Y-116832061D01*
X178687118Y-116832063D01*
X178771951Y-116929967D01*
X178880931Y-117000004D01*
X179005225Y-117036499D01*
X179005227Y-117036500D01*
X179005228Y-117036500D01*
X179134773Y-117036500D01*
X179134773Y-117036499D01*
X179259069Y-117000004D01*
X179368049Y-116929967D01*
X179452882Y-116832063D01*
X179506697Y-116714226D01*
X179525133Y-116586000D01*
X179506697Y-116457774D01*
X179452882Y-116339937D01*
X179368049Y-116242033D01*
X179259069Y-116171996D01*
X179259065Y-116171994D01*
X179259064Y-116171994D01*
X179134774Y-116135500D01*
X179134772Y-116135500D01*
X179005228Y-116135500D01*
X179005226Y-116135500D01*
X178880935Y-116171994D01*
X178880932Y-116171995D01*
X178880931Y-116171996D01*
X178829677Y-116204934D01*
X178771950Y-116242033D01*
X178687118Y-116339937D01*
X178687117Y-116339938D01*
X178633302Y-116457774D01*
X178614867Y-116586000D01*
X155993101Y-116586000D01*
X156966768Y-115824000D01*
X166422867Y-115824000D01*
X166441302Y-115952225D01*
X166471918Y-116019263D01*
X166495118Y-116070063D01*
X166579951Y-116167967D01*
X166688931Y-116238004D01*
X166702653Y-116242033D01*
X166813225Y-116274499D01*
X166813227Y-116274500D01*
X166813228Y-116274500D01*
X166942773Y-116274500D01*
X166942773Y-116274499D01*
X167067069Y-116238004D01*
X167176049Y-116167967D01*
X167260882Y-116070063D01*
X167314697Y-115952226D01*
X167333133Y-115824000D01*
X169623267Y-115824000D01*
X169641702Y-115952225D01*
X169672318Y-116019263D01*
X169695518Y-116070063D01*
X169780351Y-116167967D01*
X169889331Y-116238004D01*
X169903053Y-116242033D01*
X170013625Y-116274499D01*
X170013627Y-116274500D01*
X170013628Y-116274500D01*
X170143173Y-116274500D01*
X170143173Y-116274499D01*
X170267469Y-116238004D01*
X170376449Y-116167967D01*
X170461282Y-116070063D01*
X170515097Y-115952226D01*
X170533533Y-115824000D01*
X170526229Y-115773200D01*
X171604467Y-115773200D01*
X171622902Y-115901425D01*
X171646102Y-115952225D01*
X171676718Y-116019263D01*
X171761551Y-116117167D01*
X171870531Y-116187204D01*
X171994825Y-116223699D01*
X171994827Y-116223700D01*
X171994828Y-116223700D01*
X172124373Y-116223700D01*
X172124373Y-116223699D01*
X172248669Y-116187204D01*
X172357649Y-116117167D01*
X172442482Y-116019263D01*
X172496297Y-115901426D01*
X172514733Y-115773200D01*
X172496297Y-115644974D01*
X172442482Y-115527137D01*
X172357649Y-115429233D01*
X172248669Y-115359196D01*
X172248665Y-115359194D01*
X172248664Y-115359194D01*
X172124374Y-115322700D01*
X172124372Y-115322700D01*
X171994828Y-115322700D01*
X171994826Y-115322700D01*
X171870535Y-115359194D01*
X171870532Y-115359195D01*
X171870531Y-115359196D01*
X171819277Y-115392134D01*
X171761550Y-115429233D01*
X171676718Y-115527137D01*
X171676717Y-115527138D01*
X171622902Y-115644974D01*
X171604467Y-115773200D01*
X170526229Y-115773200D01*
X170515097Y-115695774D01*
X170461282Y-115577937D01*
X170376449Y-115480033D01*
X170267469Y-115409996D01*
X170267465Y-115409994D01*
X170267464Y-115409994D01*
X170143174Y-115373500D01*
X170143172Y-115373500D01*
X170013628Y-115373500D01*
X170013626Y-115373500D01*
X169889335Y-115409994D01*
X169889332Y-115409995D01*
X169889331Y-115409996D01*
X169859398Y-115429233D01*
X169780350Y-115480033D01*
X169695518Y-115577937D01*
X169695517Y-115577938D01*
X169641702Y-115695774D01*
X169623267Y-115824000D01*
X167333133Y-115824000D01*
X167314697Y-115695774D01*
X167260882Y-115577937D01*
X167176049Y-115480033D01*
X167067069Y-115409996D01*
X167067065Y-115409994D01*
X167067064Y-115409994D01*
X166942774Y-115373500D01*
X166942772Y-115373500D01*
X166813228Y-115373500D01*
X166813226Y-115373500D01*
X166688935Y-115409994D01*
X166688932Y-115409995D01*
X166688931Y-115409996D01*
X166658998Y-115429233D01*
X166579950Y-115480033D01*
X166495118Y-115577937D01*
X166495117Y-115577938D01*
X166441302Y-115695774D01*
X166422867Y-115824000D01*
X156966768Y-115824000D01*
X159043923Y-114198400D01*
X173738067Y-114198400D01*
X173756502Y-114326625D01*
X173803558Y-114429661D01*
X173810318Y-114444463D01*
X173895151Y-114542367D01*
X174004131Y-114612404D01*
X174128425Y-114648899D01*
X174128427Y-114648900D01*
X174128428Y-114648900D01*
X174257973Y-114648900D01*
X174257973Y-114648899D01*
X174382269Y-114612404D01*
X174491249Y-114542367D01*
X174576082Y-114444463D01*
X174629897Y-114326626D01*
X174648333Y-114198400D01*
X174629897Y-114070174D01*
X174606622Y-114019210D01*
X180663534Y-114019210D01*
X180683312Y-114169444D01*
X180683313Y-114169446D01*
X180741302Y-114309443D01*
X180833549Y-114429661D01*
X180953767Y-114521908D01*
X181093764Y-114579897D01*
X181206280Y-114594710D01*
X181206287Y-114594710D01*
X181281713Y-114594710D01*
X181281720Y-114594710D01*
X181394236Y-114579897D01*
X181534233Y-114521908D01*
X181654451Y-114429661D01*
X181746698Y-114309443D01*
X181804687Y-114169446D01*
X181824466Y-114019210D01*
X181804687Y-113868974D01*
X181746698Y-113728977D01*
X181654451Y-113608759D01*
X181628440Y-113588800D01*
X182018467Y-113588800D01*
X182036902Y-113717025D01*
X182067669Y-113784394D01*
X182090718Y-113834863D01*
X182175551Y-113932767D01*
X182284531Y-114002804D01*
X182408825Y-114039299D01*
X182408827Y-114039300D01*
X182408828Y-114039300D01*
X182538373Y-114039300D01*
X182538373Y-114039299D01*
X182662669Y-114002804D01*
X182771649Y-113932767D01*
X182856482Y-113834863D01*
X182910297Y-113717026D01*
X182928733Y-113588800D01*
X182910297Y-113460574D01*
X182856482Y-113342737D01*
X182771649Y-113244833D01*
X182662669Y-113174796D01*
X182662665Y-113174794D01*
X182662664Y-113174794D01*
X182538374Y-113138300D01*
X182538372Y-113138300D01*
X182408828Y-113138300D01*
X182408826Y-113138300D01*
X182284535Y-113174794D01*
X182284532Y-113174795D01*
X182284531Y-113174796D01*
X182233873Y-113207352D01*
X182175550Y-113244833D01*
X182090718Y-113342737D01*
X182090717Y-113342738D01*
X182036902Y-113460574D01*
X182018467Y-113588800D01*
X181628440Y-113588800D01*
X181534233Y-113516512D01*
X181534229Y-113516510D01*
X181463468Y-113487200D01*
X181394236Y-113458523D01*
X181380171Y-113456671D01*
X181281727Y-113443710D01*
X181281720Y-113443710D01*
X181206280Y-113443710D01*
X181206272Y-113443710D01*
X181093764Y-113458523D01*
X181093763Y-113458523D01*
X180953770Y-113516510D01*
X180953767Y-113516511D01*
X180953767Y-113516512D01*
X180833549Y-113608759D01*
X180750473Y-113717026D01*
X180741300Y-113728980D01*
X180683313Y-113868973D01*
X180683312Y-113868975D01*
X180663534Y-114019209D01*
X180663534Y-114019210D01*
X174606622Y-114019210D01*
X174576082Y-113952337D01*
X174491249Y-113854433D01*
X174382269Y-113784396D01*
X174382265Y-113784394D01*
X174382264Y-113784394D01*
X174257974Y-113747900D01*
X174257972Y-113747900D01*
X174128428Y-113747900D01*
X174128426Y-113747900D01*
X174004135Y-113784394D01*
X174004132Y-113784395D01*
X174004131Y-113784396D01*
X173952877Y-113817334D01*
X173895150Y-113854433D01*
X173810318Y-113952337D01*
X173810317Y-113952338D01*
X173756502Y-114070174D01*
X173738067Y-114198400D01*
X159043923Y-114198400D01*
X159952679Y-113487200D01*
X167337267Y-113487200D01*
X167355702Y-113615425D01*
X167402102Y-113717025D01*
X167409518Y-113733263D01*
X167494351Y-113831167D01*
X167603331Y-113901204D01*
X167727625Y-113937699D01*
X167727627Y-113937700D01*
X167727628Y-113937700D01*
X167857173Y-113937700D01*
X167857173Y-113937699D01*
X167981469Y-113901204D01*
X168090449Y-113831167D01*
X168175282Y-113733263D01*
X168229097Y-113615426D01*
X168247533Y-113487200D01*
X168229097Y-113358974D01*
X168175282Y-113241137D01*
X168175280Y-113241135D01*
X168175279Y-113241132D01*
X168146009Y-113207353D01*
X168116984Y-113143797D01*
X168126928Y-113074639D01*
X168146010Y-113044948D01*
X168175279Y-113011170D01*
X168175279Y-113011168D01*
X168175282Y-113011166D01*
X168229097Y-112893329D01*
X168247533Y-112765103D01*
X168229097Y-112636877D01*
X168175282Y-112519040D01*
X168175279Y-112519037D01*
X168170487Y-112511579D01*
X168172356Y-112510377D01*
X168148436Y-112458002D01*
X168158377Y-112388843D01*
X168170886Y-112369380D01*
X168170487Y-112369124D01*
X168175277Y-112361668D01*
X168175282Y-112361663D01*
X168229097Y-112243826D01*
X168247533Y-112115600D01*
X168229097Y-111987374D01*
X168175282Y-111869537D01*
X168090449Y-111771633D01*
X167981469Y-111701596D01*
X167981465Y-111701594D01*
X167981464Y-111701594D01*
X167857174Y-111665100D01*
X167857172Y-111665100D01*
X167727628Y-111665100D01*
X167727626Y-111665100D01*
X167603335Y-111701594D01*
X167603332Y-111701595D01*
X167603331Y-111701596D01*
X167552077Y-111734534D01*
X167494350Y-111771633D01*
X167409518Y-111869537D01*
X167409517Y-111869538D01*
X167355702Y-111987374D01*
X167337267Y-112115600D01*
X167355702Y-112243825D01*
X167409517Y-112361661D01*
X167414313Y-112369124D01*
X167412443Y-112370325D01*
X167436364Y-112422703D01*
X167426421Y-112491861D01*
X167413915Y-112511322D01*
X167414313Y-112511578D01*
X167409518Y-112519039D01*
X167355702Y-112636877D01*
X167337267Y-112765103D01*
X167355702Y-112893328D01*
X167409517Y-113011164D01*
X167409520Y-113011170D01*
X167438790Y-113044949D01*
X167467815Y-113108505D01*
X167457871Y-113177663D01*
X167438791Y-113207352D01*
X167409520Y-113241132D01*
X167409517Y-113241138D01*
X167355702Y-113358974D01*
X167337267Y-113487200D01*
X159952679Y-113487200D01*
X161369073Y-112378718D01*
X161369076Y-112378715D01*
X161369076Y-112378716D01*
X161394322Y-112355294D01*
X161422215Y-112324682D01*
X161422843Y-112323989D01*
X161467490Y-112244172D01*
X161487175Y-112177133D01*
X161495500Y-112119235D01*
X161495500Y-111302800D01*
X165457667Y-111302800D01*
X165476102Y-111431025D01*
X165498183Y-111479374D01*
X165529918Y-111548863D01*
X165614751Y-111646767D01*
X165723731Y-111716804D01*
X165788516Y-111735826D01*
X165848025Y-111753299D01*
X165848027Y-111753300D01*
X165848028Y-111753300D01*
X165977573Y-111753300D01*
X165977573Y-111753299D01*
X166101869Y-111716804D01*
X166210849Y-111646767D01*
X166244787Y-111607600D01*
X172417267Y-111607600D01*
X172435702Y-111735825D01*
X172489517Y-111853661D01*
X172489518Y-111853663D01*
X172574351Y-111951567D01*
X172683331Y-112021604D01*
X172807625Y-112058099D01*
X172807627Y-112058100D01*
X172807628Y-112058100D01*
X172937173Y-112058100D01*
X172937173Y-112058099D01*
X173061469Y-112021604D01*
X173170449Y-111951567D01*
X173255282Y-111853663D01*
X173309097Y-111735826D01*
X173327533Y-111607600D01*
X173309097Y-111479374D01*
X173255282Y-111361537D01*
X173170449Y-111263633D01*
X173061469Y-111193596D01*
X173061466Y-111193595D01*
X173054008Y-111188802D01*
X173055380Y-111186666D01*
X173012699Y-111149682D01*
X172993016Y-111082642D01*
X173012702Y-111015603D01*
X173065507Y-110969850D01*
X173082075Y-110963669D01*
X173112269Y-110954804D01*
X173221249Y-110884767D01*
X173299205Y-110794800D01*
X183085267Y-110794800D01*
X183103702Y-110923025D01*
X183120405Y-110959598D01*
X183157518Y-111040863D01*
X183242351Y-111138767D01*
X183351331Y-111208804D01*
X183475625Y-111245299D01*
X183475627Y-111245300D01*
X183475628Y-111245300D01*
X183605173Y-111245300D01*
X183605173Y-111245299D01*
X183729469Y-111208804D01*
X183838449Y-111138767D01*
X183923282Y-111040863D01*
X183977097Y-110923026D01*
X183995533Y-110794800D01*
X183977097Y-110666574D01*
X183923282Y-110548737D01*
X183838449Y-110450833D01*
X183729469Y-110380796D01*
X183729465Y-110380794D01*
X183729464Y-110380794D01*
X183605174Y-110344300D01*
X183605172Y-110344300D01*
X183475628Y-110344300D01*
X183475626Y-110344300D01*
X183351335Y-110380794D01*
X183351332Y-110380795D01*
X183351331Y-110380796D01*
X183301883Y-110412574D01*
X183242350Y-110450833D01*
X183157518Y-110548737D01*
X183157517Y-110548738D01*
X183103702Y-110666574D01*
X183085267Y-110794800D01*
X173299205Y-110794800D01*
X173306082Y-110786863D01*
X173359897Y-110669026D01*
X173378333Y-110540800D01*
X173359897Y-110412574D01*
X173306082Y-110294737D01*
X173255187Y-110236000D01*
X174246067Y-110236000D01*
X174264502Y-110364225D01*
X174318317Y-110482061D01*
X174318318Y-110482063D01*
X174403151Y-110579967D01*
X174512131Y-110650004D01*
X174576916Y-110669026D01*
X174636425Y-110686499D01*
X174636427Y-110686500D01*
X174636428Y-110686500D01*
X174765973Y-110686500D01*
X174765973Y-110686499D01*
X174890269Y-110650004D01*
X174999249Y-110579967D01*
X175084082Y-110482063D01*
X175137897Y-110364226D01*
X175156333Y-110236000D01*
X175137897Y-110107774D01*
X175084082Y-109989937D01*
X174999249Y-109892033D01*
X174890269Y-109821996D01*
X174890265Y-109821994D01*
X174890264Y-109821994D01*
X174765974Y-109785500D01*
X174765972Y-109785500D01*
X174636428Y-109785500D01*
X174636426Y-109785500D01*
X174512135Y-109821994D01*
X174512132Y-109821995D01*
X174512131Y-109821996D01*
X174460877Y-109854934D01*
X174403150Y-109892033D01*
X174318318Y-109989937D01*
X174318317Y-109989938D01*
X174264502Y-110107774D01*
X174246067Y-110236000D01*
X173255187Y-110236000D01*
X173221249Y-110196833D01*
X173112269Y-110126796D01*
X173112265Y-110126794D01*
X173112264Y-110126794D01*
X172987974Y-110090300D01*
X172987972Y-110090300D01*
X172858428Y-110090300D01*
X172858426Y-110090300D01*
X172734135Y-110126794D01*
X172734132Y-110126795D01*
X172734131Y-110126796D01*
X172682877Y-110159734D01*
X172625150Y-110196833D01*
X172540318Y-110294737D01*
X172540317Y-110294738D01*
X172486502Y-110412574D01*
X172468067Y-110540800D01*
X172486502Y-110669025D01*
X172494483Y-110686500D01*
X172540318Y-110786863D01*
X172625151Y-110884767D01*
X172734131Y-110954804D01*
X172734133Y-110954804D01*
X172741592Y-110959598D01*
X172740218Y-110961735D01*
X172782892Y-110998705D01*
X172802583Y-111065743D01*
X172782904Y-111132784D01*
X172730105Y-111178544D01*
X172713520Y-111184730D01*
X172683336Y-111193593D01*
X172574350Y-111263633D01*
X172489518Y-111361537D01*
X172489517Y-111361538D01*
X172435702Y-111479374D01*
X172417267Y-111607600D01*
X166244787Y-111607600D01*
X166295682Y-111548863D01*
X166349497Y-111431026D01*
X166367933Y-111302800D01*
X166349497Y-111174574D01*
X166295682Y-111056737D01*
X166210849Y-110958833D01*
X166101869Y-110888796D01*
X166101865Y-110888794D01*
X166101864Y-110888794D01*
X165977574Y-110852300D01*
X165977572Y-110852300D01*
X165848028Y-110852300D01*
X165848026Y-110852300D01*
X165723735Y-110888794D01*
X165723732Y-110888795D01*
X165723731Y-110888796D01*
X165672477Y-110921734D01*
X165614750Y-110958833D01*
X165529918Y-111056737D01*
X165529917Y-111056738D01*
X165476102Y-111174574D01*
X165457667Y-111302800D01*
X161495500Y-111302800D01*
X161495500Y-108864400D01*
X170182067Y-108864400D01*
X170200502Y-108992625D01*
X170242882Y-109085422D01*
X170254318Y-109110463D01*
X170339151Y-109208367D01*
X170448131Y-109278404D01*
X170501401Y-109294045D01*
X170572425Y-109314899D01*
X170572427Y-109314900D01*
X170572428Y-109314900D01*
X170701973Y-109314900D01*
X170701973Y-109314899D01*
X170826269Y-109278404D01*
X170935249Y-109208367D01*
X170938733Y-109204347D01*
X170974993Y-109162499D01*
X171009046Y-109123198D01*
X171067823Y-109085423D01*
X171137693Y-109085422D01*
X171169798Y-109100084D01*
X171192669Y-109114781D01*
X171205766Y-109123199D01*
X171210133Y-109126005D01*
X171334425Y-109162499D01*
X171334427Y-109162500D01*
X171334428Y-109162500D01*
X171463973Y-109162500D01*
X171463973Y-109162499D01*
X171588269Y-109126004D01*
X171697249Y-109055967D01*
X171782082Y-108958063D01*
X171824857Y-108864400D01*
X172163267Y-108864400D01*
X172181702Y-108992625D01*
X172224082Y-109085422D01*
X172235518Y-109110463D01*
X172320351Y-109208367D01*
X172429331Y-109278404D01*
X172482601Y-109294045D01*
X172553625Y-109314899D01*
X172553627Y-109314900D01*
X172553628Y-109314900D01*
X172683173Y-109314900D01*
X172683173Y-109314899D01*
X172807469Y-109278404D01*
X172916449Y-109208367D01*
X173001282Y-109110463D01*
X173055097Y-108992626D01*
X173073533Y-108864400D01*
X173055097Y-108736174D01*
X173001282Y-108618337D01*
X172916449Y-108520433D01*
X172898348Y-108508800D01*
X174449267Y-108508800D01*
X174467702Y-108637025D01*
X174515602Y-108741909D01*
X174521518Y-108754863D01*
X174606351Y-108852767D01*
X174715331Y-108922804D01*
X174835412Y-108958062D01*
X174839625Y-108959299D01*
X174839627Y-108959300D01*
X174839628Y-108959300D01*
X174969173Y-108959300D01*
X174969173Y-108959299D01*
X175065625Y-108930979D01*
X175093466Y-108922805D01*
X175093466Y-108922804D01*
X175093469Y-108922804D01*
X175093470Y-108922802D01*
X175101534Y-108919121D01*
X175102404Y-108921027D01*
X175158074Y-108904677D01*
X175225115Y-108924356D01*
X175242268Y-108939216D01*
X175242620Y-108938811D01*
X175249320Y-108944617D01*
X175249325Y-108944620D01*
X175358305Y-109014657D01*
X175482599Y-109051152D01*
X175482601Y-109051153D01*
X175482602Y-109051153D01*
X175612147Y-109051153D01*
X175612147Y-109051152D01*
X175736443Y-109014657D01*
X175740533Y-109012028D01*
X175807569Y-108992340D01*
X175874610Y-109012020D01*
X175888785Y-109022631D01*
X175893600Y-109026804D01*
X175893606Y-109026810D01*
X176002586Y-109096847D01*
X176126880Y-109133342D01*
X176126882Y-109133343D01*
X176126883Y-109133343D01*
X176256428Y-109133343D01*
X176256428Y-109133342D01*
X176380724Y-109096847D01*
X176448904Y-109053030D01*
X176515942Y-109033346D01*
X176582981Y-109053030D01*
X176587550Y-109055966D01*
X176587551Y-109055967D01*
X176696531Y-109126004D01*
X176820825Y-109162499D01*
X176820827Y-109162500D01*
X176820828Y-109162500D01*
X176950373Y-109162500D01*
X176950373Y-109162499D01*
X177074669Y-109126004D01*
X177183649Y-109055967D01*
X177268482Y-108958063D01*
X177322297Y-108840226D01*
X177340733Y-108712000D01*
X177322297Y-108583774D01*
X177268482Y-108465937D01*
X177183649Y-108368033D01*
X177074669Y-108297996D01*
X177074665Y-108297994D01*
X177074664Y-108297994D01*
X176950374Y-108261500D01*
X176950372Y-108261500D01*
X176820828Y-108261500D01*
X176820826Y-108261500D01*
X176696533Y-108297994D01*
X176696532Y-108297995D01*
X176628350Y-108341812D01*
X176561310Y-108361496D01*
X176494273Y-108341812D01*
X176471169Y-108326964D01*
X176380724Y-108268839D01*
X176380720Y-108268837D01*
X176380719Y-108268837D01*
X176279816Y-108239210D01*
X180663534Y-108239210D01*
X180683312Y-108389444D01*
X180683313Y-108389446D01*
X180719295Y-108476315D01*
X180741302Y-108529443D01*
X180833549Y-108649661D01*
X180879402Y-108684845D01*
X180920605Y-108741273D01*
X180924760Y-108811019D01*
X180890548Y-108871939D01*
X180871242Y-108885793D01*
X180871550Y-108886217D01*
X180863652Y-108891954D01*
X180773954Y-108981652D01*
X180773951Y-108981657D01*
X180773950Y-108981658D01*
X180759920Y-109009194D01*
X180716352Y-109094698D01*
X180716352Y-109094699D01*
X180696508Y-109219996D01*
X180696508Y-109220003D01*
X180716352Y-109345300D01*
X180716352Y-109345301D01*
X180734805Y-109381517D01*
X180773950Y-109458342D01*
X180773952Y-109458344D01*
X180773954Y-109458347D01*
X180863652Y-109548045D01*
X180863654Y-109548046D01*
X180863658Y-109548050D01*
X180976696Y-109605646D01*
X180976697Y-109605646D01*
X180976699Y-109605647D01*
X181101997Y-109625492D01*
X181102000Y-109625492D01*
X181102003Y-109625492D01*
X181227300Y-109605647D01*
X181227301Y-109605647D01*
X181227302Y-109605646D01*
X181227304Y-109605646D01*
X181340342Y-109548050D01*
X181430050Y-109458342D01*
X181447956Y-109423200D01*
X184456867Y-109423200D01*
X184475302Y-109551425D01*
X184500065Y-109605647D01*
X184529118Y-109669263D01*
X184613951Y-109767167D01*
X184722931Y-109837204D01*
X184847225Y-109873699D01*
X184847227Y-109873700D01*
X184847228Y-109873700D01*
X184976773Y-109873700D01*
X184976773Y-109873699D01*
X185101069Y-109837204D01*
X185210049Y-109767167D01*
X185294882Y-109669263D01*
X185348697Y-109551426D01*
X185367133Y-109423200D01*
X185348697Y-109294974D01*
X185294882Y-109177137D01*
X185210049Y-109079233D01*
X185101069Y-109009196D01*
X185101065Y-109009194D01*
X185101064Y-109009194D01*
X184976774Y-108972700D01*
X184976772Y-108972700D01*
X184847228Y-108972700D01*
X184847226Y-108972700D01*
X184722935Y-109009194D01*
X184722932Y-109009195D01*
X184722931Y-109009196D01*
X184702026Y-109022631D01*
X184613950Y-109079233D01*
X184529118Y-109177137D01*
X184529117Y-109177138D01*
X184475302Y-109294974D01*
X184456867Y-109423200D01*
X181447956Y-109423200D01*
X181487646Y-109345304D01*
X181487646Y-109345302D01*
X181487647Y-109345301D01*
X181487647Y-109345300D01*
X181507492Y-109220003D01*
X181507492Y-109219996D01*
X181487647Y-109094699D01*
X181487647Y-109094698D01*
X181482921Y-109085423D01*
X181430050Y-108981658D01*
X181430046Y-108981654D01*
X181430045Y-108981652D01*
X181422260Y-108973867D01*
X181417966Y-108966003D01*
X182474508Y-108966003D01*
X182494352Y-109091300D01*
X182494352Y-109091301D01*
X182504116Y-109110463D01*
X182551950Y-109204342D01*
X182551952Y-109204344D01*
X182551954Y-109204347D01*
X182641652Y-109294045D01*
X182641654Y-109294046D01*
X182641658Y-109294050D01*
X182754696Y-109351646D01*
X182754697Y-109351646D01*
X182754699Y-109351647D01*
X182879997Y-109371492D01*
X182880000Y-109371492D01*
X182880003Y-109371492D01*
X183005300Y-109351647D01*
X183005301Y-109351647D01*
X183005302Y-109351646D01*
X183005304Y-109351646D01*
X183118342Y-109294050D01*
X183208050Y-109204342D01*
X183265646Y-109091304D01*
X183265646Y-109091302D01*
X183265647Y-109091301D01*
X183265647Y-109091300D01*
X183285492Y-108966003D01*
X183285492Y-108965996D01*
X183265647Y-108840699D01*
X183265647Y-108840698D01*
X183265646Y-108840696D01*
X183208050Y-108727658D01*
X183208046Y-108727654D01*
X183208045Y-108727652D01*
X183118347Y-108637954D01*
X183118344Y-108637952D01*
X183118342Y-108637950D01*
X183005304Y-108580354D01*
X183005303Y-108580353D01*
X183005300Y-108580352D01*
X182880003Y-108560508D01*
X182879997Y-108560508D01*
X182754699Y-108580352D01*
X182754698Y-108580352D01*
X182680149Y-108618338D01*
X182641658Y-108637950D01*
X182641657Y-108637951D01*
X182641652Y-108637954D01*
X182551954Y-108727652D01*
X182551951Y-108727657D01*
X182551950Y-108727658D01*
X182544689Y-108741909D01*
X182494352Y-108840698D01*
X182494352Y-108840699D01*
X182474508Y-108965996D01*
X182474508Y-108966003D01*
X181417966Y-108966003D01*
X181388775Y-108912544D01*
X181393759Y-108842852D01*
X181435631Y-108786919D01*
X181462482Y-108771628D01*
X181534233Y-108741908D01*
X181654451Y-108649661D01*
X181746698Y-108529443D01*
X181804687Y-108389446D01*
X181824466Y-108239210D01*
X181820285Y-108207456D01*
X181804687Y-108088975D01*
X181804687Y-108088974D01*
X181746698Y-107948977D01*
X181654451Y-107828759D01*
X181534233Y-107736512D01*
X181534229Y-107736510D01*
X181470801Y-107710237D01*
X181394236Y-107678523D01*
X181380171Y-107676671D01*
X181281727Y-107663710D01*
X181281720Y-107663710D01*
X181206280Y-107663710D01*
X181206272Y-107663710D01*
X181093764Y-107678523D01*
X181093763Y-107678523D01*
X180953770Y-107736510D01*
X180833549Y-107828759D01*
X180741300Y-107948980D01*
X180683313Y-108088973D01*
X180683312Y-108088975D01*
X180663534Y-108239209D01*
X180663534Y-108239210D01*
X176279816Y-108239210D01*
X176256429Y-108232343D01*
X176256427Y-108232343D01*
X176126883Y-108232343D01*
X176126881Y-108232343D01*
X176002587Y-108268838D01*
X176002579Y-108268841D01*
X175998483Y-108271474D01*
X175931442Y-108291154D01*
X175864404Y-108271464D01*
X175850249Y-108260867D01*
X175845426Y-108256688D01*
X175845423Y-108256686D01*
X175736443Y-108186649D01*
X175736439Y-108186647D01*
X175736438Y-108186647D01*
X175612148Y-108150153D01*
X175612146Y-108150153D01*
X175482602Y-108150153D01*
X175482600Y-108150153D01*
X175358310Y-108186647D01*
X175358306Y-108186648D01*
X175358305Y-108186649D01*
X175358303Y-108186649D01*
X175350239Y-108190333D01*
X175349369Y-108188428D01*
X175293683Y-108204776D01*
X175226644Y-108185088D01*
X175209505Y-108170235D01*
X175209154Y-108170642D01*
X175202453Y-108164835D01*
X175133801Y-108120716D01*
X175093469Y-108094796D01*
X175093465Y-108094794D01*
X175093464Y-108094794D01*
X174969174Y-108058300D01*
X174969172Y-108058300D01*
X174839628Y-108058300D01*
X174839626Y-108058300D01*
X174715335Y-108094794D01*
X174715332Y-108094795D01*
X174715331Y-108094796D01*
X174674999Y-108120716D01*
X174606350Y-108164833D01*
X174521518Y-108262737D01*
X174521517Y-108262738D01*
X174467702Y-108380574D01*
X174449267Y-108508800D01*
X172898348Y-108508800D01*
X172807469Y-108450396D01*
X172807465Y-108450394D01*
X172807464Y-108450394D01*
X172683174Y-108413900D01*
X172683172Y-108413900D01*
X172553628Y-108413900D01*
X172553626Y-108413900D01*
X172429335Y-108450394D01*
X172429332Y-108450395D01*
X172429331Y-108450396D01*
X172389000Y-108476315D01*
X172320350Y-108520433D01*
X172235518Y-108618337D01*
X172235517Y-108618338D01*
X172181702Y-108736174D01*
X172163267Y-108864400D01*
X171824857Y-108864400D01*
X171835897Y-108840226D01*
X171854333Y-108712000D01*
X171835897Y-108583774D01*
X171782082Y-108465937D01*
X171697249Y-108368033D01*
X171588269Y-108297996D01*
X171588265Y-108297994D01*
X171588264Y-108297994D01*
X171463974Y-108261500D01*
X171463972Y-108261500D01*
X171334428Y-108261500D01*
X171334426Y-108261500D01*
X171210135Y-108297994D01*
X171210132Y-108297995D01*
X171210131Y-108297996D01*
X171141952Y-108341812D01*
X171101148Y-108368035D01*
X171027352Y-108453201D01*
X170968574Y-108490976D01*
X170898705Y-108490976D01*
X170866601Y-108476315D01*
X170837590Y-108457671D01*
X170826269Y-108450396D01*
X170826268Y-108450395D01*
X170826267Y-108450395D01*
X170826266Y-108450394D01*
X170701974Y-108413900D01*
X170701972Y-108413900D01*
X170572428Y-108413900D01*
X170572426Y-108413900D01*
X170448135Y-108450394D01*
X170448132Y-108450395D01*
X170448131Y-108450396D01*
X170407800Y-108476315D01*
X170339150Y-108520433D01*
X170254318Y-108618337D01*
X170254317Y-108618338D01*
X170200502Y-108736174D01*
X170182067Y-108864400D01*
X161495500Y-108864400D01*
X161495500Y-108164400D01*
X161515185Y-108097361D01*
X161567989Y-108051606D01*
X161619500Y-108040400D01*
X162015000Y-108040400D01*
X162015000Y-107961395D01*
X173376251Y-107961395D01*
X173394686Y-108089620D01*
X173431688Y-108170642D01*
X173448502Y-108207458D01*
X173521024Y-108291154D01*
X173526951Y-108297995D01*
X173533335Y-108305362D01*
X173642315Y-108375399D01*
X173690156Y-108389446D01*
X173766609Y-108411894D01*
X173766611Y-108411895D01*
X173766612Y-108411895D01*
X173896157Y-108411895D01*
X173896157Y-108411894D01*
X174020453Y-108375399D01*
X174129433Y-108305362D01*
X174214266Y-108207458D01*
X174268081Y-108089621D01*
X174286517Y-107961395D01*
X174281103Y-107923739D01*
X174291047Y-107854580D01*
X174336800Y-107801777D01*
X174440449Y-107735167D01*
X174525282Y-107637263D01*
X174579097Y-107519426D01*
X174597533Y-107391200D01*
X174579097Y-107262974D01*
X174525282Y-107145137D01*
X174440449Y-107047233D01*
X174331469Y-106977196D01*
X174331465Y-106977194D01*
X174331464Y-106977194D01*
X174207174Y-106940700D01*
X174207172Y-106940700D01*
X174077628Y-106940700D01*
X174077626Y-106940700D01*
X173953335Y-106977194D01*
X173953332Y-106977195D01*
X173953331Y-106977196D01*
X173902077Y-107010134D01*
X173844350Y-107047233D01*
X173759518Y-107145137D01*
X173759517Y-107145138D01*
X173705702Y-107262974D01*
X173687267Y-107391199D01*
X173692681Y-107428855D01*
X173682737Y-107498014D01*
X173636983Y-107550817D01*
X173533335Y-107617427D01*
X173448502Y-107715332D01*
X173448501Y-107715333D01*
X173394686Y-107833169D01*
X173376251Y-107961395D01*
X162015000Y-107961395D01*
X162015000Y-106934000D01*
X166168867Y-106934000D01*
X166187302Y-107062225D01*
X166225168Y-107145138D01*
X166241118Y-107180063D01*
X166325951Y-107277967D01*
X166434931Y-107348004D01*
X166559225Y-107384499D01*
X166559227Y-107384500D01*
X166559228Y-107384500D01*
X166688773Y-107384500D01*
X166688773Y-107384499D01*
X166813069Y-107348004D01*
X166922049Y-107277967D01*
X167006882Y-107180063D01*
X167060697Y-107062226D01*
X167079133Y-106934000D01*
X167060697Y-106805774D01*
X167006882Y-106687937D01*
X166960320Y-106634201D01*
X166931297Y-106570646D01*
X166941241Y-106501488D01*
X166960321Y-106471798D01*
X166961792Y-106470100D01*
X167000005Y-106426000D01*
X169420067Y-106426000D01*
X169438502Y-106554225D01*
X169492317Y-106672061D01*
X169492318Y-106672063D01*
X169577151Y-106769967D01*
X169686131Y-106840004D01*
X169810425Y-106876499D01*
X169810427Y-106876500D01*
X169810428Y-106876500D01*
X169939973Y-106876500D01*
X169939973Y-106876499D01*
X170064269Y-106840004D01*
X170173249Y-106769967D01*
X170250019Y-106681367D01*
X170308796Y-106643592D01*
X170378666Y-106643591D01*
X170437445Y-106681365D01*
X170456525Y-106711054D01*
X170508318Y-106824463D01*
X170593151Y-106922367D01*
X170702131Y-106992404D01*
X170826425Y-107028899D01*
X170826427Y-107028900D01*
X170826428Y-107028900D01*
X170955973Y-107028900D01*
X170955973Y-107028899D01*
X171080269Y-106992404D01*
X171189249Y-106922367D01*
X171274082Y-106824463D01*
X171286406Y-106797476D01*
X171332160Y-106744674D01*
X171399200Y-106724989D01*
X171466239Y-106744673D01*
X171511993Y-106797476D01*
X171524318Y-106824463D01*
X171609151Y-106922367D01*
X171718131Y-106992404D01*
X171842425Y-107028899D01*
X171842427Y-107028900D01*
X171842428Y-107028900D01*
X171971973Y-107028900D01*
X171971973Y-107028899D01*
X172096269Y-106992404D01*
X172205249Y-106922367D01*
X172290082Y-106824463D01*
X172343897Y-106706626D01*
X172362333Y-106578400D01*
X172362333Y-106578399D01*
X172362333Y-106569531D01*
X172365614Y-106569531D01*
X172373264Y-106516229D01*
X172419005Y-106463413D01*
X172451134Y-106448735D01*
X172502669Y-106433604D01*
X172510368Y-106428656D01*
X172577403Y-106408969D01*
X172644444Y-106428651D01*
X172671123Y-106451768D01*
X172726748Y-106515965D01*
X172726750Y-106515966D01*
X172726751Y-106515967D01*
X172835731Y-106586004D01*
X172849453Y-106590033D01*
X172960025Y-106622499D01*
X172960027Y-106622500D01*
X172960028Y-106622500D01*
X173089573Y-106622500D01*
X173089573Y-106622499D01*
X173213869Y-106586004D01*
X173322849Y-106515967D01*
X173407682Y-106418063D01*
X173461497Y-106300226D01*
X173479933Y-106172000D01*
X173461497Y-106043774D01*
X173407682Y-105925937D01*
X173322849Y-105828033D01*
X173213869Y-105757996D01*
X173213865Y-105757994D01*
X173213864Y-105757994D01*
X173089574Y-105721500D01*
X173089572Y-105721500D01*
X172960028Y-105721500D01*
X172960026Y-105721500D01*
X172835734Y-105757994D01*
X172835731Y-105757996D01*
X172828034Y-105762943D01*
X172828026Y-105762948D01*
X172760986Y-105782630D01*
X172693947Y-105762943D01*
X172667276Y-105739831D01*
X172611651Y-105675634D01*
X172590901Y-105662299D01*
X172502669Y-105605596D01*
X172502665Y-105605594D01*
X172502664Y-105605594D01*
X172378374Y-105569100D01*
X172378372Y-105569100D01*
X172248828Y-105569100D01*
X172248826Y-105569100D01*
X172124535Y-105605594D01*
X172124532Y-105605595D01*
X172124531Y-105605596D01*
X172073277Y-105638534D01*
X172015550Y-105675633D01*
X171930718Y-105773537D01*
X171930717Y-105773538D01*
X171876902Y-105891374D01*
X171858467Y-106019600D01*
X171858467Y-106028469D01*
X171855194Y-106028469D01*
X171847512Y-106081822D01*
X171801746Y-106134616D01*
X171769664Y-106149264D01*
X171718134Y-106164394D01*
X171609150Y-106234433D01*
X171524318Y-106332337D01*
X171524317Y-106332338D01*
X171511994Y-106359322D01*
X171466239Y-106412126D01*
X171399199Y-106431810D01*
X171332160Y-106412125D01*
X171286406Y-106359322D01*
X171274082Y-106332338D01*
X171274082Y-106332337D01*
X171189249Y-106234433D01*
X171189248Y-106234432D01*
X171145770Y-106206491D01*
X171135849Y-106200115D01*
X171090094Y-106147313D01*
X171080150Y-106078154D01*
X171109174Y-106014598D01*
X171135848Y-105991485D01*
X171189249Y-105957167D01*
X171274082Y-105859263D01*
X171327897Y-105741426D01*
X171346333Y-105613200D01*
X171327897Y-105484974D01*
X171274082Y-105367137D01*
X171189249Y-105269233D01*
X171080269Y-105199196D01*
X171080265Y-105199194D01*
X171080264Y-105199194D01*
X170955974Y-105162700D01*
X170955972Y-105162700D01*
X170826428Y-105162700D01*
X170826426Y-105162700D01*
X170702135Y-105199194D01*
X170702132Y-105199195D01*
X170702131Y-105199196D01*
X170660031Y-105226252D01*
X170593150Y-105269233D01*
X170508318Y-105367137D01*
X170508317Y-105367138D01*
X170454502Y-105484974D01*
X170436067Y-105613200D01*
X170454502Y-105741425D01*
X170495912Y-105832099D01*
X170508318Y-105859263D01*
X170593151Y-105957167D01*
X170646550Y-105991484D01*
X170692305Y-106044288D01*
X170702249Y-106113447D01*
X170673224Y-106177002D01*
X170646551Y-106200114D01*
X170636630Y-106206491D01*
X170593148Y-106234434D01*
X170516379Y-106323032D01*
X170457601Y-106360807D01*
X170387732Y-106360807D01*
X170328953Y-106323033D01*
X170309876Y-106293349D01*
X170258082Y-106179937D01*
X170173249Y-106082033D01*
X170064269Y-106011996D01*
X170064265Y-106011994D01*
X170064264Y-106011994D01*
X169939974Y-105975500D01*
X169939972Y-105975500D01*
X169810428Y-105975500D01*
X169810426Y-105975500D01*
X169686135Y-106011994D01*
X169686132Y-106011995D01*
X169686131Y-106011996D01*
X169636683Y-106043774D01*
X169577150Y-106082033D01*
X169492318Y-106179937D01*
X169492317Y-106179938D01*
X169438502Y-106297774D01*
X169420067Y-106426000D01*
X167000005Y-106426000D01*
X167006882Y-106418063D01*
X167060697Y-106300226D01*
X167079133Y-106172000D01*
X167060697Y-106043774D01*
X167006882Y-105925937D01*
X166922049Y-105828033D01*
X166813069Y-105757996D01*
X166813065Y-105757994D01*
X166813064Y-105757994D01*
X166688774Y-105721500D01*
X166688772Y-105721500D01*
X166559228Y-105721500D01*
X166559226Y-105721500D01*
X166434935Y-105757994D01*
X166434932Y-105757995D01*
X166434931Y-105757996D01*
X166396600Y-105782630D01*
X166325950Y-105828033D01*
X166241118Y-105925937D01*
X166241117Y-105925938D01*
X166187302Y-106043774D01*
X166168867Y-106172000D01*
X166187302Y-106300225D01*
X166241117Y-106418061D01*
X166241120Y-106418067D01*
X166287678Y-106471799D01*
X166316702Y-106535355D01*
X166306757Y-106604514D01*
X166287678Y-106634201D01*
X166241120Y-106687932D01*
X166241117Y-106687938D01*
X166187302Y-106805774D01*
X166168867Y-106934000D01*
X162015000Y-106934000D01*
X162015000Y-104749600D01*
X168505667Y-104749600D01*
X168524102Y-104877825D01*
X168577917Y-104995661D01*
X168577918Y-104995663D01*
X168662751Y-105093567D01*
X168771731Y-105163604D01*
X168896025Y-105200099D01*
X168896027Y-105200100D01*
X168896028Y-105200100D01*
X169025573Y-105200100D01*
X169025573Y-105200099D01*
X169149869Y-105163604D01*
X169258849Y-105093567D01*
X169343682Y-104995663D01*
X169379881Y-104916398D01*
X169425634Y-104863597D01*
X169492674Y-104843912D01*
X169500886Y-104844500D01*
X169505628Y-104844500D01*
X169635173Y-104844500D01*
X169635173Y-104844499D01*
X169759469Y-104808004D01*
X169868449Y-104737967D01*
X169953282Y-104640063D01*
X169972857Y-104597200D01*
X172468067Y-104597200D01*
X172486502Y-104725425D01*
X172524216Y-104808005D01*
X172540318Y-104843263D01*
X172625151Y-104941167D01*
X172734131Y-105011204D01*
X172858425Y-105047699D01*
X172858427Y-105047700D01*
X172858428Y-105047700D01*
X172987973Y-105047700D01*
X172987973Y-105047699D01*
X173112269Y-105011204D01*
X173221249Y-104941167D01*
X173306082Y-104843263D01*
X173313732Y-104826511D01*
X173359485Y-104773709D01*
X173426524Y-104754023D01*
X173493564Y-104773707D01*
X173546931Y-104808004D01*
X173546932Y-104808004D01*
X173546935Y-104808006D01*
X173655549Y-104839896D01*
X173669225Y-104843912D01*
X173671225Y-104844499D01*
X173671227Y-104844500D01*
X173671228Y-104844500D01*
X173800773Y-104844500D01*
X173800773Y-104844499D01*
X173925069Y-104808004D01*
X174034049Y-104737967D01*
X174118882Y-104640063D01*
X174172697Y-104522226D01*
X174191133Y-104394000D01*
X174172697Y-104265774D01*
X174118882Y-104147937D01*
X174034049Y-104050033D01*
X173925069Y-103979996D01*
X173925065Y-103979994D01*
X173925064Y-103979994D01*
X173800774Y-103943500D01*
X173800772Y-103943500D01*
X173671228Y-103943500D01*
X173671226Y-103943500D01*
X173546935Y-103979994D01*
X173546932Y-103979995D01*
X173546931Y-103979996D01*
X173495677Y-104012934D01*
X173437950Y-104050033D01*
X173353118Y-104147937D01*
X173353117Y-104147938D01*
X173345466Y-104164691D01*
X173299709Y-104217494D01*
X173232669Y-104237176D01*
X173165635Y-104217492D01*
X173112269Y-104183196D01*
X173112265Y-104183194D01*
X173112264Y-104183194D01*
X172987974Y-104146700D01*
X172987972Y-104146700D01*
X172858428Y-104146700D01*
X172858426Y-104146700D01*
X172734135Y-104183194D01*
X172734132Y-104183195D01*
X172734131Y-104183196D01*
X172682877Y-104216134D01*
X172625150Y-104253233D01*
X172540318Y-104351137D01*
X172540317Y-104351138D01*
X172486502Y-104468974D01*
X172468067Y-104597200D01*
X169972857Y-104597200D01*
X170007097Y-104522226D01*
X170018499Y-104442921D01*
X170047524Y-104379366D01*
X170106302Y-104341591D01*
X170176171Y-104341591D01*
X170230751Y-104376666D01*
X170230846Y-104376558D01*
X170231603Y-104377214D01*
X170234949Y-104379364D01*
X170237551Y-104382367D01*
X170346531Y-104452404D01*
X170470825Y-104488899D01*
X170470827Y-104488900D01*
X170470828Y-104488900D01*
X170600373Y-104488900D01*
X170600373Y-104488899D01*
X170724669Y-104452404D01*
X170798762Y-104404787D01*
X170865800Y-104385103D01*
X170932839Y-104404788D01*
X171006931Y-104452404D01*
X171006933Y-104452404D01*
X171006934Y-104452405D01*
X171131225Y-104488899D01*
X171131227Y-104488900D01*
X171131228Y-104488900D01*
X171260773Y-104488900D01*
X171260773Y-104488899D01*
X171385069Y-104452404D01*
X171494049Y-104382367D01*
X171578882Y-104284463D01*
X171632697Y-104166626D01*
X171651133Y-104038400D01*
X171632697Y-103910174D01*
X171578882Y-103792337D01*
X171494049Y-103694433D01*
X171385069Y-103624396D01*
X171385065Y-103624394D01*
X171385064Y-103624394D01*
X171260774Y-103587900D01*
X171260772Y-103587900D01*
X171131228Y-103587900D01*
X171131226Y-103587900D01*
X171006935Y-103624394D01*
X171006932Y-103624395D01*
X171006931Y-103624396D01*
X170932839Y-103672012D01*
X170865799Y-103691696D01*
X170798761Y-103672012D01*
X170724669Y-103624396D01*
X170724665Y-103624394D01*
X170724664Y-103624394D01*
X170600374Y-103587900D01*
X170600372Y-103587900D01*
X170470828Y-103587900D01*
X170470826Y-103587900D01*
X170346535Y-103624394D01*
X170346532Y-103624395D01*
X170346531Y-103624396D01*
X170295277Y-103657334D01*
X170237550Y-103694433D01*
X170152718Y-103792337D01*
X170152717Y-103792338D01*
X170098902Y-103910174D01*
X170087500Y-103989479D01*
X170058474Y-104053034D01*
X169999696Y-104090808D01*
X169929826Y-104090808D01*
X169875248Y-104055732D01*
X169875154Y-104055842D01*
X169874393Y-104055183D01*
X169871048Y-104053033D01*
X169871046Y-104053030D01*
X169868450Y-104050033D01*
X169830711Y-104025780D01*
X169759469Y-103979996D01*
X169759465Y-103979994D01*
X169759464Y-103979994D01*
X169635174Y-103943500D01*
X169635172Y-103943500D01*
X169505628Y-103943500D01*
X169505626Y-103943500D01*
X169381335Y-103979994D01*
X169381332Y-103979995D01*
X169381331Y-103979996D01*
X169330077Y-104012934D01*
X169272350Y-104050033D01*
X169187518Y-104147936D01*
X169151319Y-104227200D01*
X169105563Y-104280003D01*
X169038524Y-104299687D01*
X169030314Y-104299100D01*
X169025572Y-104299100D01*
X168896028Y-104299100D01*
X168896026Y-104299100D01*
X168771735Y-104335594D01*
X168771732Y-104335595D01*
X168771731Y-104335596D01*
X168720477Y-104368534D01*
X168662750Y-104405633D01*
X168577918Y-104503537D01*
X168577917Y-104503538D01*
X168524102Y-104621374D01*
X168505667Y-104749600D01*
X162015000Y-104749600D01*
X162015000Y-103479600D01*
X167946867Y-103479600D01*
X167965302Y-103607825D01*
X168015535Y-103717818D01*
X168019118Y-103725663D01*
X168103951Y-103823567D01*
X168212931Y-103893604D01*
X168269365Y-103910174D01*
X168337225Y-103930099D01*
X168337227Y-103930100D01*
X168337228Y-103930100D01*
X168466773Y-103930100D01*
X168466773Y-103930099D01*
X168591069Y-103893604D01*
X168700049Y-103823567D01*
X168784882Y-103725663D01*
X168838697Y-103607826D01*
X168857133Y-103479600D01*
X168838697Y-103351374D01*
X168784882Y-103233537D01*
X168700049Y-103135633D01*
X168591069Y-103065596D01*
X168591065Y-103065594D01*
X168591064Y-103065594D01*
X168466774Y-103029100D01*
X168466772Y-103029100D01*
X168337228Y-103029100D01*
X168337226Y-103029100D01*
X168212935Y-103065594D01*
X168212932Y-103065595D01*
X168212931Y-103065596D01*
X168161677Y-103098534D01*
X168103950Y-103135633D01*
X168019118Y-103233537D01*
X168019117Y-103233538D01*
X167965302Y-103351374D01*
X167946867Y-103479600D01*
X162015000Y-103479600D01*
X162015000Y-102652752D01*
X176002500Y-102652752D01*
X176014131Y-102711229D01*
X176014132Y-102711230D01*
X176058447Y-102777552D01*
X176124769Y-102821867D01*
X176124770Y-102821868D01*
X176183247Y-102833499D01*
X176183250Y-102833500D01*
X176183252Y-102833500D01*
X177922750Y-102833500D01*
X177922751Y-102833499D01*
X177937568Y-102830552D01*
X177981229Y-102821868D01*
X177981229Y-102821867D01*
X177981231Y-102821867D01*
X178047552Y-102777552D01*
X178091867Y-102711231D01*
X178091867Y-102711229D01*
X178091868Y-102711229D01*
X178103499Y-102652752D01*
X178103500Y-102652750D01*
X178103500Y-100913249D01*
X178103499Y-100913247D01*
X178091868Y-100854770D01*
X178091867Y-100854769D01*
X178047552Y-100788447D01*
X177981230Y-100744132D01*
X177981229Y-100744131D01*
X177922752Y-100732500D01*
X177922748Y-100732500D01*
X176183252Y-100732500D01*
X176183247Y-100732500D01*
X176124770Y-100744131D01*
X176124769Y-100744132D01*
X176058447Y-100788447D01*
X176014132Y-100854769D01*
X176014131Y-100854770D01*
X176002500Y-100913247D01*
X176002500Y-102652752D01*
X162015000Y-102652752D01*
X162015000Y-101295200D01*
X167946867Y-101295200D01*
X167965302Y-101423425D01*
X168019117Y-101541261D01*
X168019118Y-101541263D01*
X168103951Y-101639167D01*
X168212931Y-101709204D01*
X168337225Y-101745699D01*
X168337227Y-101745700D01*
X168337228Y-101745700D01*
X168466773Y-101745700D01*
X168466773Y-101745699D01*
X168591069Y-101709204D01*
X168700049Y-101639167D01*
X168784882Y-101541263D01*
X168838697Y-101423426D01*
X168857133Y-101295200D01*
X168838697Y-101166974D01*
X168784882Y-101049137D01*
X168700049Y-100951233D01*
X168591069Y-100881196D01*
X168591065Y-100881194D01*
X168591064Y-100881194D01*
X168466774Y-100844700D01*
X168466772Y-100844700D01*
X168337228Y-100844700D01*
X168337226Y-100844700D01*
X168212935Y-100881194D01*
X168212932Y-100881195D01*
X168212931Y-100881196D01*
X168163059Y-100913247D01*
X168103950Y-100951233D01*
X168019118Y-101049137D01*
X168019117Y-101049138D01*
X167965302Y-101166974D01*
X167946867Y-101295200D01*
X162015000Y-101295200D01*
X162015000Y-99161600D01*
X174042867Y-99161600D01*
X174061302Y-99289825D01*
X174115117Y-99407661D01*
X174115118Y-99407663D01*
X174199951Y-99505567D01*
X174308931Y-99575604D01*
X174414125Y-99606491D01*
X174433225Y-99612099D01*
X174433227Y-99612100D01*
X174433228Y-99612100D01*
X174562773Y-99612100D01*
X174562773Y-99612099D01*
X174687069Y-99575604D01*
X174796049Y-99505567D01*
X174880882Y-99407663D01*
X174934697Y-99289826D01*
X174941430Y-99243000D01*
X175997417Y-99243000D01*
X176017699Y-99448932D01*
X176017700Y-99448934D01*
X176077768Y-99646954D01*
X176175315Y-99829450D01*
X176175317Y-99829452D01*
X176306589Y-99989410D01*
X176403209Y-100068702D01*
X176466550Y-100120685D01*
X176649046Y-100218232D01*
X176847066Y-100278300D01*
X176847065Y-100278300D01*
X176865529Y-100280118D01*
X177053000Y-100298583D01*
X177258934Y-100278300D01*
X177456954Y-100218232D01*
X177639450Y-100120685D01*
X177799410Y-99989410D01*
X177930685Y-99829450D01*
X178028232Y-99646954D01*
X178088300Y-99448934D01*
X178108583Y-99243000D01*
X178088300Y-99037066D01*
X178028232Y-98839046D01*
X177930685Y-98656550D01*
X177830952Y-98535024D01*
X177799410Y-98496589D01*
X177681677Y-98399969D01*
X177639450Y-98365315D01*
X177456954Y-98267768D01*
X177258934Y-98207700D01*
X177258932Y-98207699D01*
X177258934Y-98207699D01*
X177053000Y-98187417D01*
X176847067Y-98207699D01*
X176649043Y-98267769D01*
X176548469Y-98321528D01*
X176466550Y-98365315D01*
X176466548Y-98365316D01*
X176466547Y-98365317D01*
X176306589Y-98496589D01*
X176175317Y-98656547D01*
X176077769Y-98839043D01*
X176017699Y-99037067D01*
X175997417Y-99243000D01*
X174941430Y-99243000D01*
X174953133Y-99161600D01*
X174934697Y-99033374D01*
X174880882Y-98915537D01*
X174796049Y-98817633D01*
X174687069Y-98747596D01*
X174687065Y-98747594D01*
X174687064Y-98747594D01*
X174562774Y-98711100D01*
X174562772Y-98711100D01*
X174433228Y-98711100D01*
X174433226Y-98711100D01*
X174308935Y-98747594D01*
X174308932Y-98747595D01*
X174308931Y-98747596D01*
X174257677Y-98780534D01*
X174199950Y-98817633D01*
X174115118Y-98915537D01*
X174115117Y-98915538D01*
X174061302Y-99033374D01*
X174042867Y-99161600D01*
X162015000Y-99161600D01*
X162015000Y-98145600D01*
X170944067Y-98145600D01*
X170962502Y-98273825D01*
X171016317Y-98391661D01*
X171016318Y-98391663D01*
X171101151Y-98489567D01*
X171210131Y-98559604D01*
X171334425Y-98596099D01*
X171334427Y-98596100D01*
X171334428Y-98596100D01*
X171463973Y-98596100D01*
X171463973Y-98596099D01*
X171588269Y-98559604D01*
X171697249Y-98489567D01*
X171782082Y-98391663D01*
X171835897Y-98273826D01*
X171847029Y-98196400D01*
X172468067Y-98196400D01*
X172486502Y-98324625D01*
X172528129Y-98415774D01*
X172540318Y-98442463D01*
X172625151Y-98540367D01*
X172734131Y-98610404D01*
X172842237Y-98642146D01*
X172858425Y-98646899D01*
X172858427Y-98646900D01*
X172858428Y-98646900D01*
X172987973Y-98646900D01*
X172987973Y-98646899D01*
X173112269Y-98610404D01*
X173221249Y-98540367D01*
X173306082Y-98442463D01*
X173359897Y-98324626D01*
X173378333Y-98196400D01*
X173359897Y-98068174D01*
X173306082Y-97950337D01*
X173221249Y-97852433D01*
X173112269Y-97782396D01*
X173112265Y-97782394D01*
X173112264Y-97782394D01*
X172987974Y-97745900D01*
X172987972Y-97745900D01*
X172858428Y-97745900D01*
X172858426Y-97745900D01*
X172734135Y-97782394D01*
X172734132Y-97782395D01*
X172734131Y-97782396D01*
X172704198Y-97801633D01*
X172625150Y-97852433D01*
X172540318Y-97950337D01*
X172540317Y-97950338D01*
X172486502Y-98068174D01*
X172468067Y-98196400D01*
X171847029Y-98196400D01*
X171854333Y-98145600D01*
X171835897Y-98017374D01*
X171782082Y-97899537D01*
X171697249Y-97801633D01*
X171588269Y-97731596D01*
X171588265Y-97731594D01*
X171588264Y-97731594D01*
X171463974Y-97695100D01*
X171463972Y-97695100D01*
X171334428Y-97695100D01*
X171334426Y-97695100D01*
X171210135Y-97731594D01*
X171210132Y-97731595D01*
X171210131Y-97731596D01*
X171168140Y-97758582D01*
X171101150Y-97801633D01*
X171016318Y-97899537D01*
X171016317Y-97899538D01*
X170962502Y-98017374D01*
X170944067Y-98145600D01*
X162015000Y-98145600D01*
X162015000Y-96703000D01*
X175997417Y-96703000D01*
X176017699Y-96908932D01*
X176017700Y-96908934D01*
X176077768Y-97106954D01*
X176175315Y-97289450D01*
X176209969Y-97331677D01*
X176306589Y-97449410D01*
X176360688Y-97493807D01*
X176466550Y-97580685D01*
X176649046Y-97678232D01*
X176847066Y-97738300D01*
X176847065Y-97738300D01*
X176865529Y-97740118D01*
X177053000Y-97758583D01*
X177258934Y-97738300D01*
X177456954Y-97678232D01*
X177639450Y-97580685D01*
X177799410Y-97449410D01*
X177930685Y-97289450D01*
X178028232Y-97106954D01*
X178088300Y-96908934D01*
X178108583Y-96703000D01*
X178088300Y-96497066D01*
X178028232Y-96299046D01*
X177930685Y-96116550D01*
X177820693Y-95982523D01*
X177799410Y-95956589D01*
X177639452Y-95825317D01*
X177639453Y-95825317D01*
X177639450Y-95825315D01*
X177456954Y-95727768D01*
X177258934Y-95667700D01*
X177258932Y-95667699D01*
X177258934Y-95667699D01*
X177053000Y-95647417D01*
X176847067Y-95667699D01*
X176649043Y-95727769D01*
X176572777Y-95768535D01*
X176466550Y-95825315D01*
X176466548Y-95825316D01*
X176466547Y-95825317D01*
X176306589Y-95956589D01*
X176175317Y-96116547D01*
X176077769Y-96299043D01*
X176017699Y-96497067D01*
X175997417Y-96703000D01*
X162015000Y-96703000D01*
X162015000Y-96140400D01*
X156239000Y-96140400D01*
X156171961Y-96120715D01*
X156126206Y-96067911D01*
X156115000Y-96016400D01*
X156115000Y-95547000D01*
X179911357Y-95547000D01*
X179931884Y-95768535D01*
X179931885Y-95768537D01*
X179992769Y-95982523D01*
X179992775Y-95982538D01*
X180091938Y-96181683D01*
X180091943Y-96181691D01*
X180226020Y-96359238D01*
X180390437Y-96509123D01*
X180390439Y-96509125D01*
X180579595Y-96626245D01*
X180579596Y-96626245D01*
X180579599Y-96626247D01*
X180787060Y-96706618D01*
X181005757Y-96747500D01*
X181005759Y-96747500D01*
X181228241Y-96747500D01*
X181228243Y-96747500D01*
X181446940Y-96706618D01*
X181654401Y-96626247D01*
X181843562Y-96509124D01*
X182007981Y-96359236D01*
X182142058Y-96181689D01*
X182241229Y-95982528D01*
X182302115Y-95768536D01*
X182322643Y-95547000D01*
X183467357Y-95547000D01*
X183487884Y-95768535D01*
X183487885Y-95768537D01*
X183548769Y-95982523D01*
X183548775Y-95982538D01*
X183647938Y-96181683D01*
X183647943Y-96181691D01*
X183782020Y-96359238D01*
X183946437Y-96509123D01*
X183946439Y-96509125D01*
X184135595Y-96626245D01*
X184135596Y-96626245D01*
X184135599Y-96626247D01*
X184343060Y-96706618D01*
X184561757Y-96747500D01*
X184561759Y-96747500D01*
X184784241Y-96747500D01*
X184784243Y-96747500D01*
X185002940Y-96706618D01*
X185210401Y-96626247D01*
X185399562Y-96509124D01*
X185563981Y-96359236D01*
X185698058Y-96181689D01*
X185797229Y-95982528D01*
X185858115Y-95768536D01*
X185878643Y-95547000D01*
X185858115Y-95325464D01*
X185797229Y-95111472D01*
X185771043Y-95058883D01*
X185698061Y-94912316D01*
X185698056Y-94912308D01*
X185563979Y-94734761D01*
X185399562Y-94584876D01*
X185399560Y-94584874D01*
X185210404Y-94467754D01*
X185210398Y-94467752D01*
X185002940Y-94387382D01*
X184784243Y-94346500D01*
X184561757Y-94346500D01*
X184343060Y-94387382D01*
X184211864Y-94438207D01*
X184135601Y-94467752D01*
X184135595Y-94467754D01*
X183946439Y-94584874D01*
X183946437Y-94584876D01*
X183782020Y-94734761D01*
X183647943Y-94912308D01*
X183647938Y-94912316D01*
X183548775Y-95111461D01*
X183548769Y-95111476D01*
X183487885Y-95325462D01*
X183487884Y-95325464D01*
X183467357Y-95546999D01*
X183467357Y-95547000D01*
X182322643Y-95547000D01*
X182302115Y-95325464D01*
X182241229Y-95111472D01*
X182215043Y-95058883D01*
X182142061Y-94912316D01*
X182142056Y-94912308D01*
X182007979Y-94734761D01*
X181843562Y-94584876D01*
X181843560Y-94584874D01*
X181654404Y-94467754D01*
X181654398Y-94467752D01*
X181446940Y-94387382D01*
X181228243Y-94346500D01*
X181005757Y-94346500D01*
X180787060Y-94387382D01*
X180655864Y-94438207D01*
X180579601Y-94467752D01*
X180579595Y-94467754D01*
X180390439Y-94584874D01*
X180390437Y-94584876D01*
X180226020Y-94734761D01*
X180091943Y-94912308D01*
X180091938Y-94912316D01*
X179992775Y-95111461D01*
X179992769Y-95111476D01*
X179931885Y-95325462D01*
X179931884Y-95325464D01*
X179911357Y-95546999D01*
X179911357Y-95547000D01*
X156115000Y-95547000D01*
X156115000Y-93726005D01*
X161798529Y-93726005D01*
X161818379Y-93965559D01*
X161877389Y-94198589D01*
X161973951Y-94418729D01*
X162005981Y-94467754D01*
X162105429Y-94619969D01*
X162268236Y-94796825D01*
X162268239Y-94796827D01*
X162268242Y-94796830D01*
X162457924Y-94944466D01*
X162457930Y-94944470D01*
X162457933Y-94944472D01*
X162669344Y-95058882D01*
X162669347Y-95058883D01*
X162896699Y-95136933D01*
X162896701Y-95136933D01*
X162896703Y-95136934D01*
X163133808Y-95176500D01*
X163133809Y-95176500D01*
X163374191Y-95176500D01*
X163374192Y-95176500D01*
X163611297Y-95136934D01*
X163838656Y-95058882D01*
X164050067Y-94944472D01*
X164091388Y-94912311D01*
X164113768Y-94894891D01*
X164239764Y-94796825D01*
X164402571Y-94619969D01*
X164534049Y-94418728D01*
X164630610Y-94198591D01*
X164689620Y-93965563D01*
X164709471Y-93726005D01*
X166348529Y-93726005D01*
X166368379Y-93965559D01*
X166427389Y-94198589D01*
X166523951Y-94418729D01*
X166555981Y-94467754D01*
X166655429Y-94619969D01*
X166818236Y-94796825D01*
X166818239Y-94796827D01*
X166818242Y-94796830D01*
X167007924Y-94944466D01*
X167007930Y-94944470D01*
X167007933Y-94944472D01*
X167219344Y-95058882D01*
X167219347Y-95058883D01*
X167446699Y-95136933D01*
X167446701Y-95136933D01*
X167446703Y-95136934D01*
X167683808Y-95176500D01*
X167683809Y-95176500D01*
X167924191Y-95176500D01*
X167924192Y-95176500D01*
X168161297Y-95136934D01*
X168388656Y-95058882D01*
X168600067Y-94944472D01*
X168641388Y-94912311D01*
X168663768Y-94894891D01*
X168789764Y-94796825D01*
X168952571Y-94619969D01*
X169084049Y-94418728D01*
X169180610Y-94198591D01*
X169239620Y-93965563D01*
X169259471Y-93726005D01*
X170898529Y-93726005D01*
X170918379Y-93965559D01*
X170977389Y-94198589D01*
X171073951Y-94418729D01*
X171105981Y-94467754D01*
X171205429Y-94619969D01*
X171368236Y-94796825D01*
X171368239Y-94796827D01*
X171368242Y-94796830D01*
X171557924Y-94944466D01*
X171557930Y-94944470D01*
X171557933Y-94944472D01*
X171769344Y-95058882D01*
X171769347Y-95058883D01*
X171996699Y-95136933D01*
X171996701Y-95136933D01*
X171996703Y-95136934D01*
X172233808Y-95176500D01*
X172233809Y-95176500D01*
X172474191Y-95176500D01*
X172474192Y-95176500D01*
X172711297Y-95136934D01*
X172938656Y-95058882D01*
X173150067Y-94944472D01*
X173191388Y-94912311D01*
X173213768Y-94894891D01*
X173339764Y-94796825D01*
X173502571Y-94619969D01*
X173634049Y-94418728D01*
X173730610Y-94198591D01*
X173789620Y-93965563D01*
X173809471Y-93726000D01*
X173789620Y-93486437D01*
X173730610Y-93253409D01*
X173634049Y-93033272D01*
X173502571Y-92832031D01*
X173339764Y-92655175D01*
X173339759Y-92655171D01*
X173339757Y-92655169D01*
X173150075Y-92507533D01*
X173150069Y-92507529D01*
X172938657Y-92393118D01*
X172938652Y-92393116D01*
X172711300Y-92315066D01*
X172493572Y-92278734D01*
X172474192Y-92275500D01*
X172233808Y-92275500D01*
X172214428Y-92278734D01*
X171996699Y-92315066D01*
X171769347Y-92393116D01*
X171769342Y-92393118D01*
X171557930Y-92507529D01*
X171557924Y-92507533D01*
X171368242Y-92655169D01*
X171368239Y-92655172D01*
X171205430Y-92832029D01*
X171205427Y-92832033D01*
X171073951Y-93033270D01*
X170977389Y-93253410D01*
X170918379Y-93486440D01*
X170898529Y-93725994D01*
X170898529Y-93726005D01*
X169259471Y-93726005D01*
X169259471Y-93726000D01*
X169239620Y-93486437D01*
X169180610Y-93253409D01*
X169084049Y-93033272D01*
X168952571Y-92832031D01*
X168789764Y-92655175D01*
X168789759Y-92655171D01*
X168789757Y-92655169D01*
X168600075Y-92507533D01*
X168600069Y-92507529D01*
X168388657Y-92393118D01*
X168388652Y-92393116D01*
X168161300Y-92315066D01*
X167943572Y-92278734D01*
X167924192Y-92275500D01*
X167683808Y-92275500D01*
X167664428Y-92278734D01*
X167446699Y-92315066D01*
X167219347Y-92393116D01*
X167219342Y-92393118D01*
X167007930Y-92507529D01*
X167007924Y-92507533D01*
X166818242Y-92655169D01*
X166818239Y-92655172D01*
X166655430Y-92832029D01*
X166655427Y-92832033D01*
X166523951Y-93033270D01*
X166427389Y-93253410D01*
X166368379Y-93486440D01*
X166348529Y-93725994D01*
X166348529Y-93726005D01*
X164709471Y-93726005D01*
X164709471Y-93726000D01*
X164689620Y-93486437D01*
X164630610Y-93253409D01*
X164534049Y-93033272D01*
X164402571Y-92832031D01*
X164239764Y-92655175D01*
X164239759Y-92655171D01*
X164239757Y-92655169D01*
X164050075Y-92507533D01*
X164050069Y-92507529D01*
X163838657Y-92393118D01*
X163838652Y-92393116D01*
X163611300Y-92315066D01*
X163393572Y-92278734D01*
X163374192Y-92275500D01*
X163133808Y-92275500D01*
X163114428Y-92278734D01*
X162896699Y-92315066D01*
X162669347Y-92393116D01*
X162669342Y-92393118D01*
X162457930Y-92507529D01*
X162457924Y-92507533D01*
X162268242Y-92655169D01*
X162268239Y-92655172D01*
X162105430Y-92832029D01*
X162105427Y-92832033D01*
X161973951Y-93033270D01*
X161877389Y-93253410D01*
X161818379Y-93486440D01*
X161798529Y-93725994D01*
X161798529Y-93726005D01*
X156115000Y-93726005D01*
X156115000Y-91140400D01*
X149765000Y-91140400D01*
X149666746Y-91142807D01*
X149666744Y-91142807D01*
X149666738Y-91142808D01*
X149474020Y-91181142D01*
X149474012Y-91181144D01*
X149292466Y-91256343D01*
X149292451Y-91256351D01*
X149186005Y-91327476D01*
X149119328Y-91348354D01*
X149051948Y-91329869D01*
X149005258Y-91277890D01*
X148998138Y-91259308D01*
X148974954Y-91180349D01*
X148950828Y-91142808D01*
X148897143Y-91059272D01*
X148788373Y-90965023D01*
X148788371Y-90965022D01*
X148657456Y-90905234D01*
X148577611Y-90893755D01*
X148550799Y-90889900D01*
X148479201Y-90889900D01*
X148465794Y-90891827D01*
X148372543Y-90905234D01*
X148241628Y-90965022D01*
X148241622Y-90965025D01*
X148221201Y-90982721D01*
X148157645Y-91011745D01*
X148088487Y-91001801D01*
X148058799Y-90982721D01*
X148038377Y-90965025D01*
X148038371Y-90965022D01*
X147907456Y-90905234D01*
X147827611Y-90893755D01*
X147800799Y-90889900D01*
X147729201Y-90889900D01*
X147715794Y-90891827D01*
X147622543Y-90905234D01*
X147491628Y-90965022D01*
X147491622Y-90965025D01*
X147471201Y-90982721D01*
X147407645Y-91011745D01*
X147338487Y-91001801D01*
X147308799Y-90982721D01*
X147288377Y-90965025D01*
X147288371Y-90965022D01*
X147157456Y-90905234D01*
X147077611Y-90893755D01*
X147050799Y-90889900D01*
X146979201Y-90889900D01*
X146965794Y-90891827D01*
X146872543Y-90905234D01*
X146741628Y-90965022D01*
X146741626Y-90965023D01*
X146632856Y-91059273D01*
X146555045Y-91180349D01*
X146531861Y-91259309D01*
X146494087Y-91318087D01*
X146430531Y-91347112D01*
X146361372Y-91337168D01*
X146343993Y-91327476D01*
X146237543Y-91256348D01*
X146237533Y-91256343D01*
X146055987Y-91181144D01*
X146055979Y-91181142D01*
X145863261Y-91142808D01*
X145863256Y-91142807D01*
X145863254Y-91142807D01*
X145765000Y-91140400D01*
X132665000Y-91140400D01*
X132566746Y-91142807D01*
X132566744Y-91142807D01*
X132566738Y-91142808D01*
X132374020Y-91181142D01*
X132374012Y-91181144D01*
X132192466Y-91256343D01*
X132192451Y-91256351D01*
X132086005Y-91327476D01*
X132019328Y-91348354D01*
X131951948Y-91329869D01*
X131905258Y-91277890D01*
X131898138Y-91259308D01*
X131874954Y-91180349D01*
X131850828Y-91142808D01*
X131797143Y-91059272D01*
X131688373Y-90965023D01*
X131688371Y-90965022D01*
X131557456Y-90905234D01*
X131477611Y-90893755D01*
X131450799Y-90889900D01*
X131379201Y-90889900D01*
X131365794Y-90891827D01*
X131272543Y-90905234D01*
X131141628Y-90965022D01*
X131141622Y-90965025D01*
X131121201Y-90982721D01*
X131057645Y-91011745D01*
X130988487Y-91001801D01*
X130958799Y-90982721D01*
X130938377Y-90965025D01*
X130938371Y-90965022D01*
X130807456Y-90905234D01*
X130727611Y-90893755D01*
X130700799Y-90889900D01*
X130629201Y-90889900D01*
X130615794Y-90891827D01*
X130522543Y-90905234D01*
X130391628Y-90965022D01*
X130391622Y-90965025D01*
X130371201Y-90982721D01*
X130307645Y-91011745D01*
X130238487Y-91001801D01*
X130208799Y-90982721D01*
X130188377Y-90965025D01*
X130188371Y-90965022D01*
X130057456Y-90905234D01*
X129977611Y-90893755D01*
X129950799Y-90889900D01*
X129879201Y-90889900D01*
X129865794Y-90891827D01*
X129772543Y-90905234D01*
X129641628Y-90965022D01*
X129641626Y-90965023D01*
X129532856Y-91059273D01*
X129455045Y-91180349D01*
X129431861Y-91259309D01*
X129394087Y-91318087D01*
X129330531Y-91347112D01*
X129261372Y-91337168D01*
X129243993Y-91327476D01*
X129137543Y-91256348D01*
X129137533Y-91256343D01*
X128955987Y-91181144D01*
X128955979Y-91181142D01*
X128763261Y-91142808D01*
X128763256Y-91142807D01*
X128763254Y-91142807D01*
X128665000Y-91140400D01*
X121415000Y-91140400D01*
X121415000Y-92126500D01*
X121395315Y-92193539D01*
X121342511Y-92239294D01*
X121291000Y-92250500D01*
X112059858Y-92250500D01*
X112048866Y-92251089D01*
X112048857Y-92251089D01*
X112048856Y-92251090D01*
X112048855Y-92251090D01*
X112017038Y-92254511D01*
X112017029Y-92254513D01*
X111940521Y-92278470D01*
X111940516Y-92278471D01*
X111879188Y-92311960D01*
X111832380Y-92347001D01*
X111832359Y-92347019D01*
X107973481Y-96205896D01*
X107912158Y-96239381D01*
X107842466Y-96234397D01*
X107786533Y-96192525D01*
X107762116Y-96127061D01*
X107761800Y-96118215D01*
X107761800Y-92761369D01*
X107781485Y-92694330D01*
X107798126Y-92673680D01*
X108126087Y-92345774D01*
X108929683Y-91542311D01*
X108991009Y-91508832D01*
X109017357Y-91506000D01*
X116459000Y-91506000D01*
X119978681Y-87986319D01*
X120040004Y-87952834D01*
X120066362Y-87950000D01*
X158063638Y-87950000D01*
X158130677Y-87969685D01*
G37*
%TD.AperFunction*%
%TD*%
%TA.AperFunction,NonConductor*%
G36*
X148191511Y-91778997D02*
G01*
X148221203Y-91798080D01*
X148241622Y-91815774D01*
X148241625Y-91815775D01*
X148241627Y-91815777D01*
X148372543Y-91875565D01*
X148479201Y-91890900D01*
X148479204Y-91890900D01*
X148550796Y-91890900D01*
X148550799Y-91890900D01*
X148631304Y-91879325D01*
X148700462Y-91889269D01*
X148753265Y-91935024D01*
X148772950Y-92002063D01*
X148770568Y-92026252D01*
X148767407Y-92042144D01*
X148767407Y-92238653D01*
X148770568Y-92254546D01*
X148764339Y-92324137D01*
X148721476Y-92379314D01*
X148655586Y-92402558D01*
X148631304Y-92401474D01*
X148550800Y-92389900D01*
X148550799Y-92389900D01*
X148479201Y-92389900D01*
X148467864Y-92391530D01*
X148372543Y-92405234D01*
X148241628Y-92465022D01*
X148241622Y-92465025D01*
X148221201Y-92482721D01*
X148157645Y-92511745D01*
X148088487Y-92501801D01*
X148058799Y-92482721D01*
X148038377Y-92465025D01*
X148038371Y-92465022D01*
X147907456Y-92405234D01*
X147823167Y-92393116D01*
X147800799Y-92389900D01*
X147729201Y-92389900D01*
X147717864Y-92391530D01*
X147622543Y-92405234D01*
X147491628Y-92465022D01*
X147491622Y-92465025D01*
X147471201Y-92482721D01*
X147407645Y-92511745D01*
X147338487Y-92501801D01*
X147308799Y-92482721D01*
X147288377Y-92465025D01*
X147288371Y-92465022D01*
X147157456Y-92405234D01*
X147073167Y-92393116D01*
X147050799Y-92389900D01*
X146979201Y-92389900D01*
X146979197Y-92389900D01*
X146898694Y-92401474D01*
X146829536Y-92391530D01*
X146776733Y-92345774D01*
X146757049Y-92278734D01*
X146759432Y-92254546D01*
X146762593Y-92238654D01*
X146762593Y-92042146D01*
X146759432Y-92026255D01*
X146765658Y-91956666D01*
X146808520Y-91901487D01*
X146874409Y-91878241D01*
X146898693Y-91879324D01*
X146979201Y-91890900D01*
X146979204Y-91890900D01*
X147050796Y-91890900D01*
X147050799Y-91890900D01*
X147157457Y-91875565D01*
X147288373Y-91815777D01*
X147288375Y-91815774D01*
X147288377Y-91815774D01*
X147308797Y-91798080D01*
X147372352Y-91769054D01*
X147441511Y-91778997D01*
X147471203Y-91798080D01*
X147491622Y-91815774D01*
X147491625Y-91815775D01*
X147491627Y-91815777D01*
X147622543Y-91875565D01*
X147729201Y-91890900D01*
X147729204Y-91890900D01*
X147800796Y-91890900D01*
X147800799Y-91890900D01*
X147907457Y-91875565D01*
X148038373Y-91815777D01*
X148038375Y-91815774D01*
X148038377Y-91815774D01*
X148058797Y-91798080D01*
X148122352Y-91769054D01*
X148191511Y-91778997D01*
G37*
%TD.AperFunction*%
%TA.AperFunction,NonConductor*%
G36*
X131091511Y-91778997D02*
G01*
X131121203Y-91798080D01*
X131141622Y-91815774D01*
X131141625Y-91815775D01*
X131141627Y-91815777D01*
X131272543Y-91875565D01*
X131379201Y-91890900D01*
X131379204Y-91890900D01*
X131450796Y-91890900D01*
X131450799Y-91890900D01*
X131531304Y-91879325D01*
X131600462Y-91889269D01*
X131653265Y-91935024D01*
X131672950Y-92002063D01*
X131670568Y-92026252D01*
X131667407Y-92042144D01*
X131667407Y-92238653D01*
X131670568Y-92254546D01*
X131664339Y-92324137D01*
X131621476Y-92379314D01*
X131555586Y-92402558D01*
X131531304Y-92401474D01*
X131450800Y-92389900D01*
X131450799Y-92389900D01*
X131379201Y-92389900D01*
X131367864Y-92391530D01*
X131272543Y-92405234D01*
X131141628Y-92465022D01*
X131141622Y-92465025D01*
X131121201Y-92482721D01*
X131057645Y-92511745D01*
X130988487Y-92501801D01*
X130958799Y-92482721D01*
X130938377Y-92465025D01*
X130938371Y-92465022D01*
X130807456Y-92405234D01*
X130723167Y-92393116D01*
X130700799Y-92389900D01*
X130629201Y-92389900D01*
X130617864Y-92391530D01*
X130522543Y-92405234D01*
X130391628Y-92465022D01*
X130391622Y-92465025D01*
X130371201Y-92482721D01*
X130307645Y-92511745D01*
X130238487Y-92501801D01*
X130208799Y-92482721D01*
X130188377Y-92465025D01*
X130188371Y-92465022D01*
X130057456Y-92405234D01*
X129973167Y-92393116D01*
X129950799Y-92389900D01*
X129879201Y-92389900D01*
X129879197Y-92389900D01*
X129798694Y-92401474D01*
X129729536Y-92391530D01*
X129676733Y-92345774D01*
X129657049Y-92278734D01*
X129659432Y-92254546D01*
X129662593Y-92238654D01*
X129662593Y-92042146D01*
X129659432Y-92026255D01*
X129665658Y-91956666D01*
X129708520Y-91901487D01*
X129774409Y-91878241D01*
X129798693Y-91879324D01*
X129879201Y-91890900D01*
X129879204Y-91890900D01*
X129950796Y-91890900D01*
X129950799Y-91890900D01*
X130057457Y-91875565D01*
X130188373Y-91815777D01*
X130188375Y-91815774D01*
X130188377Y-91815774D01*
X130208797Y-91798080D01*
X130272352Y-91769054D01*
X130341511Y-91778997D01*
X130371203Y-91798080D01*
X130391622Y-91815774D01*
X130391625Y-91815775D01*
X130391627Y-91815777D01*
X130522543Y-91875565D01*
X130629201Y-91890900D01*
X130629204Y-91890900D01*
X130700796Y-91890900D01*
X130700799Y-91890900D01*
X130807457Y-91875565D01*
X130938373Y-91815777D01*
X130938375Y-91815774D01*
X130938377Y-91815774D01*
X130958797Y-91798080D01*
X131022352Y-91769054D01*
X131091511Y-91778997D01*
G37*
%TD.AperFunction*%
%TA.AperFunction,NonConductor*%
G36*
X148191511Y-98378997D02*
G01*
X148221203Y-98398080D01*
X148241622Y-98415774D01*
X148241625Y-98415775D01*
X148241627Y-98415777D01*
X148372543Y-98475565D01*
X148479201Y-98490900D01*
X148479204Y-98490900D01*
X148550796Y-98490900D01*
X148550799Y-98490900D01*
X148631304Y-98479325D01*
X148700462Y-98489269D01*
X148753265Y-98535024D01*
X148772950Y-98602063D01*
X148770568Y-98626252D01*
X148767407Y-98642144D01*
X148767407Y-98642146D01*
X148767407Y-98838654D01*
X148769395Y-98848653D01*
X148770568Y-98854546D01*
X148764339Y-98924137D01*
X148721476Y-98979314D01*
X148655586Y-99002558D01*
X148631304Y-99001474D01*
X148550800Y-98989900D01*
X148550799Y-98989900D01*
X148479201Y-98989900D01*
X148467864Y-98991530D01*
X148372543Y-99005234D01*
X148241628Y-99065022D01*
X148241622Y-99065025D01*
X148221201Y-99082721D01*
X148157645Y-99111745D01*
X148088487Y-99101801D01*
X148058799Y-99082721D01*
X148038377Y-99065025D01*
X148038371Y-99065022D01*
X147907456Y-99005234D01*
X147827611Y-98993755D01*
X147800799Y-98989900D01*
X147729201Y-98989900D01*
X147717864Y-98991530D01*
X147622543Y-99005234D01*
X147491628Y-99065022D01*
X147491622Y-99065025D01*
X147471201Y-99082721D01*
X147407645Y-99111745D01*
X147338487Y-99101801D01*
X147308799Y-99082721D01*
X147288377Y-99065025D01*
X147288371Y-99065022D01*
X147157456Y-99005234D01*
X147077611Y-98993755D01*
X147050799Y-98989900D01*
X146979201Y-98989900D01*
X146979197Y-98989900D01*
X146898694Y-99001474D01*
X146829536Y-98991530D01*
X146776733Y-98945774D01*
X146757049Y-98878734D01*
X146759432Y-98854546D01*
X146762593Y-98838654D01*
X146762593Y-98642146D01*
X146759432Y-98626255D01*
X146765658Y-98556666D01*
X146808520Y-98501487D01*
X146874409Y-98478241D01*
X146898693Y-98479324D01*
X146979201Y-98490900D01*
X146979204Y-98490900D01*
X147050796Y-98490900D01*
X147050799Y-98490900D01*
X147157457Y-98475565D01*
X147288373Y-98415777D01*
X147288375Y-98415774D01*
X147288377Y-98415774D01*
X147308797Y-98398080D01*
X147372352Y-98369054D01*
X147441511Y-98378997D01*
X147471203Y-98398080D01*
X147491622Y-98415774D01*
X147491625Y-98415775D01*
X147491627Y-98415777D01*
X147622543Y-98475565D01*
X147729201Y-98490900D01*
X147729204Y-98490900D01*
X147800796Y-98490900D01*
X147800799Y-98490900D01*
X147907457Y-98475565D01*
X148038373Y-98415777D01*
X148038375Y-98415774D01*
X148038377Y-98415774D01*
X148058797Y-98398080D01*
X148122352Y-98369054D01*
X148191511Y-98378997D01*
G37*
%TD.AperFunction*%
%TA.AperFunction,NonConductor*%
G36*
X131091511Y-98378997D02*
G01*
X131121203Y-98398080D01*
X131141622Y-98415774D01*
X131141625Y-98415775D01*
X131141627Y-98415777D01*
X131272543Y-98475565D01*
X131379201Y-98490900D01*
X131379204Y-98490900D01*
X131450796Y-98490900D01*
X131450799Y-98490900D01*
X131531304Y-98479325D01*
X131600462Y-98489269D01*
X131653265Y-98535024D01*
X131672950Y-98602063D01*
X131670568Y-98626252D01*
X131667407Y-98642144D01*
X131667407Y-98642146D01*
X131667407Y-98838654D01*
X131669395Y-98848653D01*
X131670568Y-98854546D01*
X131664339Y-98924137D01*
X131621476Y-98979314D01*
X131555586Y-99002558D01*
X131531304Y-99001474D01*
X131450800Y-98989900D01*
X131450799Y-98989900D01*
X131379201Y-98989900D01*
X131367864Y-98991530D01*
X131272543Y-99005234D01*
X131141628Y-99065022D01*
X131141622Y-99065025D01*
X131121201Y-99082721D01*
X131057645Y-99111745D01*
X130988487Y-99101801D01*
X130958799Y-99082721D01*
X130938377Y-99065025D01*
X130938371Y-99065022D01*
X130807456Y-99005234D01*
X130727611Y-98993755D01*
X130700799Y-98989900D01*
X130629201Y-98989900D01*
X130617864Y-98991530D01*
X130522543Y-99005234D01*
X130391628Y-99065022D01*
X130391622Y-99065025D01*
X130371201Y-99082721D01*
X130307645Y-99111745D01*
X130238487Y-99101801D01*
X130208799Y-99082721D01*
X130188377Y-99065025D01*
X130188371Y-99065022D01*
X130057456Y-99005234D01*
X129977611Y-98993755D01*
X129950799Y-98989900D01*
X129879201Y-98989900D01*
X129879197Y-98989900D01*
X129798694Y-99001474D01*
X129729536Y-98991530D01*
X129676733Y-98945774D01*
X129657049Y-98878734D01*
X129659432Y-98854546D01*
X129662593Y-98838654D01*
X129662593Y-98642146D01*
X129659432Y-98626255D01*
X129665658Y-98556666D01*
X129708520Y-98501487D01*
X129774409Y-98478241D01*
X129798693Y-98479324D01*
X129879201Y-98490900D01*
X129879204Y-98490900D01*
X129950796Y-98490900D01*
X129950799Y-98490900D01*
X130057457Y-98475565D01*
X130188373Y-98415777D01*
X130188375Y-98415774D01*
X130188377Y-98415774D01*
X130208797Y-98398080D01*
X130272352Y-98369054D01*
X130341511Y-98378997D01*
X130371203Y-98398080D01*
X130391622Y-98415774D01*
X130391625Y-98415775D01*
X130391627Y-98415777D01*
X130522543Y-98475565D01*
X130629201Y-98490900D01*
X130629204Y-98490900D01*
X130700796Y-98490900D01*
X130700799Y-98490900D01*
X130807457Y-98475565D01*
X130938373Y-98415777D01*
X130938375Y-98415774D01*
X130938377Y-98415774D01*
X130958797Y-98398080D01*
X131022352Y-98369054D01*
X131091511Y-98378997D01*
G37*
%TD.AperFunction*%
%TA.AperFunction,NonConductor*%
G36*
X148191511Y-104978997D02*
G01*
X148221203Y-104998080D01*
X148241622Y-105015774D01*
X148241625Y-105015775D01*
X148241627Y-105015777D01*
X148372543Y-105075565D01*
X148479201Y-105090900D01*
X148479204Y-105090900D01*
X148550796Y-105090900D01*
X148550799Y-105090900D01*
X148631304Y-105079325D01*
X148700462Y-105089269D01*
X148753265Y-105135024D01*
X148772950Y-105202063D01*
X148770568Y-105226252D01*
X148767407Y-105242144D01*
X148767407Y-105438653D01*
X148770568Y-105454546D01*
X148764339Y-105524137D01*
X148721476Y-105579314D01*
X148655586Y-105602558D01*
X148631304Y-105601474D01*
X148550800Y-105589900D01*
X148550799Y-105589900D01*
X148479201Y-105589900D01*
X148467864Y-105591530D01*
X148372543Y-105605234D01*
X148241628Y-105665022D01*
X148241622Y-105665025D01*
X148221201Y-105682721D01*
X148157645Y-105711745D01*
X148088487Y-105701801D01*
X148058799Y-105682721D01*
X148038377Y-105665025D01*
X148038371Y-105665022D01*
X147907456Y-105605234D01*
X147827611Y-105593755D01*
X147800799Y-105589900D01*
X147729201Y-105589900D01*
X147717864Y-105591530D01*
X147622543Y-105605234D01*
X147491628Y-105665022D01*
X147491622Y-105665025D01*
X147471201Y-105682721D01*
X147407645Y-105711745D01*
X147338487Y-105701801D01*
X147308799Y-105682721D01*
X147288377Y-105665025D01*
X147288371Y-105665022D01*
X147157456Y-105605234D01*
X147077611Y-105593755D01*
X147050799Y-105589900D01*
X146979201Y-105589900D01*
X146979197Y-105589900D01*
X146898694Y-105601474D01*
X146829536Y-105591530D01*
X146776733Y-105545774D01*
X146757049Y-105478734D01*
X146759432Y-105454546D01*
X146762593Y-105438654D01*
X146762593Y-105242146D01*
X146759432Y-105226255D01*
X146765658Y-105156666D01*
X146808520Y-105101487D01*
X146874409Y-105078241D01*
X146898693Y-105079324D01*
X146979201Y-105090900D01*
X146979204Y-105090900D01*
X147050796Y-105090900D01*
X147050799Y-105090900D01*
X147157457Y-105075565D01*
X147288373Y-105015777D01*
X147288375Y-105015774D01*
X147288377Y-105015774D01*
X147308797Y-104998080D01*
X147372352Y-104969054D01*
X147441511Y-104978997D01*
X147471203Y-104998080D01*
X147491622Y-105015774D01*
X147491625Y-105015775D01*
X147491627Y-105015777D01*
X147622543Y-105075565D01*
X147729201Y-105090900D01*
X147729204Y-105090900D01*
X147800796Y-105090900D01*
X147800799Y-105090900D01*
X147907457Y-105075565D01*
X148038373Y-105015777D01*
X148038375Y-105015774D01*
X148038377Y-105015774D01*
X148058797Y-104998080D01*
X148122352Y-104969054D01*
X148191511Y-104978997D01*
G37*
%TD.AperFunction*%
%TA.AperFunction,NonConductor*%
G36*
X131091511Y-104978997D02*
G01*
X131121203Y-104998080D01*
X131141622Y-105015774D01*
X131141625Y-105015775D01*
X131141627Y-105015777D01*
X131272543Y-105075565D01*
X131379201Y-105090900D01*
X131379204Y-105090900D01*
X131450796Y-105090900D01*
X131450799Y-105090900D01*
X131531304Y-105079325D01*
X131600462Y-105089269D01*
X131653265Y-105135024D01*
X131672950Y-105202063D01*
X131670568Y-105226252D01*
X131667407Y-105242144D01*
X131667407Y-105438653D01*
X131670568Y-105454546D01*
X131664339Y-105524137D01*
X131621476Y-105579314D01*
X131555586Y-105602558D01*
X131531304Y-105601474D01*
X131450800Y-105589900D01*
X131450799Y-105589900D01*
X131379201Y-105589900D01*
X131367864Y-105591530D01*
X131272543Y-105605234D01*
X131141628Y-105665022D01*
X131141622Y-105665025D01*
X131121201Y-105682721D01*
X131057645Y-105711745D01*
X130988487Y-105701801D01*
X130958799Y-105682721D01*
X130938377Y-105665025D01*
X130938371Y-105665022D01*
X130807456Y-105605234D01*
X130727611Y-105593755D01*
X130700799Y-105589900D01*
X130629201Y-105589900D01*
X130617864Y-105591530D01*
X130522543Y-105605234D01*
X130391628Y-105665022D01*
X130391622Y-105665025D01*
X130371201Y-105682721D01*
X130307645Y-105711745D01*
X130238487Y-105701801D01*
X130208799Y-105682721D01*
X130188377Y-105665025D01*
X130188371Y-105665022D01*
X130057456Y-105605234D01*
X129977611Y-105593755D01*
X129950799Y-105589900D01*
X129879201Y-105589900D01*
X129879197Y-105589900D01*
X129798694Y-105601474D01*
X129729536Y-105591530D01*
X129676733Y-105545774D01*
X129657049Y-105478734D01*
X129659432Y-105454546D01*
X129662593Y-105438654D01*
X129662593Y-105242146D01*
X129659432Y-105226255D01*
X129665658Y-105156666D01*
X129708520Y-105101487D01*
X129774409Y-105078241D01*
X129798693Y-105079324D01*
X129879201Y-105090900D01*
X129879204Y-105090900D01*
X129950796Y-105090900D01*
X129950799Y-105090900D01*
X130057457Y-105075565D01*
X130188373Y-105015777D01*
X130188375Y-105015774D01*
X130188377Y-105015774D01*
X130208797Y-104998080D01*
X130272352Y-104969054D01*
X130341511Y-104978997D01*
X130371203Y-104998080D01*
X130391622Y-105015774D01*
X130391625Y-105015775D01*
X130391627Y-105015777D01*
X130522543Y-105075565D01*
X130629201Y-105090900D01*
X130629204Y-105090900D01*
X130700796Y-105090900D01*
X130700799Y-105090900D01*
X130807457Y-105075565D01*
X130938373Y-105015777D01*
X130938375Y-105015774D01*
X130938377Y-105015774D01*
X130958797Y-104998080D01*
X131022352Y-104969054D01*
X131091511Y-104978997D01*
G37*
%TD.AperFunction*%
%TA.AperFunction,Conductor*%
%TO.N,/PHASE_B*%
G36*
X121358039Y-99333685D02*
G01*
X121403794Y-99386489D01*
X121415000Y-99438000D01*
X121415000Y-104778000D01*
X121395315Y-104845039D01*
X121342511Y-104890794D01*
X121291000Y-104902000D01*
X117601999Y-104902000D01*
X116840000Y-105663999D01*
X116840000Y-105664000D01*
X116840000Y-112014000D01*
X120396000Y-115570000D01*
X122122638Y-115570000D01*
X122189677Y-115589685D01*
X122210319Y-115606319D01*
X123915681Y-117311681D01*
X123949166Y-117373004D01*
X123952000Y-117399362D01*
X123952000Y-122878000D01*
X123932315Y-122945039D01*
X123879511Y-122990794D01*
X123828000Y-123002000D01*
X116710000Y-123002000D01*
X116642961Y-122982315D01*
X116597206Y-122929511D01*
X116586000Y-122878000D01*
X116586000Y-116840000D01*
X116518540Y-116772540D01*
X116497388Y-116744284D01*
X116476048Y-116705201D01*
X116476041Y-116705191D01*
X116441001Y-116658384D01*
X116440998Y-116658381D01*
X116440991Y-116658371D01*
X112558319Y-112775699D01*
X112524834Y-112714376D01*
X112522000Y-112688018D01*
X112522000Y-103719981D01*
X112541685Y-103652942D01*
X112558319Y-103632300D01*
X116840300Y-99350319D01*
X116901623Y-99316834D01*
X116927981Y-99314000D01*
X121291000Y-99314000D01*
X121358039Y-99333685D01*
G37*
%TD.AperFunction*%
%TD*%
M02*
