%TF.GenerationSoftware,KiCad,Pcbnew,8.99.0-3258-g13625daeca*%
%TF.CreationDate,2025-03-11T23:12:25+01:00*%
%TF.ProjectId,anyesc,616e7965-7363-42e6-9b69-6361645f7063,V1.0*%
%TF.SameCoordinates,Original*%
%TF.FileFunction,Other,Comment*%
%FSLAX46Y46*%
G04 Gerber Fmt 4.6, Leading zero omitted, Abs format (unit mm)*
G04 Created by KiCad (PCBNEW 8.99.0-3258-g13625daeca) date 2025-03-11 23:12:25*
%MOMM*%
%LPD*%
G01*
G04 APERTURE LIST*
%ADD10C,0.150000*%
G04 APERTURE END LIST*
D10*
X125047953Y-92507058D02*
X125095572Y-92459439D01*
X125095572Y-92459439D02*
X125190810Y-92411820D01*
X125190810Y-92411820D02*
X125428905Y-92411820D01*
X125428905Y-92411820D02*
X125524143Y-92459439D01*
X125524143Y-92459439D02*
X125571762Y-92507058D01*
X125571762Y-92507058D02*
X125619381Y-92602296D01*
X125619381Y-92602296D02*
X125619381Y-92697534D01*
X125619381Y-92697534D02*
X125571762Y-92840391D01*
X125571762Y-92840391D02*
X125000334Y-93411820D01*
X125000334Y-93411820D02*
X125619381Y-93411820D01*
X125952715Y-92411820D02*
X126571762Y-92411820D01*
X126571762Y-92411820D02*
X126238429Y-92792772D01*
X126238429Y-92792772D02*
X126381286Y-92792772D01*
X126381286Y-92792772D02*
X126476524Y-92840391D01*
X126476524Y-92840391D02*
X126524143Y-92888010D01*
X126524143Y-92888010D02*
X126571762Y-92983248D01*
X126571762Y-92983248D02*
X126571762Y-93221343D01*
X126571762Y-93221343D02*
X126524143Y-93316581D01*
X126524143Y-93316581D02*
X126476524Y-93364201D01*
X126476524Y-93364201D02*
X126381286Y-93411820D01*
X126381286Y-93411820D02*
X126095572Y-93411820D01*
X126095572Y-93411820D02*
X126000334Y-93364201D01*
X126000334Y-93364201D02*
X125952715Y-93316581D01*
X127000334Y-93316581D02*
X127047953Y-93364201D01*
X127047953Y-93364201D02*
X127000334Y-93411820D01*
X127000334Y-93411820D02*
X126952715Y-93364201D01*
X126952715Y-93364201D02*
X127000334Y-93316581D01*
X127000334Y-93316581D02*
X127000334Y-93411820D01*
X127381286Y-92411820D02*
X128000333Y-92411820D01*
X128000333Y-92411820D02*
X127667000Y-92792772D01*
X127667000Y-92792772D02*
X127809857Y-92792772D01*
X127809857Y-92792772D02*
X127905095Y-92840391D01*
X127905095Y-92840391D02*
X127952714Y-92888010D01*
X127952714Y-92888010D02*
X128000333Y-92983248D01*
X128000333Y-92983248D02*
X128000333Y-93221343D01*
X128000333Y-93221343D02*
X127952714Y-93316581D01*
X127952714Y-93316581D02*
X127905095Y-93364201D01*
X127905095Y-93364201D02*
X127809857Y-93411820D01*
X127809857Y-93411820D02*
X127524143Y-93411820D01*
X127524143Y-93411820D02*
X127428905Y-93364201D01*
X127428905Y-93364201D02*
X127381286Y-93316581D01*
X128857476Y-92411820D02*
X128667000Y-92411820D01*
X128667000Y-92411820D02*
X128571762Y-92459439D01*
X128571762Y-92459439D02*
X128524143Y-92507058D01*
X128524143Y-92507058D02*
X128428905Y-92649915D01*
X128428905Y-92649915D02*
X128381286Y-92840391D01*
X128381286Y-92840391D02*
X128381286Y-93221343D01*
X128381286Y-93221343D02*
X128428905Y-93316581D01*
X128428905Y-93316581D02*
X128476524Y-93364201D01*
X128476524Y-93364201D02*
X128571762Y-93411820D01*
X128571762Y-93411820D02*
X128762238Y-93411820D01*
X128762238Y-93411820D02*
X128857476Y-93364201D01*
X128857476Y-93364201D02*
X128905095Y-93316581D01*
X128905095Y-93316581D02*
X128952714Y-93221343D01*
X128952714Y-93221343D02*
X128952714Y-92983248D01*
X128952714Y-92983248D02*
X128905095Y-92888010D01*
X128905095Y-92888010D02*
X128857476Y-92840391D01*
X128857476Y-92840391D02*
X128762238Y-92792772D01*
X128762238Y-92792772D02*
X128571762Y-92792772D01*
X128571762Y-92792772D02*
X128476524Y-92840391D01*
X128476524Y-92840391D02*
X128428905Y-92888010D01*
X128428905Y-92888010D02*
X128381286Y-92983248D01*
X129524143Y-92840391D02*
X129428905Y-92792772D01*
X129428905Y-92792772D02*
X129381286Y-92745153D01*
X129381286Y-92745153D02*
X129333667Y-92649915D01*
X129333667Y-92649915D02*
X129333667Y-92602296D01*
X129333667Y-92602296D02*
X129381286Y-92507058D01*
X129381286Y-92507058D02*
X129428905Y-92459439D01*
X129428905Y-92459439D02*
X129524143Y-92411820D01*
X129524143Y-92411820D02*
X129714619Y-92411820D01*
X129714619Y-92411820D02*
X129809857Y-92459439D01*
X129809857Y-92459439D02*
X129857476Y-92507058D01*
X129857476Y-92507058D02*
X129905095Y-92602296D01*
X129905095Y-92602296D02*
X129905095Y-92649915D01*
X129905095Y-92649915D02*
X129857476Y-92745153D01*
X129857476Y-92745153D02*
X129809857Y-92792772D01*
X129809857Y-92792772D02*
X129714619Y-92840391D01*
X129714619Y-92840391D02*
X129524143Y-92840391D01*
X129524143Y-92840391D02*
X129428905Y-92888010D01*
X129428905Y-92888010D02*
X129381286Y-92935629D01*
X129381286Y-92935629D02*
X129333667Y-93030867D01*
X129333667Y-93030867D02*
X129333667Y-93221343D01*
X129333667Y-93221343D02*
X129381286Y-93316581D01*
X129381286Y-93316581D02*
X129428905Y-93364201D01*
X129428905Y-93364201D02*
X129524143Y-93411820D01*
X129524143Y-93411820D02*
X129714619Y-93411820D01*
X129714619Y-93411820D02*
X129809857Y-93364201D01*
X129809857Y-93364201D02*
X129857476Y-93316581D01*
X129857476Y-93316581D02*
X129905095Y-93221343D01*
X129905095Y-93221343D02*
X129905095Y-93030867D01*
X129905095Y-93030867D02*
X129857476Y-92935629D01*
X129857476Y-92935629D02*
X129809857Y-92888010D01*
X129809857Y-92888010D02*
X129714619Y-92840391D01*
X130524143Y-92411820D02*
X130619381Y-92411820D01*
X130619381Y-92411820D02*
X130714619Y-92459439D01*
X130714619Y-92459439D02*
X130762238Y-92507058D01*
X130762238Y-92507058D02*
X130809857Y-92602296D01*
X130809857Y-92602296D02*
X130857476Y-92792772D01*
X130857476Y-92792772D02*
X130857476Y-93030867D01*
X130857476Y-93030867D02*
X130809857Y-93221343D01*
X130809857Y-93221343D02*
X130762238Y-93316581D01*
X130762238Y-93316581D02*
X130714619Y-93364201D01*
X130714619Y-93364201D02*
X130619381Y-93411820D01*
X130619381Y-93411820D02*
X130524143Y-93411820D01*
X130524143Y-93411820D02*
X130428905Y-93364201D01*
X130428905Y-93364201D02*
X130381286Y-93316581D01*
X130381286Y-93316581D02*
X130333667Y-93221343D01*
X130333667Y-93221343D02*
X130286048Y-93030867D01*
X130286048Y-93030867D02*
X130286048Y-92792772D01*
X130286048Y-92792772D02*
X130333667Y-92602296D01*
X130333667Y-92602296D02*
X130381286Y-92507058D01*
X130381286Y-92507058D02*
X130428905Y-92459439D01*
X130428905Y-92459439D02*
X130524143Y-92411820D01*
X132047953Y-93411820D02*
X132047953Y-92745153D01*
X132047953Y-92840391D02*
X132095572Y-92792772D01*
X132095572Y-92792772D02*
X132190810Y-92745153D01*
X132190810Y-92745153D02*
X132333667Y-92745153D01*
X132333667Y-92745153D02*
X132428905Y-92792772D01*
X132428905Y-92792772D02*
X132476524Y-92888010D01*
X132476524Y-92888010D02*
X132476524Y-93411820D01*
X132476524Y-92888010D02*
X132524143Y-92792772D01*
X132524143Y-92792772D02*
X132619381Y-92745153D01*
X132619381Y-92745153D02*
X132762238Y-92745153D01*
X132762238Y-92745153D02*
X132857477Y-92792772D01*
X132857477Y-92792772D02*
X132905096Y-92888010D01*
X132905096Y-92888010D02*
X132905096Y-93411820D01*
X133381286Y-93411820D02*
X133381286Y-92745153D01*
X133381286Y-92840391D02*
X133428905Y-92792772D01*
X133428905Y-92792772D02*
X133524143Y-92745153D01*
X133524143Y-92745153D02*
X133667000Y-92745153D01*
X133667000Y-92745153D02*
X133762238Y-92792772D01*
X133762238Y-92792772D02*
X133809857Y-92888010D01*
X133809857Y-92888010D02*
X133809857Y-93411820D01*
X133809857Y-92888010D02*
X133857476Y-92792772D01*
X133857476Y-92792772D02*
X133952714Y-92745153D01*
X133952714Y-92745153D02*
X134095571Y-92745153D01*
X134095571Y-92745153D02*
X134190810Y-92792772D01*
X134190810Y-92792772D02*
X134238429Y-92888010D01*
X134238429Y-92888010D02*
X134238429Y-93411820D01*
X141351000Y-99195000D02*
X141351000Y-93520581D01*
X117983000Y-99195000D02*
X117983000Y-93520581D01*
X141351000Y-94107001D02*
X117983000Y-94107001D01*
X141351000Y-94107001D02*
X117983000Y-94107001D01*
X141351000Y-94107001D02*
X140224496Y-94693422D01*
X141351000Y-94107001D02*
X140224496Y-93520580D01*
X117983000Y-94107001D02*
X119109504Y-93520580D01*
X117983000Y-94107001D02*
X119109504Y-94693422D01*
X141351000Y-94107001D02*
X117983000Y-94107001D01*
X141351000Y-94107001D02*
X117983000Y-94107001D01*
X141351000Y-94107001D02*
X140224496Y-94693422D01*
X141351000Y-94107001D02*
X140224496Y-93520580D01*
X117983000Y-94107001D02*
X119109504Y-93520580D01*
X117983000Y-94107001D02*
X119109504Y-94693422D01*
X144323057Y-116125046D02*
X144275438Y-116077427D01*
X144275438Y-116077427D02*
X144227819Y-115982189D01*
X144227819Y-115982189D02*
X144227819Y-115744094D01*
X144227819Y-115744094D02*
X144275438Y-115648856D01*
X144275438Y-115648856D02*
X144323057Y-115601237D01*
X144323057Y-115601237D02*
X144418295Y-115553618D01*
X144418295Y-115553618D02*
X144513533Y-115553618D01*
X144513533Y-115553618D02*
X144656390Y-115601237D01*
X144656390Y-115601237D02*
X145227819Y-116172665D01*
X145227819Y-116172665D02*
X145227819Y-115553618D01*
X144227819Y-115220284D02*
X144227819Y-114601237D01*
X144227819Y-114601237D02*
X144608771Y-114934570D01*
X144608771Y-114934570D02*
X144608771Y-114791713D01*
X144608771Y-114791713D02*
X144656390Y-114696475D01*
X144656390Y-114696475D02*
X144704009Y-114648856D01*
X144704009Y-114648856D02*
X144799247Y-114601237D01*
X144799247Y-114601237D02*
X145037342Y-114601237D01*
X145037342Y-114601237D02*
X145132580Y-114648856D01*
X145132580Y-114648856D02*
X145180200Y-114696475D01*
X145180200Y-114696475D02*
X145227819Y-114791713D01*
X145227819Y-114791713D02*
X145227819Y-115077427D01*
X145227819Y-115077427D02*
X145180200Y-115172665D01*
X145180200Y-115172665D02*
X145132580Y-115220284D01*
X145132580Y-114172665D02*
X145180200Y-114125046D01*
X145180200Y-114125046D02*
X145227819Y-114172665D01*
X145227819Y-114172665D02*
X145180200Y-114220284D01*
X145180200Y-114220284D02*
X145132580Y-114172665D01*
X145132580Y-114172665D02*
X145227819Y-114172665D01*
X144227819Y-113267904D02*
X144227819Y-113458380D01*
X144227819Y-113458380D02*
X144275438Y-113553618D01*
X144275438Y-113553618D02*
X144323057Y-113601237D01*
X144323057Y-113601237D02*
X144465914Y-113696475D01*
X144465914Y-113696475D02*
X144656390Y-113744094D01*
X144656390Y-113744094D02*
X145037342Y-113744094D01*
X145037342Y-113744094D02*
X145132580Y-113696475D01*
X145132580Y-113696475D02*
X145180200Y-113648856D01*
X145180200Y-113648856D02*
X145227819Y-113553618D01*
X145227819Y-113553618D02*
X145227819Y-113363142D01*
X145227819Y-113363142D02*
X145180200Y-113267904D01*
X145180200Y-113267904D02*
X145132580Y-113220285D01*
X145132580Y-113220285D02*
X145037342Y-113172666D01*
X145037342Y-113172666D02*
X144799247Y-113172666D01*
X144799247Y-113172666D02*
X144704009Y-113220285D01*
X144704009Y-113220285D02*
X144656390Y-113267904D01*
X144656390Y-113267904D02*
X144608771Y-113363142D01*
X144608771Y-113363142D02*
X144608771Y-113553618D01*
X144608771Y-113553618D02*
X144656390Y-113648856D01*
X144656390Y-113648856D02*
X144704009Y-113696475D01*
X144704009Y-113696475D02*
X144799247Y-113744094D01*
X144323057Y-112791713D02*
X144275438Y-112744094D01*
X144275438Y-112744094D02*
X144227819Y-112648856D01*
X144227819Y-112648856D02*
X144227819Y-112410761D01*
X144227819Y-112410761D02*
X144275438Y-112315523D01*
X144275438Y-112315523D02*
X144323057Y-112267904D01*
X144323057Y-112267904D02*
X144418295Y-112220285D01*
X144418295Y-112220285D02*
X144513533Y-112220285D01*
X144513533Y-112220285D02*
X144656390Y-112267904D01*
X144656390Y-112267904D02*
X145227819Y-112839332D01*
X145227819Y-112839332D02*
X145227819Y-112220285D01*
X144323057Y-111839332D02*
X144275438Y-111791713D01*
X144275438Y-111791713D02*
X144227819Y-111696475D01*
X144227819Y-111696475D02*
X144227819Y-111458380D01*
X144227819Y-111458380D02*
X144275438Y-111363142D01*
X144275438Y-111363142D02*
X144323057Y-111315523D01*
X144323057Y-111315523D02*
X144418295Y-111267904D01*
X144418295Y-111267904D02*
X144513533Y-111267904D01*
X144513533Y-111267904D02*
X144656390Y-111315523D01*
X144656390Y-111315523D02*
X145227819Y-111886951D01*
X145227819Y-111886951D02*
X145227819Y-111267904D01*
X144227819Y-110648856D02*
X144227819Y-110553618D01*
X144227819Y-110553618D02*
X144275438Y-110458380D01*
X144275438Y-110458380D02*
X144323057Y-110410761D01*
X144323057Y-110410761D02*
X144418295Y-110363142D01*
X144418295Y-110363142D02*
X144608771Y-110315523D01*
X144608771Y-110315523D02*
X144846866Y-110315523D01*
X144846866Y-110315523D02*
X145037342Y-110363142D01*
X145037342Y-110363142D02*
X145132580Y-110410761D01*
X145132580Y-110410761D02*
X145180200Y-110458380D01*
X145180200Y-110458380D02*
X145227819Y-110553618D01*
X145227819Y-110553618D02*
X145227819Y-110648856D01*
X145227819Y-110648856D02*
X145180200Y-110744094D01*
X145180200Y-110744094D02*
X145132580Y-110791713D01*
X145132580Y-110791713D02*
X145037342Y-110839332D01*
X145037342Y-110839332D02*
X144846866Y-110886951D01*
X144846866Y-110886951D02*
X144608771Y-110886951D01*
X144608771Y-110886951D02*
X144418295Y-110839332D01*
X144418295Y-110839332D02*
X144323057Y-110791713D01*
X144323057Y-110791713D02*
X144275438Y-110744094D01*
X144275438Y-110744094D02*
X144227819Y-110648856D01*
X145227819Y-109125046D02*
X144561152Y-109125046D01*
X144656390Y-109125046D02*
X144608771Y-109077427D01*
X144608771Y-109077427D02*
X144561152Y-108982189D01*
X144561152Y-108982189D02*
X144561152Y-108839332D01*
X144561152Y-108839332D02*
X144608771Y-108744094D01*
X144608771Y-108744094D02*
X144704009Y-108696475D01*
X144704009Y-108696475D02*
X145227819Y-108696475D01*
X144704009Y-108696475D02*
X144608771Y-108648856D01*
X144608771Y-108648856D02*
X144561152Y-108553618D01*
X144561152Y-108553618D02*
X144561152Y-108410761D01*
X144561152Y-108410761D02*
X144608771Y-108315522D01*
X144608771Y-108315522D02*
X144704009Y-108267903D01*
X144704009Y-108267903D02*
X145227819Y-108267903D01*
X145227819Y-107791713D02*
X144561152Y-107791713D01*
X144656390Y-107791713D02*
X144608771Y-107744094D01*
X144608771Y-107744094D02*
X144561152Y-107648856D01*
X144561152Y-107648856D02*
X144561152Y-107505999D01*
X144561152Y-107505999D02*
X144608771Y-107410761D01*
X144608771Y-107410761D02*
X144704009Y-107363142D01*
X144704009Y-107363142D02*
X145227819Y-107363142D01*
X144704009Y-107363142D02*
X144608771Y-107315523D01*
X144608771Y-107315523D02*
X144561152Y-107220285D01*
X144561152Y-107220285D02*
X144561152Y-107077428D01*
X144561152Y-107077428D02*
X144608771Y-106982189D01*
X144608771Y-106982189D02*
X144704009Y-106934570D01*
X144704009Y-106934570D02*
X145227819Y-106934570D01*
X141851000Y-99695000D02*
X146509420Y-99695000D01*
X141851000Y-123317000D02*
X146509420Y-123317000D01*
X145923000Y-99695000D02*
X145923000Y-123317000D01*
X145923000Y-99695000D02*
X145923000Y-123317000D01*
X145923000Y-99695000D02*
X146509421Y-100821504D01*
X145923000Y-99695000D02*
X145336579Y-100821504D01*
X145923000Y-123317000D02*
X145336579Y-122190496D01*
X145923000Y-123317000D02*
X146509421Y-122190496D01*
X145923000Y-99695000D02*
X145923000Y-123317000D01*
X145923000Y-99695000D02*
X145923000Y-123317000D01*
X145923000Y-99695000D02*
X146509421Y-100821504D01*
X145923000Y-99695000D02*
X145336579Y-100821504D01*
X145923000Y-123317000D02*
X145336579Y-122190496D01*
X145923000Y-123317000D02*
X146509421Y-122190496D01*
M02*
