M48
; DRILL file {KiCad 8.99.0-3258-g13625daeca} date 2025-03-11T23:12:25+0100
; FORMAT={-:-/ absolute / inch / decimal}
; #@! TF.CreationDate,2025-03-11T23:12:25+01:00
; #@! TF.GenerationSoftware,Kicad,Pcbnew,8.99.0-3258-g13625daeca
; #@! TF.FileFunction,Plated,1,4,PTH
FMAT,2
INCH
; #@! TA.AperFunction,Plated,PTH,ComponentDrill
T1C0.0079
; #@! TA.AperFunction,Plated,PTH,ViaDrill
T2C0.0118
; #@! TA.AperFunction,Plated,PTH,ComponentDrill
T3C0.0236
; #@! TA.AperFunction,Plated,PTH,ComponentDrill
T4C0.0300
; #@! TA.AperFunction,Plated,PTH,ComponentDrill
T5C0.0394
; #@! TA.AperFunction,Plated,PTH,ComponentDrill
T6C0.0433
; #@! TA.AperFunction,Plated,PTH,ComponentDrill
T7C0.0472
; #@! TA.AperFunction,Plated,PTH,ComponentDrill
T8C0.0787
%
G90
G05
T1
X6.6509Y-4.3221
X6.6509Y-4.4284
X6.7572Y-4.3221
X6.7572Y-4.4284
T2
X4.275Y-3.7
X4.275Y-3.875
X4.275Y-4.025
X4.275Y-4.225
X4.275Y-4.4
X4.275Y-4.55
X4.3Y-3.65
X4.325Y-3.875
X4.325Y-4.025
X4.325Y-4.225
X4.325Y-4.4
X4.325Y-4.55
X4.375Y-3.725
X4.375Y-3.875
X4.375Y-4.025
X4.375Y-4.225
X4.375Y-4.4
X4.375Y-4.55
X4.425Y-3.725
X4.425Y-3.875
X4.425Y-4.55
X4.45Y-4.125
X4.45Y-4.275
X4.45Y-4.425
X4.475Y-3.725
X4.475Y-3.875
X4.475Y-4.55
X4.5Y-4.125
X4.5Y-4.275
X4.5Y-4.425
X4.525Y-3.725
X4.525Y-3.875
X4.55Y-4.125
X4.55Y-4.275
X4.55Y-4.425
X4.575Y-3.725
X4.575Y-3.875
X4.575Y-4.0
X4.575Y-4.05
X4.6Y-4.55
X4.64Y-3.69
X4.64Y-3.72
X4.64Y-3.75
X4.64Y-3.78
X4.64Y-3.81
X4.64Y-3.84
X4.64Y-3.94
X4.64Y-3.97
X4.64Y-4.0
X4.64Y-4.03
X4.64Y-4.06
X4.64Y-4.09
X4.64Y-4.19
X4.64Y-4.22
X4.64Y-4.25
X4.64Y-4.28
X4.64Y-4.31
X4.64Y-4.34
X4.65Y-3.6
X4.65Y-4.4
X4.67Y-3.69
X4.67Y-3.72
X4.67Y-3.75
X4.67Y-3.78
X4.67Y-3.81
X4.67Y-3.84
X4.67Y-3.94
X4.67Y-3.97
X4.67Y-4.0
X4.67Y-4.03
X4.67Y-4.06
X4.67Y-4.09
X4.67Y-4.19
X4.67Y-4.22
X4.67Y-4.25
X4.67Y-4.28
X4.67Y-4.31
X4.67Y-4.34
X4.675Y-4.55
X4.7Y-3.69
X4.7Y-3.72
X4.7Y-3.81
X4.7Y-3.84
X4.7Y-3.94
X4.7Y-3.97
X4.7Y-4.06
X4.7Y-4.09
X4.7Y-4.19
X4.7Y-4.22
X4.7Y-4.31
X4.7Y-4.34
X4.7Y-4.4
X4.725Y-3.525
X4.73Y-3.69
X4.73Y-3.84
X4.73Y-3.94
X4.73Y-4.09
X4.73Y-4.19
X4.73Y-4.34
X4.75Y-4.4
X4.75Y-4.5
X4.76Y-3.69
X4.76Y-3.72
X4.76Y-3.81
X4.76Y-3.84
X4.76Y-3.94
X4.76Y-3.97
X4.76Y-4.06
X4.76Y-4.09
X4.76Y-4.19
X4.76Y-4.22
X4.76Y-4.31
X4.76Y-4.34
X4.8Y-4.5
X4.825Y-3.55
X4.85Y-4.5
X4.85Y-4.55
X4.9Y-3.525
X4.9Y-4.5
X4.9Y-4.55
X4.95Y-4.5
X4.95Y-4.55
X4.975Y-3.55
X5.0Y-3.5
X5.0Y-4.5
X5.0Y-4.55
X5.05Y-4.5
X5.05Y-4.55
X5.1Y-4.5
X5.1Y-4.55
X5.125Y-3.525
X5.15Y-4.5
X5.15Y-4.55
X5.2Y-3.575
X5.225Y-4.525
X5.225Y-4.624
X5.275Y-4.525
X5.275Y-4.624
X5.325Y-3.525
X5.325Y-4.475
X5.325Y-4.624
X5.375Y-4.475
X5.375Y-4.624
X5.425Y-4.525
X5.425Y-4.624
X5.45Y-3.55
X5.475Y-4.525
X5.475Y-4.624
X5.525Y-4.575
X5.525Y-4.624
X5.55Y-3.5
X5.575Y-4.575
X5.575Y-4.624
X5.625Y-3.55
X5.625Y-4.525
X5.625Y-4.624
X5.675Y-4.525
X5.675Y-4.624
X5.725Y-4.475
X5.725Y-4.624
X5.75Y-3.5
X5.775Y-4.475
X5.775Y-4.624
X5.825Y-3.55
X5.825Y-4.525
X5.825Y-4.624
X5.875Y-4.525
X5.875Y-4.624
X5.925Y-4.575
X5.925Y-4.624
X5.975Y-3.5
X5.975Y-4.575
X5.975Y-4.624
X6.025Y-4.525
X6.025Y-4.624
X6.075Y-4.525
X6.075Y-4.624
X6.1Y-3.55
X6.16Y-3.68
X6.16Y-3.71
X6.16Y-3.74
X6.16Y-3.77
X6.16Y-4.27
X6.16Y-4.3
X6.16Y-4.33
X6.16Y-4.36
X6.19Y-3.68
X6.19Y-3.77
X6.19Y-4.27
X6.19Y-4.36
X6.225Y-3.575
X6.26Y-3.68
X6.26Y-3.77
X6.26Y-4.27
X6.26Y-4.36
X6.29Y-3.68
X6.29Y-3.71
X6.29Y-3.74
X6.29Y-3.77
X6.29Y-4.27
X6.29Y-4.3
X6.29Y-4.33
X6.29Y-4.36
X6.32Y-3.68
X6.32Y-3.71
X6.32Y-3.74
X6.32Y-3.77
X6.32Y-4.27
X6.32Y-4.3
X6.32Y-4.33
X6.32Y-4.36
X6.35Y-3.63
X6.37Y-4.46
X6.4104Y-4.3445
X6.43Y-3.81
X6.44Y-4.005
X6.45Y-3.915
X6.45Y-4.55
X6.45Y-4.58
X6.5256Y-4.1526
X6.53Y-3.8
X6.532Y-4.382
X6.56Y-4.18
X6.56Y-4.21
X6.57Y-4.56
X6.6Y-3.91
X6.606Y-4.414
X6.606Y-4.4396
X6.606Y-4.468
X6.61Y-4.12
X6.63Y-3.988
X6.63Y-4.074
X6.65Y-3.81
X6.652Y-4.124
X6.676Y-4.11
X6.688Y-4.19
X6.696Y-4.56
X6.71Y-3.92
X6.71Y-3.99
X6.714Y-4.096
X6.718Y-4.286
X6.728Y-4.158
X6.728Y-4.196
X6.74Y-4.096
X6.748Y-3.864
X6.748Y-4.28
X6.768Y-4.196
X6.774Y-4.558
X6.784Y-4.174
X6.796Y-4.286
X6.806Y-4.394
X6.808Y-3.866
X6.808Y-4.118
X6.808Y-4.352
X6.812Y-4.18
X6.84Y-4.11
X6.8438Y-4.2504
X6.856Y-4.228
X6.858Y-4.496
X6.86Y-3.63
X6.86Y-4.07
X6.87Y-3.904
X6.878Y-4.34
X6.88Y-3.8
X6.886Y-4.272
X6.9113Y-4.2756
X6.9367Y-4.2789
X6.96Y-4.44
X6.964Y-4.28
X7.0Y-4.52
X7.02Y-4.65
X7.02Y-4.68
X7.02Y-4.71
X7.02Y-4.74
X7.02Y-4.77
X7.02Y-4.8
X7.03Y-4.23
X7.05Y-4.59
X7.05Y-4.65
X7.05Y-4.68
X7.05Y-4.71
X7.05Y-4.74
X7.05Y-4.77
X7.05Y-4.8
X7.11Y-3.87
X7.13Y-3.94
X7.13Y-4.3
X7.14Y-4.09
X7.184Y-4.472
X7.2Y-4.29
X7.2Y-4.54
X7.226Y-4.362
X7.27Y-3.84
X7.28Y-3.94
X7.28Y-4.25
X7.28Y-4.308
X7.28Y-4.49
X7.3Y-4.12
T4
X5.1443Y-3.7536
X5.1443Y-4.0134
X5.1443Y-4.2732
X5.8175Y-3.7536
X5.8175Y-4.0134
X5.8175Y-4.2732
T5
X6.9706Y-3.7072
X6.9706Y-3.8072
X6.9706Y-3.9072
X6.9706Y-4.0072
T6
X7.1306Y-3.7617
X7.1306Y-4.0176
X7.2706Y-3.7617
X7.2706Y-4.0176
T7
X6.4273Y-3.69
X6.6065Y-3.69
X6.7856Y-3.69
T8
X4.7289Y-3.7693
X4.7289Y-4.0173
X4.7289Y-4.2693
X6.225Y-3.726
X6.225Y-4.3126
T3
G00X7.0931Y-4.2051
M15
G01X7.1364Y-4.2051
M16
G05
G00X7.0931Y-4.5452
M15
G01X7.1364Y-4.5452
M16
G05
G00X7.2675Y-4.2051
M15
G01X7.2911Y-4.2051
M16
G05
G00X7.2675Y-4.5452
M15
G01X7.2911Y-4.5452
M16
G05
M30
