%TF.GenerationSoftware,KiCad,Pcbnew,7.99.0-3012-g423a5b9961*%
%TF.CreationDate,2023-10-18T16:54:00-04:00*%
%TF.ProjectId,anyesc,616e7965-7363-42e6-9b69-6361645f7063,V1.0*%
%TF.SameCoordinates,Original*%
%TF.FileFunction,Paste,Top*%
%TF.FilePolarity,Positive*%
%FSLAX46Y46*%
G04 Gerber Fmt 4.6, Leading zero omitted, Abs format (unit mm)*
G04 Created by KiCad (PCBNEW 7.99.0-3012-g423a5b9961) date 2023-10-18 16:54:00*
%MOMM*%
%LPD*%
G01*
G04 APERTURE LIST*
G04 Aperture macros list*
%AMRoundRect*
0 Rectangle with rounded corners*
0 $1 Rounding radius*
0 $2 $3 $4 $5 $6 $7 $8 $9 X,Y pos of 4 corners*
0 Add a 4 corners polygon primitive as box body*
4,1,4,$2,$3,$4,$5,$6,$7,$8,$9,$2,$3,0*
0 Add four circle primitives for the rounded corners*
1,1,$1+$1,$2,$3*
1,1,$1+$1,$4,$5*
1,1,$1+$1,$6,$7*
1,1,$1+$1,$8,$9*
0 Add four rect primitives between the rounded corners*
20,1,$1+$1,$2,$3,$4,$5,0*
20,1,$1+$1,$4,$5,$6,$7,0*
20,1,$1+$1,$6,$7,$8,$9,0*
20,1,$1+$1,$8,$9,$2,$3,0*%
%AMFreePoly0*
4,1,19,0.563745,0.600348,0.608674,0.548497,0.619677,0.497915,0.619677,-0.497915,0.600348,-0.563745,0.548497,-0.608674,0.497915,-0.619677,-0.497915,-0.619677,-0.563745,-0.600348,-0.608674,-0.548497,-0.619677,-0.497915,-0.619677,0.397045,-0.600348,0.462875,-0.584014,0.483144,-0.483144,0.584014,-0.422927,0.616894,-0.397045,0.619677,0.497915,0.619677,0.563745,0.600348,0.563745,0.600348,
$1*%
%AMFreePoly1*
4,1,19,0.563745,0.600348,0.608674,0.548497,0.619677,0.497915,0.619677,-0.497915,0.600348,-0.563745,0.548497,-0.608674,0.497915,-0.619677,-0.397045,-0.619677,-0.462875,-0.600348,-0.483144,-0.584014,-0.584014,-0.483144,-0.616894,-0.422927,-0.619677,-0.397045,-0.619677,0.497915,-0.600348,0.563745,-0.548497,0.608674,-0.497915,0.619677,0.497915,0.619677,0.563745,0.600348,0.563745,0.600348,
$1*%
%AMFreePoly2*
4,1,19,0.462875,0.600348,0.483144,0.584014,0.584014,0.483144,0.616894,0.422927,0.619677,0.397045,0.619677,-0.497915,0.600348,-0.563745,0.548497,-0.608674,0.497915,-0.619677,-0.497915,-0.619677,-0.563745,-0.600348,-0.608674,-0.548497,-0.619677,-0.497915,-0.619677,0.497915,-0.600348,0.563745,-0.548497,0.608674,-0.497915,0.619677,0.397045,0.619677,0.462875,0.600348,0.462875,0.600348,
$1*%
%AMFreePoly3*
4,1,19,0.563745,0.600348,0.608674,0.548497,0.619677,0.497915,0.619677,-0.397045,0.600348,-0.462875,0.584014,-0.483144,0.483144,-0.584014,0.422927,-0.616894,0.397045,-0.619677,-0.497915,-0.619677,-0.563745,-0.600348,-0.608674,-0.548497,-0.619677,-0.497915,-0.619677,0.497915,-0.600348,0.563745,-0.548497,0.608674,-0.497915,0.619677,0.497915,0.619677,0.563745,0.600348,0.563745,0.600348,
$1*%
G04 Aperture macros list end*
%ADD10C,0.000000*%
%ADD11RoundRect,0.225000X0.225000X0.250000X-0.225000X0.250000X-0.225000X-0.250000X0.225000X-0.250000X0*%
%ADD12RoundRect,0.225000X-0.225000X-0.250000X0.225000X-0.250000X0.225000X0.250000X-0.225000X0.250000X0*%
%ADD13RoundRect,0.140000X0.170000X-0.140000X0.170000X0.140000X-0.170000X0.140000X-0.170000X-0.140000X0*%
%ADD14FreePoly0,270.000000*%
%ADD15FreePoly1,270.000000*%
%ADD16FreePoly2,270.000000*%
%ADD17FreePoly3,270.000000*%
%ADD18RoundRect,0.050000X-0.050000X0.387500X-0.050000X-0.387500X0.050000X-0.387500X0.050000X0.387500X0*%
%ADD19RoundRect,0.050000X-0.387500X0.050000X-0.387500X-0.050000X0.387500X-0.050000X0.387500X0.050000X0*%
%ADD20RoundRect,0.135000X0.185000X-0.135000X0.185000X0.135000X-0.185000X0.135000X-0.185000X-0.135000X0*%
%ADD21RoundRect,0.218750X0.218750X0.256250X-0.218750X0.256250X-0.218750X-0.256250X0.218750X-0.256250X0*%
%ADD22RoundRect,0.140000X-0.140000X-0.170000X0.140000X-0.170000X0.140000X0.170000X-0.140000X0.170000X0*%
%ADD23RoundRect,0.140000X0.140000X0.170000X-0.140000X0.170000X-0.140000X-0.170000X0.140000X-0.170000X0*%
%ADD24RoundRect,0.218750X-0.218750X-0.256250X0.218750X-0.256250X0.218750X0.256250X-0.218750X0.256250X0*%
%ADD25RoundRect,0.135000X0.135000X0.185000X-0.135000X0.185000X-0.135000X-0.185000X0.135000X-0.185000X0*%
%ADD26RoundRect,0.135000X-0.135000X-0.185000X0.135000X-0.185000X0.135000X0.185000X-0.135000X0.185000X0*%
%ADD27R,0.304800X0.863600*%
%ADD28R,3.098800X2.387600*%
%ADD29RoundRect,0.135000X-0.185000X0.135000X-0.185000X-0.135000X0.185000X-0.135000X0.185000X0.135000X0*%
%ADD30RoundRect,0.200000X-0.200000X-0.275000X0.200000X-0.275000X0.200000X0.275000X-0.200000X0.275000X0*%
%ADD31RoundRect,0.200000X0.200000X0.275000X-0.200000X0.275000X-0.200000X-0.275000X0.200000X-0.275000X0*%
%ADD32R,1.200000X1.400000*%
%ADD33R,1.651000X4.572000*%
%ADD34R,1.450000X0.600000*%
%ADD35R,1.450000X0.300000*%
G04 APERTURE END LIST*
D10*
%TO.C,U2*%
G36*
X172381000Y-102124800D02*
G01*
X171031600Y-102124800D01*
X171031600Y-99937200D01*
X172381000Y-99937200D01*
X172381000Y-102124800D01*
G37*
G36*
X173930400Y-102124800D02*
G01*
X172581000Y-102124800D01*
X172581000Y-99937200D01*
X173930400Y-99937200D01*
X173930400Y-102124800D01*
G37*
%TD*%
D11*
%TO.C,C13*%
X162975000Y-105175000D03*
X164525000Y-105175000D03*
%TD*%
D12*
%TO.C,C12*%
X163050000Y-112250000D03*
X164600000Y-112250000D03*
%TD*%
D13*
%TO.C,C14*%
X169178999Y-99479000D03*
X169178999Y-98519000D03*
%TD*%
D14*
%TO.C,U1*%
X170957000Y-110456000D03*
D15*
X169607000Y-110456000D03*
D16*
X170957000Y-111806000D03*
D17*
X169607000Y-111806000D03*
D18*
X172882000Y-107693500D03*
X172482000Y-107693500D03*
X172082000Y-107693500D03*
X171682000Y-107693500D03*
X171282000Y-107693500D03*
X170882000Y-107693500D03*
X170482000Y-107693500D03*
X170082000Y-107693500D03*
X169682000Y-107693500D03*
X169282000Y-107693500D03*
X168882000Y-107693500D03*
X168482000Y-107693500D03*
X168082000Y-107693500D03*
X167682000Y-107693500D03*
D19*
X166844500Y-108531000D03*
X166844500Y-108931000D03*
X166844500Y-109331000D03*
X166844500Y-109731000D03*
X166844500Y-110131000D03*
X166844500Y-110531000D03*
X166844500Y-110931000D03*
X166844500Y-111331000D03*
X166844500Y-111731000D03*
X166844500Y-112131000D03*
X166844500Y-112531000D03*
X166844500Y-112931000D03*
X166844500Y-113331000D03*
X166844500Y-113731000D03*
D18*
X167682000Y-114568500D03*
X168082000Y-114568500D03*
X168482000Y-114568500D03*
X168882000Y-114568500D03*
X169282000Y-114568500D03*
X169682000Y-114568500D03*
X170082000Y-114568500D03*
X170482000Y-114568500D03*
X170882000Y-114568500D03*
X171282000Y-114568500D03*
X171682000Y-114568500D03*
X172082000Y-114568500D03*
X172482000Y-114568500D03*
X172882000Y-114568500D03*
D19*
X173719500Y-113731000D03*
X173719500Y-113331000D03*
X173719500Y-112931000D03*
X173719500Y-112531000D03*
X173719500Y-112131000D03*
X173719500Y-111731000D03*
X173719500Y-111331000D03*
X173719500Y-110931000D03*
X173719500Y-110531000D03*
X173719500Y-110131000D03*
X173719500Y-109731000D03*
X173719500Y-109331000D03*
X173719500Y-108931000D03*
X173719500Y-108531000D03*
%TD*%
D20*
%TO.C,R8*%
X169164000Y-101602000D03*
X169164000Y-100582000D03*
%TD*%
D21*
%TO.C,D4*%
X167299500Y-100650000D03*
X165724500Y-100650000D03*
%TD*%
D22*
%TO.C,C5*%
X172890000Y-115790000D03*
X173850000Y-115790000D03*
%TD*%
D23*
%TO.C,C8*%
X164716400Y-114681000D03*
X163756400Y-114681000D03*
%TD*%
D24*
%TO.C,D1*%
X179795999Y-93218000D03*
X181370999Y-93218000D03*
%TD*%
D21*
%TO.C,D3*%
X167299500Y-103240001D03*
X165724500Y-103240001D03*
%TD*%
D22*
%TO.C,C2*%
X175796000Y-111123216D03*
X176756000Y-111123216D03*
%TD*%
D25*
%TO.C,R9*%
X183644000Y-93472000D03*
X182624000Y-93472000D03*
%TD*%
D26*
%TO.C,R3*%
X183528000Y-104206000D03*
X184548000Y-104206000D03*
%TD*%
D27*
%TO.C,U2*%
X171280850Y-103050300D03*
X172080950Y-103050300D03*
X172881050Y-103050300D03*
X173681150Y-103050300D03*
D28*
X172481000Y-101031000D03*
D27*
X173681150Y-99011700D03*
X172881050Y-99011700D03*
X172080950Y-99011700D03*
X171280850Y-99011700D03*
%TD*%
D13*
%TO.C,C7*%
X173990000Y-106222800D03*
X173990000Y-105262800D03*
%TD*%
D25*
%TO.C,R2*%
X184548000Y-105222000D03*
X183528000Y-105222000D03*
%TD*%
D26*
%TO.C,R1*%
X182624000Y-92456000D03*
X183644000Y-92456000D03*
%TD*%
D25*
%TO.C,R12*%
X166693188Y-101861312D03*
X165673188Y-101861312D03*
%TD*%
D29*
%TO.C,R7*%
X169164000Y-102612001D03*
X169164000Y-103632001D03*
%TD*%
D30*
%TO.C,R4*%
X177498000Y-104968000D03*
X179148000Y-104968000D03*
%TD*%
D31*
%TO.C,R5*%
X182323000Y-104968000D03*
X180673000Y-104968000D03*
%TD*%
D23*
%TO.C,C6*%
X169278000Y-115790000D03*
X168318000Y-115790000D03*
%TD*%
D26*
%TO.C,R10*%
X157478000Y-114808000D03*
X158498000Y-114808000D03*
%TD*%
D22*
%TO.C,C11*%
X175643600Y-114554000D03*
X176603600Y-114554000D03*
%TD*%
D32*
%TO.C,Y1*%
X165040000Y-109230000D03*
X165040000Y-107030000D03*
X163340000Y-107030000D03*
X163340000Y-109230000D03*
%TD*%
D25*
%TO.C,R11*%
X166693188Y-104528312D03*
X165673188Y-104528312D03*
%TD*%
%TO.C,R13*%
X166820188Y-99321312D03*
X165800188Y-99321312D03*
%TD*%
D21*
%TO.C,D2*%
X162051999Y-114808000D03*
X160476999Y-114808000D03*
%TD*%
%TO.C,D5*%
X167299500Y-98059999D03*
X165724500Y-98059999D03*
%TD*%
D33*
%TO.C,J3*%
X110124000Y-119954000D03*
X112664000Y-119954000D03*
X115204000Y-119954000D03*
X117744000Y-119954000D03*
X120284000Y-119954000D03*
X122824000Y-119954000D03*
X125364000Y-119954000D03*
X127904000Y-119954000D03*
X130444000Y-119954000D03*
X132984000Y-119954000D03*
X135524000Y-119954000D03*
X138064000Y-119954000D03*
X140604000Y-119954000D03*
X143144000Y-119954000D03*
X145684000Y-119954000D03*
X148224000Y-119954000D03*
X150764000Y-119954000D03*
X153304000Y-119954000D03*
X155844000Y-119954000D03*
X158384000Y-119954000D03*
X160924000Y-119954000D03*
X163464000Y-119954000D03*
X166004000Y-119954000D03*
X168544000Y-119954000D03*
X171084000Y-119954000D03*
X173624000Y-119954000D03*
X176164000Y-119954000D03*
X178704000Y-119954000D03*
X181244000Y-119954000D03*
X183784000Y-119954000D03*
%TD*%
D23*
%TO.C,C3*%
X164716400Y-113538000D03*
X163756400Y-113538000D03*
%TD*%
D22*
%TO.C,C10*%
X175796000Y-110107216D03*
X176756000Y-110107216D03*
%TD*%
D23*
%TO.C,C1*%
X169136000Y-106426000D03*
X168176000Y-106426000D03*
%TD*%
D22*
%TO.C,C9*%
X175592800Y-115620800D03*
X176552800Y-115620800D03*
%TD*%
D25*
%TO.C,R6*%
X165000400Y-110998000D03*
X163980400Y-110998000D03*
%TD*%
D34*
%TO.C,J1*%
X179799000Y-114379210D03*
X179799000Y-113579210D03*
D35*
X179799000Y-112379210D03*
X179799000Y-111379210D03*
X179799000Y-110879210D03*
X179799000Y-109879210D03*
D34*
X179799000Y-108679210D03*
X179799000Y-107879210D03*
X179799000Y-107879210D03*
X179799000Y-108679210D03*
D35*
X179799000Y-109379210D03*
X179799000Y-110379210D03*
X179799000Y-111879210D03*
X179799000Y-112879210D03*
D34*
X179799000Y-113579210D03*
X179799000Y-114379210D03*
%TD*%
D22*
%TO.C,C4*%
X175796000Y-112139216D03*
X176756000Y-112139216D03*
%TD*%
M02*
