%TF.GenerationSoftware,KiCad,Pcbnew,7.99.0-3012-g423a5b9961*%
%TF.CreationDate,2023-10-30T13:08:26-04:00*%
%TF.ProjectId,anyesc,616e7965-7363-42e6-9b69-6361645f7063,V1.0*%
%TF.SameCoordinates,Original*%
%TF.FileFunction,Other,Comment*%
%FSLAX46Y46*%
G04 Gerber Fmt 4.6, Leading zero omitted, Abs format (unit mm)*
G04 Created by KiCad (PCBNEW 7.99.0-3012-g423a5b9961) date 2023-10-30 13:08:26*
%MOMM*%
%LPD*%
G01*
G04 APERTURE LIST*
%ADD10C,0.150000*%
G04 APERTURE END LIST*
D10*
G36*
X125545402Y-92627793D02*
G01*
X125545880Y-92615038D01*
X125546767Y-92602511D01*
X125548061Y-92590211D01*
X125549764Y-92578139D01*
X125551874Y-92566294D01*
X125554392Y-92554677D01*
X125557318Y-92543288D01*
X125560651Y-92532126D01*
X125564393Y-92521191D01*
X125568543Y-92510484D01*
X125571536Y-92503473D01*
X125576346Y-92493132D01*
X125581525Y-92483082D01*
X125587073Y-92473325D01*
X125592991Y-92463860D01*
X125599278Y-92454686D01*
X125605934Y-92445805D01*
X125612959Y-92437215D01*
X125620354Y-92428918D01*
X125628117Y-92420912D01*
X125636250Y-92413198D01*
X125641877Y-92408218D01*
X125650596Y-92400998D01*
X125659623Y-92394082D01*
X125668960Y-92387471D01*
X125678606Y-92381165D01*
X125688560Y-92375163D01*
X125698824Y-92369467D01*
X125709397Y-92364075D01*
X125720279Y-92358988D01*
X125731471Y-92354206D01*
X125742971Y-92349729D01*
X125750810Y-92346913D01*
X125762795Y-92342941D01*
X125775030Y-92339360D01*
X125787513Y-92336169D01*
X125800246Y-92333369D01*
X125813228Y-92330960D01*
X125826458Y-92328941D01*
X125839938Y-92327313D01*
X125853667Y-92326076D01*
X125867644Y-92325230D01*
X125881871Y-92324774D01*
X125891494Y-92324687D01*
X125905374Y-92324878D01*
X125918988Y-92325451D01*
X125932336Y-92326407D01*
X125945418Y-92327744D01*
X125958234Y-92329464D01*
X125970783Y-92331565D01*
X125983066Y-92334049D01*
X125995083Y-92336915D01*
X126006834Y-92340162D01*
X126018319Y-92343792D01*
X126025827Y-92346425D01*
X126036903Y-92350622D01*
X126047692Y-92355155D01*
X126058193Y-92360022D01*
X126068406Y-92365224D01*
X126078331Y-92370761D01*
X126087969Y-92376633D01*
X126097319Y-92382839D01*
X126106382Y-92389381D01*
X126115156Y-92396257D01*
X126123644Y-92403469D01*
X126129142Y-92408462D01*
X126137159Y-92416152D01*
X126144815Y-92424107D01*
X126152111Y-92432329D01*
X126159046Y-92440817D01*
X126165621Y-92449571D01*
X126171835Y-92458591D01*
X126177688Y-92467878D01*
X126183181Y-92477431D01*
X126188313Y-92487249D01*
X126193084Y-92497334D01*
X126196065Y-92504206D01*
X126200211Y-92514721D01*
X126203950Y-92525478D01*
X126207281Y-92536474D01*
X126210204Y-92547711D01*
X126212719Y-92559189D01*
X126214826Y-92570907D01*
X126216526Y-92582865D01*
X126217817Y-92595064D01*
X126218701Y-92607503D01*
X126219177Y-92620183D01*
X126219268Y-92628770D01*
X126219150Y-92638991D01*
X126218795Y-92649140D01*
X126218205Y-92659216D01*
X126217379Y-92669218D01*
X126216316Y-92679148D01*
X126215017Y-92689005D01*
X126213482Y-92698789D01*
X126211711Y-92708500D01*
X126209704Y-92718137D01*
X126207461Y-92727702D01*
X126205834Y-92734038D01*
X126203224Y-92743505D01*
X126200339Y-92752946D01*
X126197179Y-92762361D01*
X126193744Y-92771751D01*
X126190035Y-92781115D01*
X126186051Y-92790453D01*
X126181792Y-92799765D01*
X126177258Y-92809051D01*
X126172449Y-92818312D01*
X126167366Y-92827547D01*
X126163824Y-92833689D01*
X126158277Y-92842857D01*
X126152441Y-92852042D01*
X126146318Y-92861244D01*
X126139908Y-92870463D01*
X126133209Y-92879699D01*
X126126223Y-92888953D01*
X126118950Y-92898224D01*
X126111389Y-92907512D01*
X126103540Y-92916817D01*
X126095403Y-92926139D01*
X126089819Y-92932363D01*
X126081244Y-92941692D01*
X126072374Y-92951085D01*
X126063207Y-92960543D01*
X126053743Y-92970065D01*
X126043984Y-92979651D01*
X126033928Y-92989302D01*
X126023576Y-92999017D01*
X126012928Y-93008796D01*
X126005665Y-93015352D01*
X125998270Y-93021936D01*
X125990743Y-93028548D01*
X125983085Y-93035190D01*
X125835318Y-93159265D01*
X125826544Y-93165626D01*
X125817810Y-93171793D01*
X125809113Y-93177767D01*
X125804299Y-93181003D01*
X125795856Y-93186404D01*
X125786974Y-93191861D01*
X125777809Y-93197203D01*
X125776211Y-93198100D01*
X125766713Y-93203285D01*
X125757454Y-93207850D01*
X125748433Y-93211795D01*
X125746658Y-93212510D01*
X125746658Y-93218128D01*
X125756717Y-93217593D01*
X125767113Y-93217212D01*
X125777844Y-93216983D01*
X125788912Y-93216906D01*
X125799602Y-93216906D01*
X125809753Y-93216906D01*
X125820515Y-93216906D01*
X125830433Y-93216906D01*
X125840619Y-93216906D01*
X125850876Y-93216906D01*
X125861203Y-93216906D01*
X125871599Y-93216906D01*
X125877572Y-93216906D01*
X126231968Y-93216906D01*
X126231968Y-93372001D01*
X125552485Y-93372001D01*
X125552485Y-93187841D01*
X125874641Y-92916488D01*
X125885531Y-92907091D01*
X125896035Y-92897769D01*
X125906154Y-92888521D01*
X125915887Y-92879347D01*
X125925235Y-92870248D01*
X125934198Y-92861224D01*
X125942775Y-92852274D01*
X125950967Y-92843398D01*
X125958773Y-92834597D01*
X125966194Y-92825870D01*
X125973229Y-92817217D01*
X125979879Y-92808639D01*
X125986144Y-92800135D01*
X125992023Y-92791706D01*
X125997516Y-92783351D01*
X126002624Y-92775071D01*
X126009695Y-92762635D01*
X126016071Y-92750058D01*
X126021751Y-92737339D01*
X126026736Y-92724478D01*
X126031025Y-92711476D01*
X126034618Y-92698332D01*
X126037516Y-92685046D01*
X126039719Y-92671619D01*
X126041226Y-92658050D01*
X126042037Y-92644339D01*
X126042192Y-92635120D01*
X126041831Y-92622049D01*
X126040749Y-92609489D01*
X126038946Y-92597439D01*
X126036421Y-92585901D01*
X126033176Y-92574874D01*
X126029208Y-92564357D01*
X126024520Y-92554352D01*
X126019111Y-92544857D01*
X126012980Y-92535873D01*
X126006128Y-92527400D01*
X126001159Y-92522035D01*
X125993251Y-92514484D01*
X125984824Y-92507676D01*
X125975877Y-92501610D01*
X125966411Y-92496287D01*
X125956426Y-92491707D01*
X125945921Y-92487869D01*
X125934896Y-92484774D01*
X125923352Y-92482422D01*
X125911289Y-92480813D01*
X125898706Y-92479946D01*
X125890028Y-92479781D01*
X125876052Y-92480140D01*
X125862608Y-92481215D01*
X125849697Y-92483008D01*
X125837318Y-92485517D01*
X125825471Y-92488744D01*
X125814156Y-92492687D01*
X125803374Y-92497348D01*
X125793125Y-92502725D01*
X125783408Y-92508819D01*
X125774223Y-92515631D01*
X125768395Y-92520570D01*
X125760233Y-92528402D01*
X125752873Y-92536693D01*
X125746317Y-92545443D01*
X125740563Y-92554653D01*
X125735612Y-92564323D01*
X125731464Y-92574451D01*
X125728119Y-92585039D01*
X125725576Y-92596087D01*
X125723837Y-92607594D01*
X125722900Y-92619560D01*
X125722722Y-92627793D01*
X125545402Y-92627793D01*
G37*
G36*
X126729247Y-93387632D02*
G01*
X126715925Y-93387462D01*
X126702797Y-93386954D01*
X126689862Y-93386106D01*
X126677120Y-93384919D01*
X126664571Y-93383392D01*
X126652216Y-93381527D01*
X126640053Y-93379322D01*
X126628084Y-93376779D01*
X126616308Y-93373896D01*
X126604726Y-93370673D01*
X126597111Y-93368337D01*
X126585891Y-93364569D01*
X126574946Y-93360500D01*
X126564276Y-93356131D01*
X126553880Y-93351461D01*
X126543759Y-93346491D01*
X126533913Y-93341220D01*
X126524342Y-93335649D01*
X126515046Y-93329777D01*
X126506024Y-93323605D01*
X126497277Y-93317132D01*
X126491598Y-93312649D01*
X126483331Y-93305695D01*
X126475381Y-93298479D01*
X126467749Y-93291000D01*
X126460434Y-93283260D01*
X126453438Y-93275258D01*
X126446759Y-93266994D01*
X126440398Y-93258468D01*
X126434354Y-93249681D01*
X126428628Y-93240631D01*
X126423220Y-93231319D01*
X126419791Y-93224966D01*
X126414984Y-93215192D01*
X126410546Y-93205194D01*
X126406477Y-93194973D01*
X126402778Y-93184529D01*
X126399448Y-93173861D01*
X126396487Y-93162971D01*
X126393895Y-93151857D01*
X126391673Y-93140519D01*
X126389819Y-93128959D01*
X126388335Y-93117175D01*
X126387551Y-93109195D01*
X126563406Y-93109195D01*
X126565291Y-93119402D01*
X126567834Y-93129231D01*
X126571033Y-93138682D01*
X126574889Y-93147755D01*
X126579402Y-93156450D01*
X126584572Y-93164768D01*
X126590399Y-93172708D01*
X126596882Y-93180270D01*
X126604023Y-93187454D01*
X126611820Y-93194260D01*
X126617383Y-93198588D01*
X126626169Y-93204655D01*
X126635307Y-93210126D01*
X126644796Y-93214999D01*
X126654638Y-93219276D01*
X126664832Y-93222956D01*
X126675378Y-93226040D01*
X126686276Y-93228526D01*
X126697526Y-93230416D01*
X126709128Y-93231709D01*
X126721082Y-93232405D01*
X126729247Y-93232538D01*
X126743267Y-93232136D01*
X126756750Y-93230932D01*
X126769696Y-93228925D01*
X126782106Y-93226115D01*
X126793979Y-93222502D01*
X126805316Y-93218086D01*
X126816116Y-93212868D01*
X126826379Y-93206847D01*
X126836106Y-93200022D01*
X126845295Y-93192395D01*
X126851124Y-93186864D01*
X126859286Y-93178045D01*
X126866646Y-93168715D01*
X126873202Y-93158874D01*
X126878956Y-93148522D01*
X126883907Y-93137659D01*
X126888055Y-93126286D01*
X126891400Y-93114401D01*
X126893943Y-93102005D01*
X126895682Y-93089099D01*
X126896619Y-93075681D01*
X126896797Y-93066453D01*
X126896383Y-93052701D01*
X126895140Y-93039473D01*
X126893068Y-93026769D01*
X126890168Y-93014589D01*
X126886440Y-93002933D01*
X126881882Y-92991800D01*
X126876496Y-92981191D01*
X126870282Y-92971106D01*
X126863238Y-92961545D01*
X126855367Y-92952508D01*
X126849658Y-92946774D01*
X126840530Y-92938742D01*
X126830822Y-92931501D01*
X126820535Y-92925049D01*
X126809667Y-92919388D01*
X126798221Y-92914516D01*
X126786194Y-92910435D01*
X126773588Y-92907143D01*
X126760403Y-92904642D01*
X126746638Y-92902930D01*
X126732293Y-92902009D01*
X126722408Y-92901833D01*
X126600042Y-92901833D01*
X126600042Y-92724024D01*
X126761731Y-92568442D01*
X126770821Y-92560702D01*
X126779774Y-92553237D01*
X126788590Y-92546048D01*
X126797268Y-92539132D01*
X126805809Y-92532492D01*
X126814213Y-92526126D01*
X126822479Y-92520036D01*
X126830607Y-92514220D01*
X126839125Y-92508480D01*
X126847827Y-92502740D01*
X126856711Y-92497001D01*
X126865778Y-92491261D01*
X126865778Y-92483445D01*
X126855146Y-92485452D01*
X126845143Y-92486685D01*
X126834622Y-92487398D01*
X126824990Y-92487597D01*
X126814915Y-92489429D01*
X126804351Y-92491017D01*
X126793299Y-92492360D01*
X126781759Y-92493459D01*
X126769730Y-92494314D01*
X126757212Y-92494924D01*
X126744207Y-92495291D01*
X126734132Y-92495405D01*
X126730712Y-92495413D01*
X126429805Y-92495413D01*
X126429805Y-92340319D01*
X127028933Y-92340319D01*
X127028933Y-92516174D01*
X126823524Y-92699600D01*
X126815800Y-92706311D01*
X126808076Y-92712676D01*
X126801054Y-92718162D01*
X126792834Y-92724368D01*
X126784394Y-92730625D01*
X126780049Y-92733794D01*
X126771795Y-92739049D01*
X126763240Y-92744199D01*
X126758800Y-92746739D01*
X126772146Y-92746953D01*
X126785256Y-92747597D01*
X126798129Y-92748671D01*
X126810767Y-92750173D01*
X126823168Y-92752105D01*
X126835333Y-92754467D01*
X126847262Y-92757257D01*
X126858955Y-92760477D01*
X126870412Y-92764127D01*
X126881632Y-92768205D01*
X126888981Y-92771163D01*
X126899778Y-92775893D01*
X126910279Y-92780923D01*
X126920484Y-92786254D01*
X126930392Y-92791886D01*
X126940004Y-92797818D01*
X126949320Y-92804050D01*
X126958340Y-92810583D01*
X126967063Y-92817417D01*
X126975490Y-92824551D01*
X126983621Y-92831985D01*
X126988877Y-92837109D01*
X126996488Y-92845033D01*
X127003752Y-92853237D01*
X127010668Y-92861720D01*
X127017236Y-92870482D01*
X127023456Y-92879523D01*
X127029329Y-92888843D01*
X127034853Y-92898442D01*
X127040030Y-92908321D01*
X127044860Y-92918478D01*
X127049341Y-92928914D01*
X127052136Y-92936027D01*
X127056064Y-92946901D01*
X127059606Y-92957997D01*
X127062762Y-92969318D01*
X127065531Y-92980861D01*
X127067914Y-92992627D01*
X127069910Y-93004617D01*
X127071520Y-93016830D01*
X127072744Y-93029267D01*
X127073581Y-93041926D01*
X127074032Y-93054809D01*
X127074118Y-93063522D01*
X127073901Y-93077147D01*
X127073250Y-93090544D01*
X127072166Y-93103714D01*
X127070649Y-93116656D01*
X127068697Y-93129371D01*
X127066312Y-93141858D01*
X127063494Y-93154118D01*
X127060242Y-93166150D01*
X127056556Y-93177954D01*
X127052436Y-93189531D01*
X127049449Y-93197123D01*
X127044643Y-93208232D01*
X127039477Y-93219027D01*
X127033950Y-93229509D01*
X127028063Y-93239678D01*
X127021814Y-93249533D01*
X127015205Y-93259075D01*
X127008236Y-93268304D01*
X127000906Y-93277219D01*
X126993215Y-93285821D01*
X126985164Y-93294109D01*
X126979596Y-93299460D01*
X126971008Y-93307213D01*
X126962099Y-93314627D01*
X126952867Y-93321702D01*
X126943314Y-93328437D01*
X126933439Y-93334834D01*
X126923241Y-93340891D01*
X126912722Y-93346609D01*
X126901881Y-93351988D01*
X126890717Y-93357028D01*
X126879232Y-93361728D01*
X126871396Y-93364673D01*
X126859398Y-93368776D01*
X126847124Y-93372476D01*
X126834576Y-93375771D01*
X126821754Y-93378664D01*
X126808656Y-93381152D01*
X126795284Y-93383238D01*
X126781637Y-93384919D01*
X126767715Y-93386197D01*
X126753518Y-93387072D01*
X126739047Y-93387542D01*
X126729247Y-93387632D01*
G37*
G36*
X127434864Y-93246948D02*
G01*
X127435193Y-93235090D01*
X127436178Y-93223695D01*
X127437820Y-93212765D01*
X127440119Y-93202298D01*
X127443075Y-93192294D01*
X127446688Y-93182754D01*
X127450958Y-93173678D01*
X127455884Y-93165066D01*
X127461468Y-93156917D01*
X127467708Y-93149232D01*
X127472233Y-93144366D01*
X127479455Y-93137557D01*
X127487105Y-93131417D01*
X127497974Y-93124273D01*
X127506627Y-93119697D01*
X127515709Y-93115790D01*
X127525220Y-93112553D01*
X127535160Y-93109985D01*
X127545530Y-93108088D01*
X127556329Y-93106860D01*
X127567558Y-93106301D01*
X127571396Y-93106264D01*
X127583023Y-93106599D01*
X127594182Y-93107604D01*
X127604873Y-93109278D01*
X127615096Y-93111622D01*
X127624852Y-93114636D01*
X127634139Y-93118320D01*
X127642958Y-93122673D01*
X127653989Y-93129520D01*
X127664188Y-93137557D01*
X127671291Y-93144366D01*
X127677839Y-93151742D01*
X127683742Y-93159582D01*
X127689001Y-93167885D01*
X127693617Y-93176652D01*
X127697588Y-93185883D01*
X127700915Y-93195577D01*
X127703599Y-93205735D01*
X127705638Y-93216357D01*
X127707033Y-93227442D01*
X127707785Y-93238991D01*
X127707928Y-93246948D01*
X127707606Y-93258595D01*
X127706640Y-93269812D01*
X127705030Y-93280599D01*
X127702776Y-93290958D01*
X127699878Y-93300887D01*
X127696336Y-93310386D01*
X127692150Y-93319457D01*
X127687320Y-93328098D01*
X127681846Y-93336310D01*
X127675728Y-93344092D01*
X127671291Y-93349042D01*
X127664188Y-93355938D01*
X127656617Y-93362156D01*
X127645794Y-93369392D01*
X127637130Y-93374027D01*
X127627999Y-93377984D01*
X127618400Y-93381263D01*
X127608333Y-93383863D01*
X127597798Y-93385785D01*
X127586795Y-93387029D01*
X127575324Y-93387594D01*
X127571396Y-93387632D01*
X127560024Y-93387293D01*
X127549082Y-93386275D01*
X127538569Y-93384579D01*
X127528486Y-93382205D01*
X127518831Y-93379153D01*
X127509606Y-93375422D01*
X127500811Y-93371013D01*
X127492444Y-93365925D01*
X127484508Y-93360159D01*
X127477000Y-93353715D01*
X127472233Y-93349042D01*
X127465555Y-93341546D01*
X127459534Y-93333620D01*
X127454169Y-93325265D01*
X127449462Y-93316481D01*
X127445411Y-93307268D01*
X127442017Y-93297625D01*
X127439280Y-93287553D01*
X127437200Y-93277051D01*
X127435777Y-93266120D01*
X127435010Y-93254760D01*
X127434864Y-93246948D01*
G37*
G36*
X128407683Y-93387632D02*
G01*
X128394362Y-93387462D01*
X128381234Y-93386954D01*
X128368299Y-93386106D01*
X128355557Y-93384919D01*
X128343008Y-93383392D01*
X128330653Y-93381527D01*
X128318490Y-93379322D01*
X128306521Y-93376779D01*
X128294745Y-93373896D01*
X128283163Y-93370673D01*
X128275548Y-93368337D01*
X128264328Y-93364569D01*
X128253383Y-93360500D01*
X128242713Y-93356131D01*
X128232317Y-93351461D01*
X128222196Y-93346491D01*
X128212350Y-93341220D01*
X128202779Y-93335649D01*
X128193483Y-93329777D01*
X128184461Y-93323605D01*
X128175714Y-93317132D01*
X128170035Y-93312649D01*
X128161768Y-93305695D01*
X128153818Y-93298479D01*
X128146186Y-93291000D01*
X128138871Y-93283260D01*
X128131875Y-93275258D01*
X128125196Y-93266994D01*
X128118834Y-93258468D01*
X128112791Y-93249681D01*
X128107065Y-93240631D01*
X128101657Y-93231319D01*
X128098228Y-93224966D01*
X128093421Y-93215192D01*
X128088983Y-93205194D01*
X128084914Y-93194973D01*
X128081215Y-93184529D01*
X128077885Y-93173861D01*
X128074924Y-93162971D01*
X128072332Y-93151857D01*
X128070109Y-93140519D01*
X128068256Y-93128959D01*
X128066772Y-93117175D01*
X128065988Y-93109195D01*
X128241843Y-93109195D01*
X128243728Y-93119402D01*
X128246270Y-93129231D01*
X128249470Y-93138682D01*
X128253326Y-93147755D01*
X128257839Y-93156450D01*
X128263009Y-93164768D01*
X128268835Y-93172708D01*
X128275319Y-93180270D01*
X128282460Y-93187454D01*
X128290257Y-93194260D01*
X128295820Y-93198588D01*
X128304606Y-93204655D01*
X128313743Y-93210126D01*
X128323233Y-93214999D01*
X128333075Y-93219276D01*
X128343269Y-93222956D01*
X128353815Y-93226040D01*
X128364712Y-93228526D01*
X128375962Y-93230416D01*
X128387564Y-93231709D01*
X128399519Y-93232405D01*
X128407683Y-93232538D01*
X128421703Y-93232136D01*
X128435187Y-93230932D01*
X128448133Y-93228925D01*
X128460543Y-93226115D01*
X128472416Y-93222502D01*
X128483753Y-93218086D01*
X128494553Y-93212868D01*
X128504816Y-93206847D01*
X128514542Y-93200022D01*
X128523732Y-93192395D01*
X128529561Y-93186864D01*
X128537723Y-93178045D01*
X128545082Y-93168715D01*
X128551639Y-93158874D01*
X128557393Y-93148522D01*
X128562344Y-93137659D01*
X128566492Y-93126286D01*
X128569837Y-93114401D01*
X128572379Y-93102005D01*
X128574119Y-93089099D01*
X128575056Y-93075681D01*
X128575234Y-93066453D01*
X128574820Y-93052701D01*
X128573577Y-93039473D01*
X128571505Y-93026769D01*
X128568605Y-93014589D01*
X128564876Y-93002933D01*
X128560319Y-92991800D01*
X128554933Y-92981191D01*
X128548718Y-92971106D01*
X128541675Y-92961545D01*
X128533803Y-92952508D01*
X128528095Y-92946774D01*
X128518967Y-92938742D01*
X128509259Y-92931501D01*
X128498971Y-92925049D01*
X128488104Y-92919388D01*
X128476658Y-92914516D01*
X128464631Y-92910435D01*
X128452025Y-92907143D01*
X128438840Y-92904642D01*
X128425075Y-92902930D01*
X128410730Y-92902009D01*
X128400845Y-92901833D01*
X128278479Y-92901833D01*
X128278479Y-92724024D01*
X128440168Y-92568442D01*
X128449258Y-92560702D01*
X128458211Y-92553237D01*
X128467027Y-92546048D01*
X128475705Y-92539132D01*
X128484246Y-92532492D01*
X128492649Y-92526126D01*
X128500916Y-92520036D01*
X128509044Y-92514220D01*
X128517562Y-92508480D01*
X128526263Y-92502740D01*
X128535148Y-92497001D01*
X128544215Y-92491261D01*
X128544215Y-92483445D01*
X128533583Y-92485452D01*
X128523580Y-92486685D01*
X128513059Y-92487398D01*
X128503427Y-92487597D01*
X128493352Y-92489429D01*
X128482788Y-92491017D01*
X128471736Y-92492360D01*
X128460196Y-92493459D01*
X128448167Y-92494314D01*
X128435649Y-92494924D01*
X128422643Y-92495291D01*
X128412568Y-92495405D01*
X128409149Y-92495413D01*
X128108242Y-92495413D01*
X128108242Y-92340319D01*
X128707369Y-92340319D01*
X128707369Y-92516174D01*
X128501961Y-92699600D01*
X128494237Y-92706311D01*
X128486513Y-92712676D01*
X128479491Y-92718162D01*
X128471271Y-92724368D01*
X128462830Y-92730625D01*
X128458486Y-92733794D01*
X128450231Y-92739049D01*
X128441676Y-92744199D01*
X128437237Y-92746739D01*
X128450583Y-92746953D01*
X128463692Y-92747597D01*
X128476566Y-92748671D01*
X128489203Y-92750173D01*
X128501605Y-92752105D01*
X128513770Y-92754467D01*
X128525699Y-92757257D01*
X128537392Y-92760477D01*
X128548848Y-92764127D01*
X128560069Y-92768205D01*
X128567418Y-92771163D01*
X128578215Y-92775893D01*
X128588716Y-92780923D01*
X128598921Y-92786254D01*
X128608829Y-92791886D01*
X128618441Y-92797818D01*
X128627757Y-92804050D01*
X128636776Y-92810583D01*
X128645500Y-92817417D01*
X128653927Y-92824551D01*
X128662058Y-92831985D01*
X128667314Y-92837109D01*
X128674925Y-92845033D01*
X128682189Y-92853237D01*
X128689104Y-92861720D01*
X128695673Y-92870482D01*
X128701893Y-92879523D01*
X128707765Y-92888843D01*
X128713290Y-92898442D01*
X128718467Y-92908321D01*
X128723297Y-92918478D01*
X128727778Y-92928914D01*
X128730573Y-92936027D01*
X128734501Y-92946901D01*
X128738043Y-92957997D01*
X128741199Y-92969318D01*
X128743968Y-92980861D01*
X128746351Y-92992627D01*
X128748347Y-93004617D01*
X128749957Y-93016830D01*
X128751181Y-93029267D01*
X128752018Y-93041926D01*
X128752469Y-93054809D01*
X128752554Y-93063522D01*
X128752338Y-93077147D01*
X128751687Y-93090544D01*
X128750603Y-93103714D01*
X128749085Y-93116656D01*
X128747134Y-93129371D01*
X128744749Y-93141858D01*
X128741931Y-93154118D01*
X128738678Y-93166150D01*
X128734993Y-93177954D01*
X128730873Y-93189531D01*
X128727886Y-93197123D01*
X128723080Y-93208232D01*
X128717914Y-93219027D01*
X128712387Y-93229509D01*
X128706499Y-93239678D01*
X128700251Y-93249533D01*
X128693642Y-93259075D01*
X128686673Y-93268304D01*
X128679343Y-93277219D01*
X128671652Y-93285821D01*
X128663600Y-93294109D01*
X128658032Y-93299460D01*
X128649445Y-93307213D01*
X128640536Y-93314627D01*
X128631304Y-93321702D01*
X128621751Y-93328437D01*
X128611876Y-93334834D01*
X128601678Y-93340891D01*
X128591159Y-93346609D01*
X128580317Y-93351988D01*
X128569154Y-93357028D01*
X128557669Y-93361728D01*
X128549833Y-93364673D01*
X128537834Y-93368776D01*
X128525561Y-93372476D01*
X128513013Y-93375771D01*
X128500190Y-93378664D01*
X128487093Y-93381152D01*
X128473721Y-93383238D01*
X128460074Y-93384919D01*
X128446152Y-93386197D01*
X128431955Y-93387072D01*
X128417484Y-93387542D01*
X128407683Y-93387632D01*
G37*
G36*
X129218814Y-92691296D02*
G01*
X129212610Y-92701208D01*
X129206638Y-92710704D01*
X129200898Y-92719784D01*
X129195390Y-92728447D01*
X129190113Y-92736694D01*
X129183438Y-92747042D01*
X129177176Y-92756649D01*
X129171325Y-92765517D01*
X129165887Y-92773643D01*
X129164592Y-92775559D01*
X129158478Y-92784660D01*
X129152804Y-92793033D01*
X129146579Y-92802121D01*
X129140989Y-92810161D01*
X129135271Y-92818217D01*
X129133085Y-92821233D01*
X129126628Y-92829598D01*
X129120316Y-92837822D01*
X129114767Y-92845169D01*
X129128933Y-92845169D01*
X129134438Y-92836558D01*
X129140420Y-92828282D01*
X129146879Y-92820339D01*
X129153815Y-92812730D01*
X129161228Y-92805455D01*
X129169118Y-92798514D01*
X129172408Y-92795832D01*
X129181255Y-92788676D01*
X129189270Y-92782975D01*
X129197870Y-92777513D01*
X129207054Y-92772290D01*
X129216823Y-92767305D01*
X129227176Y-92762558D01*
X129229316Y-92761638D01*
X129240507Y-92757345D01*
X129249965Y-92754436D01*
X129259874Y-92751991D01*
X129270234Y-92750012D01*
X129281043Y-92748499D01*
X129292303Y-92747452D01*
X129304013Y-92746870D01*
X129313092Y-92746739D01*
X129324854Y-92746938D01*
X129336419Y-92747537D01*
X129347786Y-92748536D01*
X129358956Y-92749933D01*
X129369928Y-92751730D01*
X129380703Y-92753926D01*
X129391280Y-92756521D01*
X129401660Y-92759516D01*
X129411843Y-92762910D01*
X129421827Y-92766703D01*
X129428374Y-92769453D01*
X129438042Y-92773869D01*
X129447442Y-92778598D01*
X129456577Y-92783641D01*
X129465446Y-92788997D01*
X129474048Y-92794666D01*
X129482384Y-92800649D01*
X129490454Y-92806945D01*
X129498258Y-92813554D01*
X129505796Y-92820477D01*
X129513067Y-92827714D01*
X129517767Y-92832712D01*
X129524630Y-92840465D01*
X129531205Y-92848517D01*
X129537493Y-92856871D01*
X129543493Y-92865525D01*
X129549205Y-92874479D01*
X129554630Y-92883734D01*
X129559767Y-92893290D01*
X129564616Y-92903146D01*
X129569178Y-92913302D01*
X129573452Y-92923760D01*
X129576141Y-92930898D01*
X129579939Y-92941780D01*
X129583363Y-92952903D01*
X129586413Y-92964266D01*
X129589090Y-92975869D01*
X129591393Y-92987713D01*
X129593323Y-92999797D01*
X129594880Y-93012122D01*
X129596062Y-93024687D01*
X129596872Y-93037493D01*
X129597307Y-93050539D01*
X129597390Y-93059370D01*
X129597167Y-93073125D01*
X129596497Y-93086641D01*
X129595381Y-93099916D01*
X129593818Y-93112950D01*
X129591809Y-93125745D01*
X129589353Y-93138298D01*
X129586451Y-93150612D01*
X129583102Y-93162684D01*
X129579307Y-93174517D01*
X129575065Y-93186109D01*
X129571989Y-93193703D01*
X129567048Y-93204867D01*
X129561751Y-93215734D01*
X129556097Y-93226305D01*
X129550087Y-93236579D01*
X129543721Y-93246558D01*
X129536998Y-93256240D01*
X129529920Y-93265626D01*
X129522484Y-93274716D01*
X129514692Y-93283509D01*
X129506544Y-93292006D01*
X129500914Y-93297506D01*
X129492190Y-93305438D01*
X129483143Y-93313023D01*
X129473774Y-93320259D01*
X129464083Y-93327148D01*
X129454071Y-93333688D01*
X129443736Y-93339882D01*
X129433079Y-93345727D01*
X129422100Y-93351225D01*
X129410800Y-93356374D01*
X129399177Y-93361177D01*
X129391249Y-93364185D01*
X129379133Y-93368375D01*
X129366780Y-93372153D01*
X129354192Y-93375519D01*
X129341367Y-93378473D01*
X129328306Y-93381015D01*
X129315008Y-93383144D01*
X129301475Y-93384861D01*
X129287706Y-93386167D01*
X129273700Y-93387060D01*
X129259458Y-93387540D01*
X129249833Y-93387632D01*
X129240027Y-93387537D01*
X129225525Y-93387036D01*
X129211273Y-93386106D01*
X129197270Y-93384746D01*
X129183515Y-93382957D01*
X129170010Y-93380739D01*
X129156753Y-93378091D01*
X129143746Y-93375014D01*
X129130988Y-93371508D01*
X129118478Y-93367573D01*
X129106218Y-93363208D01*
X129094291Y-93358459D01*
X129082691Y-93353370D01*
X129071416Y-93347943D01*
X129060468Y-93342176D01*
X129049847Y-93336070D01*
X129039551Y-93329625D01*
X129029582Y-93322841D01*
X129019939Y-93315718D01*
X129010623Y-93308255D01*
X129001632Y-93300454D01*
X128995820Y-93295064D01*
X128987441Y-93286658D01*
X128979431Y-93277925D01*
X128971790Y-93268866D01*
X128964519Y-93259481D01*
X128957617Y-93249769D01*
X128951084Y-93239732D01*
X128944920Y-93229367D01*
X128939125Y-93218677D01*
X128933700Y-93207660D01*
X128928644Y-93196317D01*
X128925478Y-93188574D01*
X128921113Y-93176720D01*
X128917178Y-93164603D01*
X128913672Y-93152225D01*
X128910595Y-93139584D01*
X128907947Y-93126682D01*
X128905729Y-93113518D01*
X128903940Y-93100092D01*
X128902581Y-93086404D01*
X128901650Y-93072455D01*
X128901189Y-93059370D01*
X129076909Y-93059370D01*
X129077321Y-93073883D01*
X129078558Y-93087837D01*
X129080618Y-93101234D01*
X129083503Y-93114072D01*
X129087213Y-93126353D01*
X129091747Y-93138075D01*
X129097105Y-93149239D01*
X129103287Y-93159845D01*
X129110294Y-93169893D01*
X129118125Y-93179383D01*
X129123804Y-93185399D01*
X129132921Y-93193823D01*
X129142597Y-93201419D01*
X129152831Y-93208186D01*
X129163623Y-93214124D01*
X129174973Y-93219234D01*
X129186881Y-93223515D01*
X129199348Y-93226968D01*
X129212372Y-93229592D01*
X129225955Y-93231387D01*
X129240096Y-93232354D01*
X129249833Y-93232538D01*
X129264084Y-93232124D01*
X129277802Y-93230881D01*
X129290989Y-93228809D01*
X129303643Y-93225909D01*
X129315764Y-93222180D01*
X129327353Y-93217623D01*
X129338410Y-93212237D01*
X129348934Y-93206022D01*
X129358926Y-93198979D01*
X129368386Y-93191107D01*
X129374397Y-93185399D01*
X129382821Y-93176281D01*
X129390417Y-93166606D01*
X129397184Y-93156372D01*
X129403122Y-93145580D01*
X129408232Y-93134230D01*
X129412513Y-93122321D01*
X129415965Y-93109855D01*
X129418589Y-93096830D01*
X129420385Y-93083248D01*
X129421351Y-93069107D01*
X129421536Y-93059370D01*
X129421121Y-93044820D01*
X129419878Y-93030845D01*
X129417807Y-93017445D01*
X129414907Y-93004621D01*
X129411178Y-92992372D01*
X129406621Y-92980699D01*
X129401235Y-92969600D01*
X129395020Y-92959077D01*
X129387977Y-92949130D01*
X129380105Y-92939757D01*
X129374397Y-92933829D01*
X129365292Y-92925536D01*
X129355655Y-92918058D01*
X129345485Y-92911396D01*
X129334784Y-92905550D01*
X129323549Y-92900520D01*
X129311783Y-92896305D01*
X129299484Y-92892906D01*
X129286652Y-92890323D01*
X129273289Y-92888556D01*
X129259393Y-92887604D01*
X129249833Y-92887423D01*
X129235575Y-92887837D01*
X129221837Y-92889080D01*
X129208619Y-92891151D01*
X129195920Y-92894052D01*
X129183741Y-92897780D01*
X129172081Y-92902338D01*
X129160940Y-92907724D01*
X129150319Y-92913938D01*
X129140218Y-92920982D01*
X129130636Y-92928853D01*
X129124536Y-92934562D01*
X129116025Y-92943668D01*
X129108350Y-92953312D01*
X129101513Y-92963492D01*
X129095513Y-92974209D01*
X129090351Y-92985463D01*
X129086025Y-92997253D01*
X129082537Y-93009580D01*
X129079886Y-93022443D01*
X129078072Y-93035843D01*
X129077095Y-93049780D01*
X129076909Y-93059370D01*
X128901189Y-93059370D01*
X128901149Y-93058243D01*
X128901054Y-93048623D01*
X128901208Y-93036763D01*
X128901668Y-93024874D01*
X128902436Y-93012957D01*
X128903512Y-93001011D01*
X128904894Y-92989036D01*
X128906584Y-92977033D01*
X128908581Y-92965001D01*
X128910885Y-92952941D01*
X128913496Y-92940852D01*
X128916415Y-92928734D01*
X128919640Y-92916588D01*
X128923173Y-92904413D01*
X128927013Y-92892209D01*
X128931161Y-92879977D01*
X128935615Y-92867716D01*
X128940377Y-92855427D01*
X128945436Y-92843042D01*
X128950780Y-92830495D01*
X128956411Y-92817786D01*
X128962328Y-92804914D01*
X128968532Y-92791881D01*
X128975021Y-92778685D01*
X128981797Y-92765327D01*
X128988859Y-92751807D01*
X128996208Y-92738124D01*
X129003842Y-92724280D01*
X129011763Y-92710273D01*
X129019970Y-92696104D01*
X129028463Y-92681773D01*
X129037242Y-92667280D01*
X129046308Y-92652624D01*
X129055660Y-92637807D01*
X129242750Y-92340319D01*
X129444006Y-92340319D01*
X129218814Y-92691296D01*
G37*
G36*
X130101693Y-92324861D02*
G01*
X130115530Y-92325383D01*
X130129096Y-92326252D01*
X130142392Y-92327469D01*
X130155417Y-92329034D01*
X130168172Y-92330947D01*
X130180656Y-92333207D01*
X130192870Y-92335815D01*
X130204813Y-92338771D01*
X130216486Y-92342075D01*
X130224118Y-92344471D01*
X130235312Y-92348276D01*
X130246180Y-92352365D01*
X130256721Y-92356737D01*
X130266936Y-92361392D01*
X130276825Y-92366331D01*
X130286388Y-92371553D01*
X130295624Y-92377059D01*
X130304535Y-92382847D01*
X130313118Y-92388920D01*
X130321376Y-92395275D01*
X130326700Y-92399670D01*
X130334455Y-92406454D01*
X130341875Y-92413526D01*
X130348960Y-92420885D01*
X130355711Y-92428532D01*
X130362127Y-92436467D01*
X130368207Y-92444690D01*
X130373953Y-92453200D01*
X130379364Y-92461997D01*
X130384441Y-92471083D01*
X130389182Y-92480456D01*
X130392157Y-92486864D01*
X130396303Y-92496637D01*
X130400042Y-92506628D01*
X130403373Y-92516838D01*
X130406296Y-92527268D01*
X130408811Y-92537916D01*
X130410918Y-92548783D01*
X130412618Y-92559869D01*
X130413910Y-92571174D01*
X130414793Y-92582698D01*
X130415269Y-92594441D01*
X130415360Y-92602391D01*
X130415138Y-92613550D01*
X130414474Y-92624556D01*
X130413368Y-92635410D01*
X130411818Y-92646111D01*
X130409826Y-92656659D01*
X130407391Y-92667055D01*
X130404514Y-92677298D01*
X130401194Y-92687388D01*
X130397534Y-92697264D01*
X130393515Y-92706866D01*
X130389138Y-92716193D01*
X130384402Y-92725245D01*
X130379307Y-92734023D01*
X130373854Y-92742526D01*
X130368041Y-92750754D01*
X130361871Y-92758707D01*
X130355413Y-92766351D01*
X130348620Y-92773651D01*
X130341492Y-92780608D01*
X130334027Y-92787222D01*
X130326226Y-92793492D01*
X130318090Y-92799419D01*
X130309618Y-92805002D01*
X130300810Y-92810242D01*
X130291693Y-92815085D01*
X130282293Y-92819477D01*
X130272611Y-92823420D01*
X130262647Y-92826912D01*
X130252400Y-92829953D01*
X130241871Y-92832544D01*
X130231059Y-92834685D01*
X130219965Y-92836376D01*
X130219965Y-92841994D01*
X130232097Y-92844333D01*
X130243947Y-92847077D01*
X130255514Y-92850225D01*
X130266799Y-92853778D01*
X130277801Y-92857736D01*
X130288521Y-92862098D01*
X130298959Y-92866864D01*
X130309114Y-92872035D01*
X130319010Y-92877516D01*
X130328547Y-92883332D01*
X130337725Y-92889483D01*
X130346544Y-92895971D01*
X130355005Y-92902795D01*
X130363107Y-92909954D01*
X130370850Y-92917449D01*
X130378235Y-92925280D01*
X130385230Y-92933379D01*
X130391806Y-92941797D01*
X130397961Y-92950537D01*
X130403697Y-92959596D01*
X130409013Y-92968977D01*
X130413910Y-92978678D01*
X130418386Y-92988700D01*
X130422443Y-92999042D01*
X130426049Y-93009640D01*
X130429175Y-93020428D01*
X130431819Y-93031408D01*
X130433983Y-93042578D01*
X130435666Y-93053939D01*
X130436868Y-93065491D01*
X130437590Y-93077234D01*
X130437830Y-93089167D01*
X130437613Y-93101870D01*
X130436963Y-93114332D01*
X130435879Y-93126554D01*
X130434361Y-93138535D01*
X130432410Y-93150276D01*
X130430025Y-93161776D01*
X130427206Y-93173036D01*
X130423954Y-93184056D01*
X130420268Y-93194835D01*
X130416149Y-93205373D01*
X130413162Y-93212266D01*
X130408393Y-93222386D01*
X130403247Y-93232233D01*
X130397723Y-93241804D01*
X130391821Y-93251100D01*
X130385541Y-93260122D01*
X130378884Y-93268869D01*
X130371848Y-93277341D01*
X130364435Y-93285539D01*
X130356644Y-93293461D01*
X130348475Y-93301109D01*
X130342820Y-93306055D01*
X130334088Y-93313184D01*
X130325022Y-93320008D01*
X130315621Y-93326528D01*
X130305885Y-93332742D01*
X130295815Y-93338652D01*
X130285409Y-93344257D01*
X130274669Y-93349557D01*
X130263593Y-93354552D01*
X130252183Y-93359243D01*
X130240438Y-93363629D01*
X130232422Y-93366383D01*
X130220192Y-93370180D01*
X130207684Y-93373604D01*
X130194896Y-93376655D01*
X130181829Y-93379332D01*
X130168483Y-93381635D01*
X130154858Y-93383565D01*
X130140955Y-93385121D01*
X130126772Y-93386304D01*
X130112309Y-93387113D01*
X130102513Y-93387445D01*
X130092593Y-93387611D01*
X130087586Y-93387632D01*
X130077635Y-93387549D01*
X130067810Y-93387300D01*
X130053308Y-93386615D01*
X130039090Y-93385557D01*
X130025156Y-93384125D01*
X130011504Y-93382320D01*
X129998136Y-93380141D01*
X129985052Y-93377589D01*
X129972250Y-93374663D01*
X129959732Y-93371363D01*
X129947498Y-93367690D01*
X129943483Y-93366383D01*
X129931649Y-93362198D01*
X129920147Y-93357705D01*
X129908975Y-93352902D01*
X129898133Y-93347790D01*
X129887623Y-93342369D01*
X129877442Y-93336639D01*
X129867593Y-93330599D01*
X129858074Y-93324251D01*
X129848885Y-93317593D01*
X129840028Y-93310627D01*
X129834306Y-93305811D01*
X129826058Y-93298346D01*
X129818166Y-93290607D01*
X129810630Y-93282592D01*
X129803451Y-93274303D01*
X129796628Y-93265740D01*
X129790162Y-93256901D01*
X129784052Y-93247788D01*
X129778298Y-93238400D01*
X129772901Y-93228737D01*
X129767860Y-93218799D01*
X129764697Y-93212021D01*
X129760332Y-93201658D01*
X129756396Y-93191084D01*
X129752890Y-93180300D01*
X129749813Y-93169306D01*
X129747166Y-93158101D01*
X129744947Y-93146686D01*
X129743159Y-93135060D01*
X129741799Y-93123224D01*
X129740869Y-93111178D01*
X129740368Y-93098921D01*
X129740272Y-93090633D01*
X129740502Y-93078480D01*
X129740788Y-93073536D01*
X129917349Y-93073536D01*
X129917756Y-93087667D01*
X129918980Y-93101299D01*
X129921019Y-93114434D01*
X129923874Y-93127071D01*
X129927545Y-93139209D01*
X129932032Y-93150850D01*
X129937334Y-93161993D01*
X129943452Y-93172637D01*
X129950386Y-93182784D01*
X129958135Y-93192432D01*
X129963755Y-93198588D01*
X129972728Y-93207231D01*
X129982247Y-93215023D01*
X129992312Y-93221965D01*
X130002921Y-93228058D01*
X130014076Y-93233300D01*
X130025776Y-93237692D01*
X130038021Y-93241234D01*
X130050812Y-93243926D01*
X130064148Y-93245767D01*
X130078029Y-93246759D01*
X130087586Y-93246948D01*
X130102099Y-93246523D01*
X130116053Y-93245248D01*
X130129450Y-93243123D01*
X130142289Y-93240148D01*
X130154569Y-93236322D01*
X130166291Y-93231647D01*
X130177455Y-93226121D01*
X130188061Y-93219746D01*
X130198109Y-93212520D01*
X130207599Y-93204444D01*
X130213615Y-93198588D01*
X130222039Y-93189272D01*
X130229635Y-93179457D01*
X130236402Y-93169144D01*
X130242340Y-93158334D01*
X130247450Y-93147025D01*
X130251731Y-93135219D01*
X130255184Y-93122914D01*
X130257808Y-93110111D01*
X130259603Y-93096810D01*
X130260570Y-93083012D01*
X130260754Y-93073536D01*
X130260340Y-93059206D01*
X130259097Y-93045434D01*
X130257025Y-93032221D01*
X130254125Y-93019566D01*
X130250396Y-93007469D01*
X130245839Y-92995929D01*
X130240453Y-92984949D01*
X130234238Y-92974526D01*
X130227195Y-92964661D01*
X130219323Y-92955355D01*
X130213615Y-92949460D01*
X130204498Y-92941167D01*
X130194822Y-92933690D01*
X130184588Y-92927028D01*
X130173796Y-92921182D01*
X130162446Y-92916151D01*
X130150537Y-92911937D01*
X130138071Y-92908538D01*
X130125047Y-92905955D01*
X130111464Y-92904187D01*
X130097323Y-92903236D01*
X130087586Y-92903054D01*
X130073341Y-92903462D01*
X130059642Y-92904686D01*
X130046488Y-92906725D01*
X130033879Y-92909580D01*
X130021816Y-92913251D01*
X130010297Y-92917737D01*
X129999324Y-92923040D01*
X129988896Y-92929158D01*
X129979014Y-92936091D01*
X129969677Y-92943841D01*
X129963755Y-92949460D01*
X129955461Y-92958395D01*
X129947984Y-92967887D01*
X129941322Y-92977938D01*
X129935476Y-92988547D01*
X129930446Y-92999714D01*
X129926231Y-93011439D01*
X129922832Y-93023722D01*
X129920249Y-93036563D01*
X129918481Y-93049963D01*
X129917530Y-93063921D01*
X129917349Y-93073536D01*
X129740788Y-93073536D01*
X129741192Y-93066567D01*
X129742342Y-93054895D01*
X129743951Y-93043463D01*
X129746021Y-93032272D01*
X129748550Y-93021321D01*
X129751539Y-93010611D01*
X129754988Y-93000141D01*
X129758897Y-92989911D01*
X129763266Y-92979922D01*
X129768094Y-92970173D01*
X129773383Y-92960665D01*
X129779131Y-92951397D01*
X129785339Y-92942370D01*
X129792007Y-92933583D01*
X129799135Y-92925036D01*
X129806678Y-92916782D01*
X129814530Y-92908935D01*
X129822691Y-92901494D01*
X129831161Y-92894460D01*
X129839941Y-92887832D01*
X129849029Y-92881610D01*
X129858427Y-92875795D01*
X129868134Y-92870387D01*
X129878149Y-92865385D01*
X129888474Y-92860789D01*
X129899109Y-92856599D01*
X129910052Y-92852817D01*
X129921304Y-92849440D01*
X129932866Y-92846470D01*
X129944736Y-92843906D01*
X129956916Y-92841749D01*
X129956916Y-92835887D01*
X129946097Y-92834197D01*
X129935499Y-92832056D01*
X129925122Y-92829465D01*
X129914967Y-92826423D01*
X129905033Y-92822931D01*
X129895321Y-92818989D01*
X129885830Y-92814596D01*
X129876560Y-92809753D01*
X129867576Y-92804514D01*
X129858944Y-92798930D01*
X129850663Y-92793004D01*
X129842732Y-92786734D01*
X129835153Y-92780120D01*
X129827925Y-92773163D01*
X129821048Y-92765862D01*
X129814522Y-92758218D01*
X129808405Y-92750269D01*
X129802631Y-92742052D01*
X129797200Y-92733569D01*
X129792113Y-92724818D01*
X129787369Y-92715800D01*
X129782969Y-92706515D01*
X129778912Y-92696963D01*
X129775199Y-92687144D01*
X129771936Y-92677053D01*
X129769108Y-92666810D01*
X129766716Y-92656415D01*
X129764758Y-92645867D01*
X129763235Y-92635166D01*
X129762147Y-92624312D01*
X129761557Y-92614359D01*
X129930049Y-92614359D01*
X129930425Y-92627299D01*
X129931552Y-92639830D01*
X129933430Y-92651954D01*
X129936060Y-92663670D01*
X129939441Y-92674977D01*
X129943573Y-92685878D01*
X129948457Y-92696370D01*
X129954092Y-92706454D01*
X129960478Y-92716130D01*
X129967616Y-92725399D01*
X129972792Y-92731352D01*
X129981105Y-92739688D01*
X129989925Y-92747205D01*
X129999251Y-92753902D01*
X130009085Y-92759779D01*
X130019424Y-92764836D01*
X130030271Y-92769073D01*
X130041624Y-92772489D01*
X130053483Y-92775086D01*
X130065850Y-92776863D01*
X130078722Y-92777820D01*
X130087586Y-92778002D01*
X130100794Y-92777592D01*
X130113492Y-92776362D01*
X130125678Y-92774312D01*
X130137354Y-92771442D01*
X130148519Y-92767752D01*
X130159173Y-92763241D01*
X130169316Y-92757911D01*
X130178948Y-92751761D01*
X130188069Y-92744791D01*
X130196679Y-92737001D01*
X130202136Y-92731352D01*
X130209818Y-92722355D01*
X130216744Y-92712950D01*
X130222915Y-92703138D01*
X130228331Y-92692918D01*
X130232990Y-92682289D01*
X130236895Y-92671253D01*
X130240043Y-92659810D01*
X130242436Y-92647958D01*
X130244073Y-92635698D01*
X130244955Y-92623031D01*
X130245122Y-92614359D01*
X130244745Y-92601997D01*
X130243611Y-92590099D01*
X130241722Y-92578664D01*
X130239077Y-92567694D01*
X130235677Y-92557186D01*
X130231521Y-92547143D01*
X130226610Y-92537563D01*
X130220942Y-92528447D01*
X130214520Y-92519794D01*
X130207341Y-92511605D01*
X130202136Y-92506404D01*
X130193866Y-92499071D01*
X130185085Y-92492459D01*
X130175794Y-92486569D01*
X130165992Y-92481399D01*
X130155678Y-92476952D01*
X130144854Y-92473225D01*
X130133519Y-92470220D01*
X130121673Y-92467936D01*
X130109316Y-92466373D01*
X130096448Y-92465531D01*
X130087586Y-92465371D01*
X130074375Y-92465732D01*
X130061671Y-92466814D01*
X130049474Y-92468617D01*
X130037783Y-92471141D01*
X130026599Y-92474387D01*
X130015922Y-92478354D01*
X130005751Y-92483042D01*
X129996086Y-92488452D01*
X129986929Y-92494583D01*
X129978278Y-92501435D01*
X129972792Y-92506404D01*
X129965153Y-92514284D01*
X129958266Y-92522627D01*
X129952130Y-92531434D01*
X129946745Y-92540705D01*
X129942112Y-92550439D01*
X129938230Y-92560637D01*
X129935100Y-92571299D01*
X129932721Y-92582424D01*
X129931093Y-92594014D01*
X129930216Y-92606066D01*
X129930049Y-92614359D01*
X129761557Y-92614359D01*
X129761495Y-92613306D01*
X129761277Y-92602147D01*
X129761481Y-92590258D01*
X129762093Y-92578588D01*
X129763113Y-92567137D01*
X129764540Y-92555905D01*
X129766376Y-92544892D01*
X129768619Y-92534098D01*
X129771270Y-92523523D01*
X129774329Y-92513166D01*
X129777796Y-92503029D01*
X129781671Y-92493111D01*
X129784480Y-92486620D01*
X129788998Y-92477099D01*
X129793851Y-92467861D01*
X129799039Y-92458907D01*
X129804562Y-92450236D01*
X129810419Y-92441848D01*
X129816612Y-92433744D01*
X129823139Y-92425922D01*
X129830001Y-92418385D01*
X129837198Y-92411131D01*
X129844730Y-92404160D01*
X129849938Y-92399670D01*
X129858019Y-92393125D01*
X129866418Y-92386864D01*
X129875135Y-92380886D01*
X129884170Y-92375192D01*
X129893522Y-92369781D01*
X129903192Y-92364653D01*
X129913180Y-92359809D01*
X129923485Y-92355248D01*
X129934108Y-92350970D01*
X129945049Y-92346976D01*
X129952520Y-92344471D01*
X129963999Y-92340935D01*
X129975724Y-92337747D01*
X129987693Y-92334907D01*
X129999906Y-92332415D01*
X130012365Y-92330271D01*
X130025068Y-92328474D01*
X130038016Y-92327025D01*
X130051209Y-92325924D01*
X130064646Y-92325170D01*
X130078328Y-92324764D01*
X130087586Y-92324687D01*
X130101693Y-92324861D01*
G37*
G36*
X130942394Y-92345153D02*
G01*
X130956282Y-92345732D01*
X130969934Y-92346698D01*
X130983350Y-92348051D01*
X130996530Y-92349789D01*
X131009474Y-92351915D01*
X131022181Y-92354426D01*
X131034653Y-92357324D01*
X131046888Y-92360609D01*
X131058887Y-92364279D01*
X131066755Y-92366941D01*
X131078355Y-92371184D01*
X131089616Y-92375763D01*
X131100537Y-92380676D01*
X131111120Y-92385923D01*
X131121363Y-92391506D01*
X131131267Y-92397424D01*
X131140832Y-92403676D01*
X131150057Y-92410264D01*
X131158944Y-92417186D01*
X131167491Y-92424443D01*
X131173001Y-92429467D01*
X131181025Y-92437257D01*
X131188700Y-92445330D01*
X131196028Y-92453686D01*
X131203009Y-92462326D01*
X131209641Y-92471249D01*
X131215926Y-92480455D01*
X131221863Y-92489945D01*
X131227452Y-92499718D01*
X131232693Y-92509774D01*
X131237587Y-92520114D01*
X131240656Y-92527164D01*
X131244934Y-92537953D01*
X131248791Y-92548977D01*
X131252227Y-92560238D01*
X131255242Y-92571735D01*
X131257837Y-92583468D01*
X131260011Y-92595437D01*
X131261764Y-92607642D01*
X131263096Y-92620084D01*
X131264008Y-92632761D01*
X131264499Y-92645675D01*
X131264592Y-92654415D01*
X131264592Y-93075245D01*
X131264382Y-93088061D01*
X131263751Y-93100679D01*
X131262699Y-93113100D01*
X131261226Y-93125323D01*
X131259333Y-93137348D01*
X131257019Y-93149177D01*
X131254284Y-93160807D01*
X131251128Y-93172240D01*
X131247552Y-93183476D01*
X131243555Y-93194514D01*
X131240656Y-93201763D01*
X131235988Y-93212423D01*
X131230959Y-93222786D01*
X131225570Y-93232853D01*
X131219819Y-93242624D01*
X131213708Y-93252099D01*
X131207237Y-93261277D01*
X131200405Y-93270160D01*
X131193212Y-93278746D01*
X131185659Y-93287035D01*
X131177745Y-93295029D01*
X131172268Y-93300193D01*
X131163823Y-93307682D01*
X131155063Y-93314853D01*
X131145991Y-93321707D01*
X131136605Y-93328243D01*
X131126906Y-93334461D01*
X131116893Y-93340362D01*
X131106567Y-93345944D01*
X131095927Y-93351209D01*
X131084974Y-93356157D01*
X131073708Y-93360786D01*
X131066023Y-93363696D01*
X131054312Y-93367712D01*
X131042352Y-93371333D01*
X131030143Y-93374558D01*
X131017685Y-93377389D01*
X131004979Y-93379825D01*
X130992023Y-93381866D01*
X130978818Y-93383511D01*
X130965364Y-93384762D01*
X130951661Y-93385618D01*
X130937709Y-93386079D01*
X130928270Y-93386167D01*
X130914143Y-93385976D01*
X130900249Y-93385402D01*
X130886586Y-93384447D01*
X130873155Y-93383110D01*
X130859956Y-93381390D01*
X130846988Y-93379289D01*
X130834253Y-93376805D01*
X130821749Y-93373939D01*
X130809477Y-93370691D01*
X130797438Y-93367061D01*
X130789540Y-93364429D01*
X130777981Y-93360142D01*
X130766754Y-93355525D01*
X130755856Y-93350577D01*
X130745290Y-93345298D01*
X130735054Y-93339689D01*
X130725148Y-93333749D01*
X130715574Y-93327478D01*
X130706329Y-93320877D01*
X130697416Y-93313946D01*
X130688832Y-93306684D01*
X130683294Y-93301659D01*
X130675314Y-93293863D01*
X130667678Y-93285770D01*
X130660385Y-93277382D01*
X130653435Y-93268697D01*
X130646829Y-93259716D01*
X130640567Y-93250439D01*
X130634648Y-93240866D01*
X130629072Y-93230996D01*
X130623840Y-93220830D01*
X130618951Y-93210368D01*
X130615883Y-93203229D01*
X130611605Y-93192309D01*
X130607749Y-93181167D01*
X130604313Y-93169801D01*
X130601297Y-93158212D01*
X130598703Y-93146399D01*
X130596529Y-93134364D01*
X130594776Y-93122105D01*
X130593443Y-93109623D01*
X130592532Y-93096917D01*
X130592041Y-93083989D01*
X130592021Y-93082084D01*
X130767802Y-93082084D01*
X130768702Y-93094533D01*
X130770301Y-93106510D01*
X130772600Y-93118015D01*
X130775599Y-93129048D01*
X130779298Y-93139608D01*
X130783696Y-93149696D01*
X130788794Y-93159311D01*
X130794593Y-93168455D01*
X130801090Y-93177126D01*
X130808288Y-93185325D01*
X130813476Y-93190528D01*
X130821789Y-93197817D01*
X130830609Y-93204390D01*
X130839935Y-93210245D01*
X130849768Y-93215384D01*
X130860108Y-93219805D01*
X130870955Y-93223509D01*
X130882308Y-93226497D01*
X130894167Y-93228767D01*
X130906533Y-93230321D01*
X130919406Y-93231157D01*
X130928270Y-93231317D01*
X130941746Y-93230945D01*
X130954699Y-93229831D01*
X130967129Y-93227974D01*
X130979034Y-93225375D01*
X130990416Y-93222032D01*
X131001273Y-93217947D01*
X131011608Y-93213119D01*
X131021418Y-93207549D01*
X131030704Y-93201235D01*
X131039467Y-93194179D01*
X131045018Y-93189063D01*
X131052831Y-93180882D01*
X131059876Y-93172187D01*
X131066152Y-93162976D01*
X131071659Y-93153251D01*
X131076398Y-93143009D01*
X131080369Y-93132253D01*
X131083571Y-93120982D01*
X131086005Y-93109195D01*
X131087670Y-93096893D01*
X131088566Y-93084076D01*
X131088737Y-93075245D01*
X131088737Y-92765546D01*
X130767802Y-93082084D01*
X130592021Y-93082084D01*
X130591947Y-93075245D01*
X130591947Y-92964115D01*
X130767802Y-92964115D01*
X131088737Y-92648797D01*
X131087836Y-92636130D01*
X131086230Y-92623956D01*
X131083920Y-92612276D01*
X131080906Y-92601090D01*
X131077188Y-92590397D01*
X131072766Y-92580199D01*
X131067640Y-92570494D01*
X131061809Y-92561282D01*
X131055275Y-92552565D01*
X131048036Y-92544341D01*
X131042820Y-92539132D01*
X131034550Y-92531843D01*
X131025769Y-92525271D01*
X131016478Y-92519415D01*
X131006675Y-92514277D01*
X130996362Y-92509855D01*
X130985538Y-92506151D01*
X130974203Y-92503164D01*
X130962357Y-92500893D01*
X130950000Y-92499340D01*
X130937132Y-92498503D01*
X130928270Y-92498344D01*
X130914791Y-92498715D01*
X130901831Y-92499829D01*
X130889391Y-92501686D01*
X130877471Y-92504286D01*
X130866070Y-92507628D01*
X130855189Y-92511713D01*
X130844827Y-92516541D01*
X130834984Y-92522112D01*
X130825661Y-92528425D01*
X130816858Y-92535481D01*
X130811277Y-92540598D01*
X130803508Y-92548778D01*
X130796503Y-92557474D01*
X130790261Y-92566684D01*
X130784785Y-92576410D01*
X130780072Y-92586651D01*
X130776124Y-92597407D01*
X130772939Y-92608679D01*
X130770519Y-92620465D01*
X130768864Y-92632767D01*
X130767972Y-92645584D01*
X130767802Y-92654415D01*
X130767802Y-92964115D01*
X130591947Y-92964115D01*
X130591947Y-92654415D01*
X130592158Y-92641344D01*
X130592789Y-92628509D01*
X130593841Y-92615910D01*
X130595313Y-92603548D01*
X130597207Y-92591421D01*
X130599521Y-92579531D01*
X130602256Y-92567876D01*
X130605411Y-92556458D01*
X130608988Y-92545276D01*
X130612985Y-92534331D01*
X130615883Y-92527164D01*
X130620543Y-92516636D01*
X130625546Y-92506390D01*
X130630893Y-92496429D01*
X130636583Y-92486750D01*
X130642616Y-92477355D01*
X130648993Y-92468243D01*
X130655714Y-92459414D01*
X130662778Y-92450869D01*
X130670185Y-92442607D01*
X130677936Y-92434629D01*
X130683294Y-92429467D01*
X130691657Y-92421987D01*
X130700350Y-92414841D01*
X130709374Y-92408031D01*
X130718728Y-92401555D01*
X130728413Y-92395414D01*
X130738429Y-92389608D01*
X130748775Y-92384137D01*
X130759452Y-92379001D01*
X130770459Y-92374199D01*
X130781797Y-92369733D01*
X130789540Y-92366941D01*
X130801425Y-92363013D01*
X130813542Y-92359471D01*
X130825891Y-92356315D01*
X130838472Y-92353546D01*
X130851285Y-92351163D01*
X130864330Y-92349167D01*
X130877606Y-92347557D01*
X130891114Y-92346333D01*
X130904854Y-92345496D01*
X130918826Y-92345045D01*
X130928270Y-92344959D01*
X130942394Y-92345153D01*
G37*
G36*
X132395681Y-92590423D02*
G01*
X132395681Y-92699844D01*
X132408381Y-92699844D01*
X132409420Y-92689120D01*
X132410977Y-92678838D01*
X132413055Y-92668999D01*
X132416632Y-92656567D01*
X132421134Y-92644922D01*
X132426559Y-92634062D01*
X132432907Y-92623989D01*
X132440179Y-92614702D01*
X132446239Y-92608253D01*
X132455097Y-92600411D01*
X132464695Y-92593614D01*
X132475033Y-92587863D01*
X132486112Y-92583157D01*
X132497931Y-92579497D01*
X132510490Y-92576883D01*
X132520396Y-92575609D01*
X132530717Y-92574923D01*
X132537830Y-92574792D01*
X132547649Y-92575073D01*
X132560086Y-92576323D01*
X132571776Y-92578573D01*
X132582717Y-92581822D01*
X132592910Y-92586072D01*
X132602355Y-92591321D01*
X132611053Y-92597570D01*
X132619002Y-92604819D01*
X132620873Y-92606788D01*
X132627994Y-92615241D01*
X132634581Y-92624602D01*
X132640633Y-92634872D01*
X132646152Y-92646050D01*
X132651136Y-92658136D01*
X132654523Y-92667797D01*
X132657610Y-92677968D01*
X132660397Y-92688651D01*
X132662882Y-92699844D01*
X132674118Y-92699844D01*
X132675199Y-92689120D01*
X132676797Y-92678838D01*
X132678909Y-92668999D01*
X132682527Y-92656567D01*
X132687061Y-92644922D01*
X132692510Y-92634062D01*
X132698876Y-92623989D01*
X132706157Y-92614702D01*
X132712219Y-92608253D01*
X132721020Y-92600411D01*
X132730568Y-92593614D01*
X132740865Y-92587863D01*
X132751909Y-92583157D01*
X132763701Y-92579497D01*
X132776242Y-92576883D01*
X132786138Y-92575609D01*
X132796455Y-92574923D01*
X132803566Y-92574792D01*
X132816521Y-92575256D01*
X132829009Y-92576647D01*
X132841028Y-92578965D01*
X132852579Y-92582211D01*
X132863662Y-92586384D01*
X132874277Y-92591484D01*
X132884425Y-92597512D01*
X132894104Y-92604467D01*
X132903315Y-92612350D01*
X132912059Y-92621160D01*
X132917628Y-92627548D01*
X132925441Y-92637759D01*
X132932485Y-92648700D01*
X132938762Y-92660371D01*
X132944269Y-92672771D01*
X132949008Y-92685902D01*
X132952979Y-92699762D01*
X132955199Y-92709408D01*
X132957078Y-92719378D01*
X132958615Y-92729672D01*
X132959810Y-92740291D01*
X132960664Y-92751234D01*
X132961176Y-92762502D01*
X132961347Y-92774094D01*
X132961347Y-93372001D01*
X132805032Y-93372001D01*
X132805032Y-92788016D01*
X132804773Y-92777339D01*
X132803997Y-92767351D01*
X132801864Y-92753660D01*
X132798568Y-92741519D01*
X132794108Y-92730928D01*
X132788484Y-92721887D01*
X132781697Y-92714396D01*
X132773747Y-92708455D01*
X132764633Y-92704063D01*
X132754355Y-92701222D01*
X132742914Y-92699930D01*
X132738842Y-92699844D01*
X132726533Y-92700645D01*
X132715435Y-92703047D01*
X132705547Y-92707051D01*
X132696870Y-92712655D01*
X132689404Y-92719862D01*
X132683149Y-92728670D01*
X132678104Y-92739079D01*
X132674270Y-92751089D01*
X132671647Y-92764701D01*
X132670571Y-92774666D01*
X132670033Y-92785342D01*
X132669965Y-92790947D01*
X132669965Y-93372001D01*
X132543448Y-93372001D01*
X132543448Y-92788016D01*
X132543179Y-92777339D01*
X132542371Y-92767351D01*
X132540152Y-92753660D01*
X132536721Y-92741519D01*
X132532080Y-92730928D01*
X132526229Y-92721887D01*
X132519166Y-92714396D01*
X132510893Y-92708455D01*
X132501409Y-92704063D01*
X132490714Y-92701222D01*
X132478809Y-92699930D01*
X132474571Y-92699844D01*
X132463004Y-92700645D01*
X132452575Y-92703047D01*
X132443283Y-92707051D01*
X132435130Y-92712655D01*
X132428114Y-92719862D01*
X132422235Y-92728670D01*
X132417495Y-92739079D01*
X132413892Y-92751089D01*
X132411427Y-92764701D01*
X132410416Y-92774666D01*
X132409910Y-92785342D01*
X132409847Y-92790947D01*
X132409847Y-93372001D01*
X132253531Y-93372001D01*
X132253531Y-92590423D01*
X132395681Y-92590423D01*
G37*
G36*
X133234899Y-92590423D02*
G01*
X133234899Y-92699844D01*
X133247600Y-92699844D01*
X133248638Y-92689120D01*
X133250196Y-92678838D01*
X133252273Y-92668999D01*
X133255851Y-92656567D01*
X133260352Y-92644922D01*
X133265777Y-92634062D01*
X133272125Y-92623989D01*
X133279397Y-92614702D01*
X133285457Y-92608253D01*
X133294315Y-92600411D01*
X133303913Y-92593614D01*
X133314251Y-92587863D01*
X133325330Y-92583157D01*
X133337149Y-92579497D01*
X133349709Y-92576883D01*
X133359614Y-92575609D01*
X133369936Y-92574923D01*
X133377048Y-92574792D01*
X133386867Y-92575073D01*
X133399305Y-92576323D01*
X133410994Y-92578573D01*
X133421935Y-92581822D01*
X133432129Y-92586072D01*
X133441574Y-92591321D01*
X133450271Y-92597570D01*
X133458221Y-92604819D01*
X133460091Y-92606788D01*
X133467212Y-92615241D01*
X133473799Y-92624602D01*
X133479852Y-92634872D01*
X133485370Y-92646050D01*
X133490354Y-92658136D01*
X133493742Y-92667797D01*
X133496829Y-92677968D01*
X133499615Y-92688651D01*
X133502101Y-92699844D01*
X133513336Y-92699844D01*
X133514418Y-92689120D01*
X133516015Y-92678838D01*
X133518127Y-92668999D01*
X133521745Y-92656567D01*
X133526279Y-92644922D01*
X133531729Y-92634062D01*
X133538094Y-92623989D01*
X133545376Y-92614702D01*
X133551438Y-92608253D01*
X133560238Y-92600411D01*
X133569787Y-92593614D01*
X133580083Y-92587863D01*
X133591127Y-92583157D01*
X133602920Y-92579497D01*
X133615460Y-92576883D01*
X133625356Y-92575609D01*
X133635673Y-92574923D01*
X133642785Y-92574792D01*
X133655740Y-92575256D01*
X133668227Y-92576647D01*
X133680246Y-92578965D01*
X133691797Y-92582211D01*
X133702881Y-92586384D01*
X133713496Y-92591484D01*
X133723643Y-92597512D01*
X133733322Y-92604467D01*
X133742534Y-92612350D01*
X133751277Y-92621160D01*
X133756846Y-92627548D01*
X133764659Y-92637759D01*
X133771704Y-92648700D01*
X133777980Y-92660371D01*
X133783488Y-92672771D01*
X133788227Y-92685902D01*
X133792197Y-92699762D01*
X133794418Y-92709408D01*
X133796296Y-92719378D01*
X133797833Y-92729672D01*
X133799029Y-92740291D01*
X133799882Y-92751234D01*
X133800395Y-92762502D01*
X133800566Y-92774094D01*
X133800566Y-93372001D01*
X133644250Y-93372001D01*
X133644250Y-92788016D01*
X133643992Y-92777339D01*
X133643216Y-92767351D01*
X133641083Y-92753660D01*
X133637786Y-92741519D01*
X133633326Y-92730928D01*
X133627703Y-92721887D01*
X133620916Y-92714396D01*
X133612965Y-92708455D01*
X133603851Y-92704063D01*
X133593574Y-92701222D01*
X133582133Y-92699930D01*
X133578060Y-92699844D01*
X133565751Y-92700645D01*
X133554653Y-92703047D01*
X133544766Y-92707051D01*
X133536089Y-92712655D01*
X133528623Y-92719862D01*
X133522367Y-92728670D01*
X133517323Y-92739079D01*
X133513489Y-92751089D01*
X133510865Y-92764701D01*
X133509789Y-92774666D01*
X133509251Y-92785342D01*
X133509184Y-92790947D01*
X133509184Y-93372001D01*
X133382666Y-93372001D01*
X133382666Y-92788016D01*
X133382397Y-92777339D01*
X133381590Y-92767351D01*
X133379370Y-92753660D01*
X133375940Y-92741519D01*
X133371299Y-92730928D01*
X133365447Y-92721887D01*
X133358384Y-92714396D01*
X133350111Y-92708455D01*
X133340627Y-92704063D01*
X133329932Y-92701222D01*
X133318027Y-92699930D01*
X133313790Y-92699844D01*
X133302223Y-92700645D01*
X133291793Y-92703047D01*
X133282502Y-92707051D01*
X133274348Y-92712655D01*
X133267332Y-92719862D01*
X133261454Y-92728670D01*
X133256713Y-92739079D01*
X133253110Y-92751089D01*
X133250645Y-92764701D01*
X133249634Y-92774666D01*
X133249128Y-92785342D01*
X133249065Y-92790947D01*
X133249065Y-93372001D01*
X133092750Y-93372001D01*
X133092750Y-92590423D01*
X133234899Y-92590423D01*
G37*
X141351000Y-99195000D02*
X141351000Y-93520581D01*
X117983000Y-99195000D02*
X117983000Y-93520581D01*
X141351000Y-94107001D02*
X117983000Y-94107001D01*
X141351000Y-94107001D02*
X117983000Y-94107001D01*
X141351000Y-94107001D02*
X140224496Y-94693422D01*
X141351000Y-94107001D02*
X140224496Y-93520580D01*
X117983000Y-94107001D02*
X119109504Y-93520580D01*
X117983000Y-94107001D02*
X119109504Y-94693422D01*
G36*
X144443792Y-115627597D02*
G01*
X144431037Y-115627119D01*
X144418510Y-115626232D01*
X144406210Y-115624938D01*
X144394138Y-115623235D01*
X144382293Y-115621125D01*
X144370676Y-115618607D01*
X144359287Y-115615681D01*
X144348125Y-115612348D01*
X144337190Y-115608606D01*
X144326483Y-115604456D01*
X144319472Y-115601463D01*
X144309131Y-115596653D01*
X144299081Y-115591474D01*
X144289324Y-115585926D01*
X144279859Y-115580008D01*
X144270685Y-115573721D01*
X144261804Y-115567065D01*
X144253214Y-115560040D01*
X144244917Y-115552645D01*
X144236911Y-115544882D01*
X144229197Y-115536749D01*
X144224217Y-115531122D01*
X144216997Y-115522403D01*
X144210081Y-115513376D01*
X144203470Y-115504039D01*
X144197164Y-115494393D01*
X144191162Y-115484439D01*
X144185466Y-115474175D01*
X144180074Y-115463602D01*
X144174987Y-115452720D01*
X144170205Y-115441528D01*
X144165728Y-115430028D01*
X144162912Y-115422189D01*
X144158940Y-115410204D01*
X144155359Y-115397969D01*
X144152168Y-115385486D01*
X144149368Y-115372753D01*
X144146959Y-115359771D01*
X144144940Y-115346541D01*
X144143312Y-115333061D01*
X144142075Y-115319332D01*
X144141229Y-115305355D01*
X144140773Y-115291128D01*
X144140686Y-115281505D01*
X144140877Y-115267625D01*
X144141450Y-115254011D01*
X144142406Y-115240663D01*
X144143743Y-115227581D01*
X144145463Y-115214765D01*
X144147564Y-115202216D01*
X144150048Y-115189933D01*
X144152914Y-115177916D01*
X144156161Y-115166165D01*
X144159791Y-115154680D01*
X144162424Y-115147172D01*
X144166621Y-115136096D01*
X144171154Y-115125307D01*
X144176021Y-115114806D01*
X144181223Y-115104593D01*
X144186760Y-115094668D01*
X144192632Y-115085030D01*
X144198838Y-115075680D01*
X144205380Y-115066617D01*
X144212256Y-115057843D01*
X144219468Y-115049355D01*
X144224461Y-115043857D01*
X144232151Y-115035840D01*
X144240106Y-115028184D01*
X144248328Y-115020888D01*
X144256816Y-115013953D01*
X144265570Y-115007378D01*
X144274590Y-115001164D01*
X144283877Y-114995311D01*
X144293430Y-114989818D01*
X144303248Y-114984686D01*
X144313333Y-114979915D01*
X144320205Y-114976934D01*
X144330720Y-114972788D01*
X144341477Y-114969049D01*
X144352473Y-114965718D01*
X144363710Y-114962795D01*
X144375188Y-114960280D01*
X144386906Y-114958173D01*
X144398864Y-114956473D01*
X144411063Y-114955182D01*
X144423502Y-114954298D01*
X144436182Y-114953822D01*
X144444769Y-114953731D01*
X144454990Y-114953849D01*
X144465139Y-114954204D01*
X144475215Y-114954794D01*
X144485217Y-114955620D01*
X144495147Y-114956683D01*
X144505004Y-114957982D01*
X144514788Y-114959517D01*
X144524499Y-114961288D01*
X144534136Y-114963295D01*
X144543701Y-114965538D01*
X144550037Y-114967165D01*
X144559504Y-114969775D01*
X144568945Y-114972660D01*
X144578360Y-114975820D01*
X144587750Y-114979255D01*
X144597114Y-114982964D01*
X144606452Y-114986948D01*
X144615764Y-114991207D01*
X144625050Y-114995741D01*
X144634311Y-115000550D01*
X144643546Y-115005633D01*
X144649688Y-115009175D01*
X144658856Y-115014722D01*
X144668041Y-115020558D01*
X144677243Y-115026681D01*
X144686462Y-115033091D01*
X144695698Y-115039790D01*
X144704952Y-115046776D01*
X144714223Y-115054049D01*
X144723511Y-115061610D01*
X144732816Y-115069459D01*
X144742138Y-115077596D01*
X144748362Y-115083180D01*
X144757691Y-115091755D01*
X144767084Y-115100625D01*
X144776542Y-115109792D01*
X144786064Y-115119256D01*
X144795650Y-115129015D01*
X144805301Y-115139071D01*
X144815016Y-115149423D01*
X144824795Y-115160071D01*
X144831351Y-115167334D01*
X144837935Y-115174729D01*
X144844547Y-115182256D01*
X144851189Y-115189914D01*
X144975264Y-115337681D01*
X144981625Y-115346455D01*
X144987792Y-115355189D01*
X144993766Y-115363886D01*
X144997002Y-115368700D01*
X145002403Y-115377143D01*
X145007860Y-115386025D01*
X145013202Y-115395190D01*
X145014099Y-115396788D01*
X145019284Y-115406286D01*
X145023849Y-115415545D01*
X145027794Y-115424566D01*
X145028509Y-115426341D01*
X145034127Y-115426341D01*
X145033592Y-115416282D01*
X145033211Y-115405886D01*
X145032982Y-115395155D01*
X145032905Y-115384087D01*
X145032905Y-115373397D01*
X145032905Y-115363246D01*
X145032905Y-115352484D01*
X145032905Y-115342566D01*
X145032905Y-115332380D01*
X145032905Y-115322123D01*
X145032905Y-115311796D01*
X145032905Y-115301400D01*
X145032905Y-115295427D01*
X145032905Y-114941031D01*
X145188000Y-114941031D01*
X145188000Y-115620514D01*
X145003840Y-115620514D01*
X144732487Y-115298358D01*
X144723090Y-115287468D01*
X144713768Y-115276964D01*
X144704520Y-115266845D01*
X144695346Y-115257112D01*
X144686247Y-115247764D01*
X144677223Y-115238801D01*
X144668273Y-115230224D01*
X144659397Y-115222032D01*
X144650596Y-115214226D01*
X144641869Y-115206805D01*
X144633216Y-115199770D01*
X144624638Y-115193120D01*
X144616134Y-115186855D01*
X144607705Y-115180976D01*
X144599350Y-115175483D01*
X144591070Y-115170375D01*
X144578634Y-115163304D01*
X144566057Y-115156928D01*
X144553338Y-115151248D01*
X144540477Y-115146263D01*
X144527475Y-115141974D01*
X144514331Y-115138381D01*
X144501045Y-115135483D01*
X144487618Y-115133280D01*
X144474049Y-115131773D01*
X144460338Y-115130962D01*
X144451119Y-115130807D01*
X144438048Y-115131168D01*
X144425488Y-115132250D01*
X144413438Y-115134053D01*
X144401900Y-115136578D01*
X144390873Y-115139823D01*
X144380356Y-115143791D01*
X144370351Y-115148479D01*
X144360856Y-115153888D01*
X144351872Y-115160019D01*
X144343399Y-115166871D01*
X144338034Y-115171840D01*
X144330483Y-115179748D01*
X144323675Y-115188175D01*
X144317609Y-115197122D01*
X144312286Y-115206588D01*
X144307706Y-115216573D01*
X144303868Y-115227078D01*
X144300773Y-115238103D01*
X144298421Y-115249647D01*
X144296812Y-115261710D01*
X144295945Y-115274293D01*
X144295780Y-115282971D01*
X144296139Y-115296947D01*
X144297214Y-115310391D01*
X144299007Y-115323302D01*
X144301516Y-115335681D01*
X144304743Y-115347528D01*
X144308686Y-115358843D01*
X144313347Y-115369625D01*
X144318724Y-115379874D01*
X144324818Y-115389591D01*
X144331630Y-115398776D01*
X144336569Y-115404604D01*
X144344401Y-115412766D01*
X144352692Y-115420126D01*
X144361442Y-115426682D01*
X144370652Y-115432436D01*
X144380322Y-115437387D01*
X144390450Y-115441535D01*
X144401038Y-115444880D01*
X144412086Y-115447423D01*
X144423593Y-115449162D01*
X144435559Y-115450099D01*
X144443792Y-115450277D01*
X144443792Y-115627597D01*
G37*
G36*
X145203631Y-114443752D02*
G01*
X145203461Y-114457074D01*
X145202953Y-114470202D01*
X145202105Y-114483137D01*
X145200918Y-114495879D01*
X145199391Y-114508428D01*
X145197526Y-114520783D01*
X145195321Y-114532946D01*
X145192778Y-114544915D01*
X145189895Y-114556691D01*
X145186672Y-114568273D01*
X145184336Y-114575888D01*
X145180568Y-114587108D01*
X145176499Y-114598053D01*
X145172130Y-114608723D01*
X145167460Y-114619119D01*
X145162490Y-114629240D01*
X145157219Y-114639086D01*
X145151648Y-114648657D01*
X145145776Y-114657953D01*
X145139604Y-114666975D01*
X145133131Y-114675722D01*
X145128648Y-114681401D01*
X145121694Y-114689668D01*
X145114478Y-114697618D01*
X145106999Y-114705250D01*
X145099259Y-114712565D01*
X145091257Y-114719561D01*
X145082993Y-114726240D01*
X145074467Y-114732601D01*
X145065680Y-114738645D01*
X145056630Y-114744371D01*
X145047318Y-114749779D01*
X145040965Y-114753208D01*
X145031191Y-114758015D01*
X145021193Y-114762453D01*
X145010972Y-114766522D01*
X145000528Y-114770221D01*
X144989860Y-114773551D01*
X144978970Y-114776512D01*
X144967856Y-114779104D01*
X144956518Y-114781326D01*
X144944958Y-114783180D01*
X144933174Y-114784664D01*
X144925194Y-114785448D01*
X144925194Y-114609593D01*
X144935401Y-114607708D01*
X144945230Y-114605165D01*
X144954681Y-114601966D01*
X144963754Y-114598110D01*
X144972449Y-114593597D01*
X144980767Y-114588427D01*
X144988707Y-114582600D01*
X144996269Y-114576117D01*
X145003453Y-114568976D01*
X145010259Y-114561179D01*
X145014587Y-114555616D01*
X145020654Y-114546830D01*
X145026125Y-114537692D01*
X145030998Y-114528203D01*
X145035275Y-114518361D01*
X145038955Y-114508167D01*
X145042039Y-114497621D01*
X145044525Y-114486723D01*
X145046415Y-114475473D01*
X145047708Y-114463871D01*
X145048404Y-114451917D01*
X145048537Y-114443752D01*
X145048135Y-114429732D01*
X145046931Y-114416249D01*
X145044924Y-114403303D01*
X145042114Y-114390893D01*
X145038501Y-114379020D01*
X145034085Y-114367683D01*
X145028867Y-114356883D01*
X145022846Y-114346620D01*
X145016021Y-114336893D01*
X145008394Y-114327704D01*
X145002863Y-114321875D01*
X144994044Y-114313713D01*
X144984714Y-114306353D01*
X144974873Y-114299797D01*
X144964521Y-114294043D01*
X144953658Y-114289092D01*
X144942285Y-114284944D01*
X144930400Y-114281599D01*
X144918004Y-114279056D01*
X144905098Y-114277317D01*
X144891680Y-114276380D01*
X144882452Y-114276202D01*
X144868700Y-114276616D01*
X144855472Y-114277859D01*
X144842768Y-114279931D01*
X144830588Y-114282831D01*
X144818932Y-114286559D01*
X144807799Y-114291117D01*
X144797190Y-114296503D01*
X144787105Y-114302717D01*
X144777544Y-114309761D01*
X144768507Y-114317632D01*
X144762773Y-114323341D01*
X144754741Y-114332469D01*
X144747500Y-114342177D01*
X144741048Y-114352464D01*
X144735387Y-114363332D01*
X144730515Y-114374778D01*
X144726434Y-114386805D01*
X144723142Y-114399411D01*
X144720641Y-114412596D01*
X144718929Y-114426361D01*
X144718008Y-114440706D01*
X144717832Y-114450591D01*
X144717832Y-114572957D01*
X144540023Y-114572957D01*
X144384441Y-114411268D01*
X144376701Y-114402178D01*
X144369236Y-114393225D01*
X144362047Y-114384409D01*
X144355131Y-114375731D01*
X144348491Y-114367190D01*
X144342125Y-114358786D01*
X144336035Y-114350520D01*
X144330219Y-114342392D01*
X144324479Y-114333874D01*
X144318739Y-114325172D01*
X144313000Y-114316288D01*
X144307260Y-114307221D01*
X144299444Y-114307221D01*
X144301451Y-114317853D01*
X144302684Y-114327856D01*
X144303397Y-114338377D01*
X144303596Y-114348009D01*
X144305428Y-114358084D01*
X144307016Y-114368648D01*
X144308359Y-114379700D01*
X144309458Y-114391240D01*
X144310313Y-114403269D01*
X144310923Y-114415787D01*
X144311290Y-114428792D01*
X144311404Y-114438867D01*
X144311412Y-114442287D01*
X144311412Y-114743194D01*
X144156318Y-114743194D01*
X144156318Y-114144066D01*
X144332173Y-114144066D01*
X144515599Y-114349475D01*
X144522310Y-114357199D01*
X144528675Y-114364923D01*
X144534161Y-114371945D01*
X144540367Y-114380165D01*
X144546624Y-114388605D01*
X144549793Y-114392950D01*
X144555048Y-114401204D01*
X144560198Y-114409759D01*
X144562738Y-114414199D01*
X144562952Y-114400853D01*
X144563596Y-114387743D01*
X144564670Y-114374870D01*
X144566172Y-114362232D01*
X144568104Y-114349831D01*
X144570466Y-114337666D01*
X144573256Y-114325737D01*
X144576476Y-114314044D01*
X144580126Y-114302587D01*
X144584204Y-114291367D01*
X144587162Y-114284018D01*
X144591892Y-114273221D01*
X144596922Y-114262720D01*
X144602253Y-114252515D01*
X144607885Y-114242607D01*
X144613817Y-114232995D01*
X144620049Y-114223679D01*
X144626582Y-114214659D01*
X144633416Y-114205936D01*
X144640550Y-114197509D01*
X144647984Y-114189378D01*
X144653108Y-114184122D01*
X144661032Y-114176511D01*
X144669236Y-114169247D01*
X144677719Y-114162331D01*
X144686481Y-114155763D01*
X144695522Y-114149543D01*
X144704842Y-114143670D01*
X144714441Y-114138146D01*
X144724320Y-114132969D01*
X144734477Y-114128139D01*
X144744913Y-114123658D01*
X144752026Y-114120863D01*
X144762900Y-114116935D01*
X144773996Y-114113393D01*
X144785317Y-114110237D01*
X144796860Y-114107468D01*
X144808626Y-114105085D01*
X144820616Y-114103089D01*
X144832829Y-114101479D01*
X144845266Y-114100255D01*
X144857925Y-114099418D01*
X144870808Y-114098967D01*
X144879521Y-114098881D01*
X144893146Y-114099098D01*
X144906543Y-114099749D01*
X144919713Y-114100833D01*
X144932655Y-114102350D01*
X144945370Y-114104302D01*
X144957857Y-114106687D01*
X144970117Y-114109505D01*
X144982149Y-114112757D01*
X144993953Y-114116443D01*
X145005530Y-114120563D01*
X145013122Y-114123550D01*
X145024231Y-114128356D01*
X145035026Y-114133522D01*
X145045508Y-114139049D01*
X145055677Y-114144936D01*
X145065532Y-114151185D01*
X145075074Y-114157794D01*
X145084303Y-114164763D01*
X145093218Y-114172093D01*
X145101820Y-114179784D01*
X145110108Y-114187835D01*
X145115459Y-114193403D01*
X145123212Y-114201991D01*
X145130626Y-114210900D01*
X145137701Y-114220132D01*
X145144436Y-114229685D01*
X145150833Y-114239560D01*
X145156890Y-114249758D01*
X145162608Y-114260277D01*
X145167987Y-114271118D01*
X145173027Y-114282282D01*
X145177727Y-114293767D01*
X145180672Y-114301603D01*
X145184775Y-114313601D01*
X145188475Y-114325875D01*
X145191770Y-114338423D01*
X145194663Y-114351245D01*
X145197151Y-114364343D01*
X145199237Y-114377715D01*
X145200918Y-114391362D01*
X145202196Y-114405284D01*
X145203071Y-114419481D01*
X145203541Y-114433952D01*
X145203631Y-114443752D01*
G37*
G36*
X145062947Y-113738135D02*
G01*
X145051089Y-113737806D01*
X145039694Y-113736821D01*
X145028764Y-113735179D01*
X145018297Y-113732880D01*
X145008293Y-113729924D01*
X144998753Y-113726311D01*
X144989677Y-113722041D01*
X144981065Y-113717115D01*
X144972916Y-113711531D01*
X144965231Y-113705291D01*
X144960365Y-113700766D01*
X144953556Y-113693544D01*
X144947416Y-113685894D01*
X144940272Y-113675025D01*
X144935696Y-113666372D01*
X144931789Y-113657290D01*
X144928552Y-113647779D01*
X144925984Y-113637839D01*
X144924087Y-113627469D01*
X144922859Y-113616670D01*
X144922300Y-113605441D01*
X144922263Y-113601603D01*
X144922598Y-113589976D01*
X144923603Y-113578817D01*
X144925277Y-113568126D01*
X144927621Y-113557903D01*
X144930635Y-113548147D01*
X144934319Y-113538860D01*
X144938672Y-113530041D01*
X144945519Y-113519010D01*
X144953556Y-113508811D01*
X144960365Y-113501708D01*
X144967741Y-113495160D01*
X144975581Y-113489257D01*
X144983884Y-113483998D01*
X144992651Y-113479382D01*
X145001882Y-113475411D01*
X145011576Y-113472084D01*
X145021734Y-113469400D01*
X145032356Y-113467361D01*
X145043441Y-113465966D01*
X145054990Y-113465214D01*
X145062947Y-113465071D01*
X145074594Y-113465393D01*
X145085811Y-113466359D01*
X145096598Y-113467969D01*
X145106957Y-113470223D01*
X145116886Y-113473121D01*
X145126385Y-113476663D01*
X145135456Y-113480849D01*
X145144097Y-113485679D01*
X145152309Y-113491153D01*
X145160091Y-113497271D01*
X145165041Y-113501708D01*
X145171937Y-113508811D01*
X145178155Y-113516382D01*
X145185391Y-113527205D01*
X145190026Y-113535869D01*
X145193983Y-113545000D01*
X145197262Y-113554599D01*
X145199862Y-113564666D01*
X145201784Y-113575201D01*
X145203028Y-113586204D01*
X145203593Y-113597675D01*
X145203631Y-113601603D01*
X145203292Y-113612975D01*
X145202274Y-113623917D01*
X145200578Y-113634430D01*
X145198204Y-113644513D01*
X145195152Y-113654168D01*
X145191421Y-113663393D01*
X145187012Y-113672188D01*
X145181924Y-113680555D01*
X145176158Y-113688491D01*
X145169714Y-113695999D01*
X145165041Y-113700766D01*
X145157545Y-113707444D01*
X145149619Y-113713465D01*
X145141264Y-113718830D01*
X145132480Y-113723537D01*
X145123267Y-113727588D01*
X145113624Y-113730982D01*
X145103552Y-113733719D01*
X145093050Y-113735799D01*
X145082119Y-113737222D01*
X145070759Y-113737989D01*
X145062947Y-113738135D01*
G37*
G36*
X144889124Y-112415050D02*
G01*
X144902640Y-112415720D01*
X144915915Y-112416836D01*
X144928949Y-112418399D01*
X144941744Y-112420408D01*
X144954297Y-112422864D01*
X144966611Y-112425766D01*
X144978683Y-112429115D01*
X144990516Y-112432911D01*
X145002108Y-112437152D01*
X145009702Y-112440228D01*
X145020866Y-112445169D01*
X145031733Y-112450466D01*
X145042304Y-112456120D01*
X145052578Y-112462130D01*
X145062557Y-112468496D01*
X145072239Y-112475219D01*
X145081625Y-112482298D01*
X145090715Y-112489733D01*
X145099508Y-112497525D01*
X145108005Y-112505673D01*
X145113505Y-112511303D01*
X145121437Y-112520028D01*
X145129022Y-112529074D01*
X145136258Y-112538443D01*
X145143147Y-112548134D01*
X145149687Y-112558147D01*
X145155881Y-112568482D01*
X145161726Y-112579138D01*
X145167224Y-112590117D01*
X145172373Y-112601418D01*
X145177176Y-112613041D01*
X145180184Y-112620968D01*
X145184374Y-112633084D01*
X145188152Y-112645437D01*
X145191518Y-112658026D01*
X145194472Y-112670851D01*
X145197014Y-112683912D01*
X145199143Y-112697209D01*
X145200860Y-112710742D01*
X145202166Y-112724512D01*
X145203059Y-112738517D01*
X145203539Y-112752759D01*
X145203631Y-112762385D01*
X145203536Y-112772191D01*
X145203035Y-112786692D01*
X145202105Y-112800944D01*
X145200745Y-112814948D01*
X145198956Y-112828702D01*
X145196738Y-112842208D01*
X145194090Y-112855464D01*
X145191013Y-112868471D01*
X145187507Y-112881230D01*
X145183572Y-112893739D01*
X145179207Y-112905999D01*
X145174458Y-112917926D01*
X145169369Y-112929527D01*
X145163942Y-112940801D01*
X145158175Y-112951749D01*
X145152069Y-112962371D01*
X145145624Y-112972666D01*
X145138840Y-112982635D01*
X145131717Y-112992278D01*
X145124254Y-113001595D01*
X145116453Y-113010585D01*
X145111063Y-113016397D01*
X145102657Y-113024776D01*
X145093924Y-113032786D01*
X145084865Y-113040427D01*
X145075480Y-113047698D01*
X145065768Y-113054601D01*
X145055731Y-113061134D01*
X145045366Y-113067297D01*
X145034676Y-113073092D01*
X145023659Y-113078517D01*
X145012316Y-113083573D01*
X145004573Y-113086739D01*
X144992719Y-113091104D01*
X144980602Y-113095040D01*
X144968224Y-113098546D01*
X144955583Y-113101623D01*
X144942681Y-113104270D01*
X144929517Y-113106488D01*
X144916091Y-113108277D01*
X144902403Y-113109637D01*
X144888454Y-113110567D01*
X144874242Y-113111068D01*
X144864622Y-113111163D01*
X144852762Y-113111010D01*
X144840873Y-113110549D01*
X144828956Y-113109781D01*
X144817010Y-113108706D01*
X144805035Y-113107323D01*
X144793032Y-113105634D01*
X144781000Y-113103637D01*
X144768940Y-113101333D01*
X144756851Y-113098721D01*
X144744733Y-113095803D01*
X144732587Y-113092577D01*
X144720412Y-113089044D01*
X144708208Y-113085204D01*
X144695976Y-113081057D01*
X144683715Y-113076602D01*
X144671426Y-113071840D01*
X144659041Y-113066782D01*
X144646494Y-113061437D01*
X144633785Y-113055806D01*
X144620913Y-113049889D01*
X144607880Y-113043686D01*
X144594684Y-113037196D01*
X144581326Y-113030420D01*
X144567806Y-113023358D01*
X144554123Y-113016010D01*
X144540279Y-113008375D01*
X144526272Y-113000455D01*
X144512103Y-112992248D01*
X144497772Y-112983754D01*
X144483279Y-112974975D01*
X144468623Y-112965909D01*
X144453806Y-112956558D01*
X144156318Y-112769468D01*
X144156318Y-112568212D01*
X144507295Y-112793403D01*
X144517207Y-112799607D01*
X144526703Y-112805579D01*
X144535783Y-112811320D01*
X144544446Y-112816828D01*
X144552693Y-112822104D01*
X144563041Y-112828779D01*
X144572648Y-112835042D01*
X144581516Y-112840892D01*
X144589642Y-112846330D01*
X144591558Y-112847625D01*
X144600659Y-112853740D01*
X144609032Y-112859413D01*
X144618120Y-112865638D01*
X144626160Y-112871228D01*
X144634216Y-112876947D01*
X144637232Y-112879133D01*
X144645597Y-112885590D01*
X144653821Y-112891901D01*
X144661168Y-112897451D01*
X144661168Y-112883285D01*
X144652557Y-112877780D01*
X144644281Y-112871798D01*
X144636338Y-112865339D01*
X144628729Y-112858403D01*
X144621454Y-112850989D01*
X144614513Y-112843099D01*
X144611831Y-112839810D01*
X144604675Y-112830962D01*
X144598974Y-112822947D01*
X144593512Y-112814347D01*
X144588289Y-112805163D01*
X144583304Y-112795395D01*
X144578557Y-112785042D01*
X144577637Y-112782901D01*
X144573344Y-112771711D01*
X144570476Y-112762385D01*
X144703422Y-112762385D01*
X144703836Y-112776642D01*
X144705079Y-112790380D01*
X144707150Y-112803598D01*
X144710051Y-112816297D01*
X144713779Y-112828477D01*
X144718337Y-112840137D01*
X144723723Y-112851277D01*
X144729937Y-112861898D01*
X144736981Y-112872000D01*
X144744852Y-112881582D01*
X144750561Y-112887681D01*
X144759667Y-112896193D01*
X144769311Y-112903867D01*
X144779491Y-112910704D01*
X144790208Y-112916704D01*
X144801462Y-112921867D01*
X144813252Y-112926192D01*
X144825579Y-112929681D01*
X144838442Y-112932332D01*
X144851842Y-112934146D01*
X144865779Y-112935122D01*
X144875369Y-112935309D01*
X144889882Y-112934896D01*
X144903836Y-112933660D01*
X144917233Y-112931599D01*
X144930071Y-112928714D01*
X144942352Y-112925005D01*
X144954074Y-112920471D01*
X144965238Y-112915113D01*
X144975844Y-112908930D01*
X144985892Y-112901924D01*
X144995382Y-112894093D01*
X145001398Y-112888414D01*
X145009822Y-112879296D01*
X145017418Y-112869621D01*
X145024185Y-112859387D01*
X145030123Y-112848595D01*
X145035233Y-112837245D01*
X145039514Y-112825336D01*
X145042967Y-112812870D01*
X145045591Y-112799845D01*
X145047386Y-112786263D01*
X145048353Y-112772122D01*
X145048537Y-112762385D01*
X145048123Y-112748134D01*
X145046880Y-112734415D01*
X145044808Y-112721229D01*
X145041908Y-112708575D01*
X145038179Y-112696453D01*
X145033622Y-112684864D01*
X145028236Y-112673807D01*
X145022021Y-112663283D01*
X145014978Y-112653291D01*
X145007106Y-112643831D01*
X145001398Y-112637821D01*
X144992280Y-112629397D01*
X144982605Y-112621801D01*
X144972371Y-112615034D01*
X144961579Y-112609095D01*
X144950229Y-112603986D01*
X144938320Y-112599705D01*
X144925854Y-112596252D01*
X144912829Y-112593628D01*
X144899247Y-112591833D01*
X144885106Y-112590866D01*
X144875369Y-112590682D01*
X144860819Y-112591096D01*
X144846844Y-112592339D01*
X144833444Y-112594411D01*
X144820620Y-112597311D01*
X144808371Y-112601040D01*
X144796698Y-112605597D01*
X144785599Y-112610983D01*
X144775076Y-112617197D01*
X144765129Y-112624241D01*
X144755756Y-112632113D01*
X144749828Y-112637821D01*
X144741535Y-112646925D01*
X144734057Y-112656563D01*
X144727395Y-112666732D01*
X144721549Y-112677434D01*
X144716519Y-112688668D01*
X144712304Y-112700435D01*
X144708905Y-112712734D01*
X144706322Y-112725565D01*
X144704555Y-112738929D01*
X144703603Y-112752825D01*
X144703422Y-112762385D01*
X144570476Y-112762385D01*
X144570435Y-112762252D01*
X144567990Y-112752343D01*
X144566011Y-112741984D01*
X144564498Y-112731174D01*
X144563451Y-112719914D01*
X144562869Y-112708204D01*
X144562738Y-112699126D01*
X144562937Y-112687363D01*
X144563536Y-112675799D01*
X144564535Y-112664431D01*
X144565932Y-112653261D01*
X144567729Y-112642289D01*
X144569925Y-112631514D01*
X144572520Y-112620937D01*
X144575515Y-112610557D01*
X144578909Y-112600375D01*
X144582702Y-112590390D01*
X144585452Y-112583843D01*
X144589868Y-112574176D01*
X144594597Y-112564775D01*
X144599640Y-112555640D01*
X144604996Y-112546772D01*
X144610665Y-112538169D01*
X144616648Y-112529833D01*
X144622944Y-112521763D01*
X144629553Y-112513959D01*
X144636476Y-112506421D01*
X144643713Y-112499150D01*
X144648711Y-112494450D01*
X144656464Y-112487587D01*
X144664516Y-112481012D01*
X144672870Y-112474724D01*
X144681524Y-112468725D01*
X144690478Y-112463012D01*
X144699733Y-112457588D01*
X144709289Y-112452451D01*
X144719145Y-112447601D01*
X144729301Y-112443040D01*
X144739759Y-112438766D01*
X144746897Y-112436076D01*
X144757779Y-112432279D01*
X144768902Y-112428855D01*
X144780265Y-112425804D01*
X144791868Y-112423127D01*
X144803712Y-112420824D01*
X144815796Y-112418894D01*
X144828121Y-112417338D01*
X144840686Y-112416155D01*
X144853492Y-112415346D01*
X144866538Y-112414910D01*
X144875369Y-112414827D01*
X144889124Y-112415050D01*
G37*
G36*
X144443792Y-112270724D02*
G01*
X144431037Y-112270245D01*
X144418510Y-112269358D01*
X144406210Y-112268064D01*
X144394138Y-112266362D01*
X144382293Y-112264252D01*
X144370676Y-112261734D01*
X144359287Y-112258808D01*
X144348125Y-112255474D01*
X144337190Y-112251732D01*
X144326483Y-112247583D01*
X144319472Y-112244590D01*
X144309131Y-112239780D01*
X144299081Y-112234601D01*
X144289324Y-112229052D01*
X144279859Y-112223135D01*
X144270685Y-112216848D01*
X144261804Y-112210192D01*
X144253214Y-112203166D01*
X144244917Y-112195772D01*
X144236911Y-112188008D01*
X144229197Y-112179875D01*
X144224217Y-112174248D01*
X144216997Y-112165529D01*
X144210081Y-112156502D01*
X144203470Y-112147165D01*
X144197164Y-112137520D01*
X144191162Y-112127565D01*
X144185466Y-112117301D01*
X144180074Y-112106728D01*
X144174987Y-112095846D01*
X144170205Y-112084655D01*
X144165728Y-112073154D01*
X144162912Y-112065316D01*
X144158940Y-112053330D01*
X144155359Y-112041095D01*
X144152168Y-112028612D01*
X144149368Y-112015879D01*
X144146959Y-112002898D01*
X144144940Y-111989667D01*
X144143312Y-111976187D01*
X144142075Y-111962459D01*
X144141229Y-111948481D01*
X144140773Y-111934254D01*
X144140686Y-111924632D01*
X144140877Y-111910751D01*
X144141450Y-111897137D01*
X144142406Y-111883789D01*
X144143743Y-111870707D01*
X144145463Y-111857892D01*
X144147564Y-111845342D01*
X144150048Y-111833059D01*
X144152914Y-111821042D01*
X144156161Y-111809291D01*
X144159791Y-111797807D01*
X144162424Y-111790298D01*
X144166621Y-111779222D01*
X144171154Y-111768434D01*
X144176021Y-111757933D01*
X144181223Y-111747720D01*
X144186760Y-111737794D01*
X144192632Y-111728156D01*
X144198838Y-111718806D01*
X144205380Y-111709744D01*
X144212256Y-111700969D01*
X144219468Y-111692482D01*
X144224461Y-111686983D01*
X144232151Y-111678966D01*
X144240106Y-111671310D01*
X144248328Y-111664014D01*
X144256816Y-111657079D01*
X144265570Y-111650504D01*
X144274590Y-111644290D01*
X144283877Y-111638437D01*
X144293430Y-111632945D01*
X144303248Y-111627813D01*
X144313333Y-111623041D01*
X144320205Y-111620061D01*
X144330720Y-111615914D01*
X144341477Y-111612175D01*
X144352473Y-111608844D01*
X144363710Y-111605921D01*
X144375188Y-111603406D01*
X144386906Y-111601299D01*
X144398864Y-111599599D01*
X144411063Y-111598308D01*
X144423502Y-111597424D01*
X144436182Y-111596948D01*
X144444769Y-111596858D01*
X144454990Y-111596976D01*
X144465139Y-111597330D01*
X144475215Y-111597920D01*
X144485217Y-111598747D01*
X144495147Y-111599809D01*
X144505004Y-111601108D01*
X144514788Y-111602643D01*
X144524499Y-111604414D01*
X144534136Y-111606421D01*
X144543701Y-111608664D01*
X144550037Y-111610291D01*
X144559504Y-111612901D01*
X144568945Y-111615787D01*
X144578360Y-111618946D01*
X144587750Y-111622381D01*
X144597114Y-111626091D01*
X144606452Y-111630075D01*
X144615764Y-111634334D01*
X144625050Y-111638867D01*
X144634311Y-111643676D01*
X144643546Y-111648759D01*
X144649688Y-111652301D01*
X144658856Y-111657849D01*
X144668041Y-111663684D01*
X144677243Y-111669807D01*
X144686462Y-111676218D01*
X144695698Y-111682916D01*
X144704952Y-111689902D01*
X144714223Y-111697175D01*
X144723511Y-111704737D01*
X144732816Y-111712586D01*
X144742138Y-111720722D01*
X144748362Y-111726306D01*
X144757691Y-111734881D01*
X144767084Y-111743752D01*
X144776542Y-111752919D01*
X144786064Y-111762382D01*
X144795650Y-111772141D01*
X144805301Y-111782197D01*
X144815016Y-111792549D01*
X144824795Y-111803197D01*
X144831351Y-111810460D01*
X144837935Y-111817856D01*
X144844547Y-111825382D01*
X144851189Y-111833041D01*
X144975264Y-111980807D01*
X144981625Y-111989581D01*
X144987792Y-111998316D01*
X144993766Y-112007012D01*
X144997002Y-112011826D01*
X145002403Y-112020269D01*
X145007860Y-112029152D01*
X145013202Y-112038316D01*
X145014099Y-112039914D01*
X145019284Y-112049412D01*
X145023849Y-112058671D01*
X145027794Y-112067692D01*
X145028509Y-112069468D01*
X145034127Y-112069468D01*
X145033592Y-112059408D01*
X145033211Y-112049012D01*
X145032982Y-112038281D01*
X145032905Y-112027214D01*
X145032905Y-112016523D01*
X145032905Y-112006372D01*
X145032905Y-111995610D01*
X145032905Y-111985692D01*
X145032905Y-111975506D01*
X145032905Y-111965249D01*
X145032905Y-111954923D01*
X145032905Y-111944526D01*
X145032905Y-111938553D01*
X145032905Y-111584157D01*
X145188000Y-111584157D01*
X145188000Y-112263641D01*
X145003840Y-112263641D01*
X144732487Y-111941484D01*
X144723090Y-111930595D01*
X144713768Y-111920090D01*
X144704520Y-111909971D01*
X144695346Y-111900238D01*
X144686247Y-111890890D01*
X144677223Y-111881927D01*
X144668273Y-111873350D01*
X144659397Y-111865158D01*
X144650596Y-111857352D01*
X144641869Y-111849931D01*
X144633216Y-111842896D01*
X144624638Y-111836246D01*
X144616134Y-111829982D01*
X144607705Y-111824103D01*
X144599350Y-111818609D01*
X144591070Y-111813501D01*
X144578634Y-111806430D01*
X144566057Y-111800054D01*
X144553338Y-111794374D01*
X144540477Y-111789390D01*
X144527475Y-111785101D01*
X144514331Y-111781507D01*
X144501045Y-111778609D01*
X144487618Y-111776407D01*
X144474049Y-111774900D01*
X144460338Y-111774088D01*
X144451119Y-111773934D01*
X144438048Y-111774294D01*
X144425488Y-111775376D01*
X144413438Y-111777180D01*
X144401900Y-111779704D01*
X144390873Y-111782950D01*
X144380356Y-111786917D01*
X144370351Y-111791605D01*
X144360856Y-111797015D01*
X144351872Y-111803146D01*
X144343399Y-111809998D01*
X144338034Y-111814967D01*
X144330483Y-111822874D01*
X144323675Y-111831301D01*
X144317609Y-111840248D01*
X144312286Y-111849714D01*
X144307706Y-111859700D01*
X144303868Y-111870205D01*
X144300773Y-111881229D01*
X144298421Y-111892773D01*
X144296812Y-111904837D01*
X144295945Y-111917420D01*
X144295780Y-111926097D01*
X144296139Y-111940073D01*
X144297214Y-111953517D01*
X144299007Y-111966429D01*
X144301516Y-111978808D01*
X144304743Y-111990654D01*
X144308686Y-112001969D01*
X144313347Y-112012751D01*
X144318724Y-112023000D01*
X144324818Y-112032718D01*
X144331630Y-112041903D01*
X144336569Y-112047730D01*
X144344401Y-112055892D01*
X144352692Y-112063252D01*
X144361442Y-112069808D01*
X144370652Y-112075562D01*
X144380322Y-112080513D01*
X144390450Y-112084661D01*
X144401038Y-112088006D01*
X144412086Y-112090549D01*
X144423593Y-112092288D01*
X144435559Y-112093225D01*
X144443792Y-112093403D01*
X144443792Y-112270724D01*
G37*
G36*
X144443792Y-111431505D02*
G01*
X144431037Y-111431027D01*
X144418510Y-111430140D01*
X144406210Y-111428846D01*
X144394138Y-111427143D01*
X144382293Y-111425033D01*
X144370676Y-111422515D01*
X144359287Y-111419589D01*
X144348125Y-111416255D01*
X144337190Y-111412514D01*
X144326483Y-111408364D01*
X144319472Y-111405371D01*
X144309131Y-111400561D01*
X144299081Y-111395382D01*
X144289324Y-111389834D01*
X144279859Y-111383916D01*
X144270685Y-111377629D01*
X144261804Y-111370973D01*
X144253214Y-111363948D01*
X144244917Y-111356553D01*
X144236911Y-111348790D01*
X144229197Y-111340657D01*
X144224217Y-111335029D01*
X144216997Y-111326311D01*
X144210081Y-111317284D01*
X144203470Y-111307947D01*
X144197164Y-111298301D01*
X144191162Y-111288347D01*
X144185466Y-111278083D01*
X144180074Y-111267510D01*
X144174987Y-111256627D01*
X144170205Y-111245436D01*
X144165728Y-111233936D01*
X144162912Y-111226097D01*
X144158940Y-111214112D01*
X144155359Y-111201877D01*
X144152168Y-111189393D01*
X144149368Y-111176661D01*
X144146959Y-111163679D01*
X144144940Y-111150449D01*
X144143312Y-111136969D01*
X144142075Y-111123240D01*
X144141229Y-111109263D01*
X144140773Y-111095036D01*
X144140686Y-111085413D01*
X144140877Y-111071533D01*
X144141450Y-111057919D01*
X144142406Y-111044571D01*
X144143743Y-111031489D01*
X144145463Y-111018673D01*
X144147564Y-111006124D01*
X144150048Y-110993841D01*
X144152914Y-110981824D01*
X144156161Y-110970073D01*
X144159791Y-110958588D01*
X144162424Y-110951080D01*
X144166621Y-110940004D01*
X144171154Y-110929215D01*
X144176021Y-110918714D01*
X144181223Y-110908501D01*
X144186760Y-110898576D01*
X144192632Y-110888938D01*
X144198838Y-110879588D01*
X144205380Y-110870525D01*
X144212256Y-110861750D01*
X144219468Y-110853263D01*
X144224461Y-110847765D01*
X144232151Y-110839748D01*
X144240106Y-110832091D01*
X144248328Y-110824796D01*
X144256816Y-110817860D01*
X144265570Y-110811286D01*
X144274590Y-110805072D01*
X144283877Y-110799219D01*
X144293430Y-110793726D01*
X144303248Y-110788594D01*
X144313333Y-110783823D01*
X144320205Y-110780842D01*
X144330720Y-110776696D01*
X144341477Y-110772957D01*
X144352473Y-110769626D01*
X144363710Y-110766703D01*
X144375188Y-110764188D01*
X144386906Y-110762081D01*
X144398864Y-110760381D01*
X144411063Y-110759089D01*
X144423502Y-110758206D01*
X144436182Y-110757730D01*
X144444769Y-110757639D01*
X144454990Y-110757757D01*
X144465139Y-110758112D01*
X144475215Y-110758702D01*
X144485217Y-110759528D01*
X144495147Y-110760591D01*
X144505004Y-110761890D01*
X144514788Y-110763425D01*
X144524499Y-110765196D01*
X144534136Y-110767203D01*
X144543701Y-110769446D01*
X144550037Y-110771073D01*
X144559504Y-110773683D01*
X144568945Y-110776568D01*
X144578360Y-110779728D01*
X144587750Y-110783163D01*
X144597114Y-110786872D01*
X144606452Y-110790856D01*
X144615764Y-110795115D01*
X144625050Y-110799649D01*
X144634311Y-110804458D01*
X144643546Y-110809541D01*
X144649688Y-110813082D01*
X144658856Y-110818630D01*
X144668041Y-110824465D01*
X144677243Y-110830588D01*
X144686462Y-110836999D01*
X144695698Y-110843697D01*
X144704952Y-110850683D01*
X144714223Y-110857957D01*
X144723511Y-110865518D01*
X144732816Y-110873367D01*
X144742138Y-110881504D01*
X144748362Y-110887088D01*
X144757691Y-110895663D01*
X144767084Y-110904533D01*
X144776542Y-110913700D01*
X144786064Y-110923163D01*
X144795650Y-110932923D01*
X144805301Y-110942979D01*
X144815016Y-110953331D01*
X144824795Y-110963979D01*
X144831351Y-110971242D01*
X144837935Y-110978637D01*
X144844547Y-110986164D01*
X144851189Y-110993822D01*
X144975264Y-111141589D01*
X144981625Y-111150362D01*
X144987792Y-111159097D01*
X144993766Y-111167793D01*
X144997002Y-111172608D01*
X145002403Y-111181051D01*
X145007860Y-111189933D01*
X145013202Y-111199098D01*
X145014099Y-111200696D01*
X145019284Y-111210194D01*
X145023849Y-111219453D01*
X145027794Y-111228474D01*
X145028509Y-111230249D01*
X145034127Y-111230249D01*
X145033592Y-111220189D01*
X145033211Y-111209794D01*
X145032982Y-111199062D01*
X145032905Y-111187995D01*
X145032905Y-111177305D01*
X145032905Y-111167153D01*
X145032905Y-111156392D01*
X145032905Y-111146474D01*
X145032905Y-111136288D01*
X145032905Y-111126031D01*
X145032905Y-111115704D01*
X145032905Y-111105308D01*
X145032905Y-111099335D01*
X145032905Y-110744939D01*
X145188000Y-110744939D01*
X145188000Y-111424422D01*
X145003840Y-111424422D01*
X144732487Y-111102266D01*
X144723090Y-111091376D01*
X144713768Y-111080872D01*
X144704520Y-111070753D01*
X144695346Y-111061019D01*
X144686247Y-111051671D01*
X144677223Y-111042709D01*
X144668273Y-111034132D01*
X144659397Y-111025940D01*
X144650596Y-111018134D01*
X144641869Y-111010713D01*
X144633216Y-111003678D01*
X144624638Y-110997028D01*
X144616134Y-110990763D01*
X144607705Y-110984884D01*
X144599350Y-110979391D01*
X144591070Y-110974283D01*
X144578634Y-110967212D01*
X144566057Y-110960836D01*
X144553338Y-110955156D01*
X144540477Y-110950171D01*
X144527475Y-110945882D01*
X144514331Y-110942289D01*
X144501045Y-110939391D01*
X144487618Y-110937188D01*
X144474049Y-110935681D01*
X144460338Y-110934870D01*
X144451119Y-110934715D01*
X144438048Y-110935076D01*
X144425488Y-110936158D01*
X144413438Y-110937961D01*
X144401900Y-110940486D01*
X144390873Y-110943731D01*
X144380356Y-110947698D01*
X144370351Y-110952387D01*
X144360856Y-110957796D01*
X144351872Y-110963927D01*
X144343399Y-110970779D01*
X144338034Y-110975748D01*
X144330483Y-110983656D01*
X144323675Y-110992083D01*
X144317609Y-111001029D01*
X144312286Y-111010496D01*
X144307706Y-111020481D01*
X144303868Y-111030986D01*
X144300773Y-111042011D01*
X144298421Y-111053555D01*
X144296812Y-111065618D01*
X144295945Y-111078201D01*
X144295780Y-111086879D01*
X144296139Y-111100855D01*
X144297214Y-111114299D01*
X144299007Y-111127210D01*
X144301516Y-111139589D01*
X144304743Y-111151436D01*
X144308686Y-111162750D01*
X144313347Y-111173532D01*
X144318724Y-111183782D01*
X144324818Y-111193499D01*
X144331630Y-111202684D01*
X144336569Y-111208512D01*
X144344401Y-111216674D01*
X144352692Y-111224033D01*
X144361442Y-111230590D01*
X144370652Y-111236344D01*
X144380322Y-111241295D01*
X144390450Y-111245443D01*
X144401038Y-111248788D01*
X144412086Y-111251330D01*
X144423593Y-111253070D01*
X144435559Y-111254007D01*
X144443792Y-111254185D01*
X144443792Y-111431505D01*
G37*
G36*
X144904060Y-109908617D02*
G01*
X144916678Y-109909248D01*
X144929099Y-109910300D01*
X144941322Y-109911773D01*
X144953347Y-109913666D01*
X144965176Y-109915980D01*
X144976806Y-109918715D01*
X144988239Y-109921871D01*
X144999475Y-109925447D01*
X145010513Y-109929444D01*
X145017762Y-109932343D01*
X145028422Y-109937011D01*
X145038785Y-109942040D01*
X145048852Y-109947429D01*
X145058623Y-109953180D01*
X145068098Y-109959291D01*
X145077276Y-109965762D01*
X145086159Y-109972594D01*
X145094745Y-109979787D01*
X145103034Y-109987340D01*
X145111028Y-109995254D01*
X145116192Y-110000731D01*
X145123681Y-110009176D01*
X145130852Y-110017936D01*
X145137706Y-110027008D01*
X145144242Y-110036394D01*
X145150460Y-110046093D01*
X145156361Y-110056106D01*
X145161943Y-110066432D01*
X145167208Y-110077072D01*
X145172156Y-110088025D01*
X145176785Y-110099291D01*
X145179695Y-110106976D01*
X145183711Y-110118687D01*
X145187332Y-110130647D01*
X145190557Y-110142856D01*
X145193388Y-110155314D01*
X145195824Y-110168020D01*
X145197865Y-110180976D01*
X145199510Y-110194181D01*
X145200761Y-110207635D01*
X145201617Y-110221338D01*
X145202078Y-110235290D01*
X145202166Y-110244729D01*
X145201975Y-110258856D01*
X145201401Y-110272750D01*
X145200446Y-110286413D01*
X145199109Y-110299844D01*
X145197389Y-110313043D01*
X145195288Y-110326011D01*
X145192804Y-110338746D01*
X145189938Y-110351250D01*
X145186690Y-110363522D01*
X145183060Y-110375561D01*
X145180428Y-110383459D01*
X145176141Y-110395018D01*
X145171524Y-110406245D01*
X145166576Y-110417143D01*
X145161297Y-110427709D01*
X145155688Y-110437945D01*
X145149748Y-110447851D01*
X145143477Y-110457425D01*
X145136876Y-110466670D01*
X145129945Y-110475583D01*
X145122683Y-110484167D01*
X145117658Y-110489705D01*
X145109862Y-110497685D01*
X145101769Y-110505321D01*
X145093381Y-110512614D01*
X145084696Y-110519564D01*
X145075715Y-110526170D01*
X145066438Y-110532432D01*
X145056865Y-110538351D01*
X145046995Y-110543927D01*
X145036829Y-110549159D01*
X145026367Y-110554048D01*
X145019228Y-110557116D01*
X145008308Y-110561394D01*
X144997166Y-110565250D01*
X144985800Y-110568686D01*
X144974211Y-110571702D01*
X144962398Y-110574296D01*
X144950363Y-110576470D01*
X144938104Y-110578223D01*
X144925622Y-110579556D01*
X144912916Y-110580467D01*
X144899988Y-110580958D01*
X144891244Y-110581052D01*
X144470414Y-110581052D01*
X144457343Y-110580841D01*
X144444508Y-110580210D01*
X144431909Y-110579158D01*
X144419547Y-110577686D01*
X144407420Y-110575792D01*
X144395530Y-110573478D01*
X144383875Y-110570743D01*
X144372457Y-110567588D01*
X144361275Y-110564011D01*
X144350330Y-110560014D01*
X144343163Y-110557116D01*
X144332635Y-110552456D01*
X144322389Y-110547453D01*
X144312428Y-110542106D01*
X144302749Y-110536416D01*
X144293354Y-110530383D01*
X144284242Y-110524006D01*
X144275413Y-110517285D01*
X144266868Y-110510221D01*
X144258606Y-110502814D01*
X144250628Y-110495063D01*
X144245466Y-110489705D01*
X144237986Y-110481342D01*
X144230840Y-110472649D01*
X144224030Y-110463625D01*
X144217554Y-110454271D01*
X144211413Y-110444586D01*
X144205607Y-110434570D01*
X144200136Y-110424224D01*
X144195000Y-110413547D01*
X144190198Y-110402540D01*
X144185732Y-110391202D01*
X144182940Y-110383459D01*
X144179012Y-110371574D01*
X144175470Y-110359457D01*
X144172314Y-110347108D01*
X144169545Y-110334527D01*
X144167162Y-110321714D01*
X144165166Y-110308669D01*
X144163556Y-110295393D01*
X144162332Y-110281885D01*
X144161495Y-110268145D01*
X144161044Y-110254173D01*
X144160958Y-110244729D01*
X144314343Y-110244729D01*
X144314714Y-110258208D01*
X144315828Y-110271168D01*
X144317685Y-110283608D01*
X144320285Y-110295528D01*
X144323627Y-110306929D01*
X144327712Y-110317810D01*
X144332540Y-110328172D01*
X144338111Y-110338015D01*
X144344424Y-110347338D01*
X144351480Y-110356141D01*
X144356597Y-110361722D01*
X144364777Y-110369491D01*
X144373473Y-110376496D01*
X144382683Y-110382738D01*
X144392409Y-110388214D01*
X144402650Y-110392927D01*
X144413406Y-110396875D01*
X144424678Y-110400060D01*
X144436464Y-110402480D01*
X144448766Y-110404135D01*
X144461583Y-110405027D01*
X144470414Y-110405197D01*
X144780114Y-110405197D01*
X144464796Y-110084262D01*
X144581545Y-110084262D01*
X144898083Y-110405197D01*
X144910532Y-110404297D01*
X144922509Y-110402698D01*
X144934014Y-110400399D01*
X144945047Y-110397400D01*
X144955607Y-110393701D01*
X144965695Y-110389303D01*
X144975310Y-110384205D01*
X144984454Y-110378406D01*
X144993125Y-110371909D01*
X145001324Y-110364711D01*
X145006527Y-110359523D01*
X145013816Y-110351210D01*
X145020389Y-110342390D01*
X145026244Y-110333064D01*
X145031383Y-110323231D01*
X145035804Y-110312891D01*
X145039508Y-110302044D01*
X145042496Y-110290691D01*
X145044766Y-110278832D01*
X145046320Y-110266466D01*
X145047156Y-110253593D01*
X145047316Y-110244729D01*
X145046944Y-110231253D01*
X145045830Y-110218300D01*
X145043973Y-110205870D01*
X145041374Y-110193965D01*
X145038031Y-110182583D01*
X145033946Y-110171726D01*
X145029118Y-110161391D01*
X145023548Y-110151581D01*
X145017234Y-110142295D01*
X145010178Y-110133532D01*
X145005062Y-110127981D01*
X144996881Y-110120168D01*
X144988186Y-110113123D01*
X144978975Y-110106847D01*
X144969250Y-110101340D01*
X144959008Y-110096601D01*
X144948252Y-110092630D01*
X144936981Y-110089428D01*
X144925194Y-110086994D01*
X144912892Y-110085329D01*
X144900075Y-110084433D01*
X144891244Y-110084262D01*
X144581545Y-110084262D01*
X144464796Y-110084262D01*
X144452129Y-110085163D01*
X144439955Y-110086769D01*
X144428275Y-110089079D01*
X144417089Y-110092093D01*
X144406396Y-110095811D01*
X144396198Y-110100233D01*
X144386493Y-110105359D01*
X144377281Y-110111190D01*
X144368564Y-110117724D01*
X144360340Y-110124963D01*
X144355131Y-110130179D01*
X144347842Y-110138449D01*
X144341270Y-110147230D01*
X144335414Y-110156521D01*
X144330276Y-110166324D01*
X144325854Y-110176637D01*
X144322150Y-110187461D01*
X144319163Y-110198796D01*
X144316892Y-110210642D01*
X144315339Y-110222999D01*
X144314502Y-110235867D01*
X144314343Y-110244729D01*
X144160958Y-110244729D01*
X144161152Y-110230605D01*
X144161731Y-110216717D01*
X144162697Y-110203065D01*
X144164050Y-110189649D01*
X144165788Y-110176469D01*
X144167914Y-110163525D01*
X144170425Y-110150818D01*
X144173323Y-110138346D01*
X144176608Y-110126111D01*
X144180278Y-110114112D01*
X144182940Y-110106244D01*
X144187183Y-110094644D01*
X144191762Y-110083383D01*
X144196675Y-110072462D01*
X144201922Y-110061879D01*
X144207505Y-110051636D01*
X144213423Y-110041732D01*
X144219675Y-110032167D01*
X144226263Y-110022942D01*
X144233185Y-110014055D01*
X144240442Y-110005508D01*
X144245466Y-109999998D01*
X144253256Y-109991974D01*
X144261329Y-109984299D01*
X144269685Y-109976971D01*
X144278325Y-109969990D01*
X144287248Y-109963358D01*
X144296454Y-109957073D01*
X144305944Y-109951136D01*
X144315717Y-109945547D01*
X144325773Y-109940306D01*
X144336113Y-109935412D01*
X144343163Y-109932343D01*
X144353952Y-109928065D01*
X144364976Y-109924208D01*
X144376237Y-109920772D01*
X144387734Y-109917757D01*
X144399467Y-109915162D01*
X144411436Y-109912988D01*
X144423641Y-109911235D01*
X144436083Y-109909903D01*
X144448760Y-109908991D01*
X144461674Y-109908500D01*
X144470414Y-109908407D01*
X144891244Y-109908407D01*
X144904060Y-109908617D01*
G37*
G36*
X144406422Y-108777318D02*
G01*
X144515843Y-108777318D01*
X144515843Y-108764618D01*
X144505119Y-108763579D01*
X144494837Y-108762022D01*
X144484998Y-108759944D01*
X144472566Y-108756367D01*
X144460921Y-108751865D01*
X144450061Y-108746440D01*
X144439988Y-108740092D01*
X144430701Y-108732820D01*
X144424252Y-108726760D01*
X144416410Y-108717902D01*
X144409613Y-108708304D01*
X144403862Y-108697966D01*
X144399156Y-108686887D01*
X144395496Y-108675068D01*
X144392882Y-108662509D01*
X144391608Y-108652603D01*
X144390922Y-108642282D01*
X144390791Y-108635169D01*
X144391072Y-108625350D01*
X144392322Y-108612913D01*
X144394572Y-108601223D01*
X144397821Y-108590282D01*
X144402071Y-108580089D01*
X144407320Y-108570644D01*
X144413569Y-108561946D01*
X144420818Y-108553997D01*
X144422787Y-108552126D01*
X144431240Y-108545005D01*
X144440601Y-108538418D01*
X144450871Y-108532366D01*
X144462049Y-108526847D01*
X144474135Y-108521863D01*
X144483796Y-108518476D01*
X144493967Y-108515389D01*
X144504650Y-108512602D01*
X144515843Y-108510117D01*
X144515843Y-108498881D01*
X144505119Y-108497800D01*
X144494837Y-108496202D01*
X144484998Y-108494090D01*
X144472566Y-108490472D01*
X144460921Y-108485938D01*
X144450061Y-108480489D01*
X144439988Y-108474123D01*
X144430701Y-108466842D01*
X144424252Y-108460780D01*
X144416410Y-108451979D01*
X144409613Y-108442431D01*
X144403862Y-108432134D01*
X144399156Y-108421090D01*
X144395496Y-108409298D01*
X144392882Y-108396757D01*
X144391608Y-108386861D01*
X144390922Y-108376544D01*
X144390791Y-108369433D01*
X144391255Y-108356478D01*
X144392646Y-108343990D01*
X144394964Y-108331971D01*
X144398210Y-108320420D01*
X144402383Y-108309337D01*
X144407483Y-108298722D01*
X144413511Y-108288574D01*
X144420466Y-108278895D01*
X144428349Y-108269684D01*
X144437159Y-108260940D01*
X144443547Y-108255371D01*
X144453758Y-108247558D01*
X144464699Y-108240514D01*
X144476370Y-108234237D01*
X144488770Y-108228730D01*
X144501901Y-108223991D01*
X144515761Y-108220020D01*
X144525407Y-108217800D01*
X144535377Y-108215921D01*
X144545671Y-108214384D01*
X144556290Y-108213189D01*
X144567233Y-108212335D01*
X144578501Y-108211823D01*
X144590093Y-108211652D01*
X145188000Y-108211652D01*
X145188000Y-108367967D01*
X144604015Y-108367967D01*
X144593338Y-108368226D01*
X144583350Y-108369002D01*
X144569659Y-108371135D01*
X144557518Y-108374431D01*
X144546927Y-108378891D01*
X144537886Y-108384515D01*
X144530395Y-108391302D01*
X144524454Y-108399252D01*
X144520062Y-108408366D01*
X144517221Y-108418644D01*
X144515929Y-108430085D01*
X144515843Y-108434157D01*
X144516644Y-108446466D01*
X144519046Y-108457564D01*
X144523050Y-108467452D01*
X144528654Y-108476129D01*
X144535861Y-108483595D01*
X144544669Y-108489850D01*
X144555078Y-108494895D01*
X144567088Y-108498729D01*
X144580700Y-108501352D01*
X144590665Y-108502428D01*
X144601341Y-108502966D01*
X144606946Y-108503034D01*
X145188000Y-108503034D01*
X145188000Y-108629551D01*
X144604015Y-108629551D01*
X144593338Y-108629820D01*
X144583350Y-108630628D01*
X144569659Y-108632847D01*
X144557518Y-108636278D01*
X144546927Y-108640919D01*
X144537886Y-108646770D01*
X144530395Y-108653833D01*
X144524454Y-108662106D01*
X144520062Y-108671590D01*
X144517221Y-108682285D01*
X144515929Y-108694190D01*
X144515843Y-108698428D01*
X144516644Y-108709995D01*
X144519046Y-108720424D01*
X144523050Y-108729716D01*
X144528654Y-108737869D01*
X144535861Y-108744885D01*
X144544669Y-108750764D01*
X144555078Y-108755504D01*
X144567088Y-108759107D01*
X144580700Y-108761572D01*
X144590665Y-108762583D01*
X144601341Y-108763089D01*
X144606946Y-108763152D01*
X145188000Y-108763152D01*
X145188000Y-108919468D01*
X144406422Y-108919468D01*
X144406422Y-108777318D01*
G37*
G36*
X144406422Y-107938100D02*
G01*
X144515843Y-107938100D01*
X144515843Y-107925399D01*
X144505119Y-107924361D01*
X144494837Y-107922803D01*
X144484998Y-107920726D01*
X144472566Y-107917148D01*
X144460921Y-107912647D01*
X144450061Y-107907222D01*
X144439988Y-107900874D01*
X144430701Y-107893602D01*
X144424252Y-107887542D01*
X144416410Y-107878684D01*
X144409613Y-107869086D01*
X144403862Y-107858748D01*
X144399156Y-107847669D01*
X144395496Y-107835850D01*
X144392882Y-107823290D01*
X144391608Y-107813385D01*
X144390922Y-107803063D01*
X144390791Y-107795951D01*
X144391072Y-107786132D01*
X144392322Y-107773694D01*
X144394572Y-107762005D01*
X144397821Y-107751064D01*
X144402071Y-107740870D01*
X144407320Y-107731425D01*
X144413569Y-107722728D01*
X144420818Y-107714778D01*
X144422787Y-107712908D01*
X144431240Y-107705787D01*
X144440601Y-107699200D01*
X144450871Y-107693147D01*
X144462049Y-107687629D01*
X144474135Y-107682645D01*
X144483796Y-107679257D01*
X144493967Y-107676170D01*
X144504650Y-107673384D01*
X144515843Y-107670898D01*
X144515843Y-107659663D01*
X144505119Y-107658581D01*
X144494837Y-107656984D01*
X144484998Y-107654872D01*
X144472566Y-107651254D01*
X144460921Y-107646720D01*
X144450061Y-107641270D01*
X144439988Y-107634905D01*
X144430701Y-107627623D01*
X144424252Y-107621561D01*
X144416410Y-107612761D01*
X144409613Y-107603212D01*
X144403862Y-107592916D01*
X144399156Y-107581872D01*
X144395496Y-107570079D01*
X144392882Y-107557539D01*
X144391608Y-107547643D01*
X144390922Y-107537326D01*
X144390791Y-107530214D01*
X144391255Y-107517259D01*
X144392646Y-107504772D01*
X144394964Y-107492753D01*
X144398210Y-107481202D01*
X144402383Y-107470118D01*
X144407483Y-107459503D01*
X144413511Y-107449356D01*
X144420466Y-107439677D01*
X144428349Y-107430465D01*
X144437159Y-107421722D01*
X144443547Y-107416153D01*
X144453758Y-107408340D01*
X144464699Y-107401295D01*
X144476370Y-107395019D01*
X144488770Y-107389511D01*
X144501901Y-107384772D01*
X144515761Y-107380802D01*
X144525407Y-107378581D01*
X144535377Y-107376703D01*
X144545671Y-107375166D01*
X144556290Y-107373970D01*
X144567233Y-107373117D01*
X144578501Y-107372604D01*
X144590093Y-107372433D01*
X145188000Y-107372433D01*
X145188000Y-107528749D01*
X144604015Y-107528749D01*
X144593338Y-107529007D01*
X144583350Y-107529783D01*
X144569659Y-107531916D01*
X144557518Y-107535213D01*
X144546927Y-107539673D01*
X144537886Y-107545296D01*
X144530395Y-107552083D01*
X144524454Y-107560034D01*
X144520062Y-107569148D01*
X144517221Y-107579425D01*
X144515929Y-107590866D01*
X144515843Y-107594939D01*
X144516644Y-107607248D01*
X144519046Y-107618346D01*
X144523050Y-107628233D01*
X144528654Y-107636910D01*
X144535861Y-107644376D01*
X144544669Y-107650632D01*
X144555078Y-107655676D01*
X144567088Y-107659510D01*
X144580700Y-107662134D01*
X144590665Y-107663210D01*
X144601341Y-107663748D01*
X144606946Y-107663815D01*
X145188000Y-107663815D01*
X145188000Y-107790333D01*
X144604015Y-107790333D01*
X144593338Y-107790602D01*
X144583350Y-107791409D01*
X144569659Y-107793629D01*
X144557518Y-107797059D01*
X144546927Y-107801700D01*
X144537886Y-107807552D01*
X144530395Y-107814615D01*
X144524454Y-107822888D01*
X144520062Y-107832372D01*
X144517221Y-107843067D01*
X144515929Y-107854972D01*
X144515843Y-107859209D01*
X144516644Y-107870776D01*
X144519046Y-107881206D01*
X144523050Y-107890497D01*
X144528654Y-107898651D01*
X144535861Y-107905667D01*
X144544669Y-107911545D01*
X144555078Y-107916286D01*
X144567088Y-107919889D01*
X144580700Y-107922354D01*
X144590665Y-107923365D01*
X144601341Y-107923871D01*
X144606946Y-107923934D01*
X145188000Y-107923934D01*
X145188000Y-108080249D01*
X144406422Y-108080249D01*
X144406422Y-107938100D01*
G37*
X141851000Y-99695000D02*
X146509420Y-99695000D01*
X141851000Y-123317000D02*
X146509420Y-123317000D01*
X145923000Y-99695000D02*
X145923000Y-123317000D01*
X145923000Y-99695000D02*
X145923000Y-123317000D01*
X145923000Y-99695000D02*
X146509421Y-100821504D01*
X145923000Y-99695000D02*
X145336579Y-100821504D01*
X145923000Y-123317000D02*
X145336579Y-122190496D01*
X145923000Y-123317000D02*
X146509421Y-122190496D01*
M02*
