M48
; DRILL file {KiCad 7.99.0-3012-g423a5b9961} date 2023-10-30T13:08:26-0400
; FORMAT={-:-/ absolute / inch / decimal}
; #@! TF.CreationDate,2023-10-30T13:08:26-04:00
; #@! TF.GenerationSoftware,Kicad,Pcbnew,7.99.0-3012-g423a5b9961
; #@! TF.FileFunction,NonPlated,1,4,NPTH
FMAT,2
INCH
; #@! TA.AperFunction,NonPlated,NPTH,ComponentDrill
T1C0.0197
; #@! TA.AperFunction,NonPlated,NPTH,ComponentDrill
T2C0.0256
%
G90
G05
T1
X5.1148Y-3.598
X5.1148Y-3.6571
X5.1148Y-3.8579
X5.1148Y-3.9169
X5.1148Y-4.1177
X5.1148Y-4.1768
X5.1443Y-3.598
X5.1443Y-3.6571
X5.1443Y-3.8579
X5.1443Y-3.9169
X5.1443Y-4.1177
X5.1443Y-4.1768
X5.1738Y-3.598
X5.1738Y-3.6571
X5.1738Y-3.8579
X5.1738Y-3.9169
X5.1738Y-4.1177
X5.1738Y-4.1768
X5.788Y-3.598
X5.788Y-3.6571
X5.788Y-3.8579
X5.788Y-3.9169
X5.788Y-4.1177
X5.788Y-4.1768
X5.8175Y-3.598
X5.8175Y-3.6571
X5.8175Y-3.8579
X5.8175Y-3.9169
X5.8175Y-4.1177
X5.8175Y-4.1768
X5.847Y-3.598
X5.847Y-3.6571
X5.847Y-3.8579
X5.847Y-3.9169
X5.847Y-4.1177
X5.847Y-4.1768
T2
X7.1356Y-4.2614
X7.1356Y-4.4889
T0
M30
