%TF.GenerationSoftware,KiCad,Pcbnew,8.99.0-3258-g13625daeca*%
%TF.CreationDate,2025-03-11T23:12:25+01:00*%
%TF.ProjectId,anyesc,616e7965-7363-42e6-9b69-6361645f7063,V1.0*%
%TF.SameCoordinates,Original*%
%TF.FileFunction,Soldermask,Bot*%
%TF.FilePolarity,Negative*%
%FSLAX46Y46*%
G04 Gerber Fmt 4.6, Leading zero omitted, Abs format (unit mm)*
G04 Created by KiCad (PCBNEW 8.99.0-3258-g13625daeca) date 2025-03-11 23:12:25*
%MOMM*%
%LPD*%
G01*
G04 APERTURE LIST*
G04 Aperture macros list*
%AMRoundRect*
0 Rectangle with rounded corners*
0 $1 Rounding radius*
0 $2 $3 $4 $5 $6 $7 $8 $9 X,Y pos of 4 corners*
0 Add a 4 corners polygon primitive as box body*
4,1,4,$2,$3,$4,$5,$6,$7,$8,$9,$2,$3,0*
0 Add four circle primitives for the rounded corners*
1,1,$1+$1,$2,$3*
1,1,$1+$1,$4,$5*
1,1,$1+$1,$6,$7*
1,1,$1+$1,$8,$9*
0 Add four rect primitives between the rounded corners*
20,1,$1+$1,$2,$3,$4,$5,0*
20,1,$1+$1,$4,$5,$6,$7,0*
20,1,$1+$1,$6,$7,$8,$9,0*
20,1,$1+$1,$8,$9,$2,$3,0*%
%AMFreePoly0*
4,1,23,0.500000,-0.750000,0.000000,-0.750000,0.000000,-0.745722,-0.065263,-0.745722,-0.191342,-0.711940,-0.304381,-0.646677,-0.396677,-0.554381,-0.461940,-0.441342,-0.495722,-0.315263,-0.495722,-0.250000,-0.500000,-0.250000,-0.500000,0.250000,-0.495722,0.250000,-0.495722,0.315263,-0.461940,0.441342,-0.396677,0.554381,-0.304381,0.646677,-0.191342,0.711940,-0.065263,0.745722,0.000000,0.745722,
0.000000,0.750000,0.500000,0.750000,0.500000,-0.750000,0.500000,-0.750000,$1*%
%AMFreePoly1*
4,1,23,0.000000,0.745722,0.065263,0.745722,0.191342,0.711940,0.304381,0.646677,0.396677,0.554381,0.461940,0.441342,0.495722,0.315263,0.495722,0.250000,0.500000,0.250000,0.500000,-0.250000,0.495722,-0.250000,0.495722,-0.315263,0.461940,-0.441342,0.396677,-0.554381,0.304381,-0.646677,0.191342,-0.711940,0.065263,-0.745722,0.000000,-0.745722,0.000000,-0.750000,-0.500000,-0.750000,
-0.500000,0.750000,0.000000,0.750000,0.000000,0.745722,0.000000,0.745722,$1*%
G04 Aperture macros list end*
%ADD10RoundRect,0.800000X6.800000X1.500000X-6.800000X1.500000X-6.800000X-1.500000X6.800000X-1.500000X0*%
%ADD11C,2.000000*%
%ADD12C,0.500000*%
%ADD13R,1.700000X1.700000*%
%ADD14O,1.700000X1.700000*%
%ADD15R,4.750000X2.950000*%
%ADD16R,3.950000X4.900000*%
%ADD17R,3.950000X4.450000*%
%ADD18R,3.950000X4.850000*%
%ADD19C,2.500000*%
%ADD20R,1.651000X4.572000*%
%ADD21C,0.650000*%
%ADD22O,2.100000X1.000000*%
%ADD23O,1.600000X1.000000*%
%ADD24FreePoly0,90.000000*%
%ADD25FreePoly1,90.000000*%
G04 APERTURE END LIST*
D10*
%TO.C,H5*%
X130665000Y-108640400D03*
%TD*%
D11*
%TO.C,SW2*%
X184673000Y-95547000D03*
X184673000Y-102047000D03*
%TD*%
D12*
%TO.C,mouse-bite-2mm-slot*%
X131415000Y-99490400D03*
X131415000Y-97990400D03*
X130665000Y-99490400D03*
X130665000Y-97990400D03*
X129915000Y-99490400D03*
X129915000Y-97990400D03*
%TD*%
D10*
%TO.C,H5*%
X147765000Y-108640400D03*
%TD*%
%TO.C,H4*%
X147765000Y-102040400D03*
%TD*%
D12*
%TO.C,mouse-bite-2mm-slot*%
X148515000Y-99490400D03*
X148515000Y-97990400D03*
X147765000Y-99490400D03*
X147765000Y-97990400D03*
X147015000Y-99490400D03*
X147015000Y-97990400D03*
%TD*%
D13*
%TO.C,J2*%
X177053000Y-101783000D03*
D14*
X177053000Y-99243000D03*
X177053000Y-96703000D03*
X177053000Y-94163000D03*
%TD*%
D15*
%TO.C,U3*%
X158540000Y-109515400D03*
X158540000Y-94615400D03*
D16*
X119390000Y-95740400D03*
D17*
X119390000Y-102015400D03*
D18*
X119390000Y-108465400D03*
%TD*%
D19*
%TO.C,TP3*%
X163254000Y-93726000D03*
%TD*%
D12*
%TO.C,mouse-bite-2mm-slot*%
X148515000Y-106090400D03*
X148515000Y-104590400D03*
X147765000Y-106090400D03*
X147765000Y-104590400D03*
X147015000Y-106090400D03*
X147015000Y-104590400D03*
%TD*%
%TO.C,mouse-bite-2mm-slot*%
X131415000Y-92890400D03*
X131415000Y-91390400D03*
X130665000Y-92890400D03*
X130665000Y-91390400D03*
X129915000Y-92890400D03*
X129915000Y-91390400D03*
%TD*%
D19*
%TO.C,TP2*%
X167804000Y-93726000D03*
%TD*%
D12*
%TO.C,mouse-bite-2mm-slot*%
X148515000Y-92890400D03*
X148515000Y-91390400D03*
X147765000Y-92890400D03*
X147765000Y-91390400D03*
X147015000Y-92890400D03*
X147015000Y-91390400D03*
%TD*%
D10*
%TO.C,H6*%
X130665000Y-95440400D03*
%TD*%
D20*
%TO.C,J3*%
X110124000Y-119954000D03*
X112664000Y-119954000D03*
X115204000Y-119954000D03*
X117744000Y-119954000D03*
X120284000Y-119954000D03*
X122824000Y-119954000D03*
X125364000Y-119954000D03*
X127904000Y-119954000D03*
X130444000Y-119954000D03*
X132984000Y-119954000D03*
X135524000Y-119954000D03*
X138064000Y-119954000D03*
X140604000Y-119954000D03*
X143144000Y-119954000D03*
X145684000Y-119954000D03*
X148224000Y-119954000D03*
X150764000Y-119954000D03*
X153304000Y-119954000D03*
X155844000Y-119954000D03*
X158384000Y-119954000D03*
X160924000Y-119954000D03*
X163464000Y-119954000D03*
X166004000Y-119954000D03*
X168544000Y-119954000D03*
X171084000Y-119954000D03*
X173624000Y-119954000D03*
X176164000Y-119954000D03*
X178704000Y-119954000D03*
X181244000Y-119954000D03*
X183784000Y-119954000D03*
%TD*%
D10*
%TO.C,H4*%
X130665000Y-102040400D03*
%TD*%
%TO.C,H6*%
X147765000Y-95440400D03*
%TD*%
D11*
%TO.C,SW1*%
X181117000Y-95547000D03*
X181117000Y-102047000D03*
%TD*%
D21*
%TO.C,J1*%
X181244000Y-114019210D03*
X181244000Y-108239210D03*
D22*
X180714000Y-115449210D03*
D23*
X184894000Y-115449210D03*
D22*
X180714000Y-106809210D03*
D23*
X184894000Y-106809210D03*
%TD*%
D19*
%TO.C,TP1*%
X172354000Y-93726000D03*
%TD*%
D12*
%TO.C,mouse-bite-2mm-slot*%
X131415000Y-106090400D03*
X131415000Y-104590400D03*
X130665000Y-106090400D03*
X130665000Y-104590400D03*
X129915000Y-106090400D03*
X129915000Y-104590400D03*
%TD*%
D24*
%TO.C,JP2*%
X182133000Y-112095000D03*
D25*
X182133000Y-110795000D03*
%TD*%
D24*
%TO.C,JP3*%
X184927000Y-112080001D03*
D25*
X184927000Y-110780001D03*
%TD*%
M02*
