%TF.GenerationSoftware,KiCad,Pcbnew,7.99.0-3012-g423a5b9961*%
%TF.CreationDate,2023-10-18T16:54:00-04:00*%
%TF.ProjectId,anyesc,616e7965-7363-42e6-9b69-6361645f7063,V1.0*%
%TF.SameCoordinates,Original*%
%TF.FileFunction,Copper,L4,Bot*%
%TF.FilePolarity,Positive*%
%FSLAX46Y46*%
G04 Gerber Fmt 4.6, Leading zero omitted, Abs format (unit mm)*
G04 Created by KiCad (PCBNEW 7.99.0-3012-g423a5b9961) date 2023-10-18 16:54:00*
%MOMM*%
%LPD*%
G01*
G04 APERTURE LIST*
G04 Aperture macros list*
%AMRoundRect*
0 Rectangle with rounded corners*
0 $1 Rounding radius*
0 $2 $3 $4 $5 $6 $7 $8 $9 X,Y pos of 4 corners*
0 Add a 4 corners polygon primitive as box body*
4,1,4,$2,$3,$4,$5,$6,$7,$8,$9,$2,$3,0*
0 Add four circle primitives for the rounded corners*
1,1,$1+$1,$2,$3*
1,1,$1+$1,$4,$5*
1,1,$1+$1,$6,$7*
1,1,$1+$1,$8,$9*
0 Add four rect primitives between the rounded corners*
20,1,$1+$1,$2,$3,$4,$5,0*
20,1,$1+$1,$4,$5,$6,$7,0*
20,1,$1+$1,$6,$7,$8,$9,0*
20,1,$1+$1,$8,$9,$2,$3,0*%
%AMFreePoly0*
4,1,19,0.500000,-0.750000,0.000000,-0.750000,0.000000,-0.744911,-0.071157,-0.744911,-0.207708,-0.704816,-0.327430,-0.627875,-0.420627,-0.520320,-0.479746,-0.390866,-0.500000,-0.250000,-0.500000,0.250000,-0.479746,0.390866,-0.420627,0.520320,-0.327430,0.627875,-0.207708,0.704816,-0.071157,0.744911,0.000000,0.744911,0.000000,0.750000,0.500000,0.750000,0.500000,-0.750000,0.500000,-0.750000,
$1*%
%AMFreePoly1*
4,1,19,0.000000,0.744911,0.071157,0.744911,0.207708,0.704816,0.327430,0.627875,0.420627,0.520320,0.479746,0.390866,0.500000,0.250000,0.500000,-0.250000,0.479746,-0.390866,0.420627,-0.520320,0.327430,-0.627875,0.207708,-0.704816,0.071157,-0.744911,0.000000,-0.744911,0.000000,-0.750000,-0.500000,-0.750000,-0.500000,0.750000,0.000000,0.750000,0.000000,0.744911,0.000000,0.744911,
$1*%
G04 Aperture macros list end*
%TA.AperFunction,ComponentPad*%
%ADD10C,0.500000*%
%TD*%
%TA.AperFunction,SMDPad,CuDef*%
%ADD11R,3.200000X3.200000*%
%TD*%
%TA.AperFunction,ComponentPad*%
%ADD12C,2.000000*%
%TD*%
%TA.AperFunction,ComponentPad*%
%ADD13RoundRect,0.800000X-6.800000X-1.500000X6.800000X-1.500000X6.800000X1.500000X-6.800000X1.500000X0*%
%TD*%
%TA.AperFunction,ComponentPad*%
%ADD14R,1.700000X1.700000*%
%TD*%
%TA.AperFunction,ComponentPad*%
%ADD15O,1.700000X1.700000*%
%TD*%
%TA.AperFunction,ComponentPad*%
%ADD16R,4.750000X2.950000*%
%TD*%
%TA.AperFunction,ComponentPad*%
%ADD17R,3.950000X4.900000*%
%TD*%
%TA.AperFunction,ComponentPad*%
%ADD18R,3.950000X4.450000*%
%TD*%
%TA.AperFunction,ComponentPad*%
%ADD19R,3.950000X4.850000*%
%TD*%
%TA.AperFunction,ComponentPad*%
%ADD20C,2.500000*%
%TD*%
%TA.AperFunction,SMDPad,CuDef*%
%ADD21R,1.651000X4.572000*%
%TD*%
%TA.AperFunction,ComponentPad*%
%ADD22O,2.100000X1.000000*%
%TD*%
%TA.AperFunction,ComponentPad*%
%ADD23O,1.600000X1.000000*%
%TD*%
%TA.AperFunction,SMDPad,CuDef*%
%ADD24FreePoly0,90.000000*%
%TD*%
%TA.AperFunction,SMDPad,CuDef*%
%ADD25FreePoly1,90.000000*%
%TD*%
%TA.AperFunction,ViaPad*%
%ADD26C,0.500000*%
%TD*%
%TA.AperFunction,ViaPad*%
%ADD27C,0.400000*%
%TD*%
%TA.AperFunction,Conductor*%
%ADD28C,0.125000*%
%TD*%
G04 APERTURE END LIST*
D10*
%TO.P,U1,57,GND*%
%TO.N,GND*%
X171632000Y-109781000D03*
X168932000Y-109781000D03*
D11*
X170282000Y-111131000D03*
D10*
X171632000Y-112481000D03*
X168932000Y-112481000D03*
%TD*%
D12*
%TO.P,SW2,1,1*%
%TO.N,/RP2040/RUN*%
X184673000Y-95547000D03*
%TO.P,SW2,2,2*%
%TO.N,GND*%
X184673000Y-102047000D03*
%TD*%
D13*
%TO.P,H5,1*%
%TO.N,N/C*%
X146304000Y-94134000D03*
%TD*%
%TO.P,H4,1*%
%TO.N,N/C*%
X146304000Y-99722000D03*
%TD*%
D14*
%TO.P,J2,1,Pin_1*%
%TO.N,/RP2040/SWCLK*%
X177053000Y-101783000D03*
D15*
%TO.P,J2,2,Pin_2*%
%TO.N,/RP2040/SWDIO*%
X177053000Y-99243000D03*
%TO.P,J2,3,Pin_3*%
%TO.N,+3V3*%
X177053000Y-96703000D03*
%TO.P,J2,4,Pin_4*%
%TO.N,GND*%
X177053000Y-94163000D03*
%TD*%
D13*
%TO.P,H3,1*%
%TO.N,N/C*%
X130302000Y-105310000D03*
%TD*%
D16*
%TO.P,U3,1,V+*%
%TO.N,+12V*%
X158540000Y-109515400D03*
%TO.P,U3,2,V+*%
%TO.N,GND*%
X158540000Y-94615400D03*
D17*
%TO.P,U3,3,A*%
%TO.N,/PHASE_A*%
X119390000Y-95740400D03*
D18*
%TO.P,U3,4,B*%
%TO.N,/PHASE_B*%
X119390000Y-102015400D03*
D19*
%TO.P,U3,5,C*%
%TO.N,/PHASE_C*%
X119390000Y-108465400D03*
%TD*%
D20*
%TO.P,TP3,1,1*%
%TO.N,/ESC_PWM*%
X163254000Y-93726000D03*
%TD*%
%TO.P,TP2,1,1*%
%TO.N,/UART1_RX*%
X167804000Y-93726000D03*
%TD*%
D13*
%TO.P,H2,1*%
%TO.N,N/C*%
X130302000Y-99590000D03*
%TD*%
%TO.P,H1,1*%
%TO.N,N/C*%
X130302000Y-94134000D03*
%TD*%
D21*
%TO.P,J3,1,1*%
%TO.N,/PHASE_A*%
X110124000Y-119954000D03*
%TO.P,J3,3,3*%
X112664000Y-119954000D03*
%TO.P,J3,5,5*%
X115204000Y-119954000D03*
%TO.P,J3,7,7*%
%TO.N,/PHASE_B*%
X117744000Y-119954000D03*
%TO.P,J3,9,9*%
X120284000Y-119954000D03*
%TO.P,J3,11,11*%
X122824000Y-119954000D03*
%TO.P,J3,13,13*%
%TO.N,/PHASE_C*%
X125364000Y-119954000D03*
%TO.P,J3,15,15*%
X127904000Y-119954000D03*
%TO.P,J3,17,17*%
X130444000Y-119954000D03*
%TO.P,J3,19,19*%
%TO.N,+12V*%
X132984000Y-119954000D03*
%TO.P,J3,21,21*%
X135524000Y-119954000D03*
%TO.P,J3,23,23*%
X138064000Y-119954000D03*
%TO.P,J3,25,25*%
X140604000Y-119954000D03*
%TO.P,J3,27,27*%
X143144000Y-119954000D03*
%TO.P,J3,29,29*%
X145684000Y-119954000D03*
%TO.P,J3,31,31*%
X148224000Y-119954000D03*
%TO.P,J3,33,33*%
X150764000Y-119954000D03*
%TO.P,J3,35,35*%
X153304000Y-119954000D03*
%TO.P,J3,37,37*%
%TO.N,GND*%
X155844000Y-119954000D03*
%TO.P,J3,39,39*%
X158384000Y-119954000D03*
%TO.P,J3,41,41*%
X160924000Y-119954000D03*
%TO.P,J3,43,43*%
X163464000Y-119954000D03*
%TO.P,J3,45,45*%
X166004000Y-119954000D03*
%TO.P,J3,47,47*%
X168544000Y-119954000D03*
%TO.P,J3,49,49*%
X171084000Y-119954000D03*
%TO.P,J3,51,51*%
X173624000Y-119954000D03*
%TO.P,J3,53,53*%
X176164000Y-119954000D03*
%TO.P,J3,55,55*%
%TO.N,+3V3*%
X178704000Y-119954000D03*
%TO.P,J3,57,57*%
%TO.N,/BOARD_TX*%
X181244000Y-119954000D03*
%TO.P,J3,59,59*%
%TO.N,/BOARD_TX_1*%
X183784000Y-119954000D03*
%TD*%
D13*
%TO.P,H6,1*%
%TO.N,N/C*%
X146304000Y-105310000D03*
%TD*%
D12*
%TO.P,SW1,1,1*%
%TO.N,/RP2040/USB_BOOT*%
X181117000Y-95547000D03*
%TO.P,SW1,2,2*%
%TO.N,GND*%
X181117000Y-102047000D03*
%TD*%
D22*
%TO.P,J1,S1,SHIELD*%
%TO.N,GND*%
X180714000Y-115449210D03*
D23*
X184894000Y-115449210D03*
D22*
X180714000Y-106809210D03*
D23*
X184894000Y-106809210D03*
%TD*%
D20*
%TO.P,TP1,1,1*%
%TO.N,/UART1_TX*%
X172354000Y-93726000D03*
%TD*%
D24*
%TO.P,JP2,1,A*%
%TO.N,/BOARD_RX_1*%
X182133000Y-112095000D03*
D25*
%TO.P,JP2,2,B*%
%TO.N,/UART1_RX*%
X182133000Y-110795000D03*
%TD*%
D24*
%TO.P,JP3,1,A*%
%TO.N,/BOARD_TX_1*%
X184927000Y-112080001D03*
D25*
%TO.P,JP3,2,B*%
%TO.N,/UART1_TX*%
X184927000Y-110780001D03*
%TD*%
D26*
%TO.N,+3V3*%
X178308000Y-121920000D03*
X179070000Y-120396000D03*
X172618400Y-108864400D03*
X170078400Y-115824000D03*
X179070000Y-118110000D03*
X179070000Y-119634000D03*
X165912800Y-111302800D03*
X174193200Y-114198400D03*
X178308000Y-118110000D03*
X178308000Y-118872000D03*
X166878000Y-115824000D03*
X178308000Y-120396000D03*
X179070000Y-121920000D03*
X179070000Y-121158000D03*
X179070000Y-118872000D03*
X169875200Y-106426000D03*
X178308000Y-119634000D03*
X172872400Y-111607600D03*
X172059600Y-115773200D03*
X178308000Y-121158000D03*
%TO.N,GND*%
X146050000Y-88900000D03*
X161798000Y-113284000D03*
X184658000Y-97536000D03*
X163830000Y-99441000D03*
X163830000Y-116332000D03*
X174244000Y-103378000D03*
X138430000Y-90170000D03*
X140970000Y-88900000D03*
X130175000Y-89535000D03*
X159004000Y-93472000D03*
X120015000Y-89535000D03*
X156464000Y-94234000D03*
X160528000Y-93472000D03*
X124460000Y-89535000D03*
X167640000Y-99314000D03*
X163322000Y-96774000D03*
X127000000Y-88900000D03*
X178562000Y-107442000D03*
X132080000Y-90805000D03*
X170434000Y-101346000D03*
X158115000Y-90805000D03*
X151765000Y-88900000D03*
X181102000Y-100076000D03*
X157226000Y-93472000D03*
X159766000Y-93472000D03*
X170434000Y-99568000D03*
X147955000Y-90170000D03*
X135255000Y-89535000D03*
X109220000Y-92710000D03*
X142875000Y-90170000D03*
X160528000Y-94234000D03*
X180594000Y-98298000D03*
X160528000Y-95758000D03*
X159766000Y-94234000D03*
X156464000Y-93472000D03*
X184912000Y-100076000D03*
X185420000Y-104648000D03*
X159004000Y-95758000D03*
X163576000Y-101727000D03*
X167894000Y-104648000D03*
X156464000Y-95758000D03*
X159766000Y-95758000D03*
X174244000Y-92202000D03*
X157226000Y-95758000D03*
X181356000Y-103886000D03*
X160528000Y-94996000D03*
X156464000Y-94996000D03*
X184912000Y-107950000D03*
X168910000Y-96774000D03*
X159766000Y-94996000D03*
X161290000Y-92202000D03*
X122555000Y-90170000D03*
X126365000Y-90170000D03*
X154940000Y-90170000D03*
X184912000Y-114046000D03*
X182880000Y-115316000D03*
X177800000Y-114808000D03*
X108585000Y-93980000D03*
X176784000Y-112776000D03*
X165862000Y-96520000D03*
X163830000Y-115570000D03*
X174752000Y-96520000D03*
X118110000Y-91440000D03*
D27*
%TO.N,Net-(J1-CC2)*%
X182880000Y-108966000D03*
X181102000Y-109220000D03*
D26*
%TO.N,/RP2040/SWCLK*%
X167792400Y-112115600D03*
X174142400Y-107391200D03*
%TO.N,/RP2040/SWDIO*%
X173831384Y-107961395D03*
X167792400Y-112765103D03*
%TO.N,/PHASE_A*%
X120904000Y-93726000D03*
X118618000Y-96012000D03*
X108585000Y-107315000D03*
X109855000Y-98425000D03*
X111125000Y-94615000D03*
X118618000Y-93726000D03*
X116205000Y-94615000D03*
X109855000Y-107315000D03*
X113665000Y-115570000D03*
X119380000Y-96774000D03*
X117856000Y-97536000D03*
X111125000Y-111760000D03*
X111125000Y-115570000D03*
X109855000Y-111760000D03*
X113665000Y-94615000D03*
X117856000Y-96774000D03*
X111125000Y-107315000D03*
X112395000Y-94615000D03*
X108585000Y-102235000D03*
X118618000Y-96774000D03*
X108585000Y-111760000D03*
X119380000Y-93726000D03*
X109855000Y-115570000D03*
X111125000Y-98425000D03*
X120904000Y-97536000D03*
X114935000Y-98425000D03*
X114935000Y-94615000D03*
X112395000Y-115570000D03*
X111125000Y-102235000D03*
X108585000Y-98425000D03*
X119380000Y-94488000D03*
X120904000Y-94488000D03*
X108585000Y-115570000D03*
X118618000Y-94488000D03*
X119380000Y-97536000D03*
X120904000Y-96774000D03*
X117856000Y-95250000D03*
X117856000Y-93726000D03*
X113665000Y-98425000D03*
X120142000Y-97536000D03*
X118618000Y-95250000D03*
X120142000Y-93726000D03*
X117856000Y-94488000D03*
X109855000Y-102235000D03*
X116205000Y-98425000D03*
X112395000Y-98425000D03*
X118618000Y-97536000D03*
X117856000Y-96012000D03*
%TO.N,/PHASE_B*%
X116205000Y-101600000D03*
X119380000Y-100076000D03*
X118618000Y-101600000D03*
X120904000Y-103124000D03*
X118618000Y-103886000D03*
X117856000Y-100838000D03*
X118618000Y-100838000D03*
X118745000Y-115570000D03*
X118618000Y-103124000D03*
X115570000Y-104775000D03*
X120142000Y-100076000D03*
X115570000Y-108585000D03*
X113030000Y-108585000D03*
X119380000Y-100838000D03*
X113030000Y-104775000D03*
X117856000Y-100076000D03*
X114300000Y-104775000D03*
X117856000Y-101600000D03*
X118618000Y-100076000D03*
X116205000Y-102870000D03*
X117856000Y-103886000D03*
X114300000Y-108585000D03*
X117856000Y-103124000D03*
X119380000Y-103886000D03*
X120904000Y-100838000D03*
X120142000Y-103886000D03*
X114300000Y-112395000D03*
X116840000Y-115570000D03*
X117856000Y-102362000D03*
X115570000Y-112395000D03*
X119380000Y-103124000D03*
X120904000Y-103886000D03*
X118618000Y-102362000D03*
X120904000Y-100076000D03*
X113030000Y-112395000D03*
%TO.N,/PHASE_C*%
X130810000Y-115570000D03*
X121920000Y-114300000D03*
X124460000Y-114300000D03*
X117856000Y-106426000D03*
X123190000Y-115570000D03*
X118110000Y-111760000D03*
X128270000Y-115570000D03*
X125730000Y-114300000D03*
X120650000Y-111760000D03*
X120904000Y-106426000D03*
X125730000Y-115570000D03*
X120904000Y-110236000D03*
X119380000Y-109474000D03*
X123190000Y-114300000D03*
X117856000Y-107950000D03*
X120904000Y-107188000D03*
X117856000Y-107188000D03*
X130810000Y-114300000D03*
X119380000Y-111760000D03*
X128270000Y-114300000D03*
X118618000Y-106426000D03*
X119380000Y-106426000D03*
X120142000Y-110236000D03*
X119380000Y-107188000D03*
X120650000Y-114300000D03*
X120904000Y-109474000D03*
X117856000Y-109474000D03*
X119380000Y-110236000D03*
X118618000Y-107188000D03*
X129540000Y-115570000D03*
X117856000Y-110236000D03*
X118618000Y-110236000D03*
X117856000Y-108712000D03*
X124460000Y-115570000D03*
X127000000Y-115570000D03*
X127000000Y-114300000D03*
X129540000Y-114300000D03*
X118618000Y-107950000D03*
X120142000Y-106426000D03*
X118618000Y-108712000D03*
X118618000Y-109474000D03*
%TO.N,/BOARD_TX*%
X166624000Y-106934000D03*
%TO.N,/BOARD_RX*%
X179070000Y-116586000D03*
X166624000Y-106172000D03*
%TO.N,/BOARD_RX_1*%
X182473600Y-113588800D03*
%TO.N,+12V*%
X140335000Y-116205000D03*
X139065000Y-117449600D03*
X137795000Y-117449600D03*
X160528000Y-109220000D03*
X145415000Y-117449600D03*
X159766000Y-110744000D03*
X147955000Y-114935000D03*
X135255000Y-117449600D03*
X156464000Y-109220000D03*
X153035000Y-117449600D03*
X156464000Y-109982000D03*
X157226000Y-110744000D03*
X159004000Y-108458000D03*
X160528000Y-110744000D03*
X132715000Y-117449600D03*
X159766000Y-109982000D03*
X146685000Y-113665000D03*
X136525000Y-113665000D03*
X160528000Y-108458000D03*
X159004000Y-110744000D03*
X135255000Y-113665000D03*
X154305000Y-114935000D03*
X149225000Y-117449600D03*
X154305000Y-117449600D03*
X136525000Y-117449600D03*
X142875000Y-117449600D03*
X141605000Y-116205000D03*
X150495000Y-116205000D03*
X150495000Y-117449600D03*
X147955000Y-117449600D03*
X133985000Y-114935000D03*
X132715000Y-114935000D03*
X140335000Y-117449600D03*
X144145000Y-117449600D03*
X157226000Y-108458000D03*
X151765000Y-116205000D03*
X137795000Y-114935000D03*
X133985000Y-117449600D03*
X144145000Y-114935000D03*
X149225000Y-114935000D03*
X139065000Y-114935000D03*
X145415000Y-113665000D03*
X156464000Y-110744000D03*
X142875000Y-114935000D03*
X151765000Y-117449600D03*
X159766000Y-109220000D03*
X156464000Y-108458000D03*
X153035000Y-114935000D03*
X159766000Y-108458000D03*
X146685000Y-117449600D03*
X141605000Y-117449600D03*
X160528000Y-109982000D03*
%TO.N,/UART1_TX*%
X171399200Y-108712000D03*
X170891200Y-106578400D03*
X184912000Y-109423200D03*
%TO.N,/RP2040/RUN*%
X167792400Y-113487200D03*
%TO.N,/RP2040/USB_BOOT*%
X168402000Y-101295200D03*
%TO.N,/RP2040/QSPI_CS*%
X174904400Y-108508800D03*
X171196000Y-104038400D03*
%TO.N,/UART1_RX*%
X183540400Y-110794800D03*
X170891200Y-105613200D03*
X170637200Y-108864400D03*
%TO.N,/RP2040/QSPI_SD3*%
X171399200Y-98145600D03*
X172923200Y-110540800D03*
%TO.N,/RP2040/QSPI_SCK*%
X174701200Y-110236000D03*
X172923200Y-98196400D03*
%TO.N,/RP2040/QSPI_SD0*%
X176885600Y-108712000D03*
X174498000Y-99161600D03*
%TO.N,/RP2040/QSPI_SD2*%
X176191655Y-108682843D03*
X173736000Y-104394000D03*
%TO.N,/RP2040/QSPI_SD1*%
X175547374Y-108600653D03*
X172923200Y-104597200D03*
%TO.N,/ESC_PWM*%
X170535600Y-104038400D03*
%TO.N,/RP2040/LED0*%
X169570400Y-104394000D03*
X173024800Y-106172000D03*
%TO.N,/RP2040/LED1*%
X168960800Y-104749600D03*
X172313600Y-106019600D03*
%TO.N,/RP2040/LED2*%
X168402000Y-103479600D03*
X171907200Y-106578400D03*
%TD*%
D28*
%TO.N,Net-(J1-CC2)*%
X182880000Y-108966000D02*
X181356000Y-108966000D01*
X181356000Y-108966000D02*
X181102000Y-109220000D01*
%TO.N,/RP2040/SWCLK*%
X167792400Y-112115600D02*
X167792400Y-109016800D01*
X173748212Y-107391200D02*
X174142400Y-107391200D01*
X169113200Y-107696000D02*
X173443412Y-107696000D01*
X173443412Y-107696000D02*
X173748212Y-107391200D01*
X167792400Y-109016800D02*
X169113200Y-107696000D01*
%TO.N,/RP2040/SWDIO*%
X169210334Y-107930500D02*
X173800489Y-107930500D01*
X168026900Y-111556800D02*
X168026900Y-109113934D01*
X167792400Y-112765103D02*
X167796264Y-112765103D01*
X168254400Y-112306967D02*
X168254400Y-111784300D01*
X168026900Y-109113934D02*
X169210334Y-107930500D01*
X167796264Y-112765103D02*
X168254400Y-112306967D01*
X173800489Y-107930500D02*
X173831384Y-107961395D01*
X168254400Y-111784300D02*
X168026900Y-111556800D01*
%TO.N,/BOARD_TX*%
X180848000Y-117094000D02*
X181244000Y-117490000D01*
X166624000Y-113382084D02*
X167541916Y-114300000D01*
X181244000Y-117490000D02*
X181244000Y-119954000D01*
X166624000Y-106934000D02*
X166624000Y-113382084D01*
X167541916Y-114300000D02*
X173228000Y-114300000D01*
X173228000Y-114300000D02*
X176022000Y-117094000D01*
X176022000Y-117094000D02*
X180848000Y-117094000D01*
%TO.N,/BOARD_RX*%
X166858500Y-113284950D02*
X166858500Y-113030000D01*
X167086000Y-112802500D02*
X167086000Y-106634000D01*
X179070000Y-116586000D02*
X175845634Y-116586000D01*
X167639050Y-114065500D02*
X167502775Y-113929225D01*
X167086000Y-106634000D02*
X166624000Y-106172000D01*
X173325134Y-114065500D02*
X168421500Y-114065500D01*
X167502775Y-113929225D02*
X166858500Y-113284950D01*
X168421500Y-114065500D02*
X167639050Y-114065500D01*
X175845634Y-116586000D02*
X173325134Y-114065500D01*
X166858500Y-113030000D02*
X167086000Y-112802500D01*
%TO.N,/BOARD_TX_1*%
X184927000Y-112080000D02*
X183784000Y-113223000D01*
X183784000Y-113223000D02*
X183784000Y-119954000D01*
%TO.N,/BOARD_RX_1*%
X182133000Y-112094999D02*
X182133000Y-113248200D01*
X182133000Y-113248200D02*
X182473600Y-113588800D01*
%TO.N,/UART1_TX*%
X184927000Y-110780002D02*
X184927000Y-109438200D01*
X184927000Y-109438200D02*
X184912000Y-109423200D01*
%TO.N,/RP2040/RUN*%
X168148000Y-100533200D02*
X167330400Y-101350800D01*
X172974000Y-95269500D02*
X172622866Y-95269500D01*
X178286327Y-94375000D02*
X177391827Y-95269500D01*
X177391827Y-95269500D02*
X172974000Y-95269500D01*
X184673000Y-95547000D02*
X183501000Y-94375000D01*
X168148000Y-99744366D02*
X168148000Y-100533200D01*
X167330400Y-101350800D02*
X167330400Y-113025200D01*
X172622866Y-95269500D02*
X168148000Y-99744366D01*
X183501000Y-94375000D02*
X178286327Y-94375000D01*
X167330400Y-113025200D02*
X167792400Y-113487200D01*
%TO.N,/RP2040/USB_BOOT*%
X181074000Y-95504000D02*
X181117000Y-95547000D01*
X172720000Y-95504000D02*
X181074000Y-95504000D01*
X168402000Y-99822000D02*
X172720000Y-95504000D01*
X168402000Y-101295200D02*
X168402000Y-99822000D01*
%TO.N,/RP2040/QSPI_CS*%
X174752000Y-105156000D02*
X172313600Y-105156000D01*
X174904400Y-105308400D02*
X174752000Y-105156000D01*
X174904400Y-108508800D02*
X174904400Y-105308400D01*
X172313600Y-105156000D02*
X171196000Y-104038400D01*
%TO.N,/UART1_RX*%
X183540400Y-110794800D02*
X182133201Y-110794800D01*
X182133201Y-110794800D02*
X182133000Y-110795001D01*
%TO.N,/RP2040/QSPI_SD3*%
X174967000Y-99766734D02*
X175194500Y-99539233D01*
X174892567Y-110698000D02*
X175248017Y-110342550D01*
X175194500Y-99539233D02*
X175194500Y-98866066D01*
X177647600Y-104722766D02*
X176187817Y-103262983D01*
X177647600Y-108942034D02*
X177647600Y-108051600D01*
X175248017Y-109614417D02*
X175453934Y-109408500D01*
X174967000Y-102042166D02*
X174967000Y-99766734D01*
X174016834Y-97688400D02*
X171856400Y-97688400D01*
X173080400Y-110698000D02*
X174892567Y-110698000D01*
X171856400Y-97688400D02*
X171399200Y-98145600D01*
X176936400Y-109408500D02*
X177181134Y-109408500D01*
X176187817Y-103262983D02*
X174967000Y-102042166D01*
X175248017Y-110342550D02*
X175248017Y-109614417D01*
X177181134Y-109408500D02*
X177647600Y-108942034D01*
X172923200Y-110540800D02*
X173080400Y-110698000D01*
X175194500Y-98866066D02*
X174016834Y-97688400D01*
X175453934Y-109408500D02*
X176936400Y-109408500D01*
X177647600Y-108051600D02*
X177647600Y-104722766D01*
%TO.N,/RP2040/QSPI_SCK*%
X174193200Y-98196400D02*
X172923200Y-98196400D01*
X174701200Y-110236000D02*
X174701200Y-109829600D01*
X174960000Y-99442100D02*
X174960000Y-98963200D01*
X174732500Y-99669600D02*
X174960000Y-99442100D01*
X177347600Y-108412000D02*
X177342800Y-108407200D01*
X177347600Y-108910400D02*
X177347600Y-108412000D01*
X177342800Y-104749600D02*
X175920400Y-103327200D01*
X177342800Y-108407200D02*
X177342800Y-104749600D01*
X175366400Y-109174000D02*
X177084000Y-109174000D01*
X177084000Y-109174000D02*
X177347600Y-108910400D01*
X175361600Y-109169200D02*
X175366400Y-109174000D01*
X174701200Y-109829600D02*
X175361600Y-109169200D01*
X175920400Y-103327200D02*
X174732500Y-102139300D01*
X174960000Y-98963200D02*
X174193200Y-98196400D01*
X174732500Y-102139300D02*
X174732500Y-99669600D01*
%TO.N,/RP2040/QSPI_SD0*%
X176885600Y-104648000D02*
X174498000Y-102260400D01*
X174498000Y-102260400D02*
X174498000Y-99161600D01*
X176885600Y-108712000D02*
X176885600Y-104648000D01*
%TO.N,/RP2040/QSPI_SD2*%
X176191655Y-108682843D02*
X176191655Y-105932389D01*
X176191655Y-105932389D02*
X174653266Y-104394000D01*
X174653266Y-104394000D02*
X173736000Y-104394000D01*
%TO.N,/RP2040/QSPI_SD1*%
X173786800Y-104902000D02*
X173228000Y-104902000D01*
X175547374Y-108600653D02*
X175547374Y-105619741D01*
X173228000Y-104902000D02*
X172923200Y-104597200D01*
X174829633Y-104902000D02*
X173786800Y-104902000D01*
X175547374Y-105619741D02*
X174829633Y-104902000D01*
%TO.N,/RP2040/LED0*%
X173024800Y-106172000D02*
X173024800Y-106077433D01*
X170695033Y-104851200D02*
X170208916Y-104365083D01*
X170789600Y-104851200D02*
X170695033Y-104851200D01*
X171476834Y-104851200D02*
X170789600Y-104851200D01*
X170208916Y-104365083D02*
X169599317Y-104365083D01*
X169599317Y-104365083D02*
X169570400Y-104394000D01*
X172155410Y-105529776D02*
X171476834Y-104851200D01*
X172477143Y-105529776D02*
X172155410Y-105529776D01*
X173024800Y-106077433D02*
X172477143Y-105529776D01*
%TO.N,/RP2040/LED1*%
X168960800Y-104749600D02*
X169362400Y-105151200D01*
X171445200Y-105151200D02*
X172313600Y-106019600D01*
X169362400Y-105151200D02*
X171445200Y-105151200D01*
%TO.N,/RP2040/LED2*%
X171907200Y-106578400D02*
X171404000Y-106075200D01*
X168910000Y-105664000D02*
X168402000Y-105156000D01*
X171404000Y-106075200D02*
X170177767Y-106075200D01*
X170177767Y-106075200D02*
X169766567Y-105664000D01*
X169766567Y-105664000D02*
X168910000Y-105664000D01*
X168402000Y-105156000D02*
X168402000Y-103479600D01*
%TD*%
%TA.AperFunction,Conductor*%
%TO.N,+12V*%
G36*
X161233039Y-108060085D02*
G01*
X161278794Y-108112889D01*
X161290000Y-108164400D01*
X161290000Y-112119235D01*
X161270315Y-112186274D01*
X161242422Y-112216886D01*
X154686000Y-117347999D01*
X154686000Y-122878000D01*
X154666315Y-122945039D01*
X154613511Y-122990794D01*
X154562000Y-123002000D01*
X131950000Y-123002000D01*
X131882961Y-122982315D01*
X131837206Y-122929511D01*
X131826000Y-122878000D01*
X131826000Y-113064400D01*
X131845685Y-112997361D01*
X131898489Y-112951606D01*
X131950000Y-112940400D01*
X156115000Y-112940400D01*
X156115000Y-108164400D01*
X156134685Y-108097361D01*
X156187489Y-108051606D01*
X156239000Y-108040400D01*
X161166000Y-108040400D01*
X161233039Y-108060085D01*
G37*
%TD.AperFunction*%
%TD*%
%TA.AperFunction,Conductor*%
%TO.N,/PHASE_A*%
G36*
X121358039Y-92475685D02*
G01*
X121403794Y-92528489D01*
X121415000Y-92580000D01*
X121415000Y-98936000D01*
X121395315Y-99003039D01*
X121342511Y-99048794D01*
X121291000Y-99060000D01*
X116839999Y-99060000D01*
X112268000Y-103631999D01*
X112268000Y-112776000D01*
X116295681Y-116803681D01*
X116329166Y-116865004D01*
X116332000Y-116891362D01*
X116332000Y-122878000D01*
X116312315Y-122945039D01*
X116259511Y-122990794D01*
X116208000Y-123002000D01*
X109413935Y-123002000D01*
X109346896Y-122982315D01*
X109325566Y-122964988D01*
X109305929Y-122945039D01*
X108018840Y-121637519D01*
X107985840Y-121575936D01*
X107983210Y-121550705D01*
X107971568Y-112776000D01*
X107950068Y-96571457D01*
X107969664Y-96504392D01*
X107986382Y-96483617D01*
X111977681Y-92492319D01*
X112039004Y-92458834D01*
X112065362Y-92456000D01*
X121291000Y-92456000D01*
X121358039Y-92475685D01*
G37*
%TD.AperFunction*%
%TD*%
%TA.AperFunction,Conductor*%
%TO.N,/PHASE_C*%
G36*
X121358039Y-105175685D02*
G01*
X121403794Y-105228489D01*
X121415000Y-105280000D01*
X121415000Y-112940400D01*
X131448000Y-112940400D01*
X131515039Y-112960085D01*
X131560794Y-113012889D01*
X131572000Y-113064400D01*
X131572000Y-122878000D01*
X131552315Y-122945039D01*
X131499511Y-122990794D01*
X131448000Y-123002000D01*
X124281500Y-123002000D01*
X124214461Y-122982315D01*
X124168706Y-122929511D01*
X124157500Y-122878000D01*
X124157500Y-117393862D01*
X124156910Y-117382856D01*
X124156910Y-117382855D01*
X124153488Y-117351038D01*
X124153488Y-117351035D01*
X124129529Y-117274518D01*
X124096044Y-117213195D01*
X124060991Y-117166371D01*
X122351737Y-115457117D01*
X122348485Y-115454196D01*
X122343552Y-115449763D01*
X122343554Y-115449764D01*
X122318624Y-115429675D01*
X122270527Y-115404516D01*
X122240322Y-115382322D01*
X122174000Y-115316000D01*
X120483982Y-115316000D01*
X120416943Y-115296315D01*
X120396301Y-115279681D01*
X117130319Y-112013699D01*
X117096834Y-111952376D01*
X117094000Y-111926018D01*
X117094000Y-105751982D01*
X117113685Y-105684943D01*
X117130319Y-105664301D01*
X117602301Y-105192319D01*
X117663624Y-105158834D01*
X117689982Y-105156000D01*
X121291000Y-105156000D01*
X121358039Y-105175685D01*
G37*
%TD.AperFunction*%
%TD*%
%TA.AperFunction,Conductor*%
%TO.N,GND*%
G36*
X170930255Y-97768196D02*
G01*
X170986188Y-97810068D01*
X171010605Y-97875532D01*
X170999716Y-97935889D01*
X170962502Y-98017376D01*
X170944067Y-98145600D01*
X170962502Y-98273825D01*
X170984922Y-98322917D01*
X171016318Y-98391663D01*
X171101151Y-98489567D01*
X171210131Y-98559604D01*
X171334425Y-98596099D01*
X171334427Y-98596100D01*
X171334428Y-98596100D01*
X171463973Y-98596100D01*
X171463973Y-98596099D01*
X171588269Y-98559604D01*
X171697249Y-98489567D01*
X171782082Y-98391663D01*
X171805639Y-98340078D01*
X171815182Y-98322927D01*
X171824638Y-98308713D01*
X171940149Y-98028187D01*
X171983876Y-97973692D01*
X172050124Y-97951489D01*
X172054809Y-97951400D01*
X172360189Y-97951400D01*
X172427228Y-97971085D01*
X172472983Y-98023889D01*
X172482927Y-98093047D01*
X172468067Y-98196400D01*
X172486502Y-98324625D01*
X172517118Y-98391663D01*
X172540318Y-98442463D01*
X172625151Y-98540367D01*
X172734131Y-98610404D01*
X172752352Y-98615754D01*
X172858425Y-98646899D01*
X172858427Y-98646900D01*
X172858428Y-98646900D01*
X172987973Y-98646900D01*
X173030634Y-98634373D01*
X173094052Y-98615751D01*
X173099295Y-98614458D01*
X173101891Y-98613936D01*
X173108691Y-98612569D01*
X173453405Y-98468938D01*
X173501097Y-98459400D01*
X174032900Y-98459400D01*
X174099939Y-98479085D01*
X174120581Y-98495719D01*
X174238798Y-98613936D01*
X174272283Y-98675259D01*
X174267299Y-98744951D01*
X174225427Y-98800884D01*
X174218158Y-98805932D01*
X174199950Y-98817633D01*
X174115118Y-98915537D01*
X174115117Y-98915538D01*
X174061302Y-99033374D01*
X174045864Y-99140754D01*
X174042867Y-99161600D01*
X174061303Y-99289826D01*
X174071455Y-99312055D01*
X174080225Y-99339115D01*
X174081828Y-99347088D01*
X174081831Y-99347096D01*
X174119708Y-99438000D01*
X174225461Y-99691806D01*
X174235000Y-99739497D01*
X174235000Y-102222287D01*
X174232617Y-102246479D01*
X174229848Y-102260399D01*
X174229848Y-102260402D01*
X174250259Y-102363015D01*
X174288000Y-102419500D01*
X174308388Y-102450012D01*
X174308391Y-102450015D01*
X174320191Y-102457899D01*
X174338983Y-102473321D01*
X176586281Y-104720619D01*
X176619766Y-104781942D01*
X176622600Y-104808300D01*
X176622600Y-105695184D01*
X176602915Y-105762223D01*
X176550111Y-105807978D01*
X176480953Y-105817922D01*
X176417397Y-105788897D01*
X176395501Y-105764080D01*
X176392556Y-105759672D01*
X176381267Y-105742776D01*
X176369461Y-105734888D01*
X176350671Y-105719467D01*
X174866186Y-104234982D01*
X174850765Y-104216192D01*
X174842877Y-104204387D01*
X174814011Y-104185100D01*
X174811158Y-104183194D01*
X174755883Y-104146260D01*
X174755881Y-104146259D01*
X174755878Y-104146258D01*
X174653268Y-104125848D01*
X174653267Y-104125848D01*
X174653266Y-104125848D01*
X174639343Y-104128617D01*
X174615154Y-104131000D01*
X174313901Y-104131000D01*
X174266209Y-104121462D01*
X173998235Y-104009806D01*
X173921490Y-103977829D01*
X173921489Y-103977828D01*
X173921485Y-103977827D01*
X173921480Y-103977826D01*
X173912006Y-103975917D01*
X173906784Y-103974627D01*
X173800774Y-103943500D01*
X173800772Y-103943500D01*
X173671228Y-103943500D01*
X173671226Y-103943500D01*
X173546935Y-103979994D01*
X173546932Y-103979995D01*
X173546931Y-103979996D01*
X173512292Y-104002257D01*
X173437950Y-104050033D01*
X173353118Y-104147937D01*
X173353117Y-104147938D01*
X173345466Y-104164691D01*
X173299709Y-104217494D01*
X173232669Y-104237176D01*
X173165635Y-104217492D01*
X173112269Y-104183196D01*
X173112265Y-104183194D01*
X173112264Y-104183194D01*
X172987974Y-104146700D01*
X172987972Y-104146700D01*
X172858428Y-104146700D01*
X172858426Y-104146700D01*
X172734135Y-104183194D01*
X172734132Y-104183195D01*
X172734131Y-104183196D01*
X172701157Y-104204387D01*
X172625150Y-104253233D01*
X172540318Y-104351137D01*
X172540317Y-104351138D01*
X172486502Y-104468974D01*
X172468067Y-104597200D01*
X172468067Y-104597201D01*
X172472362Y-104627079D01*
X172462417Y-104696238D01*
X172416661Y-104749041D01*
X172349622Y-104768724D01*
X172282583Y-104749038D01*
X172261943Y-104732405D01*
X171790604Y-104261066D01*
X171763625Y-104220598D01*
X171762940Y-104218935D01*
X171621438Y-103875286D01*
X171611936Y-103860989D01*
X171602415Y-103843866D01*
X171578884Y-103792340D01*
X171578882Y-103792338D01*
X171578882Y-103792337D01*
X171494049Y-103694433D01*
X171385069Y-103624396D01*
X171385065Y-103624394D01*
X171385064Y-103624394D01*
X171260774Y-103587900D01*
X171260772Y-103587900D01*
X171131228Y-103587900D01*
X171131226Y-103587900D01*
X171006935Y-103624394D01*
X171006932Y-103624395D01*
X171006931Y-103624396D01*
X170956091Y-103657069D01*
X170932839Y-103672012D01*
X170865799Y-103691696D01*
X170798761Y-103672012D01*
X170724669Y-103624396D01*
X170724665Y-103624394D01*
X170724664Y-103624394D01*
X170600374Y-103587900D01*
X170600372Y-103587900D01*
X170470828Y-103587900D01*
X170470826Y-103587900D01*
X170346535Y-103624394D01*
X170346532Y-103624395D01*
X170346531Y-103624396D01*
X170317458Y-103643080D01*
X170237550Y-103694433D01*
X170152718Y-103792337D01*
X170152717Y-103792338D01*
X170098903Y-103910174D01*
X170094801Y-103938702D01*
X170065775Y-104002257D01*
X170006996Y-104040031D01*
X169937127Y-104040030D01*
X169931087Y-104038087D01*
X169744379Y-103972716D01*
X169727582Y-103970085D01*
X169719702Y-103968319D01*
X169635174Y-103943500D01*
X169635172Y-103943500D01*
X169505628Y-103943500D01*
X169505626Y-103943500D01*
X169381335Y-103979994D01*
X169381332Y-103979995D01*
X169381331Y-103979996D01*
X169346692Y-104002257D01*
X169272350Y-104050033D01*
X169187518Y-104147936D01*
X169151319Y-104227200D01*
X169105563Y-104280003D01*
X169038524Y-104299687D01*
X169030314Y-104299100D01*
X169025572Y-104299100D01*
X168896028Y-104299100D01*
X168823933Y-104320268D01*
X168754064Y-104320267D01*
X168695286Y-104282491D01*
X168666262Y-104218935D01*
X168665000Y-104201290D01*
X168665000Y-104057498D01*
X168674538Y-104009806D01*
X168818169Y-103665091D01*
X168819785Y-103657066D01*
X168828550Y-103630044D01*
X168838696Y-103607829D01*
X168838697Y-103607825D01*
X168841562Y-103587900D01*
X168857133Y-103479600D01*
X168838697Y-103351374D01*
X168784882Y-103233537D01*
X168700049Y-103135633D01*
X168591069Y-103065596D01*
X168591065Y-103065594D01*
X168591064Y-103065594D01*
X168466774Y-103029100D01*
X168466772Y-103029100D01*
X168337228Y-103029100D01*
X168337226Y-103029100D01*
X168212935Y-103065594D01*
X168212932Y-103065595D01*
X168212931Y-103065596D01*
X168161677Y-103098534D01*
X168103950Y-103135633D01*
X168019118Y-103233537D01*
X168019117Y-103233538D01*
X167965302Y-103351374D01*
X167946867Y-103479600D01*
X167965302Y-103607825D01*
X167965303Y-103607828D01*
X167975453Y-103630051D01*
X167984226Y-103657116D01*
X167985829Y-103665090D01*
X168056082Y-103833695D01*
X168129461Y-104009805D01*
X168139000Y-104057496D01*
X168139000Y-105117887D01*
X168136616Y-105142079D01*
X168133848Y-105156000D01*
X168137553Y-105174627D01*
X168138140Y-105177575D01*
X168138147Y-105177617D01*
X168154258Y-105258612D01*
X168154259Y-105258615D01*
X168154260Y-105258617D01*
X168212388Y-105345612D01*
X168224192Y-105353499D01*
X168242982Y-105368920D01*
X168697080Y-105823019D01*
X168712501Y-105841809D01*
X168720387Y-105853612D01*
X168737279Y-105864899D01*
X168771693Y-105887893D01*
X168807383Y-105911740D01*
X168890064Y-105928187D01*
X168890071Y-105928187D01*
X168910000Y-105932152D01*
X168923920Y-105929383D01*
X168948113Y-105927000D01*
X169439966Y-105927000D01*
X169507005Y-105946685D01*
X169552760Y-105999489D01*
X169562704Y-106068647D01*
X169533680Y-106132202D01*
X169492318Y-106179937D01*
X169492317Y-106179938D01*
X169438502Y-106297774D01*
X169420067Y-106426000D01*
X169438502Y-106554225D01*
X169492317Y-106672061D01*
X169492318Y-106672063D01*
X169577151Y-106769967D01*
X169686131Y-106840004D01*
X169781602Y-106868036D01*
X169810425Y-106876499D01*
X169810427Y-106876500D01*
X169810428Y-106876500D01*
X169939973Y-106876500D01*
X169939973Y-106876499D01*
X170064269Y-106840004D01*
X170173249Y-106769967D01*
X170250019Y-106681367D01*
X170308796Y-106643592D01*
X170378666Y-106643591D01*
X170437445Y-106681365D01*
X170456525Y-106711054D01*
X170508318Y-106824463D01*
X170593151Y-106922367D01*
X170702131Y-106992404D01*
X170826425Y-107028899D01*
X170826427Y-107028900D01*
X170826428Y-107028900D01*
X170955973Y-107028900D01*
X170955973Y-107028899D01*
X171080269Y-106992404D01*
X171189249Y-106922367D01*
X171274082Y-106824463D01*
X171286405Y-106797477D01*
X171332157Y-106744675D01*
X171399196Y-106724989D01*
X171466236Y-106744672D01*
X171511992Y-106797474D01*
X171511992Y-106797475D01*
X171524316Y-106824460D01*
X171524317Y-106824461D01*
X171524318Y-106824463D01*
X171609151Y-106922367D01*
X171718131Y-106992404D01*
X171842425Y-107028899D01*
X171842427Y-107028900D01*
X171842428Y-107028900D01*
X171971973Y-107028900D01*
X171971973Y-107028899D01*
X172096269Y-106992404D01*
X172205249Y-106922367D01*
X172290082Y-106824463D01*
X172343897Y-106706626D01*
X172362333Y-106578400D01*
X172362333Y-106578399D01*
X172362333Y-106569531D01*
X172365614Y-106569531D01*
X172373264Y-106516229D01*
X172419005Y-106463413D01*
X172451134Y-106448735D01*
X172502669Y-106433604D01*
X172510368Y-106428656D01*
X172577403Y-106408969D01*
X172644444Y-106428651D01*
X172671123Y-106451768D01*
X172726748Y-106515965D01*
X172726750Y-106515966D01*
X172726751Y-106515967D01*
X172835731Y-106586004D01*
X172849453Y-106590033D01*
X172960025Y-106622499D01*
X172960027Y-106622500D01*
X172960028Y-106622500D01*
X173089573Y-106622500D01*
X173089573Y-106622499D01*
X173213869Y-106586004D01*
X173322849Y-106515967D01*
X173407682Y-106418063D01*
X173461497Y-106300226D01*
X173479933Y-106172000D01*
X173461497Y-106043774D01*
X173407682Y-105925937D01*
X173322849Y-105828033D01*
X173261952Y-105788897D01*
X173223684Y-105764304D01*
X173220705Y-105762264D01*
X173215826Y-105758711D01*
X173215824Y-105758709D01*
X173215822Y-105758708D01*
X173030640Y-105649911D01*
X172982812Y-105598982D01*
X172970110Y-105530277D01*
X172996570Y-105465611D01*
X173053790Y-105425516D01*
X173093456Y-105419000D01*
X174517400Y-105419000D01*
X174584439Y-105438685D01*
X174630194Y-105491489D01*
X174641400Y-105543000D01*
X174641400Y-106949835D01*
X174621715Y-107016874D01*
X174568911Y-107062629D01*
X174499753Y-107072573D01*
X174449462Y-107049611D01*
X174447910Y-107052028D01*
X174411922Y-107028900D01*
X174331469Y-106977196D01*
X174331465Y-106977194D01*
X174331464Y-106977194D01*
X174207174Y-106940700D01*
X174207172Y-106940700D01*
X174077628Y-106940700D01*
X174077626Y-106940700D01*
X173953330Y-106977195D01*
X173938397Y-106986792D01*
X173932492Y-106990145D01*
X173925946Y-106993401D01*
X173925943Y-106993402D01*
X173925940Y-106993404D01*
X173840024Y-107047233D01*
X173724739Y-107119462D01*
X173683097Y-107135999D01*
X173645597Y-107143458D01*
X173645595Y-107143459D01*
X173645594Y-107143460D01*
X173580557Y-107186916D01*
X173580554Y-107186918D01*
X173573350Y-107191731D01*
X173558597Y-107201589D01*
X173550714Y-107213388D01*
X173535295Y-107232176D01*
X173518930Y-107248542D01*
X173513768Y-107253157D01*
X173511540Y-107254936D01*
X173511520Y-107254952D01*
X173511506Y-107254964D01*
X173504776Y-107260644D01*
X173502650Y-107262440D01*
X173502119Y-107263017D01*
X173489443Y-107278027D01*
X173370793Y-107396680D01*
X173309471Y-107430166D01*
X173283111Y-107433000D01*
X169151312Y-107433000D01*
X169127122Y-107430617D01*
X169113200Y-107427848D01*
X169113199Y-107427848D01*
X169113198Y-107427848D01*
X169010582Y-107448259D01*
X169010581Y-107448259D01*
X168947010Y-107490736D01*
X168947002Y-107490742D01*
X168945545Y-107491716D01*
X168945542Y-107491718D01*
X168938338Y-107496531D01*
X168923585Y-107506389D01*
X168915702Y-107518188D01*
X168900283Y-107536976D01*
X167805081Y-108632179D01*
X167743758Y-108665664D01*
X167674066Y-108660680D01*
X167618133Y-108618808D01*
X167593716Y-108553344D01*
X167593400Y-108544498D01*
X167593400Y-101511099D01*
X167613085Y-101444060D01*
X167629712Y-101423426D01*
X167747956Y-101305180D01*
X167809274Y-101271699D01*
X167878966Y-101276683D01*
X167934900Y-101318554D01*
X167958371Y-101375217D01*
X167965302Y-101423425D01*
X167974726Y-101444060D01*
X168019118Y-101541263D01*
X168103951Y-101639167D01*
X168212931Y-101709204D01*
X168337225Y-101745699D01*
X168337227Y-101745700D01*
X168337228Y-101745700D01*
X168466773Y-101745700D01*
X168466773Y-101745699D01*
X168591069Y-101709204D01*
X168700049Y-101639167D01*
X168784882Y-101541263D01*
X168838697Y-101423426D01*
X168857133Y-101295200D01*
X168838697Y-101166974D01*
X168828540Y-101144735D01*
X168819772Y-101117679D01*
X168818169Y-101109708D01*
X168674538Y-100764992D01*
X168665000Y-100717300D01*
X168665000Y-99982300D01*
X168684685Y-99915261D01*
X168701319Y-99894619D01*
X169729875Y-98866063D01*
X170799242Y-97796695D01*
X170860563Y-97763212D01*
X170930255Y-97768196D01*
G37*
%TD.AperFunction*%
%TA.AperFunction,Conductor*%
G36*
X158130677Y-87969685D02*
G01*
X158151319Y-87986319D01*
X161673459Y-91508460D01*
X161673461Y-91508461D01*
X184860631Y-91506005D01*
X184927671Y-91525682D01*
X184948324Y-91542324D01*
X186109881Y-92703881D01*
X186143366Y-92765204D01*
X186146200Y-92791562D01*
X186146200Y-121325608D01*
X186126515Y-121392647D01*
X186110569Y-121412596D01*
X185276652Y-122259750D01*
X184617357Y-122929511D01*
X184582434Y-122964988D01*
X184521376Y-122998955D01*
X184494065Y-123002000D01*
X155015500Y-123002000D01*
X154948461Y-122982315D01*
X154902706Y-122929511D01*
X154891500Y-122878000D01*
X154891500Y-117508539D01*
X154911185Y-117441500D01*
X154939078Y-117410888D01*
X155861039Y-116689353D01*
X156966768Y-115824000D01*
X166422867Y-115824000D01*
X166441302Y-115952225D01*
X166471918Y-116019263D01*
X166495118Y-116070063D01*
X166579951Y-116167967D01*
X166688931Y-116238004D01*
X166702653Y-116242033D01*
X166813225Y-116274499D01*
X166813227Y-116274500D01*
X166813228Y-116274500D01*
X166942773Y-116274500D01*
X166942773Y-116274499D01*
X167067069Y-116238004D01*
X167176049Y-116167967D01*
X167260882Y-116070063D01*
X167314697Y-115952226D01*
X167333133Y-115824000D01*
X169623267Y-115824000D01*
X169641702Y-115952225D01*
X169672318Y-116019263D01*
X169695518Y-116070063D01*
X169780351Y-116167967D01*
X169889331Y-116238004D01*
X169903053Y-116242033D01*
X170013625Y-116274499D01*
X170013627Y-116274500D01*
X170013628Y-116274500D01*
X170143173Y-116274500D01*
X170143173Y-116274499D01*
X170267469Y-116238004D01*
X170376449Y-116167967D01*
X170461282Y-116070063D01*
X170515097Y-115952226D01*
X170533533Y-115824000D01*
X170526229Y-115773200D01*
X171604467Y-115773200D01*
X171622902Y-115901425D01*
X171646102Y-115952225D01*
X171676718Y-116019263D01*
X171761551Y-116117167D01*
X171870531Y-116187204D01*
X171994825Y-116223699D01*
X171994827Y-116223700D01*
X171994828Y-116223700D01*
X172124373Y-116223700D01*
X172124373Y-116223699D01*
X172248669Y-116187204D01*
X172357649Y-116117167D01*
X172442482Y-116019263D01*
X172496297Y-115901426D01*
X172514733Y-115773200D01*
X172496297Y-115644974D01*
X172442482Y-115527137D01*
X172357649Y-115429233D01*
X172248669Y-115359196D01*
X172248665Y-115359194D01*
X172248664Y-115359194D01*
X172124374Y-115322700D01*
X172124372Y-115322700D01*
X171994828Y-115322700D01*
X171994826Y-115322700D01*
X171870535Y-115359194D01*
X171870532Y-115359195D01*
X171870531Y-115359196D01*
X171819277Y-115392134D01*
X171761550Y-115429233D01*
X171676718Y-115527137D01*
X171676717Y-115527138D01*
X171622902Y-115644974D01*
X171604467Y-115773200D01*
X170526229Y-115773200D01*
X170515097Y-115695774D01*
X170461282Y-115577937D01*
X170376449Y-115480033D01*
X170267469Y-115409996D01*
X170267465Y-115409994D01*
X170267464Y-115409994D01*
X170143174Y-115373500D01*
X170143172Y-115373500D01*
X170013628Y-115373500D01*
X170013626Y-115373500D01*
X169889335Y-115409994D01*
X169889332Y-115409995D01*
X169889331Y-115409996D01*
X169859398Y-115429233D01*
X169780350Y-115480033D01*
X169695518Y-115577937D01*
X169695517Y-115577938D01*
X169641702Y-115695774D01*
X169623267Y-115824000D01*
X167333133Y-115824000D01*
X167314697Y-115695774D01*
X167260882Y-115577937D01*
X167176049Y-115480033D01*
X167067069Y-115409996D01*
X167067065Y-115409994D01*
X167067064Y-115409994D01*
X166942774Y-115373500D01*
X166942772Y-115373500D01*
X166813228Y-115373500D01*
X166813226Y-115373500D01*
X166688935Y-115409994D01*
X166688932Y-115409995D01*
X166688931Y-115409996D01*
X166658998Y-115429233D01*
X166579950Y-115480033D01*
X166495118Y-115577937D01*
X166495117Y-115577938D01*
X166441302Y-115695774D01*
X166422867Y-115824000D01*
X156966768Y-115824000D01*
X161369073Y-112378718D01*
X161369076Y-112378715D01*
X161369076Y-112378716D01*
X161394322Y-112355294D01*
X161401205Y-112347740D01*
X161422215Y-112324682D01*
X161422843Y-112323989D01*
X161467490Y-112244172D01*
X161487175Y-112177133D01*
X161495500Y-112119235D01*
X161495500Y-111302800D01*
X165457667Y-111302800D01*
X165476102Y-111431025D01*
X165510268Y-111505837D01*
X165529918Y-111548863D01*
X165614751Y-111646767D01*
X165723731Y-111716804D01*
X165788516Y-111735826D01*
X165848025Y-111753299D01*
X165848027Y-111753300D01*
X165848028Y-111753300D01*
X165977573Y-111753300D01*
X165977573Y-111753299D01*
X166101869Y-111716804D01*
X166169961Y-111673043D01*
X166237000Y-111653359D01*
X166304039Y-111673044D01*
X166349794Y-111725848D01*
X166361000Y-111777359D01*
X166361000Y-113343971D01*
X166358616Y-113368163D01*
X166355848Y-113382084D01*
X166360018Y-113403049D01*
X166360140Y-113403659D01*
X166360147Y-113403701D01*
X166376258Y-113484696D01*
X166376259Y-113484699D01*
X166376260Y-113484701D01*
X166434388Y-113571696D01*
X166446192Y-113579583D01*
X166464982Y-113595004D01*
X167328994Y-114459016D01*
X167344415Y-114477806D01*
X167352303Y-114489612D01*
X167369192Y-114500896D01*
X167369200Y-114500903D01*
X167431255Y-114542366D01*
X167439298Y-114547740D01*
X167439301Y-114547740D01*
X167439302Y-114547741D01*
X167541914Y-114568152D01*
X167541915Y-114568152D01*
X167541915Y-114568151D01*
X167541916Y-114568152D01*
X167555838Y-114565382D01*
X167580028Y-114563000D01*
X173067700Y-114563000D01*
X173134739Y-114582685D01*
X173155381Y-114599319D01*
X175809078Y-117253016D01*
X175824499Y-117271806D01*
X175832388Y-117283613D01*
X175854341Y-117298281D01*
X175854343Y-117298282D01*
X175854345Y-117298283D01*
X175854346Y-117298284D01*
X175888903Y-117321374D01*
X175919383Y-117341740D01*
X175966111Y-117351035D01*
X176021999Y-117362152D01*
X176021999Y-117362151D01*
X176022000Y-117362152D01*
X176035922Y-117359382D01*
X176060112Y-117357000D01*
X177613177Y-117357000D01*
X177680216Y-117376685D01*
X177725971Y-117429489D01*
X177735915Y-117498647D01*
X177716279Y-117549889D01*
X177704647Y-117567300D01*
X177689631Y-117589771D01*
X177678000Y-117648247D01*
X177678000Y-122259752D01*
X177689631Y-122318229D01*
X177689632Y-122318230D01*
X177733947Y-122384552D01*
X177800269Y-122428867D01*
X177800270Y-122428868D01*
X177858747Y-122440499D01*
X177858750Y-122440500D01*
X177858752Y-122440500D01*
X179549250Y-122440500D01*
X179549251Y-122440499D01*
X179564068Y-122437552D01*
X179607729Y-122428868D01*
X179607729Y-122428867D01*
X179607731Y-122428867D01*
X179674052Y-122384552D01*
X179718367Y-122318231D01*
X179718367Y-122318229D01*
X179718368Y-122318229D01*
X179729999Y-122259752D01*
X179730000Y-122259750D01*
X179730000Y-117648249D01*
X179729999Y-117648247D01*
X179718368Y-117589771D01*
X179718365Y-117589766D01*
X179691720Y-117549890D01*
X179670843Y-117483214D01*
X179689327Y-117415834D01*
X179741305Y-117369144D01*
X179794823Y-117357000D01*
X180147459Y-117357000D01*
X180214498Y-117376685D01*
X180260253Y-117429489D01*
X180270197Y-117498647D01*
X180251103Y-117549073D01*
X180247702Y-117554251D01*
X180247701Y-117554253D01*
X180244081Y-117560380D01*
X180240171Y-117567300D01*
X180237574Y-117573579D01*
X180232078Y-117583866D01*
X180229631Y-117589773D01*
X180222798Y-117624125D01*
X180219130Y-117642569D01*
X180218072Y-117647019D01*
X180215740Y-117655431D01*
X180215739Y-117655435D01*
X180215739Y-117655437D01*
X180215327Y-117664383D01*
X180216422Y-117671614D01*
X180216601Y-117672791D01*
X180218000Y-117691366D01*
X180218000Y-122259752D01*
X180229631Y-122318229D01*
X180229632Y-122318230D01*
X180273947Y-122384552D01*
X180340269Y-122428867D01*
X180340270Y-122428868D01*
X180398747Y-122440499D01*
X180398750Y-122440500D01*
X180398752Y-122440500D01*
X182089250Y-122440500D01*
X182089251Y-122440499D01*
X182104068Y-122437552D01*
X182147729Y-122428868D01*
X182147729Y-122428867D01*
X182147731Y-122428867D01*
X182214052Y-122384552D01*
X182258367Y-122318231D01*
X182258367Y-122318229D01*
X182258368Y-122318229D01*
X182269999Y-122259752D01*
X182270000Y-122259750D01*
X182270000Y-117648249D01*
X182269999Y-117648247D01*
X182258368Y-117589770D01*
X182258367Y-117589769D01*
X182214052Y-117523447D01*
X182147730Y-117479132D01*
X182147729Y-117479131D01*
X182089252Y-117467500D01*
X182089248Y-117467500D01*
X181873290Y-117467500D01*
X181806251Y-117447815D01*
X181801400Y-117444534D01*
X181019394Y-116888102D01*
X180998387Y-116877594D01*
X180991672Y-116873692D01*
X180950619Y-116846261D01*
X180950617Y-116846260D01*
X180925134Y-116841191D01*
X180873901Y-116831000D01*
X180860950Y-116828424D01*
X180848001Y-116825848D01*
X180848000Y-116825848D01*
X180834077Y-116828617D01*
X180809888Y-116831000D01*
X179633011Y-116831000D01*
X179565972Y-116811315D01*
X179520217Y-116758511D01*
X179510273Y-116689353D01*
X179525133Y-116586000D01*
X179506697Y-116457774D01*
X179452882Y-116339937D01*
X179368049Y-116242033D01*
X179259069Y-116171996D01*
X179259065Y-116171994D01*
X179259064Y-116171994D01*
X179134774Y-116135500D01*
X179134772Y-116135500D01*
X179005228Y-116135500D01*
X178899172Y-116166639D01*
X178893929Y-116167934D01*
X178884513Y-116169827D01*
X178884504Y-116169830D01*
X178539794Y-116313461D01*
X178492101Y-116323000D01*
X176005935Y-116323000D01*
X175938896Y-116303315D01*
X175918254Y-116286681D01*
X174406887Y-114775314D01*
X174373402Y-114713991D01*
X174378386Y-114644299D01*
X174420258Y-114588366D01*
X174427529Y-114583317D01*
X174491249Y-114542367D01*
X174576082Y-114444463D01*
X174629897Y-114326626D01*
X174648333Y-114198400D01*
X174629897Y-114070174D01*
X174606622Y-114019210D01*
X180663534Y-114019210D01*
X180683312Y-114169444D01*
X180683313Y-114169446D01*
X180741302Y-114309443D01*
X180833549Y-114429661D01*
X180953767Y-114521908D01*
X181093764Y-114579897D01*
X181206280Y-114594710D01*
X181206287Y-114594710D01*
X181281713Y-114594710D01*
X181281720Y-114594710D01*
X181394236Y-114579897D01*
X181534233Y-114521908D01*
X181654451Y-114429661D01*
X181746698Y-114309443D01*
X181804687Y-114169446D01*
X181824466Y-114019210D01*
X181804687Y-113868974D01*
X181746698Y-113728977D01*
X181654451Y-113608759D01*
X181534233Y-113516512D01*
X181534229Y-113516510D01*
X181457423Y-113484696D01*
X181394236Y-113458523D01*
X181380171Y-113456671D01*
X181281727Y-113443710D01*
X181281720Y-113443710D01*
X181206280Y-113443710D01*
X181206272Y-113443710D01*
X181093764Y-113458523D01*
X181093763Y-113458523D01*
X180953770Y-113516510D01*
X180953767Y-113516511D01*
X180953767Y-113516512D01*
X180833549Y-113608759D01*
X180750473Y-113717026D01*
X180741300Y-113728980D01*
X180683313Y-113868973D01*
X180683312Y-113868975D01*
X180663534Y-114019209D01*
X180663534Y-114019210D01*
X174606622Y-114019210D01*
X174576082Y-113952337D01*
X174491249Y-113854433D01*
X174382269Y-113784396D01*
X174382265Y-113784394D01*
X174382264Y-113784394D01*
X174257974Y-113747900D01*
X174257972Y-113747900D01*
X174128428Y-113747900D01*
X174128426Y-113747900D01*
X174004135Y-113784394D01*
X174004132Y-113784395D01*
X174004131Y-113784396D01*
X173979669Y-113800117D01*
X173895150Y-113854433D01*
X173810318Y-113952337D01*
X173805524Y-113959797D01*
X173802613Y-113957926D01*
X173767685Y-113998169D01*
X173700629Y-114017798D01*
X173633606Y-113998058D01*
X173613051Y-113981479D01*
X173538054Y-113906482D01*
X173522633Y-113887692D01*
X173514746Y-113875888D01*
X173475253Y-113849500D01*
X173427752Y-113817760D01*
X173415133Y-113815250D01*
X173351035Y-113802500D01*
X173338084Y-113799924D01*
X173325135Y-113797348D01*
X173325134Y-113797348D01*
X173311211Y-113800117D01*
X173287022Y-113802500D01*
X168336611Y-113802500D01*
X168269572Y-113782815D01*
X168223817Y-113730011D01*
X168213873Y-113660853D01*
X168223816Y-113626990D01*
X168229097Y-113615425D01*
X168247533Y-113487200D01*
X168229097Y-113358974D01*
X168175282Y-113241137D01*
X168175280Y-113241135D01*
X168175279Y-113241132D01*
X168146009Y-113207353D01*
X168116984Y-113143797D01*
X168126928Y-113074639D01*
X168146010Y-113044948D01*
X168175282Y-113011166D01*
X168198325Y-112960706D01*
X168208229Y-112943015D01*
X168217455Y-112929303D01*
X168361311Y-112585126D01*
X168388035Y-112545268D01*
X168413420Y-112519883D01*
X168432200Y-112504470D01*
X168444012Y-112496579D01*
X168483786Y-112437053D01*
X168502140Y-112409585D01*
X168502140Y-112409583D01*
X168502141Y-112409583D01*
X168522552Y-112306969D01*
X168522552Y-112306966D01*
X168519783Y-112293046D01*
X168517400Y-112268854D01*
X168517400Y-112166890D01*
X181177500Y-112166890D01*
X181185822Y-112224777D01*
X181185825Y-112224789D01*
X181191517Y-112244175D01*
X181226331Y-112362740D01*
X181247725Y-112409585D01*
X181250629Y-112415944D01*
X181250631Y-112415950D01*
X181328360Y-112536898D01*
X181328361Y-112536899D01*
X181366666Y-112581105D01*
X181371308Y-112585127D01*
X181475315Y-112675250D01*
X181475322Y-112675255D01*
X181475327Y-112675259D01*
X181511141Y-112698275D01*
X181524527Y-112706878D01*
X181524543Y-112706887D01*
X181647217Y-112762910D01*
X181655317Y-112766609D01*
X181711439Y-112783088D01*
X181711444Y-112783088D01*
X181711445Y-112783089D01*
X181727693Y-112785424D01*
X181763646Y-112790594D01*
X181827202Y-112819618D01*
X181864977Y-112878396D01*
X181870000Y-112913332D01*
X181870000Y-113210087D01*
X181867616Y-113234279D01*
X181864848Y-113248200D01*
X181867416Y-113261112D01*
X181869140Y-113269775D01*
X181869147Y-113269817D01*
X181885258Y-113350812D01*
X181885259Y-113350815D01*
X181885260Y-113350817D01*
X181903469Y-113378068D01*
X181916331Y-113403047D01*
X182046692Y-113747329D01*
X182047330Y-113748946D01*
X182056009Y-113762229D01*
X182064995Y-113778539D01*
X182090718Y-113834863D01*
X182175551Y-113932767D01*
X182284531Y-114002804D01*
X182408825Y-114039299D01*
X182408827Y-114039300D01*
X182408828Y-114039300D01*
X182538373Y-114039300D01*
X182538373Y-114039299D01*
X182662669Y-114002804D01*
X182771649Y-113932767D01*
X182856482Y-113834863D01*
X182910297Y-113717026D01*
X182928733Y-113588800D01*
X182910297Y-113460574D01*
X182856482Y-113342737D01*
X182771649Y-113244833D01*
X182662669Y-113174796D01*
X182662667Y-113174795D01*
X182652644Y-113171852D01*
X182625325Y-113160113D01*
X182624062Y-113159379D01*
X182624057Y-113159377D01*
X182624055Y-113159376D01*
X182578545Y-113143797D01*
X182479839Y-113110007D01*
X182422789Y-113069671D01*
X182396602Y-113004895D01*
X182396000Y-112992691D01*
X182396000Y-112913332D01*
X182415685Y-112846293D01*
X182468489Y-112800538D01*
X182502351Y-112790594D01*
X182554561Y-112783088D01*
X182610683Y-112766609D01*
X182669831Y-112739597D01*
X182741456Y-112706887D01*
X182741460Y-112706884D01*
X182741468Y-112706881D01*
X182790673Y-112675259D01*
X182790681Y-112675252D01*
X182790684Y-112675250D01*
X182819590Y-112650202D01*
X182899334Y-112581105D01*
X182937639Y-112536899D01*
X183015371Y-112415945D01*
X183039669Y-112362740D01*
X183080176Y-112224785D01*
X183088500Y-112166889D01*
X183088500Y-111595000D01*
X183083348Y-111549272D01*
X183083151Y-111548863D01*
X183061856Y-111504644D01*
X183050504Y-111435703D01*
X183066086Y-111398677D01*
X183062087Y-111396752D01*
X183068148Y-111384164D01*
X183068147Y-111384164D01*
X183068149Y-111384163D01*
X183088500Y-111295000D01*
X183088500Y-111285965D01*
X183108185Y-111218926D01*
X183160989Y-111173171D01*
X183230147Y-111163227D01*
X183260189Y-111171503D01*
X183354907Y-111210969D01*
X183361062Y-111212209D01*
X183364375Y-111212877D01*
X183369591Y-111214165D01*
X183419563Y-111228838D01*
X183475627Y-111245300D01*
X183475628Y-111245300D01*
X183605173Y-111245300D01*
X183605173Y-111245299D01*
X183729469Y-111208804D01*
X183780462Y-111176032D01*
X183847501Y-111156349D01*
X183914540Y-111176034D01*
X183960295Y-111228838D01*
X183970676Y-111276565D01*
X183971305Y-111276530D01*
X183971500Y-111280005D01*
X183976651Y-111325729D01*
X183998144Y-111370357D01*
X184009496Y-111439298D01*
X183993943Y-111476340D01*
X183997913Y-111478252D01*
X183991850Y-111490840D01*
X183971500Y-111579996D01*
X183971500Y-112151891D01*
X183979822Y-112209778D01*
X183979824Y-112209786D01*
X184020331Y-112347741D01*
X184044629Y-112400946D01*
X184050180Y-112409583D01*
X184064738Y-112432237D01*
X184084422Y-112499277D01*
X184064737Y-112566316D01*
X184048103Y-112586957D01*
X183624979Y-113010081D01*
X183606191Y-113025500D01*
X183594388Y-113033386D01*
X183571663Y-113067394D01*
X183571657Y-113067407D01*
X183536259Y-113120384D01*
X183536258Y-113120387D01*
X183515848Y-113222997D01*
X183515848Y-113222999D01*
X183518617Y-113236919D01*
X183521000Y-113261112D01*
X183521000Y-116708135D01*
X183501315Y-116775174D01*
X183488061Y-116792301D01*
X183399513Y-116888103D01*
X182812409Y-117523299D01*
X182812405Y-117523304D01*
X182812405Y-117523303D01*
X182802057Y-117536386D01*
X182792832Y-117548050D01*
X182792828Y-117548056D01*
X182790840Y-117551010D01*
X182790838Y-117551014D01*
X182780496Y-117568119D01*
X182778414Y-117572948D01*
X182770803Y-117586940D01*
X182769632Y-117589768D01*
X182757777Y-117649367D01*
X182756714Y-117653836D01*
X182756049Y-117656231D01*
X182756048Y-117656243D01*
X182755633Y-117665186D01*
X182756606Y-117671614D01*
X182758000Y-117690156D01*
X182758000Y-122259752D01*
X182769631Y-122318229D01*
X182769632Y-122318230D01*
X182813947Y-122384552D01*
X182880269Y-122428867D01*
X182880270Y-122428868D01*
X182938747Y-122440499D01*
X182938750Y-122440500D01*
X182938752Y-122440500D01*
X184629250Y-122440500D01*
X184629251Y-122440499D01*
X184644068Y-122437552D01*
X184687729Y-122428868D01*
X184687729Y-122428867D01*
X184687731Y-122428867D01*
X184754052Y-122384552D01*
X184798367Y-122318231D01*
X184798367Y-122318229D01*
X184798368Y-122318229D01*
X184809999Y-122259752D01*
X184810000Y-122259750D01*
X184810000Y-117715795D01*
X184811286Y-117697984D01*
X184812337Y-117690744D01*
X184810515Y-117676707D01*
X184810000Y-117668723D01*
X184810000Y-117648250D01*
X184801271Y-117604370D01*
X184800598Y-117600275D01*
X184800569Y-117600048D01*
X184800567Y-117600042D01*
X184800080Y-117598064D01*
X184799485Y-117595391D01*
X184798367Y-117589769D01*
X184773666Y-117552802D01*
X184755678Y-117523447D01*
X184755582Y-117523290D01*
X184079939Y-116792302D01*
X184048891Y-116729710D01*
X184047000Y-116708136D01*
X184047000Y-113383299D01*
X184066685Y-113316260D01*
X184083315Y-113295622D01*
X184554174Y-112824762D01*
X184615495Y-112791279D01*
X184643325Y-112789294D01*
X184643325Y-112788551D01*
X184706242Y-112788551D01*
X184706245Y-112788551D01*
X184718681Y-112786762D01*
X184736327Y-112785501D01*
X185117673Y-112785501D01*
X185135318Y-112786762D01*
X185147755Y-112788551D01*
X185147758Y-112788551D01*
X185206245Y-112788551D01*
X185206246Y-112788551D01*
X185320480Y-112772126D01*
X185348556Y-112768090D01*
X185348557Y-112768089D01*
X185348561Y-112768089D01*
X185404683Y-112751610D01*
X185448278Y-112731700D01*
X185535456Y-112691888D01*
X185535460Y-112691885D01*
X185535468Y-112691882D01*
X185584673Y-112660260D01*
X185584681Y-112660253D01*
X185584684Y-112660251D01*
X185613590Y-112635203D01*
X185693334Y-112566106D01*
X185731639Y-112521900D01*
X185799732Y-112415945D01*
X185809368Y-112400951D01*
X185809368Y-112400950D01*
X185809371Y-112400946D01*
X185833669Y-112347741D01*
X185874176Y-112209786D01*
X185882500Y-112151890D01*
X185882500Y-111580001D01*
X185877348Y-111534273D01*
X185857592Y-111493251D01*
X185855856Y-111489645D01*
X185844504Y-111420704D01*
X185860086Y-111383678D01*
X185856087Y-111381753D01*
X185862148Y-111369165D01*
X185862147Y-111369165D01*
X185862149Y-111369164D01*
X185882500Y-111280001D01*
X185882500Y-110708112D01*
X185874176Y-110650216D01*
X185833669Y-110512261D01*
X185809371Y-110459056D01*
X185809368Y-110459052D01*
X185809368Y-110459050D01*
X185731639Y-110338102D01*
X185731638Y-110338101D01*
X185693334Y-110293896D01*
X185626518Y-110236000D01*
X185584684Y-110199750D01*
X185584675Y-110199744D01*
X185584673Y-110199742D01*
X185558796Y-110183112D01*
X185535472Y-110168122D01*
X185535456Y-110168113D01*
X185404689Y-110108394D01*
X185404684Y-110108392D01*
X185404683Y-110108392D01*
X185348561Y-110091913D01*
X185348557Y-110091912D01*
X185308121Y-110086098D01*
X185244565Y-110057072D01*
X185206792Y-109998294D01*
X185206792Y-109928424D01*
X185209938Y-109919098D01*
X185330864Y-109602862D01*
X185331738Y-109597964D01*
X185341012Y-109568251D01*
X185348697Y-109551426D01*
X185367133Y-109423200D01*
X185348697Y-109294974D01*
X185294882Y-109177137D01*
X185210049Y-109079233D01*
X185101069Y-109009196D01*
X185101065Y-109009194D01*
X185101064Y-109009194D01*
X184976774Y-108972700D01*
X184976772Y-108972700D01*
X184847228Y-108972700D01*
X184847226Y-108972700D01*
X184722935Y-109009194D01*
X184722932Y-109009195D01*
X184722931Y-109009196D01*
X184687776Y-109031789D01*
X184613950Y-109079233D01*
X184529118Y-109177137D01*
X184529117Y-109177138D01*
X184475302Y-109294974D01*
X184456867Y-109423200D01*
X184475302Y-109551426D01*
X184488373Y-109580048D01*
X184496241Y-109602985D01*
X184499155Y-109615295D01*
X184635090Y-109912656D01*
X184645059Y-109981811D01*
X184616058Y-110045378D01*
X184557294Y-110083174D01*
X184539965Y-110086947D01*
X184505453Y-110091909D01*
X184505438Y-110091913D01*
X184449310Y-110108394D01*
X184318543Y-110168113D01*
X184318527Y-110168122D01*
X184269331Y-110199739D01*
X184269315Y-110199750D01*
X184160669Y-110293893D01*
X184160666Y-110293896D01*
X184151532Y-110304437D01*
X184122361Y-110338101D01*
X184122360Y-110338102D01*
X184049417Y-110451604D01*
X183996613Y-110497359D01*
X183927454Y-110507302D01*
X183863899Y-110478277D01*
X183851388Y-110465765D01*
X183838451Y-110450834D01*
X183783183Y-110415316D01*
X183729469Y-110380796D01*
X183729465Y-110380794D01*
X183729464Y-110380794D01*
X183605174Y-110344300D01*
X183605172Y-110344300D01*
X183475628Y-110344300D01*
X183369572Y-110375439D01*
X183364329Y-110376734D01*
X183354913Y-110378627D01*
X183354909Y-110378628D01*
X183134575Y-110470434D01*
X183065121Y-110478048D01*
X183002577Y-110446903D01*
X182982568Y-110423011D01*
X182937643Y-110353107D01*
X182937638Y-110353100D01*
X182899334Y-110308895D01*
X182873983Y-110286929D01*
X182790684Y-110214749D01*
X182790675Y-110214743D01*
X182790673Y-110214741D01*
X182777282Y-110206135D01*
X182741472Y-110183121D01*
X182741456Y-110183112D01*
X182610689Y-110123393D01*
X182610684Y-110123391D01*
X182610683Y-110123391D01*
X182554561Y-110106912D01*
X182554556Y-110106910D01*
X182424682Y-110088238D01*
X182412246Y-110086450D01*
X182353755Y-110086450D01*
X182353753Y-110086450D01*
X182341319Y-110088238D01*
X182323673Y-110089500D01*
X181942327Y-110089500D01*
X181924681Y-110088238D01*
X181912246Y-110086450D01*
X181912245Y-110086450D01*
X181853754Y-110086450D01*
X181711443Y-110106910D01*
X181711438Y-110106912D01*
X181655310Y-110123393D01*
X181524543Y-110183112D01*
X181524527Y-110183121D01*
X181475331Y-110214738D01*
X181475315Y-110214749D01*
X181366669Y-110308892D01*
X181328361Y-110353100D01*
X181328360Y-110353101D01*
X181250631Y-110474049D01*
X181250629Y-110474055D01*
X181226331Y-110527260D01*
X181185825Y-110665210D01*
X181185822Y-110665222D01*
X181177500Y-110723109D01*
X181177500Y-111295004D01*
X181182651Y-111340728D01*
X181204144Y-111385356D01*
X181215496Y-111454297D01*
X181199943Y-111491339D01*
X181203913Y-111493251D01*
X181197850Y-111505839D01*
X181177500Y-111594995D01*
X181177500Y-112166890D01*
X168517400Y-112166890D01*
X168517400Y-111822412D01*
X168519783Y-111798219D01*
X168522552Y-111784299D01*
X168522552Y-111784297D01*
X168502141Y-111681687D01*
X168502140Y-111681684D01*
X168502140Y-111681683D01*
X168458684Y-111616646D01*
X168458683Y-111616645D01*
X168455299Y-111611580D01*
X168455299Y-111611579D01*
X168455296Y-111611576D01*
X168444012Y-111594687D01*
X168432206Y-111586799D01*
X168413416Y-111571378D01*
X168326219Y-111484181D01*
X168292734Y-111422858D01*
X168289900Y-111396500D01*
X168289900Y-109274234D01*
X168309585Y-109207195D01*
X168326219Y-109186553D01*
X169282954Y-108229819D01*
X169344277Y-108196334D01*
X169370635Y-108193500D01*
X170460600Y-108193500D01*
X170527639Y-108213185D01*
X170573394Y-108265989D01*
X170583338Y-108335147D01*
X170554313Y-108398703D01*
X170495535Y-108436477D01*
X170495534Y-108436477D01*
X170448135Y-108450394D01*
X170448132Y-108450395D01*
X170448131Y-108450396D01*
X170396877Y-108483334D01*
X170339150Y-108520433D01*
X170254318Y-108618337D01*
X170254317Y-108618338D01*
X170200502Y-108736174D01*
X170182067Y-108864400D01*
X170200502Y-108992625D01*
X170242882Y-109085422D01*
X170254318Y-109110463D01*
X170339151Y-109208367D01*
X170448131Y-109278404D01*
X170572425Y-109314899D01*
X170572427Y-109314900D01*
X170572428Y-109314900D01*
X170701973Y-109314900D01*
X170701973Y-109314899D01*
X170826269Y-109278404D01*
X170935249Y-109208367D01*
X170938733Y-109204347D01*
X170989015Y-109146317D01*
X171009046Y-109123198D01*
X171067823Y-109085423D01*
X171137693Y-109085422D01*
X171169798Y-109100084D01*
X171192669Y-109114781D01*
X171205766Y-109123199D01*
X171210133Y-109126005D01*
X171334425Y-109162499D01*
X171334427Y-109162500D01*
X171334428Y-109162500D01*
X171463973Y-109162500D01*
X171463973Y-109162499D01*
X171588269Y-109126004D01*
X171697249Y-109055967D01*
X171782082Y-108958063D01*
X171835897Y-108840226D01*
X171854333Y-108712000D01*
X171835897Y-108583774D01*
X171782082Y-108465937D01*
X171782080Y-108465935D01*
X171782079Y-108465932D01*
X171723824Y-108398702D01*
X171694799Y-108335146D01*
X171704743Y-108265988D01*
X171750498Y-108213184D01*
X171817537Y-108193500D01*
X172441800Y-108193500D01*
X172508839Y-108213185D01*
X172554594Y-108265989D01*
X172564538Y-108335147D01*
X172535513Y-108398703D01*
X172476735Y-108436477D01*
X172476734Y-108436477D01*
X172429335Y-108450394D01*
X172429332Y-108450395D01*
X172429331Y-108450396D01*
X172378077Y-108483334D01*
X172320350Y-108520433D01*
X172235518Y-108618337D01*
X172235517Y-108618338D01*
X172181702Y-108736174D01*
X172163267Y-108864400D01*
X172181702Y-108992625D01*
X172224082Y-109085422D01*
X172235518Y-109110463D01*
X172320351Y-109208367D01*
X172429331Y-109278404D01*
X172553625Y-109314899D01*
X172553627Y-109314900D01*
X172553628Y-109314900D01*
X172683173Y-109314900D01*
X172683173Y-109314899D01*
X172807469Y-109278404D01*
X172916449Y-109208367D01*
X173001282Y-109110463D01*
X173055097Y-108992626D01*
X173073533Y-108864400D01*
X173055097Y-108736174D01*
X173001282Y-108618337D01*
X172916449Y-108520433D01*
X172807469Y-108450396D01*
X172807465Y-108450394D01*
X172807464Y-108450394D01*
X172760066Y-108436477D01*
X172701288Y-108398704D01*
X172672262Y-108335148D01*
X172682205Y-108265990D01*
X172727960Y-108213185D01*
X172794999Y-108193500D01*
X173249665Y-108193500D01*
X173305181Y-108206622D01*
X173639500Y-108374012D01*
X173640403Y-108374526D01*
X173642312Y-108375397D01*
X173642315Y-108375399D01*
X173766609Y-108411894D01*
X173766611Y-108411895D01*
X173766612Y-108411895D01*
X173896157Y-108411895D01*
X173896157Y-108411894D01*
X174020453Y-108375399D01*
X174129433Y-108305362D01*
X174214266Y-108207458D01*
X174268081Y-108089621D01*
X174286517Y-107961395D01*
X174281103Y-107923739D01*
X174291047Y-107854580D01*
X174336800Y-107801777D01*
X174440449Y-107735167D01*
X174440449Y-107735166D01*
X174447910Y-107730372D01*
X174449465Y-107732792D01*
X174499747Y-107709827D01*
X174568906Y-107719767D01*
X174621712Y-107765520D01*
X174641400Y-107832558D01*
X174641400Y-107930898D01*
X174631862Y-107978590D01*
X174488227Y-108323313D01*
X174488226Y-108323316D01*
X174486609Y-108331343D01*
X174477849Y-108358354D01*
X174467704Y-108380569D01*
X174467702Y-108380574D01*
X174449267Y-108508800D01*
X174467702Y-108637025D01*
X174521517Y-108754861D01*
X174521518Y-108754863D01*
X174606351Y-108852767D01*
X174715331Y-108922804D01*
X174835412Y-108958062D01*
X174839625Y-108959299D01*
X174839627Y-108959300D01*
X174900199Y-108959300D01*
X174967238Y-108978985D01*
X175012993Y-109031789D01*
X175022937Y-109100947D01*
X174993912Y-109164503D01*
X174987880Y-109170981D01*
X174542179Y-109616681D01*
X174523391Y-109632100D01*
X174511588Y-109639986D01*
X174488863Y-109673994D01*
X174488857Y-109674007D01*
X174453460Y-109726983D01*
X174445124Y-109768889D01*
X174429803Y-109808549D01*
X174332086Y-109971219D01*
X174319510Y-109988560D01*
X174318321Y-109989932D01*
X174318314Y-109989942D01*
X174311757Y-110004298D01*
X174308512Y-110010461D01*
X174301846Y-110021559D01*
X174299091Y-110026148D01*
X174295451Y-110032743D01*
X174295449Y-110032747D01*
X174292994Y-110037607D01*
X174291613Y-110040394D01*
X174291612Y-110040397D01*
X174290643Y-110044571D01*
X174282654Y-110068027D01*
X174264502Y-110107775D01*
X174246067Y-110236000D01*
X174254313Y-110293353D01*
X174244369Y-110362512D01*
X174198614Y-110415316D01*
X174131575Y-110435000D01*
X173507428Y-110435000D01*
X173440389Y-110415315D01*
X173418381Y-110397294D01*
X173255692Y-110229414D01*
X173253836Y-110228149D01*
X173229961Y-110206888D01*
X173221249Y-110196833D01*
X173112269Y-110126796D01*
X173112265Y-110126794D01*
X173112264Y-110126794D01*
X172987974Y-110090300D01*
X172987972Y-110090300D01*
X172858428Y-110090300D01*
X172858426Y-110090300D01*
X172734135Y-110126794D01*
X172734132Y-110126795D01*
X172734131Y-110126796D01*
X172682877Y-110159734D01*
X172625150Y-110196833D01*
X172540318Y-110294737D01*
X172540317Y-110294738D01*
X172486502Y-110412574D01*
X172468067Y-110540800D01*
X172486502Y-110669025D01*
X172511202Y-110723109D01*
X172540318Y-110786863D01*
X172625151Y-110884767D01*
X172734131Y-110954804D01*
X172734133Y-110954804D01*
X172741592Y-110959598D01*
X172740218Y-110961735D01*
X172782892Y-110998705D01*
X172802583Y-111065743D01*
X172782904Y-111132784D01*
X172730105Y-111178544D01*
X172713520Y-111184730D01*
X172683336Y-111193593D01*
X172574350Y-111263633D01*
X172489518Y-111361537D01*
X172489517Y-111361538D01*
X172435702Y-111479374D01*
X172417267Y-111607600D01*
X172435702Y-111735825D01*
X172464197Y-111798219D01*
X172489518Y-111853663D01*
X172574351Y-111951567D01*
X172683331Y-112021604D01*
X172807625Y-112058099D01*
X172807627Y-112058100D01*
X172807628Y-112058100D01*
X172937173Y-112058100D01*
X172937173Y-112058099D01*
X173061469Y-112021604D01*
X173170449Y-111951567D01*
X173255282Y-111853663D01*
X173309097Y-111735826D01*
X173327533Y-111607600D01*
X173309097Y-111479374D01*
X173255282Y-111361537D01*
X173170449Y-111263633D01*
X173086280Y-111209541D01*
X173040528Y-111156740D01*
X173030584Y-111087582D01*
X173059608Y-111024026D01*
X173118386Y-110986251D01*
X173144795Y-110981521D01*
X173366285Y-110966264D01*
X173369914Y-110965345D01*
X173372106Y-110964791D01*
X173402531Y-110961000D01*
X174854455Y-110961000D01*
X174878644Y-110963382D01*
X174892567Y-110966152D01*
X174892567Y-110966151D01*
X174892568Y-110966152D01*
X174892569Y-110966152D01*
X174995179Y-110945741D01*
X174995179Y-110945740D01*
X174995184Y-110945740D01*
X175060221Y-110902284D01*
X175060221Y-110902283D01*
X175082179Y-110887612D01*
X175090071Y-110875799D01*
X175105482Y-110857021D01*
X175407037Y-110555466D01*
X175425822Y-110540050D01*
X175437629Y-110532162D01*
X175453514Y-110508388D01*
X175495757Y-110445168D01*
X175500165Y-110423011D01*
X175516169Y-110342552D01*
X175516169Y-110342549D01*
X175513400Y-110328629D01*
X175511017Y-110304437D01*
X175511017Y-109795500D01*
X175530702Y-109728461D01*
X175583506Y-109682706D01*
X175635017Y-109671500D01*
X176910499Y-109671500D01*
X177143022Y-109671500D01*
X177167211Y-109673882D01*
X177181134Y-109676652D01*
X177181134Y-109676651D01*
X177181135Y-109676652D01*
X177181136Y-109676652D01*
X177283746Y-109656241D01*
X177283746Y-109656240D01*
X177283751Y-109656240D01*
X177348788Y-109612784D01*
X177348788Y-109612783D01*
X177370746Y-109598112D01*
X177378638Y-109586299D01*
X177394049Y-109567521D01*
X177806620Y-109154950D01*
X177825400Y-109139537D01*
X177837212Y-109131646D01*
X177866152Y-109088335D01*
X177895340Y-109044651D01*
X177907870Y-108981658D01*
X177915752Y-108942036D01*
X177915752Y-108942033D01*
X177912983Y-108928113D01*
X177910600Y-108903921D01*
X177910600Y-108239210D01*
X180663534Y-108239210D01*
X180683312Y-108389444D01*
X180683313Y-108389446D01*
X180708558Y-108450394D01*
X180741302Y-108529443D01*
X180833549Y-108649661D01*
X180879402Y-108684845D01*
X180920605Y-108741273D01*
X180924760Y-108811019D01*
X180890548Y-108871939D01*
X180871244Y-108885790D01*
X180871552Y-108886214D01*
X180863657Y-108891950D01*
X180773954Y-108981652D01*
X180773951Y-108981657D01*
X180773950Y-108981658D01*
X180763817Y-109001545D01*
X180716352Y-109094698D01*
X180716352Y-109094699D01*
X180696508Y-109219996D01*
X180696508Y-109220003D01*
X180716352Y-109345300D01*
X180716352Y-109345301D01*
X180734404Y-109380728D01*
X180773950Y-109458342D01*
X180773952Y-109458344D01*
X180773954Y-109458347D01*
X180863652Y-109548045D01*
X180863654Y-109548046D01*
X180863658Y-109548050D01*
X180976696Y-109605646D01*
X180976697Y-109605646D01*
X180976699Y-109605647D01*
X181101997Y-109625492D01*
X181102000Y-109625492D01*
X181102003Y-109625492D01*
X181227300Y-109605647D01*
X181227301Y-109605647D01*
X181227302Y-109605646D01*
X181227304Y-109605646D01*
X181340342Y-109548050D01*
X181430050Y-109458342D01*
X181466472Y-109386858D01*
X181470047Y-109380735D01*
X181481334Y-109363728D01*
X181505062Y-109305916D01*
X181548726Y-109251373D01*
X181614949Y-109229094D01*
X181619775Y-109229000D01*
X182406575Y-109229000D01*
X182450422Y-109237011D01*
X182632704Y-109305918D01*
X182720239Y-109339008D01*
X182720240Y-109339008D01*
X182725847Y-109340546D01*
X182725620Y-109341370D01*
X182751523Y-109350029D01*
X182754698Y-109351647D01*
X182879997Y-109371492D01*
X182880000Y-109371492D01*
X182880003Y-109371492D01*
X183005300Y-109351647D01*
X183005301Y-109351647D01*
X183005302Y-109351646D01*
X183005304Y-109351646D01*
X183118342Y-109294050D01*
X183208050Y-109204342D01*
X183265646Y-109091304D01*
X183265646Y-109091302D01*
X183265647Y-109091301D01*
X183265647Y-109091300D01*
X183285492Y-108966003D01*
X183285492Y-108965996D01*
X183265647Y-108840699D01*
X183265647Y-108840698D01*
X183265646Y-108840696D01*
X183208050Y-108727658D01*
X183208046Y-108727654D01*
X183208045Y-108727652D01*
X183118347Y-108637954D01*
X183118344Y-108637952D01*
X183118342Y-108637950D01*
X183005304Y-108580354D01*
X183005303Y-108580353D01*
X183005300Y-108580352D01*
X182880003Y-108560508D01*
X182879998Y-108560508D01*
X182754700Y-108580352D01*
X182754694Y-108580354D01*
X182751624Y-108581919D01*
X182725854Y-108590410D01*
X182726123Y-108591405D01*
X182720242Y-108592989D01*
X182541179Y-108660680D01*
X182450418Y-108694989D01*
X182406574Y-108703000D01*
X181860388Y-108703000D01*
X181793349Y-108683315D01*
X181747594Y-108630511D01*
X181737650Y-108561353D01*
X181745827Y-108531548D01*
X181778184Y-108453429D01*
X181804687Y-108389446D01*
X181824466Y-108239210D01*
X181823330Y-108230585D01*
X181804687Y-108088975D01*
X181804687Y-108088974D01*
X181746698Y-107948977D01*
X181654451Y-107828759D01*
X181534233Y-107736512D01*
X181534229Y-107736510D01*
X181469810Y-107709827D01*
X181394236Y-107678523D01*
X181380171Y-107676671D01*
X181281727Y-107663710D01*
X181281720Y-107663710D01*
X181206280Y-107663710D01*
X181206272Y-107663710D01*
X181093764Y-107678523D01*
X181093763Y-107678523D01*
X180953770Y-107736510D01*
X180953767Y-107736511D01*
X180953767Y-107736512D01*
X180838551Y-107824921D01*
X180833549Y-107828759D01*
X180741300Y-107948980D01*
X180683313Y-108088973D01*
X180683312Y-108088975D01*
X180663534Y-108239209D01*
X180663534Y-108239210D01*
X177910600Y-108239210D01*
X177910600Y-104760878D01*
X177912983Y-104736685D01*
X177913835Y-104732405D01*
X177915752Y-104722766D01*
X177910475Y-104696238D01*
X177899137Y-104639237D01*
X177896718Y-104627079D01*
X177895340Y-104620149D01*
X177880006Y-104597200D01*
X177851884Y-104555112D01*
X177851883Y-104555110D01*
X177837213Y-104533154D01*
X177825406Y-104525265D01*
X177806616Y-104509844D01*
X176341953Y-103045181D01*
X176308468Y-102983858D01*
X176313452Y-102914166D01*
X176355324Y-102858233D01*
X176420788Y-102833816D01*
X176429634Y-102833500D01*
X177922750Y-102833500D01*
X177922751Y-102833499D01*
X177937568Y-102830552D01*
X177981229Y-102821868D01*
X177981229Y-102821867D01*
X177981231Y-102821867D01*
X178047552Y-102777552D01*
X178091867Y-102711231D01*
X178091867Y-102711229D01*
X178091868Y-102711229D01*
X178103499Y-102652752D01*
X178103500Y-102652750D01*
X178103500Y-100913249D01*
X178103499Y-100913247D01*
X178091868Y-100854770D01*
X178091867Y-100854769D01*
X178047552Y-100788447D01*
X177981230Y-100744132D01*
X177981229Y-100744131D01*
X177922752Y-100732500D01*
X177922748Y-100732500D01*
X176183252Y-100732500D01*
X176183247Y-100732500D01*
X176124770Y-100744131D01*
X176124769Y-100744132D01*
X176058447Y-100788447D01*
X176014132Y-100854769D01*
X176014131Y-100854770D01*
X176002500Y-100913247D01*
X176002500Y-102406366D01*
X175982815Y-102473405D01*
X175930011Y-102519160D01*
X175860853Y-102529104D01*
X175797297Y-102500079D01*
X175790819Y-102494047D01*
X175266319Y-101969547D01*
X175232834Y-101908224D01*
X175230000Y-101881866D01*
X175230000Y-99927033D01*
X175249685Y-99859994D01*
X175266314Y-99839355D01*
X175353523Y-99752146D01*
X175372308Y-99736731D01*
X175384112Y-99728845D01*
X175414846Y-99682849D01*
X175442240Y-99641850D01*
X175456387Y-99570728D01*
X175457500Y-99565134D01*
X175457500Y-99565133D01*
X175462652Y-99539233D01*
X175459883Y-99525312D01*
X175457500Y-99501120D01*
X175457500Y-99243000D01*
X175997417Y-99243000D01*
X176017699Y-99448932D01*
X176017700Y-99448934D01*
X176077768Y-99646954D01*
X176175315Y-99829450D01*
X176200382Y-99859994D01*
X176306589Y-99989410D01*
X176403209Y-100068702D01*
X176466550Y-100120685D01*
X176649046Y-100218232D01*
X176847066Y-100278300D01*
X176847065Y-100278300D01*
X176865529Y-100280118D01*
X177053000Y-100298583D01*
X177258934Y-100278300D01*
X177456954Y-100218232D01*
X177639450Y-100120685D01*
X177799410Y-99989410D01*
X177930685Y-99829450D01*
X178028232Y-99646954D01*
X178088300Y-99448934D01*
X178108583Y-99243000D01*
X178088300Y-99037066D01*
X178028232Y-98839046D01*
X177930685Y-98656550D01*
X177835336Y-98540366D01*
X177799410Y-98496589D01*
X177639452Y-98365317D01*
X177639453Y-98365317D01*
X177639450Y-98365315D01*
X177456954Y-98267768D01*
X177258934Y-98207700D01*
X177258932Y-98207699D01*
X177258934Y-98207699D01*
X177053000Y-98187417D01*
X176847067Y-98207699D01*
X176649043Y-98267769D01*
X176572444Y-98308713D01*
X176466550Y-98365315D01*
X176466548Y-98365316D01*
X176466547Y-98365317D01*
X176306589Y-98496589D01*
X176178110Y-98653144D01*
X176175315Y-98656550D01*
X176168893Y-98668565D01*
X176077769Y-98839043D01*
X176017699Y-99037067D01*
X175997417Y-99243000D01*
X175457500Y-99243000D01*
X175457500Y-98904178D01*
X175459883Y-98879984D01*
X175462652Y-98866064D01*
X175462652Y-98866063D01*
X175442241Y-98763452D01*
X175442240Y-98763451D01*
X175442240Y-98763448D01*
X175422013Y-98733176D01*
X175395403Y-98693350D01*
X175395396Y-98693342D01*
X175384112Y-98676453D01*
X175372306Y-98668565D01*
X175353516Y-98653144D01*
X174229754Y-97529382D01*
X174214333Y-97510592D01*
X174214330Y-97510588D01*
X174206446Y-97498788D01*
X174138667Y-97453500D01*
X174123779Y-97443552D01*
X174119450Y-97440659D01*
X174119449Y-97440658D01*
X174016836Y-97420248D01*
X174016835Y-97420248D01*
X174016834Y-97420248D01*
X174002911Y-97423017D01*
X173978722Y-97425400D01*
X171894513Y-97425400D01*
X171870320Y-97423017D01*
X171856400Y-97420248D01*
X171856399Y-97420248D01*
X171834582Y-97424588D01*
X171834576Y-97424589D01*
X171753783Y-97440659D01*
X171748371Y-97443552D01*
X171743627Y-97447446D01*
X171691008Y-97482603D01*
X171691005Y-97482605D01*
X171688745Y-97484116D01*
X171688742Y-97484118D01*
X171682922Y-97488006D01*
X171666785Y-97498789D01*
X171658902Y-97510588D01*
X171643483Y-97529376D01*
X171621865Y-97550994D01*
X171581397Y-97577973D01*
X171236077Y-97720164D01*
X171231197Y-97722758D01*
X171215199Y-97729281D01*
X171202061Y-97735281D01*
X171201166Y-97733323D01*
X171145672Y-97749609D01*
X171078636Y-97729915D01*
X171032888Y-97677104D01*
X171022955Y-97607945D01*
X171051989Y-97544393D01*
X171057995Y-97537942D01*
X172792619Y-95803319D01*
X172853942Y-95769834D01*
X172880300Y-95767000D01*
X176200006Y-95767000D01*
X176267045Y-95786685D01*
X176312800Y-95839489D01*
X176322744Y-95908647D01*
X176295860Y-95969664D01*
X176175317Y-96116547D01*
X176077769Y-96299043D01*
X176017699Y-96497067D01*
X175997417Y-96703000D01*
X176017699Y-96908932D01*
X176017700Y-96908934D01*
X176077768Y-97106954D01*
X176175315Y-97289450D01*
X176175317Y-97289452D01*
X176306589Y-97449410D01*
X176381136Y-97510588D01*
X176466550Y-97580685D01*
X176649046Y-97678232D01*
X176847066Y-97738300D01*
X176847065Y-97738300D01*
X176865529Y-97740118D01*
X177053000Y-97758583D01*
X177258934Y-97738300D01*
X177456954Y-97678232D01*
X177639450Y-97580685D01*
X177799410Y-97449410D01*
X177930685Y-97289450D01*
X178028232Y-97106954D01*
X178088300Y-96908934D01*
X178108583Y-96703000D01*
X178088300Y-96497066D01*
X178028232Y-96299046D01*
X177930685Y-96116550D01*
X177848495Y-96016400D01*
X177810140Y-95969664D01*
X177782828Y-95905354D01*
X177794619Y-95836487D01*
X177841772Y-95784927D01*
X177905994Y-95767000D01*
X179030393Y-95767000D01*
X179091156Y-95782908D01*
X179903156Y-96239381D01*
X180463867Y-96554589D01*
X180579595Y-96626245D01*
X180579596Y-96626245D01*
X180579599Y-96626247D01*
X180609104Y-96637677D01*
X180625083Y-96645218D01*
X180624800Y-96645059D01*
X180630204Y-96647889D01*
X180634198Y-96649831D01*
X180634729Y-96650088D01*
X180641706Y-96651688D01*
X180658776Y-96656920D01*
X180787060Y-96706618D01*
X181005757Y-96747500D01*
X181005759Y-96747500D01*
X181228241Y-96747500D01*
X181228243Y-96747500D01*
X181446940Y-96706618D01*
X181654401Y-96626247D01*
X181843562Y-96509124D01*
X182007981Y-96359236D01*
X182142058Y-96181689D01*
X182241229Y-95982528D01*
X182302115Y-95768536D01*
X182322643Y-95547000D01*
X182302115Y-95325464D01*
X182241229Y-95111472D01*
X182241224Y-95111461D01*
X182142061Y-94912316D01*
X182142052Y-94912302D01*
X182084980Y-94836726D01*
X182060288Y-94771365D01*
X182074853Y-94703031D01*
X182124051Y-94653418D01*
X182183934Y-94638000D01*
X182932530Y-94638000D01*
X182999569Y-94657685D01*
X183045324Y-94710489D01*
X183047826Y-94716361D01*
X183546979Y-95977364D01*
X183548461Y-95981729D01*
X183548770Y-95982526D01*
X183548835Y-95982656D01*
X183550979Y-95987465D01*
X183553737Y-95994433D01*
X183553742Y-95994442D01*
X183555698Y-95997422D01*
X183559369Y-96003813D01*
X183647938Y-96181683D01*
X183647943Y-96181691D01*
X183782020Y-96359238D01*
X183946437Y-96509123D01*
X183946439Y-96509125D01*
X184135595Y-96626245D01*
X184135596Y-96626245D01*
X184135599Y-96626247D01*
X184343060Y-96706618D01*
X184561757Y-96747500D01*
X184561759Y-96747500D01*
X184784241Y-96747500D01*
X184784243Y-96747500D01*
X185002940Y-96706618D01*
X185210401Y-96626247D01*
X185399562Y-96509124D01*
X185563981Y-96359236D01*
X185698058Y-96181689D01*
X185797229Y-95982528D01*
X185858115Y-95768536D01*
X185878643Y-95547000D01*
X185858115Y-95325464D01*
X185797229Y-95111472D01*
X185797224Y-95111461D01*
X185698061Y-94912316D01*
X185698056Y-94912308D01*
X185563979Y-94734761D01*
X185399562Y-94584876D01*
X185399560Y-94584874D01*
X185210404Y-94467754D01*
X185210398Y-94467752D01*
X185002940Y-94387382D01*
X184784243Y-94346500D01*
X184784241Y-94346500D01*
X184726225Y-94346500D01*
X184700572Y-94343253D01*
X184700562Y-94343319D01*
X184698189Y-94342951D01*
X184695332Y-94342590D01*
X184694543Y-94342387D01*
X183720753Y-94191612D01*
X183670836Y-94172174D01*
X183603617Y-94127260D01*
X183603615Y-94127259D01*
X183526901Y-94112000D01*
X183501001Y-94106848D01*
X183501000Y-94106848D01*
X183487077Y-94109617D01*
X183462888Y-94112000D01*
X183216108Y-94112000D01*
X183201880Y-94110822D01*
X183201840Y-94111176D01*
X183191639Y-94109995D01*
X183185922Y-94109555D01*
X183181675Y-94109272D01*
X183181674Y-94109272D01*
X183175936Y-94110248D01*
X183155164Y-94112000D01*
X178324439Y-94112000D01*
X178300249Y-94109617D01*
X178286327Y-94106848D01*
X178286326Y-94106848D01*
X178260426Y-94112000D01*
X178183711Y-94127259D01*
X178096713Y-94185388D01*
X178088827Y-94197191D01*
X178073408Y-94215979D01*
X177319208Y-94970181D01*
X177257885Y-95003666D01*
X177231527Y-95006500D01*
X173429436Y-95006500D01*
X173362397Y-94986815D01*
X173316642Y-94934011D01*
X173306698Y-94864853D01*
X173335723Y-94801297D01*
X173338206Y-94798517D01*
X173355577Y-94779647D01*
X173502571Y-94619969D01*
X173634049Y-94418728D01*
X173730610Y-94198591D01*
X173789620Y-93965563D01*
X173809471Y-93726000D01*
X173789620Y-93486437D01*
X173730610Y-93253409D01*
X173634049Y-93033272D01*
X173502571Y-92832031D01*
X173339764Y-92655175D01*
X173339759Y-92655171D01*
X173339757Y-92655169D01*
X173150075Y-92507533D01*
X173150069Y-92507529D01*
X172938657Y-92393118D01*
X172938652Y-92393116D01*
X172711300Y-92315066D01*
X172533468Y-92285391D01*
X172474192Y-92275500D01*
X172233808Y-92275500D01*
X172186387Y-92283413D01*
X171996699Y-92315066D01*
X171769347Y-92393116D01*
X171769342Y-92393118D01*
X171557930Y-92507529D01*
X171557924Y-92507533D01*
X171368242Y-92655169D01*
X171368239Y-92655172D01*
X171205430Y-92832029D01*
X171205427Y-92832033D01*
X171073951Y-93033270D01*
X170977389Y-93253410D01*
X170918379Y-93486440D01*
X170898529Y-93725994D01*
X170898529Y-93726005D01*
X170918379Y-93965559D01*
X170977389Y-94198589D01*
X171073951Y-94418729D01*
X171105981Y-94467754D01*
X171205429Y-94619969D01*
X171368236Y-94796825D01*
X171368239Y-94796827D01*
X171368242Y-94796830D01*
X171557924Y-94944466D01*
X171557930Y-94944470D01*
X171557933Y-94944472D01*
X171769344Y-95058882D01*
X171996703Y-95136934D01*
X172090569Y-95152597D01*
X172153453Y-95183047D01*
X172189893Y-95242662D01*
X172188318Y-95312514D01*
X172157840Y-95362587D01*
X167988979Y-99531447D01*
X167970191Y-99546866D01*
X167958388Y-99554752D01*
X167935663Y-99588760D01*
X167935657Y-99588773D01*
X167900259Y-99641750D01*
X167900258Y-99641753D01*
X167879848Y-99744363D01*
X167879848Y-99744365D01*
X167882617Y-99758285D01*
X167885000Y-99782478D01*
X167885000Y-100372899D01*
X167865315Y-100439938D01*
X167848681Y-100460580D01*
X167171379Y-101137881D01*
X167152591Y-101153300D01*
X167140788Y-101161186D01*
X167082660Y-101248181D01*
X167068156Y-101321101D01*
X167062248Y-101350799D01*
X167065017Y-101364719D01*
X167067400Y-101388912D01*
X167067400Y-105694355D01*
X167047715Y-105761394D01*
X166994911Y-105807149D01*
X166925753Y-105817093D01*
X166876362Y-105798671D01*
X166813066Y-105757994D01*
X166688774Y-105721500D01*
X166688772Y-105721500D01*
X166559228Y-105721500D01*
X166559226Y-105721500D01*
X166434935Y-105757994D01*
X166434932Y-105757995D01*
X166434931Y-105757996D01*
X166386848Y-105788897D01*
X166325950Y-105828033D01*
X166241118Y-105925937D01*
X166241117Y-105925938D01*
X166187302Y-106043774D01*
X166168867Y-106172000D01*
X166187302Y-106300225D01*
X166241117Y-106418061D01*
X166241120Y-106418067D01*
X166287678Y-106471799D01*
X166316702Y-106535355D01*
X166306757Y-106604514D01*
X166287678Y-106634201D01*
X166241120Y-106687932D01*
X166241117Y-106687938D01*
X166187302Y-106805774D01*
X166168867Y-106934000D01*
X166187302Y-107062225D01*
X166187303Y-107062228D01*
X166197453Y-107084451D01*
X166206226Y-107111516D01*
X166207829Y-107119490D01*
X166267392Y-107262440D01*
X166351461Y-107464205D01*
X166361000Y-107511896D01*
X166361000Y-110828240D01*
X166341315Y-110895279D01*
X166288511Y-110941034D01*
X166219353Y-110950978D01*
X166169961Y-110932556D01*
X166101869Y-110888796D01*
X166101865Y-110888794D01*
X166101864Y-110888794D01*
X165977574Y-110852300D01*
X165977572Y-110852300D01*
X165848028Y-110852300D01*
X165848026Y-110852300D01*
X165723735Y-110888794D01*
X165723732Y-110888795D01*
X165723731Y-110888796D01*
X165672477Y-110921734D01*
X165614750Y-110958833D01*
X165529918Y-111056737D01*
X165529917Y-111056738D01*
X165476102Y-111174574D01*
X165457667Y-111302800D01*
X161495500Y-111302800D01*
X161495500Y-108164400D01*
X161515185Y-108097361D01*
X161567989Y-108051606D01*
X161619500Y-108040400D01*
X162015000Y-108040400D01*
X162015000Y-96140400D01*
X156239000Y-96140400D01*
X156171961Y-96120715D01*
X156126206Y-96067911D01*
X156115000Y-96016400D01*
X156115000Y-93726005D01*
X161798529Y-93726005D01*
X161818379Y-93965559D01*
X161877389Y-94198589D01*
X161973951Y-94418729D01*
X162005981Y-94467754D01*
X162105429Y-94619969D01*
X162268236Y-94796825D01*
X162268239Y-94796827D01*
X162268242Y-94796830D01*
X162457924Y-94944466D01*
X162457930Y-94944470D01*
X162457933Y-94944472D01*
X162669344Y-95058882D01*
X162669347Y-95058883D01*
X162896699Y-95136933D01*
X162896701Y-95136933D01*
X162896703Y-95136934D01*
X163133808Y-95176500D01*
X163133809Y-95176500D01*
X163374191Y-95176500D01*
X163374192Y-95176500D01*
X163611297Y-95136934D01*
X163838656Y-95058882D01*
X164050067Y-94944472D01*
X164063508Y-94934011D01*
X164142508Y-94872522D01*
X164239764Y-94796825D01*
X164402571Y-94619969D01*
X164534049Y-94418728D01*
X164630610Y-94198591D01*
X164689620Y-93965563D01*
X164709471Y-93726005D01*
X166348529Y-93726005D01*
X166368379Y-93965559D01*
X166427389Y-94198589D01*
X166523951Y-94418729D01*
X166555981Y-94467754D01*
X166655429Y-94619969D01*
X166818236Y-94796825D01*
X166818239Y-94796827D01*
X166818242Y-94796830D01*
X167007924Y-94944466D01*
X167007930Y-94944470D01*
X167007933Y-94944472D01*
X167219344Y-95058882D01*
X167219347Y-95058883D01*
X167446699Y-95136933D01*
X167446701Y-95136933D01*
X167446703Y-95136934D01*
X167683808Y-95176500D01*
X167683809Y-95176500D01*
X167924191Y-95176500D01*
X167924192Y-95176500D01*
X168161297Y-95136934D01*
X168388656Y-95058882D01*
X168600067Y-94944472D01*
X168613508Y-94934011D01*
X168692508Y-94872522D01*
X168789764Y-94796825D01*
X168952571Y-94619969D01*
X169084049Y-94418728D01*
X169180610Y-94198591D01*
X169239620Y-93965563D01*
X169259471Y-93726000D01*
X169239620Y-93486437D01*
X169180610Y-93253409D01*
X169084049Y-93033272D01*
X168952571Y-92832031D01*
X168789764Y-92655175D01*
X168789759Y-92655171D01*
X168789757Y-92655169D01*
X168600075Y-92507533D01*
X168600069Y-92507529D01*
X168388657Y-92393118D01*
X168388652Y-92393116D01*
X168161300Y-92315066D01*
X167983468Y-92285391D01*
X167924192Y-92275500D01*
X167683808Y-92275500D01*
X167636387Y-92283413D01*
X167446699Y-92315066D01*
X167219347Y-92393116D01*
X167219342Y-92393118D01*
X167007930Y-92507529D01*
X167007924Y-92507533D01*
X166818242Y-92655169D01*
X166818239Y-92655172D01*
X166655430Y-92832029D01*
X166655427Y-92832033D01*
X166523951Y-93033270D01*
X166427389Y-93253410D01*
X166368379Y-93486440D01*
X166348529Y-93725994D01*
X166348529Y-93726005D01*
X164709471Y-93726005D01*
X164709471Y-93726000D01*
X164689620Y-93486437D01*
X164630610Y-93253409D01*
X164534049Y-93033272D01*
X164402571Y-92832031D01*
X164239764Y-92655175D01*
X164239759Y-92655171D01*
X164239757Y-92655169D01*
X164050075Y-92507533D01*
X164050069Y-92507529D01*
X163838657Y-92393118D01*
X163838652Y-92393116D01*
X163611300Y-92315066D01*
X163433468Y-92285391D01*
X163374192Y-92275500D01*
X163133808Y-92275500D01*
X163086387Y-92283413D01*
X162896699Y-92315066D01*
X162669347Y-92393116D01*
X162669342Y-92393118D01*
X162457930Y-92507529D01*
X162457924Y-92507533D01*
X162268242Y-92655169D01*
X162268239Y-92655172D01*
X162105430Y-92832029D01*
X162105427Y-92832033D01*
X161973951Y-93033270D01*
X161877389Y-93253410D01*
X161818379Y-93486440D01*
X161798529Y-93725994D01*
X161798529Y-93726005D01*
X156115000Y-93726005D01*
X156115000Y-91140400D01*
X156114999Y-91140399D01*
X121415000Y-91252189D01*
X121415000Y-92126500D01*
X121395315Y-92193539D01*
X121342511Y-92239294D01*
X121291000Y-92250500D01*
X112059858Y-92250500D01*
X112048866Y-92251089D01*
X112048857Y-92251089D01*
X112048856Y-92251090D01*
X112048855Y-92251090D01*
X112017038Y-92254511D01*
X112017029Y-92254513D01*
X111940521Y-92278470D01*
X111940516Y-92278471D01*
X111879188Y-92311960D01*
X111832380Y-92347001D01*
X111832359Y-92347019D01*
X107973481Y-96205896D01*
X107912158Y-96239381D01*
X107842466Y-96234397D01*
X107786533Y-96192525D01*
X107762116Y-96127061D01*
X107761800Y-96118215D01*
X107761800Y-92761562D01*
X107781485Y-92694523D01*
X107798119Y-92673881D01*
X108929681Y-91542319D01*
X108991004Y-91508834D01*
X109017362Y-91506000D01*
X116459000Y-91506000D01*
X119978681Y-87986319D01*
X120040004Y-87952834D01*
X120066362Y-87950000D01*
X158063638Y-87950000D01*
X158130677Y-87969685D01*
G37*
%TD.AperFunction*%
%TD*%
%TA.AperFunction,NonConductor*%
G36*
X179801625Y-94657685D02*
G01*
X179847380Y-94710489D01*
X179857324Y-94779647D01*
X179828299Y-94843203D01*
X179790808Y-94872521D01*
X179105154Y-95221315D01*
X179092952Y-95227522D01*
X179036730Y-95241000D01*
X178091627Y-95241000D01*
X178024588Y-95221315D01*
X177978833Y-95168511D01*
X177968889Y-95099353D01*
X177997914Y-95035797D01*
X178003946Y-95029319D01*
X178358946Y-94674319D01*
X178420269Y-94640834D01*
X178446627Y-94638000D01*
X179734586Y-94638000D01*
X179801625Y-94657685D01*
G37*
%TD.AperFunction*%
%TA.AperFunction,Conductor*%
%TO.N,/PHASE_B*%
G36*
X121358039Y-99333685D02*
G01*
X121403794Y-99386489D01*
X121415000Y-99438000D01*
X121415000Y-104778000D01*
X121395315Y-104845039D01*
X121342511Y-104890794D01*
X121291000Y-104902000D01*
X117601999Y-104902000D01*
X116840000Y-105663999D01*
X116840000Y-105664000D01*
X116840000Y-112014000D01*
X120396000Y-115570000D01*
X122122638Y-115570000D01*
X122189677Y-115589685D01*
X122210319Y-115606319D01*
X123915681Y-117311681D01*
X123949166Y-117373004D01*
X123952000Y-117399362D01*
X123952000Y-122878000D01*
X123932315Y-122945039D01*
X123879511Y-122990794D01*
X123828000Y-123002000D01*
X116710000Y-123002000D01*
X116642961Y-122982315D01*
X116597206Y-122929511D01*
X116586000Y-122878000D01*
X116586000Y-116840000D01*
X116518540Y-116772540D01*
X116497388Y-116744284D01*
X116476048Y-116705201D01*
X116476041Y-116705191D01*
X116441001Y-116658384D01*
X116440998Y-116658381D01*
X116440991Y-116658371D01*
X112558319Y-112775699D01*
X112524834Y-112714376D01*
X112522000Y-112688018D01*
X112522000Y-103719981D01*
X112541685Y-103652942D01*
X112558319Y-103632300D01*
X116840300Y-99350319D01*
X116901623Y-99316834D01*
X116927981Y-99314000D01*
X121291000Y-99314000D01*
X121358039Y-99333685D01*
G37*
%TD.AperFunction*%
%TD*%
%TA.AperFunction,Conductor*%
%TO.N,/RP2040/SWCLK*%
G36*
X167855373Y-111619027D02*
G01*
X167857900Y-111622800D01*
X168018877Y-112009146D01*
X168018896Y-112018101D01*
X168012594Y-112024439D01*
X167796917Y-112114709D01*
X167787963Y-112114742D01*
X167787883Y-112114709D01*
X167572205Y-112024439D01*
X167565896Y-112018084D01*
X167565921Y-112009148D01*
X167726900Y-111622799D01*
X167733245Y-111616481D01*
X167737700Y-111615600D01*
X167847100Y-111615600D01*
X167855373Y-111619027D01*
G37*
%TD.AperFunction*%
%TD*%
%TA.AperFunction,Conductor*%
%TO.N,/RP2040/QSPI_CS*%
G36*
X171425115Y-103947192D02*
G01*
X171431417Y-103953530D01*
X171590777Y-104340546D01*
X171590758Y-104349501D01*
X171588231Y-104353274D01*
X171510874Y-104430631D01*
X171502601Y-104434058D01*
X171498146Y-104433177D01*
X171111130Y-104273817D01*
X171104785Y-104267498D01*
X171104759Y-104258562D01*
X171193436Y-104042222D01*
X171199743Y-104035868D01*
X171416162Y-103947159D01*
X171425115Y-103947192D01*
G37*
%TD.AperFunction*%
%TD*%
%TA.AperFunction,Conductor*%
%TO.N,/RP2040/SWDIO*%
G36*
X173734276Y-107734547D02*
G01*
X173739951Y-107740551D01*
X173830493Y-107956878D01*
X173830526Y-107965832D01*
X173830493Y-107965912D01*
X173740547Y-108180814D01*
X173734191Y-108187123D01*
X173725237Y-108187090D01*
X173724516Y-108186759D01*
X173712642Y-108180814D01*
X173613720Y-108131285D01*
X173343991Y-107996235D01*
X173338127Y-107989467D01*
X173337529Y-107985773D01*
X173337529Y-107880700D01*
X173340956Y-107872427D01*
X173349229Y-107869000D01*
X173426628Y-107869000D01*
X173428736Y-107869191D01*
X173454170Y-107873853D01*
X173489753Y-107862764D01*
X173490020Y-107862689D01*
X173526215Y-107853769D01*
X173528456Y-107851782D01*
X173532731Y-107849371D01*
X173535590Y-107848481D01*
X173561928Y-107822141D01*
X173562136Y-107821945D01*
X173590050Y-107797217D01*
X173591113Y-107794411D01*
X173593776Y-107790293D01*
X173608419Y-107775650D01*
X173612861Y-107772871D01*
X173725339Y-107734009D01*
X173734276Y-107734547D01*
G37*
%TD.AperFunction*%
%TD*%
%TA.AperFunction,Conductor*%
%TO.N,/RP2040/QSPI_SD0*%
G36*
X176948573Y-108215427D02*
G01*
X176951100Y-108219200D01*
X177112077Y-108605546D01*
X177112096Y-108614501D01*
X177105794Y-108620839D01*
X176890117Y-108711109D01*
X176881163Y-108711142D01*
X176881083Y-108711109D01*
X176665405Y-108620839D01*
X176659096Y-108614484D01*
X176659121Y-108605548D01*
X176820100Y-108219199D01*
X176826445Y-108212881D01*
X176830900Y-108212000D01*
X176940300Y-108212000D01*
X176948573Y-108215427D01*
G37*
%TD.AperFunction*%
%TD*%
%TA.AperFunction,Conductor*%
%TO.N,/RP2040/LED2*%
G36*
X171605049Y-106183621D02*
G01*
X171830013Y-106276253D01*
X171992069Y-106342982D01*
X171998414Y-106349301D01*
X171998440Y-106358238D01*
X171909764Y-106574575D01*
X171903455Y-106580931D01*
X171903375Y-106580964D01*
X171687038Y-106669640D01*
X171678084Y-106669607D01*
X171671782Y-106663269D01*
X171542501Y-106349301D01*
X171512422Y-106276251D01*
X171512441Y-106267298D01*
X171514965Y-106263528D01*
X171592326Y-106186167D01*
X171600598Y-106182741D01*
X171605049Y-106183621D01*
G37*
%TD.AperFunction*%
%TD*%
%TA.AperFunction,Conductor*%
%TO.N,/RP2040/LED1*%
G36*
X172011807Y-105630832D02*
G01*
X172021209Y-105640234D01*
X172022565Y-105641861D01*
X172037256Y-105663144D01*
X172070243Y-105680456D01*
X172070520Y-105680613D01*
X172102401Y-105699886D01*
X172105389Y-105700066D01*
X172110118Y-105701384D01*
X172112769Y-105702776D01*
X172149988Y-105702776D01*
X172150341Y-105702787D01*
X172166412Y-105703758D01*
X172187527Y-105705036D01*
X172190258Y-105703806D01*
X172195059Y-105702776D01*
X172198453Y-105702776D01*
X172202907Y-105703656D01*
X172206254Y-105705035D01*
X172398469Y-105784182D01*
X172404814Y-105790501D01*
X172404840Y-105799438D01*
X172316164Y-106015775D01*
X172309855Y-106022131D01*
X172309775Y-106022164D01*
X172093438Y-106110840D01*
X172084484Y-106110807D01*
X172078182Y-106104469D01*
X171948901Y-105790501D01*
X171918822Y-105717451D01*
X171918841Y-105708498D01*
X171921365Y-105704728D01*
X171995262Y-105630831D01*
X172003534Y-105627405D01*
X172011807Y-105630832D01*
G37*
%TD.AperFunction*%
%TD*%
%TA.AperFunction,Conductor*%
%TO.N,/BOARD_RX_1*%
G36*
X182197343Y-113230511D02*
G01*
X182557500Y-113353800D01*
X182564218Y-113359721D01*
X182564780Y-113368658D01*
X182564527Y-113369330D01*
X182475461Y-113585286D01*
X182469139Y-113591628D01*
X182469082Y-113591651D01*
X182253752Y-113679912D01*
X182244798Y-113679879D01*
X182238489Y-113673523D01*
X182238373Y-113673229D01*
X182076499Y-113245723D01*
X182076774Y-113236773D01*
X182083298Y-113230638D01*
X182087441Y-113229880D01*
X182193554Y-113229880D01*
X182197343Y-113230511D01*
G37*
%TD.AperFunction*%
%TD*%
%TA.AperFunction,Conductor*%
%TO.N,/RP2040/LED1*%
G36*
X169189915Y-104658392D02*
G01*
X169196217Y-104664730D01*
X169355577Y-105051746D01*
X169355558Y-105060701D01*
X169353031Y-105064474D01*
X169275674Y-105141831D01*
X169267401Y-105145258D01*
X169262946Y-105144377D01*
X168875930Y-104985017D01*
X168869585Y-104978698D01*
X168869559Y-104969762D01*
X168958236Y-104753422D01*
X168964543Y-104747068D01*
X169180962Y-104658359D01*
X169189915Y-104658392D01*
G37*
%TD.AperFunction*%
%TD*%
%TA.AperFunction,Conductor*%
%TO.N,/RP2040/QSPI_SCK*%
G36*
X173029651Y-97969921D02*
G01*
X173416000Y-98130900D01*
X173422319Y-98137245D01*
X173423200Y-98141700D01*
X173423200Y-98251099D01*
X173419773Y-98259372D01*
X173416000Y-98261899D01*
X173029653Y-98422877D01*
X173020698Y-98422896D01*
X173014361Y-98416595D01*
X172924089Y-98200915D01*
X172924057Y-98191963D01*
X173014362Y-97976202D01*
X173020715Y-97969896D01*
X173029651Y-97969921D01*
G37*
%TD.AperFunction*%
%TD*%
%TA.AperFunction,Conductor*%
%TO.N,/RP2040/SWDIO*%
G36*
X168112286Y-112378651D02*
G01*
X168186147Y-112452512D01*
X168189574Y-112460785D01*
X168188669Y-112465297D01*
X168027851Y-112850053D01*
X168021499Y-112856365D01*
X168012619Y-112856367D01*
X167796224Y-112767667D01*
X167789868Y-112761358D01*
X167701186Y-112545006D01*
X167701219Y-112536054D01*
X167707571Y-112529747D01*
X167743811Y-112515088D01*
X167750018Y-112514379D01*
X167792400Y-112521092D01*
X167917704Y-112501246D01*
X168030742Y-112443650D01*
X168095741Y-112378650D01*
X168104013Y-112375224D01*
X168112286Y-112378651D01*
G37*
%TD.AperFunction*%
%TD*%
%TA.AperFunction,Conductor*%
%TO.N,/RP2040/QSPI_SD0*%
G36*
X174718195Y-99252761D02*
G01*
X174724503Y-99259116D01*
X174724477Y-99268053D01*
X174610652Y-99541230D01*
X174606501Y-99546357D01*
X174599131Y-99551446D01*
X174581831Y-99584409D01*
X174581657Y-99584716D01*
X174562389Y-99616592D01*
X174562388Y-99616595D01*
X174562207Y-99619582D01*
X174560891Y-99624306D01*
X174559500Y-99626957D01*
X174559500Y-99649900D01*
X174556073Y-99658173D01*
X174547800Y-99661600D01*
X174443300Y-99661600D01*
X174435027Y-99658173D01*
X174432500Y-99654400D01*
X174419961Y-99624306D01*
X174271521Y-99268051D01*
X174271503Y-99259098D01*
X174277802Y-99252762D01*
X174493484Y-99162489D01*
X174502436Y-99162457D01*
X174718195Y-99252761D01*
G37*
%TD.AperFunction*%
%TD*%
%TA.AperFunction,Conductor*%
%TO.N,/RP2040/LED0*%
G36*
X170056814Y-104299840D02*
G01*
X170063490Y-104305809D01*
X170064648Y-104310883D01*
X170064648Y-104420320D01*
X170061221Y-104428593D01*
X170058140Y-104430805D01*
X169677242Y-104619437D01*
X169668308Y-104620037D01*
X169661565Y-104614144D01*
X169661257Y-104613469D01*
X169584804Y-104430805D01*
X169571289Y-104398515D01*
X169571257Y-104389563D01*
X169661815Y-104173197D01*
X169668171Y-104166889D01*
X169676472Y-104166672D01*
X170056814Y-104299840D01*
G37*
%TD.AperFunction*%
%TD*%
%TA.AperFunction,Conductor*%
%TO.N,/RP2040/QSPI_SD3*%
G36*
X171710301Y-97750841D02*
G01*
X171714074Y-97753368D01*
X171791431Y-97830725D01*
X171794858Y-97838998D01*
X171793977Y-97843453D01*
X171634617Y-98230469D01*
X171628298Y-98236814D01*
X171619361Y-98236840D01*
X171403024Y-98148164D01*
X171396668Y-98141855D01*
X171396635Y-98141775D01*
X171307959Y-97925438D01*
X171307992Y-97916484D01*
X171314329Y-97910182D01*
X171701348Y-97750822D01*
X171710301Y-97750841D01*
G37*
%TD.AperFunction*%
%TD*%
%TA.AperFunction,Conductor*%
%TO.N,/RP2040/QSPI_SD2*%
G36*
X173842451Y-104167521D02*
G01*
X174228800Y-104328500D01*
X174235119Y-104334845D01*
X174236000Y-104339300D01*
X174236000Y-104448699D01*
X174232573Y-104456972D01*
X174228800Y-104459499D01*
X173842453Y-104620477D01*
X173833498Y-104620496D01*
X173827161Y-104614195D01*
X173736889Y-104398515D01*
X173736857Y-104389563D01*
X173827162Y-104173802D01*
X173833515Y-104167496D01*
X173842451Y-104167521D01*
G37*
%TD.AperFunction*%
%TD*%
%TA.AperFunction,Conductor*%
%TO.N,/RP2040/USB_BOOT*%
G36*
X168464973Y-100798627D02*
G01*
X168467500Y-100802400D01*
X168628477Y-101188746D01*
X168628496Y-101197701D01*
X168622194Y-101204039D01*
X168406517Y-101294309D01*
X168397563Y-101294342D01*
X168397483Y-101294309D01*
X168181805Y-101204039D01*
X168175496Y-101197684D01*
X168175521Y-101188748D01*
X168336500Y-100802399D01*
X168342845Y-100796081D01*
X168347300Y-100795200D01*
X168456700Y-100795200D01*
X168464973Y-100798627D01*
G37*
%TD.AperFunction*%
%TD*%
%TA.AperFunction,Conductor*%
%TO.N,/BOARD_RX*%
G36*
X166853115Y-106080792D02*
G01*
X166859417Y-106087130D01*
X167018777Y-106474146D01*
X167018758Y-106483101D01*
X167016231Y-106486874D01*
X166938874Y-106564231D01*
X166930601Y-106567658D01*
X166926146Y-106566777D01*
X166539130Y-106407417D01*
X166532785Y-106401098D01*
X166532759Y-106392162D01*
X166621436Y-106175822D01*
X166627743Y-106169468D01*
X166844162Y-106080759D01*
X166853115Y-106080792D01*
G37*
%TD.AperFunction*%
%TD*%
%TA.AperFunction,Conductor*%
%TO.N,/BOARD_TX*%
G36*
X166844195Y-107025161D02*
G01*
X166850503Y-107031516D01*
X166850477Y-107040453D01*
X166689500Y-107426800D01*
X166683155Y-107433119D01*
X166678700Y-107434000D01*
X166569300Y-107434000D01*
X166561027Y-107430573D01*
X166558500Y-107426800D01*
X166397522Y-107040453D01*
X166397503Y-107031498D01*
X166403802Y-107025162D01*
X166619484Y-106934889D01*
X166628436Y-106934857D01*
X166844195Y-107025161D01*
G37*
%TD.AperFunction*%
%TD*%
%TA.AperFunction,Conductor*%
%TO.N,/RP2040/QSPI_SD1*%
G36*
X173152400Y-104505965D02*
G01*
X173158684Y-104512215D01*
X173296027Y-104837317D01*
X173296949Y-104841870D01*
X173296949Y-104948918D01*
X173293522Y-104957191D01*
X173285249Y-104960618D01*
X173281986Y-104960154D01*
X172840028Y-104831800D01*
X172833039Y-104826202D01*
X172832055Y-104817301D01*
X172832465Y-104816127D01*
X172920348Y-104601716D01*
X172926655Y-104595362D01*
X173143445Y-104505952D01*
X173152400Y-104505965D01*
G37*
%TD.AperFunction*%
%TD*%
%TA.AperFunction,Conductor*%
%TO.N,/UART1_TX*%
G36*
X185132183Y-109514356D02*
G01*
X185132508Y-109514492D01*
X185138817Y-109520848D01*
X185138919Y-109529464D01*
X184992376Y-109912695D01*
X184986221Y-109919198D01*
X184981448Y-109920216D01*
X184872016Y-109920216D01*
X184863743Y-109916789D01*
X184861375Y-109913380D01*
X184686054Y-109529861D01*
X184685731Y-109520912D01*
X184691831Y-109514356D01*
X184692122Y-109514228D01*
X184907484Y-109424089D01*
X184916437Y-109424057D01*
X185132183Y-109514356D01*
G37*
%TD.AperFunction*%
%TD*%
%TA.AperFunction,Conductor*%
%TO.N,Net-(J1-CC2)*%
G36*
X182801854Y-108785495D02*
G01*
X182807830Y-108791632D01*
X182879100Y-108961473D01*
X182879141Y-108970427D01*
X182879100Y-108970527D01*
X182807830Y-109140367D01*
X182801468Y-109146670D01*
X182792904Y-109146784D01*
X182487563Y-109031358D01*
X182481036Y-109025227D01*
X182480000Y-109020414D01*
X182480000Y-108911585D01*
X182483427Y-108903312D01*
X182487563Y-108900641D01*
X182792905Y-108785215D01*
X182801854Y-108785495D01*
G37*
%TD.AperFunction*%
%TD*%
%TA.AperFunction,Conductor*%
%TO.N,/RP2040/QSPI_SD2*%
G36*
X176254628Y-108186270D02*
G01*
X176257155Y-108190043D01*
X176418132Y-108576389D01*
X176418151Y-108585344D01*
X176411849Y-108591682D01*
X176196172Y-108681952D01*
X176187218Y-108681985D01*
X176187138Y-108681952D01*
X175971460Y-108591682D01*
X175965151Y-108585327D01*
X175965176Y-108576391D01*
X176126155Y-108190042D01*
X176132500Y-108183724D01*
X176136955Y-108182843D01*
X176246355Y-108182843D01*
X176254628Y-108186270D01*
G37*
%TD.AperFunction*%
%TD*%
%TA.AperFunction,Conductor*%
%TO.N,/RP2040/RUN*%
G36*
X167490249Y-113092421D02*
G01*
X167715213Y-113185053D01*
X167877269Y-113251782D01*
X167883614Y-113258101D01*
X167883640Y-113267038D01*
X167794964Y-113483375D01*
X167788655Y-113489731D01*
X167788575Y-113489764D01*
X167572238Y-113578440D01*
X167563284Y-113578407D01*
X167556982Y-113572069D01*
X167427701Y-113258101D01*
X167397622Y-113185051D01*
X167397641Y-113176098D01*
X167400165Y-113172328D01*
X167477526Y-113094967D01*
X167485798Y-113091541D01*
X167490249Y-113092421D01*
G37*
%TD.AperFunction*%
%TD*%
%TA.AperFunction,Conductor*%
%TO.N,/RP2040/LED2*%
G36*
X168622195Y-103570761D02*
G01*
X168628503Y-103577116D01*
X168628477Y-103586053D01*
X168467500Y-103972400D01*
X168461155Y-103978719D01*
X168456700Y-103979600D01*
X168347300Y-103979600D01*
X168339027Y-103976173D01*
X168336500Y-103972400D01*
X168175522Y-103586053D01*
X168175503Y-103577098D01*
X168181802Y-103570762D01*
X168397484Y-103480489D01*
X168406436Y-103480457D01*
X168622195Y-103570761D01*
G37*
%TD.AperFunction*%
%TD*%
%TA.AperFunction,Conductor*%
%TO.N,/RP2040/QSPI_SD1*%
G36*
X175610347Y-108104080D02*
G01*
X175612874Y-108107853D01*
X175773851Y-108494199D01*
X175773870Y-108503154D01*
X175767568Y-108509492D01*
X175551891Y-108599762D01*
X175542937Y-108599795D01*
X175542857Y-108599762D01*
X175327179Y-108509492D01*
X175320870Y-108503137D01*
X175320895Y-108494201D01*
X175481874Y-108107852D01*
X175488219Y-108101534D01*
X175492674Y-108100653D01*
X175602074Y-108100653D01*
X175610347Y-108104080D01*
G37*
%TD.AperFunction*%
%TD*%
%TA.AperFunction,Conductor*%
%TO.N,/RP2040/QSPI_SCK*%
G36*
X174731533Y-109728054D02*
G01*
X174733781Y-109729811D01*
X174809738Y-109805768D01*
X174812465Y-109810054D01*
X174928364Y-110129828D01*
X174927961Y-110138774D01*
X174921858Y-110144618D01*
X174705000Y-110234831D01*
X174696045Y-110234844D01*
X174695989Y-110234821D01*
X174482708Y-110145551D01*
X174476399Y-110139195D01*
X174476432Y-110130241D01*
X174477190Y-110128740D01*
X174715480Y-109732057D01*
X174722676Y-109726732D01*
X174731533Y-109728054D01*
G37*
%TD.AperFunction*%
%TD*%
%TA.AperFunction,Conductor*%
%TO.N,/RP2040/SWCLK*%
G36*
X174051173Y-107171252D02*
G01*
X174052051Y-107172947D01*
X174141221Y-107385989D01*
X174141254Y-107394943D01*
X174141231Y-107395000D01*
X174051769Y-107610053D01*
X174045427Y-107616375D01*
X174036472Y-107616362D01*
X174035654Y-107615984D01*
X173956686Y-107575748D01*
X173870784Y-107562143D01*
X173868846Y-107561664D01*
X173720163Y-107511090D01*
X173715658Y-107508286D01*
X173639586Y-107432214D01*
X173636159Y-107423941D01*
X173639586Y-107415668D01*
X173641645Y-107414027D01*
X174035047Y-107167548D01*
X174043876Y-107166061D01*
X174051173Y-107171252D01*
G37*
%TD.AperFunction*%
%TD*%
%TA.AperFunction,Conductor*%
%TO.N,/RP2040/QSPI_SD3*%
G36*
X173108118Y-110372425D02*
G01*
X173108208Y-110372517D01*
X173359760Y-110632097D01*
X173363058Y-110640238D01*
X173363058Y-110749578D01*
X173359631Y-110757851D01*
X173352162Y-110761250D01*
X172935654Y-110789942D01*
X172927165Y-110787092D01*
X172923178Y-110779074D01*
X172923150Y-110778317D01*
X172923035Y-110749578D01*
X172922219Y-110545690D01*
X172925612Y-110537407D01*
X173091574Y-110372377D01*
X173099855Y-110368975D01*
X173108118Y-110372425D01*
G37*
%TD.AperFunction*%
%TD*%
%TA.AperFunction,Conductor*%
%TO.N,/RP2040/LED0*%
G36*
X172779931Y-105740958D02*
G01*
X173111724Y-105935891D01*
X173117121Y-105943037D01*
X173116623Y-105950416D01*
X173027364Y-106168175D01*
X173021055Y-106174531D01*
X173020975Y-106174564D01*
X172806356Y-106262536D01*
X172797402Y-106262503D01*
X172791093Y-106256147D01*
X172790564Y-106254532D01*
X172770687Y-106174564D01*
X172685337Y-105831180D01*
X172686668Y-105822325D01*
X172688415Y-105820089D01*
X172765732Y-105742772D01*
X172774004Y-105739346D01*
X172779931Y-105740958D01*
G37*
%TD.AperFunction*%
%TD*%
%TA.AperFunction,Conductor*%
%TO.N,/BOARD_RX*%
G36*
X178978839Y-116365805D02*
G01*
X179069109Y-116581483D01*
X179069142Y-116590438D01*
X179069109Y-116590517D01*
X178978839Y-116806194D01*
X178972483Y-116812503D01*
X178963546Y-116812477D01*
X178577200Y-116651499D01*
X178570881Y-116645154D01*
X178570000Y-116640699D01*
X178570000Y-116531300D01*
X178573427Y-116523027D01*
X178577200Y-116520500D01*
X178963548Y-116359521D01*
X178972501Y-116359503D01*
X178978839Y-116365805D01*
G37*
%TD.AperFunction*%
%TD*%
%TA.AperFunction,Conductor*%
%TO.N,Net-(J1-CC2)*%
G36*
X181390121Y-108909502D02*
G01*
X181396117Y-108916153D01*
X181396790Y-108920065D01*
X181396790Y-109026191D01*
X181395914Y-109030634D01*
X181291224Y-109285699D01*
X181284912Y-109292051D01*
X181275957Y-109292079D01*
X181260469Y-109285699D01*
X181105521Y-109221862D01*
X181099177Y-109215542D01*
X181030104Y-109046576D01*
X181030145Y-109037623D01*
X181036507Y-109031320D01*
X181037001Y-109031130D01*
X181381178Y-108909038D01*
X181390121Y-108909502D01*
G37*
%TD.AperFunction*%
%TD*%
%TA.AperFunction,Conductor*%
%TO.N,/RP2040/QSPI_CS*%
G36*
X174967373Y-108012227D02*
G01*
X174969900Y-108016000D01*
X175130877Y-108402346D01*
X175130896Y-108411301D01*
X175124594Y-108417639D01*
X174908917Y-108507909D01*
X174899963Y-108507942D01*
X174899883Y-108507909D01*
X174684205Y-108417639D01*
X174677896Y-108411284D01*
X174677921Y-108402348D01*
X174838900Y-108015999D01*
X174845245Y-108009681D01*
X174849700Y-108008800D01*
X174959100Y-108008800D01*
X174967373Y-108012227D01*
G37*
%TD.AperFunction*%
%TD*%
%TA.AperFunction,Conductor*%
%TO.N,/UART1_RX*%
G36*
X183449239Y-110574605D02*
G01*
X183539509Y-110790283D01*
X183539542Y-110799238D01*
X183539509Y-110799317D01*
X183449239Y-111014994D01*
X183442883Y-111021303D01*
X183433946Y-111021277D01*
X183047600Y-110860299D01*
X183041281Y-110853954D01*
X183040400Y-110849499D01*
X183040400Y-110740100D01*
X183043827Y-110731827D01*
X183047600Y-110729300D01*
X183433948Y-110568321D01*
X183442901Y-110568303D01*
X183449239Y-110574605D01*
G37*
%TD.AperFunction*%
%TD*%
%TA.AperFunction,Conductor*%
%TO.N,/BOARD_TX*%
G36*
X180900255Y-117055542D02*
G01*
X181754654Y-117663485D01*
X181759408Y-117671074D01*
X181759284Y-117675595D01*
X181253522Y-119915662D01*
X181248357Y-119922977D01*
X181239532Y-119924498D01*
X181232217Y-119919333D01*
X181231105Y-119917061D01*
X180420609Y-117673837D01*
X180421021Y-117664891D01*
X180422148Y-117662983D01*
X180803273Y-117138928D01*
X180804451Y-117137550D01*
X180885200Y-117056801D01*
X180893472Y-117053375D01*
X180900255Y-117055542D01*
G37*
%TD.AperFunction*%
%TD*%
%TA.AperFunction,Conductor*%
%TO.N,/BOARD_TX_1*%
G36*
X183849655Y-116845927D02*
G01*
X183849961Y-116846244D01*
X184604672Y-117662777D01*
X184607771Y-117671177D01*
X184607085Y-117674689D01*
X183795005Y-119924511D01*
X183788973Y-119931130D01*
X183780028Y-119931544D01*
X183773409Y-119925512D01*
X183772995Y-119924511D01*
X182960914Y-117674689D01*
X182961328Y-117665744D01*
X182963320Y-117662784D01*
X183718026Y-116846257D01*
X183726158Y-116842509D01*
X183726618Y-116842500D01*
X183841382Y-116842500D01*
X183849655Y-116845927D01*
G37*
%TD.AperFunction*%
%TD*%
%TA.AperFunction,Conductor*%
%TO.N,/RP2040/RUN*%
G36*
X183171938Y-94314587D02*
G01*
X184663100Y-94545467D01*
X184670752Y-94550119D01*
X184673010Y-94557017D01*
X184673992Y-95539170D01*
X184670573Y-95547447D01*
X184666765Y-95549993D01*
X183760098Y-95925140D01*
X183751143Y-95925137D01*
X183744814Y-95918802D01*
X183744773Y-95918703D01*
X183159278Y-94439574D01*
X183158457Y-94435268D01*
X183158457Y-94326150D01*
X183161884Y-94317877D01*
X183170157Y-94314450D01*
X183171938Y-94314587D01*
G37*
%TD.AperFunction*%
%TD*%
%TA.AperFunction,Conductor*%
%TO.N,/RP2040/USB_BOOT*%
G36*
X180738786Y-94633972D02*
G01*
X180739163Y-94634790D01*
X181116136Y-95542513D01*
X181116145Y-95551467D01*
X181116136Y-95551487D01*
X180739370Y-96458711D01*
X180733032Y-96465038D01*
X180724078Y-96465029D01*
X180722832Y-96464423D01*
X179131520Y-95569854D01*
X179125987Y-95562813D01*
X179125553Y-95559655D01*
X179125553Y-95448674D01*
X179128980Y-95440401D01*
X179131944Y-95438248D01*
X180723055Y-94628848D01*
X180731981Y-94628152D01*
X180738786Y-94633972D01*
G37*
%TD.AperFunction*%
%TD*%
M02*
