%TF.GenerationSoftware,KiCad,Pcbnew,9.0.1*%
%TF.CreationDate,2026-01-11T16:36:20-05:00*%
%TF.ProjectId,float_carrier_2025-2026,666c6f61-745f-4636-9172-726965725f32,v01*%
%TF.SameCoordinates,Original*%
%TF.FileFunction,Legend,Top*%
%TF.FilePolarity,Positive*%
%FSLAX46Y46*%
G04 Gerber Fmt 4.6, Leading zero omitted, Abs format (unit mm)*
G04 Created by KiCad (PCBNEW 9.0.1) date 2026-01-11 16:36:20*
%MOMM*%
%LPD*%
G01*
G04 APERTURE LIST*
G04 Aperture macros list*
%AMRoundRect*
0 Rectangle with rounded corners*
0 $1 Rounding radius*
0 $2 $3 $4 $5 $6 $7 $8 $9 X,Y pos of 4 corners*
0 Add a 4 corners polygon primitive as box body*
4,1,4,$2,$3,$4,$5,$6,$7,$8,$9,$2,$3,0*
0 Add four circle primitives for the rounded corners*
1,1,$1+$1,$2,$3*
1,1,$1+$1,$4,$5*
1,1,$1+$1,$6,$7*
1,1,$1+$1,$8,$9*
0 Add four rect primitives between the rounded corners*
20,1,$1+$1,$2,$3,$4,$5,0*
20,1,$1+$1,$4,$5,$6,$7,0*
20,1,$1+$1,$6,$7,$8,$9,0*
20,1,$1+$1,$8,$9,$2,$3,0*%
G04 Aperture macros list end*
%ADD10C,0.100000*%
%ADD11C,0.150000*%
%ADD12C,0.120000*%
%ADD13C,1.700000*%
%ADD14R,1.700000X1.700000*%
%ADD15C,2.000000*%
%ADD16RoundRect,0.250000X0.750000X0.750000X-0.750000X0.750000X-0.750000X-0.750000X0.750000X-0.750000X0*%
%ADD17RoundRect,0.200000X-0.200000X-0.275000X0.200000X-0.275000X0.200000X0.275000X-0.200000X0.275000X0*%
%ADD18RoundRect,0.225000X-0.250000X0.225000X-0.250000X-0.225000X0.250000X-0.225000X0.250000X0.225000X0*%
%ADD19RoundRect,0.218750X0.256250X-0.218750X0.256250X0.218750X-0.256250X0.218750X-0.256250X-0.218750X0*%
%ADD20RoundRect,0.250000X-0.750000X-0.750000X0.750000X-0.750000X0.750000X0.750000X-0.750000X0.750000X0*%
%ADD21R,2.950000X3.500000*%
%ADD22RoundRect,0.200000X0.200000X0.275000X-0.200000X0.275000X-0.200000X-0.275000X0.200000X-0.275000X0*%
%ADD23RoundRect,0.225000X-0.225000X-0.250000X0.225000X-0.250000X0.225000X0.250000X-0.225000X0.250000X0*%
%ADD24RoundRect,0.140000X0.170000X-0.140000X0.170000X0.140000X-0.170000X0.140000X-0.170000X-0.140000X0*%
%ADD25RoundRect,0.150000X-0.150000X0.512500X-0.150000X-0.512500X0.150000X-0.512500X0.150000X0.512500X0*%
%ADD26RoundRect,0.200000X-0.275000X0.200000X-0.275000X-0.200000X0.275000X-0.200000X0.275000X0.200000X0*%
%ADD27RoundRect,0.140000X-0.140000X-0.170000X0.140000X-0.170000X0.140000X0.170000X-0.140000X0.170000X0*%
%ADD28RoundRect,0.200000X0.275000X-0.200000X0.275000X0.200000X-0.275000X0.200000X-0.275000X-0.200000X0*%
G04 APERTURE END LIST*
D10*
X78679219Y-117996639D02*
X78679219Y-117901401D01*
X78679219Y-117901401D02*
X78726838Y-117806163D01*
X78726838Y-117806163D02*
X78774457Y-117758544D01*
X78774457Y-117758544D02*
X78869695Y-117710925D01*
X78869695Y-117710925D02*
X79060171Y-117663306D01*
X79060171Y-117663306D02*
X79298266Y-117663306D01*
X79298266Y-117663306D02*
X79488742Y-117710925D01*
X79488742Y-117710925D02*
X79583980Y-117758544D01*
X79583980Y-117758544D02*
X79631600Y-117806163D01*
X79631600Y-117806163D02*
X79679219Y-117901401D01*
X79679219Y-117901401D02*
X79679219Y-117996639D01*
X79679219Y-117996639D02*
X79631600Y-118091877D01*
X79631600Y-118091877D02*
X79583980Y-118139496D01*
X79583980Y-118139496D02*
X79488742Y-118187115D01*
X79488742Y-118187115D02*
X79298266Y-118234734D01*
X79298266Y-118234734D02*
X79060171Y-118234734D01*
X79060171Y-118234734D02*
X78869695Y-118187115D01*
X78869695Y-118187115D02*
X78774457Y-118139496D01*
X78774457Y-118139496D02*
X78726838Y-118091877D01*
X78726838Y-118091877D02*
X78679219Y-117996639D01*
X79583980Y-117234734D02*
X79631600Y-117187115D01*
X79631600Y-117187115D02*
X79679219Y-117234734D01*
X79679219Y-117234734D02*
X79631600Y-117282353D01*
X79631600Y-117282353D02*
X79583980Y-117234734D01*
X79583980Y-117234734D02*
X79679219Y-117234734D01*
X79679219Y-116234735D02*
X79679219Y-116806163D01*
X79679219Y-116520449D02*
X78679219Y-116520449D01*
X78679219Y-116520449D02*
X78822076Y-116615687D01*
X78822076Y-116615687D02*
X78917314Y-116710925D01*
X78917314Y-116710925D02*
X78964933Y-116806163D01*
X79012552Y-115377592D02*
X79679219Y-115377592D01*
X79012552Y-115806163D02*
X79536361Y-115806163D01*
X79536361Y-115806163D02*
X79631600Y-115758544D01*
X79631600Y-115758544D02*
X79679219Y-115663306D01*
X79679219Y-115663306D02*
X79679219Y-115520449D01*
X79679219Y-115520449D02*
X79631600Y-115425211D01*
X79631600Y-115425211D02*
X79583980Y-115377592D01*
X79155409Y-114568068D02*
X79155409Y-114901401D01*
X79679219Y-114901401D02*
X78679219Y-114901401D01*
X78679219Y-114901401D02*
X78679219Y-114425211D01*
X106797019Y-77312153D02*
X106797019Y-76693106D01*
X106797019Y-76693106D02*
X107177971Y-77026439D01*
X107177971Y-77026439D02*
X107177971Y-76883582D01*
X107177971Y-76883582D02*
X107225590Y-76788344D01*
X107225590Y-76788344D02*
X107273209Y-76740725D01*
X107273209Y-76740725D02*
X107368447Y-76693106D01*
X107368447Y-76693106D02*
X107606542Y-76693106D01*
X107606542Y-76693106D02*
X107701780Y-76740725D01*
X107701780Y-76740725D02*
X107749400Y-76788344D01*
X107749400Y-76788344D02*
X107797019Y-76883582D01*
X107797019Y-76883582D02*
X107797019Y-77169296D01*
X107797019Y-77169296D02*
X107749400Y-77264534D01*
X107749400Y-77264534D02*
X107701780Y-77312153D01*
X78488265Y-95741657D02*
X78535884Y-95694038D01*
X78535884Y-95694038D02*
X78631122Y-95646419D01*
X78631122Y-95646419D02*
X78869217Y-95646419D01*
X78869217Y-95646419D02*
X78964455Y-95694038D01*
X78964455Y-95694038D02*
X79012074Y-95741657D01*
X79012074Y-95741657D02*
X79059693Y-95836895D01*
X79059693Y-95836895D02*
X79059693Y-95932133D01*
X79059693Y-95932133D02*
X79012074Y-96074990D01*
X79012074Y-96074990D02*
X78440646Y-96646419D01*
X78440646Y-96646419D02*
X79059693Y-96646419D01*
X79440646Y-95741657D02*
X79488265Y-95694038D01*
X79488265Y-95694038D02*
X79583503Y-95646419D01*
X79583503Y-95646419D02*
X79821598Y-95646419D01*
X79821598Y-95646419D02*
X79916836Y-95694038D01*
X79916836Y-95694038D02*
X79964455Y-95741657D01*
X79964455Y-95741657D02*
X80012074Y-95836895D01*
X80012074Y-95836895D02*
X80012074Y-95932133D01*
X80012074Y-95932133D02*
X79964455Y-96074990D01*
X79964455Y-96074990D02*
X79393027Y-96646419D01*
X79393027Y-96646419D02*
X80012074Y-96646419D01*
X80869217Y-95979752D02*
X80869217Y-96646419D01*
X80440646Y-95979752D02*
X80440646Y-96503561D01*
X80440646Y-96503561D02*
X80488265Y-96598800D01*
X80488265Y-96598800D02*
X80583503Y-96646419D01*
X80583503Y-96646419D02*
X80726360Y-96646419D01*
X80726360Y-96646419D02*
X80821598Y-96598800D01*
X80821598Y-96598800D02*
X80869217Y-96551180D01*
X81678741Y-96122609D02*
X81345408Y-96122609D01*
X81345408Y-96646419D02*
X81345408Y-95646419D01*
X81345408Y-95646419D02*
X81821598Y-95646419D01*
X116906219Y-77388353D02*
X116906219Y-76721687D01*
X116906219Y-76721687D02*
X117906219Y-77150258D01*
X88391084Y-127228019D02*
X88391084Y-126228019D01*
X88867274Y-126561352D02*
X88867274Y-127228019D01*
X88867274Y-126656590D02*
X88914893Y-126608971D01*
X88914893Y-126608971D02*
X89010131Y-126561352D01*
X89010131Y-126561352D02*
X89152988Y-126561352D01*
X89152988Y-126561352D02*
X89248226Y-126608971D01*
X89248226Y-126608971D02*
X89295845Y-126704209D01*
X89295845Y-126704209D02*
X89295845Y-127228019D01*
X89772036Y-126561352D02*
X89772036Y-127561352D01*
X89772036Y-126608971D02*
X89867274Y-126561352D01*
X89867274Y-126561352D02*
X90057750Y-126561352D01*
X90057750Y-126561352D02*
X90152988Y-126608971D01*
X90152988Y-126608971D02*
X90200607Y-126656590D01*
X90200607Y-126656590D02*
X90248226Y-126751828D01*
X90248226Y-126751828D02*
X90248226Y-127037542D01*
X90248226Y-127037542D02*
X90200607Y-127132780D01*
X90200607Y-127132780D02*
X90152988Y-127180400D01*
X90152988Y-127180400D02*
X90057750Y-127228019D01*
X90057750Y-127228019D02*
X89867274Y-127228019D01*
X89867274Y-127228019D02*
X89772036Y-127180400D01*
X91105369Y-126561352D02*
X91105369Y-127228019D01*
X90676798Y-126561352D02*
X90676798Y-127085161D01*
X90676798Y-127085161D02*
X90724417Y-127180400D01*
X90724417Y-127180400D02*
X90819655Y-127228019D01*
X90819655Y-127228019D02*
X90962512Y-127228019D01*
X90962512Y-127228019D02*
X91057750Y-127180400D01*
X91057750Y-127180400D02*
X91105369Y-127132780D01*
X91438703Y-126561352D02*
X91819655Y-126561352D01*
X91581560Y-126228019D02*
X91581560Y-127085161D01*
X91581560Y-127085161D02*
X91629179Y-127180400D01*
X91629179Y-127180400D02*
X91724417Y-127228019D01*
X91724417Y-127228019D02*
X91819655Y-127228019D01*
X92914894Y-127228019D02*
X92914894Y-126228019D01*
X92914894Y-126228019D02*
X93295846Y-126228019D01*
X93295846Y-126228019D02*
X93391084Y-126275638D01*
X93391084Y-126275638D02*
X93438703Y-126323257D01*
X93438703Y-126323257D02*
X93486322Y-126418495D01*
X93486322Y-126418495D02*
X93486322Y-126561352D01*
X93486322Y-126561352D02*
X93438703Y-126656590D01*
X93438703Y-126656590D02*
X93391084Y-126704209D01*
X93391084Y-126704209D02*
X93295846Y-126751828D01*
X93295846Y-126751828D02*
X92914894Y-126751828D01*
X94057751Y-127228019D02*
X93962513Y-127180400D01*
X93962513Y-127180400D02*
X93914894Y-127132780D01*
X93914894Y-127132780D02*
X93867275Y-127037542D01*
X93867275Y-127037542D02*
X93867275Y-126751828D01*
X93867275Y-126751828D02*
X93914894Y-126656590D01*
X93914894Y-126656590D02*
X93962513Y-126608971D01*
X93962513Y-126608971D02*
X94057751Y-126561352D01*
X94057751Y-126561352D02*
X94200608Y-126561352D01*
X94200608Y-126561352D02*
X94295846Y-126608971D01*
X94295846Y-126608971D02*
X94343465Y-126656590D01*
X94343465Y-126656590D02*
X94391084Y-126751828D01*
X94391084Y-126751828D02*
X94391084Y-127037542D01*
X94391084Y-127037542D02*
X94343465Y-127132780D01*
X94343465Y-127132780D02*
X94295846Y-127180400D01*
X94295846Y-127180400D02*
X94200608Y-127228019D01*
X94200608Y-127228019D02*
X94057751Y-127228019D01*
X94724418Y-126561352D02*
X94914894Y-127228019D01*
X94914894Y-127228019D02*
X95105370Y-126751828D01*
X95105370Y-126751828D02*
X95295846Y-127228019D01*
X95295846Y-127228019D02*
X95486322Y-126561352D01*
X96248227Y-127180400D02*
X96152989Y-127228019D01*
X96152989Y-127228019D02*
X95962513Y-127228019D01*
X95962513Y-127228019D02*
X95867275Y-127180400D01*
X95867275Y-127180400D02*
X95819656Y-127085161D01*
X95819656Y-127085161D02*
X95819656Y-126704209D01*
X95819656Y-126704209D02*
X95867275Y-126608971D01*
X95867275Y-126608971D02*
X95962513Y-126561352D01*
X95962513Y-126561352D02*
X96152989Y-126561352D01*
X96152989Y-126561352D02*
X96248227Y-126608971D01*
X96248227Y-126608971D02*
X96295846Y-126704209D01*
X96295846Y-126704209D02*
X96295846Y-126799447D01*
X96295846Y-126799447D02*
X95819656Y-126894685D01*
X96724418Y-127228019D02*
X96724418Y-126561352D01*
X96724418Y-126751828D02*
X96772037Y-126656590D01*
X96772037Y-126656590D02*
X96819656Y-126608971D01*
X96819656Y-126608971D02*
X96914894Y-126561352D01*
X96914894Y-126561352D02*
X97010132Y-126561352D01*
X119785819Y-121727306D02*
X119785819Y-122298734D01*
X119785819Y-122013020D02*
X118785819Y-122013020D01*
X118785819Y-122013020D02*
X118928676Y-122108258D01*
X118928676Y-122108258D02*
X119023914Y-122203496D01*
X119023914Y-122203496D02*
X119071533Y-122298734D01*
X118785819Y-121108258D02*
X118785819Y-121013020D01*
X118785819Y-121013020D02*
X118833438Y-120917782D01*
X118833438Y-120917782D02*
X118881057Y-120870163D01*
X118881057Y-120870163D02*
X118976295Y-120822544D01*
X118976295Y-120822544D02*
X119166771Y-120774925D01*
X119166771Y-120774925D02*
X119404866Y-120774925D01*
X119404866Y-120774925D02*
X119595342Y-120822544D01*
X119595342Y-120822544D02*
X119690580Y-120870163D01*
X119690580Y-120870163D02*
X119738200Y-120917782D01*
X119738200Y-120917782D02*
X119785819Y-121013020D01*
X119785819Y-121013020D02*
X119785819Y-121108258D01*
X119785819Y-121108258D02*
X119738200Y-121203496D01*
X119738200Y-121203496D02*
X119690580Y-121251115D01*
X119690580Y-121251115D02*
X119595342Y-121298734D01*
X119595342Y-121298734D02*
X119404866Y-121346353D01*
X119404866Y-121346353D02*
X119166771Y-121346353D01*
X119166771Y-121346353D02*
X118976295Y-121298734D01*
X118976295Y-121298734D02*
X118881057Y-121251115D01*
X118881057Y-121251115D02*
X118833438Y-121203496D01*
X118833438Y-121203496D02*
X118785819Y-121108258D01*
X119785819Y-120346353D02*
X118785819Y-120346353D01*
X119404866Y-120251115D02*
X119785819Y-119965401D01*
X119119152Y-119965401D02*
X119500104Y-120346353D01*
X83161865Y-98611857D02*
X83209484Y-98564238D01*
X83209484Y-98564238D02*
X83304722Y-98516619D01*
X83304722Y-98516619D02*
X83542817Y-98516619D01*
X83542817Y-98516619D02*
X83638055Y-98564238D01*
X83638055Y-98564238D02*
X83685674Y-98611857D01*
X83685674Y-98611857D02*
X83733293Y-98707095D01*
X83733293Y-98707095D02*
X83733293Y-98802333D01*
X83733293Y-98802333D02*
X83685674Y-98945190D01*
X83685674Y-98945190D02*
X83114246Y-99516619D01*
X83114246Y-99516619D02*
X83733293Y-99516619D01*
X84114246Y-98611857D02*
X84161865Y-98564238D01*
X84161865Y-98564238D02*
X84257103Y-98516619D01*
X84257103Y-98516619D02*
X84495198Y-98516619D01*
X84495198Y-98516619D02*
X84590436Y-98564238D01*
X84590436Y-98564238D02*
X84638055Y-98611857D01*
X84638055Y-98611857D02*
X84685674Y-98707095D01*
X84685674Y-98707095D02*
X84685674Y-98802333D01*
X84685674Y-98802333D02*
X84638055Y-98945190D01*
X84638055Y-98945190D02*
X84066627Y-99516619D01*
X84066627Y-99516619D02*
X84685674Y-99516619D01*
X85542817Y-98849952D02*
X85542817Y-99516619D01*
X85114246Y-98849952D02*
X85114246Y-99373761D01*
X85114246Y-99373761D02*
X85161865Y-99469000D01*
X85161865Y-99469000D02*
X85257103Y-99516619D01*
X85257103Y-99516619D02*
X85399960Y-99516619D01*
X85399960Y-99516619D02*
X85495198Y-99469000D01*
X85495198Y-99469000D02*
X85542817Y-99421380D01*
X86352341Y-98992809D02*
X86019008Y-98992809D01*
X86019008Y-99516619D02*
X86019008Y-98516619D01*
X86019008Y-98516619D02*
X86495198Y-98516619D01*
X102463019Y-76642306D02*
X102463019Y-77213734D01*
X102463019Y-76928020D02*
X101463019Y-76928020D01*
X101463019Y-76928020D02*
X101605876Y-77023258D01*
X101605876Y-77023258D02*
X101701114Y-77118496D01*
X101701114Y-77118496D02*
X101748733Y-77213734D01*
X114366219Y-76864544D02*
X114366219Y-77055020D01*
X114366219Y-77055020D02*
X114413838Y-77150258D01*
X114413838Y-77150258D02*
X114461457Y-77197877D01*
X114461457Y-77197877D02*
X114604314Y-77293115D01*
X114604314Y-77293115D02*
X114794790Y-77340734D01*
X114794790Y-77340734D02*
X115175742Y-77340734D01*
X115175742Y-77340734D02*
X115270980Y-77293115D01*
X115270980Y-77293115D02*
X115318600Y-77245496D01*
X115318600Y-77245496D02*
X115366219Y-77150258D01*
X115366219Y-77150258D02*
X115366219Y-76959782D01*
X115366219Y-76959782D02*
X115318600Y-76864544D01*
X115318600Y-76864544D02*
X115270980Y-76816925D01*
X115270980Y-76816925D02*
X115175742Y-76769306D01*
X115175742Y-76769306D02*
X114937647Y-76769306D01*
X114937647Y-76769306D02*
X114842409Y-76816925D01*
X114842409Y-76816925D02*
X114794790Y-76864544D01*
X114794790Y-76864544D02*
X114747171Y-76959782D01*
X114747171Y-76959782D02*
X114747171Y-77150258D01*
X114747171Y-77150258D02*
X114794790Y-77245496D01*
X114794790Y-77245496D02*
X114842409Y-77293115D01*
X114842409Y-77293115D02*
X114937647Y-77340734D01*
X78627893Y-104850619D02*
X78056465Y-104850619D01*
X78342179Y-104850619D02*
X78342179Y-103850619D01*
X78342179Y-103850619D02*
X78246941Y-103993476D01*
X78246941Y-103993476D02*
X78151703Y-104088714D01*
X78151703Y-104088714D02*
X78056465Y-104136333D01*
X79246941Y-103850619D02*
X79342179Y-103850619D01*
X79342179Y-103850619D02*
X79437417Y-103898238D01*
X79437417Y-103898238D02*
X79485036Y-103945857D01*
X79485036Y-103945857D02*
X79532655Y-104041095D01*
X79532655Y-104041095D02*
X79580274Y-104231571D01*
X79580274Y-104231571D02*
X79580274Y-104469666D01*
X79580274Y-104469666D02*
X79532655Y-104660142D01*
X79532655Y-104660142D02*
X79485036Y-104755380D01*
X79485036Y-104755380D02*
X79437417Y-104803000D01*
X79437417Y-104803000D02*
X79342179Y-104850619D01*
X79342179Y-104850619D02*
X79246941Y-104850619D01*
X79246941Y-104850619D02*
X79151703Y-104803000D01*
X79151703Y-104803000D02*
X79104084Y-104755380D01*
X79104084Y-104755380D02*
X79056465Y-104660142D01*
X79056465Y-104660142D02*
X79008846Y-104469666D01*
X79008846Y-104469666D02*
X79008846Y-104231571D01*
X79008846Y-104231571D02*
X79056465Y-104041095D01*
X79056465Y-104041095D02*
X79104084Y-103945857D01*
X79104084Y-103945857D02*
X79151703Y-103898238D01*
X79151703Y-103898238D02*
X79246941Y-103850619D01*
X80437417Y-104183952D02*
X80437417Y-104850619D01*
X80008846Y-104183952D02*
X80008846Y-104707761D01*
X80008846Y-104707761D02*
X80056465Y-104803000D01*
X80056465Y-104803000D02*
X80151703Y-104850619D01*
X80151703Y-104850619D02*
X80294560Y-104850619D01*
X80294560Y-104850619D02*
X80389798Y-104803000D01*
X80389798Y-104803000D02*
X80437417Y-104755380D01*
X81246941Y-104326809D02*
X80913608Y-104326809D01*
X80913608Y-104850619D02*
X80913608Y-103850619D01*
X80913608Y-103850619D02*
X81389798Y-103850619D01*
X70967019Y-113853306D02*
X70967019Y-114424734D01*
X70967019Y-114139020D02*
X69967019Y-114139020D01*
X69967019Y-114139020D02*
X70109876Y-114234258D01*
X70109876Y-114234258D02*
X70205114Y-114329496D01*
X70205114Y-114329496D02*
X70252733Y-114424734D01*
X69967019Y-113234258D02*
X69967019Y-113139020D01*
X69967019Y-113139020D02*
X70014638Y-113043782D01*
X70014638Y-113043782D02*
X70062257Y-112996163D01*
X70062257Y-112996163D02*
X70157495Y-112948544D01*
X70157495Y-112948544D02*
X70347971Y-112900925D01*
X70347971Y-112900925D02*
X70586066Y-112900925D01*
X70586066Y-112900925D02*
X70776542Y-112948544D01*
X70776542Y-112948544D02*
X70871780Y-112996163D01*
X70871780Y-112996163D02*
X70919400Y-113043782D01*
X70919400Y-113043782D02*
X70967019Y-113139020D01*
X70967019Y-113139020D02*
X70967019Y-113234258D01*
X70967019Y-113234258D02*
X70919400Y-113329496D01*
X70919400Y-113329496D02*
X70871780Y-113377115D01*
X70871780Y-113377115D02*
X70776542Y-113424734D01*
X70776542Y-113424734D02*
X70586066Y-113472353D01*
X70586066Y-113472353D02*
X70347971Y-113472353D01*
X70347971Y-113472353D02*
X70157495Y-113424734D01*
X70157495Y-113424734D02*
X70062257Y-113377115D01*
X70062257Y-113377115D02*
X70014638Y-113329496D01*
X70014638Y-113329496D02*
X69967019Y-113234258D01*
X70967019Y-112472353D02*
X69967019Y-112472353D01*
X70586066Y-112377115D02*
X70967019Y-112091401D01*
X70300352Y-112091401D02*
X70681304Y-112472353D01*
X107695084Y-127101019D02*
X107695084Y-126101019D01*
X107695084Y-126101019D02*
X107933179Y-126101019D01*
X107933179Y-126101019D02*
X108076036Y-126148638D01*
X108076036Y-126148638D02*
X108171274Y-126243876D01*
X108171274Y-126243876D02*
X108218893Y-126339114D01*
X108218893Y-126339114D02*
X108266512Y-126529590D01*
X108266512Y-126529590D02*
X108266512Y-126672447D01*
X108266512Y-126672447D02*
X108218893Y-126862923D01*
X108218893Y-126862923D02*
X108171274Y-126958161D01*
X108171274Y-126958161D02*
X108076036Y-127053400D01*
X108076036Y-127053400D02*
X107933179Y-127101019D01*
X107933179Y-127101019D02*
X107695084Y-127101019D01*
X109076036Y-127053400D02*
X108980798Y-127101019D01*
X108980798Y-127101019D02*
X108790322Y-127101019D01*
X108790322Y-127101019D02*
X108695084Y-127053400D01*
X108695084Y-127053400D02*
X108647465Y-126958161D01*
X108647465Y-126958161D02*
X108647465Y-126577209D01*
X108647465Y-126577209D02*
X108695084Y-126481971D01*
X108695084Y-126481971D02*
X108790322Y-126434352D01*
X108790322Y-126434352D02*
X108980798Y-126434352D01*
X108980798Y-126434352D02*
X109076036Y-126481971D01*
X109076036Y-126481971D02*
X109123655Y-126577209D01*
X109123655Y-126577209D02*
X109123655Y-126672447D01*
X109123655Y-126672447D02*
X108647465Y-126767685D01*
X109552227Y-126434352D02*
X109552227Y-127434352D01*
X109552227Y-126481971D02*
X109647465Y-126434352D01*
X109647465Y-126434352D02*
X109837941Y-126434352D01*
X109837941Y-126434352D02*
X109933179Y-126481971D01*
X109933179Y-126481971D02*
X109980798Y-126529590D01*
X109980798Y-126529590D02*
X110028417Y-126624828D01*
X110028417Y-126624828D02*
X110028417Y-126910542D01*
X110028417Y-126910542D02*
X109980798Y-127005780D01*
X109980798Y-127005780D02*
X109933179Y-127053400D01*
X109933179Y-127053400D02*
X109837941Y-127101019D01*
X109837941Y-127101019D02*
X109647465Y-127101019D01*
X109647465Y-127101019D02*
X109552227Y-127053400D01*
X110314132Y-126434352D02*
X110695084Y-126434352D01*
X110456989Y-126101019D02*
X110456989Y-126958161D01*
X110456989Y-126958161D02*
X110504608Y-127053400D01*
X110504608Y-127053400D02*
X110599846Y-127101019D01*
X110599846Y-127101019D02*
X110695084Y-127101019D01*
X111028418Y-127101019D02*
X111028418Y-126101019D01*
X111456989Y-127101019D02*
X111456989Y-126577209D01*
X111456989Y-126577209D02*
X111409370Y-126481971D01*
X111409370Y-126481971D02*
X111314132Y-126434352D01*
X111314132Y-126434352D02*
X111171275Y-126434352D01*
X111171275Y-126434352D02*
X111076037Y-126481971D01*
X111076037Y-126481971D02*
X111028418Y-126529590D01*
X112647466Y-127053400D02*
X112790323Y-127101019D01*
X112790323Y-127101019D02*
X113028418Y-127101019D01*
X113028418Y-127101019D02*
X113123656Y-127053400D01*
X113123656Y-127053400D02*
X113171275Y-127005780D01*
X113171275Y-127005780D02*
X113218894Y-126910542D01*
X113218894Y-126910542D02*
X113218894Y-126815304D01*
X113218894Y-126815304D02*
X113171275Y-126720066D01*
X113171275Y-126720066D02*
X113123656Y-126672447D01*
X113123656Y-126672447D02*
X113028418Y-126624828D01*
X113028418Y-126624828D02*
X112837942Y-126577209D01*
X112837942Y-126577209D02*
X112742704Y-126529590D01*
X112742704Y-126529590D02*
X112695085Y-126481971D01*
X112695085Y-126481971D02*
X112647466Y-126386733D01*
X112647466Y-126386733D02*
X112647466Y-126291495D01*
X112647466Y-126291495D02*
X112695085Y-126196257D01*
X112695085Y-126196257D02*
X112742704Y-126148638D01*
X112742704Y-126148638D02*
X112837942Y-126101019D01*
X112837942Y-126101019D02*
X113076037Y-126101019D01*
X113076037Y-126101019D02*
X113218894Y-126148638D01*
X114028418Y-127053400D02*
X113933180Y-127101019D01*
X113933180Y-127101019D02*
X113742704Y-127101019D01*
X113742704Y-127101019D02*
X113647466Y-127053400D01*
X113647466Y-127053400D02*
X113599847Y-126958161D01*
X113599847Y-126958161D02*
X113599847Y-126577209D01*
X113599847Y-126577209D02*
X113647466Y-126481971D01*
X113647466Y-126481971D02*
X113742704Y-126434352D01*
X113742704Y-126434352D02*
X113933180Y-126434352D01*
X113933180Y-126434352D02*
X114028418Y-126481971D01*
X114028418Y-126481971D02*
X114076037Y-126577209D01*
X114076037Y-126577209D02*
X114076037Y-126672447D01*
X114076037Y-126672447D02*
X113599847Y-126767685D01*
X114504609Y-126434352D02*
X114504609Y-127101019D01*
X114504609Y-126529590D02*
X114552228Y-126481971D01*
X114552228Y-126481971D02*
X114647466Y-126434352D01*
X114647466Y-126434352D02*
X114790323Y-126434352D01*
X114790323Y-126434352D02*
X114885561Y-126481971D01*
X114885561Y-126481971D02*
X114933180Y-126577209D01*
X114933180Y-126577209D02*
X114933180Y-127101019D01*
X115361752Y-127053400D02*
X115456990Y-127101019D01*
X115456990Y-127101019D02*
X115647466Y-127101019D01*
X115647466Y-127101019D02*
X115742704Y-127053400D01*
X115742704Y-127053400D02*
X115790323Y-126958161D01*
X115790323Y-126958161D02*
X115790323Y-126910542D01*
X115790323Y-126910542D02*
X115742704Y-126815304D01*
X115742704Y-126815304D02*
X115647466Y-126767685D01*
X115647466Y-126767685D02*
X115504609Y-126767685D01*
X115504609Y-126767685D02*
X115409371Y-126720066D01*
X115409371Y-126720066D02*
X115361752Y-126624828D01*
X115361752Y-126624828D02*
X115361752Y-126577209D01*
X115361752Y-126577209D02*
X115409371Y-126481971D01*
X115409371Y-126481971D02*
X115504609Y-126434352D01*
X115504609Y-126434352D02*
X115647466Y-126434352D01*
X115647466Y-126434352D02*
X115742704Y-126481971D01*
X116361752Y-127101019D02*
X116266514Y-127053400D01*
X116266514Y-127053400D02*
X116218895Y-127005780D01*
X116218895Y-127005780D02*
X116171276Y-126910542D01*
X116171276Y-126910542D02*
X116171276Y-126624828D01*
X116171276Y-126624828D02*
X116218895Y-126529590D01*
X116218895Y-126529590D02*
X116266514Y-126481971D01*
X116266514Y-126481971D02*
X116361752Y-126434352D01*
X116361752Y-126434352D02*
X116504609Y-126434352D01*
X116504609Y-126434352D02*
X116599847Y-126481971D01*
X116599847Y-126481971D02*
X116647466Y-126529590D01*
X116647466Y-126529590D02*
X116695085Y-126624828D01*
X116695085Y-126624828D02*
X116695085Y-126910542D01*
X116695085Y-126910542D02*
X116647466Y-127005780D01*
X116647466Y-127005780D02*
X116599847Y-127053400D01*
X116599847Y-127053400D02*
X116504609Y-127101019D01*
X116504609Y-127101019D02*
X116361752Y-127101019D01*
X117123657Y-127101019D02*
X117123657Y-126434352D01*
X117123657Y-126624828D02*
X117171276Y-126529590D01*
X117171276Y-126529590D02*
X117218895Y-126481971D01*
X117218895Y-126481971D02*
X117314133Y-126434352D01*
X117314133Y-126434352D02*
X117409371Y-126434352D01*
X74043265Y-98738857D02*
X74090884Y-98691238D01*
X74090884Y-98691238D02*
X74186122Y-98643619D01*
X74186122Y-98643619D02*
X74424217Y-98643619D01*
X74424217Y-98643619D02*
X74519455Y-98691238D01*
X74519455Y-98691238D02*
X74567074Y-98738857D01*
X74567074Y-98738857D02*
X74614693Y-98834095D01*
X74614693Y-98834095D02*
X74614693Y-98929333D01*
X74614693Y-98929333D02*
X74567074Y-99072190D01*
X74567074Y-99072190D02*
X73995646Y-99643619D01*
X73995646Y-99643619D02*
X74614693Y-99643619D01*
X74995646Y-98738857D02*
X75043265Y-98691238D01*
X75043265Y-98691238D02*
X75138503Y-98643619D01*
X75138503Y-98643619D02*
X75376598Y-98643619D01*
X75376598Y-98643619D02*
X75471836Y-98691238D01*
X75471836Y-98691238D02*
X75519455Y-98738857D01*
X75519455Y-98738857D02*
X75567074Y-98834095D01*
X75567074Y-98834095D02*
X75567074Y-98929333D01*
X75567074Y-98929333D02*
X75519455Y-99072190D01*
X75519455Y-99072190D02*
X74948027Y-99643619D01*
X74948027Y-99643619D02*
X75567074Y-99643619D01*
X76424217Y-98976952D02*
X76424217Y-99643619D01*
X75995646Y-98976952D02*
X75995646Y-99500761D01*
X75995646Y-99500761D02*
X76043265Y-99596000D01*
X76043265Y-99596000D02*
X76138503Y-99643619D01*
X76138503Y-99643619D02*
X76281360Y-99643619D01*
X76281360Y-99643619D02*
X76376598Y-99596000D01*
X76376598Y-99596000D02*
X76424217Y-99548380D01*
X77233741Y-99119809D02*
X76900408Y-99119809D01*
X76900408Y-99643619D02*
X76900408Y-98643619D01*
X76900408Y-98643619D02*
X77376598Y-98643619D01*
X111800819Y-76791525D02*
X111800819Y-77267715D01*
X111800819Y-77267715D02*
X112277009Y-77315334D01*
X112277009Y-77315334D02*
X112229390Y-77267715D01*
X112229390Y-77267715D02*
X112181771Y-77172477D01*
X112181771Y-77172477D02*
X112181771Y-76934382D01*
X112181771Y-76934382D02*
X112229390Y-76839144D01*
X112229390Y-76839144D02*
X112277009Y-76791525D01*
X112277009Y-76791525D02*
X112372247Y-76743906D01*
X112372247Y-76743906D02*
X112610342Y-76743906D01*
X112610342Y-76743906D02*
X112705580Y-76791525D01*
X112705580Y-76791525D02*
X112753200Y-76839144D01*
X112753200Y-76839144D02*
X112800819Y-76934382D01*
X112800819Y-76934382D02*
X112800819Y-77172477D01*
X112800819Y-77172477D02*
X112753200Y-77267715D01*
X112753200Y-77267715D02*
X112705580Y-77315334D01*
X99671865Y-127180400D02*
X99814722Y-127228019D01*
X99814722Y-127228019D02*
X100052817Y-127228019D01*
X100052817Y-127228019D02*
X100148055Y-127180400D01*
X100148055Y-127180400D02*
X100195674Y-127132780D01*
X100195674Y-127132780D02*
X100243293Y-127037542D01*
X100243293Y-127037542D02*
X100243293Y-126942304D01*
X100243293Y-126942304D02*
X100195674Y-126847066D01*
X100195674Y-126847066D02*
X100148055Y-126799447D01*
X100148055Y-126799447D02*
X100052817Y-126751828D01*
X100052817Y-126751828D02*
X99862341Y-126704209D01*
X99862341Y-126704209D02*
X99767103Y-126656590D01*
X99767103Y-126656590D02*
X99719484Y-126608971D01*
X99719484Y-126608971D02*
X99671865Y-126513733D01*
X99671865Y-126513733D02*
X99671865Y-126418495D01*
X99671865Y-126418495D02*
X99719484Y-126323257D01*
X99719484Y-126323257D02*
X99767103Y-126275638D01*
X99767103Y-126275638D02*
X99862341Y-126228019D01*
X99862341Y-126228019D02*
X100100436Y-126228019D01*
X100100436Y-126228019D02*
X100243293Y-126275638D01*
X101052817Y-127180400D02*
X100957579Y-127228019D01*
X100957579Y-127228019D02*
X100767103Y-127228019D01*
X100767103Y-127228019D02*
X100671865Y-127180400D01*
X100671865Y-127180400D02*
X100624246Y-127085161D01*
X100624246Y-127085161D02*
X100624246Y-126704209D01*
X100624246Y-126704209D02*
X100671865Y-126608971D01*
X100671865Y-126608971D02*
X100767103Y-126561352D01*
X100767103Y-126561352D02*
X100957579Y-126561352D01*
X100957579Y-126561352D02*
X101052817Y-126608971D01*
X101052817Y-126608971D02*
X101100436Y-126704209D01*
X101100436Y-126704209D02*
X101100436Y-126799447D01*
X101100436Y-126799447D02*
X100624246Y-126894685D01*
X101529008Y-127228019D02*
X101529008Y-126561352D01*
X101529008Y-126751828D02*
X101576627Y-126656590D01*
X101576627Y-126656590D02*
X101624246Y-126608971D01*
X101624246Y-126608971D02*
X101719484Y-126561352D01*
X101719484Y-126561352D02*
X101814722Y-126561352D01*
X102052818Y-126561352D02*
X102290913Y-127228019D01*
X102290913Y-127228019D02*
X102529008Y-126561352D01*
X103052818Y-127228019D02*
X102957580Y-127180400D01*
X102957580Y-127180400D02*
X102909961Y-127132780D01*
X102909961Y-127132780D02*
X102862342Y-127037542D01*
X102862342Y-127037542D02*
X102862342Y-126751828D01*
X102862342Y-126751828D02*
X102909961Y-126656590D01*
X102909961Y-126656590D02*
X102957580Y-126608971D01*
X102957580Y-126608971D02*
X103052818Y-126561352D01*
X103052818Y-126561352D02*
X103195675Y-126561352D01*
X103195675Y-126561352D02*
X103290913Y-126608971D01*
X103290913Y-126608971D02*
X103338532Y-126656590D01*
X103338532Y-126656590D02*
X103386151Y-126751828D01*
X103386151Y-126751828D02*
X103386151Y-127037542D01*
X103386151Y-127037542D02*
X103338532Y-127132780D01*
X103338532Y-127132780D02*
X103290913Y-127180400D01*
X103290913Y-127180400D02*
X103195675Y-127228019D01*
X103195675Y-127228019D02*
X103052818Y-127228019D01*
X94782293Y-74739038D02*
X94687055Y-74691419D01*
X94687055Y-74691419D02*
X94544198Y-74691419D01*
X94544198Y-74691419D02*
X94401341Y-74739038D01*
X94401341Y-74739038D02*
X94306103Y-74834276D01*
X94306103Y-74834276D02*
X94258484Y-74929514D01*
X94258484Y-74929514D02*
X94210865Y-75119990D01*
X94210865Y-75119990D02*
X94210865Y-75262847D01*
X94210865Y-75262847D02*
X94258484Y-75453323D01*
X94258484Y-75453323D02*
X94306103Y-75548561D01*
X94306103Y-75548561D02*
X94401341Y-75643800D01*
X94401341Y-75643800D02*
X94544198Y-75691419D01*
X94544198Y-75691419D02*
X94639436Y-75691419D01*
X94639436Y-75691419D02*
X94782293Y-75643800D01*
X94782293Y-75643800D02*
X94829912Y-75596180D01*
X94829912Y-75596180D02*
X94829912Y-75262847D01*
X94829912Y-75262847D02*
X94639436Y-75262847D01*
X95258484Y-75691419D02*
X95258484Y-74691419D01*
X95258484Y-74691419D02*
X95829912Y-75691419D01*
X95829912Y-75691419D02*
X95829912Y-74691419D01*
X96306103Y-75691419D02*
X96306103Y-74691419D01*
X96306103Y-74691419D02*
X96544198Y-74691419D01*
X96544198Y-74691419D02*
X96687055Y-74739038D01*
X96687055Y-74739038D02*
X96782293Y-74834276D01*
X96782293Y-74834276D02*
X96829912Y-74929514D01*
X96829912Y-74929514D02*
X96877531Y-75119990D01*
X96877531Y-75119990D02*
X96877531Y-75262847D01*
X96877531Y-75262847D02*
X96829912Y-75453323D01*
X96829912Y-75453323D02*
X96782293Y-75548561D01*
X96782293Y-75548561D02*
X96687055Y-75643800D01*
X96687055Y-75643800D02*
X96544198Y-75691419D01*
X96544198Y-75691419D02*
X96306103Y-75691419D01*
X70690465Y-94776457D02*
X70738084Y-94728838D01*
X70738084Y-94728838D02*
X70833322Y-94681219D01*
X70833322Y-94681219D02*
X71071417Y-94681219D01*
X71071417Y-94681219D02*
X71166655Y-94728838D01*
X71166655Y-94728838D02*
X71214274Y-94776457D01*
X71214274Y-94776457D02*
X71261893Y-94871695D01*
X71261893Y-94871695D02*
X71261893Y-94966933D01*
X71261893Y-94966933D02*
X71214274Y-95109790D01*
X71214274Y-95109790D02*
X70642846Y-95681219D01*
X70642846Y-95681219D02*
X71261893Y-95681219D01*
X71690465Y-95585980D02*
X71738084Y-95633600D01*
X71738084Y-95633600D02*
X71690465Y-95681219D01*
X71690465Y-95681219D02*
X71642846Y-95633600D01*
X71642846Y-95633600D02*
X71690465Y-95585980D01*
X71690465Y-95585980D02*
X71690465Y-95681219D01*
X72119036Y-94776457D02*
X72166655Y-94728838D01*
X72166655Y-94728838D02*
X72261893Y-94681219D01*
X72261893Y-94681219D02*
X72499988Y-94681219D01*
X72499988Y-94681219D02*
X72595226Y-94728838D01*
X72595226Y-94728838D02*
X72642845Y-94776457D01*
X72642845Y-94776457D02*
X72690464Y-94871695D01*
X72690464Y-94871695D02*
X72690464Y-94966933D01*
X72690464Y-94966933D02*
X72642845Y-95109790D01*
X72642845Y-95109790D02*
X72071417Y-95681219D01*
X72071417Y-95681219D02*
X72690464Y-95681219D01*
X73547607Y-95014552D02*
X73547607Y-95681219D01*
X73119036Y-95014552D02*
X73119036Y-95538361D01*
X73119036Y-95538361D02*
X73166655Y-95633600D01*
X73166655Y-95633600D02*
X73261893Y-95681219D01*
X73261893Y-95681219D02*
X73404750Y-95681219D01*
X73404750Y-95681219D02*
X73499988Y-95633600D01*
X73499988Y-95633600D02*
X73547607Y-95585980D01*
X74357131Y-95157409D02*
X74023798Y-95157409D01*
X74023798Y-95681219D02*
X74023798Y-94681219D01*
X74023798Y-94681219D02*
X74499988Y-94681219D01*
X74742219Y-125597553D02*
X74742219Y-124978506D01*
X74742219Y-124978506D02*
X75123171Y-125311839D01*
X75123171Y-125311839D02*
X75123171Y-125168982D01*
X75123171Y-125168982D02*
X75170790Y-125073744D01*
X75170790Y-125073744D02*
X75218409Y-125026125D01*
X75218409Y-125026125D02*
X75313647Y-124978506D01*
X75313647Y-124978506D02*
X75551742Y-124978506D01*
X75551742Y-124978506D02*
X75646980Y-125026125D01*
X75646980Y-125026125D02*
X75694600Y-125073744D01*
X75694600Y-125073744D02*
X75742219Y-125168982D01*
X75742219Y-125168982D02*
X75742219Y-125454696D01*
X75742219Y-125454696D02*
X75694600Y-125549934D01*
X75694600Y-125549934D02*
X75646980Y-125597553D01*
X74742219Y-124645172D02*
X74742219Y-124026125D01*
X74742219Y-124026125D02*
X75123171Y-124359458D01*
X75123171Y-124359458D02*
X75123171Y-124216601D01*
X75123171Y-124216601D02*
X75170790Y-124121363D01*
X75170790Y-124121363D02*
X75218409Y-124073744D01*
X75218409Y-124073744D02*
X75313647Y-124026125D01*
X75313647Y-124026125D02*
X75551742Y-124026125D01*
X75551742Y-124026125D02*
X75646980Y-124073744D01*
X75646980Y-124073744D02*
X75694600Y-124121363D01*
X75694600Y-124121363D02*
X75742219Y-124216601D01*
X75742219Y-124216601D02*
X75742219Y-124502315D01*
X75742219Y-124502315D02*
X75694600Y-124597553D01*
X75694600Y-124597553D02*
X75646980Y-124645172D01*
X75646980Y-123597553D02*
X75694600Y-123549934D01*
X75694600Y-123549934D02*
X75742219Y-123597553D01*
X75742219Y-123597553D02*
X75694600Y-123645172D01*
X75694600Y-123645172D02*
X75646980Y-123597553D01*
X75646980Y-123597553D02*
X75742219Y-123597553D01*
X74837457Y-123168982D02*
X74789838Y-123121363D01*
X74789838Y-123121363D02*
X74742219Y-123026125D01*
X74742219Y-123026125D02*
X74742219Y-122788030D01*
X74742219Y-122788030D02*
X74789838Y-122692792D01*
X74789838Y-122692792D02*
X74837457Y-122645173D01*
X74837457Y-122645173D02*
X74932695Y-122597554D01*
X74932695Y-122597554D02*
X75027933Y-122597554D01*
X75027933Y-122597554D02*
X75170790Y-122645173D01*
X75170790Y-122645173D02*
X75742219Y-123216601D01*
X75742219Y-123216601D02*
X75742219Y-122597554D01*
X75742219Y-122168982D02*
X74742219Y-122168982D01*
X75361266Y-122073744D02*
X75742219Y-121788030D01*
X75075552Y-121788030D02*
X75456504Y-122168982D01*
X104301457Y-77289934D02*
X104253838Y-77242315D01*
X104253838Y-77242315D02*
X104206219Y-77147077D01*
X104206219Y-77147077D02*
X104206219Y-76908982D01*
X104206219Y-76908982D02*
X104253838Y-76813744D01*
X104253838Y-76813744D02*
X104301457Y-76766125D01*
X104301457Y-76766125D02*
X104396695Y-76718506D01*
X104396695Y-76718506D02*
X104491933Y-76718506D01*
X104491933Y-76718506D02*
X104634790Y-76766125D01*
X104634790Y-76766125D02*
X105206219Y-77337553D01*
X105206219Y-77337553D02*
X105206219Y-76718506D01*
X78602493Y-103250419D02*
X78031065Y-103250419D01*
X78316779Y-103250419D02*
X78316779Y-102250419D01*
X78316779Y-102250419D02*
X78221541Y-102393276D01*
X78221541Y-102393276D02*
X78126303Y-102488514D01*
X78126303Y-102488514D02*
X78031065Y-102536133D01*
X79221541Y-102250419D02*
X79316779Y-102250419D01*
X79316779Y-102250419D02*
X79412017Y-102298038D01*
X79412017Y-102298038D02*
X79459636Y-102345657D01*
X79459636Y-102345657D02*
X79507255Y-102440895D01*
X79507255Y-102440895D02*
X79554874Y-102631371D01*
X79554874Y-102631371D02*
X79554874Y-102869466D01*
X79554874Y-102869466D02*
X79507255Y-103059942D01*
X79507255Y-103059942D02*
X79459636Y-103155180D01*
X79459636Y-103155180D02*
X79412017Y-103202800D01*
X79412017Y-103202800D02*
X79316779Y-103250419D01*
X79316779Y-103250419D02*
X79221541Y-103250419D01*
X79221541Y-103250419D02*
X79126303Y-103202800D01*
X79126303Y-103202800D02*
X79078684Y-103155180D01*
X79078684Y-103155180D02*
X79031065Y-103059942D01*
X79031065Y-103059942D02*
X78983446Y-102869466D01*
X78983446Y-102869466D02*
X78983446Y-102631371D01*
X78983446Y-102631371D02*
X79031065Y-102440895D01*
X79031065Y-102440895D02*
X79078684Y-102345657D01*
X79078684Y-102345657D02*
X79126303Y-102298038D01*
X79126303Y-102298038D02*
X79221541Y-102250419D01*
X80412017Y-102583752D02*
X80412017Y-103250419D01*
X79983446Y-102583752D02*
X79983446Y-103107561D01*
X79983446Y-103107561D02*
X80031065Y-103202800D01*
X80031065Y-103202800D02*
X80126303Y-103250419D01*
X80126303Y-103250419D02*
X80269160Y-103250419D01*
X80269160Y-103250419D02*
X80364398Y-103202800D01*
X80364398Y-103202800D02*
X80412017Y-103155180D01*
X81221541Y-102726609D02*
X80888208Y-102726609D01*
X80888208Y-103250419D02*
X80888208Y-102250419D01*
X80888208Y-102250419D02*
X81364398Y-102250419D01*
X109670352Y-76889944D02*
X110337019Y-76889944D01*
X109289400Y-77128039D02*
X110003685Y-77366134D01*
X110003685Y-77366134D02*
X110003685Y-76747087D01*
X78319960Y-105323819D02*
X78415198Y-105323819D01*
X78415198Y-105323819D02*
X78510436Y-105371438D01*
X78510436Y-105371438D02*
X78558055Y-105419057D01*
X78558055Y-105419057D02*
X78605674Y-105514295D01*
X78605674Y-105514295D02*
X78653293Y-105704771D01*
X78653293Y-105704771D02*
X78653293Y-105942866D01*
X78653293Y-105942866D02*
X78605674Y-106133342D01*
X78605674Y-106133342D02*
X78558055Y-106228580D01*
X78558055Y-106228580D02*
X78510436Y-106276200D01*
X78510436Y-106276200D02*
X78415198Y-106323819D01*
X78415198Y-106323819D02*
X78319960Y-106323819D01*
X78319960Y-106323819D02*
X78224722Y-106276200D01*
X78224722Y-106276200D02*
X78177103Y-106228580D01*
X78177103Y-106228580D02*
X78129484Y-106133342D01*
X78129484Y-106133342D02*
X78081865Y-105942866D01*
X78081865Y-105942866D02*
X78081865Y-105704771D01*
X78081865Y-105704771D02*
X78129484Y-105514295D01*
X78129484Y-105514295D02*
X78177103Y-105419057D01*
X78177103Y-105419057D02*
X78224722Y-105371438D01*
X78224722Y-105371438D02*
X78319960Y-105323819D01*
X79081865Y-106228580D02*
X79129484Y-106276200D01*
X79129484Y-106276200D02*
X79081865Y-106323819D01*
X79081865Y-106323819D02*
X79034246Y-106276200D01*
X79034246Y-106276200D02*
X79081865Y-106228580D01*
X79081865Y-106228580D02*
X79081865Y-106323819D01*
X80081864Y-106323819D02*
X79510436Y-106323819D01*
X79796150Y-106323819D02*
X79796150Y-105323819D01*
X79796150Y-105323819D02*
X79700912Y-105466676D01*
X79700912Y-105466676D02*
X79605674Y-105561914D01*
X79605674Y-105561914D02*
X79510436Y-105609533D01*
X80939007Y-105657152D02*
X80939007Y-106323819D01*
X80510436Y-105657152D02*
X80510436Y-106180961D01*
X80510436Y-106180961D02*
X80558055Y-106276200D01*
X80558055Y-106276200D02*
X80653293Y-106323819D01*
X80653293Y-106323819D02*
X80796150Y-106323819D01*
X80796150Y-106323819D02*
X80891388Y-106276200D01*
X80891388Y-106276200D02*
X80939007Y-106228580D01*
X81748531Y-105800009D02*
X81415198Y-105800009D01*
X81415198Y-106323819D02*
X81415198Y-105323819D01*
X81415198Y-105323819D02*
X81891388Y-105323819D01*
X80517419Y-120762106D02*
X80517419Y-121333534D01*
X80517419Y-121047820D02*
X79517419Y-121047820D01*
X79517419Y-121047820D02*
X79660276Y-121143058D01*
X79660276Y-121143058D02*
X79755514Y-121238296D01*
X79755514Y-121238296D02*
X79803133Y-121333534D01*
X79517419Y-120143058D02*
X79517419Y-120047820D01*
X79517419Y-120047820D02*
X79565038Y-119952582D01*
X79565038Y-119952582D02*
X79612657Y-119904963D01*
X79612657Y-119904963D02*
X79707895Y-119857344D01*
X79707895Y-119857344D02*
X79898371Y-119809725D01*
X79898371Y-119809725D02*
X80136466Y-119809725D01*
X80136466Y-119809725D02*
X80326942Y-119857344D01*
X80326942Y-119857344D02*
X80422180Y-119904963D01*
X80422180Y-119904963D02*
X80469800Y-119952582D01*
X80469800Y-119952582D02*
X80517419Y-120047820D01*
X80517419Y-120047820D02*
X80517419Y-120143058D01*
X80517419Y-120143058D02*
X80469800Y-120238296D01*
X80469800Y-120238296D02*
X80422180Y-120285915D01*
X80422180Y-120285915D02*
X80326942Y-120333534D01*
X80326942Y-120333534D02*
X80136466Y-120381153D01*
X80136466Y-120381153D02*
X79898371Y-120381153D01*
X79898371Y-120381153D02*
X79707895Y-120333534D01*
X79707895Y-120333534D02*
X79612657Y-120285915D01*
X79612657Y-120285915D02*
X79565038Y-120238296D01*
X79565038Y-120238296D02*
X79517419Y-120143058D01*
X80517419Y-119381153D02*
X79517419Y-119381153D01*
X80136466Y-119285915D02*
X80517419Y-119000201D01*
X79850752Y-119000201D02*
X80231704Y-119381153D01*
D11*
X139384819Y-88598333D02*
X140099104Y-88598333D01*
X140099104Y-88598333D02*
X140241961Y-88645952D01*
X140241961Y-88645952D02*
X140337200Y-88741190D01*
X140337200Y-88741190D02*
X140384819Y-88884047D01*
X140384819Y-88884047D02*
X140384819Y-88979285D01*
X140384819Y-87598333D02*
X140384819Y-88169761D01*
X140384819Y-87884047D02*
X139384819Y-87884047D01*
X139384819Y-87884047D02*
X139527676Y-87979285D01*
X139527676Y-87979285D02*
X139622914Y-88074523D01*
X139622914Y-88074523D02*
X139670533Y-88169761D01*
X95246866Y-85259619D02*
X95246866Y-85973904D01*
X95246866Y-85973904D02*
X95199247Y-86116761D01*
X95199247Y-86116761D02*
X95104009Y-86212000D01*
X95104009Y-86212000D02*
X94961152Y-86259619D01*
X94961152Y-86259619D02*
X94865914Y-86259619D01*
X96199247Y-85259619D02*
X95723057Y-85259619D01*
X95723057Y-85259619D02*
X95675438Y-85735809D01*
X95675438Y-85735809D02*
X95723057Y-85688190D01*
X95723057Y-85688190D02*
X95818295Y-85640571D01*
X95818295Y-85640571D02*
X96056390Y-85640571D01*
X96056390Y-85640571D02*
X96151628Y-85688190D01*
X96151628Y-85688190D02*
X96199247Y-85735809D01*
X96199247Y-85735809D02*
X96246866Y-85831047D01*
X96246866Y-85831047D02*
X96246866Y-86069142D01*
X96246866Y-86069142D02*
X96199247Y-86164380D01*
X96199247Y-86164380D02*
X96151628Y-86212000D01*
X96151628Y-86212000D02*
X96056390Y-86259619D01*
X96056390Y-86259619D02*
X95818295Y-86259619D01*
X95818295Y-86259619D02*
X95723057Y-86212000D01*
X95723057Y-86212000D02*
X95675438Y-86164380D01*
X77555333Y-119545819D02*
X77222000Y-119069628D01*
X76983905Y-119545819D02*
X76983905Y-118545819D01*
X76983905Y-118545819D02*
X77364857Y-118545819D01*
X77364857Y-118545819D02*
X77460095Y-118593438D01*
X77460095Y-118593438D02*
X77507714Y-118641057D01*
X77507714Y-118641057D02*
X77555333Y-118736295D01*
X77555333Y-118736295D02*
X77555333Y-118879152D01*
X77555333Y-118879152D02*
X77507714Y-118974390D01*
X77507714Y-118974390D02*
X77460095Y-119022009D01*
X77460095Y-119022009D02*
X77364857Y-119069628D01*
X77364857Y-119069628D02*
X76983905Y-119069628D01*
X77888667Y-118545819D02*
X78507714Y-118545819D01*
X78507714Y-118545819D02*
X78174381Y-118926771D01*
X78174381Y-118926771D02*
X78317238Y-118926771D01*
X78317238Y-118926771D02*
X78412476Y-118974390D01*
X78412476Y-118974390D02*
X78460095Y-119022009D01*
X78460095Y-119022009D02*
X78507714Y-119117247D01*
X78507714Y-119117247D02*
X78507714Y-119355342D01*
X78507714Y-119355342D02*
X78460095Y-119450580D01*
X78460095Y-119450580D02*
X78412476Y-119498200D01*
X78412476Y-119498200D02*
X78317238Y-119545819D01*
X78317238Y-119545819D02*
X78031524Y-119545819D01*
X78031524Y-119545819D02*
X77936286Y-119498200D01*
X77936286Y-119498200D02*
X77888667Y-119450580D01*
X79995733Y-95203180D02*
X79948114Y-95250800D01*
X79948114Y-95250800D02*
X79805257Y-95298419D01*
X79805257Y-95298419D02*
X79710019Y-95298419D01*
X79710019Y-95298419D02*
X79567162Y-95250800D01*
X79567162Y-95250800D02*
X79471924Y-95155561D01*
X79471924Y-95155561D02*
X79424305Y-95060323D01*
X79424305Y-95060323D02*
X79376686Y-94869847D01*
X79376686Y-94869847D02*
X79376686Y-94726990D01*
X79376686Y-94726990D02*
X79424305Y-94536514D01*
X79424305Y-94536514D02*
X79471924Y-94441276D01*
X79471924Y-94441276D02*
X79567162Y-94346038D01*
X79567162Y-94346038D02*
X79710019Y-94298419D01*
X79710019Y-94298419D02*
X79805257Y-94298419D01*
X79805257Y-94298419D02*
X79948114Y-94346038D01*
X79948114Y-94346038D02*
X79995733Y-94393657D01*
X80329067Y-94298419D02*
X80995733Y-94298419D01*
X80995733Y-94298419D02*
X80567162Y-95298419D01*
X122628819Y-122810494D02*
X121628819Y-122810494D01*
X121628819Y-122810494D02*
X121628819Y-122572399D01*
X121628819Y-122572399D02*
X121676438Y-122429542D01*
X121676438Y-122429542D02*
X121771676Y-122334304D01*
X121771676Y-122334304D02*
X121866914Y-122286685D01*
X121866914Y-122286685D02*
X122057390Y-122239066D01*
X122057390Y-122239066D02*
X122200247Y-122239066D01*
X122200247Y-122239066D02*
X122390723Y-122286685D01*
X122390723Y-122286685D02*
X122485961Y-122334304D01*
X122485961Y-122334304D02*
X122581200Y-122429542D01*
X122581200Y-122429542D02*
X122628819Y-122572399D01*
X122628819Y-122572399D02*
X122628819Y-122810494D01*
X122628819Y-121286685D02*
X122628819Y-121858113D01*
X122628819Y-121572399D02*
X121628819Y-121572399D01*
X121628819Y-121572399D02*
X121771676Y-121667637D01*
X121771676Y-121667637D02*
X121866914Y-121762875D01*
X121866914Y-121762875D02*
X121914533Y-121858113D01*
X91843266Y-117281819D02*
X91843266Y-117996104D01*
X91843266Y-117996104D02*
X91795647Y-118138961D01*
X91795647Y-118138961D02*
X91700409Y-118234200D01*
X91700409Y-118234200D02*
X91557552Y-118281819D01*
X91557552Y-118281819D02*
X91462314Y-118281819D01*
X92224219Y-117281819D02*
X92890885Y-117281819D01*
X92890885Y-117281819D02*
X92462314Y-118281819D01*
X72475333Y-86803819D02*
X71999143Y-86803819D01*
X71999143Y-86803819D02*
X71999143Y-85803819D01*
X73332476Y-86803819D02*
X72761048Y-86803819D01*
X73046762Y-86803819D02*
X73046762Y-85803819D01*
X73046762Y-85803819D02*
X72951524Y-85946676D01*
X72951524Y-85946676D02*
X72856286Y-86041914D01*
X72856286Y-86041914D02*
X72761048Y-86089533D01*
X77555333Y-125709819D02*
X77222000Y-125233628D01*
X76983905Y-125709819D02*
X76983905Y-124709819D01*
X76983905Y-124709819D02*
X77364857Y-124709819D01*
X77364857Y-124709819D02*
X77460095Y-124757438D01*
X77460095Y-124757438D02*
X77507714Y-124805057D01*
X77507714Y-124805057D02*
X77555333Y-124900295D01*
X77555333Y-124900295D02*
X77555333Y-125043152D01*
X77555333Y-125043152D02*
X77507714Y-125138390D01*
X77507714Y-125138390D02*
X77460095Y-125186009D01*
X77460095Y-125186009D02*
X77364857Y-125233628D01*
X77364857Y-125233628D02*
X76983905Y-125233628D01*
X77936286Y-124805057D02*
X77983905Y-124757438D01*
X77983905Y-124757438D02*
X78079143Y-124709819D01*
X78079143Y-124709819D02*
X78317238Y-124709819D01*
X78317238Y-124709819D02*
X78412476Y-124757438D01*
X78412476Y-124757438D02*
X78460095Y-124805057D01*
X78460095Y-124805057D02*
X78507714Y-124900295D01*
X78507714Y-124900295D02*
X78507714Y-124995533D01*
X78507714Y-124995533D02*
X78460095Y-125138390D01*
X78460095Y-125138390D02*
X77888667Y-125709819D01*
X77888667Y-125709819D02*
X78507714Y-125709819D01*
X83602533Y-98098780D02*
X83554914Y-98146400D01*
X83554914Y-98146400D02*
X83412057Y-98194019D01*
X83412057Y-98194019D02*
X83316819Y-98194019D01*
X83316819Y-98194019D02*
X83173962Y-98146400D01*
X83173962Y-98146400D02*
X83078724Y-98051161D01*
X83078724Y-98051161D02*
X83031105Y-97955923D01*
X83031105Y-97955923D02*
X82983486Y-97765447D01*
X82983486Y-97765447D02*
X82983486Y-97622590D01*
X82983486Y-97622590D02*
X83031105Y-97432114D01*
X83031105Y-97432114D02*
X83078724Y-97336876D01*
X83078724Y-97336876D02*
X83173962Y-97241638D01*
X83173962Y-97241638D02*
X83316819Y-97194019D01*
X83316819Y-97194019D02*
X83412057Y-97194019D01*
X83412057Y-97194019D02*
X83554914Y-97241638D01*
X83554914Y-97241638D02*
X83602533Y-97289257D01*
X84459676Y-97527352D02*
X84459676Y-98194019D01*
X84221581Y-97146400D02*
X83983486Y-97860685D01*
X83983486Y-97860685D02*
X84602533Y-97860685D01*
X76401933Y-105261580D02*
X76354314Y-105309200D01*
X76354314Y-105309200D02*
X76211457Y-105356819D01*
X76211457Y-105356819D02*
X76116219Y-105356819D01*
X76116219Y-105356819D02*
X75973362Y-105309200D01*
X75973362Y-105309200D02*
X75878124Y-105213961D01*
X75878124Y-105213961D02*
X75830505Y-105118723D01*
X75830505Y-105118723D02*
X75782886Y-104928247D01*
X75782886Y-104928247D02*
X75782886Y-104785390D01*
X75782886Y-104785390D02*
X75830505Y-104594914D01*
X75830505Y-104594914D02*
X75878124Y-104499676D01*
X75878124Y-104499676D02*
X75973362Y-104404438D01*
X75973362Y-104404438D02*
X76116219Y-104356819D01*
X76116219Y-104356819D02*
X76211457Y-104356819D01*
X76211457Y-104356819D02*
X76354314Y-104404438D01*
X76354314Y-104404438D02*
X76401933Y-104452057D01*
X77354314Y-105356819D02*
X76782886Y-105356819D01*
X77068600Y-105356819D02*
X77068600Y-104356819D01*
X77068600Y-104356819D02*
X76973362Y-104499676D01*
X76973362Y-104499676D02*
X76878124Y-104594914D01*
X76878124Y-104594914D02*
X76782886Y-104642533D01*
X75323380Y-114746066D02*
X75371000Y-114793685D01*
X75371000Y-114793685D02*
X75418619Y-114936542D01*
X75418619Y-114936542D02*
X75418619Y-115031780D01*
X75418619Y-115031780D02*
X75371000Y-115174637D01*
X75371000Y-115174637D02*
X75275761Y-115269875D01*
X75275761Y-115269875D02*
X75180523Y-115317494D01*
X75180523Y-115317494D02*
X74990047Y-115365113D01*
X74990047Y-115365113D02*
X74847190Y-115365113D01*
X74847190Y-115365113D02*
X74656714Y-115317494D01*
X74656714Y-115317494D02*
X74561476Y-115269875D01*
X74561476Y-115269875D02*
X74466238Y-115174637D01*
X74466238Y-115174637D02*
X74418619Y-115031780D01*
X74418619Y-115031780D02*
X74418619Y-114936542D01*
X74418619Y-114936542D02*
X74466238Y-114793685D01*
X74466238Y-114793685D02*
X74513857Y-114746066D01*
X74418619Y-113888923D02*
X74418619Y-114079399D01*
X74418619Y-114079399D02*
X74466238Y-114174637D01*
X74466238Y-114174637D02*
X74513857Y-114222256D01*
X74513857Y-114222256D02*
X74656714Y-114317494D01*
X74656714Y-114317494D02*
X74847190Y-114365113D01*
X74847190Y-114365113D02*
X75228142Y-114365113D01*
X75228142Y-114365113D02*
X75323380Y-114317494D01*
X75323380Y-114317494D02*
X75371000Y-114269875D01*
X75371000Y-114269875D02*
X75418619Y-114174637D01*
X75418619Y-114174637D02*
X75418619Y-113984161D01*
X75418619Y-113984161D02*
X75371000Y-113888923D01*
X75371000Y-113888923D02*
X75323380Y-113841304D01*
X75323380Y-113841304D02*
X75228142Y-113793685D01*
X75228142Y-113793685D02*
X74990047Y-113793685D01*
X74990047Y-113793685D02*
X74894809Y-113841304D01*
X74894809Y-113841304D02*
X74847190Y-113888923D01*
X74847190Y-113888923D02*
X74799571Y-113984161D01*
X74799571Y-113984161D02*
X74799571Y-114174637D01*
X74799571Y-114174637D02*
X74847190Y-114269875D01*
X74847190Y-114269875D02*
X74894809Y-114317494D01*
X74894809Y-114317494D02*
X74990047Y-114365113D01*
X139384819Y-111587333D02*
X140099104Y-111587333D01*
X140099104Y-111587333D02*
X140241961Y-111634952D01*
X140241961Y-111634952D02*
X140337200Y-111730190D01*
X140337200Y-111730190D02*
X140384819Y-111873047D01*
X140384819Y-111873047D02*
X140384819Y-111968285D01*
X139480057Y-111158761D02*
X139432438Y-111111142D01*
X139432438Y-111111142D02*
X139384819Y-111015904D01*
X139384819Y-111015904D02*
X139384819Y-110777809D01*
X139384819Y-110777809D02*
X139432438Y-110682571D01*
X139432438Y-110682571D02*
X139480057Y-110634952D01*
X139480057Y-110634952D02*
X139575295Y-110587333D01*
X139575295Y-110587333D02*
X139670533Y-110587333D01*
X139670533Y-110587333D02*
X139813390Y-110634952D01*
X139813390Y-110634952D02*
X140384819Y-111206380D01*
X140384819Y-111206380D02*
X140384819Y-110587333D01*
X100926666Y-117234819D02*
X100926666Y-117949104D01*
X100926666Y-117949104D02*
X100879047Y-118091961D01*
X100879047Y-118091961D02*
X100783809Y-118187200D01*
X100783809Y-118187200D02*
X100640952Y-118234819D01*
X100640952Y-118234819D02*
X100545714Y-118234819D01*
X101831428Y-117568152D02*
X101831428Y-118234819D01*
X101593333Y-117187200D02*
X101355238Y-117901485D01*
X101355238Y-117901485D02*
X101974285Y-117901485D01*
X112256666Y-117034819D02*
X112256666Y-117749104D01*
X112256666Y-117749104D02*
X112209047Y-117891961D01*
X112209047Y-117891961D02*
X112113809Y-117987200D01*
X112113809Y-117987200D02*
X111970952Y-118034819D01*
X111970952Y-118034819D02*
X111875714Y-118034819D01*
X112637619Y-117034819D02*
X113256666Y-117034819D01*
X113256666Y-117034819D02*
X112923333Y-117415771D01*
X112923333Y-117415771D02*
X113066190Y-117415771D01*
X113066190Y-117415771D02*
X113161428Y-117463390D01*
X113161428Y-117463390D02*
X113209047Y-117511009D01*
X113209047Y-117511009D02*
X113256666Y-117606247D01*
X113256666Y-117606247D02*
X113256666Y-117844342D01*
X113256666Y-117844342D02*
X113209047Y-117939580D01*
X113209047Y-117939580D02*
X113161428Y-117987200D01*
X113161428Y-117987200D02*
X113066190Y-118034819D01*
X113066190Y-118034819D02*
X112780476Y-118034819D01*
X112780476Y-118034819D02*
X112685238Y-117987200D01*
X112685238Y-117987200D02*
X112637619Y-117939580D01*
X76287333Y-98174980D02*
X76239714Y-98222600D01*
X76239714Y-98222600D02*
X76096857Y-98270219D01*
X76096857Y-98270219D02*
X76001619Y-98270219D01*
X76001619Y-98270219D02*
X75858762Y-98222600D01*
X75858762Y-98222600D02*
X75763524Y-98127361D01*
X75763524Y-98127361D02*
X75715905Y-98032123D01*
X75715905Y-98032123D02*
X75668286Y-97841647D01*
X75668286Y-97841647D02*
X75668286Y-97698790D01*
X75668286Y-97698790D02*
X75715905Y-97508314D01*
X75715905Y-97508314D02*
X75763524Y-97413076D01*
X75763524Y-97413076D02*
X75858762Y-97317838D01*
X75858762Y-97317838D02*
X76001619Y-97270219D01*
X76001619Y-97270219D02*
X76096857Y-97270219D01*
X76096857Y-97270219D02*
X76239714Y-97317838D01*
X76239714Y-97317838D02*
X76287333Y-97365457D01*
X76620667Y-97270219D02*
X77239714Y-97270219D01*
X77239714Y-97270219D02*
X76906381Y-97651171D01*
X76906381Y-97651171D02*
X77049238Y-97651171D01*
X77049238Y-97651171D02*
X77144476Y-97698790D01*
X77144476Y-97698790D02*
X77192095Y-97746409D01*
X77192095Y-97746409D02*
X77239714Y-97841647D01*
X77239714Y-97841647D02*
X77239714Y-98079742D01*
X77239714Y-98079742D02*
X77192095Y-98174980D01*
X77192095Y-98174980D02*
X77144476Y-98222600D01*
X77144476Y-98222600D02*
X77049238Y-98270219D01*
X77049238Y-98270219D02*
X76763524Y-98270219D01*
X76763524Y-98270219D02*
X76668286Y-98222600D01*
X76668286Y-98222600D02*
X76620667Y-98174980D01*
X75705819Y-114165404D02*
X76515342Y-114165404D01*
X76515342Y-114165404D02*
X76610580Y-114117785D01*
X76610580Y-114117785D02*
X76658200Y-114070166D01*
X76658200Y-114070166D02*
X76705819Y-113974928D01*
X76705819Y-113974928D02*
X76705819Y-113784452D01*
X76705819Y-113784452D02*
X76658200Y-113689214D01*
X76658200Y-113689214D02*
X76610580Y-113641595D01*
X76610580Y-113641595D02*
X76515342Y-113593976D01*
X76515342Y-113593976D02*
X75705819Y-113593976D01*
X75801057Y-113165404D02*
X75753438Y-113117785D01*
X75753438Y-113117785D02*
X75705819Y-113022547D01*
X75705819Y-113022547D02*
X75705819Y-112784452D01*
X75705819Y-112784452D02*
X75753438Y-112689214D01*
X75753438Y-112689214D02*
X75801057Y-112641595D01*
X75801057Y-112641595D02*
X75896295Y-112593976D01*
X75896295Y-112593976D02*
X75991533Y-112593976D01*
X75991533Y-112593976D02*
X76134390Y-112641595D01*
X76134390Y-112641595D02*
X76705819Y-113213023D01*
X76705819Y-113213023D02*
X76705819Y-112593976D01*
X125219619Y-119089466D02*
X124743428Y-119422799D01*
X125219619Y-119660894D02*
X124219619Y-119660894D01*
X124219619Y-119660894D02*
X124219619Y-119279942D01*
X124219619Y-119279942D02*
X124267238Y-119184704D01*
X124267238Y-119184704D02*
X124314857Y-119137085D01*
X124314857Y-119137085D02*
X124410095Y-119089466D01*
X124410095Y-119089466D02*
X124552952Y-119089466D01*
X124552952Y-119089466D02*
X124648190Y-119137085D01*
X124648190Y-119137085D02*
X124695809Y-119184704D01*
X124695809Y-119184704D02*
X124743428Y-119279942D01*
X124743428Y-119279942D02*
X124743428Y-119660894D01*
X125219619Y-118137085D02*
X125219619Y-118708513D01*
X125219619Y-118422799D02*
X124219619Y-118422799D01*
X124219619Y-118422799D02*
X124362476Y-118518037D01*
X124362476Y-118518037D02*
X124457714Y-118613275D01*
X124457714Y-118613275D02*
X124505333Y-118708513D01*
X76462533Y-107623780D02*
X76414914Y-107671400D01*
X76414914Y-107671400D02*
X76272057Y-107719019D01*
X76272057Y-107719019D02*
X76176819Y-107719019D01*
X76176819Y-107719019D02*
X76033962Y-107671400D01*
X76033962Y-107671400D02*
X75938724Y-107576161D01*
X75938724Y-107576161D02*
X75891105Y-107480923D01*
X75891105Y-107480923D02*
X75843486Y-107290447D01*
X75843486Y-107290447D02*
X75843486Y-107147590D01*
X75843486Y-107147590D02*
X75891105Y-106957114D01*
X75891105Y-106957114D02*
X75938724Y-106861876D01*
X75938724Y-106861876D02*
X76033962Y-106766638D01*
X76033962Y-106766638D02*
X76176819Y-106719019D01*
X76176819Y-106719019D02*
X76272057Y-106719019D01*
X76272057Y-106719019D02*
X76414914Y-106766638D01*
X76414914Y-106766638D02*
X76462533Y-106814257D01*
X77367295Y-106719019D02*
X76891105Y-106719019D01*
X76891105Y-106719019D02*
X76843486Y-107195209D01*
X76843486Y-107195209D02*
X76891105Y-107147590D01*
X76891105Y-107147590D02*
X76986343Y-107099971D01*
X76986343Y-107099971D02*
X77224438Y-107099971D01*
X77224438Y-107099971D02*
X77319676Y-107147590D01*
X77319676Y-107147590D02*
X77367295Y-107195209D01*
X77367295Y-107195209D02*
X77414914Y-107290447D01*
X77414914Y-107290447D02*
X77414914Y-107528542D01*
X77414914Y-107528542D02*
X77367295Y-107623780D01*
X77367295Y-107623780D02*
X77319676Y-107671400D01*
X77319676Y-107671400D02*
X77224438Y-107719019D01*
X77224438Y-107719019D02*
X76986343Y-107719019D01*
X76986343Y-107719019D02*
X76891105Y-107671400D01*
X76891105Y-107671400D02*
X76843486Y-107623780D01*
X68110819Y-113448666D02*
X67634628Y-113781999D01*
X68110819Y-114020094D02*
X67110819Y-114020094D01*
X67110819Y-114020094D02*
X67110819Y-113639142D01*
X67110819Y-113639142D02*
X67158438Y-113543904D01*
X67158438Y-113543904D02*
X67206057Y-113496285D01*
X67206057Y-113496285D02*
X67301295Y-113448666D01*
X67301295Y-113448666D02*
X67444152Y-113448666D01*
X67444152Y-113448666D02*
X67539390Y-113496285D01*
X67539390Y-113496285D02*
X67587009Y-113543904D01*
X67587009Y-113543904D02*
X67634628Y-113639142D01*
X67634628Y-113639142D02*
X67634628Y-114020094D01*
X67444152Y-112591523D02*
X68110819Y-112591523D01*
X67063200Y-112829618D02*
X67777485Y-113067713D01*
X67777485Y-113067713D02*
X67777485Y-112448666D01*
X76428733Y-106355780D02*
X76381114Y-106403400D01*
X76381114Y-106403400D02*
X76238257Y-106451019D01*
X76238257Y-106451019D02*
X76143019Y-106451019D01*
X76143019Y-106451019D02*
X76000162Y-106403400D01*
X76000162Y-106403400D02*
X75904924Y-106308161D01*
X75904924Y-106308161D02*
X75857305Y-106212923D01*
X75857305Y-106212923D02*
X75809686Y-106022447D01*
X75809686Y-106022447D02*
X75809686Y-105879590D01*
X75809686Y-105879590D02*
X75857305Y-105689114D01*
X75857305Y-105689114D02*
X75904924Y-105593876D01*
X75904924Y-105593876D02*
X76000162Y-105498638D01*
X76000162Y-105498638D02*
X76143019Y-105451019D01*
X76143019Y-105451019D02*
X76238257Y-105451019D01*
X76238257Y-105451019D02*
X76381114Y-105498638D01*
X76381114Y-105498638D02*
X76428733Y-105546257D01*
X76809686Y-105546257D02*
X76857305Y-105498638D01*
X76857305Y-105498638D02*
X76952543Y-105451019D01*
X76952543Y-105451019D02*
X77190638Y-105451019D01*
X77190638Y-105451019D02*
X77285876Y-105498638D01*
X77285876Y-105498638D02*
X77333495Y-105546257D01*
X77333495Y-105546257D02*
X77381114Y-105641495D01*
X77381114Y-105641495D02*
X77381114Y-105736733D01*
X77381114Y-105736733D02*
X77333495Y-105879590D01*
X77333495Y-105879590D02*
X76762067Y-106451019D01*
X76762067Y-106451019D02*
X77381114Y-106451019D01*
D12*
%TO.C,J1*%
X138490000Y-89595000D02*
X137160000Y-89595000D01*
X138490000Y-88265000D02*
X138490000Y-89595000D01*
X135890000Y-89595000D02*
X92650000Y-89595000D01*
X135890000Y-86935000D02*
X135890000Y-89595000D01*
X135890000Y-86935000D02*
X92650000Y-86935000D01*
X92650000Y-86935000D02*
X92650000Y-89595000D01*
%TO.C,J5*%
X98120200Y-78064800D02*
X97680200Y-77454800D01*
X98560200Y-77454800D01*
X98120200Y-78064800D01*
G36*
X98120200Y-78064800D02*
G01*
X97680200Y-77454800D01*
X98560200Y-77454800D01*
X98120200Y-78064800D01*
G37*
X99760200Y-84804800D02*
X99760200Y-78064800D01*
X99760200Y-84804800D02*
X91400200Y-84804800D01*
X99760200Y-83084800D02*
X91400200Y-83084800D01*
X99760200Y-79984800D02*
X91400200Y-79984800D01*
X99760200Y-78984800D02*
X91400200Y-78984800D01*
X99760200Y-78064800D02*
X98420200Y-78064800D01*
X97820200Y-78064800D02*
X91400200Y-78064800D01*
X91400200Y-84804800D02*
X91400200Y-78064800D01*
%TO.C,R3*%
X77484742Y-119998500D02*
X77959258Y-119998500D01*
X77484742Y-121043500D02*
X77959258Y-121043500D01*
%TO.C,C7*%
X79627000Y-98296820D02*
X79627000Y-98577980D01*
X80647000Y-98296820D02*
X80647000Y-98577980D01*
%TO.C,J6*%
X101057400Y-82134400D02*
X101057400Y-84794400D01*
X116357400Y-82134400D02*
X101057400Y-82134400D01*
X116357400Y-82134400D02*
X116357400Y-84794400D01*
X116357400Y-84794400D02*
X101057400Y-84794400D01*
X118957400Y-83464400D02*
X118957400Y-84794400D01*
X118957400Y-84794400D02*
X117627400Y-84794400D01*
%TO.C,D1*%
X122515000Y-118662500D02*
X122515000Y-120947500D01*
X122515000Y-120947500D02*
X123985000Y-120947500D01*
X123985000Y-120947500D02*
X123985000Y-118662500D01*
%TO.C,J7*%
X89266600Y-118827000D02*
X89266600Y-125567000D01*
X89266600Y-118827000D02*
X95086600Y-118827000D01*
X89266600Y-120547000D02*
X95086600Y-120547000D01*
X89266600Y-123647000D02*
X95086600Y-123647000D01*
X89266600Y-124647000D02*
X95086600Y-124647000D01*
X89266600Y-125567000D02*
X90606600Y-125567000D01*
X91206600Y-125567000D02*
X95086600Y-125567000D01*
X95086600Y-118827000D02*
X95086600Y-125567000D01*
X91346600Y-126177000D02*
X90466600Y-126177000D01*
X90906600Y-125567000D01*
X91346600Y-126177000D01*
G36*
X91346600Y-126177000D02*
G01*
X90466600Y-126177000D01*
X90906600Y-125567000D01*
X91346600Y-126177000D01*
G37*
%TO.C,L1*%
X69182000Y-88599000D02*
X69182000Y-87749000D01*
X69182000Y-93299000D02*
X69182000Y-92499000D01*
X69792000Y-87139000D02*
X75492000Y-87139000D01*
X75492000Y-93959000D02*
X69842000Y-93959000D01*
X76102000Y-87749000D02*
X76102000Y-88599000D01*
X76102000Y-92499000D02*
X76102000Y-93349000D01*
X69182000Y-87749000D02*
G75*
G02*
X69792000Y-87139000I610000J0D01*
G01*
X69842000Y-93959000D02*
G75*
G02*
X69182000Y-93299000I2J660002D01*
G01*
X75492000Y-87139000D02*
G75*
G02*
X76102000Y-87749000I0J-610000D01*
G01*
X76102000Y-93349000D02*
G75*
G02*
X75492000Y-93959000I-610000J0D01*
G01*
%TO.C,R2*%
X77959258Y-123302500D02*
X77484742Y-123302500D01*
X77959258Y-124347500D02*
X77484742Y-124347500D01*
%TO.C,C4*%
X81455800Y-98322220D02*
X81455800Y-98603380D01*
X82475800Y-98322220D02*
X82475800Y-98603380D01*
%TO.C,C1*%
X73671820Y-103884000D02*
X73952980Y-103884000D01*
X73671820Y-104904000D02*
X73952980Y-104904000D01*
%TO.C,C6*%
X75763800Y-114687236D02*
X75763800Y-114471564D01*
X76483800Y-114687236D02*
X76483800Y-114471564D01*
%TO.C,J2*%
X92650000Y-109924000D02*
X92650000Y-112584000D01*
X135890000Y-109924000D02*
X92650000Y-109924000D01*
X135890000Y-109924000D02*
X135890000Y-112584000D01*
X135890000Y-112584000D02*
X92650000Y-112584000D01*
X138490000Y-111254000D02*
X138490000Y-112584000D01*
X138490000Y-112584000D02*
X137160000Y-112584000D01*
%TO.C,J4*%
X97080000Y-118780000D02*
X97080000Y-125520000D01*
X97080000Y-118780000D02*
X105440000Y-118780000D01*
X97080000Y-120500000D02*
X105440000Y-120500000D01*
X97080000Y-123600000D02*
X105440000Y-123600000D01*
X97080000Y-124600000D02*
X105440000Y-124600000D01*
X97080000Y-125520000D02*
X98420000Y-125520000D01*
X99020000Y-125520000D02*
X105440000Y-125520000D01*
X105440000Y-118780000D02*
X105440000Y-125520000D01*
X99160000Y-126130000D02*
X98280000Y-126130000D01*
X98720000Y-125520000D01*
X99160000Y-126130000D01*
G36*
X99160000Y-126130000D02*
G01*
X98280000Y-126130000D01*
X98720000Y-125520000D01*
X99160000Y-126130000D01*
G37*
%TO.C,J3*%
X107140000Y-118580000D02*
X107140000Y-125320000D01*
X107140000Y-118580000D02*
X118040000Y-118580000D01*
X107140000Y-120300000D02*
X118040000Y-120300000D01*
X107140000Y-123400000D02*
X118040000Y-123400000D01*
X107140000Y-124400000D02*
X118040000Y-124400000D01*
X107140000Y-125320000D02*
X108480000Y-125320000D01*
X109080000Y-125320000D02*
X118040000Y-125320000D01*
X118040000Y-118580000D02*
X118040000Y-125320000D01*
X109220000Y-125930000D02*
X108340000Y-125930000D01*
X108780000Y-125320000D01*
X109220000Y-125930000D01*
G36*
X109220000Y-125930000D02*
G01*
X108340000Y-125930000D01*
X108780000Y-125320000D01*
X109220000Y-125930000D01*
G37*
%TO.C,C3*%
X77722000Y-98284420D02*
X77722000Y-98565580D01*
X78742000Y-98284420D02*
X78742000Y-98565580D01*
%TO.C,U2*%
X72291000Y-113403500D02*
X72291000Y-112603500D01*
X72291000Y-113403500D02*
X72291000Y-114203500D01*
X75411000Y-113403500D02*
X75411000Y-112603500D01*
X75411000Y-113403500D02*
X75411000Y-114203500D01*
X75691000Y-112343500D02*
X75361000Y-112103500D01*
X75691000Y-111863500D01*
X75691000Y-112343500D01*
G36*
X75691000Y-112343500D02*
G01*
X75361000Y-112103500D01*
X75691000Y-111863500D01*
X75691000Y-112343500D01*
G37*
%TO.C,R1*%
X120227500Y-120937742D02*
X120227500Y-121412258D01*
X121272500Y-120937742D02*
X121272500Y-121412258D01*
%TO.C,C5*%
X73755364Y-106853400D02*
X73971036Y-106853400D01*
X73755364Y-107573400D02*
X73971036Y-107573400D01*
%TO.C,R4*%
X68563500Y-113519258D02*
X68563500Y-113044742D01*
X69608500Y-113519258D02*
X69608500Y-113044742D01*
%TO.C,C2*%
X73697220Y-105408000D02*
X73978380Y-105408000D01*
X73697220Y-106428000D02*
X73978380Y-106428000D01*
%TD*%
%LPC*%
D13*
%TO.C,J1*%
X93980000Y-88265000D03*
X96520000Y-88265000D03*
X99060000Y-88265000D03*
X101600000Y-88265000D03*
X104140000Y-88265000D03*
X106680000Y-88265000D03*
X109220000Y-88265000D03*
X111760000Y-88265000D03*
X114300000Y-88265000D03*
X116840000Y-88265000D03*
X119380000Y-88265000D03*
X121920000Y-88265000D03*
X124460000Y-88265000D03*
X127000000Y-88265000D03*
X129540000Y-88265000D03*
X132080000Y-88265000D03*
X134620000Y-88265000D03*
D14*
X137160000Y-88265000D03*
%TD*%
D15*
%TO.C,J5*%
X93040200Y-81584800D03*
X95580200Y-81584800D03*
D16*
X98120200Y-81584800D03*
%TD*%
D17*
%TO.C,R3*%
X76897000Y-120521000D03*
X78547000Y-120521000D03*
%TD*%
D18*
%TO.C,C7*%
X80137000Y-97662400D03*
X80137000Y-99212400D03*
%TD*%
D14*
%TO.C,J6*%
X117627400Y-83464400D03*
D13*
X115087400Y-83464400D03*
X112547400Y-83464400D03*
X110007400Y-83464400D03*
X107467400Y-83464400D03*
X104927400Y-83464400D03*
X102387400Y-83464400D03*
%TD*%
D19*
%TO.C,D1*%
X123250000Y-120250000D03*
X123250000Y-118675000D03*
%TD*%
D20*
%TO.C,J7*%
X90906600Y-122047000D03*
D15*
X93446600Y-122047000D03*
%TD*%
D21*
%TO.C,L1*%
X69917000Y-90549000D03*
X75367000Y-90549000D03*
%TD*%
D22*
%TO.C,R2*%
X78547000Y-123825000D03*
X76897000Y-123825000D03*
%TD*%
D18*
%TO.C,C4*%
X81965800Y-97687800D03*
X81965800Y-99237800D03*
%TD*%
D23*
%TO.C,C1*%
X73037400Y-104394000D03*
X74587400Y-104394000D03*
%TD*%
D24*
%TO.C,C6*%
X76123800Y-115059400D03*
X76123800Y-114099400D03*
%TD*%
D14*
%TO.C,J2*%
X137160000Y-111254000D03*
D13*
X134620000Y-111254000D03*
X132080000Y-111254000D03*
X129540000Y-111254000D03*
X127000000Y-111254000D03*
X124460000Y-111254000D03*
X121920000Y-111254000D03*
X119380000Y-111254000D03*
X116840000Y-111254000D03*
X114300000Y-111254000D03*
X111760000Y-111254000D03*
X109220000Y-111254000D03*
X106680000Y-111254000D03*
X104140000Y-111254000D03*
X101600000Y-111254000D03*
X99060000Y-111254000D03*
X96520000Y-111254000D03*
X93980000Y-111254000D03*
%TD*%
D20*
%TO.C,J4*%
X98720000Y-122000000D03*
D15*
X101260000Y-122000000D03*
X103800000Y-122000000D03*
%TD*%
D20*
%TO.C,J3*%
X108780000Y-121800000D03*
D15*
X111320000Y-121800000D03*
X113860000Y-121800000D03*
X116400000Y-121800000D03*
%TD*%
D18*
%TO.C,C3*%
X78232000Y-97650000D03*
X78232000Y-99200000D03*
%TD*%
D25*
%TO.C,U2*%
X74801000Y-112266000D03*
X73851000Y-112266000D03*
X72901000Y-112266000D03*
X72901000Y-114541000D03*
X73851000Y-114541000D03*
X74801000Y-114541000D03*
%TD*%
D26*
%TO.C,R1*%
X120750000Y-120350000D03*
X120750000Y-122000000D03*
%TD*%
D27*
%TO.C,C5*%
X73383200Y-107213400D03*
X74343200Y-107213400D03*
%TD*%
D28*
%TO.C,R4*%
X69086000Y-114107000D03*
X69086000Y-112457000D03*
%TD*%
D23*
%TO.C,C2*%
X73062800Y-105918000D03*
X74612800Y-105918000D03*
%TD*%
%LPD*%
M02*
