%TF.GenerationSoftware,KiCad,Pcbnew,9.0.1*%
%TF.CreationDate,2026-01-11T16:36:20-05:00*%
%TF.ProjectId,float_carrier_2025-2026,666c6f61-745f-4636-9172-726965725f32,v01*%
%TF.SameCoordinates,Original*%
%TF.FileFunction,Copper,L1,Top*%
%TF.FilePolarity,Positive*%
%FSLAX46Y46*%
G04 Gerber Fmt 4.6, Leading zero omitted, Abs format (unit mm)*
G04 Created by KiCad (PCBNEW 9.0.1) date 2026-01-11 16:36:20*
%MOMM*%
%LPD*%
G01*
G04 APERTURE LIST*
G04 Aperture macros list*
%AMRoundRect*
0 Rectangle with rounded corners*
0 $1 Rounding radius*
0 $2 $3 $4 $5 $6 $7 $8 $9 X,Y pos of 4 corners*
0 Add a 4 corners polygon primitive as box body*
4,1,4,$2,$3,$4,$5,$6,$7,$8,$9,$2,$3,0*
0 Add four circle primitives for the rounded corners*
1,1,$1+$1,$2,$3*
1,1,$1+$1,$4,$5*
1,1,$1+$1,$6,$7*
1,1,$1+$1,$8,$9*
0 Add four rect primitives between the rounded corners*
20,1,$1+$1,$2,$3,$4,$5,0*
20,1,$1+$1,$4,$5,$6,$7,0*
20,1,$1+$1,$6,$7,$8,$9,0*
20,1,$1+$1,$8,$9,$2,$3,0*%
G04 Aperture macros list end*
%TA.AperFunction,ComponentPad*%
%ADD10C,1.700000*%
%TD*%
%TA.AperFunction,ComponentPad*%
%ADD11R,1.700000X1.700000*%
%TD*%
%TA.AperFunction,ComponentPad*%
%ADD12C,2.000000*%
%TD*%
%TA.AperFunction,ComponentPad*%
%ADD13RoundRect,0.250000X0.750000X0.750000X-0.750000X0.750000X-0.750000X-0.750000X0.750000X-0.750000X0*%
%TD*%
%TA.AperFunction,SMDPad,CuDef*%
%ADD14RoundRect,0.200000X-0.200000X-0.275000X0.200000X-0.275000X0.200000X0.275000X-0.200000X0.275000X0*%
%TD*%
%TA.AperFunction,SMDPad,CuDef*%
%ADD15RoundRect,0.225000X-0.250000X0.225000X-0.250000X-0.225000X0.250000X-0.225000X0.250000X0.225000X0*%
%TD*%
%TA.AperFunction,SMDPad,CuDef*%
%ADD16RoundRect,0.218750X0.256250X-0.218750X0.256250X0.218750X-0.256250X0.218750X-0.256250X-0.218750X0*%
%TD*%
%TA.AperFunction,ComponentPad*%
%ADD17RoundRect,0.250000X-0.750000X-0.750000X0.750000X-0.750000X0.750000X0.750000X-0.750000X0.750000X0*%
%TD*%
%TA.AperFunction,SMDPad,CuDef*%
%ADD18R,2.950000X3.500000*%
%TD*%
%TA.AperFunction,SMDPad,CuDef*%
%ADD19RoundRect,0.200000X0.200000X0.275000X-0.200000X0.275000X-0.200000X-0.275000X0.200000X-0.275000X0*%
%TD*%
%TA.AperFunction,SMDPad,CuDef*%
%ADD20RoundRect,0.225000X-0.225000X-0.250000X0.225000X-0.250000X0.225000X0.250000X-0.225000X0.250000X0*%
%TD*%
%TA.AperFunction,SMDPad,CuDef*%
%ADD21RoundRect,0.140000X0.170000X-0.140000X0.170000X0.140000X-0.170000X0.140000X-0.170000X-0.140000X0*%
%TD*%
%TA.AperFunction,SMDPad,CuDef*%
%ADD22RoundRect,0.150000X-0.150000X0.512500X-0.150000X-0.512500X0.150000X-0.512500X0.150000X0.512500X0*%
%TD*%
%TA.AperFunction,SMDPad,CuDef*%
%ADD23RoundRect,0.200000X-0.275000X0.200000X-0.275000X-0.200000X0.275000X-0.200000X0.275000X0.200000X0*%
%TD*%
%TA.AperFunction,SMDPad,CuDef*%
%ADD24RoundRect,0.140000X-0.140000X-0.170000X0.140000X-0.170000X0.140000X0.170000X-0.140000X0.170000X0*%
%TD*%
%TA.AperFunction,SMDPad,CuDef*%
%ADD25RoundRect,0.200000X0.275000X-0.200000X0.275000X0.200000X-0.275000X0.200000X-0.275000X-0.200000X0*%
%TD*%
%TA.AperFunction,ViaPad*%
%ADD26C,0.600000*%
%TD*%
%TA.AperFunction,Conductor*%
%ADD27C,0.200000*%
%TD*%
%TA.AperFunction,Conductor*%
%ADD28C,0.500000*%
%TD*%
G04 APERTURE END LIST*
D10*
%TO.P,J1,18,Pin_18*%
%TO.N,GND*%
X93980000Y-88265000D03*
%TO.P,J1,17,Pin_17*%
%TO.N,/3.3V*%
X96520000Y-88265000D03*
%TO.P,J1,16,Pin_16*%
X99060000Y-88265000D03*
%TO.P,J1,15,Pin_15*%
%TO.N,/GPIO37*%
X101600000Y-88265000D03*
%TO.P,J1,14,Pin_14*%
%TO.N,/GPIO46*%
X104140000Y-88265000D03*
%TO.P,J1,13,Pin_13*%
%TO.N,/GPIO45*%
X106680000Y-88265000D03*
%TO.P,J1,12,Pin_12*%
%TO.N,/GPIO42*%
X109220000Y-88265000D03*
%TO.P,J1,11,Pin_11*%
%TO.N,/GPIO41*%
X111760000Y-88265000D03*
%TO.P,J1,10,Pin_10*%
%TO.N,/GPIO40*%
X114300000Y-88265000D03*
%TO.P,J1,9,Pin_9*%
%TO.N,/GPIO39*%
X116840000Y-88265000D03*
%TO.P,J1,8,Pin_8*%
%TO.N,/GPIO38*%
X119380000Y-88265000D03*
%TO.P,J1,7,Pin_7*%
%TO.N,/GPIO1*%
X121920000Y-88265000D03*
%TO.P,J1,6,Pin_6*%
%TO.N,/GPIO2*%
X124460000Y-88265000D03*
%TO.P,J1,5,Pin_5*%
%TO.N,/GPIO3*%
X127000000Y-88265000D03*
%TO.P,J1,4,Pin_4*%
%TO.N,/GPIO4*%
X129540000Y-88265000D03*
%TO.P,J1,3,Pin_3*%
%TO.N,/GPIO5*%
X132080000Y-88265000D03*
%TO.P,J1,2,Pin_2*%
%TO.N,/GPIO6*%
X134620000Y-88265000D03*
D11*
%TO.P,J1,1,Pin_1*%
%TO.N,/GPIO7*%
X137160000Y-88265000D03*
%TD*%
D12*
%TO.P,J5,3,Pin_3*%
%TO.N,GND*%
X93040200Y-81584800D03*
%TO.P,J5,2,Pin_2*%
X95580200Y-81584800D03*
D13*
%TO.P,J5,1,Pin_1*%
X98120200Y-81584800D03*
%TD*%
D14*
%TO.P,R3,1*%
%TO.N,Net-(U2-VFB)*%
X76897000Y-120521000D03*
%TO.P,R3,2*%
%TO.N,GND*%
X78547000Y-120521000D03*
%TD*%
D15*
%TO.P,C7,1*%
%TO.N,/3.3V*%
X80137000Y-97662400D03*
%TO.P,C7,2*%
%TO.N,GND*%
X80137000Y-99212400D03*
%TD*%
D11*
%TO.P,J6,1,Pin_1*%
%TO.N,/GPIO7*%
X117627400Y-83464400D03*
D10*
%TO.P,J6,2,Pin_2*%
%TO.N,/GPIO6*%
X115087400Y-83464400D03*
%TO.P,J6,3,Pin_3*%
%TO.N,/GPIO5*%
X112547400Y-83464400D03*
%TO.P,J6,4,Pin_4*%
%TO.N,/GPIO4*%
X110007400Y-83464400D03*
%TO.P,J6,5,Pin_5*%
%TO.N,/GPIO3*%
X107467400Y-83464400D03*
%TO.P,J6,6,Pin_6*%
%TO.N,/GPIO2*%
X104927400Y-83464400D03*
%TO.P,J6,7,Pin_7*%
%TO.N,/GPIO1*%
X102387400Y-83464400D03*
%TD*%
D16*
%TO.P,D1,1,K*%
%TO.N,Net-(D1-K)*%
X123250000Y-120250000D03*
%TO.P,D1,2,A*%
%TO.N,/GPIO0*%
X123250000Y-118675000D03*
%TD*%
D17*
%TO.P,J7,1,Pin_1*%
%TO.N,/6V*%
X90906600Y-122047000D03*
D12*
%TO.P,J7,2,Pin_2*%
%TO.N,GND*%
X93446600Y-122047000D03*
%TD*%
D18*
%TO.P,L1,1,1*%
%TO.N,Net-(U2-SW)*%
X69917000Y-90549000D03*
%TO.P,L1,2,2*%
%TO.N,/3.3V*%
X75367000Y-90549000D03*
%TD*%
D19*
%TO.P,R2,1*%
%TO.N,/3.3V*%
X78547000Y-123825000D03*
%TO.P,R2,2*%
%TO.N,Net-(U2-VFB)*%
X76897000Y-123825000D03*
%TD*%
D15*
%TO.P,C4,1*%
%TO.N,/3.3V*%
X81965800Y-97687800D03*
%TO.P,C4,2*%
%TO.N,GND*%
X81965800Y-99237800D03*
%TD*%
D20*
%TO.P,C1,1*%
%TO.N,/6V*%
X73037400Y-104394000D03*
%TO.P,C1,2*%
%TO.N,GND*%
X74587400Y-104394000D03*
%TD*%
D21*
%TO.P,C6,1*%
%TO.N,Net-(U2-VBST)*%
X76123800Y-115059400D03*
%TO.P,C6,2*%
%TO.N,Net-(U2-SW)*%
X76123800Y-114099400D03*
%TD*%
D11*
%TO.P,J2,1,Pin_1*%
%TO.N,/GPIO19{slash}SCL*%
X137160000Y-111254000D03*
D10*
%TO.P,J2,2,Pin_2*%
%TO.N,/GPIO20{slash}SCA*%
X134620000Y-111254000D03*
%TO.P,J2,3,Pin_3*%
%TO.N,/GPIO21*%
X132080000Y-111254000D03*
%TO.P,J2,4,Pin_4*%
%TO.N,/GPIO26*%
X129540000Y-111254000D03*
%TO.P,J2,5,Pin_5*%
%TO.N,/GPIO48*%
X127000000Y-111254000D03*
%TO.P,J2,6,Pin_6*%
%TO.N,/GPIO47*%
X124460000Y-111254000D03*
%TO.P,J2,7,Pin_7*%
%TO.N,/GPIO33*%
X121920000Y-111254000D03*
%TO.P,J2,8,Pin_8*%
%TO.N,/GPIO34*%
X119380000Y-111254000D03*
%TO.P,J2,9,Pin_9*%
%TO.N,/GPIO35*%
X116840000Y-111254000D03*
%TO.P,J2,10,Pin_10*%
%TO.N,/GPIO36*%
X114300000Y-111254000D03*
%TO.P,J2,11,Pin_11*%
%TO.N,/GPIO0*%
X111760000Y-111254000D03*
%TO.P,J2,12,Pin_12*%
%TO.N,/RST*%
X109220000Y-111254000D03*
%TO.P,J2,13,Pin_13*%
%TO.N,/U0TXD{slash}GPIO43*%
X106680000Y-111254000D03*
%TO.P,J2,14,Pin_14*%
%TO.N,/U0RXD{slash}GPIO44*%
X104140000Y-111254000D03*
%TO.P,J2,15,Pin_15*%
%TO.N,/Ve*%
X101600000Y-111254000D03*
%TO.P,J2,16,Pin_16*%
X99060000Y-111254000D03*
%TO.P,J2,17,Pin_17*%
%TO.N,/5V*%
X96520000Y-111254000D03*
%TO.P,J2,18,Pin_18*%
%TO.N,GND*%
X93980000Y-111254000D03*
%TD*%
D17*
%TO.P,J4,1,Pin_1*%
%TO.N,/GPIO33*%
X98720000Y-122000000D03*
D12*
%TO.P,J4,2,Pin_2*%
%TO.N,/5V*%
X101260000Y-122000000D03*
%TO.P,J4,3,Pin_3*%
%TO.N,GND*%
X103800000Y-122000000D03*
%TD*%
D17*
%TO.P,J3,1,Pin_1*%
%TO.N,/GPIO19{slash}SCL*%
X108780000Y-121800000D03*
D12*
%TO.P,J3,2,Pin_2*%
%TO.N,/GPIO20{slash}SCA*%
X111320000Y-121800000D03*
%TO.P,J3,3,Pin_3*%
%TO.N,/3.3V*%
X113860000Y-121800000D03*
%TO.P,J3,4,Pin_4*%
%TO.N,GND*%
X116400000Y-121800000D03*
%TD*%
D15*
%TO.P,C3,1*%
%TO.N,/3.3V*%
X78232000Y-97650000D03*
%TO.P,C3,2*%
%TO.N,GND*%
X78232000Y-99200000D03*
%TD*%
D22*
%TO.P,U2,1,GND*%
%TO.N,GND*%
X74801000Y-112266000D03*
%TO.P,U2,2,SW*%
%TO.N,Net-(U2-SW)*%
X73851000Y-112266000D03*
%TO.P,U2,3,VIN*%
%TO.N,/6V*%
X72901000Y-112266000D03*
%TO.P,U2,4,VFB*%
%TO.N,Net-(U2-VFB)*%
X72901000Y-114541000D03*
%TO.P,U2,5,EN*%
%TO.N,Net-(U2-EN)*%
X73851000Y-114541000D03*
%TO.P,U2,6,VBST*%
%TO.N,Net-(U2-VBST)*%
X74801000Y-114541000D03*
%TD*%
D23*
%TO.P,R1,1*%
%TO.N,Net-(D1-K)*%
X120750000Y-120350000D03*
%TO.P,R1,2*%
%TO.N,GND*%
X120750000Y-122000000D03*
%TD*%
D24*
%TO.P,C5,1*%
%TO.N,/6V*%
X73383200Y-107213400D03*
%TO.P,C5,2*%
%TO.N,GND*%
X74343200Y-107213400D03*
%TD*%
D25*
%TO.P,R4,1*%
%TO.N,Net-(U2-EN)*%
X69086000Y-114107000D03*
%TO.P,R4,2*%
%TO.N,/6V*%
X69086000Y-112457000D03*
%TD*%
D20*
%TO.P,C2,1*%
%TO.N,/6V*%
X73062800Y-105918000D03*
%TO.P,C2,2*%
%TO.N,GND*%
X74612800Y-105918000D03*
%TD*%
D26*
%TO.N,/6V*%
X71018400Y-111937800D03*
X71729600Y-112623600D03*
X70358000Y-112598200D03*
X71018400Y-112598200D03*
X70332600Y-111937800D03*
X71729600Y-111937800D03*
%TO.N,/3.3V*%
X88468200Y-113055400D03*
X86220300Y-92900500D03*
%TO.N,Net-(U2-SW)*%
X73863200Y-109575600D03*
X63000000Y-89000000D03*
X63000000Y-90000000D03*
X64000000Y-91000000D03*
X64000000Y-90000000D03*
X66000000Y-91000000D03*
X65000000Y-89000000D03*
X64000000Y-89000000D03*
X66000000Y-89000000D03*
X67000000Y-91000000D03*
X66000000Y-92000000D03*
X65000000Y-91000000D03*
X63000000Y-91000000D03*
X67000000Y-90000000D03*
X65000000Y-90000000D03*
X64000000Y-92000000D03*
X73863200Y-108788200D03*
X73863200Y-110921800D03*
X63000000Y-92000000D03*
X66000000Y-90000000D03*
X73863200Y-110210600D03*
X67000000Y-89000000D03*
X67000000Y-92000000D03*
X65000000Y-92000000D03*
%TO.N,/GPIO0*%
X121250000Y-118750000D03*
%TO.N,/GPIO33*%
X108051600Y-117068600D03*
%TO.N,GND*%
X121158000Y-123215400D03*
X120319800Y-123190000D03*
X79171800Y-100152200D03*
X82042000Y-100304600D03*
X75717400Y-102362000D03*
X75641200Y-104216200D03*
X83540600Y-99796600D03*
X75793600Y-110947200D03*
X80314800Y-100304600D03*
X77952600Y-100025200D03*
X75768200Y-103352600D03*
%TD*%
D27*
%TO.N,/GPIO7*%
X137160000Y-88265000D02*
X132359400Y-83464400D01*
X132359400Y-83464400D02*
X117627400Y-83464400D01*
%TO.N,/GPIO2*%
X124460000Y-88265000D02*
X123309000Y-87114000D01*
X123309000Y-87114000D02*
X108577000Y-87114000D01*
X108577000Y-87114000D02*
X104927400Y-83464400D01*
D28*
%TO.N,/3.3V*%
X88468200Y-120548400D02*
X88468200Y-113055400D01*
X78547000Y-123825000D02*
X85191600Y-123825000D01*
X113860000Y-121800000D02*
X111835000Y-123825000D01*
X111835000Y-123825000D02*
X85191600Y-123825000D01*
X85191600Y-123825000D02*
X88468200Y-120548400D01*
D27*
%TO.N,Net-(U2-VBST)*%
X75319400Y-115059400D02*
X74801000Y-114541000D01*
X76123800Y-115059400D02*
X75319400Y-115059400D01*
%TO.N,Net-(U2-SW)*%
X74152001Y-113229500D02*
X73851000Y-112928499D01*
X75974000Y-114099400D02*
X75104100Y-113229500D01*
X73851000Y-112075000D02*
X73660000Y-112075000D01*
X75104100Y-113229500D02*
X74152001Y-113229500D01*
X73851000Y-112266000D02*
X73851000Y-112075000D01*
X76123800Y-114099400D02*
X75974000Y-114099400D01*
X73851000Y-111911532D02*
X73851000Y-112266000D01*
X73851000Y-112928499D02*
X73851000Y-112266000D01*
%TO.N,/GPIO0*%
X123250000Y-118675000D02*
X121325000Y-118675000D01*
X121325000Y-118675000D02*
X121250000Y-118750000D01*
%TO.N,Net-(D1-K)*%
X123150000Y-120350000D02*
X123250000Y-120250000D01*
X120750000Y-120350000D02*
X123150000Y-120350000D01*
%TO.N,/GPIO19{slash}SCL*%
X134143240Y-110103000D02*
X136009000Y-110103000D01*
X133469000Y-110777240D02*
X134143240Y-110103000D01*
X133469000Y-111730760D02*
X133469000Y-110777240D01*
X136009000Y-110103000D02*
X137160000Y-111254000D01*
X108780000Y-121800000D02*
X116940400Y-113639600D01*
X116940400Y-113639600D02*
X131560160Y-113639600D01*
X131560160Y-113639600D02*
X133469000Y-111730760D01*
%TO.N,/GPIO20{slash}SCA*%
X132816600Y-114071400D02*
X132816600Y-113057400D01*
X132816600Y-113057400D02*
X134620000Y-111254000D01*
X111320000Y-121800000D02*
X119074000Y-114046000D01*
X132791200Y-114046000D02*
X132816600Y-114071400D01*
X119074000Y-114046000D02*
X132791200Y-114046000D01*
%TO.N,/GPIO33*%
X108051600Y-117068600D02*
X112547400Y-117068600D01*
X112547400Y-117068600D02*
X116377400Y-113238600D01*
X119935400Y-113238600D02*
X121920000Y-111254000D01*
X116377400Y-113238600D02*
X119935400Y-113238600D01*
%TO.N,GND*%
X93980000Y-121513600D02*
X93446600Y-122047000D01*
X120550000Y-121800000D02*
X120750000Y-122000000D01*
X95250000Y-80410000D02*
X95460000Y-80200000D01*
%TO.N,Net-(U2-VFB)*%
X72901000Y-114541000D02*
X72901000Y-116525000D01*
X72901000Y-116525000D02*
X76897000Y-120521000D01*
X76897000Y-123825000D02*
X76897000Y-120521000D01*
%TO.N,Net-(U2-EN)*%
X73549999Y-113577500D02*
X69615500Y-113577500D01*
X69615500Y-113577500D02*
X69086000Y-114107000D01*
X73851000Y-113878501D02*
X73549999Y-113577500D01*
X73851000Y-114541000D02*
X73851000Y-113878501D01*
%TD*%
%TA.AperFunction,Conductor*%
%TO.N,/5V*%
G36*
X98432923Y-109848485D02*
G01*
X98478678Y-109901289D01*
X98488622Y-109970447D01*
X98459597Y-110034003D01*
X98422179Y-110063285D01*
X98352179Y-110098951D01*
X98180213Y-110223890D01*
X98029890Y-110374213D01*
X97904951Y-110546179D01*
X97808444Y-110735585D01*
X97742753Y-110937760D01*
X97709500Y-111147713D01*
X97709500Y-111360286D01*
X97742753Y-111570239D01*
X97808444Y-111772414D01*
X97904951Y-111961820D01*
X98029890Y-112133786D01*
X98180213Y-112284109D01*
X98352179Y-112409048D01*
X98352181Y-112409049D01*
X98352184Y-112409051D01*
X98541588Y-112505557D01*
X98743757Y-112571246D01*
X98953713Y-112604500D01*
X98953714Y-112604500D01*
X99166286Y-112604500D01*
X99166287Y-112604500D01*
X99376243Y-112571246D01*
X99578412Y-112505557D01*
X99767816Y-112409051D01*
X99789789Y-112393086D01*
X99939786Y-112284109D01*
X99939788Y-112284106D01*
X99939792Y-112284104D01*
X100090104Y-112133792D01*
X100090106Y-112133788D01*
X100090109Y-112133786D01*
X100215048Y-111961820D01*
X100215050Y-111961817D01*
X100215051Y-111961816D01*
X100219514Y-111953054D01*
X100267488Y-111902259D01*
X100335308Y-111885463D01*
X100401444Y-111907999D01*
X100440486Y-111953056D01*
X100444951Y-111961820D01*
X100569890Y-112133786D01*
X100720213Y-112284109D01*
X100892179Y-112409048D01*
X100892181Y-112409049D01*
X100892184Y-112409051D01*
X101081588Y-112505557D01*
X101283757Y-112571246D01*
X101493713Y-112604500D01*
X101493714Y-112604500D01*
X101706286Y-112604500D01*
X101706287Y-112604500D01*
X101916243Y-112571246D01*
X102118412Y-112505557D01*
X102307816Y-112409051D01*
X102329789Y-112393086D01*
X102479786Y-112284109D01*
X102479788Y-112284106D01*
X102479792Y-112284104D01*
X102630104Y-112133792D01*
X102630106Y-112133788D01*
X102630109Y-112133786D01*
X102755048Y-111961820D01*
X102755050Y-111961817D01*
X102755051Y-111961816D01*
X102759514Y-111953054D01*
X102768160Y-111943901D01*
X102772896Y-111932233D01*
X102791695Y-111918980D01*
X102807488Y-111902259D01*
X102819711Y-111899231D01*
X102830003Y-111891977D01*
X102852982Y-111890992D01*
X102875308Y-111885463D01*
X102887226Y-111889524D01*
X102899809Y-111888985D01*
X102919673Y-111900580D01*
X102941444Y-111907999D01*
X102950718Y-111918702D01*
X102960150Y-111924208D01*
X102980485Y-111953055D01*
X102986485Y-111964831D01*
X103000000Y-112021125D01*
X103000000Y-120663332D01*
X102980315Y-120730371D01*
X102948886Y-120763650D01*
X102822488Y-120855484D01*
X102655485Y-121022487D01*
X102655485Y-121022488D01*
X102655483Y-121022490D01*
X102606235Y-121090274D01*
X102516657Y-121213566D01*
X102409433Y-121424003D01*
X102336446Y-121648631D01*
X102299500Y-121881902D01*
X102299500Y-122118097D01*
X102336446Y-122351368D01*
X102409433Y-122575996D01*
X102516659Y-122786436D01*
X102582904Y-122877615D01*
X102606384Y-122943421D01*
X102590559Y-123011475D01*
X102540453Y-123060170D01*
X102482586Y-123074500D01*
X100324822Y-123074500D01*
X100257783Y-123054815D01*
X100212028Y-123002011D01*
X100202084Y-122932853D01*
X100207116Y-122911496D01*
X100209999Y-122902797D01*
X100220500Y-122800009D01*
X100220499Y-121199992D01*
X100209999Y-121097203D01*
X100154814Y-120930666D01*
X100062712Y-120781344D01*
X99938656Y-120657288D01*
X99789334Y-120565186D01*
X99622797Y-120510001D01*
X99622795Y-120510000D01*
X99520010Y-120499500D01*
X97919998Y-120499500D01*
X97919981Y-120499501D01*
X97817203Y-120510000D01*
X97817200Y-120510001D01*
X97650668Y-120565185D01*
X97650663Y-120565187D01*
X97501342Y-120657289D01*
X97377289Y-120781342D01*
X97285187Y-120930663D01*
X97285186Y-120930666D01*
X97230001Y-121097203D01*
X97230001Y-121097204D01*
X97230000Y-121097204D01*
X97219500Y-121199983D01*
X97219500Y-122800001D01*
X97219501Y-122800018D01*
X97230000Y-122902796D01*
X97230001Y-122902797D01*
X97232884Y-122911498D01*
X97235284Y-122981326D01*
X97199552Y-123041368D01*
X97137031Y-123072559D01*
X97115177Y-123074500D01*
X95219000Y-123074500D01*
X95151961Y-123054815D01*
X95106206Y-123002011D01*
X95095000Y-122950500D01*
X95095000Y-112057231D01*
X95114685Y-111990192D01*
X95118673Y-111984357D01*
X95135051Y-111961816D01*
X95231557Y-111772412D01*
X95297246Y-111570243D01*
X95330500Y-111360287D01*
X95330500Y-111147713D01*
X95297246Y-110937757D01*
X95231557Y-110735588D01*
X95135051Y-110546184D01*
X95132863Y-110543172D01*
X95118681Y-110523651D01*
X95095202Y-110457845D01*
X95095000Y-110450768D01*
X95095000Y-109952800D01*
X95114685Y-109885761D01*
X95167489Y-109840006D01*
X95219000Y-109828800D01*
X98365884Y-109828800D01*
X98432923Y-109848485D01*
G37*
%TD.AperFunction*%
%TD*%
%TA.AperFunction,Conductor*%
%TO.N,Net-(U2-SW)*%
G36*
X71037639Y-88208485D02*
G01*
X71083394Y-88261289D01*
X71094600Y-88312800D01*
X71094600Y-92636800D01*
X71074915Y-92703839D01*
X71022111Y-92749594D01*
X70970600Y-92760800D01*
X62074600Y-92760800D01*
X62007561Y-92741115D01*
X61961806Y-92688311D01*
X61950600Y-92636800D01*
X61950600Y-88312800D01*
X61970285Y-88245761D01*
X62023089Y-88200006D01*
X62074600Y-88188800D01*
X70970600Y-88188800D01*
X71037639Y-88208485D01*
G37*
%TD.AperFunction*%
%TD*%
%TA.AperFunction,Conductor*%
%TO.N,/6V*%
G36*
X73744927Y-98569685D02*
G01*
X73790682Y-98622489D01*
X73801876Y-98675735D01*
X73730834Y-103752504D01*
X73712388Y-103815860D01*
X73700399Y-103835299D01*
X73700397Y-103835303D01*
X73647051Y-103996290D01*
X73636900Y-104095647D01*
X73636900Y-104692337D01*
X73636901Y-104692355D01*
X73647050Y-104791707D01*
X73647051Y-104791710D01*
X73700399Y-104952702D01*
X73701642Y-104955368D01*
X73702300Y-104958439D01*
X73702669Y-104959552D01*
X73702547Y-104959592D01*
X73713245Y-105009501D01*
X73707849Y-105395153D01*
X73701567Y-105432421D01*
X73672451Y-105520288D01*
X73662300Y-105619647D01*
X73662300Y-106216337D01*
X73662301Y-106216355D01*
X73672450Y-106315707D01*
X73672451Y-106315711D01*
X73687481Y-106361067D01*
X73688081Y-106364963D01*
X73689229Y-106366805D01*
X73693763Y-106401806D01*
X73690716Y-106619505D01*
X73673461Y-106680890D01*
X73610704Y-106787008D01*
X73610704Y-106787009D01*
X73565557Y-106942402D01*
X73565556Y-106942408D01*
X73562700Y-106978702D01*
X73562700Y-107448097D01*
X73565556Y-107484391D01*
X73565558Y-107484398D01*
X73566967Y-107489249D01*
X73566764Y-107559119D01*
X73528819Y-107617787D01*
X73465179Y-107646627D01*
X73454567Y-107647658D01*
X73453811Y-107647698D01*
X73346349Y-107659252D01*
X73346337Y-107659254D01*
X73294827Y-107670460D01*
X73192302Y-107704583D01*
X73192296Y-107704586D01*
X73071262Y-107782371D01*
X73071251Y-107782379D01*
X73018459Y-107828123D01*
X72924233Y-107936864D01*
X72924230Y-107936868D01*
X72864464Y-108067734D01*
X72844776Y-108134782D01*
X72824300Y-108277201D01*
X72824300Y-111019315D01*
X72825536Y-111054640D01*
X72825537Y-111054650D01*
X72826749Y-111071946D01*
X72830454Y-111107120D01*
X72853777Y-111187400D01*
X72870594Y-111245285D01*
X72899440Y-111308929D01*
X72976874Y-111430183D01*
X72976877Y-111430186D01*
X73029416Y-111475976D01*
X73067022Y-111534862D01*
X73067022Y-111604048D01*
X73053402Y-111650929D01*
X73053401Y-111650932D01*
X73050500Y-111687798D01*
X73050500Y-112806389D01*
X73030815Y-112873428D01*
X72978011Y-112919183D01*
X72931712Y-112930279D01*
X71823705Y-112976890D01*
X71818493Y-112977000D01*
X69536443Y-112977000D01*
X69383714Y-113017923D01*
X69347386Y-113038898D01*
X69347383Y-113038899D01*
X69294986Y-113069149D01*
X69238200Y-113085651D01*
X67945212Y-113140043D01*
X67877404Y-113123194D01*
X67829470Y-113072360D01*
X67816000Y-113016153D01*
X67816000Y-106988099D01*
X67835685Y-106921060D01*
X67888489Y-106875305D01*
X67957647Y-106865361D01*
X67958916Y-106865551D01*
X68121682Y-106890905D01*
X68121692Y-106890906D01*
X68400888Y-106904822D01*
X68485850Y-106909058D01*
X68849921Y-106889045D01*
X69209906Y-106831085D01*
X69385883Y-106783450D01*
X69561850Y-106735818D01*
X69561852Y-106735817D01*
X69561860Y-106735815D01*
X69807612Y-106640757D01*
X69901915Y-106604282D01*
X69901917Y-106604280D01*
X69901927Y-106604277D01*
X70226382Y-106437914D01*
X70531670Y-106238546D01*
X70814446Y-106008360D01*
X71071612Y-105749876D01*
X71300351Y-105465928D01*
X71498155Y-105159625D01*
X71662858Y-104834323D01*
X71792656Y-104493588D01*
X71886127Y-104141152D01*
X71942245Y-103780876D01*
X71943660Y-103752504D01*
X71958875Y-103447255D01*
X71960398Y-103416708D01*
X71953514Y-103291502D01*
X71953007Y-103282217D01*
X71953026Y-103282148D01*
X71950453Y-103235505D01*
X71950366Y-103233652D01*
X71949831Y-103220137D01*
X71914036Y-102315745D01*
X71913945Y-102311926D01*
X71910078Y-101858329D01*
X71906122Y-101394330D01*
X71906147Y-101390566D01*
X71926801Y-100473058D01*
X71926948Y-100469228D01*
X71976052Y-99552952D01*
X71976317Y-99549113D01*
X72051394Y-98663525D01*
X72076671Y-98598388D01*
X72133152Y-98557257D01*
X72174951Y-98550000D01*
X73677888Y-98550000D01*
X73744927Y-98569685D01*
G37*
%TD.AperFunction*%
%TD*%
%TA.AperFunction,Conductor*%
%TO.N,/3.3V*%
G36*
X101074839Y-86530085D02*
G01*
X101120594Y-86582889D01*
X101131800Y-86634400D01*
X101131800Y-86911870D01*
X101112115Y-86978909D01*
X101064095Y-87022355D01*
X100892180Y-87109951D01*
X100720213Y-87234890D01*
X100569890Y-87385213D01*
X100444951Y-87557179D01*
X100348444Y-87746585D01*
X100282753Y-87948760D01*
X100249500Y-88158713D01*
X100249500Y-88371286D01*
X100282753Y-88581239D01*
X100348444Y-88783414D01*
X100444951Y-88972820D01*
X100569890Y-89144786D01*
X100720213Y-89295109D01*
X100892182Y-89420050D01*
X100892184Y-89420051D01*
X101064094Y-89507643D01*
X101114891Y-89555617D01*
X101131800Y-89618128D01*
X101131800Y-98045000D01*
X101112115Y-98112039D01*
X101059311Y-98157794D01*
X101007800Y-98169000D01*
X74290000Y-98169000D01*
X74222961Y-98149315D01*
X74177206Y-98096511D01*
X74166000Y-98045000D01*
X74166000Y-88158713D01*
X92629500Y-88158713D01*
X92629500Y-88371286D01*
X92662753Y-88581239D01*
X92728444Y-88783414D01*
X92824951Y-88972820D01*
X92949890Y-89144786D01*
X93100213Y-89295109D01*
X93272179Y-89420048D01*
X93272181Y-89420049D01*
X93272184Y-89420051D01*
X93461588Y-89516557D01*
X93663757Y-89582246D01*
X93873713Y-89615500D01*
X93873714Y-89615500D01*
X94086286Y-89615500D01*
X94086287Y-89615500D01*
X94296243Y-89582246D01*
X94498412Y-89516557D01*
X94687816Y-89420051D01*
X94709789Y-89404086D01*
X94859786Y-89295109D01*
X94859788Y-89295106D01*
X94859792Y-89295104D01*
X95010104Y-89144792D01*
X95010106Y-89144788D01*
X95010109Y-89144786D01*
X95135048Y-88972820D01*
X95135047Y-88972820D01*
X95135051Y-88972816D01*
X95231557Y-88783412D01*
X95297246Y-88581243D01*
X95330500Y-88371287D01*
X95330500Y-88158713D01*
X95297246Y-87948757D01*
X95231557Y-87746588D01*
X95135051Y-87557184D01*
X95135049Y-87557181D01*
X95135048Y-87557179D01*
X95010109Y-87385213D01*
X94859786Y-87234890D01*
X94687820Y-87109951D01*
X94498414Y-87013444D01*
X94498413Y-87013443D01*
X94498412Y-87013443D01*
X94296243Y-86947754D01*
X94296241Y-86947753D01*
X94296240Y-86947753D01*
X94134957Y-86922208D01*
X94086287Y-86914500D01*
X93873713Y-86914500D01*
X93825042Y-86922208D01*
X93663760Y-86947753D01*
X93461585Y-87013444D01*
X93272179Y-87109951D01*
X93100213Y-87234890D01*
X92949890Y-87385213D01*
X92824951Y-87557179D01*
X92728444Y-87746585D01*
X92662753Y-87948760D01*
X92629500Y-88158713D01*
X74166000Y-88158713D01*
X74166000Y-86634400D01*
X74185685Y-86567361D01*
X74238489Y-86521606D01*
X74290000Y-86510400D01*
X101007800Y-86510400D01*
X101074839Y-86530085D01*
G37*
%TD.AperFunction*%
%TD*%
%TA.AperFunction,Conductor*%
%TO.N,Net-(U2-SW)*%
G36*
X74314239Y-108172885D02*
G01*
X74359994Y-108225689D01*
X74371200Y-108277200D01*
X74371200Y-111019024D01*
X74351515Y-111086063D01*
X74298711Y-111131818D01*
X74229553Y-111141762D01*
X74212605Y-111138100D01*
X74103494Y-111106400D01*
X74103497Y-111106400D01*
X74101000Y-111106203D01*
X74101000Y-111371684D01*
X74083733Y-111434804D01*
X74049254Y-111493105D01*
X74049254Y-111493106D01*
X74003402Y-111650926D01*
X74003401Y-111650932D01*
X74000500Y-111687798D01*
X74000500Y-112142000D01*
X73997949Y-112150685D01*
X73999238Y-112159647D01*
X73988259Y-112183687D01*
X73980815Y-112209039D01*
X73973974Y-112214966D01*
X73970213Y-112223203D01*
X73947978Y-112237492D01*
X73928011Y-112254794D01*
X73917496Y-112257081D01*
X73911435Y-112260977D01*
X73876500Y-112266000D01*
X73825500Y-112266000D01*
X73758461Y-112246315D01*
X73712706Y-112193511D01*
X73701500Y-112142000D01*
X73701500Y-111687813D01*
X73701499Y-111687798D01*
X73698598Y-111650932D01*
X73698597Y-111650926D01*
X73652745Y-111493106D01*
X73652745Y-111493105D01*
X73652744Y-111493104D01*
X73652744Y-111493102D01*
X73618267Y-111434804D01*
X73601000Y-111371684D01*
X73601000Y-111106203D01*
X73598507Y-111106400D01*
X73488394Y-111138391D01*
X73418525Y-111138191D01*
X73359855Y-111100248D01*
X73331012Y-111036610D01*
X73329800Y-111019314D01*
X73329800Y-108277200D01*
X73349485Y-108210161D01*
X73402289Y-108164406D01*
X73453800Y-108153200D01*
X74247200Y-108153200D01*
X74314239Y-108172885D01*
G37*
%TD.AperFunction*%
%TD*%
%TA.AperFunction,Conductor*%
%TO.N,GND*%
G36*
X115641444Y-111907999D02*
G01*
X115680486Y-111953056D01*
X115684951Y-111961820D01*
X115809890Y-112133786D01*
X115960213Y-112284109D01*
X116132179Y-112409048D01*
X116132181Y-112409049D01*
X116132184Y-112409051D01*
X116180384Y-112433610D01*
X116196232Y-112441685D01*
X116247028Y-112489660D01*
X116263823Y-112557481D01*
X116241286Y-112623616D01*
X116186570Y-112667067D01*
X116172034Y-112671943D01*
X116165122Y-112673796D01*
X116145616Y-112679022D01*
X116114972Y-112696715D01*
X116114971Y-112696714D01*
X116008687Y-112758077D01*
X116008682Y-112758081D01*
X115944866Y-112821898D01*
X115896880Y-112869884D01*
X115896878Y-112869886D01*
X114103756Y-114663009D01*
X112334984Y-116431781D01*
X112273661Y-116465266D01*
X112247303Y-116468100D01*
X108631366Y-116468100D01*
X108564327Y-116448415D01*
X108562475Y-116447202D01*
X108430785Y-116359209D01*
X108430772Y-116359202D01*
X108285101Y-116298864D01*
X108285089Y-116298861D01*
X108130445Y-116268100D01*
X108130442Y-116268100D01*
X107972758Y-116268100D01*
X107972755Y-116268100D01*
X107818110Y-116298861D01*
X107818098Y-116298864D01*
X107672427Y-116359202D01*
X107672414Y-116359209D01*
X107541311Y-116446810D01*
X107541307Y-116446813D01*
X107429813Y-116558307D01*
X107429810Y-116558311D01*
X107342209Y-116689414D01*
X107342202Y-116689427D01*
X107281864Y-116835098D01*
X107281861Y-116835110D01*
X107251100Y-116989753D01*
X107251100Y-117147446D01*
X107281861Y-117302089D01*
X107281864Y-117302101D01*
X107342202Y-117447772D01*
X107342209Y-117447785D01*
X107429810Y-117578888D01*
X107429813Y-117578892D01*
X107541307Y-117690386D01*
X107541311Y-117690389D01*
X107672414Y-117777990D01*
X107672427Y-117777997D01*
X107751494Y-117810747D01*
X107818103Y-117838337D01*
X107972753Y-117869099D01*
X107972756Y-117869100D01*
X107972758Y-117869100D01*
X108130444Y-117869100D01*
X108130445Y-117869099D01*
X108285097Y-117838337D01*
X108430779Y-117777994D01*
X108477069Y-117747064D01*
X108562475Y-117689998D01*
X108629153Y-117669120D01*
X108631366Y-117669100D01*
X111762303Y-117669100D01*
X111829342Y-117688785D01*
X111875097Y-117741589D01*
X111885041Y-117810747D01*
X111856016Y-117874303D01*
X111849984Y-117880781D01*
X109467582Y-120263181D01*
X109406259Y-120296666D01*
X109379901Y-120299500D01*
X107979998Y-120299500D01*
X107979981Y-120299501D01*
X107877203Y-120310000D01*
X107877200Y-120310001D01*
X107710668Y-120365185D01*
X107710663Y-120365187D01*
X107561342Y-120457289D01*
X107437289Y-120581342D01*
X107345187Y-120730663D01*
X107345186Y-120730666D01*
X107290001Y-120897203D01*
X107290001Y-120897204D01*
X107290000Y-120897204D01*
X107279500Y-120999983D01*
X107279500Y-122600001D01*
X107279501Y-122600018D01*
X107290000Y-122702796D01*
X107290001Y-122702799D01*
X107338614Y-122849500D01*
X107345186Y-122869334D01*
X107355098Y-122885404D01*
X107373538Y-122952795D01*
X107352616Y-123019459D01*
X107298974Y-123064229D01*
X107249559Y-123074500D01*
X103232429Y-123074500D01*
X103165390Y-123054815D01*
X103119635Y-123002011D01*
X103108884Y-122939891D01*
X103111058Y-122914565D01*
X103111059Y-122914559D01*
X103083289Y-122777511D01*
X103082487Y-122773553D01*
X103082483Y-122773540D01*
X103059005Y-122707739D01*
X102991865Y-122580494D01*
X102954740Y-122529395D01*
X102944575Y-122512807D01*
X102882326Y-122390639D01*
X102874879Y-122372662D01*
X102832514Y-122242278D01*
X102827972Y-122223356D01*
X102806527Y-122087952D01*
X102805000Y-122068555D01*
X102805000Y-121931442D01*
X102806527Y-121912045D01*
X102827973Y-121776634D01*
X102832512Y-121757726D01*
X102874883Y-121627324D01*
X102882322Y-121609364D01*
X102944571Y-121487194D01*
X102954729Y-121470617D01*
X103035331Y-121359679D01*
X103047957Y-121344897D01*
X103144902Y-121247952D01*
X103159685Y-121235326D01*
X103246012Y-121172607D01*
X103316398Y-121110731D01*
X103347827Y-121077452D01*
X103405567Y-121003668D01*
X103465338Y-120872791D01*
X103485023Y-120805752D01*
X103485024Y-120805748D01*
X103505500Y-120663332D01*
X103505500Y-112638508D01*
X103525185Y-112571469D01*
X103577989Y-112525714D01*
X103647147Y-112515770D01*
X103667803Y-112520573D01*
X103823757Y-112571246D01*
X104033713Y-112604500D01*
X104033714Y-112604500D01*
X104246286Y-112604500D01*
X104246287Y-112604500D01*
X104456243Y-112571246D01*
X104658412Y-112505557D01*
X104847816Y-112409051D01*
X104934138Y-112346335D01*
X105019786Y-112284109D01*
X105019788Y-112284106D01*
X105019792Y-112284104D01*
X105170104Y-112133792D01*
X105170106Y-112133788D01*
X105170109Y-112133786D01*
X105295048Y-111961820D01*
X105295047Y-111961820D01*
X105295051Y-111961816D01*
X105299514Y-111953054D01*
X105347488Y-111902259D01*
X105415308Y-111885463D01*
X105481444Y-111907999D01*
X105520486Y-111953056D01*
X105524951Y-111961820D01*
X105649890Y-112133786D01*
X105800213Y-112284109D01*
X105972179Y-112409048D01*
X105972181Y-112409049D01*
X105972184Y-112409051D01*
X106161588Y-112505557D01*
X106363757Y-112571246D01*
X106573713Y-112604500D01*
X106573714Y-112604500D01*
X106786286Y-112604500D01*
X106786287Y-112604500D01*
X106996243Y-112571246D01*
X107198412Y-112505557D01*
X107387816Y-112409051D01*
X107474138Y-112346335D01*
X107559786Y-112284109D01*
X107559788Y-112284106D01*
X107559792Y-112284104D01*
X107710104Y-112133792D01*
X107710106Y-112133788D01*
X107710109Y-112133786D01*
X107835048Y-111961820D01*
X107835047Y-111961820D01*
X107835051Y-111961816D01*
X107839514Y-111953054D01*
X107887488Y-111902259D01*
X107955308Y-111885463D01*
X108021444Y-111907999D01*
X108060486Y-111953056D01*
X108064951Y-111961820D01*
X108189890Y-112133786D01*
X108340213Y-112284109D01*
X108512179Y-112409048D01*
X108512181Y-112409049D01*
X108512184Y-112409051D01*
X108701588Y-112505557D01*
X108903757Y-112571246D01*
X109113713Y-112604500D01*
X109113714Y-112604500D01*
X109326286Y-112604500D01*
X109326287Y-112604500D01*
X109536243Y-112571246D01*
X109738412Y-112505557D01*
X109927816Y-112409051D01*
X110014138Y-112346335D01*
X110099786Y-112284109D01*
X110099788Y-112284106D01*
X110099792Y-112284104D01*
X110250104Y-112133792D01*
X110250106Y-112133788D01*
X110250109Y-112133786D01*
X110375048Y-111961820D01*
X110375047Y-111961820D01*
X110375051Y-111961816D01*
X110379514Y-111953054D01*
X110427488Y-111902259D01*
X110495308Y-111885463D01*
X110561444Y-111907999D01*
X110600486Y-111953056D01*
X110604951Y-111961820D01*
X110729890Y-112133786D01*
X110880213Y-112284109D01*
X111052179Y-112409048D01*
X111052181Y-112409049D01*
X111052184Y-112409051D01*
X111241588Y-112505557D01*
X111443757Y-112571246D01*
X111653713Y-112604500D01*
X111653714Y-112604500D01*
X111866286Y-112604500D01*
X111866287Y-112604500D01*
X112076243Y-112571246D01*
X112278412Y-112505557D01*
X112467816Y-112409051D01*
X112554138Y-112346335D01*
X112639786Y-112284109D01*
X112639788Y-112284106D01*
X112639792Y-112284104D01*
X112790104Y-112133792D01*
X112790106Y-112133788D01*
X112790109Y-112133786D01*
X112915048Y-111961820D01*
X112915047Y-111961820D01*
X112915051Y-111961816D01*
X112919514Y-111953054D01*
X112967488Y-111902259D01*
X113035308Y-111885463D01*
X113101444Y-111907999D01*
X113140486Y-111953056D01*
X113144951Y-111961820D01*
X113269890Y-112133786D01*
X113420213Y-112284109D01*
X113592179Y-112409048D01*
X113592181Y-112409049D01*
X113592184Y-112409051D01*
X113781588Y-112505557D01*
X113983757Y-112571246D01*
X114193713Y-112604500D01*
X114193714Y-112604500D01*
X114406286Y-112604500D01*
X114406287Y-112604500D01*
X114616243Y-112571246D01*
X114818412Y-112505557D01*
X115007816Y-112409051D01*
X115094138Y-112346335D01*
X115179786Y-112284109D01*
X115179788Y-112284106D01*
X115179792Y-112284104D01*
X115330104Y-112133792D01*
X115330106Y-112133788D01*
X115330109Y-112133786D01*
X115455048Y-111961820D01*
X115455047Y-111961820D01*
X115455051Y-111961816D01*
X115459514Y-111953054D01*
X115507488Y-111902259D01*
X115575308Y-111885463D01*
X115641444Y-111907999D01*
G37*
%TD.AperFunction*%
%TA.AperFunction,Conductor*%
G36*
X94056131Y-87421525D02*
G01*
X94168244Y-87439281D01*
X94187136Y-87443817D01*
X94295092Y-87478894D01*
X94313056Y-87486335D01*
X94414194Y-87537868D01*
X94430774Y-87548028D01*
X94443373Y-87557182D01*
X94522585Y-87614732D01*
X94537381Y-87627369D01*
X94617626Y-87707614D01*
X94630263Y-87722410D01*
X94696967Y-87814221D01*
X94707134Y-87830811D01*
X94758661Y-87931939D01*
X94766105Y-87949911D01*
X94766107Y-87949915D01*
X94801179Y-88057853D01*
X94805721Y-88076774D01*
X94823473Y-88188853D01*
X94825000Y-88208251D01*
X94825000Y-88321747D01*
X94823473Y-88341145D01*
X94805721Y-88453224D01*
X94801179Y-88472145D01*
X94766105Y-88580089D01*
X94758660Y-88598062D01*
X94758659Y-88598064D01*
X94707138Y-88699181D01*
X94696971Y-88715772D01*
X94630264Y-88807587D01*
X94617627Y-88822383D01*
X94537389Y-88902621D01*
X94522592Y-88915259D01*
X94430764Y-88981974D01*
X94414178Y-88992138D01*
X94414175Y-88992140D01*
X94313062Y-89043660D01*
X94295086Y-89051106D01*
X94187145Y-89086179D01*
X94168225Y-89090721D01*
X94112186Y-89099597D01*
X94056145Y-89108473D01*
X94036749Y-89110000D01*
X93923252Y-89110000D01*
X93903854Y-89108473D01*
X93791774Y-89090721D01*
X93772853Y-89086179D01*
X93664912Y-89051106D01*
X93646936Y-89043660D01*
X93545819Y-88992138D01*
X93529230Y-88981972D01*
X93437409Y-88915262D01*
X93422612Y-88902624D01*
X93342369Y-88822381D01*
X93329732Y-88807585D01*
X93288713Y-88751127D01*
X93263027Y-88715772D01*
X93252868Y-88699194D01*
X93201336Y-88598058D01*
X93193895Y-88580094D01*
X93158817Y-88472135D01*
X93154281Y-88453243D01*
X93136525Y-88341129D01*
X93135000Y-88321743D01*
X93135000Y-88208254D01*
X93136525Y-88188869D01*
X93154282Y-88076751D01*
X93158816Y-88057865D01*
X93193896Y-87949899D01*
X93201334Y-87931943D01*
X93252871Y-87830797D01*
X93263024Y-87814228D01*
X93329735Y-87722407D01*
X93342363Y-87707622D01*
X93422622Y-87627363D01*
X93437407Y-87614735D01*
X93529228Y-87548024D01*
X93545797Y-87537871D01*
X93646943Y-87486334D01*
X93664899Y-87478896D01*
X93772865Y-87443816D01*
X93791751Y-87439282D01*
X93903868Y-87421525D01*
X93923255Y-87420000D01*
X94036745Y-87420000D01*
X94056131Y-87421525D01*
G37*
%TD.AperFunction*%
%TA.AperFunction,Conductor*%
G36*
X102249505Y-58725448D02*
G01*
X103540421Y-58764455D01*
X103544066Y-58764619D01*
X104833328Y-58842606D01*
X104836976Y-58842882D01*
X106123224Y-58959765D01*
X106126881Y-58960153D01*
X107409069Y-59115839D01*
X107412669Y-59116332D01*
X108689487Y-59310660D01*
X108693181Y-59311279D01*
X109963585Y-59544090D01*
X109967178Y-59544805D01*
X111229931Y-59815870D01*
X111233562Y-59816707D01*
X112487581Y-60125794D01*
X112491120Y-60126723D01*
X113578225Y-60429776D01*
X113735256Y-60473552D01*
X113738848Y-60474613D01*
X114971826Y-60858825D01*
X114975383Y-60859992D01*
X116196280Y-61281298D01*
X116199710Y-61282539D01*
X117249286Y-61680591D01*
X117407327Y-61740528D01*
X117410799Y-61741905D01*
X118604024Y-62236154D01*
X118607387Y-62237607D01*
X119785172Y-62767685D01*
X119788528Y-62769257D01*
X120949699Y-63334633D01*
X120953013Y-63336309D01*
X122096641Y-63936531D01*
X122099877Y-63938293D01*
X122797193Y-64331581D01*
X123224806Y-64572756D01*
X123228040Y-64574645D01*
X123484988Y-64729975D01*
X124333307Y-65242801D01*
X124336413Y-65244743D01*
X124955941Y-65645298D01*
X125421007Y-65945986D01*
X125424121Y-65948067D01*
X126486992Y-66681714D01*
X126490042Y-66683888D01*
X127530272Y-67449304D01*
X127533255Y-67451569D01*
X128549900Y-68248059D01*
X128552813Y-68250413D01*
X129544948Y-69077254D01*
X129547789Y-69079696D01*
X130514472Y-69936102D01*
X130517236Y-69938626D01*
X130946718Y-70342914D01*
X131457627Y-70823853D01*
X131460315Y-70826461D01*
X132373538Y-71739684D01*
X132376146Y-71742372D01*
X133261371Y-72682761D01*
X133263897Y-72685527D01*
X134120303Y-73652210D01*
X134122745Y-73655051D01*
X134949586Y-74647186D01*
X134951940Y-74650099D01*
X135748430Y-75666744D01*
X135750695Y-75669727D01*
X136516111Y-76709957D01*
X136518285Y-76713007D01*
X137251932Y-77775878D01*
X137254013Y-77778992D01*
X137593739Y-78304437D01*
X137809730Y-78638505D01*
X137955234Y-78863551D01*
X137957209Y-78866710D01*
X138099878Y-79102713D01*
X138625354Y-79971959D01*
X138627243Y-79975193D01*
X139261691Y-81100095D01*
X139263482Y-81103385D01*
X139863683Y-82246972D01*
X139865373Y-82250315D01*
X140430733Y-83411453D01*
X140432322Y-83414845D01*
X140724888Y-84064900D01*
X140946242Y-84556728D01*
X140962376Y-84592575D01*
X140963861Y-84596013D01*
X141458090Y-85789190D01*
X141459471Y-85792672D01*
X141737941Y-86526937D01*
X141897536Y-86947754D01*
X141917443Y-87000243D01*
X141918718Y-87003765D01*
X142340006Y-88224614D01*
X142341174Y-88228173D01*
X142725386Y-89461151D01*
X142726447Y-89464743D01*
X143073265Y-90708837D01*
X143074216Y-90712460D01*
X143383290Y-91966428D01*
X143384131Y-91970078D01*
X143655186Y-93232781D01*
X143655917Y-93236454D01*
X143888720Y-94506818D01*
X143889339Y-94510512D01*
X144083659Y-95787274D01*
X144084167Y-95790985D01*
X144239842Y-97073084D01*
X144240237Y-97076809D01*
X144357113Y-98362979D01*
X144357396Y-98366714D01*
X144435377Y-99655885D01*
X144435546Y-99659627D01*
X144474552Y-100950494D01*
X144474609Y-100954239D01*
X144474609Y-102245760D01*
X144474552Y-102249505D01*
X144435546Y-103540372D01*
X144435377Y-103544114D01*
X144357396Y-104833285D01*
X144357113Y-104837020D01*
X144240237Y-106123190D01*
X144239842Y-106126915D01*
X144084167Y-107409014D01*
X144083659Y-107412725D01*
X143889339Y-108689487D01*
X143888720Y-108693181D01*
X143655917Y-109963545D01*
X143655186Y-109967218D01*
X143384131Y-111229921D01*
X143383290Y-111233571D01*
X143074216Y-112487539D01*
X143073265Y-112491162D01*
X142726447Y-113735256D01*
X142725386Y-113738848D01*
X142341174Y-114971826D01*
X142340006Y-114975385D01*
X141918718Y-116196234D01*
X141917443Y-116199756D01*
X141459471Y-117407327D01*
X141458090Y-117410809D01*
X140963861Y-118603986D01*
X140962376Y-118607424D01*
X140432322Y-119785154D01*
X140430733Y-119788546D01*
X139865373Y-120949684D01*
X139863683Y-120953027D01*
X139263482Y-122096614D01*
X139261691Y-122099904D01*
X138627243Y-123224806D01*
X138625354Y-123228040D01*
X137957220Y-124333272D01*
X137955234Y-124336448D01*
X137254013Y-125421007D01*
X137251932Y-125424121D01*
X136518285Y-126486992D01*
X136516111Y-126490042D01*
X135750695Y-127530272D01*
X135748430Y-127533255D01*
X134951940Y-128549900D01*
X134949586Y-128552813D01*
X134122745Y-129544948D01*
X134120303Y-129547789D01*
X133263897Y-130514472D01*
X133261371Y-130517238D01*
X132376146Y-131457627D01*
X132373538Y-131460315D01*
X131460315Y-132373538D01*
X131457627Y-132376146D01*
X130517238Y-133261371D01*
X130514472Y-133263897D01*
X129547789Y-134120303D01*
X129544948Y-134122745D01*
X128552813Y-134949586D01*
X128549900Y-134951940D01*
X127533255Y-135748430D01*
X127530272Y-135750695D01*
X126490042Y-136516111D01*
X126486992Y-136518285D01*
X125424121Y-137251932D01*
X125421007Y-137254013D01*
X124336448Y-137955234D01*
X124333272Y-137957220D01*
X123228040Y-138625354D01*
X123224806Y-138627243D01*
X122099904Y-139261691D01*
X122096614Y-139263482D01*
X120953027Y-139863683D01*
X120949684Y-139865373D01*
X119788546Y-140430733D01*
X119785154Y-140432322D01*
X118607424Y-140962376D01*
X118603986Y-140963861D01*
X117410809Y-141458090D01*
X117407327Y-141459471D01*
X116199756Y-141917443D01*
X116196234Y-141918718D01*
X114975385Y-142340006D01*
X114971826Y-142341174D01*
X113738848Y-142725386D01*
X113735256Y-142726447D01*
X112491162Y-143073265D01*
X112487539Y-143074216D01*
X111233571Y-143383290D01*
X111229921Y-143384131D01*
X109967218Y-143655186D01*
X109963545Y-143655917D01*
X108693181Y-143888720D01*
X108689487Y-143889339D01*
X107412725Y-144083659D01*
X107409014Y-144084167D01*
X106126915Y-144239842D01*
X106123190Y-144240237D01*
X104837020Y-144357113D01*
X104833285Y-144357396D01*
X103544114Y-144435377D01*
X103540372Y-144435546D01*
X102249505Y-144474552D01*
X102245760Y-144474609D01*
X100954240Y-144474609D01*
X100950495Y-144474552D01*
X99659627Y-144435546D01*
X99655885Y-144435377D01*
X98366714Y-144357396D01*
X98362979Y-144357113D01*
X97076809Y-144240237D01*
X97073084Y-144239842D01*
X95790985Y-144084167D01*
X95787274Y-144083659D01*
X94510512Y-143889339D01*
X94506818Y-143888720D01*
X93236454Y-143655917D01*
X93232781Y-143655186D01*
X91970078Y-143384131D01*
X91966428Y-143383290D01*
X90712460Y-143074216D01*
X90708837Y-143073265D01*
X89464743Y-142726447D01*
X89461151Y-142725386D01*
X88228173Y-142341174D01*
X88224614Y-142340006D01*
X87003765Y-141918718D01*
X87000243Y-141917443D01*
X85792672Y-141459471D01*
X85789190Y-141458090D01*
X84596013Y-140963861D01*
X84592575Y-140962376D01*
X83414845Y-140432322D01*
X83411453Y-140430733D01*
X82250315Y-139865373D01*
X82246972Y-139863683D01*
X81103385Y-139263482D01*
X81100095Y-139261691D01*
X79975193Y-138627243D01*
X79971959Y-138625354D01*
X79065010Y-138077086D01*
X78866710Y-137957209D01*
X78863568Y-137955245D01*
X78279786Y-137577801D01*
X77778992Y-137254013D01*
X77775878Y-137251932D01*
X76713007Y-136518285D01*
X76709957Y-136516111D01*
X75669727Y-135750695D01*
X75666744Y-135748430D01*
X74650099Y-134951940D01*
X74647186Y-134949586D01*
X73655051Y-134122745D01*
X73652210Y-134120303D01*
X72685527Y-133263897D01*
X72682761Y-133261371D01*
X71742372Y-132376146D01*
X71739684Y-132373538D01*
X70826461Y-131460315D01*
X70823853Y-131457627D01*
X69938628Y-130517238D01*
X69936102Y-130514472D01*
X69908218Y-130482998D01*
X69761506Y-130317394D01*
X69314052Y-129812322D01*
X69242443Y-129731492D01*
X80482836Y-129731492D01*
X80482836Y-129731496D01*
X80507268Y-130094089D01*
X80507270Y-130094105D01*
X80569468Y-130452155D01*
X80668759Y-130801767D01*
X80804047Y-131139074D01*
X80885385Y-131292987D01*
X80973854Y-131460395D01*
X81128450Y-131690850D01*
X81176318Y-131762205D01*
X81409215Y-132041193D01*
X81409218Y-132041196D01*
X81409219Y-132041197D01*
X81493432Y-132122933D01*
X81670009Y-132294317D01*
X81955829Y-132518791D01*
X82109683Y-132615473D01*
X82109684Y-132615473D01*
X82149983Y-132640796D01*
X82149987Y-132640797D01*
X82152399Y-132641828D01*
X82169645Y-132650862D01*
X82611768Y-132928718D01*
X83633722Y-133525764D01*
X84674430Y-134089484D01*
X85732804Y-134619292D01*
X85732822Y-134619301D01*
X86524162Y-134983957D01*
X86807742Y-135114633D01*
X87898120Y-135574991D01*
X89002800Y-135999885D01*
X90120630Y-136388872D01*
X91250441Y-136741545D01*
X92391057Y-137057536D01*
X93541284Y-137336517D01*
X94699923Y-137578194D01*
X95865765Y-137782317D01*
X96704881Y-137901439D01*
X97037591Y-137948672D01*
X97233691Y-137970074D01*
X98214182Y-138077086D01*
X99394306Y-138167423D01*
X100069978Y-138197233D01*
X100576730Y-138219591D01*
X101760210Y-138233535D01*
X101760216Y-138233534D01*
X101760227Y-138233535D01*
X102877813Y-138210588D01*
X102943555Y-138209239D01*
X103074879Y-138202293D01*
X104125479Y-138146730D01*
X105304767Y-138046073D01*
X106480189Y-137907372D01*
X107650516Y-137730773D01*
X108814528Y-137516460D01*
X109971009Y-137264657D01*
X111118752Y-136975626D01*
X112256560Y-136649669D01*
X113383243Y-136287126D01*
X114497627Y-135888376D01*
X115598549Y-135453835D01*
X116684858Y-134983957D01*
X117755421Y-134479232D01*
X118064517Y-134321107D01*
X118809117Y-133940189D01*
X118809121Y-133940187D01*
X119844858Y-133367384D01*
X120861550Y-132761422D01*
X121858137Y-132122933D01*
X122833578Y-131452583D01*
X123786854Y-130751072D01*
X124716972Y-130019133D01*
X125622959Y-129257530D01*
X126503871Y-128467057D01*
X127358788Y-127648539D01*
X128186817Y-126802831D01*
X128987094Y-125930816D01*
X129758783Y-125033404D01*
X130501080Y-124111532D01*
X130850941Y-123647044D01*
X130857071Y-123638911D01*
X130857073Y-123638912D01*
X130966392Y-123493885D01*
X131153512Y-123182566D01*
X131307065Y-122853392D01*
X131425369Y-122509972D01*
X131507128Y-122156066D01*
X131551445Y-121795553D01*
X131557835Y-121432382D01*
X131526229Y-121070533D01*
X131456972Y-120713970D01*
X131350823Y-120366599D01*
X131350223Y-120365186D01*
X131208945Y-120032228D01*
X131208945Y-120032227D01*
X131120919Y-119873373D01*
X131032894Y-119714518D01*
X130824596Y-119416951D01*
X130824595Y-119416949D01*
X130586337Y-119142788D01*
X130586331Y-119142782D01*
X130320729Y-118895036D01*
X130320725Y-118895033D01*
X130320723Y-118895031D01*
X130030667Y-118676396D01*
X129719346Y-118489277D01*
X129600557Y-118433865D01*
X129390177Y-118335728D01*
X129390174Y-118335727D01*
X129390172Y-118335726D01*
X129046750Y-118217425D01*
X129046743Y-118217423D01*
X129046739Y-118217422D01*
X128692845Y-118135668D01*
X128332331Y-118091354D01*
X128332326Y-118091353D01*
X127969164Y-118084966D01*
X127969163Y-118084966D01*
X127969160Y-118084966D01*
X127727927Y-118106038D01*
X127607309Y-118116575D01*
X127250746Y-118185834D01*
X126903386Y-118291982D01*
X126903377Y-118291985D01*
X126569010Y-118433862D01*
X126251300Y-118609917D01*
X126251294Y-118609921D01*
X125953733Y-118818217D01*
X125679574Y-119056476D01*
X125679574Y-119056477D01*
X125679571Y-119056480D01*
X125431816Y-119322095D01*
X125431813Y-119322097D01*
X125431810Y-119322102D01*
X125356723Y-119421713D01*
X125356724Y-119421714D01*
X125351108Y-119429163D01*
X125351066Y-119429195D01*
X125325441Y-119463219D01*
X125325020Y-119463778D01*
X125323478Y-119465825D01*
X125323368Y-119465971D01*
X125322988Y-119466474D01*
X125321728Y-119468112D01*
X124660667Y-120313478D01*
X124657835Y-120316968D01*
X124444348Y-120570476D01*
X124386108Y-120609075D01*
X124316245Y-120610060D01*
X124256940Y-120573117D01*
X124227023Y-120509977D01*
X124225500Y-120490602D01*
X124225500Y-119983331D01*
X124225499Y-119983318D01*
X124222748Y-119956394D01*
X124215436Y-119884815D01*
X124162549Y-119725213D01*
X124162545Y-119725207D01*
X124162544Y-119725204D01*
X124074283Y-119582112D01*
X124074280Y-119582108D01*
X124042353Y-119550181D01*
X124008868Y-119488858D01*
X124013852Y-119419166D01*
X124042353Y-119374819D01*
X124054057Y-119363115D01*
X124074281Y-119342891D01*
X124162549Y-119199787D01*
X124215436Y-119040185D01*
X124225500Y-118941674D01*
X124225500Y-118408326D01*
X124215436Y-118309815D01*
X124162549Y-118150213D01*
X124162545Y-118150207D01*
X124162544Y-118150204D01*
X124074283Y-118007112D01*
X124074280Y-118007108D01*
X123955391Y-117888219D01*
X123955387Y-117888216D01*
X123812295Y-117799955D01*
X123812289Y-117799952D01*
X123812287Y-117799951D01*
X123652685Y-117747064D01*
X123652683Y-117747063D01*
X123554181Y-117737000D01*
X123554174Y-117737000D01*
X122945826Y-117737000D01*
X122945818Y-117737000D01*
X122847316Y-117747063D01*
X122847315Y-117747064D01*
X122768219Y-117773273D01*
X122687715Y-117799950D01*
X122687704Y-117799955D01*
X122544612Y-117888216D01*
X122544608Y-117888219D01*
X122425719Y-118007108D01*
X122425716Y-118007112D01*
X122420483Y-118015597D01*
X122368535Y-118062322D01*
X122314945Y-118074500D01*
X121717520Y-118074500D01*
X121650481Y-118054815D01*
X121648628Y-118053601D01*
X121629186Y-118040610D01*
X121629172Y-118040602D01*
X121483501Y-117980264D01*
X121483489Y-117980261D01*
X121328845Y-117949500D01*
X121328842Y-117949500D01*
X121171158Y-117949500D01*
X121171155Y-117949500D01*
X121016510Y-117980261D01*
X121016498Y-117980264D01*
X120870827Y-118040602D01*
X120870814Y-118040609D01*
X120739711Y-118128210D01*
X120739707Y-118128213D01*
X120628213Y-118239707D01*
X120628210Y-118239711D01*
X120540609Y-118370814D01*
X120540602Y-118370827D01*
X120480264Y-118516498D01*
X120480261Y-118516510D01*
X120449500Y-118671153D01*
X120449500Y-118828846D01*
X120480261Y-118983489D01*
X120480264Y-118983501D01*
X120540602Y-119129172D01*
X120540609Y-119129185D01*
X120625752Y-119256609D01*
X120646630Y-119323286D01*
X120628146Y-119390666D01*
X120576167Y-119437357D01*
X120522650Y-119449500D01*
X120418384Y-119449500D01*
X120399145Y-119451248D01*
X120347807Y-119455913D01*
X120185393Y-119506522D01*
X120039811Y-119594530D01*
X119919530Y-119714811D01*
X119831522Y-119860393D01*
X119780913Y-120022807D01*
X119779000Y-120043864D01*
X119774500Y-120093384D01*
X119774500Y-120606616D01*
X119774813Y-120610060D01*
X119780913Y-120677192D01*
X119780913Y-120677194D01*
X119780914Y-120677196D01*
X119792373Y-120713970D01*
X119831522Y-120839606D01*
X119919530Y-120985188D01*
X120039811Y-121105469D01*
X120039813Y-121105470D01*
X120039815Y-121105472D01*
X120185394Y-121193478D01*
X120347804Y-121244086D01*
X120418384Y-121250500D01*
X120418387Y-121250500D01*
X121081613Y-121250500D01*
X121081616Y-121250500D01*
X121152196Y-121244086D01*
X121314606Y-121193478D01*
X121460185Y-121105472D01*
X121495128Y-121070529D01*
X121578839Y-120986819D01*
X121640162Y-120953334D01*
X121666520Y-120950500D01*
X122406966Y-120950500D01*
X122474005Y-120970185D01*
X122494647Y-120986819D01*
X122544608Y-121036780D01*
X122544612Y-121036783D01*
X122687704Y-121125044D01*
X122687707Y-121125045D01*
X122687713Y-121125049D01*
X122847315Y-121177936D01*
X122945826Y-121188000D01*
X122945831Y-121188000D01*
X123554169Y-121188000D01*
X123554174Y-121188000D01*
X123637137Y-121179524D01*
X123705828Y-121192293D01*
X123756713Y-121240173D01*
X123773634Y-121307963D01*
X123751219Y-121374139D01*
X123741628Y-121386141D01*
X123244485Y-121934820D01*
X123241407Y-121938096D01*
X122493265Y-122705926D01*
X122490071Y-122709088D01*
X121714576Y-123449313D01*
X121711269Y-123452357D01*
X120909466Y-124163979D01*
X120906050Y-124166902D01*
X120078970Y-124849007D01*
X120075451Y-124851803D01*
X119224211Y-125503469D01*
X119220593Y-125506136D01*
X118346306Y-126126514D01*
X118342594Y-126129049D01*
X117446354Y-126717359D01*
X117442552Y-126719757D01*
X116525614Y-127275176D01*
X116521728Y-127277435D01*
X115585227Y-127799276D01*
X115581261Y-127801392D01*
X114626499Y-128288929D01*
X114622460Y-128290900D01*
X113650644Y-128743519D01*
X113646535Y-128745343D01*
X112658933Y-129162451D01*
X112654797Y-129164110D01*
X111652725Y-129545149D01*
X111648517Y-129546663D01*
X110633288Y-129891135D01*
X110629006Y-129892502D01*
X109601958Y-130199953D01*
X109597629Y-130201163D01*
X108560157Y-130471177D01*
X108555787Y-130472230D01*
X107509221Y-130704463D01*
X107504816Y-130705358D01*
X106450441Y-130899521D01*
X106446006Y-130900254D01*
X105385373Y-131056062D01*
X105380915Y-131056635D01*
X104315292Y-131173904D01*
X104310816Y-131174315D01*
X103241632Y-131252887D01*
X103237144Y-131253135D01*
X102165824Y-131292903D01*
X102161330Y-131292988D01*
X101089276Y-131293903D01*
X101084781Y-131293825D01*
X100013422Y-131255883D01*
X100008934Y-131255643D01*
X98939619Y-131178895D01*
X98935142Y-131178492D01*
X97869323Y-131063039D01*
X97864864Y-131062474D01*
X96803938Y-130908470D01*
X96799502Y-130907744D01*
X95744829Y-130715385D01*
X95740422Y-130714498D01*
X94693431Y-130484044D01*
X94689060Y-130482998D01*
X93651134Y-130214755D01*
X93646803Y-130213552D01*
X92619240Y-129907855D01*
X92614955Y-129906495D01*
X91599166Y-129563762D01*
X91594934Y-129562248D01*
X90592237Y-129182927D01*
X90588086Y-129181270D01*
X89599753Y-128765838D01*
X89595650Y-128764025D01*
X88623073Y-128313068D01*
X88619030Y-128311104D01*
X87663406Y-127825180D01*
X87659437Y-127823070D01*
X87616564Y-127799276D01*
X87527693Y-127749953D01*
X86722081Y-127302844D01*
X86718191Y-127300592D01*
X85955284Y-126840251D01*
X85853678Y-126778941D01*
X85851091Y-126777337D01*
X85841178Y-126771016D01*
X85839702Y-126769248D01*
X85799404Y-126743925D01*
X85799378Y-126743966D01*
X85755703Y-126716520D01*
X85755565Y-126716432D01*
X85645524Y-126647282D01*
X85645521Y-126647280D01*
X85319281Y-126487131D01*
X85319277Y-126487129D01*
X85319268Y-126487125D01*
X84978101Y-126361965D01*
X84978094Y-126361962D01*
X84625672Y-126273139D01*
X84265921Y-126221645D01*
X84265923Y-126221645D01*
X83902751Y-126208036D01*
X83540137Y-126232465D01*
X83182072Y-126294662D01*
X82832470Y-126393947D01*
X82495157Y-126529232D01*
X82173834Y-126699035D01*
X81872026Y-126901493D01*
X81593033Y-127134391D01*
X81593030Y-127134393D01*
X81593030Y-127134394D01*
X81478234Y-127252666D01*
X81339906Y-127395182D01*
X81115435Y-127680991D01*
X80922060Y-127988713D01*
X80761915Y-128314955D01*
X80636748Y-128656151D01*
X80547935Y-129008547D01*
X80547933Y-129008558D01*
X80496441Y-129368323D01*
X80482836Y-129731492D01*
X69242443Y-129731492D01*
X69079696Y-129547789D01*
X69077254Y-129544948D01*
X68250413Y-128552813D01*
X68248059Y-128549900D01*
X67451569Y-127533255D01*
X67449304Y-127530272D01*
X66683888Y-126490042D01*
X66681714Y-126486992D01*
X65948067Y-125424121D01*
X65945986Y-125421007D01*
X65590041Y-124870477D01*
X65244743Y-124336413D01*
X65242801Y-124333307D01*
X64735052Y-123493386D01*
X64574645Y-123228040D01*
X64572756Y-123224806D01*
X64318248Y-122773553D01*
X63938293Y-122099877D01*
X63936531Y-122096641D01*
X63336309Y-120953013D01*
X63334626Y-120949684D01*
X63312334Y-120903901D01*
X62769257Y-119788528D01*
X62767677Y-119785154D01*
X62237607Y-118607387D01*
X62236154Y-118604024D01*
X61741905Y-117410799D01*
X61740528Y-117407327D01*
X61700621Y-117302101D01*
X61282539Y-116199710D01*
X61281298Y-116196280D01*
X60859992Y-114975383D01*
X60858825Y-114971826D01*
X60474613Y-113738848D01*
X60473552Y-113735256D01*
X60370866Y-113366904D01*
X60126723Y-112491120D01*
X60125794Y-112487581D01*
X59816707Y-111233562D01*
X59815868Y-111229921D01*
X59776570Y-111046853D01*
X59544805Y-109967178D01*
X59544090Y-109963585D01*
X59311279Y-108693181D01*
X59310660Y-108689487D01*
X59116332Y-107412669D01*
X59115839Y-107409069D01*
X58960153Y-106126881D01*
X58959765Y-106123224D01*
X58842882Y-104836976D01*
X58842606Y-104833328D01*
X58764619Y-103544066D01*
X58764455Y-103540421D01*
X58725448Y-102249505D01*
X58725391Y-102245760D01*
X58725391Y-101248462D01*
X64946605Y-101248462D01*
X64949767Y-102196134D01*
X64977430Y-103143448D01*
X64999507Y-103544114D01*
X65003501Y-103616584D01*
X65003500Y-103616584D01*
X65006119Y-103664107D01*
X65006121Y-103664114D01*
X65006656Y-103673807D01*
X65006655Y-103673810D01*
X65006657Y-103673826D01*
X65013514Y-103798578D01*
X65013516Y-103798590D01*
X65071473Y-104158560D01*
X65071477Y-104158578D01*
X65166740Y-104510508D01*
X65166742Y-104510513D01*
X65298276Y-104850573D01*
X65298281Y-104850583D01*
X65298282Y-104850585D01*
X65422898Y-105093623D01*
X65464649Y-105175048D01*
X65664006Y-105480320D01*
X65664011Y-105480326D01*
X65664013Y-105480329D01*
X65736241Y-105569059D01*
X65894191Y-105763096D01*
X65894196Y-105763101D01*
X65894199Y-105763105D01*
X66152682Y-106020271D01*
X66152684Y-106020273D01*
X66436624Y-106249004D01*
X66436640Y-106249015D01*
X66742919Y-106446805D01*
X66742923Y-106446807D01*
X66742934Y-106446814D01*
X67068235Y-106611518D01*
X67107772Y-106626579D01*
X67259249Y-106684282D01*
X67314889Y-106726542D01*
X67338850Y-106792175D01*
X67334085Y-106835090D01*
X67330978Y-106845671D01*
X67330977Y-106845676D01*
X67330977Y-106845679D01*
X67330976Y-106845683D01*
X67310500Y-106988099D01*
X67310500Y-113016153D01*
X67324419Y-113133960D01*
X67337890Y-113190172D01*
X67378883Y-113301493D01*
X67378884Y-113301495D01*
X67461688Y-113419155D01*
X67461691Y-113419158D01*
X67509625Y-113469992D01*
X67509626Y-113469993D01*
X67622229Y-113559561D01*
X67727096Y-113602220D01*
X67755501Y-113613775D01*
X67755502Y-113613775D01*
X67755504Y-113613776D01*
X67823312Y-113630625D01*
X67823316Y-113630625D01*
X67823319Y-113630626D01*
X67932710Y-113641684D01*
X67966458Y-113645096D01*
X67966462Y-113645095D01*
X67966465Y-113645096D01*
X67982901Y-113644404D01*
X67988253Y-113644179D01*
X68056061Y-113661026D01*
X68103997Y-113711859D01*
X68116960Y-113779290D01*
X68110500Y-113850385D01*
X68110500Y-114363613D01*
X68116913Y-114434192D01*
X68116913Y-114434194D01*
X68116914Y-114434196D01*
X68164690Y-114587519D01*
X68167522Y-114596606D01*
X68255530Y-114742188D01*
X68375811Y-114862469D01*
X68375813Y-114862470D01*
X68375815Y-114862472D01*
X68521394Y-114950478D01*
X68683804Y-115001086D01*
X68754384Y-115007500D01*
X68754387Y-115007500D01*
X69417613Y-115007500D01*
X69417616Y-115007500D01*
X69488196Y-115001086D01*
X69650606Y-114950478D01*
X69796185Y-114862472D01*
X69916472Y-114742185D01*
X70004478Y-114596606D01*
X70055086Y-114434196D01*
X70061500Y-114363616D01*
X70061500Y-114302000D01*
X70081185Y-114234961D01*
X70133989Y-114189206D01*
X70185500Y-114178000D01*
X71976500Y-114178000D01*
X72043539Y-114197685D01*
X72089294Y-114250489D01*
X72100500Y-114302000D01*
X72100500Y-115119201D01*
X72103401Y-115156067D01*
X72103402Y-115156073D01*
X72149254Y-115313893D01*
X72149255Y-115313896D01*
X72232917Y-115455362D01*
X72232923Y-115455370D01*
X72264180Y-115486626D01*
X72297666Y-115547948D01*
X72300500Y-115574308D01*
X72300500Y-116438330D01*
X72300499Y-116438348D01*
X72300499Y-116604054D01*
X72300498Y-116604054D01*
X72341423Y-116756785D01*
X72370358Y-116806900D01*
X72370359Y-116806904D01*
X72370360Y-116806904D01*
X72420479Y-116893714D01*
X72420481Y-116893717D01*
X72539349Y-117012585D01*
X72539355Y-117012590D01*
X75960181Y-120433416D01*
X75993666Y-120494739D01*
X75996500Y-120521097D01*
X75996500Y-120852613D01*
X76002913Y-120923192D01*
X76002913Y-120923194D01*
X76002914Y-120923196D01*
X76053522Y-121085606D01*
X76141528Y-121231185D01*
X76260182Y-121349839D01*
X76293666Y-121411160D01*
X76296500Y-121437519D01*
X76296500Y-122908480D01*
X76276815Y-122975519D01*
X76260181Y-122996161D01*
X76141531Y-123114810D01*
X76141530Y-123114811D01*
X76053522Y-123260393D01*
X76002913Y-123422807D01*
X75996500Y-123493386D01*
X75996500Y-124156613D01*
X76002913Y-124227192D01*
X76053522Y-124389606D01*
X76141530Y-124535188D01*
X76261811Y-124655469D01*
X76261813Y-124655470D01*
X76261815Y-124655472D01*
X76407394Y-124743478D01*
X76569804Y-124794086D01*
X76640384Y-124800500D01*
X76640387Y-124800500D01*
X77153613Y-124800500D01*
X77153616Y-124800500D01*
X77224196Y-124794086D01*
X77386606Y-124743478D01*
X77532185Y-124655472D01*
X77575837Y-124611820D01*
X77634319Y-124553339D01*
X77695642Y-124519854D01*
X77765334Y-124524838D01*
X77809681Y-124553339D01*
X77911811Y-124655469D01*
X77911813Y-124655470D01*
X77911815Y-124655472D01*
X78057394Y-124743478D01*
X78219804Y-124794086D01*
X78290384Y-124800500D01*
X78290387Y-124800500D01*
X78803613Y-124800500D01*
X78803616Y-124800500D01*
X78874196Y-124794086D01*
X79036606Y-124743478D01*
X79182185Y-124655472D01*
X79225837Y-124611820D01*
X79287160Y-124578334D01*
X79313519Y-124575500D01*
X111908920Y-124575500D01*
X112020326Y-124553339D01*
X112053913Y-124546658D01*
X112190495Y-124490084D01*
X112239729Y-124457186D01*
X112313416Y-124407952D01*
X113420087Y-123301278D01*
X113481408Y-123267795D01*
X113527163Y-123266488D01*
X113562789Y-123272130D01*
X113741903Y-123300500D01*
X113741908Y-123300500D01*
X113978097Y-123300500D01*
X114211368Y-123263553D01*
X114249725Y-123251090D01*
X114435992Y-123190568D01*
X114646433Y-123083343D01*
X114837510Y-122944517D01*
X115004517Y-122777510D01*
X115143343Y-122586433D01*
X115250568Y-122375992D01*
X115323553Y-122151368D01*
X115357332Y-121938096D01*
X115360500Y-121918097D01*
X115360500Y-121681902D01*
X115323553Y-121448631D01*
X115258036Y-121246992D01*
X115250568Y-121224008D01*
X115250566Y-121224005D01*
X115250566Y-121224003D01*
X115192851Y-121110732D01*
X115143343Y-121013567D01*
X115004517Y-120822490D01*
X114837510Y-120655483D01*
X114646433Y-120516657D01*
X114633323Y-120509977D01*
X114435996Y-120409433D01*
X114211368Y-120336446D01*
X113978097Y-120299500D01*
X113978092Y-120299500D01*
X113969096Y-120299500D01*
X113902057Y-120279815D01*
X113856302Y-120227011D01*
X113846358Y-120157853D01*
X113875383Y-120094297D01*
X113881415Y-120087819D01*
X116521450Y-117447785D01*
X119286416Y-114682819D01*
X119347739Y-114649334D01*
X119374097Y-114646500D01*
X132626421Y-114646500D01*
X132658514Y-114650724D01*
X132737543Y-114671901D01*
X132737545Y-114671901D01*
X132895654Y-114671901D01*
X132895657Y-114671901D01*
X133048385Y-114630977D01*
X133123656Y-114587519D01*
X133185316Y-114551920D01*
X133297120Y-114440116D01*
X133355623Y-114338785D01*
X133376177Y-114303185D01*
X133417101Y-114150457D01*
X133417101Y-113992343D01*
X133417101Y-113984748D01*
X133417100Y-113984730D01*
X133417100Y-113357496D01*
X133436785Y-113290457D01*
X133453415Y-113269819D01*
X134135478Y-112587755D01*
X134196799Y-112554272D01*
X134261473Y-112557506D01*
X134303757Y-112571246D01*
X134513713Y-112604500D01*
X134513714Y-112604500D01*
X134726286Y-112604500D01*
X134726287Y-112604500D01*
X134936243Y-112571246D01*
X135138412Y-112505557D01*
X135327816Y-112409051D01*
X135414147Y-112346328D01*
X135499784Y-112284110D01*
X135499784Y-112284109D01*
X135499792Y-112284104D01*
X135613329Y-112170566D01*
X135674648Y-112137084D01*
X135744340Y-112142068D01*
X135800274Y-112183939D01*
X135817189Y-112214917D01*
X135866202Y-112346328D01*
X135866206Y-112346335D01*
X135952452Y-112461544D01*
X135952455Y-112461547D01*
X136067664Y-112547793D01*
X136067671Y-112547797D01*
X136202517Y-112598091D01*
X136202516Y-112598091D01*
X136209444Y-112598835D01*
X136262127Y-112604500D01*
X138057872Y-112604499D01*
X138117483Y-112598091D01*
X138252331Y-112547796D01*
X138367546Y-112461546D01*
X138453796Y-112346331D01*
X138504091Y-112211483D01*
X138510500Y-112151873D01*
X138510499Y-110356128D01*
X138504091Y-110296517D01*
X138496572Y-110276358D01*
X138453797Y-110161671D01*
X138453793Y-110161664D01*
X138367547Y-110046455D01*
X138367544Y-110046452D01*
X138252335Y-109960206D01*
X138252328Y-109960202D01*
X138117482Y-109909908D01*
X138117483Y-109909908D01*
X138057883Y-109903501D01*
X138057881Y-109903500D01*
X138057873Y-109903500D01*
X138057865Y-109903500D01*
X136710097Y-109903500D01*
X136680656Y-109894855D01*
X136650670Y-109888332D01*
X136645654Y-109884577D01*
X136643058Y-109883815D01*
X136622416Y-109867181D01*
X136496590Y-109741355D01*
X136496588Y-109741352D01*
X136377717Y-109622481D01*
X136377712Y-109622477D01*
X136277196Y-109564445D01*
X136277195Y-109564444D01*
X136240790Y-109543425D01*
X136240789Y-109543424D01*
X136228263Y-109540067D01*
X136088057Y-109502499D01*
X135929943Y-109502499D01*
X135922347Y-109502499D01*
X135922331Y-109502500D01*
X134064181Y-109502500D01*
X134030477Y-109511530D01*
X134030478Y-109511531D01*
X133911454Y-109543423D01*
X133911449Y-109543426D01*
X133774530Y-109622475D01*
X133774522Y-109622481D01*
X133154131Y-110242873D01*
X133092808Y-110276358D01*
X133023116Y-110271374D01*
X132978769Y-110242873D01*
X132959786Y-110223890D01*
X132787820Y-110098951D01*
X132598414Y-110002444D01*
X132598413Y-110002443D01*
X132598412Y-110002443D01*
X132396243Y-109936754D01*
X132396241Y-109936753D01*
X132396240Y-109936753D01*
X132234957Y-109911208D01*
X132186287Y-109903500D01*
X131973713Y-109903500D01*
X131925042Y-109911208D01*
X131763760Y-109936753D01*
X131561585Y-110002444D01*
X131372179Y-110098951D01*
X131200213Y-110223890D01*
X131049890Y-110374213D01*
X130924949Y-110546182D01*
X130920484Y-110554946D01*
X130872509Y-110605742D01*
X130804688Y-110622536D01*
X130738553Y-110599998D01*
X130699516Y-110554946D01*
X130695050Y-110546182D01*
X130570109Y-110374213D01*
X130419786Y-110223890D01*
X130247820Y-110098951D01*
X130058414Y-110002444D01*
X130058413Y-110002443D01*
X130058412Y-110002443D01*
X129856243Y-109936754D01*
X129856241Y-109936753D01*
X129856240Y-109936753D01*
X129694957Y-109911208D01*
X129646287Y-109903500D01*
X129433713Y-109903500D01*
X129385042Y-109911208D01*
X129223760Y-109936753D01*
X129021585Y-110002444D01*
X128832179Y-110098951D01*
X128660213Y-110223890D01*
X128509890Y-110374213D01*
X128384949Y-110546182D01*
X128380484Y-110554946D01*
X128332509Y-110605742D01*
X128264688Y-110622536D01*
X128198553Y-110599998D01*
X128159516Y-110554946D01*
X128155050Y-110546182D01*
X128030109Y-110374213D01*
X127879786Y-110223890D01*
X127707820Y-110098951D01*
X127518414Y-110002444D01*
X127518413Y-110002443D01*
X127518412Y-110002443D01*
X127316243Y-109936754D01*
X127316241Y-109936753D01*
X127316240Y-109936753D01*
X127154957Y-109911208D01*
X127106287Y-109903500D01*
X126893713Y-109903500D01*
X126845042Y-109911208D01*
X126683760Y-109936753D01*
X126481585Y-110002444D01*
X126292179Y-110098951D01*
X126120213Y-110223890D01*
X125969890Y-110374213D01*
X125844949Y-110546182D01*
X125840484Y-110554946D01*
X125792509Y-110605742D01*
X125724688Y-110622536D01*
X125658553Y-110599998D01*
X125619516Y-110554946D01*
X125615050Y-110546182D01*
X125490109Y-110374213D01*
X125339786Y-110223890D01*
X125167820Y-110098951D01*
X124978414Y-110002444D01*
X124978413Y-110002443D01*
X124978412Y-110002443D01*
X124776243Y-109936754D01*
X124776241Y-109936753D01*
X124776240Y-109936753D01*
X124614957Y-109911208D01*
X124566287Y-109903500D01*
X124353713Y-109903500D01*
X124305042Y-109911208D01*
X124143760Y-109936753D01*
X123941585Y-110002444D01*
X123752179Y-110098951D01*
X123580213Y-110223890D01*
X123429890Y-110374213D01*
X123304949Y-110546182D01*
X123300484Y-110554946D01*
X123252509Y-110605742D01*
X123184688Y-110622536D01*
X123118553Y-110599998D01*
X123079516Y-110554946D01*
X123075050Y-110546182D01*
X122950109Y-110374213D01*
X122799786Y-110223890D01*
X122627820Y-110098951D01*
X122438414Y-110002444D01*
X122438413Y-110002443D01*
X122438412Y-110002443D01*
X122236243Y-109936754D01*
X122236241Y-109936753D01*
X122236240Y-109936753D01*
X122074957Y-109911208D01*
X122026287Y-109903500D01*
X121813713Y-109903500D01*
X121765042Y-109911208D01*
X121603760Y-109936753D01*
X121401585Y-110002444D01*
X121212179Y-110098951D01*
X121040213Y-110223890D01*
X120889890Y-110374213D01*
X120764949Y-110546182D01*
X120760484Y-110554946D01*
X120712509Y-110605742D01*
X120644688Y-110622536D01*
X120578553Y-110599998D01*
X120539516Y-110554946D01*
X120535050Y-110546182D01*
X120410109Y-110374213D01*
X120259786Y-110223890D01*
X120087820Y-110098951D01*
X119898414Y-110002444D01*
X119898413Y-110002443D01*
X119898412Y-110002443D01*
X119696243Y-109936754D01*
X119696241Y-109936753D01*
X119696240Y-109936753D01*
X119534957Y-109911208D01*
X119486287Y-109903500D01*
X119273713Y-109903500D01*
X119225042Y-109911208D01*
X119063760Y-109936753D01*
X118861585Y-110002444D01*
X118672179Y-110098951D01*
X118500213Y-110223890D01*
X118349890Y-110374213D01*
X118224949Y-110546182D01*
X118220484Y-110554946D01*
X118172509Y-110605742D01*
X118104688Y-110622536D01*
X118038553Y-110599998D01*
X117999516Y-110554946D01*
X117995050Y-110546182D01*
X117870109Y-110374213D01*
X117719786Y-110223890D01*
X117547820Y-110098951D01*
X117358414Y-110002444D01*
X117358413Y-110002443D01*
X117358412Y-110002443D01*
X117156243Y-109936754D01*
X117156241Y-109936753D01*
X117156240Y-109936753D01*
X116994957Y-109911208D01*
X116946287Y-109903500D01*
X116733713Y-109903500D01*
X116685042Y-109911208D01*
X116523760Y-109936753D01*
X116321585Y-110002444D01*
X116132179Y-110098951D01*
X115960213Y-110223890D01*
X115809890Y-110374213D01*
X115684949Y-110546182D01*
X115680484Y-110554946D01*
X115632509Y-110605742D01*
X115564688Y-110622536D01*
X115498553Y-110599998D01*
X115459516Y-110554946D01*
X115455050Y-110546182D01*
X115330109Y-110374213D01*
X115179786Y-110223890D01*
X115007820Y-110098951D01*
X114818414Y-110002444D01*
X114818413Y-110002443D01*
X114818412Y-110002443D01*
X114616243Y-109936754D01*
X114616241Y-109936753D01*
X114616240Y-109936753D01*
X114454957Y-109911208D01*
X114406287Y-109903500D01*
X114193713Y-109903500D01*
X114145042Y-109911208D01*
X113983760Y-109936753D01*
X113781585Y-110002444D01*
X113592179Y-110098951D01*
X113420213Y-110223890D01*
X113269890Y-110374213D01*
X113144949Y-110546182D01*
X113140484Y-110554946D01*
X113092509Y-110605742D01*
X113024688Y-110622536D01*
X112958553Y-110599998D01*
X112919516Y-110554946D01*
X112915050Y-110546182D01*
X112790109Y-110374213D01*
X112639786Y-110223890D01*
X112467820Y-110098951D01*
X112278414Y-110002444D01*
X112278413Y-110002443D01*
X112278412Y-110002443D01*
X112076243Y-109936754D01*
X112076241Y-109936753D01*
X112076240Y-109936753D01*
X111914957Y-109911208D01*
X111866287Y-109903500D01*
X111653713Y-109903500D01*
X111605042Y-109911208D01*
X111443760Y-109936753D01*
X111241585Y-110002444D01*
X111052179Y-110098951D01*
X110880213Y-110223890D01*
X110729890Y-110374213D01*
X110604949Y-110546182D01*
X110600484Y-110554946D01*
X110552509Y-110605742D01*
X110484688Y-110622536D01*
X110418553Y-110599998D01*
X110379516Y-110554946D01*
X110375050Y-110546182D01*
X110250109Y-110374213D01*
X110099786Y-110223890D01*
X109927820Y-110098951D01*
X109738414Y-110002444D01*
X109738413Y-110002443D01*
X109738412Y-110002443D01*
X109536243Y-109936754D01*
X109536241Y-109936753D01*
X109536240Y-109936753D01*
X109374957Y-109911208D01*
X109326287Y-109903500D01*
X109113713Y-109903500D01*
X109065042Y-109911208D01*
X108903760Y-109936753D01*
X108701585Y-110002444D01*
X108512179Y-110098951D01*
X108340213Y-110223890D01*
X108189890Y-110374213D01*
X108064949Y-110546182D01*
X108060484Y-110554946D01*
X108012509Y-110605742D01*
X107944688Y-110622536D01*
X107878553Y-110599998D01*
X107839516Y-110554946D01*
X107835050Y-110546182D01*
X107710109Y-110374213D01*
X107559786Y-110223890D01*
X107387820Y-110098951D01*
X107198414Y-110002444D01*
X107198413Y-110002443D01*
X107198412Y-110002443D01*
X106996243Y-109936754D01*
X106996241Y-109936753D01*
X106996240Y-109936753D01*
X106834957Y-109911208D01*
X106786287Y-109903500D01*
X106573713Y-109903500D01*
X106525042Y-109911208D01*
X106363760Y-109936753D01*
X106161585Y-110002444D01*
X105972179Y-110098951D01*
X105800213Y-110223890D01*
X105649890Y-110374213D01*
X105524949Y-110546182D01*
X105520484Y-110554946D01*
X105472509Y-110605742D01*
X105404688Y-110622536D01*
X105338553Y-110599998D01*
X105299516Y-110554946D01*
X105295050Y-110546182D01*
X105170109Y-110374213D01*
X105019786Y-110223890D01*
X104847820Y-110098951D01*
X104658414Y-110002444D01*
X104658413Y-110002443D01*
X104658412Y-110002443D01*
X104456243Y-109936754D01*
X104456241Y-109936753D01*
X104456240Y-109936753D01*
X104294957Y-109911208D01*
X104246287Y-109903500D01*
X104033713Y-109903500D01*
X103994202Y-109909757D01*
X103823759Y-109936753D01*
X103659853Y-109990010D01*
X103590012Y-109992005D01*
X103530179Y-109955925D01*
X103499351Y-109893224D01*
X103498250Y-109885374D01*
X103493947Y-109845344D01*
X103482741Y-109793833D01*
X103474948Y-109770419D01*
X103448616Y-109691302D01*
X103448613Y-109691296D01*
X103370828Y-109570262D01*
X103370825Y-109570257D01*
X103370820Y-109570251D01*
X103325076Y-109517459D01*
X103325072Y-109517456D01*
X103325070Y-109517453D01*
X103216336Y-109423233D01*
X103216333Y-109423231D01*
X103216331Y-109423230D01*
X103085465Y-109363464D01*
X103085460Y-109363462D01*
X103085459Y-109363462D01*
X103018420Y-109343777D01*
X103018422Y-109343777D01*
X103018417Y-109343776D01*
X102956347Y-109334852D01*
X102876000Y-109323300D01*
X102294116Y-109323300D01*
X102294105Y-109323300D01*
X102197277Y-109332662D01*
X102150630Y-109341768D01*
X102057374Y-109369513D01*
X102057372Y-109369513D01*
X102057372Y-109369514D01*
X101933112Y-109442047D01*
X101910716Y-109459833D01*
X101870528Y-109491748D01*
X101865222Y-109499449D01*
X101779606Y-109590100D01*
X101779603Y-109590105D01*
X101712275Y-109722248D01*
X101710873Y-109721533D01*
X101670851Y-109770437D01*
X101604391Y-109791999D01*
X101536825Y-109774208D01*
X101491253Y-109725950D01*
X101485437Y-109714936D01*
X101478495Y-109691293D01*
X101447413Y-109642929D01*
X101444939Y-109638244D01*
X101444890Y-109638003D01*
X101444106Y-109636638D01*
X101436416Y-109621546D01*
X101406863Y-109579623D01*
X101406712Y-109579409D01*
X101405268Y-109577351D01*
X101400707Y-109570254D01*
X101398499Y-109567705D01*
X101396636Y-109565051D01*
X101396156Y-109564435D01*
X101392020Y-109560056D01*
X101388492Y-109556158D01*
X101381732Y-109548356D01*
X101381731Y-109548356D01*
X101369242Y-109533943D01*
X101369242Y-109533942D01*
X101359143Y-109522288D01*
X101359144Y-109522288D01*
X101354974Y-109517475D01*
X101354959Y-109517458D01*
X101354953Y-109517453D01*
X101354949Y-109517448D01*
X101342175Y-109506379D01*
X101333232Y-109497812D01*
X101321602Y-109485499D01*
X101297361Y-109459833D01*
X101280047Y-109449726D01*
X101270082Y-109443910D01*
X101246223Y-109423235D01*
X101193080Y-109398964D01*
X101187723Y-109395837D01*
X101187722Y-109395836D01*
X101173102Y-109387303D01*
X101125649Y-109368043D01*
X101125649Y-109368042D01*
X101123162Y-109367033D01*
X101115346Y-109363463D01*
X101111801Y-109362422D01*
X101108366Y-109361028D01*
X101102647Y-109359611D01*
X101097559Y-109358234D01*
X101048254Y-109343762D01*
X101034382Y-109341768D01*
X101031557Y-109341361D01*
X101019389Y-109338986D01*
X100968782Y-109326450D01*
X100948706Y-109327307D01*
X100925778Y-109326159D01*
X100905889Y-109323300D01*
X100905884Y-109323300D01*
X99754116Y-109323300D01*
X99754105Y-109323300D01*
X99657277Y-109332662D01*
X99610630Y-109341768D01*
X99517374Y-109369513D01*
X99517372Y-109369513D01*
X99517372Y-109369514D01*
X99393112Y-109442047D01*
X99370716Y-109459833D01*
X99330528Y-109491748D01*
X99325222Y-109499449D01*
X99239606Y-109590100D01*
X99239603Y-109590105D01*
X99172275Y-109722248D01*
X99170867Y-109721531D01*
X99130876Y-109770419D01*
X99064421Y-109791997D01*
X98996851Y-109774222D01*
X98949617Y-109722736D01*
X98941928Y-109702981D01*
X98938498Y-109691299D01*
X98938497Y-109691298D01*
X98938497Y-109691296D01*
X98860709Y-109570257D01*
X98860704Y-109570251D01*
X98814960Y-109517459D01*
X98814956Y-109517456D01*
X98814954Y-109517453D01*
X98706220Y-109423233D01*
X98706217Y-109423231D01*
X98706215Y-109423230D01*
X98575349Y-109363464D01*
X98575344Y-109363462D01*
X98575343Y-109363462D01*
X98508304Y-109343777D01*
X98508306Y-109343777D01*
X98508301Y-109343776D01*
X98446231Y-109334852D01*
X98365884Y-109323300D01*
X95219000Y-109323300D01*
X95218991Y-109323300D01*
X95218990Y-109323301D01*
X95111549Y-109334852D01*
X95111537Y-109334854D01*
X95060027Y-109346060D01*
X94957502Y-109380183D01*
X94957496Y-109380186D01*
X94836462Y-109457971D01*
X94836451Y-109457979D01*
X94783659Y-109503723D01*
X94689433Y-109612464D01*
X94689430Y-109612468D01*
X94629664Y-109743334D01*
X94609976Y-109810382D01*
X94589500Y-109952801D01*
X94589500Y-110450795D01*
X94589705Y-110465182D01*
X94589906Y-110472213D01*
X94589908Y-110472268D01*
X94590526Y-110486700D01*
X94604354Y-110554946D01*
X94619098Y-110627716D01*
X94642576Y-110693519D01*
X94660686Y-110727843D01*
X94661599Y-110729608D01*
X94684903Y-110775545D01*
X94684647Y-110775676D01*
X94758516Y-110920654D01*
X94758759Y-110921132D01*
X94758773Y-110921211D01*
X94766106Y-110938912D01*
X94801179Y-111046853D01*
X94805721Y-111065774D01*
X94823473Y-111177853D01*
X94825000Y-111197251D01*
X94825000Y-111310747D01*
X94823473Y-111330145D01*
X94805721Y-111442224D01*
X94801179Y-111461145D01*
X94766105Y-111569089D01*
X94758659Y-111587065D01*
X94705850Y-111690709D01*
X94697780Y-111704322D01*
X94697386Y-111704897D01*
X94689432Y-111716896D01*
X94629663Y-111847768D01*
X94609976Y-111914813D01*
X94589500Y-112057232D01*
X94589500Y-122950500D01*
X94569815Y-123017539D01*
X94517011Y-123063294D01*
X94465500Y-123074500D01*
X92521173Y-123074500D01*
X92454134Y-123054815D01*
X92408379Y-123002011D01*
X92397815Y-122937898D01*
X92406448Y-122853388D01*
X92407100Y-122847009D01*
X92407099Y-121246992D01*
X92406402Y-121240173D01*
X92396599Y-121144203D01*
X92396598Y-121144200D01*
X92383763Y-121105468D01*
X92341414Y-120977666D01*
X92249312Y-120828344D01*
X92125256Y-120704288D01*
X91992361Y-120622318D01*
X91975936Y-120612187D01*
X91975931Y-120612185D01*
X91959116Y-120606613D01*
X91809397Y-120557001D01*
X91809395Y-120557000D01*
X91706610Y-120546500D01*
X90106598Y-120546500D01*
X90106581Y-120546501D01*
X90003803Y-120557000D01*
X90003800Y-120557001D01*
X89837268Y-120612185D01*
X89837263Y-120612187D01*
X89687942Y-120704289D01*
X89563889Y-120828342D01*
X89471787Y-120977663D01*
X89471785Y-120977668D01*
X89443949Y-121061670D01*
X89416601Y-121144203D01*
X89416601Y-121144204D01*
X89416600Y-121144204D01*
X89406100Y-121246983D01*
X89406100Y-122847001D01*
X89406101Y-122847019D01*
X89415385Y-122937899D01*
X89402615Y-123006592D01*
X89354734Y-123057476D01*
X89292027Y-123074500D01*
X87302830Y-123074500D01*
X87235791Y-123054815D01*
X87190036Y-123002011D01*
X87180092Y-122932853D01*
X87209117Y-122869297D01*
X87215149Y-122862819D01*
X89051148Y-121026819D01*
X89051147Y-121026819D01*
X89051151Y-121026816D01*
X89133284Y-120903895D01*
X89136056Y-120897204D01*
X89189856Y-120767317D01*
X89189858Y-120767313D01*
X89218700Y-120622318D01*
X89218700Y-120474483D01*
X89218700Y-113360004D01*
X89228139Y-113312551D01*
X89237937Y-113288897D01*
X89268700Y-113134242D01*
X89268700Y-112976558D01*
X89268700Y-112976555D01*
X89268699Y-112976553D01*
X89245671Y-112860784D01*
X89237937Y-112821903D01*
X89237935Y-112821898D01*
X89177597Y-112676227D01*
X89177590Y-112676214D01*
X89089989Y-112545111D01*
X89089986Y-112545107D01*
X88978492Y-112433613D01*
X88978488Y-112433610D01*
X88847385Y-112346009D01*
X88847372Y-112346002D01*
X88701701Y-112285664D01*
X88701689Y-112285661D01*
X88547045Y-112254900D01*
X88547042Y-112254900D01*
X88389358Y-112254900D01*
X88389355Y-112254900D01*
X88234710Y-112285661D01*
X88234698Y-112285664D01*
X88089027Y-112346002D01*
X88089014Y-112346009D01*
X87957911Y-112433610D01*
X87957907Y-112433613D01*
X87846413Y-112545107D01*
X87846410Y-112545111D01*
X87758809Y-112676214D01*
X87758802Y-112676227D01*
X87698464Y-112821898D01*
X87698461Y-112821910D01*
X87667700Y-112976553D01*
X87667700Y-113134246D01*
X87698461Y-113288889D01*
X87698463Y-113288897D01*
X87703680Y-113301493D01*
X87708261Y-113312551D01*
X87717700Y-113360004D01*
X87717700Y-120186170D01*
X87698015Y-120253209D01*
X87681381Y-120273851D01*
X84917051Y-123038181D01*
X84855728Y-123071666D01*
X84829370Y-123074500D01*
X79313519Y-123074500D01*
X79246480Y-123054815D01*
X79225837Y-123038180D01*
X79182188Y-122994531D01*
X79182188Y-122994530D01*
X79113150Y-122952795D01*
X79036606Y-122906522D01*
X78874196Y-122855914D01*
X78874194Y-122855913D01*
X78874192Y-122855913D01*
X78824778Y-122851423D01*
X78803616Y-122849500D01*
X78290384Y-122849500D01*
X78271145Y-122851248D01*
X78219807Y-122855913D01*
X78057393Y-122906522D01*
X77911811Y-122994530D01*
X77911810Y-122994531D01*
X77809681Y-123096661D01*
X77801735Y-123100999D01*
X77796310Y-123108247D01*
X77771550Y-123117481D01*
X77748358Y-123130146D01*
X77739328Y-123129500D01*
X77730846Y-123132664D01*
X77705025Y-123127047D01*
X77678666Y-123125162D01*
X77669612Y-123119343D01*
X77662573Y-123117812D01*
X77634319Y-123096661D01*
X77533819Y-122996161D01*
X77500334Y-122934838D01*
X77497500Y-122908480D01*
X77497500Y-121437519D01*
X77517185Y-121370480D01*
X77533814Y-121349842D01*
X77652472Y-121231185D01*
X77740478Y-121085606D01*
X77791086Y-120923196D01*
X77797500Y-120852616D01*
X77797500Y-120189384D01*
X77791086Y-120118804D01*
X77740478Y-119956394D01*
X77652472Y-119810815D01*
X77652470Y-119810813D01*
X77652469Y-119810811D01*
X77532188Y-119690530D01*
X77386606Y-119602522D01*
X77360952Y-119594528D01*
X77224196Y-119551914D01*
X77224194Y-119551913D01*
X77224192Y-119551913D01*
X77174778Y-119547423D01*
X77153616Y-119545500D01*
X77153613Y-119545500D01*
X76822097Y-119545500D01*
X76755058Y-119525815D01*
X76734416Y-119509181D01*
X73537819Y-116312584D01*
X73504334Y-116251261D01*
X73501500Y-116224903D01*
X73501500Y-115827611D01*
X73521185Y-115760572D01*
X73573989Y-115714817D01*
X73632847Y-115704424D01*
X73632868Y-115703904D01*
X73635264Y-115703998D01*
X73635269Y-115703997D01*
X73635306Y-115704000D01*
X73635314Y-115704000D01*
X74066686Y-115704000D01*
X74066694Y-115704000D01*
X74103569Y-115701098D01*
X74103571Y-115701097D01*
X74103573Y-115701097D01*
X74145191Y-115689005D01*
X74261398Y-115655244D01*
X74262874Y-115654370D01*
X74264183Y-115654038D01*
X74268557Y-115652146D01*
X74268862Y-115652851D01*
X74330597Y-115637185D01*
X74383229Y-115652639D01*
X74383443Y-115652146D01*
X74387441Y-115653876D01*
X74389125Y-115654370D01*
X74390602Y-115655244D01*
X74417061Y-115662931D01*
X74548426Y-115701097D01*
X74548429Y-115701097D01*
X74548431Y-115701098D01*
X74585306Y-115704000D01*
X74585314Y-115704000D01*
X75016686Y-115704000D01*
X75016694Y-115704000D01*
X75053569Y-115701098D01*
X75184416Y-115663082D01*
X75184779Y-115663032D01*
X75184940Y-115662931D01*
X75186164Y-115662840D01*
X75219911Y-115658163D01*
X75234251Y-115658267D01*
X75240342Y-115659900D01*
X75240343Y-115659900D01*
X75457628Y-115659900D01*
X75458039Y-115659903D01*
X75491139Y-115669885D01*
X75524172Y-115679585D01*
X75524692Y-115680004D01*
X75524933Y-115680077D01*
X75525264Y-115680465D01*
X75544814Y-115696219D01*
X75558107Y-115709512D01*
X75558111Y-115709515D01*
X75558113Y-115709517D01*
X75697405Y-115791894D01*
X75738387Y-115803800D01*
X75852802Y-115837042D01*
X75852805Y-115837042D01*
X75852807Y-115837043D01*
X75889110Y-115839900D01*
X75889118Y-115839900D01*
X76358482Y-115839900D01*
X76358490Y-115839900D01*
X76394793Y-115837043D01*
X76394795Y-115837042D01*
X76394797Y-115837042D01*
X76435775Y-115825136D01*
X76550195Y-115791894D01*
X76689487Y-115709517D01*
X76803917Y-115595087D01*
X76886294Y-115455795D01*
X76931443Y-115300393D01*
X76934300Y-115264090D01*
X76934300Y-114854710D01*
X76931443Y-114818407D01*
X76886294Y-114663005D01*
X76874179Y-114642520D01*
X76856996Y-114574799D01*
X76874179Y-114516280D01*
X76886294Y-114495795D01*
X76931443Y-114340393D01*
X76934300Y-114304090D01*
X76934300Y-113894710D01*
X76931443Y-113858407D01*
X76929112Y-113850385D01*
X76886295Y-113703009D01*
X76886294Y-113703006D01*
X76886294Y-113703005D01*
X76803917Y-113563713D01*
X76803915Y-113563711D01*
X76803912Y-113563707D01*
X76689492Y-113449287D01*
X76689484Y-113449281D01*
X76550193Y-113366905D01*
X76550190Y-113366904D01*
X76394797Y-113321757D01*
X76394791Y-113321756D01*
X76358497Y-113318900D01*
X76358490Y-113318900D01*
X76094097Y-113318900D01*
X76027058Y-113299215D01*
X76006416Y-113282581D01*
X75591690Y-112867855D01*
X75591688Y-112867852D01*
X75472817Y-112748981D01*
X75472816Y-112748980D01*
X75382288Y-112696714D01*
X75382287Y-112696713D01*
X75335890Y-112669925D01*
X75335889Y-112669924D01*
X75323363Y-112666567D01*
X75183157Y-112628999D01*
X75025043Y-112628999D01*
X75017447Y-112628999D01*
X75017431Y-112629000D01*
X74775500Y-112629000D01*
X74708461Y-112609315D01*
X74662706Y-112556511D01*
X74651500Y-112505000D01*
X74651500Y-111687813D01*
X74651499Y-111687798D01*
X74648598Y-111650932D01*
X74648598Y-111650931D01*
X74635152Y-111604649D01*
X74635350Y-111534785D01*
X74673029Y-111476341D01*
X74682547Y-111468094D01*
X74776767Y-111359360D01*
X74836538Y-111228483D01*
X74856223Y-111161444D01*
X74856224Y-111161440D01*
X74876700Y-111019024D01*
X74876700Y-108277200D01*
X74865147Y-108169744D01*
X74853941Y-108118233D01*
X74853837Y-108117922D01*
X74819816Y-108015702D01*
X74819813Y-108015696D01*
X74763056Y-107927381D01*
X74742025Y-107894657D01*
X74731348Y-107882335D01*
X74696276Y-107841859D01*
X74696272Y-107841856D01*
X74696270Y-107841853D01*
X74587536Y-107747633D01*
X74587533Y-107747631D01*
X74587531Y-107747630D01*
X74456665Y-107687864D01*
X74456660Y-107687862D01*
X74456659Y-107687862D01*
X74389620Y-107668177D01*
X74389622Y-107668177D01*
X74389617Y-107668176D01*
X74260001Y-107649540D01*
X74196445Y-107620515D01*
X74158671Y-107561737D01*
X74158574Y-107492202D01*
X74160843Y-107484393D01*
X74163700Y-107448090D01*
X74163700Y-106978710D01*
X74160843Y-106942407D01*
X74158760Y-106935239D01*
X74151337Y-106909686D01*
X74151536Y-106839817D01*
X74156399Y-106826340D01*
X74160101Y-106817682D01*
X74177356Y-106756297D01*
X74196166Y-106626579D01*
X74199213Y-106408880D01*
X74195074Y-106336867D01*
X74190540Y-106301866D01*
X74187569Y-106287234D01*
X74187091Y-106284125D01*
X74186122Y-106280106D01*
X74176181Y-106231130D01*
X74176179Y-106231127D01*
X74174169Y-106224793D01*
X74175009Y-106224526D01*
X74168671Y-106199127D01*
X74168440Y-106196861D01*
X74167800Y-106184278D01*
X74167800Y-105652503D01*
X74174094Y-105613498D01*
X74181409Y-105591424D01*
X74200035Y-105516444D01*
X74206317Y-105479176D01*
X74213300Y-105402225D01*
X74218696Y-105016573D01*
X74207518Y-104903554D01*
X74207516Y-104903547D01*
X74207516Y-104903541D01*
X74192000Y-104831161D01*
X74191998Y-104831155D01*
X74190034Y-104821991D01*
X74187284Y-104814954D01*
X74183877Y-104804674D01*
X74183869Y-104804650D01*
X74182267Y-104799813D01*
X74182266Y-104799812D01*
X74148694Y-104698498D01*
X74142400Y-104659494D01*
X74142400Y-104128505D01*
X74148694Y-104089501D01*
X74175383Y-104008960D01*
X74179758Y-103997644D01*
X74197736Y-103957168D01*
X74216182Y-103893812D01*
X74236285Y-103759577D01*
X74305732Y-98796763D01*
X74326353Y-98730007D01*
X74379792Y-98684996D01*
X74429720Y-98674500D01*
X101007790Y-98674500D01*
X101007800Y-98674500D01*
X101115256Y-98662947D01*
X101166767Y-98651741D01*
X101200997Y-98640347D01*
X101269297Y-98617616D01*
X101269301Y-98617613D01*
X101269304Y-98617613D01*
X101390343Y-98539825D01*
X101443147Y-98494070D01*
X101537367Y-98385336D01*
X101597138Y-98254459D01*
X101616823Y-98187420D01*
X101616824Y-98187416D01*
X101637300Y-98045000D01*
X101637300Y-96832725D01*
X130983734Y-96832725D01*
X130983734Y-96832727D01*
X130995544Y-97194608D01*
X130995544Y-97194618D01*
X131008952Y-97291622D01*
X131013924Y-97327597D01*
X131013786Y-97328399D01*
X131020443Y-97374765D01*
X131020486Y-97375076D01*
X131020484Y-97375089D01*
X131020667Y-97376444D01*
X131143144Y-98341828D01*
X131143590Y-98345876D01*
X131234198Y-99313660D01*
X131234511Y-99317721D01*
X131293290Y-100287951D01*
X131293470Y-100292019D01*
X131320362Y-101263707D01*
X131320407Y-101267779D01*
X131315378Y-102239767D01*
X131315290Y-102243838D01*
X131278348Y-103215139D01*
X131278127Y-103219205D01*
X131209227Y-104189945D01*
X131209088Y-104191721D01*
X131209071Y-104191920D01*
X131209049Y-104192174D01*
X131204284Y-104246627D01*
X131204269Y-104248674D01*
X131193843Y-104371736D01*
X131193843Y-104371747D01*
X131193843Y-104371750D01*
X131201147Y-104733181D01*
X131246191Y-105091869D01*
X131328482Y-105443884D01*
X131447117Y-105785368D01*
X131447119Y-105785372D01*
X131447120Y-105785375D01*
X131447121Y-105785378D01*
X131600795Y-106112576D01*
X131787836Y-106421934D01*
X132006195Y-106710052D01*
X132006199Y-106710056D01*
X132253463Y-106973755D01*
X132299448Y-107013507D01*
X132510476Y-107195932D01*
X132526947Y-107210170D01*
X132526955Y-107210177D01*
X132698580Y-107329647D01*
X132823647Y-107416708D01*
X132823659Y-107416714D01*
X132823663Y-107416717D01*
X133140297Y-107591091D01*
X133140301Y-107591092D01*
X133140309Y-107591097D01*
X133473464Y-107731431D01*
X133700122Y-107800045D01*
X133819459Y-107836171D01*
X133819460Y-107836171D01*
X133819463Y-107836172D01*
X134174515Y-107904172D01*
X134174527Y-107904173D01*
X134534715Y-107934686D01*
X134534717Y-107934685D01*
X134534730Y-107934687D01*
X134896161Y-107927382D01*
X135254849Y-107882337D01*
X135254855Y-107882335D01*
X135254859Y-107882335D01*
X135452330Y-107836171D01*
X135606864Y-107800045D01*
X135948348Y-107681409D01*
X136275560Y-107527728D01*
X136584916Y-107340685D01*
X136873026Y-107122331D01*
X137136734Y-106875057D01*
X137373149Y-106601572D01*
X137557409Y-106336872D01*
X137579677Y-106304883D01*
X137579678Y-106304880D01*
X137579683Y-106304874D01*
X137754071Y-105988212D01*
X137894405Y-105655057D01*
X137999144Y-105309057D01*
X138067144Y-104954005D01*
X138082356Y-104774427D01*
X138128540Y-104254027D01*
X138191106Y-103209672D01*
X138223716Y-102163953D01*
X138226343Y-101117729D01*
X138198985Y-100071859D01*
X138141664Y-99027203D01*
X138054427Y-97984619D01*
X137937347Y-96944963D01*
X137864025Y-96427733D01*
X137851373Y-96336193D01*
X137839285Y-96248732D01*
X137826346Y-96196327D01*
X137784437Y-96026586D01*
X137752496Y-95897217D01*
X137752495Y-95897216D01*
X137752493Y-95897207D01*
X137629434Y-95556686D01*
X137588461Y-95472189D01*
X137471460Y-95230902D01*
X137471457Y-95230898D01*
X137445347Y-95188900D01*
X137352180Y-95039039D01*
X137280289Y-94923401D01*
X137118662Y-94715552D01*
X137058024Y-94637572D01*
X136807102Y-94376543D01*
X136530269Y-94143173D01*
X136230559Y-93940018D01*
X135911255Y-93769304D01*
X135911249Y-93769301D01*
X135911239Y-93769297D01*
X135575869Y-93632906D01*
X135575847Y-93632899D01*
X135228045Y-93532307D01*
X135228040Y-93532306D01*
X135228041Y-93532306D01*
X135228037Y-93532305D01*
X134871607Y-93468617D01*
X134847280Y-93466860D01*
X134510473Y-93442534D01*
X134148594Y-93454343D01*
X134148579Y-93454345D01*
X133789932Y-93503914D01*
X133438417Y-93590703D01*
X133438416Y-93590704D01*
X133438409Y-93590706D01*
X133438407Y-93590707D01*
X133341937Y-93625569D01*
X133097887Y-93713765D01*
X133097870Y-93713773D01*
X132772102Y-93871739D01*
X132772098Y-93871742D01*
X132464601Y-94062910D01*
X132178774Y-94285174D01*
X131917743Y-94536097D01*
X131684375Y-94812928D01*
X131481219Y-95112639D01*
X131310507Y-95431938D01*
X131310497Y-95431960D01*
X131174106Y-95767330D01*
X131174099Y-95767352D01*
X131073507Y-96115154D01*
X131073506Y-96115159D01*
X131073505Y-96115163D01*
X131027166Y-96374498D01*
X131009817Y-96471593D01*
X130983734Y-96832725D01*
X101637300Y-96832725D01*
X101637300Y-89732332D01*
X101656985Y-89665293D01*
X101709789Y-89619538D01*
X101741901Y-89609859D01*
X101916243Y-89582246D01*
X102118412Y-89516557D01*
X102307816Y-89420051D01*
X102394138Y-89357335D01*
X102479786Y-89295109D01*
X102479788Y-89295106D01*
X102479792Y-89295104D01*
X102630104Y-89144792D01*
X102630106Y-89144788D01*
X102630109Y-89144786D01*
X102755048Y-88972820D01*
X102755047Y-88972820D01*
X102755051Y-88972816D01*
X102759514Y-88964054D01*
X102807488Y-88913259D01*
X102875308Y-88896463D01*
X102941444Y-88918999D01*
X102980486Y-88964056D01*
X102984951Y-88972820D01*
X103109890Y-89144786D01*
X103260213Y-89295109D01*
X103432179Y-89420048D01*
X103432181Y-89420049D01*
X103432184Y-89420051D01*
X103621588Y-89516557D01*
X103823757Y-89582246D01*
X104033713Y-89615500D01*
X104033714Y-89615500D01*
X104246286Y-89615500D01*
X104246287Y-89615500D01*
X104456243Y-89582246D01*
X104658412Y-89516557D01*
X104847816Y-89420051D01*
X104934138Y-89357335D01*
X105019786Y-89295109D01*
X105019788Y-89295106D01*
X105019792Y-89295104D01*
X105170104Y-89144792D01*
X105170106Y-89144788D01*
X105170109Y-89144786D01*
X105295048Y-88972820D01*
X105295047Y-88972820D01*
X105295051Y-88972816D01*
X105299514Y-88964054D01*
X105347488Y-88913259D01*
X105415308Y-88896463D01*
X105481444Y-88918999D01*
X105520486Y-88964056D01*
X105524951Y-88972820D01*
X105649890Y-89144786D01*
X105800213Y-89295109D01*
X105972179Y-89420048D01*
X105972181Y-89420049D01*
X105972184Y-89420051D01*
X106161588Y-89516557D01*
X106363757Y-89582246D01*
X106573713Y-89615500D01*
X106573714Y-89615500D01*
X106786286Y-89615500D01*
X106786287Y-89615500D01*
X106996243Y-89582246D01*
X107198412Y-89516557D01*
X107387816Y-89420051D01*
X107474138Y-89357335D01*
X107559786Y-89295109D01*
X107559788Y-89295106D01*
X107559792Y-89295104D01*
X107710104Y-89144792D01*
X107710106Y-89144788D01*
X107710109Y-89144786D01*
X107835048Y-88972820D01*
X107835047Y-88972820D01*
X107835051Y-88972816D01*
X107839514Y-88964054D01*
X107887488Y-88913259D01*
X107955308Y-88896463D01*
X108021444Y-88918999D01*
X108060486Y-88964056D01*
X108064951Y-88972820D01*
X108189890Y-89144786D01*
X108340213Y-89295109D01*
X108512179Y-89420048D01*
X108512181Y-89420049D01*
X108512184Y-89420051D01*
X108701588Y-89516557D01*
X108903757Y-89582246D01*
X109113713Y-89615500D01*
X109113714Y-89615500D01*
X109326286Y-89615500D01*
X109326287Y-89615500D01*
X109536243Y-89582246D01*
X109738412Y-89516557D01*
X109927816Y-89420051D01*
X110014138Y-89357335D01*
X110099786Y-89295109D01*
X110099788Y-89295106D01*
X110099792Y-89295104D01*
X110250104Y-89144792D01*
X110250106Y-89144788D01*
X110250109Y-89144786D01*
X110375048Y-88972820D01*
X110375047Y-88972820D01*
X110375051Y-88972816D01*
X110379514Y-88964054D01*
X110427488Y-88913259D01*
X110495308Y-88896463D01*
X110561444Y-88918999D01*
X110600486Y-88964056D01*
X110604951Y-88972820D01*
X110729890Y-89144786D01*
X110880213Y-89295109D01*
X111052179Y-89420048D01*
X111052181Y-89420049D01*
X111052184Y-89420051D01*
X111241588Y-89516557D01*
X111443757Y-89582246D01*
X111653713Y-89615500D01*
X111653714Y-89615500D01*
X111866286Y-89615500D01*
X111866287Y-89615500D01*
X112076243Y-89582246D01*
X112278412Y-89516557D01*
X112467816Y-89420051D01*
X112554138Y-89357335D01*
X112639786Y-89295109D01*
X112639788Y-89295106D01*
X112639792Y-89295104D01*
X112790104Y-89144792D01*
X112790106Y-89144788D01*
X112790109Y-89144786D01*
X112915048Y-88972820D01*
X112915047Y-88972820D01*
X112915051Y-88972816D01*
X112919514Y-88964054D01*
X112967488Y-88913259D01*
X113035308Y-88896463D01*
X113101444Y-88918999D01*
X113140486Y-88964056D01*
X113144951Y-88972820D01*
X113269890Y-89144786D01*
X113420213Y-89295109D01*
X113592179Y-89420048D01*
X113592181Y-89420049D01*
X113592184Y-89420051D01*
X113781588Y-89516557D01*
X113983757Y-89582246D01*
X114193713Y-89615500D01*
X114193714Y-89615500D01*
X114406286Y-89615500D01*
X114406287Y-89615500D01*
X114616243Y-89582246D01*
X114818412Y-89516557D01*
X115007816Y-89420051D01*
X115094138Y-89357335D01*
X115179786Y-89295109D01*
X115179788Y-89295106D01*
X115179792Y-89295104D01*
X115330104Y-89144792D01*
X115330106Y-89144788D01*
X115330109Y-89144786D01*
X115455048Y-88972820D01*
X115455047Y-88972820D01*
X115455051Y-88972816D01*
X115459514Y-88964054D01*
X115507488Y-88913259D01*
X115575308Y-88896463D01*
X115641444Y-88918999D01*
X115680486Y-88964056D01*
X115684951Y-88972820D01*
X115809890Y-89144786D01*
X115960213Y-89295109D01*
X116132179Y-89420048D01*
X116132181Y-89420049D01*
X116132184Y-89420051D01*
X116321588Y-89516557D01*
X116523757Y-89582246D01*
X116733713Y-89615500D01*
X116733714Y-89615500D01*
X116946286Y-89615500D01*
X116946287Y-89615500D01*
X117156243Y-89582246D01*
X117358412Y-89516557D01*
X117547816Y-89420051D01*
X117634138Y-89357335D01*
X117719786Y-89295109D01*
X117719788Y-89295106D01*
X117719792Y-89295104D01*
X117870104Y-89144792D01*
X117870106Y-89144788D01*
X117870109Y-89144786D01*
X117995048Y-88972820D01*
X117995047Y-88972820D01*
X117995051Y-88972816D01*
X117999514Y-88964054D01*
X118047488Y-88913259D01*
X118115308Y-88896463D01*
X118181444Y-88918999D01*
X118220486Y-88964056D01*
X118224951Y-88972820D01*
X118349890Y-89144786D01*
X118500213Y-89295109D01*
X118672179Y-89420048D01*
X118672181Y-89420049D01*
X118672184Y-89420051D01*
X118861588Y-89516557D01*
X119063757Y-89582246D01*
X119273713Y-89615500D01*
X119273714Y-89615500D01*
X119486286Y-89615500D01*
X119486287Y-89615500D01*
X119696243Y-89582246D01*
X119898412Y-89516557D01*
X120087816Y-89420051D01*
X120174138Y-89357335D01*
X120259786Y-89295109D01*
X120259788Y-89295106D01*
X120259792Y-89295104D01*
X120410104Y-89144792D01*
X120410106Y-89144788D01*
X120410109Y-89144786D01*
X120535048Y-88972820D01*
X120535047Y-88972820D01*
X120535051Y-88972816D01*
X120539514Y-88964054D01*
X120587488Y-88913259D01*
X120655308Y-88896463D01*
X120721444Y-88918999D01*
X120760486Y-88964056D01*
X120764951Y-88972820D01*
X120889890Y-89144786D01*
X121040213Y-89295109D01*
X121212179Y-89420048D01*
X121212181Y-89420049D01*
X121212184Y-89420051D01*
X121401588Y-89516557D01*
X121603757Y-89582246D01*
X121813713Y-89615500D01*
X121813714Y-89615500D01*
X122026286Y-89615500D01*
X122026287Y-89615500D01*
X122236243Y-89582246D01*
X122438412Y-89516557D01*
X122627816Y-89420051D01*
X122714138Y-89357335D01*
X122799786Y-89295109D01*
X122799788Y-89295106D01*
X122799792Y-89295104D01*
X122950104Y-89144792D01*
X122950106Y-89144788D01*
X122950109Y-89144786D01*
X123075048Y-88972820D01*
X123075047Y-88972820D01*
X123075051Y-88972816D01*
X123079514Y-88964054D01*
X123127488Y-88913259D01*
X123195308Y-88896463D01*
X123261444Y-88918999D01*
X123300486Y-88964056D01*
X123304951Y-88972820D01*
X123429890Y-89144786D01*
X123580213Y-89295109D01*
X123752179Y-89420048D01*
X123752181Y-89420049D01*
X123752184Y-89420051D01*
X123941588Y-89516557D01*
X124143757Y-89582246D01*
X124353713Y-89615500D01*
X124353714Y-89615500D01*
X124566286Y-89615500D01*
X124566287Y-89615500D01*
X124776243Y-89582246D01*
X124978412Y-89516557D01*
X125167816Y-89420051D01*
X125254138Y-89357335D01*
X125339786Y-89295109D01*
X125339788Y-89295106D01*
X125339792Y-89295104D01*
X125490104Y-89144792D01*
X125490106Y-89144788D01*
X125490109Y-89144786D01*
X125615048Y-88972820D01*
X125615047Y-88972820D01*
X125615051Y-88972816D01*
X125619514Y-88964054D01*
X125667488Y-88913259D01*
X125735308Y-88896463D01*
X125801444Y-88918999D01*
X125840486Y-88964056D01*
X125844951Y-88972820D01*
X125969890Y-89144786D01*
X126120213Y-89295109D01*
X126292179Y-89420048D01*
X126292181Y-89420049D01*
X126292184Y-89420051D01*
X126481588Y-89516557D01*
X126683757Y-89582246D01*
X126893713Y-89615500D01*
X126893714Y-89615500D01*
X127106286Y-89615500D01*
X127106287Y-89615500D01*
X127316243Y-89582246D01*
X127518412Y-89516557D01*
X127707816Y-89420051D01*
X127794138Y-89357335D01*
X127879786Y-89295109D01*
X127879788Y-89295106D01*
X127879792Y-89295104D01*
X128030104Y-89144792D01*
X128030106Y-89144788D01*
X128030109Y-89144786D01*
X128155048Y-88972820D01*
X128155047Y-88972820D01*
X128155051Y-88972816D01*
X128159514Y-88964054D01*
X128207488Y-88913259D01*
X128275308Y-88896463D01*
X128341444Y-88918999D01*
X128380486Y-88964056D01*
X128384951Y-88972820D01*
X128509890Y-89144786D01*
X128660213Y-89295109D01*
X128832179Y-89420048D01*
X128832181Y-89420049D01*
X128832184Y-89420051D01*
X129021588Y-89516557D01*
X129223757Y-89582246D01*
X129433713Y-89615500D01*
X129433714Y-89615500D01*
X129646286Y-89615500D01*
X129646287Y-89615500D01*
X129856243Y-89582246D01*
X130058412Y-89516557D01*
X130247816Y-89420051D01*
X130334138Y-89357335D01*
X130419786Y-89295109D01*
X130419788Y-89295106D01*
X130419792Y-89295104D01*
X130570104Y-89144792D01*
X130570106Y-89144788D01*
X130570109Y-89144786D01*
X130695048Y-88972820D01*
X130695047Y-88972820D01*
X130695051Y-88972816D01*
X130699514Y-88964054D01*
X130747488Y-88913259D01*
X130815308Y-88896463D01*
X130881444Y-88918999D01*
X130920486Y-88964056D01*
X130924951Y-88972820D01*
X131049890Y-89144786D01*
X131200213Y-89295109D01*
X131372179Y-89420048D01*
X131372181Y-89420049D01*
X131372184Y-89420051D01*
X131561588Y-89516557D01*
X131763757Y-89582246D01*
X131973713Y-89615500D01*
X131973714Y-89615500D01*
X132186286Y-89615500D01*
X132186287Y-89615500D01*
X132396243Y-89582246D01*
X132598412Y-89516557D01*
X132787816Y-89420051D01*
X132874138Y-89357335D01*
X132959786Y-89295109D01*
X132959788Y-89295106D01*
X132959792Y-89295104D01*
X133110104Y-89144792D01*
X133110106Y-89144788D01*
X133110109Y-89144786D01*
X133235048Y-88972820D01*
X133235047Y-88972820D01*
X133235051Y-88972816D01*
X133239514Y-88964054D01*
X133287488Y-88913259D01*
X133355308Y-88896463D01*
X133421444Y-88918999D01*
X133460486Y-88964056D01*
X133464951Y-88972820D01*
X133589890Y-89144786D01*
X133740213Y-89295109D01*
X133912179Y-89420048D01*
X133912181Y-89420049D01*
X133912184Y-89420051D01*
X134101588Y-89516557D01*
X134303757Y-89582246D01*
X134513713Y-89615500D01*
X134513714Y-89615500D01*
X134726286Y-89615500D01*
X134726287Y-89615500D01*
X134936243Y-89582246D01*
X135138412Y-89516557D01*
X135327816Y-89420051D01*
X135499792Y-89295104D01*
X135613329Y-89181566D01*
X135674648Y-89148084D01*
X135744340Y-89153068D01*
X135800274Y-89194939D01*
X135817189Y-89225917D01*
X135866202Y-89357328D01*
X135866206Y-89357335D01*
X135952452Y-89472544D01*
X135952455Y-89472547D01*
X136067664Y-89558793D01*
X136067671Y-89558797D01*
X136202517Y-89609091D01*
X136202516Y-89609091D01*
X136209444Y-89609835D01*
X136262127Y-89615500D01*
X138057872Y-89615499D01*
X138117483Y-89609091D01*
X138252331Y-89558796D01*
X138367546Y-89472546D01*
X138453796Y-89357331D01*
X138504091Y-89222483D01*
X138510500Y-89162873D01*
X138510499Y-87367128D01*
X138504091Y-87307517D01*
X138453796Y-87172669D01*
X138453795Y-87172668D01*
X138453793Y-87172664D01*
X138367547Y-87057455D01*
X138367544Y-87057452D01*
X138252335Y-86971206D01*
X138252328Y-86971202D01*
X138117482Y-86920908D01*
X138117483Y-86920908D01*
X138057883Y-86914501D01*
X138057881Y-86914500D01*
X138057873Y-86914500D01*
X138057865Y-86914500D01*
X136710098Y-86914500D01*
X136643059Y-86894815D01*
X136622417Y-86878181D01*
X132846990Y-83102755D01*
X132846988Y-83102752D01*
X132728117Y-82983881D01*
X132728116Y-82983880D01*
X132641304Y-82933760D01*
X132641304Y-82933759D01*
X132641300Y-82933758D01*
X132591185Y-82904823D01*
X132438457Y-82863899D01*
X132280343Y-82863899D01*
X132272747Y-82863899D01*
X132272731Y-82863900D01*
X119101899Y-82863900D01*
X119034860Y-82844215D01*
X118989105Y-82791411D01*
X118977899Y-82739900D01*
X118977899Y-82566529D01*
X118977898Y-82566523D01*
X118976439Y-82552951D01*
X118971491Y-82506917D01*
X118970210Y-82503483D01*
X118921197Y-82372071D01*
X118921193Y-82372064D01*
X118834947Y-82256855D01*
X118834944Y-82256852D01*
X118719735Y-82170606D01*
X118719728Y-82170602D01*
X118584882Y-82120308D01*
X118584883Y-82120308D01*
X118525283Y-82113901D01*
X118525281Y-82113900D01*
X118525273Y-82113900D01*
X118525264Y-82113900D01*
X116729529Y-82113900D01*
X116729523Y-82113901D01*
X116669916Y-82120308D01*
X116535071Y-82170602D01*
X116535064Y-82170606D01*
X116419855Y-82256852D01*
X116419852Y-82256855D01*
X116333606Y-82372064D01*
X116333603Y-82372069D01*
X116284589Y-82503483D01*
X116242717Y-82559416D01*
X116177253Y-82583833D01*
X116108980Y-82568981D01*
X116080726Y-82547830D01*
X115967186Y-82434290D01*
X115795220Y-82309351D01*
X115605814Y-82212844D01*
X115605813Y-82212843D01*
X115605812Y-82212843D01*
X115403643Y-82147154D01*
X115403641Y-82147153D01*
X115403640Y-82147153D01*
X115242357Y-82121608D01*
X115193687Y-82113900D01*
X114981113Y-82113900D01*
X114932442Y-82121608D01*
X114771160Y-82147153D01*
X114568985Y-82212844D01*
X114379579Y-82309351D01*
X114207613Y-82434290D01*
X114057290Y-82584613D01*
X113932349Y-82756582D01*
X113927884Y-82765346D01*
X113879909Y-82816142D01*
X113812088Y-82832936D01*
X113745953Y-82810398D01*
X113706916Y-82765346D01*
X113702450Y-82756582D01*
X113577509Y-82584613D01*
X113427186Y-82434290D01*
X113255220Y-82309351D01*
X113065814Y-82212844D01*
X113065813Y-82212843D01*
X113065812Y-82212843D01*
X112863643Y-82147154D01*
X112863641Y-82147153D01*
X112863640Y-82147153D01*
X112702357Y-82121608D01*
X112653687Y-82113900D01*
X112441113Y-82113900D01*
X112392442Y-82121608D01*
X112231160Y-82147153D01*
X112028985Y-82212844D01*
X111839579Y-82309351D01*
X111667613Y-82434290D01*
X111517290Y-82584613D01*
X111392349Y-82756582D01*
X111387884Y-82765346D01*
X111339909Y-82816142D01*
X111272088Y-82832936D01*
X111205953Y-82810398D01*
X111166916Y-82765346D01*
X111162450Y-82756582D01*
X111037509Y-82584613D01*
X110887186Y-82434290D01*
X110715220Y-82309351D01*
X110525814Y-82212844D01*
X110525813Y-82212843D01*
X110525812Y-82212843D01*
X110323643Y-82147154D01*
X110323641Y-82147153D01*
X110323640Y-82147153D01*
X110162357Y-82121608D01*
X110113687Y-82113900D01*
X109901113Y-82113900D01*
X109852442Y-82121608D01*
X109691160Y-82147153D01*
X109488985Y-82212844D01*
X109299579Y-82309351D01*
X109127613Y-82434290D01*
X108977290Y-82584613D01*
X108852349Y-82756582D01*
X108847884Y-82765346D01*
X108799909Y-82816142D01*
X108732088Y-82832936D01*
X108665953Y-82810398D01*
X108626916Y-82765346D01*
X108622450Y-82756582D01*
X108497509Y-82584613D01*
X108347186Y-82434290D01*
X108175220Y-82309351D01*
X107985814Y-82212844D01*
X107985813Y-82212843D01*
X107985812Y-82212843D01*
X107783643Y-82147154D01*
X107783641Y-82147153D01*
X107783640Y-82147153D01*
X107622357Y-82121608D01*
X107573687Y-82113900D01*
X107361113Y-82113900D01*
X107312442Y-82121608D01*
X107151160Y-82147153D01*
X106948985Y-82212844D01*
X106759579Y-82309351D01*
X106587613Y-82434290D01*
X106437290Y-82584613D01*
X106312349Y-82756582D01*
X106307884Y-82765346D01*
X106259909Y-82816142D01*
X106192088Y-82832936D01*
X106125953Y-82810398D01*
X106086916Y-82765346D01*
X106082450Y-82756582D01*
X105957509Y-82584613D01*
X105807186Y-82434290D01*
X105635220Y-82309351D01*
X105445814Y-82212844D01*
X105445813Y-82212843D01*
X105445812Y-82212843D01*
X105243643Y-82147154D01*
X105243641Y-82147153D01*
X105243640Y-82147153D01*
X105082357Y-82121608D01*
X105033687Y-82113900D01*
X104821113Y-82113900D01*
X104772442Y-82121608D01*
X104611160Y-82147153D01*
X104408985Y-82212844D01*
X104219579Y-82309351D01*
X104047613Y-82434290D01*
X103897290Y-82584613D01*
X103772349Y-82756582D01*
X103767884Y-82765346D01*
X103719909Y-82816142D01*
X103652088Y-82832936D01*
X103585953Y-82810398D01*
X103546916Y-82765346D01*
X103542450Y-82756582D01*
X103417509Y-82584613D01*
X103267186Y-82434290D01*
X103095220Y-82309351D01*
X102905814Y-82212844D01*
X102905813Y-82212843D01*
X102905812Y-82212843D01*
X102703643Y-82147154D01*
X102703641Y-82147153D01*
X102703640Y-82147153D01*
X102542357Y-82121608D01*
X102493687Y-82113900D01*
X102281113Y-82113900D01*
X102232442Y-82121608D01*
X102071160Y-82147153D01*
X101868985Y-82212844D01*
X101679579Y-82309351D01*
X101507613Y-82434290D01*
X101357290Y-82584613D01*
X101232351Y-82756579D01*
X101135844Y-82945985D01*
X101070153Y-83148160D01*
X101036900Y-83358113D01*
X101036900Y-83570686D01*
X101070153Y-83780639D01*
X101135844Y-83982814D01*
X101232351Y-84172220D01*
X101357290Y-84344186D01*
X101507613Y-84494509D01*
X101679579Y-84619448D01*
X101679581Y-84619449D01*
X101679584Y-84619451D01*
X101868988Y-84715957D01*
X102071157Y-84781646D01*
X102281113Y-84814900D01*
X102281114Y-84814900D01*
X102493686Y-84814900D01*
X102493687Y-84814900D01*
X102703643Y-84781646D01*
X102905812Y-84715957D01*
X103095216Y-84619451D01*
X103181538Y-84556735D01*
X103267186Y-84494509D01*
X103267188Y-84494506D01*
X103267192Y-84494504D01*
X103417504Y-84344192D01*
X103417506Y-84344188D01*
X103417509Y-84344186D01*
X103542448Y-84172220D01*
X103542447Y-84172220D01*
X103542451Y-84172216D01*
X103546914Y-84163454D01*
X103594888Y-84112659D01*
X103662708Y-84095863D01*
X103728844Y-84118399D01*
X103767886Y-84163456D01*
X103772351Y-84172220D01*
X103897290Y-84344186D01*
X104047613Y-84494509D01*
X104219579Y-84619448D01*
X104219581Y-84619449D01*
X104219584Y-84619451D01*
X104408988Y-84715957D01*
X104611157Y-84781646D01*
X104821113Y-84814900D01*
X104821114Y-84814900D01*
X105033686Y-84814900D01*
X105033687Y-84814900D01*
X105243643Y-84781646D01*
X105445812Y-84715957D01*
X105635216Y-84619451D01*
X105721538Y-84556735D01*
X105807186Y-84494509D01*
X105807188Y-84494506D01*
X105807192Y-84494504D01*
X105957504Y-84344192D01*
X105957506Y-84344188D01*
X105957509Y-84344186D01*
X106082448Y-84172220D01*
X106082447Y-84172220D01*
X106082451Y-84172216D01*
X106086914Y-84163454D01*
X106134888Y-84112659D01*
X106202708Y-84095863D01*
X106268844Y-84118399D01*
X106307886Y-84163456D01*
X106312351Y-84172220D01*
X106437290Y-84344186D01*
X106587613Y-84494509D01*
X106759579Y-84619448D01*
X106759581Y-84619449D01*
X106759584Y-84619451D01*
X106948988Y-84715957D01*
X107151157Y-84781646D01*
X107361113Y-84814900D01*
X107361114Y-84814900D01*
X107573686Y-84814900D01*
X107573687Y-84814900D01*
X107783643Y-84781646D01*
X107985812Y-84715957D01*
X108175216Y-84619451D01*
X108261538Y-84556735D01*
X108347186Y-84494509D01*
X108347188Y-84494506D01*
X108347192Y-84494504D01*
X108497504Y-84344192D01*
X108497506Y-84344188D01*
X108497509Y-84344186D01*
X108622448Y-84172220D01*
X108622447Y-84172220D01*
X108622451Y-84172216D01*
X108626914Y-84163454D01*
X108674888Y-84112659D01*
X108742708Y-84095863D01*
X108808844Y-84118399D01*
X108847886Y-84163456D01*
X108852351Y-84172220D01*
X108977290Y-84344186D01*
X109127613Y-84494509D01*
X109299579Y-84619448D01*
X109299581Y-84619449D01*
X109299584Y-84619451D01*
X109488988Y-84715957D01*
X109691157Y-84781646D01*
X109901113Y-84814900D01*
X109901114Y-84814900D01*
X110113686Y-84814900D01*
X110113687Y-84814900D01*
X110323643Y-84781646D01*
X110525812Y-84715957D01*
X110715216Y-84619451D01*
X110801538Y-84556735D01*
X110887186Y-84494509D01*
X110887188Y-84494506D01*
X110887192Y-84494504D01*
X111037504Y-84344192D01*
X111037506Y-84344188D01*
X111037509Y-84344186D01*
X111162448Y-84172220D01*
X111162447Y-84172220D01*
X111162451Y-84172216D01*
X111166914Y-84163454D01*
X111214888Y-84112659D01*
X111282708Y-84095863D01*
X111348844Y-84118399D01*
X111387886Y-84163456D01*
X111392351Y-84172220D01*
X111517290Y-84344186D01*
X111667613Y-84494509D01*
X111839579Y-84619448D01*
X111839581Y-84619449D01*
X111839584Y-84619451D01*
X112028988Y-84715957D01*
X112231157Y-84781646D01*
X112441113Y-84814900D01*
X112441114Y-84814900D01*
X112653686Y-84814900D01*
X112653687Y-84814900D01*
X112863643Y-84781646D01*
X113065812Y-84715957D01*
X113255216Y-84619451D01*
X113341538Y-84556735D01*
X113427186Y-84494509D01*
X113427188Y-84494506D01*
X113427192Y-84494504D01*
X113577504Y-84344192D01*
X113577506Y-84344188D01*
X113577509Y-84344186D01*
X113702448Y-84172220D01*
X113702447Y-84172220D01*
X113702451Y-84172216D01*
X113706914Y-84163454D01*
X113754888Y-84112659D01*
X113822708Y-84095863D01*
X113888844Y-84118399D01*
X113927886Y-84163456D01*
X113932351Y-84172220D01*
X114057290Y-84344186D01*
X114207613Y-84494509D01*
X114379579Y-84619448D01*
X114379581Y-84619449D01*
X114379584Y-84619451D01*
X114568988Y-84715957D01*
X114771157Y-84781646D01*
X114981113Y-84814900D01*
X114981114Y-84814900D01*
X115193686Y-84814900D01*
X115193687Y-84814900D01*
X115403643Y-84781646D01*
X115605812Y-84715957D01*
X115795216Y-84619451D01*
X115967192Y-84494504D01*
X116080729Y-84380966D01*
X116142048Y-84347484D01*
X116211740Y-84352468D01*
X116267674Y-84394339D01*
X116284589Y-84425317D01*
X116333602Y-84556728D01*
X116333606Y-84556735D01*
X116419852Y-84671944D01*
X116419855Y-84671947D01*
X116535064Y-84758193D01*
X116535071Y-84758197D01*
X116669917Y-84808491D01*
X116669916Y-84808491D01*
X116676844Y-84809235D01*
X116729527Y-84814900D01*
X118525272Y-84814899D01*
X118584883Y-84808491D01*
X118719731Y-84758196D01*
X118834946Y-84671946D01*
X118921196Y-84556731D01*
X118971491Y-84421883D01*
X118977900Y-84362273D01*
X118977900Y-84188900D01*
X118997585Y-84121861D01*
X119050389Y-84076106D01*
X119101900Y-84064900D01*
X132059303Y-84064900D01*
X132126342Y-84084585D01*
X132146984Y-84101219D01*
X134748583Y-86702819D01*
X134782068Y-86764142D01*
X134777084Y-86833834D01*
X134735212Y-86889767D01*
X134669748Y-86914184D01*
X134660902Y-86914500D01*
X134513713Y-86914500D01*
X134465042Y-86922208D01*
X134303760Y-86947753D01*
X134101585Y-87013444D01*
X133912179Y-87109951D01*
X133740213Y-87234890D01*
X133589890Y-87385213D01*
X133464949Y-87557182D01*
X133460484Y-87565946D01*
X133412509Y-87616742D01*
X133344688Y-87633536D01*
X133278553Y-87610998D01*
X133239516Y-87565946D01*
X133235050Y-87557182D01*
X133110109Y-87385213D01*
X132959786Y-87234890D01*
X132787820Y-87109951D01*
X132598414Y-87013444D01*
X132598413Y-87013443D01*
X132598412Y-87013443D01*
X132396243Y-86947754D01*
X132396241Y-86947753D01*
X132396240Y-86947753D01*
X132234957Y-86922208D01*
X132186287Y-86914500D01*
X131973713Y-86914500D01*
X131925042Y-86922208D01*
X131763760Y-86947753D01*
X131561585Y-87013444D01*
X131372179Y-87109951D01*
X131200213Y-87234890D01*
X131049890Y-87385213D01*
X130924949Y-87557182D01*
X130920484Y-87565946D01*
X130872509Y-87616742D01*
X130804688Y-87633536D01*
X130738553Y-87610998D01*
X130699516Y-87565946D01*
X130695050Y-87557182D01*
X130570109Y-87385213D01*
X130419786Y-87234890D01*
X130247820Y-87109951D01*
X130058414Y-87013444D01*
X130058413Y-87013443D01*
X130058412Y-87013443D01*
X129856243Y-86947754D01*
X129856241Y-86947753D01*
X129856240Y-86947753D01*
X129694957Y-86922208D01*
X129646287Y-86914500D01*
X129433713Y-86914500D01*
X129385042Y-86922208D01*
X129223760Y-86947753D01*
X129021585Y-87013444D01*
X128832179Y-87109951D01*
X128660213Y-87234890D01*
X128509890Y-87385213D01*
X128384949Y-87557182D01*
X128380484Y-87565946D01*
X128332509Y-87616742D01*
X128264688Y-87633536D01*
X128198553Y-87610998D01*
X128159516Y-87565946D01*
X128155050Y-87557182D01*
X128030109Y-87385213D01*
X127879786Y-87234890D01*
X127707820Y-87109951D01*
X127518414Y-87013444D01*
X127518413Y-87013443D01*
X127518412Y-87013443D01*
X127316243Y-86947754D01*
X127316241Y-86947753D01*
X127316240Y-86947753D01*
X127154957Y-86922208D01*
X127106287Y-86914500D01*
X126893713Y-86914500D01*
X126845042Y-86922208D01*
X126683760Y-86947753D01*
X126481585Y-87013444D01*
X126292179Y-87109951D01*
X126120213Y-87234890D01*
X125969890Y-87385213D01*
X125844949Y-87557182D01*
X125840484Y-87565946D01*
X125792509Y-87616742D01*
X125724688Y-87633536D01*
X125658553Y-87610998D01*
X125619516Y-87565946D01*
X125615050Y-87557182D01*
X125490109Y-87385213D01*
X125339786Y-87234890D01*
X125167820Y-87109951D01*
X124978414Y-87013444D01*
X124978413Y-87013443D01*
X124978412Y-87013443D01*
X124776243Y-86947754D01*
X124776241Y-86947753D01*
X124776240Y-86947753D01*
X124614957Y-86922208D01*
X124566287Y-86914500D01*
X124353713Y-86914500D01*
X124305042Y-86922208D01*
X124143760Y-86947753D01*
X123941585Y-87013444D01*
X123752179Y-87109951D01*
X123580213Y-87234890D01*
X123429890Y-87385213D01*
X123304949Y-87557182D01*
X123300484Y-87565946D01*
X123252509Y-87616742D01*
X123184688Y-87633536D01*
X123118553Y-87610998D01*
X123079516Y-87565946D01*
X123075050Y-87557182D01*
X122950109Y-87385213D01*
X122799786Y-87234890D01*
X122627820Y-87109951D01*
X122438414Y-87013444D01*
X122438413Y-87013443D01*
X122438412Y-87013443D01*
X122236243Y-86947754D01*
X122236241Y-86947753D01*
X122236240Y-86947753D01*
X122074957Y-86922208D01*
X122026287Y-86914500D01*
X121813713Y-86914500D01*
X121765042Y-86922208D01*
X121603760Y-86947753D01*
X121401585Y-87013444D01*
X121212179Y-87109951D01*
X121040213Y-87234890D01*
X120889890Y-87385213D01*
X120764949Y-87557182D01*
X120760484Y-87565946D01*
X120712509Y-87616742D01*
X120644688Y-87633536D01*
X120578553Y-87610998D01*
X120539516Y-87565946D01*
X120535050Y-87557182D01*
X120410109Y-87385213D01*
X120259786Y-87234890D01*
X120087820Y-87109951D01*
X119898414Y-87013444D01*
X119898413Y-87013443D01*
X119898412Y-87013443D01*
X119696243Y-86947754D01*
X119696241Y-86947753D01*
X119696240Y-86947753D01*
X119534957Y-86922208D01*
X119486287Y-86914500D01*
X119273713Y-86914500D01*
X119225042Y-86922208D01*
X119063760Y-86947753D01*
X118861585Y-87013444D01*
X118672179Y-87109951D01*
X118500213Y-87234890D01*
X118349890Y-87385213D01*
X118224949Y-87557182D01*
X118220484Y-87565946D01*
X118172509Y-87616742D01*
X118104688Y-87633536D01*
X118038553Y-87610998D01*
X117999516Y-87565946D01*
X117995050Y-87557182D01*
X117870109Y-87385213D01*
X117719786Y-87234890D01*
X117547820Y-87109951D01*
X117358414Y-87013444D01*
X117358413Y-87013443D01*
X117358412Y-87013443D01*
X117156243Y-86947754D01*
X117156241Y-86947753D01*
X117156240Y-86947753D01*
X116994957Y-86922208D01*
X116946287Y-86914500D01*
X116733713Y-86914500D01*
X116685042Y-86922208D01*
X116523760Y-86947753D01*
X116321585Y-87013444D01*
X116132179Y-87109951D01*
X115960213Y-87234890D01*
X115809890Y-87385213D01*
X115684949Y-87557182D01*
X115680484Y-87565946D01*
X115632509Y-87616742D01*
X115564688Y-87633536D01*
X115498553Y-87610998D01*
X115459516Y-87565946D01*
X115455050Y-87557182D01*
X115330109Y-87385213D01*
X115179786Y-87234890D01*
X115007820Y-87109951D01*
X114818414Y-87013444D01*
X114818413Y-87013443D01*
X114818412Y-87013443D01*
X114616243Y-86947754D01*
X114616241Y-86947753D01*
X114616240Y-86947753D01*
X114454957Y-86922208D01*
X114406287Y-86914500D01*
X114193713Y-86914500D01*
X114145042Y-86922208D01*
X113983760Y-86947753D01*
X113781585Y-87013444D01*
X113592179Y-87109951D01*
X113420213Y-87234890D01*
X113269890Y-87385213D01*
X113144949Y-87557182D01*
X113140484Y-87565946D01*
X113092509Y-87616742D01*
X113024688Y-87633536D01*
X112958553Y-87610998D01*
X112919516Y-87565946D01*
X112915050Y-87557182D01*
X112790109Y-87385213D01*
X112639786Y-87234890D01*
X112467820Y-87109951D01*
X112278414Y-87013444D01*
X112278413Y-87013443D01*
X112278412Y-87013443D01*
X112076243Y-86947754D01*
X112076241Y-86947753D01*
X112076240Y-86947753D01*
X111914957Y-86922208D01*
X111866287Y-86914500D01*
X111653713Y-86914500D01*
X111605042Y-86922208D01*
X111443760Y-86947753D01*
X111241585Y-87013444D01*
X111052179Y-87109951D01*
X110880213Y-87234890D01*
X110729890Y-87385213D01*
X110604949Y-87557182D01*
X110600484Y-87565946D01*
X110552509Y-87616742D01*
X110484688Y-87633536D01*
X110418553Y-87610998D01*
X110379516Y-87565946D01*
X110375050Y-87557182D01*
X110250109Y-87385213D01*
X110099786Y-87234890D01*
X109927820Y-87109951D01*
X109738414Y-87013444D01*
X109738413Y-87013443D01*
X109738412Y-87013443D01*
X109536243Y-86947754D01*
X109536241Y-86947753D01*
X109536240Y-86947753D01*
X109374957Y-86922208D01*
X109326287Y-86914500D01*
X109113713Y-86914500D01*
X109065042Y-86922208D01*
X108903760Y-86947753D01*
X108701585Y-87013444D01*
X108512179Y-87109951D01*
X108340213Y-87234890D01*
X108189890Y-87385213D01*
X108064949Y-87557182D01*
X108060484Y-87565946D01*
X108012509Y-87616742D01*
X107944688Y-87633536D01*
X107878553Y-87610998D01*
X107839516Y-87565946D01*
X107835050Y-87557182D01*
X107710109Y-87385213D01*
X107559786Y-87234890D01*
X107387820Y-87109951D01*
X107198414Y-87013444D01*
X107198413Y-87013443D01*
X107198412Y-87013443D01*
X106996243Y-86947754D01*
X106996241Y-86947753D01*
X106996240Y-86947753D01*
X106834957Y-86922208D01*
X106786287Y-86914500D01*
X106573713Y-86914500D01*
X106525042Y-86922208D01*
X106363760Y-86947753D01*
X106161585Y-87013444D01*
X105972179Y-87109951D01*
X105800213Y-87234890D01*
X105649890Y-87385213D01*
X105524949Y-87557182D01*
X105520484Y-87565946D01*
X105472509Y-87616742D01*
X105404688Y-87633536D01*
X105338553Y-87610998D01*
X105299516Y-87565946D01*
X105295050Y-87557182D01*
X105170109Y-87385213D01*
X105019786Y-87234890D01*
X104847820Y-87109951D01*
X104658414Y-87013444D01*
X104658413Y-87013443D01*
X104658412Y-87013443D01*
X104456243Y-86947754D01*
X104456241Y-86947753D01*
X104456240Y-86947753D01*
X104294957Y-86922208D01*
X104246287Y-86914500D01*
X104033713Y-86914500D01*
X103985042Y-86922208D01*
X103823760Y-86947753D01*
X103621585Y-87013444D01*
X103432179Y-87109951D01*
X103260213Y-87234890D01*
X103109890Y-87385213D01*
X102984949Y-87557182D01*
X102980484Y-87565946D01*
X102932509Y-87616742D01*
X102864688Y-87633536D01*
X102798553Y-87610998D01*
X102759516Y-87565946D01*
X102755050Y-87557182D01*
X102630109Y-87385213D01*
X102479786Y-87234890D01*
X102307820Y-87109951D01*
X102118414Y-87013444D01*
X102118413Y-87013443D01*
X102118412Y-87013443D01*
X101916243Y-86947754D01*
X101916241Y-86947753D01*
X101741901Y-86920140D01*
X101678767Y-86890210D01*
X101641836Y-86830899D01*
X101637300Y-86797667D01*
X101637300Y-86634410D01*
X101637300Y-86634400D01*
X101625747Y-86526944D01*
X101614541Y-86475433D01*
X101614437Y-86475122D01*
X101580416Y-86372902D01*
X101580413Y-86372896D01*
X101502628Y-86251862D01*
X101502625Y-86251857D01*
X101502620Y-86251851D01*
X101456876Y-86199059D01*
X101456872Y-86199056D01*
X101456870Y-86199053D01*
X101348136Y-86104833D01*
X101348133Y-86104831D01*
X101348131Y-86104830D01*
X101217265Y-86045064D01*
X101217260Y-86045062D01*
X101217259Y-86045062D01*
X101150220Y-86025377D01*
X101150222Y-86025377D01*
X101150217Y-86025376D01*
X101088147Y-86016452D01*
X101007800Y-86004900D01*
X74290000Y-86004900D01*
X74289991Y-86004900D01*
X74289990Y-86004901D01*
X74182549Y-86016452D01*
X74182537Y-86016454D01*
X74131027Y-86027660D01*
X74028502Y-86061783D01*
X74028496Y-86061786D01*
X73907462Y-86139571D01*
X73907451Y-86139579D01*
X73854659Y-86185323D01*
X73760433Y-86294064D01*
X73760430Y-86294068D01*
X73700664Y-86424934D01*
X73680976Y-86491982D01*
X73675949Y-86526949D01*
X73660502Y-86634390D01*
X73660500Y-86634401D01*
X73660500Y-88285026D01*
X73640815Y-88352065D01*
X73610812Y-88384292D01*
X73534452Y-88441455D01*
X73448206Y-88556664D01*
X73448202Y-88556671D01*
X73397908Y-88691517D01*
X73391501Y-88751116D01*
X73391501Y-88751123D01*
X73391500Y-88751135D01*
X73391500Y-92346870D01*
X73391501Y-92346876D01*
X73397908Y-92406483D01*
X73448202Y-92541328D01*
X73448206Y-92541335D01*
X73517358Y-92633709D01*
X73534454Y-92656546D01*
X73610812Y-92713708D01*
X73652682Y-92769640D01*
X73660500Y-92812973D01*
X73660500Y-97920500D01*
X73640815Y-97987539D01*
X73588011Y-98033294D01*
X73536500Y-98044500D01*
X72176994Y-98044500D01*
X72109955Y-98024815D01*
X72064200Y-97972011D01*
X72053735Y-97934035D01*
X72030712Y-97724371D01*
X72030710Y-97724358D01*
X72020858Y-97679046D01*
X71953243Y-97368064D01*
X71953240Y-97368054D01*
X71838962Y-97021833D01*
X71838957Y-97021820D01*
X71838956Y-97021816D01*
X71689103Y-96689411D01*
X71505324Y-96374491D01*
X71289634Y-96080506D01*
X71229026Y-96013821D01*
X71044390Y-95810671D01*
X70772298Y-95567963D01*
X70772285Y-95567953D01*
X70476322Y-95355020D01*
X70476317Y-95355017D01*
X70159700Y-95174178D01*
X69825915Y-95027425D01*
X69825916Y-95027425D01*
X69825913Y-95027424D01*
X69478613Y-94916364D01*
X69146035Y-94847289D01*
X69121615Y-94842217D01*
X68758817Y-94805792D01*
X68758815Y-94805792D01*
X68394210Y-94807488D01*
X68394196Y-94807489D01*
X68031759Y-94847289D01*
X67772571Y-94903644D01*
X67675459Y-94924759D01*
X67675457Y-94924759D01*
X67675455Y-94924760D01*
X67675449Y-94924761D01*
X67329228Y-95039039D01*
X67329215Y-95039044D01*
X66996799Y-95188903D01*
X66996794Y-95188906D01*
X66681899Y-95372670D01*
X66681884Y-95372680D01*
X66387906Y-95588365D01*
X66387903Y-95588367D01*
X66118067Y-95833613D01*
X65875368Y-96105694D01*
X65875355Y-96105710D01*
X65662417Y-96401681D01*
X65481575Y-96718305D01*
X65334827Y-97052078D01*
X65334822Y-97052092D01*
X65231638Y-97374765D01*
X65223764Y-97399387D01*
X65149616Y-97756390D01*
X65136160Y-97890415D01*
X65136159Y-97890418D01*
X65131404Y-97937774D01*
X65131405Y-97937774D01*
X65126408Y-97987539D01*
X65125906Y-97992535D01*
X65125904Y-97992537D01*
X65084059Y-98409223D01*
X65013772Y-99354376D01*
X64999086Y-99657733D01*
X64967946Y-100300962D01*
X64956971Y-100788231D01*
X64946605Y-101248462D01*
X58725391Y-101248462D01*
X58725391Y-100954239D01*
X58725448Y-100950494D01*
X58735721Y-100610510D01*
X58764455Y-99659575D01*
X58764619Y-99655936D01*
X58842606Y-98366666D01*
X58842882Y-98363028D01*
X58959766Y-97076768D01*
X58960152Y-97073125D01*
X59115840Y-95790921D01*
X59116331Y-95787339D01*
X59310661Y-94510502D01*
X59311279Y-94506818D01*
X59349204Y-94299867D01*
X59544092Y-93236401D01*
X59544802Y-93232834D01*
X59815873Y-91970054D01*
X59816709Y-91966428D01*
X60125798Y-90712401D01*
X60126718Y-90708895D01*
X60473555Y-89464732D01*
X60474613Y-89461151D01*
X60832454Y-88312800D01*
X61445100Y-88312800D01*
X61445100Y-92636800D01*
X61445101Y-92636809D01*
X61456652Y-92744250D01*
X61456654Y-92744262D01*
X61467860Y-92795772D01*
X61501983Y-92898297D01*
X61501986Y-92898303D01*
X61579771Y-93019337D01*
X61579779Y-93019348D01*
X61625523Y-93072140D01*
X61625526Y-93072143D01*
X61625530Y-93072147D01*
X61734264Y-93166367D01*
X61734267Y-93166368D01*
X61734268Y-93166369D01*
X61828525Y-93209416D01*
X61865141Y-93226138D01*
X61932180Y-93245823D01*
X61932184Y-93245824D01*
X62074600Y-93266300D01*
X62074603Y-93266300D01*
X70970590Y-93266300D01*
X70970600Y-93266300D01*
X71078056Y-93254747D01*
X71129567Y-93243541D01*
X71163797Y-93232147D01*
X71232097Y-93209416D01*
X71232101Y-93209413D01*
X71232104Y-93209413D01*
X71353143Y-93131625D01*
X71405947Y-93085870D01*
X71500167Y-92977136D01*
X71559938Y-92846259D01*
X71567443Y-92820698D01*
X71605217Y-92761921D01*
X71627000Y-92746798D01*
X71634321Y-92742799D01*
X71634331Y-92742796D01*
X71749546Y-92656546D01*
X71835796Y-92541331D01*
X71886091Y-92406483D01*
X71892500Y-92346873D01*
X71892499Y-88751128D01*
X71886091Y-88691517D01*
X71851235Y-88598064D01*
X71835797Y-88556671D01*
X71835793Y-88556664D01*
X71772521Y-88472145D01*
X71749546Y-88441454D01*
X71645267Y-88363391D01*
X71603398Y-88307459D01*
X71596293Y-88277394D01*
X71588547Y-88205344D01*
X71577341Y-88153833D01*
X71577237Y-88153522D01*
X71543216Y-88051302D01*
X71543213Y-88051296D01*
X71492550Y-87972464D01*
X71465425Y-87930257D01*
X71465420Y-87930251D01*
X71419676Y-87877459D01*
X71419672Y-87877456D01*
X71419670Y-87877453D01*
X71310936Y-87783233D01*
X71310933Y-87783231D01*
X71310931Y-87783230D01*
X71180065Y-87723464D01*
X71180060Y-87723462D01*
X71180059Y-87723462D01*
X71113020Y-87703777D01*
X71113022Y-87703777D01*
X71113017Y-87703776D01*
X71050947Y-87694852D01*
X70970600Y-87683300D01*
X62074600Y-87683300D01*
X62074591Y-87683300D01*
X62074590Y-87683301D01*
X61967149Y-87694852D01*
X61967137Y-87694854D01*
X61915627Y-87706060D01*
X61813102Y-87740183D01*
X61813096Y-87740186D01*
X61692062Y-87817971D01*
X61692051Y-87817979D01*
X61639259Y-87863723D01*
X61545033Y-87972464D01*
X61545030Y-87972468D01*
X61485264Y-88103334D01*
X61465576Y-88170382D01*
X61457267Y-88228173D01*
X61445100Y-88312800D01*
X60832454Y-88312800D01*
X60858850Y-88228093D01*
X60859993Y-88224614D01*
X61281305Y-87003697D01*
X61282531Y-87000310D01*
X61740540Y-85792640D01*
X61741895Y-85789223D01*
X62236164Y-84595951D01*
X62237596Y-84592636D01*
X62767697Y-83414801D01*
X62769245Y-83411496D01*
X63334647Y-82250273D01*
X63336295Y-82247012D01*
X63936546Y-81103330D01*
X63938277Y-81100150D01*
X64572762Y-79975181D01*
X64574645Y-79971959D01*
X64706410Y-79753993D01*
X64737214Y-79703037D01*
X73092253Y-79703037D01*
X73099053Y-80065695D01*
X73143721Y-80425649D01*
X73143722Y-80425653D01*
X73225773Y-80778971D01*
X73231834Y-80796500D01*
X73344305Y-81121774D01*
X73498019Y-81450307D01*
X73498027Y-81450321D01*
X73685234Y-81760976D01*
X73685247Y-81760995D01*
X73903896Y-82050375D01*
X73903905Y-82050386D01*
X74151613Y-82315333D01*
X74151626Y-82315345D01*
X74368621Y-82503483D01*
X74425676Y-82552951D01*
X74723067Y-82760615D01*
X74838117Y-82824194D01*
X75040521Y-82936047D01*
X75040524Y-82936048D01*
X75040536Y-82936055D01*
X75198224Y-83002749D01*
X75374594Y-83077345D01*
X75374595Y-83077345D01*
X75374604Y-83077349D01*
X75721612Y-83182950D01*
X75721620Y-83182951D01*
X75721621Y-83182952D01*
X76077741Y-83251697D01*
X76077757Y-83251700D01*
X76439137Y-83282846D01*
X76801793Y-83276048D01*
X77161752Y-83231378D01*
X77515070Y-83149327D01*
X77857875Y-83030794D01*
X78186413Y-82877078D01*
X78497083Y-82689861D01*
X78786482Y-82471197D01*
X79051439Y-82223480D01*
X79169177Y-82087682D01*
X79170765Y-82085888D01*
X79202777Y-82050386D01*
X79876397Y-81303319D01*
X79879342Y-81300166D01*
X80611755Y-80543796D01*
X80614798Y-80540762D01*
X81373641Y-79810907D01*
X81376830Y-79807948D01*
X82161099Y-79105572D01*
X82164382Y-79102735D01*
X82973137Y-78428677D01*
X82976504Y-78425971D01*
X83808713Y-77781095D01*
X83812202Y-77778489D01*
X84666823Y-77163599D01*
X84670370Y-77161141D01*
X85546339Y-76577007D01*
X85549946Y-76574693D01*
X86446112Y-76022082D01*
X86449866Y-76019859D01*
X87365093Y-75499471D01*
X87368856Y-75497419D01*
X88302018Y-75009892D01*
X88305931Y-75007935D01*
X89255798Y-74553913D01*
X89259776Y-74552098D01*
X90225158Y-74132143D01*
X90229213Y-74130465D01*
X91208925Y-73745095D01*
X91213028Y-73743565D01*
X92205866Y-73393255D01*
X92209966Y-73391890D01*
X93214642Y-73077098D01*
X93218804Y-73075875D01*
X94234037Y-72797001D01*
X94238216Y-72795932D01*
X95262726Y-72553329D01*
X95266927Y-72552412D01*
X96299462Y-72346376D01*
X96303658Y-72345616D01*
X97342864Y-72176422D01*
X97347118Y-72175806D01*
X98391624Y-72043673D01*
X98395991Y-72043199D01*
X99444515Y-71948287D01*
X99448816Y-71947975D01*
X100500081Y-71890400D01*
X100504384Y-71890240D01*
X101557017Y-71870077D01*
X101561403Y-71870072D01*
X102614036Y-71887345D01*
X102618386Y-71887494D01*
X103669809Y-71942184D01*
X103674164Y-71942489D01*
X104661555Y-72029136D01*
X104722879Y-72034518D01*
X104727264Y-72034981D01*
X104795307Y-72043399D01*
X105772078Y-72164241D01*
X105776424Y-72164857D01*
X106816016Y-72331188D01*
X106820265Y-72331945D01*
X107853285Y-72535132D01*
X107857582Y-72536057D01*
X108882700Y-72775836D01*
X108886895Y-72776896D01*
X109902888Y-73052983D01*
X109907095Y-73054207D01*
X110912592Y-73366229D01*
X110916715Y-73367590D01*
X111910497Y-73715170D01*
X111914562Y-73716673D01*
X112778109Y-74053614D01*
X112895354Y-74099362D01*
X112899433Y-74101038D01*
X113865969Y-74518343D01*
X113869924Y-74520134D01*
X114821032Y-74971549D01*
X114824977Y-74973508D01*
X115657097Y-75405343D01*
X115759395Y-75458431D01*
X115763262Y-75460526D01*
X116679887Y-75978385D01*
X116683654Y-75980603D01*
X117219106Y-76308759D01*
X117581277Y-76530718D01*
X117584995Y-76533089D01*
X117760962Y-76649735D01*
X118462483Y-77114764D01*
X118466068Y-77117233D01*
X119266175Y-77689575D01*
X119322336Y-77729749D01*
X119325876Y-77732378D01*
X120159784Y-78374917D01*
X120163229Y-78377670D01*
X120973780Y-79049463D01*
X120977124Y-79052336D01*
X121250905Y-79296178D01*
X121763305Y-79752545D01*
X121766511Y-79755506D01*
X122527294Y-80483218D01*
X122530398Y-80486294D01*
X122865666Y-80830634D01*
X123265275Y-81241056D01*
X123267049Y-81242916D01*
X123389544Y-81374058D01*
X123389559Y-81374072D01*
X123477404Y-81450307D01*
X123660325Y-81609053D01*
X123663492Y-81611801D01*
X123663494Y-81611803D01*
X123960783Y-81819602D01*
X123960798Y-81819611D01*
X124103266Y-81898428D01*
X124278174Y-81995193D01*
X124505005Y-82091257D01*
X124588340Y-82126550D01*
X124612175Y-82136644D01*
X124959133Y-82242407D01*
X125315245Y-82311324D01*
X125676609Y-82342640D01*
X125676623Y-82342639D01*
X125676629Y-82342640D01*
X126039269Y-82336012D01*
X126039270Y-82336012D01*
X126130277Y-82324761D01*
X126399247Y-82291512D01*
X126752603Y-82209628D01*
X127095464Y-82091257D01*
X127424073Y-81937695D01*
X127734831Y-81750626D01*
X128024333Y-81532099D01*
X128289406Y-81284508D01*
X128490333Y-81052987D01*
X128527146Y-81010569D01*
X128527148Y-81010566D01*
X128567161Y-80953322D01*
X128734952Y-80713274D01*
X128910542Y-80395889D01*
X129051995Y-80061888D01*
X129157761Y-79714932D01*
X129226681Y-79358820D01*
X129257999Y-78997456D01*
X129257069Y-78946556D01*
X129251374Y-78634793D01*
X129251374Y-78634792D01*
X129206877Y-78274825D01*
X129206876Y-78274824D01*
X129206876Y-78274817D01*
X129124995Y-77921461D01*
X129075630Y-77778473D01*
X129006630Y-77578610D01*
X129006627Y-77578605D01*
X129006626Y-77578600D01*
X128853067Y-77249989D01*
X128666000Y-76939230D01*
X128447475Y-76649726D01*
X128447467Y-76649717D01*
X128362742Y-76559008D01*
X128355885Y-76551667D01*
X128355724Y-76551322D01*
X128323151Y-76516620D01*
X128323151Y-76516621D01*
X128322827Y-76516274D01*
X128322825Y-76516272D01*
X128285364Y-76476163D01*
X128284067Y-76474979D01*
X128177250Y-76361172D01*
X127919827Y-76086903D01*
X127085938Y-75253874D01*
X126467002Y-74674116D01*
X126225692Y-74448081D01*
X125340006Y-73670383D01*
X124971958Y-73367601D01*
X124429744Y-72921538D01*
X124123285Y-72685527D01*
X123495890Y-72202356D01*
X122539408Y-71513582D01*
X122539393Y-71513571D01*
X121561247Y-70855895D01*
X121561244Y-70855893D01*
X121561229Y-70855883D01*
X120562473Y-70230014D01*
X120562461Y-70230007D01*
X119544069Y-69636555D01*
X119544059Y-69636549D01*
X119544046Y-69636542D01*
X118507117Y-69076150D01*
X117452711Y-68549387D01*
X116381874Y-68056779D01*
X115714048Y-67775214D01*
X115295772Y-67598864D01*
X114195507Y-67176104D01*
X114195504Y-67176103D01*
X114195499Y-67176101D01*
X113082224Y-66788939D01*
X111957039Y-66437759D01*
X110821188Y-66122949D01*
X109675802Y-65844820D01*
X108522028Y-65603653D01*
X107361097Y-65399707D01*
X106194261Y-65233199D01*
X105400902Y-65145908D01*
X105022632Y-65104288D01*
X105022628Y-65104287D01*
X105022622Y-65104287D01*
X103847489Y-65013113D01*
X102669979Y-64959768D01*
X101491430Y-64944310D01*
X101491419Y-64944310D01*
X101491405Y-64944310D01*
X100312929Y-64966752D01*
X99135784Y-65027072D01*
X99135769Y-65027073D01*
X99135754Y-65027074D01*
X97961213Y-65125205D01*
X97961187Y-65125207D01*
X97961187Y-65125208D01*
X96790353Y-65261058D01*
X96790346Y-65261058D01*
X96790329Y-65261061D01*
X95624486Y-65434482D01*
X94464812Y-65645298D01*
X93312524Y-65893288D01*
X92168765Y-66178209D01*
X91034790Y-66499747D01*
X91034784Y-66499749D01*
X89911723Y-66857582D01*
X89911715Y-66857584D01*
X89911705Y-66857588D01*
X88800752Y-67251336D01*
X87703003Y-67680611D01*
X86619649Y-68144947D01*
X85551749Y-68643891D01*
X84500469Y-69176899D01*
X83466866Y-69743432D01*
X82451996Y-70342914D01*
X81456938Y-70974708D01*
X80710878Y-71482782D01*
X80482709Y-71638167D01*
X80343483Y-71739684D01*
X79530310Y-72332608D01*
X78600732Y-73057310D01*
X77694930Y-73811530D01*
X76813865Y-74594464D01*
X75958402Y-75405345D01*
X75129469Y-76243296D01*
X74327893Y-77107478D01*
X73978764Y-77509057D01*
X73972307Y-77516483D01*
X73972133Y-77516589D01*
X73941737Y-77551647D01*
X73941578Y-77551830D01*
X73941283Y-77552169D01*
X73941145Y-77552327D01*
X73904109Y-77594924D01*
X73903504Y-77595740D01*
X73822150Y-77689572D01*
X73822148Y-77689575D01*
X73614485Y-77986967D01*
X73614481Y-77986974D01*
X73439052Y-78304422D01*
X73439041Y-78304445D01*
X73297754Y-78638495D01*
X73192148Y-78985520D01*
X73192147Y-78985522D01*
X73123402Y-79341642D01*
X73123400Y-79341659D01*
X73092253Y-79703037D01*
X64737214Y-79703037D01*
X65242819Y-78866662D01*
X65244724Y-78863615D01*
X65946001Y-77778968D01*
X65948051Y-77775901D01*
X66681724Y-76712992D01*
X66683888Y-76709957D01*
X67449318Y-75669707D01*
X67451569Y-75666744D01*
X67582596Y-75499501D01*
X68248072Y-74650082D01*
X68250413Y-74647186D01*
X68294344Y-74594473D01*
X69077272Y-73655028D01*
X69079677Y-73652232D01*
X69936133Y-72685492D01*
X69938595Y-72682796D01*
X70823885Y-71742338D01*
X70826428Y-71739717D01*
X71739717Y-70826428D01*
X71742338Y-70823885D01*
X72682796Y-69938595D01*
X72685492Y-69936133D01*
X73652232Y-69079677D01*
X73655028Y-69077272D01*
X74647202Y-68250399D01*
X74650082Y-68248072D01*
X75666762Y-67451554D01*
X75669707Y-67449318D01*
X76709971Y-66683877D01*
X76713007Y-66681714D01*
X76976632Y-66499747D01*
X77775901Y-65948051D01*
X77778968Y-65946001D01*
X78863615Y-65244724D01*
X78866662Y-65242819D01*
X79971971Y-64574637D01*
X79975193Y-64572756D01*
X81100150Y-63938277D01*
X81103330Y-63936546D01*
X82247012Y-63336295D01*
X82250273Y-63334647D01*
X83411496Y-62769245D01*
X83414801Y-62767697D01*
X84592636Y-62237596D01*
X84595951Y-62236164D01*
X85789223Y-61741895D01*
X85792640Y-61740540D01*
X87000310Y-61282531D01*
X87003697Y-61281305D01*
X88224636Y-60859985D01*
X88228152Y-60858831D01*
X89461163Y-60474609D01*
X89464732Y-60473555D01*
X90708895Y-60126718D01*
X90712401Y-60125798D01*
X91966451Y-59816703D01*
X91970054Y-59815873D01*
X93232834Y-59544802D01*
X93236401Y-59544092D01*
X94506829Y-59311277D01*
X94510502Y-59310661D01*
X95787339Y-59116331D01*
X95790921Y-59115840D01*
X97073125Y-58960152D01*
X97076768Y-58959766D01*
X98363028Y-58842882D01*
X98366666Y-58842606D01*
X99655936Y-58764619D01*
X99659575Y-58764455D01*
X100950495Y-58725448D01*
X100954240Y-58725391D01*
X102245760Y-58725391D01*
X102249505Y-58725448D01*
G37*
%TD.AperFunction*%
%TD*%
M02*
