%TF.GenerationSoftware,KiCad,Pcbnew,9.0.1*%
%TF.CreationDate,2026-01-02T16:06:00+00:00*%
%TF.ProjectId,float_carrier_2025-2026,666c6f61-745f-4636-9172-726965725f32,v01*%
%TF.SameCoordinates,Original*%
%TF.FileFunction,Copper,L1,Top*%
%TF.FilePolarity,Positive*%
%FSLAX46Y46*%
G04 Gerber Fmt 4.6, Leading zero omitted, Abs format (unit mm)*
G04 Created by KiCad (PCBNEW 9.0.1) date 2026-01-02 16:06:00*
%MOMM*%
%LPD*%
G01*
G04 APERTURE LIST*
G04 Aperture macros list*
%AMRoundRect*
0 Rectangle with rounded corners*
0 $1 Rounding radius*
0 $2 $3 $4 $5 $6 $7 $8 $9 X,Y pos of 4 corners*
0 Add a 4 corners polygon primitive as box body*
4,1,4,$2,$3,$4,$5,$6,$7,$8,$9,$2,$3,0*
0 Add four circle primitives for the rounded corners*
1,1,$1+$1,$2,$3*
1,1,$1+$1,$4,$5*
1,1,$1+$1,$6,$7*
1,1,$1+$1,$8,$9*
0 Add four rect primitives between the rounded corners*
20,1,$1+$1,$2,$3,$4,$5,0*
20,1,$1+$1,$4,$5,$6,$7,0*
20,1,$1+$1,$6,$7,$8,$9,0*
20,1,$1+$1,$8,$9,$2,$3,0*%
G04 Aperture macros list end*
%TA.AperFunction,ComponentPad*%
%ADD10R,1.700000X1.700000*%
%TD*%
%TA.AperFunction,ComponentPad*%
%ADD11C,1.700000*%
%TD*%
%TA.AperFunction,SMDPad,CuDef*%
%ADD12RoundRect,0.225000X-0.250000X0.225000X-0.250000X-0.225000X0.250000X-0.225000X0.250000X0.225000X0*%
%TD*%
%TA.AperFunction,SMDPad,CuDef*%
%ADD13RoundRect,0.225000X-0.225000X-0.250000X0.225000X-0.250000X0.225000X0.250000X-0.225000X0.250000X0*%
%TD*%
%TA.AperFunction,SMDPad,CuDef*%
%ADD14R,2.950000X3.500000*%
%TD*%
%TA.AperFunction,SMDPad,CuDef*%
%ADD15RoundRect,0.200000X-0.200000X-0.275000X0.200000X-0.275000X0.200000X0.275000X-0.200000X0.275000X0*%
%TD*%
%TA.AperFunction,SMDPad,CuDef*%
%ADD16RoundRect,0.218750X0.256250X-0.218750X0.256250X0.218750X-0.256250X0.218750X-0.256250X-0.218750X0*%
%TD*%
%TA.AperFunction,ComponentPad*%
%ADD17RoundRect,0.250000X-0.750000X-0.750000X0.750000X-0.750000X0.750000X0.750000X-0.750000X0.750000X0*%
%TD*%
%TA.AperFunction,ComponentPad*%
%ADD18C,2.000000*%
%TD*%
%TA.AperFunction,SMDPad,CuDef*%
%ADD19RoundRect,0.200000X0.200000X0.275000X-0.200000X0.275000X-0.200000X-0.275000X0.200000X-0.275000X0*%
%TD*%
%TA.AperFunction,SMDPad,CuDef*%
%ADD20RoundRect,0.140000X0.170000X-0.140000X0.170000X0.140000X-0.170000X0.140000X-0.170000X-0.140000X0*%
%TD*%
%TA.AperFunction,ComponentPad*%
%ADD21RoundRect,0.250000X0.750000X0.750000X-0.750000X0.750000X-0.750000X-0.750000X0.750000X-0.750000X0*%
%TD*%
%TA.AperFunction,SMDPad,CuDef*%
%ADD22RoundRect,0.150000X-0.150000X0.512500X-0.150000X-0.512500X0.150000X-0.512500X0.150000X0.512500X0*%
%TD*%
%TA.AperFunction,SMDPad,CuDef*%
%ADD23RoundRect,0.200000X-0.275000X0.200000X-0.275000X-0.200000X0.275000X-0.200000X0.275000X0.200000X0*%
%TD*%
%TA.AperFunction,SMDPad,CuDef*%
%ADD24RoundRect,0.140000X-0.140000X-0.170000X0.140000X-0.170000X0.140000X0.170000X-0.140000X0.170000X0*%
%TD*%
%TA.AperFunction,SMDPad,CuDef*%
%ADD25RoundRect,0.200000X0.275000X-0.200000X0.275000X0.200000X-0.275000X0.200000X-0.275000X-0.200000X0*%
%TD*%
%TA.AperFunction,ViaPad*%
%ADD26C,0.600000*%
%TD*%
%TA.AperFunction,Conductor*%
%ADD27C,0.200000*%
%TD*%
G04 APERTURE END LIST*
D10*
%TO.P,J6,1,Pin_1*%
%TO.N,/GPIO7*%
X117627400Y-81457800D03*
D11*
%TO.P,J6,2,Pin_2*%
%TO.N,/GPIO6*%
X115087400Y-81457800D03*
%TO.P,J6,3,Pin_3*%
%TO.N,/GPIO5*%
X112547400Y-81457800D03*
%TO.P,J6,4,Pin_4*%
%TO.N,/GPIO4*%
X110007400Y-81457800D03*
%TO.P,J6,5,Pin_5*%
%TO.N,/GPIO3*%
X107467400Y-81457800D03*
%TO.P,J6,6,Pin_6*%
%TO.N,/GPIO2*%
X104927400Y-81457800D03*
%TO.P,J6,7,Pin_7*%
%TO.N,/GPIO1*%
X102387400Y-81457800D03*
%TD*%
D10*
%TO.P,J2,1,Pin_1*%
%TO.N,/GPIO19{slash}SCL*%
X137160000Y-111254000D03*
D11*
%TO.P,J2,2,Pin_2*%
%TO.N,/GPIO20{slash}SCA*%
X134620000Y-111254000D03*
%TO.P,J2,3,Pin_3*%
%TO.N,/GPIO21*%
X132080000Y-111254000D03*
%TO.P,J2,4,Pin_4*%
%TO.N,/GPIO26*%
X129540000Y-111254000D03*
%TO.P,J2,5,Pin_5*%
%TO.N,/GPIO48*%
X127000000Y-111254000D03*
%TO.P,J2,6,Pin_6*%
%TO.N,/GPIO47*%
X124460000Y-111254000D03*
%TO.P,J2,7,Pin_7*%
%TO.N,/GPIO33*%
X121920000Y-111254000D03*
%TO.P,J2,8,Pin_8*%
%TO.N,/GPIO34*%
X119380000Y-111254000D03*
%TO.P,J2,9,Pin_9*%
%TO.N,/GPIO35*%
X116840000Y-111254000D03*
%TO.P,J2,10,Pin_10*%
%TO.N,/GPIO36*%
X114300000Y-111254000D03*
%TO.P,J2,11,Pin_11*%
%TO.N,/GPIO0*%
X111760000Y-111254000D03*
%TO.P,J2,12,Pin_12*%
%TO.N,/RST*%
X109220000Y-111254000D03*
%TO.P,J2,13,Pin_13*%
%TO.N,/U0TXD{slash}GPIO43*%
X106680000Y-111254000D03*
%TO.P,J2,14,Pin_14*%
%TO.N,/U0RXD{slash}GPIO44*%
X104140000Y-111254000D03*
%TO.P,J2,15,Pin_15*%
%TO.N,/Ve*%
X101600000Y-111254000D03*
%TO.P,J2,16,Pin_16*%
X99060000Y-111254000D03*
%TO.P,J2,17,Pin_17*%
%TO.N,/5V*%
X96520000Y-111254000D03*
%TO.P,J2,18,Pin_18*%
%TO.N,GND*%
X93980000Y-111254000D03*
%TD*%
D12*
%TO.P,C4,1*%
%TO.N,/3.3V*%
X84580000Y-97709000D03*
%TO.P,C4,2*%
%TO.N,GND*%
X84580000Y-99259000D03*
%TD*%
%TO.P,C3,1*%
%TO.N,/3.3V*%
X77214000Y-97722000D03*
%TO.P,C3,2*%
%TO.N,GND*%
X77214000Y-99272000D03*
%TD*%
D13*
%TO.P,C1,2*%
%TO.N,GND*%
X74446000Y-100201000D03*
%TO.P,C1,1*%
%TO.N,/6V*%
X72896000Y-100201000D03*
%TD*%
D14*
%TO.P,L1,1,1*%
%TO.N,Net-(U2-SW)*%
X69917000Y-90549000D03*
%TO.P,L1,2,2*%
%TO.N,/3.3V*%
X75367000Y-90549000D03*
%TD*%
D15*
%TO.P,R3,1*%
%TO.N,Net-(U2-VFB)*%
X76897000Y-120521000D03*
%TO.P,R3,2*%
%TO.N,GND*%
X78547000Y-120521000D03*
%TD*%
D12*
%TO.P,C7,1*%
%TO.N,/3.3V*%
X80897000Y-97709000D03*
%TO.P,C7,2*%
%TO.N,GND*%
X80897000Y-99259000D03*
%TD*%
D16*
%TO.P,D1,1,K*%
%TO.N,Net-(D1-K)*%
X123250000Y-120250000D03*
%TO.P,D1,2,A*%
%TO.N,/GPIO0*%
X123250000Y-118675000D03*
%TD*%
D17*
%TO.P,J7,1,Pin_1*%
%TO.N,/6V*%
X90906600Y-122047000D03*
D18*
%TO.P,J7,2,Pin_2*%
%TO.N,GND*%
X93446600Y-122047000D03*
%TD*%
D19*
%TO.P,R2,1*%
%TO.N,/3.3V*%
X78547000Y-123825000D03*
%TO.P,R2,2*%
%TO.N,Net-(U2-VFB)*%
X76897000Y-123825000D03*
%TD*%
D20*
%TO.P,C6,1*%
%TO.N,Net-(U2-VBST)*%
X78103000Y-116909000D03*
%TO.P,C6,2*%
%TO.N,Net-(U2-SW)*%
X78103000Y-115949000D03*
%TD*%
D21*
%TO.P,J5,1,Pin_1*%
%TO.N,GND*%
X98000000Y-80200000D03*
D18*
%TO.P,J5,2,Pin_2*%
X95460000Y-80200000D03*
%TO.P,J5,3,Pin_3*%
X92920000Y-80200000D03*
%TD*%
D17*
%TO.P,J4,1,Pin_1*%
%TO.N,/GPIO33*%
X98720000Y-122000000D03*
D18*
%TO.P,J4,2,Pin_2*%
%TO.N,/5V*%
X101260000Y-122000000D03*
%TO.P,J4,3,Pin_3*%
%TO.N,GND*%
X103800000Y-122000000D03*
%TD*%
D22*
%TO.P,U2,1,GND*%
%TO.N,GND*%
X74801000Y-112266000D03*
%TO.P,U2,2,SW*%
%TO.N,Net-(U2-SW)*%
X73851000Y-112266000D03*
%TO.P,U2,3,VIN*%
%TO.N,/6V*%
X72901000Y-112266000D03*
%TO.P,U2,4,VFB*%
%TO.N,Net-(U2-VFB)*%
X72901000Y-114541000D03*
%TO.P,U2,5,EN*%
%TO.N,Net-(U2-EN)*%
X73851000Y-114541000D03*
%TO.P,U2,6,VBST*%
%TO.N,Net-(U2-VBST)*%
X74801000Y-114541000D03*
%TD*%
D23*
%TO.P,R1,1*%
%TO.N,Net-(D1-K)*%
X120750000Y-120350000D03*
%TO.P,R1,2*%
%TO.N,GND*%
X120750000Y-122000000D03*
%TD*%
D24*
%TO.P,C5,1*%
%TO.N,/6V*%
X73436600Y-108254800D03*
%TO.P,C5,2*%
%TO.N,GND*%
X74396600Y-108254800D03*
%TD*%
D25*
%TO.P,R4,1*%
%TO.N,Net-(U2-EN)*%
X69086000Y-114107000D03*
%TO.P,R4,2*%
%TO.N,/6V*%
X69086000Y-112457000D03*
%TD*%
D13*
%TO.P,C2,1*%
%TO.N,/6V*%
X72896000Y-104265000D03*
%TO.P,C2,2*%
%TO.N,GND*%
X74446000Y-104265000D03*
%TD*%
D11*
%TO.P,J1,18,Pin_18*%
%TO.N,GND*%
X93980000Y-88265000D03*
%TO.P,J1,17,Pin_17*%
%TO.N,/3.3V*%
X96520000Y-88265000D03*
%TO.P,J1,16,Pin_16*%
X99060000Y-88265000D03*
%TO.P,J1,15,Pin_15*%
%TO.N,/GPIO37*%
X101600000Y-88265000D03*
%TO.P,J1,14,Pin_14*%
%TO.N,/GPIO46*%
X104140000Y-88265000D03*
%TO.P,J1,13,Pin_13*%
%TO.N,/GPIO45*%
X106680000Y-88265000D03*
%TO.P,J1,12,Pin_12*%
%TO.N,/GPIO42*%
X109220000Y-88265000D03*
%TO.P,J1,11,Pin_11*%
%TO.N,/GPIO41*%
X111760000Y-88265000D03*
%TO.P,J1,10,Pin_10*%
%TO.N,/GPIO40*%
X114300000Y-88265000D03*
%TO.P,J1,9,Pin_9*%
%TO.N,/GPIO39*%
X116840000Y-88265000D03*
%TO.P,J1,8,Pin_8*%
%TO.N,/GPIO38*%
X119380000Y-88265000D03*
%TO.P,J1,7,Pin_7*%
%TO.N,/GPIO1*%
X121920000Y-88265000D03*
%TO.P,J1,6,Pin_6*%
%TO.N,/GPIO2*%
X124460000Y-88265000D03*
%TO.P,J1,5,Pin_5*%
%TO.N,/GPIO3*%
X127000000Y-88265000D03*
%TO.P,J1,4,Pin_4*%
%TO.N,/GPIO4*%
X129540000Y-88265000D03*
%TO.P,J1,3,Pin_3*%
%TO.N,/GPIO5*%
X132080000Y-88265000D03*
%TO.P,J1,2,Pin_2*%
%TO.N,/GPIO6*%
X134620000Y-88265000D03*
D10*
%TO.P,J1,1,Pin_1*%
%TO.N,/GPIO7*%
X137160000Y-88265000D03*
%TD*%
D17*
%TO.P,J3,1,Pin_1*%
%TO.N,/GPIO19{slash}SCL*%
X108780000Y-121800000D03*
D18*
%TO.P,J3,2,Pin_2*%
%TO.N,/GPIO20{slash}SCA*%
X111320000Y-121800000D03*
%TO.P,J3,3,Pin_3*%
%TO.N,/3.3V*%
X113860000Y-121800000D03*
%TO.P,J3,4,Pin_4*%
%TO.N,GND*%
X116400000Y-121800000D03*
%TD*%
D26*
%TO.N,/GPIO33*%
X108051600Y-117068600D03*
%TO.N,/6V*%
X71018400Y-111937800D03*
X71729600Y-112623600D03*
X70358000Y-112598200D03*
X71018400Y-112598200D03*
X70332600Y-111937800D03*
X71729600Y-111937800D03*
%TO.N,/3.3V*%
X94250000Y-93000000D03*
X93400000Y-97500000D03*
X94250000Y-94500000D03*
X93400000Y-94500000D03*
X88468200Y-113055400D03*
X94250000Y-97500000D03*
X94250000Y-96000000D03*
X93400000Y-93000000D03*
X93400000Y-96000000D03*
X86220300Y-92900500D03*
%TO.N,Net-(U2-SW)*%
X73863200Y-109575600D03*
X63000000Y-89000000D03*
X63000000Y-90000000D03*
X64000000Y-91000000D03*
X64000000Y-90000000D03*
X66000000Y-91000000D03*
X65000000Y-89000000D03*
X64000000Y-89000000D03*
X66000000Y-89000000D03*
X67000000Y-91000000D03*
X66000000Y-92000000D03*
X65000000Y-91000000D03*
X63000000Y-91000000D03*
X67000000Y-90000000D03*
X65000000Y-90000000D03*
X64000000Y-92000000D03*
X73863200Y-110921800D03*
X63000000Y-92000000D03*
X66000000Y-90000000D03*
X73863200Y-110210600D03*
X67000000Y-89000000D03*
X67000000Y-92000000D03*
X65000000Y-92000000D03*
%TO.N,/GPIO0*%
X121250000Y-118750000D03*
%TO.N,GND*%
X95250000Y-98780600D03*
%TD*%
D27*
%TO.N,GND*%
X116400000Y-121800000D02*
X118200000Y-123600000D01*
X118200000Y-123600000D02*
X119600000Y-123600000D01*
X120550000Y-121800000D02*
X120750000Y-122000000D01*
X93980000Y-111254000D02*
X93980000Y-121513600D01*
X93980000Y-121513600D02*
X93446600Y-122047000D01*
X92354400Y-104140000D02*
X85166200Y-104140000D01*
X93980000Y-111254000D02*
X93980000Y-105765600D01*
X93980000Y-105765600D02*
X92354400Y-104140000D01*
%TO.N,/GPIO2*%
X110058200Y-86588600D02*
X124460000Y-86588600D01*
X104927400Y-81457800D02*
X110058200Y-86588600D01*
X124460000Y-86588600D02*
X124460000Y-88265000D01*
%TO.N,/GPIO4*%
X114096800Y-85547200D02*
X129489200Y-85547200D01*
X129489200Y-85547200D02*
X129540000Y-85598000D01*
X129540000Y-85598000D02*
X129540000Y-88265000D01*
X110007400Y-81457800D02*
X114096800Y-85547200D01*
%TO.N,/GPIO6*%
X118237000Y-84607400D02*
X134594600Y-84607400D01*
X115087400Y-81457800D02*
X118237000Y-84607400D01*
X134594600Y-84607400D02*
X134620000Y-84632800D01*
X134620000Y-84632800D02*
X134620000Y-88265000D01*
%TO.N,/GPIO33*%
X108051600Y-117068600D02*
X113149000Y-111971200D01*
X113823240Y-110103000D02*
X120769000Y-110103000D01*
X113149000Y-111971200D02*
X113149000Y-110777240D01*
X113149000Y-110777240D02*
X113823240Y-110103000D01*
X120769000Y-110103000D02*
X121920000Y-111254000D01*
%TO.N,/3.3V*%
X113860000Y-121800000D02*
X115161000Y-120499000D01*
X115161000Y-120499000D02*
X119461936Y-120499000D01*
X85415200Y-124201000D02*
X85039200Y-123825000D01*
X119461936Y-120499000D02*
X120261936Y-121299000D01*
X121526000Y-121586936D02*
X121526000Y-122523943D01*
X120261936Y-121299000D02*
X121238064Y-121299000D01*
X119848943Y-124201000D02*
X85415200Y-124201000D01*
X121238064Y-121299000D02*
X121526000Y-121586936D01*
X121526000Y-122523943D02*
X119848943Y-124201000D01*
%TO.N,/GPIO19{slash}SCL*%
X108780000Y-121800000D02*
X117372200Y-113207800D01*
X117372200Y-113207800D02*
X131991960Y-113207800D01*
X131991960Y-113207800D02*
X133469000Y-111730760D01*
X133469000Y-111730760D02*
X133469000Y-110777240D01*
X133469000Y-110777240D02*
X134143240Y-110103000D01*
X134143240Y-110103000D02*
X136009000Y-110103000D01*
X136009000Y-110103000D02*
X137160000Y-111254000D01*
%TO.N,/GPIO20{slash}SCA*%
X119074000Y-114046000D02*
X134645400Y-114046000D01*
X111320000Y-121800000D02*
X119074000Y-114046000D01*
X134645400Y-114046000D02*
X134620000Y-114020600D01*
X134620000Y-114020600D02*
X134620000Y-111254000D01*
%TO.N,/3.3V*%
X85039200Y-123825000D02*
X78547000Y-123825000D01*
X88468200Y-113055400D02*
X88468200Y-120396000D01*
X88468200Y-120396000D02*
X85039200Y-123825000D01*
%TO.N,Net-(U2-VBST)*%
X78103000Y-116909000D02*
X74872000Y-116909000D01*
X74801000Y-116838000D02*
X74801000Y-114541000D01*
X74872000Y-116909000D02*
X74801000Y-116838000D01*
%TO.N,Net-(U2-SW)*%
X74460032Y-113229500D02*
X75383500Y-113229500D01*
X73851000Y-112266000D02*
X73851000Y-112620468D01*
X73851000Y-112620468D02*
X74460032Y-113229500D01*
X73851000Y-112075000D02*
X73660000Y-112075000D01*
X73851000Y-112266000D02*
X73851000Y-112075000D01*
X73851000Y-111911532D02*
X73851000Y-112266000D01*
X75383500Y-113229500D02*
X78103000Y-115949000D01*
%TO.N,/GPIO0*%
X123250000Y-118675000D02*
X121325000Y-118675000D01*
X121325000Y-118675000D02*
X121250000Y-118750000D01*
%TO.N,Net-(D1-K)*%
X123150000Y-120350000D02*
X123250000Y-120250000D01*
X120750000Y-120350000D02*
X123150000Y-120350000D01*
%TO.N,GND*%
X119600000Y-123600000D02*
X120750000Y-122450000D01*
X102499000Y-123301000D02*
X94700600Y-123301000D01*
X105400000Y-123600000D02*
X119600000Y-123600000D01*
X120750000Y-122450000D02*
X120750000Y-122000000D01*
X79171800Y-119896200D02*
X79171800Y-111048800D01*
X92920000Y-80200000D02*
X98000000Y-80200000D01*
X94700600Y-123301000D02*
X93446600Y-122047000D01*
X95250000Y-98780600D02*
X92202000Y-101828600D01*
X92202000Y-101828600D02*
X85166200Y-101828600D01*
X103800000Y-122000000D02*
X102499000Y-123301000D01*
X103800000Y-122000000D02*
X105400000Y-123600000D01*
X78547000Y-120521000D02*
X79171800Y-119896200D01*
X95250000Y-80410000D02*
X95460000Y-80200000D01*
%TO.N,Net-(U2-VFB)*%
X72896000Y-120521000D02*
X72896000Y-120140000D01*
X72896000Y-120140000D02*
X72901000Y-120135000D01*
X76897000Y-120521000D02*
X72896000Y-120521000D01*
X76897000Y-123825000D02*
X76897000Y-120521000D01*
X72901000Y-120135000D02*
X72901000Y-114541000D01*
%TO.N,Net-(U2-EN)*%
X69086000Y-114107000D02*
X69615500Y-113577500D01*
X73549999Y-113577500D02*
X73851000Y-113878501D01*
X69615500Y-113577500D02*
X73549999Y-113577500D01*
X73851000Y-113878501D02*
X73851000Y-114541000D01*
%TD*%
%TA.AperFunction,Conductor*%
%TO.N,Net-(U2-SW)*%
G36*
X74314239Y-109188885D02*
G01*
X74359994Y-109241689D01*
X74371200Y-109293200D01*
X74371200Y-111019024D01*
X74351515Y-111086063D01*
X74298711Y-111131818D01*
X74229553Y-111141762D01*
X74212605Y-111138100D01*
X74103494Y-111106400D01*
X74103497Y-111106400D01*
X74101000Y-111106203D01*
X74101000Y-111371684D01*
X74083733Y-111434804D01*
X74049254Y-111493105D01*
X74049254Y-111493106D01*
X74003402Y-111650926D01*
X74003401Y-111650932D01*
X74000500Y-111687798D01*
X74000500Y-112142000D01*
X73997949Y-112150685D01*
X73999238Y-112159647D01*
X73988259Y-112183687D01*
X73980815Y-112209039D01*
X73973974Y-112214966D01*
X73970213Y-112223203D01*
X73947978Y-112237492D01*
X73928011Y-112254794D01*
X73917496Y-112257081D01*
X73911435Y-112260977D01*
X73876500Y-112266000D01*
X73825500Y-112266000D01*
X73758461Y-112246315D01*
X73712706Y-112193511D01*
X73701500Y-112142000D01*
X73701500Y-111687813D01*
X73701499Y-111687798D01*
X73698598Y-111650932D01*
X73698597Y-111650926D01*
X73652745Y-111493106D01*
X73652745Y-111493105D01*
X73652744Y-111493104D01*
X73652744Y-111493102D01*
X73618267Y-111434804D01*
X73601000Y-111371684D01*
X73601000Y-111106203D01*
X73598507Y-111106400D01*
X73488394Y-111138391D01*
X73418525Y-111138191D01*
X73359855Y-111100248D01*
X73331012Y-111036610D01*
X73329800Y-111019314D01*
X73329800Y-109293200D01*
X73349485Y-109226161D01*
X73402289Y-109180406D01*
X73453800Y-109169200D01*
X74247200Y-109169200D01*
X74314239Y-109188885D01*
G37*
%TD.AperFunction*%
%TD*%
%TA.AperFunction,Conductor*%
%TO.N,/3.3V*%
G36*
X101074839Y-86530085D02*
G01*
X101120594Y-86582889D01*
X101131800Y-86634400D01*
X101131800Y-86911870D01*
X101112115Y-86978909D01*
X101064095Y-87022355D01*
X100892180Y-87109951D01*
X100720213Y-87234890D01*
X100569890Y-87385213D01*
X100444951Y-87557179D01*
X100348444Y-87746585D01*
X100282753Y-87948760D01*
X100249500Y-88158713D01*
X100249500Y-88371286D01*
X100282753Y-88581239D01*
X100348444Y-88783414D01*
X100444951Y-88972820D01*
X100569890Y-89144786D01*
X100720213Y-89295109D01*
X100892182Y-89420050D01*
X100892184Y-89420051D01*
X101064094Y-89507643D01*
X101114891Y-89555617D01*
X101131800Y-89618128D01*
X101131800Y-98045000D01*
X101112115Y-98112039D01*
X101059311Y-98157794D01*
X101007800Y-98169000D01*
X95813153Y-98169000D01*
X95746114Y-98149315D01*
X95744262Y-98148102D01*
X95629185Y-98071209D01*
X95629172Y-98071202D01*
X95483501Y-98010864D01*
X95483489Y-98010861D01*
X95328845Y-97980100D01*
X95328842Y-97980100D01*
X95171158Y-97980100D01*
X95171155Y-97980100D01*
X95016510Y-98010861D01*
X95016498Y-98010864D01*
X94870827Y-98071202D01*
X94870814Y-98071209D01*
X94755738Y-98148102D01*
X94689061Y-98168980D01*
X94686847Y-98169000D01*
X74290000Y-98169000D01*
X74222961Y-98149315D01*
X74177206Y-98096511D01*
X74166000Y-98045000D01*
X74166000Y-88158713D01*
X92629500Y-88158713D01*
X92629500Y-88371286D01*
X92662753Y-88581239D01*
X92728444Y-88783414D01*
X92824951Y-88972820D01*
X92949890Y-89144786D01*
X93100213Y-89295109D01*
X93272179Y-89420048D01*
X93272181Y-89420049D01*
X93272184Y-89420051D01*
X93461588Y-89516557D01*
X93663757Y-89582246D01*
X93873713Y-89615500D01*
X93873714Y-89615500D01*
X94086286Y-89615500D01*
X94086287Y-89615500D01*
X94296243Y-89582246D01*
X94498412Y-89516557D01*
X94687816Y-89420051D01*
X94709789Y-89404086D01*
X94859786Y-89295109D01*
X94859788Y-89295106D01*
X94859792Y-89295104D01*
X95010104Y-89144792D01*
X95010106Y-89144788D01*
X95010109Y-89144786D01*
X95135048Y-88972820D01*
X95135047Y-88972820D01*
X95135051Y-88972816D01*
X95231557Y-88783412D01*
X95297246Y-88581243D01*
X95330500Y-88371287D01*
X95330500Y-88158713D01*
X95297246Y-87948757D01*
X95231557Y-87746588D01*
X95135051Y-87557184D01*
X95135049Y-87557181D01*
X95135048Y-87557179D01*
X95010109Y-87385213D01*
X94859786Y-87234890D01*
X94687820Y-87109951D01*
X94498414Y-87013444D01*
X94498413Y-87013443D01*
X94498412Y-87013443D01*
X94296243Y-86947754D01*
X94296241Y-86947753D01*
X94296240Y-86947753D01*
X94134957Y-86922208D01*
X94086287Y-86914500D01*
X93873713Y-86914500D01*
X93825042Y-86922208D01*
X93663760Y-86947753D01*
X93461585Y-87013444D01*
X93272179Y-87109951D01*
X93100213Y-87234890D01*
X92949890Y-87385213D01*
X92824951Y-87557179D01*
X92728444Y-87746585D01*
X92662753Y-87948760D01*
X92629500Y-88158713D01*
X74166000Y-88158713D01*
X74166000Y-86634400D01*
X74185685Y-86567361D01*
X74238489Y-86521606D01*
X74290000Y-86510400D01*
X101007800Y-86510400D01*
X101074839Y-86530085D01*
G37*
%TD.AperFunction*%
%TD*%
%TA.AperFunction,Conductor*%
%TO.N,/6V*%
G36*
X73744927Y-98569685D02*
G01*
X73790682Y-98622489D01*
X73801876Y-98675735D01*
X73793094Y-99303253D01*
X73772473Y-99370011D01*
X73756788Y-99389198D01*
X73648032Y-99497955D01*
X73648029Y-99497959D01*
X73559001Y-99642294D01*
X73558996Y-99642305D01*
X73505651Y-99803290D01*
X73495500Y-99902647D01*
X73495500Y-100499337D01*
X73495501Y-100499355D01*
X73505650Y-100598707D01*
X73505651Y-100598710D01*
X73558996Y-100759694D01*
X73559001Y-100759705D01*
X73648029Y-100904040D01*
X73648032Y-100904044D01*
X73731961Y-100987973D01*
X73765446Y-101049296D01*
X73768268Y-101077389D01*
X73735419Y-103424928D01*
X73714798Y-103491685D01*
X73699114Y-103510873D01*
X73648029Y-103561959D01*
X73559001Y-103706294D01*
X73558996Y-103706305D01*
X73505651Y-103867290D01*
X73495500Y-103966647D01*
X73495500Y-104563337D01*
X73495501Y-104563355D01*
X73505650Y-104662707D01*
X73505651Y-104662710D01*
X73558996Y-104823694D01*
X73559001Y-104823705D01*
X73648029Y-104968040D01*
X73648032Y-104968044D01*
X73675878Y-104995890D01*
X73709363Y-105057213D01*
X73712185Y-105085306D01*
X73674471Y-107780478D01*
X73665832Y-107820782D01*
X73666282Y-107820913D01*
X73664459Y-107827185D01*
X73664290Y-107827977D01*
X73664106Y-107828401D01*
X73618957Y-107983802D01*
X73618956Y-107983808D01*
X73616100Y-108020102D01*
X73616100Y-108489495D01*
X73619286Y-108529971D01*
X73604922Y-108598348D01*
X73555870Y-108648105D01*
X73495668Y-108663700D01*
X73453800Y-108663700D01*
X73453791Y-108663700D01*
X73453790Y-108663701D01*
X73346349Y-108675252D01*
X73346337Y-108675254D01*
X73294827Y-108686460D01*
X73192302Y-108720583D01*
X73192296Y-108720586D01*
X73071262Y-108798371D01*
X73071251Y-108798379D01*
X73018459Y-108844123D01*
X72924233Y-108952864D01*
X72924230Y-108952868D01*
X72864464Y-109083734D01*
X72844776Y-109150782D01*
X72824300Y-109293201D01*
X72824300Y-111019315D01*
X72825536Y-111054640D01*
X72825537Y-111054650D01*
X72826749Y-111071946D01*
X72830454Y-111107120D01*
X72853777Y-111187400D01*
X72870594Y-111245285D01*
X72899440Y-111308929D01*
X72976874Y-111430183D01*
X72976877Y-111430186D01*
X73029416Y-111475976D01*
X73067022Y-111534862D01*
X73067022Y-111604048D01*
X73053402Y-111650929D01*
X73053401Y-111650932D01*
X73050500Y-111687798D01*
X73050500Y-112806389D01*
X73030815Y-112873428D01*
X72978011Y-112919183D01*
X72931712Y-112930279D01*
X71823705Y-112976890D01*
X71818493Y-112977000D01*
X69536443Y-112977000D01*
X69383714Y-113017923D01*
X69347386Y-113038898D01*
X69347383Y-113038899D01*
X69294986Y-113069149D01*
X69238200Y-113085651D01*
X67945212Y-113140043D01*
X67877404Y-113123194D01*
X67829470Y-113072360D01*
X67816000Y-113016153D01*
X67816000Y-106988099D01*
X67835685Y-106921060D01*
X67888489Y-106875305D01*
X67957647Y-106865361D01*
X67958916Y-106865551D01*
X68121682Y-106890905D01*
X68121692Y-106890906D01*
X68400888Y-106904822D01*
X68485850Y-106909058D01*
X68849921Y-106889045D01*
X69209906Y-106831085D01*
X69385883Y-106783450D01*
X69561850Y-106735818D01*
X69561852Y-106735817D01*
X69561860Y-106735815D01*
X69883207Y-106611518D01*
X69901915Y-106604282D01*
X69901917Y-106604280D01*
X69901927Y-106604277D01*
X70226382Y-106437914D01*
X70531670Y-106238546D01*
X70814446Y-106008360D01*
X71071612Y-105749876D01*
X71300351Y-105465928D01*
X71498155Y-105159625D01*
X71662858Y-104834323D01*
X71792656Y-104493588D01*
X71886127Y-104141152D01*
X71942245Y-103780876D01*
X71945963Y-103706303D01*
X71955704Y-103510873D01*
X71960398Y-103416708D01*
X71953514Y-103291502D01*
X71953007Y-103282217D01*
X71953026Y-103282148D01*
X71950453Y-103235505D01*
X71950366Y-103233652D01*
X71949831Y-103220137D01*
X71914036Y-102315745D01*
X71913945Y-102311926D01*
X71910078Y-101858329D01*
X71906122Y-101394330D01*
X71906147Y-101390566D01*
X71926801Y-100473058D01*
X71926948Y-100469228D01*
X71971264Y-99642305D01*
X71976052Y-99552942D01*
X71976317Y-99549113D01*
X72051394Y-98663525D01*
X72076671Y-98598388D01*
X72133152Y-98557257D01*
X72174951Y-98550000D01*
X73677888Y-98550000D01*
X73744927Y-98569685D01*
G37*
%TD.AperFunction*%
%TD*%
%TA.AperFunction,Conductor*%
%TO.N,Net-(U2-SW)*%
G36*
X71037639Y-88208485D02*
G01*
X71083394Y-88261289D01*
X71094600Y-88312800D01*
X71094600Y-92636800D01*
X71074915Y-92703839D01*
X71022111Y-92749594D01*
X70970600Y-92760800D01*
X62074600Y-92760800D01*
X62007561Y-92741115D01*
X61961806Y-92688311D01*
X61950600Y-92636800D01*
X61950600Y-88312800D01*
X61970285Y-88245761D01*
X62023089Y-88200006D01*
X62074600Y-88188800D01*
X70970600Y-88188800D01*
X71037639Y-88208485D01*
G37*
%TD.AperFunction*%
%TD*%
%TA.AperFunction,Conductor*%
%TO.N,GND*%
G36*
X87217439Y-98694185D02*
G01*
X87263194Y-98746989D01*
X87274400Y-98798500D01*
X87274400Y-112874220D01*
X87254715Y-112941259D01*
X87201911Y-112987014D01*
X87150955Y-112998219D01*
X76102804Y-113047651D01*
X76073066Y-113039063D01*
X76042822Y-113032484D01*
X76038136Y-113028976D01*
X76035677Y-113028266D01*
X76014568Y-113011333D01*
X75871090Y-112867855D01*
X75871088Y-112867852D01*
X75752217Y-112748981D01*
X75752216Y-112748980D01*
X75665404Y-112698860D01*
X75665404Y-112698859D01*
X75665400Y-112698858D01*
X75615285Y-112669923D01*
X75462557Y-112628999D01*
X75304443Y-112628999D01*
X75296847Y-112628999D01*
X75296831Y-112629000D01*
X74775500Y-112629000D01*
X74708461Y-112609315D01*
X74662706Y-112556511D01*
X74651500Y-112505000D01*
X74651500Y-111687813D01*
X74651499Y-111687798D01*
X74648598Y-111650932D01*
X74648598Y-111650931D01*
X74635152Y-111604649D01*
X74635350Y-111534785D01*
X74673029Y-111476341D01*
X74682547Y-111468094D01*
X74776767Y-111359360D01*
X74836538Y-111228483D01*
X74856223Y-111161444D01*
X74856224Y-111161440D01*
X74876700Y-111019024D01*
X74876700Y-109293200D01*
X74865147Y-109185744D01*
X74853941Y-109134233D01*
X74853837Y-109133922D01*
X74819816Y-109031702D01*
X74819813Y-109031696D01*
X74742028Y-108910662D01*
X74742025Y-108910657D01*
X74742020Y-108910651D01*
X74696276Y-108857859D01*
X74696272Y-108857856D01*
X74696270Y-108857853D01*
X74587536Y-108763633D01*
X74587533Y-108763631D01*
X74587531Y-108763630D01*
X74456665Y-108703864D01*
X74456660Y-108703862D01*
X74456659Y-108703862D01*
X74389620Y-108684177D01*
X74389622Y-108684177D01*
X74389617Y-108684176D01*
X74361036Y-108680066D01*
X74318016Y-108673881D01*
X74254462Y-108644857D01*
X74216687Y-108586079D01*
X74213854Y-108532118D01*
X74213746Y-108532110D01*
X74213810Y-108531290D01*
X74213683Y-108528861D01*
X74214242Y-108525796D01*
X74214241Y-108525796D01*
X74214243Y-108525793D01*
X74217100Y-108489490D01*
X74217100Y-108020110D01*
X74214243Y-107983807D01*
X74180492Y-107867639D01*
X74176353Y-107819111D01*
X74179922Y-107787551D01*
X74217636Y-105092379D01*
X74215154Y-105034782D01*
X74212332Y-105006689D01*
X74203311Y-104949761D01*
X74153029Y-104814952D01*
X74119544Y-104753629D01*
X74119540Y-104753623D01*
X74117144Y-104749894D01*
X74118373Y-104749103D01*
X74096154Y-104689546D01*
X74095839Y-104680291D01*
X74098715Y-103862062D01*
X74118635Y-103795094D01*
X74122902Y-103788924D01*
X74136182Y-103770908D01*
X74136182Y-103770907D01*
X74136184Y-103770905D01*
X74197781Y-103640877D01*
X74218402Y-103574120D01*
X74218403Y-103574116D01*
X74240870Y-103432001D01*
X74273719Y-101084462D01*
X74271237Y-101026865D01*
X74268415Y-100998772D01*
X74259394Y-100941844D01*
X74209112Y-100807035D01*
X74175627Y-100745712D01*
X74134853Y-100691245D01*
X74110437Y-100625783D01*
X74110122Y-100616528D01*
X74113009Y-99795314D01*
X74132928Y-99728349D01*
X74145052Y-99712568D01*
X74148158Y-99709135D01*
X74163843Y-99689948D01*
X74193860Y-99649229D01*
X74255456Y-99519201D01*
X74276077Y-99452443D01*
X74276077Y-99452442D01*
X74276079Y-99452437D01*
X74276145Y-99452012D01*
X74276770Y-99448057D01*
X74298545Y-99310327D01*
X74305732Y-98796764D01*
X74326353Y-98730007D01*
X74379792Y-98684996D01*
X74429720Y-98674500D01*
X87150400Y-98674500D01*
X87217439Y-98694185D01*
G37*
%TD.AperFunction*%
%TD*%
%TA.AperFunction,Conductor*%
%TO.N,/5V*%
G36*
X98432923Y-109848485D02*
G01*
X98478678Y-109901289D01*
X98488622Y-109970447D01*
X98459597Y-110034003D01*
X98422179Y-110063285D01*
X98352179Y-110098951D01*
X98180213Y-110223890D01*
X98029890Y-110374213D01*
X97904951Y-110546179D01*
X97808444Y-110735585D01*
X97742753Y-110937760D01*
X97709500Y-111147713D01*
X97709500Y-111360286D01*
X97742753Y-111570239D01*
X97808444Y-111772414D01*
X97904951Y-111961820D01*
X98029890Y-112133786D01*
X98180213Y-112284109D01*
X98352179Y-112409048D01*
X98352181Y-112409049D01*
X98352184Y-112409051D01*
X98541588Y-112505557D01*
X98743757Y-112571246D01*
X98953713Y-112604500D01*
X98953714Y-112604500D01*
X99166286Y-112604500D01*
X99166287Y-112604500D01*
X99376243Y-112571246D01*
X99578412Y-112505557D01*
X99767816Y-112409051D01*
X99789789Y-112393086D01*
X99939786Y-112284109D01*
X99939788Y-112284106D01*
X99939792Y-112284104D01*
X100090104Y-112133792D01*
X100090106Y-112133788D01*
X100090109Y-112133786D01*
X100215048Y-111961820D01*
X100215050Y-111961817D01*
X100215051Y-111961816D01*
X100219514Y-111953054D01*
X100267488Y-111902259D01*
X100335308Y-111885463D01*
X100401444Y-111907999D01*
X100440486Y-111953056D01*
X100444951Y-111961820D01*
X100569890Y-112133786D01*
X100720213Y-112284109D01*
X100892179Y-112409048D01*
X100892181Y-112409049D01*
X100892184Y-112409051D01*
X101081588Y-112505557D01*
X101283757Y-112571246D01*
X101493713Y-112604500D01*
X101493714Y-112604500D01*
X101706286Y-112604500D01*
X101706287Y-112604500D01*
X101916243Y-112571246D01*
X102118412Y-112505557D01*
X102307816Y-112409051D01*
X102329789Y-112393086D01*
X102479786Y-112284109D01*
X102479788Y-112284106D01*
X102479792Y-112284104D01*
X102630104Y-112133792D01*
X102630106Y-112133788D01*
X102630109Y-112133786D01*
X102755048Y-111961820D01*
X102755050Y-111961817D01*
X102755051Y-111961816D01*
X102759514Y-111953054D01*
X102768160Y-111943901D01*
X102772896Y-111932233D01*
X102791695Y-111918980D01*
X102807488Y-111902259D01*
X102819711Y-111899231D01*
X102830003Y-111891977D01*
X102852982Y-111890992D01*
X102875308Y-111885463D01*
X102887226Y-111889524D01*
X102899809Y-111888985D01*
X102919673Y-111900580D01*
X102941444Y-111907999D01*
X102950718Y-111918702D01*
X102960150Y-111924208D01*
X102980485Y-111953055D01*
X102986485Y-111964831D01*
X103000000Y-112021125D01*
X103000000Y-120663332D01*
X102980315Y-120730371D01*
X102948886Y-120763650D01*
X102822488Y-120855484D01*
X102655485Y-121022487D01*
X102655485Y-121022488D01*
X102655483Y-121022490D01*
X102606235Y-121090274D01*
X102516657Y-121213566D01*
X102409433Y-121424003D01*
X102336446Y-121648631D01*
X102299500Y-121881902D01*
X102299500Y-122118097D01*
X102336447Y-122351369D01*
X102336447Y-122351372D01*
X102377450Y-122477563D01*
X102377884Y-122492774D01*
X102383203Y-122507033D01*
X102378861Y-122526990D01*
X102379445Y-122547404D01*
X102371357Y-122561490D01*
X102368352Y-122575306D01*
X102347202Y-122603561D01*
X102286585Y-122664180D01*
X102225262Y-122697666D01*
X102198902Y-122700500D01*
X100344500Y-122700500D01*
X100277461Y-122680815D01*
X100231706Y-122628011D01*
X100220500Y-122576500D01*
X100220499Y-121199998D01*
X100220498Y-121199981D01*
X100209999Y-121097203D01*
X100209998Y-121097200D01*
X100207703Y-121090274D01*
X100154814Y-120930666D01*
X100062712Y-120781344D01*
X99938656Y-120657288D01*
X99789334Y-120565186D01*
X99622797Y-120510001D01*
X99622795Y-120510000D01*
X99520010Y-120499500D01*
X97919998Y-120499500D01*
X97919981Y-120499501D01*
X97817203Y-120510000D01*
X97817200Y-120510001D01*
X97650668Y-120565185D01*
X97650663Y-120565187D01*
X97501342Y-120657289D01*
X97377289Y-120781342D01*
X97285187Y-120930663D01*
X97285186Y-120930666D01*
X97230001Y-121097203D01*
X97230001Y-121097204D01*
X97230000Y-121097204D01*
X97219500Y-121199983D01*
X97219500Y-121199991D01*
X97219500Y-121936490D01*
X97219501Y-122576500D01*
X97199816Y-122643539D01*
X97147013Y-122689294D01*
X97095501Y-122700500D01*
X95219000Y-122700500D01*
X95151961Y-122680815D01*
X95106206Y-122628011D01*
X95095000Y-122576500D01*
X95095000Y-112057231D01*
X95114685Y-111990192D01*
X95118673Y-111984357D01*
X95135051Y-111961816D01*
X95231557Y-111772412D01*
X95297246Y-111570243D01*
X95330500Y-111360287D01*
X95330500Y-111147713D01*
X95297246Y-110937757D01*
X95231557Y-110735588D01*
X95135051Y-110546184D01*
X95132863Y-110543172D01*
X95118681Y-110523651D01*
X95095202Y-110457845D01*
X95095000Y-110450768D01*
X95095000Y-109952800D01*
X95114685Y-109885761D01*
X95167489Y-109840006D01*
X95219000Y-109828800D01*
X98365884Y-109828800D01*
X98432923Y-109848485D01*
G37*
%TD.AperFunction*%
%TD*%
M02*
