%TF.GenerationSoftware,KiCad,Pcbnew,7.99.0-957-g18dd623122*%
%TF.CreationDate,2023-08-18T16:17:54-04:00*%
%TF.ProjectId,bme680,626d6536-3830-42e6-9b69-6361645f7063,V1.0*%
%TF.SameCoordinates,Original*%
%TF.FileFunction,Copper,L1,Top*%
%TF.FilePolarity,Positive*%
%FSLAX46Y46*%
G04 Gerber Fmt 4.6, Leading zero omitted, Abs format (unit mm)*
G04 Created by KiCad (PCBNEW 7.99.0-957-g18dd623122) date 2023-08-18 16:17:54*
%MOMM*%
%LPD*%
G01*
G04 APERTURE LIST*
G04 Aperture macros list*
%AMRoundRect*
0 Rectangle with rounded corners*
0 $1 Rounding radius*
0 $2 $3 $4 $5 $6 $7 $8 $9 X,Y pos of 4 corners*
0 Add a 4 corners polygon primitive as box body*
4,1,4,$2,$3,$4,$5,$6,$7,$8,$9,$2,$3,0*
0 Add four circle primitives for the rounded corners*
1,1,$1+$1,$2,$3*
1,1,$1+$1,$4,$5*
1,1,$1+$1,$6,$7*
1,1,$1+$1,$8,$9*
0 Add four rect primitives between the rounded corners*
20,1,$1+$1,$2,$3,$4,$5,0*
20,1,$1+$1,$4,$5,$6,$7,0*
20,1,$1+$1,$6,$7,$8,$9,0*
20,1,$1+$1,$8,$9,$2,$3,0*%
G04 Aperture macros list end*
%TA.AperFunction,SMDPad,CuDef*%
%ADD10RoundRect,0.125000X-0.125000X-0.137500X0.125000X-0.137500X0.125000X0.137500X-0.125000X0.137500X0*%
%TD*%
%TA.AperFunction,SMDPad,CuDef*%
%ADD11RoundRect,0.225000X-0.225000X-0.250000X0.225000X-0.250000X0.225000X0.250000X-0.225000X0.250000X0*%
%TD*%
%TA.AperFunction,SMDPad,CuDef*%
%ADD12R,1.500000X1.000000*%
%TD*%
%TA.AperFunction,ComponentPad*%
%ADD13R,1.700000X1.700000*%
%TD*%
%TA.AperFunction,ComponentPad*%
%ADD14O,1.700000X1.700000*%
%TD*%
%TA.AperFunction,SMDPad,CuDef*%
%ADD15RoundRect,0.218750X0.256250X-0.218750X0.256250X0.218750X-0.256250X0.218750X-0.256250X-0.218750X0*%
%TD*%
%TA.AperFunction,SMDPad,CuDef*%
%ADD16RoundRect,0.200000X0.275000X-0.200000X0.275000X0.200000X-0.275000X0.200000X-0.275000X-0.200000X0*%
%TD*%
%TA.AperFunction,ViaPad*%
%ADD17C,0.500000*%
%TD*%
%TA.AperFunction,ViaPad*%
%ADD18C,0.800000*%
%TD*%
%TA.AperFunction,Conductor*%
%ADD19C,0.500000*%
%TD*%
%TA.AperFunction,Conductor*%
%ADD20C,0.250000*%
%TD*%
%TA.AperFunction,Conductor*%
%ADD21C,0.150000*%
%TD*%
G04 APERTURE END LIST*
D10*
%TO.P,U1,1,GND*%
%TO.N,GND*%
X140024000Y-104984500D03*
%TO.P,U1,2,CSB*%
%TO.N,/CSB*%
X140824000Y-104984500D03*
%TO.P,U1,3,SDI*%
%TO.N,/SDI*%
X141624000Y-104984500D03*
%TO.P,U1,4,SCK*%
%TO.N,/SCK*%
X142424000Y-104984500D03*
%TO.P,U1,5,SDO*%
%TO.N,/SDO*%
X142424000Y-107359500D03*
%TO.P,U1,6,VDDIO*%
%TO.N,+3.3V*%
X141624000Y-107359500D03*
%TO.P,U1,7,GND*%
%TO.N,GND*%
X140824000Y-107359500D03*
%TO.P,U1,8,VDD*%
%TO.N,+3.3V*%
X140024000Y-107359500D03*
%TD*%
D11*
%TO.P,C2,1*%
%TO.N,+3.3V*%
X142481000Y-108966000D03*
%TO.P,C2,2*%
%TO.N,GND*%
X144031000Y-108966000D03*
%TD*%
D12*
%TO.P,JP2,1,A*%
%TO.N,/SDO*%
X145796000Y-105522001D03*
%TO.P,JP2,2,B*%
%TO.N,GND*%
X145796000Y-106821999D03*
%TD*%
D13*
%TO.P,J1,1,Pin_1*%
%TO.N,/SDO*%
X145024000Y-100584000D03*
D14*
%TO.P,J1,2,Pin_2*%
%TO.N,/SCK*%
X142484000Y-100584000D03*
%TO.P,J1,3,Pin_3*%
%TO.N,/SDI*%
X139944001Y-100584000D03*
%TO.P,J1,4,Pin_4*%
%TO.N,/CSB*%
X137404000Y-100584000D03*
%TD*%
D15*
%TO.P,D1,1,K*%
%TO.N,GND*%
X145288000Y-114071501D03*
%TO.P,D1,2,A*%
%TO.N,Net-(D1-A)*%
X145288000Y-112496499D03*
%TD*%
D16*
%TO.P,R1,1*%
%TO.N,+3.3V*%
X136906000Y-114109000D03*
%TO.P,R1,2*%
%TO.N,Net-(D1-A)*%
X136906000Y-112459000D03*
%TD*%
D13*
%TO.P,J2,1,Pin_1*%
%TO.N,+3.3V*%
X142499000Y-113284000D03*
D14*
%TO.P,J2,2,Pin_2*%
%TO.N,GND*%
X139959000Y-113284000D03*
%TD*%
D12*
%TO.P,JP1,1,A*%
%TO.N,/CSB*%
X136652000Y-105522001D03*
%TO.P,JP1,2,B*%
%TO.N,+3.3V*%
X136652000Y-106821999D03*
%TD*%
D11*
%TO.P,C1,1*%
%TO.N,GND*%
X136639000Y-108712000D03*
%TO.P,C1,2*%
%TO.N,+3.3V*%
X138189000Y-108712000D03*
%TD*%
D17*
%TO.N,GND*%
X146304000Y-108712000D03*
X139192000Y-103632000D03*
X146304000Y-111252000D03*
X146304000Y-113792000D03*
X145288000Y-111252000D03*
X141224000Y-109220000D03*
X136398000Y-109982000D03*
X140208000Y-110744000D03*
X143764000Y-103632000D03*
X142240000Y-106172000D03*
X141732000Y-110744000D03*
X146304000Y-104140000D03*
D18*
%TO.N,Net-(D1-A)*%
X144482091Y-111520636D03*
X136906000Y-111506000D03*
%TD*%
D19*
%TO.N,+3.3V*%
X141191500Y-106647500D02*
X141624000Y-107080000D01*
D20*
X141324500Y-114458500D02*
X142499000Y-113284000D01*
D19*
X141624000Y-107080000D02*
X141624000Y-107359500D01*
X140024000Y-106971500D02*
X139700000Y-106647500D01*
X138671500Y-108712000D02*
X138189000Y-108712000D01*
X136826499Y-106647500D02*
X139700000Y-106647500D01*
X142481000Y-108966000D02*
X142499000Y-108984000D01*
D20*
X136906000Y-114109000D02*
X137255500Y-114458500D01*
D19*
X141624000Y-107359500D02*
X141624000Y-108109000D01*
X141624000Y-108109000D02*
X142481000Y-108966000D01*
X136652000Y-106821999D02*
X136826499Y-106647500D01*
X140024000Y-107359500D02*
X140024000Y-106971500D01*
X140024000Y-107359500D02*
X138671500Y-108712000D01*
X142499000Y-108984000D02*
X142499000Y-113284000D01*
X139700000Y-106647500D02*
X141191500Y-106647500D01*
D20*
X137255500Y-114458500D02*
X141324500Y-114458500D01*
D21*
%TO.N,/SDO*%
X145024000Y-104750001D02*
X145796000Y-105522001D01*
X142424000Y-107359500D02*
X144261499Y-105522001D01*
X144261499Y-105522001D02*
X145796000Y-105522001D01*
X145024000Y-100584000D02*
X145024000Y-104750001D01*
%TO.N,/SCK*%
X142484000Y-104924500D02*
X142424000Y-104984500D01*
X142484000Y-100584000D02*
X142484000Y-104924500D01*
%TO.N,/SDI*%
X139944001Y-100584000D02*
X141624000Y-102263999D01*
X141624000Y-102263999D02*
X141624000Y-104984500D01*
%TO.N,/CSB*%
X140824000Y-104984500D02*
X140824000Y-104957022D01*
X137404000Y-100584000D02*
X137404000Y-104770001D01*
X140548500Y-105232522D02*
X140548500Y-105287478D01*
X140313977Y-105522001D02*
X136652000Y-105522001D01*
X140548500Y-105287478D02*
X140313977Y-105522001D01*
X137404000Y-104770001D02*
X136652000Y-105522001D01*
X140824000Y-104957022D02*
X140548500Y-105232522D01*
D20*
%TO.N,Net-(D1-A)*%
X144482091Y-111520636D02*
X145288000Y-112326545D01*
X136906000Y-112459000D02*
X136906000Y-111506000D01*
X145288000Y-112326545D02*
X145288000Y-112496499D01*
%TD*%
%TA.AperFunction,Conductor*%
%TO.N,GND*%
G36*
X146305198Y-98552618D02*
G01*
X146339310Y-98555977D01*
X146456546Y-98569187D01*
X146465266Y-98570986D01*
X146524555Y-98588971D01*
X146525521Y-98589286D01*
X146609598Y-98618707D01*
X146616491Y-98621732D01*
X146676093Y-98653590D01*
X146677530Y-98654424D01*
X146729843Y-98687295D01*
X146750262Y-98700125D01*
X146752771Y-98701932D01*
X146807691Y-98747002D01*
X146809463Y-98748608D01*
X146869389Y-98808534D01*
X146870996Y-98810307D01*
X146916066Y-98865227D01*
X146917873Y-98867736D01*
X146963563Y-98940450D01*
X146964419Y-98941924D01*
X146970244Y-98952821D01*
X146996259Y-99001492D01*
X146999294Y-99008406D01*
X147028709Y-99092470D01*
X147029029Y-99093450D01*
X147047010Y-99152723D01*
X147048812Y-99161461D01*
X147062026Y-99278742D01*
X147065382Y-99312801D01*
X147065500Y-99315205D01*
X147065500Y-114298794D01*
X147065382Y-114301198D01*
X147062026Y-114335256D01*
X147048812Y-114452537D01*
X147047010Y-114461275D01*
X147029029Y-114520548D01*
X147028709Y-114521528D01*
X146999294Y-114605592D01*
X146996259Y-114612506D01*
X146964426Y-114672062D01*
X146963563Y-114673548D01*
X146917873Y-114746262D01*
X146916066Y-114748771D01*
X146870996Y-114803691D01*
X146869380Y-114805474D01*
X146809474Y-114865380D01*
X146807691Y-114866996D01*
X146752771Y-114912066D01*
X146750262Y-114913873D01*
X146677548Y-114959563D01*
X146676062Y-114960426D01*
X146616506Y-114992259D01*
X146609592Y-114995294D01*
X146525528Y-115024709D01*
X146524548Y-115025029D01*
X146465275Y-115043010D01*
X146456537Y-115044812D01*
X146339256Y-115058026D01*
X146307057Y-115061198D01*
X146305197Y-115061382D01*
X146302795Y-115061500D01*
X136145205Y-115061500D01*
X136142802Y-115061382D01*
X136140694Y-115061174D01*
X136108742Y-115058026D01*
X135991461Y-115044812D01*
X135982723Y-115043010D01*
X135923450Y-115025029D01*
X135922470Y-115024709D01*
X135838406Y-114995294D01*
X135831496Y-114992260D01*
X135771924Y-114960419D01*
X135770450Y-114959563D01*
X135697736Y-114913873D01*
X135695227Y-114912066D01*
X135640307Y-114866996D01*
X135638534Y-114865389D01*
X135578608Y-114805463D01*
X135577002Y-114803691D01*
X135531932Y-114748771D01*
X135530125Y-114746262D01*
X135517295Y-114725843D01*
X135484424Y-114673530D01*
X135483590Y-114672093D01*
X135451732Y-114612491D01*
X135448707Y-114605598D01*
X135419286Y-114521521D01*
X135418969Y-114520548D01*
X135400986Y-114461266D01*
X135399187Y-114452546D01*
X135385972Y-114335256D01*
X135382618Y-114301198D01*
X135382500Y-114298796D01*
X135382500Y-112690517D01*
X136230500Y-112690517D01*
X136245353Y-112784303D01*
X136302945Y-112897335D01*
X136302950Y-112897342D01*
X136392657Y-112987049D01*
X136392664Y-112987054D01*
X136505691Y-113044644D01*
X136505692Y-113044644D01*
X136505696Y-113044646D01*
X136599481Y-113059500D01*
X137212518Y-113059499D01*
X137306304Y-113044646D01*
X137367387Y-113013522D01*
X137419335Y-112987054D01*
X137419337Y-112987052D01*
X137419342Y-112987050D01*
X137509050Y-112897342D01*
X137534997Y-112846419D01*
X137566644Y-112784309D01*
X137566644Y-112784307D01*
X137566646Y-112784304D01*
X137581500Y-112690519D01*
X137581499Y-112227482D01*
X137566646Y-112133696D01*
X137521541Y-112045172D01*
X137509054Y-112020664D01*
X137509049Y-112020657D01*
X137419342Y-111930950D01*
X137419339Y-111930948D01*
X137412521Y-111927474D01*
X137388166Y-111898956D01*
X137391109Y-111861568D01*
X137395887Y-111853995D01*
X137430536Y-111808841D01*
X137491044Y-111662762D01*
X137511682Y-111506000D01*
X137491044Y-111349238D01*
X137436600Y-111217799D01*
X137430538Y-111203163D01*
X137430535Y-111203158D01*
X137334282Y-111077718D01*
X137334281Y-111077717D01*
X137208841Y-110981464D01*
X137208836Y-110981461D01*
X137062761Y-110920955D01*
X136906000Y-110900318D01*
X136749238Y-110920955D01*
X136603163Y-110981461D01*
X136603158Y-110981464D01*
X136477718Y-111077717D01*
X136477717Y-111077718D01*
X136381464Y-111203158D01*
X136381461Y-111203163D01*
X136320955Y-111349238D01*
X136300318Y-111505999D01*
X136320955Y-111662761D01*
X136381461Y-111808836D01*
X136381462Y-111808837D01*
X136381464Y-111808841D01*
X136416104Y-111853985D01*
X136416106Y-111853987D01*
X136425812Y-111890212D01*
X136407060Y-111922691D01*
X136399479Y-111927474D01*
X136392661Y-111930948D01*
X136392654Y-111930953D01*
X136302950Y-112020657D01*
X136302945Y-112020664D01*
X136245355Y-112133690D01*
X136245355Y-112133692D01*
X136245354Y-112133694D01*
X136245354Y-112133696D01*
X136231820Y-112219148D01*
X136230500Y-112227482D01*
X136230500Y-112690517D01*
X135382500Y-112690517D01*
X135382500Y-107341747D01*
X135701500Y-107341747D01*
X135713133Y-107400230D01*
X135730882Y-107426794D01*
X135757447Y-107466551D01*
X135784012Y-107484300D01*
X135823769Y-107510866D01*
X135882252Y-107522499D01*
X135882255Y-107522499D01*
X137421745Y-107522499D01*
X137421748Y-107522499D01*
X137480231Y-107510866D01*
X137546552Y-107466551D01*
X137590867Y-107400230D01*
X137602500Y-107341747D01*
X137602500Y-107147000D01*
X137616852Y-107112352D01*
X137651500Y-107098000D01*
X139493099Y-107098000D01*
X139527747Y-107112352D01*
X139546247Y-107130852D01*
X139560599Y-107165500D01*
X139546247Y-107200148D01*
X138669673Y-108076721D01*
X138635025Y-108091073D01*
X138612780Y-108085733D01*
X138547126Y-108052281D01*
X138547126Y-108052280D01*
X138447488Y-108036500D01*
X137930512Y-108036500D01*
X137830874Y-108052281D01*
X137830872Y-108052281D01*
X137830870Y-108052282D01*
X137710786Y-108113467D01*
X137710779Y-108113472D01*
X137615472Y-108208779D01*
X137615467Y-108208786D01*
X137554282Y-108328870D01*
X137554281Y-108328872D01*
X137554281Y-108328874D01*
X137538500Y-108428512D01*
X137538500Y-108995488D01*
X137554281Y-109095126D01*
X137554281Y-109095127D01*
X137554282Y-109095129D01*
X137615467Y-109215213D01*
X137615472Y-109215220D01*
X137710779Y-109310527D01*
X137710786Y-109310532D01*
X137830870Y-109371717D01*
X137830874Y-109371719D01*
X137930512Y-109387500D01*
X137930514Y-109387500D01*
X138447486Y-109387500D01*
X138447488Y-109387500D01*
X138547126Y-109371719D01*
X138609699Y-109339836D01*
X138667213Y-109310532D01*
X138667215Y-109310530D01*
X138667220Y-109310528D01*
X138762528Y-109215220D01*
X138786541Y-109168089D01*
X138815059Y-109143733D01*
X138821094Y-109142188D01*
X138821972Y-109142023D01*
X138874172Y-109114432D01*
X138874956Y-109114036D01*
X138928142Y-109088425D01*
X138929708Y-109086971D01*
X138940145Y-109079566D01*
X138942038Y-109078566D01*
X138983807Y-109036795D01*
X138984420Y-109036206D01*
X139027694Y-108996055D01*
X139028763Y-108994202D01*
X139036549Y-108984053D01*
X140188004Y-107832597D01*
X140216259Y-107818665D01*
X140234545Y-107816259D01*
X140338579Y-107767747D01*
X140419747Y-107686579D01*
X140468259Y-107582545D01*
X140474500Y-107535139D01*
X140474500Y-107374293D01*
X140474500Y-107368407D01*
X140474517Y-107367491D01*
X140475480Y-107341743D01*
X140476725Y-107308490D01*
X140476170Y-107306418D01*
X140474500Y-107293735D01*
X140474500Y-107147000D01*
X140488852Y-107112352D01*
X140523500Y-107098000D01*
X140984600Y-107098000D01*
X141019248Y-107112352D01*
X141159148Y-107252251D01*
X141173500Y-107286899D01*
X141173500Y-108082321D01*
X141173346Y-108085066D01*
X141168730Y-108126031D01*
X141168730Y-108126036D01*
X141179702Y-108184029D01*
X141179855Y-108184931D01*
X141184875Y-108218234D01*
X141188652Y-108243287D01*
X141188653Y-108243289D01*
X141189580Y-108245214D01*
X141193577Y-108257359D01*
X141193977Y-108259473D01*
X141221572Y-108311685D01*
X141221975Y-108312484D01*
X141234216Y-108337903D01*
X141247575Y-108365643D01*
X141249032Y-108367213D01*
X141256427Y-108377634D01*
X141257432Y-108379535D01*
X141257435Y-108379539D01*
X141299164Y-108421268D01*
X141299800Y-108421928D01*
X141339945Y-108465194D01*
X141341803Y-108466266D01*
X141351947Y-108474051D01*
X141816148Y-108938251D01*
X141830499Y-108972899D01*
X141830500Y-109249488D01*
X141846281Y-109349126D01*
X141846281Y-109349127D01*
X141846282Y-109349129D01*
X141907467Y-109469213D01*
X141907472Y-109469220D01*
X142002780Y-109564528D01*
X142021744Y-109574190D01*
X142046101Y-109602707D01*
X142048500Y-109617850D01*
X142048500Y-112184500D01*
X142034148Y-112219148D01*
X141999500Y-112233500D01*
X141629252Y-112233500D01*
X141572679Y-112244753D01*
X141570769Y-112245133D01*
X141504447Y-112289447D01*
X141460133Y-112355769D01*
X141448500Y-112414252D01*
X141448500Y-112414254D01*
X141448500Y-112414255D01*
X141448500Y-113853878D01*
X141434148Y-113888526D01*
X141204026Y-114118648D01*
X141169378Y-114133000D01*
X137630500Y-114133000D01*
X137595852Y-114118648D01*
X137581500Y-114084000D01*
X137581499Y-113877482D01*
X137566646Y-113783696D01*
X137509054Y-113670664D01*
X137509049Y-113670657D01*
X137419342Y-113580950D01*
X137419335Y-113580945D01*
X137306308Y-113523355D01*
X137306305Y-113523354D01*
X137306304Y-113523354D01*
X137212519Y-113508500D01*
X137212517Y-113508500D01*
X136599482Y-113508500D01*
X136505696Y-113523353D01*
X136392664Y-113580945D01*
X136392657Y-113580950D01*
X136302950Y-113670657D01*
X136302945Y-113670664D01*
X136245355Y-113783690D01*
X136245355Y-113783692D01*
X136245354Y-113783694D01*
X136245354Y-113783696D01*
X136231024Y-113874174D01*
X136230500Y-113877482D01*
X136230500Y-114340517D01*
X136245353Y-114434303D01*
X136302945Y-114547335D01*
X136302950Y-114547342D01*
X136392657Y-114637049D01*
X136392664Y-114637054D01*
X136505691Y-114694644D01*
X136505692Y-114694644D01*
X136505696Y-114694646D01*
X136599481Y-114709500D01*
X137026113Y-114709499D01*
X137050611Y-114716063D01*
X137063353Y-114723419D01*
X137079535Y-114732762D01*
X137081306Y-114733890D01*
X137115816Y-114758054D01*
X137123628Y-114760146D01*
X137135443Y-114765039D01*
X137142455Y-114769088D01*
X137178919Y-114775517D01*
X137183924Y-114776400D01*
X137186008Y-114776862D01*
X137226693Y-114787764D01*
X137263433Y-114784549D01*
X137268657Y-114784093D01*
X137270793Y-114784000D01*
X141309210Y-114784000D01*
X141311346Y-114784093D01*
X141319400Y-114784797D01*
X141353307Y-114787764D01*
X141393995Y-114776861D01*
X141396074Y-114776400D01*
X141437545Y-114769088D01*
X141444554Y-114765040D01*
X141456371Y-114760146D01*
X141464184Y-114758054D01*
X141498690Y-114733891D01*
X141500465Y-114732760D01*
X141536955Y-114711694D01*
X141564032Y-114679423D01*
X141565465Y-114677859D01*
X141894473Y-114348852D01*
X141929122Y-114334500D01*
X143368745Y-114334500D01*
X143368748Y-114334500D01*
X143427231Y-114322867D01*
X143493552Y-114278552D01*
X143537867Y-114212231D01*
X143549500Y-114153748D01*
X143549500Y-112414252D01*
X143537867Y-112355769D01*
X143511301Y-112316012D01*
X143493552Y-112289447D01*
X143453795Y-112262882D01*
X143427231Y-112245133D01*
X143368748Y-112233500D01*
X143368745Y-112233500D01*
X142998500Y-112233500D01*
X142963852Y-112219148D01*
X142949500Y-112184500D01*
X142949500Y-111520635D01*
X143876409Y-111520635D01*
X143897046Y-111677397D01*
X143957552Y-111823472D01*
X143957555Y-111823477D01*
X144042623Y-111934341D01*
X144053809Y-111948918D01*
X144179250Y-112045172D01*
X144179252Y-112045172D01*
X144179254Y-112045174D01*
X144325329Y-112105680D01*
X144482091Y-112126318D01*
X144569378Y-112114825D01*
X144605601Y-112124531D01*
X144624353Y-112157009D01*
X144624169Y-112171071D01*
X144615235Y-112227482D01*
X144612500Y-112244753D01*
X144612500Y-112748245D01*
X144628049Y-112846419D01*
X144628049Y-112846420D01*
X144628050Y-112846421D01*
X144688338Y-112964745D01*
X144688342Y-112964750D01*
X144782248Y-113058656D01*
X144782253Y-113058660D01*
X144861660Y-113099119D01*
X144900580Y-113118950D01*
X144998754Y-113134499D01*
X144998755Y-113134499D01*
X145577245Y-113134499D01*
X145577246Y-113134499D01*
X145675420Y-113118950D01*
X145792097Y-113059500D01*
X145793746Y-113058660D01*
X145793747Y-113058658D01*
X145793751Y-113058657D01*
X145887658Y-112964750D01*
X145947951Y-112846419D01*
X145963500Y-112748245D01*
X145963500Y-112244753D01*
X145947951Y-112146579D01*
X145927112Y-112105680D01*
X145887661Y-112028252D01*
X145887657Y-112028247D01*
X145793751Y-111934341D01*
X145793746Y-111934337D01*
X145675422Y-111874049D01*
X145675421Y-111874048D01*
X145675420Y-111874048D01*
X145577246Y-111858499D01*
X145577245Y-111858499D01*
X145300577Y-111858499D01*
X145265929Y-111844147D01*
X145087949Y-111666168D01*
X145073597Y-111631520D01*
X145074016Y-111625124D01*
X145087773Y-111520636D01*
X145067135Y-111363874D01*
X145006627Y-111217795D01*
X144910373Y-111092354D01*
X144784932Y-110996100D01*
X144784927Y-110996097D01*
X144638852Y-110935591D01*
X144502727Y-110917670D01*
X144482091Y-110914954D01*
X144482090Y-110914954D01*
X144325329Y-110935591D01*
X144179254Y-110996097D01*
X144179249Y-110996100D01*
X144053809Y-111092353D01*
X144053808Y-111092354D01*
X143957555Y-111217794D01*
X143957552Y-111217799D01*
X143897046Y-111363874D01*
X143876409Y-111520635D01*
X142949500Y-111520635D01*
X142949500Y-109594544D01*
X142963852Y-109559896D01*
X142963852Y-109559895D01*
X143054528Y-109469220D01*
X143115719Y-109349126D01*
X143131500Y-109249488D01*
X143131500Y-108682512D01*
X143115719Y-108582874D01*
X143115717Y-108582870D01*
X143054532Y-108462786D01*
X143054527Y-108462779D01*
X142959220Y-108367472D01*
X142959213Y-108367467D01*
X142839129Y-108306282D01*
X142839127Y-108306281D01*
X142839126Y-108306281D01*
X142739488Y-108290500D01*
X142739486Y-108290500D01*
X142462900Y-108290500D01*
X142428252Y-108276148D01*
X142088852Y-107936747D01*
X142074500Y-107902099D01*
X142074500Y-107828377D01*
X142088852Y-107793729D01*
X142123500Y-107779377D01*
X142144205Y-107783967D01*
X142213455Y-107816259D01*
X142260861Y-107822500D01*
X142587138Y-107822499D01*
X142634545Y-107816259D01*
X142738579Y-107767747D01*
X142819747Y-107686579D01*
X142868259Y-107582545D01*
X142874500Y-107535139D01*
X142874499Y-107318910D01*
X142888850Y-107284264D01*
X144361262Y-105811853D01*
X144395911Y-105797501D01*
X144796500Y-105797501D01*
X144831148Y-105811853D01*
X144845500Y-105846501D01*
X144845500Y-106041749D01*
X144857133Y-106100232D01*
X144870861Y-106120777D01*
X144901447Y-106166553D01*
X144923904Y-106181558D01*
X144967769Y-106210868D01*
X145026252Y-106222501D01*
X145026255Y-106222501D01*
X146565745Y-106222501D01*
X146565748Y-106222501D01*
X146624231Y-106210868D01*
X146690552Y-106166553D01*
X146734867Y-106100232D01*
X146746500Y-106041749D01*
X146746500Y-105002253D01*
X146734867Y-104943770D01*
X146690583Y-104877495D01*
X146690552Y-104877448D01*
X146650795Y-104850883D01*
X146624231Y-104833134D01*
X146565748Y-104821501D01*
X146565745Y-104821501D01*
X145505412Y-104821501D01*
X145470764Y-104807149D01*
X145313852Y-104650237D01*
X145299500Y-104615589D01*
X145299500Y-101683500D01*
X145313852Y-101648852D01*
X145348500Y-101634500D01*
X145893745Y-101634500D01*
X145893748Y-101634500D01*
X145952231Y-101622867D01*
X146018552Y-101578552D01*
X146062867Y-101512231D01*
X146074500Y-101453748D01*
X146074500Y-99714252D01*
X146062867Y-99655769D01*
X146031462Y-99608769D01*
X146018552Y-99589447D01*
X145957569Y-99548700D01*
X145952231Y-99545133D01*
X145893748Y-99533500D01*
X144154252Y-99533500D01*
X144095768Y-99545132D01*
X144095769Y-99545133D01*
X144029447Y-99589447D01*
X143985133Y-99655768D01*
X143985133Y-99655769D01*
X143973500Y-99714252D01*
X143973500Y-101453748D01*
X143985133Y-101512231D01*
X143991427Y-101521650D01*
X144029447Y-101578552D01*
X144056012Y-101596301D01*
X144095769Y-101622867D01*
X144154252Y-101634500D01*
X144699500Y-101634500D01*
X144734148Y-101648852D01*
X144748500Y-101683500D01*
X144748500Y-104718040D01*
X144747559Y-104727598D01*
X144743103Y-104750001D01*
X144748500Y-104777133D01*
X144748500Y-104777134D01*
X144764485Y-104857496D01*
X144777848Y-104877495D01*
X144825376Y-104948626D01*
X144828788Y-104952038D01*
X144828094Y-104952731D01*
X144846167Y-104979779D01*
X144846168Y-104998894D01*
X144845500Y-105002250D01*
X144845500Y-105197501D01*
X144831148Y-105232149D01*
X144796500Y-105246501D01*
X144293456Y-105246501D01*
X144283896Y-105245559D01*
X144261500Y-105241104D01*
X144261499Y-105241104D01*
X144253674Y-105242660D01*
X144238236Y-105245731D01*
X144238234Y-105245731D01*
X144234367Y-105246501D01*
X144234366Y-105246501D01*
X144182297Y-105256858D01*
X144154003Y-105262486D01*
X144116600Y-105287478D01*
X144087155Y-105307152D01*
X144087153Y-105307154D01*
X144062874Y-105323377D01*
X144062873Y-105323378D01*
X144050185Y-105342366D01*
X144044093Y-105349789D01*
X142511734Y-106882148D01*
X142477086Y-106896500D01*
X142260865Y-106896500D01*
X142260860Y-106896501D01*
X142213456Y-106902740D01*
X142168753Y-106923585D01*
X142116435Y-106947982D01*
X142078969Y-106949618D01*
X142052407Y-106926470D01*
X142026447Y-106877354D01*
X142026033Y-106876535D01*
X142021706Y-106867550D01*
X142000425Y-106823358D01*
X141998967Y-106821787D01*
X141991563Y-106811351D01*
X141990565Y-106809462D01*
X141948846Y-106767743D01*
X141948210Y-106767083D01*
X141908054Y-106723805D01*
X141906195Y-106722732D01*
X141896048Y-106714945D01*
X141528919Y-106347816D01*
X141527087Y-106345766D01*
X141513304Y-106328484D01*
X141501379Y-106313530D01*
X141501372Y-106313525D01*
X141452589Y-106280264D01*
X141451842Y-106279734D01*
X141404385Y-106244708D01*
X141404380Y-106244706D01*
X141402355Y-106243997D01*
X141390949Y-106238239D01*
X141389170Y-106237026D01*
X141332748Y-106219623D01*
X141331895Y-106219342D01*
X141307676Y-106210868D01*
X141276202Y-106199854D01*
X141276192Y-106199852D01*
X141274046Y-106199772D01*
X141261456Y-106197633D01*
X141259403Y-106197000D01*
X141259402Y-106197000D01*
X141200391Y-106197000D01*
X141199475Y-106196983D01*
X141154137Y-106195286D01*
X141140490Y-106194776D01*
X141140489Y-106194776D01*
X141139143Y-106195136D01*
X141138421Y-106195330D01*
X141125739Y-106197000D01*
X139708891Y-106197000D01*
X139707975Y-106196983D01*
X139662637Y-106195286D01*
X139648990Y-106194776D01*
X139648989Y-106194776D01*
X139647643Y-106195136D01*
X139646921Y-106195330D01*
X139634239Y-106197000D01*
X137617881Y-106197000D01*
X137583233Y-106182648D01*
X137568881Y-106148000D01*
X137577139Y-106120777D01*
X137590867Y-106100232D01*
X137602500Y-106041749D01*
X137602500Y-105846500D01*
X137616852Y-105811853D01*
X137651500Y-105797501D01*
X140282020Y-105797501D01*
X140291580Y-105798443D01*
X140313976Y-105802898D01*
X140313977Y-105802898D01*
X140341109Y-105797501D01*
X140341110Y-105797501D01*
X140421472Y-105781516D01*
X140463442Y-105753472D01*
X140489599Y-105735995D01*
X140489600Y-105735993D01*
X140512601Y-105720625D01*
X140525293Y-105701631D01*
X140531381Y-105694212D01*
X140720713Y-105504879D01*
X140728126Y-105498794D01*
X140747124Y-105486102D01*
X140758367Y-105469275D01*
X140789551Y-105448440D01*
X140799109Y-105447499D01*
X140987133Y-105447499D01*
X140987138Y-105447499D01*
X141034545Y-105441259D01*
X141138579Y-105392747D01*
X141138580Y-105392744D01*
X141189352Y-105341975D01*
X141224000Y-105327623D01*
X141258648Y-105341975D01*
X141309418Y-105392745D01*
X141309420Y-105392746D01*
X141309421Y-105392747D01*
X141413455Y-105441259D01*
X141460861Y-105447500D01*
X141787138Y-105447499D01*
X141834545Y-105441259D01*
X141938579Y-105392747D01*
X141938580Y-105392744D01*
X141989352Y-105341975D01*
X142024000Y-105327623D01*
X142058648Y-105341975D01*
X142109418Y-105392745D01*
X142109420Y-105392746D01*
X142109421Y-105392747D01*
X142213455Y-105441259D01*
X142260861Y-105447500D01*
X142587138Y-105447499D01*
X142634545Y-105441259D01*
X142738579Y-105392747D01*
X142819747Y-105311579D01*
X142868259Y-105207545D01*
X142874500Y-105160139D01*
X142874499Y-104808862D01*
X142868259Y-104761455D01*
X142868258Y-104761453D01*
X142845636Y-104712941D01*
X142819747Y-104657421D01*
X142819746Y-104657420D01*
X142819745Y-104657418D01*
X142773852Y-104611525D01*
X142759500Y-104576877D01*
X142759500Y-101634538D01*
X142773852Y-101599890D01*
X142794276Y-101587648D01*
X142887954Y-101559232D01*
X143070450Y-101461685D01*
X143230410Y-101330410D01*
X143361685Y-101170450D01*
X143459232Y-100987954D01*
X143519300Y-100789934D01*
X143539583Y-100584000D01*
X143519300Y-100378066D01*
X143459232Y-100180046D01*
X143361685Y-99997550D01*
X143230410Y-99837590D01*
X143070450Y-99706315D01*
X142887954Y-99608768D01*
X142689934Y-99548700D01*
X142484000Y-99528417D01*
X142278065Y-99548700D01*
X142278064Y-99548700D01*
X142080043Y-99608769D01*
X141897548Y-99706316D01*
X141737590Y-99837590D01*
X141606316Y-99997548D01*
X141508769Y-100180043D01*
X141448700Y-100378064D01*
X141448700Y-100378065D01*
X141448700Y-100378066D01*
X141428417Y-100584000D01*
X141448700Y-100789934D01*
X141508768Y-100987954D01*
X141606315Y-101170450D01*
X141737590Y-101330410D01*
X141897550Y-101461685D01*
X142080046Y-101559232D01*
X142173724Y-101587648D01*
X142202714Y-101611439D01*
X142208500Y-101634538D01*
X142208500Y-104498834D01*
X142194148Y-104533482D01*
X142180209Y-104543243D01*
X142109418Y-104576254D01*
X142058648Y-104627025D01*
X142024000Y-104641377D01*
X141989352Y-104627025D01*
X141938581Y-104576254D01*
X141938578Y-104576252D01*
X141927790Y-104571221D01*
X141902454Y-104543570D01*
X141899500Y-104526813D01*
X141899500Y-102295954D01*
X141900441Y-102286395D01*
X141904896Y-102263999D01*
X141899500Y-102236870D01*
X141899500Y-102236866D01*
X141883515Y-102156504D01*
X141847013Y-102101875D01*
X141822624Y-102065374D01*
X141803634Y-102052686D01*
X141796209Y-102046592D01*
X140881651Y-101132034D01*
X140867299Y-101097386D01*
X140873084Y-101074289D01*
X140919233Y-100987954D01*
X140979301Y-100789934D01*
X140999584Y-100584000D01*
X140979301Y-100378066D01*
X140919233Y-100180046D01*
X140821686Y-99997550D01*
X140690411Y-99837590D01*
X140530451Y-99706315D01*
X140347955Y-99608768D01*
X140149935Y-99548700D01*
X139944001Y-99528417D01*
X139738066Y-99548700D01*
X139738065Y-99548700D01*
X139540044Y-99608769D01*
X139357549Y-99706316D01*
X139197591Y-99837590D01*
X139066317Y-99997548D01*
X138968770Y-100180043D01*
X138908701Y-100378064D01*
X138908701Y-100378065D01*
X138908701Y-100378066D01*
X138888418Y-100584000D01*
X138908701Y-100789934D01*
X138968769Y-100987954D01*
X139066316Y-101170450D01*
X139197591Y-101330410D01*
X139357551Y-101461685D01*
X139540047Y-101559232D01*
X139738067Y-101619300D01*
X139923716Y-101637585D01*
X139944000Y-101639583D01*
X139944000Y-101639582D01*
X139944001Y-101639583D01*
X140149935Y-101619300D01*
X140347955Y-101559232D01*
X140434289Y-101513083D01*
X140471610Y-101509408D01*
X140492035Y-101521650D01*
X141334148Y-102363762D01*
X141348500Y-102398410D01*
X141348500Y-104526813D01*
X141334148Y-104561461D01*
X141320210Y-104571221D01*
X141309421Y-104576252D01*
X141309418Y-104576254D01*
X141258648Y-104627025D01*
X141224000Y-104641377D01*
X141189352Y-104627025D01*
X141138581Y-104576254D01*
X141138579Y-104576253D01*
X141067789Y-104543243D01*
X141034546Y-104527741D01*
X141025063Y-104526492D01*
X140987139Y-104521500D01*
X140987135Y-104521500D01*
X140660865Y-104521500D01*
X140660860Y-104521501D01*
X140613454Y-104527740D01*
X140509420Y-104576253D01*
X140509418Y-104576254D01*
X140428254Y-104657418D01*
X140428253Y-104657420D01*
X140379742Y-104761452D01*
X140379741Y-104761453D01*
X140379741Y-104761454D01*
X140379741Y-104761455D01*
X140373726Y-104807149D01*
X140373500Y-104808864D01*
X140373500Y-104991922D01*
X140359148Y-105026570D01*
X140351725Y-105032662D01*
X140349877Y-105033896D01*
X140349876Y-105033897D01*
X140334505Y-105056899D01*
X140334506Y-105056900D01*
X140323425Y-105073484D01*
X140291665Y-105121015D01*
X140285572Y-105128439D01*
X140285037Y-105128974D01*
X140286084Y-105139610D01*
X140283851Y-105150833D01*
X140270441Y-105175919D01*
X140214211Y-105232149D01*
X140179566Y-105246501D01*
X137651500Y-105246501D01*
X137616852Y-105232149D01*
X137602500Y-105197501D01*
X137602500Y-105002252D01*
X137602499Y-105002251D01*
X137601334Y-104996392D01*
X137608645Y-104959613D01*
X137631358Y-104925623D01*
X137663516Y-104877495D01*
X137684897Y-104770001D01*
X137680441Y-104747597D01*
X137679500Y-104738039D01*
X137679500Y-101634538D01*
X137693852Y-101599890D01*
X137714276Y-101587648D01*
X137807954Y-101559232D01*
X137990450Y-101461685D01*
X138150410Y-101330410D01*
X138281685Y-101170450D01*
X138379232Y-100987954D01*
X138439300Y-100789934D01*
X138459583Y-100584000D01*
X138439300Y-100378066D01*
X138379232Y-100180046D01*
X138281685Y-99997550D01*
X138150410Y-99837590D01*
X137990450Y-99706315D01*
X137807954Y-99608768D01*
X137609934Y-99548700D01*
X137404000Y-99528417D01*
X137198065Y-99548700D01*
X137198064Y-99548700D01*
X137000043Y-99608769D01*
X136817548Y-99706316D01*
X136657590Y-99837590D01*
X136526316Y-99997548D01*
X136428769Y-100180043D01*
X136368700Y-100378064D01*
X136368700Y-100378065D01*
X136368700Y-100378066D01*
X136348417Y-100584000D01*
X136368700Y-100789934D01*
X136428768Y-100987954D01*
X136526315Y-101170450D01*
X136657590Y-101330410D01*
X136817550Y-101461685D01*
X137000046Y-101559232D01*
X137093724Y-101587648D01*
X137122714Y-101611439D01*
X137128500Y-101634538D01*
X137128500Y-104635588D01*
X137114148Y-104670236D01*
X136977236Y-104807149D01*
X136942588Y-104821501D01*
X135882252Y-104821501D01*
X135823768Y-104833134D01*
X135823769Y-104833134D01*
X135757447Y-104877448D01*
X135713132Y-104943770D01*
X135713133Y-104943770D01*
X135701500Y-105002253D01*
X135701500Y-106041749D01*
X135713133Y-106100232D01*
X135726861Y-106120777D01*
X135742897Y-106144776D01*
X135750214Y-106181558D01*
X135742897Y-106199221D01*
X135713133Y-106243766D01*
X135713132Y-106243768D01*
X135713133Y-106243768D01*
X135701500Y-106302251D01*
X135701500Y-107341747D01*
X135382500Y-107341747D01*
X135382500Y-99315203D01*
X135382618Y-99312801D01*
X135385974Y-99278722D01*
X135399188Y-99161449D01*
X135400985Y-99152737D01*
X135418980Y-99093415D01*
X135419277Y-99092506D01*
X135448710Y-99008391D01*
X135451727Y-99001517D01*
X135483604Y-98941880D01*
X135484409Y-98940494D01*
X135530132Y-98867725D01*
X135531932Y-98865227D01*
X135577022Y-98810284D01*
X135578588Y-98808556D01*
X135638556Y-98748588D01*
X135640284Y-98747022D01*
X135695230Y-98701929D01*
X135697725Y-98700132D01*
X135770494Y-98654409D01*
X135771880Y-98653604D01*
X135831517Y-98621727D01*
X135838391Y-98618710D01*
X135922506Y-98589277D01*
X135923415Y-98588980D01*
X135982737Y-98570985D01*
X135991449Y-98569188D01*
X136108722Y-98555974D01*
X136142802Y-98552617D01*
X136145203Y-98552500D01*
X146302796Y-98552500D01*
X146305198Y-98552618D01*
G37*
%TD.AperFunction*%
%TD*%
M02*
