%TF.GenerationSoftware,KiCad,Pcbnew,7.99.0-957-g18dd623122*%
%TF.CreationDate,2023-08-18T16:17:54-04:00*%
%TF.ProjectId,bme680,626d6536-3830-42e6-9b69-6361645f7063,V1.0*%
%TF.SameCoordinates,Original*%
%TF.FileFunction,Legend,Top*%
%TF.FilePolarity,Positive*%
%FSLAX46Y46*%
G04 Gerber Fmt 4.6, Leading zero omitted, Abs format (unit mm)*
G04 Created by KiCad (PCBNEW 7.99.0-957-g18dd623122) date 2023-08-18 16:17:54*
%MOMM*%
%LPD*%
G01*
G04 APERTURE LIST*
G04 Aperture macros list*
%AMRoundRect*
0 Rectangle with rounded corners*
0 $1 Rounding radius*
0 $2 $3 $4 $5 $6 $7 $8 $9 X,Y pos of 4 corners*
0 Add a 4 corners polygon primitive as box body*
4,1,4,$2,$3,$4,$5,$6,$7,$8,$9,$2,$3,0*
0 Add four circle primitives for the rounded corners*
1,1,$1+$1,$2,$3*
1,1,$1+$1,$4,$5*
1,1,$1+$1,$6,$7*
1,1,$1+$1,$8,$9*
0 Add four rect primitives between the rounded corners*
20,1,$1+$1,$2,$3,$4,$5,0*
20,1,$1+$1,$4,$5,$6,$7,0*
20,1,$1+$1,$6,$7,$8,$9,0*
20,1,$1+$1,$8,$9,$2,$3,0*%
G04 Aperture macros list end*
%ADD10C,0.200000*%
%ADD11C,0.150000*%
%ADD12C,0.120000*%
%ADD13RoundRect,0.125000X-0.125000X-0.137500X0.125000X-0.137500X0.125000X0.137500X-0.125000X0.137500X0*%
%ADD14RoundRect,0.225000X-0.225000X-0.250000X0.225000X-0.250000X0.225000X0.250000X-0.225000X0.250000X0*%
%ADD15R,1.500000X1.000000*%
%ADD16R,1.700000X1.700000*%
%ADD17O,1.700000X1.700000*%
%ADD18RoundRect,0.218750X0.256250X-0.218750X0.256250X0.218750X-0.256250X0.218750X-0.256250X-0.218750X0*%
%ADD19RoundRect,0.200000X0.275000X-0.200000X0.275000X0.200000X-0.275000X0.200000X-0.275000X-0.200000X0*%
G04 APERTURE END LIST*
D10*
G36*
X140129361Y-101922526D02*
G01*
X140143504Y-101923151D01*
X140157399Y-101924192D01*
X140171045Y-101925649D01*
X140184441Y-101927523D01*
X140197589Y-101929814D01*
X140210488Y-101932521D01*
X140223137Y-101935644D01*
X140235538Y-101939184D01*
X140247689Y-101943140D01*
X140255652Y-101946009D01*
X140267352Y-101950621D01*
X140278730Y-101955572D01*
X140289786Y-101960862D01*
X140300520Y-101966491D01*
X140310932Y-101972460D01*
X140321022Y-101978767D01*
X140330790Y-101985414D01*
X140340236Y-101992400D01*
X140349360Y-101999725D01*
X140358162Y-102007390D01*
X140363852Y-102012688D01*
X140372143Y-102020898D01*
X140380075Y-102029409D01*
X140387645Y-102038220D01*
X140394855Y-102047332D01*
X140401704Y-102056744D01*
X140408193Y-102066457D01*
X140414321Y-102076471D01*
X140420088Y-102086785D01*
X140425495Y-102097399D01*
X140430541Y-102108314D01*
X140433705Y-102115758D01*
X140438114Y-102127140D01*
X140442088Y-102138753D01*
X140445630Y-102150598D01*
X140448737Y-102162676D01*
X140451411Y-102174985D01*
X140453652Y-102187525D01*
X140455459Y-102200298D01*
X140456832Y-102213303D01*
X140457771Y-102226539D01*
X140458277Y-102240007D01*
X140458374Y-102249115D01*
X140458374Y-102625981D01*
X140458157Y-102639822D01*
X140457506Y-102653410D01*
X140456422Y-102666744D01*
X140454905Y-102679825D01*
X140452953Y-102692653D01*
X140450568Y-102705228D01*
X140447750Y-102717549D01*
X140444497Y-102729617D01*
X140440812Y-102741431D01*
X140436692Y-102752992D01*
X140433705Y-102760559D01*
X140428899Y-102771675D01*
X140423733Y-102782490D01*
X140418206Y-102793004D01*
X140412318Y-102803218D01*
X140406070Y-102813131D01*
X140399461Y-102822744D01*
X140392492Y-102832056D01*
X140385162Y-102841068D01*
X140377471Y-102849779D01*
X140369420Y-102858190D01*
X140363852Y-102863630D01*
X140355264Y-102871520D01*
X140346355Y-102879071D01*
X140337123Y-102886283D01*
X140327570Y-102893156D01*
X140317695Y-102899690D01*
X140307497Y-102905885D01*
X140296978Y-102911740D01*
X140286137Y-102917256D01*
X140274973Y-102922433D01*
X140263488Y-102927271D01*
X140255652Y-102930308D01*
X140243666Y-102934542D01*
X140231432Y-102938359D01*
X140218948Y-102941760D01*
X140206216Y-102944745D01*
X140193234Y-102947313D01*
X140180003Y-102949465D01*
X140166524Y-102951200D01*
X140152795Y-102952519D01*
X140138818Y-102953421D01*
X140124591Y-102953907D01*
X140114968Y-102954000D01*
X139802581Y-102954000D01*
X139802581Y-102077412D01*
X139978436Y-102077412D01*
X139978436Y-102798905D01*
X140114968Y-102798905D01*
X140128938Y-102798497D01*
X140142362Y-102797274D01*
X140155242Y-102795234D01*
X140167576Y-102792379D01*
X140179364Y-102788709D01*
X140190608Y-102784222D01*
X140201306Y-102778920D01*
X140211459Y-102772802D01*
X140221067Y-102765868D01*
X140230130Y-102758119D01*
X140235868Y-102752499D01*
X140243943Y-102743547D01*
X140251224Y-102734092D01*
X140257711Y-102724135D01*
X140263403Y-102713676D01*
X140268301Y-102702714D01*
X140272405Y-102691250D01*
X140275714Y-102679284D01*
X140278229Y-102666816D01*
X140279950Y-102653845D01*
X140280877Y-102640372D01*
X140281053Y-102631110D01*
X140281053Y-102243741D01*
X140280656Y-102229940D01*
X140279465Y-102216653D01*
X140277479Y-102203882D01*
X140274699Y-102191626D01*
X140271125Y-102179885D01*
X140266756Y-102168660D01*
X140261594Y-102157949D01*
X140255637Y-102147754D01*
X140248885Y-102138074D01*
X140241340Y-102128909D01*
X140235868Y-102123085D01*
X140227169Y-102114923D01*
X140217925Y-102107564D01*
X140208136Y-102101007D01*
X140197801Y-102095253D01*
X140186921Y-102090302D01*
X140175495Y-102086154D01*
X140163525Y-102082809D01*
X140151009Y-102080267D01*
X140137948Y-102078527D01*
X140124342Y-102077590D01*
X140114968Y-102077412D01*
X139978436Y-102077412D01*
X139802581Y-102077412D01*
X139802581Y-101922318D01*
X140114968Y-101922318D01*
X140129361Y-101922526D01*
G37*
G36*
X145209361Y-101922526D02*
G01*
X145223504Y-101923151D01*
X145237399Y-101924192D01*
X145251045Y-101925649D01*
X145264441Y-101927523D01*
X145277589Y-101929814D01*
X145290488Y-101932521D01*
X145303137Y-101935644D01*
X145315538Y-101939184D01*
X145327689Y-101943140D01*
X145335652Y-101946009D01*
X145347352Y-101950621D01*
X145358730Y-101955572D01*
X145369786Y-101960862D01*
X145380520Y-101966491D01*
X145390932Y-101972460D01*
X145401022Y-101978767D01*
X145410790Y-101985414D01*
X145420236Y-101992400D01*
X145429360Y-101999725D01*
X145438162Y-102007390D01*
X145443852Y-102012688D01*
X145452143Y-102020898D01*
X145460075Y-102029409D01*
X145467645Y-102038220D01*
X145474855Y-102047332D01*
X145481704Y-102056744D01*
X145488193Y-102066457D01*
X145494321Y-102076471D01*
X145500088Y-102086785D01*
X145505495Y-102097399D01*
X145510541Y-102108314D01*
X145513705Y-102115758D01*
X145518114Y-102127140D01*
X145522088Y-102138753D01*
X145525630Y-102150598D01*
X145528737Y-102162676D01*
X145531411Y-102174985D01*
X145533652Y-102187525D01*
X145535459Y-102200298D01*
X145536832Y-102213303D01*
X145537771Y-102226539D01*
X145538277Y-102240007D01*
X145538374Y-102249115D01*
X145538374Y-102625981D01*
X145538157Y-102639822D01*
X145537506Y-102653410D01*
X145536422Y-102666744D01*
X145534905Y-102679825D01*
X145532953Y-102692653D01*
X145530568Y-102705228D01*
X145527750Y-102717549D01*
X145524497Y-102729617D01*
X145520812Y-102741431D01*
X145516692Y-102752992D01*
X145513705Y-102760559D01*
X145508899Y-102771675D01*
X145503733Y-102782490D01*
X145498206Y-102793004D01*
X145492318Y-102803218D01*
X145486070Y-102813131D01*
X145479461Y-102822744D01*
X145472492Y-102832056D01*
X145465162Y-102841068D01*
X145457471Y-102849779D01*
X145449420Y-102858190D01*
X145443852Y-102863630D01*
X145435264Y-102871520D01*
X145426355Y-102879071D01*
X145417123Y-102886283D01*
X145407570Y-102893156D01*
X145397695Y-102899690D01*
X145387497Y-102905885D01*
X145376978Y-102911740D01*
X145366137Y-102917256D01*
X145354973Y-102922433D01*
X145343488Y-102927271D01*
X145335652Y-102930308D01*
X145323666Y-102934542D01*
X145311432Y-102938359D01*
X145298948Y-102941760D01*
X145286216Y-102944745D01*
X145273234Y-102947313D01*
X145260003Y-102949465D01*
X145246524Y-102951200D01*
X145232795Y-102952519D01*
X145218818Y-102953421D01*
X145204591Y-102953907D01*
X145194968Y-102954000D01*
X144882581Y-102954000D01*
X144882581Y-102077412D01*
X145058436Y-102077412D01*
X145058436Y-102798905D01*
X145194968Y-102798905D01*
X145208938Y-102798497D01*
X145222362Y-102797274D01*
X145235242Y-102795234D01*
X145247576Y-102792379D01*
X145259364Y-102788709D01*
X145270608Y-102784222D01*
X145281306Y-102778920D01*
X145291459Y-102772802D01*
X145301067Y-102765868D01*
X145310130Y-102758119D01*
X145315868Y-102752499D01*
X145323943Y-102743547D01*
X145331224Y-102734092D01*
X145337711Y-102724135D01*
X145343403Y-102713676D01*
X145348301Y-102702714D01*
X145352405Y-102691250D01*
X145355714Y-102679284D01*
X145358229Y-102666816D01*
X145359950Y-102653845D01*
X145360877Y-102640372D01*
X145361053Y-102631110D01*
X145361053Y-102243741D01*
X145360656Y-102229940D01*
X145359465Y-102216653D01*
X145357479Y-102203882D01*
X145354699Y-102191626D01*
X145351125Y-102179885D01*
X145346756Y-102168660D01*
X145341594Y-102157949D01*
X145335637Y-102147754D01*
X145328885Y-102138074D01*
X145321340Y-102128909D01*
X145315868Y-102123085D01*
X145307169Y-102114923D01*
X145297925Y-102107564D01*
X145288136Y-102101007D01*
X145277801Y-102095253D01*
X145266921Y-102090302D01*
X145255495Y-102086154D01*
X145243525Y-102082809D01*
X145231009Y-102080267D01*
X145217948Y-102078527D01*
X145204342Y-102077590D01*
X145194968Y-102077412D01*
X145058436Y-102077412D01*
X144882581Y-102077412D01*
X144882581Y-101922318D01*
X145194968Y-101922318D01*
X145209361Y-101922526D01*
G37*
G36*
X146055394Y-101906882D02*
G01*
X146069282Y-101907468D01*
X146082934Y-101908444D01*
X146096350Y-101909812D01*
X146109530Y-101911570D01*
X146122474Y-101913719D01*
X146135181Y-101916258D01*
X146147653Y-101919188D01*
X146159888Y-101922509D01*
X146171887Y-101926221D01*
X146179755Y-101928912D01*
X146191355Y-101933251D01*
X146202616Y-101937934D01*
X146213537Y-101942960D01*
X146224120Y-101948330D01*
X146234363Y-101954043D01*
X146244267Y-101960099D01*
X146253832Y-101966499D01*
X146263057Y-101973242D01*
X146271944Y-101980329D01*
X146280491Y-101987760D01*
X146286001Y-101992904D01*
X146294024Y-102000837D01*
X146301700Y-102009067D01*
X146309028Y-102017593D01*
X146316008Y-102026415D01*
X146322641Y-102035533D01*
X146328926Y-102044948D01*
X146334863Y-102054658D01*
X146340452Y-102064665D01*
X146345693Y-102074969D01*
X146350587Y-102085568D01*
X146353656Y-102092799D01*
X146357934Y-102103819D01*
X146361791Y-102115079D01*
X146365227Y-102126579D01*
X146368242Y-102138320D01*
X146370837Y-102150301D01*
X146373011Y-102162523D01*
X146374764Y-102174985D01*
X146376096Y-102187688D01*
X146377008Y-102200631D01*
X146377498Y-102213814D01*
X146377592Y-102222736D01*
X146377592Y-102652115D01*
X146377382Y-102665206D01*
X146376750Y-102678099D01*
X146375699Y-102690794D01*
X146374226Y-102703292D01*
X146372333Y-102715592D01*
X146370019Y-102727695D01*
X146367284Y-102739601D01*
X146364128Y-102751308D01*
X146360552Y-102762819D01*
X146356555Y-102774132D01*
X146353656Y-102781564D01*
X146348988Y-102792451D01*
X146343959Y-102803036D01*
X146338569Y-102813322D01*
X146332819Y-102823307D01*
X146326708Y-102832991D01*
X146320237Y-102842375D01*
X146313405Y-102851458D01*
X146306212Y-102860241D01*
X146298659Y-102868723D01*
X146290745Y-102876905D01*
X146285268Y-102882192D01*
X146276822Y-102889814D01*
X146268063Y-102897110D01*
X146258991Y-102904080D01*
X146249605Y-102910723D01*
X146239906Y-102917040D01*
X146229893Y-102923030D01*
X146219567Y-102928695D01*
X146208927Y-102934033D01*
X146197974Y-102939044D01*
X146186708Y-102943730D01*
X146179023Y-102946672D01*
X146167312Y-102950775D01*
X146155352Y-102954475D01*
X146143143Y-102957770D01*
X146130685Y-102960663D01*
X146117979Y-102963151D01*
X146105023Y-102965237D01*
X146091818Y-102966918D01*
X146078364Y-102968196D01*
X146064661Y-102969071D01*
X146050709Y-102969541D01*
X146041270Y-102969631D01*
X146027143Y-102969436D01*
X146013248Y-102968850D01*
X145999586Y-102967873D01*
X145986155Y-102966505D01*
X145972956Y-102964747D01*
X145959988Y-102962599D01*
X145947253Y-102960059D01*
X145934749Y-102957129D01*
X145922477Y-102953808D01*
X145910437Y-102950096D01*
X145902540Y-102947405D01*
X145890981Y-102943068D01*
X145879753Y-102938392D01*
X145868856Y-102933376D01*
X145858290Y-102928022D01*
X145848054Y-102922328D01*
X145838148Y-102916295D01*
X145828573Y-102909923D01*
X145819329Y-102903212D01*
X145810415Y-102896162D01*
X145801832Y-102888772D01*
X145796294Y-102883658D01*
X145788314Y-102875676D01*
X145780678Y-102867394D01*
X145773385Y-102858812D01*
X145766435Y-102849929D01*
X145759829Y-102840746D01*
X145753567Y-102831262D01*
X145747648Y-102821477D01*
X145742072Y-102811392D01*
X145736840Y-102801007D01*
X145731951Y-102790321D01*
X145728883Y-102783030D01*
X145724605Y-102771835D01*
X145720749Y-102760418D01*
X145717312Y-102748777D01*
X145714297Y-102736913D01*
X145711702Y-102724826D01*
X145709529Y-102712516D01*
X145707776Y-102699982D01*
X145706443Y-102687225D01*
X145705532Y-102674245D01*
X145705041Y-102661042D01*
X145704968Y-102654069D01*
X145880802Y-102654069D01*
X145881184Y-102667633D01*
X145882330Y-102680665D01*
X145884241Y-102693164D01*
X145886916Y-102705131D01*
X145890355Y-102716566D01*
X145894558Y-102727468D01*
X145899525Y-102737838D01*
X145905257Y-102747675D01*
X145911753Y-102756980D01*
X145919013Y-102765753D01*
X145924277Y-102771306D01*
X145932734Y-102779032D01*
X145941711Y-102785998D01*
X145951207Y-102792204D01*
X145961223Y-102797650D01*
X145971758Y-102802336D01*
X145982813Y-102806262D01*
X145994387Y-102809428D01*
X146006480Y-102811835D01*
X146019093Y-102813481D01*
X146032226Y-102814368D01*
X146041270Y-102814537D01*
X146054746Y-102814157D01*
X146067699Y-102813017D01*
X146080129Y-102811117D01*
X146092034Y-102808457D01*
X146103416Y-102805038D01*
X146114273Y-102800858D01*
X146124607Y-102795919D01*
X146134418Y-102790219D01*
X146143704Y-102783760D01*
X146152467Y-102776541D01*
X146158018Y-102771306D01*
X146165831Y-102762888D01*
X146172875Y-102753938D01*
X146179152Y-102744455D01*
X146184659Y-102734440D01*
X146189398Y-102723893D01*
X146193369Y-102712814D01*
X146196571Y-102701201D01*
X146199005Y-102689057D01*
X146200670Y-102676380D01*
X146201566Y-102663171D01*
X146201737Y-102654069D01*
X146201737Y-102222248D01*
X146201353Y-102208686D01*
X146200200Y-102195661D01*
X146198279Y-102183172D01*
X146195589Y-102171220D01*
X146192131Y-102159805D01*
X146187904Y-102148926D01*
X146182909Y-102138584D01*
X146177145Y-102128779D01*
X146170613Y-102119511D01*
X146163312Y-102110779D01*
X146158018Y-102105256D01*
X146149604Y-102097486D01*
X146140667Y-102090481D01*
X146131206Y-102084240D01*
X146121221Y-102078763D01*
X146110712Y-102074050D01*
X146099680Y-102070102D01*
X146088124Y-102066918D01*
X146076044Y-102064498D01*
X146063440Y-102062842D01*
X146050312Y-102061950D01*
X146041270Y-102061780D01*
X146027791Y-102062162D01*
X146014831Y-102063309D01*
X146002391Y-102065219D01*
X145990471Y-102067894D01*
X145979070Y-102071333D01*
X145968188Y-102075536D01*
X145957827Y-102080504D01*
X145947984Y-102086235D01*
X145938661Y-102092731D01*
X145929858Y-102099991D01*
X145924277Y-102105256D01*
X145916508Y-102113630D01*
X145909502Y-102122541D01*
X145903261Y-102131988D01*
X145897785Y-102141972D01*
X145893072Y-102152493D01*
X145889123Y-102163550D01*
X145885939Y-102175145D01*
X145883519Y-102187275D01*
X145881863Y-102199943D01*
X145880972Y-102213147D01*
X145880802Y-102222248D01*
X145880802Y-102654069D01*
X145704968Y-102654069D01*
X145704947Y-102652115D01*
X145704947Y-102222736D01*
X145705158Y-102209393D01*
X145705789Y-102196289D01*
X145706841Y-102183427D01*
X145708313Y-102170804D01*
X145710206Y-102158422D01*
X145712521Y-102146281D01*
X145715255Y-102134380D01*
X145718411Y-102122719D01*
X145721987Y-102111299D01*
X145725984Y-102100119D01*
X145728883Y-102092799D01*
X145733543Y-102082002D01*
X145738546Y-102071501D01*
X145743892Y-102061297D01*
X145749583Y-102051389D01*
X145755616Y-102041777D01*
X145761993Y-102032461D01*
X145768714Y-102023441D01*
X145775778Y-102014718D01*
X145783185Y-102006291D01*
X145790936Y-101998160D01*
X145796294Y-101992904D01*
X145804657Y-101985245D01*
X145813350Y-101977929D01*
X145822374Y-101970956D01*
X145831728Y-101964327D01*
X145841413Y-101958042D01*
X145851429Y-101952100D01*
X145861775Y-101946502D01*
X145872452Y-101941247D01*
X145883459Y-101936335D01*
X145894797Y-101931767D01*
X145902540Y-101928912D01*
X145914425Y-101924940D01*
X145926542Y-101921359D01*
X145938891Y-101918168D01*
X145951472Y-101915368D01*
X145964285Y-101912959D01*
X145977329Y-101910940D01*
X145990606Y-101909312D01*
X146004114Y-101908075D01*
X146017854Y-101907229D01*
X146031826Y-101906773D01*
X146041270Y-101906686D01*
X146055394Y-101906882D01*
G37*
G36*
X142669134Y-102969631D02*
G01*
X142655014Y-102969436D01*
X142641139Y-102968850D01*
X142627508Y-102967873D01*
X142614122Y-102966505D01*
X142600981Y-102964747D01*
X142588085Y-102962599D01*
X142575433Y-102960059D01*
X142563026Y-102957129D01*
X142550864Y-102953808D01*
X142538946Y-102950096D01*
X142531137Y-102947405D01*
X142519710Y-102943068D01*
X142508600Y-102938392D01*
X142497808Y-102933376D01*
X142487334Y-102928022D01*
X142477177Y-102922328D01*
X142467338Y-102916295D01*
X142457817Y-102909923D01*
X142448613Y-102903212D01*
X142439728Y-102896162D01*
X142431160Y-102888772D01*
X142425624Y-102883658D01*
X142417644Y-102875676D01*
X142410008Y-102867394D01*
X142402715Y-102858812D01*
X142395765Y-102849929D01*
X142389159Y-102840746D01*
X142382897Y-102831262D01*
X142376978Y-102821477D01*
X142371402Y-102811392D01*
X142366170Y-102801007D01*
X142361281Y-102790321D01*
X142358213Y-102783030D01*
X142353935Y-102771835D01*
X142350079Y-102760418D01*
X142346643Y-102748777D01*
X142343627Y-102736913D01*
X142341033Y-102724826D01*
X142338859Y-102712516D01*
X142337106Y-102699982D01*
X142335773Y-102687225D01*
X142334862Y-102674245D01*
X142334371Y-102661042D01*
X142334277Y-102652115D01*
X142334277Y-102224202D01*
X142334488Y-102210852D01*
X142335119Y-102197729D01*
X142336171Y-102184834D01*
X142337643Y-102172167D01*
X142339537Y-102159727D01*
X142341851Y-102147514D01*
X142344586Y-102135530D01*
X142347741Y-102123772D01*
X142351317Y-102112243D01*
X142355315Y-102100940D01*
X142358213Y-102093532D01*
X142362873Y-102082604D01*
X142367876Y-102071985D01*
X142373223Y-102061675D01*
X142378913Y-102051675D01*
X142384946Y-102041983D01*
X142391323Y-102032601D01*
X142398044Y-102023528D01*
X142405108Y-102014764D01*
X142412515Y-102006309D01*
X142420266Y-101998163D01*
X142425624Y-101992904D01*
X142433987Y-101985245D01*
X142442680Y-101977929D01*
X142451704Y-101970956D01*
X142461058Y-101964327D01*
X142470743Y-101958042D01*
X142480759Y-101952100D01*
X142491105Y-101946502D01*
X142501782Y-101941247D01*
X142512789Y-101936335D01*
X142524127Y-101931767D01*
X142531870Y-101928912D01*
X142543755Y-101924940D01*
X142555872Y-101921359D01*
X142568221Y-101918168D01*
X142580802Y-101915368D01*
X142593615Y-101912959D01*
X142606660Y-101910940D01*
X142619936Y-101909312D01*
X142633444Y-101908075D01*
X142647184Y-101907229D01*
X142661156Y-101906773D01*
X142670600Y-101906686D01*
X142684181Y-101906873D01*
X142697539Y-101907433D01*
X142710674Y-101908367D01*
X142723585Y-101909674D01*
X142736273Y-101911355D01*
X142748738Y-101913410D01*
X142760980Y-101915837D01*
X142772998Y-101918639D01*
X142784794Y-101921814D01*
X142796366Y-101925362D01*
X142803956Y-101927935D01*
X142815159Y-101932076D01*
X142826053Y-101936531D01*
X142836637Y-101941298D01*
X142846912Y-101946379D01*
X142856879Y-101951774D01*
X142866536Y-101957482D01*
X142875884Y-101963503D01*
X142884923Y-101969838D01*
X142893653Y-101976486D01*
X142902073Y-101983448D01*
X142907515Y-101988263D01*
X142915419Y-101995741D01*
X142923008Y-102003519D01*
X142930285Y-102011598D01*
X142937248Y-102019977D01*
X142943898Y-102028656D01*
X142950234Y-102037637D01*
X142956257Y-102046917D01*
X142961966Y-102056499D01*
X142967362Y-102066380D01*
X142972445Y-102076563D01*
X142975659Y-102083518D01*
X142980224Y-102094156D01*
X142984394Y-102105005D01*
X142988170Y-102116064D01*
X142991550Y-102127333D01*
X142994535Y-102138813D01*
X142997126Y-102150503D01*
X142999321Y-102162403D01*
X143001121Y-102174514D01*
X143002527Y-102186835D01*
X143003537Y-102199366D01*
X143003991Y-102207838D01*
X142828136Y-102207838D01*
X142827241Y-102195233D01*
X142825655Y-102183157D01*
X142823377Y-102171608D01*
X142820408Y-102160588D01*
X142816748Y-102150096D01*
X142812397Y-102140132D01*
X142807354Y-102130696D01*
X142801621Y-102121788D01*
X142795196Y-102113408D01*
X142788079Y-102105556D01*
X142782951Y-102100615D01*
X142774826Y-102093675D01*
X142766202Y-102087417D01*
X142757080Y-102081842D01*
X142747460Y-102076950D01*
X142737342Y-102072741D01*
X142726726Y-102069214D01*
X142715612Y-102066369D01*
X142704000Y-102064208D01*
X142691890Y-102062728D01*
X142679282Y-102061932D01*
X142670600Y-102061780D01*
X142656865Y-102062152D01*
X142643689Y-102063266D01*
X142631071Y-102065123D01*
X142619011Y-102067722D01*
X142607509Y-102071065D01*
X142596565Y-102075150D01*
X142586180Y-102079978D01*
X142576352Y-102085548D01*
X142567083Y-102091862D01*
X142558372Y-102098918D01*
X142552875Y-102104034D01*
X142545236Y-102112240D01*
X142538349Y-102121013D01*
X142532213Y-102130353D01*
X142526828Y-102140259D01*
X142522195Y-102150732D01*
X142518313Y-102161771D01*
X142515183Y-102173377D01*
X142512803Y-102185550D01*
X142511176Y-102198290D01*
X142510299Y-102211597D01*
X142510132Y-102220782D01*
X142510132Y-102655535D01*
X142510503Y-102669219D01*
X142511618Y-102682337D01*
X142513474Y-102694887D01*
X142516074Y-102706872D01*
X142519416Y-102718289D01*
X142523502Y-102729140D01*
X142528329Y-102739424D01*
X142533900Y-102749141D01*
X142540213Y-102758291D01*
X142547269Y-102766875D01*
X142552386Y-102772283D01*
X142560592Y-102779834D01*
X142569365Y-102786643D01*
X142578704Y-102792708D01*
X142588610Y-102798031D01*
X142599083Y-102802612D01*
X142610123Y-102806449D01*
X142621729Y-102809544D01*
X142633902Y-102811896D01*
X142646642Y-102813505D01*
X142659948Y-102814372D01*
X142669134Y-102814537D01*
X142682336Y-102814185D01*
X142695014Y-102813129D01*
X142707169Y-102811368D01*
X142718799Y-102808904D01*
X142729906Y-102805736D01*
X142740489Y-102801863D01*
X142750549Y-102797286D01*
X142760084Y-102792005D01*
X142769096Y-102786021D01*
X142777584Y-102779332D01*
X142782951Y-102774481D01*
X142790528Y-102766745D01*
X142797414Y-102758558D01*
X142803609Y-102749921D01*
X142809112Y-102740833D01*
X142813924Y-102731294D01*
X142818045Y-102721304D01*
X142821475Y-102710863D01*
X142824213Y-102699972D01*
X142826260Y-102688629D01*
X142827616Y-102676836D01*
X142828136Y-102668724D01*
X143003991Y-102668724D01*
X143003244Y-102681396D01*
X143002102Y-102693857D01*
X143000565Y-102706108D01*
X142998633Y-102718149D01*
X142996306Y-102729979D01*
X142993584Y-102741599D01*
X142990467Y-102753008D01*
X142986955Y-102764208D01*
X142983048Y-102775196D01*
X142978746Y-102785975D01*
X142975659Y-102793043D01*
X142970779Y-102803383D01*
X142965572Y-102813425D01*
X142960040Y-102823172D01*
X142954181Y-102832622D01*
X142947996Y-102841776D01*
X142941484Y-102850634D01*
X142934646Y-102859196D01*
X142927482Y-102867461D01*
X142919992Y-102875430D01*
X142912175Y-102883103D01*
X142906782Y-102888054D01*
X142898487Y-102895225D01*
X142889904Y-102902082D01*
X142881033Y-102908625D01*
X142871875Y-102914856D01*
X142862429Y-102920773D01*
X142852695Y-102926376D01*
X142842674Y-102931666D01*
X142832365Y-102936643D01*
X142821768Y-102941306D01*
X142810884Y-102945656D01*
X142803468Y-102948382D01*
X142792119Y-102952179D01*
X142780513Y-102955603D01*
X142768649Y-102958654D01*
X142756527Y-102961331D01*
X142744148Y-102963634D01*
X142731512Y-102965564D01*
X142718617Y-102967120D01*
X142705465Y-102968303D01*
X142692056Y-102969112D01*
X142678389Y-102969548D01*
X142669134Y-102969631D01*
G37*
G36*
X138978607Y-103043818D02*
G01*
X139161300Y-103043818D01*
X138670372Y-104380315D01*
X138486213Y-104380315D01*
X138978607Y-103043818D01*
G37*
G36*
X138345529Y-103043818D02*
G01*
X138528223Y-103043818D01*
X138037295Y-104380315D01*
X137853136Y-104380315D01*
X138345529Y-103043818D01*
G37*
G36*
X139786747Y-103192483D02*
G01*
X139800584Y-103192979D01*
X139814150Y-103193805D01*
X139827446Y-103194962D01*
X139840471Y-103196450D01*
X139853226Y-103198268D01*
X139865710Y-103200417D01*
X139877924Y-103202896D01*
X139889867Y-103205706D01*
X139901540Y-103208847D01*
X139909172Y-103211124D01*
X139920366Y-103214744D01*
X139931234Y-103218643D01*
X139941775Y-103222822D01*
X139951991Y-103227279D01*
X139961880Y-103232015D01*
X139971442Y-103237030D01*
X139980679Y-103242325D01*
X139989589Y-103247898D01*
X139998173Y-103253751D01*
X140006430Y-103259882D01*
X140011754Y-103264125D01*
X140019509Y-103270715D01*
X140026929Y-103277572D01*
X140034015Y-103284694D01*
X140040765Y-103292083D01*
X140047181Y-103299738D01*
X140053262Y-103307659D01*
X140059008Y-103315847D01*
X140064419Y-103324300D01*
X140069495Y-103333020D01*
X140074236Y-103342006D01*
X140077211Y-103348145D01*
X140081358Y-103357548D01*
X140085096Y-103367167D01*
X140088427Y-103377000D01*
X140091350Y-103387048D01*
X140093865Y-103397310D01*
X140095973Y-103407788D01*
X140097672Y-103418479D01*
X140098964Y-103429386D01*
X140099848Y-103440507D01*
X140100323Y-103451843D01*
X140100414Y-103459519D01*
X140100211Y-103471225D01*
X140099601Y-103482650D01*
X140098585Y-103493794D01*
X140097163Y-103504659D01*
X140095334Y-103515242D01*
X140093098Y-103525545D01*
X140090456Y-103535568D01*
X140087408Y-103545310D01*
X140083953Y-103554771D01*
X140080092Y-103563952D01*
X140075825Y-103572853D01*
X140071151Y-103581473D01*
X140063378Y-103593877D01*
X140054690Y-103605650D01*
X140048390Y-103613148D01*
X140041738Y-103620304D01*
X140031203Y-103630279D01*
X140019997Y-103639343D01*
X140008122Y-103647498D01*
X139995577Y-103654742D01*
X139982362Y-103661076D01*
X139973180Y-103664793D01*
X139963700Y-103668106D01*
X139953923Y-103671014D01*
X139943848Y-103673517D01*
X139933475Y-103675616D01*
X139922805Y-103677311D01*
X139911837Y-103678600D01*
X139906241Y-103679094D01*
X139906241Y-103696435D01*
X139918557Y-103696682D01*
X139930532Y-103697423D01*
X139942165Y-103698659D01*
X139953456Y-103700389D01*
X139964406Y-103702613D01*
X139975014Y-103705331D01*
X139985281Y-103708543D01*
X139995206Y-103712250D01*
X140004790Y-103716450D01*
X140014032Y-103721145D01*
X140022933Y-103726335D01*
X140031492Y-103732018D01*
X140039709Y-103738196D01*
X140047585Y-103744868D01*
X140055119Y-103752034D01*
X140062312Y-103759694D01*
X140069144Y-103767764D01*
X140075536Y-103776161D01*
X140081486Y-103784884D01*
X140086996Y-103793934D01*
X140092065Y-103803309D01*
X140096693Y-103813011D01*
X140100881Y-103823040D01*
X140104627Y-103833394D01*
X140107933Y-103844075D01*
X140110798Y-103855082D01*
X140113222Y-103866416D01*
X140115206Y-103878075D01*
X140116749Y-103890061D01*
X140117851Y-103902374D01*
X140118512Y-103915012D01*
X140118732Y-103927977D01*
X140118528Y-103940505D01*
X140117916Y-103952810D01*
X140116897Y-103964891D01*
X140115469Y-103976749D01*
X140113634Y-103988384D01*
X140111391Y-103999796D01*
X140108739Y-104010984D01*
X140105681Y-104021950D01*
X140102214Y-104032692D01*
X140098339Y-104043210D01*
X140095529Y-104050099D01*
X140090998Y-104060174D01*
X140086107Y-104069974D01*
X140080855Y-104079499D01*
X140075242Y-104088750D01*
X140069268Y-104097726D01*
X140062934Y-104106427D01*
X140056239Y-104114853D01*
X140049184Y-104123005D01*
X140041768Y-104130882D01*
X140033991Y-104138484D01*
X140028607Y-104143399D01*
X140020292Y-104150524D01*
X140011651Y-104157336D01*
X140002683Y-104163833D01*
X139993390Y-104170018D01*
X139983770Y-104175889D01*
X139973824Y-104181447D01*
X139963551Y-104186691D01*
X139952952Y-104191622D01*
X139942027Y-104196240D01*
X139930776Y-104200544D01*
X139923094Y-104203239D01*
X139911370Y-104206949D01*
X139899372Y-104210294D01*
X139887098Y-104213275D01*
X139874550Y-104215890D01*
X139861728Y-104218140D01*
X139848630Y-104220026D01*
X139835258Y-104221546D01*
X139821611Y-104222702D01*
X139807689Y-104223493D01*
X139793492Y-104223918D01*
X139783875Y-104224000D01*
X139450484Y-104224000D01*
X139450484Y-103770685D01*
X139622187Y-103770685D01*
X139622187Y-104068905D01*
X139772640Y-104068905D01*
X139787121Y-104068560D01*
X139800979Y-104067523D01*
X139814215Y-104065795D01*
X139826828Y-104063375D01*
X139838818Y-104060265D01*
X139850186Y-104056463D01*
X139860932Y-104051970D01*
X139871055Y-104046786D01*
X139880555Y-104040911D01*
X139889433Y-104034344D01*
X139895006Y-104029582D01*
X139902819Y-104021936D01*
X139909864Y-104013746D01*
X139916140Y-104005009D01*
X139921647Y-103995728D01*
X139926386Y-103985901D01*
X139930357Y-103975529D01*
X139933559Y-103964612D01*
X139935993Y-103953149D01*
X139937658Y-103941142D01*
X139938554Y-103928589D01*
X139938725Y-103919917D01*
X139938341Y-103906957D01*
X139937188Y-103894546D01*
X139935267Y-103882685D01*
X139932577Y-103871374D01*
X139929119Y-103860612D01*
X139924892Y-103850400D01*
X139919897Y-103840737D01*
X139914133Y-103831623D01*
X139907601Y-103823060D01*
X139900300Y-103815045D01*
X139895006Y-103810008D01*
X139886543Y-103802980D01*
X139877458Y-103796644D01*
X139867750Y-103790999D01*
X139857419Y-103786045D01*
X139846466Y-103781783D01*
X139834891Y-103778211D01*
X139822692Y-103775331D01*
X139809872Y-103773142D01*
X139796429Y-103771645D01*
X139782363Y-103770838D01*
X139772640Y-103770685D01*
X139622187Y-103770685D01*
X139450484Y-103770685D01*
X139450484Y-103347412D01*
X139622187Y-103347412D01*
X139622187Y-103615591D01*
X139769953Y-103615591D01*
X139782621Y-103615273D01*
X139794795Y-103614320D01*
X139806475Y-103612731D01*
X139817661Y-103610507D01*
X139828353Y-103607648D01*
X139838552Y-103604153D01*
X139848257Y-103600023D01*
X139857469Y-103595257D01*
X139866186Y-103589856D01*
X139874410Y-103583820D01*
X139879618Y-103579443D01*
X139886908Y-103572433D01*
X139893480Y-103564960D01*
X139899336Y-103557023D01*
X139904474Y-103548622D01*
X139908895Y-103539758D01*
X139912600Y-103530430D01*
X139915587Y-103520638D01*
X139917858Y-103510383D01*
X139919411Y-103499664D01*
X139920248Y-103488481D01*
X139920407Y-103480769D01*
X139920055Y-103469283D01*
X139918999Y-103458274D01*
X139917239Y-103447742D01*
X139914774Y-103437686D01*
X139911606Y-103428107D01*
X139907733Y-103419005D01*
X139901474Y-103407609D01*
X139893964Y-103397061D01*
X139887510Y-103389706D01*
X139880351Y-103382827D01*
X139872587Y-103376498D01*
X139864317Y-103370791D01*
X139855540Y-103365707D01*
X139846256Y-103361246D01*
X139836466Y-103357407D01*
X139826169Y-103354191D01*
X139815366Y-103351597D01*
X139804056Y-103349625D01*
X139792239Y-103348277D01*
X139779916Y-103347550D01*
X139771419Y-103347412D01*
X139622187Y-103347412D01*
X139450484Y-103347412D01*
X139450484Y-103192318D01*
X139772640Y-103192318D01*
X139786747Y-103192483D01*
G37*
G36*
X140476792Y-103192318D02*
G01*
X140578153Y-103529861D01*
X140581147Y-103539440D01*
X140583930Y-103549369D01*
X140586503Y-103559649D01*
X140588865Y-103570280D01*
X140590121Y-103576512D01*
X140592223Y-103587413D01*
X140594255Y-103598103D01*
X140596217Y-103608584D01*
X140598108Y-103618853D01*
X140599158Y-103624628D01*
X140600746Y-103634336D01*
X140602215Y-103644045D01*
X140603563Y-103653754D01*
X140604791Y-103663462D01*
X140605898Y-103673171D01*
X140606241Y-103676407D01*
X140617476Y-103676407D01*
X140618618Y-103666698D01*
X140619846Y-103656990D01*
X140621160Y-103647281D01*
X140622559Y-103637572D01*
X140624045Y-103627864D01*
X140624559Y-103624628D01*
X140625935Y-103614478D01*
X140627498Y-103604118D01*
X140629247Y-103593547D01*
X140631184Y-103582767D01*
X140632375Y-103576512D01*
X140634617Y-103565681D01*
X140637070Y-103555201D01*
X140639733Y-103545071D01*
X140642606Y-103535292D01*
X140644343Y-103529861D01*
X140738621Y-103192318D01*
X140953799Y-103192318D01*
X140953799Y-104224000D01*
X140792110Y-104224000D01*
X140792110Y-103555018D01*
X140792193Y-103542869D01*
X140792380Y-103533021D01*
X140792674Y-103523059D01*
X140793075Y-103512982D01*
X140793582Y-103502791D01*
X140794197Y-103492485D01*
X140794918Y-103482064D01*
X140795529Y-103474174D01*
X140796399Y-103463733D01*
X140797300Y-103453535D01*
X140798231Y-103443583D01*
X140799438Y-103431485D01*
X140800693Y-103419769D01*
X140801995Y-103408434D01*
X140803345Y-103397482D01*
X140804406Y-103387147D01*
X140805513Y-103376904D01*
X140806665Y-103366753D01*
X140807863Y-103356693D01*
X140809108Y-103346725D01*
X140810397Y-103336848D01*
X140811733Y-103327063D01*
X140813115Y-103317370D01*
X140796262Y-103317370D01*
X140793596Y-103329042D01*
X140790943Y-103340702D01*
X140788301Y-103352350D01*
X140785672Y-103363986D01*
X140783054Y-103375610D01*
X140780448Y-103387223D01*
X140779409Y-103391864D01*
X140777142Y-103402240D01*
X140774768Y-103412758D01*
X140772286Y-103423420D01*
X140769697Y-103434225D01*
X140767000Y-103445173D01*
X140764196Y-103456264D01*
X140763045Y-103460741D01*
X140760233Y-103471782D01*
X140757444Y-103482465D01*
X140754680Y-103492790D01*
X140751939Y-103502758D01*
X140749223Y-103512368D01*
X140745994Y-103523428D01*
X140745459Y-103525221D01*
X140676583Y-103778989D01*
X140541517Y-103778989D01*
X140468488Y-103525221D01*
X140465382Y-103515267D01*
X140462325Y-103505099D01*
X140459315Y-103494717D01*
X140456352Y-103484119D01*
X140453437Y-103473307D01*
X140450570Y-103462280D01*
X140449437Y-103457810D01*
X140446661Y-103446697D01*
X140443980Y-103435799D01*
X140441394Y-103425116D01*
X140438904Y-103414647D01*
X140436509Y-103404393D01*
X140434210Y-103394354D01*
X140433317Y-103390399D01*
X140430681Y-103378827D01*
X140428117Y-103367315D01*
X140425625Y-103355862D01*
X140423204Y-103344470D01*
X140420854Y-103333136D01*
X140418577Y-103321863D01*
X140417685Y-103317370D01*
X140402298Y-103317370D01*
X140403703Y-103327063D01*
X140405107Y-103336848D01*
X140406511Y-103346725D01*
X140407916Y-103356693D01*
X140409320Y-103366753D01*
X140410725Y-103376904D01*
X140412129Y-103387147D01*
X140413533Y-103397482D01*
X140414461Y-103408434D01*
X140415413Y-103419769D01*
X140416388Y-103431485D01*
X140417388Y-103443583D01*
X140418204Y-103453535D01*
X140419036Y-103463733D01*
X140419884Y-103474174D01*
X140420685Y-103484680D01*
X140421380Y-103495072D01*
X140421967Y-103505349D01*
X140422448Y-103515512D01*
X140422822Y-103525560D01*
X140423089Y-103535494D01*
X140423250Y-103545314D01*
X140423303Y-103555018D01*
X140423303Y-104224000D01*
X140263080Y-104224000D01*
X140263080Y-103192318D01*
X140476792Y-103192318D01*
G37*
G36*
X141145773Y-104224000D02*
G01*
X141145773Y-103192318D01*
X141769081Y-103192318D01*
X141769081Y-103347412D01*
X141321628Y-103347412D01*
X141321628Y-103615591D01*
X141719744Y-103615591D01*
X141719744Y-103770685D01*
X141321628Y-103770685D01*
X141321628Y-104068905D01*
X141769081Y-104068905D01*
X141769081Y-104224000D01*
X141145773Y-104224000D01*
G37*
G36*
X142255124Y-103543295D02*
G01*
X142248921Y-103553207D01*
X142242949Y-103562703D01*
X142237208Y-103571783D01*
X142231700Y-103580446D01*
X142226423Y-103588693D01*
X142219749Y-103599041D01*
X142213486Y-103608648D01*
X142207636Y-103617516D01*
X142202198Y-103625642D01*
X142200903Y-103627558D01*
X142194788Y-103636659D01*
X142189115Y-103645032D01*
X142182890Y-103654120D01*
X142177300Y-103662160D01*
X142171581Y-103670216D01*
X142169395Y-103673232D01*
X142162938Y-103681597D01*
X142156627Y-103689821D01*
X142151077Y-103697168D01*
X142165243Y-103697168D01*
X142170748Y-103688557D01*
X142176730Y-103680281D01*
X142183189Y-103672338D01*
X142190125Y-103664729D01*
X142197538Y-103657454D01*
X142205429Y-103650513D01*
X142208718Y-103647831D01*
X142217565Y-103640675D01*
X142225581Y-103634974D01*
X142234181Y-103629512D01*
X142243365Y-103624289D01*
X142253133Y-103619304D01*
X142263486Y-103614557D01*
X142265627Y-103613637D01*
X142276817Y-103609344D01*
X142286276Y-103606435D01*
X142296185Y-103603990D01*
X142306544Y-103602011D01*
X142317354Y-103600498D01*
X142328614Y-103599451D01*
X142340324Y-103598869D01*
X142349402Y-103598738D01*
X142361164Y-103598937D01*
X142372729Y-103599536D01*
X142384097Y-103600535D01*
X142395266Y-103601932D01*
X142406239Y-103603729D01*
X142417014Y-103605925D01*
X142427591Y-103608520D01*
X142437971Y-103611515D01*
X142448153Y-103614909D01*
X142458138Y-103618702D01*
X142464685Y-103621452D01*
X142474352Y-103625868D01*
X142483753Y-103630597D01*
X142492888Y-103635640D01*
X142501756Y-103640996D01*
X142510359Y-103646665D01*
X142518695Y-103652648D01*
X142526765Y-103658944D01*
X142534569Y-103665553D01*
X142542106Y-103672476D01*
X142549378Y-103679713D01*
X142554078Y-103684711D01*
X142560941Y-103692464D01*
X142567516Y-103700516D01*
X142573803Y-103708870D01*
X142579803Y-103717524D01*
X142585516Y-103726478D01*
X142590940Y-103735733D01*
X142596077Y-103745289D01*
X142600926Y-103755145D01*
X142605488Y-103765301D01*
X142609762Y-103775759D01*
X142612452Y-103782897D01*
X142616249Y-103793779D01*
X142619673Y-103804902D01*
X142622723Y-103816265D01*
X142625400Y-103827868D01*
X142627704Y-103839712D01*
X142629634Y-103851796D01*
X142631190Y-103864121D01*
X142632373Y-103876686D01*
X142633182Y-103889492D01*
X142633618Y-103902538D01*
X142633701Y-103911369D01*
X142633478Y-103925124D01*
X142632808Y-103938640D01*
X142631692Y-103951915D01*
X142630129Y-103964949D01*
X142628119Y-103977744D01*
X142625664Y-103990297D01*
X142622761Y-104002611D01*
X142619413Y-104014683D01*
X142615617Y-104026516D01*
X142611376Y-104038108D01*
X142608300Y-104045702D01*
X142603359Y-104056866D01*
X142598061Y-104067733D01*
X142592408Y-104078304D01*
X142586398Y-104088578D01*
X142580032Y-104098557D01*
X142573309Y-104108239D01*
X142566230Y-104117625D01*
X142558795Y-104126715D01*
X142551003Y-104135508D01*
X142542855Y-104144005D01*
X142537225Y-104149505D01*
X142528500Y-104157437D01*
X142519453Y-104165022D01*
X142510085Y-104172258D01*
X142500394Y-104179147D01*
X142490381Y-104185687D01*
X142480046Y-104191881D01*
X142469390Y-104197726D01*
X142458411Y-104203224D01*
X142447110Y-104208373D01*
X142435487Y-104213176D01*
X142427560Y-104216184D01*
X142415443Y-104220374D01*
X142403091Y-104224152D01*
X142390502Y-104227518D01*
X142377677Y-104230472D01*
X142364616Y-104233014D01*
X142351319Y-104235143D01*
X142337786Y-104236860D01*
X142324016Y-104238166D01*
X142310011Y-104239059D01*
X142295769Y-104239539D01*
X142286143Y-104239631D01*
X142276337Y-104239536D01*
X142261836Y-104239035D01*
X142247583Y-104238105D01*
X142233580Y-104236745D01*
X142219826Y-104234956D01*
X142206320Y-104232738D01*
X142193064Y-104230090D01*
X142180056Y-104227013D01*
X142167298Y-104223507D01*
X142154789Y-104219572D01*
X142142528Y-104215207D01*
X142130602Y-104210458D01*
X142119001Y-104205369D01*
X142107727Y-104199942D01*
X142096779Y-104194175D01*
X142086157Y-104188069D01*
X142075862Y-104181624D01*
X142065892Y-104174840D01*
X142056250Y-104167717D01*
X142046933Y-104160254D01*
X142037943Y-104152453D01*
X142032131Y-104147063D01*
X142023752Y-104138657D01*
X142015742Y-104129924D01*
X142008101Y-104120865D01*
X142000829Y-104111480D01*
X141993927Y-104101768D01*
X141987394Y-104091731D01*
X141981230Y-104081366D01*
X141975436Y-104070676D01*
X141970010Y-104059659D01*
X141964954Y-104048316D01*
X141961789Y-104040573D01*
X141957424Y-104028719D01*
X141953488Y-104016602D01*
X141949982Y-104004224D01*
X141946905Y-103991583D01*
X141944258Y-103978681D01*
X141942039Y-103965517D01*
X141940251Y-103952091D01*
X141938891Y-103938403D01*
X141937961Y-103924454D01*
X141937500Y-103911369D01*
X142113219Y-103911369D01*
X142113631Y-103925882D01*
X142114868Y-103939836D01*
X142116929Y-103953233D01*
X142119814Y-103966071D01*
X142123523Y-103978352D01*
X142128057Y-103990074D01*
X142133415Y-104001238D01*
X142139598Y-104011844D01*
X142146604Y-104021892D01*
X142154435Y-104031382D01*
X142160114Y-104037398D01*
X142169232Y-104045822D01*
X142178907Y-104053418D01*
X142189141Y-104060185D01*
X142199933Y-104066123D01*
X142211283Y-104071233D01*
X142223192Y-104075514D01*
X142235658Y-104078967D01*
X142248683Y-104081591D01*
X142262265Y-104083386D01*
X142276406Y-104084353D01*
X142286143Y-104084537D01*
X142300394Y-104084123D01*
X142314113Y-104082880D01*
X142327299Y-104080808D01*
X142339953Y-104077908D01*
X142352075Y-104074179D01*
X142363664Y-104069622D01*
X142374720Y-104064236D01*
X142385245Y-104058021D01*
X142395237Y-104050978D01*
X142404696Y-104043106D01*
X142410707Y-104037398D01*
X142419131Y-104028280D01*
X142426727Y-104018605D01*
X142433494Y-104008371D01*
X142439432Y-103997579D01*
X142444542Y-103986229D01*
X142448823Y-103974320D01*
X142452276Y-103961854D01*
X142454900Y-103948829D01*
X142456695Y-103935247D01*
X142457662Y-103921106D01*
X142457846Y-103911369D01*
X142457432Y-103896819D01*
X142456189Y-103882844D01*
X142454117Y-103869444D01*
X142451217Y-103856620D01*
X142447488Y-103844371D01*
X142442931Y-103832698D01*
X142437545Y-103821599D01*
X142431330Y-103811076D01*
X142424287Y-103801129D01*
X142416415Y-103791756D01*
X142410707Y-103785828D01*
X142401602Y-103777535D01*
X142391965Y-103770057D01*
X142381796Y-103763395D01*
X142371094Y-103757549D01*
X142359860Y-103752519D01*
X142348093Y-103748304D01*
X142335794Y-103744905D01*
X142322963Y-103742322D01*
X142309599Y-103740555D01*
X142295703Y-103739603D01*
X142286143Y-103739422D01*
X142271886Y-103739836D01*
X142258148Y-103741079D01*
X142244929Y-103743150D01*
X142232230Y-103746051D01*
X142220051Y-103749779D01*
X142208391Y-103754337D01*
X142197251Y-103759723D01*
X142186630Y-103765937D01*
X142176528Y-103772981D01*
X142166946Y-103780852D01*
X142160847Y-103786561D01*
X142152335Y-103795667D01*
X142144661Y-103805311D01*
X142137824Y-103815491D01*
X142131824Y-103826208D01*
X142126661Y-103837462D01*
X142122335Y-103849252D01*
X142118847Y-103861579D01*
X142116196Y-103874442D01*
X142114382Y-103887842D01*
X142113405Y-103901779D01*
X142113219Y-103911369D01*
X141937500Y-103911369D01*
X141937460Y-103910242D01*
X141937364Y-103900622D01*
X141937518Y-103888762D01*
X141937979Y-103876873D01*
X141938747Y-103864956D01*
X141939822Y-103853010D01*
X141941205Y-103841035D01*
X141942894Y-103829032D01*
X141944891Y-103817000D01*
X141947195Y-103804940D01*
X141949807Y-103792851D01*
X141952725Y-103780733D01*
X141955951Y-103768587D01*
X141959484Y-103756412D01*
X141963324Y-103744208D01*
X141967471Y-103731976D01*
X141971926Y-103719715D01*
X141976688Y-103707426D01*
X141981746Y-103695041D01*
X141987091Y-103682494D01*
X141992722Y-103669785D01*
X141998639Y-103656913D01*
X142004842Y-103643880D01*
X142011332Y-103630684D01*
X142018108Y-103617326D01*
X142025170Y-103603806D01*
X142032518Y-103590123D01*
X142040153Y-103576279D01*
X142048073Y-103562272D01*
X142056280Y-103548103D01*
X142064773Y-103533772D01*
X142073553Y-103519279D01*
X142082618Y-103504623D01*
X142091970Y-103489806D01*
X142279060Y-103192318D01*
X142480316Y-103192318D01*
X142255124Y-103543295D01*
G37*
G36*
X143138003Y-103176860D02*
G01*
X143151840Y-103177382D01*
X143165406Y-103178251D01*
X143178702Y-103179468D01*
X143191727Y-103181033D01*
X143204482Y-103182946D01*
X143216966Y-103185206D01*
X143229180Y-103187814D01*
X143241123Y-103190770D01*
X143252796Y-103194074D01*
X143260428Y-103196470D01*
X143271622Y-103200275D01*
X143282490Y-103204364D01*
X143293032Y-103208736D01*
X143303247Y-103213391D01*
X143313136Y-103218330D01*
X143322698Y-103223552D01*
X143331935Y-103229058D01*
X143340845Y-103234846D01*
X143349429Y-103240919D01*
X143357686Y-103247274D01*
X143363010Y-103251669D01*
X143370765Y-103258453D01*
X143378185Y-103265525D01*
X143385271Y-103272884D01*
X143392021Y-103280531D01*
X143398437Y-103288466D01*
X143404518Y-103296689D01*
X143410264Y-103305199D01*
X143415675Y-103313996D01*
X143420751Y-103323082D01*
X143425492Y-103332455D01*
X143428467Y-103338863D01*
X143432614Y-103348636D01*
X143436352Y-103358627D01*
X143439683Y-103368837D01*
X143442606Y-103379267D01*
X143445122Y-103389915D01*
X143447229Y-103400782D01*
X143448928Y-103411868D01*
X143450220Y-103423173D01*
X143451104Y-103434697D01*
X143451579Y-103446440D01*
X143451670Y-103454390D01*
X143451449Y-103465549D01*
X143450785Y-103476555D01*
X143449678Y-103487409D01*
X143448129Y-103498110D01*
X143446136Y-103508658D01*
X143443702Y-103519054D01*
X143440824Y-103529297D01*
X143437504Y-103539387D01*
X143433844Y-103549263D01*
X143429826Y-103558865D01*
X143425448Y-103568192D01*
X143420712Y-103577244D01*
X143415618Y-103586022D01*
X143410164Y-103594525D01*
X143404352Y-103602753D01*
X143398181Y-103610706D01*
X143391724Y-103618350D01*
X143384931Y-103625650D01*
X143377802Y-103632607D01*
X143370337Y-103639221D01*
X143362537Y-103645491D01*
X143354400Y-103651418D01*
X143345928Y-103657001D01*
X143337120Y-103662241D01*
X143328003Y-103667084D01*
X143318604Y-103671476D01*
X143308922Y-103675419D01*
X143298957Y-103678911D01*
X143288711Y-103681952D01*
X143278181Y-103684543D01*
X143267370Y-103686684D01*
X143256276Y-103688375D01*
X143256276Y-103693993D01*
X143268408Y-103696332D01*
X143280257Y-103699076D01*
X143291825Y-103702224D01*
X143303109Y-103705777D01*
X143314112Y-103709735D01*
X143324832Y-103714097D01*
X143335269Y-103718863D01*
X143345424Y-103724034D01*
X143355320Y-103729515D01*
X143364857Y-103735331D01*
X143374035Y-103741482D01*
X143382855Y-103747970D01*
X143391315Y-103754794D01*
X143399417Y-103761953D01*
X143407161Y-103769448D01*
X143414545Y-103777279D01*
X143421540Y-103785378D01*
X143428116Y-103793796D01*
X143434272Y-103802536D01*
X143440008Y-103811595D01*
X143445324Y-103820976D01*
X143450220Y-103830677D01*
X143454696Y-103840699D01*
X143458753Y-103851041D01*
X143462360Y-103861639D01*
X143465485Y-103872427D01*
X143468130Y-103883407D01*
X143470294Y-103894577D01*
X143471977Y-103905938D01*
X143473179Y-103917490D01*
X143473900Y-103929233D01*
X143474140Y-103941166D01*
X143473924Y-103953869D01*
X143473273Y-103966331D01*
X143472189Y-103978553D01*
X143470671Y-103990534D01*
X143468720Y-104002275D01*
X143466335Y-104013775D01*
X143463517Y-104025035D01*
X143460264Y-104036055D01*
X143456579Y-104046834D01*
X143452459Y-104057372D01*
X143449472Y-104064265D01*
X143444703Y-104074385D01*
X143439557Y-104084232D01*
X143434033Y-104093803D01*
X143428131Y-104103099D01*
X143421852Y-104112121D01*
X143415194Y-104120868D01*
X143408159Y-104129340D01*
X143400745Y-104137538D01*
X143392955Y-104145460D01*
X143384786Y-104153108D01*
X143379130Y-104158054D01*
X143370399Y-104165183D01*
X143361333Y-104172007D01*
X143351932Y-104178527D01*
X143342196Y-104184741D01*
X143332125Y-104190651D01*
X143321720Y-104196256D01*
X143310979Y-104201556D01*
X143299904Y-104206551D01*
X143288493Y-104211242D01*
X143276748Y-104215628D01*
X143268732Y-104218382D01*
X143256503Y-104222179D01*
X143243994Y-104225603D01*
X143231206Y-104228654D01*
X143218140Y-104231331D01*
X143204794Y-104233634D01*
X143191169Y-104235564D01*
X143177265Y-104237120D01*
X143163082Y-104238303D01*
X143148620Y-104239112D01*
X143138823Y-104239444D01*
X143128903Y-104239610D01*
X143123896Y-104239631D01*
X143113945Y-104239548D01*
X143104120Y-104239299D01*
X143089619Y-104238614D01*
X143075401Y-104237556D01*
X143061466Y-104236124D01*
X143047815Y-104234319D01*
X143034447Y-104232140D01*
X143021362Y-104229588D01*
X143008561Y-104226662D01*
X142996043Y-104223362D01*
X142983808Y-104219689D01*
X142979793Y-104218382D01*
X142967960Y-104214197D01*
X142956457Y-104209704D01*
X142945285Y-104204901D01*
X142934444Y-104199789D01*
X142923933Y-104194368D01*
X142913753Y-104188638D01*
X142903903Y-104182598D01*
X142894384Y-104176250D01*
X142885196Y-104169592D01*
X142876338Y-104162626D01*
X142870616Y-104157810D01*
X142862368Y-104150345D01*
X142854476Y-104142606D01*
X142846941Y-104134591D01*
X142839762Y-104126302D01*
X142832939Y-104117739D01*
X142826472Y-104108900D01*
X142820362Y-104099787D01*
X142814608Y-104090399D01*
X142809211Y-104080736D01*
X142804170Y-104070798D01*
X142801007Y-104064020D01*
X142796642Y-104053657D01*
X142792707Y-104043083D01*
X142789201Y-104032299D01*
X142786124Y-104021305D01*
X142783476Y-104010100D01*
X142781258Y-103998685D01*
X142779469Y-103987059D01*
X142778109Y-103975223D01*
X142777179Y-103963177D01*
X142776678Y-103950920D01*
X142776583Y-103942632D01*
X142776813Y-103930479D01*
X142777099Y-103925535D01*
X142953659Y-103925535D01*
X142954067Y-103939666D01*
X142955290Y-103953298D01*
X142957330Y-103966433D01*
X142960185Y-103979070D01*
X142963856Y-103991208D01*
X142968342Y-104002849D01*
X142973644Y-104013992D01*
X142979762Y-104024636D01*
X142986696Y-104034783D01*
X142994446Y-104044431D01*
X143000065Y-104050587D01*
X143009039Y-104059230D01*
X143018558Y-104067022D01*
X143028622Y-104073964D01*
X143039232Y-104080057D01*
X143050387Y-104085299D01*
X143062087Y-104089691D01*
X143074332Y-104093233D01*
X143087122Y-104095925D01*
X143100458Y-104097766D01*
X143114339Y-104098758D01*
X143123896Y-104098947D01*
X143138409Y-104098522D01*
X143152364Y-104097247D01*
X143165760Y-104095122D01*
X143178599Y-104092147D01*
X143190879Y-104088321D01*
X143202602Y-104083646D01*
X143213766Y-104078120D01*
X143224372Y-104071745D01*
X143234419Y-104064519D01*
X143243909Y-104056443D01*
X143249926Y-104050587D01*
X143258350Y-104041271D01*
X143265945Y-104031456D01*
X143272712Y-104021143D01*
X143278651Y-104010333D01*
X143283761Y-103999024D01*
X143288042Y-103987218D01*
X143291494Y-103974913D01*
X143294118Y-103962110D01*
X143295914Y-103948809D01*
X143296880Y-103935011D01*
X143297064Y-103925535D01*
X143296650Y-103911205D01*
X143295407Y-103897433D01*
X143293336Y-103884220D01*
X143290435Y-103871565D01*
X143286707Y-103859468D01*
X143282149Y-103847928D01*
X143276763Y-103836948D01*
X143270549Y-103826525D01*
X143263506Y-103816660D01*
X143255634Y-103807354D01*
X143249926Y-103801459D01*
X143240808Y-103793166D01*
X143231132Y-103785689D01*
X143220898Y-103779027D01*
X143210106Y-103773181D01*
X143198756Y-103768150D01*
X143186848Y-103763936D01*
X143174382Y-103760537D01*
X143161357Y-103757954D01*
X143147774Y-103756186D01*
X143133633Y-103755235D01*
X143123896Y-103755053D01*
X143109652Y-103755461D01*
X143095952Y-103756685D01*
X143082798Y-103758724D01*
X143070190Y-103761579D01*
X143058126Y-103765250D01*
X143046608Y-103769736D01*
X143035635Y-103775039D01*
X143025207Y-103781157D01*
X143015324Y-103788090D01*
X143005987Y-103795840D01*
X143000065Y-103801459D01*
X142991772Y-103810394D01*
X142984294Y-103819886D01*
X142977632Y-103829937D01*
X142971786Y-103840546D01*
X142966756Y-103851713D01*
X142962541Y-103863438D01*
X142959142Y-103875721D01*
X142956559Y-103888562D01*
X142954792Y-103901962D01*
X142953840Y-103915920D01*
X142953659Y-103925535D01*
X142777099Y-103925535D01*
X142777503Y-103918566D01*
X142778652Y-103906894D01*
X142780262Y-103895462D01*
X142782331Y-103884271D01*
X142784860Y-103873320D01*
X142787850Y-103862610D01*
X142791299Y-103852140D01*
X142795207Y-103841910D01*
X142799576Y-103831921D01*
X142804405Y-103822172D01*
X142809693Y-103812664D01*
X142815441Y-103803396D01*
X142821650Y-103794369D01*
X142828318Y-103785582D01*
X142835445Y-103777035D01*
X142842988Y-103768781D01*
X142850840Y-103760934D01*
X142859001Y-103753493D01*
X142867472Y-103746459D01*
X142876251Y-103739831D01*
X142885340Y-103733609D01*
X142894737Y-103727794D01*
X142904444Y-103722386D01*
X142914460Y-103717384D01*
X142924785Y-103712788D01*
X142935419Y-103708598D01*
X142946362Y-103704816D01*
X142957615Y-103701439D01*
X142969176Y-103698469D01*
X142981047Y-103695905D01*
X142993226Y-103693748D01*
X142993226Y-103687886D01*
X142982407Y-103686196D01*
X142971809Y-103684055D01*
X142961433Y-103681464D01*
X142951278Y-103678422D01*
X142941344Y-103674930D01*
X142931631Y-103670988D01*
X142922140Y-103666595D01*
X142912870Y-103661752D01*
X142903887Y-103656513D01*
X142895254Y-103650929D01*
X142886973Y-103645003D01*
X142879043Y-103638733D01*
X142871464Y-103632119D01*
X142864236Y-103625162D01*
X142857359Y-103617861D01*
X142850833Y-103610217D01*
X142844715Y-103602268D01*
X142838941Y-103594051D01*
X142833511Y-103585568D01*
X142828423Y-103576817D01*
X142823680Y-103567799D01*
X142819280Y-103558514D01*
X142815223Y-103548962D01*
X142811510Y-103539143D01*
X142808247Y-103529052D01*
X142805419Y-103518809D01*
X142803026Y-103508414D01*
X142801068Y-103497866D01*
X142799546Y-103487165D01*
X142798458Y-103476311D01*
X142797867Y-103466358D01*
X142966360Y-103466358D01*
X142966735Y-103479298D01*
X142967862Y-103491829D01*
X142969741Y-103503953D01*
X142972370Y-103515669D01*
X142975751Y-103526976D01*
X142979884Y-103537877D01*
X142984767Y-103548369D01*
X142990402Y-103558453D01*
X142996789Y-103568129D01*
X143003926Y-103577398D01*
X143009102Y-103583351D01*
X143017415Y-103591687D01*
X143026235Y-103599204D01*
X143035562Y-103605901D01*
X143045395Y-103611778D01*
X143055735Y-103616835D01*
X143066581Y-103621072D01*
X143077934Y-103624488D01*
X143089794Y-103627085D01*
X143102160Y-103628862D01*
X143115033Y-103629819D01*
X143123896Y-103630001D01*
X143137105Y-103629591D01*
X143149802Y-103628361D01*
X143161989Y-103626311D01*
X143173665Y-103623441D01*
X143184829Y-103619751D01*
X143195483Y-103615240D01*
X143205626Y-103609910D01*
X143215258Y-103603760D01*
X143224379Y-103596790D01*
X143232990Y-103589000D01*
X143238446Y-103583351D01*
X143246128Y-103574354D01*
X143253055Y-103564949D01*
X143259226Y-103555137D01*
X143264641Y-103544917D01*
X143269301Y-103534288D01*
X143273205Y-103523252D01*
X143276353Y-103511809D01*
X143278746Y-103499957D01*
X143280383Y-103487697D01*
X143281265Y-103475030D01*
X143281433Y-103466358D01*
X143281055Y-103453996D01*
X143279922Y-103442098D01*
X143278033Y-103430663D01*
X143275388Y-103419693D01*
X143271988Y-103409185D01*
X143267832Y-103399142D01*
X143262920Y-103389562D01*
X143257253Y-103380446D01*
X143250830Y-103371793D01*
X143243652Y-103363604D01*
X143238446Y-103358403D01*
X143230176Y-103351070D01*
X143221396Y-103344458D01*
X143212104Y-103338568D01*
X143202302Y-103333398D01*
X143191989Y-103328951D01*
X143181164Y-103325224D01*
X143169829Y-103322219D01*
X143157983Y-103319935D01*
X143145626Y-103318372D01*
X143132759Y-103317530D01*
X143123896Y-103317370D01*
X143110686Y-103317731D01*
X143097982Y-103318813D01*
X143085784Y-103320616D01*
X143074094Y-103323140D01*
X143062909Y-103326386D01*
X143052232Y-103330353D01*
X143042061Y-103335041D01*
X143032397Y-103340451D01*
X143023239Y-103346582D01*
X143014588Y-103353434D01*
X143009102Y-103358403D01*
X143001464Y-103366283D01*
X142994576Y-103374626D01*
X142988440Y-103383433D01*
X142983056Y-103392704D01*
X142978423Y-103402438D01*
X142974541Y-103412636D01*
X142971410Y-103423298D01*
X142969031Y-103434423D01*
X142967403Y-103446013D01*
X142966527Y-103458065D01*
X142966360Y-103466358D01*
X142797867Y-103466358D01*
X142797805Y-103465305D01*
X142797588Y-103454146D01*
X142797792Y-103442257D01*
X142798404Y-103430587D01*
X142799423Y-103419136D01*
X142800851Y-103407904D01*
X142802686Y-103396891D01*
X142804929Y-103386097D01*
X142807581Y-103375522D01*
X142810640Y-103365165D01*
X142814106Y-103355028D01*
X142817981Y-103345110D01*
X142820791Y-103338619D01*
X142825309Y-103329098D01*
X142830162Y-103319860D01*
X142835350Y-103310906D01*
X142840872Y-103302235D01*
X142846730Y-103293847D01*
X142852922Y-103285743D01*
X142859449Y-103277921D01*
X142866312Y-103270384D01*
X142873509Y-103263130D01*
X142881041Y-103256159D01*
X142886248Y-103251669D01*
X142894329Y-103245124D01*
X142902729Y-103238863D01*
X142911445Y-103232885D01*
X142920480Y-103227191D01*
X142929832Y-103221780D01*
X142939502Y-103216652D01*
X142949490Y-103211808D01*
X142959796Y-103207247D01*
X142970419Y-103202969D01*
X142981360Y-103198975D01*
X142988830Y-103196470D01*
X143000310Y-103192934D01*
X143012034Y-103189746D01*
X143024003Y-103186906D01*
X143036217Y-103184414D01*
X143048675Y-103182270D01*
X143061379Y-103180473D01*
X143074327Y-103179024D01*
X143087519Y-103177923D01*
X143100957Y-103177169D01*
X143114639Y-103176763D01*
X143123896Y-103176686D01*
X143138003Y-103176860D01*
G37*
G36*
X143978704Y-103197152D02*
G01*
X143992593Y-103197731D01*
X144006245Y-103198697D01*
X144019661Y-103200050D01*
X144032840Y-103201788D01*
X144045784Y-103203914D01*
X144058492Y-103206425D01*
X144070963Y-103209323D01*
X144083198Y-103212608D01*
X144095198Y-103216278D01*
X144103066Y-103218940D01*
X144114666Y-103223183D01*
X144125926Y-103227762D01*
X144136848Y-103232675D01*
X144147430Y-103237922D01*
X144157673Y-103243505D01*
X144167577Y-103249423D01*
X144177142Y-103255675D01*
X144186368Y-103262263D01*
X144195254Y-103269185D01*
X144203802Y-103276442D01*
X144209311Y-103281466D01*
X144217335Y-103289256D01*
X144225011Y-103297329D01*
X144232339Y-103305685D01*
X144239319Y-103314325D01*
X144245951Y-103323248D01*
X144252236Y-103332454D01*
X144258173Y-103341944D01*
X144263762Y-103351717D01*
X144269004Y-103361773D01*
X144273897Y-103372113D01*
X144276967Y-103379163D01*
X144281244Y-103389952D01*
X144285101Y-103400976D01*
X144288537Y-103412237D01*
X144291553Y-103423734D01*
X144294147Y-103435467D01*
X144296321Y-103447436D01*
X144298074Y-103459641D01*
X144299407Y-103472083D01*
X144300318Y-103484760D01*
X144300809Y-103497674D01*
X144300903Y-103506414D01*
X144300903Y-103927244D01*
X144300692Y-103940060D01*
X144300061Y-103952678D01*
X144299009Y-103965099D01*
X144297537Y-103977322D01*
X144295643Y-103989347D01*
X144293329Y-104001176D01*
X144290594Y-104012806D01*
X144287439Y-104024239D01*
X144283862Y-104035475D01*
X144279865Y-104046513D01*
X144276967Y-104053762D01*
X144272298Y-104064422D01*
X144267269Y-104074785D01*
X144261880Y-104084852D01*
X144256130Y-104094623D01*
X144250019Y-104104098D01*
X144243547Y-104113276D01*
X144236715Y-104122159D01*
X144229523Y-104130745D01*
X144221969Y-104139034D01*
X144214055Y-104147028D01*
X144208579Y-104152192D01*
X144200133Y-104159681D01*
X144191374Y-104166852D01*
X144182301Y-104173706D01*
X144172915Y-104180242D01*
X144163216Y-104186460D01*
X144153203Y-104192361D01*
X144142877Y-104197943D01*
X144132238Y-104203208D01*
X144121285Y-104208156D01*
X144110018Y-104212785D01*
X144102333Y-104215695D01*
X144090622Y-104219711D01*
X144078662Y-104223332D01*
X144066454Y-104226557D01*
X144053996Y-104229388D01*
X144041289Y-104231824D01*
X144028333Y-104233865D01*
X144015128Y-104235510D01*
X144001674Y-104236761D01*
X143987972Y-104237617D01*
X143974020Y-104238078D01*
X143964580Y-104238166D01*
X143950454Y-104237975D01*
X143936559Y-104237401D01*
X143922896Y-104236446D01*
X143909465Y-104235109D01*
X143896266Y-104233389D01*
X143883299Y-104231288D01*
X143870563Y-104228804D01*
X143858060Y-104225938D01*
X143845788Y-104222690D01*
X143833748Y-104219060D01*
X143825850Y-104216428D01*
X143814292Y-104212141D01*
X143803064Y-104207524D01*
X143792167Y-104202576D01*
X143781600Y-104197297D01*
X143771364Y-104191688D01*
X143761459Y-104185748D01*
X143751884Y-104179477D01*
X143742640Y-104172876D01*
X143733726Y-104165945D01*
X143725143Y-104158683D01*
X143719605Y-104153658D01*
X143711625Y-104145862D01*
X143703988Y-104137769D01*
X143696695Y-104129381D01*
X143689746Y-104120696D01*
X143683140Y-104111715D01*
X143676877Y-104102438D01*
X143670958Y-104092865D01*
X143665383Y-104082995D01*
X143660150Y-104072829D01*
X143655262Y-104062367D01*
X143652193Y-104055228D01*
X143647916Y-104044308D01*
X143644059Y-104033166D01*
X143640623Y-104021800D01*
X143637608Y-104010211D01*
X143635013Y-103998398D01*
X143632839Y-103986363D01*
X143631086Y-103974104D01*
X143629754Y-103961622D01*
X143628842Y-103948916D01*
X143628351Y-103935988D01*
X143628331Y-103934083D01*
X143804113Y-103934083D01*
X143805012Y-103946532D01*
X143806611Y-103958509D01*
X143808910Y-103970014D01*
X143811909Y-103981047D01*
X143815608Y-103991607D01*
X143820006Y-104001695D01*
X143825105Y-104011310D01*
X143830903Y-104020454D01*
X143837401Y-104029125D01*
X143844599Y-104037324D01*
X143849786Y-104042527D01*
X143858099Y-104049816D01*
X143866919Y-104056389D01*
X143876246Y-104062244D01*
X143886079Y-104067383D01*
X143896419Y-104071804D01*
X143907265Y-104075508D01*
X143918618Y-104078496D01*
X143930478Y-104080766D01*
X143942844Y-104082320D01*
X143955717Y-104083156D01*
X143964580Y-104083316D01*
X143978057Y-104082944D01*
X143991010Y-104081830D01*
X144003439Y-104079973D01*
X144015344Y-104077374D01*
X144026726Y-104074031D01*
X144037584Y-104069946D01*
X144047918Y-104065118D01*
X144057728Y-104059548D01*
X144067015Y-104053234D01*
X144075777Y-104046178D01*
X144081328Y-104041062D01*
X144089141Y-104032881D01*
X144096186Y-104024186D01*
X144102462Y-104014975D01*
X144107970Y-104005250D01*
X144112709Y-103995008D01*
X144116679Y-103984252D01*
X144119882Y-103972981D01*
X144122315Y-103961194D01*
X144123980Y-103948892D01*
X144124877Y-103936075D01*
X144125048Y-103927244D01*
X144125048Y-103617545D01*
X143804113Y-103934083D01*
X143628331Y-103934083D01*
X143628258Y-103927244D01*
X143628258Y-103816114D01*
X143804113Y-103816114D01*
X144125048Y-103500796D01*
X144124146Y-103488129D01*
X144122540Y-103475955D01*
X144120231Y-103464275D01*
X144117217Y-103453089D01*
X144113499Y-103442396D01*
X144109076Y-103432198D01*
X144103950Y-103422493D01*
X144098120Y-103413281D01*
X144091585Y-103404564D01*
X144084347Y-103396340D01*
X144079130Y-103391131D01*
X144070860Y-103383842D01*
X144062080Y-103377270D01*
X144052788Y-103371414D01*
X144042986Y-103366276D01*
X144032673Y-103361854D01*
X144021848Y-103358150D01*
X144010513Y-103355163D01*
X143998667Y-103352892D01*
X143986310Y-103351339D01*
X143973442Y-103350502D01*
X143964580Y-103350343D01*
X143951101Y-103350714D01*
X143938142Y-103351828D01*
X143925702Y-103353685D01*
X143913781Y-103356285D01*
X143902380Y-103359627D01*
X143891499Y-103363712D01*
X143881137Y-103368540D01*
X143871295Y-103374111D01*
X143861972Y-103380424D01*
X143853168Y-103387480D01*
X143847588Y-103392597D01*
X143839818Y-103400777D01*
X143832813Y-103409473D01*
X143826572Y-103418683D01*
X143821095Y-103428409D01*
X143816382Y-103438650D01*
X143812434Y-103449406D01*
X143809250Y-103460678D01*
X143806830Y-103472464D01*
X143805174Y-103484766D01*
X143804282Y-103497583D01*
X143804113Y-103506414D01*
X143804113Y-103816114D01*
X143628258Y-103816114D01*
X143628258Y-103506414D01*
X143628468Y-103493343D01*
X143629099Y-103480508D01*
X143630151Y-103467909D01*
X143631624Y-103455547D01*
X143633517Y-103443420D01*
X143635831Y-103431530D01*
X143638566Y-103419875D01*
X143641722Y-103408457D01*
X143645298Y-103397275D01*
X143649295Y-103386330D01*
X143652193Y-103379163D01*
X143656853Y-103368635D01*
X143661856Y-103358389D01*
X143667203Y-103348428D01*
X143672893Y-103338749D01*
X143678927Y-103329354D01*
X143685304Y-103320242D01*
X143692024Y-103311413D01*
X143699088Y-103302868D01*
X143706496Y-103294606D01*
X143714246Y-103286628D01*
X143719605Y-103281466D01*
X143727967Y-103273986D01*
X143736660Y-103266840D01*
X143745684Y-103260030D01*
X143755039Y-103253554D01*
X143764724Y-103247413D01*
X143774739Y-103241607D01*
X143785086Y-103236136D01*
X143795762Y-103231000D01*
X143806770Y-103226198D01*
X143818108Y-103221732D01*
X143825850Y-103218940D01*
X143837736Y-103215012D01*
X143849853Y-103211470D01*
X143862202Y-103208314D01*
X143874783Y-103205545D01*
X143887595Y-103203162D01*
X143900640Y-103201166D01*
X143913916Y-103199556D01*
X143927425Y-103198332D01*
X143941165Y-103197495D01*
X143955137Y-103197044D01*
X143964580Y-103196958D01*
X143978704Y-103197152D01*
G37*
G36*
X140365706Y-109957477D02*
G01*
X140517747Y-110463792D01*
X140522237Y-110478160D01*
X140526412Y-110493054D01*
X140530272Y-110508474D01*
X140533815Y-110524420D01*
X140535699Y-110533768D01*
X140538852Y-110550119D01*
X140541900Y-110566155D01*
X140544842Y-110581876D01*
X140547680Y-110597280D01*
X140549254Y-110605942D01*
X140551637Y-110620505D01*
X140553839Y-110635068D01*
X140555862Y-110649631D01*
X140557703Y-110664193D01*
X140559365Y-110678756D01*
X140559879Y-110683611D01*
X140576732Y-110683611D01*
X140578445Y-110669048D01*
X140580286Y-110654485D01*
X140582257Y-110639922D01*
X140584356Y-110625359D01*
X140586585Y-110610796D01*
X140587356Y-110605942D01*
X140589420Y-110590717D01*
X140591764Y-110575177D01*
X140594389Y-110559321D01*
X140597294Y-110543150D01*
X140599080Y-110533768D01*
X140602443Y-110517521D01*
X140606122Y-110501801D01*
X140610117Y-110486607D01*
X140614427Y-110471938D01*
X140617032Y-110463792D01*
X140758448Y-109957477D01*
X141081215Y-109957477D01*
X141081215Y-111505000D01*
X140838682Y-111505000D01*
X140838682Y-110501528D01*
X140838807Y-110483304D01*
X140839088Y-110468532D01*
X140839528Y-110453589D01*
X140840130Y-110438473D01*
X140840891Y-110423186D01*
X140841813Y-110407727D01*
X140842894Y-110392097D01*
X140843811Y-110380261D01*
X140845116Y-110364599D01*
X140846467Y-110349303D01*
X140847864Y-110334374D01*
X140849674Y-110316228D01*
X140851556Y-110298654D01*
X140853510Y-110281652D01*
X140855535Y-110265223D01*
X140857126Y-110249721D01*
X140858786Y-110234357D01*
X140860515Y-110219130D01*
X140862312Y-110204040D01*
X140864179Y-110189088D01*
X140866114Y-110174273D01*
X140868117Y-110159595D01*
X140870189Y-110145055D01*
X140844910Y-110145055D01*
X140840912Y-110162563D01*
X140836932Y-110180053D01*
X140832969Y-110197525D01*
X140829025Y-110214979D01*
X140825098Y-110232416D01*
X140821190Y-110249834D01*
X140819631Y-110256796D01*
X140816230Y-110272360D01*
X140812669Y-110288138D01*
X140808946Y-110304130D01*
X140805062Y-110320338D01*
X140801018Y-110336760D01*
X140796812Y-110353396D01*
X140795085Y-110360111D01*
X140790866Y-110376673D01*
X140786684Y-110392698D01*
X140782537Y-110408186D01*
X140778427Y-110423137D01*
X140774351Y-110437552D01*
X140769509Y-110454142D01*
X140768706Y-110456831D01*
X140665392Y-110837484D01*
X140462792Y-110837484D01*
X140353249Y-110456831D01*
X140348591Y-110441901D01*
X140344004Y-110426649D01*
X140339489Y-110411075D01*
X140335046Y-110395179D01*
X140330674Y-110378961D01*
X140326373Y-110362421D01*
X140324673Y-110355715D01*
X140320508Y-110339046D01*
X140316487Y-110322699D01*
X140312609Y-110306674D01*
X140308873Y-110290971D01*
X140305281Y-110275590D01*
X140301832Y-110260532D01*
X140300493Y-110254598D01*
X140296539Y-110237241D01*
X140292693Y-110219973D01*
X140288955Y-110202794D01*
X140285323Y-110185705D01*
X140281799Y-110168705D01*
X140278382Y-110151794D01*
X140277046Y-110145055D01*
X140253965Y-110145055D01*
X140256071Y-110159595D01*
X140258178Y-110174273D01*
X140260284Y-110189088D01*
X140262391Y-110204040D01*
X140264498Y-110219130D01*
X140266604Y-110234357D01*
X140268711Y-110249721D01*
X140270817Y-110265223D01*
X140272209Y-110281652D01*
X140273637Y-110298654D01*
X140275100Y-110316228D01*
X140276599Y-110334374D01*
X140277824Y-110349303D01*
X140279072Y-110364599D01*
X140280343Y-110380261D01*
X140281545Y-110396021D01*
X140282587Y-110411608D01*
X140283468Y-110427024D01*
X140284190Y-110442268D01*
X140284751Y-110457341D01*
X140285151Y-110472242D01*
X140285392Y-110486971D01*
X140285472Y-110501528D01*
X140285472Y-111505000D01*
X140045137Y-111505000D01*
X140045137Y-109957477D01*
X140365706Y-109957477D01*
G37*
G36*
X141820905Y-111528447D02*
G01*
X141792806Y-111527960D01*
X141765481Y-111526501D01*
X141738928Y-111524068D01*
X141713148Y-111520662D01*
X141688140Y-111516282D01*
X141663906Y-111510930D01*
X141640444Y-111504605D01*
X141617756Y-111497306D01*
X141595840Y-111489034D01*
X141574696Y-111479789D01*
X141554326Y-111469571D01*
X141534728Y-111458380D01*
X141515903Y-111446215D01*
X141497851Y-111433078D01*
X141480572Y-111418967D01*
X141464066Y-111403883D01*
X141448494Y-111387896D01*
X141433927Y-111371168D01*
X141420364Y-111353698D01*
X141407806Y-111335487D01*
X141396253Y-111316535D01*
X141385704Y-111296842D01*
X141376160Y-111276407D01*
X141367620Y-111255231D01*
X141360086Y-111233313D01*
X141353555Y-111210654D01*
X141348030Y-111187254D01*
X141343509Y-111163113D01*
X141339993Y-111138230D01*
X141337481Y-111112606D01*
X141335974Y-111086241D01*
X141335472Y-111059134D01*
X141335472Y-109957477D01*
X141599254Y-109957477D01*
X141599254Y-111058768D01*
X141599753Y-111079353D01*
X141601251Y-111099069D01*
X141603746Y-111117916D01*
X141607240Y-111135893D01*
X141611732Y-111153001D01*
X141617222Y-111169240D01*
X141623710Y-111184609D01*
X141631197Y-111199108D01*
X141639681Y-111212738D01*
X141649164Y-111225499D01*
X141656041Y-111233524D01*
X141667201Y-111244654D01*
X141679250Y-111254690D01*
X141692188Y-111263631D01*
X141706015Y-111271477D01*
X141720730Y-111278228D01*
X141736335Y-111283884D01*
X141752827Y-111288446D01*
X141770209Y-111291913D01*
X141788479Y-111294285D01*
X141807638Y-111295562D01*
X141820905Y-111295806D01*
X141840270Y-111295258D01*
X141858798Y-111293616D01*
X141876488Y-111290879D01*
X141893342Y-111287047D01*
X141909358Y-111282121D01*
X141924537Y-111276099D01*
X141938879Y-111268983D01*
X141952384Y-111260772D01*
X141965051Y-111251466D01*
X141976881Y-111241066D01*
X141984303Y-111233524D01*
X141994713Y-111221342D01*
X142004100Y-111208292D01*
X142012462Y-111194372D01*
X142019800Y-111179582D01*
X142026115Y-111163923D01*
X142031405Y-111147395D01*
X142035672Y-111129997D01*
X142038914Y-111111730D01*
X142041133Y-111092594D01*
X142042327Y-111072588D01*
X142042555Y-111058768D01*
X142042555Y-109957477D01*
X142306337Y-109957477D01*
X142306337Y-111059134D01*
X142305838Y-111086241D01*
X142304339Y-111112606D01*
X142301842Y-111138230D01*
X142298346Y-111163113D01*
X142293851Y-111187254D01*
X142288357Y-111210654D01*
X142281864Y-111233313D01*
X142274372Y-111255231D01*
X142265881Y-111276407D01*
X142256391Y-111296842D01*
X142245903Y-111316535D01*
X142234415Y-111335487D01*
X142221929Y-111353698D01*
X142208444Y-111371168D01*
X142193959Y-111387896D01*
X142178476Y-111403883D01*
X142162139Y-111418967D01*
X142145000Y-111433078D01*
X142127059Y-111446215D01*
X142108317Y-111458380D01*
X142088774Y-111469571D01*
X142068429Y-111479789D01*
X142047283Y-111489034D01*
X142025336Y-111497306D01*
X142002587Y-111504605D01*
X141979037Y-111510930D01*
X141954685Y-111516282D01*
X141929532Y-111520662D01*
X141903577Y-111524068D01*
X141876821Y-111526501D01*
X141849263Y-111527960D01*
X141820905Y-111528447D01*
G37*
G36*
X143124000Y-109957773D02*
G01*
X143144832Y-109958662D01*
X143165310Y-109960143D01*
X143185434Y-109962217D01*
X143205204Y-109964883D01*
X143224619Y-109968141D01*
X143243681Y-109971993D01*
X143262388Y-109976436D01*
X143280741Y-109981472D01*
X143298739Y-109987101D01*
X143310542Y-109991182D01*
X143327942Y-109997740D01*
X143344833Y-110004775D01*
X143361215Y-110012286D01*
X143377088Y-110020274D01*
X143392453Y-110028738D01*
X143407309Y-110037679D01*
X143421656Y-110047097D01*
X143435495Y-110056991D01*
X143448825Y-110067361D01*
X143461646Y-110078208D01*
X143469910Y-110085704D01*
X143481945Y-110097339D01*
X143493459Y-110109438D01*
X143504451Y-110122000D01*
X143514921Y-110135026D01*
X143524870Y-110148516D01*
X143534297Y-110162469D01*
X143543203Y-110176886D01*
X143551587Y-110191767D01*
X143559449Y-110207111D01*
X143566789Y-110222919D01*
X143571393Y-110233715D01*
X143577809Y-110250170D01*
X143583595Y-110266972D01*
X143588749Y-110284121D01*
X143593272Y-110301619D01*
X143597164Y-110319464D01*
X143600425Y-110337657D01*
X143603054Y-110356198D01*
X143605053Y-110375086D01*
X143606420Y-110394323D01*
X143607157Y-110413907D01*
X143607297Y-110427156D01*
X143607003Y-110446537D01*
X143606123Y-110465573D01*
X143604656Y-110484261D01*
X143602603Y-110502604D01*
X143599962Y-110520600D01*
X143596735Y-110538250D01*
X143592921Y-110555554D01*
X143588521Y-110572511D01*
X143583533Y-110589122D01*
X143577959Y-110605386D01*
X143571798Y-110621305D01*
X143565050Y-110636876D01*
X143557716Y-110652102D01*
X143549795Y-110666981D01*
X143541287Y-110681514D01*
X143532192Y-110695701D01*
X143522622Y-110709428D01*
X143512597Y-110722674D01*
X143502117Y-110735440D01*
X143491182Y-110747725D01*
X143479792Y-110759528D01*
X143467947Y-110770851D01*
X143455646Y-110781693D01*
X143442891Y-110792055D01*
X143429680Y-110801935D01*
X143416015Y-110811335D01*
X143401894Y-110820253D01*
X143387318Y-110828691D01*
X143372287Y-110836648D01*
X143356801Y-110844124D01*
X143340860Y-110851119D01*
X143324464Y-110857634D01*
X143628546Y-111505000D01*
X143339118Y-111505000D01*
X143065078Y-110895369D01*
X142868706Y-110895369D01*
X142868706Y-111505000D01*
X142604924Y-111505000D01*
X142604924Y-110190118D01*
X142868706Y-110190118D01*
X142868706Y-110684344D01*
X143102813Y-110684344D01*
X143123019Y-110683757D01*
X143142419Y-110681999D01*
X143161015Y-110679069D01*
X143178805Y-110674967D01*
X143195791Y-110669693D01*
X143211971Y-110663246D01*
X143227347Y-110655628D01*
X143241917Y-110646837D01*
X143255683Y-110636874D01*
X143268643Y-110625740D01*
X143276836Y-110617665D01*
X143288360Y-110604767D01*
X143298749Y-110591077D01*
X143308006Y-110576594D01*
X143316129Y-110561320D01*
X143323118Y-110545253D01*
X143328974Y-110528394D01*
X143333697Y-110510743D01*
X143337286Y-110492300D01*
X143339742Y-110473065D01*
X143341064Y-110453037D01*
X143341316Y-110439246D01*
X143340740Y-110418353D01*
X143339011Y-110398266D01*
X143336129Y-110378984D01*
X143332094Y-110360506D01*
X143326907Y-110342834D01*
X143320567Y-110325966D01*
X143313074Y-110309904D01*
X143304428Y-110294646D01*
X143294630Y-110280194D01*
X143283678Y-110266547D01*
X143275737Y-110257896D01*
X143263136Y-110245783D01*
X143249788Y-110234862D01*
X143235693Y-110225132D01*
X143220851Y-110216594D01*
X143205262Y-110209247D01*
X143188926Y-110203091D01*
X143171843Y-110198127D01*
X143154013Y-110194354D01*
X143135435Y-110191773D01*
X143116111Y-110190383D01*
X143102813Y-110190118D01*
X142868706Y-110190118D01*
X142604924Y-110190118D01*
X142604924Y-109957477D01*
X143102813Y-109957477D01*
X143124000Y-109957773D01*
G37*
G36*
X143886833Y-111505000D02*
G01*
X143886833Y-109957477D01*
X144821794Y-109957477D01*
X144821794Y-110190118D01*
X144150615Y-110190118D01*
X144150615Y-110592386D01*
X144747789Y-110592386D01*
X144747789Y-110825027D01*
X144150615Y-110825027D01*
X144150615Y-111272358D01*
X144821794Y-111272358D01*
X144821794Y-111505000D01*
X143886833Y-111505000D01*
G37*
G36*
X145023295Y-111505000D02*
G01*
X145449743Y-110715118D01*
X145050772Y-109957477D01*
X145344230Y-109957477D01*
X145538403Y-110345090D01*
X145545425Y-110358148D01*
X145552592Y-110372471D01*
X145558843Y-110386152D01*
X145564781Y-110400778D01*
X145570627Y-110415597D01*
X145576810Y-110430162D01*
X145582733Y-110442909D01*
X145587015Y-110457294D01*
X145591686Y-110471900D01*
X145595189Y-110482110D01*
X145605814Y-110482110D01*
X145610935Y-110467520D01*
X145615769Y-110453515D01*
X145618637Y-110445108D01*
X145625059Y-110430888D01*
X145631128Y-110416043D01*
X145636222Y-110402609D01*
X145642015Y-110388335D01*
X145648677Y-110373539D01*
X145655329Y-110359949D01*
X145660769Y-110349487D01*
X145858972Y-109957477D01*
X146146201Y-109957477D01*
X145745032Y-110710722D01*
X146171480Y-111505000D01*
X145875824Y-111505000D01*
X145658570Y-111080017D01*
X145650985Y-111065385D01*
X145643984Y-111051349D01*
X145637567Y-111037908D01*
X145630367Y-111021944D01*
X145624079Y-111006910D01*
X145618704Y-110992807D01*
X145614240Y-110979633D01*
X145608707Y-110965501D01*
X145603263Y-110951169D01*
X145599586Y-110941165D01*
X145588961Y-110941165D01*
X145583840Y-110955821D01*
X145579006Y-110970529D01*
X145576138Y-110979633D01*
X145569664Y-110993732D01*
X145564033Y-111007292D01*
X145558187Y-111022498D01*
X145552397Y-111037094D01*
X145546180Y-111050701D01*
X145538956Y-111064903D01*
X145531808Y-111077819D01*
X145310524Y-111505000D01*
X145023295Y-111505000D01*
G37*
G36*
X138110086Y-104979424D02*
G01*
X138110086Y-105157966D01*
X138098432Y-105158885D01*
X138087286Y-105160542D01*
X138076645Y-105162938D01*
X138066512Y-105166072D01*
X138056885Y-105169944D01*
X138047764Y-105174555D01*
X138039150Y-105179905D01*
X138031043Y-105185993D01*
X138023442Y-105192819D01*
X138016348Y-105200384D01*
X138011900Y-105205838D01*
X138005746Y-105214549D01*
X138000197Y-105223832D01*
X137995253Y-105233686D01*
X137990915Y-105244111D01*
X137987182Y-105255107D01*
X137984054Y-105266674D01*
X137981532Y-105278812D01*
X137979615Y-105291521D01*
X137978303Y-105304801D01*
X137977597Y-105318652D01*
X137977462Y-105328203D01*
X137977778Y-105342671D01*
X137978724Y-105356491D01*
X137980302Y-105369662D01*
X137982511Y-105382185D01*
X137985351Y-105394059D01*
X137988822Y-105405286D01*
X137992925Y-105415864D01*
X137997658Y-105425794D01*
X138003023Y-105435075D01*
X138009018Y-105443708D01*
X138013366Y-105449103D01*
X138020356Y-105456655D01*
X138027771Y-105463463D01*
X138035612Y-105469529D01*
X138043877Y-105474852D01*
X138052568Y-105479432D01*
X138061683Y-105483270D01*
X138071224Y-105486365D01*
X138081189Y-105488717D01*
X138091580Y-105490326D01*
X138102395Y-105491192D01*
X138109842Y-105491357D01*
X138119705Y-105491078D01*
X138132482Y-105489838D01*
X138144831Y-105487606D01*
X138156754Y-105484381D01*
X138168248Y-105480164D01*
X138179316Y-105474955D01*
X138189955Y-105468753D01*
X138200168Y-105461559D01*
X138202654Y-105459606D01*
X138212176Y-105451321D01*
X138220957Y-105442219D01*
X138228998Y-105432300D01*
X138236299Y-105421565D01*
X138241288Y-105412978D01*
X138245861Y-105403931D01*
X138250018Y-105394425D01*
X138253758Y-105384459D01*
X138257082Y-105374034D01*
X138258097Y-105370457D01*
X138289605Y-105257861D01*
X138294288Y-105242108D01*
X138299302Y-105226842D01*
X138304645Y-105212066D01*
X138310319Y-105197778D01*
X138316323Y-105183978D01*
X138322657Y-105170667D01*
X138329322Y-105157844D01*
X138336316Y-105145510D01*
X138343640Y-105133664D01*
X138351295Y-105122307D01*
X138359280Y-105111438D01*
X138367594Y-105101057D01*
X138376239Y-105091166D01*
X138385214Y-105081762D01*
X138394519Y-105072847D01*
X138404154Y-105064421D01*
X138414103Y-105056495D01*
X138424350Y-105049079D01*
X138434895Y-105042176D01*
X138445737Y-105035784D01*
X138456877Y-105029903D01*
X138468314Y-105024533D01*
X138480049Y-105019675D01*
X138492082Y-105015328D01*
X138504412Y-105011493D01*
X138517040Y-105008169D01*
X138529966Y-105005356D01*
X138543190Y-105003055D01*
X138556711Y-105001265D01*
X138570530Y-104999987D01*
X138584646Y-104999220D01*
X138599060Y-104998964D01*
X138611089Y-104999168D01*
X138622903Y-104999780D01*
X138634502Y-105000799D01*
X138645886Y-105002227D01*
X138657056Y-105004062D01*
X138668011Y-105006306D01*
X138678752Y-105008957D01*
X138689277Y-105012016D01*
X138699589Y-105015483D01*
X138709685Y-105019357D01*
X138716297Y-105022167D01*
X138726010Y-105026726D01*
X138735456Y-105031612D01*
X138744637Y-105036824D01*
X138753551Y-105042363D01*
X138762200Y-105048228D01*
X138770582Y-105054418D01*
X138778697Y-105060936D01*
X138786547Y-105067779D01*
X138794131Y-105074949D01*
X138801448Y-105082445D01*
X138806178Y-105087624D01*
X138813039Y-105095706D01*
X138819608Y-105104105D01*
X138825885Y-105112822D01*
X138831869Y-105121856D01*
X138837562Y-105131209D01*
X138842963Y-105140879D01*
X138848072Y-105150866D01*
X138852890Y-105161172D01*
X138857415Y-105171795D01*
X138861648Y-105182736D01*
X138864308Y-105190206D01*
X138868062Y-105201701D01*
X138871446Y-105213470D01*
X138874462Y-105225514D01*
X138877108Y-105237833D01*
X138879385Y-105250427D01*
X138881292Y-105263296D01*
X138882831Y-105276439D01*
X138884000Y-105289857D01*
X138884800Y-105303550D01*
X138885231Y-105317518D01*
X138885313Y-105326982D01*
X138885143Y-105340291D01*
X138884634Y-105353380D01*
X138883787Y-105366251D01*
X138882599Y-105378903D01*
X138881073Y-105391336D01*
X138879208Y-105403549D01*
X138877003Y-105415544D01*
X138874459Y-105427320D01*
X138871576Y-105438877D01*
X138868354Y-105450215D01*
X138866018Y-105457652D01*
X138862247Y-105468586D01*
X138858172Y-105479225D01*
X138853792Y-105489566D01*
X138849108Y-105499612D01*
X138844118Y-105509362D01*
X138838824Y-105518815D01*
X138833224Y-105527972D01*
X138827320Y-105536832D01*
X138821112Y-105545397D01*
X138814598Y-105553665D01*
X138810086Y-105559013D01*
X138803123Y-105566779D01*
X138795881Y-105574231D01*
X138788360Y-105581370D01*
X138780559Y-105588196D01*
X138772480Y-105594708D01*
X138764122Y-105600907D01*
X138755484Y-105606793D01*
X138746568Y-105612365D01*
X138737372Y-105617623D01*
X138727897Y-105622568D01*
X138721426Y-105625691D01*
X138711518Y-105630125D01*
X138701396Y-105634178D01*
X138691059Y-105637848D01*
X138680508Y-105641136D01*
X138669741Y-105644041D01*
X138658760Y-105646565D01*
X138647565Y-105648707D01*
X138636155Y-105650466D01*
X138624530Y-105651844D01*
X138612690Y-105652839D01*
X138604678Y-105653290D01*
X138604678Y-105474505D01*
X138615533Y-105473666D01*
X138625933Y-105472158D01*
X138635877Y-105469980D01*
X138645367Y-105467132D01*
X138657312Y-105462293D01*
X138668448Y-105456263D01*
X138678775Y-105449042D01*
X138688293Y-105440631D01*
X138697002Y-105431030D01*
X138702938Y-105423146D01*
X138708290Y-105414789D01*
X138713059Y-105405961D01*
X138717243Y-105396660D01*
X138720844Y-105386887D01*
X138723861Y-105376642D01*
X138726294Y-105365924D01*
X138728143Y-105354734D01*
X138729408Y-105343072D01*
X138730089Y-105330938D01*
X138730219Y-105322586D01*
X138729914Y-105309929D01*
X138728999Y-105297787D01*
X138727475Y-105286161D01*
X138725341Y-105275050D01*
X138722598Y-105264454D01*
X138719245Y-105254373D01*
X138715282Y-105244808D01*
X138710710Y-105235757D01*
X138705528Y-105227222D01*
X138699736Y-105219202D01*
X138695536Y-105214142D01*
X138686610Y-105204926D01*
X138677050Y-105196938D01*
X138666857Y-105190179D01*
X138656030Y-105184650D01*
X138644570Y-105180349D01*
X138632476Y-105177276D01*
X138619748Y-105175433D01*
X138609787Y-105174857D01*
X138606387Y-105174819D01*
X138594062Y-105175292D01*
X138582242Y-105176712D01*
X138570927Y-105179078D01*
X138560119Y-105182390D01*
X138549816Y-105186649D01*
X138540018Y-105191855D01*
X138530727Y-105198007D01*
X138521941Y-105205105D01*
X138513660Y-105213150D01*
X138505885Y-105222141D01*
X138498616Y-105232078D01*
X138491853Y-105242963D01*
X138485595Y-105254793D01*
X138479843Y-105267570D01*
X138474597Y-105281293D01*
X138469856Y-105295963D01*
X138435173Y-105414177D01*
X138430688Y-105429427D01*
X138425842Y-105444219D01*
X138420636Y-105458553D01*
X138415069Y-105472429D01*
X138409141Y-105485847D01*
X138402853Y-105498807D01*
X138396204Y-105511309D01*
X138389195Y-105523353D01*
X138381824Y-105534940D01*
X138374093Y-105546068D01*
X138366002Y-105556738D01*
X138357550Y-105566951D01*
X138348737Y-105576705D01*
X138339564Y-105586002D01*
X138330030Y-105594840D01*
X138320135Y-105603221D01*
X138309902Y-105611147D01*
X138299355Y-105618562D01*
X138288493Y-105625466D01*
X138277316Y-105631858D01*
X138265824Y-105637739D01*
X138254018Y-105643109D01*
X138241896Y-105647967D01*
X138229460Y-105652314D01*
X138216709Y-105656149D01*
X138203642Y-105659473D01*
X138190262Y-105662286D01*
X138176566Y-105664587D01*
X138162555Y-105666377D01*
X138148230Y-105667655D01*
X138133590Y-105668422D01*
X138118635Y-105668678D01*
X138106368Y-105668461D01*
X138094300Y-105667811D01*
X138082429Y-105666726D01*
X138070755Y-105665209D01*
X138059279Y-105663257D01*
X138048001Y-105660873D01*
X138036920Y-105658054D01*
X138026036Y-105654802D01*
X138015350Y-105651116D01*
X138004861Y-105646996D01*
X137997979Y-105644009D01*
X137987860Y-105639247D01*
X137978020Y-105634120D01*
X137968460Y-105628628D01*
X137959178Y-105622772D01*
X137950176Y-105616550D01*
X137941453Y-105609963D01*
X137933008Y-105603012D01*
X137924843Y-105595695D01*
X137916957Y-105588013D01*
X137909350Y-105579967D01*
X137904434Y-105574400D01*
X137897302Y-105565813D01*
X137890472Y-105556903D01*
X137883941Y-105547672D01*
X137877712Y-105538119D01*
X137871783Y-105528243D01*
X137866154Y-105518046D01*
X137860826Y-105507526D01*
X137855799Y-105496685D01*
X137851072Y-105485522D01*
X137846645Y-105474036D01*
X137843861Y-105466200D01*
X137840020Y-105454202D01*
X137836557Y-105441929D01*
X137833471Y-105429381D01*
X137830764Y-105416558D01*
X137828434Y-105403461D01*
X137826482Y-105390088D01*
X137824908Y-105376441D01*
X137823711Y-105362519D01*
X137822893Y-105348323D01*
X137822452Y-105333851D01*
X137822368Y-105324051D01*
X137822550Y-105309925D01*
X137823098Y-105296030D01*
X137824010Y-105282367D01*
X137825287Y-105268936D01*
X137826930Y-105255737D01*
X137828937Y-105242770D01*
X137831309Y-105230034D01*
X137834046Y-105217531D01*
X137837148Y-105205259D01*
X137840615Y-105193219D01*
X137843129Y-105185321D01*
X137847165Y-105173752D01*
X137851489Y-105162492D01*
X137856101Y-105151541D01*
X137861000Y-105140900D01*
X137866187Y-105130567D01*
X137871662Y-105120543D01*
X137877424Y-105110829D01*
X137883474Y-105101424D01*
X137889812Y-105092328D01*
X137896437Y-105083541D01*
X137901014Y-105077854D01*
X137908156Y-105069600D01*
X137915569Y-105061689D01*
X137923251Y-105054121D01*
X137931205Y-105046897D01*
X137939429Y-105040016D01*
X137947923Y-105033478D01*
X137956688Y-105027285D01*
X137965723Y-105021434D01*
X137975029Y-105015927D01*
X137984605Y-105010764D01*
X137991140Y-105007512D01*
X138001191Y-105002949D01*
X138011470Y-104998785D01*
X138021977Y-104995021D01*
X138032711Y-104991656D01*
X138043672Y-104988690D01*
X138054861Y-104986123D01*
X138066278Y-104983956D01*
X138077922Y-104982187D01*
X138089794Y-104980819D01*
X138101893Y-104979849D01*
X138110086Y-104979424D01*
G37*
G36*
X137838000Y-105862118D02*
G01*
X138869681Y-105862118D01*
X138869681Y-106485426D01*
X138714587Y-106485426D01*
X138714587Y-106037973D01*
X138446408Y-106037973D01*
X138446408Y-106436089D01*
X138291314Y-106436089D01*
X138291314Y-106037973D01*
X137993094Y-106037973D01*
X137993094Y-106485426D01*
X137838000Y-106485426D01*
X137838000Y-105862118D01*
G37*
G36*
X138869681Y-106895510D02*
G01*
X138009946Y-106895510D01*
X138009946Y-107337345D01*
X137838000Y-107337345D01*
X137838000Y-106719655D01*
X138869681Y-106719655D01*
X138869681Y-106895510D01*
G37*
G36*
X138113274Y-109766487D02*
G01*
X138121316Y-109778824D01*
X138130839Y-109793358D01*
X138139771Y-109806909D01*
X138148112Y-109819476D01*
X138157343Y-109833258D01*
X138161639Y-109839617D01*
X138170080Y-109851982D01*
X138178366Y-109864347D01*
X138186498Y-109876711D01*
X138194475Y-109889076D01*
X138203586Y-109903502D01*
X138204870Y-109905563D01*
X138214497Y-109920456D01*
X138224143Y-109935324D01*
X138233809Y-109950166D01*
X138243493Y-109964982D01*
X138253197Y-109979773D01*
X138262921Y-109994538D01*
X138272663Y-110009277D01*
X138282425Y-110023990D01*
X138292206Y-110038677D01*
X138302007Y-110053339D01*
X138308551Y-110063099D01*
X138318365Y-110077731D01*
X138328159Y-110092363D01*
X138337934Y-110106994D01*
X138347689Y-110121626D01*
X138357426Y-110136258D01*
X138367143Y-110150889D01*
X138376840Y-110165521D01*
X138386518Y-110180153D01*
X138396177Y-110194784D01*
X138405817Y-110209416D01*
X138412233Y-110219170D01*
X138415530Y-110221735D01*
X138422857Y-110222101D01*
X138437688Y-110222101D01*
X138452504Y-110222101D01*
X138467306Y-110222101D01*
X138482094Y-110222101D01*
X138496867Y-110222101D01*
X138511626Y-110222101D01*
X138526371Y-110222101D01*
X138541101Y-110222101D01*
X138555817Y-110222101D01*
X138570519Y-110222101D01*
X138585207Y-110222101D01*
X138599880Y-110222101D01*
X138614539Y-110222101D01*
X138636500Y-110222101D01*
X138658429Y-110222101D01*
X138673309Y-110222101D01*
X138688179Y-110222101D01*
X138703041Y-110222101D01*
X138717895Y-110222101D01*
X138732740Y-110222101D01*
X138747576Y-110222101D01*
X138762404Y-110222101D01*
X138777223Y-110222101D01*
X138792034Y-110222101D01*
X138806836Y-110222101D01*
X138821629Y-110222101D01*
X138836414Y-110222101D01*
X138851190Y-110222101D01*
X138865958Y-110222101D01*
X138880717Y-110222101D01*
X138895467Y-110222101D01*
X138910209Y-110222101D01*
X138924942Y-110222101D01*
X138939667Y-110222101D01*
X138954383Y-110222101D01*
X138969091Y-110222101D01*
X138983789Y-110222101D01*
X138998480Y-110222101D01*
X139013162Y-110222101D01*
X139027835Y-110222101D01*
X139042499Y-110222101D01*
X139057155Y-110222101D01*
X139079123Y-110222101D01*
X139101072Y-110222101D01*
X139123001Y-110222101D01*
X139130307Y-110222101D01*
X139145146Y-110222101D01*
X139159988Y-110222101D01*
X139174833Y-110222101D01*
X139189680Y-110222101D01*
X139204531Y-110222101D01*
X139219385Y-110222101D01*
X139234241Y-110222101D01*
X139249100Y-110222101D01*
X139263962Y-110222101D01*
X139278827Y-110222101D01*
X139293695Y-110222101D01*
X139308566Y-110222101D01*
X139323439Y-110222101D01*
X139338316Y-110222101D01*
X139353195Y-110222101D01*
X139368077Y-110222101D01*
X139376137Y-110222101D01*
X139391374Y-110222101D01*
X139406912Y-110222101D01*
X139400527Y-110236132D01*
X139393958Y-110250808D01*
X139387610Y-110265348D01*
X139381413Y-110280174D01*
X139380900Y-110281452D01*
X139375358Y-110295349D01*
X139369817Y-110309332D01*
X139364780Y-110322119D01*
X139357760Y-110338739D01*
X139350715Y-110355354D01*
X139343644Y-110371961D01*
X139336547Y-110388562D01*
X139329424Y-110405157D01*
X139322276Y-110421746D01*
X139315102Y-110438328D01*
X139307902Y-110454903D01*
X139300676Y-110471472D01*
X139293425Y-110488035D01*
X139288576Y-110499073D01*
X139281703Y-110515562D01*
X139274824Y-110532058D01*
X139267939Y-110548561D01*
X139261047Y-110565070D01*
X139254149Y-110581585D01*
X139247244Y-110598107D01*
X139240333Y-110614635D01*
X139233415Y-110631170D01*
X139226491Y-110647711D01*
X139219561Y-110664259D01*
X139214937Y-110675294D01*
X139207979Y-110691849D01*
X139200983Y-110708404D01*
X139193949Y-110724959D01*
X139186875Y-110741514D01*
X139179764Y-110758069D01*
X139172613Y-110774625D01*
X139165424Y-110791180D01*
X139158196Y-110807735D01*
X139150930Y-110824290D01*
X139143624Y-110840845D01*
X139138733Y-110851882D01*
X139131864Y-110868306D01*
X139124994Y-110884743D01*
X139118125Y-110901193D01*
X139111256Y-110917655D01*
X139104386Y-110934131D01*
X139097517Y-110950620D01*
X139090648Y-110967121D01*
X139083778Y-110983635D01*
X139076909Y-111000162D01*
X139070040Y-111016703D01*
X139065460Y-111027736D01*
X139057656Y-111046617D01*
X139049768Y-111065479D01*
X139041796Y-111084321D01*
X139033741Y-111103144D01*
X139025602Y-111121948D01*
X139017379Y-111140733D01*
X139009073Y-111159498D01*
X139000682Y-111178243D01*
X138992208Y-111196970D01*
X138983651Y-111215677D01*
X138977899Y-111228138D01*
X138969234Y-111246813D01*
X138960550Y-111265468D01*
X138951846Y-111284104D01*
X138943123Y-111302721D01*
X138934381Y-111321319D01*
X138925619Y-111339897D01*
X138916838Y-111358456D01*
X138908038Y-111376996D01*
X138899218Y-111395516D01*
X138890379Y-111414017D01*
X138884476Y-111426341D01*
X138876800Y-111441745D01*
X138869158Y-111457184D01*
X138861550Y-111472657D01*
X138853976Y-111488165D01*
X138846437Y-111503707D01*
X138838932Y-111519283D01*
X138831462Y-111534893D01*
X138824026Y-111550538D01*
X138816573Y-111566166D01*
X138809051Y-111581908D01*
X138801460Y-111597765D01*
X138793801Y-111613736D01*
X138786073Y-111629822D01*
X138778276Y-111646022D01*
X138770411Y-111662337D01*
X138762477Y-111678766D01*
X138759180Y-111682429D01*
X138750584Y-111694319D01*
X138750020Y-111694886D01*
X138735660Y-111690308D01*
X138720193Y-111685247D01*
X138705733Y-111680370D01*
X138690669Y-111675102D01*
X138676215Y-111670066D01*
X138661702Y-111665262D01*
X138647132Y-111660689D01*
X138639012Y-111658249D01*
X138624710Y-111653652D01*
X138610426Y-111649019D01*
X138596159Y-111644350D01*
X138581911Y-111639645D01*
X138567680Y-111634904D01*
X138553467Y-111630128D01*
X138547787Y-111628207D01*
X138533750Y-111623390D01*
X138519802Y-111618555D01*
X138505943Y-111613701D01*
X138489431Y-111607854D01*
X138473048Y-111601981D01*
X138459494Y-111597066D01*
X138453265Y-111597066D01*
X138446304Y-111597066D01*
X138430748Y-111600083D01*
X138415126Y-111603086D01*
X138399441Y-111606076D01*
X138383691Y-111609053D01*
X138367876Y-111612018D01*
X138351997Y-111614970D01*
X138336054Y-111617908D01*
X138320046Y-111620834D01*
X138303974Y-111623747D01*
X138287838Y-111626648D01*
X138277044Y-111628574D01*
X138260921Y-111631469D01*
X138244836Y-111634383D01*
X138228789Y-111637316D01*
X138212782Y-111640269D01*
X138196813Y-111643241D01*
X138180882Y-111646232D01*
X138164990Y-111649243D01*
X138149137Y-111652273D01*
X138133323Y-111655322D01*
X138117547Y-111658391D01*
X138107051Y-111660448D01*
X138092325Y-111662809D01*
X138077547Y-111665222D01*
X138062718Y-111667686D01*
X138047838Y-111670202D01*
X138032905Y-111672769D01*
X138027916Y-111673637D01*
X138012993Y-111676298D01*
X137998172Y-111679063D01*
X137983455Y-111681931D01*
X137968840Y-111684902D01*
X137954329Y-111687976D01*
X137949515Y-111689024D01*
X137932616Y-111692909D01*
X137915717Y-111696872D01*
X137898819Y-111700912D01*
X137881920Y-111705029D01*
X137865022Y-111709224D01*
X137859389Y-111710639D01*
X137842490Y-111714813D01*
X137825592Y-111719089D01*
X137808693Y-111723468D01*
X137791795Y-111727950D01*
X137774896Y-111732535D01*
X137769263Y-111734087D01*
X137751081Y-111738937D01*
X137732896Y-111743778D01*
X137714708Y-111748611D01*
X137696517Y-111753435D01*
X137678323Y-111758251D01*
X137660127Y-111763058D01*
X137641927Y-111767857D01*
X137623725Y-111772647D01*
X137605520Y-111777428D01*
X137587312Y-111782201D01*
X137569101Y-111786965D01*
X137550887Y-111791720D01*
X137532671Y-111796467D01*
X137514451Y-111801206D01*
X137496229Y-111805936D01*
X137478004Y-111810657D01*
X137459817Y-111815425D01*
X137441619Y-111820205D01*
X137423410Y-111824997D01*
X137405189Y-111829799D01*
X137386956Y-111834614D01*
X137368713Y-111839439D01*
X137350457Y-111844277D01*
X137332191Y-111849125D01*
X137313913Y-111853985D01*
X137295623Y-111858857D01*
X137277322Y-111863740D01*
X137259009Y-111868634D01*
X137240686Y-111873540D01*
X137222350Y-111878457D01*
X137204003Y-111883386D01*
X137185645Y-111888326D01*
X137180516Y-111889059D01*
X137165515Y-111890071D01*
X137153771Y-111890158D01*
X137159862Y-111876030D01*
X137166059Y-111861397D01*
X137171761Y-111847402D01*
X137172090Y-111846561D01*
X137177229Y-111832523D01*
X137181249Y-111819450D01*
X137187428Y-111802842D01*
X137193601Y-111786266D01*
X137199767Y-111769723D01*
X137205927Y-111753212D01*
X137212080Y-111736733D01*
X137218227Y-111720287D01*
X137224368Y-111703872D01*
X137230502Y-111687490D01*
X137236629Y-111671140D01*
X137242751Y-111654822D01*
X137246828Y-111643961D01*
X137253007Y-111627599D01*
X137259180Y-111611212D01*
X137265346Y-111594798D01*
X137271506Y-111578359D01*
X137277659Y-111561894D01*
X137283806Y-111545403D01*
X137289947Y-111528887D01*
X137296081Y-111512345D01*
X137302209Y-111495777D01*
X137308330Y-111479183D01*
X137312407Y-111468106D01*
X137318512Y-111452740D01*
X137324463Y-111437143D01*
X137330259Y-111421313D01*
X137335900Y-111405252D01*
X137341387Y-111388959D01*
X137343182Y-111383476D01*
X137348553Y-111367003D01*
X137353949Y-111350555D01*
X137359372Y-111334133D01*
X137364820Y-111317737D01*
X137370294Y-111301366D01*
X137372124Y-111295915D01*
X137373224Y-111291152D01*
X137372124Y-111286023D01*
X137365167Y-111266387D01*
X137358171Y-111246769D01*
X137351136Y-111227171D01*
X137344063Y-111207593D01*
X137336951Y-111188033D01*
X137329801Y-111168493D01*
X137322612Y-111148973D01*
X137315384Y-111129471D01*
X137308117Y-111109989D01*
X137300812Y-111090526D01*
X137295921Y-111077562D01*
X137288655Y-111058135D01*
X137281422Y-111038733D01*
X137274221Y-111019357D01*
X137267052Y-111000007D01*
X137259916Y-110980683D01*
X137259310Y-110979038D01*
X137493663Y-110979038D01*
X137495589Y-110980109D01*
X137500443Y-110994008D01*
X137505298Y-111007861D01*
X137511366Y-111025113D01*
X137517434Y-111042294D01*
X137523502Y-111059403D01*
X137529569Y-111076440D01*
X137534424Y-111090018D01*
X137540519Y-111106936D01*
X137546667Y-111123800D01*
X137552869Y-111140610D01*
X137559125Y-111157366D01*
X137565434Y-111174069D01*
X137571797Y-111190718D01*
X137574357Y-111197363D01*
X137580278Y-111211613D01*
X137585400Y-111225785D01*
X137589723Y-111239880D01*
X137593758Y-111256226D01*
X137596706Y-111272468D01*
X137598111Y-111288884D01*
X137597517Y-111305757D01*
X137595418Y-111320582D01*
X137591850Y-111335741D01*
X137586814Y-111351236D01*
X137581055Y-111366023D01*
X137575458Y-111380846D01*
X137570022Y-111395704D01*
X137564746Y-111410599D01*
X137559632Y-111425529D01*
X137554678Y-111440494D01*
X137552742Y-111446491D01*
X137547916Y-111461471D01*
X137543053Y-111476415D01*
X137538155Y-111491324D01*
X137533222Y-111506197D01*
X137528252Y-111521034D01*
X137523247Y-111535835D01*
X137521235Y-111541745D01*
X137516057Y-111556287D01*
X137511709Y-111567757D01*
X137507393Y-111574887D01*
X137509302Y-111574411D01*
X137525162Y-111570465D01*
X137540970Y-111566545D01*
X137556726Y-111562651D01*
X137572431Y-111558783D01*
X137577655Y-111557499D01*
X137593403Y-111553575D01*
X137609048Y-111549496D01*
X137624589Y-111545263D01*
X137640028Y-111540875D01*
X137655364Y-111536333D01*
X137660453Y-111534785D01*
X137677292Y-111530320D01*
X137694149Y-111525854D01*
X137711023Y-111521389D01*
X137727916Y-111516924D01*
X137744826Y-111512459D01*
X137761754Y-111507994D01*
X137768531Y-111506208D01*
X137785616Y-111501788D01*
X137802756Y-111497457D01*
X137819949Y-111493215D01*
X137837195Y-111489063D01*
X137854496Y-111485001D01*
X137871850Y-111481028D01*
X137878806Y-111479464D01*
X137893266Y-111476470D01*
X137907703Y-111473533D01*
X137922117Y-111470654D01*
X137936509Y-111467831D01*
X137954465Y-111464384D01*
X137972387Y-111461027D01*
X137990272Y-111457758D01*
X137993845Y-111457115D01*
X138011819Y-111453804D01*
X138029794Y-111450511D01*
X138047769Y-111447235D01*
X138065744Y-111443978D01*
X138083718Y-111440738D01*
X138101693Y-111437516D01*
X138108883Y-111436233D01*
X138123848Y-111433609D01*
X138138795Y-111430960D01*
X138153721Y-111428286D01*
X138168629Y-111425585D01*
X138183517Y-111422859D01*
X138198386Y-111420107D01*
X138213236Y-111417329D01*
X138228066Y-111414525D01*
X138242877Y-111411696D01*
X138257668Y-111408841D01*
X138267519Y-111406923D01*
X138282344Y-111404045D01*
X138297143Y-111401179D01*
X138311916Y-111398326D01*
X138326664Y-111395486D01*
X138341385Y-111392659D01*
X138356082Y-111389845D01*
X138370752Y-111387043D01*
X138385396Y-111384255D01*
X138400015Y-111381479D01*
X138414608Y-111378716D01*
X138424323Y-111376882D01*
X138439063Y-111373812D01*
X138454947Y-111372336D01*
X138470484Y-111372852D01*
X138486014Y-111375099D01*
X138501371Y-111378818D01*
X138515181Y-111383476D01*
X138530385Y-111389498D01*
X138545589Y-111395108D01*
X138560793Y-111400306D01*
X138575997Y-111405092D01*
X138591476Y-111409625D01*
X138607138Y-111414434D01*
X138622984Y-111419517D01*
X138636998Y-111424190D01*
X138639012Y-111424875D01*
X138640111Y-111426341D01*
X138641943Y-111422311D01*
X138648890Y-111406885D01*
X138655991Y-111391382D01*
X138663246Y-111375801D01*
X138670657Y-111360143D01*
X138678222Y-111344408D01*
X138680778Y-111339146D01*
X138688471Y-111323334D01*
X138694883Y-111310137D01*
X138701294Y-111296923D01*
X138707705Y-111283690D01*
X138714117Y-111270440D01*
X138720528Y-111257172D01*
X138721810Y-111254516D01*
X138728293Y-111240162D01*
X138734919Y-111225951D01*
X138741689Y-111211883D01*
X138743060Y-111209087D01*
X138749742Y-111195765D01*
X138756249Y-111183075D01*
X138735454Y-111187235D01*
X138714286Y-111191473D01*
X138692744Y-111195787D01*
X138678175Y-111198707D01*
X138663440Y-111201661D01*
X138648540Y-111204649D01*
X138633473Y-111207671D01*
X138618240Y-111210728D01*
X138602841Y-111213819D01*
X138587277Y-111216945D01*
X138571546Y-111220105D01*
X138555649Y-111223299D01*
X138539586Y-111226528D01*
X138523358Y-111229791D01*
X138515181Y-111231435D01*
X138498520Y-111234556D01*
X138481876Y-111237692D01*
X138465249Y-111240842D01*
X138448640Y-111244006D01*
X138432048Y-111247184D01*
X138415473Y-111250377D01*
X138398915Y-111253584D01*
X138382374Y-111256806D01*
X138365850Y-111260041D01*
X138349344Y-111263291D01*
X138332855Y-111266556D01*
X138316383Y-111269835D01*
X138299928Y-111273127D01*
X138283490Y-111276435D01*
X138267069Y-111279756D01*
X138250666Y-111283092D01*
X138234263Y-111286391D01*
X138217842Y-111289693D01*
X138201404Y-111292997D01*
X138184949Y-111296304D01*
X138168477Y-111299614D01*
X138151988Y-111302928D01*
X138135482Y-111306243D01*
X138118958Y-111309562D01*
X138102417Y-111312884D01*
X138085859Y-111316208D01*
X138069284Y-111319536D01*
X138052692Y-111322866D01*
X138036082Y-111326199D01*
X138019456Y-111329535D01*
X138002812Y-111332873D01*
X137986151Y-111336215D01*
X137969657Y-111339561D01*
X137953058Y-111342913D01*
X137936353Y-111346270D01*
X137919541Y-111349633D01*
X137902624Y-111353002D01*
X137885601Y-111356377D01*
X137868472Y-111359757D01*
X137851237Y-111363143D01*
X137833897Y-111366535D01*
X137816450Y-111369932D01*
X137798897Y-111373335D01*
X137781239Y-111376744D01*
X137763474Y-111380159D01*
X137745604Y-111383579D01*
X137727628Y-111387005D01*
X137709546Y-111390437D01*
X137709969Y-111375070D01*
X137712110Y-111364792D01*
X137715774Y-111361128D01*
X137725447Y-111343814D01*
X137735140Y-111326495D01*
X137744853Y-111309170D01*
X137754586Y-111291839D01*
X137764339Y-111274503D01*
X137774112Y-111257161D01*
X137783905Y-111239813D01*
X137793718Y-111222459D01*
X137803551Y-111205100D01*
X137813404Y-111187735D01*
X137823278Y-111170364D01*
X137833171Y-111152987D01*
X137843084Y-111135605D01*
X137853018Y-111118217D01*
X137862971Y-111100823D01*
X137872480Y-111084233D01*
X138127258Y-111084233D01*
X138138381Y-111082033D01*
X138156533Y-111078409D01*
X138174697Y-111074751D01*
X138192872Y-111071059D01*
X138211059Y-111067332D01*
X138229257Y-111063571D01*
X138247466Y-111059776D01*
X138265687Y-111055946D01*
X138283925Y-111052117D01*
X138302186Y-111048322D01*
X138320470Y-111044561D01*
X138338777Y-111040834D01*
X138357106Y-111037142D01*
X138375459Y-111033484D01*
X138393834Y-111029860D01*
X138412233Y-111026271D01*
X138432997Y-111022077D01*
X138453801Y-111017877D01*
X138474643Y-111013671D01*
X138495523Y-111009458D01*
X138516442Y-111005239D01*
X138537400Y-111001013D01*
X138558397Y-110996781D01*
X138579432Y-110992543D01*
X138600506Y-110988298D01*
X138621618Y-110984046D01*
X138635715Y-110981208D01*
X138656882Y-110976949D01*
X138678068Y-110972690D01*
X138699274Y-110968431D01*
X138720499Y-110964172D01*
X138741744Y-110959913D01*
X138763008Y-110955654D01*
X138784291Y-110951395D01*
X138805593Y-110947136D01*
X138826915Y-110942877D01*
X138848256Y-110938618D01*
X138862494Y-110935779D01*
X138865059Y-110934680D01*
X138867257Y-110932482D01*
X138873160Y-110918696D01*
X138879055Y-110904907D01*
X138884941Y-110891115D01*
X138890819Y-110877321D01*
X138896688Y-110863524D01*
X138902548Y-110849723D01*
X138908400Y-110835920D01*
X138914243Y-110822114D01*
X138920078Y-110808306D01*
X138925904Y-110794494D01*
X138931721Y-110780680D01*
X138937530Y-110766862D01*
X138943331Y-110753042D01*
X138949122Y-110739219D01*
X138954905Y-110725393D01*
X138960680Y-110711564D01*
X138966453Y-110697689D01*
X138972232Y-110683818D01*
X138978016Y-110669949D01*
X138983807Y-110656083D01*
X138989603Y-110642220D01*
X138995404Y-110628359D01*
X139001212Y-110614502D01*
X139007025Y-110600647D01*
X139012844Y-110586796D01*
X139018668Y-110572947D01*
X139024499Y-110559101D01*
X139030335Y-110545258D01*
X139036177Y-110531417D01*
X139042024Y-110517580D01*
X139047877Y-110503745D01*
X139053736Y-110489914D01*
X139059312Y-110476035D01*
X139064662Y-110462211D01*
X139065826Y-110459139D01*
X139071275Y-110445396D01*
X139072628Y-110442286D01*
X139055102Y-110442286D01*
X139037399Y-110442286D01*
X139019679Y-110442286D01*
X139001942Y-110442286D01*
X138984187Y-110442286D01*
X138966416Y-110442286D01*
X138948627Y-110442286D01*
X138930821Y-110442286D01*
X138912998Y-110442286D01*
X138895158Y-110442286D01*
X138877301Y-110442286D01*
X138859426Y-110442286D01*
X138841534Y-110442286D01*
X138823625Y-110442286D01*
X138805699Y-110442286D01*
X138787756Y-110442286D01*
X138769804Y-110442286D01*
X138751852Y-110442286D01*
X138733900Y-110442286D01*
X138715949Y-110442286D01*
X138697997Y-110442286D01*
X138680045Y-110442286D01*
X138662093Y-110442286D01*
X138644141Y-110442286D01*
X138626189Y-110442286D01*
X138608237Y-110442286D01*
X138590286Y-110442286D01*
X138572334Y-110442286D01*
X138554382Y-110442286D01*
X138536430Y-110442286D01*
X138518478Y-110442286D01*
X138500526Y-110442286D01*
X138492100Y-110444118D01*
X138486238Y-110450346D01*
X138478198Y-110465024D01*
X138470151Y-110479657D01*
X138462098Y-110494245D01*
X138454038Y-110508787D01*
X138445972Y-110523285D01*
X138437900Y-110537737D01*
X138429821Y-110552144D01*
X138421735Y-110566507D01*
X138413643Y-110580824D01*
X138405545Y-110595096D01*
X138400143Y-110604586D01*
X138391709Y-110619208D01*
X138383308Y-110633810D01*
X138374940Y-110648394D01*
X138366603Y-110662958D01*
X138358299Y-110677503D01*
X138350027Y-110692028D01*
X138341787Y-110706534D01*
X138333579Y-110721021D01*
X138325403Y-110735488D01*
X138317260Y-110749936D01*
X138311849Y-110759558D01*
X138303792Y-110773974D01*
X138295697Y-110788370D01*
X138287564Y-110802748D01*
X138279391Y-110817106D01*
X138271180Y-110831444D01*
X138262931Y-110845764D01*
X138254642Y-110860064D01*
X138246315Y-110874344D01*
X138237950Y-110888606D01*
X138229546Y-110902848D01*
X138223921Y-110912332D01*
X138215819Y-110926944D01*
X138207723Y-110941518D01*
X138199633Y-110956053D01*
X138191550Y-110970549D01*
X138183473Y-110985007D01*
X138175402Y-110999426D01*
X138167338Y-111013807D01*
X138159281Y-111028149D01*
X138151230Y-111042452D01*
X138143185Y-111056716D01*
X138137826Y-111066205D01*
X138130125Y-111079195D01*
X138127258Y-111084233D01*
X137872480Y-111084233D01*
X137872944Y-111083424D01*
X137882964Y-111065983D01*
X137892963Y-111048556D01*
X137902942Y-111031144D01*
X137912901Y-111013746D01*
X137922840Y-110996362D01*
X137932759Y-110978993D01*
X137942658Y-110961638D01*
X137952537Y-110944297D01*
X137962396Y-110926970D01*
X137972235Y-110909658D01*
X137982054Y-110892361D01*
X137991852Y-110875077D01*
X138001631Y-110857808D01*
X138011390Y-110840553D01*
X138021129Y-110823312D01*
X138030847Y-110806086D01*
X138038040Y-110793316D01*
X138048840Y-110774188D01*
X138059653Y-110755093D01*
X138070478Y-110736029D01*
X138081317Y-110716998D01*
X138092168Y-110697999D01*
X138103033Y-110679032D01*
X138113910Y-110660097D01*
X138124800Y-110641195D01*
X138135703Y-110622325D01*
X138146618Y-110603487D01*
X138157603Y-110584596D01*
X138168575Y-110565705D01*
X138179533Y-110546815D01*
X138190479Y-110527924D01*
X138201412Y-110509033D01*
X138212332Y-110490143D01*
X138223239Y-110471252D01*
X138234134Y-110452361D01*
X138245015Y-110433471D01*
X138255884Y-110414580D01*
X138263122Y-110401986D01*
X138264588Y-110396857D01*
X138261290Y-110390263D01*
X138253047Y-110377829D01*
X138244804Y-110365441D01*
X138236561Y-110353100D01*
X138228318Y-110340803D01*
X138220075Y-110328255D01*
X138211831Y-110315524D01*
X138203588Y-110302610D01*
X138195345Y-110289512D01*
X138186465Y-110276511D01*
X138177227Y-110263151D01*
X138168607Y-110250822D01*
X138165669Y-110246648D01*
X138157340Y-110234276D01*
X138149093Y-110221619D01*
X138148084Y-110219903D01*
X138141971Y-110234303D01*
X138135723Y-110249064D01*
X138129340Y-110264185D01*
X138122822Y-110279666D01*
X138116168Y-110295509D01*
X138109380Y-110311712D01*
X138102455Y-110328275D01*
X138095396Y-110345200D01*
X138088202Y-110362485D01*
X138080872Y-110380130D01*
X138075910Y-110392094D01*
X138068352Y-110410302D01*
X138060652Y-110428794D01*
X138052810Y-110447569D01*
X138044826Y-110466627D01*
X138036701Y-110485968D01*
X138028435Y-110505593D01*
X138020026Y-110525501D01*
X138011476Y-110545693D01*
X138005697Y-110559311D01*
X137999855Y-110573055D01*
X137993950Y-110586926D01*
X137987983Y-110600922D01*
X137976552Y-110589573D01*
X137965340Y-110578468D01*
X137954347Y-110567608D01*
X137943573Y-110556993D01*
X137933017Y-110546622D01*
X137919284Y-110533175D01*
X137905941Y-110520164D01*
X137892986Y-110507587D01*
X137880421Y-110495446D01*
X137877341Y-110492478D01*
X137865205Y-110480566D01*
X137853344Y-110468458D01*
X137841758Y-110456157D01*
X137830446Y-110443660D01*
X137819409Y-110430969D01*
X137808647Y-110418083D01*
X137798160Y-110405003D01*
X137787948Y-110391728D01*
X137792711Y-110398689D01*
X137786849Y-110393560D01*
X137789388Y-110408499D01*
X137791786Y-110423502D01*
X137794042Y-110438569D01*
X137796157Y-110453701D01*
X137798129Y-110468897D01*
X137799961Y-110484158D01*
X137801650Y-110499483D01*
X137803198Y-110514872D01*
X137804604Y-110530326D01*
X137805868Y-110545844D01*
X137806632Y-110556226D01*
X137807794Y-110571940D01*
X137808942Y-110588035D01*
X137810078Y-110604509D01*
X137811201Y-110621364D01*
X137812310Y-110638599D01*
X137813407Y-110656213D01*
X137814491Y-110674207D01*
X137815563Y-110692582D01*
X137816621Y-110711336D01*
X137817666Y-110730470D01*
X137818356Y-110743438D01*
X137802877Y-110735721D01*
X137787948Y-110728325D01*
X137773568Y-110721250D01*
X137759738Y-110714495D01*
X137746457Y-110708061D01*
X137730629Y-110700469D01*
X137715660Y-110693377D01*
X137709912Y-110690681D01*
X137696358Y-110684177D01*
X137681486Y-110677033D01*
X137668134Y-110670610D01*
X137654477Y-110664028D01*
X137641402Y-110657709D01*
X137646363Y-110674125D01*
X137651627Y-110691776D01*
X137656058Y-110706786D01*
X137660684Y-110722585D01*
X137665503Y-110739174D01*
X137670518Y-110756554D01*
X137675727Y-110774723D01*
X137678405Y-110784104D01*
X137682496Y-110798436D01*
X137686665Y-110812994D01*
X137690911Y-110827777D01*
X137695235Y-110842785D01*
X137699635Y-110858019D01*
X137704113Y-110873478D01*
X137708669Y-110889163D01*
X137713301Y-110905073D01*
X137718011Y-110921208D01*
X137722798Y-110937569D01*
X137726032Y-110948602D01*
X137708149Y-110951750D01*
X137690770Y-110954784D01*
X137673894Y-110957704D01*
X137657522Y-110960509D01*
X137641654Y-110963199D01*
X137626290Y-110965775D01*
X137611429Y-110968237D01*
X137597072Y-110970584D01*
X137579450Y-110973204D01*
X137561845Y-110975342D01*
X137544259Y-110976997D01*
X137526690Y-110978168D01*
X137509139Y-110978857D01*
X137493663Y-110979038D01*
X137259310Y-110979038D01*
X137252811Y-110961384D01*
X137245739Y-110942112D01*
X137238699Y-110922865D01*
X137231691Y-110903643D01*
X137224716Y-110884448D01*
X137220083Y-110871665D01*
X137214794Y-110857728D01*
X137212023Y-110850050D01*
X137207279Y-110836080D01*
X137202572Y-110822050D01*
X137199567Y-110813047D01*
X137218045Y-110809881D01*
X137236112Y-110806796D01*
X137253766Y-110803791D01*
X137271008Y-110800865D01*
X137287838Y-110798020D01*
X137304255Y-110795255D01*
X137320261Y-110792571D01*
X137335854Y-110789966D01*
X137351036Y-110787442D01*
X137365805Y-110784997D01*
X137383686Y-110782054D01*
X137400924Y-110779237D01*
X137417518Y-110776545D01*
X137433468Y-110773978D01*
X137445764Y-110772014D01*
X137441626Y-110757398D01*
X137437457Y-110742676D01*
X137433257Y-110727849D01*
X137429025Y-110712915D01*
X137424762Y-110697875D01*
X137420467Y-110682730D01*
X137416141Y-110667479D01*
X137411783Y-110652121D01*
X137407394Y-110636658D01*
X137402973Y-110621089D01*
X137398521Y-110605414D01*
X137394038Y-110589633D01*
X137389522Y-110573747D01*
X137384976Y-110557754D01*
X137380398Y-110541655D01*
X137375788Y-110525451D01*
X137371136Y-110509045D01*
X137366429Y-110492432D01*
X137361667Y-110475614D01*
X137356852Y-110458590D01*
X137351982Y-110441359D01*
X137347057Y-110423922D01*
X137342078Y-110406280D01*
X137337045Y-110388431D01*
X137331957Y-110370376D01*
X137326815Y-110352115D01*
X137321619Y-110333648D01*
X137316368Y-110314975D01*
X137311063Y-110296096D01*
X137305704Y-110277010D01*
X137300290Y-110257719D01*
X137294822Y-110238221D01*
X137312110Y-110246836D01*
X137328941Y-110255232D01*
X137345314Y-110263408D01*
X137361231Y-110271366D01*
X137376690Y-110279105D01*
X137391692Y-110286624D01*
X137406237Y-110293925D01*
X137420324Y-110301007D01*
X137433954Y-110307870D01*
X137447127Y-110314514D01*
X137455655Y-110318822D01*
X137472348Y-110327122D01*
X137488537Y-110335171D01*
X137504222Y-110342967D01*
X137519403Y-110350512D01*
X137534080Y-110357805D01*
X137548254Y-110364846D01*
X137561924Y-110371635D01*
X137575090Y-110378173D01*
X137573772Y-110358012D01*
X137572428Y-110337510D01*
X137571059Y-110316667D01*
X137569663Y-110295483D01*
X137568242Y-110273957D01*
X137566796Y-110252090D01*
X137565817Y-110237323D01*
X137564826Y-110222403D01*
X137563825Y-110207332D01*
X137562811Y-110192110D01*
X137561787Y-110176735D01*
X137560750Y-110161209D01*
X137559703Y-110145531D01*
X137558688Y-110129610D01*
X137557659Y-110113446D01*
X137556616Y-110097038D01*
X137555558Y-110080387D01*
X137554487Y-110063493D01*
X137553400Y-110046355D01*
X137552300Y-110028974D01*
X137551185Y-110011350D01*
X137550056Y-109993483D01*
X137548912Y-109975372D01*
X137547755Y-109957018D01*
X137546582Y-109938421D01*
X137545396Y-109919580D01*
X137544195Y-109900497D01*
X137542980Y-109881169D01*
X137541751Y-109861599D01*
X137555630Y-109875200D01*
X137569331Y-109888618D01*
X137582855Y-109901853D01*
X137596202Y-109914905D01*
X137609371Y-109927773D01*
X137622363Y-109940459D01*
X137635177Y-109952961D01*
X137647814Y-109965280D01*
X137660273Y-109977416D01*
X137672555Y-109989368D01*
X137684659Y-110001138D01*
X137696586Y-110012724D01*
X137708335Y-110024127D01*
X137719907Y-110035347D01*
X137731302Y-110046384D01*
X137742519Y-110057237D01*
X137753647Y-110067954D01*
X137764684Y-110078578D01*
X137775629Y-110089111D01*
X137786482Y-110099553D01*
X137797244Y-110109902D01*
X137807915Y-110120161D01*
X137818493Y-110130327D01*
X137834190Y-110145405D01*
X137849680Y-110160277D01*
X137864964Y-110174943D01*
X137880043Y-110189403D01*
X137894915Y-110203657D01*
X137909581Y-110217705D01*
X137917273Y-110199016D01*
X137925101Y-110180044D01*
X137933064Y-110160788D01*
X137941163Y-110141249D01*
X137949396Y-110121427D01*
X137957765Y-110101321D01*
X137963419Y-110087760D01*
X137969134Y-110074073D01*
X137974908Y-110060260D01*
X137980743Y-110046321D01*
X137986638Y-110032256D01*
X137992592Y-110018065D01*
X137998607Y-110003748D01*
X138004690Y-109989290D01*
X138010846Y-109974674D01*
X138017077Y-109959900D01*
X138023383Y-109944970D01*
X138029763Y-109929882D01*
X138036217Y-109914636D01*
X138042746Y-109899233D01*
X138049349Y-109883672D01*
X138056026Y-109867955D01*
X138062778Y-109852079D01*
X138069605Y-109836046D01*
X138076506Y-109819856D01*
X138083481Y-109803509D01*
X138090530Y-109787004D01*
X138097654Y-109770341D01*
X138104853Y-109753521D01*
X138113274Y-109766487D01*
G37*
G36*
X144337913Y-107364575D02*
G01*
X144337913Y-107186033D01*
X144349567Y-107185114D01*
X144360713Y-107183457D01*
X144371354Y-107181061D01*
X144381487Y-107177927D01*
X144391114Y-107174055D01*
X144400235Y-107169444D01*
X144408849Y-107164094D01*
X144416956Y-107158006D01*
X144424557Y-107151180D01*
X144431651Y-107143615D01*
X144436099Y-107138161D01*
X144442253Y-107129450D01*
X144447802Y-107120167D01*
X144452746Y-107110313D01*
X144457084Y-107099888D01*
X144460817Y-107088892D01*
X144463945Y-107077325D01*
X144466467Y-107065187D01*
X144468384Y-107052478D01*
X144469696Y-107039198D01*
X144470402Y-107025347D01*
X144470537Y-107015796D01*
X144470221Y-107001328D01*
X144469275Y-106987508D01*
X144467697Y-106974337D01*
X144465488Y-106961814D01*
X144462648Y-106949940D01*
X144459177Y-106938713D01*
X144455074Y-106928135D01*
X144450341Y-106918205D01*
X144444976Y-106908924D01*
X144438981Y-106900291D01*
X144434633Y-106894896D01*
X144427643Y-106887344D01*
X144420228Y-106880536D01*
X144412387Y-106874470D01*
X144404122Y-106869147D01*
X144395431Y-106864567D01*
X144386316Y-106860729D01*
X144376775Y-106857634D01*
X144366810Y-106855282D01*
X144356419Y-106853673D01*
X144345604Y-106852807D01*
X144338157Y-106852642D01*
X144328294Y-106852921D01*
X144315517Y-106854161D01*
X144303168Y-106856393D01*
X144291245Y-106859618D01*
X144279751Y-106863835D01*
X144268683Y-106869044D01*
X144258044Y-106875246D01*
X144247831Y-106882440D01*
X144245345Y-106884393D01*
X144235823Y-106892678D01*
X144227042Y-106901780D01*
X144219001Y-106911699D01*
X144211700Y-106922434D01*
X144206711Y-106931021D01*
X144202138Y-106940068D01*
X144197981Y-106949574D01*
X144194241Y-106959540D01*
X144190917Y-106969965D01*
X144189902Y-106973542D01*
X144158394Y-107086138D01*
X144153711Y-107101891D01*
X144148697Y-107117157D01*
X144143354Y-107131933D01*
X144137680Y-107146221D01*
X144131676Y-107160021D01*
X144125342Y-107173332D01*
X144118677Y-107186155D01*
X144111683Y-107198489D01*
X144104359Y-107210335D01*
X144096704Y-107221692D01*
X144088719Y-107232561D01*
X144080405Y-107242942D01*
X144071760Y-107252833D01*
X144062785Y-107262237D01*
X144053480Y-107271152D01*
X144043845Y-107279578D01*
X144033896Y-107287504D01*
X144023649Y-107294920D01*
X144013104Y-107301823D01*
X144002262Y-107308215D01*
X143991122Y-107314096D01*
X143979685Y-107319466D01*
X143967950Y-107324324D01*
X143955917Y-107328671D01*
X143943587Y-107332506D01*
X143930959Y-107335830D01*
X143918033Y-107338643D01*
X143904809Y-107340944D01*
X143891288Y-107342734D01*
X143877469Y-107344012D01*
X143863353Y-107344779D01*
X143848939Y-107345035D01*
X143836910Y-107344831D01*
X143825096Y-107344219D01*
X143813497Y-107343200D01*
X143802113Y-107341772D01*
X143790943Y-107339937D01*
X143779988Y-107337693D01*
X143769247Y-107335042D01*
X143758722Y-107331983D01*
X143748410Y-107328516D01*
X143738314Y-107324642D01*
X143731702Y-107321832D01*
X143721989Y-107317273D01*
X143712543Y-107312387D01*
X143703362Y-107307175D01*
X143694448Y-107301636D01*
X143685799Y-107295771D01*
X143677417Y-107289581D01*
X143669302Y-107283063D01*
X143661452Y-107276220D01*
X143653868Y-107269050D01*
X143646551Y-107261554D01*
X143641821Y-107256375D01*
X143634960Y-107248293D01*
X143628391Y-107239894D01*
X143622114Y-107231177D01*
X143616130Y-107222143D01*
X143610437Y-107212790D01*
X143605036Y-107203120D01*
X143599927Y-107193133D01*
X143595109Y-107182827D01*
X143590584Y-107172204D01*
X143586351Y-107161263D01*
X143583691Y-107153793D01*
X143579937Y-107142298D01*
X143576553Y-107130529D01*
X143573537Y-107118485D01*
X143570891Y-107106166D01*
X143568614Y-107093572D01*
X143566707Y-107080703D01*
X143565168Y-107067560D01*
X143563999Y-107054142D01*
X143563199Y-107040449D01*
X143562768Y-107026481D01*
X143562686Y-107017017D01*
X143562856Y-107003708D01*
X143563365Y-106990619D01*
X143564212Y-106977748D01*
X143565400Y-106965096D01*
X143566926Y-106952663D01*
X143568791Y-106940450D01*
X143570996Y-106928455D01*
X143573540Y-106916679D01*
X143576423Y-106905122D01*
X143579645Y-106893784D01*
X143581981Y-106886347D01*
X143585752Y-106875413D01*
X143589827Y-106864774D01*
X143594207Y-106854433D01*
X143598891Y-106844387D01*
X143603881Y-106834637D01*
X143609175Y-106825184D01*
X143614775Y-106816027D01*
X143620679Y-106807167D01*
X143626887Y-106798602D01*
X143633401Y-106790334D01*
X143637913Y-106784986D01*
X143644876Y-106777220D01*
X143652118Y-106769768D01*
X143659639Y-106762629D01*
X143667440Y-106755803D01*
X143675519Y-106749291D01*
X143683877Y-106743092D01*
X143692515Y-106737206D01*
X143701431Y-106731634D01*
X143710627Y-106726376D01*
X143720102Y-106721431D01*
X143726573Y-106718308D01*
X143736481Y-106713874D01*
X143746603Y-106709821D01*
X143756940Y-106706151D01*
X143767491Y-106702863D01*
X143778258Y-106699958D01*
X143789239Y-106697434D01*
X143800434Y-106695292D01*
X143811844Y-106693533D01*
X143823469Y-106692155D01*
X143835309Y-106691160D01*
X143843321Y-106690709D01*
X143843321Y-106869494D01*
X143832466Y-106870333D01*
X143822066Y-106871841D01*
X143812122Y-106874019D01*
X143802632Y-106876867D01*
X143790687Y-106881706D01*
X143779551Y-106887736D01*
X143769224Y-106894957D01*
X143759706Y-106903368D01*
X143750997Y-106912969D01*
X143745061Y-106920853D01*
X143739709Y-106929210D01*
X143734940Y-106938038D01*
X143730756Y-106947339D01*
X143727155Y-106957112D01*
X143724138Y-106967357D01*
X143721705Y-106978075D01*
X143719856Y-106989265D01*
X143718591Y-107000927D01*
X143717910Y-107013061D01*
X143717780Y-107021413D01*
X143718085Y-107034070D01*
X143719000Y-107046212D01*
X143720524Y-107057838D01*
X143722658Y-107068949D01*
X143725401Y-107079545D01*
X143728754Y-107089626D01*
X143732717Y-107099191D01*
X143737289Y-107108242D01*
X143742471Y-107116777D01*
X143748263Y-107124797D01*
X143752463Y-107129857D01*
X143761389Y-107139073D01*
X143770949Y-107147061D01*
X143781142Y-107153820D01*
X143791969Y-107159349D01*
X143803429Y-107163650D01*
X143815523Y-107166723D01*
X143828251Y-107168566D01*
X143838212Y-107169142D01*
X143841612Y-107169180D01*
X143853937Y-107168707D01*
X143865757Y-107167287D01*
X143877072Y-107164921D01*
X143887880Y-107161609D01*
X143898183Y-107157350D01*
X143907981Y-107152144D01*
X143917272Y-107145992D01*
X143926058Y-107138894D01*
X143934339Y-107130849D01*
X143942114Y-107121858D01*
X143949383Y-107111921D01*
X143956146Y-107101036D01*
X143962404Y-107089206D01*
X143968156Y-107076429D01*
X143973402Y-107062706D01*
X143978143Y-107048036D01*
X144012826Y-106929822D01*
X144017311Y-106914572D01*
X144022157Y-106899780D01*
X144027363Y-106885446D01*
X144032930Y-106871570D01*
X144038858Y-106858152D01*
X144045146Y-106845192D01*
X144051795Y-106832690D01*
X144058804Y-106820646D01*
X144066175Y-106809059D01*
X144073906Y-106797931D01*
X144081997Y-106787261D01*
X144090449Y-106777048D01*
X144099262Y-106767294D01*
X144108435Y-106757997D01*
X144117969Y-106749159D01*
X144127864Y-106740778D01*
X144138097Y-106732852D01*
X144148644Y-106725437D01*
X144159506Y-106718533D01*
X144170683Y-106712141D01*
X144182175Y-106706260D01*
X144193981Y-106700890D01*
X144206103Y-106696032D01*
X144218539Y-106691685D01*
X144231290Y-106687850D01*
X144244357Y-106684526D01*
X144257737Y-106681713D01*
X144271433Y-106679412D01*
X144285444Y-106677622D01*
X144299769Y-106676344D01*
X144314409Y-106675577D01*
X144329364Y-106675321D01*
X144341631Y-106675538D01*
X144353699Y-106676188D01*
X144365570Y-106677273D01*
X144377244Y-106678790D01*
X144388720Y-106680742D01*
X144399998Y-106683126D01*
X144411079Y-106685945D01*
X144421963Y-106689197D01*
X144432649Y-106692883D01*
X144443138Y-106697003D01*
X144450020Y-106699990D01*
X144460139Y-106704752D01*
X144469979Y-106709879D01*
X144479539Y-106715371D01*
X144488821Y-106721227D01*
X144497823Y-106727449D01*
X144506546Y-106734036D01*
X144514991Y-106740987D01*
X144523156Y-106748304D01*
X144531042Y-106755986D01*
X144538649Y-106764032D01*
X144543565Y-106769599D01*
X144550697Y-106778186D01*
X144557527Y-106787096D01*
X144564058Y-106796327D01*
X144570287Y-106805880D01*
X144576216Y-106815756D01*
X144581845Y-106825953D01*
X144587173Y-106836473D01*
X144592200Y-106847314D01*
X144596927Y-106858477D01*
X144601354Y-106869963D01*
X144604138Y-106877799D01*
X144607979Y-106889797D01*
X144611442Y-106902070D01*
X144614528Y-106914618D01*
X144617235Y-106927441D01*
X144619565Y-106940538D01*
X144621517Y-106953911D01*
X144623091Y-106967558D01*
X144624288Y-106981480D01*
X144625106Y-106995676D01*
X144625547Y-107010148D01*
X144625631Y-107019948D01*
X144625449Y-107034074D01*
X144624901Y-107047969D01*
X144623989Y-107061632D01*
X144622712Y-107075063D01*
X144621069Y-107088262D01*
X144619062Y-107101229D01*
X144616690Y-107113965D01*
X144613953Y-107126468D01*
X144610851Y-107138740D01*
X144607384Y-107150780D01*
X144604870Y-107158678D01*
X144600834Y-107170247D01*
X144596510Y-107181507D01*
X144591898Y-107192458D01*
X144586999Y-107203099D01*
X144581812Y-107213432D01*
X144576337Y-107223456D01*
X144570575Y-107233170D01*
X144564525Y-107242575D01*
X144558187Y-107251671D01*
X144551562Y-107260458D01*
X144546985Y-107266145D01*
X144539843Y-107274399D01*
X144532430Y-107282310D01*
X144524748Y-107289878D01*
X144516794Y-107297102D01*
X144508570Y-107303983D01*
X144500076Y-107310521D01*
X144491311Y-107316714D01*
X144482276Y-107322565D01*
X144472970Y-107328072D01*
X144463394Y-107333235D01*
X144456859Y-107336487D01*
X144446808Y-107341050D01*
X144436529Y-107345214D01*
X144426022Y-107348978D01*
X144415288Y-107352343D01*
X144404327Y-107355309D01*
X144393138Y-107357876D01*
X144381721Y-107360043D01*
X144370077Y-107361812D01*
X144358205Y-107363180D01*
X144346106Y-107364150D01*
X144337913Y-107364575D01*
G37*
G36*
X144610000Y-106481881D02*
G01*
X143578318Y-106481881D01*
X143578318Y-105858573D01*
X143733412Y-105858573D01*
X143733412Y-106306026D01*
X144001591Y-106306026D01*
X144001591Y-105907910D01*
X144156685Y-105907910D01*
X144156685Y-106306026D01*
X144454905Y-106306026D01*
X144454905Y-105858573D01*
X144610000Y-105858573D01*
X144610000Y-106481881D01*
G37*
G36*
X143578318Y-105448489D02*
G01*
X144438053Y-105448489D01*
X144438053Y-105006654D01*
X144610000Y-105006654D01*
X144610000Y-105624344D01*
X143578318Y-105624344D01*
X143578318Y-105448489D01*
G37*
G36*
X136573134Y-102969631D02*
G01*
X136559014Y-102969436D01*
X136545139Y-102968850D01*
X136531508Y-102967873D01*
X136518122Y-102966505D01*
X136504981Y-102964747D01*
X136492085Y-102962599D01*
X136479433Y-102960059D01*
X136467026Y-102957129D01*
X136454864Y-102953808D01*
X136442946Y-102950096D01*
X136435137Y-102947405D01*
X136423710Y-102943068D01*
X136412600Y-102938392D01*
X136401808Y-102933376D01*
X136391334Y-102928022D01*
X136381177Y-102922328D01*
X136371338Y-102916295D01*
X136361817Y-102909923D01*
X136352613Y-102903212D01*
X136343728Y-102896162D01*
X136335160Y-102888772D01*
X136329624Y-102883658D01*
X136321644Y-102875676D01*
X136314008Y-102867394D01*
X136306715Y-102858812D01*
X136299765Y-102849929D01*
X136293159Y-102840746D01*
X136286897Y-102831262D01*
X136280978Y-102821477D01*
X136275402Y-102811392D01*
X136270170Y-102801007D01*
X136265281Y-102790321D01*
X136262213Y-102783030D01*
X136257935Y-102771835D01*
X136254079Y-102760418D01*
X136250643Y-102748777D01*
X136247627Y-102736913D01*
X136245033Y-102724826D01*
X136242859Y-102712516D01*
X136241106Y-102699982D01*
X136239773Y-102687225D01*
X136238862Y-102674245D01*
X136238371Y-102661042D01*
X136238277Y-102652115D01*
X136238277Y-102224202D01*
X136238488Y-102210852D01*
X136239119Y-102197729D01*
X136240171Y-102184834D01*
X136241643Y-102172167D01*
X136243537Y-102159727D01*
X136245851Y-102147514D01*
X136248586Y-102135530D01*
X136251741Y-102123772D01*
X136255317Y-102112243D01*
X136259315Y-102100940D01*
X136262213Y-102093532D01*
X136266873Y-102082604D01*
X136271876Y-102071985D01*
X136277223Y-102061675D01*
X136282913Y-102051675D01*
X136288946Y-102041983D01*
X136295323Y-102032601D01*
X136302044Y-102023528D01*
X136309108Y-102014764D01*
X136316515Y-102006309D01*
X136324266Y-101998163D01*
X136329624Y-101992904D01*
X136337987Y-101985245D01*
X136346680Y-101977929D01*
X136355704Y-101970956D01*
X136365058Y-101964327D01*
X136374743Y-101958042D01*
X136384759Y-101952100D01*
X136395105Y-101946502D01*
X136405782Y-101941247D01*
X136416789Y-101936335D01*
X136428127Y-101931767D01*
X136435870Y-101928912D01*
X136447755Y-101924940D01*
X136459872Y-101921359D01*
X136472221Y-101918168D01*
X136484802Y-101915368D01*
X136497615Y-101912959D01*
X136510660Y-101910940D01*
X136523936Y-101909312D01*
X136537444Y-101908075D01*
X136551184Y-101907229D01*
X136565156Y-101906773D01*
X136574600Y-101906686D01*
X136588181Y-101906873D01*
X136601539Y-101907433D01*
X136614674Y-101908367D01*
X136627585Y-101909674D01*
X136640273Y-101911355D01*
X136652738Y-101913410D01*
X136664980Y-101915837D01*
X136676998Y-101918639D01*
X136688794Y-101921814D01*
X136700366Y-101925362D01*
X136707956Y-101927935D01*
X136719159Y-101932076D01*
X136730053Y-101936531D01*
X136740637Y-101941298D01*
X136750912Y-101946379D01*
X136760879Y-101951774D01*
X136770536Y-101957482D01*
X136779884Y-101963503D01*
X136788923Y-101969838D01*
X136797653Y-101976486D01*
X136806073Y-101983448D01*
X136811515Y-101988263D01*
X136819419Y-101995741D01*
X136827008Y-102003519D01*
X136834285Y-102011598D01*
X136841248Y-102019977D01*
X136847898Y-102028656D01*
X136854234Y-102037637D01*
X136860257Y-102046917D01*
X136865966Y-102056499D01*
X136871362Y-102066380D01*
X136876445Y-102076563D01*
X136879659Y-102083518D01*
X136884224Y-102094156D01*
X136888394Y-102105005D01*
X136892170Y-102116064D01*
X136895550Y-102127333D01*
X136898535Y-102138813D01*
X136901126Y-102150503D01*
X136903321Y-102162403D01*
X136905121Y-102174514D01*
X136906527Y-102186835D01*
X136907537Y-102199366D01*
X136907991Y-102207838D01*
X136732136Y-102207838D01*
X136731241Y-102195233D01*
X136729655Y-102183157D01*
X136727377Y-102171608D01*
X136724408Y-102160588D01*
X136720748Y-102150096D01*
X136716397Y-102140132D01*
X136711354Y-102130696D01*
X136705621Y-102121788D01*
X136699196Y-102113408D01*
X136692079Y-102105556D01*
X136686951Y-102100615D01*
X136678826Y-102093675D01*
X136670202Y-102087417D01*
X136661080Y-102081842D01*
X136651460Y-102076950D01*
X136641342Y-102072741D01*
X136630726Y-102069214D01*
X136619612Y-102066369D01*
X136608000Y-102064208D01*
X136595890Y-102062728D01*
X136583282Y-102061932D01*
X136574600Y-102061780D01*
X136560865Y-102062152D01*
X136547689Y-102063266D01*
X136535071Y-102065123D01*
X136523011Y-102067722D01*
X136511509Y-102071065D01*
X136500565Y-102075150D01*
X136490180Y-102079978D01*
X136480352Y-102085548D01*
X136471083Y-102091862D01*
X136462372Y-102098918D01*
X136456875Y-102104034D01*
X136449236Y-102112240D01*
X136442349Y-102121013D01*
X136436213Y-102130353D01*
X136430828Y-102140259D01*
X136426195Y-102150732D01*
X136422313Y-102161771D01*
X136419183Y-102173377D01*
X136416803Y-102185550D01*
X136415176Y-102198290D01*
X136414299Y-102211597D01*
X136414132Y-102220782D01*
X136414132Y-102655535D01*
X136414503Y-102669219D01*
X136415618Y-102682337D01*
X136417474Y-102694887D01*
X136420074Y-102706872D01*
X136423416Y-102718289D01*
X136427502Y-102729140D01*
X136432329Y-102739424D01*
X136437900Y-102749141D01*
X136444213Y-102758291D01*
X136451269Y-102766875D01*
X136456386Y-102772283D01*
X136464592Y-102779834D01*
X136473365Y-102786643D01*
X136482704Y-102792708D01*
X136492610Y-102798031D01*
X136503083Y-102802612D01*
X136514123Y-102806449D01*
X136525729Y-102809544D01*
X136537902Y-102811896D01*
X136550642Y-102813505D01*
X136563948Y-102814372D01*
X136573134Y-102814537D01*
X136586336Y-102814185D01*
X136599014Y-102813129D01*
X136611169Y-102811368D01*
X136622799Y-102808904D01*
X136633906Y-102805736D01*
X136644489Y-102801863D01*
X136654549Y-102797286D01*
X136664084Y-102792005D01*
X136673096Y-102786021D01*
X136681584Y-102779332D01*
X136686951Y-102774481D01*
X136694528Y-102766745D01*
X136701414Y-102758558D01*
X136707609Y-102749921D01*
X136713112Y-102740833D01*
X136717924Y-102731294D01*
X136722045Y-102721304D01*
X136725475Y-102710863D01*
X136728213Y-102699972D01*
X136730260Y-102688629D01*
X136731616Y-102676836D01*
X136732136Y-102668724D01*
X136907991Y-102668724D01*
X136907244Y-102681396D01*
X136906102Y-102693857D01*
X136904565Y-102706108D01*
X136902633Y-102718149D01*
X136900306Y-102729979D01*
X136897584Y-102741599D01*
X136894467Y-102753008D01*
X136890955Y-102764208D01*
X136887048Y-102775196D01*
X136882746Y-102785975D01*
X136879659Y-102793043D01*
X136874779Y-102803383D01*
X136869572Y-102813425D01*
X136864040Y-102823172D01*
X136858181Y-102832622D01*
X136851996Y-102841776D01*
X136845484Y-102850634D01*
X136838646Y-102859196D01*
X136831482Y-102867461D01*
X136823992Y-102875430D01*
X136816175Y-102883103D01*
X136810782Y-102888054D01*
X136802487Y-102895225D01*
X136793904Y-102902082D01*
X136785033Y-102908625D01*
X136775875Y-102914856D01*
X136766429Y-102920773D01*
X136756695Y-102926376D01*
X136746674Y-102931666D01*
X136736365Y-102936643D01*
X136725768Y-102941306D01*
X136714884Y-102945656D01*
X136707468Y-102948382D01*
X136696119Y-102952179D01*
X136684513Y-102955603D01*
X136672649Y-102958654D01*
X136660527Y-102961331D01*
X136648148Y-102963634D01*
X136635512Y-102965564D01*
X136622617Y-102967120D01*
X136609465Y-102968303D01*
X136596056Y-102969112D01*
X136582389Y-102969548D01*
X136573134Y-102969631D01*
G37*
G36*
X137060643Y-102681913D02*
G01*
X137239184Y-102681913D01*
X137240103Y-102693567D01*
X137241760Y-102704713D01*
X137244156Y-102715354D01*
X137247290Y-102725487D01*
X137251163Y-102735114D01*
X137255774Y-102744235D01*
X137261123Y-102752849D01*
X137267211Y-102760956D01*
X137274038Y-102768557D01*
X137281603Y-102775651D01*
X137287056Y-102780099D01*
X137295768Y-102786253D01*
X137305051Y-102791802D01*
X137314905Y-102796746D01*
X137325330Y-102801084D01*
X137336326Y-102804817D01*
X137347893Y-102807945D01*
X137360030Y-102810467D01*
X137372739Y-102812384D01*
X137386019Y-102813696D01*
X137399870Y-102814402D01*
X137409422Y-102814537D01*
X137423890Y-102814221D01*
X137437709Y-102813275D01*
X137450880Y-102811697D01*
X137463403Y-102809488D01*
X137475278Y-102806648D01*
X137486504Y-102803177D01*
X137497082Y-102799074D01*
X137507012Y-102794341D01*
X137516293Y-102788976D01*
X137524927Y-102782981D01*
X137530322Y-102778633D01*
X137537873Y-102771643D01*
X137544682Y-102764228D01*
X137550747Y-102756387D01*
X137556070Y-102748122D01*
X137560651Y-102739431D01*
X137564488Y-102730316D01*
X137567583Y-102720775D01*
X137569935Y-102710810D01*
X137571544Y-102700419D01*
X137572411Y-102689604D01*
X137572576Y-102682157D01*
X137572297Y-102672294D01*
X137571057Y-102659517D01*
X137568824Y-102647168D01*
X137565599Y-102635245D01*
X137561382Y-102623751D01*
X137556173Y-102612683D01*
X137549972Y-102602044D01*
X137542778Y-102591831D01*
X137540824Y-102589345D01*
X137532539Y-102579823D01*
X137523437Y-102571042D01*
X137513519Y-102563001D01*
X137502784Y-102555700D01*
X137494196Y-102550711D01*
X137485149Y-102546138D01*
X137475643Y-102541981D01*
X137465678Y-102538241D01*
X137455253Y-102534917D01*
X137451676Y-102533902D01*
X137339080Y-102502394D01*
X137323326Y-102497711D01*
X137308061Y-102492697D01*
X137293284Y-102487354D01*
X137278996Y-102481680D01*
X137265196Y-102475676D01*
X137251885Y-102469342D01*
X137239062Y-102462677D01*
X137226728Y-102455683D01*
X137214882Y-102448359D01*
X137203525Y-102440704D01*
X137192656Y-102432719D01*
X137182276Y-102424405D01*
X137172384Y-102415760D01*
X137162981Y-102406785D01*
X137154066Y-102397480D01*
X137145639Y-102387845D01*
X137137713Y-102377896D01*
X137130298Y-102367649D01*
X137123394Y-102357104D01*
X137117002Y-102346262D01*
X137111121Y-102335122D01*
X137105752Y-102323685D01*
X137100893Y-102311950D01*
X137096547Y-102299917D01*
X137092711Y-102287587D01*
X137089387Y-102274959D01*
X137086575Y-102262033D01*
X137084273Y-102248809D01*
X137082484Y-102235288D01*
X137081205Y-102221469D01*
X137080438Y-102207353D01*
X137080182Y-102192939D01*
X137080386Y-102180910D01*
X137080998Y-102169096D01*
X137082018Y-102157497D01*
X137083445Y-102146113D01*
X137085281Y-102134943D01*
X137087524Y-102123988D01*
X137090175Y-102113247D01*
X137093234Y-102102722D01*
X137096701Y-102092410D01*
X137100576Y-102082314D01*
X137103385Y-102075702D01*
X137107945Y-102065989D01*
X137112831Y-102056543D01*
X137118043Y-102047362D01*
X137123581Y-102038448D01*
X137129446Y-102029799D01*
X137135637Y-102021417D01*
X137142154Y-102013302D01*
X137148998Y-102005452D01*
X137156168Y-101997868D01*
X137163664Y-101990551D01*
X137168842Y-101985821D01*
X137176924Y-101978960D01*
X137185323Y-101972391D01*
X137194040Y-101966114D01*
X137203075Y-101960130D01*
X137212427Y-101954437D01*
X137222097Y-101949036D01*
X137232085Y-101943927D01*
X137242390Y-101939109D01*
X137253013Y-101934584D01*
X137263954Y-101930351D01*
X137271424Y-101927691D01*
X137282919Y-101923937D01*
X137294689Y-101920553D01*
X137306733Y-101917537D01*
X137319052Y-101914891D01*
X137331646Y-101912614D01*
X137344514Y-101910707D01*
X137357657Y-101909168D01*
X137371076Y-101907999D01*
X137384768Y-101907199D01*
X137398736Y-101906768D01*
X137408200Y-101906686D01*
X137421509Y-101906856D01*
X137434599Y-101907365D01*
X137447469Y-101908212D01*
X137460121Y-101909400D01*
X137472554Y-101910926D01*
X137484768Y-101912791D01*
X137496763Y-101914996D01*
X137508538Y-101917540D01*
X137520095Y-101920423D01*
X137531433Y-101923645D01*
X137538870Y-101925981D01*
X137549805Y-101929752D01*
X137560443Y-101933827D01*
X137570785Y-101938207D01*
X137580831Y-101942891D01*
X137590580Y-101947881D01*
X137600033Y-101953175D01*
X137609190Y-101958775D01*
X137618051Y-101964679D01*
X137626615Y-101970887D01*
X137634884Y-101977401D01*
X137640231Y-101981913D01*
X137647997Y-101988876D01*
X137655450Y-101996118D01*
X137662589Y-102003639D01*
X137669414Y-102011440D01*
X137675927Y-102019519D01*
X137682126Y-102027877D01*
X137688011Y-102036515D01*
X137693583Y-102045431D01*
X137698842Y-102054627D01*
X137703787Y-102064102D01*
X137706909Y-102070573D01*
X137711344Y-102080481D01*
X137715396Y-102090603D01*
X137719066Y-102100940D01*
X137722354Y-102111491D01*
X137725260Y-102122258D01*
X137727784Y-102133239D01*
X137729925Y-102144434D01*
X137731685Y-102155844D01*
X137733062Y-102167469D01*
X137734058Y-102179309D01*
X137734509Y-102187321D01*
X137555723Y-102187321D01*
X137554885Y-102176466D01*
X137553376Y-102166066D01*
X137551198Y-102156122D01*
X137548350Y-102146632D01*
X137543511Y-102134687D01*
X137537481Y-102123551D01*
X137530261Y-102113224D01*
X137521850Y-102103706D01*
X137512248Y-102094997D01*
X137504364Y-102089061D01*
X137496008Y-102083709D01*
X137487179Y-102078940D01*
X137477878Y-102074756D01*
X137468105Y-102071155D01*
X137457860Y-102068138D01*
X137447142Y-102065705D01*
X137435953Y-102063856D01*
X137424290Y-102062591D01*
X137412156Y-102061910D01*
X137403804Y-102061780D01*
X137391147Y-102062085D01*
X137379006Y-102063000D01*
X137367379Y-102064524D01*
X137356268Y-102066658D01*
X137345672Y-102069401D01*
X137335592Y-102072754D01*
X137326026Y-102076717D01*
X137316976Y-102081289D01*
X137308441Y-102086471D01*
X137300421Y-102092263D01*
X137295360Y-102096463D01*
X137286144Y-102105389D01*
X137278156Y-102114949D01*
X137271398Y-102125142D01*
X137265868Y-102135969D01*
X137261567Y-102147429D01*
X137258495Y-102159523D01*
X137256652Y-102172251D01*
X137256076Y-102182212D01*
X137256037Y-102185612D01*
X137256510Y-102197937D01*
X137257930Y-102209757D01*
X137260296Y-102221072D01*
X137263609Y-102231880D01*
X137267868Y-102242183D01*
X137273073Y-102251981D01*
X137279225Y-102261272D01*
X137286323Y-102270058D01*
X137294368Y-102278339D01*
X137303359Y-102286114D01*
X137313297Y-102293383D01*
X137324181Y-102300146D01*
X137336011Y-102306404D01*
X137348788Y-102312156D01*
X137362512Y-102317402D01*
X137377182Y-102322143D01*
X137495395Y-102356826D01*
X137510645Y-102361311D01*
X137525437Y-102366157D01*
X137539771Y-102371363D01*
X137553647Y-102376930D01*
X137567065Y-102382858D01*
X137580025Y-102389146D01*
X137592528Y-102395795D01*
X137604572Y-102402804D01*
X137616158Y-102410175D01*
X137627286Y-102417906D01*
X137637957Y-102425997D01*
X137648169Y-102434449D01*
X137657924Y-102443262D01*
X137667220Y-102452435D01*
X137676059Y-102461969D01*
X137684439Y-102471864D01*
X137692366Y-102482097D01*
X137699781Y-102492644D01*
X137706684Y-102503506D01*
X137713077Y-102514683D01*
X137718958Y-102526175D01*
X137724327Y-102537981D01*
X137729185Y-102550103D01*
X137733532Y-102562539D01*
X137737367Y-102575290D01*
X137740691Y-102588357D01*
X137743504Y-102601737D01*
X137745805Y-102615433D01*
X137747595Y-102629444D01*
X137748873Y-102643769D01*
X137749641Y-102658409D01*
X137749896Y-102673364D01*
X137749679Y-102685631D01*
X137749029Y-102697699D01*
X137747945Y-102709570D01*
X137746427Y-102721244D01*
X137744476Y-102732720D01*
X137742091Y-102743998D01*
X137739272Y-102755079D01*
X137736020Y-102765963D01*
X137732334Y-102776649D01*
X137728215Y-102787138D01*
X137725228Y-102794020D01*
X137720466Y-102804139D01*
X137715339Y-102813979D01*
X137709847Y-102823539D01*
X137703990Y-102832821D01*
X137697768Y-102841823D01*
X137691182Y-102850546D01*
X137684230Y-102858991D01*
X137676913Y-102867156D01*
X137669232Y-102875042D01*
X137661186Y-102882649D01*
X137655618Y-102887565D01*
X137647031Y-102894697D01*
X137638122Y-102901527D01*
X137628890Y-102908058D01*
X137619337Y-102914287D01*
X137609462Y-102920216D01*
X137599264Y-102925845D01*
X137588745Y-102931173D01*
X137577903Y-102936200D01*
X137566740Y-102940927D01*
X137555255Y-102945354D01*
X137547419Y-102948138D01*
X137535420Y-102951979D01*
X137523147Y-102955442D01*
X137510599Y-102958528D01*
X137497777Y-102961235D01*
X137484679Y-102963565D01*
X137471307Y-102965517D01*
X137457660Y-102967091D01*
X137443738Y-102968288D01*
X137429541Y-102969106D01*
X137415070Y-102969547D01*
X137405270Y-102969631D01*
X137391143Y-102969449D01*
X137377248Y-102968901D01*
X137363586Y-102967989D01*
X137350155Y-102966712D01*
X137336956Y-102965069D01*
X137323988Y-102963062D01*
X137311253Y-102960690D01*
X137298749Y-102957953D01*
X137286477Y-102954851D01*
X137274437Y-102951384D01*
X137266540Y-102948870D01*
X137254971Y-102944834D01*
X137243711Y-102940510D01*
X137232760Y-102935898D01*
X137222118Y-102930999D01*
X137211785Y-102925812D01*
X137201762Y-102920337D01*
X137192047Y-102914575D01*
X137182642Y-102908525D01*
X137173546Y-102902187D01*
X137164759Y-102895562D01*
X137159073Y-102890985D01*
X137150818Y-102883843D01*
X137142907Y-102876430D01*
X137135339Y-102868748D01*
X137128115Y-102860794D01*
X137121234Y-102852570D01*
X137114697Y-102844076D01*
X137108503Y-102835311D01*
X137102653Y-102826276D01*
X137097146Y-102816970D01*
X137091982Y-102807394D01*
X137088731Y-102800859D01*
X137084168Y-102790808D01*
X137080004Y-102780529D01*
X137076239Y-102770022D01*
X137072874Y-102759288D01*
X137069908Y-102748327D01*
X137067341Y-102737138D01*
X137065174Y-102725721D01*
X137063406Y-102714077D01*
X137062037Y-102702205D01*
X137061067Y-102690106D01*
X137060643Y-102681913D01*
G37*
G36*
X138262747Y-101922483D02*
G01*
X138276584Y-101922979D01*
X138290150Y-101923805D01*
X138303446Y-101924962D01*
X138316471Y-101926450D01*
X138329226Y-101928268D01*
X138341710Y-101930417D01*
X138353924Y-101932896D01*
X138365867Y-101935706D01*
X138377540Y-101938847D01*
X138385172Y-101941124D01*
X138396366Y-101944744D01*
X138407234Y-101948643D01*
X138417775Y-101952822D01*
X138427991Y-101957279D01*
X138437880Y-101962015D01*
X138447442Y-101967030D01*
X138456679Y-101972325D01*
X138465589Y-101977898D01*
X138474173Y-101983751D01*
X138482430Y-101989882D01*
X138487754Y-101994125D01*
X138495509Y-102000715D01*
X138502929Y-102007572D01*
X138510015Y-102014694D01*
X138516765Y-102022083D01*
X138523181Y-102029738D01*
X138529262Y-102037659D01*
X138535008Y-102045847D01*
X138540419Y-102054300D01*
X138545495Y-102063020D01*
X138550236Y-102072006D01*
X138553211Y-102078145D01*
X138557358Y-102087548D01*
X138561096Y-102097167D01*
X138564427Y-102107000D01*
X138567350Y-102117048D01*
X138569865Y-102127310D01*
X138571973Y-102137788D01*
X138573672Y-102148479D01*
X138574964Y-102159386D01*
X138575848Y-102170507D01*
X138576323Y-102181843D01*
X138576414Y-102189519D01*
X138576211Y-102201225D01*
X138575601Y-102212650D01*
X138574585Y-102223794D01*
X138573163Y-102234659D01*
X138571334Y-102245242D01*
X138569098Y-102255545D01*
X138566456Y-102265568D01*
X138563408Y-102275310D01*
X138559953Y-102284771D01*
X138556092Y-102293952D01*
X138551825Y-102302853D01*
X138547151Y-102311473D01*
X138539378Y-102323877D01*
X138530690Y-102335650D01*
X138524390Y-102343148D01*
X138517738Y-102350304D01*
X138507203Y-102360279D01*
X138495997Y-102369343D01*
X138484122Y-102377498D01*
X138471577Y-102384742D01*
X138458362Y-102391076D01*
X138449180Y-102394793D01*
X138439700Y-102398106D01*
X138429923Y-102401014D01*
X138419848Y-102403517D01*
X138409475Y-102405616D01*
X138398805Y-102407311D01*
X138387837Y-102408600D01*
X138382241Y-102409094D01*
X138382241Y-102426435D01*
X138394557Y-102426682D01*
X138406532Y-102427423D01*
X138418165Y-102428659D01*
X138429456Y-102430389D01*
X138440406Y-102432613D01*
X138451014Y-102435331D01*
X138461281Y-102438543D01*
X138471206Y-102442250D01*
X138480790Y-102446450D01*
X138490032Y-102451145D01*
X138498933Y-102456335D01*
X138507492Y-102462018D01*
X138515709Y-102468196D01*
X138523585Y-102474868D01*
X138531119Y-102482034D01*
X138538312Y-102489694D01*
X138545144Y-102497764D01*
X138551536Y-102506161D01*
X138557486Y-102514884D01*
X138562996Y-102523934D01*
X138568065Y-102533309D01*
X138572693Y-102543011D01*
X138576881Y-102553040D01*
X138580627Y-102563394D01*
X138583933Y-102574075D01*
X138586798Y-102585082D01*
X138589222Y-102596416D01*
X138591206Y-102608075D01*
X138592749Y-102620061D01*
X138593851Y-102632374D01*
X138594512Y-102645012D01*
X138594732Y-102657977D01*
X138594528Y-102670505D01*
X138593916Y-102682810D01*
X138592897Y-102694891D01*
X138591469Y-102706749D01*
X138589634Y-102718384D01*
X138587391Y-102729796D01*
X138584739Y-102740984D01*
X138581681Y-102751950D01*
X138578214Y-102762692D01*
X138574339Y-102773210D01*
X138571529Y-102780099D01*
X138566998Y-102790174D01*
X138562107Y-102799974D01*
X138556855Y-102809499D01*
X138551242Y-102818750D01*
X138545268Y-102827726D01*
X138538934Y-102836427D01*
X138532239Y-102844853D01*
X138525184Y-102853005D01*
X138517768Y-102860882D01*
X138509991Y-102868484D01*
X138504607Y-102873399D01*
X138496292Y-102880524D01*
X138487651Y-102887336D01*
X138478683Y-102893833D01*
X138469390Y-102900018D01*
X138459770Y-102905889D01*
X138449824Y-102911447D01*
X138439551Y-102916691D01*
X138428952Y-102921622D01*
X138418027Y-102926240D01*
X138406776Y-102930544D01*
X138399094Y-102933239D01*
X138387370Y-102936949D01*
X138375372Y-102940294D01*
X138363098Y-102943275D01*
X138350550Y-102945890D01*
X138337728Y-102948140D01*
X138324630Y-102950026D01*
X138311258Y-102951546D01*
X138297611Y-102952702D01*
X138283689Y-102953493D01*
X138269492Y-102953918D01*
X138259875Y-102954000D01*
X137926484Y-102954000D01*
X137926484Y-102500685D01*
X138098187Y-102500685D01*
X138098187Y-102798905D01*
X138248640Y-102798905D01*
X138263121Y-102798560D01*
X138276979Y-102797523D01*
X138290215Y-102795795D01*
X138302828Y-102793375D01*
X138314818Y-102790265D01*
X138326186Y-102786463D01*
X138336932Y-102781970D01*
X138347055Y-102776786D01*
X138356555Y-102770911D01*
X138365433Y-102764344D01*
X138371006Y-102759582D01*
X138378819Y-102751936D01*
X138385864Y-102743746D01*
X138392140Y-102735009D01*
X138397647Y-102725728D01*
X138402386Y-102715901D01*
X138406357Y-102705529D01*
X138409559Y-102694612D01*
X138411993Y-102683149D01*
X138413658Y-102671142D01*
X138414554Y-102658589D01*
X138414725Y-102649917D01*
X138414341Y-102636957D01*
X138413188Y-102624546D01*
X138411267Y-102612685D01*
X138408577Y-102601374D01*
X138405119Y-102590612D01*
X138400892Y-102580400D01*
X138395897Y-102570737D01*
X138390133Y-102561623D01*
X138383601Y-102553060D01*
X138376300Y-102545045D01*
X138371006Y-102540008D01*
X138362543Y-102532980D01*
X138353458Y-102526644D01*
X138343750Y-102520999D01*
X138333419Y-102516045D01*
X138322466Y-102511783D01*
X138310891Y-102508211D01*
X138298692Y-102505331D01*
X138285872Y-102503142D01*
X138272429Y-102501645D01*
X138258363Y-102500838D01*
X138248640Y-102500685D01*
X138098187Y-102500685D01*
X137926484Y-102500685D01*
X137926484Y-102077412D01*
X138098187Y-102077412D01*
X138098187Y-102345591D01*
X138245953Y-102345591D01*
X138258621Y-102345273D01*
X138270795Y-102344320D01*
X138282475Y-102342731D01*
X138293661Y-102340507D01*
X138304353Y-102337648D01*
X138314552Y-102334153D01*
X138324257Y-102330023D01*
X138333469Y-102325257D01*
X138342186Y-102319856D01*
X138350410Y-102313820D01*
X138355618Y-102309443D01*
X138362908Y-102302433D01*
X138369480Y-102294960D01*
X138375336Y-102287023D01*
X138380474Y-102278622D01*
X138384895Y-102269758D01*
X138388600Y-102260430D01*
X138391587Y-102250638D01*
X138393858Y-102240383D01*
X138395411Y-102229664D01*
X138396248Y-102218481D01*
X138396407Y-102210769D01*
X138396055Y-102199283D01*
X138394999Y-102188274D01*
X138393239Y-102177742D01*
X138390774Y-102167686D01*
X138387606Y-102158107D01*
X138383733Y-102149005D01*
X138377474Y-102137609D01*
X138369964Y-102127061D01*
X138363510Y-102119706D01*
X138356351Y-102112827D01*
X138348587Y-102106498D01*
X138340317Y-102100791D01*
X138331540Y-102095707D01*
X138322256Y-102091246D01*
X138312466Y-102087407D01*
X138302169Y-102084191D01*
X138291366Y-102081597D01*
X138280056Y-102079625D01*
X138268239Y-102078277D01*
X138255916Y-102077550D01*
X138247419Y-102077412D01*
X138098187Y-102077412D01*
X137926484Y-102077412D01*
X137926484Y-101922318D01*
X138248640Y-101922318D01*
X138262747Y-101922483D01*
G37*
%TO.C,D1*%
G36*
X146658822Y-112603060D02*
G01*
X146672410Y-112603711D01*
X146685744Y-112604795D01*
X146698825Y-112606312D01*
X146711653Y-112608264D01*
X146724228Y-112610649D01*
X146736549Y-112613467D01*
X146748617Y-112616720D01*
X146760431Y-112620405D01*
X146771992Y-112624525D01*
X146779559Y-112627512D01*
X146790675Y-112632318D01*
X146801490Y-112637484D01*
X146812004Y-112643011D01*
X146822218Y-112648899D01*
X146832131Y-112655147D01*
X146841744Y-112661756D01*
X146851056Y-112668725D01*
X146860068Y-112676055D01*
X146868779Y-112683746D01*
X146877190Y-112691797D01*
X146882630Y-112697365D01*
X146890520Y-112705953D01*
X146898071Y-112714862D01*
X146905283Y-112724094D01*
X146912156Y-112733647D01*
X146918690Y-112743522D01*
X146924885Y-112753720D01*
X146930740Y-112764239D01*
X146936256Y-112775080D01*
X146941433Y-112786244D01*
X146946271Y-112797729D01*
X146949308Y-112805565D01*
X146953542Y-112817551D01*
X146957359Y-112829785D01*
X146960760Y-112842269D01*
X146963745Y-112855001D01*
X146966313Y-112867983D01*
X146968465Y-112881214D01*
X146970200Y-112894693D01*
X146971519Y-112908422D01*
X146972421Y-112922399D01*
X146972907Y-112936626D01*
X146973000Y-112946249D01*
X146973000Y-113258636D01*
X145941318Y-113258636D01*
X145941318Y-113082781D01*
X146096412Y-113082781D01*
X146817905Y-113082781D01*
X146817905Y-112946249D01*
X146817497Y-112932279D01*
X146816274Y-112918855D01*
X146814234Y-112905975D01*
X146811379Y-112893641D01*
X146807709Y-112881853D01*
X146803222Y-112870609D01*
X146797920Y-112859911D01*
X146791802Y-112849758D01*
X146784868Y-112840150D01*
X146777119Y-112831087D01*
X146771499Y-112825349D01*
X146762547Y-112817274D01*
X146753092Y-112809993D01*
X146743135Y-112803506D01*
X146732676Y-112797814D01*
X146721714Y-112792916D01*
X146710250Y-112788812D01*
X146698284Y-112785503D01*
X146685816Y-112782988D01*
X146672845Y-112781267D01*
X146659372Y-112780340D01*
X146650110Y-112780164D01*
X146262741Y-112780164D01*
X146248940Y-112780561D01*
X146235653Y-112781752D01*
X146222882Y-112783738D01*
X146210626Y-112786518D01*
X146198885Y-112790092D01*
X146187660Y-112794461D01*
X146176949Y-112799623D01*
X146166754Y-112805580D01*
X146157074Y-112812332D01*
X146147909Y-112819877D01*
X146142085Y-112825349D01*
X146133923Y-112834048D01*
X146126564Y-112843292D01*
X146120007Y-112853081D01*
X146114253Y-112863416D01*
X146109302Y-112874296D01*
X146105154Y-112885722D01*
X146101809Y-112897692D01*
X146099267Y-112910208D01*
X146097527Y-112923269D01*
X146096590Y-112936875D01*
X146096412Y-112946249D01*
X146096412Y-113082781D01*
X145941318Y-113082781D01*
X145941318Y-112946249D01*
X145941526Y-112931856D01*
X145942151Y-112917713D01*
X145943192Y-112903818D01*
X145944649Y-112890172D01*
X145946523Y-112876776D01*
X145948814Y-112863628D01*
X145951521Y-112850729D01*
X145954644Y-112838080D01*
X145958184Y-112825679D01*
X145962140Y-112813528D01*
X145965009Y-112805565D01*
X145969621Y-112793865D01*
X145974572Y-112782487D01*
X145979862Y-112771431D01*
X145985491Y-112760697D01*
X145991460Y-112750285D01*
X145997767Y-112740195D01*
X146004414Y-112730427D01*
X146011400Y-112720981D01*
X146018725Y-112711857D01*
X146026390Y-112703055D01*
X146031688Y-112697365D01*
X146039898Y-112689074D01*
X146048409Y-112681142D01*
X146057220Y-112673572D01*
X146066332Y-112666362D01*
X146075744Y-112659513D01*
X146085457Y-112653024D01*
X146095471Y-112646896D01*
X146105785Y-112641129D01*
X146116399Y-112635722D01*
X146127314Y-112630676D01*
X146134758Y-112627512D01*
X146146140Y-112623103D01*
X146157753Y-112619129D01*
X146169598Y-112615587D01*
X146181676Y-112612480D01*
X146193985Y-112609806D01*
X146206525Y-112607565D01*
X146219298Y-112605758D01*
X146232303Y-112604385D01*
X146245539Y-112603446D01*
X146259007Y-112602940D01*
X146268115Y-112602843D01*
X146644981Y-112602843D01*
X146658822Y-112603060D01*
G37*
G36*
X146817905Y-112412334D02*
G01*
X146817905Y-112130966D01*
X146231234Y-112130966D01*
X146219342Y-112130856D01*
X146207848Y-112130524D01*
X146196750Y-112129970D01*
X146186049Y-112129196D01*
X146175745Y-112128199D01*
X146165838Y-112126982D01*
X146154012Y-112125149D01*
X146147214Y-112123883D01*
X146136889Y-112122846D01*
X146126795Y-112121385D01*
X146116934Y-112119498D01*
X146111555Y-112118266D01*
X146111555Y-112129501D01*
X146118440Y-112137225D01*
X146125324Y-112144949D01*
X146131583Y-112151971D01*
X146137307Y-112160604D01*
X146143279Y-112168879D01*
X146148680Y-112175907D01*
X146154915Y-112183964D01*
X146161102Y-112192260D01*
X146167241Y-112200794D01*
X146168464Y-112202529D01*
X146302553Y-112406716D01*
X146115951Y-112406716D01*
X145941318Y-112159054D01*
X145941318Y-111955111D01*
X146817905Y-111955111D01*
X146817905Y-111737003D01*
X146973000Y-111737003D01*
X146973000Y-112412334D01*
X146817905Y-112412334D01*
G37*
%TO.C,R1*%
G36*
X135756345Y-110127515D02*
G01*
X135770233Y-110128108D01*
X135783885Y-110129095D01*
X135797301Y-110130478D01*
X135810481Y-110132255D01*
X135823425Y-110134427D01*
X135836132Y-110136995D01*
X135848603Y-110139957D01*
X135860839Y-110143315D01*
X135872838Y-110147067D01*
X135880706Y-110149788D01*
X135892306Y-110154160D01*
X135903567Y-110158850D01*
X135914488Y-110163857D01*
X135925071Y-110169182D01*
X135935314Y-110174825D01*
X135945218Y-110180786D01*
X135954783Y-110187064D01*
X135964008Y-110193660D01*
X135972895Y-110200574D01*
X135981442Y-110207805D01*
X135986952Y-110212803D01*
X135994975Y-110220559D01*
X136002651Y-110228625D01*
X136009979Y-110237000D01*
X136016959Y-110245684D01*
X136023592Y-110254677D01*
X136029876Y-110263979D01*
X136035813Y-110273591D01*
X136041403Y-110283511D01*
X136046644Y-110293741D01*
X136051538Y-110304279D01*
X136054607Y-110311477D01*
X136058885Y-110322446D01*
X136062741Y-110333648D01*
X136066178Y-110345081D01*
X136069193Y-110356746D01*
X136071788Y-110368643D01*
X136073961Y-110380771D01*
X136075714Y-110393132D01*
X136077047Y-110405724D01*
X136077958Y-110418548D01*
X136078449Y-110431604D01*
X136078543Y-110440437D01*
X136078347Y-110453358D01*
X136077760Y-110466048D01*
X136076783Y-110478507D01*
X136075413Y-110490736D01*
X136073653Y-110502733D01*
X136071502Y-110514500D01*
X136068959Y-110526036D01*
X136066025Y-110537340D01*
X136062700Y-110548414D01*
X136058984Y-110559257D01*
X136054877Y-110569870D01*
X136050379Y-110580251D01*
X136045489Y-110590401D01*
X136040208Y-110600321D01*
X136034536Y-110610009D01*
X136028473Y-110619467D01*
X136022093Y-110628619D01*
X136015410Y-110637449D01*
X136008423Y-110645960D01*
X136001133Y-110654150D01*
X135993540Y-110662019D01*
X135985643Y-110669567D01*
X135977443Y-110676795D01*
X135968939Y-110683703D01*
X135960132Y-110690290D01*
X135951021Y-110696556D01*
X135941608Y-110702502D01*
X135931890Y-110708127D01*
X135921870Y-110713432D01*
X135911546Y-110718416D01*
X135900918Y-110723079D01*
X135889987Y-110727422D01*
X136092709Y-111159000D01*
X135899757Y-111159000D01*
X135717063Y-110752579D01*
X135586149Y-110752579D01*
X135586149Y-111159000D01*
X135410294Y-111159000D01*
X135410294Y-110282412D01*
X135586149Y-110282412D01*
X135586149Y-110611896D01*
X135742220Y-110611896D01*
X135755691Y-110611505D01*
X135768624Y-110610333D01*
X135781021Y-110608379D01*
X135792882Y-110605644D01*
X135804205Y-110602128D01*
X135814992Y-110597831D01*
X135825243Y-110592752D01*
X135834956Y-110586891D01*
X135844133Y-110580249D01*
X135852774Y-110572826D01*
X135858236Y-110567443D01*
X135865918Y-110558844D01*
X135872845Y-110549718D01*
X135879016Y-110540063D01*
X135884431Y-110529880D01*
X135889091Y-110519168D01*
X135892995Y-110507929D01*
X135896143Y-110496162D01*
X135898536Y-110483866D01*
X135900173Y-110471043D01*
X135901055Y-110457691D01*
X135901223Y-110448497D01*
X135900838Y-110434569D01*
X135899686Y-110421177D01*
X135897764Y-110408322D01*
X135895074Y-110396004D01*
X135891616Y-110384222D01*
X135887389Y-110372977D01*
X135882394Y-110362269D01*
X135876630Y-110352097D01*
X135870098Y-110342463D01*
X135862797Y-110333364D01*
X135857503Y-110327597D01*
X135849102Y-110319522D01*
X135840204Y-110312241D01*
X135830807Y-110305755D01*
X135820912Y-110300062D01*
X135810520Y-110295164D01*
X135799629Y-110291061D01*
X135788240Y-110287751D01*
X135776353Y-110285236D01*
X135763969Y-110283515D01*
X135751086Y-110282588D01*
X135742220Y-110282412D01*
X135586149Y-110282412D01*
X135410294Y-110282412D01*
X135410294Y-110127318D01*
X135742220Y-110127318D01*
X135756345Y-110127515D01*
G37*
G36*
X136253665Y-111003905D02*
G01*
X136535033Y-111003905D01*
X136535033Y-110417234D01*
X136535143Y-110405342D01*
X136535475Y-110393848D01*
X136536029Y-110382750D01*
X136536803Y-110372049D01*
X136537800Y-110361745D01*
X136539017Y-110351838D01*
X136540850Y-110340012D01*
X136542116Y-110333214D01*
X136543153Y-110322889D01*
X136544614Y-110312795D01*
X136546501Y-110302934D01*
X136547733Y-110297555D01*
X136536498Y-110297555D01*
X136528774Y-110304440D01*
X136521050Y-110311324D01*
X136514028Y-110317583D01*
X136505395Y-110323307D01*
X136497120Y-110329279D01*
X136490092Y-110334680D01*
X136482035Y-110340915D01*
X136473739Y-110347102D01*
X136465205Y-110353241D01*
X136463470Y-110354464D01*
X136259283Y-110488553D01*
X136259283Y-110301951D01*
X136506945Y-110127318D01*
X136710888Y-110127318D01*
X136710888Y-111003905D01*
X136928996Y-111003905D01*
X136928996Y-111159000D01*
X136253665Y-111159000D01*
X136253665Y-111003905D01*
G37*
D11*
%TO.C,J2*%
G36*
X138310609Y-114157643D02*
G01*
X138322384Y-114156039D01*
X138333713Y-114153791D01*
X138344595Y-114150898D01*
X138355030Y-114147362D01*
X138365020Y-114143182D01*
X138374562Y-114138358D01*
X138383658Y-114132889D01*
X138392308Y-114126777D01*
X138400511Y-114120021D01*
X138408268Y-114112620D01*
X138413191Y-114107329D01*
X138420044Y-114098934D01*
X138426222Y-114090144D01*
X138431727Y-114080960D01*
X138436558Y-114071380D01*
X138440715Y-114061405D01*
X138444197Y-114051035D01*
X138447006Y-114040270D01*
X138449140Y-114029110D01*
X138450601Y-114017556D01*
X138451387Y-114005606D01*
X138451537Y-113997420D01*
X138451142Y-113983457D01*
X138449957Y-113970051D01*
X138447982Y-113957204D01*
X138445217Y-113944915D01*
X138441662Y-113933184D01*
X138437317Y-113922012D01*
X138432182Y-113911397D01*
X138426258Y-113901341D01*
X138419543Y-113891843D01*
X138412038Y-113882902D01*
X138406596Y-113877252D01*
X138397856Y-113869308D01*
X138388578Y-113862146D01*
X138378765Y-113855764D01*
X138368414Y-113850164D01*
X138357527Y-113845346D01*
X138346103Y-113841309D01*
X138334143Y-113838053D01*
X138321645Y-113835578D01*
X138308612Y-113833885D01*
X138295041Y-113832974D01*
X138285696Y-113832800D01*
X137714412Y-113832800D01*
X137714412Y-114194280D01*
X137559318Y-114194280D01*
X137559318Y-113656945D01*
X138287161Y-113656945D01*
X138300736Y-113657156D01*
X138314075Y-113657787D01*
X138327177Y-113658839D01*
X138340044Y-113660311D01*
X138352674Y-113662205D01*
X138365068Y-113664519D01*
X138377226Y-113667254D01*
X138389148Y-113670409D01*
X138400834Y-113673986D01*
X138412283Y-113677983D01*
X138419785Y-113680881D01*
X138430757Y-113685549D01*
X138441415Y-113690578D01*
X138451760Y-113695968D01*
X138461791Y-113701718D01*
X138471509Y-113707829D01*
X138480914Y-113714300D01*
X138490005Y-113721133D01*
X138498783Y-113728325D01*
X138507247Y-113735879D01*
X138515398Y-113743793D01*
X138520658Y-113749269D01*
X138528273Y-113757719D01*
X138535550Y-113766491D01*
X138542487Y-113775585D01*
X138549085Y-113785001D01*
X138555344Y-113794739D01*
X138561264Y-113804799D01*
X138566845Y-113815181D01*
X138572086Y-113825885D01*
X138576988Y-113836911D01*
X138581551Y-113848259D01*
X138584405Y-113856003D01*
X138588377Y-113867871D01*
X138591958Y-113880026D01*
X138595149Y-113892469D01*
X138597949Y-113905199D01*
X138600358Y-113918217D01*
X138602377Y-113931523D01*
X138604005Y-113945116D01*
X138605242Y-113958997D01*
X138606088Y-113973166D01*
X138606544Y-113987622D01*
X138606631Y-113997420D01*
X138606323Y-114015311D01*
X138605398Y-114032774D01*
X138603858Y-114049810D01*
X138601700Y-114066418D01*
X138598927Y-114082600D01*
X138595537Y-114098353D01*
X138591531Y-114113679D01*
X138586908Y-114128578D01*
X138581670Y-114143050D01*
X138575814Y-114157094D01*
X138569343Y-114170710D01*
X138562255Y-114183899D01*
X138554551Y-114196661D01*
X138546231Y-114208995D01*
X138537294Y-114220902D01*
X138527741Y-114232381D01*
X138517619Y-114243309D01*
X138507037Y-114253623D01*
X138495996Y-114263322D01*
X138484494Y-114272407D01*
X138472533Y-114280877D01*
X138460112Y-114288733D01*
X138447231Y-114295974D01*
X138433890Y-114302601D01*
X138420090Y-114308614D01*
X138405829Y-114314012D01*
X138391109Y-114318796D01*
X138375928Y-114322965D01*
X138360288Y-114326520D01*
X138344188Y-114329460D01*
X138327628Y-114331786D01*
X138310609Y-114333498D01*
X138310609Y-114157643D01*
G37*
G36*
X137846792Y-113463505D02*
G01*
X137834037Y-113463026D01*
X137821510Y-113462140D01*
X137809210Y-113460845D01*
X137797138Y-113459143D01*
X137785293Y-113457033D01*
X137773676Y-113454515D01*
X137762287Y-113451589D01*
X137751125Y-113448255D01*
X137740190Y-113444513D01*
X137729483Y-113440364D01*
X137722472Y-113437371D01*
X137712131Y-113432561D01*
X137702081Y-113427382D01*
X137692324Y-113421833D01*
X137682859Y-113415916D01*
X137673685Y-113409629D01*
X137664804Y-113402973D01*
X137656214Y-113395948D01*
X137647917Y-113388553D01*
X137639911Y-113380789D01*
X137632197Y-113372656D01*
X137627217Y-113367029D01*
X137619997Y-113358311D01*
X137613081Y-113349283D01*
X137606470Y-113339947D01*
X137600164Y-113330301D01*
X137594162Y-113320346D01*
X137588466Y-113310082D01*
X137583074Y-113299509D01*
X137577987Y-113288627D01*
X137573205Y-113277436D01*
X137568728Y-113265935D01*
X137565912Y-113258097D01*
X137561940Y-113246111D01*
X137558359Y-113233877D01*
X137555168Y-113221393D01*
X137552368Y-113208660D01*
X137549959Y-113195679D01*
X137547940Y-113182448D01*
X137546312Y-113168969D01*
X137545075Y-113155240D01*
X137544229Y-113141262D01*
X137543773Y-113127036D01*
X137543686Y-113117413D01*
X137543877Y-113103533D01*
X137544450Y-113089918D01*
X137545406Y-113076570D01*
X137546743Y-113063489D01*
X137548463Y-113050673D01*
X137550564Y-113038124D01*
X137553048Y-113025840D01*
X137555914Y-113013823D01*
X137559161Y-113002073D01*
X137562791Y-112990588D01*
X137565424Y-112983079D01*
X137569621Y-112972003D01*
X137574154Y-112961215D01*
X137579021Y-112950714D01*
X137584223Y-112940501D01*
X137589760Y-112930575D01*
X137595632Y-112920938D01*
X137601838Y-112911587D01*
X137608380Y-112902525D01*
X137615256Y-112893750D01*
X137622468Y-112885263D01*
X137627461Y-112879765D01*
X137635151Y-112871748D01*
X137643106Y-112864091D01*
X137651328Y-112856795D01*
X137659816Y-112849860D01*
X137668570Y-112843286D01*
X137677590Y-112837072D01*
X137686877Y-112831218D01*
X137696430Y-112825726D01*
X137706248Y-112820594D01*
X137716333Y-112815823D01*
X137723205Y-112812842D01*
X137733720Y-112808695D01*
X137744477Y-112804957D01*
X137755473Y-112801626D01*
X137766710Y-112798703D01*
X137778188Y-112796188D01*
X137789906Y-112794080D01*
X137801864Y-112792381D01*
X137814063Y-112791089D01*
X137826502Y-112790205D01*
X137839182Y-112789730D01*
X137847769Y-112789639D01*
X137857990Y-112789757D01*
X137868139Y-112790111D01*
X137878215Y-112790702D01*
X137888217Y-112791528D01*
X137898147Y-112792591D01*
X137908004Y-112793889D01*
X137917788Y-112795424D01*
X137927499Y-112797195D01*
X137937136Y-112799202D01*
X137946701Y-112801446D01*
X137953037Y-112803072D01*
X137962504Y-112805683D01*
X137971945Y-112808568D01*
X137981360Y-112811728D01*
X137990750Y-112815162D01*
X138000114Y-112818872D01*
X138009452Y-112822856D01*
X138018764Y-112827115D01*
X138028050Y-112831649D01*
X138037311Y-112836457D01*
X138046546Y-112841541D01*
X138052688Y-112845082D01*
X138061856Y-112850630D01*
X138071041Y-112856465D01*
X138080243Y-112862588D01*
X138089462Y-112868999D01*
X138098698Y-112875697D01*
X138107952Y-112882683D01*
X138117223Y-112889957D01*
X138126511Y-112897518D01*
X138135816Y-112905367D01*
X138145138Y-112913504D01*
X138151362Y-112919088D01*
X138160691Y-112927662D01*
X138170084Y-112936533D01*
X138179542Y-112945700D01*
X138189064Y-112955163D01*
X138198650Y-112964923D01*
X138208301Y-112974978D01*
X138218016Y-112985330D01*
X138227795Y-112995978D01*
X138234351Y-113003242D01*
X138240935Y-113010637D01*
X138247547Y-113018163D01*
X138254189Y-113025822D01*
X138378264Y-113173589D01*
X138384625Y-113182362D01*
X138390792Y-113191097D01*
X138396766Y-113199793D01*
X138400002Y-113204608D01*
X138405403Y-113213050D01*
X138410860Y-113221933D01*
X138416202Y-113231097D01*
X138417099Y-113232696D01*
X138422284Y-113242193D01*
X138426849Y-113251453D01*
X138430794Y-113260473D01*
X138431509Y-113262249D01*
X138437127Y-113262249D01*
X138436592Y-113252189D01*
X138436211Y-113241794D01*
X138435982Y-113231062D01*
X138435905Y-113219995D01*
X138435905Y-113209304D01*
X138435905Y-113199153D01*
X138435905Y-113188391D01*
X138435905Y-113178474D01*
X138435905Y-113168287D01*
X138435905Y-113158031D01*
X138435905Y-113147704D01*
X138435905Y-113137307D01*
X138435905Y-113131335D01*
X138435905Y-112776938D01*
X138591000Y-112776938D01*
X138591000Y-113456422D01*
X138406840Y-113456422D01*
X138135487Y-113134266D01*
X138126090Y-113123376D01*
X138116768Y-113112872D01*
X138107520Y-113102753D01*
X138098346Y-113093019D01*
X138089247Y-113083671D01*
X138080223Y-113074709D01*
X138071273Y-113066131D01*
X138062397Y-113057940D01*
X138053596Y-113050134D01*
X138044869Y-113042713D01*
X138036216Y-113035677D01*
X138027638Y-113029028D01*
X138019134Y-113022763D01*
X138010705Y-113016884D01*
X138002350Y-113011391D01*
X137994070Y-113006282D01*
X137981634Y-112999211D01*
X137969057Y-112992836D01*
X137956338Y-112987156D01*
X137943477Y-112982171D01*
X137930475Y-112977882D01*
X137917331Y-112974288D01*
X137904045Y-112971390D01*
X137890618Y-112969188D01*
X137877049Y-112967681D01*
X137863338Y-112966870D01*
X137854119Y-112966715D01*
X137841048Y-112967076D01*
X137828488Y-112968158D01*
X137816438Y-112969961D01*
X137804900Y-112972485D01*
X137793873Y-112975731D01*
X137783356Y-112979698D01*
X137773351Y-112984386D01*
X137763856Y-112989796D01*
X137754872Y-112995927D01*
X137746399Y-113002779D01*
X137741034Y-113007748D01*
X137733483Y-113015655D01*
X137726675Y-113024083D01*
X137720609Y-113033029D01*
X137715286Y-113042495D01*
X137710706Y-113052481D01*
X137706868Y-113062986D01*
X137703773Y-113074010D01*
X137701421Y-113085554D01*
X137699812Y-113097618D01*
X137698945Y-113110201D01*
X137698780Y-113118878D01*
X137699139Y-113132855D01*
X137700214Y-113146298D01*
X137702007Y-113159210D01*
X137704516Y-113171589D01*
X137707743Y-113183436D01*
X137711686Y-113194750D01*
X137716347Y-113205532D01*
X137721724Y-113215782D01*
X137727818Y-113225499D01*
X137734630Y-113234684D01*
X137739569Y-113240511D01*
X137747401Y-113248674D01*
X137755692Y-113256033D01*
X137764442Y-113262590D01*
X137773652Y-113268344D01*
X137783322Y-113273294D01*
X137793450Y-113277443D01*
X137804038Y-113280788D01*
X137815086Y-113283330D01*
X137826593Y-113285070D01*
X137838559Y-113286006D01*
X137846792Y-113286185D01*
X137846792Y-113463505D01*
G37*
D12*
%TO.C,U1*%
X139614000Y-106172000D02*
X139614000Y-107672000D01*
X142834000Y-104672000D02*
X142834000Y-107672000D01*
%TO.C,C2*%
X143115420Y-108456000D02*
X143396580Y-108456000D01*
X143115420Y-109476000D02*
X143396580Y-109476000D01*
%TO.C,JP2*%
X144796000Y-104772000D02*
X146796000Y-104772000D01*
X144796000Y-107572000D02*
X144796000Y-104772000D01*
X146796000Y-104772000D02*
X146796000Y-107572000D01*
X146796000Y-107572000D02*
X144796000Y-107572000D01*
%TO.C,J1*%
X136074000Y-99254000D02*
X136074000Y-101914000D01*
X143753999Y-99254000D02*
X136074000Y-99254000D01*
X143753999Y-99254000D02*
X143753999Y-101914000D01*
X143753999Y-101914000D02*
X136074000Y-101914000D01*
X145024000Y-99254000D02*
X146354000Y-99254000D01*
X146354000Y-99254000D02*
X146354000Y-100584000D01*
%TO.C,D1*%
X144553000Y-112484000D02*
X144553000Y-114769000D01*
X144553000Y-114769000D02*
X146023000Y-114769000D01*
X146023000Y-114769000D02*
X146023000Y-112484000D01*
%TO.C,R1*%
X136383500Y-113521258D02*
X136383500Y-113046742D01*
X137428500Y-113521258D02*
X137428500Y-113046742D01*
%TO.C,J2*%
X138629000Y-111954000D02*
X138629000Y-114614000D01*
X141228999Y-111954000D02*
X138629000Y-111954000D01*
X141228999Y-111954000D02*
X141228999Y-114614000D01*
X141228999Y-114614000D02*
X138629000Y-114614000D01*
X142499000Y-111954000D02*
X143829000Y-111954000D01*
X143829000Y-111954000D02*
X143829000Y-113284000D01*
%TO.C,JP1*%
X135652000Y-104772000D02*
X137652000Y-104772000D01*
X135652000Y-107572000D02*
X135652000Y-104772000D01*
X137652000Y-104772000D02*
X137652000Y-107572000D01*
X137652000Y-107572000D02*
X135652000Y-107572000D01*
%TO.C,C1*%
X137273420Y-108202000D02*
X137554580Y-108202000D01*
X137273420Y-109222000D02*
X137554580Y-109222000D01*
%TD*%
%LPC*%
D13*
%TO.C,U1*%
X140024000Y-104984500D03*
X140824000Y-104984500D03*
X141624000Y-104984500D03*
X142424000Y-104984500D03*
X142424000Y-107359500D03*
X141624000Y-107359500D03*
X140824000Y-107359500D03*
X140024000Y-107359500D03*
%TD*%
D14*
%TO.C,C2*%
X142481000Y-108966000D03*
X144031000Y-108966000D03*
%TD*%
D15*
%TO.C,JP2*%
X145796000Y-105522001D03*
X145796000Y-106821999D03*
%TD*%
D16*
%TO.C,J1*%
X145024000Y-100584000D03*
D17*
X142484000Y-100584000D03*
X139944001Y-100584000D03*
X137404000Y-100584000D03*
%TD*%
D18*
%TO.C,D1*%
X145288000Y-114071501D03*
X145288000Y-112496499D03*
%TD*%
D19*
%TO.C,R1*%
X136906000Y-114109000D03*
X136906000Y-112459000D03*
%TD*%
D16*
%TO.C,J2*%
X142499000Y-113284000D03*
D17*
X139959000Y-113284000D03*
%TD*%
D15*
%TO.C,JP1*%
X136652000Y-105522001D03*
X136652000Y-106821999D03*
%TD*%
D14*
%TO.C,C1*%
X136639000Y-108712000D03*
X138189000Y-108712000D03*
%TD*%
%LPD*%
M02*
