M48
; DRILL file {KiCad 7.99.0-957-g18dd623122} date Mon Aug 21 12:25:08 2023
; FORMAT={-:-/ absolute / inch / decimal}
; #@! TF.CreationDate,2023-08-21T12:25:08-07:00
; #@! TF.GenerationSoftware,Kicad,Pcbnew,7.99.0-957-g18dd623122
; #@! TF.FileFunction,Plated,1,2,PTH
FMAT,2
INCH
; #@! TA.AperFunction,Plated,PTH,ViaDrill
T1C0.0157
; #@! TA.AperFunction,Plated,PTH,ComponentDrill
T2C0.0236
; #@! TA.AperFunction,Plated,PTH,ComponentDrill
T3C0.0400
; #@! TA.AperFunction,Plated,PTH,ComponentDrill
T4C0.0402
; #@! TA.AperFunction,Plated,PTH,ComponentDrill
T5C0.0949
; #@! TA.AperFunction,Plated,PTH,ComponentDrill
T6C0.1000
%
G90
G05
T1
X1.3976Y-0.9173
X1.4016Y-2.0079
X1.4803Y-3.1457
X1.6181Y-1.9724
X1.6496Y-1.752
X1.6535Y-0.8425
X1.6535Y-1.4016
X1.7362Y-3.1614
X2.3504Y-0.8425
X2.3583Y-1.4213
X2.378Y-2.0197
X2.5157Y-1.7795
X2.5157Y-3.1063
X2.563Y-0.8858
X2.5984Y-3.3543
X2.626Y-1.5039
X3.2441Y-1.811
X3.374Y-0.8819
X3.4331Y-1.4016
X3.5394Y-3.3465
X3.563Y-2.0591
X3.5709Y-0.9094
X3.5945Y-1.622
X4.2244Y-0.8425
X4.2244Y-1.4409
X4.2953Y-2.0236
X4.4173Y-1.7008
X4.4606Y-0.9055
X4.4606Y-3.2362
X4.4685Y-1.4331
X5.1102Y-0.9173
X5.1102Y-2.0394
X5.126Y-3.189
X5.1929Y-1.4291
X5.2047Y-2.0236
X5.315Y-3.1929
X5.3622Y-0.8425
X5.3898Y-3.3307
X5.4016Y-1.7992
X6.0039Y-3.1063
X6.1496Y-1.0101
X6.3107Y-1.0062
X6.3189Y-3.3346
X6.4449Y-3.5906
X6.4803Y-3.3189
T2
X6.0236Y-0.9098
X6.0236Y-0.959
X6.0236Y-1.0082
X6.0236Y-1.0574
X6.0236Y-1.1066
T3
X1.0158Y-1.0091
X1.0158Y-1.1091
X1.0158Y-1.2091
X1.0158Y-1.3091
X1.0158Y-1.4091
X1.0158Y-1.5091
X1.0158Y-1.6091
X1.0158Y-1.7091
X1.0158Y-1.8091
X1.0158Y-1.9091
X1.0158Y-2.0091
X1.0158Y-2.1091
X1.0158Y-2.2091
X1.0158Y-2.3091
X1.0158Y-2.4091
X1.0158Y-2.5091
X1.0158Y-2.6091
X1.0158Y-2.7091
X1.0158Y-2.8091
X1.0158Y-2.9091
X1.0158Y-3.0091
X1.0158Y-3.1091
X1.0158Y-3.2091
X1.0158Y-3.3091
X1.0158Y-3.4091
X1.0158Y-3.5091
X1.0158Y-3.6091
X1.0158Y-3.7091
X1.0158Y-3.8091
X1.0158Y-3.9091
X1.2068Y-1.0091
X1.2068Y-1.1091
X1.2068Y-1.2091
X1.2068Y-1.3091
X1.2068Y-1.4091
X1.2068Y-1.5091
X1.2068Y-1.6091
X1.2068Y-1.7091
X1.2068Y-1.8091
X1.2068Y-1.9091
X1.2068Y-2.0091
X1.2068Y-2.1091
X1.2068Y-2.2091
X1.2068Y-2.3091
X1.2068Y-2.4091
X1.2068Y-2.5091
X1.2068Y-2.6091
X1.2068Y-2.7091
X1.2068Y-2.8091
X1.2068Y-2.9091
X1.2068Y-3.0091
X1.2068Y-3.1091
X1.2068Y-3.2091
X1.2068Y-3.3091
X1.2068Y-3.4091
X1.2068Y-3.5091
X1.2068Y-3.6091
X1.2068Y-3.7091
X1.2068Y-3.8091
X1.2068Y-3.9091
X1.9409Y-1.0087
X1.9409Y-1.1087
X1.9409Y-1.2087
X1.9409Y-1.3087
X1.9409Y-1.4087
X1.9409Y-1.5087
X1.9409Y-1.6087
X1.9409Y-1.7087
X1.9409Y-1.8087
X1.9409Y-1.9087
X1.9409Y-2.0087
X1.9409Y-2.1087
X1.9409Y-2.2087
X1.9409Y-2.3087
X1.9409Y-2.4087
X1.9409Y-2.5087
X1.9409Y-2.6087
X1.9409Y-2.7087
X1.9409Y-2.8087
X1.9409Y-2.9087
X1.9409Y-3.0087
X1.9409Y-3.1087
X1.9409Y-3.2087
X1.9409Y-3.3087
X1.9409Y-3.4087
X1.9409Y-3.5087
X1.9409Y-3.6087
X1.9409Y-3.7087
X1.9409Y-3.8087
X1.9409Y-3.9087
X2.1319Y-1.0087
X2.1319Y-1.1087
X2.1319Y-1.2087
X2.1319Y-1.3087
X2.1319Y-1.4087
X2.1319Y-1.5087
X2.1319Y-1.6087
X2.1319Y-1.7087
X2.1319Y-1.8087
X2.1319Y-1.9087
X2.1319Y-2.0087
X2.1319Y-2.1087
X2.1319Y-2.2087
X2.1319Y-2.3087
X2.1319Y-2.4087
X2.1319Y-2.5087
X2.1319Y-2.6087
X2.1319Y-2.7087
X2.1319Y-2.8087
X2.1319Y-2.9087
X2.1319Y-3.0087
X2.1319Y-3.1087
X2.1319Y-3.2087
X2.1319Y-3.3087
X2.1319Y-3.4087
X2.1319Y-3.5087
X2.1319Y-3.6087
X2.1319Y-3.7087
X2.1319Y-3.8087
X2.1319Y-3.9087
X2.8661Y-1.011
X2.8661Y-1.111
X2.8661Y-1.211
X2.8661Y-1.311
X2.8661Y-1.411
X2.8661Y-1.511
X2.8661Y-1.611
X2.8661Y-1.711
X2.8661Y-1.811
X2.8661Y-1.911
X2.8661Y-2.011
X2.8661Y-2.111
X2.8661Y-2.211
X2.8661Y-2.311
X2.8661Y-2.411
X2.8661Y-2.511
X2.8661Y-2.611
X2.8661Y-2.711
X2.8661Y-2.811
X2.8661Y-2.911
X2.8661Y-3.011
X2.8661Y-3.111
X2.8661Y-3.211
X2.8661Y-3.311
X2.8661Y-3.411
X2.8661Y-3.511
X2.8661Y-3.611
X2.8661Y-3.711
X2.8661Y-3.811
X2.8661Y-3.911
X3.0571Y-1.011
X3.0571Y-1.111
X3.0571Y-1.211
X3.0571Y-1.311
X3.0571Y-1.411
X3.0571Y-1.511
X3.0571Y-1.611
X3.0571Y-1.711
X3.0571Y-1.811
X3.0571Y-1.911
X3.0571Y-2.011
X3.0571Y-2.111
X3.0571Y-2.211
X3.0571Y-2.311
X3.0571Y-2.411
X3.0571Y-2.511
X3.0571Y-2.611
X3.0571Y-2.711
X3.0571Y-2.811
X3.0571Y-2.911
X3.0571Y-3.011
X3.0571Y-3.111
X3.0571Y-3.211
X3.0571Y-3.311
X3.0571Y-3.411
X3.0571Y-3.511
X3.0571Y-3.611
X3.0571Y-3.711
X3.0571Y-3.811
X3.0571Y-3.911
X3.7913Y-1.0102
X3.7913Y-1.1102
X3.7913Y-1.2102
X3.7913Y-1.3102
X3.7913Y-1.4102
X3.7913Y-1.5102
X3.7913Y-1.6102
X3.7913Y-1.7102
X3.7913Y-1.8102
X3.7913Y-1.9102
X3.7913Y-2.0102
X3.7913Y-2.1102
X3.7913Y-2.2102
X3.7913Y-2.3102
X3.7913Y-2.4102
X3.7913Y-2.5102
X3.7913Y-2.6102
X3.7913Y-2.7102
X3.7913Y-2.8102
X3.7913Y-2.9102
X3.7913Y-3.0102
X3.7913Y-3.1102
X3.7913Y-3.2102
X3.7913Y-3.3102
X3.7913Y-3.4102
X3.7913Y-3.5102
X3.7913Y-3.6102
X3.7913Y-3.7102
X3.7913Y-3.8102
X3.7913Y-3.9102
X3.9823Y-1.0102
X3.9823Y-1.1102
X3.9823Y-1.2102
X3.9823Y-1.3102
X3.9823Y-1.4102
X3.9823Y-1.5102
X3.9823Y-1.6102
X3.9823Y-1.7102
X3.9823Y-1.8102
X3.9823Y-1.9102
X3.9823Y-2.0102
X3.9823Y-2.1102
X3.9823Y-2.2102
X3.9823Y-2.3102
X3.9823Y-2.4102
X3.9823Y-2.5102
X3.9823Y-2.6102
X3.9823Y-2.7102
X3.9823Y-2.8102
X3.9823Y-2.9102
X3.9823Y-3.0102
X3.9823Y-3.1102
X3.9823Y-3.2102
X3.9823Y-3.3102
X3.9823Y-3.4102
X3.9823Y-3.5102
X3.9823Y-3.6102
X3.9823Y-3.7102
X3.9823Y-3.8102
X3.9823Y-3.9102
X4.7126Y-1.0079
X4.7126Y-1.1079
X4.7126Y-1.2079
X4.7126Y-1.3079
X4.7126Y-1.4079
X4.7126Y-1.5079
X4.7126Y-1.6079
X4.7126Y-1.7079
X4.7126Y-1.8079
X4.7126Y-1.9079
X4.7126Y-2.0079
X4.7126Y-2.1079
X4.7126Y-2.2079
X4.7126Y-2.3079
X4.7126Y-2.4079
X4.7126Y-2.5079
X4.7126Y-2.6079
X4.7126Y-2.7079
X4.7126Y-2.8079
X4.7126Y-2.9079
X4.7126Y-3.0079
X4.7126Y-3.1079
X4.7126Y-3.2079
X4.7126Y-3.3079
X4.7126Y-3.4079
X4.7126Y-3.5079
X4.7126Y-3.6079
X4.7126Y-3.7079
X4.7126Y-3.8079
X4.7126Y-3.9079
X4.9036Y-1.0079
X4.9036Y-1.1079
X4.9036Y-1.2079
X4.9036Y-1.3079
X4.9036Y-1.4079
X4.9036Y-1.5079
X4.9036Y-1.6079
X4.9036Y-1.7079
X4.9036Y-1.8079
X4.9036Y-1.9079
X4.9036Y-2.0079
X4.9036Y-2.1079
X4.9036Y-2.2079
X4.9036Y-2.3079
X4.9036Y-2.4079
X4.9036Y-2.5079
X4.9036Y-2.6079
X4.9036Y-2.7079
X4.9036Y-2.8079
X4.9036Y-2.9079
X4.9036Y-3.0079
X4.9036Y-3.1079
X4.9036Y-3.2079
X4.9036Y-3.3079
X4.9036Y-3.4079
X4.9036Y-3.5079
X4.9036Y-3.6079
X4.9036Y-3.7079
X4.9036Y-3.8079
X4.9036Y-3.9079
X5.6378Y-1.0094
X5.6378Y-1.1094
X5.6378Y-1.2094
X5.6378Y-1.3094
X5.6378Y-1.4094
X5.6378Y-1.5094
X5.6378Y-1.6094
X5.6378Y-1.7094
X5.6378Y-1.8094
X5.6378Y-1.9094
X5.6378Y-2.0094
X5.6378Y-2.1094
X5.6378Y-2.2094
X5.6378Y-2.3094
X5.6378Y-2.4094
X5.6378Y-2.5094
X5.6378Y-2.6094
X5.6378Y-2.7094
X5.6378Y-2.8094
X5.6378Y-2.9094
X5.6378Y-3.0094
X5.6378Y-3.1094
X5.6378Y-3.2094
X5.6378Y-3.3094
X5.6378Y-3.4094
X5.6378Y-3.5094
X5.6378Y-3.6094
X5.6378Y-3.7094
X5.6378Y-3.8094
X5.6378Y-3.9094
X5.8288Y-1.0094
X5.8288Y-1.1094
X5.8288Y-1.2094
X5.8288Y-1.3094
X5.8288Y-1.4094
X5.8288Y-1.5094
X5.8288Y-1.6094
X5.8288Y-1.7094
X5.8288Y-1.8094
X5.8288Y-1.9094
X5.8288Y-2.0094
X5.8288Y-2.1094
X5.8288Y-2.2094
X5.8288Y-2.3094
X5.8288Y-2.4094
X5.8288Y-2.5094
X5.8288Y-2.6094
X5.8288Y-2.7094
X5.8288Y-2.8094
X5.8288Y-2.9094
X5.8288Y-3.0094
X5.8288Y-3.1094
X5.8288Y-3.2094
X5.8288Y-3.3094
X5.8288Y-3.4094
X5.8288Y-3.5094
X5.8288Y-3.6094
X5.8288Y-3.7094
X5.8288Y-3.8094
X5.8288Y-3.9094
T4
X1.5213Y-3.702
X1.5213Y-3.8201
X1.5213Y-3.9382
X1.6394Y-3.702
X1.6394Y-3.8201
X1.6394Y-3.9382
X2.4449Y-3.7008
X2.4449Y-3.8189
X2.4449Y-3.937
X2.563Y-3.7008
X2.563Y-3.8189
X2.563Y-3.937
X3.3717Y-3.7047
X3.3717Y-3.8228
X3.3717Y-3.9409
X3.4898Y-3.7047
X3.4898Y-3.8228
X3.4898Y-3.9409
X4.2929Y-3.7016
X4.2929Y-3.8197
X4.2929Y-3.9378
X4.411Y-3.7016
X4.411Y-3.8197
X4.411Y-3.9378
X5.2165Y-3.7008
X5.2165Y-3.8189
X5.2165Y-3.937
X5.3346Y-3.7008
X5.3346Y-3.8189
X5.3346Y-3.937
X6.0354Y-1.3818
X6.0354Y-1.4999
X6.0354Y-1.618
X6.0354Y-1.7361
X6.1417Y-3.7008
X6.1417Y-3.8189
X6.1417Y-3.937
X6.1535Y-1.3818
X6.1535Y-1.4999
X6.1535Y-1.618
X6.1535Y-1.7361
X6.2598Y-3.7008
X6.2598Y-3.8189
X6.2598Y-3.937
T5
X6.3236Y-1.2971
X6.3236Y-1.8207
T6
X6.2874Y-2.9196
X6.3819Y-2.2464
T0
M30
