%TF.GenerationSoftware,KiCad,Pcbnew,7.99.0-957-g18dd623122*%
%TF.CreationDate,2023-07-16T08:20:05-04:00*%
%TF.ProjectId,ESC_Carrier,4553435f-4361-4727-9269-65722e6b6963,rev?*%
%TF.SameCoordinates,Original*%
%TF.FileFunction,Other,Comment*%
%FSLAX46Y46*%
G04 Gerber Fmt 4.6, Leading zero omitted, Abs format (unit mm)*
G04 Created by KiCad (PCBNEW 7.99.0-957-g18dd623122) date 2023-07-16 08:20:05*
%MOMM*%
%LPD*%
G01*
G04 APERTURE LIST*
%ADD10C,0.150000*%
G04 APERTURE END LIST*
D10*
X117831028Y-3623347D02*
X117735767Y-3575773D01*
X117735767Y-3575773D02*
X117688125Y-3528177D01*
X117688125Y-3528177D02*
X117640461Y-3432961D01*
X117640461Y-3432961D02*
X117640439Y-3385342D01*
X117640439Y-3385342D02*
X117688012Y-3290082D01*
X117688012Y-3290082D02*
X117735609Y-3242440D01*
X117735609Y-3242440D02*
X117830824Y-3194776D01*
X117830824Y-3194776D02*
X118021301Y-3194686D01*
X118021301Y-3194686D02*
X118116561Y-3242259D01*
X118116561Y-3242259D02*
X118164203Y-3289856D01*
X118164203Y-3289856D02*
X118211867Y-3385071D01*
X118211867Y-3385071D02*
X118211890Y-3432690D01*
X118211890Y-3432690D02*
X118164316Y-3527951D01*
X118164316Y-3527951D02*
X118116719Y-3575593D01*
X118116719Y-3575593D02*
X118021504Y-3623257D01*
X118021504Y-3623257D02*
X117831028Y-3623347D01*
X117831028Y-3623347D02*
X117735812Y-3671011D01*
X117735812Y-3671011D02*
X117688216Y-3718653D01*
X117688216Y-3718653D02*
X117640642Y-3813914D01*
X117640642Y-3813914D02*
X117640732Y-4004390D01*
X117640732Y-4004390D02*
X117688396Y-4099605D01*
X117688396Y-4099605D02*
X117736038Y-4147202D01*
X117736038Y-4147202D02*
X117831299Y-4194776D01*
X117831299Y-4194776D02*
X118021775Y-4194685D01*
X118021775Y-4194685D02*
X118116990Y-4147021D01*
X118116990Y-4147021D02*
X118164587Y-4099380D01*
X118164587Y-4099380D02*
X118212161Y-4004119D01*
X118212161Y-4004119D02*
X118212070Y-3813643D01*
X118212070Y-3813643D02*
X118164406Y-3718427D01*
X118164406Y-3718427D02*
X118116764Y-3670831D01*
X118116764Y-3670831D02*
X118021504Y-3623257D01*
X118640777Y-4099154D02*
X118688419Y-4146750D01*
X118688419Y-4146750D02*
X118640822Y-4194392D01*
X118640822Y-4194392D02*
X118593181Y-4146795D01*
X118593181Y-4146795D02*
X118640777Y-4099154D01*
X118640777Y-4099154D02*
X118640822Y-4194392D01*
X119021300Y-3194211D02*
X119640348Y-3193918D01*
X119640348Y-3193918D02*
X119307195Y-3575028D01*
X119307195Y-3575028D02*
X119450052Y-3574960D01*
X119450052Y-3574960D02*
X119545313Y-3622534D01*
X119545313Y-3622534D02*
X119592954Y-3670131D01*
X119592954Y-3670131D02*
X119640619Y-3765346D01*
X119640619Y-3765346D02*
X119640731Y-4003442D01*
X119640731Y-4003442D02*
X119593158Y-4098702D01*
X119593158Y-4098702D02*
X119545561Y-4146344D01*
X119545561Y-4146344D02*
X119450346Y-4194008D01*
X119450346Y-4194008D02*
X119164631Y-4194144D01*
X119164631Y-4194144D02*
X119069371Y-4146570D01*
X119069371Y-4146570D02*
X119021729Y-4098973D01*
X120259395Y-3193624D02*
X120354633Y-3193579D01*
X120354633Y-3193579D02*
X120449894Y-3241153D01*
X120449894Y-3241153D02*
X120497536Y-3288750D01*
X120497536Y-3288750D02*
X120545200Y-3383965D01*
X120545200Y-3383965D02*
X120592909Y-3574419D01*
X120592909Y-3574419D02*
X120593022Y-3812514D01*
X120593022Y-3812514D02*
X120545493Y-4003013D01*
X120545493Y-4003013D02*
X120497919Y-4098273D01*
X120497919Y-4098273D02*
X120450323Y-4145915D01*
X120450323Y-4145915D02*
X120355107Y-4193579D01*
X120355107Y-4193579D02*
X120259869Y-4193624D01*
X120259869Y-4193624D02*
X120164609Y-4146050D01*
X120164609Y-4146050D02*
X120116967Y-4098454D01*
X120116967Y-4098454D02*
X120069303Y-4003238D01*
X120069303Y-4003238D02*
X120021594Y-3812785D01*
X120021594Y-3812785D02*
X120021481Y-3574690D01*
X120021481Y-3574690D02*
X120069009Y-3384191D01*
X120069009Y-3384191D02*
X120116583Y-3288930D01*
X120116583Y-3288930D02*
X120164180Y-3241289D01*
X120164180Y-3241289D02*
X120259395Y-3193624D01*
X120926062Y-3193308D02*
X121545109Y-3193015D01*
X121545109Y-3193015D02*
X121211957Y-3574125D01*
X121211957Y-3574125D02*
X121354814Y-3574057D01*
X121354814Y-3574057D02*
X121450075Y-3621631D01*
X121450075Y-3621631D02*
X121497716Y-3669228D01*
X121497716Y-3669228D02*
X121545380Y-3764443D01*
X121545380Y-3764443D02*
X121545493Y-4002538D01*
X121545493Y-4002538D02*
X121497919Y-4097799D01*
X121497919Y-4097799D02*
X121450323Y-4145441D01*
X121450323Y-4145441D02*
X121355107Y-4193105D01*
X121355107Y-4193105D02*
X121069393Y-4193240D01*
X121069393Y-4193240D02*
X120974132Y-4145666D01*
X120974132Y-4145666D02*
X120926491Y-4098070D01*
X121926107Y-3288072D02*
X121973703Y-3240431D01*
X121973703Y-3240431D02*
X122068919Y-3192766D01*
X122068919Y-3192766D02*
X122307014Y-3192653D01*
X122307014Y-3192653D02*
X122402275Y-3240227D01*
X122402275Y-3240227D02*
X122449916Y-3287824D01*
X122449916Y-3287824D02*
X122497581Y-3383039D01*
X122497581Y-3383039D02*
X122497626Y-3478277D01*
X122497626Y-3478277D02*
X122450074Y-3621157D01*
X122450074Y-3621157D02*
X121878917Y-4192857D01*
X121878917Y-4192857D02*
X122497964Y-4192563D01*
X123688441Y-4191999D02*
X123688125Y-3525332D01*
X123687967Y-3191999D02*
X123640370Y-3239640D01*
X123640370Y-3239640D02*
X123688012Y-3287237D01*
X123688012Y-3287237D02*
X123735608Y-3239595D01*
X123735608Y-3239595D02*
X123687967Y-3191999D01*
X123687967Y-3191999D02*
X123688012Y-3287237D01*
X124164315Y-3525106D02*
X124164631Y-4191773D01*
X124164360Y-3620344D02*
X124211956Y-3572703D01*
X124211956Y-3572703D02*
X124307172Y-3525038D01*
X124307172Y-3525038D02*
X124450029Y-3524971D01*
X124450029Y-3524971D02*
X124545290Y-3572545D01*
X124545290Y-3572545D02*
X124592954Y-3667760D01*
X124592954Y-3667760D02*
X124593202Y-4191570D01*
X15699763Y-23100000D02*
X15690870Y-4344168D01*
X226599763Y-23000000D02*
X226590870Y-4244168D01*
X15691148Y-4930588D02*
X226591148Y-4830588D01*
X15691148Y-4930588D02*
X226591148Y-4830588D01*
X15691148Y-4930588D02*
X16817374Y-4343633D01*
X15691148Y-4930588D02*
X16817930Y-5516475D01*
X226591148Y-4830588D02*
X225464922Y-5417543D01*
X226591148Y-4830588D02*
X225464366Y-4244701D01*
X9761628Y-66134825D02*
X9762262Y-65515778D01*
X9762262Y-65515778D02*
X10142873Y-65849501D01*
X10142873Y-65849501D02*
X10143019Y-65706644D01*
X10143019Y-65706644D02*
X10190736Y-65611455D01*
X10190736Y-65611455D02*
X10238404Y-65563885D01*
X10238404Y-65563885D02*
X10333691Y-65516363D01*
X10333691Y-65516363D02*
X10571786Y-65516607D01*
X10571786Y-65516607D02*
X10666975Y-65564324D01*
X10666975Y-65564324D02*
X10714545Y-65611991D01*
X10714545Y-65611991D02*
X10762067Y-65707278D01*
X10762067Y-65707278D02*
X10761774Y-65992992D01*
X10761774Y-65992992D02*
X10714057Y-66088182D01*
X10714057Y-66088182D02*
X10666389Y-66135752D01*
X10667463Y-65088133D02*
X10715131Y-65040563D01*
X10715131Y-65040563D02*
X10762701Y-65088231D01*
X10762701Y-65088231D02*
X10715033Y-65135801D01*
X10715033Y-65135801D02*
X10667463Y-65088133D01*
X10667463Y-65088133D02*
X10762701Y-65088231D01*
X10191907Y-64468599D02*
X10144190Y-64563788D01*
X10144190Y-64563788D02*
X10096522Y-64611358D01*
X10096522Y-64611358D02*
X10001236Y-64658880D01*
X10001236Y-64658880D02*
X9953617Y-64658831D01*
X9953617Y-64658831D02*
X9858427Y-64611114D01*
X9858427Y-64611114D02*
X9810857Y-64563446D01*
X9810857Y-64563446D02*
X9763336Y-64468160D01*
X9763336Y-64468160D02*
X9763531Y-64277683D01*
X9763531Y-64277683D02*
X9811247Y-64182494D01*
X9811247Y-64182494D02*
X9858915Y-64134924D01*
X9858915Y-64134924D02*
X9954202Y-64087403D01*
X9954202Y-64087403D02*
X10001821Y-64087451D01*
X10001821Y-64087451D02*
X10097010Y-64135168D01*
X10097010Y-64135168D02*
X10144581Y-64182836D01*
X10144581Y-64182836D02*
X10192102Y-64278123D01*
X10192102Y-64278123D02*
X10191907Y-64468599D01*
X10191907Y-64468599D02*
X10239428Y-64563885D01*
X10239428Y-64563885D02*
X10286999Y-64611553D01*
X10286999Y-64611553D02*
X10382188Y-64659270D01*
X10382188Y-64659270D02*
X10572664Y-64659465D01*
X10572664Y-64659465D02*
X10667951Y-64611944D01*
X10667951Y-64611944D02*
X10715618Y-64564373D01*
X10715618Y-64564373D02*
X10763335Y-64469184D01*
X10763335Y-64469184D02*
X10763530Y-64278708D01*
X10763530Y-64278708D02*
X10716009Y-64183421D01*
X10716009Y-64183421D02*
X10668439Y-64135753D01*
X10668439Y-64135753D02*
X10573249Y-64088037D01*
X10573249Y-64088037D02*
X10382773Y-64087842D01*
X10382773Y-64087842D02*
X10287486Y-64135363D01*
X10287486Y-64135363D02*
X10239819Y-64182933D01*
X10239819Y-64182933D02*
X10192102Y-64278123D01*
X10097937Y-63230406D02*
X10764604Y-63231089D01*
X9716741Y-63468111D02*
X10430783Y-63706938D01*
X10430783Y-63706938D02*
X10431417Y-63087891D01*
X9860330Y-62753972D02*
X9812760Y-62706304D01*
X9812760Y-62706304D02*
X9765238Y-62611018D01*
X9765238Y-62611018D02*
X9765482Y-62372922D01*
X9765482Y-62372922D02*
X9813199Y-62277733D01*
X9813199Y-62277733D02*
X9860867Y-62230163D01*
X9860867Y-62230163D02*
X9956154Y-62182642D01*
X9956154Y-62182642D02*
X10051392Y-62182739D01*
X10051392Y-62182739D02*
X10194200Y-62230504D01*
X10194200Y-62230504D02*
X10765043Y-62802518D01*
X10765043Y-62802518D02*
X10765677Y-62183471D01*
X9766605Y-61277685D02*
X9766117Y-61753875D01*
X9766117Y-61753875D02*
X10242258Y-61801982D01*
X10242258Y-61801982D02*
X10194688Y-61754314D01*
X10194688Y-61754314D02*
X10147166Y-61659027D01*
X10147166Y-61659027D02*
X10147410Y-61420932D01*
X10147410Y-61420932D02*
X10195127Y-61325743D01*
X10195127Y-61325743D02*
X10242795Y-61278173D01*
X10242795Y-61278173D02*
X10338082Y-61230651D01*
X10338082Y-61230651D02*
X10576177Y-61230895D01*
X10576177Y-61230895D02*
X10671366Y-61278612D01*
X10671366Y-61278612D02*
X10718936Y-61326280D01*
X10718936Y-61326280D02*
X10766458Y-61421567D01*
X10766458Y-61421567D02*
X10766214Y-61659662D01*
X10766214Y-61659662D02*
X10718497Y-61754851D01*
X10718497Y-61754851D02*
X10670829Y-61802421D01*
X10767873Y-60040615D02*
X10101206Y-60039932D01*
X9767873Y-60039590D02*
X9815443Y-60087258D01*
X9815443Y-60087258D02*
X9863111Y-60039688D01*
X9863111Y-60039688D02*
X9815541Y-59992020D01*
X9815541Y-59992020D02*
X9767873Y-60039590D01*
X9767873Y-60039590D02*
X9863111Y-60039688D01*
X10101694Y-59563742D02*
X10768360Y-59564425D01*
X10196932Y-59563839D02*
X10149362Y-59516172D01*
X10149362Y-59516172D02*
X10101841Y-59420885D01*
X10101841Y-59420885D02*
X10101987Y-59278028D01*
X10101987Y-59278028D02*
X10149703Y-59182838D01*
X10149703Y-59182838D02*
X10244990Y-59135317D01*
X10244990Y-59135317D02*
X10768800Y-59135854D01*
X21800000Y-13799488D02*
X10916223Y-13788337D01*
X21700000Y-111399488D02*
X10816223Y-111388337D01*
X11502643Y-13788937D02*
X11402643Y-111388937D01*
X11502643Y-13788937D02*
X11402643Y-111388937D01*
X11502643Y-13788937D02*
X12087909Y-14916041D01*
X11502643Y-13788937D02*
X10915068Y-14914839D01*
X11402643Y-111388937D02*
X10817377Y-110261833D01*
X11402643Y-111388937D02*
X11990218Y-110263035D01*
%TO.C,H1*%
X22350000Y-17730000D02*
G75*
G03*
X22350000Y-17730000I-2700000J0D01*
G01*
%TO.C,H2*%
X225400000Y-17730000D02*
G75*
G03*
X225400000Y-17730000I-2700000J0D01*
G01*
%TO.C,H3*%
X22350000Y-107500000D02*
G75*
G03*
X22350000Y-107500000I-2700000J0D01*
G01*
%TO.C,H4*%
X225400000Y-107500000D02*
G75*
G03*
X225400000Y-107500000I-2700000J0D01*
G01*
%TD*%
M02*
