M48
; DRILL file {KiCad 7.99.0-957-g18dd623122} date Sun Jul 16 08:20:05 2023
; FORMAT={-:-/ absolute / inch / decimal}
; #@! TF.CreationDate,2023-07-16T08:20:05-04:00
; #@! TF.GenerationSoftware,Kicad,Pcbnew,7.99.0-957-g18dd623122
; #@! TF.FileFunction,NonPlated,1,2,NPTH
FMAT,2
INCH
; #@! TA.AperFunction,NonPlated,NPTH,ComponentDrill
T1C0.0402
; #@! TA.AperFunction,NonPlated,NPTH,ComponentDrill
T2C0.1063
%
G90
G05
T1
X1.5Y-3.5839
X1.5Y-4.0564
X2.439Y-3.5827
X2.439Y-4.0551
X3.3917Y-3.5866
X3.3917Y-4.0591
X4.3389Y-3.5835
X4.3389Y-4.0559
X5.2917Y-3.585
X5.2917Y-4.0575
X6.2421Y-3.5858
X6.2421Y-4.0583
X7.1933Y-3.5874
X7.1933Y-4.0598
X8.1437Y-3.5898
X8.1437Y-4.0622
T2
X0.7736Y-0.698
X0.7736Y-4.2323
X8.7677Y-0.698
X8.7677Y-4.2323
T0
M30
