%TF.GenerationSoftware,KiCad,Pcbnew,7.99.0-957-g18dd623122*%
%TF.CreationDate,2023-07-20T13:07:21-04:00*%
%TF.ProjectId,ESC_Carrier,4553435f-4361-4727-9269-65722e6b6963,rev?*%
%TF.SameCoordinates,Original*%
%TF.FileFunction,Copper,L1,Top*%
%TF.FilePolarity,Positive*%
%FSLAX46Y46*%
G04 Gerber Fmt 4.6, Leading zero omitted, Abs format (unit mm)*
G04 Created by KiCad (PCBNEW 7.99.0-957-g18dd623122) date 2023-07-20 13:07:21*
%MOMM*%
%LPD*%
G01*
G04 APERTURE LIST*
%TA.AperFunction,ComponentPad*%
%ADD10R,1.520000X1.520000*%
%TD*%
%TA.AperFunction,ComponentPad*%
%ADD11C,1.520000*%
%TD*%
%TA.AperFunction,ComponentPad*%
%ADD12C,1.524000*%
%TD*%
%TA.AperFunction,ComponentPad*%
%ADD13C,2.909999*%
%TD*%
%TA.AperFunction,ComponentPad*%
%ADD14R,3.810000X3.810000*%
%TD*%
%TA.AperFunction,ComponentPad*%
%ADD15C,3.810000*%
%TD*%
%TA.AperFunction,SMDPad,CuDef*%
%ADD16C,2.000000*%
%TD*%
%TA.AperFunction,ComponentPad*%
%ADD17R,1.000000X1.000000*%
%TD*%
%TA.AperFunction,ComponentPad*%
%ADD18C,1.000000*%
%TD*%
%TA.AperFunction,ViaPad*%
%ADD19C,0.800000*%
%TD*%
%TA.AperFunction,Conductor*%
%ADD20C,0.250000*%
%TD*%
%TA.AperFunction,Conductor*%
%ADD21C,4.000000*%
%TD*%
%TA.AperFunction,Conductor*%
%ADD22C,0.130000*%
%TD*%
%TA.AperFunction,Conductor*%
%ADD23C,2.750000*%
%TD*%
%TA.AperFunction,Conductor*%
%ADD24C,2.500000*%
%TD*%
%TA.AperFunction,Conductor*%
%ADD25C,3.000000*%
%TD*%
G04 APERTURE END LIST*
D10*
%TO.P,J17,1,1*%
%TO.N,/ESC7_PHASEC*%
X186649000Y-94120000D03*
D11*
%TO.P,J17,2,2*%
%TO.N,/ESC7_PHASEB*%
X186649000Y-97120000D03*
%TO.P,J17,3,3*%
%TO.N,/ESC7_PHASEA*%
X186649000Y-100120000D03*
%TO.P,J17,4,4*%
%TO.N,/ESC7_PHASEC*%
X183649000Y-94120000D03*
%TO.P,J17,5,5*%
%TO.N,/ESC7_PHASEB*%
X183649000Y-97120000D03*
%TO.P,J17,6,6*%
%TO.N,/ESC7_PHASEA*%
X183649000Y-100120000D03*
%TD*%
D10*
%TO.P,J13,1,1*%
%TO.N,/ESC3_PHASEC*%
X90089000Y-94100000D03*
D11*
%TO.P,J13,2,2*%
%TO.N,/ESC3_PHASEB*%
X90089000Y-97100000D03*
%TO.P,J13,3,3*%
%TO.N,/ESC3_PHASEA*%
X90089000Y-100100000D03*
%TO.P,J13,4,4*%
%TO.N,/ESC3_PHASEC*%
X87089000Y-94100000D03*
%TO.P,J13,5,5*%
%TO.N,/ESC3_PHASEB*%
X87089000Y-97100000D03*
%TO.P,J13,6,6*%
%TO.N,/ESC3_PHASEA*%
X87089000Y-100100000D03*
%TD*%
D12*
%TO.P,J5,1,1*%
%TO.N,/ESC5_PHASEA*%
X122149000Y-99260000D03*
%TO.P,J5,2,2*%
X127000000Y-99260000D03*
%TO.P,J5,3,3*%
X122149000Y-96720000D03*
%TO.P,J5,4,4*%
X127000000Y-96720000D03*
%TO.P,J5,5,5*%
X122149000Y-94180000D03*
%TO.P,J5,6,6*%
X127000000Y-94180000D03*
%TO.P,J5,7,7*%
%TO.N,/ESC5_PHASEB*%
X122149000Y-91640000D03*
%TO.P,J5,8,8*%
X127000000Y-91640000D03*
%TO.P,J5,9,9*%
X122149000Y-89100000D03*
%TO.P,J5,10,10*%
X127000000Y-89100000D03*
%TO.P,J5,11,11*%
X122149000Y-86560000D03*
%TO.P,J5,12,12*%
X127000000Y-86560000D03*
%TO.P,J5,13,13*%
%TO.N,/ESC5_PHASEC*%
X122149000Y-84020000D03*
%TO.P,J5,14,14*%
X127000000Y-84020000D03*
%TO.P,J5,15,15*%
X122149000Y-81480000D03*
%TO.P,J5,16,16*%
X127000000Y-81480000D03*
%TO.P,J5,17,17*%
X122149000Y-78940000D03*
%TO.P,J5,18,18*%
X127000000Y-78940000D03*
%TO.P,J5,19,19*%
%TO.N,/3V3*%
X122149000Y-76400000D03*
%TO.P,J5,20,20*%
X127000000Y-76400000D03*
%TO.P,J5,21,21*%
%TO.N,/TX*%
X122149000Y-73860000D03*
%TO.P,J5,22,22*%
%TO.N,/RX*%
X127000000Y-73860000D03*
%TO.P,J5,23,23*%
%TO.N,/TX_1*%
X122149000Y-71320000D03*
%TO.P,J5,24,24*%
%TO.N,/RX_1*%
X127000000Y-71320000D03*
%TO.P,J5,25,25*%
%TO.N,GND*%
X122149000Y-68780000D03*
%TO.P,J5,26,26*%
X127000000Y-68780000D03*
%TO.P,J5,27,27*%
X122149000Y-66240000D03*
%TO.P,J5,28,28*%
X127000000Y-66240000D03*
%TO.P,J5,29,29*%
X122149000Y-63700000D03*
%TO.P,J5,30,30*%
X127000000Y-63700000D03*
%TO.P,J5,31,31*%
X122149000Y-61160000D03*
%TO.P,J5,32,32*%
X127000000Y-61160000D03*
%TO.P,J5,33,33*%
X122149000Y-58620000D03*
%TO.P,J5,34,34*%
X127000000Y-58620000D03*
%TO.P,J5,35,35*%
X122149000Y-56080000D03*
%TO.P,J5,36,36*%
X127000000Y-56080000D03*
%TO.P,J5,37,37*%
X122149000Y-53540000D03*
%TO.P,J5,38,38*%
X127000000Y-53540000D03*
%TO.P,J5,39,39*%
X122149000Y-51000000D03*
%TO.P,J5,40,40*%
X127000000Y-51000000D03*
%TO.P,J5,41,41*%
X122149000Y-48460000D03*
%TO.P,J5,42,42*%
X127000000Y-48460000D03*
%TO.P,J5,43,43*%
%TO.N,/12V*%
X122149000Y-45920000D03*
%TO.P,J5,44,44*%
X127000000Y-45920000D03*
%TO.P,J5,45,45*%
X122149000Y-43380000D03*
%TO.P,J5,46,46*%
X127000000Y-43380000D03*
%TO.P,J5,47,47*%
X122149000Y-40840000D03*
%TO.P,J5,48,48*%
X127000000Y-40840000D03*
%TO.P,J5,49,49*%
X122149000Y-38300000D03*
%TO.P,J5,50,50*%
X127000000Y-38300000D03*
%TO.P,J5,51,51*%
X122149000Y-35760000D03*
%TO.P,J5,52,52*%
X127000000Y-35760000D03*
%TO.P,J5,53,53*%
X122149000Y-33220000D03*
%TO.P,J5,54,54*%
X127000000Y-33220000D03*
%TO.P,J5,55,55*%
X122149000Y-30680000D03*
%TO.P,J5,56,56*%
X127000000Y-30680000D03*
%TO.P,J5,57,57*%
X122149000Y-28140000D03*
%TO.P,J5,58,58*%
X127000000Y-28140000D03*
%TO.P,J5,59,59*%
X122149000Y-25600000D03*
%TO.P,J5,60,60*%
X127000000Y-25600000D03*
%TD*%
D10*
%TO.P,J10,1,Pin_1*%
%TO.N,GND*%
X208999999Y-58300000D03*
D11*
%TO.P,J10,2,Pin_2*%
X208999999Y-61299999D03*
%TO.P,J10,3,Pin_3*%
%TO.N,/12Vin*%
X208999999Y-64299998D03*
%TO.P,J10,4,Pin_4*%
X208999999Y-67299997D03*
%TO.P,J10,5,Pin_5*%
%TO.N,GND*%
X206000000Y-58300000D03*
%TO.P,J10,6,Pin_6*%
X206000000Y-61299999D03*
%TO.P,J10,7,Pin_7*%
%TO.N,/3V3*%
X206000000Y-64299998D03*
%TO.P,J10,8,Pin_8*%
%TO.N,/12Vin*%
X206000000Y-67299997D03*
D13*
%TO.P,J10,P1*%
%TO.N,N/C*%
X213319998Y-56150002D03*
%TO.P,J10,P2*%
X213319998Y-69449995D03*
%TD*%
D12*
%TO.P,J7,1,1*%
%TO.N,/ESC7_PHASEA*%
X170449000Y-99400000D03*
%TO.P,J7,2,2*%
X175300000Y-99400000D03*
%TO.P,J7,3,3*%
X170449000Y-96860000D03*
%TO.P,J7,4,4*%
X175300000Y-96860000D03*
%TO.P,J7,5,5*%
X170449000Y-94320000D03*
%TO.P,J7,6,6*%
X175300000Y-94320000D03*
%TO.P,J7,7,7*%
%TO.N,/ESC7_PHASEB*%
X170449000Y-91780000D03*
%TO.P,J7,8,8*%
X175300000Y-91780000D03*
%TO.P,J7,9,9*%
X170449000Y-89240000D03*
%TO.P,J7,10,10*%
X175300000Y-89240000D03*
%TO.P,J7,11,11*%
X170449000Y-86700000D03*
%TO.P,J7,12,12*%
X175300000Y-86700000D03*
%TO.P,J7,13,13*%
%TO.N,/ESC7_PHASEC*%
X170449000Y-84160000D03*
%TO.P,J7,14,14*%
X175300000Y-84160000D03*
%TO.P,J7,15,15*%
X170449000Y-81620000D03*
%TO.P,J7,16,16*%
X175300000Y-81620000D03*
%TO.P,J7,17,17*%
X170449000Y-79080000D03*
%TO.P,J7,18,18*%
X175300000Y-79080000D03*
%TO.P,J7,19,19*%
%TO.N,/3V3*%
X170449000Y-76540000D03*
%TO.P,J7,20,20*%
X175300000Y-76540000D03*
%TO.P,J7,21,21*%
%TO.N,/TX*%
X170449000Y-74000000D03*
%TO.P,J7,22,22*%
%TO.N,/RX*%
X175300000Y-74000000D03*
%TO.P,J7,23,23*%
%TO.N,/TX_1*%
X170449000Y-71460000D03*
%TO.P,J7,24,24*%
%TO.N,/RX_1*%
X175300000Y-71460000D03*
%TO.P,J7,25,25*%
%TO.N,GND*%
X170449000Y-68920000D03*
%TO.P,J7,26,26*%
X175300000Y-68920000D03*
%TO.P,J7,27,27*%
X170449000Y-66380000D03*
%TO.P,J7,28,28*%
X175300000Y-66380000D03*
%TO.P,J7,29,29*%
X170449000Y-63840000D03*
%TO.P,J7,30,30*%
X175300000Y-63840000D03*
%TO.P,J7,31,31*%
X170449000Y-61300000D03*
%TO.P,J7,32,32*%
X175300000Y-61300000D03*
%TO.P,J7,33,33*%
X170449000Y-58760000D03*
%TO.P,J7,34,34*%
X175300000Y-58760000D03*
%TO.P,J7,35,35*%
X170449000Y-56220000D03*
%TO.P,J7,36,36*%
X175300000Y-56220000D03*
%TO.P,J7,37,37*%
X170449000Y-53680000D03*
%TO.P,J7,38,38*%
X175300000Y-53680000D03*
%TO.P,J7,39,39*%
X170449000Y-51140000D03*
%TO.P,J7,40,40*%
X175300000Y-51140000D03*
%TO.P,J7,41,41*%
X170449000Y-48600000D03*
%TO.P,J7,42,42*%
X175300000Y-48600000D03*
%TO.P,J7,43,43*%
%TO.N,/12V*%
X170449000Y-46060000D03*
%TO.P,J7,44,44*%
X175300000Y-46060000D03*
%TO.P,J7,45,45*%
X170449000Y-43520000D03*
%TO.P,J7,46,46*%
X175300000Y-43520000D03*
%TO.P,J7,47,47*%
X170449000Y-40980000D03*
%TO.P,J7,48,48*%
X175300000Y-40980000D03*
%TO.P,J7,49,49*%
X170449000Y-38440000D03*
%TO.P,J7,50,50*%
X175300000Y-38440000D03*
%TO.P,J7,51,51*%
X170449000Y-35900000D03*
%TO.P,J7,52,52*%
X175300000Y-35900000D03*
%TO.P,J7,53,53*%
X170449000Y-33360000D03*
%TO.P,J7,54,54*%
X175300000Y-33360000D03*
%TO.P,J7,55,55*%
X170449000Y-30820000D03*
%TO.P,J7,56,56*%
X175300000Y-30820000D03*
%TO.P,J7,57,57*%
X170449000Y-28280000D03*
%TO.P,J7,58,58*%
X175300000Y-28280000D03*
%TO.P,J7,59,59*%
X170449000Y-25740000D03*
%TO.P,J7,60,60*%
X175300000Y-25740000D03*
%TD*%
%TO.P,J2,1,1*%
%TO.N,/ESC2_PHASEA*%
X49900000Y-99300000D03*
%TO.P,J2,2,2*%
X54751000Y-99300000D03*
%TO.P,J2,3,3*%
X49900000Y-96760000D03*
%TO.P,J2,4,4*%
X54751000Y-96760000D03*
%TO.P,J2,5,5*%
X49900000Y-94220000D03*
%TO.P,J2,6,6*%
X54751000Y-94220000D03*
%TO.P,J2,7,7*%
%TO.N,/ESC2_PHASEB*%
X49900000Y-91680000D03*
%TO.P,J2,8,8*%
X54751000Y-91680000D03*
%TO.P,J2,9,9*%
X49900000Y-89140000D03*
%TO.P,J2,10,10*%
X54751000Y-89140000D03*
%TO.P,J2,11,11*%
X49900000Y-86600000D03*
%TO.P,J2,12,12*%
X54751000Y-86600000D03*
%TO.P,J2,13,13*%
%TO.N,/ESC2_PHASEC*%
X49900000Y-84060000D03*
%TO.P,J2,14,14*%
X54751000Y-84060000D03*
%TO.P,J2,15,15*%
X49900000Y-81520000D03*
%TO.P,J2,16,16*%
X54751000Y-81520000D03*
%TO.P,J2,17,17*%
X49900000Y-78980000D03*
%TO.P,J2,18,18*%
X54751000Y-78980000D03*
%TO.P,J2,19,19*%
%TO.N,/3V3*%
X49900000Y-76440000D03*
%TO.P,J2,20,20*%
X54751000Y-76440000D03*
%TO.P,J2,21,21*%
%TO.N,/TX*%
X49900000Y-73900000D03*
%TO.P,J2,22,22*%
%TO.N,/RX*%
X54751000Y-73900000D03*
%TO.P,J2,23,23*%
%TO.N,/TX_1*%
X49900000Y-71360000D03*
%TO.P,J2,24,24*%
%TO.N,/RX_1*%
X54751000Y-71360000D03*
%TO.P,J2,25,25*%
%TO.N,GND*%
X49900000Y-68820000D03*
%TO.P,J2,26,26*%
X54751000Y-68820000D03*
%TO.P,J2,27,27*%
X49900000Y-66280000D03*
%TO.P,J2,28,28*%
X54751000Y-66280000D03*
%TO.P,J2,29,29*%
X49900000Y-63740000D03*
%TO.P,J2,30,30*%
X54751000Y-63740000D03*
%TO.P,J2,31,31*%
X49900000Y-61200000D03*
%TO.P,J2,32,32*%
X54751000Y-61200000D03*
%TO.P,J2,33,33*%
X49900000Y-58660000D03*
%TO.P,J2,34,34*%
X54751000Y-58660000D03*
%TO.P,J2,35,35*%
X49900000Y-56120000D03*
%TO.P,J2,36,36*%
X54751000Y-56120000D03*
%TO.P,J2,37,37*%
X49900000Y-53580000D03*
%TO.P,J2,38,38*%
X54751000Y-53580000D03*
%TO.P,J2,39,39*%
X49900000Y-51040000D03*
%TO.P,J2,40,40*%
X54751000Y-51040000D03*
%TO.P,J2,41,41*%
X49900000Y-48500000D03*
%TO.P,J2,42,42*%
X54751000Y-48500000D03*
%TO.P,J2,43,43*%
%TO.N,/12V*%
X49900000Y-45960000D03*
%TO.P,J2,44,44*%
X54751000Y-45960000D03*
%TO.P,J2,45,45*%
X49900000Y-43420000D03*
%TO.P,J2,46,46*%
X54751000Y-43420000D03*
%TO.P,J2,47,47*%
X49900000Y-40880000D03*
%TO.P,J2,48,48*%
X54751000Y-40880000D03*
%TO.P,J2,49,49*%
X49900000Y-38340000D03*
%TO.P,J2,50,50*%
X54751000Y-38340000D03*
%TO.P,J2,51,51*%
X49900000Y-35800000D03*
%TO.P,J2,52,52*%
X54751000Y-35800000D03*
%TO.P,J2,53,53*%
X49900000Y-33260000D03*
%TO.P,J2,54,54*%
X54751000Y-33260000D03*
%TO.P,J2,55,55*%
X49900000Y-30720000D03*
%TO.P,J2,56,56*%
X54751000Y-30720000D03*
%TO.P,J2,57,57*%
X49900000Y-28180000D03*
%TO.P,J2,58,58*%
X54751000Y-28180000D03*
%TO.P,J2,59,59*%
X49900000Y-25640000D03*
%TO.P,J2,60,60*%
X54751000Y-25640000D03*
%TD*%
D10*
%TO.P,J16,1,1*%
%TO.N,/ESC6_PHASEC*%
X162489000Y-94080000D03*
D11*
%TO.P,J16,2,2*%
%TO.N,/ESC6_PHASEB*%
X162489000Y-97080000D03*
%TO.P,J16,3,3*%
%TO.N,/ESC6_PHASEA*%
X162489000Y-100080000D03*
%TO.P,J16,4,4*%
%TO.N,/ESC6_PHASEC*%
X159489000Y-94080000D03*
%TO.P,J16,5,5*%
%TO.N,/ESC6_PHASEB*%
X159489000Y-97080000D03*
%TO.P,J16,6,6*%
%TO.N,/ESC6_PHASEA*%
X159489000Y-100080000D03*
%TD*%
D14*
%TO.P,U1,1,1*%
%TO.N,/12V*%
X210200000Y-27600000D03*
D15*
%TO.P,U1,2,2*%
%TO.N,/12Vin*%
X207800000Y-44700000D03*
%TD*%
D12*
%TO.P,J3,1,1*%
%TO.N,/ESC3_PHASEA*%
X73749000Y-99340000D03*
%TO.P,J3,2,2*%
X78600000Y-99340000D03*
%TO.P,J3,3,3*%
X73749000Y-96800000D03*
%TO.P,J3,4,4*%
X78600000Y-96800000D03*
%TO.P,J3,5,5*%
X73749000Y-94260000D03*
%TO.P,J3,6,6*%
X78600000Y-94260000D03*
%TO.P,J3,7,7*%
%TO.N,/ESC3_PHASEB*%
X73749000Y-91720000D03*
%TO.P,J3,8,8*%
X78600000Y-91720000D03*
%TO.P,J3,9,9*%
X73749000Y-89180000D03*
%TO.P,J3,10,10*%
X78600000Y-89180000D03*
%TO.P,J3,11,11*%
X73749000Y-86640000D03*
%TO.P,J3,12,12*%
X78600000Y-86640000D03*
%TO.P,J3,13,13*%
%TO.N,/ESC3_PHASEC*%
X73749000Y-84100000D03*
%TO.P,J3,14,14*%
X78600000Y-84100000D03*
%TO.P,J3,15,15*%
X73749000Y-81560000D03*
%TO.P,J3,16,16*%
X78600000Y-81560000D03*
%TO.P,J3,17,17*%
X73749000Y-79020000D03*
%TO.P,J3,18,18*%
X78600000Y-79020000D03*
%TO.P,J3,19,19*%
%TO.N,/3V3*%
X73749000Y-76480000D03*
%TO.P,J3,20,20*%
X78600000Y-76480000D03*
%TO.P,J3,21,21*%
%TO.N,/TX*%
X73749000Y-73940000D03*
%TO.P,J3,22,22*%
%TO.N,/RX*%
X78600000Y-73940000D03*
%TO.P,J3,23,23*%
%TO.N,/TX_1*%
X73749000Y-71400000D03*
%TO.P,J3,24,24*%
%TO.N,/RX_1*%
X78600000Y-71400000D03*
%TO.P,J3,25,25*%
%TO.N,GND*%
X73749000Y-68860000D03*
%TO.P,J3,26,26*%
X78600000Y-68860000D03*
%TO.P,J3,27,27*%
X73749000Y-66320000D03*
%TO.P,J3,28,28*%
X78600000Y-66320000D03*
%TO.P,J3,29,29*%
X73749000Y-63780000D03*
%TO.P,J3,30,30*%
X78600000Y-63780000D03*
%TO.P,J3,31,31*%
X73749000Y-61240000D03*
%TO.P,J3,32,32*%
X78600000Y-61240000D03*
%TO.P,J3,33,33*%
X73749000Y-58700000D03*
%TO.P,J3,34,34*%
X78600000Y-58700000D03*
%TO.P,J3,35,35*%
X73749000Y-56160000D03*
%TO.P,J3,36,36*%
X78600000Y-56160000D03*
%TO.P,J3,37,37*%
X73749000Y-53620000D03*
%TO.P,J3,38,38*%
X78600000Y-53620000D03*
%TO.P,J3,39,39*%
X73749000Y-51080000D03*
%TO.P,J3,40,40*%
X78600000Y-51080000D03*
%TO.P,J3,41,41*%
X73749000Y-48540000D03*
%TO.P,J3,42,42*%
X78600000Y-48540000D03*
%TO.P,J3,43,43*%
%TO.N,/12V*%
X73749000Y-46000000D03*
%TO.P,J3,44,44*%
X78600000Y-46000000D03*
%TO.P,J3,45,45*%
X73749000Y-43460000D03*
%TO.P,J3,46,46*%
X78600000Y-43460000D03*
%TO.P,J3,47,47*%
X73749000Y-40920000D03*
%TO.P,J3,48,48*%
X78600000Y-40920000D03*
%TO.P,J3,49,49*%
X73749000Y-38380000D03*
%TO.P,J3,50,50*%
X78600000Y-38380000D03*
%TO.P,J3,51,51*%
X73749000Y-35840000D03*
%TO.P,J3,52,52*%
X78600000Y-35840000D03*
%TO.P,J3,53,53*%
X73749000Y-33300000D03*
%TO.P,J3,54,54*%
X78600000Y-33300000D03*
%TO.P,J3,55,55*%
X73749000Y-30760000D03*
%TO.P,J3,56,56*%
X78600000Y-30760000D03*
%TO.P,J3,57,57*%
X73749000Y-28220000D03*
%TO.P,J3,58,58*%
X78600000Y-28220000D03*
%TO.P,J3,59,59*%
X73749000Y-25680000D03*
%TO.P,J3,60,60*%
X78600000Y-25680000D03*
%TD*%
D16*
%TO.P,TP7,1,1*%
%TO.N,/TX_1*%
X217100000Y-81326827D03*
%TD*%
%TO.P,TP5,1,1*%
%TO.N,/TX*%
X212400000Y-81326827D03*
%TD*%
%TO.P,TP2,1,1*%
%TO.N,/3V3*%
X218800000Y-73900000D03*
%TD*%
D12*
%TO.P,J4,1,1*%
%TO.N,/ESC4_PHASEA*%
X97949000Y-99320000D03*
%TO.P,J4,2,2*%
X102800000Y-99320000D03*
%TO.P,J4,3,3*%
X97949000Y-96780000D03*
%TO.P,J4,4,4*%
X102800000Y-96780000D03*
%TO.P,J4,5,5*%
X97949000Y-94240000D03*
%TO.P,J4,6,6*%
X102800000Y-94240000D03*
%TO.P,J4,7,7*%
%TO.N,/ESC4_PHASEB*%
X97949000Y-91700000D03*
%TO.P,J4,8,8*%
X102800000Y-91700000D03*
%TO.P,J4,9,9*%
X97949000Y-89160000D03*
%TO.P,J4,10,10*%
X102800000Y-89160000D03*
%TO.P,J4,11,11*%
X97949000Y-86620000D03*
%TO.P,J4,12,12*%
X102800000Y-86620000D03*
%TO.P,J4,13,13*%
%TO.N,/ESC4_PHASEC*%
X97949000Y-84080000D03*
%TO.P,J4,14,14*%
X102800000Y-84080000D03*
%TO.P,J4,15,15*%
X97949000Y-81540000D03*
%TO.P,J4,16,16*%
X102800000Y-81540000D03*
%TO.P,J4,17,17*%
X97949000Y-79000000D03*
%TO.P,J4,18,18*%
X102800000Y-79000000D03*
%TO.P,J4,19,19*%
%TO.N,/3V3*%
X97949000Y-76460000D03*
%TO.P,J4,20,20*%
X102800000Y-76460000D03*
%TO.P,J4,21,21*%
%TO.N,/TX*%
X97949000Y-73920000D03*
%TO.P,J4,22,22*%
%TO.N,/RX*%
X102800000Y-73920000D03*
%TO.P,J4,23,23*%
%TO.N,/TX_1*%
X97949000Y-71380000D03*
%TO.P,J4,24,24*%
%TO.N,/RX_1*%
X102800000Y-71380000D03*
%TO.P,J4,25,25*%
%TO.N,GND*%
X97949000Y-68840000D03*
%TO.P,J4,26,26*%
X102800000Y-68840000D03*
%TO.P,J4,27,27*%
X97949000Y-66300000D03*
%TO.P,J4,28,28*%
X102800000Y-66300000D03*
%TO.P,J4,29,29*%
X97949000Y-63760000D03*
%TO.P,J4,30,30*%
X102800000Y-63760000D03*
%TO.P,J4,31,31*%
X97949000Y-61220000D03*
%TO.P,J4,32,32*%
X102800000Y-61220000D03*
%TO.P,J4,33,33*%
X97949000Y-58680000D03*
%TO.P,J4,34,34*%
X102800000Y-58680000D03*
%TO.P,J4,35,35*%
X97949000Y-56140000D03*
%TO.P,J4,36,36*%
X102800000Y-56140000D03*
%TO.P,J4,37,37*%
X97949000Y-53600000D03*
%TO.P,J4,38,38*%
X102800000Y-53600000D03*
%TO.P,J4,39,39*%
X97949000Y-51060000D03*
%TO.P,J4,40,40*%
X102800000Y-51060000D03*
%TO.P,J4,41,41*%
X97949000Y-48520000D03*
%TO.P,J4,42,42*%
X102800000Y-48520000D03*
%TO.P,J4,43,43*%
%TO.N,/12V*%
X97949000Y-45980000D03*
%TO.P,J4,44,44*%
X102800000Y-45980000D03*
%TO.P,J4,45,45*%
X97949000Y-43440000D03*
%TO.P,J4,46,46*%
X102800000Y-43440000D03*
%TO.P,J4,47,47*%
X97949000Y-40900000D03*
%TO.P,J4,48,48*%
X102800000Y-40900000D03*
%TO.P,J4,49,49*%
X97949000Y-38360000D03*
%TO.P,J4,50,50*%
X102800000Y-38360000D03*
%TO.P,J4,51,51*%
X97949000Y-35820000D03*
%TO.P,J4,52,52*%
X102800000Y-35820000D03*
%TO.P,J4,53,53*%
X97949000Y-33280000D03*
%TO.P,J4,54,54*%
X102800000Y-33280000D03*
%TO.P,J4,55,55*%
X97949000Y-30740000D03*
%TO.P,J4,56,56*%
X102800000Y-30740000D03*
%TO.P,J4,57,57*%
X97949000Y-28200000D03*
%TO.P,J4,58,58*%
X102800000Y-28200000D03*
%TO.P,J4,59,59*%
X97949000Y-25660000D03*
%TO.P,J4,60,60*%
X102800000Y-25660000D03*
%TD*%
%TO.P,J1,1,1*%
%TO.N,/ESC1_PHASEA*%
X25801190Y-99291500D03*
%TO.P,J1,2,2*%
X30652190Y-99291500D03*
%TO.P,J1,3,3*%
X25801190Y-96751500D03*
%TO.P,J1,4,4*%
X30652190Y-96751500D03*
%TO.P,J1,5,5*%
X25801190Y-94211500D03*
%TO.P,J1,6,6*%
X30652190Y-94211500D03*
%TO.P,J1,7,7*%
%TO.N,/ESC1_PHASEB*%
X25801190Y-91671500D03*
%TO.P,J1,8,8*%
X30652190Y-91671500D03*
%TO.P,J1,9,9*%
X25801190Y-89131500D03*
%TO.P,J1,10,10*%
X30652190Y-89131500D03*
%TO.P,J1,11,11*%
X25801190Y-86591500D03*
%TO.P,J1,12,12*%
X30652190Y-86591500D03*
%TO.P,J1,13,13*%
%TO.N,/ESC1_PHASEC*%
X25801190Y-84051500D03*
%TO.P,J1,14,14*%
X30652190Y-84051500D03*
%TO.P,J1,15,15*%
X25801190Y-81511500D03*
%TO.P,J1,16,16*%
X30652190Y-81511500D03*
%TO.P,J1,17,17*%
X25801190Y-78971500D03*
%TO.P,J1,18,18*%
X30652190Y-78971500D03*
%TO.P,J1,19,19*%
%TO.N,/3V3*%
X25801190Y-76431500D03*
%TO.P,J1,20,20*%
X30652190Y-76431500D03*
%TO.P,J1,21,21*%
%TO.N,/TX*%
X25801190Y-73891500D03*
%TO.P,J1,22,22*%
%TO.N,/RX*%
X30652190Y-73891500D03*
%TO.P,J1,23,23*%
%TO.N,/TX_1*%
X25801190Y-71351500D03*
%TO.P,J1,24,24*%
%TO.N,/RX_1*%
X30652190Y-71351500D03*
%TO.P,J1,25,25*%
%TO.N,GND*%
X25801190Y-68811500D03*
%TO.P,J1,26,26*%
X30652190Y-68811500D03*
%TO.P,J1,27,27*%
X25801190Y-66271500D03*
%TO.P,J1,28,28*%
X30652190Y-66271500D03*
%TO.P,J1,29,29*%
X25801190Y-63731500D03*
%TO.P,J1,30,30*%
X30652190Y-63731500D03*
%TO.P,J1,31,31*%
X25801190Y-61191500D03*
%TO.P,J1,32,32*%
X30652190Y-61191500D03*
%TO.P,J1,33,33*%
X25801190Y-58651500D03*
%TO.P,J1,34,34*%
X30652190Y-58651500D03*
%TO.P,J1,35,35*%
X25801190Y-56111500D03*
%TO.P,J1,36,36*%
X30652190Y-56111500D03*
%TO.P,J1,37,37*%
X25801190Y-53571500D03*
%TO.P,J1,38,38*%
X30652190Y-53571500D03*
%TO.P,J1,39,39*%
X25801190Y-51031500D03*
%TO.P,J1,40,40*%
X30652190Y-51031500D03*
%TO.P,J1,41,41*%
X25801190Y-48491500D03*
%TO.P,J1,42,42*%
X30652190Y-48491500D03*
%TO.P,J1,43,43*%
%TO.N,/12V*%
X25801190Y-45951500D03*
%TO.P,J1,44,44*%
X30652190Y-45951500D03*
%TO.P,J1,45,45*%
X25801190Y-43411500D03*
%TO.P,J1,46,46*%
X30652190Y-43411500D03*
%TO.P,J1,47,47*%
X25801190Y-40871500D03*
%TO.P,J1,48,48*%
X30652190Y-40871500D03*
%TO.P,J1,49,49*%
X25801190Y-38331500D03*
%TO.P,J1,50,50*%
X30652190Y-38331500D03*
%TO.P,J1,51,51*%
X25801190Y-35791500D03*
%TO.P,J1,52,52*%
X30652190Y-35791500D03*
%TO.P,J1,53,53*%
X25801190Y-33251500D03*
%TO.P,J1,54,54*%
X30652190Y-33251500D03*
%TO.P,J1,55,55*%
X25801190Y-30711500D03*
%TO.P,J1,56,56*%
X30652190Y-30711500D03*
%TO.P,J1,57,57*%
X25801190Y-28171500D03*
%TO.P,J1,58,58*%
X30652190Y-28171500D03*
%TO.P,J1,59,59*%
X25801190Y-25631500D03*
%TO.P,J1,60,60*%
X30652190Y-25631500D03*
%TD*%
D10*
%TO.P,J12,1,1*%
%TO.N,/ESC2_PHASEC*%
X65891000Y-94000000D03*
D11*
%TO.P,J12,2,2*%
%TO.N,/ESC2_PHASEB*%
X65891000Y-97000000D03*
%TO.P,J12,3,3*%
%TO.N,/ESC2_PHASEA*%
X65891000Y-100000000D03*
%TO.P,J12,4,4*%
%TO.N,/ESC2_PHASEC*%
X62891000Y-94000000D03*
%TO.P,J12,5,5*%
%TO.N,/ESC2_PHASEB*%
X62891000Y-97000000D03*
%TO.P,J12,6,6*%
%TO.N,/ESC2_PHASEA*%
X62891000Y-100000000D03*
%TD*%
D12*
%TO.P,J8,1,1*%
%TO.N,/ESC8_PHASEA*%
X194649000Y-99380000D03*
%TO.P,J8,2,2*%
X199500000Y-99380000D03*
%TO.P,J8,3,3*%
X194649000Y-96840000D03*
%TO.P,J8,4,4*%
X199500000Y-96840000D03*
%TO.P,J8,5,5*%
X194649000Y-94300000D03*
%TO.P,J8,6,6*%
X199500000Y-94300000D03*
%TO.P,J8,7,7*%
%TO.N,/ESC8_PHASEB*%
X194649000Y-91760000D03*
%TO.P,J8,8,8*%
X199500000Y-91760000D03*
%TO.P,J8,9,9*%
X194649000Y-89220000D03*
%TO.P,J8,10,10*%
X199500000Y-89220000D03*
%TO.P,J8,11,11*%
X194649000Y-86680000D03*
%TO.P,J8,12,12*%
X199500000Y-86680000D03*
%TO.P,J8,13,13*%
%TO.N,/ESC8_PHASEC*%
X194649000Y-84140000D03*
%TO.P,J8,14,14*%
X199500000Y-84140000D03*
%TO.P,J8,15,15*%
X194649000Y-81600000D03*
%TO.P,J8,16,16*%
X199500000Y-81600000D03*
%TO.P,J8,17,17*%
X194649000Y-79060000D03*
%TO.P,J8,18,18*%
X199500000Y-79060000D03*
%TO.P,J8,19,19*%
%TO.N,/3V3*%
X194649000Y-76520000D03*
%TO.P,J8,20,20*%
X199500000Y-76520000D03*
%TO.P,J8,21,21*%
%TO.N,/TX*%
X194649000Y-73980000D03*
%TO.P,J8,22,22*%
%TO.N,/RX*%
X199500000Y-73980000D03*
%TO.P,J8,23,23*%
%TO.N,/TX_1*%
X194649000Y-71440000D03*
%TO.P,J8,24,24*%
%TO.N,/RX_1*%
X199500000Y-71440000D03*
%TO.P,J8,25,25*%
%TO.N,GND*%
X194649000Y-68900000D03*
%TO.P,J8,26,26*%
X199500000Y-68900000D03*
%TO.P,J8,27,27*%
X194649000Y-66360000D03*
%TO.P,J8,28,28*%
X199500000Y-66360000D03*
%TO.P,J8,29,29*%
X194649000Y-63820000D03*
%TO.P,J8,30,30*%
X199500000Y-63820000D03*
%TO.P,J8,31,31*%
X194649000Y-61280000D03*
%TO.P,J8,32,32*%
X199500000Y-61280000D03*
%TO.P,J8,33,33*%
X194649000Y-58740000D03*
%TO.P,J8,34,34*%
X199500000Y-58740000D03*
%TO.P,J8,35,35*%
X194649000Y-56200000D03*
%TO.P,J8,36,36*%
X199500000Y-56200000D03*
%TO.P,J8,37,37*%
X194649000Y-53660000D03*
%TO.P,J8,38,38*%
X199500000Y-53660000D03*
%TO.P,J8,39,39*%
X194649000Y-51120000D03*
%TO.P,J8,40,40*%
X199500000Y-51120000D03*
%TO.P,J8,41,41*%
X194649000Y-48580000D03*
%TO.P,J8,42,42*%
X199500000Y-48580000D03*
%TO.P,J8,43,43*%
%TO.N,/12V*%
X194649000Y-46040000D03*
%TO.P,J8,44,44*%
X199500000Y-46040000D03*
%TO.P,J8,45,45*%
X194649000Y-43500000D03*
%TO.P,J8,46,46*%
X199500000Y-43500000D03*
%TO.P,J8,47,47*%
X194649000Y-40960000D03*
%TO.P,J8,48,48*%
X199500000Y-40960000D03*
%TO.P,J8,49,49*%
X194649000Y-38420000D03*
%TO.P,J8,50,50*%
X199500000Y-38420000D03*
%TO.P,J8,51,51*%
X194649000Y-35880000D03*
%TO.P,J8,52,52*%
X199500000Y-35880000D03*
%TO.P,J8,53,53*%
X194649000Y-33340000D03*
%TO.P,J8,54,54*%
X199500000Y-33340000D03*
%TO.P,J8,55,55*%
X194649000Y-30800000D03*
%TO.P,J8,56,56*%
X199500000Y-30800000D03*
%TO.P,J8,57,57*%
X194649000Y-28260000D03*
%TO.P,J8,58,58*%
X199500000Y-28260000D03*
%TO.P,J8,59,59*%
X194649000Y-25720000D03*
%TO.P,J8,60,60*%
X199500000Y-25720000D03*
%TD*%
D16*
%TO.P,TP1,1,1*%
%TO.N,/12V*%
X35800000Y-25600000D03*
%TD*%
D17*
%TO.P,J9,1,1*%
%TO.N,/TX*%
X207000000Y-79600000D03*
D18*
%TO.P,J9,2,2*%
%TO.N,/RX*%
X207000000Y-78350000D03*
%TO.P,J9,3,3*%
%TO.N,/TX_1*%
X207000000Y-77100000D03*
%TO.P,J9,4,4*%
%TO.N,/RX_1*%
X207000000Y-75850000D03*
%TO.P,J9,5,5*%
%TO.N,GND*%
X207000000Y-74600000D03*
%TD*%
D16*
%TO.P,TP6,1,1*%
%TO.N,/RX_1*%
X217100000Y-78126120D03*
%TD*%
D10*
%TO.P,J18,1,1*%
%TO.N,/ESC8_PHASEC*%
X210789000Y-94180000D03*
D11*
%TO.P,J18,2,2*%
%TO.N,/ESC8_PHASEB*%
X210789000Y-97180000D03*
%TO.P,J18,3,3*%
%TO.N,/ESC8_PHASEA*%
X210789000Y-100180000D03*
%TO.P,J18,4,4*%
%TO.N,/ESC8_PHASEC*%
X207789000Y-94180000D03*
%TO.P,J18,5,5*%
%TO.N,/ESC8_PHASEB*%
X207789000Y-97180000D03*
%TO.P,J18,6,6*%
%TO.N,/ESC8_PHASEA*%
X207789000Y-100180000D03*
%TD*%
D10*
%TO.P,J11,1,1*%
%TO.N,/ESC1_PHASEC*%
X42041190Y-94031500D03*
D11*
%TO.P,J11,2,2*%
%TO.N,/ESC1_PHASEB*%
X42041190Y-97031500D03*
%TO.P,J11,3,3*%
%TO.N,/ESC1_PHASEA*%
X42041190Y-100031500D03*
%TO.P,J11,4,4*%
%TO.N,/ESC1_PHASEC*%
X39041190Y-94031500D03*
%TO.P,J11,5,5*%
%TO.N,/ESC1_PHASEB*%
X39041190Y-97031500D03*
%TO.P,J11,6,6*%
%TO.N,/ESC1_PHASEA*%
X39041190Y-100031500D03*
%TD*%
D16*
%TO.P,TP4,1,1*%
%TO.N,/RX*%
X212400000Y-78126120D03*
%TD*%
D10*
%TO.P,J14,1,1*%
%TO.N,/ESC4_PHASEC*%
X114149000Y-94020000D03*
D11*
%TO.P,J14,2,2*%
%TO.N,/ESC4_PHASEB*%
X114149000Y-97020000D03*
%TO.P,J14,3,3*%
%TO.N,/ESC4_PHASEA*%
X114149000Y-100020000D03*
%TO.P,J14,4,4*%
%TO.N,/ESC4_PHASEC*%
X111149000Y-94020000D03*
%TO.P,J14,5,5*%
%TO.N,/ESC4_PHASEB*%
X111149000Y-97020000D03*
%TO.P,J14,6,6*%
%TO.N,/ESC4_PHASEA*%
X111149000Y-100020000D03*
%TD*%
D10*
%TO.P,J15,1,1*%
%TO.N,/ESC5_PHASEC*%
X138349000Y-94060000D03*
D11*
%TO.P,J15,2,2*%
%TO.N,/ESC5_PHASEB*%
X138349000Y-97060000D03*
%TO.P,J15,3,3*%
%TO.N,/ESC5_PHASEA*%
X138349000Y-100060000D03*
%TO.P,J15,4,4*%
%TO.N,/ESC5_PHASEC*%
X135349000Y-94060000D03*
%TO.P,J15,5,5*%
%TO.N,/ESC5_PHASEB*%
X135349000Y-97060000D03*
%TO.P,J15,6,6*%
%TO.N,/ESC5_PHASEA*%
X135349000Y-100060000D03*
%TD*%
D12*
%TO.P,J6,1,1*%
%TO.N,/ESC6_PHASEA*%
X146298000Y-99380000D03*
%TO.P,J6,2,2*%
X151149000Y-99380000D03*
%TO.P,J6,3,3*%
X146298000Y-96840000D03*
%TO.P,J6,4,4*%
X151149000Y-96840000D03*
%TO.P,J6,5,5*%
X146298000Y-94300000D03*
%TO.P,J6,6,6*%
X151149000Y-94300000D03*
%TO.P,J6,7,7*%
%TO.N,/ESC6_PHASEB*%
X146298000Y-91760000D03*
%TO.P,J6,8,8*%
X151149000Y-91760000D03*
%TO.P,J6,9,9*%
X146298000Y-89220000D03*
%TO.P,J6,10,10*%
X151149000Y-89220000D03*
%TO.P,J6,11,11*%
X146298000Y-86680000D03*
%TO.P,J6,12,12*%
X151149000Y-86680000D03*
%TO.P,J6,13,13*%
%TO.N,/ESC6_PHASEC*%
X146298000Y-84140000D03*
%TO.P,J6,14,14*%
X151149000Y-84140000D03*
%TO.P,J6,15,15*%
X146298000Y-81600000D03*
%TO.P,J6,16,16*%
X151149000Y-81600000D03*
%TO.P,J6,17,17*%
X146298000Y-79060000D03*
%TO.P,J6,18,18*%
X151149000Y-79060000D03*
%TO.P,J6,19,19*%
%TO.N,/3V3*%
X146298000Y-76520000D03*
%TO.P,J6,20,20*%
X151149000Y-76520000D03*
%TO.P,J6,21,21*%
%TO.N,/TX*%
X146298000Y-73980000D03*
%TO.P,J6,22,22*%
%TO.N,/RX*%
X151149000Y-73980000D03*
%TO.P,J6,23,23*%
%TO.N,/TX_1*%
X146298000Y-71440000D03*
%TO.P,J6,24,24*%
%TO.N,/RX_1*%
X151149000Y-71440000D03*
%TO.P,J6,25,25*%
%TO.N,GND*%
X146298000Y-68900000D03*
%TO.P,J6,26,26*%
X151149000Y-68900000D03*
%TO.P,J6,27,27*%
X146298000Y-66360000D03*
%TO.P,J6,28,28*%
X151149000Y-66360000D03*
%TO.P,J6,29,29*%
X146298000Y-63820000D03*
%TO.P,J6,30,30*%
X151149000Y-63820000D03*
%TO.P,J6,31,31*%
X146298000Y-61280000D03*
%TO.P,J6,32,32*%
X151149000Y-61280000D03*
%TO.P,J6,33,33*%
X146298000Y-58740000D03*
%TO.P,J6,34,34*%
X151149000Y-58740000D03*
%TO.P,J6,35,35*%
X146298000Y-56200000D03*
%TO.P,J6,36,36*%
X151149000Y-56200000D03*
%TO.P,J6,37,37*%
X146298000Y-53660000D03*
%TO.P,J6,38,38*%
X151149000Y-53660000D03*
%TO.P,J6,39,39*%
X146298000Y-51120000D03*
%TO.P,J6,40,40*%
X151149000Y-51120000D03*
%TO.P,J6,41,41*%
X146298000Y-48580000D03*
%TO.P,J6,42,42*%
X151149000Y-48580000D03*
%TO.P,J6,43,43*%
%TO.N,/12V*%
X146298000Y-46040000D03*
%TO.P,J6,44,44*%
X151149000Y-46040000D03*
%TO.P,J6,45,45*%
X146298000Y-43500000D03*
%TO.P,J6,46,46*%
X151149000Y-43500000D03*
%TO.P,J6,47,47*%
X146298000Y-40960000D03*
%TO.P,J6,48,48*%
X151149000Y-40960000D03*
%TO.P,J6,49,49*%
X146298000Y-38420000D03*
%TO.P,J6,50,50*%
X151149000Y-38420000D03*
%TO.P,J6,51,51*%
X146298000Y-35880000D03*
%TO.P,J6,52,52*%
X151149000Y-35880000D03*
%TO.P,J6,53,53*%
X146298000Y-33340000D03*
%TO.P,J6,54,54*%
X151149000Y-33340000D03*
%TO.P,J6,55,55*%
X146298000Y-30800000D03*
%TO.P,J6,56,56*%
X151149000Y-30800000D03*
%TO.P,J6,57,57*%
X146298000Y-28260000D03*
%TO.P,J6,58,58*%
X151149000Y-28260000D03*
%TO.P,J6,59,59*%
X146298000Y-25720000D03*
%TO.P,J6,60,60*%
X151149000Y-25720000D03*
%TD*%
D19*
%TO.N,GND*%
X62800000Y-81500000D03*
X86100000Y-80200000D03*
X181900000Y-80800000D03*
X134200000Y-81100000D03*
X162500000Y-50800000D03*
X115000000Y-57500000D03*
X84300000Y-57100000D03*
X217200000Y-29000000D03*
X42900000Y-48900000D03*
X217000000Y-95500000D03*
X131800000Y-55800000D03*
X60900000Y-52700000D03*
X90900000Y-59100000D03*
X66000000Y-79900000D03*
X137000000Y-53900000D03*
X36300000Y-62400000D03*
X135800000Y-66100000D03*
X186700000Y-57800000D03*
X220000000Y-89400000D03*
X220900000Y-72900000D03*
X216400000Y-22900000D03*
X89300000Y-51200000D03*
X67400000Y-59700000D03*
X60500000Y-65000000D03*
X35900000Y-80800000D03*
X116100000Y-50300000D03*
X164000000Y-85700000D03*
X219500000Y-44900000D03*
X139600000Y-79800000D03*
X40500000Y-55300000D03*
X213800000Y-86700000D03*
X203500000Y-53300000D03*
X84900000Y-64700000D03*
X182800000Y-64600000D03*
X108900000Y-80800000D03*
X108300000Y-65500000D03*
X117100000Y-86400000D03*
X180400000Y-59200000D03*
X188500000Y-80000000D03*
X64800000Y-50000000D03*
X220200000Y-34500000D03*
X182200000Y-52200000D03*
X157800000Y-54200000D03*
X140000000Y-60100000D03*
X156900000Y-80300000D03*
X159500000Y-62200000D03*
X43000000Y-62900000D03*
X90700000Y-81500000D03*
X165000000Y-65700000D03*
X42100000Y-85100000D03*
%TO.N,/TX*%
X210200000Y-81200000D03*
%TO.N,/TX_1*%
X214900000Y-81300000D03*
%TD*%
D20*
%TO.N,/12V*%
X35840000Y-25640000D02*
X35800000Y-25600000D01*
D21*
X208320000Y-25720000D02*
X210200000Y-27600000D01*
D20*
X127120000Y-25720000D02*
X127000000Y-25600000D01*
D21*
X25801190Y-25631500D02*
X30652190Y-25631500D01*
D20*
X30683690Y-25600000D02*
X30652190Y-25631500D01*
D21*
X199411500Y-25631500D02*
X199500000Y-25720000D01*
X199500000Y-25720000D02*
X208320000Y-25720000D01*
X25801190Y-25631500D02*
X199411500Y-25631500D01*
D20*
X54791000Y-25680000D02*
X54751000Y-25640000D01*
D22*
%TO.N,/RX*%
X201574016Y-73980000D02*
X205944016Y-78350000D01*
X207000000Y-78350000D02*
X212176120Y-78350000D01*
X212176120Y-78350000D02*
X212400000Y-78126120D01*
X205944016Y-78350000D02*
X207000000Y-78350000D01*
X199500000Y-73980000D02*
X201574016Y-73980000D01*
D23*
%TO.N,/ESC1_PHASEA*%
X39041190Y-100031500D02*
X31392190Y-100031500D01*
X39041190Y-100031500D02*
X42041190Y-100031500D01*
X31392190Y-100031500D02*
X30652190Y-99291500D01*
D22*
%TO.N,/TX*%
X212400000Y-81326827D02*
X210326827Y-81326827D01*
X210326827Y-81326827D02*
X210200000Y-81200000D01*
%TO.N,/RX_1*%
X207000000Y-75850000D02*
X214823880Y-75850000D01*
X203910000Y-75850000D02*
X207000000Y-75850000D01*
X214823880Y-75850000D02*
X217100000Y-78126120D01*
X199500000Y-71440000D02*
X203910000Y-75850000D01*
%TO.N,/TX_1*%
X217100000Y-81326827D02*
X214926827Y-81326827D01*
D20*
X194528293Y-71319293D02*
X194649000Y-71440000D01*
X214926827Y-81326827D02*
X214900000Y-81300000D01*
D24*
%TO.N,/3V3*%
X218800000Y-73900000D02*
X209475298Y-73900000D01*
X201349865Y-76520000D02*
X199500000Y-76520000D01*
X204828776Y-64299998D02*
X206000000Y-64299998D01*
X207376327Y-83776327D02*
X202864932Y-79264932D01*
X206075298Y-70500000D02*
X204800000Y-70500000D01*
X202864932Y-78035067D02*
X201349865Y-76520000D01*
X207376327Y-83776327D02*
X218423673Y-83776327D01*
X209475298Y-73900000D02*
X206075298Y-70500000D01*
X204800000Y-70500000D02*
X202900000Y-68600000D01*
X202900000Y-66228774D02*
X204828776Y-64299998D01*
X219800000Y-82400000D02*
X219800000Y-74900000D01*
X202864932Y-79264932D02*
X202864932Y-78035067D01*
X202900000Y-68600000D02*
X202900000Y-66228774D01*
X218423673Y-83776327D02*
X219800000Y-82400000D01*
X219800000Y-74900000D02*
X218800000Y-73900000D01*
D23*
%TO.N,/ESC1_PHASEC*%
X42041190Y-94031500D02*
X39041190Y-94031500D01*
X31729820Y-81511500D02*
X42041190Y-91822870D01*
X42041190Y-91822870D02*
X42041190Y-94031500D01*
X30652190Y-81511500D02*
X31729820Y-81511500D01*
%TO.N,/ESC1_PHASEB*%
X36091690Y-92091690D02*
X36091690Y-95253223D01*
X37869967Y-97031500D02*
X42041190Y-97031500D01*
X36091690Y-95253223D02*
X37869967Y-97031500D01*
X30652190Y-89131500D02*
X33131500Y-89131500D01*
X33131500Y-89131500D02*
X36091690Y-92091690D01*
%TO.N,/ESC2_PHASEA*%
X62891000Y-100000000D02*
X55451000Y-100000000D01*
X55451000Y-100000000D02*
X54751000Y-99300000D01*
X62891000Y-100000000D02*
X65891000Y-100000000D01*
%TO.N,/ESC2_PHASEC*%
X65891000Y-91582370D02*
X65891000Y-94000000D01*
X55828630Y-81520000D02*
X65891000Y-91582370D01*
X65891000Y-94000000D02*
X62891000Y-94000000D01*
X54751000Y-81520000D02*
X55828630Y-81520000D01*
%TO.N,/ESC2_PHASEB*%
X56340000Y-89140000D02*
X59400000Y-92200000D01*
X59400000Y-92200000D02*
X59400000Y-94800000D01*
X54751000Y-89140000D02*
X56340000Y-89140000D01*
X59400000Y-94800000D02*
X61600000Y-97000000D01*
X61600000Y-97000000D02*
X65891000Y-97000000D01*
%TO.N,/ESC3_PHASEA*%
X79360000Y-100100000D02*
X78600000Y-99340000D01*
X87089000Y-100100000D02*
X79360000Y-100100000D01*
X87089000Y-100100000D02*
X90089000Y-100100000D01*
%TO.N,/ESC3_PHASEC*%
X90089000Y-91971370D02*
X90089000Y-94100000D01*
X79677630Y-81560000D02*
X90089000Y-91971370D01*
X90089000Y-94100000D02*
X87089000Y-94100000D01*
X78600000Y-81560000D02*
X79677630Y-81560000D01*
%TO.N,/ESC3_PHASEB*%
X83500000Y-94900000D02*
X85700000Y-97100000D01*
X78600000Y-89180000D02*
X81180000Y-89180000D01*
X83500000Y-91500000D02*
X83500000Y-94900000D01*
X85700000Y-97100000D02*
X90089000Y-97100000D01*
X81180000Y-89180000D02*
X83500000Y-91500000D01*
%TO.N,/ESC4_PHASEA*%
X103500000Y-100020000D02*
X102800000Y-99320000D01*
X111149000Y-100020000D02*
X114149000Y-100020000D01*
X111149000Y-100020000D02*
X103500000Y-100020000D01*
%TO.N,/ESC4_PHASEC*%
X114149000Y-91811370D02*
X114149000Y-94020000D01*
X114149000Y-94020000D02*
X111149000Y-94020000D01*
X102800000Y-81540000D02*
X103877630Y-81540000D01*
X103877630Y-81540000D02*
X114149000Y-91811370D01*
%TO.N,/ESC4_PHASEB*%
X102800000Y-89160000D02*
X105460000Y-89160000D01*
X107900000Y-91600000D02*
X107900000Y-94942223D01*
X105460000Y-89160000D02*
X107900000Y-91600000D01*
X109977777Y-97020000D02*
X114149000Y-97020000D01*
X107900000Y-94942223D02*
X109977777Y-97020000D01*
%TO.N,/ESC5_PHASEA*%
X127800000Y-100060000D02*
X127000000Y-99260000D01*
X135349000Y-100060000D02*
X138349000Y-100060000D01*
X135349000Y-100060000D02*
X127800000Y-100060000D01*
%TO.N,/ESC5_PHASEC*%
X127000000Y-81480000D02*
X128077630Y-81480000D01*
X128077630Y-81480000D02*
X138349000Y-91751370D01*
X138349000Y-91751370D02*
X138349000Y-94060000D01*
X138349000Y-94060000D02*
X135349000Y-94060000D01*
%TO.N,/ESC5_PHASEB*%
X127000000Y-89100000D02*
X129100000Y-89100000D01*
X134177777Y-97060000D02*
X138349000Y-97060000D01*
X131700000Y-91700000D02*
X131700000Y-94582223D01*
X129100000Y-89100000D02*
X131700000Y-91700000D01*
X131700000Y-94582223D02*
X134177777Y-97060000D01*
%TO.N,/ESC6_PHASEA*%
X151849000Y-100080000D02*
X151149000Y-99380000D01*
X159489000Y-100080000D02*
X162489000Y-100080000D01*
X159489000Y-100080000D02*
X151849000Y-100080000D01*
%TO.N,/ESC6_PHASEC*%
X162489000Y-94080000D02*
X159489000Y-94080000D01*
X151149000Y-81600000D02*
X152226630Y-81600000D01*
X162489000Y-91862370D02*
X162489000Y-94080000D01*
X152226630Y-81600000D02*
X162489000Y-91862370D01*
%TO.N,/ESC6_PHASEB*%
X156100000Y-94862223D02*
X158317777Y-97080000D01*
X156100000Y-91800000D02*
X156100000Y-94862223D01*
X158317777Y-97080000D02*
X162489000Y-97080000D01*
X151149000Y-89220000D02*
X153520000Y-89220000D01*
X153520000Y-89220000D02*
X156100000Y-91800000D01*
%TO.N,/ESC7_PHASEA*%
X176020000Y-100120000D02*
X175300000Y-99400000D01*
X183649000Y-100120000D02*
X176020000Y-100120000D01*
X183649000Y-100120000D02*
X186649000Y-100120000D01*
%TO.N,/ESC7_PHASEC*%
X176377630Y-81620000D02*
X186649000Y-91891370D01*
X186649000Y-91891370D02*
X186649000Y-94120000D01*
X175300000Y-81620000D02*
X176377630Y-81620000D01*
X186649000Y-94120000D02*
X183649000Y-94120000D01*
%TO.N,/ESC7_PHASEB*%
X182477777Y-97120000D02*
X186649000Y-97120000D01*
X180100000Y-94742223D02*
X182477777Y-97120000D01*
X175300000Y-89240000D02*
X178140000Y-89240000D01*
X180100000Y-91200000D02*
X180100000Y-94742223D01*
X178140000Y-89240000D02*
X180100000Y-91200000D01*
%TO.N,/ESC8_PHASEA*%
X200300000Y-100180000D02*
X199500000Y-99380000D01*
X207789000Y-100180000D02*
X210789000Y-100180000D01*
X207789000Y-100180000D02*
X200300000Y-100180000D01*
%TO.N,/ESC8_PHASEC*%
X210789000Y-91811370D02*
X210789000Y-94180000D01*
X200577630Y-81600000D02*
X210789000Y-91811370D01*
X210789000Y-94180000D02*
X207789000Y-94180000D01*
X199500000Y-81600000D02*
X200577630Y-81600000D01*
%TO.N,/ESC8_PHASEB*%
X207789000Y-97180000D02*
X210789000Y-97180000D01*
X206617777Y-97180000D02*
X207789000Y-97180000D01*
X204100000Y-91000000D02*
X204100000Y-94662223D01*
X199500000Y-89220000D02*
X202320000Y-89220000D01*
X202320000Y-89220000D02*
X204100000Y-91000000D01*
X204100000Y-94662223D02*
X206617777Y-97180000D01*
D25*
%TO.N,/12Vin*%
X208999999Y-67299997D02*
X208999999Y-64299998D01*
X208999999Y-67299997D02*
X206000000Y-67299997D01*
D21*
X212000000Y-44700000D02*
X216974497Y-49674497D01*
X207800000Y-44700000D02*
X212000000Y-44700000D01*
X216974497Y-49674497D02*
X216974497Y-59325499D01*
X216974497Y-59325499D02*
X208999999Y-67299997D01*
%TD*%
%TA.AperFunction,Conductor*%
%TO.N,/RX*%
G36*
X206813144Y-77898891D02*
G01*
X206813442Y-77899549D01*
X206999127Y-78345503D01*
X206999144Y-78354457D01*
X206999127Y-78354497D01*
X206813442Y-78800450D01*
X206807098Y-78806771D01*
X206798144Y-78806754D01*
X206797486Y-78806456D01*
X206006545Y-78418212D01*
X206000628Y-78411490D01*
X206000000Y-78407709D01*
X206000000Y-78292290D01*
X206003427Y-78284017D01*
X206006543Y-78281787D01*
X206797488Y-77893542D01*
X206806422Y-77892974D01*
X206813144Y-77898891D01*
G37*
%TD.AperFunction*%
%TD*%
%TA.AperFunction,Conductor*%
%TO.N,/TX_1*%
G36*
X216721778Y-80413824D02*
G01*
X216722250Y-80414825D01*
X217099136Y-81322340D01*
X217099145Y-81331294D01*
X217099136Y-81331314D01*
X216722250Y-82238828D01*
X216715912Y-82245155D01*
X216706958Y-82245146D01*
X216705957Y-82244674D01*
X215106212Y-81395125D01*
X215100513Y-81388218D01*
X215100000Y-81384792D01*
X215100000Y-81268861D01*
X215103427Y-81260588D01*
X215106212Y-81258528D01*
X216705958Y-80408978D01*
X216714871Y-80408125D01*
X216721778Y-80413824D01*
G37*
%TD.AperFunction*%
%TD*%
%TA.AperFunction,Conductor*%
%TO.N,/RX_1*%
G36*
X215738468Y-76668003D02*
G01*
X217470385Y-77198473D01*
X217477291Y-77204171D01*
X217478145Y-77213085D01*
X217477772Y-77214126D01*
X217102562Y-78122335D01*
X217096235Y-78128673D01*
X217096215Y-78128682D01*
X216188006Y-78503892D01*
X216179052Y-78503883D01*
X216172725Y-78497545D01*
X216172358Y-78496521D01*
X215641884Y-76764591D01*
X215642738Y-76755680D01*
X215644795Y-76752898D01*
X215726776Y-76670917D01*
X215735048Y-76667491D01*
X215738468Y-76668003D01*
G37*
%TD.AperFunction*%
%TD*%
%TA.AperFunction,Conductor*%
%TO.N,/TX*%
G36*
X212021778Y-80413824D02*
G01*
X212022250Y-80414825D01*
X212399136Y-81322340D01*
X212399145Y-81331294D01*
X212399136Y-81331314D01*
X212022250Y-82238828D01*
X212015912Y-82245155D01*
X212006958Y-82245146D01*
X212005957Y-82244674D01*
X210406211Y-81395125D01*
X210400512Y-81388218D01*
X210400000Y-81384798D01*
X210400000Y-81268858D01*
X210403426Y-81260588D01*
X210406207Y-81258530D01*
X212005958Y-80408978D01*
X212014871Y-80408125D01*
X212021778Y-80413824D01*
G37*
%TD.AperFunction*%
%TD*%
%TA.AperFunction,Conductor*%
%TO.N,/RX*%
G36*
X211699803Y-77425914D02*
G01*
X212395458Y-78120586D01*
X212398891Y-78128857D01*
X212397996Y-78133352D01*
X212021760Y-79039301D01*
X212015422Y-79045628D01*
X212006575Y-79045663D01*
X210451852Y-78417955D01*
X210445463Y-78411680D01*
X210444532Y-78407106D01*
X210444532Y-78291122D01*
X210447959Y-78282849D01*
X210449555Y-78281514D01*
X211684868Y-77424579D01*
X211693618Y-77422680D01*
X211699803Y-77425914D01*
G37*
%TD.AperFunction*%
%TD*%
%TA.AperFunction,Conductor*%
%TO.N,/TX*%
G36*
X210490870Y-80922781D02*
G01*
X210969787Y-81258334D01*
X210974596Y-81265887D01*
X210974773Y-81267915D01*
X210974773Y-81383003D01*
X210971346Y-81391276D01*
X210966289Y-81394252D01*
X210363082Y-81566690D01*
X210354185Y-81565669D01*
X210349067Y-81559943D01*
X210226469Y-81265887D01*
X210202020Y-81207246D01*
X210202000Y-81198293D01*
X210204557Y-81194461D01*
X210475899Y-80924075D01*
X210484179Y-80920664D01*
X210490870Y-80922781D01*
G37*
%TD.AperFunction*%
%TD*%
%TA.AperFunction,Conductor*%
%TO.N,/RX_1*%
G36*
X206813144Y-75398891D02*
G01*
X206813442Y-75399549D01*
X206999127Y-75845502D01*
X206999144Y-75854456D01*
X206999127Y-75854496D01*
X206813442Y-76300450D01*
X206807098Y-76306771D01*
X206798144Y-76306754D01*
X206797486Y-76306456D01*
X206006545Y-75918212D01*
X206000628Y-75911490D01*
X206000000Y-75907709D01*
X206000000Y-75792290D01*
X206003427Y-75784017D01*
X206006543Y-75781787D01*
X206797488Y-75393542D01*
X206806422Y-75392974D01*
X206813144Y-75398891D01*
G37*
%TD.AperFunction*%
%TD*%
%TA.AperFunction,Conductor*%
%TO.N,/RX*%
G36*
X199802012Y-73281447D02*
G01*
X199802896Y-73281858D01*
X201017686Y-73911726D01*
X201023453Y-73918577D01*
X201024000Y-73922113D01*
X201024000Y-74037886D01*
X201020573Y-74046159D01*
X201017686Y-74048273D01*
X199802908Y-74678135D01*
X199793986Y-74678901D01*
X199787135Y-74673134D01*
X199786718Y-74672238D01*
X199749200Y-74581971D01*
X199500865Y-73984489D01*
X199500855Y-73975536D01*
X199500866Y-73975510D01*
X199523060Y-73922113D01*
X199786718Y-73287760D01*
X199793058Y-73281436D01*
X199802012Y-73281447D01*
G37*
%TD.AperFunction*%
%TD*%
%TA.AperFunction,Conductor*%
%TO.N,/RX*%
G36*
X207201855Y-77893245D02*
G01*
X207202501Y-77893537D01*
X207993455Y-78281787D01*
X207999372Y-78288509D01*
X208000000Y-78292290D01*
X208000000Y-78407709D01*
X207996573Y-78415982D01*
X207993455Y-78418212D01*
X207202513Y-78806456D01*
X207193577Y-78807025D01*
X207186855Y-78801108D01*
X207186567Y-78800472D01*
X207000871Y-78354495D01*
X207000855Y-78345544D01*
X207186559Y-77899546D01*
X207192901Y-77893228D01*
X207201855Y-77893245D01*
G37*
%TD.AperFunction*%
%TD*%
%TA.AperFunction,Conductor*%
%TO.N,/RX_1*%
G36*
X200201181Y-71153263D02*
G01*
X200207506Y-71159603D01*
X200207844Y-71160531D01*
X200621442Y-72464888D01*
X200620676Y-72473810D01*
X200618562Y-72476697D01*
X200536697Y-72558562D01*
X200528424Y-72561989D01*
X200524888Y-72561442D01*
X199220531Y-72147844D01*
X199213680Y-72142077D01*
X199212914Y-72133155D01*
X199213243Y-72132251D01*
X199497437Y-71443787D01*
X199503761Y-71437448D01*
X200192229Y-71153252D01*
X200201181Y-71153263D01*
G37*
%TD.AperFunction*%
%TD*%
%TA.AperFunction,Conductor*%
%TO.N,/RX_1*%
G36*
X207201855Y-75393245D02*
G01*
X207202501Y-75393537D01*
X207993455Y-75781787D01*
X207999372Y-75788509D01*
X208000000Y-75792290D01*
X208000000Y-75907709D01*
X207996573Y-75915982D01*
X207993455Y-75918212D01*
X207202513Y-76306456D01*
X207193577Y-76307025D01*
X207186855Y-76301108D01*
X207186567Y-76300472D01*
X207000871Y-75854495D01*
X207000855Y-75845544D01*
X207186559Y-75399546D01*
X207192901Y-75393228D01*
X207201855Y-75393245D01*
G37*
%TD.AperFunction*%
%TD*%
%TA.AperFunction,Conductor*%
%TO.N,/TX_1*%
G36*
X215063487Y-80935870D02*
G01*
X215064342Y-80936268D01*
X215688333Y-81258557D01*
X215694111Y-81265398D01*
X215694664Y-81268952D01*
X215694664Y-81384142D01*
X215691237Y-81392415D01*
X215687612Y-81394879D01*
X215063956Y-81664840D01*
X215055002Y-81664982D01*
X215048571Y-81658751D01*
X215048509Y-81658605D01*
X215047209Y-81655487D01*
X214900875Y-81304499D01*
X214900855Y-81295550D01*
X215048187Y-80942165D01*
X215054533Y-80935849D01*
X215063487Y-80935870D01*
G37*
%TD.AperFunction*%
%TD*%
%TA.AperFunction,Conductor*%
%TO.N,/ESC5_PHASEC*%
G36*
X128243039Y-77759685D02*
G01*
X128288794Y-77812489D01*
X128300000Y-77864000D01*
X128300000Y-85010500D01*
X128280315Y-85077539D01*
X128227511Y-85123294D01*
X128176000Y-85134500D01*
X121024000Y-85134500D01*
X120956961Y-85114815D01*
X120911206Y-85062011D01*
X120900000Y-85010500D01*
X120900000Y-77864000D01*
X120919685Y-77796961D01*
X120972489Y-77751206D01*
X121024000Y-77740000D01*
X128176000Y-77740000D01*
X128243039Y-77759685D01*
G37*
%TD.AperFunction*%
%TD*%
%TA.AperFunction,Conductor*%
%TO.N,/ESC3_PHASEB*%
G36*
X79843039Y-85499685D02*
G01*
X79888794Y-85552489D01*
X79900000Y-85604000D01*
X79900000Y-92750500D01*
X79880315Y-92817539D01*
X79827511Y-92863294D01*
X79776000Y-92874500D01*
X72524000Y-92874500D01*
X72456961Y-92854815D01*
X72411206Y-92802011D01*
X72400000Y-92750500D01*
X72400000Y-85604000D01*
X72419685Y-85536961D01*
X72472489Y-85491206D01*
X72524000Y-85480000D01*
X79776000Y-85480000D01*
X79843039Y-85499685D01*
G37*
%TD.AperFunction*%
%TD*%
%TA.AperFunction,Conductor*%
%TO.N,/3V3*%
G36*
X200976072Y-75299929D02*
G01*
X201043097Y-75319651D01*
X201088822Y-75372481D01*
X201099999Y-75423929D01*
X201100000Y-77575853D01*
X201080315Y-77642892D01*
X201027512Y-77688647D01*
X200975854Y-77699853D01*
X199115968Y-77697659D01*
X199076849Y-77691278D01*
X199032899Y-77676606D01*
X199032878Y-77676600D01*
X199015949Y-77672428D01*
X198985140Y-77664835D01*
X198985136Y-77664834D01*
X198985135Y-77664834D01*
X198971439Y-77662608D01*
X198945875Y-77658455D01*
X198945863Y-77658454D01*
X198896889Y-77654500D01*
X198896878Y-77654500D01*
X193524000Y-77654500D01*
X193523991Y-77654500D01*
X193523990Y-77654501D01*
X193459064Y-77661481D01*
X193459052Y-77661483D01*
X193407546Y-77672688D01*
X193361887Y-77685784D01*
X193361329Y-77683838D01*
X193326984Y-77690833D01*
X176746629Y-77671280D01*
X176690574Y-77657813D01*
X176629107Y-77626559D01*
X176562078Y-77606877D01*
X176562072Y-77606876D01*
X176476000Y-77594500D01*
X169324000Y-77594500D01*
X169323991Y-77594500D01*
X169323990Y-77594501D01*
X169259064Y-77601481D01*
X169259052Y-77601483D01*
X169207546Y-77612688D01*
X169169345Y-77623644D01*
X169169335Y-77623649D01*
X169132370Y-77645267D01*
X169069626Y-77662228D01*
X152569223Y-77642769D01*
X152513167Y-77629301D01*
X152429732Y-77586877D01*
X152429111Y-77586561D01*
X152429110Y-77586560D01*
X152429109Y-77586560D01*
X152362078Y-77566877D01*
X152362072Y-77566876D01*
X152276000Y-77554500D01*
X145124000Y-77554500D01*
X145123991Y-77554500D01*
X145123990Y-77554501D01*
X145059064Y-77561481D01*
X145059052Y-77561483D01*
X145007546Y-77572688D01*
X144969345Y-77583644D01*
X144969343Y-77583645D01*
X144912814Y-77616706D01*
X144850068Y-77633667D01*
X128577933Y-77614478D01*
X128510917Y-77594714D01*
X128484367Y-77571682D01*
X128473920Y-77559625D01*
X128473916Y-77559621D01*
X128473908Y-77559612D01*
X128429192Y-77517451D01*
X128429189Y-77517449D01*
X128429187Y-77517447D01*
X128329111Y-77466561D01*
X128329110Y-77466560D01*
X128329109Y-77466560D01*
X128262078Y-77446877D01*
X128262072Y-77446876D01*
X128176000Y-77434500D01*
X121024000Y-77434500D01*
X121023991Y-77434500D01*
X121023990Y-77434501D01*
X120959064Y-77441481D01*
X120959052Y-77441483D01*
X120907546Y-77452688D01*
X120869345Y-77463644D01*
X120869341Y-77463646D01*
X120772431Y-77520323D01*
X120772423Y-77520329D01*
X120719634Y-77566071D01*
X120719618Y-77566086D01*
X120719518Y-77566193D01*
X120719490Y-77566208D01*
X120717377Y-77568236D01*
X120717267Y-77568121D01*
X120717263Y-77568126D01*
X120717183Y-77568033D01*
X120716890Y-77567728D01*
X120659197Y-77601451D01*
X120629173Y-77605104D01*
X116300058Y-77600000D01*
X116300037Y-77600000D01*
X116300000Y-77600000D01*
X114844533Y-77603096D01*
X104329621Y-77625468D01*
X104262540Y-77605926D01*
X104244290Y-77591687D01*
X104229192Y-77577451D01*
X104229189Y-77577449D01*
X104229187Y-77577447D01*
X104129111Y-77526561D01*
X104129110Y-77526560D01*
X104129109Y-77526560D01*
X104062078Y-77506877D01*
X104062072Y-77506876D01*
X103976000Y-77494500D01*
X96824000Y-77494500D01*
X96823991Y-77494500D01*
X96823990Y-77494501D01*
X96759064Y-77501481D01*
X96759052Y-77501483D01*
X96707546Y-77512688D01*
X96669345Y-77523644D01*
X96669341Y-77523646D01*
X96572431Y-77580323D01*
X96572429Y-77580325D01*
X96541787Y-77606877D01*
X96535947Y-77611937D01*
X96472391Y-77640961D01*
X96455009Y-77642223D01*
X80096533Y-77677028D01*
X80037870Y-77659938D01*
X80037093Y-77661467D01*
X79966295Y-77625468D01*
X79929111Y-77606561D01*
X79929110Y-77606560D01*
X79929109Y-77606560D01*
X79862078Y-77586877D01*
X79862072Y-77586876D01*
X79776000Y-77574500D01*
X72524000Y-77574500D01*
X72523991Y-77574500D01*
X72523990Y-77574501D01*
X72459064Y-77581481D01*
X72459052Y-77581483D01*
X72407546Y-77592688D01*
X72369345Y-77603644D01*
X72369341Y-77603646D01*
X72272427Y-77660326D01*
X72272426Y-77660326D01*
X72268681Y-77663572D01*
X72205123Y-77692594D01*
X72187747Y-77693855D01*
X69299868Y-77700000D01*
X56025558Y-77700000D01*
X55958519Y-77680315D01*
X55940491Y-77666220D01*
X55939023Y-77664836D01*
X55931187Y-77657447D01*
X55831111Y-77606561D01*
X55831110Y-77606560D01*
X55831109Y-77606560D01*
X55764078Y-77586877D01*
X55764072Y-77586876D01*
X55678000Y-77574500D01*
X48326000Y-77574500D01*
X48325991Y-77574500D01*
X48325990Y-77574501D01*
X48261064Y-77581481D01*
X48261052Y-77581483D01*
X48209546Y-77592688D01*
X48171345Y-77603644D01*
X48171341Y-77603646D01*
X48074431Y-77660323D01*
X48074429Y-77660325D01*
X48069226Y-77664834D01*
X48063594Y-77669714D01*
X48000038Y-77698738D01*
X47982392Y-77700000D01*
X32132829Y-77700000D01*
X32076627Y-77686532D01*
X32075738Y-77686080D01*
X31981301Y-77638061D01*
X31981300Y-77638060D01*
X31981299Y-77638060D01*
X31914268Y-77618377D01*
X31914262Y-77618376D01*
X31828190Y-77606000D01*
X24576190Y-77606000D01*
X24576181Y-77606000D01*
X24576180Y-77606001D01*
X24511254Y-77612981D01*
X24511242Y-77612983D01*
X24459736Y-77624188D01*
X24421535Y-77635144D01*
X24421527Y-77635148D01*
X24386600Y-77655575D01*
X24318793Y-77672428D01*
X24252639Y-77649945D01*
X24209142Y-77595267D01*
X24200000Y-77548537D01*
X24200000Y-75324070D01*
X24219685Y-75257031D01*
X24272489Y-75211276D01*
X24324069Y-75200070D01*
X200976072Y-75299929D01*
G37*
%TD.AperFunction*%
%TD*%
%TA.AperFunction,Conductor*%
%TO.N,/ESC6_PHASEA*%
G36*
X152343039Y-93179685D02*
G01*
X152388794Y-93232489D01*
X152400000Y-93284000D01*
X152400000Y-100736000D01*
X152380315Y-100803039D01*
X152327511Y-100848794D01*
X152276000Y-100860000D01*
X145124000Y-100860000D01*
X145056961Y-100840315D01*
X145011206Y-100787511D01*
X145000000Y-100736000D01*
X145000000Y-93284000D01*
X145019685Y-93216961D01*
X145072489Y-93171206D01*
X145124000Y-93160000D01*
X152276000Y-93160000D01*
X152343039Y-93179685D01*
G37*
%TD.AperFunction*%
%TD*%
%TA.AperFunction,Conductor*%
%TO.N,/ESC4_PHASEC*%
G36*
X104043039Y-77819685D02*
G01*
X104088794Y-77872489D01*
X104100000Y-77924000D01*
X104100000Y-84970500D01*
X104080315Y-85037539D01*
X104027511Y-85083294D01*
X103976000Y-85094500D01*
X96824000Y-85094500D01*
X96756961Y-85074815D01*
X96711206Y-85022011D01*
X96700000Y-84970500D01*
X96700000Y-77924000D01*
X96719685Y-77856961D01*
X96772489Y-77811206D01*
X96824000Y-77800000D01*
X103976000Y-77800000D01*
X104043039Y-77819685D01*
G37*
%TD.AperFunction*%
%TD*%
%TA.AperFunction,Conductor*%
%TO.N,/ESC8_PHASEC*%
G36*
X198936143Y-77966380D02*
G01*
X199127734Y-78030343D01*
X199127737Y-78030343D01*
X199127739Y-78030344D01*
X199374828Y-78070500D01*
X199374831Y-78070500D01*
X200576000Y-78070500D01*
X200643039Y-78090185D01*
X200688794Y-78142989D01*
X200700000Y-78194500D01*
X200700000Y-85030500D01*
X200680315Y-85097539D01*
X200627511Y-85143294D01*
X200576000Y-85154500D01*
X193524000Y-85154500D01*
X193456961Y-85134815D01*
X193411206Y-85082011D01*
X193400000Y-85030500D01*
X193400000Y-78084000D01*
X193419685Y-78016961D01*
X193472489Y-77971206D01*
X193524000Y-77960000D01*
X198896878Y-77960000D01*
X198936143Y-77966380D01*
G37*
%TD.AperFunction*%
%TD*%
%TA.AperFunction,Conductor*%
%TO.N,/ESC2_PHASEC*%
G36*
X55745039Y-77899685D02*
G01*
X55790794Y-77952489D01*
X55802000Y-78004000D01*
X55802000Y-84950500D01*
X55782315Y-85017539D01*
X55729511Y-85063294D01*
X55678000Y-85074500D01*
X48326000Y-85074500D01*
X48258961Y-85054815D01*
X48213206Y-85002011D01*
X48202000Y-84950500D01*
X48202000Y-78004000D01*
X48221685Y-77936961D01*
X48274489Y-77891206D01*
X48326000Y-77880000D01*
X55678000Y-77880000D01*
X55745039Y-77899685D01*
G37*
%TD.AperFunction*%
%TD*%
%TA.AperFunction,Conductor*%
%TO.N,GND*%
G36*
X220502426Y-20000691D02*
G01*
X220528818Y-20002768D01*
X220677919Y-20014502D01*
X220697128Y-20017545D01*
X220861183Y-20056931D01*
X220879675Y-20062940D01*
X220970238Y-20100452D01*
X221035547Y-20127504D01*
X221052884Y-20136338D01*
X221196725Y-20224484D01*
X221212466Y-20235920D01*
X221322134Y-20329584D01*
X221329552Y-20335920D01*
X221340753Y-20345486D01*
X221354513Y-20359246D01*
X221464079Y-20487533D01*
X221475515Y-20503274D01*
X221563661Y-20647115D01*
X221572495Y-20664452D01*
X221637057Y-20820317D01*
X221643070Y-20838823D01*
X221682453Y-21002866D01*
X221685497Y-21022084D01*
X221699309Y-21197572D01*
X221699500Y-21202439D01*
X221699500Y-21718897D01*
X221679815Y-21785936D01*
X221627011Y-21831691D01*
X221610435Y-21837874D01*
X221369177Y-21908714D01*
X221134919Y-22015696D01*
X221134896Y-22015709D01*
X220918250Y-22154939D01*
X220918244Y-22154943D01*
X220723601Y-22323601D01*
X220554943Y-22518244D01*
X220554939Y-22518250D01*
X220415709Y-22734896D01*
X220415696Y-22734919D01*
X220308714Y-22969177D01*
X220236154Y-23216293D01*
X220236151Y-23216303D01*
X220199500Y-23471227D01*
X220199500Y-23728772D01*
X220236151Y-23983696D01*
X220236154Y-23983706D01*
X220308714Y-24230822D01*
X220415696Y-24465080D01*
X220415709Y-24465103D01*
X220554939Y-24681749D01*
X220554943Y-24681755D01*
X220723601Y-24876398D01*
X220918244Y-25045056D01*
X220918250Y-25045060D01*
X221134896Y-25184290D01*
X221134919Y-25184303D01*
X221369177Y-25291285D01*
X221369181Y-25291286D01*
X221369183Y-25291287D01*
X221610435Y-25362125D01*
X221669213Y-25399899D01*
X221698238Y-25463455D01*
X221699500Y-25481101D01*
X221699500Y-26243827D01*
X221699500Y-76843827D01*
X221699500Y-79256688D01*
X221699499Y-81695180D01*
X221699500Y-81695190D01*
X221699500Y-99618897D01*
X221679815Y-99685936D01*
X221627011Y-99731691D01*
X221610435Y-99737874D01*
X221369177Y-99808714D01*
X221134919Y-99915696D01*
X221134896Y-99915709D01*
X220918250Y-100054939D01*
X220918244Y-100054943D01*
X220723601Y-100223601D01*
X220554943Y-100418244D01*
X220554939Y-100418250D01*
X220415709Y-100634896D01*
X220415696Y-100634919D01*
X220308714Y-100869177D01*
X220236154Y-101116293D01*
X220236151Y-101116303D01*
X220205314Y-101330787D01*
X220199500Y-101371226D01*
X220199500Y-101628774D01*
X220204096Y-101660737D01*
X220236151Y-101883696D01*
X220236154Y-101883706D01*
X220308714Y-102130822D01*
X220415696Y-102365080D01*
X220415709Y-102365103D01*
X220554939Y-102581749D01*
X220554943Y-102581755D01*
X220723601Y-102776398D01*
X220918244Y-102945056D01*
X220918250Y-102945060D01*
X221134896Y-103084290D01*
X221134919Y-103084303D01*
X221369177Y-103191285D01*
X221369181Y-103191286D01*
X221369183Y-103191287D01*
X221610435Y-103262125D01*
X221669213Y-103299899D01*
X221698238Y-103363455D01*
X221699500Y-103381102D01*
X221699500Y-103897559D01*
X221699309Y-103902426D01*
X221685497Y-104077915D01*
X221682453Y-104097133D01*
X221643070Y-104261176D01*
X221637057Y-104279682D01*
X221572495Y-104435547D01*
X221563661Y-104452884D01*
X221475515Y-104596725D01*
X221464079Y-104612466D01*
X221354513Y-104740753D01*
X221340753Y-104754513D01*
X221212466Y-104864079D01*
X221196725Y-104875515D01*
X221052884Y-104963661D01*
X221035547Y-104972495D01*
X220879682Y-105037057D01*
X220861176Y-105043070D01*
X220697133Y-105082453D01*
X220677915Y-105085497D01*
X220502427Y-105099309D01*
X220497560Y-105099500D01*
X21802440Y-105099500D01*
X21797573Y-105099309D01*
X21622084Y-105085497D01*
X21602866Y-105082453D01*
X21438823Y-105043070D01*
X21420317Y-105037057D01*
X21264452Y-104972495D01*
X21247115Y-104963661D01*
X21103274Y-104875515D01*
X21087533Y-104864079D01*
X20959246Y-104754513D01*
X20945486Y-104740753D01*
X20835920Y-104612466D01*
X20824484Y-104596725D01*
X20736338Y-104452884D01*
X20727504Y-104435547D01*
X20714994Y-104405347D01*
X20662940Y-104279675D01*
X20656931Y-104261183D01*
X20617545Y-104097128D01*
X20614502Y-104077915D01*
X20600691Y-103902425D01*
X20600500Y-103897559D01*
X20600500Y-103381102D01*
X20620185Y-103314063D01*
X20672989Y-103268308D01*
X20689562Y-103262125D01*
X20930817Y-103191287D01*
X20930820Y-103191285D01*
X20930822Y-103191285D01*
X21165080Y-103084303D01*
X21165084Y-103084300D01*
X21165092Y-103084297D01*
X21177971Y-103076020D01*
X37336808Y-103076020D01*
X37365650Y-103239596D01*
X37367679Y-103251099D01*
X37390183Y-103303269D01*
X37438094Y-103414339D01*
X37544257Y-103556939D01*
X37680444Y-103671214D01*
X37710963Y-103686541D01*
X37839308Y-103750999D01*
X37839309Y-103750999D01*
X37839313Y-103751001D01*
X38012300Y-103792000D01*
X38012303Y-103792000D01*
X38145475Y-103792000D01*
X38145482Y-103792000D01*
X38277767Y-103776538D01*
X38444825Y-103715734D01*
X38593358Y-103618043D01*
X38715357Y-103488731D01*
X38804247Y-103334769D01*
X38855235Y-103164458D01*
X38862221Y-103044520D01*
X61186618Y-103044520D01*
X61212790Y-103192953D01*
X61217489Y-103219599D01*
X61223252Y-103232958D01*
X61287904Y-103382839D01*
X61377241Y-103502838D01*
X61394067Y-103525439D01*
X61530254Y-103639714D01*
X61583671Y-103666541D01*
X61689118Y-103719499D01*
X61689119Y-103719499D01*
X61689123Y-103719501D01*
X61862110Y-103760500D01*
X61862113Y-103760500D01*
X61995285Y-103760500D01*
X61995292Y-103760500D01*
X62127577Y-103745038D01*
X62294635Y-103684234D01*
X62443168Y-103586543D01*
X62565167Y-103457231D01*
X62654057Y-103303269D01*
X62701584Y-103144520D01*
X85384618Y-103144520D01*
X85414512Y-103314063D01*
X85415489Y-103319599D01*
X85434407Y-103363455D01*
X85485904Y-103482839D01*
X85556177Y-103577231D01*
X85592067Y-103625439D01*
X85728254Y-103739714D01*
X85781671Y-103766541D01*
X85887118Y-103819499D01*
X85887119Y-103819499D01*
X85887123Y-103819501D01*
X86060110Y-103860500D01*
X86060113Y-103860500D01*
X86193285Y-103860500D01*
X86193292Y-103860500D01*
X86325577Y-103845038D01*
X86492635Y-103784234D01*
X86641168Y-103686543D01*
X86763167Y-103557231D01*
X86852057Y-103403269D01*
X86903045Y-103232958D01*
X86912855Y-103064520D01*
X109444618Y-103064520D01*
X109470790Y-103212953D01*
X109475489Y-103239599D01*
X109501369Y-103299596D01*
X109545904Y-103402839D01*
X109637177Y-103525439D01*
X109652067Y-103545439D01*
X109788254Y-103659714D01*
X109841671Y-103686541D01*
X109947118Y-103739499D01*
X109947119Y-103739499D01*
X109947123Y-103739501D01*
X110120110Y-103780500D01*
X110120113Y-103780500D01*
X110253285Y-103780500D01*
X110253292Y-103780500D01*
X110385577Y-103765038D01*
X110552635Y-103704234D01*
X110701168Y-103606543D01*
X110823167Y-103477231D01*
X110912057Y-103323269D01*
X110963045Y-103152958D01*
X110965866Y-103104520D01*
X133644618Y-103104520D01*
X133674820Y-103275809D01*
X133675489Y-103279599D01*
X133699287Y-103334769D01*
X133745904Y-103442839D01*
X133835241Y-103562838D01*
X133852067Y-103585439D01*
X133988254Y-103699714D01*
X134066990Y-103739257D01*
X134147118Y-103779499D01*
X134147119Y-103779499D01*
X134147123Y-103779501D01*
X134320110Y-103820500D01*
X134320113Y-103820500D01*
X134453285Y-103820500D01*
X134453292Y-103820500D01*
X134585577Y-103805038D01*
X134752635Y-103744234D01*
X134901168Y-103646543D01*
X135023167Y-103517231D01*
X135112057Y-103363269D01*
X135163045Y-103192958D01*
X135167031Y-103124520D01*
X157784618Y-103124520D01*
X157809971Y-103268308D01*
X157815489Y-103299599D01*
X157842954Y-103363269D01*
X157885904Y-103462839D01*
X157977177Y-103585439D01*
X157992067Y-103605439D01*
X158128254Y-103719714D01*
X158190548Y-103750999D01*
X158287118Y-103799499D01*
X158287119Y-103799499D01*
X158287123Y-103799501D01*
X158460110Y-103840500D01*
X158460113Y-103840500D01*
X158593285Y-103840500D01*
X158593292Y-103840500D01*
X158725577Y-103825038D01*
X158892635Y-103764234D01*
X159041168Y-103666543D01*
X159163167Y-103537231D01*
X159252057Y-103383269D01*
X159303045Y-103212958D01*
X159305866Y-103164520D01*
X181944618Y-103164520D01*
X181974637Y-103334771D01*
X181975489Y-103339599D01*
X182001369Y-103399596D01*
X182045904Y-103502839D01*
X182107398Y-103585439D01*
X182152067Y-103645439D01*
X182288254Y-103759714D01*
X182352539Y-103791999D01*
X182447118Y-103839499D01*
X182447119Y-103839499D01*
X182447123Y-103839501D01*
X182620110Y-103880500D01*
X182620113Y-103880500D01*
X182753285Y-103880500D01*
X182753292Y-103880500D01*
X182885577Y-103865038D01*
X183052635Y-103804234D01*
X183201168Y-103706543D01*
X183323167Y-103577231D01*
X183412057Y-103423269D01*
X183463045Y-103252958D01*
X183464701Y-103224520D01*
X206084618Y-103224520D01*
X206112609Y-103383269D01*
X206115489Y-103399599D01*
X206125700Y-103423271D01*
X206185904Y-103562839D01*
X206266587Y-103671214D01*
X206292067Y-103705439D01*
X206428254Y-103819714D01*
X206493345Y-103852404D01*
X206587118Y-103899499D01*
X206587119Y-103899499D01*
X206587123Y-103899501D01*
X206760110Y-103940500D01*
X206760113Y-103940500D01*
X206893285Y-103940500D01*
X206893292Y-103940500D01*
X207025577Y-103925038D01*
X207192635Y-103864234D01*
X207341168Y-103766543D01*
X207463167Y-103637231D01*
X207552057Y-103483269D01*
X207603045Y-103312958D01*
X207613382Y-103135480D01*
X207582511Y-102960401D01*
X207512096Y-102797162D01*
X207511775Y-102796731D01*
X207422757Y-102677160D01*
X207405933Y-102654561D01*
X207398900Y-102648660D01*
X207269746Y-102540286D01*
X207269744Y-102540285D01*
X207110881Y-102460500D01*
X207109974Y-102460285D01*
X206937890Y-102419500D01*
X206804708Y-102419500D01*
X206688958Y-102433029D01*
X206672422Y-102434962D01*
X206672419Y-102434963D01*
X206505367Y-102495764D01*
X206437675Y-102540286D01*
X206356832Y-102593457D01*
X206356831Y-102593457D01*
X206356831Y-102593458D01*
X206234833Y-102722767D01*
X206145944Y-102876728D01*
X206145943Y-102876730D01*
X206145943Y-102876731D01*
X206139413Y-102898542D01*
X206094955Y-103047041D01*
X206094954Y-103047046D01*
X206084618Y-103224519D01*
X206084618Y-103224520D01*
X183464701Y-103224520D01*
X183473382Y-103075480D01*
X183442511Y-102900401D01*
X183372096Y-102737162D01*
X183365956Y-102728915D01*
X183282757Y-102617160D01*
X183265933Y-102594561D01*
X183264617Y-102593457D01*
X183129746Y-102480286D01*
X183129744Y-102480285D01*
X182970881Y-102400500D01*
X182950907Y-102395766D01*
X182797890Y-102359500D01*
X182664708Y-102359500D01*
X182548958Y-102373029D01*
X182532422Y-102374962D01*
X182532419Y-102374963D01*
X182365367Y-102435764D01*
X182297675Y-102480286D01*
X182216832Y-102533457D01*
X182216831Y-102533457D01*
X182216831Y-102533458D01*
X182094833Y-102662767D01*
X182005944Y-102816728D01*
X181954955Y-102987041D01*
X181954954Y-102987046D01*
X181944618Y-103164519D01*
X181944618Y-103164520D01*
X159305866Y-103164520D01*
X159313382Y-103035480D01*
X159282511Y-102860401D01*
X159212096Y-102697162D01*
X159211775Y-102696731D01*
X159126174Y-102581749D01*
X159105933Y-102554561D01*
X159080782Y-102533457D01*
X158969746Y-102440286D01*
X158969744Y-102440285D01*
X158810881Y-102360500D01*
X158806662Y-102359500D01*
X158637890Y-102319500D01*
X158504708Y-102319500D01*
X158388958Y-102333029D01*
X158372422Y-102334962D01*
X158372419Y-102334963D01*
X158205367Y-102395764D01*
X158107268Y-102460285D01*
X158056832Y-102493457D01*
X158056831Y-102493457D01*
X158056831Y-102493458D01*
X157934833Y-102622767D01*
X157845944Y-102776728D01*
X157794955Y-102947041D01*
X157794954Y-102947046D01*
X157784618Y-103124519D01*
X157784618Y-103124520D01*
X135167031Y-103124520D01*
X135173382Y-103015480D01*
X135142511Y-102840401D01*
X135072096Y-102677162D01*
X135061379Y-102662767D01*
X134986932Y-102562767D01*
X134965933Y-102534561D01*
X134964617Y-102533457D01*
X134829746Y-102420286D01*
X134829744Y-102420285D01*
X134670881Y-102340500D01*
X134650907Y-102335766D01*
X134497890Y-102299500D01*
X134364708Y-102299500D01*
X134248958Y-102313029D01*
X134232422Y-102314962D01*
X134232419Y-102314963D01*
X134065367Y-102375764D01*
X133997675Y-102420286D01*
X133916832Y-102473457D01*
X133916831Y-102473457D01*
X133916831Y-102473458D01*
X133794833Y-102602767D01*
X133705944Y-102756728D01*
X133654955Y-102927041D01*
X133654954Y-102927046D01*
X133644618Y-103104519D01*
X133644618Y-103104520D01*
X110965866Y-103104520D01*
X110973382Y-102975480D01*
X110942511Y-102800401D01*
X110872096Y-102637162D01*
X110864650Y-102627161D01*
X110780001Y-102513458D01*
X110765933Y-102494561D01*
X110764617Y-102493457D01*
X110629746Y-102380286D01*
X110629744Y-102380285D01*
X110470881Y-102300500D01*
X110466662Y-102299500D01*
X110297890Y-102259500D01*
X110164708Y-102259500D01*
X110048958Y-102273029D01*
X110032422Y-102274962D01*
X110032419Y-102274963D01*
X109865367Y-102335764D01*
X109780192Y-102391785D01*
X109716832Y-102433457D01*
X109716831Y-102433457D01*
X109716831Y-102433458D01*
X109594833Y-102562767D01*
X109505944Y-102716728D01*
X109454955Y-102887041D01*
X109454954Y-102887046D01*
X109444618Y-103064519D01*
X109444618Y-103064520D01*
X86912855Y-103064520D01*
X86913382Y-103055480D01*
X86882511Y-102880401D01*
X86812096Y-102717162D01*
X86811775Y-102716731D01*
X86726932Y-102602767D01*
X86705933Y-102574561D01*
X86656947Y-102533457D01*
X86569746Y-102460286D01*
X86569744Y-102460285D01*
X86410881Y-102380500D01*
X86390907Y-102375766D01*
X86237890Y-102339500D01*
X86104708Y-102339500D01*
X85988958Y-102353029D01*
X85972422Y-102354962D01*
X85972419Y-102354963D01*
X85805367Y-102415764D01*
X85717649Y-102473457D01*
X85656832Y-102513457D01*
X85656831Y-102513457D01*
X85656831Y-102513458D01*
X85534833Y-102642767D01*
X85445944Y-102796728D01*
X85394955Y-102967041D01*
X85394954Y-102967046D01*
X85384618Y-103144519D01*
X85384618Y-103144520D01*
X62701584Y-103144520D01*
X62705045Y-103132958D01*
X62715382Y-102955480D01*
X62684511Y-102780401D01*
X62614096Y-102617162D01*
X62603379Y-102602767D01*
X62531383Y-102506060D01*
X62507933Y-102474561D01*
X62506617Y-102473457D01*
X62371746Y-102360286D01*
X62371744Y-102360285D01*
X62212881Y-102280500D01*
X62212877Y-102280499D01*
X62039890Y-102239500D01*
X61906708Y-102239500D01*
X61790958Y-102253029D01*
X61774422Y-102254962D01*
X61774419Y-102254963D01*
X61607367Y-102315764D01*
X61532386Y-102365080D01*
X61458832Y-102413457D01*
X61458831Y-102413457D01*
X61458831Y-102413458D01*
X61336833Y-102542767D01*
X61247944Y-102696728D01*
X61247943Y-102696730D01*
X61247943Y-102696731D01*
X61238308Y-102728915D01*
X61196955Y-102867041D01*
X61196954Y-102867046D01*
X61186618Y-103044519D01*
X61186618Y-103044520D01*
X38862221Y-103044520D01*
X38865572Y-102986980D01*
X38834701Y-102811901D01*
X38764286Y-102648662D01*
X38759897Y-102642767D01*
X38682494Y-102538797D01*
X38658123Y-102506061D01*
X38643103Y-102493458D01*
X38521936Y-102391786D01*
X38521934Y-102391785D01*
X38363071Y-102312000D01*
X38363067Y-102311999D01*
X38190080Y-102271000D01*
X38056898Y-102271000D01*
X37941148Y-102284529D01*
X37924612Y-102286462D01*
X37924609Y-102286463D01*
X37757557Y-102347264D01*
X37676616Y-102400500D01*
X37609022Y-102444957D01*
X37609021Y-102444957D01*
X37609021Y-102444958D01*
X37487023Y-102574267D01*
X37398134Y-102728228D01*
X37347145Y-102898541D01*
X37347144Y-102898546D01*
X37336808Y-103076019D01*
X37336808Y-103076020D01*
X21177971Y-103076020D01*
X21381756Y-102945056D01*
X21576398Y-102776398D01*
X21745056Y-102581756D01*
X21884297Y-102365092D01*
X21884300Y-102365084D01*
X21884303Y-102365080D01*
X21991285Y-102130822D01*
X21991285Y-102130820D01*
X21991287Y-102130817D01*
X22063847Y-101883701D01*
X22100500Y-101628774D01*
X22100500Y-101371226D01*
X22070921Y-101165500D01*
X22063848Y-101116303D01*
X22063845Y-101116293D01*
X22058686Y-101098721D01*
X21991287Y-100869183D01*
X21991286Y-100869181D01*
X21991285Y-100869177D01*
X21884303Y-100634919D01*
X21884290Y-100634896D01*
X21745060Y-100418250D01*
X21745056Y-100418244D01*
X21576398Y-100223601D01*
X21381755Y-100054943D01*
X21381749Y-100054939D01*
X21165103Y-99915709D01*
X21165080Y-99915696D01*
X20930822Y-99808714D01*
X20689565Y-99737874D01*
X20630787Y-99700099D01*
X20601762Y-99636543D01*
X20600500Y-99618897D01*
X20600500Y-71351500D01*
X24733549Y-71351500D01*
X24754062Y-71559784D01*
X24768775Y-71608286D01*
X24814818Y-71760069D01*
X24906221Y-71931072D01*
X24913481Y-71944653D01*
X25046253Y-72106436D01*
X25169657Y-72207711D01*
X25208040Y-72239211D01*
X25392621Y-72337872D01*
X25592904Y-72398627D01*
X25801190Y-72419141D01*
X26009476Y-72398627D01*
X26209759Y-72337872D01*
X26394340Y-72239211D01*
X26556126Y-72106436D01*
X26688901Y-71944650D01*
X26787562Y-71760069D01*
X26848317Y-71559786D01*
X26868831Y-71351500D01*
X29584549Y-71351500D01*
X29605062Y-71559784D01*
X29619775Y-71608286D01*
X29665818Y-71760069D01*
X29757221Y-71931072D01*
X29764481Y-71944653D01*
X29897253Y-72106436D01*
X30020657Y-72207711D01*
X30059040Y-72239211D01*
X30243621Y-72337872D01*
X30443904Y-72398627D01*
X30652190Y-72419141D01*
X30860476Y-72398627D01*
X31060759Y-72337872D01*
X31245340Y-72239211D01*
X31407126Y-72106436D01*
X31539901Y-71944650D01*
X31638562Y-71760069D01*
X31699317Y-71559786D01*
X31718994Y-71359999D01*
X48832359Y-71359999D01*
X48852872Y-71568284D01*
X48858939Y-71588284D01*
X48913628Y-71768569D01*
X49007747Y-71944653D01*
X49012291Y-71953153D01*
X49145063Y-72114936D01*
X49306846Y-72247708D01*
X49306850Y-72247711D01*
X49491431Y-72346372D01*
X49691714Y-72407127D01*
X49900000Y-72427641D01*
X50108286Y-72407127D01*
X50308569Y-72346372D01*
X50493150Y-72247711D01*
X50654936Y-72114936D01*
X50787711Y-71953150D01*
X50886372Y-71768569D01*
X50947127Y-71568286D01*
X50967641Y-71360000D01*
X53683359Y-71360000D01*
X53703872Y-71568284D01*
X53709939Y-71588284D01*
X53764628Y-71768569D01*
X53858747Y-71944653D01*
X53863291Y-71953153D01*
X53996063Y-72114936D01*
X54157846Y-72247708D01*
X54157850Y-72247711D01*
X54342431Y-72346372D01*
X54542714Y-72407127D01*
X54751000Y-72427641D01*
X54959286Y-72407127D01*
X55159569Y-72346372D01*
X55344150Y-72247711D01*
X55505936Y-72114936D01*
X55638711Y-71953150D01*
X55737372Y-71768569D01*
X55798127Y-71568286D01*
X55814701Y-71400000D01*
X72681359Y-71400000D01*
X72701872Y-71608284D01*
X72701873Y-71608286D01*
X72762628Y-71808569D01*
X72856990Y-71985108D01*
X72861291Y-71993153D01*
X72994063Y-72154936D01*
X73107106Y-72247708D01*
X73155850Y-72287711D01*
X73340431Y-72386372D01*
X73540714Y-72447127D01*
X73749000Y-72467641D01*
X73957286Y-72447127D01*
X74157569Y-72386372D01*
X74342150Y-72287711D01*
X74503936Y-72154936D01*
X74636711Y-71993150D01*
X74735372Y-71808569D01*
X74796127Y-71608286D01*
X74816641Y-71400000D01*
X77532359Y-71400000D01*
X77552872Y-71608284D01*
X77552873Y-71608286D01*
X77613628Y-71808569D01*
X77707990Y-71985108D01*
X77712291Y-71993153D01*
X77845063Y-72154936D01*
X77958106Y-72247708D01*
X78006850Y-72287711D01*
X78191431Y-72386372D01*
X78391714Y-72447127D01*
X78600000Y-72467641D01*
X78808286Y-72447127D01*
X79008569Y-72386372D01*
X79193150Y-72287711D01*
X79354936Y-72154936D01*
X79487711Y-71993150D01*
X79586372Y-71808569D01*
X79647127Y-71608286D01*
X79667641Y-71400000D01*
X79665671Y-71380000D01*
X96881359Y-71380000D01*
X96901872Y-71588284D01*
X96901873Y-71588286D01*
X96962628Y-71788569D01*
X97052428Y-71956573D01*
X97061291Y-71973153D01*
X97194063Y-72134936D01*
X97331476Y-72247708D01*
X97355850Y-72267711D01*
X97540431Y-72366372D01*
X97740714Y-72427127D01*
X97949000Y-72447641D01*
X98157286Y-72427127D01*
X98357569Y-72366372D01*
X98542150Y-72267711D01*
X98703936Y-72134936D01*
X98836711Y-71973150D01*
X98935372Y-71788569D01*
X98996127Y-71588286D01*
X99016641Y-71380000D01*
X101732359Y-71380000D01*
X101752872Y-71588284D01*
X101752873Y-71588286D01*
X101813628Y-71788569D01*
X101903428Y-71956573D01*
X101912291Y-71973153D01*
X102045063Y-72134936D01*
X102182476Y-72247708D01*
X102206850Y-72267711D01*
X102391431Y-72366372D01*
X102591714Y-72427127D01*
X102800000Y-72447641D01*
X103008286Y-72427127D01*
X103208569Y-72366372D01*
X103393150Y-72267711D01*
X103554936Y-72134936D01*
X103687711Y-71973150D01*
X103786372Y-71788569D01*
X103847127Y-71588286D01*
X103867641Y-71380000D01*
X103861732Y-71320000D01*
X121081359Y-71320000D01*
X121101872Y-71528284D01*
X121101873Y-71528286D01*
X121162628Y-71728569D01*
X121249793Y-71891643D01*
X121261291Y-71913153D01*
X121394063Y-72074936D01*
X121555846Y-72207708D01*
X121555850Y-72207711D01*
X121740431Y-72306372D01*
X121940714Y-72367127D01*
X122149000Y-72387641D01*
X122357286Y-72367127D01*
X122557569Y-72306372D01*
X122742150Y-72207711D01*
X122903936Y-72074936D01*
X123036711Y-71913150D01*
X123135372Y-71728569D01*
X123196127Y-71528286D01*
X123216641Y-71320000D01*
X125932359Y-71320000D01*
X125952872Y-71528284D01*
X125952873Y-71528286D01*
X126013628Y-71728569D01*
X126100793Y-71891643D01*
X126112291Y-71913153D01*
X126245063Y-72074936D01*
X126406846Y-72207708D01*
X126406850Y-72207711D01*
X126591431Y-72306372D01*
X126791714Y-72367127D01*
X127000000Y-72387641D01*
X127208286Y-72367127D01*
X127408569Y-72306372D01*
X127593150Y-72207711D01*
X127754936Y-72074936D01*
X127887711Y-71913150D01*
X127986372Y-71728569D01*
X128047127Y-71528286D01*
X128055822Y-71440000D01*
X145230359Y-71440000D01*
X145250872Y-71648284D01*
X145275227Y-71728571D01*
X145311628Y-71848569D01*
X145405034Y-72023319D01*
X145410291Y-72033153D01*
X145543063Y-72194936D01*
X145704846Y-72327708D01*
X145704850Y-72327711D01*
X145889431Y-72426372D01*
X146089714Y-72487127D01*
X146298000Y-72507641D01*
X146506286Y-72487127D01*
X146706569Y-72426372D01*
X146891150Y-72327711D01*
X147052936Y-72194936D01*
X147185711Y-72033150D01*
X147284372Y-71848569D01*
X147345127Y-71648286D01*
X147365641Y-71440000D01*
X150081359Y-71440000D01*
X150101872Y-71648284D01*
X150126227Y-71728571D01*
X150162628Y-71848569D01*
X150256034Y-72023319D01*
X150261291Y-72033153D01*
X150394063Y-72194936D01*
X150555846Y-72327708D01*
X150555850Y-72327711D01*
X150740431Y-72426372D01*
X150940714Y-72487127D01*
X151149000Y-72507641D01*
X151357286Y-72487127D01*
X151557569Y-72426372D01*
X151742150Y-72327711D01*
X151903936Y-72194936D01*
X152036711Y-72033150D01*
X152135372Y-71848569D01*
X152196127Y-71648286D01*
X152214671Y-71459999D01*
X169381359Y-71459999D01*
X169401872Y-71668284D01*
X169420160Y-71728571D01*
X169462628Y-71868569D01*
X169560040Y-72050814D01*
X169561291Y-72053153D01*
X169694063Y-72214936D01*
X169854216Y-72346370D01*
X169855850Y-72347711D01*
X170040431Y-72446372D01*
X170240714Y-72507127D01*
X170449000Y-72527641D01*
X170657286Y-72507127D01*
X170857569Y-72446372D01*
X171042150Y-72347711D01*
X171203936Y-72214936D01*
X171336711Y-72053150D01*
X171435372Y-71868569D01*
X171496127Y-71668286D01*
X171516641Y-71460000D01*
X171516641Y-71459999D01*
X174232359Y-71459999D01*
X174252872Y-71668284D01*
X174271160Y-71728571D01*
X174313628Y-71868569D01*
X174411040Y-72050814D01*
X174412291Y-72053153D01*
X174545063Y-72214936D01*
X174705216Y-72346370D01*
X174706850Y-72347711D01*
X174891431Y-72446372D01*
X175091714Y-72507127D01*
X175300000Y-72527641D01*
X175508286Y-72507127D01*
X175708569Y-72446372D01*
X175893150Y-72347711D01*
X176054936Y-72214936D01*
X176187711Y-72053150D01*
X176286372Y-71868569D01*
X176347127Y-71668286D01*
X176367641Y-71460000D01*
X176365671Y-71439999D01*
X193581359Y-71439999D01*
X193601872Y-71648284D01*
X193626227Y-71728571D01*
X193662628Y-71848569D01*
X193756034Y-72023319D01*
X193761291Y-72033153D01*
X193894063Y-72194936D01*
X194055846Y-72327708D01*
X194055850Y-72327711D01*
X194240431Y-72426372D01*
X194440714Y-72487127D01*
X194649000Y-72507641D01*
X194857286Y-72487127D01*
X195057569Y-72426372D01*
X195242150Y-72327711D01*
X195403936Y-72194936D01*
X195536711Y-72033150D01*
X195635372Y-71848569D01*
X195696127Y-71648286D01*
X195716641Y-71440000D01*
X195696127Y-71231714D01*
X195635372Y-71031431D01*
X195536711Y-70846850D01*
X195536708Y-70846846D01*
X195403936Y-70685063D01*
X195242153Y-70552291D01*
X195242151Y-70552290D01*
X195242150Y-70552289D01*
X195057569Y-70453628D01*
X194925710Y-70413629D01*
X194857284Y-70392872D01*
X194649000Y-70372359D01*
X194440715Y-70392872D01*
X194240428Y-70453629D01*
X194055846Y-70552291D01*
X193894063Y-70685063D01*
X193761291Y-70846846D01*
X193662629Y-71031428D01*
X193601872Y-71231715D01*
X193581359Y-71439999D01*
X176365671Y-71439999D01*
X176347127Y-71251714D01*
X176286372Y-71051431D01*
X176187711Y-70866850D01*
X176187708Y-70866846D01*
X176054936Y-70705063D01*
X175893153Y-70572291D01*
X175893151Y-70572290D01*
X175893150Y-70572289D01*
X175708569Y-70473628D01*
X175603234Y-70441675D01*
X175508284Y-70412872D01*
X175300000Y-70392359D01*
X175091715Y-70412872D01*
X174891428Y-70473629D01*
X174706846Y-70572291D01*
X174545063Y-70705063D01*
X174412291Y-70866846D01*
X174313629Y-71051428D01*
X174313628Y-71051430D01*
X174313628Y-71051431D01*
X174309478Y-71065111D01*
X174252872Y-71251715D01*
X174232359Y-71459999D01*
X171516641Y-71459999D01*
X171496127Y-71251714D01*
X171435372Y-71051431D01*
X171336711Y-70866850D01*
X171336708Y-70866846D01*
X171203936Y-70705063D01*
X171042153Y-70572291D01*
X171042151Y-70572290D01*
X171042150Y-70572289D01*
X170857569Y-70473628D01*
X170752234Y-70441675D01*
X170657284Y-70412872D01*
X170449000Y-70392359D01*
X170240715Y-70412872D01*
X170040428Y-70473629D01*
X169855846Y-70572291D01*
X169694063Y-70705063D01*
X169561291Y-70866846D01*
X169462629Y-71051428D01*
X169462628Y-71051430D01*
X169462628Y-71051431D01*
X169458478Y-71065111D01*
X169401872Y-71251715D01*
X169381359Y-71459999D01*
X152214671Y-71459999D01*
X152216641Y-71440000D01*
X152196127Y-71231714D01*
X152135372Y-71031431D01*
X152036711Y-70846850D01*
X152036708Y-70846846D01*
X151903936Y-70685063D01*
X151742153Y-70552291D01*
X151742151Y-70552290D01*
X151742150Y-70552289D01*
X151557569Y-70453628D01*
X151425710Y-70413629D01*
X151357284Y-70392872D01*
X151149000Y-70372359D01*
X150940715Y-70392872D01*
X150740428Y-70453629D01*
X150555846Y-70552291D01*
X150394063Y-70685063D01*
X150261291Y-70846846D01*
X150162629Y-71031428D01*
X150101872Y-71231715D01*
X150081359Y-71440000D01*
X147365641Y-71440000D01*
X147345127Y-71231714D01*
X147284372Y-71031431D01*
X147185711Y-70846850D01*
X147185708Y-70846846D01*
X147052936Y-70685063D01*
X146891153Y-70552291D01*
X146891151Y-70552290D01*
X146891150Y-70552289D01*
X146706569Y-70453628D01*
X146574710Y-70413629D01*
X146506284Y-70392872D01*
X146298000Y-70372359D01*
X146089715Y-70392872D01*
X145889428Y-70453629D01*
X145704846Y-70552291D01*
X145543063Y-70685063D01*
X145410291Y-70846846D01*
X145311629Y-71031428D01*
X145250872Y-71231715D01*
X145230359Y-71440000D01*
X128055822Y-71440000D01*
X128067641Y-71320000D01*
X128047127Y-71111714D01*
X127986372Y-70911431D01*
X127887711Y-70726850D01*
X127853418Y-70685064D01*
X127754936Y-70565063D01*
X127593153Y-70432291D01*
X127593151Y-70432290D01*
X127593150Y-70432289D01*
X127408569Y-70333628D01*
X127272523Y-70292359D01*
X127208284Y-70272872D01*
X127000000Y-70252359D01*
X126791715Y-70272872D01*
X126659851Y-70312873D01*
X126595615Y-70332359D01*
X126591428Y-70333629D01*
X126406846Y-70432291D01*
X126245063Y-70565063D01*
X126112291Y-70726846D01*
X126013629Y-70911428D01*
X125952872Y-71111715D01*
X125932359Y-71320000D01*
X123216641Y-71320000D01*
X123196127Y-71111714D01*
X123135372Y-70911431D01*
X123036711Y-70726850D01*
X123002418Y-70685064D01*
X122903936Y-70565063D01*
X122742153Y-70432291D01*
X122742151Y-70432290D01*
X122742150Y-70432289D01*
X122557569Y-70333628D01*
X122421523Y-70292359D01*
X122357284Y-70272872D01*
X122149000Y-70252359D01*
X121940715Y-70272872D01*
X121808851Y-70312873D01*
X121744615Y-70332359D01*
X121740428Y-70333629D01*
X121555846Y-70432291D01*
X121394063Y-70565063D01*
X121261291Y-70726846D01*
X121162629Y-70911428D01*
X121101872Y-71111715D01*
X121081359Y-71320000D01*
X103861732Y-71320000D01*
X103847127Y-71171714D01*
X103786372Y-70971431D01*
X103687711Y-70786850D01*
X103687708Y-70786846D01*
X103554936Y-70625063D01*
X103393153Y-70492291D01*
X103393151Y-70492290D01*
X103393150Y-70492289D01*
X103208569Y-70393628D01*
X103108427Y-70363250D01*
X103008284Y-70332872D01*
X102800000Y-70312359D01*
X102591715Y-70332872D01*
X102457362Y-70373628D01*
X102395615Y-70392359D01*
X102391428Y-70393629D01*
X102206846Y-70492291D01*
X102045063Y-70625063D01*
X101912291Y-70786846D01*
X101813629Y-70971428D01*
X101752872Y-71171715D01*
X101732359Y-71380000D01*
X99016641Y-71380000D01*
X98996127Y-71171714D01*
X98935372Y-70971431D01*
X98836711Y-70786850D01*
X98836708Y-70786846D01*
X98703936Y-70625063D01*
X98542153Y-70492291D01*
X98542151Y-70492290D01*
X98542150Y-70492289D01*
X98357569Y-70393628D01*
X98257427Y-70363250D01*
X98157284Y-70332872D01*
X97949000Y-70312359D01*
X97740715Y-70332872D01*
X97606362Y-70373628D01*
X97544615Y-70392359D01*
X97540428Y-70393629D01*
X97355846Y-70492291D01*
X97194063Y-70625063D01*
X97061291Y-70786846D01*
X96962629Y-70971428D01*
X96901872Y-71171715D01*
X96881359Y-71380000D01*
X79665671Y-71380000D01*
X79647127Y-71191714D01*
X79586372Y-70991431D01*
X79487711Y-70806850D01*
X79487708Y-70806846D01*
X79354936Y-70645063D01*
X79193153Y-70512291D01*
X79193151Y-70512290D01*
X79193150Y-70512289D01*
X79008569Y-70413628D01*
X78876710Y-70373629D01*
X78808284Y-70352872D01*
X78600000Y-70332359D01*
X78391715Y-70352872D01*
X78191428Y-70413629D01*
X78006846Y-70512291D01*
X77845063Y-70645063D01*
X77712291Y-70806846D01*
X77613629Y-70991428D01*
X77552872Y-71191715D01*
X77532359Y-71400000D01*
X74816641Y-71400000D01*
X74796127Y-71191714D01*
X74735372Y-70991431D01*
X74636711Y-70806850D01*
X74636708Y-70806846D01*
X74503936Y-70645063D01*
X74342153Y-70512291D01*
X74342151Y-70512290D01*
X74342150Y-70512289D01*
X74157569Y-70413628D01*
X74025710Y-70373629D01*
X73957284Y-70352872D01*
X73749000Y-70332359D01*
X73540715Y-70352872D01*
X73340428Y-70413629D01*
X73155846Y-70512291D01*
X72994063Y-70645063D01*
X72861291Y-70806846D01*
X72762629Y-70991428D01*
X72701872Y-71191715D01*
X72681359Y-71400000D01*
X55814701Y-71400000D01*
X55818641Y-71360000D01*
X55798127Y-71151714D01*
X55737372Y-70951431D01*
X55638711Y-70766850D01*
X55638708Y-70766846D01*
X55505936Y-70605063D01*
X55344153Y-70472291D01*
X55344151Y-70472290D01*
X55344150Y-70472289D01*
X55159569Y-70373628D01*
X55027710Y-70333629D01*
X54959284Y-70312872D01*
X54751000Y-70292359D01*
X54542715Y-70312872D01*
X54365334Y-70366680D01*
X54346615Y-70372359D01*
X54342428Y-70373629D01*
X54157846Y-70472291D01*
X53996063Y-70605063D01*
X53863291Y-70766846D01*
X53764629Y-70951428D01*
X53703872Y-71151715D01*
X53683359Y-71360000D01*
X50967641Y-71360000D01*
X50947127Y-71151714D01*
X50886372Y-70951431D01*
X50787711Y-70766850D01*
X50787708Y-70766846D01*
X50654936Y-70605063D01*
X50493153Y-70472291D01*
X50493151Y-70472290D01*
X50493150Y-70472289D01*
X50308569Y-70373628D01*
X50176710Y-70333629D01*
X50108284Y-70312872D01*
X49900000Y-70292359D01*
X49691715Y-70312872D01*
X49514334Y-70366680D01*
X49495615Y-70372359D01*
X49491428Y-70373629D01*
X49306846Y-70472291D01*
X49145063Y-70605063D01*
X49012291Y-70766846D01*
X48913629Y-70951428D01*
X48852872Y-71151715D01*
X48832359Y-71359999D01*
X31718994Y-71359999D01*
X31719831Y-71351500D01*
X31699317Y-71143214D01*
X31638562Y-70942931D01*
X31539901Y-70758350D01*
X31539898Y-70758346D01*
X31407126Y-70596563D01*
X31245343Y-70463791D01*
X31245341Y-70463790D01*
X31245340Y-70463789D01*
X31060759Y-70365128D01*
X30952734Y-70332359D01*
X30860474Y-70304372D01*
X30652190Y-70283859D01*
X30443905Y-70304372D01*
X30243618Y-70365129D01*
X30059036Y-70463791D01*
X29897253Y-70596563D01*
X29764481Y-70758346D01*
X29665819Y-70942928D01*
X29665818Y-70942930D01*
X29665818Y-70942931D01*
X29663240Y-70951431D01*
X29605062Y-71143215D01*
X29584549Y-71351500D01*
X26868831Y-71351500D01*
X26848317Y-71143214D01*
X26787562Y-70942931D01*
X26688901Y-70758350D01*
X26688898Y-70758346D01*
X26556126Y-70596563D01*
X26394343Y-70463791D01*
X26394341Y-70463790D01*
X26394340Y-70463789D01*
X26209759Y-70365128D01*
X26101734Y-70332359D01*
X26009474Y-70304372D01*
X25801190Y-70283859D01*
X25592905Y-70304372D01*
X25392618Y-70365129D01*
X25208036Y-70463791D01*
X25046253Y-70596563D01*
X24913481Y-70758346D01*
X24814819Y-70942928D01*
X24814818Y-70942930D01*
X24814818Y-70942931D01*
X24812240Y-70951431D01*
X24754062Y-71143215D01*
X24733549Y-71351500D01*
X20600500Y-71351500D01*
X20600500Y-47275877D01*
X22394500Y-47275877D01*
X22401515Y-47340964D01*
X22412777Y-47392603D01*
X22423805Y-47430944D01*
X22423807Y-47430949D01*
X22444158Y-47465662D01*
X22480587Y-47527800D01*
X22526397Y-47580556D01*
X22571174Y-47622687D01*
X22671304Y-47673469D01*
X22671311Y-47673471D01*
X22671310Y-47673471D01*
X22738353Y-47693081D01*
X22738355Y-47693081D01*
X22738364Y-47693084D01*
X22824448Y-47705370D01*
X22824448Y-47705369D01*
X22824449Y-47705370D01*
X23014105Y-47705172D01*
X207358654Y-47512945D01*
X207365397Y-47512789D01*
X207379688Y-47512143D01*
X207477738Y-47491243D01*
X207542756Y-47465662D01*
X207597415Y-47437508D01*
X207678697Y-47360061D01*
X207719564Y-47303389D01*
X207750327Y-47250148D01*
X207776833Y-47141050D01*
X207776833Y-47141043D01*
X207776834Y-47141041D01*
X207778076Y-47117866D01*
X207801319Y-47051975D01*
X207856495Y-47009111D01*
X207901898Y-47000500D01*
X210995740Y-47000500D01*
X211062779Y-47020185D01*
X211083421Y-47036819D01*
X214637677Y-50591075D01*
X214671162Y-50652398D01*
X214673996Y-50678756D01*
X214673996Y-54727337D01*
X214654311Y-54794376D01*
X214601507Y-54840131D01*
X214532349Y-54850075D01*
X214468793Y-54821050D01*
X214465682Y-54818260D01*
X214417603Y-54773649D01*
X214200209Y-54625433D01*
X213963152Y-54511272D01*
X213963151Y-54511272D01*
X213711730Y-54433718D01*
X213711724Y-54433716D01*
X213451561Y-54394503D01*
X213451554Y-54394503D01*
X213188442Y-54394503D01*
X213188434Y-54394503D01*
X212928271Y-54433716D01*
X212928265Y-54433718D01*
X212773157Y-54481563D01*
X212676844Y-54511272D01*
X212676841Y-54511273D01*
X212676842Y-54511273D01*
X212676838Y-54511274D01*
X212439791Y-54625431D01*
X212439787Y-54625433D01*
X212222395Y-54773647D01*
X212029520Y-54952609D01*
X212029518Y-54952612D01*
X211865470Y-55158322D01*
X211733913Y-55386183D01*
X211637788Y-55631105D01*
X211579237Y-55887632D01*
X211579237Y-55887634D01*
X211559577Y-56149997D01*
X211559577Y-56150006D01*
X211579237Y-56412369D01*
X211579237Y-56412371D01*
X211637788Y-56668898D01*
X211733913Y-56913820D01*
X211733912Y-56913820D01*
X211817316Y-57058277D01*
X211865470Y-57141682D01*
X212029518Y-57347392D01*
X212222393Y-57526355D01*
X212439788Y-57674571D01*
X212676844Y-57788732D01*
X212928267Y-57866286D01*
X212928268Y-57866286D01*
X212928271Y-57866287D01*
X213188434Y-57905500D01*
X213188439Y-57905500D01*
X213188442Y-57905501D01*
X213188443Y-57905501D01*
X213451553Y-57905501D01*
X213451554Y-57905501D01*
X213451561Y-57905500D01*
X213711724Y-57866287D01*
X213711725Y-57866286D01*
X213711729Y-57866286D01*
X213963152Y-57788732D01*
X214200209Y-57674571D01*
X214417603Y-57526355D01*
X214465657Y-57481766D01*
X214528187Y-57450599D01*
X214597644Y-57458185D01*
X214651973Y-57502119D01*
X214673925Y-57568450D01*
X214673997Y-57572666D01*
X214673997Y-58321237D01*
X214654312Y-58388276D01*
X214637678Y-58408918D01*
X210217707Y-62828889D01*
X210156384Y-62862374D01*
X210086692Y-62857390D01*
X210060174Y-62843661D01*
X210059125Y-62842946D01*
X209902774Y-62736347D01*
X209902773Y-62736346D01*
X209902766Y-62736342D01*
X209659642Y-62619261D01*
X209659644Y-62619261D01*
X209401772Y-62539718D01*
X209401766Y-62539716D01*
X209134935Y-62499498D01*
X209134928Y-62499498D01*
X208865070Y-62499498D01*
X208865062Y-62499498D01*
X208598231Y-62539716D01*
X208598225Y-62539718D01*
X208340357Y-62619260D01*
X208097229Y-62736344D01*
X207874257Y-62888363D01*
X207676441Y-63071908D01*
X207508186Y-63282893D01*
X207457637Y-63370446D01*
X207407069Y-63418661D01*
X207338462Y-63431883D01*
X207273598Y-63405915D01*
X207248200Y-63378885D01*
X207204933Y-63316203D01*
X207204932Y-63316201D01*
X207031516Y-63135657D01*
X206831385Y-62985268D01*
X206831383Y-62985267D01*
X206831382Y-62985266D01*
X206609726Y-62868931D01*
X206609722Y-62868929D01*
X206609721Y-62868929D01*
X206372266Y-62789655D01*
X206372265Y-62789654D01*
X206372260Y-62789653D01*
X206125172Y-62749498D01*
X206125169Y-62749498D01*
X204844985Y-62749498D01*
X204843737Y-62749485D01*
X204748640Y-62747570D01*
X204734854Y-62747293D01*
X204734853Y-62747293D01*
X204734850Y-62747293D01*
X204659185Y-62758030D01*
X204655463Y-62758444D01*
X204579247Y-62764598D01*
X204536604Y-62775108D01*
X204530476Y-62776295D01*
X204486998Y-62782466D01*
X204414010Y-62805209D01*
X204410431Y-62806207D01*
X204351085Y-62820835D01*
X204336180Y-62824509D01*
X204295783Y-62841720D01*
X204289927Y-62843874D01*
X204247991Y-62856943D01*
X204179595Y-62891101D01*
X204176196Y-62892672D01*
X204105881Y-62922630D01*
X204105873Y-62922634D01*
X204068757Y-62946105D01*
X204063321Y-62949171D01*
X204024043Y-62968787D01*
X204024028Y-62968796D01*
X203962007Y-63013475D01*
X203958906Y-63015569D01*
X203894297Y-63056428D01*
X203894292Y-63056432D01*
X203861418Y-63085555D01*
X203856543Y-63089454D01*
X203820917Y-63115119D01*
X203766862Y-63169173D01*
X203764136Y-63171739D01*
X203706920Y-63222427D01*
X203706908Y-63222440D01*
X203679134Y-63256456D01*
X203674948Y-63261086D01*
X201815113Y-65120921D01*
X201814222Y-65121795D01*
X201735657Y-65197259D01*
X201689744Y-65258358D01*
X201687406Y-65261282D01*
X201637871Y-65319516D01*
X201637867Y-65319522D01*
X201615141Y-65357113D01*
X201611648Y-65362283D01*
X201585271Y-65397386D01*
X201549741Y-65465079D01*
X201547903Y-65468339D01*
X201508359Y-65533754D01*
X201508355Y-65533760D01*
X201491959Y-65574498D01*
X201489341Y-65580162D01*
X201468930Y-65619052D01*
X201444720Y-65691568D01*
X201443428Y-65695081D01*
X201414892Y-65765988D01*
X201414887Y-65766003D01*
X201405239Y-65808837D01*
X201403564Y-65814849D01*
X201389657Y-65856507D01*
X201389654Y-65856518D01*
X201377393Y-65931970D01*
X201376681Y-65935647D01*
X201359887Y-66010213D01*
X201357234Y-66054052D01*
X201356544Y-66060254D01*
X201349499Y-66103606D01*
X201349499Y-66180056D01*
X201349386Y-66183799D01*
X201344772Y-66260097D01*
X201344772Y-66260100D01*
X201349186Y-66303787D01*
X201349500Y-66310022D01*
X201349500Y-68583789D01*
X201349487Y-68585037D01*
X201347295Y-68693924D01*
X201347295Y-68693926D01*
X201358031Y-68769587D01*
X201358445Y-68773308D01*
X201364600Y-68849528D01*
X201375110Y-68892170D01*
X201376297Y-68898299D01*
X201382467Y-68941776D01*
X201382468Y-68941777D01*
X201405206Y-69014750D01*
X201406211Y-69018356D01*
X201424507Y-69092581D01*
X201424510Y-69092592D01*
X201441723Y-69132994D01*
X201443877Y-69138851D01*
X201456943Y-69180777D01*
X201456946Y-69180786D01*
X201491098Y-69249171D01*
X201492667Y-69252565D01*
X201522634Y-69322897D01*
X201522635Y-69322898D01*
X201522637Y-69322902D01*
X201546099Y-69360003D01*
X201549166Y-69365441D01*
X201568796Y-69404746D01*
X201613489Y-69466784D01*
X201615585Y-69469888D01*
X201656429Y-69534478D01*
X201685549Y-69567347D01*
X201689449Y-69572223D01*
X201713372Y-69605431D01*
X201715126Y-69607865D01*
X201769181Y-69661919D01*
X201771749Y-69664647D01*
X201822440Y-69721865D01*
X201856453Y-69749635D01*
X201861085Y-69753823D01*
X203692192Y-71584930D01*
X203693020Y-71585776D01*
X203768484Y-71664341D01*
X203829601Y-71710267D01*
X203832513Y-71712597D01*
X203890751Y-71762134D01*
X203890753Y-71762135D01*
X203890756Y-71762138D01*
X203918782Y-71779079D01*
X203928332Y-71784852D01*
X203933505Y-71788346D01*
X203941905Y-71794658D01*
X203968615Y-71814730D01*
X203968619Y-71814732D01*
X203968620Y-71814733D01*
X204036305Y-71850257D01*
X204039566Y-71852095D01*
X204104986Y-71891644D01*
X204145731Y-71908041D01*
X204151387Y-71910656D01*
X204190279Y-71931069D01*
X204217168Y-71940046D01*
X204262799Y-71955280D01*
X204266314Y-71956573D01*
X204337216Y-71985108D01*
X204337221Y-71985110D01*
X204380058Y-71994757D01*
X204386065Y-71996432D01*
X204427729Y-72010342D01*
X204427732Y-72010342D01*
X204427734Y-72010343D01*
X204503224Y-72022611D01*
X204506874Y-72023318D01*
X204581443Y-72040113D01*
X204625270Y-72042763D01*
X204631463Y-72043451D01*
X204674831Y-72050500D01*
X204751284Y-72050500D01*
X204755028Y-72050613D01*
X204758352Y-72050814D01*
X204831324Y-72055228D01*
X204875015Y-72050813D01*
X204881249Y-72050500D01*
X205381698Y-72050500D01*
X205448737Y-72070185D01*
X205469379Y-72086819D01*
X208367490Y-74984930D01*
X208368318Y-74985776D01*
X208443782Y-75064341D01*
X208504884Y-75110256D01*
X208507810Y-75112597D01*
X208566045Y-75162132D01*
X208603630Y-75184854D01*
X208608803Y-75188348D01*
X208643902Y-75214722D01*
X208643913Y-75214730D01*
X208711607Y-75250259D01*
X208714850Y-75252087D01*
X208718647Y-75254383D01*
X208765834Y-75305908D01*
X208777674Y-75374768D01*
X208750407Y-75439097D01*
X208692689Y-75478472D01*
X208654498Y-75484500D01*
X208109915Y-75484500D01*
X208055276Y-75471813D01*
X207360975Y-75131006D01*
X207355306Y-75127845D01*
X207349523Y-75124211D01*
X207344716Y-75122529D01*
X207337879Y-75119668D01*
X207334923Y-75118217D01*
X207330595Y-75116177D01*
X207327653Y-75114847D01*
X207312761Y-75108586D01*
X207312755Y-75108585D01*
X207304757Y-75107074D01*
X207286822Y-75102271D01*
X207179252Y-75064631D01*
X207000004Y-75044435D01*
X206999996Y-75044435D01*
X206820750Y-75064630D01*
X206820741Y-75064632D01*
X206672814Y-75116393D01*
X206668974Y-75117599D01*
X206662876Y-75119297D01*
X206662858Y-75119304D01*
X206662105Y-75119674D01*
X206655296Y-75122523D01*
X206650484Y-75124207D01*
X206650474Y-75124212D01*
X206644695Y-75127843D01*
X206639032Y-75131000D01*
X205944720Y-75471813D01*
X205890081Y-75484500D01*
X204112757Y-75484500D01*
X204045718Y-75464815D01*
X204025076Y-75448181D01*
X200916950Y-72340055D01*
X200886431Y-72289854D01*
X200885751Y-72287711D01*
X200498080Y-71065117D01*
X200498078Y-71065111D01*
X200498055Y-71065041D01*
X200496018Y-71059060D01*
X200496004Y-71059022D01*
X200494567Y-71055072D01*
X200493103Y-71051428D01*
X200491394Y-71047175D01*
X200489597Y-71042065D01*
X200486372Y-71031431D01*
X200387711Y-70846850D01*
X200387708Y-70846846D01*
X200254936Y-70685063D01*
X200093153Y-70552291D01*
X200093151Y-70552290D01*
X200093150Y-70552289D01*
X199908569Y-70453628D01*
X199776710Y-70413629D01*
X199708284Y-70392872D01*
X199500000Y-70372359D01*
X199291715Y-70392872D01*
X199091428Y-70453629D01*
X198906846Y-70552291D01*
X198745063Y-70685063D01*
X198612291Y-70846846D01*
X198513629Y-71031428D01*
X198452872Y-71231715D01*
X198432359Y-71440000D01*
X198452872Y-71648284D01*
X198477227Y-71728571D01*
X198513628Y-71848569D01*
X198607034Y-72023319D01*
X198612291Y-72033153D01*
X198745063Y-72194936D01*
X198906846Y-72327708D01*
X198906850Y-72327711D01*
X199091431Y-72426372D01*
X199109854Y-72431960D01*
X199122713Y-72437294D01*
X199122911Y-72436826D01*
X199128188Y-72439054D01*
X199128190Y-72439054D01*
X199128191Y-72439055D01*
X200349854Y-72826431D01*
X200400055Y-72856950D01*
X200644270Y-73101165D01*
X200677755Y-73162488D01*
X200672771Y-73232180D01*
X200630899Y-73288113D01*
X200565435Y-73312530D01*
X200499511Y-73298928D01*
X199940598Y-73009131D01*
X199940568Y-73009116D01*
X199934736Y-73006251D01*
X199934688Y-73006228D01*
X199934680Y-73006224D01*
X199930809Y-73004424D01*
X199930777Y-73004409D01*
X199923224Y-73001189D01*
X199918318Y-72998838D01*
X199908572Y-72993629D01*
X199908570Y-72993628D01*
X199708284Y-72932872D01*
X199500000Y-72912359D01*
X199291715Y-72932872D01*
X199091428Y-72993629D01*
X198906846Y-73092291D01*
X198745063Y-73225063D01*
X198612291Y-73386846D01*
X198513629Y-73571428D01*
X198452872Y-73771715D01*
X198432359Y-73979999D01*
X198452872Y-74188284D01*
X198477227Y-74268571D01*
X198513628Y-74388569D01*
X198604311Y-74558225D01*
X198612291Y-74573153D01*
X198745063Y-74734936D01*
X198791804Y-74773295D01*
X198831138Y-74831040D01*
X198833009Y-74900885D01*
X198796822Y-74960653D01*
X198734066Y-74991369D01*
X198713069Y-74993148D01*
X195438045Y-74991297D01*
X195371017Y-74971575D01*
X195325292Y-74918745D01*
X195315387Y-74849581D01*
X195344448Y-74786041D01*
X195359443Y-74771450D01*
X195403936Y-74734936D01*
X195536711Y-74573150D01*
X195635372Y-74388569D01*
X195696127Y-74188286D01*
X195716641Y-73980000D01*
X195696127Y-73771714D01*
X195635372Y-73571431D01*
X195536711Y-73386850D01*
X195503884Y-73346850D01*
X195403936Y-73225063D01*
X195242153Y-73092291D01*
X195242151Y-73092290D01*
X195242150Y-73092289D01*
X195057569Y-72993628D01*
X194925710Y-72953629D01*
X194857284Y-72932872D01*
X194649000Y-72912359D01*
X194440715Y-72932872D01*
X194240428Y-72993629D01*
X194055846Y-73092291D01*
X193894063Y-73225063D01*
X193761291Y-73386846D01*
X193662629Y-73571428D01*
X193601872Y-73771715D01*
X193581359Y-73979999D01*
X193601872Y-74188284D01*
X193626227Y-74268571D01*
X193662628Y-74388569D01*
X193753311Y-74558225D01*
X193761291Y-74573153D01*
X193892349Y-74732846D01*
X193894064Y-74734936D01*
X193937397Y-74770499D01*
X193937460Y-74770550D01*
X193976795Y-74828296D01*
X193978666Y-74898140D01*
X193942479Y-74957909D01*
X193879723Y-74988625D01*
X193858726Y-74990404D01*
X176126716Y-74980381D01*
X176059688Y-74960659D01*
X176013963Y-74907829D01*
X176004058Y-74838665D01*
X176033119Y-74775125D01*
X176048129Y-74760522D01*
X176048845Y-74759935D01*
X176054936Y-74754936D01*
X176187711Y-74593150D01*
X176286372Y-74408569D01*
X176347127Y-74208286D01*
X176367641Y-74000000D01*
X176347127Y-73791714D01*
X176286372Y-73591431D01*
X176187711Y-73406850D01*
X176187708Y-73406846D01*
X176054936Y-73245063D01*
X175893153Y-73112291D01*
X175893151Y-73112290D01*
X175893150Y-73112289D01*
X175708569Y-73013628D01*
X175572299Y-72972291D01*
X175508284Y-72952872D01*
X175300000Y-72932359D01*
X175091715Y-72952872D01*
X174891428Y-73013629D01*
X174706846Y-73112291D01*
X174545063Y-73245063D01*
X174412291Y-73406846D01*
X174313629Y-73591428D01*
X174252872Y-73791715D01*
X174232359Y-74000000D01*
X174252872Y-74208284D01*
X174271160Y-74268571D01*
X174313628Y-74408569D01*
X174401600Y-74573153D01*
X174412291Y-74593153D01*
X174540368Y-74749214D01*
X174545064Y-74754936D01*
X174547432Y-74756879D01*
X174550735Y-74759590D01*
X174590071Y-74817336D01*
X174591942Y-74887180D01*
X174555756Y-74946949D01*
X174493001Y-74977666D01*
X174472002Y-74979445D01*
X171279056Y-74977640D01*
X171212028Y-74957918D01*
X171166303Y-74905088D01*
X171156398Y-74835924D01*
X171185459Y-74772384D01*
X171200460Y-74757788D01*
X171203936Y-74754936D01*
X171336711Y-74593150D01*
X171435372Y-74408569D01*
X171496127Y-74208286D01*
X171516641Y-74000000D01*
X171496127Y-73791714D01*
X171435372Y-73591431D01*
X171336711Y-73406850D01*
X171336708Y-73406846D01*
X171203936Y-73245063D01*
X171042153Y-73112291D01*
X171042151Y-73112290D01*
X171042150Y-73112289D01*
X170857569Y-73013628D01*
X170721299Y-72972291D01*
X170657284Y-72952872D01*
X170449000Y-72932359D01*
X170240715Y-72952872D01*
X170040428Y-73013629D01*
X169855846Y-73112291D01*
X169694063Y-73245063D01*
X169561291Y-73406846D01*
X169462629Y-73591428D01*
X169401872Y-73791715D01*
X169381359Y-74000000D01*
X169401872Y-74208284D01*
X169420160Y-74268571D01*
X169462628Y-74408569D01*
X169550600Y-74573153D01*
X169561291Y-74593153D01*
X169694062Y-74754934D01*
X169696396Y-74756850D01*
X169697290Y-74758163D01*
X169698371Y-74759244D01*
X169698166Y-74759448D01*
X169735729Y-74814597D01*
X169737598Y-74884442D01*
X169701410Y-74944209D01*
X169638653Y-74974924D01*
X169617659Y-74976702D01*
X151967987Y-74966725D01*
X151900959Y-74947003D01*
X151855234Y-74894173D01*
X151845329Y-74825009D01*
X151874390Y-74761469D01*
X151889394Y-74746870D01*
X151889879Y-74746472D01*
X151903936Y-74734936D01*
X152036711Y-74573150D01*
X152135372Y-74388569D01*
X152196127Y-74188286D01*
X152216641Y-73980000D01*
X152196127Y-73771714D01*
X152135372Y-73571431D01*
X152036711Y-73386850D01*
X152003884Y-73346850D01*
X151903936Y-73225063D01*
X151742153Y-73092291D01*
X151742151Y-73092290D01*
X151742150Y-73092289D01*
X151557569Y-72993628D01*
X151425710Y-72953629D01*
X151357284Y-72932872D01*
X151149000Y-72912359D01*
X150940715Y-72932872D01*
X150740428Y-72993629D01*
X150555846Y-73092291D01*
X150394063Y-73225063D01*
X150261291Y-73386846D01*
X150162629Y-73571428D01*
X150101872Y-73771715D01*
X150081359Y-73979999D01*
X150101872Y-74188284D01*
X150126227Y-74268571D01*
X150162628Y-74388569D01*
X150253311Y-74558225D01*
X150261291Y-74573153D01*
X150392349Y-74732846D01*
X150394064Y-74734936D01*
X150400746Y-74740420D01*
X150407477Y-74745944D01*
X150446812Y-74803690D01*
X150448683Y-74873534D01*
X150412496Y-74933303D01*
X150349740Y-74964019D01*
X150328743Y-74965798D01*
X147120327Y-74963984D01*
X147053299Y-74944262D01*
X147007574Y-74891432D01*
X146997669Y-74822268D01*
X147026730Y-74758728D01*
X147041734Y-74744129D01*
X147042866Y-74743200D01*
X147052936Y-74734936D01*
X147185711Y-74573150D01*
X147284372Y-74388569D01*
X147345127Y-74188286D01*
X147365641Y-73980000D01*
X147345127Y-73771714D01*
X147284372Y-73571431D01*
X147185711Y-73386850D01*
X147152884Y-73346850D01*
X147052936Y-73225063D01*
X146891153Y-73092291D01*
X146891151Y-73092290D01*
X146891150Y-73092289D01*
X146706569Y-72993628D01*
X146574710Y-72953629D01*
X146506284Y-72932872D01*
X146298000Y-72912359D01*
X146089715Y-72932872D01*
X145889428Y-72993629D01*
X145704846Y-73092291D01*
X145543063Y-73225063D01*
X145410291Y-73386846D01*
X145311629Y-73571428D01*
X145250872Y-73771715D01*
X145230359Y-73979999D01*
X145250872Y-74188284D01*
X145275227Y-74268571D01*
X145311628Y-74388569D01*
X145402311Y-74558225D01*
X145410291Y-74573153D01*
X145543063Y-74734936D01*
X145553133Y-74743200D01*
X145592467Y-74800946D01*
X145594338Y-74870790D01*
X145558150Y-74930558D01*
X145495395Y-74961274D01*
X145474398Y-74963053D01*
X127689491Y-74953000D01*
X127622463Y-74933278D01*
X127576738Y-74880448D01*
X127566833Y-74811284D01*
X127595894Y-74747744D01*
X127610896Y-74733147D01*
X127611847Y-74732367D01*
X127754936Y-74614936D01*
X127887711Y-74453150D01*
X127986372Y-74268569D01*
X128047127Y-74068286D01*
X128067641Y-73860000D01*
X128047127Y-73651714D01*
X127986372Y-73451431D01*
X127887711Y-73266850D01*
X127853418Y-73225064D01*
X127754936Y-73105063D01*
X127593153Y-72972291D01*
X127593151Y-72972290D01*
X127593150Y-72972289D01*
X127408569Y-72873628D01*
X127308427Y-72843250D01*
X127208284Y-72812872D01*
X127000000Y-72792359D01*
X126791715Y-72812872D01*
X126659851Y-72852873D01*
X126595615Y-72872359D01*
X126591428Y-72873629D01*
X126406846Y-72972291D01*
X126245063Y-73105063D01*
X126112291Y-73266846D01*
X126013629Y-73451428D01*
X125952872Y-73651715D01*
X125932359Y-73859999D01*
X125952872Y-74068284D01*
X125952873Y-74068286D01*
X126013628Y-74268569D01*
X126064710Y-74364137D01*
X126112291Y-74453153D01*
X126245063Y-74614936D01*
X126388153Y-74732367D01*
X126427487Y-74790113D01*
X126429358Y-74859957D01*
X126393170Y-74919726D01*
X126330414Y-74950441D01*
X126309418Y-74952220D01*
X122841830Y-74950260D01*
X122774802Y-74930538D01*
X122729077Y-74877708D01*
X122719172Y-74808544D01*
X122748233Y-74745004D01*
X122763235Y-74730407D01*
X122903936Y-74614936D01*
X122921815Y-74593150D01*
X123036711Y-74453150D01*
X123135372Y-74268569D01*
X123196127Y-74068286D01*
X123216641Y-73860000D01*
X123196127Y-73651714D01*
X123135372Y-73451431D01*
X123036711Y-73266850D01*
X123002418Y-73225064D01*
X122903936Y-73105063D01*
X122742153Y-72972291D01*
X122742151Y-72972290D01*
X122742150Y-72972289D01*
X122557569Y-72873628D01*
X122457427Y-72843250D01*
X122357284Y-72812872D01*
X122149000Y-72792359D01*
X121940715Y-72812872D01*
X121808851Y-72852873D01*
X121744615Y-72872359D01*
X121740428Y-72873629D01*
X121555846Y-72972291D01*
X121394063Y-73105063D01*
X121261291Y-73266846D01*
X121162629Y-73451428D01*
X121101872Y-73651715D01*
X121081359Y-73859999D01*
X121101872Y-74068284D01*
X121101873Y-74068286D01*
X121162628Y-74268569D01*
X121213710Y-74364137D01*
X121261291Y-74453153D01*
X121394063Y-74614936D01*
X121533809Y-74729623D01*
X121573143Y-74787369D01*
X121575014Y-74857213D01*
X121538826Y-74916982D01*
X121476070Y-74947697D01*
X121455074Y-74949476D01*
X103579207Y-74939371D01*
X103512179Y-74919649D01*
X103466454Y-74866819D01*
X103456549Y-74797655D01*
X103485610Y-74734115D01*
X103500606Y-74719523D01*
X103554936Y-74674936D01*
X103571351Y-74654935D01*
X103604177Y-74614936D01*
X103687711Y-74513150D01*
X103786372Y-74328569D01*
X103847127Y-74128286D01*
X103867641Y-73920000D01*
X103847127Y-73711714D01*
X103786372Y-73511431D01*
X103687711Y-73326850D01*
X103675959Y-73312530D01*
X103554936Y-73165063D01*
X103393153Y-73032291D01*
X103393151Y-73032290D01*
X103393150Y-73032289D01*
X103208569Y-72933628D01*
X103108427Y-72903250D01*
X103008284Y-72872872D01*
X102800000Y-72852359D01*
X102591715Y-72872872D01*
X102457362Y-72913628D01*
X102395615Y-72932359D01*
X102391428Y-72933629D01*
X102206846Y-73032291D01*
X102045063Y-73165063D01*
X101912291Y-73326846D01*
X101813629Y-73511428D01*
X101752872Y-73711715D01*
X101735103Y-73892139D01*
X101732359Y-73920000D01*
X101734329Y-73940000D01*
X101752872Y-74128284D01*
X101752873Y-74128286D01*
X101813628Y-74328569D01*
X101901600Y-74493153D01*
X101912291Y-74513153D01*
X102045063Y-74674936D01*
X102098312Y-74718636D01*
X102137646Y-74776381D01*
X102139517Y-74846226D01*
X102103330Y-74905994D01*
X102040574Y-74936710D01*
X102019577Y-74938489D01*
X98731546Y-74936631D01*
X98664518Y-74916909D01*
X98618793Y-74864079D01*
X98608888Y-74794915D01*
X98637949Y-74731375D01*
X98652947Y-74716781D01*
X98703936Y-74674936D01*
X98836711Y-74513150D01*
X98935372Y-74328569D01*
X98996127Y-74128286D01*
X99016641Y-73920000D01*
X98996127Y-73711714D01*
X98935372Y-73511431D01*
X98836711Y-73326850D01*
X98824959Y-73312530D01*
X98703936Y-73165063D01*
X98542153Y-73032291D01*
X98542151Y-73032290D01*
X98542150Y-73032289D01*
X98357569Y-72933628D01*
X98257427Y-72903250D01*
X98157284Y-72872872D01*
X97949000Y-72852359D01*
X97740715Y-72872872D01*
X97606362Y-72913628D01*
X97544615Y-72932359D01*
X97540428Y-72933629D01*
X97355846Y-73032291D01*
X97194063Y-73165063D01*
X97061291Y-73326846D01*
X96962629Y-73511428D01*
X96901872Y-73711715D01*
X96884103Y-73892139D01*
X96881359Y-73920000D01*
X96883329Y-73940000D01*
X96901872Y-74128284D01*
X96901873Y-74128286D01*
X96962628Y-74328569D01*
X97050600Y-74493153D01*
X97061291Y-74513153D01*
X97194063Y-74674936D01*
X97243968Y-74715892D01*
X97283302Y-74773638D01*
X97285173Y-74843482D01*
X97248985Y-74903251D01*
X97186229Y-74933966D01*
X97165233Y-74935745D01*
X79420218Y-74925714D01*
X79353190Y-74905992D01*
X79307465Y-74853162D01*
X79297560Y-74783998D01*
X79326621Y-74720458D01*
X79341617Y-74705866D01*
X79354936Y-74694936D01*
X79487711Y-74533150D01*
X79586372Y-74348569D01*
X79647127Y-74148286D01*
X79667641Y-73940000D01*
X79647127Y-73731714D01*
X79586372Y-73531431D01*
X79487711Y-73346850D01*
X79487708Y-73346846D01*
X79354936Y-73185063D01*
X79193153Y-73052291D01*
X79193151Y-73052290D01*
X79193150Y-73052289D01*
X79008569Y-72953628D01*
X78876710Y-72913629D01*
X78808284Y-72892872D01*
X78600000Y-72872359D01*
X78391715Y-72892872D01*
X78191428Y-72953629D01*
X78006846Y-73052291D01*
X77845063Y-73185063D01*
X77712291Y-73346846D01*
X77613629Y-73531428D01*
X77552872Y-73731715D01*
X77532359Y-73940000D01*
X77552872Y-74148284D01*
X77565006Y-74188284D01*
X77613628Y-74348569D01*
X77701600Y-74513153D01*
X77712291Y-74533153D01*
X77845062Y-74694934D01*
X77857246Y-74704934D01*
X77896579Y-74762681D01*
X77898448Y-74832525D01*
X77862260Y-74892293D01*
X77799503Y-74923008D01*
X77778509Y-74924786D01*
X74572558Y-74922973D01*
X74505530Y-74903251D01*
X74459805Y-74850421D01*
X74449900Y-74781257D01*
X74478961Y-74717717D01*
X74493964Y-74703119D01*
X74503936Y-74694936D01*
X74503939Y-74694933D01*
X74543741Y-74646434D01*
X74636711Y-74533150D01*
X74735372Y-74348569D01*
X74796127Y-74148286D01*
X74816641Y-73940000D01*
X74796127Y-73731714D01*
X74735372Y-73531431D01*
X74636711Y-73346850D01*
X74636708Y-73346846D01*
X74503936Y-73185063D01*
X74342153Y-73052291D01*
X74342151Y-73052290D01*
X74342150Y-73052289D01*
X74157569Y-72953628D01*
X74025710Y-72913629D01*
X73957284Y-72892872D01*
X73749000Y-72872359D01*
X73540715Y-72892872D01*
X73340428Y-72953629D01*
X73155846Y-73052291D01*
X72994063Y-73185063D01*
X72861291Y-73346846D01*
X72762629Y-73531428D01*
X72701872Y-73731715D01*
X72681359Y-73940000D01*
X72701872Y-74148284D01*
X72714006Y-74188284D01*
X72762628Y-74348569D01*
X72850600Y-74513153D01*
X72861291Y-74533153D01*
X72994063Y-74694936D01*
X73002901Y-74702189D01*
X73042235Y-74759935D01*
X73044106Y-74829780D01*
X73007918Y-74889548D01*
X72945162Y-74920264D01*
X72924166Y-74922042D01*
X55538928Y-74912215D01*
X55471900Y-74892493D01*
X55426175Y-74839663D01*
X55416270Y-74770499D01*
X55445331Y-74706959D01*
X55460333Y-74692362D01*
X55505936Y-74654936D01*
X55544596Y-74607829D01*
X55638711Y-74493150D01*
X55737372Y-74308569D01*
X55798127Y-74108286D01*
X55818641Y-73900000D01*
X55798127Y-73691714D01*
X55737372Y-73491431D01*
X55638711Y-73306850D01*
X55632210Y-73298928D01*
X55505936Y-73145063D01*
X55344153Y-73012291D01*
X55344151Y-73012290D01*
X55344150Y-73012289D01*
X55159569Y-72913628D01*
X55027710Y-72873629D01*
X54959284Y-72852872D01*
X54751000Y-72832359D01*
X54542715Y-72852872D01*
X54365334Y-72906680D01*
X54346615Y-72912359D01*
X54342428Y-72913629D01*
X54157846Y-73012291D01*
X53996063Y-73145063D01*
X53863291Y-73306846D01*
X53764629Y-73491428D01*
X53703872Y-73691715D01*
X53683359Y-73900000D01*
X53703872Y-74108284D01*
X53703873Y-74108286D01*
X53764628Y-74308569D01*
X53859059Y-74485237D01*
X53863291Y-74493153D01*
X53996063Y-74654936D01*
X54040579Y-74691469D01*
X54079913Y-74749214D01*
X54081784Y-74819059D01*
X54045597Y-74878827D01*
X53982841Y-74909543D01*
X53961844Y-74911322D01*
X50691267Y-74909474D01*
X50624239Y-74889752D01*
X50578514Y-74836922D01*
X50568609Y-74767758D01*
X50597670Y-74704218D01*
X50612669Y-74689623D01*
X50654936Y-74654936D01*
X50787711Y-74493150D01*
X50886372Y-74308569D01*
X50947127Y-74108286D01*
X50967641Y-73900000D01*
X50947127Y-73691714D01*
X50886372Y-73491431D01*
X50787711Y-73306850D01*
X50781210Y-73298928D01*
X50654936Y-73145063D01*
X50493153Y-73012291D01*
X50493151Y-73012290D01*
X50493150Y-73012289D01*
X50308569Y-72913628D01*
X50176710Y-72873629D01*
X50108284Y-72852872D01*
X49900000Y-72832359D01*
X49691715Y-72852872D01*
X49514334Y-72906680D01*
X49495615Y-72912359D01*
X49491428Y-72913629D01*
X49306846Y-73012291D01*
X49145063Y-73145063D01*
X49012291Y-73306846D01*
X48913629Y-73491428D01*
X48852872Y-73691715D01*
X48832359Y-73900000D01*
X48852872Y-74108284D01*
X48852873Y-74108286D01*
X48913628Y-74308569D01*
X49008059Y-74485237D01*
X49012291Y-74493153D01*
X49145063Y-74654936D01*
X49186236Y-74688726D01*
X49225570Y-74746472D01*
X49227441Y-74816317D01*
X49191253Y-74876085D01*
X49128497Y-74906801D01*
X49107501Y-74908579D01*
X31446356Y-74898595D01*
X31379328Y-74878873D01*
X31333603Y-74826043D01*
X31323698Y-74756879D01*
X31352759Y-74693339D01*
X31367762Y-74678741D01*
X31407126Y-74646436D01*
X31539901Y-74484650D01*
X31638562Y-74300069D01*
X31699317Y-74099786D01*
X31719831Y-73891500D01*
X31699317Y-73683214D01*
X31638562Y-73482931D01*
X31539901Y-73298350D01*
X31531500Y-73288113D01*
X31407126Y-73136563D01*
X31245343Y-73003791D01*
X31245341Y-73003790D01*
X31245340Y-73003789D01*
X31060759Y-72905128D01*
X30952734Y-72872359D01*
X30860474Y-72844372D01*
X30652190Y-72823859D01*
X30443905Y-72844372D01*
X30243618Y-72905129D01*
X30059036Y-73003791D01*
X29897253Y-73136563D01*
X29764481Y-73298346D01*
X29665819Y-73482928D01*
X29665818Y-73482930D01*
X29665818Y-73482931D01*
X29663240Y-73491431D01*
X29605062Y-73683215D01*
X29584549Y-73891500D01*
X29605062Y-74099784D01*
X29619775Y-74148286D01*
X29665818Y-74300069D01*
X29763835Y-74483446D01*
X29764481Y-74484653D01*
X29897253Y-74646436D01*
X29935523Y-74677843D01*
X29974857Y-74735588D01*
X29976728Y-74805433D01*
X29940541Y-74865201D01*
X29877785Y-74895917D01*
X29856788Y-74897696D01*
X26598695Y-74895854D01*
X26531667Y-74876132D01*
X26485942Y-74823302D01*
X26476037Y-74754138D01*
X26505098Y-74690598D01*
X26520093Y-74676007D01*
X26556126Y-74646436D01*
X26688901Y-74484650D01*
X26787562Y-74300069D01*
X26848317Y-74099786D01*
X26868831Y-73891500D01*
X26848317Y-73683214D01*
X26787562Y-73482931D01*
X26688901Y-73298350D01*
X26680500Y-73288113D01*
X26556126Y-73136563D01*
X26394343Y-73003791D01*
X26394341Y-73003790D01*
X26394340Y-73003789D01*
X26209759Y-72905128D01*
X26101734Y-72872359D01*
X26009474Y-72844372D01*
X25801190Y-72823859D01*
X25592905Y-72844372D01*
X25392618Y-72905129D01*
X25208036Y-73003791D01*
X25046253Y-73136563D01*
X24913481Y-73298346D01*
X24814819Y-73482928D01*
X24814818Y-73482930D01*
X24814818Y-73482931D01*
X24812240Y-73491431D01*
X24754062Y-73683215D01*
X24733549Y-73891500D01*
X24754062Y-74099784D01*
X24768775Y-74148286D01*
X24814818Y-74300069D01*
X24912835Y-74483446D01*
X24913481Y-74484653D01*
X25046253Y-74646436D01*
X25081180Y-74675100D01*
X25120514Y-74732846D01*
X25122385Y-74802691D01*
X25086197Y-74862459D01*
X25023441Y-74893175D01*
X25002445Y-74894953D01*
X24324243Y-74894569D01*
X24259212Y-74901533D01*
X24259208Y-74901534D01*
X24207650Y-74912735D01*
X24207642Y-74912737D01*
X24207633Y-74912739D01*
X24207631Y-74912740D01*
X24199782Y-74914990D01*
X24169340Y-74923716D01*
X24169338Y-74923717D01*
X24072436Y-74980390D01*
X24072428Y-74980395D01*
X24019623Y-75026151D01*
X24019612Y-75026161D01*
X23977451Y-75070877D01*
X23977445Y-75070886D01*
X23926560Y-75170960D01*
X23906877Y-75237991D01*
X23906875Y-75237998D01*
X23906876Y-75237998D01*
X23896638Y-75309205D01*
X23894500Y-75324072D01*
X23894500Y-77548542D01*
X23900184Y-77607191D01*
X23909328Y-77653931D01*
X23917501Y-77686241D01*
X23917505Y-77686251D01*
X23970065Y-77785458D01*
X24013549Y-77840119D01*
X24013561Y-77840134D01*
X24056483Y-77884152D01*
X24086042Y-77900780D01*
X24134820Y-77950805D01*
X24148809Y-78019260D01*
X24147984Y-78026498D01*
X24146690Y-78035500D01*
X24146690Y-85082000D01*
X24146691Y-85082009D01*
X24153671Y-85146935D01*
X24153673Y-85146947D01*
X24164878Y-85198453D01*
X24175834Y-85236654D01*
X24175836Y-85236658D01*
X24210050Y-85295159D01*
X24226903Y-85362966D01*
X24213544Y-85413962D01*
X24178750Y-85482390D01*
X24159067Y-85549421D01*
X24159065Y-85549428D01*
X24159066Y-85549428D01*
X24146690Y-85635500D01*
X24146690Y-92682000D01*
X24146691Y-92682009D01*
X24153671Y-92746935D01*
X24153673Y-92746947D01*
X24164878Y-92798453D01*
X24175834Y-92836654D01*
X24175836Y-92836658D01*
X24206572Y-92889213D01*
X24210050Y-92895159D01*
X24226903Y-92962966D01*
X24213544Y-93013962D01*
X24178750Y-93082390D01*
X24159067Y-93149421D01*
X24159065Y-93149428D01*
X24159066Y-93149428D01*
X24146690Y-93235500D01*
X24146690Y-100587500D01*
X24146691Y-100587509D01*
X24153671Y-100652435D01*
X24153673Y-100652447D01*
X24164878Y-100703953D01*
X24175834Y-100742154D01*
X24175836Y-100742158D01*
X24222854Y-100822553D01*
X24232515Y-100839071D01*
X24277215Y-100890658D01*
X24278271Y-100891876D01*
X24278281Y-100891887D01*
X24322997Y-100934048D01*
X24322999Y-100934049D01*
X24323003Y-100934053D01*
X24423079Y-100984939D01*
X24490118Y-101004624D01*
X24576190Y-101017000D01*
X29956813Y-101017000D01*
X30023852Y-101036685D01*
X30044494Y-101053319D01*
X30124928Y-101133753D01*
X30130401Y-101140013D01*
X30137658Y-101149533D01*
X30137659Y-101149534D01*
X30188053Y-101198034D01*
X30218786Y-101227611D01*
X30241346Y-101250171D01*
X30252853Y-101261678D01*
X30252863Y-101261687D01*
X30263683Y-101270964D01*
X30266321Y-101273360D01*
X30323020Y-101327927D01*
X30323028Y-101327934D01*
X30360133Y-101354033D01*
X30364816Y-101357674D01*
X30380622Y-101371226D01*
X30399257Y-101387204D01*
X30414127Y-101396434D01*
X30466142Y-101428721D01*
X30469074Y-101430660D01*
X30502930Y-101454474D01*
X30533454Y-101475945D01*
X30574104Y-101496072D01*
X30579292Y-101498958D01*
X30617840Y-101522886D01*
X30652044Y-101537439D01*
X30690269Y-101553703D01*
X30693475Y-101555177D01*
X30764016Y-101590104D01*
X30795903Y-101600195D01*
X30807272Y-101603793D01*
X30812837Y-101605852D01*
X30854575Y-101623611D01*
X30930870Y-101643013D01*
X30934230Y-101643971D01*
X31009298Y-101667728D01*
X31009305Y-101667729D01*
X31009306Y-101667730D01*
X31032983Y-101671386D01*
X31054138Y-101674653D01*
X31059941Y-101675837D01*
X31103909Y-101687019D01*
X31156893Y-101692109D01*
X31182245Y-101694545D01*
X31185780Y-101694987D01*
X31193606Y-101696195D01*
X31263554Y-101707000D01*
X31308915Y-101707000D01*
X31314847Y-101707284D01*
X31360001Y-101711622D01*
X31438581Y-101707101D01*
X31442121Y-101707000D01*
X42105416Y-101707000D01*
X42105417Y-101707000D01*
X42297707Y-101692237D01*
X42548211Y-101633617D01*
X42786831Y-101537444D01*
X43007973Y-101405974D01*
X43206455Y-101242287D01*
X43377625Y-101050220D01*
X43377626Y-101050218D01*
X43377631Y-101050212D01*
X43499010Y-100862779D01*
X43517469Y-100834275D01*
X43622711Y-100599514D01*
X43690883Y-100351439D01*
X43720388Y-100095865D01*
X43710534Y-99838782D01*
X43661551Y-99586217D01*
X43657421Y-99574717D01*
X43574592Y-99344095D01*
X43574591Y-99344094D01*
X43574589Y-99344088D01*
X43451686Y-99118072D01*
X43427674Y-99086572D01*
X43295724Y-98913470D01*
X43295721Y-98913466D01*
X43110352Y-98735066D01*
X43099911Y-98727722D01*
X42966512Y-98633891D01*
X42923004Y-98579222D01*
X42915959Y-98509708D01*
X42947614Y-98447421D01*
X42974489Y-98425880D01*
X42976281Y-98424815D01*
X43007973Y-98405974D01*
X43206455Y-98242287D01*
X43377625Y-98050220D01*
X43377626Y-98050218D01*
X43377631Y-98050212D01*
X43499010Y-97862779D01*
X43517469Y-97834275D01*
X43622711Y-97599514D01*
X43690883Y-97351439D01*
X43720388Y-97095865D01*
X43710534Y-96838782D01*
X43661551Y-96586217D01*
X43657421Y-96574717D01*
X43574592Y-96344095D01*
X43574591Y-96344094D01*
X43574589Y-96344088D01*
X43451686Y-96118072D01*
X43427674Y-96086572D01*
X43295724Y-95913470D01*
X43295721Y-95913466D01*
X43110352Y-95735066D01*
X43110342Y-95735058D01*
X42967876Y-95634850D01*
X42924367Y-95580181D01*
X42917322Y-95510667D01*
X42948977Y-95448380D01*
X42964039Y-95434814D01*
X42977431Y-95424605D01*
X42983321Y-95420629D01*
X43007973Y-95405974D01*
X43081574Y-95345274D01*
X43083354Y-95343862D01*
X43159224Y-95286031D01*
X43179108Y-95265369D01*
X43184342Y-95260522D01*
X43206455Y-95242287D01*
X43269919Y-95171073D01*
X43271494Y-95169373D01*
X43337624Y-95100662D01*
X43354120Y-95077208D01*
X43358545Y-95071628D01*
X43377625Y-95050220D01*
X43429484Y-94970138D01*
X43430757Y-94968252D01*
X43485637Y-94890232D01*
X43498363Y-94864527D01*
X43501875Y-94858353D01*
X43517469Y-94834275D01*
X43556484Y-94747240D01*
X43557472Y-94745147D01*
X43599794Y-94659674D01*
X43608447Y-94632328D01*
X43610979Y-94625682D01*
X43622711Y-94599514D01*
X43647981Y-94507554D01*
X43648651Y-94505288D01*
X43677418Y-94414392D01*
X43681795Y-94386047D01*
X43683284Y-94379088D01*
X43690883Y-94351439D01*
X43701822Y-94256674D01*
X43702130Y-94254397D01*
X43716690Y-94160136D01*
X43716690Y-94131468D01*
X43717099Y-94124352D01*
X43717605Y-94119968D01*
X43720388Y-94095865D01*
X43716734Y-94000545D01*
X43716690Y-93998251D01*
X43716690Y-91939545D01*
X43717247Y-91931247D01*
X43717282Y-91930986D01*
X43718847Y-91919388D01*
X43716690Y-91806800D01*
X43716690Y-91758643D01*
X43715595Y-91744394D01*
X43715426Y-91740862D01*
X43713919Y-91662164D01*
X43706136Y-91617469D01*
X43705400Y-91611591D01*
X43701927Y-91566353D01*
X43683988Y-91489697D01*
X43683281Y-91486228D01*
X43682886Y-91483959D01*
X43669783Y-91408707D01*
X43669780Y-91408697D01*
X43655272Y-91365732D01*
X43653646Y-91360032D01*
X43643307Y-91315849D01*
X43613875Y-91242823D01*
X43612660Y-91239539D01*
X43587475Y-91164956D01*
X43566564Y-91124683D01*
X43564094Y-91119311D01*
X43547134Y-91077229D01*
X43547133Y-91077227D01*
X43547131Y-91077223D01*
X43506916Y-91009580D01*
X43505191Y-91006480D01*
X43468923Y-90936627D01*
X43460105Y-90924587D01*
X43442118Y-90900028D01*
X43438843Y-90895075D01*
X43425647Y-90872879D01*
X43415664Y-90856087D01*
X43365579Y-90795355D01*
X43363421Y-90792581D01*
X43316907Y-90729072D01*
X43284835Y-90697000D01*
X43280841Y-90692604D01*
X43251977Y-90657605D01*
X43239073Y-90646105D01*
X43193214Y-90605236D01*
X43190630Y-90602795D01*
X32997078Y-80409243D01*
X32991604Y-80402981D01*
X32989710Y-80400497D01*
X32984351Y-80393466D01*
X32970918Y-80380538D01*
X32903217Y-80315382D01*
X32869162Y-80281327D01*
X32869161Y-80281326D01*
X32869156Y-80281321D01*
X32862663Y-80275755D01*
X32858308Y-80272021D01*
X32855688Y-80269640D01*
X32798979Y-80215063D01*
X32761870Y-80188961D01*
X32757189Y-80185322D01*
X32722753Y-80155797D01*
X32722752Y-80155796D01*
X32722751Y-80155795D01*
X32655891Y-80114293D01*
X32652919Y-80112328D01*
X32647639Y-80108614D01*
X32588552Y-80067053D01*
X32588546Y-80067050D01*
X32588540Y-80067046D01*
X32547899Y-80046923D01*
X32542711Y-80044037D01*
X32530272Y-80036316D01*
X32504170Y-80020114D01*
X32460178Y-80001396D01*
X32431760Y-79989304D01*
X32428524Y-79987816D01*
X32357996Y-79952896D01*
X32344272Y-79948553D01*
X32286298Y-79909556D01*
X32258610Y-79845407D01*
X32257690Y-79830333D01*
X32257690Y-78129500D01*
X32277375Y-78062461D01*
X32330179Y-78016706D01*
X32381690Y-78005500D01*
X47772500Y-78005500D01*
X47839539Y-78025185D01*
X47885294Y-78077989D01*
X47896500Y-78129499D01*
X47896500Y-84950500D01*
X47896501Y-84950509D01*
X47903481Y-85015435D01*
X47903483Y-85015447D01*
X47914688Y-85066953D01*
X47925644Y-85105154D01*
X47925646Y-85105158D01*
X47959860Y-85163659D01*
X47976713Y-85231466D01*
X47963354Y-85282462D01*
X47928560Y-85350890D01*
X47908877Y-85417921D01*
X47908875Y-85417928D01*
X47908876Y-85417928D01*
X47896500Y-85504000D01*
X47896500Y-92650500D01*
X47896501Y-92650509D01*
X47903481Y-92715435D01*
X47903483Y-92715447D01*
X47914688Y-92766953D01*
X47925644Y-92805154D01*
X47925646Y-92805158D01*
X47943161Y-92835107D01*
X47959860Y-92863659D01*
X47976713Y-92931466D01*
X47963354Y-92982462D01*
X47928560Y-93050890D01*
X47908877Y-93117921D01*
X47908875Y-93117928D01*
X47908876Y-93117928D01*
X47896500Y-93204000D01*
X47896500Y-100556000D01*
X47896501Y-100556009D01*
X47903481Y-100620935D01*
X47903483Y-100620947D01*
X47914688Y-100672453D01*
X47925644Y-100710654D01*
X47925646Y-100710658D01*
X47982323Y-100807568D01*
X47982325Y-100807571D01*
X48028081Y-100860376D01*
X48028091Y-100860387D01*
X48072807Y-100902548D01*
X48072809Y-100902549D01*
X48072813Y-100902553D01*
X48172889Y-100953439D01*
X48239928Y-100973124D01*
X48326000Y-100985500D01*
X54015624Y-100985500D01*
X54082663Y-101005185D01*
X54103305Y-101021819D01*
X54183744Y-101102258D01*
X54189207Y-101108507D01*
X54192385Y-101112677D01*
X54196469Y-101118035D01*
X54258813Y-101178034D01*
X54277621Y-101196135D01*
X54297621Y-101216135D01*
X54311657Y-101230171D01*
X54311665Y-101230178D01*
X54322495Y-101239463D01*
X54325122Y-101241850D01*
X54381838Y-101296434D01*
X54402244Y-101310787D01*
X54418943Y-101322533D01*
X54423623Y-101326171D01*
X54458066Y-101355703D01*
X54458068Y-101355704D01*
X54458069Y-101355705D01*
X54463283Y-101358941D01*
X54524958Y-101397225D01*
X54527892Y-101399166D01*
X54592267Y-101444447D01*
X54619934Y-101458145D01*
X54632662Y-101464447D01*
X54632917Y-101464573D01*
X54638109Y-101467461D01*
X54676641Y-101491380D01*
X54676645Y-101491382D01*
X54676650Y-101491385D01*
X54749088Y-101522206D01*
X54752281Y-101523674D01*
X54791091Y-101542891D01*
X54822815Y-101558599D01*
X54822821Y-101558602D01*
X54822823Y-101558602D01*
X54822826Y-101558604D01*
X54866095Y-101572297D01*
X54871625Y-101574343D01*
X54913384Y-101592111D01*
X54913396Y-101592114D01*
X54913399Y-101592115D01*
X54942497Y-101599514D01*
X54989651Y-101611505D01*
X54993065Y-101612479D01*
X55068108Y-101636228D01*
X55096420Y-101640601D01*
X55112945Y-101643154D01*
X55118760Y-101644339D01*
X55162719Y-101655518D01*
X55210305Y-101660089D01*
X55241043Y-101663043D01*
X55244578Y-101663484D01*
X55322364Y-101675500D01*
X55367727Y-101675500D01*
X55373659Y-101675784D01*
X55418811Y-101680122D01*
X55497391Y-101675601D01*
X55500931Y-101675500D01*
X65955226Y-101675500D01*
X65955227Y-101675500D01*
X66147517Y-101660737D01*
X66398021Y-101602117D01*
X66636641Y-101505944D01*
X66857783Y-101374474D01*
X67056265Y-101210787D01*
X67227435Y-101018720D01*
X67227436Y-101018718D01*
X67227441Y-101018712D01*
X67328421Y-100862779D01*
X67367279Y-100802775D01*
X67472521Y-100568014D01*
X67540693Y-100319939D01*
X67570198Y-100064365D01*
X67560344Y-99807282D01*
X67511361Y-99554717D01*
X67489050Y-99492595D01*
X67424402Y-99312595D01*
X67424401Y-99312594D01*
X67424399Y-99312588D01*
X67301496Y-99086572D01*
X67145531Y-98881966D01*
X66960162Y-98703566D01*
X66852335Y-98627722D01*
X66816322Y-98602391D01*
X66772814Y-98547722D01*
X66765769Y-98478208D01*
X66797424Y-98415921D01*
X66824299Y-98394380D01*
X66840389Y-98384815D01*
X66857783Y-98374474D01*
X67056265Y-98210787D01*
X67227435Y-98018720D01*
X67227436Y-98018718D01*
X67227441Y-98018712D01*
X67328421Y-97862779D01*
X67367279Y-97802775D01*
X67472521Y-97568014D01*
X67540693Y-97319939D01*
X67570198Y-97064365D01*
X67560344Y-96807282D01*
X67511361Y-96554717D01*
X67489050Y-96492595D01*
X67424402Y-96312595D01*
X67424401Y-96312594D01*
X67424399Y-96312588D01*
X67301496Y-96086572D01*
X67262962Y-96036021D01*
X67169546Y-95913470D01*
X67145531Y-95881966D01*
X66960162Y-95703566D01*
X66960152Y-95703558D01*
X66817686Y-95603350D01*
X66774177Y-95548681D01*
X66767132Y-95479167D01*
X66798787Y-95416880D01*
X66813849Y-95403314D01*
X66827241Y-95393105D01*
X66833131Y-95389129D01*
X66857783Y-95374474D01*
X66931384Y-95313774D01*
X66933164Y-95312362D01*
X67009034Y-95254531D01*
X67028918Y-95233869D01*
X67034152Y-95229022D01*
X67041708Y-95222791D01*
X67056265Y-95210787D01*
X67119729Y-95139573D01*
X67121304Y-95137873D01*
X67187434Y-95069162D01*
X67203930Y-95045708D01*
X67208355Y-95040128D01*
X67227435Y-95018720D01*
X67279294Y-94938638D01*
X67280567Y-94936752D01*
X67335447Y-94858732D01*
X67348173Y-94833027D01*
X67351685Y-94826853D01*
X67367279Y-94802775D01*
X67406294Y-94715740D01*
X67407282Y-94713647D01*
X67449604Y-94628174D01*
X67458257Y-94600828D01*
X67460789Y-94594182D01*
X67472521Y-94568014D01*
X67497791Y-94476054D01*
X67498461Y-94473788D01*
X67499750Y-94469715D01*
X67527228Y-94382892D01*
X67531605Y-94354547D01*
X67533094Y-94347588D01*
X67535196Y-94339939D01*
X67540693Y-94319939D01*
X67551632Y-94225174D01*
X67551940Y-94222897D01*
X67566500Y-94128636D01*
X67566500Y-94099968D01*
X67566909Y-94092852D01*
X67567889Y-94084364D01*
X67570198Y-94064365D01*
X67566544Y-93969047D01*
X67566500Y-93966700D01*
X67566500Y-91699045D01*
X67567057Y-91690747D01*
X67567543Y-91687143D01*
X67568657Y-91678888D01*
X67566500Y-91566300D01*
X67566500Y-91518143D01*
X67565405Y-91503894D01*
X67565236Y-91500362D01*
X67563729Y-91421664D01*
X67555946Y-91376969D01*
X67555210Y-91371091D01*
X67551737Y-91325853D01*
X67533798Y-91249197D01*
X67533091Y-91245728D01*
X67532416Y-91241849D01*
X67519593Y-91168207D01*
X67519590Y-91168197D01*
X67505082Y-91125232D01*
X67503456Y-91119532D01*
X67493117Y-91075349D01*
X67463688Y-91002333D01*
X67462463Y-90999023D01*
X67437285Y-90924457D01*
X67416383Y-90884201D01*
X67413904Y-90878810D01*
X67413405Y-90877572D01*
X67396944Y-90836729D01*
X67396940Y-90836723D01*
X67396938Y-90836717D01*
X67360105Y-90774763D01*
X67356716Y-90769062D01*
X67354997Y-90765973D01*
X67318733Y-90696128D01*
X67302621Y-90674130D01*
X67291927Y-90659528D01*
X67288651Y-90654574D01*
X67265474Y-90615587D01*
X67215396Y-90554864D01*
X67213210Y-90552052D01*
X67206479Y-90542862D01*
X67179631Y-90506204D01*
X67166719Y-90488574D01*
X67134645Y-90456500D01*
X67130651Y-90452104D01*
X67101787Y-90417105D01*
X67067634Y-90386668D01*
X67043024Y-90364736D01*
X67040440Y-90362295D01*
X57095888Y-80417743D01*
X57090414Y-80411481D01*
X57084602Y-80403857D01*
X57083161Y-80401966D01*
X57043563Y-80363857D01*
X57002027Y-80323882D01*
X56967972Y-80289827D01*
X56967971Y-80289826D01*
X56967966Y-80289821D01*
X56961009Y-80283857D01*
X56957118Y-80280521D01*
X56954498Y-80278140D01*
X56897789Y-80223563D01*
X56860680Y-80197461D01*
X56855999Y-80193822D01*
X56821563Y-80164297D01*
X56821562Y-80164296D01*
X56821561Y-80164295D01*
X56754701Y-80122793D01*
X56751729Y-80120828D01*
X56687362Y-80075553D01*
X56687356Y-80075550D01*
X56687350Y-80075546D01*
X56646709Y-80055423D01*
X56641521Y-80052537D01*
X56627827Y-80044037D01*
X56602980Y-80028614D01*
X56554271Y-80007889D01*
X56530570Y-79997804D01*
X56527334Y-79996316D01*
X56456807Y-79961397D01*
X56413554Y-79947708D01*
X56407986Y-79945648D01*
X56366243Y-79927888D01*
X56289960Y-79908487D01*
X56286536Y-79907511D01*
X56280769Y-79905686D01*
X56211522Y-79883772D01*
X56211519Y-79883771D01*
X56206891Y-79882689D01*
X56207189Y-79881412D01*
X56149309Y-79854235D01*
X56112160Y-79795060D01*
X56107500Y-79761387D01*
X56107500Y-78129500D01*
X56127185Y-78062461D01*
X56179989Y-78016706D01*
X56231500Y-78005500D01*
X69300061Y-78005500D01*
X69300193Y-78005500D01*
X71970238Y-77999817D01*
X72037317Y-78019359D01*
X72083184Y-78072066D01*
X72094500Y-78123816D01*
X72094500Y-85050500D01*
X72094501Y-85050509D01*
X72101481Y-85115435D01*
X72101483Y-85115447D01*
X72112688Y-85166953D01*
X72123644Y-85205154D01*
X72123646Y-85205158D01*
X72141161Y-85235107D01*
X72157860Y-85263659D01*
X72174713Y-85331466D01*
X72161354Y-85382462D01*
X72126560Y-85450890D01*
X72106877Y-85517921D01*
X72106875Y-85517928D01*
X72106876Y-85517928D01*
X72094500Y-85604000D01*
X72094500Y-92750500D01*
X72094501Y-92750509D01*
X72101481Y-92815435D01*
X72101483Y-92815447D01*
X72112688Y-92866953D01*
X72123644Y-92905154D01*
X72123646Y-92905158D01*
X72157860Y-92963659D01*
X72174713Y-93031466D01*
X72161354Y-93082462D01*
X72126560Y-93150890D01*
X72106877Y-93217921D01*
X72106875Y-93217928D01*
X72106876Y-93217928D01*
X72094500Y-93304000D01*
X72094500Y-100556000D01*
X72094501Y-100556009D01*
X72101481Y-100620935D01*
X72101483Y-100620947D01*
X72112688Y-100672453D01*
X72123644Y-100710654D01*
X72123646Y-100710658D01*
X72180323Y-100807568D01*
X72180325Y-100807571D01*
X72226081Y-100860376D01*
X72226091Y-100860387D01*
X72270807Y-100902548D01*
X72270809Y-100902549D01*
X72270813Y-100902553D01*
X72370889Y-100953439D01*
X72437928Y-100973124D01*
X72524000Y-100985500D01*
X77824623Y-100985500D01*
X77891662Y-101005185D01*
X77912304Y-101021819D01*
X78092738Y-101202253D01*
X78098211Y-101208513D01*
X78105468Y-101218033D01*
X78105469Y-101218034D01*
X78149718Y-101260620D01*
X78186596Y-101296111D01*
X78206596Y-101316111D01*
X78220663Y-101330178D01*
X78220673Y-101330187D01*
X78231493Y-101339464D01*
X78234131Y-101341860D01*
X78290830Y-101396427D01*
X78290834Y-101396430D01*
X78290838Y-101396434D01*
X78327947Y-101422536D01*
X78332614Y-101426164D01*
X78343740Y-101435703D01*
X78367064Y-101455702D01*
X78367067Y-101455703D01*
X78367066Y-101455703D01*
X78433952Y-101497221D01*
X78436884Y-101499160D01*
X78474707Y-101525764D01*
X78501264Y-101544445D01*
X78501267Y-101544446D01*
X78501268Y-101544447D01*
X78507355Y-101547461D01*
X78541914Y-101564572D01*
X78547102Y-101567458D01*
X78585650Y-101591386D01*
X78658098Y-101622211D01*
X78661291Y-101623679D01*
X78691423Y-101638599D01*
X78731813Y-101658598D01*
X78731817Y-101658599D01*
X78731826Y-101658604D01*
X78775076Y-101672291D01*
X78780639Y-101674349D01*
X78798896Y-101682117D01*
X78821991Y-101691944D01*
X78822384Y-101692111D01*
X78822386Y-101692111D01*
X78822393Y-101692114D01*
X78867925Y-101703692D01*
X78898651Y-101711505D01*
X78902065Y-101712479D01*
X78977108Y-101736228D01*
X79005420Y-101740601D01*
X79021945Y-101743154D01*
X79027760Y-101744339D01*
X79071719Y-101755518D01*
X79119305Y-101760089D01*
X79150043Y-101763043D01*
X79153578Y-101763484D01*
X79231364Y-101775500D01*
X79276727Y-101775500D01*
X79282659Y-101775784D01*
X79327811Y-101780122D01*
X79406391Y-101775601D01*
X79409931Y-101775500D01*
X90153226Y-101775500D01*
X90153227Y-101775500D01*
X90345517Y-101760737D01*
X90596021Y-101702117D01*
X90834641Y-101605944D01*
X91055783Y-101474474D01*
X91254265Y-101310787D01*
X91425435Y-101118720D01*
X91425436Y-101118718D01*
X91425441Y-101118712D01*
X91545023Y-100934054D01*
X91565279Y-100902775D01*
X91670521Y-100668014D01*
X91738693Y-100419939D01*
X91768198Y-100164365D01*
X91758344Y-99907282D01*
X91709361Y-99654717D01*
X91702178Y-99634717D01*
X91622402Y-99412595D01*
X91622401Y-99412594D01*
X91622399Y-99412588D01*
X91499496Y-99186572D01*
X91343531Y-98981966D01*
X91158162Y-98803566D01*
X91060776Y-98735066D01*
X91014322Y-98702391D01*
X90970814Y-98647722D01*
X90963769Y-98578208D01*
X90995424Y-98515921D01*
X91022299Y-98494380D01*
X91038389Y-98484815D01*
X91055783Y-98474474D01*
X91254265Y-98310787D01*
X91425435Y-98118720D01*
X91425436Y-98118718D01*
X91425441Y-98118712D01*
X91518664Y-97974756D01*
X91565279Y-97902775D01*
X91670521Y-97668014D01*
X91738693Y-97419939D01*
X91768198Y-97164365D01*
X91758344Y-96907282D01*
X91709361Y-96654717D01*
X91702178Y-96634717D01*
X91622402Y-96412595D01*
X91622401Y-96412594D01*
X91622399Y-96412588D01*
X91499496Y-96186572D01*
X91491481Y-96176058D01*
X91404513Y-96061966D01*
X91343531Y-95981966D01*
X91158162Y-95803566D01*
X91158152Y-95803558D01*
X91015686Y-95703350D01*
X90972177Y-95648681D01*
X90965132Y-95579167D01*
X90996787Y-95516880D01*
X91011849Y-95503314D01*
X91025241Y-95493105D01*
X91031131Y-95489129D01*
X91055783Y-95474474D01*
X91129384Y-95413774D01*
X91131164Y-95412362D01*
X91207034Y-95354531D01*
X91226918Y-95333869D01*
X91232152Y-95329022D01*
X91238379Y-95323887D01*
X91254265Y-95310787D01*
X91317729Y-95239573D01*
X91319304Y-95237873D01*
X91385434Y-95169162D01*
X91401930Y-95145708D01*
X91406355Y-95140128D01*
X91409472Y-95136631D01*
X91425435Y-95118720D01*
X91477294Y-95038638D01*
X91478567Y-95036752D01*
X91533447Y-94958732D01*
X91546173Y-94933027D01*
X91549685Y-94926853D01*
X91565279Y-94902775D01*
X91604294Y-94815740D01*
X91605282Y-94813647D01*
X91647604Y-94728174D01*
X91656257Y-94700828D01*
X91658789Y-94694182D01*
X91670521Y-94668014D01*
X91695791Y-94576054D01*
X91696461Y-94573788D01*
X91725228Y-94482892D01*
X91729605Y-94454547D01*
X91731094Y-94447588D01*
X91738693Y-94419939D01*
X91749632Y-94325174D01*
X91749940Y-94322897D01*
X91764500Y-94228636D01*
X91764500Y-94199968D01*
X91764909Y-94192852D01*
X91768198Y-94164365D01*
X91764544Y-94069045D01*
X91764500Y-94066751D01*
X91764500Y-92088044D01*
X91765057Y-92079747D01*
X91765612Y-92075633D01*
X91766657Y-92067888D01*
X91764500Y-91955300D01*
X91764500Y-91907143D01*
X91763405Y-91892894D01*
X91763236Y-91889362D01*
X91761729Y-91810665D01*
X91753944Y-91765964D01*
X91753208Y-91760079D01*
X91753097Y-91758639D01*
X91749737Y-91714853D01*
X91731801Y-91638207D01*
X91731095Y-91634744D01*
X91717594Y-91557207D01*
X91703080Y-91514228D01*
X91701452Y-91508519D01*
X91699884Y-91501819D01*
X91691117Y-91464349D01*
X91661689Y-91391336D01*
X91660469Y-91388038D01*
X91635286Y-91313457D01*
X91614376Y-91273186D01*
X91611902Y-91267806D01*
X91594944Y-91225729D01*
X91566707Y-91178231D01*
X91554731Y-91158086D01*
X91552999Y-91154973D01*
X91516740Y-91085138D01*
X91516738Y-91085135D01*
X91516736Y-91085133D01*
X91516734Y-91085128D01*
X91489918Y-91048515D01*
X91486659Y-91043586D01*
X91469740Y-91015127D01*
X91463476Y-91004589D01*
X91449005Y-90987042D01*
X91413390Y-90943857D01*
X91411232Y-90941082D01*
X91381164Y-90900028D01*
X91364719Y-90877574D01*
X91332645Y-90845500D01*
X91328651Y-90841104D01*
X91299787Y-90806105D01*
X91292027Y-90799189D01*
X91241024Y-90753736D01*
X91238440Y-90751295D01*
X80944888Y-80457743D01*
X80939414Y-80451481D01*
X80932159Y-80441964D01*
X80851027Y-80363882D01*
X80816972Y-80329827D01*
X80816971Y-80329826D01*
X80816966Y-80329821D01*
X80810009Y-80323857D01*
X80806118Y-80320521D01*
X80803498Y-80318140D01*
X80746789Y-80263563D01*
X80709680Y-80237461D01*
X80704999Y-80233822D01*
X80670563Y-80204297D01*
X80670562Y-80204296D01*
X80670561Y-80204295D01*
X80603701Y-80162793D01*
X80600729Y-80160828D01*
X80595942Y-80157461D01*
X80536362Y-80115553D01*
X80536356Y-80115550D01*
X80536350Y-80115546D01*
X80495709Y-80095423D01*
X80490521Y-80092537D01*
X80478826Y-80085278D01*
X80451980Y-80068614D01*
X80414195Y-80052537D01*
X80379570Y-80037804D01*
X80376334Y-80036316D01*
X80305806Y-80001396D01*
X80292082Y-79997053D01*
X80234108Y-79958056D01*
X80206420Y-79893907D01*
X80205500Y-79878833D01*
X80205500Y-78106032D01*
X80225185Y-78038993D01*
X80277989Y-77993238D01*
X80329232Y-77982032D01*
X96270237Y-77948116D01*
X96337317Y-77967658D01*
X96383185Y-78020365D01*
X96394500Y-78072116D01*
X96394500Y-84970500D01*
X96394501Y-84970509D01*
X96401481Y-85035435D01*
X96401483Y-85035447D01*
X96412688Y-85086953D01*
X96423644Y-85125154D01*
X96423646Y-85125158D01*
X96457860Y-85183659D01*
X96474713Y-85251466D01*
X96461354Y-85302462D01*
X96426560Y-85370890D01*
X96406877Y-85437921D01*
X96406875Y-85437928D01*
X96406876Y-85437928D01*
X96394500Y-85524000D01*
X96394500Y-92670500D01*
X96394501Y-92670509D01*
X96401481Y-92735435D01*
X96401483Y-92735447D01*
X96412688Y-92786953D01*
X96423644Y-92825154D01*
X96423646Y-92825158D01*
X96457860Y-92883659D01*
X96474713Y-92951466D01*
X96461354Y-93002462D01*
X96426560Y-93070890D01*
X96406877Y-93137921D01*
X96406875Y-93137928D01*
X96406876Y-93137928D01*
X96394500Y-93224000D01*
X96394500Y-100376000D01*
X96394924Y-100379940D01*
X96401481Y-100440935D01*
X96401483Y-100440947D01*
X96412688Y-100492453D01*
X96423644Y-100530654D01*
X96423646Y-100530658D01*
X96480323Y-100627568D01*
X96480325Y-100627571D01*
X96526081Y-100680376D01*
X96526091Y-100680387D01*
X96570807Y-100722548D01*
X96570809Y-100722549D01*
X96570813Y-100722553D01*
X96670889Y-100773439D01*
X96737928Y-100793124D01*
X96824000Y-100805500D01*
X101864623Y-100805500D01*
X101931662Y-100825185D01*
X101952304Y-100841819D01*
X102232745Y-101122259D01*
X102238207Y-101128507D01*
X102241385Y-101132677D01*
X102245469Y-101138035D01*
X102315263Y-101205204D01*
X102326621Y-101216135D01*
X102348519Y-101238033D01*
X102360657Y-101250171D01*
X102360665Y-101250178D01*
X102371495Y-101259463D01*
X102374122Y-101261850D01*
X102430838Y-101316434D01*
X102450391Y-101330187D01*
X102467943Y-101342533D01*
X102472623Y-101346171D01*
X102507066Y-101375703D01*
X102507068Y-101375704D01*
X102507069Y-101375705D01*
X102512283Y-101378941D01*
X102573958Y-101417225D01*
X102576892Y-101419166D01*
X102641267Y-101464447D01*
X102681917Y-101484573D01*
X102687109Y-101487461D01*
X102725641Y-101511380D01*
X102725645Y-101511382D01*
X102725650Y-101511385D01*
X102798088Y-101542206D01*
X102801281Y-101543674D01*
X102823092Y-101554474D01*
X102871815Y-101578599D01*
X102871821Y-101578602D01*
X102871823Y-101578602D01*
X102871826Y-101578604D01*
X102915095Y-101592297D01*
X102920625Y-101594343D01*
X102962384Y-101612111D01*
X102962396Y-101612114D01*
X102962399Y-101612115D01*
X102987909Y-101618602D01*
X103038651Y-101631505D01*
X103042065Y-101632479D01*
X103117108Y-101656228D01*
X103145420Y-101660601D01*
X103161945Y-101663154D01*
X103167760Y-101664339D01*
X103211719Y-101675518D01*
X103259305Y-101680089D01*
X103290043Y-101683043D01*
X103293578Y-101683484D01*
X103371364Y-101695500D01*
X103416727Y-101695500D01*
X103422659Y-101695784D01*
X103467811Y-101700122D01*
X103546391Y-101695601D01*
X103549931Y-101695500D01*
X114213226Y-101695500D01*
X114213227Y-101695500D01*
X114405517Y-101680737D01*
X114656021Y-101622117D01*
X114894641Y-101525944D01*
X115115783Y-101394474D01*
X115314265Y-101230787D01*
X115485435Y-101038720D01*
X115485436Y-101038718D01*
X115485441Y-101038712D01*
X115586421Y-100882779D01*
X115625279Y-100822775D01*
X115730521Y-100588014D01*
X115798693Y-100339939D01*
X115828198Y-100084365D01*
X115818344Y-99827282D01*
X115769361Y-99574717D01*
X115762178Y-99554717D01*
X115682402Y-99332595D01*
X115682401Y-99332594D01*
X115682399Y-99332588D01*
X115559496Y-99106572D01*
X115403531Y-98901966D01*
X115218162Y-98723566D01*
X115188058Y-98702391D01*
X115074322Y-98622391D01*
X115030814Y-98567722D01*
X115023769Y-98498208D01*
X115055424Y-98435921D01*
X115082299Y-98414380D01*
X115089378Y-98410172D01*
X115115783Y-98394474D01*
X115314265Y-98230787D01*
X115485435Y-98038720D01*
X115485436Y-98038718D01*
X115485441Y-98038712D01*
X115586421Y-97882779D01*
X115625279Y-97822775D01*
X115730521Y-97588014D01*
X115798693Y-97339939D01*
X115828198Y-97084365D01*
X115818344Y-96827282D01*
X115769361Y-96574717D01*
X115762178Y-96554717D01*
X115682402Y-96332595D01*
X115682401Y-96332594D01*
X115682399Y-96332588D01*
X115559496Y-96106572D01*
X115403531Y-95901966D01*
X115218162Y-95723566D01*
X115218152Y-95723558D01*
X115075686Y-95623350D01*
X115032177Y-95568681D01*
X115025132Y-95499167D01*
X115056787Y-95436880D01*
X115071849Y-95423314D01*
X115085241Y-95413105D01*
X115091131Y-95409129D01*
X115115783Y-95394474D01*
X115189384Y-95333774D01*
X115191164Y-95332362D01*
X115267034Y-95274531D01*
X115286918Y-95253869D01*
X115292152Y-95249022D01*
X115300319Y-95242287D01*
X115314265Y-95230787D01*
X115377729Y-95159573D01*
X115379304Y-95157873D01*
X115445434Y-95089162D01*
X115461930Y-95065708D01*
X115466355Y-95060128D01*
X115468529Y-95057689D01*
X115485435Y-95038720D01*
X115537294Y-94958638D01*
X115538567Y-94956752D01*
X115593447Y-94878732D01*
X115606173Y-94853027D01*
X115609685Y-94846853D01*
X115625279Y-94822775D01*
X115664294Y-94735740D01*
X115665282Y-94733647D01*
X115707604Y-94648174D01*
X115716257Y-94620828D01*
X115718789Y-94614182D01*
X115730521Y-94588014D01*
X115755791Y-94496054D01*
X115756461Y-94493788D01*
X115785228Y-94402892D01*
X115789605Y-94374547D01*
X115791094Y-94367588D01*
X115798693Y-94339939D01*
X115809632Y-94245174D01*
X115809940Y-94242897D01*
X115824500Y-94148636D01*
X115824500Y-94119968D01*
X115824909Y-94112852D01*
X115825702Y-94105985D01*
X115828198Y-94084365D01*
X115825563Y-94015635D01*
X115824545Y-93989072D01*
X115824499Y-93986697D01*
X115824499Y-92957380D01*
X115824499Y-91928027D01*
X115825057Y-91919745D01*
X115826657Y-91907888D01*
X115824500Y-91795300D01*
X115824500Y-91747143D01*
X115823405Y-91732894D01*
X115823236Y-91729362D01*
X115821729Y-91650665D01*
X115813944Y-91605964D01*
X115813208Y-91600079D01*
X115812485Y-91590665D01*
X115809737Y-91554853D01*
X115791801Y-91478207D01*
X115791095Y-91474744D01*
X115789285Y-91464349D01*
X115777594Y-91397207D01*
X115763080Y-91354228D01*
X115761452Y-91348519D01*
X115751118Y-91304353D01*
X115751117Y-91304352D01*
X115751117Y-91304349D01*
X115721689Y-91231336D01*
X115720469Y-91228038D01*
X115695286Y-91153457D01*
X115674376Y-91113186D01*
X115671899Y-91107798D01*
X115654944Y-91065729D01*
X115621564Y-91009580D01*
X115614731Y-90998086D01*
X115612999Y-90994973D01*
X115576740Y-90925138D01*
X115576738Y-90925135D01*
X115576736Y-90925133D01*
X115576734Y-90925128D01*
X115549918Y-90888515D01*
X115546659Y-90883586D01*
X115533271Y-90861066D01*
X115523476Y-90844589D01*
X115502353Y-90818977D01*
X115473390Y-90783857D01*
X115471232Y-90781082D01*
X115441174Y-90740041D01*
X115424719Y-90717574D01*
X115392645Y-90685500D01*
X115388651Y-90681104D01*
X115359787Y-90646105D01*
X115345323Y-90633215D01*
X115301024Y-90593736D01*
X115298440Y-90591295D01*
X105144888Y-80437743D01*
X105139414Y-80431481D01*
X105137942Y-80429550D01*
X105132161Y-80421966D01*
X105124710Y-80414795D01*
X105051027Y-80343882D01*
X105016972Y-80309827D01*
X105016971Y-80309826D01*
X105016966Y-80309821D01*
X105011792Y-80305385D01*
X105006118Y-80300521D01*
X105003498Y-80298140D01*
X104946789Y-80243563D01*
X104909680Y-80217461D01*
X104904999Y-80213822D01*
X104870563Y-80184297D01*
X104870562Y-80184296D01*
X104870561Y-80184295D01*
X104803701Y-80142793D01*
X104800729Y-80140828D01*
X104798365Y-80139165D01*
X104736362Y-80095553D01*
X104736356Y-80095550D01*
X104736350Y-80095546D01*
X104695709Y-80075423D01*
X104690521Y-80072537D01*
X104681684Y-80067052D01*
X104651980Y-80048614D01*
X104617461Y-80033927D01*
X104579570Y-80017804D01*
X104576334Y-80016316D01*
X104505806Y-79981396D01*
X104492082Y-79977053D01*
X104434108Y-79938056D01*
X104406420Y-79873907D01*
X104405500Y-79858833D01*
X104405500Y-78965259D01*
X104405500Y-78054538D01*
X104425184Y-77987503D01*
X104477987Y-77941748D01*
X104529231Y-77930542D01*
X114634736Y-77909042D01*
X116300024Y-77905500D01*
X120470648Y-77910416D01*
X120537661Y-77930180D01*
X120583354Y-77983038D01*
X120594499Y-78034416D01*
X120594499Y-85010489D01*
X120594501Y-85010509D01*
X120601481Y-85075435D01*
X120601483Y-85075447D01*
X120612688Y-85126953D01*
X120623644Y-85165154D01*
X120623646Y-85165158D01*
X120657860Y-85223659D01*
X120674713Y-85291466D01*
X120661354Y-85342462D01*
X120626560Y-85410890D01*
X120606877Y-85477921D01*
X120606875Y-85477928D01*
X120606876Y-85477928D01*
X120594502Y-85563990D01*
X120594500Y-85564002D01*
X120594499Y-92610490D01*
X120594501Y-92610509D01*
X120601481Y-92675435D01*
X120601483Y-92675447D01*
X120612688Y-92726953D01*
X120623644Y-92765154D01*
X120623646Y-92765158D01*
X120657860Y-92823659D01*
X120674713Y-92891466D01*
X120661354Y-92942462D01*
X120626560Y-93010890D01*
X120606877Y-93077921D01*
X120606875Y-93077928D01*
X120606876Y-93077928D01*
X120594500Y-93164000D01*
X120594500Y-100416000D01*
X120594924Y-100419940D01*
X120601481Y-100480935D01*
X120601483Y-100480947D01*
X120612688Y-100532453D01*
X120623644Y-100570654D01*
X120623646Y-100570658D01*
X120680323Y-100667568D01*
X120680325Y-100667571D01*
X120726081Y-100720376D01*
X120726091Y-100720387D01*
X120770807Y-100762548D01*
X120770809Y-100762549D01*
X120770813Y-100762553D01*
X120870889Y-100813439D01*
X120937928Y-100833124D01*
X121024000Y-100845500D01*
X126164623Y-100845500D01*
X126231662Y-100865185D01*
X126252304Y-100881819D01*
X126532738Y-101162253D01*
X126538211Y-101168513D01*
X126545468Y-101178033D01*
X126545469Y-101178034D01*
X126587031Y-101218034D01*
X126626596Y-101256111D01*
X126660658Y-101290173D01*
X126669825Y-101298033D01*
X126671484Y-101299455D01*
X126674122Y-101301852D01*
X126704189Y-101330787D01*
X126730838Y-101356434D01*
X126730841Y-101356436D01*
X126730842Y-101356437D01*
X126767943Y-101382534D01*
X126772630Y-101386178D01*
X126787779Y-101399166D01*
X126807067Y-101415703D01*
X126873933Y-101457209D01*
X126876891Y-101459165D01*
X126941268Y-101504447D01*
X126978508Y-101522886D01*
X126981917Y-101524574D01*
X126987103Y-101527459D01*
X127025650Y-101551386D01*
X127042603Y-101558599D01*
X127098079Y-101582203D01*
X127101285Y-101583677D01*
X127171826Y-101618604D01*
X127203713Y-101628695D01*
X127215082Y-101632293D01*
X127220647Y-101634352D01*
X127262385Y-101652111D01*
X127338680Y-101671513D01*
X127342040Y-101672471D01*
X127417108Y-101696228D01*
X127417115Y-101696229D01*
X127417116Y-101696230D01*
X127442321Y-101700122D01*
X127461948Y-101703153D01*
X127467751Y-101704337D01*
X127511719Y-101715519D01*
X127562996Y-101720445D01*
X127590061Y-101723046D01*
X127593596Y-101723488D01*
X127594367Y-101723607D01*
X127671364Y-101735500D01*
X127716715Y-101735500D01*
X127722647Y-101735784D01*
X127726155Y-101736120D01*
X127767811Y-101740123D01*
X127846404Y-101735601D01*
X127849943Y-101735500D01*
X138413226Y-101735500D01*
X138413227Y-101735500D01*
X138605517Y-101720737D01*
X138856021Y-101662117D01*
X139094641Y-101565944D01*
X139315783Y-101434474D01*
X139514265Y-101270787D01*
X139685435Y-101078720D01*
X139685436Y-101078718D01*
X139685441Y-101078712D01*
X139786421Y-100922779D01*
X139825279Y-100862775D01*
X139930521Y-100628014D01*
X139998693Y-100379939D01*
X140028198Y-100124365D01*
X140018344Y-99867282D01*
X139969361Y-99614717D01*
X139969360Y-99614713D01*
X139882402Y-99372595D01*
X139882401Y-99372594D01*
X139882399Y-99372588D01*
X139759496Y-99146572D01*
X139603531Y-98941966D01*
X139418162Y-98763566D01*
X139377644Y-98735066D01*
X139274322Y-98662391D01*
X139230814Y-98607722D01*
X139223769Y-98538208D01*
X139255424Y-98475921D01*
X139282299Y-98454380D01*
X139298939Y-98444488D01*
X139315783Y-98434474D01*
X139514265Y-98270787D01*
X139685435Y-98078720D01*
X139685436Y-98078718D01*
X139685441Y-98078712D01*
X139786421Y-97922779D01*
X139825279Y-97862775D01*
X139930521Y-97628014D01*
X139998693Y-97379939D01*
X140028198Y-97124365D01*
X140018344Y-96867282D01*
X139969361Y-96614717D01*
X139969360Y-96614713D01*
X139882402Y-96372595D01*
X139882401Y-96372594D01*
X139882399Y-96372588D01*
X139759496Y-96146572D01*
X139603531Y-95941966D01*
X139418162Y-95763566D01*
X139418152Y-95763558D01*
X139275686Y-95663350D01*
X139232177Y-95608681D01*
X139225132Y-95539167D01*
X139256787Y-95476880D01*
X139271849Y-95463314D01*
X139285241Y-95453105D01*
X139291131Y-95449129D01*
X139315783Y-95434474D01*
X139389384Y-95373774D01*
X139391164Y-95372362D01*
X139467034Y-95314531D01*
X139486918Y-95293869D01*
X139492152Y-95289022D01*
X139502610Y-95280398D01*
X139514265Y-95270787D01*
X139577729Y-95199573D01*
X139579304Y-95197873D01*
X139645434Y-95129162D01*
X139661930Y-95105708D01*
X139666355Y-95100128D01*
X139667611Y-95098719D01*
X139685435Y-95078720D01*
X139737294Y-94998638D01*
X139738567Y-94996752D01*
X139793447Y-94918732D01*
X139806173Y-94893027D01*
X139809685Y-94886853D01*
X139825279Y-94862775D01*
X139864294Y-94775740D01*
X139865282Y-94773647D01*
X139907604Y-94688174D01*
X139916257Y-94660828D01*
X139918789Y-94654182D01*
X139930521Y-94628014D01*
X139955791Y-94536054D01*
X139956461Y-94533788D01*
X139957335Y-94531027D01*
X139985228Y-94442892D01*
X139989605Y-94414547D01*
X139991094Y-94407588D01*
X139992070Y-94404037D01*
X139998693Y-94379939D01*
X140009632Y-94285174D01*
X140009940Y-94282897D01*
X140024500Y-94188636D01*
X140024500Y-94159968D01*
X140024909Y-94152852D01*
X140025396Y-94148636D01*
X140028198Y-94124365D01*
X140024544Y-94029047D01*
X140024500Y-94026700D01*
X140024500Y-91868045D01*
X140025057Y-91859747D01*
X140025334Y-91857695D01*
X140026657Y-91847888D01*
X140024500Y-91735300D01*
X140024500Y-91687143D01*
X140023405Y-91672894D01*
X140023236Y-91669362D01*
X140021729Y-91590665D01*
X140013944Y-91545964D01*
X140013208Y-91540079D01*
X140012989Y-91537232D01*
X140009737Y-91494853D01*
X139991801Y-91418207D01*
X139991095Y-91414744D01*
X139990044Y-91408707D01*
X139977594Y-91337207D01*
X139963080Y-91294228D01*
X139961452Y-91288519D01*
X139960824Y-91285837D01*
X139951117Y-91244349D01*
X139921689Y-91171336D01*
X139920469Y-91168038D01*
X139895286Y-91093457D01*
X139874376Y-91053186D01*
X139871902Y-91047806D01*
X139854944Y-91005729D01*
X139824405Y-90954359D01*
X139814731Y-90938086D01*
X139812999Y-90934973D01*
X139776740Y-90865138D01*
X139776738Y-90865135D01*
X139776736Y-90865133D01*
X139776734Y-90865128D01*
X139749918Y-90828515D01*
X139746659Y-90823586D01*
X139736418Y-90806360D01*
X139723476Y-90784589D01*
X139710266Y-90768572D01*
X139673390Y-90723857D01*
X139671232Y-90721082D01*
X139636844Y-90674130D01*
X139624719Y-90657574D01*
X139592645Y-90625500D01*
X139588651Y-90621104D01*
X139559787Y-90586105D01*
X139554271Y-90581189D01*
X139501024Y-90533736D01*
X139498440Y-90531295D01*
X129344888Y-80377743D01*
X129339414Y-80371481D01*
X129332159Y-80361964D01*
X129251027Y-80283882D01*
X129216972Y-80249827D01*
X129216971Y-80249826D01*
X129216966Y-80249821D01*
X129210520Y-80244295D01*
X129206118Y-80240521D01*
X129203498Y-80238140D01*
X129146789Y-80183563D01*
X129109680Y-80157461D01*
X129104999Y-80153822D01*
X129077882Y-80130572D01*
X129070562Y-80124296D01*
X129070561Y-80124295D01*
X129003701Y-80082793D01*
X129000729Y-80080828D01*
X128996430Y-80077804D01*
X128936362Y-80035553D01*
X128936356Y-80035550D01*
X128936350Y-80035546D01*
X128895709Y-80015423D01*
X128890521Y-80012537D01*
X128866785Y-79997804D01*
X128851980Y-79988614D01*
X128817461Y-79973927D01*
X128779570Y-79957804D01*
X128776334Y-79956316D01*
X128705806Y-79921396D01*
X128692082Y-79917053D01*
X128634108Y-79878056D01*
X128606420Y-79813907D01*
X128605500Y-79798833D01*
X128605500Y-78044156D01*
X128625185Y-77977117D01*
X128677989Y-77931362D01*
X128729644Y-77920156D01*
X144570647Y-77938837D01*
X144637662Y-77958601D01*
X144683355Y-78011459D01*
X144694500Y-78062837D01*
X144694500Y-85030500D01*
X144694501Y-85030509D01*
X144701481Y-85095435D01*
X144701483Y-85095447D01*
X144712688Y-85146953D01*
X144723644Y-85185154D01*
X144723646Y-85185158D01*
X144753765Y-85236658D01*
X144757860Y-85243659D01*
X144774713Y-85311466D01*
X144761354Y-85362462D01*
X144726560Y-85430890D01*
X144706877Y-85497921D01*
X144706875Y-85497928D01*
X144706876Y-85497928D01*
X144694500Y-85584000D01*
X144694500Y-92730500D01*
X144694501Y-92730509D01*
X144701481Y-92795435D01*
X144701483Y-92795447D01*
X144712688Y-92846953D01*
X144723644Y-92885154D01*
X144723646Y-92885158D01*
X144757860Y-92943659D01*
X144774713Y-93011466D01*
X144761354Y-93062462D01*
X144726560Y-93130890D01*
X144706877Y-93197921D01*
X144706875Y-93197928D01*
X144706876Y-93197928D01*
X144694500Y-93284000D01*
X144694500Y-100736000D01*
X144694501Y-100736009D01*
X144701481Y-100800935D01*
X144701483Y-100800947D01*
X144712688Y-100852453D01*
X144723644Y-100890654D01*
X144723646Y-100890658D01*
X144780323Y-100987568D01*
X144780325Y-100987571D01*
X144826081Y-101040376D01*
X144826091Y-101040387D01*
X144870807Y-101082548D01*
X144870809Y-101082549D01*
X144870813Y-101082553D01*
X144970889Y-101133439D01*
X145037928Y-101153124D01*
X145124000Y-101165500D01*
X150510688Y-101165500D01*
X150577727Y-101185185D01*
X150596674Y-101200156D01*
X150672737Y-101273360D01*
X150675621Y-101276135D01*
X150695597Y-101296111D01*
X150709657Y-101310171D01*
X150709665Y-101310178D01*
X150720495Y-101319463D01*
X150723122Y-101321850D01*
X150779838Y-101376434D01*
X150800244Y-101390787D01*
X150816943Y-101402533D01*
X150821623Y-101406171D01*
X150856066Y-101435703D01*
X150922958Y-101477225D01*
X150925892Y-101479166D01*
X150990267Y-101524447D01*
X150996355Y-101527461D01*
X151030662Y-101544447D01*
X151030917Y-101544573D01*
X151036109Y-101547461D01*
X151074641Y-101571380D01*
X151074645Y-101571382D01*
X151074650Y-101571385D01*
X151147088Y-101602206D01*
X151150281Y-101603674D01*
X151180429Y-101618602D01*
X151220815Y-101638599D01*
X151220821Y-101638602D01*
X151220823Y-101638602D01*
X151220826Y-101638604D01*
X151264095Y-101652297D01*
X151269625Y-101654343D01*
X151311384Y-101672111D01*
X151311396Y-101672114D01*
X151311399Y-101672115D01*
X151326044Y-101675839D01*
X151387651Y-101691505D01*
X151391065Y-101692479D01*
X151466108Y-101716228D01*
X151494420Y-101720601D01*
X151510945Y-101723154D01*
X151516760Y-101724339D01*
X151560719Y-101735518D01*
X151608305Y-101740089D01*
X151639043Y-101743043D01*
X151642578Y-101743484D01*
X151720364Y-101755500D01*
X151765727Y-101755500D01*
X151771659Y-101755784D01*
X151816811Y-101760122D01*
X151895391Y-101755601D01*
X151898931Y-101755500D01*
X162553226Y-101755500D01*
X162553227Y-101755500D01*
X162745517Y-101740737D01*
X162996021Y-101682117D01*
X163234641Y-101585944D01*
X163455783Y-101454474D01*
X163654265Y-101290787D01*
X163825435Y-101098720D01*
X163825436Y-101098718D01*
X163825441Y-101098712D01*
X163950562Y-100905500D01*
X163965279Y-100882775D01*
X164070521Y-100648014D01*
X164138693Y-100399939D01*
X164168198Y-100144365D01*
X164158344Y-99887282D01*
X164109361Y-99634717D01*
X164109360Y-99634713D01*
X164022402Y-99392595D01*
X164022401Y-99392594D01*
X164022399Y-99392588D01*
X163899496Y-99166572D01*
X163743531Y-98961966D01*
X163558162Y-98783566D01*
X163489210Y-98735066D01*
X163414322Y-98682391D01*
X163370814Y-98627722D01*
X163363769Y-98558208D01*
X163395424Y-98495921D01*
X163422299Y-98474380D01*
X163455778Y-98454477D01*
X163455778Y-98454476D01*
X163455783Y-98454474D01*
X163654265Y-98290787D01*
X163825435Y-98098720D01*
X163825436Y-98098718D01*
X163825441Y-98098712D01*
X163939375Y-97922775D01*
X163965279Y-97882775D01*
X164070521Y-97648014D01*
X164138693Y-97399939D01*
X164168198Y-97144365D01*
X164158344Y-96887282D01*
X164109361Y-96634717D01*
X164102178Y-96614717D01*
X164022402Y-96392595D01*
X164022401Y-96392594D01*
X164022399Y-96392588D01*
X163899496Y-96166572D01*
X163743531Y-95961966D01*
X163558162Y-95783566D01*
X163558152Y-95783558D01*
X163415686Y-95683350D01*
X163372177Y-95628681D01*
X163365132Y-95559167D01*
X163396787Y-95496880D01*
X163411849Y-95483314D01*
X163425241Y-95473105D01*
X163431131Y-95469129D01*
X163455783Y-95454474D01*
X163529384Y-95393774D01*
X163531164Y-95392362D01*
X163607034Y-95334531D01*
X163626918Y-95313869D01*
X163632152Y-95309022D01*
X163634580Y-95307020D01*
X163654265Y-95290787D01*
X163717729Y-95219573D01*
X163719304Y-95217873D01*
X163785434Y-95149162D01*
X163801930Y-95125708D01*
X163806355Y-95120128D01*
X163825435Y-95098720D01*
X163877294Y-95018638D01*
X163878567Y-95016752D01*
X163933447Y-94938732D01*
X163946173Y-94913027D01*
X163949685Y-94906853D01*
X163965279Y-94882775D01*
X164004294Y-94795740D01*
X164005282Y-94793647D01*
X164047604Y-94708174D01*
X164056257Y-94680828D01*
X164058789Y-94674182D01*
X164070521Y-94648014D01*
X164095791Y-94556054D01*
X164096461Y-94553788D01*
X164097750Y-94549715D01*
X164125228Y-94462892D01*
X164129605Y-94434547D01*
X164131094Y-94427588D01*
X164133196Y-94419939D01*
X164138693Y-94399939D01*
X164149632Y-94305174D01*
X164149940Y-94302897D01*
X164164500Y-94208636D01*
X164164500Y-94179968D01*
X164164909Y-94172852D01*
X164166377Y-94160136D01*
X164168198Y-94144365D01*
X164164544Y-94049047D01*
X164164500Y-94046700D01*
X164164500Y-91979045D01*
X164165057Y-91970747D01*
X164166657Y-91958888D01*
X164164500Y-91846300D01*
X164164500Y-91798143D01*
X164163405Y-91783894D01*
X164163236Y-91780362D01*
X164161729Y-91701665D01*
X164153944Y-91656964D01*
X164153208Y-91651079D01*
X164153176Y-91650666D01*
X164149737Y-91605853D01*
X164131801Y-91529207D01*
X164131095Y-91525744D01*
X164130053Y-91519759D01*
X164117594Y-91448207D01*
X164103080Y-91405228D01*
X164101452Y-91399519D01*
X164099543Y-91391362D01*
X164091117Y-91355349D01*
X164061689Y-91282336D01*
X164060469Y-91279038D01*
X164035286Y-91204457D01*
X164014376Y-91164186D01*
X164011902Y-91158806D01*
X163994944Y-91116729D01*
X163964625Y-91065729D01*
X163954731Y-91049086D01*
X163952999Y-91045973D01*
X163916740Y-90976138D01*
X163916738Y-90976135D01*
X163916736Y-90976133D01*
X163916734Y-90976128D01*
X163889918Y-90939515D01*
X163886659Y-90934586D01*
X163873506Y-90912461D01*
X163863476Y-90895589D01*
X163848276Y-90877158D01*
X163813390Y-90834857D01*
X163811232Y-90832082D01*
X163777362Y-90785837D01*
X163764719Y-90768574D01*
X163732645Y-90736500D01*
X163728651Y-90732104D01*
X163699787Y-90697105D01*
X163695157Y-90692979D01*
X163641024Y-90644736D01*
X163638440Y-90642295D01*
X153493888Y-80497743D01*
X153488414Y-80491481D01*
X153481159Y-80481964D01*
X153400027Y-80403882D01*
X153365972Y-80369827D01*
X153365971Y-80369826D01*
X153365966Y-80369821D01*
X153359009Y-80363857D01*
X153355118Y-80360521D01*
X153352498Y-80358140D01*
X153295789Y-80303563D01*
X153258680Y-80277461D01*
X153253999Y-80273822D01*
X153219563Y-80244297D01*
X153219562Y-80244296D01*
X153219561Y-80244295D01*
X153152701Y-80202793D01*
X153149729Y-80200828D01*
X153085362Y-80155553D01*
X153085356Y-80155550D01*
X153085350Y-80155546D01*
X153044709Y-80135423D01*
X153039521Y-80132537D01*
X153026244Y-80124296D01*
X153000980Y-80108614D01*
X152959618Y-80091015D01*
X152928570Y-80077804D01*
X152925334Y-80076316D01*
X152854807Y-80041397D01*
X152854162Y-80041193D01*
X152841242Y-80037104D01*
X152811554Y-80027708D01*
X152805986Y-80025648D01*
X152780956Y-80014999D01*
X152726973Y-79970640D01*
X152705542Y-79904138D01*
X152705500Y-79900896D01*
X152705500Y-78072575D01*
X152725185Y-78005536D01*
X152777989Y-77959781D01*
X152829641Y-77948575D01*
X168770647Y-77967375D01*
X168837662Y-77987139D01*
X168883355Y-78039997D01*
X168894500Y-78091374D01*
X168894500Y-85070500D01*
X168894501Y-85070509D01*
X168901481Y-85135435D01*
X168901483Y-85135447D01*
X168912688Y-85186953D01*
X168923644Y-85225154D01*
X168923646Y-85225158D01*
X168957860Y-85283659D01*
X168974713Y-85351466D01*
X168961354Y-85402462D01*
X168926560Y-85470890D01*
X168906877Y-85537921D01*
X168906875Y-85537928D01*
X168906876Y-85537928D01*
X168894500Y-85624000D01*
X168894500Y-92670500D01*
X168894501Y-92670509D01*
X168901481Y-92735435D01*
X168901483Y-92735447D01*
X168912688Y-92786953D01*
X168923644Y-92825154D01*
X168923646Y-92825158D01*
X168957860Y-92883659D01*
X168974713Y-92951466D01*
X168961354Y-93002462D01*
X168926560Y-93070890D01*
X168906877Y-93137921D01*
X168906875Y-93137928D01*
X168906876Y-93137928D01*
X168894500Y-93224000D01*
X168894500Y-100476000D01*
X168894501Y-100476009D01*
X168901481Y-100540935D01*
X168901483Y-100540947D01*
X168912688Y-100592453D01*
X168923644Y-100630654D01*
X168923646Y-100630658D01*
X168980323Y-100727568D01*
X168980325Y-100727571D01*
X169026081Y-100780376D01*
X169026091Y-100780387D01*
X169070807Y-100822548D01*
X169070809Y-100822549D01*
X169070813Y-100822553D01*
X169170889Y-100873439D01*
X169237928Y-100893124D01*
X169324000Y-100905500D01*
X174384623Y-100905500D01*
X174451662Y-100925185D01*
X174472304Y-100941819D01*
X174752738Y-101222253D01*
X174758211Y-101228513D01*
X174765468Y-101238033D01*
X174765469Y-101238034D01*
X174805089Y-101276165D01*
X174846596Y-101316111D01*
X174880658Y-101350173D01*
X174887964Y-101356437D01*
X174891484Y-101359455D01*
X174894122Y-101361852D01*
X174920465Y-101387203D01*
X174950838Y-101416434D01*
X174950841Y-101416436D01*
X174950842Y-101416437D01*
X174987943Y-101442534D01*
X174992630Y-101446178D01*
X175003739Y-101455702D01*
X175027067Y-101475703D01*
X175093933Y-101517209D01*
X175096891Y-101519165D01*
X175161268Y-101564447D01*
X175188933Y-101578145D01*
X175201917Y-101584574D01*
X175207103Y-101587459D01*
X175245650Y-101611386D01*
X175262610Y-101618602D01*
X175318079Y-101642203D01*
X175321285Y-101643677D01*
X175391826Y-101678604D01*
X175423713Y-101688695D01*
X175435082Y-101692293D01*
X175440647Y-101694352D01*
X175482385Y-101712111D01*
X175558680Y-101731513D01*
X175562040Y-101732471D01*
X175637108Y-101756228D01*
X175637115Y-101756229D01*
X175637116Y-101756230D01*
X175662321Y-101760122D01*
X175681948Y-101763153D01*
X175687751Y-101764337D01*
X175731719Y-101775519D01*
X175782996Y-101780445D01*
X175810061Y-101783046D01*
X175813596Y-101783488D01*
X175821499Y-101784708D01*
X175891364Y-101795500D01*
X175936715Y-101795500D01*
X175942647Y-101795784D01*
X175946155Y-101796120D01*
X175987811Y-101800123D01*
X176066404Y-101795601D01*
X176069943Y-101795500D01*
X186713226Y-101795500D01*
X186713227Y-101795500D01*
X186905517Y-101780737D01*
X187156021Y-101722117D01*
X187394641Y-101625944D01*
X187615783Y-101494474D01*
X187814265Y-101330787D01*
X187985435Y-101138720D01*
X187985436Y-101138718D01*
X187985441Y-101138712D01*
X188086421Y-100982779D01*
X188125279Y-100922775D01*
X188230521Y-100688014D01*
X188298693Y-100439939D01*
X188328198Y-100184365D01*
X188318344Y-99927282D01*
X188269361Y-99674717D01*
X188262178Y-99654717D01*
X188182402Y-99432595D01*
X188182401Y-99432594D01*
X188182399Y-99432588D01*
X188059496Y-99206572D01*
X187903531Y-99001966D01*
X187718162Y-98823566D01*
X187592342Y-98735066D01*
X187574322Y-98722391D01*
X187530814Y-98667722D01*
X187523769Y-98598208D01*
X187555424Y-98535921D01*
X187582299Y-98514380D01*
X187598939Y-98504488D01*
X187615783Y-98494474D01*
X187814265Y-98330787D01*
X187985435Y-98138720D01*
X187985436Y-98138718D01*
X187985441Y-98138712D01*
X188086421Y-97982779D01*
X188125279Y-97922775D01*
X188230521Y-97688014D01*
X188298693Y-97439939D01*
X188328198Y-97184365D01*
X188318344Y-96927282D01*
X188269361Y-96674717D01*
X188262178Y-96654717D01*
X188182402Y-96432595D01*
X188182401Y-96432594D01*
X188182399Y-96432588D01*
X188059496Y-96206572D01*
X188025746Y-96162297D01*
X187953941Y-96068097D01*
X187903531Y-96001966D01*
X187718162Y-95823566D01*
X187718152Y-95823558D01*
X187575686Y-95723350D01*
X187532177Y-95668681D01*
X187525132Y-95599167D01*
X187556787Y-95536880D01*
X187571849Y-95523314D01*
X187585241Y-95513105D01*
X187591131Y-95509129D01*
X187615783Y-95494474D01*
X187689384Y-95433774D01*
X187691164Y-95432362D01*
X187767034Y-95374531D01*
X187786918Y-95353869D01*
X187792152Y-95349022D01*
X187814265Y-95330787D01*
X187877729Y-95259573D01*
X187879304Y-95257873D01*
X187945434Y-95189162D01*
X187961930Y-95165708D01*
X187966355Y-95160128D01*
X187969571Y-95156520D01*
X187985435Y-95138720D01*
X188037294Y-95058638D01*
X188038567Y-95056752D01*
X188093447Y-94978732D01*
X188106173Y-94953027D01*
X188109685Y-94946853D01*
X188125279Y-94922775D01*
X188164294Y-94835740D01*
X188165282Y-94833647D01*
X188207604Y-94748174D01*
X188216257Y-94720828D01*
X188218789Y-94714182D01*
X188230521Y-94688014D01*
X188255791Y-94596054D01*
X188256461Y-94593788D01*
X188285228Y-94502892D01*
X188289605Y-94474547D01*
X188291094Y-94467588D01*
X188291655Y-94465546D01*
X188298693Y-94439939D01*
X188309632Y-94345174D01*
X188309940Y-94342897D01*
X188324500Y-94248636D01*
X188324500Y-94219968D01*
X188324909Y-94212852D01*
X188325396Y-94208636D01*
X188328198Y-94184365D01*
X188324544Y-94089047D01*
X188324500Y-94086700D01*
X188324500Y-92008045D01*
X188325057Y-91999747D01*
X188326657Y-91987888D01*
X188324500Y-91875300D01*
X188324500Y-91827143D01*
X188323405Y-91812894D01*
X188323236Y-91809362D01*
X188321729Y-91730665D01*
X188313944Y-91685964D01*
X188313208Y-91680079D01*
X188313207Y-91680071D01*
X188309737Y-91634853D01*
X188291801Y-91558207D01*
X188291095Y-91554744D01*
X188277594Y-91477207D01*
X188263080Y-91434228D01*
X188261452Y-91428519D01*
X188258638Y-91416494D01*
X188251117Y-91384349D01*
X188221689Y-91311336D01*
X188220469Y-91308038D01*
X188195286Y-91233457D01*
X188174376Y-91193186D01*
X188171902Y-91187806D01*
X188154944Y-91145729D01*
X188123873Y-91093464D01*
X188114731Y-91078086D01*
X188112999Y-91074973D01*
X188076740Y-91005138D01*
X188076738Y-91005135D01*
X188076736Y-91005133D01*
X188076734Y-91005128D01*
X188049918Y-90968515D01*
X188046659Y-90963586D01*
X188033271Y-90941066D01*
X188023476Y-90924589D01*
X188003220Y-90900028D01*
X187973390Y-90863857D01*
X187971232Y-90861082D01*
X187935662Y-90812516D01*
X187924719Y-90797574D01*
X187892645Y-90765500D01*
X187888651Y-90761104D01*
X187859787Y-90726105D01*
X187851636Y-90718841D01*
X187801024Y-90673736D01*
X187798440Y-90671295D01*
X177644888Y-80517743D01*
X177639414Y-80511481D01*
X177632159Y-80501964D01*
X177551027Y-80423882D01*
X177516972Y-80389827D01*
X177516971Y-80389826D01*
X177516966Y-80389821D01*
X177511792Y-80385385D01*
X177506118Y-80380521D01*
X177503498Y-80378140D01*
X177446789Y-80323563D01*
X177409680Y-80297461D01*
X177404999Y-80293822D01*
X177370563Y-80264297D01*
X177370562Y-80264296D01*
X177370561Y-80264295D01*
X177303701Y-80222793D01*
X177300729Y-80220828D01*
X177293517Y-80215755D01*
X177236362Y-80175553D01*
X177236356Y-80175550D01*
X177236350Y-80175546D01*
X177195709Y-80155423D01*
X177190521Y-80152537D01*
X177178159Y-80144864D01*
X177151980Y-80128614D01*
X177113704Y-80112328D01*
X177079570Y-80097804D01*
X177076334Y-80096316D01*
X177005806Y-80061396D01*
X176992082Y-80057053D01*
X176934108Y-80018056D01*
X176906420Y-79953907D01*
X176905500Y-79938833D01*
X176905500Y-78101113D01*
X176925185Y-78034074D01*
X176977989Y-77988319D01*
X177029644Y-77977113D01*
X192970648Y-77995912D01*
X193037662Y-78015676D01*
X193083355Y-78068534D01*
X193094500Y-78119911D01*
X193094500Y-85030500D01*
X193094501Y-85030509D01*
X193101481Y-85095435D01*
X193101483Y-85095447D01*
X193112688Y-85146953D01*
X193123644Y-85185154D01*
X193123646Y-85185158D01*
X193153765Y-85236658D01*
X193157860Y-85243659D01*
X193174713Y-85311466D01*
X193161354Y-85362462D01*
X193126560Y-85430890D01*
X193106877Y-85497921D01*
X193106875Y-85497928D01*
X193106876Y-85497928D01*
X193094500Y-85584000D01*
X193094500Y-92730500D01*
X193094501Y-92730509D01*
X193101481Y-92795435D01*
X193101483Y-92795447D01*
X193112688Y-92846953D01*
X193123644Y-92885154D01*
X193123646Y-92885158D01*
X193157860Y-92943659D01*
X193174713Y-93011466D01*
X193161354Y-93062462D01*
X193126560Y-93130890D01*
X193106877Y-93197921D01*
X193094499Y-93284002D01*
X193094500Y-96867282D01*
X193094500Y-100436000D01*
X193094924Y-100439940D01*
X193101481Y-100500935D01*
X193101483Y-100500947D01*
X193112688Y-100552453D01*
X193123644Y-100590654D01*
X193123646Y-100590658D01*
X193180323Y-100687568D01*
X193180325Y-100687571D01*
X193226081Y-100740376D01*
X193226091Y-100740387D01*
X193270807Y-100782548D01*
X193270809Y-100782549D01*
X193270813Y-100782553D01*
X193370889Y-100833439D01*
X193437928Y-100853124D01*
X193524000Y-100865500D01*
X198564623Y-100865500D01*
X198631662Y-100885185D01*
X198652304Y-100901819D01*
X199032738Y-101282253D01*
X199038211Y-101288513D01*
X199044249Y-101296434D01*
X199045469Y-101298034D01*
X199126596Y-101376111D01*
X199160658Y-101410173D01*
X199167964Y-101416437D01*
X199171484Y-101419455D01*
X199174122Y-101421852D01*
X199208020Y-101454474D01*
X199230838Y-101476434D01*
X199230841Y-101476436D01*
X199230842Y-101476437D01*
X199267943Y-101502534D01*
X199272630Y-101506178D01*
X199285485Y-101517199D01*
X199307067Y-101535703D01*
X199373933Y-101577209D01*
X199376891Y-101579165D01*
X199441268Y-101624447D01*
X199469850Y-101638599D01*
X199481917Y-101644574D01*
X199487103Y-101647459D01*
X199525650Y-101671386D01*
X199535559Y-101675602D01*
X199598079Y-101702203D01*
X199601285Y-101703677D01*
X199671826Y-101738604D01*
X199703713Y-101748695D01*
X199715082Y-101752293D01*
X199720647Y-101754352D01*
X199762385Y-101772111D01*
X199838680Y-101791513D01*
X199842040Y-101792471D01*
X199917108Y-101816228D01*
X199917115Y-101816229D01*
X199917116Y-101816230D01*
X199943113Y-101820244D01*
X199961948Y-101823153D01*
X199967751Y-101824337D01*
X200011719Y-101835519D01*
X200062996Y-101840445D01*
X200090061Y-101843046D01*
X200093596Y-101843488D01*
X200101499Y-101844708D01*
X200171364Y-101855500D01*
X200216715Y-101855500D01*
X200222647Y-101855784D01*
X200226155Y-101856120D01*
X200267811Y-101860123D01*
X200346404Y-101855601D01*
X200349943Y-101855500D01*
X210853226Y-101855500D01*
X210853227Y-101855500D01*
X211045517Y-101840737D01*
X211296021Y-101782117D01*
X211534641Y-101685944D01*
X211755783Y-101554474D01*
X211954265Y-101390787D01*
X212125435Y-101198720D01*
X212125436Y-101198718D01*
X212125441Y-101198712D01*
X212229049Y-101038721D01*
X212265279Y-100982775D01*
X212370521Y-100748014D01*
X212438693Y-100499939D01*
X212468198Y-100244365D01*
X212458344Y-99987282D01*
X212409361Y-99734717D01*
X212409360Y-99734713D01*
X212322402Y-99492595D01*
X212322401Y-99492594D01*
X212322399Y-99492588D01*
X212199496Y-99266572D01*
X212043531Y-99061966D01*
X211858162Y-98883566D01*
X211855893Y-98881970D01*
X211714322Y-98782391D01*
X211670814Y-98727722D01*
X211663769Y-98658208D01*
X211695424Y-98595921D01*
X211722299Y-98574380D01*
X211733499Y-98567722D01*
X211755783Y-98554474D01*
X211954265Y-98390787D01*
X212125435Y-98198720D01*
X212125436Y-98198718D01*
X212125441Y-98198712D01*
X212229049Y-98038721D01*
X212265279Y-97982775D01*
X212370521Y-97748014D01*
X212438693Y-97499939D01*
X212468198Y-97244365D01*
X212458344Y-96987282D01*
X212409361Y-96734717D01*
X212387812Y-96674717D01*
X212322402Y-96492595D01*
X212322401Y-96492594D01*
X212322399Y-96492588D01*
X212199496Y-96266572D01*
X212043531Y-96061966D01*
X211858162Y-95883566D01*
X211858152Y-95883558D01*
X211715686Y-95783350D01*
X211672177Y-95728681D01*
X211665132Y-95659167D01*
X211696787Y-95596880D01*
X211711849Y-95583314D01*
X211725241Y-95573105D01*
X211731131Y-95569129D01*
X211755783Y-95554474D01*
X211829384Y-95493774D01*
X211831164Y-95492362D01*
X211907034Y-95434531D01*
X211926918Y-95413869D01*
X211932152Y-95409022D01*
X211935848Y-95405974D01*
X211954265Y-95390787D01*
X212017729Y-95319573D01*
X212019304Y-95317873D01*
X212085434Y-95249162D01*
X212101930Y-95225708D01*
X212106355Y-95220128D01*
X212111667Y-95214168D01*
X212125435Y-95198720D01*
X212177294Y-95118638D01*
X212178567Y-95116752D01*
X212233447Y-95038732D01*
X212246173Y-95013027D01*
X212249685Y-95006853D01*
X212265279Y-94982775D01*
X212304294Y-94895740D01*
X212305282Y-94893647D01*
X212347604Y-94808174D01*
X212356257Y-94780828D01*
X212358789Y-94774182D01*
X212370521Y-94748014D01*
X212395791Y-94656054D01*
X212396461Y-94653788D01*
X212398238Y-94648174D01*
X212425228Y-94562892D01*
X212429605Y-94534547D01*
X212431094Y-94527588D01*
X212438693Y-94499939D01*
X212449632Y-94405174D01*
X212449941Y-94402889D01*
X212464500Y-94308636D01*
X212464500Y-94279968D01*
X212464909Y-94272852D01*
X212468198Y-94244365D01*
X212464544Y-94149045D01*
X212464499Y-94146751D01*
X212464499Y-91928042D01*
X212465057Y-91919745D01*
X212465471Y-91916675D01*
X212466657Y-91907888D01*
X212464499Y-91795300D01*
X212464500Y-91747143D01*
X212463405Y-91732895D01*
X212463236Y-91729362D01*
X212461729Y-91650664D01*
X212453944Y-91605963D01*
X212453208Y-91600079D01*
X212452485Y-91590665D01*
X212449737Y-91554853D01*
X212431805Y-91478229D01*
X212431094Y-91474738D01*
X212428046Y-91457232D01*
X212417594Y-91397207D01*
X212403080Y-91354228D01*
X212401452Y-91348519D01*
X212391118Y-91304353D01*
X212391117Y-91304352D01*
X212391117Y-91304349D01*
X212361689Y-91231336D01*
X212360469Y-91228038D01*
X212335286Y-91153457D01*
X212314374Y-91113182D01*
X212311899Y-91107798D01*
X212311224Y-91106124D01*
X212294944Y-91065729D01*
X212292730Y-91062005D01*
X212254725Y-90998076D01*
X212252993Y-90994963D01*
X212235608Y-90961481D01*
X212216733Y-90925128D01*
X212195098Y-90895589D01*
X212189927Y-90888528D01*
X212186651Y-90883574D01*
X212163474Y-90844587D01*
X212113396Y-90783864D01*
X212111210Y-90781052D01*
X212110733Y-90780401D01*
X212086930Y-90747900D01*
X212064719Y-90717574D01*
X212032645Y-90685500D01*
X212028651Y-90681104D01*
X211999787Y-90646105D01*
X211985323Y-90633215D01*
X211941024Y-90593736D01*
X211938440Y-90591295D01*
X206822642Y-85475497D01*
X206789157Y-85414174D01*
X206794141Y-85344482D01*
X206836013Y-85288549D01*
X206901477Y-85264132D01*
X206937569Y-85266846D01*
X206956391Y-85271085D01*
X206962399Y-85272761D01*
X207004057Y-85286669D01*
X207004058Y-85286669D01*
X207004061Y-85286670D01*
X207079520Y-85298932D01*
X207083191Y-85299644D01*
X207136839Y-85311726D01*
X207157769Y-85316440D01*
X207201598Y-85319090D01*
X207207792Y-85319778D01*
X207251158Y-85326827D01*
X207327610Y-85326827D01*
X207331353Y-85326940D01*
X207339628Y-85327440D01*
X207407651Y-85331555D01*
X207451342Y-85327140D01*
X207457576Y-85326827D01*
X218407463Y-85326827D01*
X218408711Y-85326840D01*
X218446612Y-85327602D01*
X218517594Y-85329032D01*
X218593269Y-85318292D01*
X218596988Y-85317879D01*
X218673200Y-85311727D01*
X218715862Y-85301211D01*
X218721956Y-85300030D01*
X218765450Y-85293859D01*
X218838439Y-85271114D01*
X218842001Y-85270120D01*
X218916264Y-85251817D01*
X218956666Y-85234602D01*
X218962515Y-85232451D01*
X219004454Y-85219383D01*
X219072874Y-85185212D01*
X219076218Y-85183666D01*
X219146570Y-85153693D01*
X219183690Y-85130218D01*
X219189118Y-85127158D01*
X219228409Y-85107536D01*
X219228409Y-85107535D01*
X219228415Y-85107533D01*
X219290465Y-85062830D01*
X219293537Y-85060755D01*
X219358154Y-85019895D01*
X219391025Y-84990772D01*
X219395901Y-84986873D01*
X219431534Y-84961204D01*
X219485607Y-84907129D01*
X219488300Y-84904594D01*
X219545535Y-84853890D01*
X219573319Y-84819859D01*
X219577486Y-84815250D01*
X220884961Y-83507776D01*
X220885739Y-83507013D01*
X220964341Y-83431516D01*
X221010260Y-83370408D01*
X221012584Y-83367502D01*
X221062134Y-83309250D01*
X221084866Y-83271645D01*
X221088338Y-83266504D01*
X221114730Y-83231385D01*
X221150258Y-83163692D01*
X221152088Y-83160445D01*
X221191643Y-83095015D01*
X221208048Y-83054251D01*
X221210650Y-83048624D01*
X221231069Y-83009721D01*
X221255293Y-82937156D01*
X221256560Y-82933712D01*
X221274993Y-82887916D01*
X221285107Y-82862789D01*
X221285107Y-82862785D01*
X221285110Y-82862780D01*
X221294758Y-82819932D01*
X221296435Y-82813922D01*
X221310343Y-82772266D01*
X221322606Y-82696800D01*
X221323317Y-82693134D01*
X221329185Y-82667075D01*
X221340113Y-82618558D01*
X221342763Y-82574725D01*
X221343451Y-82568537D01*
X221350500Y-82525169D01*
X221350500Y-82448716D01*
X221350613Y-82444972D01*
X221350860Y-82440872D01*
X221355228Y-82368676D01*
X221350813Y-82324983D01*
X221350500Y-82318752D01*
X221350500Y-74916238D01*
X221350513Y-74914990D01*
X221351465Y-74867711D01*
X221352706Y-74806079D01*
X221341960Y-74730364D01*
X221341551Y-74726682D01*
X221335400Y-74650473D01*
X221334404Y-74646434D01*
X221324889Y-74607829D01*
X221323704Y-74601712D01*
X221317533Y-74558224D01*
X221294788Y-74485233D01*
X221293787Y-74481647D01*
X221275490Y-74407409D01*
X221258279Y-74367014D01*
X221256123Y-74361153D01*
X221243057Y-74319220D01*
X221208885Y-74250796D01*
X221207335Y-74247443D01*
X221177366Y-74177103D01*
X221153892Y-74139983D01*
X221150832Y-74134556D01*
X221131209Y-74095263D01*
X221131207Y-74095260D01*
X221111773Y-74068284D01*
X221086523Y-74033234D01*
X221084428Y-74030133D01*
X221043566Y-73965516D01*
X221014445Y-73932646D01*
X221010545Y-73927769D01*
X220990540Y-73900000D01*
X220984877Y-73892139D01*
X220984874Y-73892136D01*
X220984872Y-73892133D01*
X220930817Y-73838079D01*
X220928249Y-73835351D01*
X220877560Y-73778135D01*
X220843540Y-73750358D01*
X220838909Y-73746171D01*
X220380851Y-73288113D01*
X219907805Y-72815067D01*
X219906978Y-72814222D01*
X219831512Y-72735655D01*
X219770411Y-72689742D01*
X219767498Y-72687412D01*
X219709250Y-72637866D01*
X219685229Y-72623344D01*
X219671665Y-72615144D01*
X219666493Y-72611651D01*
X219631386Y-72585271D01*
X219631387Y-72585271D01*
X219631385Y-72585270D01*
X219631374Y-72585264D01*
X219563689Y-72549738D01*
X219560428Y-72547899D01*
X219495018Y-72508359D01*
X219495015Y-72508357D01*
X219454267Y-72491957D01*
X219448612Y-72489342D01*
X219431892Y-72480567D01*
X219409722Y-72468931D01*
X219337196Y-72444717D01*
X219333681Y-72443425D01*
X219262779Y-72414890D01*
X219219939Y-72405241D01*
X219213926Y-72403564D01*
X219172270Y-72389658D01*
X219172255Y-72389654D01*
X219106607Y-72378986D01*
X219096796Y-72377391D01*
X219093132Y-72376682D01*
X219050705Y-72367127D01*
X219018559Y-72359887D01*
X218974723Y-72357235D01*
X218968523Y-72356545D01*
X218946627Y-72352987D01*
X218925171Y-72349500D01*
X218925169Y-72349500D01*
X218848717Y-72349500D01*
X218844974Y-72349387D01*
X218795094Y-72346370D01*
X218768676Y-72344772D01*
X218768675Y-72344772D01*
X218768674Y-72344772D01*
X218768672Y-72344772D01*
X218733331Y-72348342D01*
X218724984Y-72349186D01*
X218718751Y-72349500D01*
X210168898Y-72349500D01*
X210101859Y-72329815D01*
X210081217Y-72313181D01*
X208634882Y-70866846D01*
X207183103Y-69415067D01*
X207182276Y-69414222D01*
X207132740Y-69362651D01*
X207106814Y-69335659D01*
X207101687Y-69331806D01*
X207090803Y-69323627D01*
X207049035Y-69267617D01*
X207044178Y-69197916D01*
X207077776Y-69136655D01*
X207139161Y-69103283D01*
X207165296Y-69100497D01*
X207517340Y-69100497D01*
X207584379Y-69120182D01*
X207593137Y-69126781D01*
X207593315Y-69126550D01*
X207596545Y-69129028D01*
X207847276Y-69296560D01*
X207847277Y-69296560D01*
X207847281Y-69296563D01*
X207926556Y-69335657D01*
X208117730Y-69429934D01*
X208117735Y-69429936D01*
X208117747Y-69429942D01*
X208403308Y-69526877D01*
X208699080Y-69585710D01*
X208999999Y-69605432D01*
X209300918Y-69585710D01*
X209596690Y-69526877D01*
X209823165Y-69449999D01*
X211559577Y-69449999D01*
X211579237Y-69712362D01*
X211579237Y-69712364D01*
X211637788Y-69968891D01*
X211733913Y-70213813D01*
X211733912Y-70213813D01*
X211803089Y-70333629D01*
X211865470Y-70441675D01*
X212029518Y-70647385D01*
X212222393Y-70826348D01*
X212439788Y-70974564D01*
X212676844Y-71088725D01*
X212928267Y-71166279D01*
X212928268Y-71166279D01*
X212928271Y-71166280D01*
X213188434Y-71205493D01*
X213188439Y-71205493D01*
X213188442Y-71205494D01*
X213188443Y-71205494D01*
X213451553Y-71205494D01*
X213451554Y-71205494D01*
X213451561Y-71205493D01*
X213711724Y-71166280D01*
X213711725Y-71166279D01*
X213711729Y-71166279D01*
X213963152Y-71088725D01*
X214200209Y-70974564D01*
X214417603Y-70826348D01*
X214610478Y-70647385D01*
X214774526Y-70441675D01*
X214906083Y-70213813D01*
X215002208Y-69968888D01*
X215060757Y-69712372D01*
X215060758Y-69712362D01*
X215080419Y-69449999D01*
X215080419Y-69449990D01*
X215060758Y-69187627D01*
X215060758Y-69187625D01*
X215060757Y-69187621D01*
X215060757Y-69187618D01*
X215002208Y-68931102D01*
X215002207Y-68931101D01*
X215002207Y-68931098D01*
X214940279Y-68773308D01*
X214906083Y-68686177D01*
X214906082Y-68686176D01*
X214906083Y-68686176D01*
X214846969Y-68583789D01*
X214774526Y-68458315D01*
X214610478Y-68252605D01*
X214417603Y-68073642D01*
X214200209Y-67925426D01*
X213963152Y-67811265D01*
X213711730Y-67733711D01*
X213711724Y-67733709D01*
X213451561Y-67694496D01*
X213451554Y-67694496D01*
X213188442Y-67694496D01*
X213188434Y-67694496D01*
X212928271Y-67733709D01*
X212928265Y-67733711D01*
X212773156Y-67781556D01*
X212676844Y-67811265D01*
X212676841Y-67811266D01*
X212676842Y-67811266D01*
X212676838Y-67811267D01*
X212439791Y-67925424D01*
X212439787Y-67925426D01*
X212222395Y-68073640D01*
X212029520Y-68252602D01*
X212029518Y-68252605D01*
X211865470Y-68458315D01*
X211733913Y-68686176D01*
X211637788Y-68931098D01*
X211579237Y-69187625D01*
X211579237Y-69187627D01*
X211559577Y-69449990D01*
X211559577Y-69449999D01*
X209823165Y-69449999D01*
X209882251Y-69429942D01*
X210152717Y-69296563D01*
X210326004Y-69180777D01*
X210403447Y-69129032D01*
X210403448Y-69129030D01*
X210403460Y-69129023D01*
X210573446Y-68979948D01*
X218546522Y-61006870D01*
X218549447Y-61004129D01*
X218604686Y-60955688D01*
X218654448Y-60898946D01*
X218803523Y-60728960D01*
X218971063Y-60478217D01*
X219104442Y-60207751D01*
X219201377Y-59922190D01*
X219260210Y-59626418D01*
X219274997Y-59400809D01*
X219274997Y-59400797D01*
X219279932Y-59325499D01*
X219277256Y-59284672D01*
X219275130Y-59252218D01*
X219274997Y-59248163D01*
X219274997Y-49751832D01*
X219275130Y-49747777D01*
X219277173Y-49716585D01*
X219279932Y-49674497D01*
X219274997Y-49599198D01*
X219274997Y-49599187D01*
X219260210Y-49373577D01*
X219201377Y-49077806D01*
X219104442Y-48792245D01*
X218975558Y-48530894D01*
X218973248Y-48525048D01*
X218803527Y-48271041D01*
X218803525Y-48271039D01*
X218803523Y-48271036D01*
X218654448Y-48101050D01*
X218654444Y-48101046D01*
X218653618Y-48100104D01*
X218604686Y-48044307D01*
X218549470Y-47995884D01*
X218546508Y-47993110D01*
X214677098Y-44123700D01*
X214643613Y-44062377D01*
X214648597Y-43992685D01*
X214678309Y-43947509D01*
X214678230Y-43947434D01*
X214678657Y-43946980D01*
X214678971Y-43946504D01*
X214680359Y-43945171D01*
X214680374Y-43945159D01*
X214722552Y-43900426D01*
X214773438Y-43800350D01*
X214793123Y-43733311D01*
X214805499Y-43647239D01*
X214805499Y-21124064D01*
X214798500Y-21059044D01*
X214798499Y-21059039D01*
X214787270Y-21007487D01*
X214787269Y-21007483D01*
X214787268Y-21007482D01*
X214787267Y-21007474D01*
X214776273Y-20969199D01*
X214719544Y-20872315D01*
X214673762Y-20819535D01*
X214629007Y-20777380D01*
X214629005Y-20777379D01*
X214629004Y-20777378D01*
X214569410Y-20747115D01*
X214528904Y-20726545D01*
X214528901Y-20726544D01*
X214528892Y-20726540D01*
X214461859Y-20706896D01*
X214461860Y-20706896D01*
X214461856Y-20706895D01*
X214460219Y-20706660D01*
X214375778Y-20694564D01*
X214375777Y-20694564D01*
X176065501Y-20714538D01*
X22823770Y-20794435D01*
X22758916Y-20801434D01*
X22758908Y-20801435D01*
X22713646Y-20811294D01*
X22707467Y-20812641D01*
X22691036Y-20817355D01*
X22669340Y-20823581D01*
X22572432Y-20880258D01*
X22572428Y-20880260D01*
X22519623Y-20926016D01*
X22519612Y-20926026D01*
X22477451Y-20970742D01*
X22477445Y-20970751D01*
X22426560Y-21070825D01*
X22406877Y-21137856D01*
X22394500Y-21223937D01*
X22394500Y-47275877D01*
X20600500Y-47275877D01*
X20600500Y-25481102D01*
X20620185Y-25414063D01*
X20672989Y-25368308D01*
X20689562Y-25362125D01*
X20930817Y-25291287D01*
X20930820Y-25291285D01*
X20930822Y-25291285D01*
X21165080Y-25184303D01*
X21165084Y-25184300D01*
X21165092Y-25184297D01*
X21381756Y-25045056D01*
X21576398Y-24876398D01*
X21745056Y-24681756D01*
X21884297Y-24465092D01*
X21884300Y-24465084D01*
X21884303Y-24465080D01*
X21991285Y-24230822D01*
X21991285Y-24230820D01*
X21991287Y-24230817D01*
X22063847Y-23983701D01*
X22100500Y-23728774D01*
X22100500Y-23471226D01*
X22063847Y-23216299D01*
X21991287Y-22969183D01*
X21991286Y-22969181D01*
X21991285Y-22969177D01*
X21884303Y-22734919D01*
X21884290Y-22734896D01*
X21745060Y-22518250D01*
X21745056Y-22518244D01*
X21576398Y-22323601D01*
X21381755Y-22154943D01*
X21381749Y-22154939D01*
X21165103Y-22015709D01*
X21165080Y-22015696D01*
X20930822Y-21908714D01*
X20689564Y-21837874D01*
X20630786Y-21800099D01*
X20601761Y-21736544D01*
X20600499Y-21718897D01*
X20600499Y-21302414D01*
X20600688Y-21297598D01*
X20614502Y-21122078D01*
X20617544Y-21102873D01*
X20656932Y-20938812D01*
X20662938Y-20920327D01*
X20727505Y-20764449D01*
X20736338Y-20747115D01*
X20748944Y-20726545D01*
X20824485Y-20603271D01*
X20835920Y-20587533D01*
X20945492Y-20459239D01*
X20959239Y-20445492D01*
X21087535Y-20335917D01*
X21103274Y-20324484D01*
X21247118Y-20236336D01*
X21264449Y-20227505D01*
X21420327Y-20162938D01*
X21438812Y-20156932D01*
X21602873Y-20117544D01*
X21622078Y-20114502D01*
X21775124Y-20102457D01*
X21797574Y-20100691D01*
X21802440Y-20100500D01*
X21847595Y-20100500D01*
X36732440Y-20100500D01*
X36733677Y-20100613D01*
X36744339Y-20100594D01*
X36744342Y-20100596D01*
X36792108Y-20100514D01*
X36800512Y-20100500D01*
X36830059Y-20100500D01*
X36831158Y-20100446D01*
X83592630Y-20020376D01*
X95200433Y-20000500D01*
X173843827Y-20000500D01*
X210943827Y-20000500D01*
X220452405Y-20000500D01*
X220497560Y-20000500D01*
X220502426Y-20000691D01*
G37*
%TD.AperFunction*%
%TD*%
%TA.AperFunction,Conductor*%
%TO.N,/ESC2_PHASEA*%
G36*
X55745039Y-93099685D02*
G01*
X55790794Y-93152489D01*
X55802000Y-93204000D01*
X55802000Y-100556000D01*
X55782315Y-100623039D01*
X55729511Y-100668794D01*
X55678000Y-100680000D01*
X48326000Y-100680000D01*
X48258961Y-100660315D01*
X48213206Y-100607511D01*
X48202000Y-100556000D01*
X48202000Y-93204000D01*
X48221685Y-93136961D01*
X48274489Y-93091206D01*
X48326000Y-93080000D01*
X55678000Y-93080000D01*
X55745039Y-93099685D01*
G37*
%TD.AperFunction*%
%TD*%
%TA.AperFunction,Conductor*%
%TO.N,/ESC3_PHASEA*%
G36*
X79843039Y-93199685D02*
G01*
X79888794Y-93252489D01*
X79900000Y-93304000D01*
X79900000Y-100556000D01*
X79880315Y-100623039D01*
X79827511Y-100668794D01*
X79776000Y-100680000D01*
X72524000Y-100680000D01*
X72456961Y-100660315D01*
X72411206Y-100607511D01*
X72400000Y-100556000D01*
X72400000Y-93304000D01*
X72419685Y-93236961D01*
X72472489Y-93191206D01*
X72524000Y-93180000D01*
X79776000Y-93180000D01*
X79843039Y-93199685D01*
G37*
%TD.AperFunction*%
%TD*%
%TA.AperFunction,Conductor*%
%TO.N,/ESC4_PHASEB*%
G36*
X104043039Y-85419685D02*
G01*
X104088794Y-85472489D01*
X104100000Y-85524000D01*
X104100000Y-92670500D01*
X104080315Y-92737539D01*
X104027511Y-92783294D01*
X103976000Y-92794500D01*
X96824000Y-92794500D01*
X96756961Y-92774815D01*
X96711206Y-92722011D01*
X96700000Y-92670500D01*
X96700000Y-85524000D01*
X96719685Y-85456961D01*
X96772489Y-85411206D01*
X96824000Y-85400000D01*
X103976000Y-85400000D01*
X104043039Y-85419685D01*
G37*
%TD.AperFunction*%
%TD*%
%TA.AperFunction,Conductor*%
%TO.N,/ESC1_PHASEA*%
G36*
X31895229Y-93131185D02*
G01*
X31940984Y-93183989D01*
X31952190Y-93235500D01*
X31952190Y-100587500D01*
X31932505Y-100654539D01*
X31879701Y-100700294D01*
X31828190Y-100711500D01*
X24576190Y-100711500D01*
X24509151Y-100691815D01*
X24463396Y-100639011D01*
X24452190Y-100587500D01*
X24452190Y-93235500D01*
X24471875Y-93168461D01*
X24524679Y-93122706D01*
X24576190Y-93111500D01*
X31828190Y-93111500D01*
X31895229Y-93131185D01*
G37*
%TD.AperFunction*%
%TD*%
%TA.AperFunction,Conductor*%
%TO.N,/ESC4_PHASEA*%
G36*
X104043039Y-93119685D02*
G01*
X104088794Y-93172489D01*
X104100000Y-93224000D01*
X104100000Y-100376000D01*
X104080315Y-100443039D01*
X104027511Y-100488794D01*
X103976000Y-100500000D01*
X96824000Y-100500000D01*
X96756961Y-100480315D01*
X96711206Y-100427511D01*
X96700000Y-100376000D01*
X96700000Y-93224000D01*
X96719685Y-93156961D01*
X96772489Y-93111206D01*
X96824000Y-93100000D01*
X103976000Y-93100000D01*
X104043039Y-93119685D01*
G37*
%TD.AperFunction*%
%TD*%
%TA.AperFunction,Conductor*%
%TO.N,/ESC8_PHASEA*%
G36*
X200643039Y-93179685D02*
G01*
X200688794Y-93232489D01*
X200700000Y-93284000D01*
X200700000Y-100436000D01*
X200680315Y-100503039D01*
X200627511Y-100548794D01*
X200576000Y-100560000D01*
X193524000Y-100560000D01*
X193456961Y-100540315D01*
X193411206Y-100487511D01*
X193400000Y-100436000D01*
X193400000Y-93284000D01*
X193419685Y-93216961D01*
X193472489Y-93171206D01*
X193524000Y-93160000D01*
X200576000Y-93160000D01*
X200643039Y-93179685D01*
G37*
%TD.AperFunction*%
%TD*%
%TA.AperFunction,Conductor*%
%TO.N,/ESC8_PHASEB*%
G36*
X200643039Y-85479685D02*
G01*
X200688794Y-85532489D01*
X200700000Y-85584000D01*
X200700000Y-92730500D01*
X200680315Y-92797539D01*
X200627511Y-92843294D01*
X200576000Y-92854500D01*
X193524000Y-92854500D01*
X193456961Y-92834815D01*
X193411206Y-92782011D01*
X193400000Y-92730500D01*
X193400000Y-85584000D01*
X193419685Y-85516961D01*
X193472489Y-85471206D01*
X193524000Y-85460000D01*
X200576000Y-85460000D01*
X200643039Y-85479685D01*
G37*
%TD.AperFunction*%
%TD*%
%TA.AperFunction,Conductor*%
%TO.N,/ESC3_PHASEC*%
G36*
X79843039Y-77899685D02*
G01*
X79888794Y-77952489D01*
X79900000Y-78004000D01*
X79900000Y-85050500D01*
X79880315Y-85117539D01*
X79827511Y-85163294D01*
X79776000Y-85174500D01*
X72524000Y-85174500D01*
X72456961Y-85154815D01*
X72411206Y-85102011D01*
X72400000Y-85050500D01*
X72400000Y-78004000D01*
X72419685Y-77936961D01*
X72472489Y-77891206D01*
X72524000Y-77880000D01*
X79776000Y-77880000D01*
X79843039Y-77899685D01*
G37*
%TD.AperFunction*%
%TD*%
%TA.AperFunction,Conductor*%
%TO.N,/ESC1_PHASEC*%
G36*
X31895229Y-77931185D02*
G01*
X31940984Y-77983989D01*
X31952190Y-78035500D01*
X31952190Y-85082000D01*
X31932505Y-85149039D01*
X31879701Y-85194794D01*
X31828190Y-85206000D01*
X24576190Y-85206000D01*
X24509151Y-85186315D01*
X24463396Y-85133511D01*
X24452190Y-85082000D01*
X24452190Y-78035500D01*
X24471875Y-77968461D01*
X24524679Y-77922706D01*
X24576190Y-77911500D01*
X31828190Y-77911500D01*
X31895229Y-77931185D01*
G37*
%TD.AperFunction*%
%TD*%
%TA.AperFunction,Conductor*%
%TO.N,/ESC7_PHASEB*%
G36*
X176543039Y-85519685D02*
G01*
X176588794Y-85572489D01*
X176600000Y-85624000D01*
X176600000Y-92670500D01*
X176580315Y-92737539D01*
X176527511Y-92783294D01*
X176476000Y-92794500D01*
X169324000Y-92794500D01*
X169256961Y-92774815D01*
X169211206Y-92722011D01*
X169200000Y-92670500D01*
X169200000Y-85624000D01*
X169219685Y-85556961D01*
X169272489Y-85511206D01*
X169324000Y-85500000D01*
X176476000Y-85500000D01*
X176543039Y-85519685D01*
G37*
%TD.AperFunction*%
%TD*%
%TA.AperFunction,Conductor*%
%TO.N,/ESC7_PHASEC*%
G36*
X176543039Y-77919685D02*
G01*
X176588794Y-77972489D01*
X176600000Y-78024000D01*
X176600000Y-85070500D01*
X176580315Y-85137539D01*
X176527511Y-85183294D01*
X176476000Y-85194500D01*
X169324000Y-85194500D01*
X169256961Y-85174815D01*
X169211206Y-85122011D01*
X169200000Y-85070500D01*
X169200000Y-78024000D01*
X169219685Y-77956961D01*
X169272489Y-77911206D01*
X169324000Y-77900000D01*
X176476000Y-77900000D01*
X176543039Y-77919685D01*
G37*
%TD.AperFunction*%
%TD*%
%TA.AperFunction,Conductor*%
%TO.N,/ESC6_PHASEB*%
G36*
X152343039Y-85479685D02*
G01*
X152388794Y-85532489D01*
X152400000Y-85584000D01*
X152400000Y-92730500D01*
X152380315Y-92797539D01*
X152327511Y-92843294D01*
X152276000Y-92854500D01*
X145124000Y-92854500D01*
X145056961Y-92834815D01*
X145011206Y-92782011D01*
X145000000Y-92730500D01*
X145000000Y-85584000D01*
X145019685Y-85516961D01*
X145072489Y-85471206D01*
X145124000Y-85460000D01*
X152276000Y-85460000D01*
X152343039Y-85479685D01*
G37*
%TD.AperFunction*%
%TD*%
%TA.AperFunction,Conductor*%
%TO.N,/ESC1_PHASEB*%
G36*
X31895229Y-85531185D02*
G01*
X31940984Y-85583989D01*
X31952190Y-85635500D01*
X31952190Y-92682000D01*
X31932505Y-92749039D01*
X31879701Y-92794794D01*
X31828190Y-92806000D01*
X24576190Y-92806000D01*
X24509151Y-92786315D01*
X24463396Y-92733511D01*
X24452190Y-92682000D01*
X24452190Y-85635500D01*
X24471875Y-85568461D01*
X24524679Y-85522706D01*
X24576190Y-85511500D01*
X31828190Y-85511500D01*
X31895229Y-85531185D01*
G37*
%TD.AperFunction*%
%TD*%
%TA.AperFunction,Conductor*%
%TO.N,/12V*%
G36*
X214442984Y-21019714D02*
G01*
X214488766Y-21072494D01*
X214499999Y-21124064D01*
X214499999Y-43647239D01*
X214480314Y-43714278D01*
X214427510Y-43760033D01*
X214358352Y-43769977D01*
X214294796Y-43740952D01*
X214288318Y-43734920D01*
X213681385Y-43127987D01*
X213678610Y-43125025D01*
X213630195Y-43069818D01*
X213630187Y-43069809D01*
X213573447Y-43020049D01*
X213573446Y-43020048D01*
X213403461Y-42870974D01*
X213403455Y-42870970D01*
X213403448Y-42870964D01*
X213152722Y-42703436D01*
X212882268Y-42570062D01*
X212882247Y-42570053D01*
X212596698Y-42473122D01*
X212596692Y-42473120D01*
X212596691Y-42473120D01*
X212596689Y-42473119D01*
X212596683Y-42473118D01*
X212300930Y-42414288D01*
X212300921Y-42414287D01*
X212300920Y-42414287D01*
X212075310Y-42399500D01*
X212075299Y-42399500D01*
X212073285Y-42399368D01*
X212073277Y-42399366D01*
X212000001Y-42394565D01*
X212000000Y-42394565D01*
X211994046Y-42394955D01*
X211926720Y-42399367D01*
X211922665Y-42399500D01*
X207724690Y-42399500D01*
X207499080Y-42414287D01*
X207499079Y-42414287D01*
X207499069Y-42414288D01*
X207203316Y-42473118D01*
X207203301Y-42473122D01*
X206917752Y-42570053D01*
X206917731Y-42570062D01*
X206647286Y-42703431D01*
X206647279Y-42703435D01*
X206396540Y-42870973D01*
X206169810Y-43069810D01*
X205970973Y-43296540D01*
X205803435Y-43547279D01*
X205803431Y-43547286D01*
X205670062Y-43817731D01*
X205670053Y-43817752D01*
X205573122Y-44103301D01*
X205573118Y-44103316D01*
X205514288Y-44399069D01*
X205514287Y-44399081D01*
X205494564Y-44700000D01*
X205514287Y-45000918D01*
X205514288Y-45000930D01*
X205573118Y-45296683D01*
X205573122Y-45296698D01*
X205670053Y-45582247D01*
X205670062Y-45582268D01*
X205803431Y-45852713D01*
X205803435Y-45852720D01*
X205970973Y-46103459D01*
X206169810Y-46330189D01*
X206396540Y-46529026D01*
X206647279Y-46696564D01*
X206647286Y-46696568D01*
X206917731Y-46829937D01*
X206917736Y-46829939D01*
X206917748Y-46829945D01*
X207203309Y-46926880D01*
X207379026Y-46961832D01*
X207440936Y-46994217D01*
X207475510Y-47054932D01*
X207471771Y-47124702D01*
X207430904Y-47181374D01*
X207365886Y-47206955D01*
X207354963Y-47207449D01*
X22824129Y-47399870D01*
X22757069Y-47380255D01*
X22711259Y-47327499D01*
X22700000Y-47275870D01*
X22700000Y-21223935D01*
X22719685Y-21156896D01*
X22772489Y-21111141D01*
X22823933Y-21099935D01*
X214375936Y-21000064D01*
X214442984Y-21019714D01*
G37*
%TD.AperFunction*%
%TD*%
%TA.AperFunction,Conductor*%
%TO.N,/ESC2_PHASEB*%
G36*
X55745039Y-85399685D02*
G01*
X55790794Y-85452489D01*
X55802000Y-85504000D01*
X55802000Y-92650500D01*
X55782315Y-92717539D01*
X55729511Y-92763294D01*
X55678000Y-92774500D01*
X48326000Y-92774500D01*
X48258961Y-92754815D01*
X48213206Y-92702011D01*
X48202000Y-92650500D01*
X48202000Y-85504000D01*
X48221685Y-85436961D01*
X48274489Y-85391206D01*
X48326000Y-85380000D01*
X55678000Y-85380000D01*
X55745039Y-85399685D01*
G37*
%TD.AperFunction*%
%TD*%
%TA.AperFunction,Conductor*%
%TO.N,/ESC6_PHASEC*%
G36*
X152343039Y-77879685D02*
G01*
X152388794Y-77932489D01*
X152400000Y-77984000D01*
X152400000Y-85030500D01*
X152380315Y-85097539D01*
X152327511Y-85143294D01*
X152276000Y-85154500D01*
X145124000Y-85154500D01*
X145056961Y-85134815D01*
X145011206Y-85082011D01*
X145000000Y-85030500D01*
X145000000Y-77984000D01*
X145019685Y-77916961D01*
X145072489Y-77871206D01*
X145124000Y-77860000D01*
X152276000Y-77860000D01*
X152343039Y-77879685D01*
G37*
%TD.AperFunction*%
%TD*%
%TA.AperFunction,Conductor*%
%TO.N,/ESC5_PHASEA*%
G36*
X128243039Y-93059685D02*
G01*
X128288794Y-93112489D01*
X128300000Y-93164000D01*
X128300000Y-100416000D01*
X128280315Y-100483039D01*
X128227511Y-100528794D01*
X128176000Y-100540000D01*
X121024000Y-100540000D01*
X120956961Y-100520315D01*
X120911206Y-100467511D01*
X120900000Y-100416000D01*
X120900000Y-93164000D01*
X120919685Y-93096961D01*
X120972489Y-93051206D01*
X121024000Y-93040000D01*
X128176000Y-93040000D01*
X128243039Y-93059685D01*
G37*
%TD.AperFunction*%
%TD*%
%TA.AperFunction,Conductor*%
%TO.N,/ESC7_PHASEA*%
G36*
X176543039Y-93119685D02*
G01*
X176588794Y-93172489D01*
X176600000Y-93224000D01*
X176600000Y-100476000D01*
X176580315Y-100543039D01*
X176527511Y-100588794D01*
X176476000Y-100600000D01*
X169324000Y-100600000D01*
X169256961Y-100580315D01*
X169211206Y-100527511D01*
X169200000Y-100476000D01*
X169200000Y-93224000D01*
X169219685Y-93156961D01*
X169272489Y-93111206D01*
X169324000Y-93100000D01*
X176476000Y-93100000D01*
X176543039Y-93119685D01*
G37*
%TD.AperFunction*%
%TD*%
%TA.AperFunction,Conductor*%
%TO.N,/ESC5_PHASEB*%
G36*
X128243039Y-85459685D02*
G01*
X128288794Y-85512489D01*
X128300000Y-85564000D01*
X128300000Y-92610500D01*
X128280315Y-92677539D01*
X128227511Y-92723294D01*
X128176000Y-92734500D01*
X121024000Y-92734500D01*
X120956961Y-92714815D01*
X120911206Y-92662011D01*
X120900000Y-92610500D01*
X120900000Y-85564000D01*
X120919685Y-85496961D01*
X120972489Y-85451206D01*
X121024000Y-85440000D01*
X128176000Y-85440000D01*
X128243039Y-85459685D01*
G37*
%TD.AperFunction*%
%TD*%
M02*
