%TF.GenerationSoftware,KiCad,Pcbnew,8.99.0-334-gf341ab9b00*%
%TF.CreationDate,2024-09-09T23:07:31-04:00*%
%TF.ProjectId,Buck Converter,4275636b-2043-46f6-9e76-65727465722e,V1*%
%TF.SameCoordinates,Original*%
%TF.FileFunction,Copper,L4,Bot*%
%TF.FilePolarity,Positive*%
%FSLAX46Y46*%
G04 Gerber Fmt 4.6, Leading zero omitted, Abs format (unit mm)*
G04 Created by KiCad (PCBNEW 8.99.0-334-gf341ab9b00) date 2024-09-09 23:07:31*
%MOMM*%
%LPD*%
G01*
G04 APERTURE LIST*
%TA.AperFunction,ComponentPad*%
%ADD10R,1.650000X1.650000*%
%TD*%
%TA.AperFunction,ComponentPad*%
%ADD11C,1.650000*%
%TD*%
%TA.AperFunction,ViaPad*%
%ADD12C,0.635000*%
%TD*%
%TA.AperFunction,ViaPad*%
%ADD13C,0.600000*%
%TD*%
%TA.AperFunction,Conductor*%
%ADD14C,0.200000*%
%TD*%
%TA.AperFunction,Conductor*%
%ADD15C,1.270000*%
%TD*%
G04 APERTURE END LIST*
D10*
%TO.P,J1,1*%
%TO.N,GND*%
X153175000Y-91925000D03*
D11*
%TO.P,J1,2*%
%TO.N,/V_{IN}*%
X153175000Y-97005000D03*
%TD*%
D10*
%TO.P,J2,1*%
%TO.N,/V_{OUT}*%
X171515000Y-93500000D03*
D11*
%TO.P,J2,2*%
%TO.N,GND*%
X166435000Y-93500000D03*
%TD*%
D12*
%TO.N,/V_{OUT}*%
X170675000Y-109950000D03*
X170725000Y-97025000D03*
X170675000Y-107175000D03*
X170775000Y-100250000D03*
X169175000Y-107175000D03*
X172125000Y-98725000D03*
X166200000Y-109950000D03*
X167625000Y-109950000D03*
X170700000Y-104375000D03*
X164800000Y-105825000D03*
X169175000Y-109975000D03*
X170700000Y-103075000D03*
X164775000Y-107900000D03*
X170700000Y-108500000D03*
X170750000Y-98725000D03*
X172150000Y-95450000D03*
X172100000Y-97025000D03*
X170700000Y-101625000D03*
X169175000Y-105825000D03*
X170675000Y-105775000D03*
X170775000Y-95450000D03*
X169200000Y-108500000D03*
X167075000Y-105825000D03*
%TO.N,/V_{IN}*%
X152275000Y-98725000D03*
X152300000Y-100450000D03*
X157500000Y-98700000D03*
X155550000Y-100500000D03*
X152350000Y-104275000D03*
X157525000Y-100525000D03*
X155550000Y-98725000D03*
X152300000Y-102325000D03*
X157475000Y-96675000D03*
X153750000Y-100450000D03*
X153800000Y-104275000D03*
X153725000Y-98725000D03*
X155550000Y-96675000D03*
X153750000Y-102325000D03*
D13*
%TO.N,GND*%
X176600000Y-105700000D03*
X159825000Y-107750000D03*
X163675000Y-103950000D03*
X160700000Y-105350000D03*
X160200000Y-94550000D03*
X163675000Y-105050000D03*
X163675000Y-106050000D03*
X176575000Y-101025000D03*
X161350000Y-109800000D03*
X161200000Y-94550000D03*
X161450000Y-105350000D03*
X160225000Y-109775000D03*
X158275000Y-109675000D03*
X162925000Y-96625000D03*
X156500000Y-109700000D03*
X176575000Y-103350000D03*
X152650000Y-106600000D03*
X155025000Y-104325000D03*
X151600000Y-107750000D03*
X156550000Y-108100000D03*
X152650000Y-107750000D03*
X162925000Y-95700000D03*
X151600000Y-108850000D03*
X156450000Y-106950000D03*
X151600000Y-106600000D03*
X155025000Y-103550000D03*
X162875000Y-97925000D03*
X176600000Y-108075000D03*
X159000000Y-103500000D03*
X162250000Y-94550000D03*
X162875000Y-98825000D03*
X152650000Y-108850000D03*
%TO.N,Net-(IC1-VCC)*%
X161475000Y-103975000D03*
X154975000Y-102125000D03*
%TO.N,Net-(IC1-SW_1)*%
X164650000Y-102725000D03*
X161425000Y-102900000D03*
X163800000Y-102000000D03*
X157450000Y-102000000D03*
X164600000Y-101150000D03*
%TD*%
D14*
%TO.N,Net-(IC1-VCC)*%
X156800000Y-104400000D02*
X161050000Y-104400000D01*
X154975000Y-102575000D02*
X156800000Y-104400000D01*
X161050000Y-104400000D02*
X161475000Y-103975000D01*
X154975000Y-102125000D02*
X154975000Y-102575000D01*
D15*
%TO.N,Net-(IC1-SW_1)*%
X160525000Y-102000000D02*
X161425000Y-102900000D01*
X157450000Y-102000000D02*
X160525000Y-102000000D01*
%TD*%
%TA.AperFunction,Conductor*%
%TO.N,GND*%
G36*
X160093039Y-104620185D02*
G01*
X160138794Y-104672989D01*
X160150000Y-104724500D01*
X160150000Y-105950000D01*
X162574983Y-105950000D01*
X162642022Y-105969685D01*
X162687777Y-106022489D01*
X162698979Y-106075012D01*
X162659375Y-110926512D01*
X162639144Y-110993389D01*
X162585968Y-111038711D01*
X162535379Y-111049500D01*
X157241579Y-111049500D01*
X157174540Y-111029815D01*
X157128785Y-110977011D01*
X157117633Y-110929161D01*
X156978771Y-106227661D01*
X156996468Y-106160069D01*
X157047898Y-106112776D01*
X157102717Y-106100000D01*
X158825000Y-106100000D01*
X158825000Y-104724500D01*
X158844685Y-104657461D01*
X158897489Y-104611706D01*
X158949000Y-104600500D01*
X160026000Y-104600500D01*
X160093039Y-104620185D01*
G37*
%TD.AperFunction*%
%TD*%
%TA.AperFunction,Conductor*%
%TO.N,GND*%
G36*
X175313194Y-89714715D02*
G01*
X175356362Y-89714714D01*
X175365206Y-89715029D01*
X175593813Y-89731378D01*
X175611312Y-89733894D01*
X175830926Y-89781667D01*
X175847899Y-89786651D01*
X176058478Y-89865192D01*
X176074566Y-89872539D01*
X176271838Y-89980256D01*
X176286703Y-89989810D01*
X176466626Y-90124498D01*
X176479997Y-90136084D01*
X176638915Y-90295002D01*
X176650501Y-90308373D01*
X176785184Y-90488289D01*
X176794745Y-90503165D01*
X176847621Y-90600000D01*
X176902458Y-90700428D01*
X176909807Y-90716521D01*
X176988348Y-90927100D01*
X176993332Y-90944075D01*
X177041103Y-91163679D01*
X177043621Y-91181192D01*
X177059969Y-91409792D01*
X177060285Y-91418637D01*
X177060285Y-91471793D01*
X177060286Y-91471806D01*
X177060286Y-109345572D01*
X177059970Y-109354418D01*
X177043620Y-109583016D01*
X177041102Y-109600529D01*
X176993329Y-109820134D01*
X176988345Y-109837109D01*
X176909803Y-110047688D01*
X176902453Y-110063781D01*
X176794747Y-110261028D01*
X176785182Y-110275911D01*
X176650494Y-110455833D01*
X176638908Y-110469205D01*
X176479993Y-110628119D01*
X176466622Y-110639704D01*
X176286708Y-110774385D01*
X176271824Y-110783951D01*
X176074565Y-110891660D01*
X176058472Y-110899009D01*
X175847897Y-110977549D01*
X175830921Y-110982533D01*
X175611318Y-111030303D01*
X175593806Y-111032821D01*
X175365009Y-111049183D01*
X175356164Y-111049499D01*
X175303206Y-111049499D01*
X175303194Y-111049500D01*
X164767530Y-111049500D01*
X164700491Y-111029815D01*
X164654736Y-110977011D01*
X164644792Y-110907853D01*
X164673817Y-110844297D01*
X164732595Y-110806523D01*
X164766467Y-110801505D01*
X167687895Y-110776464D01*
X172927301Y-110731555D01*
X172949541Y-110728989D01*
X173000598Y-110717509D01*
X173046972Y-110693936D01*
X173099528Y-110647896D01*
X173131396Y-110597715D01*
X173150718Y-110530571D01*
X173154830Y-110500826D01*
X173154625Y-110462940D01*
X173056169Y-92223888D01*
X173056169Y-92223886D01*
X173055433Y-92217430D01*
X173053595Y-92201285D01*
X173041918Y-92149419D01*
X173018094Y-92102781D01*
X173018093Y-92102779D01*
X172971866Y-92050400D01*
X172971860Y-92050394D01*
X172943003Y-92032218D01*
X172921563Y-92018713D01*
X172921560Y-92018712D01*
X172854353Y-91999640D01*
X172854352Y-91999639D01*
X172854349Y-91999639D01*
X172824588Y-91995635D01*
X172824585Y-91995635D01*
X170322148Y-92018384D01*
X170300119Y-92020916D01*
X170300110Y-92020918D01*
X170249512Y-92032218D01*
X170203263Y-92055585D01*
X170150548Y-92101444D01*
X170150547Y-92101445D01*
X170118510Y-92151512D01*
X170098957Y-92218586D01*
X170098956Y-92218590D01*
X170094740Y-92248316D01*
X170119052Y-104696209D01*
X170099498Y-104763287D01*
X170046784Y-104809145D01*
X169995567Y-104820450D01*
X169812949Y-104821208D01*
X169745828Y-104801802D01*
X169699854Y-104749188D01*
X169689624Y-104680072D01*
X169718385Y-104616396D01*
X169741716Y-104595351D01*
X169747940Y-104591028D01*
X169747946Y-104591026D01*
X169799806Y-104544203D01*
X169830918Y-104493547D01*
X169849230Y-104426120D01*
X169852896Y-104396317D01*
X169852434Y-104373702D01*
X169803933Y-101997178D01*
X169757956Y-99744316D01*
X169755333Y-99722994D01*
X169744154Y-99674014D01*
X169721031Y-99628401D01*
X169675276Y-99575597D01*
X169625268Y-99543459D01*
X169558234Y-99523775D01*
X169558230Y-99523774D01*
X169558229Y-99523774D01*
X169528505Y-99519500D01*
X164994593Y-99519500D01*
X164994581Y-99519500D01*
X164988337Y-99519686D01*
X164973550Y-99520569D01*
X164938283Y-99528910D01*
X164874071Y-99556425D01*
X164848430Y-99572064D01*
X162051925Y-101882219D01*
X161997801Y-101908105D01*
X161627689Y-101983809D01*
X161558065Y-101977958D01*
X161515159Y-101950005D01*
X160993857Y-101428702D01*
X160993849Y-101428696D01*
X160928796Y-101385229D01*
X160928795Y-101385229D01*
X160873390Y-101348208D01*
X160873387Y-101348206D01*
X160873386Y-101348206D01*
X160873385Y-101348205D01*
X160739542Y-101292766D01*
X160739530Y-101292763D01*
X160597444Y-101264500D01*
X160597440Y-101264500D01*
X159896627Y-101264500D01*
X159829588Y-101244815D01*
X159783833Y-101192011D01*
X159772634Y-101141787D01*
X159756376Y-99575596D01*
X159706768Y-94796618D01*
X159704245Y-94774752D01*
X159693046Y-94724528D01*
X159669807Y-94678401D01*
X159624052Y-94625597D01*
X159574044Y-94593459D01*
X159507010Y-94573775D01*
X159507006Y-94573774D01*
X159507005Y-94573774D01*
X159477281Y-94569500D01*
X151424271Y-94569500D01*
X151401733Y-94571935D01*
X151349973Y-94583253D01*
X151349972Y-94583254D01*
X151303251Y-94606736D01*
X151250546Y-94652607D01*
X151218518Y-94702686D01*
X151218517Y-94702688D01*
X151198981Y-94769766D01*
X151198980Y-94769769D01*
X151194771Y-94799497D01*
X151219230Y-106001503D01*
X151221666Y-106023811D01*
X151232873Y-106075054D01*
X151244256Y-106097763D01*
X151256204Y-106121599D01*
X151301959Y-106174403D01*
X151351967Y-106206541D01*
X151419006Y-106226226D01*
X151448730Y-106230500D01*
X151448734Y-106230500D01*
X154476000Y-106230500D01*
X154498427Y-106228089D01*
X154549938Y-106216883D01*
X154596599Y-106193526D01*
X154649403Y-106147771D01*
X154681541Y-106097763D01*
X154701226Y-106030724D01*
X154705500Y-106001000D01*
X154705500Y-102888412D01*
X154725185Y-102821373D01*
X154777989Y-102775618D01*
X154847147Y-102765674D01*
X154910703Y-102794699D01*
X154917181Y-102800731D01*
X156686426Y-104569976D01*
X156760118Y-104600500D01*
X156760120Y-104600500D01*
X158543821Y-104600500D01*
X158610860Y-104620185D01*
X158656615Y-104672989D01*
X158667806Y-104726338D01*
X158654581Y-105616594D01*
X158651853Y-105800257D01*
X158631175Y-105866997D01*
X158577697Y-105911962D01*
X158525271Y-105922388D01*
X156775000Y-105885740D01*
X156712907Y-110927027D01*
X156692398Y-110993819D01*
X156639034Y-111038920D01*
X156588916Y-111049500D01*
X152671806Y-111049500D01*
X152671794Y-111049499D01*
X152618637Y-111049499D01*
X152609792Y-111049183D01*
X152381191Y-111032835D01*
X152363679Y-111030317D01*
X152144074Y-110982546D01*
X152127098Y-110977562D01*
X151916515Y-110899020D01*
X151900422Y-110891670D01*
X151703177Y-110783967D01*
X151688293Y-110774403D01*
X151508364Y-110639712D01*
X151495000Y-110628132D01*
X151336072Y-110469205D01*
X151324494Y-110455843D01*
X151189805Y-110275920D01*
X151180240Y-110261036D01*
X151072533Y-110063787D01*
X151065186Y-110047701D01*
X150986636Y-109837103D01*
X150981657Y-109820145D01*
X150933883Y-109600526D01*
X150931366Y-109583020D01*
X150915030Y-109354613D01*
X150914714Y-109345767D01*
X150914714Y-93500000D01*
X165104939Y-93500000D01*
X165125145Y-93730958D01*
X165125147Y-93730968D01*
X165185148Y-93954900D01*
X165185152Y-93954909D01*
X165283133Y-94165030D01*
X165338023Y-94243422D01*
X165911212Y-93670233D01*
X165922482Y-93712292D01*
X165994890Y-93837708D01*
X166097292Y-93940110D01*
X166222708Y-94012518D01*
X166264765Y-94023787D01*
X165691576Y-94596975D01*
X165769969Y-94651867D01*
X165980090Y-94749847D01*
X165980099Y-94749851D01*
X166204031Y-94809852D01*
X166204041Y-94809854D01*
X166434999Y-94830061D01*
X166435001Y-94830061D01*
X166665958Y-94809854D01*
X166665968Y-94809852D01*
X166889900Y-94749851D01*
X166889909Y-94749847D01*
X167100030Y-94651867D01*
X167100034Y-94651865D01*
X167178422Y-94596976D01*
X167178422Y-94596975D01*
X166605235Y-94023787D01*
X166647292Y-94012518D01*
X166772708Y-93940110D01*
X166875110Y-93837708D01*
X166947518Y-93712292D01*
X166958787Y-93670234D01*
X167531975Y-94243422D01*
X167531976Y-94243422D01*
X167586865Y-94165034D01*
X167586867Y-94165030D01*
X167684847Y-93954909D01*
X167684851Y-93954900D01*
X167744852Y-93730968D01*
X167744854Y-93730958D01*
X167765061Y-93500000D01*
X167765061Y-93499999D01*
X167744854Y-93269041D01*
X167744852Y-93269031D01*
X167684851Y-93045099D01*
X167684847Y-93045090D01*
X167586867Y-92834971D01*
X167586866Y-92834969D01*
X167531975Y-92756577D01*
X167531975Y-92756576D01*
X166958787Y-93329764D01*
X166947518Y-93287708D01*
X166875110Y-93162292D01*
X166772708Y-93059890D01*
X166647292Y-92987482D01*
X166605234Y-92976212D01*
X167178422Y-92403023D01*
X167100030Y-92348133D01*
X166889909Y-92250152D01*
X166889900Y-92250148D01*
X166665968Y-92190147D01*
X166665958Y-92190145D01*
X166435001Y-92169939D01*
X166434999Y-92169939D01*
X166204041Y-92190145D01*
X166204031Y-92190147D01*
X165980099Y-92250148D01*
X165980090Y-92250152D01*
X165769967Y-92348134D01*
X165691576Y-92403022D01*
X166264766Y-92976212D01*
X166222708Y-92987482D01*
X166097292Y-93059890D01*
X165994890Y-93162292D01*
X165922482Y-93287708D01*
X165911212Y-93329766D01*
X165338022Y-92756576D01*
X165283134Y-92834967D01*
X165185152Y-93045090D01*
X165185148Y-93045099D01*
X165125147Y-93269031D01*
X165125145Y-93269041D01*
X165104939Y-93499999D01*
X165104939Y-93500000D01*
X150914714Y-93500000D01*
X150914714Y-92797844D01*
X151850000Y-92797844D01*
X151856401Y-92857372D01*
X151856403Y-92857379D01*
X151906645Y-92992086D01*
X151906649Y-92992093D01*
X151992809Y-93107187D01*
X151992812Y-93107190D01*
X152107906Y-93193350D01*
X152107913Y-93193354D01*
X152242620Y-93243596D01*
X152242627Y-93243598D01*
X152302155Y-93249999D01*
X152302172Y-93250000D01*
X152925000Y-93250000D01*
X152925000Y-92415747D01*
X152962708Y-92437518D01*
X153102591Y-92475000D01*
X153247409Y-92475000D01*
X153387292Y-92437518D01*
X153425000Y-92415747D01*
X153425000Y-93250000D01*
X154047828Y-93250000D01*
X154047844Y-93249999D01*
X154107372Y-93243598D01*
X154107379Y-93243596D01*
X154242086Y-93193354D01*
X154242093Y-93193350D01*
X154357187Y-93107190D01*
X154357190Y-93107187D01*
X154443350Y-92992093D01*
X154443354Y-92992086D01*
X154493596Y-92857379D01*
X154493598Y-92857372D01*
X154499999Y-92797844D01*
X154500000Y-92797827D01*
X154500000Y-92175000D01*
X153665748Y-92175000D01*
X153687518Y-92137292D01*
X153725000Y-91997409D01*
X153725000Y-91852591D01*
X153687518Y-91712708D01*
X153665748Y-91675000D01*
X154500000Y-91675000D01*
X154500000Y-91052172D01*
X154499999Y-91052155D01*
X154493598Y-90992627D01*
X154493596Y-90992620D01*
X154443354Y-90857913D01*
X154443350Y-90857906D01*
X154357190Y-90742812D01*
X154357187Y-90742809D01*
X154242093Y-90656649D01*
X154242086Y-90656645D01*
X154107379Y-90606403D01*
X154107372Y-90606401D01*
X154047844Y-90600000D01*
X153425000Y-90600000D01*
X153425000Y-91434252D01*
X153387292Y-91412482D01*
X153247409Y-91375000D01*
X153102591Y-91375000D01*
X152962708Y-91412482D01*
X152925000Y-91434252D01*
X152925000Y-90600000D01*
X152302155Y-90600000D01*
X152242627Y-90606401D01*
X152242620Y-90606403D01*
X152107913Y-90656645D01*
X152107906Y-90656649D01*
X151992812Y-90742809D01*
X151992809Y-90742812D01*
X151906649Y-90857906D01*
X151906645Y-90857913D01*
X151856403Y-90992620D01*
X151856401Y-90992627D01*
X151850000Y-91052155D01*
X151850000Y-91675000D01*
X152684252Y-91675000D01*
X152662482Y-91712708D01*
X152625000Y-91852591D01*
X152625000Y-91997409D01*
X152662482Y-92137292D01*
X152684252Y-92175000D01*
X151850000Y-92175000D01*
X151850000Y-92797844D01*
X150914714Y-92797844D01*
X150914714Y-91461809D01*
X150914715Y-91461806D01*
X150914714Y-91418636D01*
X150915030Y-91409792D01*
X150924665Y-91275061D01*
X150931379Y-91181184D01*
X150933894Y-91163689D01*
X150981668Y-90944069D01*
X150986651Y-90927100D01*
X151055388Y-90742809D01*
X151065193Y-90716517D01*
X151072536Y-90700438D01*
X151180260Y-90503155D01*
X151189806Y-90488302D01*
X151324503Y-90308366D01*
X151336077Y-90295009D01*
X151495009Y-90136077D01*
X151508366Y-90124503D01*
X151688302Y-89989806D01*
X151703155Y-89980260D01*
X151900438Y-89872536D01*
X151916517Y-89865193D01*
X152127103Y-89786649D01*
X152144069Y-89781668D01*
X152363689Y-89733894D01*
X152381184Y-89731379D01*
X152609794Y-89715029D01*
X152618636Y-89714714D01*
X152661806Y-89714715D01*
X152661809Y-89714714D01*
X175313191Y-89714714D01*
X175313194Y-89714715D01*
G37*
%TD.AperFunction*%
%TA.AperFunction,Conductor*%
G36*
X164741362Y-103350185D02*
G01*
X164787117Y-103402989D01*
X164797215Y-103437957D01*
X164930979Y-104431626D01*
X164930979Y-104431628D01*
X164934170Y-104446786D01*
X164934180Y-104446826D01*
X164944273Y-104481777D01*
X164944274Y-104481780D01*
X164944275Y-104481781D01*
X164965901Y-104521599D01*
X165011656Y-104574403D01*
X165061664Y-104606541D01*
X165069124Y-104611335D01*
X165067626Y-104613665D01*
X165109689Y-104650107D01*
X165129379Y-104717145D01*
X165109700Y-104784186D01*
X165056900Y-104829945D01*
X165005894Y-104841154D01*
X164325217Y-104843978D01*
X164325203Y-104843979D01*
X164302126Y-104846634D01*
X164302103Y-104846638D01*
X164249171Y-104858752D01*
X164249166Y-104858753D01*
X164249165Y-104858754D01*
X164249163Y-104858754D01*
X164249163Y-104858755D01*
X164202234Y-104883078D01*
X164150234Y-104929745D01*
X164150230Y-104929751D01*
X164118972Y-104980301D01*
X164100457Y-105047667D01*
X164096700Y-105077464D01*
X164192377Y-110578933D01*
X164192378Y-110578944D01*
X164195073Y-110600871D01*
X164206704Y-110651187D01*
X164206706Y-110651193D01*
X164230358Y-110697197D01*
X164276561Y-110749603D01*
X164276564Y-110749606D01*
X164276566Y-110749607D01*
X164326845Y-110781315D01*
X164326844Y-110781315D01*
X164394040Y-110800421D01*
X164394048Y-110800423D01*
X164394052Y-110800424D01*
X164410283Y-110802615D01*
X164474085Y-110831093D01*
X164512363Y-110889544D01*
X164512963Y-110959412D01*
X164475695Y-111018512D01*
X164412391Y-111048082D01*
X164393690Y-111049500D01*
X163052304Y-111049500D01*
X162985265Y-111029815D01*
X162939510Y-110977011D01*
X162928305Y-110925009D01*
X162948980Y-105735741D01*
X162948979Y-105735741D01*
X162948978Y-105735740D01*
X160458731Y-105749273D01*
X160391585Y-105729953D01*
X160345544Y-105677399D01*
X160334361Y-105616597D01*
X160397574Y-104715818D01*
X160421904Y-104650323D01*
X160477781Y-104608376D01*
X160521270Y-104600500D01*
X161089880Y-104600500D01*
X161089882Y-104600500D01*
X161163574Y-104569976D01*
X161325055Y-104408493D01*
X161386376Y-104375009D01*
X161432130Y-104373702D01*
X161475000Y-104380492D01*
X161475000Y-104380491D01*
X161475001Y-104380492D01*
X161475003Y-104380492D01*
X161600300Y-104360647D01*
X161600301Y-104360647D01*
X161600302Y-104360646D01*
X161600304Y-104360646D01*
X161713342Y-104303050D01*
X161803050Y-104213342D01*
X161860646Y-104100304D01*
X161860646Y-104100302D01*
X161860647Y-104100301D01*
X161860647Y-104100300D01*
X161880492Y-103975003D01*
X161880492Y-103974996D01*
X161860647Y-103849699D01*
X161860647Y-103849698D01*
X161860646Y-103849696D01*
X161803050Y-103736658D01*
X161803046Y-103736654D01*
X161803045Y-103736652D01*
X161787191Y-103720798D01*
X161753706Y-103659475D01*
X161758690Y-103589783D01*
X161800562Y-103533850D01*
X161805981Y-103530015D01*
X161893854Y-103471300D01*
X161893857Y-103471297D01*
X161998336Y-103366819D01*
X162059659Y-103333334D01*
X162086017Y-103330500D01*
X164674323Y-103330500D01*
X164741362Y-103350185D01*
G37*
%TD.AperFunction*%
%TA.AperFunction,Conductor*%
G36*
X156781000Y-101450185D02*
G01*
X156826755Y-101502989D01*
X156836699Y-101572147D01*
X156817063Y-101623391D01*
X156798211Y-101651604D01*
X156798204Y-101651616D01*
X156742766Y-101785457D01*
X156742763Y-101785469D01*
X156714500Y-101927555D01*
X156714500Y-102072444D01*
X156742763Y-102214530D01*
X156742766Y-102214542D01*
X156798204Y-102348383D01*
X156798211Y-102348396D01*
X156878699Y-102468853D01*
X156878702Y-102468857D01*
X156981142Y-102571297D01*
X156981146Y-102571300D01*
X157101603Y-102651788D01*
X157101616Y-102651795D01*
X157190410Y-102688574D01*
X157235462Y-102707235D01*
X157377555Y-102735499D01*
X157377559Y-102735500D01*
X157377560Y-102735500D01*
X159645500Y-102735500D01*
X159712539Y-102755185D01*
X159758294Y-102807989D01*
X159769500Y-102859500D01*
X159769500Y-103101002D01*
X159771910Y-103123426D01*
X159783117Y-103174938D01*
X159806474Y-103221600D01*
X159852229Y-103274403D01*
X159902237Y-103306541D01*
X159969276Y-103326226D01*
X159999000Y-103330500D01*
X160763984Y-103330500D01*
X160831023Y-103350185D01*
X160851660Y-103366814D01*
X160922803Y-103437957D01*
X160956147Y-103471301D01*
X161076603Y-103551788D01*
X161076612Y-103551793D01*
X161088601Y-103556759D01*
X161143004Y-103600600D01*
X161165069Y-103666894D01*
X161149700Y-103727106D01*
X161151381Y-103727963D01*
X161146951Y-103736656D01*
X161146950Y-103736658D01*
X161126522Y-103776749D01*
X161089352Y-103849698D01*
X161089352Y-103849699D01*
X161069508Y-103974996D01*
X161069508Y-103974997D01*
X161069508Y-103975000D01*
X161075423Y-104012352D01*
X161076297Y-104017867D01*
X161067341Y-104087161D01*
X161041505Y-104124943D01*
X161003269Y-104163180D01*
X160941947Y-104196666D01*
X160915587Y-104199500D01*
X156934412Y-104199500D01*
X156867373Y-104179815D01*
X156846731Y-104163181D01*
X155262652Y-102579102D01*
X155229167Y-102517779D01*
X155234151Y-102448087D01*
X155262653Y-102403739D01*
X155303046Y-102363346D01*
X155303050Y-102363342D01*
X155360646Y-102250304D01*
X155360646Y-102250302D01*
X155360647Y-102250301D01*
X155360647Y-102250300D01*
X155380492Y-102125003D01*
X155380492Y-102124996D01*
X155360647Y-101999699D01*
X155360647Y-101999698D01*
X155349570Y-101977958D01*
X155303050Y-101886658D01*
X155303046Y-101886654D01*
X155303045Y-101886652D01*
X155213347Y-101796954D01*
X155213344Y-101796952D01*
X155213342Y-101796950D01*
X155100304Y-101739354D01*
X155100303Y-101739353D01*
X155100300Y-101739352D01*
X154975003Y-101719508D01*
X154975001Y-101719508D01*
X154975000Y-101719508D01*
X154916432Y-101728784D01*
X154848897Y-101739480D01*
X154779603Y-101730524D01*
X154726152Y-101685527D01*
X154705513Y-101618776D01*
X154705500Y-101617006D01*
X154705500Y-101554500D01*
X154725185Y-101487461D01*
X154777989Y-101441706D01*
X154829500Y-101430500D01*
X156713961Y-101430500D01*
X156781000Y-101450185D01*
G37*
%TD.AperFunction*%
%TD*%
%TA.AperFunction,Conductor*%
%TO.N,Net-(IC1-SW_1)*%
G36*
X169595544Y-99644685D02*
G01*
X169641299Y-99697489D01*
X169652478Y-99746469D01*
X169723469Y-103225000D01*
X169747418Y-104398470D01*
X169729106Y-104465897D01*
X169677246Y-104512720D01*
X169623444Y-104525000D01*
X165158427Y-104525000D01*
X165091388Y-104505315D01*
X165045633Y-104452511D01*
X165035535Y-104417543D01*
X164875000Y-103225000D01*
X159999000Y-103225000D01*
X159931961Y-103205315D01*
X159886206Y-103152511D01*
X159875000Y-103101000D01*
X159875000Y-102551204D01*
X159894685Y-102484165D01*
X159947489Y-102438410D01*
X159974150Y-102429719D01*
X162075000Y-102000000D01*
X164915620Y-99653401D01*
X164979841Y-99625881D01*
X164994593Y-99625000D01*
X169528505Y-99625000D01*
X169595544Y-99644685D01*
G37*
%TD.AperFunction*%
%TD*%
%TA.AperFunction,Conductor*%
%TO.N,/V_{OUT}*%
G36*
X172892761Y-92120205D02*
G01*
X172938994Y-92172591D01*
X172950671Y-92224457D01*
X173049332Y-110501395D01*
X173030010Y-110568539D01*
X172977454Y-110614579D01*
X172926397Y-110626059D01*
X164422906Y-110698946D01*
X164355700Y-110679837D01*
X164309494Y-110627427D01*
X164297862Y-110577110D01*
X164202184Y-105075629D01*
X164220700Y-105008262D01*
X164272700Y-104961595D01*
X164325647Y-104949478D01*
X170225000Y-104925000D01*
X170200240Y-92248115D01*
X170219794Y-92181039D01*
X170272508Y-92135181D01*
X170323109Y-92123880D01*
X172825547Y-92101131D01*
X172892761Y-92120205D01*
G37*
%TD.AperFunction*%
%TD*%
%TA.AperFunction,Conductor*%
%TO.N,/V_{IN}*%
G36*
X159544320Y-94694685D02*
G01*
X159590075Y-94747489D01*
X159601274Y-94797713D01*
X159667102Y-101139213D01*
X159648115Y-101206453D01*
X159595788Y-101252754D01*
X159543109Y-101264500D01*
X157377555Y-101264500D01*
X157235469Y-101292762D01*
X157235460Y-101292765D01*
X157180427Y-101315561D01*
X157132975Y-101325000D01*
X154600000Y-101325000D01*
X154600000Y-101949033D01*
X154590231Y-101989725D01*
X154592368Y-101990420D01*
X154589352Y-101999698D01*
X154569508Y-102124996D01*
X154569508Y-102125003D01*
X154589352Y-102250299D01*
X154592370Y-102259586D01*
X154590230Y-102260281D01*
X154600000Y-102300968D01*
X154600000Y-106001000D01*
X154580315Y-106068039D01*
X154527511Y-106113794D01*
X154476000Y-106125000D01*
X151448730Y-106125000D01*
X151381691Y-106105315D01*
X151335936Y-106052511D01*
X151324730Y-106001271D01*
X151300271Y-94799271D01*
X151319809Y-94732188D01*
X151372513Y-94686318D01*
X151424271Y-94675000D01*
X159477281Y-94675000D01*
X159544320Y-94694685D01*
G37*
%TD.AperFunction*%
%TD*%
M02*
