%TF.GenerationSoftware,KiCad,Pcbnew,8.99.0-334-gf341ab9b00*%
%TF.CreationDate,2024-09-09T23:07:31-04:00*%
%TF.ProjectId,Buck Converter,4275636b-2043-46f6-9e76-65727465722e,V1*%
%TF.SameCoordinates,Original*%
%TF.FileFunction,Copper,L2,Inr*%
%TF.FilePolarity,Positive*%
%FSLAX46Y46*%
G04 Gerber Fmt 4.6, Leading zero omitted, Abs format (unit mm)*
G04 Created by KiCad (PCBNEW 8.99.0-334-gf341ab9b00) date 2024-09-09 23:07:31*
%MOMM*%
%LPD*%
G01*
G04 APERTURE LIST*
%TA.AperFunction,ComponentPad*%
%ADD10R,1.650000X1.650000*%
%TD*%
%TA.AperFunction,ComponentPad*%
%ADD11C,1.650000*%
%TD*%
%TA.AperFunction,ViaPad*%
%ADD12C,0.635000*%
%TD*%
%TA.AperFunction,ViaPad*%
%ADD13C,0.600000*%
%TD*%
%TA.AperFunction,Conductor*%
%ADD14C,0.762000*%
%TD*%
G04 APERTURE END LIST*
D10*
%TO.N,GND*%
%TO.C,J1*%
X153175000Y-91925000D03*
D11*
%TO.N,/V_{IN}*%
X153175000Y-97005000D03*
%TD*%
D10*
%TO.N,/V_{OUT}*%
%TO.C,J2*%
X171515000Y-93500000D03*
D11*
%TO.N,GND*%
X166435000Y-93500000D03*
%TD*%
D12*
%TO.N,/V_{OUT}*%
X170675000Y-109950000D03*
X170725000Y-97025000D03*
X170675000Y-107175000D03*
X170775000Y-100250000D03*
X169175000Y-107175000D03*
X172125000Y-98725000D03*
X166200000Y-109950000D03*
X167625000Y-109950000D03*
X170700000Y-104375000D03*
X164800000Y-105825000D03*
X169175000Y-109975000D03*
X170700000Y-103075000D03*
X164775000Y-107900000D03*
X170700000Y-108500000D03*
X170750000Y-98725000D03*
X172150000Y-95450000D03*
X172100000Y-97025000D03*
X170700000Y-101625000D03*
X169175000Y-105825000D03*
X170675000Y-105775000D03*
X170775000Y-95450000D03*
X169200000Y-108500000D03*
X167075000Y-105825000D03*
%TO.N,/V_{IN}*%
X152275000Y-98725000D03*
X152300000Y-100450000D03*
X157500000Y-98700000D03*
X155550000Y-100500000D03*
X152350000Y-104275000D03*
X157525000Y-100525000D03*
X155550000Y-98725000D03*
X152300000Y-102325000D03*
X157475000Y-96675000D03*
X153750000Y-100450000D03*
X153800000Y-104275000D03*
X153725000Y-98725000D03*
X155550000Y-96675000D03*
X153750000Y-102325000D03*
D13*
%TO.N,GND*%
X176600000Y-105700000D03*
X159825000Y-107750000D03*
X163675000Y-103950000D03*
X160700000Y-105350000D03*
X160200000Y-94550000D03*
X163675000Y-105050000D03*
X163675000Y-106050000D03*
X176575000Y-101025000D03*
X161350000Y-109800000D03*
X161200000Y-94550000D03*
X161450000Y-105350000D03*
X160225000Y-109775000D03*
X158275000Y-109675000D03*
X162925000Y-96625000D03*
X156500000Y-109700000D03*
X176575000Y-103350000D03*
X152650000Y-106600000D03*
X155025000Y-104325000D03*
X151600000Y-107750000D03*
X156550000Y-108100000D03*
X152650000Y-107750000D03*
X162925000Y-95700000D03*
X151600000Y-108850000D03*
X156450000Y-106950000D03*
X151600000Y-106600000D03*
X155025000Y-103550000D03*
X162875000Y-97925000D03*
X176600000Y-108075000D03*
X159000000Y-103500000D03*
X162250000Y-94550000D03*
X162875000Y-98825000D03*
X152650000Y-108850000D03*
%TO.N,Net-(IC1-VCC)*%
X161475000Y-103975000D03*
X154975000Y-102125000D03*
%TO.N,Net-(IC1-SW_1)*%
X164650000Y-102725000D03*
X161425000Y-102900000D03*
X163800000Y-102000000D03*
X157450000Y-102000000D03*
X164600000Y-101150000D03*
%TD*%
D14*
%TO.N,GND*%
X156450000Y-106950000D02*
X157400000Y-106950000D01*
X157400000Y-106950000D02*
X157425000Y-106975000D01*
%TD*%
%TA.AperFunction,Conductor*%
%TO.N,GND*%
G36*
X160093039Y-104519685D02*
G01*
X160138794Y-104572489D01*
X160150000Y-104624000D01*
X160150000Y-105950000D01*
X162574983Y-105950000D01*
X162642022Y-105969685D01*
X162687777Y-106022489D01*
X162698979Y-106075012D01*
X162659375Y-110926512D01*
X162639144Y-110993389D01*
X162585968Y-111038711D01*
X162535379Y-111049500D01*
X157241579Y-111049500D01*
X157174540Y-111029815D01*
X157128785Y-110977011D01*
X157117633Y-110929161D01*
X156978771Y-106227661D01*
X156996468Y-106160069D01*
X157047898Y-106112776D01*
X157102717Y-106100000D01*
X158825000Y-106100000D01*
X158825000Y-104624000D01*
X158844685Y-104556961D01*
X158897489Y-104511206D01*
X158949000Y-104500000D01*
X160026000Y-104500000D01*
X160093039Y-104519685D01*
G37*
%TD.AperFunction*%
%TD*%
%TA.AperFunction,Conductor*%
%TO.N,GND*%
G36*
X175313194Y-89714715D02*
G01*
X175356362Y-89714714D01*
X175365206Y-89715029D01*
X175593813Y-89731378D01*
X175611312Y-89733894D01*
X175830926Y-89781667D01*
X175847899Y-89786651D01*
X176058478Y-89865192D01*
X176074566Y-89872539D01*
X176271838Y-89980256D01*
X176286703Y-89989810D01*
X176466626Y-90124498D01*
X176479997Y-90136084D01*
X176638915Y-90295002D01*
X176650501Y-90308373D01*
X176785184Y-90488289D01*
X176794745Y-90503165D01*
X176847621Y-90600000D01*
X176902458Y-90700428D01*
X176909807Y-90716521D01*
X176988348Y-90927100D01*
X176993332Y-90944075D01*
X177041103Y-91163679D01*
X177043621Y-91181192D01*
X177059969Y-91409792D01*
X177060285Y-91418637D01*
X177060285Y-91471793D01*
X177060286Y-91471806D01*
X177060286Y-109345572D01*
X177059970Y-109354418D01*
X177043620Y-109583016D01*
X177041102Y-109600529D01*
X176993329Y-109820134D01*
X176988345Y-109837109D01*
X176909803Y-110047688D01*
X176902453Y-110063781D01*
X176794747Y-110261028D01*
X176785182Y-110275911D01*
X176650494Y-110455833D01*
X176638908Y-110469205D01*
X176479993Y-110628119D01*
X176466622Y-110639704D01*
X176286708Y-110774385D01*
X176271824Y-110783951D01*
X176074565Y-110891660D01*
X176058472Y-110899009D01*
X175847897Y-110977549D01*
X175830921Y-110982533D01*
X175611318Y-111030303D01*
X175593806Y-111032821D01*
X175365009Y-111049183D01*
X175356164Y-111049499D01*
X175303206Y-111049499D01*
X175303194Y-111049500D01*
X163052304Y-111049500D01*
X162985265Y-111029815D01*
X162939510Y-110977011D01*
X162928305Y-110925009D01*
X162932190Y-109950003D01*
X165776790Y-109950003D01*
X165797501Y-110080775D01*
X165797501Y-110080776D01*
X165810241Y-110105779D01*
X165857616Y-110198757D01*
X165857618Y-110198759D01*
X165857620Y-110198762D01*
X165951237Y-110292379D01*
X165951239Y-110292380D01*
X165951243Y-110292384D01*
X166069221Y-110352497D01*
X166069222Y-110352497D01*
X166069224Y-110352498D01*
X166199997Y-110373210D01*
X166200000Y-110373210D01*
X166200003Y-110373210D01*
X166330775Y-110352498D01*
X166330776Y-110352498D01*
X166330777Y-110352497D01*
X166330779Y-110352497D01*
X166448757Y-110292384D01*
X166542384Y-110198757D01*
X166602497Y-110080779D01*
X166602497Y-110080777D01*
X166602498Y-110080776D01*
X166602498Y-110080775D01*
X166623210Y-109950003D01*
X167201790Y-109950003D01*
X167222501Y-110080775D01*
X167222501Y-110080776D01*
X167235241Y-110105779D01*
X167282616Y-110198757D01*
X167282618Y-110198759D01*
X167282620Y-110198762D01*
X167376237Y-110292379D01*
X167376239Y-110292380D01*
X167376243Y-110292384D01*
X167494221Y-110352497D01*
X167494222Y-110352497D01*
X167494224Y-110352498D01*
X167624997Y-110373210D01*
X167625000Y-110373210D01*
X167625003Y-110373210D01*
X167755775Y-110352498D01*
X167755776Y-110352498D01*
X167755777Y-110352497D01*
X167755779Y-110352497D01*
X167873757Y-110292384D01*
X167967384Y-110198757D01*
X168027497Y-110080779D01*
X168027497Y-110080777D01*
X168027498Y-110080776D01*
X168027498Y-110080775D01*
X168044250Y-109975003D01*
X168751790Y-109975003D01*
X168772501Y-110105775D01*
X168772501Y-110105776D01*
X168772503Y-110105779D01*
X168832616Y-110223757D01*
X168832618Y-110223759D01*
X168832620Y-110223762D01*
X168926237Y-110317379D01*
X168926239Y-110317380D01*
X168926243Y-110317384D01*
X169044221Y-110377497D01*
X169044222Y-110377497D01*
X169044224Y-110377498D01*
X169174997Y-110398210D01*
X169175000Y-110398210D01*
X169175003Y-110398210D01*
X169305775Y-110377498D01*
X169305776Y-110377498D01*
X169305777Y-110377497D01*
X169305779Y-110377497D01*
X169423757Y-110317384D01*
X169517384Y-110223757D01*
X169577497Y-110105779D01*
X169577497Y-110105777D01*
X169577498Y-110105776D01*
X169577498Y-110105775D01*
X169598210Y-109975003D01*
X169598210Y-109974996D01*
X169594252Y-109950003D01*
X170251790Y-109950003D01*
X170272501Y-110080775D01*
X170272501Y-110080776D01*
X170285241Y-110105779D01*
X170332616Y-110198757D01*
X170332618Y-110198759D01*
X170332620Y-110198762D01*
X170426237Y-110292379D01*
X170426239Y-110292380D01*
X170426243Y-110292384D01*
X170544221Y-110352497D01*
X170544222Y-110352497D01*
X170544224Y-110352498D01*
X170674997Y-110373210D01*
X170675000Y-110373210D01*
X170675003Y-110373210D01*
X170805775Y-110352498D01*
X170805776Y-110352498D01*
X170805777Y-110352497D01*
X170805779Y-110352497D01*
X170923757Y-110292384D01*
X171017384Y-110198757D01*
X171077497Y-110080779D01*
X171077497Y-110080777D01*
X171077498Y-110080776D01*
X171077498Y-110080775D01*
X171098210Y-109950003D01*
X171098210Y-109949996D01*
X171077498Y-109819224D01*
X171077498Y-109819223D01*
X171077497Y-109819221D01*
X171017384Y-109701243D01*
X171017380Y-109701239D01*
X171017379Y-109701237D01*
X170923762Y-109607620D01*
X170923759Y-109607618D01*
X170923757Y-109607616D01*
X170805779Y-109547503D01*
X170805778Y-109547502D01*
X170805775Y-109547501D01*
X170675003Y-109526790D01*
X170674997Y-109526790D01*
X170544224Y-109547501D01*
X170544223Y-109547501D01*
X170474523Y-109583016D01*
X170426243Y-109607616D01*
X170426242Y-109607617D01*
X170426237Y-109607620D01*
X170332620Y-109701237D01*
X170332617Y-109701242D01*
X170332616Y-109701243D01*
X170319878Y-109726243D01*
X170272501Y-109819223D01*
X170272501Y-109819224D01*
X170251790Y-109949996D01*
X170251790Y-109950003D01*
X169594252Y-109950003D01*
X169577498Y-109844224D01*
X169577498Y-109844223D01*
X169564760Y-109819223D01*
X169517384Y-109726243D01*
X169517380Y-109726239D01*
X169517379Y-109726237D01*
X169423762Y-109632620D01*
X169423759Y-109632618D01*
X169423757Y-109632616D01*
X169305779Y-109572503D01*
X169305778Y-109572502D01*
X169305775Y-109572501D01*
X169175003Y-109551790D01*
X169174997Y-109551790D01*
X169044224Y-109572501D01*
X169044223Y-109572501D01*
X168989211Y-109600532D01*
X168926243Y-109632616D01*
X168926242Y-109632617D01*
X168926237Y-109632620D01*
X168832620Y-109726237D01*
X168832617Y-109726242D01*
X168772501Y-109844223D01*
X168772501Y-109844224D01*
X168751790Y-109974996D01*
X168751790Y-109975003D01*
X168044250Y-109975003D01*
X168048210Y-109950003D01*
X168048210Y-109949996D01*
X168027498Y-109819224D01*
X168027498Y-109819223D01*
X168027497Y-109819221D01*
X167967384Y-109701243D01*
X167967380Y-109701239D01*
X167967379Y-109701237D01*
X167873762Y-109607620D01*
X167873759Y-109607618D01*
X167873757Y-109607616D01*
X167755779Y-109547503D01*
X167755778Y-109547502D01*
X167755775Y-109547501D01*
X167625003Y-109526790D01*
X167624997Y-109526790D01*
X167494224Y-109547501D01*
X167494223Y-109547501D01*
X167424523Y-109583016D01*
X167376243Y-109607616D01*
X167376242Y-109607617D01*
X167376237Y-109607620D01*
X167282620Y-109701237D01*
X167282617Y-109701242D01*
X167282616Y-109701243D01*
X167269878Y-109726243D01*
X167222501Y-109819223D01*
X167222501Y-109819224D01*
X167201790Y-109949996D01*
X167201790Y-109950003D01*
X166623210Y-109950003D01*
X166623210Y-109949996D01*
X166602498Y-109819224D01*
X166602498Y-109819223D01*
X166602497Y-109819221D01*
X166542384Y-109701243D01*
X166542380Y-109701239D01*
X166542379Y-109701237D01*
X166448762Y-109607620D01*
X166448759Y-109607618D01*
X166448757Y-109607616D01*
X166330779Y-109547503D01*
X166330778Y-109547502D01*
X166330775Y-109547501D01*
X166200003Y-109526790D01*
X166199997Y-109526790D01*
X166069224Y-109547501D01*
X166069223Y-109547501D01*
X165999523Y-109583016D01*
X165951243Y-109607616D01*
X165951242Y-109607617D01*
X165951237Y-109607620D01*
X165857620Y-109701237D01*
X165857617Y-109701242D01*
X165857616Y-109701243D01*
X165844878Y-109726243D01*
X165797501Y-109819223D01*
X165797501Y-109819224D01*
X165776790Y-109949996D01*
X165776790Y-109950003D01*
X162932190Y-109950003D01*
X162937967Y-108500003D01*
X168776790Y-108500003D01*
X168797501Y-108630775D01*
X168797501Y-108630776D01*
X168797503Y-108630779D01*
X168857616Y-108748757D01*
X168857618Y-108748759D01*
X168857620Y-108748762D01*
X168951237Y-108842379D01*
X168951239Y-108842380D01*
X168951243Y-108842384D01*
X169069221Y-108902497D01*
X169069222Y-108902497D01*
X169069224Y-108902498D01*
X169199997Y-108923210D01*
X169200000Y-108923210D01*
X169200003Y-108923210D01*
X169330775Y-108902498D01*
X169330776Y-108902498D01*
X169330777Y-108902497D01*
X169330779Y-108902497D01*
X169448757Y-108842384D01*
X169542384Y-108748757D01*
X169602497Y-108630779D01*
X169602497Y-108630777D01*
X169602498Y-108630776D01*
X169602498Y-108630775D01*
X169623210Y-108500003D01*
X170276790Y-108500003D01*
X170297501Y-108630775D01*
X170297501Y-108630776D01*
X170297503Y-108630779D01*
X170357616Y-108748757D01*
X170357618Y-108748759D01*
X170357620Y-108748762D01*
X170451237Y-108842379D01*
X170451239Y-108842380D01*
X170451243Y-108842384D01*
X170569221Y-108902497D01*
X170569222Y-108902497D01*
X170569224Y-108902498D01*
X170699997Y-108923210D01*
X170700000Y-108923210D01*
X170700003Y-108923210D01*
X170830775Y-108902498D01*
X170830776Y-108902498D01*
X170830777Y-108902497D01*
X170830779Y-108902497D01*
X170948757Y-108842384D01*
X171042384Y-108748757D01*
X171102497Y-108630779D01*
X171102497Y-108630777D01*
X171102498Y-108630776D01*
X171102498Y-108630775D01*
X171123210Y-108500003D01*
X171123210Y-108499996D01*
X171102498Y-108369224D01*
X171102498Y-108369223D01*
X171079053Y-108323210D01*
X171042384Y-108251243D01*
X171042380Y-108251239D01*
X171042379Y-108251237D01*
X170948762Y-108157620D01*
X170948759Y-108157618D01*
X170948757Y-108157616D01*
X170830779Y-108097503D01*
X170830778Y-108097502D01*
X170830775Y-108097501D01*
X170700003Y-108076790D01*
X170699997Y-108076790D01*
X170569224Y-108097501D01*
X170569223Y-108097501D01*
X170490569Y-108137578D01*
X170451243Y-108157616D01*
X170451242Y-108157617D01*
X170451237Y-108157620D01*
X170357620Y-108251237D01*
X170357617Y-108251242D01*
X170297501Y-108369223D01*
X170297501Y-108369224D01*
X170276790Y-108499996D01*
X170276790Y-108500003D01*
X169623210Y-108500003D01*
X169623210Y-108499996D01*
X169602498Y-108369224D01*
X169602498Y-108369223D01*
X169579053Y-108323210D01*
X169542384Y-108251243D01*
X169542380Y-108251239D01*
X169542379Y-108251237D01*
X169448762Y-108157620D01*
X169448759Y-108157618D01*
X169448757Y-108157616D01*
X169330779Y-108097503D01*
X169330778Y-108097502D01*
X169330775Y-108097501D01*
X169200003Y-108076790D01*
X169199997Y-108076790D01*
X169069224Y-108097501D01*
X169069223Y-108097501D01*
X168990569Y-108137578D01*
X168951243Y-108157616D01*
X168951242Y-108157617D01*
X168951237Y-108157620D01*
X168857620Y-108251237D01*
X168857617Y-108251242D01*
X168797501Y-108369223D01*
X168797501Y-108369224D01*
X168776790Y-108499996D01*
X168776790Y-108500003D01*
X162937967Y-108500003D01*
X162940357Y-107900003D01*
X164351790Y-107900003D01*
X164372501Y-108030775D01*
X164372501Y-108030776D01*
X164372503Y-108030779D01*
X164432616Y-108148757D01*
X164432618Y-108148759D01*
X164432620Y-108148762D01*
X164526237Y-108242379D01*
X164526239Y-108242380D01*
X164526243Y-108242384D01*
X164644221Y-108302497D01*
X164644222Y-108302497D01*
X164644224Y-108302498D01*
X164774997Y-108323210D01*
X164775000Y-108323210D01*
X164775003Y-108323210D01*
X164905775Y-108302498D01*
X164905776Y-108302498D01*
X164905777Y-108302497D01*
X164905779Y-108302497D01*
X165023757Y-108242384D01*
X165117384Y-108148757D01*
X165177497Y-108030779D01*
X165177497Y-108030777D01*
X165177498Y-108030776D01*
X165177498Y-108030775D01*
X165198210Y-107900003D01*
X165198210Y-107899996D01*
X165177498Y-107769224D01*
X165177498Y-107769223D01*
X165177497Y-107769221D01*
X165117384Y-107651243D01*
X165117380Y-107651239D01*
X165117379Y-107651237D01*
X165023762Y-107557620D01*
X165023759Y-107557618D01*
X165023757Y-107557616D01*
X164905779Y-107497503D01*
X164905778Y-107497502D01*
X164905775Y-107497501D01*
X164775003Y-107476790D01*
X164774997Y-107476790D01*
X164644224Y-107497501D01*
X164644223Y-107497501D01*
X164605202Y-107517384D01*
X164526243Y-107557616D01*
X164526242Y-107557617D01*
X164526237Y-107557620D01*
X164432620Y-107651237D01*
X164432617Y-107651242D01*
X164372501Y-107769223D01*
X164372501Y-107769224D01*
X164351790Y-107899996D01*
X164351790Y-107900003D01*
X162940357Y-107900003D01*
X162943245Y-107175003D01*
X168751790Y-107175003D01*
X168772501Y-107305775D01*
X168772501Y-107305776D01*
X168772503Y-107305779D01*
X168832616Y-107423757D01*
X168832618Y-107423759D01*
X168832620Y-107423762D01*
X168926237Y-107517379D01*
X168926239Y-107517380D01*
X168926243Y-107517384D01*
X169044221Y-107577497D01*
X169044222Y-107577497D01*
X169044224Y-107577498D01*
X169174997Y-107598210D01*
X169175000Y-107598210D01*
X169175003Y-107598210D01*
X169305775Y-107577498D01*
X169305776Y-107577498D01*
X169305777Y-107577497D01*
X169305779Y-107577497D01*
X169423757Y-107517384D01*
X169517384Y-107423757D01*
X169577497Y-107305779D01*
X169577497Y-107305777D01*
X169577498Y-107305776D01*
X169577498Y-107305775D01*
X169598210Y-107175003D01*
X170251790Y-107175003D01*
X170272501Y-107305775D01*
X170272501Y-107305776D01*
X170272503Y-107305779D01*
X170332616Y-107423757D01*
X170332618Y-107423759D01*
X170332620Y-107423762D01*
X170426237Y-107517379D01*
X170426239Y-107517380D01*
X170426243Y-107517384D01*
X170544221Y-107577497D01*
X170544222Y-107577497D01*
X170544224Y-107577498D01*
X170674997Y-107598210D01*
X170675000Y-107598210D01*
X170675003Y-107598210D01*
X170805775Y-107577498D01*
X170805776Y-107577498D01*
X170805777Y-107577497D01*
X170805779Y-107577497D01*
X170923757Y-107517384D01*
X171017384Y-107423757D01*
X171077497Y-107305779D01*
X171077497Y-107305777D01*
X171077498Y-107305776D01*
X171077498Y-107305775D01*
X171098210Y-107175003D01*
X171098210Y-107174996D01*
X171077498Y-107044224D01*
X171077498Y-107044223D01*
X171077497Y-107044221D01*
X171017384Y-106926243D01*
X171017380Y-106926239D01*
X171017379Y-106926237D01*
X170923762Y-106832620D01*
X170923759Y-106832618D01*
X170923757Y-106832616D01*
X170805779Y-106772503D01*
X170805778Y-106772502D01*
X170805775Y-106772501D01*
X170675003Y-106751790D01*
X170674997Y-106751790D01*
X170544224Y-106772501D01*
X170544223Y-106772501D01*
X170465569Y-106812578D01*
X170426243Y-106832616D01*
X170426242Y-106832617D01*
X170426237Y-106832620D01*
X170332620Y-106926237D01*
X170332617Y-106926242D01*
X170272501Y-107044223D01*
X170272501Y-107044224D01*
X170251790Y-107174996D01*
X170251790Y-107175003D01*
X169598210Y-107175003D01*
X169598210Y-107174996D01*
X169577498Y-107044224D01*
X169577498Y-107044223D01*
X169577497Y-107044221D01*
X169517384Y-106926243D01*
X169517380Y-106926239D01*
X169517379Y-106926237D01*
X169423762Y-106832620D01*
X169423759Y-106832618D01*
X169423757Y-106832616D01*
X169305779Y-106772503D01*
X169305778Y-106772502D01*
X169305775Y-106772501D01*
X169175003Y-106751790D01*
X169174997Y-106751790D01*
X169044224Y-106772501D01*
X169044223Y-106772501D01*
X168965569Y-106812578D01*
X168926243Y-106832616D01*
X168926242Y-106832617D01*
X168926237Y-106832620D01*
X168832620Y-106926237D01*
X168832617Y-106926242D01*
X168772501Y-107044223D01*
X168772501Y-107044224D01*
X168751790Y-107174996D01*
X168751790Y-107175003D01*
X162943245Y-107175003D01*
X162948624Y-105825003D01*
X164376790Y-105825003D01*
X164397501Y-105955775D01*
X164397501Y-105955776D01*
X164397503Y-105955779D01*
X164457616Y-106073757D01*
X164457618Y-106073759D01*
X164457620Y-106073762D01*
X164551237Y-106167379D01*
X164551239Y-106167380D01*
X164551243Y-106167384D01*
X164669221Y-106227497D01*
X164669222Y-106227497D01*
X164669224Y-106227498D01*
X164799997Y-106248210D01*
X164800000Y-106248210D01*
X164800003Y-106248210D01*
X164930775Y-106227498D01*
X164930776Y-106227498D01*
X164930777Y-106227497D01*
X164930779Y-106227497D01*
X165048757Y-106167384D01*
X165142384Y-106073757D01*
X165202497Y-105955779D01*
X165202497Y-105955777D01*
X165202498Y-105955776D01*
X165202498Y-105955775D01*
X165223210Y-105825003D01*
X166651790Y-105825003D01*
X166672501Y-105955775D01*
X166672501Y-105955776D01*
X166672503Y-105955779D01*
X166732616Y-106073757D01*
X166732618Y-106073759D01*
X166732620Y-106073762D01*
X166826237Y-106167379D01*
X166826239Y-106167380D01*
X166826243Y-106167384D01*
X166944221Y-106227497D01*
X166944222Y-106227497D01*
X166944224Y-106227498D01*
X167074997Y-106248210D01*
X167075000Y-106248210D01*
X167075003Y-106248210D01*
X167205775Y-106227498D01*
X167205776Y-106227498D01*
X167205777Y-106227497D01*
X167205779Y-106227497D01*
X167323757Y-106167384D01*
X167417384Y-106073757D01*
X167477497Y-105955779D01*
X167477497Y-105955777D01*
X167477498Y-105955776D01*
X167477498Y-105955775D01*
X167498210Y-105825003D01*
X168751790Y-105825003D01*
X168772501Y-105955775D01*
X168772501Y-105955776D01*
X168772503Y-105955779D01*
X168832616Y-106073757D01*
X168832618Y-106073759D01*
X168832620Y-106073762D01*
X168926237Y-106167379D01*
X168926239Y-106167380D01*
X168926243Y-106167384D01*
X169044221Y-106227497D01*
X169044222Y-106227497D01*
X169044224Y-106227498D01*
X169174997Y-106248210D01*
X169175000Y-106248210D01*
X169175003Y-106248210D01*
X169305775Y-106227498D01*
X169305776Y-106227498D01*
X169305777Y-106227497D01*
X169305779Y-106227497D01*
X169423757Y-106167384D01*
X169517384Y-106073757D01*
X169577497Y-105955779D01*
X169577497Y-105955777D01*
X169577498Y-105955776D01*
X169577498Y-105955775D01*
X169598210Y-105825003D01*
X169598210Y-105824996D01*
X169590292Y-105775003D01*
X170251790Y-105775003D01*
X170272501Y-105905775D01*
X170272501Y-105905776D01*
X170291761Y-105943575D01*
X170332616Y-106023757D01*
X170332618Y-106023759D01*
X170332620Y-106023762D01*
X170426237Y-106117379D01*
X170426239Y-106117380D01*
X170426243Y-106117384D01*
X170544221Y-106177497D01*
X170544222Y-106177497D01*
X170544224Y-106177498D01*
X170674997Y-106198210D01*
X170675000Y-106198210D01*
X170675003Y-106198210D01*
X170805775Y-106177498D01*
X170805776Y-106177498D01*
X170805777Y-106177497D01*
X170805779Y-106177497D01*
X170923757Y-106117384D01*
X171017384Y-106023757D01*
X171077497Y-105905779D01*
X171077497Y-105905777D01*
X171077498Y-105905776D01*
X171077498Y-105905775D01*
X171098210Y-105775003D01*
X171098210Y-105774996D01*
X171077498Y-105644224D01*
X171077498Y-105644223D01*
X171077497Y-105644221D01*
X171017384Y-105526243D01*
X171017380Y-105526239D01*
X171017379Y-105526237D01*
X170923762Y-105432620D01*
X170923759Y-105432618D01*
X170923757Y-105432616D01*
X170805779Y-105372503D01*
X170805778Y-105372502D01*
X170805775Y-105372501D01*
X170675003Y-105351790D01*
X170674997Y-105351790D01*
X170544224Y-105372501D01*
X170544223Y-105372501D01*
X170486742Y-105401790D01*
X170426243Y-105432616D01*
X170426242Y-105432617D01*
X170426237Y-105432620D01*
X170332620Y-105526237D01*
X170332617Y-105526242D01*
X170272501Y-105644223D01*
X170272501Y-105644224D01*
X170251790Y-105774996D01*
X170251790Y-105775003D01*
X169590292Y-105775003D01*
X169577498Y-105694224D01*
X169577498Y-105694223D01*
X169552022Y-105644224D01*
X169517384Y-105576243D01*
X169517380Y-105576239D01*
X169517379Y-105576237D01*
X169423762Y-105482620D01*
X169423759Y-105482618D01*
X169423757Y-105482616D01*
X169305779Y-105422503D01*
X169305778Y-105422502D01*
X169305775Y-105422501D01*
X169175003Y-105401790D01*
X169174997Y-105401790D01*
X169044224Y-105422501D01*
X169044223Y-105422501D01*
X168965569Y-105462578D01*
X168926243Y-105482616D01*
X168926242Y-105482617D01*
X168926237Y-105482620D01*
X168832620Y-105576237D01*
X168832617Y-105576242D01*
X168772501Y-105694223D01*
X168772501Y-105694224D01*
X168751790Y-105824996D01*
X168751790Y-105825003D01*
X167498210Y-105825003D01*
X167498210Y-105824996D01*
X167477498Y-105694224D01*
X167477498Y-105694223D01*
X167452022Y-105644224D01*
X167417384Y-105576243D01*
X167417380Y-105576239D01*
X167417379Y-105576237D01*
X167323762Y-105482620D01*
X167323759Y-105482618D01*
X167323757Y-105482616D01*
X167205779Y-105422503D01*
X167205778Y-105422502D01*
X167205775Y-105422501D01*
X167075003Y-105401790D01*
X167074997Y-105401790D01*
X166944224Y-105422501D01*
X166944223Y-105422501D01*
X166865569Y-105462578D01*
X166826243Y-105482616D01*
X166826242Y-105482617D01*
X166826237Y-105482620D01*
X166732620Y-105576237D01*
X166732617Y-105576242D01*
X166672501Y-105694223D01*
X166672501Y-105694224D01*
X166651790Y-105824996D01*
X166651790Y-105825003D01*
X165223210Y-105825003D01*
X165223210Y-105824996D01*
X165202498Y-105694224D01*
X165202498Y-105694223D01*
X165177022Y-105644224D01*
X165142384Y-105576243D01*
X165142380Y-105576239D01*
X165142379Y-105576237D01*
X165048762Y-105482620D01*
X165048759Y-105482618D01*
X165048757Y-105482616D01*
X164930779Y-105422503D01*
X164930778Y-105422502D01*
X164930775Y-105422501D01*
X164800003Y-105401790D01*
X164799997Y-105401790D01*
X164669224Y-105422501D01*
X164669223Y-105422501D01*
X164590569Y-105462578D01*
X164551243Y-105482616D01*
X164551242Y-105482617D01*
X164551237Y-105482620D01*
X164457620Y-105576237D01*
X164457617Y-105576242D01*
X164397501Y-105694223D01*
X164397501Y-105694224D01*
X164376790Y-105824996D01*
X164376790Y-105825003D01*
X162948624Y-105825003D01*
X162948980Y-105735741D01*
X162948979Y-105735741D01*
X162948978Y-105735740D01*
X160458731Y-105749273D01*
X160391585Y-105729953D01*
X160345544Y-105677399D01*
X160334361Y-105616597D01*
X160425000Y-104325000D01*
X158673980Y-104310741D01*
X158673979Y-104310741D01*
X158651853Y-105800257D01*
X158631175Y-105866996D01*
X158577697Y-105911962D01*
X158525271Y-105922388D01*
X156775000Y-105885740D01*
X156712907Y-110927027D01*
X156692398Y-110993819D01*
X156639034Y-111038920D01*
X156588916Y-111049500D01*
X152671806Y-111049500D01*
X152671794Y-111049499D01*
X152618637Y-111049499D01*
X152609792Y-111049183D01*
X152381191Y-111032835D01*
X152363679Y-111030317D01*
X152144074Y-110982546D01*
X152127098Y-110977562D01*
X151916515Y-110899020D01*
X151900422Y-110891670D01*
X151703177Y-110783967D01*
X151688293Y-110774403D01*
X151508364Y-110639712D01*
X151495000Y-110628132D01*
X151336072Y-110469205D01*
X151324494Y-110455843D01*
X151189805Y-110275920D01*
X151180240Y-110261036D01*
X151095461Y-110105776D01*
X151072530Y-110063781D01*
X151065186Y-110047701D01*
X150986636Y-109837103D01*
X150981657Y-109820145D01*
X150933883Y-109600526D01*
X150931366Y-109583020D01*
X150929132Y-109551790D01*
X150915030Y-109354613D01*
X150914714Y-109345767D01*
X150914714Y-104275003D01*
X151926790Y-104275003D01*
X151947501Y-104405775D01*
X151947501Y-104405776D01*
X151947503Y-104405779D01*
X152007616Y-104523757D01*
X152007618Y-104523759D01*
X152007620Y-104523762D01*
X152101237Y-104617379D01*
X152101239Y-104617380D01*
X152101243Y-104617384D01*
X152219221Y-104677497D01*
X152219222Y-104677497D01*
X152219224Y-104677498D01*
X152349997Y-104698210D01*
X152350000Y-104698210D01*
X152350003Y-104698210D01*
X152480775Y-104677498D01*
X152480776Y-104677498D01*
X152480777Y-104677497D01*
X152480779Y-104677497D01*
X152598757Y-104617384D01*
X152692384Y-104523757D01*
X152752497Y-104405779D01*
X152752497Y-104405777D01*
X152752498Y-104405776D01*
X152752498Y-104405775D01*
X152773210Y-104275003D01*
X153376790Y-104275003D01*
X153397501Y-104405775D01*
X153397501Y-104405776D01*
X153397503Y-104405779D01*
X153457616Y-104523757D01*
X153457618Y-104523759D01*
X153457620Y-104523762D01*
X153551237Y-104617379D01*
X153551239Y-104617380D01*
X153551243Y-104617384D01*
X153669221Y-104677497D01*
X153669222Y-104677497D01*
X153669224Y-104677498D01*
X153799997Y-104698210D01*
X153800000Y-104698210D01*
X153800003Y-104698210D01*
X153930775Y-104677498D01*
X153930776Y-104677498D01*
X153930777Y-104677497D01*
X153930779Y-104677497D01*
X154048757Y-104617384D01*
X154142384Y-104523757D01*
X154202497Y-104405779D01*
X154202497Y-104405777D01*
X154202498Y-104405776D01*
X154202498Y-104405775D01*
X154223210Y-104275003D01*
X154223210Y-104274996D01*
X154202498Y-104144224D01*
X154202498Y-104144223D01*
X154202497Y-104144221D01*
X154142384Y-104026243D01*
X154142380Y-104026239D01*
X154142379Y-104026237D01*
X154091145Y-103975003D01*
X161069508Y-103975003D01*
X161089352Y-104100300D01*
X161089352Y-104100301D01*
X161102570Y-104126242D01*
X161146950Y-104213342D01*
X161146952Y-104213344D01*
X161146954Y-104213347D01*
X161236652Y-104303045D01*
X161236654Y-104303046D01*
X161236658Y-104303050D01*
X161349696Y-104360646D01*
X161349697Y-104360646D01*
X161349699Y-104360647D01*
X161474997Y-104380492D01*
X161475000Y-104380492D01*
X161475003Y-104380492D01*
X161509659Y-104375003D01*
X170276790Y-104375003D01*
X170297501Y-104505775D01*
X170297501Y-104505776D01*
X170297503Y-104505779D01*
X170357616Y-104623757D01*
X170357618Y-104623759D01*
X170357620Y-104623762D01*
X170451237Y-104717379D01*
X170451239Y-104717380D01*
X170451243Y-104717384D01*
X170569221Y-104777497D01*
X170569222Y-104777497D01*
X170569224Y-104777498D01*
X170699997Y-104798210D01*
X170700000Y-104798210D01*
X170700003Y-104798210D01*
X170830775Y-104777498D01*
X170830776Y-104777498D01*
X170830777Y-104777497D01*
X170830779Y-104777497D01*
X170948757Y-104717384D01*
X171042384Y-104623757D01*
X171102497Y-104505779D01*
X171102497Y-104505777D01*
X171102498Y-104505776D01*
X171102498Y-104505775D01*
X171123210Y-104375003D01*
X171123210Y-104374996D01*
X171102498Y-104244224D01*
X171102498Y-104244223D01*
X171102497Y-104244221D01*
X171042384Y-104126243D01*
X171042380Y-104126239D01*
X171042379Y-104126237D01*
X170948762Y-104032620D01*
X170948759Y-104032618D01*
X170948757Y-104032616D01*
X170830779Y-103972503D01*
X170830778Y-103972502D01*
X170830775Y-103972501D01*
X170700003Y-103951790D01*
X170699997Y-103951790D01*
X170569224Y-103972501D01*
X170569223Y-103972501D01*
X170490569Y-104012578D01*
X170451243Y-104032616D01*
X170451242Y-104032617D01*
X170451237Y-104032620D01*
X170357620Y-104126237D01*
X170357617Y-104126242D01*
X170297501Y-104244223D01*
X170297501Y-104244224D01*
X170276790Y-104374996D01*
X170276790Y-104375003D01*
X161509659Y-104375003D01*
X161600300Y-104360647D01*
X161600301Y-104360647D01*
X161600302Y-104360646D01*
X161600304Y-104360646D01*
X161713342Y-104303050D01*
X161803050Y-104213342D01*
X161860646Y-104100304D01*
X161860646Y-104100302D01*
X161860647Y-104100301D01*
X161860647Y-104100300D01*
X161880492Y-103975003D01*
X161880492Y-103974996D01*
X161860647Y-103849699D01*
X161860647Y-103849698D01*
X161860646Y-103849696D01*
X161803050Y-103736658D01*
X161803046Y-103736654D01*
X161803045Y-103736652D01*
X161713347Y-103646954D01*
X161713344Y-103646952D01*
X161713342Y-103646950D01*
X161600304Y-103589354D01*
X161600303Y-103589353D01*
X161600300Y-103589352D01*
X161475003Y-103569508D01*
X161474997Y-103569508D01*
X161349699Y-103589352D01*
X161349698Y-103589352D01*
X161274337Y-103627751D01*
X161236658Y-103646950D01*
X161236657Y-103646951D01*
X161236652Y-103646954D01*
X161146954Y-103736652D01*
X161146951Y-103736657D01*
X161089352Y-103849698D01*
X161089352Y-103849699D01*
X161069508Y-103974996D01*
X161069508Y-103975003D01*
X154091145Y-103975003D01*
X154048762Y-103932620D01*
X154048759Y-103932618D01*
X154048757Y-103932616D01*
X153930779Y-103872503D01*
X153930778Y-103872502D01*
X153930775Y-103872501D01*
X153800003Y-103851790D01*
X153799997Y-103851790D01*
X153669224Y-103872501D01*
X153669223Y-103872501D01*
X153590569Y-103912578D01*
X153551243Y-103932616D01*
X153551242Y-103932617D01*
X153551237Y-103932620D01*
X153457620Y-104026237D01*
X153457617Y-104026242D01*
X153457616Y-104026243D01*
X153454367Y-104032620D01*
X153397501Y-104144223D01*
X153397501Y-104144224D01*
X153376790Y-104274996D01*
X153376790Y-104275003D01*
X152773210Y-104275003D01*
X152773210Y-104274996D01*
X152752498Y-104144224D01*
X152752498Y-104144223D01*
X152752497Y-104144221D01*
X152692384Y-104026243D01*
X152692380Y-104026239D01*
X152692379Y-104026237D01*
X152598762Y-103932620D01*
X152598759Y-103932618D01*
X152598757Y-103932616D01*
X152480779Y-103872503D01*
X152480778Y-103872502D01*
X152480775Y-103872501D01*
X152350003Y-103851790D01*
X152349997Y-103851790D01*
X152219224Y-103872501D01*
X152219223Y-103872501D01*
X152140569Y-103912578D01*
X152101243Y-103932616D01*
X152101242Y-103932617D01*
X152101237Y-103932620D01*
X152007620Y-104026237D01*
X152007617Y-104026242D01*
X152007616Y-104026243D01*
X152004367Y-104032620D01*
X151947501Y-104144223D01*
X151947501Y-104144224D01*
X151926790Y-104274996D01*
X151926790Y-104275003D01*
X150914714Y-104275003D01*
X150914714Y-102900003D01*
X161019508Y-102900003D01*
X161039352Y-103025300D01*
X161039352Y-103025301D01*
X161039354Y-103025304D01*
X161096950Y-103138342D01*
X161096952Y-103138344D01*
X161096954Y-103138347D01*
X161186652Y-103228045D01*
X161186654Y-103228046D01*
X161186658Y-103228050D01*
X161299696Y-103285646D01*
X161299697Y-103285646D01*
X161299699Y-103285647D01*
X161424997Y-103305492D01*
X161425000Y-103305492D01*
X161425003Y-103305492D01*
X161550300Y-103285647D01*
X161550301Y-103285647D01*
X161550302Y-103285646D01*
X161550304Y-103285646D01*
X161663342Y-103228050D01*
X161753050Y-103138342D01*
X161810646Y-103025304D01*
X161810646Y-103025302D01*
X161810647Y-103025301D01*
X161810647Y-103025300D01*
X161830492Y-102900003D01*
X161830492Y-102899996D01*
X161810647Y-102774699D01*
X161810647Y-102774698D01*
X161810646Y-102774696D01*
X161785326Y-102725003D01*
X164244508Y-102725003D01*
X164264352Y-102850300D01*
X164264352Y-102850301D01*
X164264354Y-102850304D01*
X164321950Y-102963342D01*
X164321952Y-102963344D01*
X164321954Y-102963347D01*
X164411652Y-103053045D01*
X164411654Y-103053046D01*
X164411658Y-103053050D01*
X164524696Y-103110646D01*
X164524697Y-103110646D01*
X164524699Y-103110647D01*
X164649997Y-103130492D01*
X164650000Y-103130492D01*
X164650003Y-103130492D01*
X164775300Y-103110647D01*
X164775301Y-103110647D01*
X164775302Y-103110646D01*
X164775304Y-103110646D01*
X164845257Y-103075003D01*
X170276790Y-103075003D01*
X170297501Y-103205775D01*
X170297501Y-103205776D01*
X170316761Y-103243575D01*
X170357616Y-103323757D01*
X170357618Y-103323759D01*
X170357620Y-103323762D01*
X170451237Y-103417379D01*
X170451239Y-103417380D01*
X170451243Y-103417384D01*
X170569221Y-103477497D01*
X170569222Y-103477497D01*
X170569224Y-103477498D01*
X170699997Y-103498210D01*
X170700000Y-103498210D01*
X170700003Y-103498210D01*
X170830775Y-103477498D01*
X170830776Y-103477498D01*
X170830777Y-103477497D01*
X170830779Y-103477497D01*
X170948757Y-103417384D01*
X171042384Y-103323757D01*
X171102497Y-103205779D01*
X171102497Y-103205777D01*
X171102498Y-103205776D01*
X171102498Y-103205775D01*
X171123210Y-103075003D01*
X171123210Y-103074996D01*
X171102498Y-102944224D01*
X171102498Y-102944223D01*
X171102497Y-102944221D01*
X171042384Y-102826243D01*
X171042380Y-102826239D01*
X171042379Y-102826237D01*
X170948762Y-102732620D01*
X170948759Y-102732618D01*
X170948757Y-102732616D01*
X170830779Y-102672503D01*
X170830778Y-102672502D01*
X170830775Y-102672501D01*
X170700003Y-102651790D01*
X170699997Y-102651790D01*
X170569224Y-102672501D01*
X170569223Y-102672501D01*
X170490569Y-102712578D01*
X170451243Y-102732616D01*
X170451242Y-102732617D01*
X170451237Y-102732620D01*
X170357620Y-102826237D01*
X170357617Y-102826242D01*
X170297501Y-102944223D01*
X170297501Y-102944224D01*
X170276790Y-103074996D01*
X170276790Y-103075003D01*
X164845257Y-103075003D01*
X164888342Y-103053050D01*
X164978050Y-102963342D01*
X165035646Y-102850304D01*
X165035646Y-102850302D01*
X165035647Y-102850301D01*
X165035647Y-102850300D01*
X165055492Y-102725003D01*
X165055492Y-102724996D01*
X165035647Y-102599699D01*
X165035647Y-102599698D01*
X165022429Y-102573757D01*
X164978050Y-102486658D01*
X164978046Y-102486654D01*
X164978045Y-102486652D01*
X164888347Y-102396954D01*
X164888344Y-102396952D01*
X164888342Y-102396950D01*
X164775304Y-102339354D01*
X164775303Y-102339353D01*
X164775300Y-102339352D01*
X164650003Y-102319508D01*
X164649997Y-102319508D01*
X164524699Y-102339352D01*
X164524698Y-102339352D01*
X164477607Y-102363347D01*
X164411658Y-102396950D01*
X164411657Y-102396951D01*
X164411652Y-102396954D01*
X164321954Y-102486652D01*
X164321951Y-102486657D01*
X164321950Y-102486658D01*
X164309727Y-102510647D01*
X164264352Y-102599698D01*
X164264352Y-102599699D01*
X164244508Y-102724996D01*
X164244508Y-102725003D01*
X161785326Y-102725003D01*
X161753050Y-102661658D01*
X161753046Y-102661654D01*
X161753045Y-102661652D01*
X161663347Y-102571954D01*
X161663344Y-102571952D01*
X161663342Y-102571950D01*
X161550304Y-102514354D01*
X161550303Y-102514353D01*
X161550300Y-102514352D01*
X161425003Y-102494508D01*
X161424997Y-102494508D01*
X161299699Y-102514352D01*
X161299698Y-102514352D01*
X161224337Y-102552751D01*
X161186658Y-102571950D01*
X161186657Y-102571951D01*
X161186652Y-102571954D01*
X161096954Y-102661652D01*
X161096951Y-102661657D01*
X161096950Y-102661658D01*
X161077751Y-102699337D01*
X161039352Y-102774698D01*
X161039352Y-102774699D01*
X161019508Y-102899996D01*
X161019508Y-102900003D01*
X150914714Y-102900003D01*
X150914714Y-102325003D01*
X151876790Y-102325003D01*
X151897501Y-102455775D01*
X151897501Y-102455776D01*
X151897503Y-102455779D01*
X151957616Y-102573757D01*
X151957618Y-102573759D01*
X151957620Y-102573762D01*
X152051237Y-102667379D01*
X152051239Y-102667380D01*
X152051243Y-102667384D01*
X152169221Y-102727497D01*
X152169222Y-102727497D01*
X152169224Y-102727498D01*
X152299997Y-102748210D01*
X152300000Y-102748210D01*
X152300003Y-102748210D01*
X152430775Y-102727498D01*
X152430776Y-102727498D01*
X152430777Y-102727497D01*
X152430779Y-102727497D01*
X152548757Y-102667384D01*
X152642384Y-102573757D01*
X152702497Y-102455779D01*
X152702497Y-102455777D01*
X152702498Y-102455776D01*
X152702498Y-102455775D01*
X152723210Y-102325003D01*
X153326790Y-102325003D01*
X153347501Y-102455775D01*
X153347501Y-102455776D01*
X153347503Y-102455779D01*
X153407616Y-102573757D01*
X153407618Y-102573759D01*
X153407620Y-102573762D01*
X153501237Y-102667379D01*
X153501239Y-102667380D01*
X153501243Y-102667384D01*
X153619221Y-102727497D01*
X153619222Y-102727497D01*
X153619224Y-102727498D01*
X153749997Y-102748210D01*
X153750000Y-102748210D01*
X153750003Y-102748210D01*
X153880775Y-102727498D01*
X153880776Y-102727498D01*
X153880777Y-102727497D01*
X153880779Y-102727497D01*
X153998757Y-102667384D01*
X154092384Y-102573757D01*
X154152497Y-102455779D01*
X154152497Y-102455777D01*
X154152498Y-102455776D01*
X154152498Y-102455775D01*
X154173210Y-102325003D01*
X154173210Y-102324996D01*
X154152498Y-102194224D01*
X154152498Y-102194223D01*
X154152497Y-102194221D01*
X154117229Y-102125003D01*
X154569508Y-102125003D01*
X154589352Y-102250300D01*
X154589352Y-102250301D01*
X154589354Y-102250304D01*
X154646950Y-102363342D01*
X154646952Y-102363344D01*
X154646954Y-102363347D01*
X154736652Y-102453045D01*
X154736654Y-102453046D01*
X154736658Y-102453050D01*
X154849696Y-102510646D01*
X154849697Y-102510646D01*
X154849699Y-102510647D01*
X154974997Y-102530492D01*
X154975000Y-102530492D01*
X154975003Y-102530492D01*
X155100300Y-102510647D01*
X155100301Y-102510647D01*
X155100302Y-102510646D01*
X155100304Y-102510646D01*
X155213342Y-102453050D01*
X155303050Y-102363342D01*
X155360646Y-102250304D01*
X155360646Y-102250302D01*
X155360647Y-102250301D01*
X155360647Y-102250300D01*
X155380492Y-102125003D01*
X155380492Y-102124996D01*
X155360695Y-102000003D01*
X157044508Y-102000003D01*
X157064352Y-102125300D01*
X157064352Y-102125301D01*
X157064354Y-102125304D01*
X157121950Y-102238342D01*
X157121952Y-102238344D01*
X157121954Y-102238347D01*
X157211652Y-102328045D01*
X157211654Y-102328046D01*
X157211658Y-102328050D01*
X157324696Y-102385646D01*
X157324697Y-102385646D01*
X157324699Y-102385647D01*
X157449997Y-102405492D01*
X157450000Y-102405492D01*
X157450003Y-102405492D01*
X157575300Y-102385647D01*
X157575301Y-102385647D01*
X157575302Y-102385646D01*
X157575304Y-102385646D01*
X157688342Y-102328050D01*
X157778050Y-102238342D01*
X157835646Y-102125304D01*
X157835646Y-102125302D01*
X157835647Y-102125301D01*
X157835647Y-102125300D01*
X157855492Y-102000003D01*
X163394508Y-102000003D01*
X163414352Y-102125300D01*
X163414352Y-102125301D01*
X163414354Y-102125304D01*
X163471950Y-102238342D01*
X163471952Y-102238344D01*
X163471954Y-102238347D01*
X163561652Y-102328045D01*
X163561654Y-102328046D01*
X163561658Y-102328050D01*
X163674696Y-102385646D01*
X163674697Y-102385646D01*
X163674699Y-102385647D01*
X163799997Y-102405492D01*
X163800000Y-102405492D01*
X163800003Y-102405492D01*
X163925300Y-102385647D01*
X163925301Y-102385647D01*
X163925302Y-102385646D01*
X163925304Y-102385646D01*
X164038342Y-102328050D01*
X164128050Y-102238342D01*
X164185646Y-102125304D01*
X164185646Y-102125302D01*
X164185647Y-102125301D01*
X164185647Y-102125300D01*
X164205492Y-102000003D01*
X164205492Y-101999996D01*
X164185647Y-101874699D01*
X164185647Y-101874698D01*
X164185168Y-101873757D01*
X164128050Y-101761658D01*
X164128046Y-101761654D01*
X164128045Y-101761652D01*
X164038347Y-101671954D01*
X164038344Y-101671952D01*
X164038342Y-101671950D01*
X163946204Y-101625003D01*
X170276790Y-101625003D01*
X170297501Y-101755775D01*
X170297501Y-101755776D01*
X170316761Y-101793575D01*
X170357616Y-101873757D01*
X170357618Y-101873759D01*
X170357620Y-101873762D01*
X170451237Y-101967379D01*
X170451239Y-101967380D01*
X170451243Y-101967384D01*
X170569221Y-102027497D01*
X170569222Y-102027497D01*
X170569224Y-102027498D01*
X170699997Y-102048210D01*
X170700000Y-102048210D01*
X170700003Y-102048210D01*
X170830775Y-102027498D01*
X170830776Y-102027498D01*
X170830777Y-102027497D01*
X170830779Y-102027497D01*
X170948757Y-101967384D01*
X171042384Y-101873757D01*
X171102497Y-101755779D01*
X171102497Y-101755777D01*
X171102498Y-101755776D01*
X171102498Y-101755775D01*
X171123210Y-101625003D01*
X171123210Y-101624996D01*
X171102498Y-101494224D01*
X171102498Y-101494223D01*
X171094255Y-101478045D01*
X171042384Y-101376243D01*
X171042380Y-101376239D01*
X171042379Y-101376237D01*
X170948762Y-101282620D01*
X170948759Y-101282618D01*
X170948757Y-101282616D01*
X170830779Y-101222503D01*
X170830778Y-101222502D01*
X170830775Y-101222501D01*
X170700003Y-101201790D01*
X170699997Y-101201790D01*
X170569224Y-101222501D01*
X170569223Y-101222501D01*
X170490569Y-101262578D01*
X170451243Y-101282616D01*
X170451242Y-101282617D01*
X170451237Y-101282620D01*
X170357620Y-101376237D01*
X170357617Y-101376242D01*
X170357616Y-101376243D01*
X170351449Y-101388347D01*
X170297501Y-101494223D01*
X170297501Y-101494224D01*
X170276790Y-101624996D01*
X170276790Y-101625003D01*
X163946204Y-101625003D01*
X163925304Y-101614354D01*
X163925303Y-101614353D01*
X163925300Y-101614352D01*
X163800003Y-101594508D01*
X163799997Y-101594508D01*
X163674699Y-101614352D01*
X163674698Y-101614352D01*
X163599337Y-101652751D01*
X163561658Y-101671950D01*
X163561657Y-101671951D01*
X163561652Y-101671954D01*
X163471954Y-101761652D01*
X163471951Y-101761657D01*
X163414352Y-101874698D01*
X163414352Y-101874699D01*
X163394508Y-101999996D01*
X163394508Y-102000003D01*
X157855492Y-102000003D01*
X157855492Y-101999996D01*
X157835647Y-101874699D01*
X157835647Y-101874698D01*
X157835168Y-101873757D01*
X157778050Y-101761658D01*
X157778046Y-101761654D01*
X157778045Y-101761652D01*
X157688347Y-101671954D01*
X157688344Y-101671952D01*
X157688342Y-101671950D01*
X157575304Y-101614354D01*
X157575303Y-101614353D01*
X157575300Y-101614352D01*
X157450003Y-101594508D01*
X157449997Y-101594508D01*
X157324699Y-101614352D01*
X157324698Y-101614352D01*
X157249337Y-101652751D01*
X157211658Y-101671950D01*
X157211657Y-101671951D01*
X157211652Y-101671954D01*
X157121954Y-101761652D01*
X157121951Y-101761657D01*
X157064352Y-101874698D01*
X157064352Y-101874699D01*
X157044508Y-101999996D01*
X157044508Y-102000003D01*
X155360695Y-102000003D01*
X155360647Y-101999699D01*
X155360647Y-101999698D01*
X155344181Y-101967382D01*
X155303050Y-101886658D01*
X155303046Y-101886654D01*
X155303045Y-101886652D01*
X155213347Y-101796954D01*
X155213344Y-101796952D01*
X155213342Y-101796950D01*
X155100304Y-101739354D01*
X155100303Y-101739353D01*
X155100300Y-101739352D01*
X154975003Y-101719508D01*
X154974997Y-101719508D01*
X154849699Y-101739352D01*
X154849698Y-101739352D01*
X154774337Y-101777751D01*
X154736658Y-101796950D01*
X154736657Y-101796951D01*
X154736652Y-101796954D01*
X154646954Y-101886652D01*
X154646951Y-101886657D01*
X154589352Y-101999698D01*
X154589352Y-101999699D01*
X154569508Y-102124996D01*
X154569508Y-102125003D01*
X154117229Y-102125003D01*
X154092384Y-102076243D01*
X154092380Y-102076239D01*
X154092379Y-102076237D01*
X153998762Y-101982620D01*
X153998759Y-101982618D01*
X153998757Y-101982616D01*
X153880779Y-101922503D01*
X153880778Y-101922502D01*
X153880775Y-101922501D01*
X153750003Y-101901790D01*
X153749997Y-101901790D01*
X153619224Y-101922501D01*
X153619223Y-101922501D01*
X153540569Y-101962578D01*
X153501243Y-101982616D01*
X153501242Y-101982617D01*
X153501237Y-101982620D01*
X153407620Y-102076237D01*
X153407617Y-102076242D01*
X153347501Y-102194223D01*
X153347501Y-102194224D01*
X153326790Y-102324996D01*
X153326790Y-102325003D01*
X152723210Y-102325003D01*
X152723210Y-102324996D01*
X152702498Y-102194224D01*
X152702498Y-102194223D01*
X152702497Y-102194221D01*
X152642384Y-102076243D01*
X152642380Y-102076239D01*
X152642379Y-102076237D01*
X152548762Y-101982620D01*
X152548759Y-101982618D01*
X152548757Y-101982616D01*
X152430779Y-101922503D01*
X152430778Y-101922502D01*
X152430775Y-101922501D01*
X152300003Y-101901790D01*
X152299997Y-101901790D01*
X152169224Y-101922501D01*
X152169223Y-101922501D01*
X152090569Y-101962578D01*
X152051243Y-101982616D01*
X152051242Y-101982617D01*
X152051237Y-101982620D01*
X151957620Y-102076237D01*
X151957617Y-102076242D01*
X151897501Y-102194223D01*
X151897501Y-102194224D01*
X151876790Y-102324996D01*
X151876790Y-102325003D01*
X150914714Y-102325003D01*
X150914714Y-101150003D01*
X164194508Y-101150003D01*
X164214352Y-101275300D01*
X164214352Y-101275301D01*
X164232805Y-101311517D01*
X164271950Y-101388342D01*
X164271952Y-101388344D01*
X164271954Y-101388347D01*
X164361652Y-101478045D01*
X164361654Y-101478046D01*
X164361658Y-101478050D01*
X164474696Y-101535646D01*
X164474697Y-101535646D01*
X164474699Y-101535647D01*
X164599997Y-101555492D01*
X164600000Y-101555492D01*
X164600003Y-101555492D01*
X164725300Y-101535647D01*
X164725301Y-101535647D01*
X164725302Y-101535646D01*
X164725304Y-101535646D01*
X164838342Y-101478050D01*
X164928050Y-101388342D01*
X164985646Y-101275304D01*
X164985646Y-101275302D01*
X164985647Y-101275301D01*
X164985647Y-101275300D01*
X165005492Y-101150003D01*
X165005492Y-101149996D01*
X164985647Y-101024699D01*
X164985647Y-101024698D01*
X164985646Y-101024696D01*
X164928050Y-100911658D01*
X164928046Y-100911654D01*
X164928045Y-100911652D01*
X164838347Y-100821954D01*
X164838344Y-100821952D01*
X164838342Y-100821950D01*
X164725304Y-100764354D01*
X164725303Y-100764353D01*
X164725300Y-100764352D01*
X164600003Y-100744508D01*
X164599997Y-100744508D01*
X164474699Y-100764352D01*
X164474698Y-100764352D01*
X164419694Y-100792379D01*
X164361658Y-100821950D01*
X164361657Y-100821951D01*
X164361652Y-100821954D01*
X164271954Y-100911652D01*
X164271951Y-100911657D01*
X164214352Y-101024698D01*
X164214352Y-101024699D01*
X164194508Y-101149996D01*
X164194508Y-101150003D01*
X150914714Y-101150003D01*
X150914714Y-100450003D01*
X151876790Y-100450003D01*
X151897501Y-100580775D01*
X151897501Y-100580776D01*
X151903415Y-100592382D01*
X151957616Y-100698757D01*
X151957618Y-100698759D01*
X151957620Y-100698762D01*
X152051237Y-100792379D01*
X152051239Y-100792380D01*
X152051243Y-100792384D01*
X152169221Y-100852497D01*
X152169222Y-100852497D01*
X152169224Y-100852498D01*
X152299997Y-100873210D01*
X152300000Y-100873210D01*
X152300003Y-100873210D01*
X152430775Y-100852498D01*
X152430776Y-100852498D01*
X152430777Y-100852497D01*
X152430779Y-100852497D01*
X152548757Y-100792384D01*
X152642384Y-100698757D01*
X152702497Y-100580779D01*
X152702497Y-100580777D01*
X152702498Y-100580776D01*
X152702498Y-100580775D01*
X152723210Y-100450003D01*
X153326790Y-100450003D01*
X153347501Y-100580775D01*
X153347501Y-100580776D01*
X153353415Y-100592382D01*
X153407616Y-100698757D01*
X153407618Y-100698759D01*
X153407620Y-100698762D01*
X153501237Y-100792379D01*
X153501239Y-100792380D01*
X153501243Y-100792384D01*
X153619221Y-100852497D01*
X153619222Y-100852497D01*
X153619224Y-100852498D01*
X153749997Y-100873210D01*
X153750000Y-100873210D01*
X153750003Y-100873210D01*
X153880775Y-100852498D01*
X153880776Y-100852498D01*
X153880777Y-100852497D01*
X153880779Y-100852497D01*
X153998757Y-100792384D01*
X154092384Y-100698757D01*
X154152497Y-100580779D01*
X154152497Y-100580777D01*
X154152498Y-100580776D01*
X154152498Y-100580775D01*
X154165291Y-100500003D01*
X155126790Y-100500003D01*
X155147501Y-100630775D01*
X155147501Y-100630776D01*
X155160241Y-100655779D01*
X155207616Y-100748757D01*
X155207618Y-100748759D01*
X155207620Y-100748762D01*
X155301237Y-100842379D01*
X155301239Y-100842380D01*
X155301243Y-100842384D01*
X155419221Y-100902497D01*
X155419222Y-100902497D01*
X155419224Y-100902498D01*
X155549997Y-100923210D01*
X155550000Y-100923210D01*
X155550003Y-100923210D01*
X155680775Y-100902498D01*
X155680776Y-100902498D01*
X155680777Y-100902497D01*
X155680779Y-100902497D01*
X155798757Y-100842384D01*
X155892384Y-100748757D01*
X155952497Y-100630779D01*
X155952497Y-100630777D01*
X155952498Y-100630776D01*
X155952498Y-100630775D01*
X155969250Y-100525003D01*
X157101790Y-100525003D01*
X157122501Y-100655775D01*
X157122501Y-100655776D01*
X157141761Y-100693575D01*
X157182616Y-100773757D01*
X157182618Y-100773759D01*
X157182620Y-100773762D01*
X157276237Y-100867379D01*
X157276239Y-100867380D01*
X157276243Y-100867384D01*
X157394221Y-100927497D01*
X157394222Y-100927497D01*
X157394224Y-100927498D01*
X157524997Y-100948210D01*
X157525000Y-100948210D01*
X157525003Y-100948210D01*
X157655775Y-100927498D01*
X157655776Y-100927498D01*
X157655777Y-100927497D01*
X157655779Y-100927497D01*
X157773757Y-100867384D01*
X157867384Y-100773757D01*
X157927497Y-100655779D01*
X157927497Y-100655777D01*
X157927498Y-100655776D01*
X157927498Y-100655775D01*
X157948210Y-100525003D01*
X157948210Y-100524996D01*
X157927498Y-100394224D01*
X157927498Y-100394223D01*
X157914760Y-100369223D01*
X157867384Y-100276243D01*
X157867380Y-100276239D01*
X157867379Y-100276237D01*
X157841145Y-100250003D01*
X170351790Y-100250003D01*
X170372501Y-100380775D01*
X170372501Y-100380776D01*
X170391761Y-100418575D01*
X170432616Y-100498757D01*
X170432618Y-100498759D01*
X170432620Y-100498762D01*
X170526237Y-100592379D01*
X170526239Y-100592380D01*
X170526243Y-100592384D01*
X170644221Y-100652497D01*
X170644222Y-100652497D01*
X170644224Y-100652498D01*
X170774997Y-100673210D01*
X170775000Y-100673210D01*
X170775003Y-100673210D01*
X170905775Y-100652498D01*
X170905776Y-100652498D01*
X170905777Y-100652497D01*
X170905779Y-100652497D01*
X171023757Y-100592384D01*
X171117384Y-100498757D01*
X171177497Y-100380779D01*
X171177497Y-100380777D01*
X171177498Y-100380776D01*
X171177498Y-100380775D01*
X171198210Y-100250003D01*
X171198210Y-100249996D01*
X171177498Y-100119224D01*
X171177498Y-100119223D01*
X171155877Y-100076790D01*
X171117384Y-100001243D01*
X171117380Y-100001239D01*
X171117379Y-100001237D01*
X171023762Y-99907620D01*
X171023759Y-99907618D01*
X171023757Y-99907616D01*
X170905779Y-99847503D01*
X170905778Y-99847502D01*
X170905775Y-99847501D01*
X170775003Y-99826790D01*
X170774997Y-99826790D01*
X170644224Y-99847501D01*
X170644223Y-99847501D01*
X170565569Y-99887578D01*
X170526243Y-99907616D01*
X170526242Y-99907617D01*
X170526237Y-99907620D01*
X170432620Y-100001237D01*
X170432617Y-100001242D01*
X170372501Y-100119223D01*
X170372501Y-100119224D01*
X170351790Y-100249996D01*
X170351790Y-100250003D01*
X157841145Y-100250003D01*
X157773762Y-100182620D01*
X157773759Y-100182618D01*
X157773757Y-100182616D01*
X157655779Y-100122503D01*
X157655778Y-100122502D01*
X157655775Y-100122501D01*
X157525003Y-100101790D01*
X157524997Y-100101790D01*
X157394224Y-100122501D01*
X157394223Y-100122501D01*
X157325308Y-100157616D01*
X157276243Y-100182616D01*
X157276242Y-100182617D01*
X157276237Y-100182620D01*
X157182620Y-100276237D01*
X157182617Y-100276242D01*
X157122501Y-100394223D01*
X157122501Y-100394224D01*
X157101790Y-100524996D01*
X157101790Y-100525003D01*
X155969250Y-100525003D01*
X155973210Y-100500003D01*
X155973210Y-100499996D01*
X155952498Y-100369224D01*
X155952498Y-100369223D01*
X155927022Y-100319224D01*
X155892384Y-100251243D01*
X155892380Y-100251239D01*
X155892379Y-100251237D01*
X155798762Y-100157620D01*
X155798759Y-100157618D01*
X155798757Y-100157616D01*
X155680779Y-100097503D01*
X155680778Y-100097502D01*
X155680775Y-100097501D01*
X155550003Y-100076790D01*
X155549997Y-100076790D01*
X155419224Y-100097501D01*
X155419223Y-100097501D01*
X155340569Y-100137578D01*
X155301243Y-100157616D01*
X155301242Y-100157617D01*
X155301237Y-100157620D01*
X155207620Y-100251237D01*
X155207617Y-100251242D01*
X155207616Y-100251243D01*
X155194878Y-100276243D01*
X155147501Y-100369223D01*
X155147501Y-100369224D01*
X155126790Y-100499996D01*
X155126790Y-100500003D01*
X154165291Y-100500003D01*
X154173210Y-100450003D01*
X154173210Y-100449996D01*
X154152498Y-100319224D01*
X154152498Y-100319223D01*
X154152497Y-100319221D01*
X154092384Y-100201243D01*
X154092380Y-100201239D01*
X154092379Y-100201237D01*
X153998762Y-100107620D01*
X153998759Y-100107618D01*
X153998757Y-100107616D01*
X153880779Y-100047503D01*
X153880778Y-100047502D01*
X153880775Y-100047501D01*
X153750003Y-100026790D01*
X153749997Y-100026790D01*
X153619224Y-100047501D01*
X153619223Y-100047501D01*
X153561742Y-100076790D01*
X153501243Y-100107616D01*
X153501242Y-100107617D01*
X153501237Y-100107620D01*
X153407620Y-100201237D01*
X153407617Y-100201242D01*
X153347501Y-100319223D01*
X153347501Y-100319224D01*
X153326790Y-100449996D01*
X153326790Y-100450003D01*
X152723210Y-100450003D01*
X152723210Y-100449996D01*
X152702498Y-100319224D01*
X152702498Y-100319223D01*
X152702497Y-100319221D01*
X152642384Y-100201243D01*
X152642380Y-100201239D01*
X152642379Y-100201237D01*
X152548762Y-100107620D01*
X152548759Y-100107618D01*
X152548757Y-100107616D01*
X152430779Y-100047503D01*
X152430778Y-100047502D01*
X152430775Y-100047501D01*
X152300003Y-100026790D01*
X152299997Y-100026790D01*
X152169224Y-100047501D01*
X152169223Y-100047501D01*
X152111742Y-100076790D01*
X152051243Y-100107616D01*
X152051242Y-100107617D01*
X152051237Y-100107620D01*
X151957620Y-100201237D01*
X151957617Y-100201242D01*
X151897501Y-100319223D01*
X151897501Y-100319224D01*
X151876790Y-100449996D01*
X151876790Y-100450003D01*
X150914714Y-100450003D01*
X150914714Y-98725003D01*
X151851790Y-98725003D01*
X151872501Y-98855775D01*
X151872501Y-98855776D01*
X151872503Y-98855779D01*
X151932616Y-98973757D01*
X151932618Y-98973759D01*
X151932620Y-98973762D01*
X152026237Y-99067379D01*
X152026239Y-99067380D01*
X152026243Y-99067384D01*
X152144221Y-99127497D01*
X152144222Y-99127497D01*
X152144224Y-99127498D01*
X152274997Y-99148210D01*
X152275000Y-99148210D01*
X152275003Y-99148210D01*
X152405775Y-99127498D01*
X152405776Y-99127498D01*
X152405777Y-99127497D01*
X152405779Y-99127497D01*
X152523757Y-99067384D01*
X152617384Y-98973757D01*
X152677497Y-98855779D01*
X152677497Y-98855777D01*
X152677498Y-98855776D01*
X152677498Y-98855775D01*
X152698210Y-98725003D01*
X153301790Y-98725003D01*
X153322501Y-98855775D01*
X153322501Y-98855776D01*
X153322503Y-98855779D01*
X153382616Y-98973757D01*
X153382618Y-98973759D01*
X153382620Y-98973762D01*
X153476237Y-99067379D01*
X153476239Y-99067380D01*
X153476243Y-99067384D01*
X153594221Y-99127497D01*
X153594222Y-99127497D01*
X153594224Y-99127498D01*
X153724997Y-99148210D01*
X153725000Y-99148210D01*
X153725003Y-99148210D01*
X153855775Y-99127498D01*
X153855776Y-99127498D01*
X153855777Y-99127497D01*
X153855779Y-99127497D01*
X153973757Y-99067384D01*
X154067384Y-98973757D01*
X154127497Y-98855779D01*
X154127497Y-98855777D01*
X154127498Y-98855776D01*
X154127498Y-98855775D01*
X154148210Y-98725003D01*
X155126790Y-98725003D01*
X155147501Y-98855775D01*
X155147501Y-98855776D01*
X155147503Y-98855779D01*
X155207616Y-98973757D01*
X155207618Y-98973759D01*
X155207620Y-98973762D01*
X155301237Y-99067379D01*
X155301239Y-99067380D01*
X155301243Y-99067384D01*
X155419221Y-99127497D01*
X155419222Y-99127497D01*
X155419224Y-99127498D01*
X155549997Y-99148210D01*
X155550000Y-99148210D01*
X155550003Y-99148210D01*
X155680775Y-99127498D01*
X155680776Y-99127498D01*
X155680777Y-99127497D01*
X155680779Y-99127497D01*
X155798757Y-99067384D01*
X155892384Y-98973757D01*
X155952497Y-98855779D01*
X155952497Y-98855777D01*
X155952498Y-98855776D01*
X155952498Y-98855775D01*
X155973210Y-98725003D01*
X155973210Y-98724996D01*
X155969252Y-98700003D01*
X157076790Y-98700003D01*
X157097501Y-98830775D01*
X157097501Y-98830776D01*
X157110241Y-98855779D01*
X157157616Y-98948757D01*
X157157618Y-98948759D01*
X157157620Y-98948762D01*
X157251237Y-99042379D01*
X157251239Y-99042380D01*
X157251243Y-99042384D01*
X157369221Y-99102497D01*
X157369222Y-99102497D01*
X157369224Y-99102498D01*
X157499997Y-99123210D01*
X157500000Y-99123210D01*
X157500003Y-99123210D01*
X157630775Y-99102498D01*
X157630776Y-99102498D01*
X157630777Y-99102497D01*
X157630779Y-99102497D01*
X157748757Y-99042384D01*
X157842384Y-98948757D01*
X157902497Y-98830779D01*
X157902497Y-98830777D01*
X157902498Y-98830776D01*
X157902498Y-98830775D01*
X157919250Y-98725003D01*
X170326790Y-98725003D01*
X170347501Y-98855775D01*
X170347501Y-98855776D01*
X170347503Y-98855779D01*
X170407616Y-98973757D01*
X170407618Y-98973759D01*
X170407620Y-98973762D01*
X170501237Y-99067379D01*
X170501239Y-99067380D01*
X170501243Y-99067384D01*
X170619221Y-99127497D01*
X170619222Y-99127497D01*
X170619224Y-99127498D01*
X170749997Y-99148210D01*
X170750000Y-99148210D01*
X170750003Y-99148210D01*
X170880775Y-99127498D01*
X170880776Y-99127498D01*
X170880777Y-99127497D01*
X170880779Y-99127497D01*
X170998757Y-99067384D01*
X171092384Y-98973757D01*
X171152497Y-98855779D01*
X171152497Y-98855777D01*
X171152498Y-98855776D01*
X171152498Y-98855775D01*
X171173210Y-98725003D01*
X171701790Y-98725003D01*
X171722501Y-98855775D01*
X171722501Y-98855776D01*
X171722503Y-98855779D01*
X171782616Y-98973757D01*
X171782618Y-98973759D01*
X171782620Y-98973762D01*
X171876237Y-99067379D01*
X171876239Y-99067380D01*
X171876243Y-99067384D01*
X171994221Y-99127497D01*
X171994222Y-99127497D01*
X171994224Y-99127498D01*
X172124997Y-99148210D01*
X172125000Y-99148210D01*
X172125003Y-99148210D01*
X172255775Y-99127498D01*
X172255776Y-99127498D01*
X172255777Y-99127497D01*
X172255779Y-99127497D01*
X172373757Y-99067384D01*
X172467384Y-98973757D01*
X172527497Y-98855779D01*
X172527497Y-98855777D01*
X172527498Y-98855776D01*
X172527498Y-98855775D01*
X172548210Y-98725003D01*
X172548210Y-98724996D01*
X172527498Y-98594224D01*
X172527498Y-98594223D01*
X172514760Y-98569223D01*
X172467384Y-98476243D01*
X172467380Y-98476239D01*
X172467379Y-98476237D01*
X172373762Y-98382620D01*
X172373759Y-98382618D01*
X172373757Y-98382616D01*
X172255779Y-98322503D01*
X172255778Y-98322502D01*
X172255775Y-98322501D01*
X172125003Y-98301790D01*
X172124997Y-98301790D01*
X171994224Y-98322501D01*
X171994223Y-98322501D01*
X171925308Y-98357616D01*
X171876243Y-98382616D01*
X171876242Y-98382617D01*
X171876237Y-98382620D01*
X171782620Y-98476237D01*
X171782617Y-98476242D01*
X171722501Y-98594223D01*
X171722501Y-98594224D01*
X171701790Y-98724996D01*
X171701790Y-98725003D01*
X171173210Y-98725003D01*
X171173210Y-98724996D01*
X171152498Y-98594224D01*
X171152498Y-98594223D01*
X171139760Y-98569223D01*
X171092384Y-98476243D01*
X171092380Y-98476239D01*
X171092379Y-98476237D01*
X170998762Y-98382620D01*
X170998759Y-98382618D01*
X170998757Y-98382616D01*
X170880779Y-98322503D01*
X170880778Y-98322502D01*
X170880775Y-98322501D01*
X170750003Y-98301790D01*
X170749997Y-98301790D01*
X170619224Y-98322501D01*
X170619223Y-98322501D01*
X170550308Y-98357616D01*
X170501243Y-98382616D01*
X170501242Y-98382617D01*
X170501237Y-98382620D01*
X170407620Y-98476237D01*
X170407617Y-98476242D01*
X170347501Y-98594223D01*
X170347501Y-98594224D01*
X170326790Y-98724996D01*
X170326790Y-98725003D01*
X157919250Y-98725003D01*
X157923210Y-98700003D01*
X157923210Y-98699996D01*
X157902498Y-98569224D01*
X157902498Y-98569223D01*
X157902497Y-98569221D01*
X157842384Y-98451243D01*
X157842380Y-98451239D01*
X157842379Y-98451237D01*
X157748762Y-98357620D01*
X157748759Y-98357618D01*
X157748757Y-98357616D01*
X157630779Y-98297503D01*
X157630778Y-98297502D01*
X157630775Y-98297501D01*
X157500003Y-98276790D01*
X157499997Y-98276790D01*
X157369224Y-98297501D01*
X157369223Y-98297501D01*
X157290569Y-98337578D01*
X157251243Y-98357616D01*
X157251242Y-98357617D01*
X157251237Y-98357620D01*
X157157620Y-98451237D01*
X157157617Y-98451242D01*
X157157616Y-98451243D01*
X157144878Y-98476243D01*
X157097501Y-98569223D01*
X157097501Y-98569224D01*
X157076790Y-98699996D01*
X157076790Y-98700003D01*
X155969252Y-98700003D01*
X155952498Y-98594224D01*
X155952498Y-98594223D01*
X155939760Y-98569223D01*
X155892384Y-98476243D01*
X155892380Y-98476239D01*
X155892379Y-98476237D01*
X155798762Y-98382620D01*
X155798759Y-98382618D01*
X155798757Y-98382616D01*
X155680779Y-98322503D01*
X155680778Y-98322502D01*
X155680775Y-98322501D01*
X155550003Y-98301790D01*
X155549997Y-98301790D01*
X155419224Y-98322501D01*
X155419223Y-98322501D01*
X155350308Y-98357616D01*
X155301243Y-98382616D01*
X155301242Y-98382617D01*
X155301237Y-98382620D01*
X155207620Y-98476237D01*
X155207617Y-98476242D01*
X155147501Y-98594223D01*
X155147501Y-98594224D01*
X155126790Y-98724996D01*
X155126790Y-98725003D01*
X154148210Y-98725003D01*
X154148210Y-98724996D01*
X154127498Y-98594224D01*
X154127498Y-98594223D01*
X154114760Y-98569223D01*
X154067384Y-98476243D01*
X154067380Y-98476239D01*
X154067379Y-98476237D01*
X153973762Y-98382620D01*
X153973759Y-98382618D01*
X153973757Y-98382616D01*
X153855779Y-98322503D01*
X153855778Y-98322502D01*
X153855775Y-98322501D01*
X153725003Y-98301790D01*
X153724997Y-98301790D01*
X153594224Y-98322501D01*
X153594223Y-98322501D01*
X153525308Y-98357616D01*
X153476243Y-98382616D01*
X153476242Y-98382617D01*
X153476237Y-98382620D01*
X153382620Y-98476237D01*
X153382617Y-98476242D01*
X153322501Y-98594223D01*
X153322501Y-98594224D01*
X153301790Y-98724996D01*
X153301790Y-98725003D01*
X152698210Y-98725003D01*
X152698210Y-98724996D01*
X152677498Y-98594224D01*
X152677498Y-98594223D01*
X152664760Y-98569223D01*
X152617384Y-98476243D01*
X152617380Y-98476239D01*
X152617379Y-98476237D01*
X152523762Y-98382620D01*
X152523759Y-98382618D01*
X152523757Y-98382616D01*
X152405779Y-98322503D01*
X152405778Y-98322502D01*
X152405775Y-98322501D01*
X152275003Y-98301790D01*
X152274997Y-98301790D01*
X152144224Y-98322501D01*
X152144223Y-98322501D01*
X152075308Y-98357616D01*
X152026243Y-98382616D01*
X152026242Y-98382617D01*
X152026237Y-98382620D01*
X151932620Y-98476237D01*
X151932617Y-98476242D01*
X151872501Y-98594223D01*
X151872501Y-98594224D01*
X151851790Y-98724996D01*
X151851790Y-98725003D01*
X150914714Y-98725003D01*
X150914714Y-97005000D01*
X152244402Y-97005000D01*
X152264738Y-97198483D01*
X152324856Y-97383510D01*
X152324857Y-97383511D01*
X152405159Y-97522597D01*
X152422130Y-97551992D01*
X152467476Y-97602354D01*
X152552302Y-97696564D01*
X152552305Y-97696566D01*
X152552308Y-97696569D01*
X152670352Y-97782333D01*
X152709702Y-97810923D01*
X152777926Y-97841297D01*
X152887429Y-97890051D01*
X153077726Y-97930500D01*
X153272274Y-97930500D01*
X153462571Y-97890051D01*
X153640299Y-97810922D01*
X153797692Y-97696569D01*
X153927870Y-97551992D01*
X154025144Y-97383508D01*
X154085262Y-97198482D01*
X154105598Y-97005000D01*
X154085262Y-96811518D01*
X154040906Y-96675003D01*
X155126790Y-96675003D01*
X155147501Y-96805775D01*
X155147501Y-96805776D01*
X155147503Y-96805779D01*
X155207616Y-96923757D01*
X155207618Y-96923759D01*
X155207620Y-96923762D01*
X155301237Y-97017379D01*
X155301239Y-97017380D01*
X155301243Y-97017384D01*
X155419221Y-97077497D01*
X155419222Y-97077497D01*
X155419224Y-97077498D01*
X155549997Y-97098210D01*
X155550000Y-97098210D01*
X155550003Y-97098210D01*
X155680775Y-97077498D01*
X155680776Y-97077498D01*
X155680777Y-97077497D01*
X155680779Y-97077497D01*
X155798757Y-97017384D01*
X155892384Y-96923757D01*
X155952497Y-96805779D01*
X155952497Y-96805777D01*
X155952498Y-96805776D01*
X155952498Y-96805775D01*
X155973210Y-96675003D01*
X157051790Y-96675003D01*
X157072501Y-96805775D01*
X157072501Y-96805776D01*
X157072503Y-96805779D01*
X157132616Y-96923757D01*
X157132618Y-96923759D01*
X157132620Y-96923762D01*
X157226237Y-97017379D01*
X157226239Y-97017380D01*
X157226243Y-97017384D01*
X157344221Y-97077497D01*
X157344222Y-97077497D01*
X157344224Y-97077498D01*
X157474997Y-97098210D01*
X157475000Y-97098210D01*
X157475003Y-97098210D01*
X157605775Y-97077498D01*
X157605776Y-97077498D01*
X157605777Y-97077497D01*
X157605779Y-97077497D01*
X157708804Y-97025003D01*
X170301790Y-97025003D01*
X170322501Y-97155775D01*
X170322501Y-97155776D01*
X170322503Y-97155779D01*
X170382616Y-97273757D01*
X170382618Y-97273759D01*
X170382620Y-97273762D01*
X170476237Y-97367379D01*
X170476239Y-97367380D01*
X170476243Y-97367384D01*
X170594221Y-97427497D01*
X170594222Y-97427497D01*
X170594224Y-97427498D01*
X170724997Y-97448210D01*
X170725000Y-97448210D01*
X170725003Y-97448210D01*
X170855775Y-97427498D01*
X170855776Y-97427498D01*
X170855777Y-97427497D01*
X170855779Y-97427497D01*
X170973757Y-97367384D01*
X171067384Y-97273757D01*
X171127497Y-97155779D01*
X171127497Y-97155777D01*
X171127498Y-97155776D01*
X171127498Y-97155775D01*
X171148210Y-97025003D01*
X171676790Y-97025003D01*
X171697501Y-97155775D01*
X171697501Y-97155776D01*
X171697503Y-97155779D01*
X171757616Y-97273757D01*
X171757618Y-97273759D01*
X171757620Y-97273762D01*
X171851237Y-97367379D01*
X171851239Y-97367380D01*
X171851243Y-97367384D01*
X171969221Y-97427497D01*
X171969222Y-97427497D01*
X171969224Y-97427498D01*
X172099997Y-97448210D01*
X172100000Y-97448210D01*
X172100003Y-97448210D01*
X172230775Y-97427498D01*
X172230776Y-97427498D01*
X172230777Y-97427497D01*
X172230779Y-97427497D01*
X172348757Y-97367384D01*
X172442384Y-97273757D01*
X172502497Y-97155779D01*
X172502497Y-97155777D01*
X172502498Y-97155776D01*
X172502498Y-97155775D01*
X172523210Y-97025003D01*
X172523210Y-97024996D01*
X172502498Y-96894224D01*
X172502498Y-96894223D01*
X172502497Y-96894221D01*
X172442384Y-96776243D01*
X172442380Y-96776239D01*
X172442379Y-96776237D01*
X172348762Y-96682620D01*
X172348759Y-96682618D01*
X172348757Y-96682616D01*
X172230779Y-96622503D01*
X172230778Y-96622502D01*
X172230775Y-96622501D01*
X172100003Y-96601790D01*
X172099997Y-96601790D01*
X171969224Y-96622501D01*
X171969223Y-96622501D01*
X171890569Y-96662578D01*
X171851243Y-96682616D01*
X171851242Y-96682617D01*
X171851237Y-96682620D01*
X171757620Y-96776237D01*
X171757617Y-96776242D01*
X171697501Y-96894223D01*
X171697501Y-96894224D01*
X171676790Y-97024996D01*
X171676790Y-97025003D01*
X171148210Y-97025003D01*
X171148210Y-97024996D01*
X171127498Y-96894224D01*
X171127498Y-96894223D01*
X171127497Y-96894221D01*
X171067384Y-96776243D01*
X171067380Y-96776239D01*
X171067379Y-96776237D01*
X170973762Y-96682620D01*
X170973759Y-96682618D01*
X170973757Y-96682616D01*
X170855779Y-96622503D01*
X170855778Y-96622502D01*
X170855775Y-96622501D01*
X170725003Y-96601790D01*
X170724997Y-96601790D01*
X170594224Y-96622501D01*
X170594223Y-96622501D01*
X170515569Y-96662578D01*
X170476243Y-96682616D01*
X170476242Y-96682617D01*
X170476237Y-96682620D01*
X170382620Y-96776237D01*
X170382617Y-96776242D01*
X170322501Y-96894223D01*
X170322501Y-96894224D01*
X170301790Y-97024996D01*
X170301790Y-97025003D01*
X157708804Y-97025003D01*
X157723757Y-97017384D01*
X157817384Y-96923757D01*
X157877497Y-96805779D01*
X157877497Y-96805777D01*
X157877498Y-96805776D01*
X157877498Y-96805775D01*
X157898210Y-96675003D01*
X157898210Y-96674996D01*
X157877498Y-96544224D01*
X157877498Y-96544223D01*
X157877497Y-96544221D01*
X157817384Y-96426243D01*
X157817380Y-96426239D01*
X157817379Y-96426237D01*
X157723762Y-96332620D01*
X157723759Y-96332618D01*
X157723757Y-96332616D01*
X157605779Y-96272503D01*
X157605778Y-96272502D01*
X157605775Y-96272501D01*
X157475003Y-96251790D01*
X157474997Y-96251790D01*
X157344224Y-96272501D01*
X157344223Y-96272501D01*
X157265569Y-96312578D01*
X157226243Y-96332616D01*
X157226242Y-96332617D01*
X157226237Y-96332620D01*
X157132620Y-96426237D01*
X157132617Y-96426242D01*
X157072501Y-96544223D01*
X157072501Y-96544224D01*
X157051790Y-96674996D01*
X157051790Y-96675003D01*
X155973210Y-96675003D01*
X155973210Y-96674996D01*
X155952498Y-96544224D01*
X155952498Y-96544223D01*
X155952497Y-96544221D01*
X155892384Y-96426243D01*
X155892380Y-96426239D01*
X155892379Y-96426237D01*
X155798762Y-96332620D01*
X155798759Y-96332618D01*
X155798757Y-96332616D01*
X155680779Y-96272503D01*
X155680778Y-96272502D01*
X155680775Y-96272501D01*
X155550003Y-96251790D01*
X155549997Y-96251790D01*
X155419224Y-96272501D01*
X155419223Y-96272501D01*
X155340569Y-96312578D01*
X155301243Y-96332616D01*
X155301242Y-96332617D01*
X155301237Y-96332620D01*
X155207620Y-96426237D01*
X155207617Y-96426242D01*
X155147501Y-96544223D01*
X155147501Y-96544224D01*
X155126790Y-96674996D01*
X155126790Y-96675003D01*
X154040906Y-96675003D01*
X154025144Y-96626492D01*
X154025143Y-96626491D01*
X154025143Y-96626489D01*
X154025142Y-96626488D01*
X153977645Y-96544221D01*
X153927870Y-96458008D01*
X153876882Y-96401381D01*
X153797697Y-96313435D01*
X153797694Y-96313433D01*
X153797693Y-96313432D01*
X153797692Y-96313431D01*
X153712851Y-96251790D01*
X153640297Y-96199076D01*
X153503848Y-96138326D01*
X153462571Y-96119949D01*
X153462569Y-96119948D01*
X153272274Y-96079500D01*
X153077726Y-96079500D01*
X152887431Y-96119948D01*
X152709702Y-96199076D01*
X152552305Y-96313433D01*
X152552302Y-96313435D01*
X152422129Y-96458009D01*
X152324857Y-96626488D01*
X152324856Y-96626489D01*
X152264738Y-96811516D01*
X152244402Y-97005000D01*
X150914714Y-97005000D01*
X150914714Y-95450003D01*
X170351790Y-95450003D01*
X170372501Y-95580775D01*
X170372501Y-95580776D01*
X170372503Y-95580779D01*
X170432616Y-95698757D01*
X170432618Y-95698759D01*
X170432620Y-95698762D01*
X170526237Y-95792379D01*
X170526239Y-95792380D01*
X170526243Y-95792384D01*
X170644221Y-95852497D01*
X170644222Y-95852497D01*
X170644224Y-95852498D01*
X170774997Y-95873210D01*
X170775000Y-95873210D01*
X170775003Y-95873210D01*
X170905775Y-95852498D01*
X170905776Y-95852498D01*
X170905777Y-95852497D01*
X170905779Y-95852497D01*
X171023757Y-95792384D01*
X171117384Y-95698757D01*
X171177497Y-95580779D01*
X171177497Y-95580777D01*
X171177498Y-95580776D01*
X171177498Y-95580775D01*
X171198210Y-95450003D01*
X171726790Y-95450003D01*
X171747501Y-95580775D01*
X171747501Y-95580776D01*
X171747503Y-95580779D01*
X171807616Y-95698757D01*
X171807618Y-95698759D01*
X171807620Y-95698762D01*
X171901237Y-95792379D01*
X171901239Y-95792380D01*
X171901243Y-95792384D01*
X172019221Y-95852497D01*
X172019222Y-95852497D01*
X172019224Y-95852498D01*
X172149997Y-95873210D01*
X172150000Y-95873210D01*
X172150003Y-95873210D01*
X172280775Y-95852498D01*
X172280776Y-95852498D01*
X172280777Y-95852497D01*
X172280779Y-95852497D01*
X172398757Y-95792384D01*
X172492384Y-95698757D01*
X172552497Y-95580779D01*
X172552497Y-95580777D01*
X172552498Y-95580776D01*
X172552498Y-95580775D01*
X172573210Y-95450003D01*
X172573210Y-95449996D01*
X172552498Y-95319224D01*
X172552498Y-95319223D01*
X172552497Y-95319221D01*
X172492384Y-95201243D01*
X172492380Y-95201239D01*
X172492379Y-95201237D01*
X172398762Y-95107620D01*
X172398759Y-95107618D01*
X172398757Y-95107616D01*
X172280779Y-95047503D01*
X172280778Y-95047502D01*
X172280775Y-95047501D01*
X172150003Y-95026790D01*
X172149997Y-95026790D01*
X172019224Y-95047501D01*
X172019223Y-95047501D01*
X171940569Y-95087578D01*
X171901243Y-95107616D01*
X171901242Y-95107617D01*
X171901237Y-95107620D01*
X171807620Y-95201237D01*
X171807617Y-95201242D01*
X171747501Y-95319223D01*
X171747501Y-95319224D01*
X171726790Y-95449996D01*
X171726790Y-95450003D01*
X171198210Y-95450003D01*
X171198210Y-95449996D01*
X171177498Y-95319224D01*
X171177498Y-95319223D01*
X171177497Y-95319221D01*
X171117384Y-95201243D01*
X171117380Y-95201239D01*
X171117379Y-95201237D01*
X171023762Y-95107620D01*
X171023759Y-95107618D01*
X171023757Y-95107616D01*
X170905779Y-95047503D01*
X170905778Y-95047502D01*
X170905775Y-95047501D01*
X170775003Y-95026790D01*
X170774997Y-95026790D01*
X170644224Y-95047501D01*
X170644223Y-95047501D01*
X170565569Y-95087578D01*
X170526243Y-95107616D01*
X170526242Y-95107617D01*
X170526237Y-95107620D01*
X170432620Y-95201237D01*
X170432617Y-95201242D01*
X170372501Y-95319223D01*
X170372501Y-95319224D01*
X170351790Y-95449996D01*
X170351790Y-95450003D01*
X150914714Y-95450003D01*
X150914714Y-93500000D01*
X165104939Y-93500000D01*
X165125145Y-93730958D01*
X165125147Y-93730968D01*
X165185148Y-93954900D01*
X165185152Y-93954909D01*
X165283133Y-94165030D01*
X165338023Y-94243422D01*
X165911212Y-93670233D01*
X165922482Y-93712292D01*
X165994890Y-93837708D01*
X166097292Y-93940110D01*
X166222708Y-94012518D01*
X166264765Y-94023787D01*
X165691576Y-94596975D01*
X165769969Y-94651867D01*
X165980090Y-94749847D01*
X165980099Y-94749851D01*
X166204031Y-94809852D01*
X166204041Y-94809854D01*
X166434999Y-94830061D01*
X166435001Y-94830061D01*
X166665958Y-94809854D01*
X166665968Y-94809852D01*
X166889900Y-94749851D01*
X166889909Y-94749847D01*
X167100030Y-94651867D01*
X167100034Y-94651865D01*
X167178422Y-94596976D01*
X167178422Y-94596975D01*
X166916341Y-94334894D01*
X170589500Y-94334894D01*
X170589501Y-94334902D01*
X170595330Y-94364212D01*
X170617542Y-94397457D01*
X170634219Y-94408599D01*
X170650787Y-94419669D01*
X170650790Y-94419669D01*
X170650791Y-94419670D01*
X170660647Y-94421630D01*
X170680101Y-94425500D01*
X172349898Y-94425499D01*
X172379213Y-94419669D01*
X172412457Y-94397457D01*
X172434669Y-94364213D01*
X172440500Y-94334899D01*
X172440499Y-92665102D01*
X172434669Y-92635787D01*
X172434668Y-92635785D01*
X172412457Y-92602542D01*
X172379214Y-92580332D01*
X172379215Y-92580332D01*
X172379213Y-92580331D01*
X172379211Y-92580330D01*
X172379208Y-92580329D01*
X172349901Y-92574500D01*
X170680105Y-92574500D01*
X170680097Y-92574501D01*
X170650787Y-92580330D01*
X170617542Y-92602542D01*
X170595332Y-92635785D01*
X170595329Y-92635791D01*
X170589500Y-92665098D01*
X170589500Y-94334894D01*
X166916341Y-94334894D01*
X166605235Y-94023787D01*
X166647292Y-94012518D01*
X166772708Y-93940110D01*
X166875110Y-93837708D01*
X166947518Y-93712292D01*
X166958787Y-93670234D01*
X167531975Y-94243422D01*
X167531976Y-94243422D01*
X167586865Y-94165034D01*
X167586867Y-94165030D01*
X167684847Y-93954909D01*
X167684851Y-93954900D01*
X167744852Y-93730968D01*
X167744854Y-93730958D01*
X167765061Y-93500000D01*
X167765061Y-93499999D01*
X167744854Y-93269041D01*
X167744852Y-93269031D01*
X167684851Y-93045099D01*
X167684847Y-93045090D01*
X167586867Y-92834971D01*
X167586866Y-92834969D01*
X167531975Y-92756577D01*
X167531975Y-92756576D01*
X166958787Y-93329764D01*
X166947518Y-93287708D01*
X166875110Y-93162292D01*
X166772708Y-93059890D01*
X166647292Y-92987482D01*
X166605234Y-92976212D01*
X167178422Y-92403023D01*
X167100030Y-92348133D01*
X166889909Y-92250152D01*
X166889900Y-92250148D01*
X166665968Y-92190147D01*
X166665958Y-92190145D01*
X166435001Y-92169939D01*
X166434999Y-92169939D01*
X166204041Y-92190145D01*
X166204031Y-92190147D01*
X165980099Y-92250148D01*
X165980090Y-92250152D01*
X165769967Y-92348134D01*
X165691576Y-92403022D01*
X166264766Y-92976212D01*
X166222708Y-92987482D01*
X166097292Y-93059890D01*
X165994890Y-93162292D01*
X165922482Y-93287708D01*
X165911212Y-93329766D01*
X165338022Y-92756576D01*
X165283134Y-92834967D01*
X165185152Y-93045090D01*
X165185148Y-93045099D01*
X165125147Y-93269031D01*
X165125145Y-93269041D01*
X165104939Y-93499999D01*
X165104939Y-93500000D01*
X150914714Y-93500000D01*
X150914714Y-92797844D01*
X151850000Y-92797844D01*
X151856401Y-92857372D01*
X151856403Y-92857379D01*
X151906645Y-92992086D01*
X151906649Y-92992093D01*
X151992809Y-93107187D01*
X151992812Y-93107190D01*
X152107906Y-93193350D01*
X152107913Y-93193354D01*
X152242620Y-93243596D01*
X152242627Y-93243598D01*
X152302155Y-93249999D01*
X152302172Y-93250000D01*
X152925000Y-93250000D01*
X152925000Y-92415747D01*
X152962708Y-92437518D01*
X153102591Y-92475000D01*
X153247409Y-92475000D01*
X153387292Y-92437518D01*
X153425000Y-92415747D01*
X153425000Y-93250000D01*
X154047828Y-93250000D01*
X154047844Y-93249999D01*
X154107372Y-93243598D01*
X154107379Y-93243596D01*
X154242086Y-93193354D01*
X154242093Y-93193350D01*
X154357187Y-93107190D01*
X154357190Y-93107187D01*
X154443350Y-92992093D01*
X154443354Y-92992086D01*
X154493596Y-92857379D01*
X154493598Y-92857372D01*
X154499999Y-92797844D01*
X154500000Y-92797827D01*
X154500000Y-92175000D01*
X153665748Y-92175000D01*
X153687518Y-92137292D01*
X153725000Y-91997409D01*
X153725000Y-91852591D01*
X153687518Y-91712708D01*
X153665748Y-91675000D01*
X154500000Y-91675000D01*
X154500000Y-91052172D01*
X154499999Y-91052155D01*
X154493598Y-90992627D01*
X154493596Y-90992620D01*
X154443354Y-90857913D01*
X154443350Y-90857906D01*
X154357190Y-90742812D01*
X154357187Y-90742809D01*
X154242093Y-90656649D01*
X154242086Y-90656645D01*
X154107379Y-90606403D01*
X154107372Y-90606401D01*
X154047844Y-90600000D01*
X153425000Y-90600000D01*
X153425000Y-91434252D01*
X153387292Y-91412482D01*
X153247409Y-91375000D01*
X153102591Y-91375000D01*
X152962708Y-91412482D01*
X152925000Y-91434252D01*
X152925000Y-90600000D01*
X152302155Y-90600000D01*
X152242627Y-90606401D01*
X152242620Y-90606403D01*
X152107913Y-90656645D01*
X152107906Y-90656649D01*
X151992812Y-90742809D01*
X151992809Y-90742812D01*
X151906649Y-90857906D01*
X151906645Y-90857913D01*
X151856403Y-90992620D01*
X151856401Y-90992627D01*
X151850000Y-91052155D01*
X151850000Y-91675000D01*
X152684252Y-91675000D01*
X152662482Y-91712708D01*
X152625000Y-91852591D01*
X152625000Y-91997409D01*
X152662482Y-92137292D01*
X152684252Y-92175000D01*
X151850000Y-92175000D01*
X151850000Y-92797844D01*
X150914714Y-92797844D01*
X150914714Y-91461809D01*
X150914715Y-91461806D01*
X150914714Y-91418636D01*
X150915030Y-91409792D01*
X150924665Y-91275061D01*
X150931379Y-91181184D01*
X150933894Y-91163689D01*
X150981668Y-90944069D01*
X150986651Y-90927100D01*
X151055388Y-90742809D01*
X151065193Y-90716517D01*
X151072536Y-90700438D01*
X151180260Y-90503155D01*
X151189806Y-90488302D01*
X151324503Y-90308366D01*
X151336077Y-90295009D01*
X151495009Y-90136077D01*
X151508366Y-90124503D01*
X151688302Y-89989806D01*
X151703155Y-89980260D01*
X151900438Y-89872536D01*
X151916517Y-89865193D01*
X152127103Y-89786649D01*
X152144069Y-89781668D01*
X152363689Y-89733894D01*
X152381184Y-89731379D01*
X152609794Y-89715029D01*
X152618636Y-89714714D01*
X152661806Y-89714715D01*
X152661809Y-89714714D01*
X175313191Y-89714714D01*
X175313194Y-89714715D01*
G37*
%TD.AperFunction*%
%TD*%
M02*
