%TF.GenerationSoftware,KiCad,Pcbnew,8.99.0-334-gf341ab9b00*%
%TF.CreationDate,2024-09-09T23:07:31-04:00*%
%TF.ProjectId,Buck Converter,4275636b-2043-46f6-9e76-65727465722e,V1*%
%TF.SameCoordinates,Original*%
%TF.FileFunction,Soldermask,Top*%
%TF.FilePolarity,Negative*%
%FSLAX46Y46*%
G04 Gerber Fmt 4.6, Leading zero omitted, Abs format (unit mm)*
G04 Created by KiCad (PCBNEW 8.99.0-334-gf341ab9b00) date 2024-09-09 23:07:31*
%MOMM*%
%LPD*%
G01*
G04 APERTURE LIST*
G04 Aperture macros list*
%AMRoundRect*
0 Rectangle with rounded corners*
0 $1 Rounding radius*
0 $2 $3 $4 $5 $6 $7 $8 $9 X,Y pos of 4 corners*
0 Add a 4 corners polygon primitive as box body*
4,1,4,$2,$3,$4,$5,$6,$7,$8,$9,$2,$3,0*
0 Add four circle primitives for the rounded corners*
1,1,$1+$1,$2,$3*
1,1,$1+$1,$4,$5*
1,1,$1+$1,$6,$7*
1,1,$1+$1,$8,$9*
0 Add four rect primitives between the rounded corners*
20,1,$1+$1,$2,$3,$4,$5,0*
20,1,$1+$1,$4,$5,$6,$7,0*
20,1,$1+$1,$6,$7,$8,$9,0*
20,1,$1+$1,$8,$9,$2,$3,0*%
G04 Aperture macros list end*
%ADD10RoundRect,0.272087X-0.353713X-0.678713X0.353713X-0.678713X0.353713X0.678713X-0.353713X0.678713X0*%
%ADD11O,0.351600X0.951600*%
%ADD12O,0.951600X0.351600*%
%ADD13RoundRect,0.050800X-0.537500X0.513000X-0.537500X-0.513000X0.537500X-0.513000X0.537500X0.513000X0*%
%ADD14RoundRect,0.225400X0.225400X0.300400X-0.225400X0.300400X-0.225400X-0.300400X0.225400X-0.300400X0*%
%ADD15RoundRect,0.225400X-0.225400X-0.300400X0.225400X-0.300400X0.225400X0.300400X-0.225400X0.300400X0*%
%ADD16RoundRect,0.250400X0.275400X-0.250400X0.275400X0.250400X-0.275400X0.250400X-0.275400X-0.250400X0*%
%ADD17RoundRect,0.050800X-1.900000X2.000000X-1.900000X-2.000000X1.900000X-2.000000X1.900000X2.000000X0*%
%ADD18RoundRect,0.102000X-0.825000X0.825000X-0.825000X-0.825000X0.825000X-0.825000X0.825000X0.825000X0*%
%ADD19C,1.854000*%
%ADD20RoundRect,0.102000X0.825000X0.825000X-0.825000X0.825000X-0.825000X-0.825000X0.825000X-0.825000X0*%
%ADD21RoundRect,0.250400X0.250400X0.275400X-0.250400X0.275400X-0.250400X-0.275400X0.250400X-0.275400X0*%
%ADD22RoundRect,0.225400X-0.300400X0.225400X-0.300400X-0.225400X0.300400X-0.225400X0.300400X0.225400X0*%
%ADD23RoundRect,0.165400X-0.195400X0.165400X-0.195400X-0.165400X0.195400X-0.165400X0.195400X0.165400X0*%
%ADD24RoundRect,0.250400X-0.275400X0.250400X-0.275400X-0.250400X0.275400X-0.250400X0.275400X0.250400X0*%
%ADD25RoundRect,0.272087X0.353713X0.678713X-0.353713X0.678713X-0.353713X-0.678713X0.353713X-0.678713X0*%
G04 APERTURE END LIST*
D10*
%TO.C,C6*%
X172050000Y-108100000D03*
X175000000Y-108100000D03*
%TD*%
D11*
%TO.C,IC1*%
X159900000Y-102050000D03*
X159450000Y-102050000D03*
X159000000Y-102050000D03*
X158550000Y-102050000D03*
X158100000Y-102050000D03*
D12*
X157550000Y-102600000D03*
X157550000Y-103050000D03*
X157550000Y-103500000D03*
X157550000Y-103950000D03*
X157550000Y-104400000D03*
D11*
X158100000Y-104950000D03*
X158550000Y-104950000D03*
X159000000Y-104950000D03*
X159450000Y-104950000D03*
X159900000Y-104950000D03*
D12*
X160450000Y-104400000D03*
X160450000Y-103950000D03*
X160450000Y-103500000D03*
X160450000Y-103050000D03*
X160450000Y-102600000D03*
D13*
X159000000Y-103500000D03*
%TD*%
D14*
%TO.C,R5*%
X159150000Y-107000000D03*
X157500000Y-107000000D03*
%TD*%
D15*
%TO.C,R2*%
X153962500Y-105500000D03*
X155612500Y-105500000D03*
%TD*%
D16*
%TO.C,C4*%
X162500000Y-105500000D03*
X162500000Y-103950000D03*
%TD*%
D15*
%TO.C,R4*%
X157500000Y-108500000D03*
X159150000Y-108500000D03*
%TD*%
D10*
%TO.C,C9*%
X172050000Y-101050000D03*
X175000000Y-101050000D03*
%TD*%
D15*
%TO.C,R6*%
X160500000Y-108500000D03*
X162150000Y-108500000D03*
%TD*%
D17*
%TO.C,L1*%
X167475000Y-102075000D03*
X167475000Y-107775000D03*
%TD*%
D18*
%TO.C,J1*%
X153175000Y-91925000D03*
D19*
X153175000Y-97005000D03*
%TD*%
D10*
%TO.C,C8*%
X172050000Y-103400000D03*
X175000000Y-103400000D03*
%TD*%
D20*
%TO.C,J2*%
X171515000Y-93500000D03*
D19*
X166435000Y-93500000D03*
%TD*%
D21*
%TO.C,C1*%
X160550000Y-100500000D03*
X159000000Y-100500000D03*
%TD*%
D10*
%TO.C,C7*%
X172050000Y-105750000D03*
X175000000Y-105750000D03*
%TD*%
D22*
%TO.C,R3*%
X156000000Y-102175000D03*
X156000000Y-103825000D03*
%TD*%
D23*
%TO.C,C5*%
X159175000Y-109695000D03*
X159175000Y-110655000D03*
%TD*%
D24*
%TO.C,C10*%
X162500000Y-100950000D03*
X162500000Y-102500000D03*
%TD*%
D15*
%TO.C,R7*%
X160500000Y-107000000D03*
X162150000Y-107000000D03*
%TD*%
D14*
%TO.C,R1*%
X155600000Y-107000000D03*
X153950000Y-107000000D03*
%TD*%
D25*
%TO.C,C2*%
X161425000Y-98325000D03*
X158475000Y-98325000D03*
%TD*%
%TO.C,C3*%
X161425000Y-95975000D03*
X158475000Y-95975000D03*
%TD*%
M02*
