%TF.GenerationSoftware,KiCad,Pcbnew,8.99.0-2194-gb3b7cbcab2*%
%TF.CreationDate,2024-10-21T01:16:46-04:00*%
%TF.ProjectId,shield,73686965-6c64-42e6-9b69-6361645f7063,V1.0*%
%TF.SameCoordinates,Original*%
%TF.FileFunction,Legend,Top*%
%TF.FilePolarity,Positive*%
%FSLAX46Y46*%
G04 Gerber Fmt 4.6, Leading zero omitted, Abs format (unit mm)*
G04 Created by KiCad (PCBNEW 8.99.0-2194-gb3b7cbcab2) date 2024-10-21 01:16:46*
%MOMM*%
%LPD*%
G01*
G04 APERTURE LIST*
G04 Aperture macros list*
%AMRoundRect*
0 Rectangle with rounded corners*
0 $1 Rounding radius*
0 $2 $3 $4 $5 $6 $7 $8 $9 X,Y pos of 4 corners*
0 Add a 4 corners polygon primitive as box body*
4,1,4,$2,$3,$4,$5,$6,$7,$8,$9,$2,$3,0*
0 Add four circle primitives for the rounded corners*
1,1,$1+$1,$2,$3*
1,1,$1+$1,$4,$5*
1,1,$1+$1,$6,$7*
1,1,$1+$1,$8,$9*
0 Add four rect primitives between the rounded corners*
20,1,$1+$1,$2,$3,$4,$5,0*
20,1,$1+$1,$4,$5,$6,$7,0*
20,1,$1+$1,$6,$7,$8,$9,0*
20,1,$1+$1,$8,$9,$2,$3,0*%
G04 Aperture macros list end*
%ADD10C,0.150000*%
%ADD11C,0.100000*%
%ADD12C,0.200000*%
%ADD13C,0.187500*%
%ADD14C,0.250000*%
%ADD15C,0.120000*%
%ADD16C,0.152400*%
%ADD17C,0.254000*%
%ADD18RoundRect,0.225000X0.250000X-0.225000X0.250000X0.225000X-0.250000X0.225000X-0.250000X-0.225000X0*%
%ADD19R,1.625600X1.625600*%
%ADD20C,1.625600*%
%ADD21RoundRect,0.250000X-0.650000X0.325000X-0.650000X-0.325000X0.650000X-0.325000X0.650000X0.325000X0*%
%ADD22RoundRect,0.250000X1.400000X1.000000X-1.400000X1.000000X-1.400000X-1.000000X1.400000X-1.000000X0*%
%ADD23RoundRect,0.200000X-0.275000X0.200000X-0.275000X-0.200000X0.275000X-0.200000X0.275000X0.200000X0*%
%ADD24RoundRect,0.200000X0.200000X0.275000X-0.200000X0.275000X-0.200000X-0.275000X0.200000X-0.275000X0*%
%ADD25R,0.900000X0.300000*%
%ADD26R,1.400000X2.600000*%
%ADD27RoundRect,0.225000X-0.250000X0.225000X-0.250000X-0.225000X0.250000X-0.225000X0.250000X0.225000X0*%
%ADD28RoundRect,0.218750X0.256250X-0.218750X0.256250X0.218750X-0.256250X0.218750X-0.256250X-0.218750X0*%
%ADD29R,1.700000X1.700000*%
%ADD30O,1.700000X1.700000*%
%ADD31RoundRect,0.200000X0.275000X-0.200000X0.275000X0.200000X-0.275000X0.200000X-0.275000X-0.200000X0*%
%ADD32RoundRect,0.218750X-0.256250X0.218750X-0.256250X-0.218750X0.256250X-0.218750X0.256250X0.218750X0*%
%ADD33R,2.600000X2.600000*%
%ADD34C,2.600000*%
G04 APERTURE END LIST*
D10*
X139278085Y-120860283D02*
X138278085Y-121860283D01*
X138278085Y-120660283D01*
X139078085Y-120660283D01*
X139278085Y-120860283D01*
G36*
X139278085Y-120860283D02*
G01*
X138278085Y-121860283D01*
X138278085Y-120660283D01*
X139078085Y-120660283D01*
X139278085Y-120860283D01*
G37*
D11*
X159878085Y-109660283D02*
X169078085Y-109660283D01*
X169078085Y-110860283D01*
X159878085Y-110860283D01*
X159878085Y-109660283D01*
G36*
X159878085Y-109660283D02*
G01*
X169078085Y-109660283D01*
X169078085Y-110860283D01*
X159878085Y-110860283D01*
X159878085Y-109660283D01*
G37*
D10*
X139278085Y-110660283D02*
X139078085Y-110860283D01*
X138278085Y-110860283D01*
X138278085Y-109660283D01*
X139278085Y-110660283D01*
G36*
X139278085Y-110660283D02*
G01*
X139078085Y-110860283D01*
X138278085Y-110860283D01*
X138278085Y-109660283D01*
X139278085Y-110660283D01*
G37*
X159828085Y-121810283D02*
X158828085Y-120810283D01*
X159028085Y-120610283D01*
X159828085Y-120610283D01*
X159828085Y-121810283D01*
G36*
X159828085Y-121810283D02*
G01*
X158828085Y-120810283D01*
X159028085Y-120610283D01*
X159828085Y-120610283D01*
X159828085Y-121810283D01*
G37*
D11*
X129078085Y-120660283D02*
X138278085Y-120660283D01*
X138278085Y-121860283D01*
X129078085Y-121860283D01*
X129078085Y-120660283D01*
G36*
X129078085Y-120660283D02*
G01*
X138278085Y-120660283D01*
X138278085Y-121860283D01*
X129078085Y-121860283D01*
X129078085Y-120660283D01*
G37*
D10*
X159878085Y-110860283D02*
X159078085Y-110860283D01*
X158878085Y-110660283D01*
X159878085Y-109660283D01*
X159878085Y-110860283D01*
G36*
X159878085Y-110860283D02*
G01*
X159078085Y-110860283D01*
X158878085Y-110660283D01*
X159878085Y-109660283D01*
X159878085Y-110860283D01*
G37*
X161178085Y-110760283D02*
X161078085Y-110860283D01*
X159878085Y-110860283D01*
X159878085Y-109760283D01*
X157478085Y-107360283D01*
X156578085Y-108260283D01*
X159178085Y-110860283D01*
X156478085Y-110860283D01*
X156478085Y-106760283D01*
X157178085Y-106760283D01*
X161178085Y-110760283D01*
G36*
X161178085Y-110760283D02*
G01*
X161078085Y-110860283D01*
X159878085Y-110860283D01*
X159878085Y-109760283D01*
X157478085Y-107360283D01*
X156578085Y-108260283D01*
X159178085Y-110860283D01*
X156478085Y-110860283D01*
X156478085Y-106760283D01*
X157178085Y-106760283D01*
X161178085Y-110760283D01*
G37*
D11*
X159828085Y-120610283D02*
X169028085Y-120610283D01*
X169028085Y-121810283D01*
X159828085Y-121810283D01*
X159828085Y-120610283D01*
G36*
X159828085Y-120610283D02*
G01*
X169028085Y-120610283D01*
X169028085Y-121810283D01*
X159828085Y-121810283D01*
X159828085Y-120610283D01*
G37*
D10*
X156528085Y-123210283D02*
X157428085Y-124110283D01*
X159828085Y-121710283D01*
X159828085Y-120610283D01*
X161028085Y-120610283D01*
X161128085Y-120710283D01*
X157128085Y-124710283D01*
X156428085Y-124710283D01*
X156428085Y-120610283D01*
X159128085Y-120610283D01*
X156528085Y-123210283D01*
G36*
X156528085Y-123210283D02*
G01*
X157428085Y-124110283D01*
X159828085Y-121710283D01*
X159828085Y-120610283D01*
X161028085Y-120610283D01*
X161128085Y-120710283D01*
X157128085Y-124710283D01*
X156428085Y-124710283D01*
X156428085Y-120610283D01*
X159128085Y-120610283D01*
X156528085Y-123210283D01*
G37*
X141678085Y-110860283D02*
X138978085Y-110860283D01*
X141578085Y-108260283D01*
X140678085Y-107360283D01*
X138278085Y-109760283D01*
X138278085Y-110860283D01*
X137078085Y-110860283D01*
X136978085Y-110760283D01*
X140978085Y-106760283D01*
X141678085Y-106760283D01*
X141678085Y-110860283D01*
G36*
X141678085Y-110860283D02*
G01*
X138978085Y-110860283D01*
X141578085Y-108260283D01*
X140678085Y-107360283D01*
X138278085Y-109760283D01*
X138278085Y-110860283D01*
X137078085Y-110860283D01*
X136978085Y-110760283D01*
X140978085Y-106760283D01*
X141678085Y-106760283D01*
X141678085Y-110860283D01*
G37*
X138278085Y-121760283D02*
X140678085Y-124160283D01*
X141578085Y-123260283D01*
X138978085Y-120660283D01*
X141678085Y-120660283D01*
X141678085Y-124760283D01*
X140978085Y-124760283D01*
X136978085Y-120760283D01*
X137078085Y-120660283D01*
X138278085Y-120660283D01*
X138278085Y-121760283D01*
G36*
X138278085Y-121760283D02*
G01*
X140678085Y-124160283D01*
X141578085Y-123260283D01*
X138978085Y-120660283D01*
X141678085Y-120660283D01*
X141678085Y-124760283D01*
X140978085Y-124760283D01*
X136978085Y-120760283D01*
X137078085Y-120660283D01*
X138278085Y-120660283D01*
X138278085Y-121760283D01*
G37*
D11*
X129078085Y-109660283D02*
X138278085Y-109660283D01*
X138278085Y-110860283D01*
X129078085Y-110860283D01*
X129078085Y-109660283D01*
G36*
X129078085Y-109660283D02*
G01*
X138278085Y-109660283D01*
X138278085Y-110860283D01*
X129078085Y-110860283D01*
X129078085Y-109660283D01*
G37*
D12*
G36*
X158698881Y-108944231D02*
G01*
X158733017Y-108959743D01*
X158768834Y-108988764D01*
X158797583Y-109024275D01*
X158813075Y-109058367D01*
X158817537Y-109092215D01*
X158811774Y-109126010D01*
X158795306Y-109160300D01*
X158765941Y-109196141D01*
X158450839Y-109511242D01*
X158414607Y-109541023D01*
X158380345Y-109557626D01*
X158346957Y-109563399D01*
X158313517Y-109558919D01*
X158279438Y-109543283D01*
X158243506Y-109514092D01*
X158214041Y-109477853D01*
X158198387Y-109443731D01*
X158194026Y-109410469D01*
X158199885Y-109377194D01*
X158216541Y-109342986D01*
X158246355Y-109306759D01*
X158561457Y-108991657D01*
X158597294Y-108962260D01*
X158631528Y-108945737D01*
X158665210Y-108939888D01*
X158698881Y-108944231D01*
G37*
G36*
X159889882Y-109735587D02*
G01*
X158990286Y-110635184D01*
X158299274Y-109944173D01*
X158476270Y-109944173D01*
X158601957Y-110069859D01*
X159178146Y-109705752D01*
X159269292Y-109645780D01*
X159344850Y-109592932D01*
X159292693Y-109668750D01*
X159233930Y-109759550D01*
X158872630Y-110340532D01*
X159000216Y-110468119D01*
X159540785Y-109563399D01*
X159380255Y-109402869D01*
X158476270Y-109944173D01*
X158299274Y-109944173D01*
X157753696Y-109398595D01*
X158028962Y-109398595D01*
X158030405Y-109410469D01*
X158035926Y-109455919D01*
X158055070Y-109511729D01*
X158087416Y-109567062D01*
X158134917Y-109622681D01*
X158190510Y-109670158D01*
X158245835Y-109702501D01*
X158301654Y-109721654D01*
X158359003Y-109728636D01*
X158416266Y-109723321D01*
X158472223Y-109705235D01*
X158528032Y-109673254D01*
X158584556Y-109625185D01*
X158879883Y-109329858D01*
X158927653Y-109273659D01*
X158959531Y-109217992D01*
X158977647Y-109162009D01*
X158983075Y-109104563D01*
X158976197Y-109047078D01*
X158957117Y-108991175D01*
X158924825Y-108935810D01*
X158877379Y-108880219D01*
X158821762Y-108832749D01*
X158766390Y-108800454D01*
X158710495Y-108781383D01*
X158653034Y-108774523D01*
X158595566Y-108779933D01*
X158539568Y-108798037D01*
X158483895Y-108829907D01*
X158427696Y-108877671D01*
X158131981Y-109173387D01*
X158084123Y-109229693D01*
X158052266Y-109285374D01*
X158034245Y-109341290D01*
X158028962Y-109398595D01*
X157753696Y-109398595D01*
X157149139Y-108794038D01*
X157326136Y-108794038D01*
X157450009Y-108917912D01*
X157965968Y-108401953D01*
X158002436Y-108371953D01*
X158037462Y-108354775D01*
X158072052Y-108348285D01*
X158106694Y-108352101D01*
X158140877Y-108366992D01*
X158175805Y-108394959D01*
X158204370Y-108430554D01*
X158219341Y-108464873D01*
X158222954Y-108499187D01*
X158216228Y-108533467D01*
X158198900Y-108568340D01*
X158168811Y-108604796D01*
X157652852Y-109120755D01*
X157776682Y-109244585D01*
X158293245Y-108728022D01*
X158338648Y-108674470D01*
X158369089Y-108620943D01*
X158386480Y-108566638D01*
X158391731Y-108510456D01*
X158384916Y-108454610D01*
X158365689Y-108399387D01*
X158332783Y-108343719D01*
X158283962Y-108286802D01*
X158226794Y-108237759D01*
X158171001Y-108204787D01*
X158115765Y-108185602D01*
X158060006Y-108178904D01*
X158003863Y-108184257D01*
X157949608Y-108201701D01*
X157896153Y-108232142D01*
X157842699Y-108277475D01*
X157326136Y-108794038D01*
X157149139Y-108794038D01*
X156539704Y-108184603D01*
X156549635Y-108174672D01*
X156706770Y-108174672D01*
X157209214Y-108677117D01*
X157321041Y-108565290D01*
X157131756Y-108376004D01*
X157742573Y-107765187D01*
X157618743Y-107641357D01*
X157007925Y-108252174D01*
X156818597Y-108062845D01*
X156706770Y-108174672D01*
X156549635Y-108174672D01*
X157439301Y-107285006D01*
X159889882Y-109735587D01*
G37*
G36*
X158965106Y-121333295D02*
G01*
X159003122Y-121349912D01*
X159040368Y-121379587D01*
X159311041Y-121650260D01*
X159341009Y-121687806D01*
X159357863Y-121726071D01*
X159363198Y-121766232D01*
X159357287Y-121806344D01*
X159339931Y-121844797D01*
X159309486Y-121882722D01*
X159218470Y-121973738D01*
X158717883Y-121473150D01*
X158808899Y-121382134D01*
X158846816Y-121351643D01*
X158885189Y-121334207D01*
X158925130Y-121328164D01*
X158965106Y-121333295D01*
G37*
G36*
X159828440Y-121762778D02*
G01*
X157499616Y-124091602D01*
X156948927Y-123540913D01*
X157106063Y-123540913D01*
X157220005Y-123654856D01*
X157536791Y-123338070D01*
X157422848Y-123224128D01*
X157106063Y-123540913D01*
X156948927Y-123540913D01*
X156600019Y-123192005D01*
X157104987Y-122687037D01*
X157403762Y-122687037D01*
X157411536Y-122737874D01*
X157428889Y-122786279D01*
X157456779Y-122833452D01*
X157496551Y-122879968D01*
X157811652Y-123195070D01*
X157857508Y-123234232D01*
X157904543Y-123262030D01*
X157953314Y-123279652D01*
X158004479Y-123287694D01*
X158055758Y-123285777D01*
X158108059Y-123273694D01*
X158157663Y-123252491D01*
X158206723Y-123221159D01*
X158255679Y-123178404D01*
X158298389Y-123129427D01*
X158329458Y-123080474D01*
X158350235Y-123031086D01*
X158361915Y-122978988D01*
X158363563Y-122927918D01*
X158355373Y-122876989D01*
X158337750Y-122828409D01*
X158309994Y-122781530D01*
X158270920Y-122735802D01*
X158083232Y-122548114D01*
X157836047Y-122795299D01*
X157943297Y-122902549D01*
X158066652Y-122779194D01*
X158147090Y-122859632D01*
X158176154Y-122895477D01*
X158192220Y-122930311D01*
X158197347Y-122965242D01*
X158192163Y-123000147D01*
X158176102Y-123034913D01*
X158147133Y-123070635D01*
X158111383Y-123099647D01*
X158076479Y-123115853D01*
X158041351Y-123121238D01*
X158006250Y-123116240D01*
X157971334Y-123100256D01*
X157935482Y-123071240D01*
X157619992Y-122755749D01*
X157590748Y-122719623D01*
X157574888Y-122684798D01*
X157570210Y-122650097D01*
X157575898Y-122615366D01*
X157592294Y-122580655D01*
X157621417Y-122544919D01*
X157657126Y-122515855D01*
X157691728Y-122499631D01*
X157726292Y-122494187D01*
X157760873Y-122499058D01*
X157795716Y-122515092D01*
X157831988Y-122544530D01*
X157955818Y-122420700D01*
X157909399Y-122380988D01*
X157862369Y-122353129D01*
X157814157Y-122335772D01*
X157763556Y-122327854D01*
X157712656Y-122329663D01*
X157660578Y-122341428D01*
X157611162Y-122362184D01*
X157562196Y-122393238D01*
X157513217Y-122435942D01*
X157470469Y-122484900D01*
X157439150Y-122533974D01*
X157417969Y-122583605D01*
X157405825Y-122635911D01*
X157403762Y-122687037D01*
X157104987Y-122687037D01*
X157710043Y-122081981D01*
X157887038Y-122081981D01*
X158609682Y-122804625D01*
X158721898Y-122692410D01*
X158368153Y-122338665D01*
X158287888Y-122262545D01*
X158200068Y-122184050D01*
X158126106Y-122120279D01*
X158909586Y-122504722D01*
X159060229Y-122354079D01*
X158337585Y-121631435D01*
X158225369Y-121743650D01*
X158567499Y-122085781D01*
X158648800Y-122162937D01*
X158742018Y-122245361D01*
X158822715Y-122314227D01*
X158037681Y-121931338D01*
X157887038Y-122081981D01*
X157710043Y-122081981D01*
X158306007Y-121486017D01*
X158483003Y-121486017D01*
X159205647Y-122208661D01*
X159420536Y-121993772D01*
X159465346Y-121942281D01*
X159497845Y-121890707D01*
X159519453Y-121838552D01*
X159531433Y-121783555D01*
X159532918Y-121729503D01*
X159524073Y-121675475D01*
X159505307Y-121623969D01*
X159475985Y-121574466D01*
X159434914Y-121526387D01*
X159164241Y-121255713D01*
X159115770Y-121214289D01*
X159066256Y-121184990D01*
X159015109Y-121166511D01*
X158961420Y-121157970D01*
X158907642Y-121159720D01*
X158852852Y-121171951D01*
X158800858Y-121193690D01*
X158749368Y-121226276D01*
X158697892Y-121271127D01*
X158495870Y-121473150D01*
X158483003Y-121486017D01*
X158306007Y-121486017D01*
X158928844Y-120863181D01*
X159828440Y-121762778D01*
G37*
G36*
X141079334Y-123197841D02*
G01*
X141109825Y-123235758D01*
X141127261Y-123274131D01*
X141133304Y-123314072D01*
X141128173Y-123354048D01*
X141111556Y-123392064D01*
X141081881Y-123429310D01*
X140811208Y-123699983D01*
X140773662Y-123729951D01*
X140735397Y-123746805D01*
X140695236Y-123752140D01*
X140655124Y-123746229D01*
X140616671Y-123728873D01*
X140578746Y-123698428D01*
X140487730Y-123607412D01*
X140988318Y-123106825D01*
X141079334Y-123197841D01*
G37*
G36*
X141598287Y-123317785D02*
G01*
X140698690Y-124217382D01*
X140075898Y-123594589D01*
X140252807Y-123594589D01*
X140265630Y-123607412D01*
X140467696Y-123809478D01*
X140519187Y-123854288D01*
X140570761Y-123886787D01*
X140622916Y-123908395D01*
X140677913Y-123920375D01*
X140731965Y-123921860D01*
X140785993Y-123913015D01*
X140837499Y-123894249D01*
X140887002Y-123864927D01*
X140935081Y-123823856D01*
X141205755Y-123553183D01*
X141247179Y-123504712D01*
X141276478Y-123455198D01*
X141294957Y-123404051D01*
X141303498Y-123350362D01*
X141301748Y-123296584D01*
X141289517Y-123241794D01*
X141267778Y-123189800D01*
X141235192Y-123138310D01*
X141190341Y-123086834D01*
X140975451Y-122871945D01*
X140252807Y-123594589D01*
X140075898Y-123594589D01*
X139479933Y-122998624D01*
X139656843Y-122998624D01*
X139769058Y-123110840D01*
X140122803Y-122757095D01*
X140198923Y-122676830D01*
X140277418Y-122589010D01*
X140341189Y-122515048D01*
X139956746Y-123298528D01*
X140107389Y-123449171D01*
X140830033Y-122726527D01*
X140717818Y-122614311D01*
X140375687Y-122956441D01*
X140298531Y-123037742D01*
X140216107Y-123130960D01*
X140147241Y-123211657D01*
X140530130Y-122426623D01*
X140379487Y-122275980D01*
X139656843Y-122998624D01*
X139479933Y-122998624D01*
X138874730Y-122393421D01*
X139173774Y-122393421D01*
X139175691Y-122444700D01*
X139187774Y-122497001D01*
X139208977Y-122546605D01*
X139240309Y-122595665D01*
X139283064Y-122644621D01*
X139332041Y-122687331D01*
X139380994Y-122718400D01*
X139430382Y-122739177D01*
X139482480Y-122750857D01*
X139533550Y-122752505D01*
X139584479Y-122744315D01*
X139633059Y-122726692D01*
X139679938Y-122698936D01*
X139725666Y-122659862D01*
X139913354Y-122472174D01*
X139666169Y-122224989D01*
X139558919Y-122332239D01*
X139682274Y-122455594D01*
X139601836Y-122536032D01*
X139565991Y-122565096D01*
X139531157Y-122581162D01*
X139496226Y-122586289D01*
X139461321Y-122581105D01*
X139426555Y-122565044D01*
X139390833Y-122536075D01*
X139361821Y-122500325D01*
X139345615Y-122465421D01*
X139340230Y-122430293D01*
X139345228Y-122395192D01*
X139361212Y-122360276D01*
X139390228Y-122324424D01*
X139705719Y-122008934D01*
X139741845Y-121979690D01*
X139776670Y-121963830D01*
X139811371Y-121959152D01*
X139846102Y-121964840D01*
X139880813Y-121981236D01*
X139916549Y-122010359D01*
X139945613Y-122046068D01*
X139961837Y-122080670D01*
X139967281Y-122115234D01*
X139962410Y-122149815D01*
X139946376Y-122184658D01*
X139916938Y-122220930D01*
X140040768Y-122344760D01*
X140080480Y-122298341D01*
X140108339Y-122251311D01*
X140125696Y-122203099D01*
X140133614Y-122152498D01*
X140131805Y-122101598D01*
X140120040Y-122049520D01*
X140099284Y-122000104D01*
X140068230Y-121951138D01*
X140025526Y-121902159D01*
X139976568Y-121859411D01*
X139927494Y-121828092D01*
X139877863Y-121806911D01*
X139825557Y-121794767D01*
X139774431Y-121792704D01*
X139723594Y-121800478D01*
X139675189Y-121817831D01*
X139628016Y-121845721D01*
X139581500Y-121885493D01*
X139266398Y-122200594D01*
X139227236Y-122246450D01*
X139199438Y-122293485D01*
X139181816Y-122342256D01*
X139173774Y-122393421D01*
X138874730Y-122393421D01*
X138369867Y-121888558D01*
X138649478Y-121608947D01*
X138806612Y-121608947D01*
X139123398Y-121925733D01*
X139237340Y-121811790D01*
X138920555Y-121495005D01*
X138806612Y-121608947D01*
X138649478Y-121608947D01*
X139269464Y-120988961D01*
X141598287Y-123317785D01*
G37*
G36*
X141576269Y-108188581D02*
G01*
X139175168Y-110589683D01*
X138295388Y-109709903D01*
X138452523Y-109709903D01*
X139175167Y-110432547D01*
X139287383Y-110320332D01*
X138945253Y-109978201D01*
X138863952Y-109901045D01*
X138770734Y-109818621D01*
X138690037Y-109749755D01*
X139475071Y-110132644D01*
X139625714Y-109982001D01*
X138903069Y-109259357D01*
X138790854Y-109371572D01*
X139144598Y-109725317D01*
X139224863Y-109801437D01*
X139312684Y-109879932D01*
X139386646Y-109943703D01*
X138603166Y-109559260D01*
X138452523Y-109709903D01*
X138295388Y-109709903D01*
X138906551Y-109098740D01*
X139063686Y-109098740D01*
X139175556Y-109210611D01*
X139320758Y-109065408D01*
X139819705Y-109564355D01*
X139674503Y-109709558D01*
X139786330Y-109821385D01*
X140201385Y-109406329D01*
X140089558Y-109294502D01*
X139944356Y-109439705D01*
X139445409Y-108940758D01*
X139590611Y-108795555D01*
X139478741Y-108683685D01*
X139063686Y-109098740D01*
X138906551Y-109098740D01*
X139626863Y-108378428D01*
X139783998Y-108378428D01*
X140325302Y-109282413D01*
X140450988Y-109156726D01*
X140086881Y-108580537D01*
X140026909Y-108489391D01*
X139974061Y-108413833D01*
X140049879Y-108465990D01*
X140140679Y-108524753D01*
X140721661Y-108886053D01*
X140849248Y-108758467D01*
X139944528Y-108217898D01*
X139783998Y-108378428D01*
X139626863Y-108378428D01*
X140148262Y-107857029D01*
X140487688Y-107857029D01*
X140666266Y-108035607D01*
X140489372Y-108212501D01*
X140603315Y-108326443D01*
X140780209Y-108149550D01*
X140958743Y-108328084D01*
X141081753Y-108205074D01*
X140903218Y-108026540D01*
X141080155Y-107849603D01*
X140966213Y-107735660D01*
X140789276Y-107912597D01*
X140610698Y-107734019D01*
X140487688Y-107857029D01*
X140148262Y-107857029D01*
X140696489Y-107308802D01*
X141576269Y-108188581D01*
G37*
D13*
G36*
X154085028Y-118785530D02*
G01*
X154142547Y-118872969D01*
X154280666Y-119083629D01*
X154418664Y-119291357D01*
X154430998Y-119301005D01*
X154446019Y-119302348D01*
X154760482Y-119302348D01*
X155076288Y-119302348D01*
X155389407Y-119302348D01*
X155706556Y-119302348D01*
X155717547Y-119302348D01*
X155733911Y-119302348D01*
X155709243Y-119359745D01*
X155687505Y-119414456D01*
X155586267Y-119649539D01*
X155487837Y-119884745D01*
X155386720Y-120119951D01*
X155288290Y-120355035D01*
X155172031Y-120621626D01*
X155047589Y-120885530D01*
X154966867Y-121051005D01*
X154886267Y-121219166D01*
X154882115Y-121226005D01*
X154878085Y-121232721D01*
X154808353Y-121209518D01*
X154738622Y-121186315D01*
X154618210Y-121146626D01*
X154498043Y-121104250D01*
X154487052Y-121104250D01*
X154476183Y-121104250D01*
X154249159Y-121146626D01*
X154022258Y-121189002D01*
X153916867Y-121206832D01*
X153811720Y-121227348D01*
X153691309Y-121256047D01*
X153571019Y-121287432D01*
X153182795Y-121390014D01*
X152794449Y-121492596D01*
X152787610Y-121493939D01*
X152778085Y-121495283D01*
X152793105Y-121458280D01*
X152805440Y-121421399D01*
X152892879Y-121187659D01*
X152980440Y-120953918D01*
X153021472Y-120840467D01*
X153059697Y-120724208D01*
X153062505Y-120711874D01*
X153059697Y-120699539D01*
X152958458Y-120422079D01*
X152911695Y-120294951D01*
X153190977Y-120294951D01*
X153193664Y-120300446D01*
X153196472Y-120305820D01*
X153247031Y-120449435D01*
X153300398Y-120592927D01*
X153329096Y-120688670D01*
X153329558Y-120735451D01*
X153316762Y-120787100D01*
X153271577Y-120914229D01*
X153229201Y-121041357D01*
X153216989Y-121075551D01*
X153204655Y-121112432D01*
X153210028Y-121111089D01*
X153212837Y-121109745D01*
X153323601Y-121082390D01*
X153434365Y-121052348D01*
X153577858Y-121014124D01*
X153724159Y-120978465D01*
X153877299Y-120948423D01*
X154030440Y-120921068D01*
X154242320Y-120881378D01*
X154451514Y-120841811D01*
X154508911Y-120836315D01*
X154563622Y-120849993D01*
X154645687Y-120878691D01*
X154727753Y-120904703D01*
X154741309Y-120907390D01*
X154752299Y-120893712D01*
X154804201Y-120782948D01*
X154858911Y-120669497D01*
X154887610Y-120609414D01*
X154919117Y-120546399D01*
X154566309Y-120617596D01*
X154213622Y-120685862D01*
X153860935Y-120757058D01*
X153510935Y-120825324D01*
X153512278Y-120818608D01*
X153516309Y-120814456D01*
X153719102Y-120456273D01*
X154022258Y-120456273D01*
X154035813Y-120453465D01*
X154044117Y-120453465D01*
X154239634Y-120413897D01*
X154435150Y-120374208D01*
X154733126Y-120314124D01*
X155033911Y-120253918D01*
X155044902Y-120249766D01*
X155053085Y-120240241D01*
X155177526Y-119944951D01*
X155301968Y-119649539D01*
X155318332Y-119608629D01*
X155337505Y-119564787D01*
X155312837Y-119564787D01*
X154932673Y-119564787D01*
X154549944Y-119564787D01*
X154530771Y-119568939D01*
X154517094Y-119583960D01*
X154402299Y-119789002D01*
X154284697Y-119995509D01*
X154167094Y-120199208D01*
X154052299Y-120404250D01*
X154037278Y-120430262D01*
X154022258Y-120456273D01*
X153719102Y-120456273D01*
X153726846Y-120442596D01*
X153937505Y-120073423D01*
X154091989Y-119802680D01*
X154246472Y-119534745D01*
X154250503Y-119518381D01*
X154243664Y-119501895D01*
X154199944Y-119436315D01*
X154156225Y-119367927D01*
X154116535Y-119310530D01*
X154076968Y-119250324D01*
X153968891Y-119507390D01*
X153860935Y-119764456D01*
X153729655Y-119635862D01*
X153598374Y-119510077D01*
X153597031Y-119512885D01*
X153595687Y-119512885D01*
X153609365Y-119732948D01*
X153623043Y-119955820D01*
X153502631Y-119897079D01*
X153379655Y-119838217D01*
X153438395Y-120040694D01*
X153497258Y-120242927D01*
X153342652Y-120268939D01*
X153190977Y-120294951D01*
X152911695Y-120294951D01*
X152857341Y-120147184D01*
X152846472Y-120118486D01*
X152835482Y-120087100D01*
X152999491Y-120059745D01*
X153163622Y-120032390D01*
X153065192Y-119686542D01*
X152966762Y-119337885D01*
X153149944Y-119429476D01*
X153333126Y-119521068D01*
X153311267Y-119183402D01*
X153289407Y-118845614D01*
X153528643Y-119078133D01*
X153767879Y-119307721D01*
X153895007Y-119001563D01*
X154024944Y-118695283D01*
X154085028Y-118785530D01*
G37*
D10*
X156117665Y-121616949D02*
X156165285Y-121664568D01*
X156165285Y-121664568D02*
X156212904Y-121807425D01*
X156212904Y-121807425D02*
X156212904Y-121902663D01*
X156212904Y-121902663D02*
X156165285Y-122045520D01*
X156165285Y-122045520D02*
X156070046Y-122140758D01*
X156070046Y-122140758D02*
X155974808Y-122188377D01*
X155974808Y-122188377D02*
X155784332Y-122235996D01*
X155784332Y-122235996D02*
X155641475Y-122235996D01*
X155641475Y-122235996D02*
X155450999Y-122188377D01*
X155450999Y-122188377D02*
X155355761Y-122140758D01*
X155355761Y-122140758D02*
X155260523Y-122045520D01*
X155260523Y-122045520D02*
X155212904Y-121902663D01*
X155212904Y-121902663D02*
X155212904Y-121807425D01*
X155212904Y-121807425D02*
X155260523Y-121664568D01*
X155260523Y-121664568D02*
X155308142Y-121616949D01*
X155212904Y-121283615D02*
X155212904Y-120664568D01*
X155212904Y-120664568D02*
X155593856Y-120997901D01*
X155593856Y-120997901D02*
X155593856Y-120855044D01*
X155593856Y-120855044D02*
X155641475Y-120759806D01*
X155641475Y-120759806D02*
X155689094Y-120712187D01*
X155689094Y-120712187D02*
X155784332Y-120664568D01*
X155784332Y-120664568D02*
X156022427Y-120664568D01*
X156022427Y-120664568D02*
X156117665Y-120712187D01*
X156117665Y-120712187D02*
X156165285Y-120759806D01*
X156165285Y-120759806D02*
X156212904Y-120855044D01*
X156212904Y-120855044D02*
X156212904Y-121140758D01*
X156212904Y-121140758D02*
X156165285Y-121235996D01*
X156165285Y-121235996D02*
X156117665Y-121283615D01*
X147705842Y-116065521D02*
X147658223Y-116160759D01*
X147658223Y-116160759D02*
X147562985Y-116255997D01*
X147562985Y-116255997D02*
X147420127Y-116398854D01*
X147420127Y-116398854D02*
X147372508Y-116494092D01*
X147372508Y-116494092D02*
X147372508Y-116589330D01*
X147610604Y-116541711D02*
X147562985Y-116636949D01*
X147562985Y-116636949D02*
X147467746Y-116732187D01*
X147467746Y-116732187D02*
X147277270Y-116779806D01*
X147277270Y-116779806D02*
X146943937Y-116779806D01*
X146943937Y-116779806D02*
X146753461Y-116732187D01*
X146753461Y-116732187D02*
X146658223Y-116636949D01*
X146658223Y-116636949D02*
X146610604Y-116541711D01*
X146610604Y-116541711D02*
X146610604Y-116351235D01*
X146610604Y-116351235D02*
X146658223Y-116255997D01*
X146658223Y-116255997D02*
X146753461Y-116160759D01*
X146753461Y-116160759D02*
X146943937Y-116113140D01*
X146943937Y-116113140D02*
X147277270Y-116113140D01*
X147277270Y-116113140D02*
X147467746Y-116160759D01*
X147467746Y-116160759D02*
X147562985Y-116255997D01*
X147562985Y-116255997D02*
X147610604Y-116351235D01*
X147610604Y-116351235D02*
X147610604Y-116541711D01*
X147610604Y-115160759D02*
X147610604Y-115732187D01*
X147610604Y-115446473D02*
X146610604Y-115446473D01*
X146610604Y-115446473D02*
X146753461Y-115541711D01*
X146753461Y-115541711D02*
X146848699Y-115636949D01*
X146848699Y-115636949D02*
X146896318Y-115732187D01*
X163357665Y-115806949D02*
X163405285Y-115854568D01*
X163405285Y-115854568D02*
X163452904Y-115997425D01*
X163452904Y-115997425D02*
X163452904Y-116092663D01*
X163452904Y-116092663D02*
X163405285Y-116235520D01*
X163405285Y-116235520D02*
X163310046Y-116330758D01*
X163310046Y-116330758D02*
X163214808Y-116378377D01*
X163214808Y-116378377D02*
X163024332Y-116425996D01*
X163024332Y-116425996D02*
X162881475Y-116425996D01*
X162881475Y-116425996D02*
X162690999Y-116378377D01*
X162690999Y-116378377D02*
X162595761Y-116330758D01*
X162595761Y-116330758D02*
X162500523Y-116235520D01*
X162500523Y-116235520D02*
X162452904Y-116092663D01*
X162452904Y-116092663D02*
X162452904Y-115997425D01*
X162452904Y-115997425D02*
X162500523Y-115854568D01*
X162500523Y-115854568D02*
X162548142Y-115806949D01*
X162452904Y-114902187D02*
X162452904Y-115378377D01*
X162452904Y-115378377D02*
X162929094Y-115425996D01*
X162929094Y-115425996D02*
X162881475Y-115378377D01*
X162881475Y-115378377D02*
X162833856Y-115283139D01*
X162833856Y-115283139D02*
X162833856Y-115045044D01*
X162833856Y-115045044D02*
X162881475Y-114949806D01*
X162881475Y-114949806D02*
X162929094Y-114902187D01*
X162929094Y-114902187D02*
X163024332Y-114854568D01*
X163024332Y-114854568D02*
X163262427Y-114854568D01*
X163262427Y-114854568D02*
X163357665Y-114902187D01*
X163357665Y-114902187D02*
X163405285Y-114949806D01*
X163405285Y-114949806D02*
X163452904Y-115045044D01*
X163452904Y-115045044D02*
X163452904Y-115283139D01*
X163452904Y-115283139D02*
X163405285Y-115378377D01*
X163405285Y-115378377D02*
X163357665Y-115425996D01*
X133452904Y-116548377D02*
X132452904Y-116548377D01*
X132452904Y-116548377D02*
X132452904Y-116310282D01*
X132452904Y-116310282D02*
X132500523Y-116167425D01*
X132500523Y-116167425D02*
X132595761Y-116072187D01*
X132595761Y-116072187D02*
X132690999Y-116024568D01*
X132690999Y-116024568D02*
X132881475Y-115976949D01*
X132881475Y-115976949D02*
X133024332Y-115976949D01*
X133024332Y-115976949D02*
X133214808Y-116024568D01*
X133214808Y-116024568D02*
X133310046Y-116072187D01*
X133310046Y-116072187D02*
X133405285Y-116167425D01*
X133405285Y-116167425D02*
X133452904Y-116310282D01*
X133452904Y-116310282D02*
X133452904Y-116548377D01*
X133452904Y-115024568D02*
X133452904Y-115595996D01*
X133452904Y-115310282D02*
X132452904Y-115310282D01*
X132452904Y-115310282D02*
X132595761Y-115405520D01*
X132595761Y-115405520D02*
X132690999Y-115500758D01*
X132690999Y-115500758D02*
X132738618Y-115595996D01*
X149742904Y-98146949D02*
X149266713Y-98480282D01*
X149742904Y-98718377D02*
X148742904Y-98718377D01*
X148742904Y-98718377D02*
X148742904Y-98337425D01*
X148742904Y-98337425D02*
X148790523Y-98242187D01*
X148790523Y-98242187D02*
X148838142Y-98194568D01*
X148838142Y-98194568D02*
X148933380Y-98146949D01*
X148933380Y-98146949D02*
X149076237Y-98146949D01*
X149076237Y-98146949D02*
X149171475Y-98194568D01*
X149171475Y-98194568D02*
X149219094Y-98242187D01*
X149219094Y-98242187D02*
X149266713Y-98337425D01*
X149266713Y-98337425D02*
X149266713Y-98718377D01*
X148742904Y-97813615D02*
X148742904Y-97146949D01*
X148742904Y-97146949D02*
X149742904Y-97575520D01*
X147041418Y-91745102D02*
X146708085Y-91268911D01*
X146469990Y-91745102D02*
X146469990Y-90745102D01*
X146469990Y-90745102D02*
X146850942Y-90745102D01*
X146850942Y-90745102D02*
X146946180Y-90792721D01*
X146946180Y-90792721D02*
X146993799Y-90840340D01*
X146993799Y-90840340D02*
X147041418Y-90935578D01*
X147041418Y-90935578D02*
X147041418Y-91078435D01*
X147041418Y-91078435D02*
X146993799Y-91173673D01*
X146993799Y-91173673D02*
X146946180Y-91221292D01*
X146946180Y-91221292D02*
X146850942Y-91268911D01*
X146850942Y-91268911D02*
X146469990Y-91268911D01*
X147898561Y-90745102D02*
X147708085Y-90745102D01*
X147708085Y-90745102D02*
X147612847Y-90792721D01*
X147612847Y-90792721D02*
X147565228Y-90840340D01*
X147565228Y-90840340D02*
X147469990Y-90983197D01*
X147469990Y-90983197D02*
X147422371Y-91173673D01*
X147422371Y-91173673D02*
X147422371Y-91554625D01*
X147422371Y-91554625D02*
X147469990Y-91649863D01*
X147469990Y-91649863D02*
X147517609Y-91697483D01*
X147517609Y-91697483D02*
X147612847Y-91745102D01*
X147612847Y-91745102D02*
X147803323Y-91745102D01*
X147803323Y-91745102D02*
X147898561Y-91697483D01*
X147898561Y-91697483D02*
X147946180Y-91649863D01*
X147946180Y-91649863D02*
X147993799Y-91554625D01*
X147993799Y-91554625D02*
X147993799Y-91316530D01*
X147993799Y-91316530D02*
X147946180Y-91221292D01*
X147946180Y-91221292D02*
X147898561Y-91173673D01*
X147898561Y-91173673D02*
X147803323Y-91126054D01*
X147803323Y-91126054D02*
X147612847Y-91126054D01*
X147612847Y-91126054D02*
X147517609Y-91173673D01*
X147517609Y-91173673D02*
X147469990Y-91221292D01*
X147469990Y-91221292D02*
X147422371Y-91316530D01*
D14*
X150156180Y-97449902D02*
X150156180Y-98259425D01*
X150156180Y-98259425D02*
X150203799Y-98354663D01*
X150203799Y-98354663D02*
X150251418Y-98402283D01*
X150251418Y-98402283D02*
X150346656Y-98449902D01*
X150346656Y-98449902D02*
X150537132Y-98449902D01*
X150537132Y-98449902D02*
X150632370Y-98402283D01*
X150632370Y-98402283D02*
X150679989Y-98354663D01*
X150679989Y-98354663D02*
X150727608Y-98259425D01*
X150727608Y-98259425D02*
X150727608Y-97449902D01*
X151727608Y-98449902D02*
X151156180Y-98449902D01*
X151441894Y-98449902D02*
X151441894Y-97449902D01*
X151441894Y-97449902D02*
X151346656Y-97592759D01*
X151346656Y-97592759D02*
X151251418Y-97687997D01*
X151251418Y-97687997D02*
X151156180Y-97735616D01*
D10*
X153057665Y-98526949D02*
X153105285Y-98574568D01*
X153105285Y-98574568D02*
X153152904Y-98717425D01*
X153152904Y-98717425D02*
X153152904Y-98812663D01*
X153152904Y-98812663D02*
X153105285Y-98955520D01*
X153105285Y-98955520D02*
X153010046Y-99050758D01*
X153010046Y-99050758D02*
X152914808Y-99098377D01*
X152914808Y-99098377D02*
X152724332Y-99145996D01*
X152724332Y-99145996D02*
X152581475Y-99145996D01*
X152581475Y-99145996D02*
X152390999Y-99098377D01*
X152390999Y-99098377D02*
X152295761Y-99050758D01*
X152295761Y-99050758D02*
X152200523Y-98955520D01*
X152200523Y-98955520D02*
X152152904Y-98812663D01*
X152152904Y-98812663D02*
X152152904Y-98717425D01*
X152152904Y-98717425D02*
X152200523Y-98574568D01*
X152200523Y-98574568D02*
X152248142Y-98526949D01*
X152486237Y-97669806D02*
X153152904Y-97669806D01*
X152105285Y-97907901D02*
X152819570Y-98145996D01*
X152819570Y-98145996D02*
X152819570Y-97526949D01*
X149362904Y-92563140D02*
X148886713Y-92896473D01*
X149362904Y-93134568D02*
X148362904Y-93134568D01*
X148362904Y-93134568D02*
X148362904Y-92753616D01*
X148362904Y-92753616D02*
X148410523Y-92658378D01*
X148410523Y-92658378D02*
X148458142Y-92610759D01*
X148458142Y-92610759D02*
X148553380Y-92563140D01*
X148553380Y-92563140D02*
X148696237Y-92563140D01*
X148696237Y-92563140D02*
X148791475Y-92610759D01*
X148791475Y-92610759D02*
X148839094Y-92658378D01*
X148839094Y-92658378D02*
X148886713Y-92753616D01*
X148886713Y-92753616D02*
X148886713Y-93134568D01*
X149362904Y-91610759D02*
X149362904Y-92182187D01*
X149362904Y-91896473D02*
X148362904Y-91896473D01*
X148362904Y-91896473D02*
X148505761Y-91991711D01*
X148505761Y-91991711D02*
X148600999Y-92086949D01*
X148600999Y-92086949D02*
X148648618Y-92182187D01*
X149362904Y-90658378D02*
X149362904Y-91229806D01*
X149362904Y-90944092D02*
X148362904Y-90944092D01*
X148362904Y-90944092D02*
X148505761Y-91039330D01*
X148505761Y-91039330D02*
X148600999Y-91134568D01*
X148600999Y-91134568D02*
X148648618Y-91229806D01*
X146755665Y-93756949D02*
X146803285Y-93804568D01*
X146803285Y-93804568D02*
X146850904Y-93947425D01*
X146850904Y-93947425D02*
X146850904Y-94042663D01*
X146850904Y-94042663D02*
X146803285Y-94185520D01*
X146803285Y-94185520D02*
X146708046Y-94280758D01*
X146708046Y-94280758D02*
X146612808Y-94328377D01*
X146612808Y-94328377D02*
X146422332Y-94375996D01*
X146422332Y-94375996D02*
X146279475Y-94375996D01*
X146279475Y-94375996D02*
X146088999Y-94328377D01*
X146088999Y-94328377D02*
X145993761Y-94280758D01*
X145993761Y-94280758D02*
X145898523Y-94185520D01*
X145898523Y-94185520D02*
X145850904Y-94042663D01*
X145850904Y-94042663D02*
X145850904Y-93947425D01*
X145850904Y-93947425D02*
X145898523Y-93804568D01*
X145898523Y-93804568D02*
X145946142Y-93756949D01*
X146850904Y-92804568D02*
X146850904Y-93375996D01*
X146850904Y-93090282D02*
X145850904Y-93090282D01*
X145850904Y-93090282D02*
X145993761Y-93185520D01*
X145993761Y-93185520D02*
X146088999Y-93280758D01*
X146088999Y-93280758D02*
X146136618Y-93375996D01*
X146894418Y-100770102D02*
X146561085Y-100293911D01*
X146322990Y-100770102D02*
X146322990Y-99770102D01*
X146322990Y-99770102D02*
X146703942Y-99770102D01*
X146703942Y-99770102D02*
X146799180Y-99817721D01*
X146799180Y-99817721D02*
X146846799Y-99865340D01*
X146846799Y-99865340D02*
X146894418Y-99960578D01*
X146894418Y-99960578D02*
X146894418Y-100103435D01*
X146894418Y-100103435D02*
X146846799Y-100198673D01*
X146846799Y-100198673D02*
X146799180Y-100246292D01*
X146799180Y-100246292D02*
X146703942Y-100293911D01*
X146703942Y-100293911D02*
X146322990Y-100293911D01*
X147465847Y-100198673D02*
X147370609Y-100151054D01*
X147370609Y-100151054D02*
X147322990Y-100103435D01*
X147322990Y-100103435D02*
X147275371Y-100008197D01*
X147275371Y-100008197D02*
X147275371Y-99960578D01*
X147275371Y-99960578D02*
X147322990Y-99865340D01*
X147322990Y-99865340D02*
X147370609Y-99817721D01*
X147370609Y-99817721D02*
X147465847Y-99770102D01*
X147465847Y-99770102D02*
X147656323Y-99770102D01*
X147656323Y-99770102D02*
X147751561Y-99817721D01*
X147751561Y-99817721D02*
X147799180Y-99865340D01*
X147799180Y-99865340D02*
X147846799Y-99960578D01*
X147846799Y-99960578D02*
X147846799Y-100008197D01*
X147846799Y-100008197D02*
X147799180Y-100103435D01*
X147799180Y-100103435D02*
X147751561Y-100151054D01*
X147751561Y-100151054D02*
X147656323Y-100198673D01*
X147656323Y-100198673D02*
X147465847Y-100198673D01*
X147465847Y-100198673D02*
X147370609Y-100246292D01*
X147370609Y-100246292D02*
X147322990Y-100293911D01*
X147322990Y-100293911D02*
X147275371Y-100389149D01*
X147275371Y-100389149D02*
X147275371Y-100579625D01*
X147275371Y-100579625D02*
X147322990Y-100674863D01*
X147322990Y-100674863D02*
X147370609Y-100722483D01*
X147370609Y-100722483D02*
X147465847Y-100770102D01*
X147465847Y-100770102D02*
X147656323Y-100770102D01*
X147656323Y-100770102D02*
X147751561Y-100722483D01*
X147751561Y-100722483D02*
X147799180Y-100674863D01*
X147799180Y-100674863D02*
X147846799Y-100579625D01*
X147846799Y-100579625D02*
X147846799Y-100389149D01*
X147846799Y-100389149D02*
X147799180Y-100293911D01*
X147799180Y-100293911D02*
X147751561Y-100246292D01*
X147751561Y-100246292D02*
X147656323Y-100198673D01*
X144012904Y-94966949D02*
X143536713Y-95300282D01*
X144012904Y-95538377D02*
X143012904Y-95538377D01*
X143012904Y-95538377D02*
X143012904Y-95157425D01*
X143012904Y-95157425D02*
X143060523Y-95062187D01*
X143060523Y-95062187D02*
X143108142Y-95014568D01*
X143108142Y-95014568D02*
X143203380Y-94966949D01*
X143203380Y-94966949D02*
X143346237Y-94966949D01*
X143346237Y-94966949D02*
X143441475Y-95014568D01*
X143441475Y-95014568D02*
X143489094Y-95062187D01*
X143489094Y-95062187D02*
X143536713Y-95157425D01*
X143536713Y-95157425D02*
X143536713Y-95538377D01*
X144012904Y-94014568D02*
X144012904Y-94585996D01*
X144012904Y-94300282D02*
X143012904Y-94300282D01*
X143012904Y-94300282D02*
X143155761Y-94395520D01*
X143155761Y-94395520D02*
X143250999Y-94490758D01*
X143250999Y-94490758D02*
X143298618Y-94585996D01*
X153522904Y-92168377D02*
X152522904Y-92168377D01*
X152522904Y-92168377D02*
X152522904Y-91930282D01*
X152522904Y-91930282D02*
X152570523Y-91787425D01*
X152570523Y-91787425D02*
X152665761Y-91692187D01*
X152665761Y-91692187D02*
X152760999Y-91644568D01*
X152760999Y-91644568D02*
X152951475Y-91596949D01*
X152951475Y-91596949D02*
X153094332Y-91596949D01*
X153094332Y-91596949D02*
X153284808Y-91644568D01*
X153284808Y-91644568D02*
X153380046Y-91692187D01*
X153380046Y-91692187D02*
X153475285Y-91787425D01*
X153475285Y-91787425D02*
X153522904Y-91930282D01*
X153522904Y-91930282D02*
X153522904Y-92168377D01*
X152522904Y-91263615D02*
X152522904Y-90644568D01*
X152522904Y-90644568D02*
X152903856Y-90977901D01*
X152903856Y-90977901D02*
X152903856Y-90835044D01*
X152903856Y-90835044D02*
X152951475Y-90739806D01*
X152951475Y-90739806D02*
X152999094Y-90692187D01*
X152999094Y-90692187D02*
X153094332Y-90644568D01*
X153094332Y-90644568D02*
X153332427Y-90644568D01*
X153332427Y-90644568D02*
X153427665Y-90692187D01*
X153427665Y-90692187D02*
X153475285Y-90739806D01*
X153475285Y-90739806D02*
X153522904Y-90835044D01*
X153522904Y-90835044D02*
X153522904Y-91120758D01*
X153522904Y-91120758D02*
X153475285Y-91215996D01*
X153475285Y-91215996D02*
X153427665Y-91263615D01*
X142202904Y-123493616D02*
X142917189Y-123493616D01*
X142917189Y-123493616D02*
X143060046Y-123541235D01*
X143060046Y-123541235D02*
X143155285Y-123636473D01*
X143155285Y-123636473D02*
X143202904Y-123779330D01*
X143202904Y-123779330D02*
X143202904Y-123874568D01*
X142202904Y-122588854D02*
X142202904Y-122779330D01*
X142202904Y-122779330D02*
X142250523Y-122874568D01*
X142250523Y-122874568D02*
X142298142Y-122922187D01*
X142298142Y-122922187D02*
X142440999Y-123017425D01*
X142440999Y-123017425D02*
X142631475Y-123065044D01*
X142631475Y-123065044D02*
X143012427Y-123065044D01*
X143012427Y-123065044D02*
X143107665Y-123017425D01*
X143107665Y-123017425D02*
X143155285Y-122969806D01*
X143155285Y-122969806D02*
X143202904Y-122874568D01*
X143202904Y-122874568D02*
X143202904Y-122684092D01*
X143202904Y-122684092D02*
X143155285Y-122588854D01*
X143155285Y-122588854D02*
X143107665Y-122541235D01*
X143107665Y-122541235D02*
X143012427Y-122493616D01*
X143012427Y-122493616D02*
X142774332Y-122493616D01*
X142774332Y-122493616D02*
X142679094Y-122541235D01*
X142679094Y-122541235D02*
X142631475Y-122588854D01*
X142631475Y-122588854D02*
X142583856Y-122684092D01*
X142583856Y-122684092D02*
X142583856Y-122874568D01*
X142583856Y-122874568D02*
X142631475Y-122969806D01*
X142631475Y-122969806D02*
X142679094Y-123017425D01*
X142679094Y-123017425D02*
X142774332Y-123065044D01*
X149742904Y-100136949D02*
X149266713Y-100470282D01*
X149742904Y-100708377D02*
X148742904Y-100708377D01*
X148742904Y-100708377D02*
X148742904Y-100327425D01*
X148742904Y-100327425D02*
X148790523Y-100232187D01*
X148790523Y-100232187D02*
X148838142Y-100184568D01*
X148838142Y-100184568D02*
X148933380Y-100136949D01*
X148933380Y-100136949D02*
X149076237Y-100136949D01*
X149076237Y-100136949D02*
X149171475Y-100184568D01*
X149171475Y-100184568D02*
X149219094Y-100232187D01*
X149219094Y-100232187D02*
X149266713Y-100327425D01*
X149266713Y-100327425D02*
X149266713Y-100708377D01*
X149742904Y-99660758D02*
X149742904Y-99470282D01*
X149742904Y-99470282D02*
X149695285Y-99375044D01*
X149695285Y-99375044D02*
X149647665Y-99327425D01*
X149647665Y-99327425D02*
X149504808Y-99232187D01*
X149504808Y-99232187D02*
X149314332Y-99184568D01*
X149314332Y-99184568D02*
X148933380Y-99184568D01*
X148933380Y-99184568D02*
X148838142Y-99232187D01*
X148838142Y-99232187D02*
X148790523Y-99279806D01*
X148790523Y-99279806D02*
X148742904Y-99375044D01*
X148742904Y-99375044D02*
X148742904Y-99565520D01*
X148742904Y-99565520D02*
X148790523Y-99660758D01*
X148790523Y-99660758D02*
X148838142Y-99708377D01*
X148838142Y-99708377D02*
X148933380Y-99755996D01*
X148933380Y-99755996D02*
X149171475Y-99755996D01*
X149171475Y-99755996D02*
X149266713Y-99708377D01*
X149266713Y-99708377D02*
X149314332Y-99660758D01*
X149314332Y-99660758D02*
X149361951Y-99565520D01*
X149361951Y-99565520D02*
X149361951Y-99375044D01*
X149361951Y-99375044D02*
X149314332Y-99279806D01*
X149314332Y-99279806D02*
X149266713Y-99232187D01*
X149266713Y-99232187D02*
X149171475Y-99184568D01*
X144052904Y-96826949D02*
X143576713Y-97160282D01*
X144052904Y-97398377D02*
X143052904Y-97398377D01*
X143052904Y-97398377D02*
X143052904Y-97017425D01*
X143052904Y-97017425D02*
X143100523Y-96922187D01*
X143100523Y-96922187D02*
X143148142Y-96874568D01*
X143148142Y-96874568D02*
X143243380Y-96826949D01*
X143243380Y-96826949D02*
X143386237Y-96826949D01*
X143386237Y-96826949D02*
X143481475Y-96874568D01*
X143481475Y-96874568D02*
X143529094Y-96922187D01*
X143529094Y-96922187D02*
X143576713Y-97017425D01*
X143576713Y-97017425D02*
X143576713Y-97398377D01*
X143148142Y-96445996D02*
X143100523Y-96398377D01*
X143100523Y-96398377D02*
X143052904Y-96303139D01*
X143052904Y-96303139D02*
X143052904Y-96065044D01*
X143052904Y-96065044D02*
X143100523Y-95969806D01*
X143100523Y-95969806D02*
X143148142Y-95922187D01*
X143148142Y-95922187D02*
X143243380Y-95874568D01*
X143243380Y-95874568D02*
X143338618Y-95874568D01*
X143338618Y-95874568D02*
X143481475Y-95922187D01*
X143481475Y-95922187D02*
X144052904Y-96493615D01*
X144052904Y-96493615D02*
X144052904Y-95874568D01*
X152865842Y-116055521D02*
X152818223Y-116150759D01*
X152818223Y-116150759D02*
X152722985Y-116245997D01*
X152722985Y-116245997D02*
X152580127Y-116388854D01*
X152580127Y-116388854D02*
X152532508Y-116484092D01*
X152532508Y-116484092D02*
X152532508Y-116579330D01*
X152770604Y-116531711D02*
X152722985Y-116626949D01*
X152722985Y-116626949D02*
X152627746Y-116722187D01*
X152627746Y-116722187D02*
X152437270Y-116769806D01*
X152437270Y-116769806D02*
X152103937Y-116769806D01*
X152103937Y-116769806D02*
X151913461Y-116722187D01*
X151913461Y-116722187D02*
X151818223Y-116626949D01*
X151818223Y-116626949D02*
X151770604Y-116531711D01*
X151770604Y-116531711D02*
X151770604Y-116341235D01*
X151770604Y-116341235D02*
X151818223Y-116245997D01*
X151818223Y-116245997D02*
X151913461Y-116150759D01*
X151913461Y-116150759D02*
X152103937Y-116103140D01*
X152103937Y-116103140D02*
X152437270Y-116103140D01*
X152437270Y-116103140D02*
X152627746Y-116150759D01*
X152627746Y-116150759D02*
X152722985Y-116245997D01*
X152722985Y-116245997D02*
X152770604Y-116341235D01*
X152770604Y-116341235D02*
X152770604Y-116531711D01*
X151865842Y-115722187D02*
X151818223Y-115674568D01*
X151818223Y-115674568D02*
X151770604Y-115579330D01*
X151770604Y-115579330D02*
X151770604Y-115341235D01*
X151770604Y-115341235D02*
X151818223Y-115245997D01*
X151818223Y-115245997D02*
X151865842Y-115198378D01*
X151865842Y-115198378D02*
X151961080Y-115150759D01*
X151961080Y-115150759D02*
X152056318Y-115150759D01*
X152056318Y-115150759D02*
X152199175Y-115198378D01*
X152199175Y-115198378D02*
X152770604Y-115769806D01*
X152770604Y-115769806D02*
X152770604Y-115150759D01*
X154101418Y-96179863D02*
X154053799Y-96227483D01*
X154053799Y-96227483D02*
X153910942Y-96275102D01*
X153910942Y-96275102D02*
X153815704Y-96275102D01*
X153815704Y-96275102D02*
X153672847Y-96227483D01*
X153672847Y-96227483D02*
X153577609Y-96132244D01*
X153577609Y-96132244D02*
X153529990Y-96037006D01*
X153529990Y-96037006D02*
X153482371Y-95846530D01*
X153482371Y-95846530D02*
X153482371Y-95703673D01*
X153482371Y-95703673D02*
X153529990Y-95513197D01*
X153529990Y-95513197D02*
X153577609Y-95417959D01*
X153577609Y-95417959D02*
X153672847Y-95322721D01*
X153672847Y-95322721D02*
X153815704Y-95275102D01*
X153815704Y-95275102D02*
X153910942Y-95275102D01*
X153910942Y-95275102D02*
X154053799Y-95322721D01*
X154053799Y-95322721D02*
X154101418Y-95370340D01*
X154482371Y-95370340D02*
X154529990Y-95322721D01*
X154529990Y-95322721D02*
X154625228Y-95275102D01*
X154625228Y-95275102D02*
X154863323Y-95275102D01*
X154863323Y-95275102D02*
X154958561Y-95322721D01*
X154958561Y-95322721D02*
X155006180Y-95370340D01*
X155006180Y-95370340D02*
X155053799Y-95465578D01*
X155053799Y-95465578D02*
X155053799Y-95560816D01*
X155053799Y-95560816D02*
X155006180Y-95703673D01*
X155006180Y-95703673D02*
X154434752Y-96275102D01*
X154434752Y-96275102D02*
X155053799Y-96275102D01*
X154662904Y-121606949D02*
X154186713Y-121940282D01*
X154662904Y-122178377D02*
X153662904Y-122178377D01*
X153662904Y-122178377D02*
X153662904Y-121797425D01*
X153662904Y-121797425D02*
X153710523Y-121702187D01*
X153710523Y-121702187D02*
X153758142Y-121654568D01*
X153758142Y-121654568D02*
X153853380Y-121606949D01*
X153853380Y-121606949D02*
X153996237Y-121606949D01*
X153996237Y-121606949D02*
X154091475Y-121654568D01*
X154091475Y-121654568D02*
X154139094Y-121702187D01*
X154139094Y-121702187D02*
X154186713Y-121797425D01*
X154186713Y-121797425D02*
X154186713Y-122178377D01*
X153996237Y-120749806D02*
X154662904Y-120749806D01*
X153615285Y-120987901D02*
X154329570Y-121225996D01*
X154329570Y-121225996D02*
X154329570Y-120606949D01*
X143982904Y-93006949D02*
X143506713Y-93340282D01*
X143982904Y-93578377D02*
X142982904Y-93578377D01*
X142982904Y-93578377D02*
X142982904Y-93197425D01*
X142982904Y-93197425D02*
X143030523Y-93102187D01*
X143030523Y-93102187D02*
X143078142Y-93054568D01*
X143078142Y-93054568D02*
X143173380Y-93006949D01*
X143173380Y-93006949D02*
X143316237Y-93006949D01*
X143316237Y-93006949D02*
X143411475Y-93054568D01*
X143411475Y-93054568D02*
X143459094Y-93102187D01*
X143459094Y-93102187D02*
X143506713Y-93197425D01*
X143506713Y-93197425D02*
X143506713Y-93578377D01*
X142982904Y-92102187D02*
X142982904Y-92578377D01*
X142982904Y-92578377D02*
X143459094Y-92625996D01*
X143459094Y-92625996D02*
X143411475Y-92578377D01*
X143411475Y-92578377D02*
X143363856Y-92483139D01*
X143363856Y-92483139D02*
X143363856Y-92245044D01*
X143363856Y-92245044D02*
X143411475Y-92149806D01*
X143411475Y-92149806D02*
X143459094Y-92102187D01*
X143459094Y-92102187D02*
X143554332Y-92054568D01*
X143554332Y-92054568D02*
X143792427Y-92054568D01*
X143792427Y-92054568D02*
X143887665Y-92102187D01*
X143887665Y-92102187D02*
X143935285Y-92149806D01*
X143935285Y-92149806D02*
X143982904Y-92245044D01*
X143982904Y-92245044D02*
X143982904Y-92483139D01*
X143982904Y-92483139D02*
X143935285Y-92578377D01*
X143935285Y-92578377D02*
X143887665Y-92625996D01*
X153034751Y-100475102D02*
X153034751Y-101189387D01*
X153034751Y-101189387D02*
X152987132Y-101332244D01*
X152987132Y-101332244D02*
X152891894Y-101427483D01*
X152891894Y-101427483D02*
X152749037Y-101475102D01*
X152749037Y-101475102D02*
X152653799Y-101475102D01*
X153939513Y-100808435D02*
X153939513Y-101475102D01*
X153701418Y-100427483D02*
X153463323Y-101141768D01*
X153463323Y-101141768D02*
X154082370Y-101141768D01*
X144052904Y-99816949D02*
X143576713Y-100150282D01*
X144052904Y-100388377D02*
X143052904Y-100388377D01*
X143052904Y-100388377D02*
X143052904Y-100007425D01*
X143052904Y-100007425D02*
X143100523Y-99912187D01*
X143100523Y-99912187D02*
X143148142Y-99864568D01*
X143148142Y-99864568D02*
X143243380Y-99816949D01*
X143243380Y-99816949D02*
X143386237Y-99816949D01*
X143386237Y-99816949D02*
X143481475Y-99864568D01*
X143481475Y-99864568D02*
X143529094Y-99912187D01*
X143529094Y-99912187D02*
X143576713Y-100007425D01*
X143576713Y-100007425D02*
X143576713Y-100388377D01*
X143052904Y-99483615D02*
X143052904Y-98864568D01*
X143052904Y-98864568D02*
X143433856Y-99197901D01*
X143433856Y-99197901D02*
X143433856Y-99055044D01*
X143433856Y-99055044D02*
X143481475Y-98959806D01*
X143481475Y-98959806D02*
X143529094Y-98912187D01*
X143529094Y-98912187D02*
X143624332Y-98864568D01*
X143624332Y-98864568D02*
X143862427Y-98864568D01*
X143862427Y-98864568D02*
X143957665Y-98912187D01*
X143957665Y-98912187D02*
X144005285Y-98959806D01*
X144005285Y-98959806D02*
X144052904Y-99055044D01*
X144052904Y-99055044D02*
X144052904Y-99340758D01*
X144052904Y-99340758D02*
X144005285Y-99435996D01*
X144005285Y-99435996D02*
X143957665Y-99483615D01*
X142202904Y-108993616D02*
X142917189Y-108993616D01*
X142917189Y-108993616D02*
X143060046Y-109041235D01*
X143060046Y-109041235D02*
X143155285Y-109136473D01*
X143155285Y-109136473D02*
X143202904Y-109279330D01*
X143202904Y-109279330D02*
X143202904Y-109374568D01*
X142202904Y-108041235D02*
X142202904Y-108517425D01*
X142202904Y-108517425D02*
X142679094Y-108565044D01*
X142679094Y-108565044D02*
X142631475Y-108517425D01*
X142631475Y-108517425D02*
X142583856Y-108422187D01*
X142583856Y-108422187D02*
X142583856Y-108184092D01*
X142583856Y-108184092D02*
X142631475Y-108088854D01*
X142631475Y-108088854D02*
X142679094Y-108041235D01*
X142679094Y-108041235D02*
X142774332Y-107993616D01*
X142774332Y-107993616D02*
X143012427Y-107993616D01*
X143012427Y-107993616D02*
X143107665Y-108041235D01*
X143107665Y-108041235D02*
X143155285Y-108088854D01*
X143155285Y-108088854D02*
X143202904Y-108184092D01*
X143202904Y-108184092D02*
X143202904Y-108422187D01*
X143202904Y-108422187D02*
X143155285Y-108517425D01*
X143155285Y-108517425D02*
X143107665Y-108565044D01*
X159092904Y-112025877D02*
X158092904Y-112025877D01*
X158092904Y-112025877D02*
X158092904Y-111787782D01*
X158092904Y-111787782D02*
X158140523Y-111644925D01*
X158140523Y-111644925D02*
X158235761Y-111549687D01*
X158235761Y-111549687D02*
X158330999Y-111502068D01*
X158330999Y-111502068D02*
X158521475Y-111454449D01*
X158521475Y-111454449D02*
X158664332Y-111454449D01*
X158664332Y-111454449D02*
X158854808Y-111502068D01*
X158854808Y-111502068D02*
X158950046Y-111549687D01*
X158950046Y-111549687D02*
X159045285Y-111644925D01*
X159045285Y-111644925D02*
X159092904Y-111787782D01*
X159092904Y-111787782D02*
X159092904Y-112025877D01*
X158188142Y-111073496D02*
X158140523Y-111025877D01*
X158140523Y-111025877D02*
X158092904Y-110930639D01*
X158092904Y-110930639D02*
X158092904Y-110692544D01*
X158092904Y-110692544D02*
X158140523Y-110597306D01*
X158140523Y-110597306D02*
X158188142Y-110549687D01*
X158188142Y-110549687D02*
X158283380Y-110502068D01*
X158283380Y-110502068D02*
X158378618Y-110502068D01*
X158378618Y-110502068D02*
X158521475Y-110549687D01*
X158521475Y-110549687D02*
X159092904Y-111121115D01*
X159092904Y-111121115D02*
X159092904Y-110502068D01*
X154212904Y-88443616D02*
X154927189Y-88443616D01*
X154927189Y-88443616D02*
X155070046Y-88491235D01*
X155070046Y-88491235D02*
X155165285Y-88586473D01*
X155165285Y-88586473D02*
X155212904Y-88729330D01*
X155212904Y-88729330D02*
X155212904Y-88824568D01*
X154212904Y-88062663D02*
X154212904Y-87443616D01*
X154212904Y-87443616D02*
X154593856Y-87776949D01*
X154593856Y-87776949D02*
X154593856Y-87634092D01*
X154593856Y-87634092D02*
X154641475Y-87538854D01*
X154641475Y-87538854D02*
X154689094Y-87491235D01*
X154689094Y-87491235D02*
X154784332Y-87443616D01*
X154784332Y-87443616D02*
X155022427Y-87443616D01*
X155022427Y-87443616D02*
X155117665Y-87491235D01*
X155117665Y-87491235D02*
X155165285Y-87538854D01*
X155165285Y-87538854D02*
X155212904Y-87634092D01*
X155212904Y-87634092D02*
X155212904Y-87919806D01*
X155212904Y-87919806D02*
X155165285Y-88015044D01*
X155165285Y-88015044D02*
X155117665Y-88062663D01*
X154672904Y-111953140D02*
X154196713Y-112286473D01*
X154672904Y-112524568D02*
X153672904Y-112524568D01*
X153672904Y-112524568D02*
X153672904Y-112143616D01*
X153672904Y-112143616D02*
X153720523Y-112048378D01*
X153720523Y-112048378D02*
X153768142Y-112000759D01*
X153768142Y-112000759D02*
X153863380Y-111953140D01*
X153863380Y-111953140D02*
X154006237Y-111953140D01*
X154006237Y-111953140D02*
X154101475Y-112000759D01*
X154101475Y-112000759D02*
X154149094Y-112048378D01*
X154149094Y-112048378D02*
X154196713Y-112143616D01*
X154196713Y-112143616D02*
X154196713Y-112524568D01*
X154672904Y-111000759D02*
X154672904Y-111572187D01*
X154672904Y-111286473D02*
X153672904Y-111286473D01*
X153672904Y-111286473D02*
X153815761Y-111381711D01*
X153815761Y-111381711D02*
X153910999Y-111476949D01*
X153910999Y-111476949D02*
X153958618Y-111572187D01*
X153672904Y-110381711D02*
X153672904Y-110286473D01*
X153672904Y-110286473D02*
X153720523Y-110191235D01*
X153720523Y-110191235D02*
X153768142Y-110143616D01*
X153768142Y-110143616D02*
X153863380Y-110095997D01*
X153863380Y-110095997D02*
X154053856Y-110048378D01*
X154053856Y-110048378D02*
X154291951Y-110048378D01*
X154291951Y-110048378D02*
X154482427Y-110095997D01*
X154482427Y-110095997D02*
X154577665Y-110143616D01*
X154577665Y-110143616D02*
X154625285Y-110191235D01*
X154625285Y-110191235D02*
X154672904Y-110286473D01*
X154672904Y-110286473D02*
X154672904Y-110381711D01*
X154672904Y-110381711D02*
X154625285Y-110476949D01*
X154625285Y-110476949D02*
X154577665Y-110524568D01*
X154577665Y-110524568D02*
X154482427Y-110572187D01*
X154482427Y-110572187D02*
X154291951Y-110619806D01*
X154291951Y-110619806D02*
X154053856Y-110619806D01*
X154053856Y-110619806D02*
X153863380Y-110572187D01*
X153863380Y-110572187D02*
X153768142Y-110524568D01*
X153768142Y-110524568D02*
X153720523Y-110476949D01*
X153720523Y-110476949D02*
X153672904Y-110381711D01*
D15*
%TO.C,C3*%
X156678085Y-121590863D02*
X156678085Y-121309703D01*
X157698085Y-121590863D02*
X157698085Y-121309703D01*
D16*
%TO.C,Q1*%
X144831685Y-110737883D02*
X144831685Y-121202683D01*
X144831685Y-121202683D02*
X149479885Y-121202683D01*
X146101685Y-121075683D02*
X146101685Y-110864883D01*
X149479885Y-110737883D02*
X144831685Y-110737883D01*
X149479885Y-121202683D02*
X149479885Y-110737883D01*
X147981285Y-122980683D02*
G75*
G02*
X147574885Y-122980683I-203200J0D01*
G01*
X147574885Y-122980683D02*
G75*
G02*
X147981285Y-122980683I203200J0D01*
G01*
D15*
%TO.C,C5*%
X160238085Y-114929031D02*
X160238085Y-116351535D01*
X162058085Y-114929031D02*
X162058085Y-116351535D01*
%TO.C,D1*%
X133848085Y-120720283D02*
X133848085Y-112210283D01*
X140348085Y-120720283D02*
X133848085Y-120720283D01*
X140348085Y-120720283D02*
X140348085Y-112210283D01*
%TO.C,R7*%
X147293585Y-96378025D02*
X147293585Y-96852541D01*
X148338585Y-96378025D02*
X148338585Y-96852541D01*
%TO.C,R6*%
X145020343Y-90767783D02*
X144545827Y-90767783D01*
X145020343Y-91812783D02*
X144545827Y-91812783D01*
D17*
%TO.C,U1*%
X148997085Y-93566283D02*
G75*
G02*
X148747085Y-93566283I-125000J0D01*
G01*
X148747085Y-93566283D02*
G75*
G02*
X148997085Y-93566283I125000J0D01*
G01*
D15*
%TO.C,C4*%
X153538085Y-97679703D02*
X153538085Y-97960863D01*
X154558085Y-97679703D02*
X154558085Y-97960863D01*
%TO.C,R11*%
X149505585Y-91833025D02*
X149505585Y-92307541D01*
X150550585Y-91833025D02*
X150550585Y-92307541D01*
%TO.C,C1*%
X147316085Y-93730863D02*
X147316085Y-93449703D01*
X148336085Y-93730863D02*
X148336085Y-93449703D01*
%TO.C,R8*%
X147298343Y-98362783D02*
X146823827Y-98362783D01*
X147298343Y-99407783D02*
X146823827Y-99407783D01*
%TO.C,R1*%
X145773585Y-93338025D02*
X145773585Y-93812541D01*
X146818585Y-93338025D02*
X146818585Y-93812541D01*
%TO.C,D3*%
X150833085Y-91250283D02*
X150833085Y-93535283D01*
X150833085Y-93535283D02*
X152303085Y-93535283D01*
X152303085Y-93535283D02*
X152303085Y-91250283D01*
%TO.C,J6*%
X143748085Y-124490283D02*
X143748085Y-123160283D01*
X145078085Y-124490283D02*
X143748085Y-124490283D01*
X146348085Y-121830283D02*
X154028085Y-121830283D01*
X146348085Y-124490283D02*
X146348085Y-121830283D01*
X146348085Y-124490283D02*
X154028085Y-124490283D01*
X154028085Y-124490283D02*
X154028085Y-121830283D01*
%TO.C,R9*%
X145763585Y-96378025D02*
X145763585Y-96852541D01*
X146808585Y-96378025D02*
X146808585Y-96852541D01*
%TO.C,R2*%
X144235585Y-96413025D02*
X144235585Y-96887541D01*
X145280585Y-96413025D02*
X145280585Y-96887541D01*
D16*
%TO.C,Q2*%
X149991685Y-110727883D02*
X149991685Y-121192683D01*
X149991685Y-121192683D02*
X154639885Y-121192683D01*
X151261685Y-121065683D02*
X151261685Y-110854883D01*
X154639885Y-110727883D02*
X149991685Y-110727883D01*
X154639885Y-121192683D02*
X154639885Y-110727883D01*
X153141285Y-122970683D02*
G75*
G02*
X152734885Y-122970683I-203200J0D01*
G01*
X152734885Y-122970683D02*
G75*
G02*
X153141285Y-122970683I203200J0D01*
G01*
D15*
%TO.C,C2*%
X153176085Y-93769703D02*
X153176085Y-94050863D01*
X154196085Y-93769703D02*
X154196085Y-94050863D01*
%TO.C,R4*%
X155115585Y-121677541D02*
X155115585Y-121203025D01*
X156160585Y-121677541D02*
X156160585Y-121203025D01*
%TO.C,R5*%
X144235585Y-93348025D02*
X144235585Y-93822541D01*
X145280585Y-93348025D02*
X145280585Y-93822541D01*
%TO.C,J4*%
X143748085Y-104390283D02*
X143748085Y-103060283D01*
X145078085Y-104390283D02*
X143748085Y-104390283D01*
X146348085Y-101730283D02*
X154028085Y-101730283D01*
X146348085Y-104390283D02*
X146348085Y-101730283D01*
X146348085Y-104390283D02*
X154028085Y-104390283D01*
X154028085Y-104390283D02*
X154028085Y-101730283D01*
%TO.C,R3*%
X144225585Y-99448025D02*
X144225585Y-99922541D01*
X145270585Y-99448025D02*
X145270585Y-99922541D01*
%TO.C,J5*%
X143748085Y-109990283D02*
X143748085Y-108660283D01*
X145078085Y-109990283D02*
X143748085Y-109990283D01*
X146348085Y-107330283D02*
X154028085Y-107330283D01*
X146348085Y-109990283D02*
X146348085Y-107330283D01*
X146348085Y-109990283D02*
X154028085Y-109990283D01*
X154028085Y-109990283D02*
X154028085Y-107330283D01*
%TO.C,D2*%
X156473085Y-109802783D02*
X156473085Y-112087783D01*
X157943085Y-109802783D02*
X156473085Y-109802783D01*
X157943085Y-112087783D02*
X157943085Y-109802783D01*
%TO.C,J3*%
X143748085Y-89890283D02*
X143748085Y-88560283D01*
X145078085Y-89890283D02*
X143748085Y-89890283D01*
X146348085Y-87230283D02*
X154028085Y-87230283D01*
X146348085Y-89890283D02*
X146348085Y-87230283D01*
X146348085Y-89890283D02*
X154028085Y-89890283D01*
X154028085Y-89890283D02*
X154028085Y-87230283D01*
%TO.C,R10*%
X155125585Y-111547541D02*
X155125585Y-111073025D01*
X156170585Y-111547541D02*
X156170585Y-111073025D01*
%TD*%
%LPC*%
D18*
%TO.C,C3*%
X157188085Y-122225283D03*
X157188085Y-120675283D03*
%TD*%
D19*
%TO.C,Q1*%
X147778085Y-118510283D03*
D20*
X147778085Y-115970283D03*
X147778085Y-113430283D03*
%TD*%
D21*
%TO.C,C5*%
X161148085Y-114165283D03*
X161148085Y-117115283D03*
%TD*%
D22*
%TO.C,D1*%
X137098085Y-119210283D03*
X137098085Y-112410283D03*
%TD*%
D23*
%TO.C,R7*%
X147816085Y-95790283D03*
X147816085Y-97440283D03*
%TD*%
D24*
%TO.C,R6*%
X145608085Y-91290283D03*
X143958085Y-91290283D03*
%TD*%
D25*
%TO.C,U1*%
X149322085Y-94216283D03*
X149322085Y-94716283D03*
X149322085Y-95216283D03*
X149322085Y-95716283D03*
X149322085Y-96216283D03*
X149322085Y-96716283D03*
X152222085Y-96716283D03*
X152222085Y-96216283D03*
X152222085Y-95716283D03*
X152222085Y-95216283D03*
X152222085Y-94716283D03*
X152222085Y-94216283D03*
D26*
X150772085Y-95466283D03*
%TD*%
D27*
%TO.C,C4*%
X154048085Y-97045283D03*
X154048085Y-98595283D03*
%TD*%
D23*
%TO.C,R11*%
X150028085Y-91245283D03*
X150028085Y-92895283D03*
%TD*%
D18*
%TO.C,C1*%
X147826085Y-94365283D03*
X147826085Y-92815283D03*
%TD*%
D24*
%TO.C,R8*%
X147886085Y-98885283D03*
X146236085Y-98885283D03*
%TD*%
D23*
%TO.C,R1*%
X146296085Y-92750283D03*
X146296085Y-94400283D03*
%TD*%
D28*
%TO.C,D3*%
X151568085Y-92837783D03*
X151568085Y-91262783D03*
%TD*%
D29*
%TO.C,J6*%
X145078085Y-123160283D03*
D30*
X147618085Y-123160283D03*
X150158085Y-123160283D03*
X152698085Y-123160283D03*
%TD*%
D23*
%TO.C,R9*%
X146286085Y-95790283D03*
X146286085Y-97440283D03*
%TD*%
%TO.C,R2*%
X144758085Y-95825283D03*
X144758085Y-97475283D03*
%TD*%
D19*
%TO.C,Q2*%
X152938085Y-118500283D03*
D20*
X152938085Y-115960283D03*
X152938085Y-113420283D03*
%TD*%
D27*
%TO.C,C2*%
X153686085Y-93135283D03*
X153686085Y-94685283D03*
%TD*%
D31*
%TO.C,R4*%
X155638085Y-122265283D03*
X155638085Y-120615283D03*
%TD*%
D23*
%TO.C,R5*%
X144758085Y-92760283D03*
X144758085Y-94410283D03*
%TD*%
D29*
%TO.C,J4*%
X145078085Y-103060283D03*
D30*
X147618085Y-103060283D03*
X150158085Y-103060283D03*
X152698085Y-103060283D03*
%TD*%
D23*
%TO.C,R3*%
X144748085Y-98860283D03*
X144748085Y-100510283D03*
%TD*%
D29*
%TO.C,J5*%
X145078085Y-108660283D03*
D30*
X147618085Y-108660283D03*
X150158085Y-108660283D03*
X152698085Y-108660283D03*
%TD*%
D32*
%TO.C,D2*%
X157208085Y-110500283D03*
X157208085Y-112075283D03*
%TD*%
D29*
%TO.C,J3*%
X145078085Y-88560283D03*
D30*
X147618085Y-88560283D03*
X150158085Y-88560283D03*
X152698085Y-88560283D03*
%TD*%
D31*
%TO.C,R10*%
X155648085Y-112135283D03*
X155648085Y-110485283D03*
%TD*%
D33*
%TO.C,J2*%
X163778085Y-118260283D03*
D34*
X163778085Y-113180283D03*
%TD*%
D33*
%TO.C,J1*%
X131988085Y-113230283D03*
D34*
X131988085Y-118310283D03*
%TD*%
%LPD*%
M02*
