%TF.GenerationSoftware,KiCad,Pcbnew,8.99.0-2194-gb3b7cbcab2*%
%TF.CreationDate,2024-10-21T01:16:46-04:00*%
%TF.ProjectId,shield,73686965-6c64-42e6-9b69-6361645f7063,V1.0*%
%TF.SameCoordinates,Original*%
%TF.FileFunction,Soldermask,Top*%
%TF.FilePolarity,Negative*%
%FSLAX46Y46*%
G04 Gerber Fmt 4.6, Leading zero omitted, Abs format (unit mm)*
G04 Created by KiCad (PCBNEW 8.99.0-2194-gb3b7cbcab2) date 2024-10-21 01:16:46*
%MOMM*%
%LPD*%
G01*
G04 APERTURE LIST*
G04 Aperture macros list*
%AMRoundRect*
0 Rectangle with rounded corners*
0 $1 Rounding radius*
0 $2 $3 $4 $5 $6 $7 $8 $9 X,Y pos of 4 corners*
0 Add a 4 corners polygon primitive as box body*
4,1,4,$2,$3,$4,$5,$6,$7,$8,$9,$2,$3,0*
0 Add four circle primitives for the rounded corners*
1,1,$1+$1,$2,$3*
1,1,$1+$1,$4,$5*
1,1,$1+$1,$6,$7*
1,1,$1+$1,$8,$9*
0 Add four rect primitives between the rounded corners*
20,1,$1+$1,$2,$3,$4,$5,0*
20,1,$1+$1,$4,$5,$6,$7,0*
20,1,$1+$1,$6,$7,$8,$9,0*
20,1,$1+$1,$8,$9,$2,$3,0*%
G04 Aperture macros list end*
%ADD10RoundRect,0.225000X0.250000X-0.225000X0.250000X0.225000X-0.250000X0.225000X-0.250000X-0.225000X0*%
%ADD11R,1.625600X1.625600*%
%ADD12C,1.625600*%
%ADD13RoundRect,0.250000X-0.650000X0.325000X-0.650000X-0.325000X0.650000X-0.325000X0.650000X0.325000X0*%
%ADD14RoundRect,0.250000X1.400000X1.000000X-1.400000X1.000000X-1.400000X-1.000000X1.400000X-1.000000X0*%
%ADD15RoundRect,0.200000X-0.275000X0.200000X-0.275000X-0.200000X0.275000X-0.200000X0.275000X0.200000X0*%
%ADD16RoundRect,0.200000X0.200000X0.275000X-0.200000X0.275000X-0.200000X-0.275000X0.200000X-0.275000X0*%
%ADD17R,0.900000X0.300000*%
%ADD18R,1.400000X2.600000*%
%ADD19RoundRect,0.225000X-0.250000X0.225000X-0.250000X-0.225000X0.250000X-0.225000X0.250000X0.225000X0*%
%ADD20RoundRect,0.218750X0.256250X-0.218750X0.256250X0.218750X-0.256250X0.218750X-0.256250X-0.218750X0*%
%ADD21R,1.700000X1.700000*%
%ADD22O,1.700000X1.700000*%
%ADD23RoundRect,0.200000X0.275000X-0.200000X0.275000X0.200000X-0.275000X0.200000X-0.275000X-0.200000X0*%
%ADD24RoundRect,0.218750X-0.256250X0.218750X-0.256250X-0.218750X0.256250X-0.218750X0.256250X0.218750X0*%
%ADD25R,2.600000X2.600000*%
%ADD26C,2.600000*%
G04 APERTURE END LIST*
D10*
%TO.C,C3*%
X157188085Y-122225283D03*
X157188085Y-120675283D03*
%TD*%
D11*
%TO.C,Q1*%
X147778085Y-118510283D03*
D12*
X147778085Y-115970283D03*
X147778085Y-113430283D03*
%TD*%
D13*
%TO.C,C5*%
X161148085Y-114165283D03*
X161148085Y-117115283D03*
%TD*%
D14*
%TO.C,D1*%
X137098085Y-119210283D03*
X137098085Y-112410283D03*
%TD*%
D15*
%TO.C,R7*%
X147816085Y-95790283D03*
X147816085Y-97440283D03*
%TD*%
D16*
%TO.C,R6*%
X145608085Y-91290283D03*
X143958085Y-91290283D03*
%TD*%
D17*
%TO.C,U1*%
X149322085Y-94216283D03*
X149322085Y-94716283D03*
X149322085Y-95216283D03*
X149322085Y-95716283D03*
X149322085Y-96216283D03*
X149322085Y-96716283D03*
X152222085Y-96716283D03*
X152222085Y-96216283D03*
X152222085Y-95716283D03*
X152222085Y-95216283D03*
X152222085Y-94716283D03*
X152222085Y-94216283D03*
D18*
X150772085Y-95466283D03*
%TD*%
D19*
%TO.C,C4*%
X154048085Y-97045283D03*
X154048085Y-98595283D03*
%TD*%
D15*
%TO.C,R11*%
X150028085Y-91245283D03*
X150028085Y-92895283D03*
%TD*%
D10*
%TO.C,C1*%
X147826085Y-94365283D03*
X147826085Y-92815283D03*
%TD*%
D16*
%TO.C,R8*%
X147886085Y-98885283D03*
X146236085Y-98885283D03*
%TD*%
D15*
%TO.C,R1*%
X146296085Y-92750283D03*
X146296085Y-94400283D03*
%TD*%
D20*
%TO.C,D3*%
X151568085Y-92837783D03*
X151568085Y-91262783D03*
%TD*%
D21*
%TO.C,J6*%
X145078085Y-123160283D03*
D22*
X147618085Y-123160283D03*
X150158085Y-123160283D03*
X152698085Y-123160283D03*
%TD*%
D15*
%TO.C,R9*%
X146286085Y-95790283D03*
X146286085Y-97440283D03*
%TD*%
%TO.C,R2*%
X144758085Y-95825283D03*
X144758085Y-97475283D03*
%TD*%
D11*
%TO.C,Q2*%
X152938085Y-118500283D03*
D12*
X152938085Y-115960283D03*
X152938085Y-113420283D03*
%TD*%
D19*
%TO.C,C2*%
X153686085Y-93135283D03*
X153686085Y-94685283D03*
%TD*%
D23*
%TO.C,R4*%
X155638085Y-122265283D03*
X155638085Y-120615283D03*
%TD*%
D15*
%TO.C,R5*%
X144758085Y-92760283D03*
X144758085Y-94410283D03*
%TD*%
D21*
%TO.C,J4*%
X145078085Y-103060283D03*
D22*
X147618085Y-103060283D03*
X150158085Y-103060283D03*
X152698085Y-103060283D03*
%TD*%
D15*
%TO.C,R3*%
X144748085Y-98860283D03*
X144748085Y-100510283D03*
%TD*%
D21*
%TO.C,J5*%
X145078085Y-108660283D03*
D22*
X147618085Y-108660283D03*
X150158085Y-108660283D03*
X152698085Y-108660283D03*
%TD*%
D24*
%TO.C,D2*%
X157208085Y-110500283D03*
X157208085Y-112075283D03*
%TD*%
D21*
%TO.C,J3*%
X145078085Y-88560283D03*
D22*
X147618085Y-88560283D03*
X150158085Y-88560283D03*
X152698085Y-88560283D03*
%TD*%
D23*
%TO.C,R10*%
X155648085Y-112135283D03*
X155648085Y-110485283D03*
%TD*%
D25*
%TO.C,J2*%
X163778085Y-118260283D03*
D26*
X163778085Y-113180283D03*
%TD*%
D25*
%TO.C,J1*%
X131988085Y-113230283D03*
D26*
X131988085Y-118310283D03*
%TD*%
M02*
