%TF.GenerationSoftware,KiCad,Pcbnew,8.99.0-2194-gb3b7cbcab2*%
%TF.CreationDate,2024-10-21T15:03:13-04:00*%
%TF.ProjectId,shield,73686965-6c64-42e6-9b69-6361645f7063,V1.0*%
%TF.SameCoordinates,Original*%
%TF.FileFunction,Profile,NP*%
%FSLAX46Y46*%
G04 Gerber Fmt 4.6, Leading zero omitted, Abs format (unit mm)*
G04 Created by KiCad (PCBNEW 8.99.0-2194-gb3b7cbcab2) date 2024-10-21 15:03:13*
%MOMM*%
%LPD*%
G01*
G04 APERTURE LIST*
%TA.AperFunction,Profile*%
%ADD10C,0.100000*%
%TD*%
G04 APERTURE END LIST*
D10*
X143876399Y-104760369D02*
G75*
G02*
X142876431Y-103760347I1J999969D01*
G01*
X169078085Y-109660283D02*
X160078085Y-109660283D01*
X155365128Y-103753240D02*
G75*
G02*
X154365190Y-104753228I-999928J-60D01*
G01*
X160078085Y-109660283D02*
X157178085Y-106760283D01*
X138078085Y-109660283D02*
X140978085Y-106760283D01*
X150428085Y-104760283D02*
G75*
G02*
X150428085Y-106760317I15J-1000017D01*
G01*
X142876399Y-103760347D02*
X142876399Y-87767454D01*
X145378085Y-106760283D02*
X141378085Y-106760283D01*
X129078085Y-121860283D02*
X138078085Y-121860283D01*
X148288085Y-106760283D02*
G75*
G02*
X148288085Y-104760317I15J999983D01*
G01*
X145278085Y-104755295D02*
G75*
G02*
X145378089Y-106760319I15J-1005005D01*
G01*
X155358085Y-87760347D02*
X155358085Y-103753240D01*
X141378085Y-106760283D02*
X140978085Y-106760283D01*
X169078085Y-109660283D02*
X169078085Y-121860283D01*
X160078085Y-121860283D02*
X157178085Y-124760283D01*
X148288085Y-106760283D02*
X150428085Y-106760283D01*
X142869294Y-87767454D02*
G75*
G02*
X143869294Y-86767394I1000006J54D01*
G01*
X143876399Y-104760347D02*
X145278085Y-104760283D01*
X156478085Y-106760283D02*
X157178085Y-106760283D01*
X154358085Y-86760347D02*
G75*
G02*
X155358053Y-87760347I15J-999953D01*
G01*
X153468085Y-106760283D02*
G75*
G02*
X153468085Y-104760317I15J999983D01*
G01*
X156478085Y-106760283D02*
X153468085Y-106760283D01*
X148288085Y-104760283D02*
X150428085Y-104760283D01*
X129078085Y-109660283D02*
X138078085Y-109660283D01*
X169078085Y-121860283D02*
X160078085Y-121860283D01*
X143869294Y-86767454D02*
X154358085Y-86760347D01*
X129078085Y-109660283D02*
X129078085Y-121860283D01*
X138078085Y-121860283D02*
X140978085Y-124760283D01*
X154365190Y-104753240D02*
X153468085Y-104760283D01*
X157178085Y-124760283D02*
X140978085Y-124760283D01*
M02*
