%TF.GenerationSoftware,KiCad,Pcbnew,8.99.0-2194-gb3b7cbcab2*%
%TF.CreationDate,2024-10-21T15:03:13-04:00*%
%TF.ProjectId,shield,73686965-6c64-42e6-9b69-6361645f7063,V1.0*%
%TF.SameCoordinates,Original*%
%TF.FileFunction,Copper,L2,Bot*%
%TF.FilePolarity,Positive*%
%FSLAX46Y46*%
G04 Gerber Fmt 4.6, Leading zero omitted, Abs format (unit mm)*
G04 Created by KiCad (PCBNEW 8.99.0-2194-gb3b7cbcab2) date 2024-10-21 15:03:13*
%MOMM*%
%LPD*%
G01*
G04 APERTURE LIST*
G04 Aperture macros list*
%AMFreePoly0*
4,1,19,0.500000,-0.750000,0.000000,-0.750000,0.000000,-0.744911,-0.071157,-0.744911,-0.207708,-0.704816,-0.327430,-0.627875,-0.420627,-0.520320,-0.479746,-0.390866,-0.500000,-0.250000,-0.500000,0.250000,-0.479746,0.390866,-0.420627,0.520320,-0.327430,0.627875,-0.207708,0.704816,-0.071157,0.744911,0.000000,0.744911,0.000000,0.750000,0.500000,0.750000,0.500000,-0.750000,0.500000,-0.750000,
$1*%
%AMFreePoly1*
4,1,19,0.000000,0.744911,0.071157,0.744911,0.207708,0.704816,0.327430,0.627875,0.420627,0.520320,0.479746,0.390866,0.500000,0.250000,0.500000,-0.250000,0.479746,-0.390866,0.420627,-0.520320,0.327430,-0.627875,0.207708,-0.704816,0.071157,-0.744911,0.000000,-0.744911,0.000000,-0.750000,-0.500000,-0.750000,-0.500000,0.750000,0.000000,0.750000,0.000000,0.744911,0.000000,0.744911,
$1*%
G04 Aperture macros list end*
%TA.AperFunction,ComponentPad*%
%ADD10R,1.625600X1.625600*%
%TD*%
%TA.AperFunction,ComponentPad*%
%ADD11C,1.625600*%
%TD*%
%TA.AperFunction,ComponentPad*%
%ADD12R,1.700000X1.700000*%
%TD*%
%TA.AperFunction,ComponentPad*%
%ADD13O,1.700000X1.700000*%
%TD*%
%TA.AperFunction,SMDPad,CuDef*%
%ADD14FreePoly0,270.000000*%
%TD*%
%TA.AperFunction,SMDPad,CuDef*%
%ADD15FreePoly1,270.000000*%
%TD*%
%TA.AperFunction,ComponentPad*%
%ADD16R,2.600000X2.600000*%
%TD*%
%TA.AperFunction,ComponentPad*%
%ADD17C,2.600000*%
%TD*%
%TA.AperFunction,ViaPad*%
%ADD18C,0.800000*%
%TD*%
%TA.AperFunction,ViaPad*%
%ADD19C,0.450000*%
%TD*%
%TA.AperFunction,Conductor*%
%ADD20C,0.300000*%
%TD*%
%TA.AperFunction,Conductor*%
%ADD21C,0.500000*%
%TD*%
G04 APERTURE END LIST*
D10*
%TO.P,Q1,1,G*%
%TO.N,/DGATE*%
X147778085Y-118510283D03*
D11*
%TO.P,Q1,2,D*%
%TO.N,/C*%
X147778085Y-115970283D03*
%TO.P,Q1,3,S*%
%TO.N,VCC*%
X147778085Y-113430283D03*
%TD*%
D12*
%TO.P,J6,1,Pin_1*%
%TO.N,GND*%
X145078085Y-123160283D03*
D13*
%TO.P,J6,2,Pin_2*%
%TO.N,/DGATE*%
X147618085Y-123160283D03*
%TO.P,J6,3,Pin_3*%
%TO.N,/HGATE*%
X150158085Y-123160283D03*
%TO.P,J6,4,Pin_4*%
%TO.N,GND*%
X152698085Y-123160283D03*
%TD*%
D10*
%TO.P,Q2,1,G*%
%TO.N,/HGATE*%
X152938085Y-118500283D03*
D11*
%TO.P,Q2,2,D*%
%TO.N,/C*%
X152938085Y-115960283D03*
%TO.P,Q2,3,S*%
%TO.N,VCC_PROTECTED*%
X152938085Y-113420283D03*
%TD*%
D12*
%TO.P,J4,1,Pin_1*%
%TO.N,GND*%
X145078085Y-103060283D03*
D13*
%TO.P,J4,2,Pin_2*%
%TO.N,/DGATE*%
X147618085Y-103060283D03*
%TO.P,J4,3,Pin_3*%
%TO.N,/HGATE*%
X150158085Y-103060283D03*
%TO.P,J4,4,Pin_4*%
%TO.N,GND*%
X152698085Y-103060283D03*
%TD*%
D12*
%TO.P,J5,1,Pin_1*%
%TO.N,VCC*%
X145078085Y-108660283D03*
D13*
%TO.P,J5,2,Pin_2*%
%TO.N,GND*%
X147618085Y-108660283D03*
%TO.P,J5,3,Pin_3*%
%TO.N,/C*%
X150158085Y-108660283D03*
%TO.P,J5,4,Pin_4*%
%TO.N,VCC_PROTECTED*%
X152698085Y-108660283D03*
%TD*%
D12*
%TO.P,J3,1,Pin_1*%
%TO.N,VCC*%
X145078085Y-88560283D03*
D13*
%TO.P,J3,2,Pin_2*%
%TO.N,GND*%
X147618085Y-88560283D03*
%TO.P,J3,3,Pin_3*%
%TO.N,/C*%
X150158085Y-88560283D03*
%TO.P,J3,4,Pin_4*%
%TO.N,VCC_PROTECTED*%
X152698085Y-88560283D03*
%TD*%
D14*
%TO.P,JP1,1,A*%
%TO.N,Net-(JP1-A)*%
X147348085Y-93450283D03*
D15*
%TO.P,JP1,2,B*%
%TO.N,/OV*%
X147348085Y-94750283D03*
%TD*%
D16*
%TO.P,J2,1,Pin_1*%
%TO.N,GND*%
X163778085Y-118260283D03*
D17*
%TO.P,J2,2,Pin_2*%
%TO.N,VCC_PROTECTED*%
X163778085Y-113180283D03*
%TD*%
D14*
%TO.P,JP2,1,A*%
%TO.N,Net-(JP2-A)*%
X144758085Y-93440283D03*
D15*
%TO.P,JP2,2,B*%
%TO.N,/OV*%
X144758085Y-94740283D03*
%TD*%
D14*
%TO.P,JP3,1,A*%
%TO.N,Net-(JP3-A)*%
X145376085Y-97315283D03*
D15*
%TO.P,JP3,2,B*%
%TO.N,/EN{slash}UVLO*%
X145376085Y-98615283D03*
%TD*%
D16*
%TO.P,J1,1,Pin_1*%
%TO.N,VCC*%
X131988085Y-113230283D03*
D17*
%TO.P,J1,2,Pin_2*%
%TO.N,GND*%
X131988085Y-118310283D03*
%TD*%
D18*
%TO.N,GND*%
X157998085Y-116240283D03*
D19*
X156948085Y-109350283D03*
D18*
X168118085Y-112130283D03*
X141888085Y-119220283D03*
X141878085Y-117230283D03*
X134738085Y-117260283D03*
X140088085Y-117250283D03*
X143638085Y-119230283D03*
X166408085Y-119250283D03*
X154658085Y-116720283D03*
X166388085Y-117350283D03*
X156458085Y-115910283D03*
X143658085Y-117230283D03*
D19*
X152538085Y-92630283D03*
D18*
X156588085Y-119310283D03*
X136528085Y-117240283D03*
D19*
X146328085Y-99830283D03*
D18*
X143638085Y-121010283D03*
X130168085Y-116250283D03*
X168088085Y-119280283D03*
X161458085Y-120110283D03*
D19*
X145598085Y-100330283D03*
D18*
X130108085Y-120110283D03*
X168088085Y-117350283D03*
X134738085Y-118410283D03*
X158038085Y-117740283D03*
X159748085Y-118380283D03*
X159858085Y-120110283D03*
X151238085Y-114300283D03*
X151218085Y-112260283D03*
X162958085Y-116310283D03*
X138308085Y-117240283D03*
D19*
X153878085Y-99650283D03*
D18*
X159438085Y-116620283D03*
X158308085Y-119640283D03*
X166358085Y-114150283D03*
X134718085Y-120140283D03*
X143658085Y-122800283D03*
X148584085Y-110970283D03*
X155608085Y-117950283D03*
X140078085Y-120970283D03*
X154558085Y-115020283D03*
D19*
X147218085Y-92070283D03*
D18*
X141868085Y-120950283D03*
X151278085Y-110400283D03*
D19*
X152118085Y-97280283D03*
D18*
X140098085Y-119240283D03*
X168138085Y-114180283D03*
X166408085Y-112130283D03*
X161428085Y-118440283D03*
%TO.N,VCC*%
X134738085Y-113280283D03*
X136508085Y-114990283D03*
X140278085Y-115020283D03*
X143848085Y-115000283D03*
X134728085Y-111470283D03*
X145478085Y-114060283D03*
X142078085Y-111470283D03*
X134718085Y-115010283D03*
X142088085Y-113280283D03*
X140308085Y-113280283D03*
X145498085Y-115850283D03*
X140298085Y-111470283D03*
X142068085Y-115000283D03*
X145478085Y-112280283D03*
X143828085Y-113190283D03*
X138288085Y-114990283D03*
D19*
%TO.N,Net-(JP1-A)*%
X145958085Y-93590283D03*
D18*
%TO.N,/C*%
X149308085Y-116510283D03*
X149308085Y-115410283D03*
X151398085Y-116500283D03*
X150348085Y-115410283D03*
X151388085Y-115410283D03*
X150378085Y-116510283D03*
D19*
%TO.N,Net-(JP2-A)*%
X143868085Y-92490283D03*
%TO.N,VCC_PROTECTED*%
X153468085Y-96030283D03*
D18*
X158198085Y-114900283D03*
X160238085Y-111450283D03*
X155948085Y-113640283D03*
X158848085Y-113400283D03*
X154478085Y-113660283D03*
X161828085Y-111460283D03*
X161828085Y-112980283D03*
X158588085Y-111640283D03*
X157408085Y-113660283D03*
X154288085Y-112320283D03*
X159528085Y-115020283D03*
X160238085Y-113010283D03*
D19*
%TO.N,/OV*%
X143866085Y-96845283D03*
%TO.N,Net-(JP3-A)*%
X147056085Y-98005283D03*
%TO.N,/EN{slash}UVLO*%
X147876085Y-99685283D03*
%TO.N,/DGATE*%
X149046085Y-93625283D03*
%TD*%
D20*
%TO.N,Net-(JP1-A)*%
X145958085Y-93590283D02*
X147208085Y-93590283D01*
X147208085Y-93590283D02*
X147348085Y-93450283D01*
%TO.N,Net-(JP2-A)*%
X143868085Y-92550283D02*
X144758085Y-93440283D01*
X143868085Y-92490283D02*
X143868085Y-92550283D01*
D21*
%TO.N,VCC_PROTECTED*%
X152698085Y-88560283D02*
X153468085Y-89330283D01*
X153468085Y-89330283D02*
X153468085Y-96030283D01*
D20*
%TO.N,/OV*%
X143866085Y-96845283D02*
X143866085Y-95632283D01*
X143866085Y-95632283D02*
X144758085Y-94740283D01*
X144768085Y-94750283D02*
X144758085Y-94740283D01*
X147348085Y-94750283D02*
X144768085Y-94750283D01*
%TO.N,Net-(JP3-A)*%
X147056085Y-98005283D02*
X146366085Y-97315283D01*
X146366085Y-97315283D02*
X145376085Y-97315283D01*
%TO.N,/EN{slash}UVLO*%
X146806085Y-98615283D02*
X147876085Y-99685283D01*
X145376085Y-98615283D02*
X146806085Y-98615283D01*
D21*
%TO.N,/DGATE*%
X147618085Y-103060283D02*
X149046085Y-101632283D01*
X149046085Y-101632283D02*
X149046085Y-93625283D01*
%TD*%
%TA.AperFunction,Conductor*%
%TO.N,GND*%
G36*
X147682218Y-107147231D02*
G01*
X147719643Y-107153297D01*
X147936717Y-107223832D01*
X148169988Y-107260782D01*
X148212193Y-107260782D01*
X148222190Y-107260782D01*
X148222193Y-107260783D01*
X148288077Y-107260783D01*
X148353970Y-107260784D01*
X148353974Y-107260783D01*
X150376680Y-107260783D01*
X150376792Y-107260816D01*
X150428077Y-107260816D01*
X150428077Y-107260817D01*
X150546172Y-107260819D01*
X150779453Y-107223874D01*
X150924455Y-107176761D01*
X150963650Y-107170696D01*
X152978779Y-107185105D01*
X153016203Y-107191171D01*
X153116717Y-107223832D01*
X153116716Y-107223832D01*
X153233352Y-107242307D01*
X153349988Y-107260782D01*
X153392193Y-107260782D01*
X153402190Y-107260782D01*
X153402193Y-107260783D01*
X153468077Y-107260783D01*
X153533970Y-107260784D01*
X153533974Y-107260783D01*
X156412193Y-107260783D01*
X156919409Y-107260783D01*
X156986448Y-107280468D01*
X157007090Y-107297102D01*
X159673244Y-109963255D01*
X159673254Y-109963266D01*
X159677584Y-109967596D01*
X159677585Y-109967597D01*
X159770771Y-110060783D01*
X159884899Y-110126675D01*
X160012192Y-110160783D01*
X160012193Y-110160783D01*
X168453585Y-110160783D01*
X168520624Y-110180468D01*
X168566379Y-110233272D01*
X168577585Y-110284783D01*
X168577585Y-121235783D01*
X168557900Y-121302822D01*
X168505096Y-121348577D01*
X168453585Y-121359783D01*
X160012192Y-121359783D01*
X159884897Y-121393891D01*
X159770771Y-121459783D01*
X159770768Y-121459785D01*
X157007090Y-124223464D01*
X156945767Y-124256949D01*
X156919409Y-124259783D01*
X150633662Y-124259783D01*
X150566623Y-124240098D01*
X150520868Y-124187294D01*
X150510924Y-124118136D01*
X150539949Y-124054580D01*
X150575206Y-124026426D01*
X150694292Y-123962773D01*
X150840547Y-123842745D01*
X150960575Y-123696490D01*
X151049765Y-123529629D01*
X151104687Y-123348574D01*
X151123232Y-123160283D01*
X151104687Y-122971992D01*
X151049765Y-122790937D01*
X150960575Y-122624076D01*
X150960572Y-122624072D01*
X150840547Y-122477820D01*
X150694295Y-122357795D01*
X150694293Y-122357794D01*
X150694292Y-122357793D01*
X150527431Y-122268603D01*
X150436903Y-122241142D01*
X150346374Y-122213680D01*
X150158085Y-122195136D01*
X149969795Y-122213680D01*
X149788736Y-122268604D01*
X149621874Y-122357795D01*
X149475622Y-122477820D01*
X149355597Y-122624072D01*
X149266406Y-122790934D01*
X149211482Y-122971993D01*
X149192938Y-123160283D01*
X149211482Y-123348572D01*
X149266406Y-123529631D01*
X149355597Y-123696493D01*
X149475622Y-123842745D01*
X149621874Y-123962770D01*
X149621878Y-123962773D01*
X149740962Y-124026425D01*
X149790806Y-124075388D01*
X149806266Y-124143526D01*
X149782434Y-124209205D01*
X149726876Y-124251574D01*
X149682508Y-124259783D01*
X148093662Y-124259783D01*
X148026623Y-124240098D01*
X147980868Y-124187294D01*
X147970924Y-124118136D01*
X147999949Y-124054580D01*
X148035206Y-124026426D01*
X148154292Y-123962773D01*
X148300547Y-123842745D01*
X148420575Y-123696490D01*
X148509765Y-123529629D01*
X148564687Y-123348574D01*
X148583232Y-123160283D01*
X148564687Y-122971992D01*
X148509765Y-122790937D01*
X148420575Y-122624076D01*
X148420572Y-122624072D01*
X148300547Y-122477820D01*
X148154295Y-122357795D01*
X148154293Y-122357794D01*
X148154292Y-122357793D01*
X147987431Y-122268603D01*
X147896903Y-122241142D01*
X147806374Y-122213680D01*
X147618085Y-122195136D01*
X147429795Y-122213680D01*
X147248736Y-122268604D01*
X147081874Y-122357795D01*
X146935622Y-122477820D01*
X146815597Y-122624072D01*
X146726406Y-122790934D01*
X146671482Y-122971993D01*
X146652938Y-123160283D01*
X146671482Y-123348572D01*
X146726406Y-123529631D01*
X146815597Y-123696493D01*
X146935622Y-123842745D01*
X147081874Y-123962770D01*
X147081878Y-123962773D01*
X147200962Y-124026425D01*
X147250806Y-124075388D01*
X147266266Y-124143526D01*
X147242434Y-124209205D01*
X147186876Y-124251574D01*
X147142508Y-124259783D01*
X141236760Y-124259783D01*
X141169721Y-124240098D01*
X141149079Y-124223464D01*
X138385401Y-121459785D01*
X138385400Y-121459784D01*
X138385399Y-121459783D01*
X138328335Y-121426837D01*
X138271272Y-121393891D01*
X138207624Y-121376837D01*
X138143977Y-121359783D01*
X138143976Y-121359783D01*
X129702585Y-121359783D01*
X129635546Y-121340098D01*
X129589791Y-121287294D01*
X129578585Y-121235783D01*
X129578585Y-117686594D01*
X146854785Y-117686594D01*
X146854785Y-119333971D01*
X146861194Y-119366195D01*
X146861196Y-119366198D01*
X146885618Y-119402749D01*
X146907203Y-119417171D01*
X146916797Y-119423582D01*
X146922169Y-119427171D01*
X146922172Y-119427173D01*
X146954396Y-119433582D01*
X146954400Y-119433583D01*
X146954401Y-119433583D01*
X148601770Y-119433583D01*
X148601771Y-119433582D01*
X148612610Y-119431426D01*
X148633997Y-119427173D01*
X148633997Y-119427172D01*
X148634000Y-119427172D01*
X148670551Y-119402749D01*
X148694974Y-119366198D01*
X148701385Y-119333967D01*
X148701385Y-117686599D01*
X148701384Y-117686594D01*
X148701384Y-117686591D01*
X148699396Y-117676594D01*
X152014785Y-117676594D01*
X152014785Y-119323971D01*
X152021194Y-119356195D01*
X152021196Y-119356198D01*
X152045618Y-119392749D01*
X152082169Y-119417171D01*
X152082172Y-119417173D01*
X152114396Y-119423582D01*
X152114400Y-119423583D01*
X152114401Y-119423583D01*
X153761770Y-119423583D01*
X153761771Y-119423582D01*
X153772610Y-119421426D01*
X153793997Y-119417173D01*
X153793997Y-119417172D01*
X153794000Y-119417172D01*
X153830551Y-119392749D01*
X153854974Y-119356198D01*
X153861385Y-119323967D01*
X153861385Y-117676599D01*
X153861326Y-117676304D01*
X153854975Y-117644370D01*
X153854973Y-117644367D01*
X153830551Y-117607816D01*
X153794000Y-117583394D01*
X153793997Y-117583392D01*
X153761773Y-117576983D01*
X153761769Y-117576983D01*
X152114401Y-117576983D01*
X152114396Y-117576983D01*
X152082172Y-117583392D01*
X152082169Y-117583394D01*
X152045618Y-117607816D01*
X152021196Y-117644367D01*
X152021194Y-117644370D01*
X152014785Y-117676594D01*
X148699396Y-117676594D01*
X148694975Y-117654370D01*
X148694973Y-117654367D01*
X148670551Y-117617816D01*
X148634000Y-117593394D01*
X148633997Y-117593392D01*
X148601773Y-117586983D01*
X148601769Y-117586983D01*
X146954401Y-117586983D01*
X146954396Y-117586983D01*
X146922172Y-117593392D01*
X146922169Y-117593394D01*
X146885618Y-117617816D01*
X146861196Y-117654367D01*
X146861194Y-117654370D01*
X146854785Y-117686594D01*
X129578585Y-117686594D01*
X129578585Y-111184286D01*
X130362585Y-111184286D01*
X130362585Y-115336291D01*
X130365224Y-115360830D01*
X130365225Y-115360838D01*
X130376431Y-115412346D01*
X130402002Y-115463431D01*
X130424879Y-115489832D01*
X130447757Y-115516234D01*
X130447759Y-115516235D01*
X130447760Y-115516236D01*
X130502500Y-115551416D01*
X130502500Y-115551417D01*
X130502503Y-115551418D01*
X130502505Y-115551419D01*
X130569544Y-115571104D01*
X130602085Y-115575783D01*
X142206479Y-115575783D01*
X142273518Y-115595468D01*
X142274542Y-115596132D01*
X144146914Y-116825630D01*
X144146913Y-116825630D01*
X144513161Y-117066127D01*
X144514089Y-117066729D01*
X144514103Y-117066738D01*
X144516135Y-117068044D01*
X144547113Y-117082012D01*
X144614339Y-117101049D01*
X144646922Y-117105414D01*
X146466843Y-117087872D01*
X146502972Y-117087524D01*
X146503295Y-117087516D01*
X146506224Y-117087446D01*
X146513201Y-117087182D01*
X146548606Y-117080201D01*
X146548610Y-117080199D01*
X146548612Y-117080199D01*
X146572328Y-117071499D01*
X146614202Y-117056142D01*
X146614203Y-117056142D01*
X146666514Y-117017426D01*
X146667207Y-117016509D01*
X146675041Y-117011329D01*
X146705432Y-117001970D01*
X146735272Y-116991026D01*
X146739469Y-116991489D01*
X146741817Y-116990767D01*
X146747628Y-116992390D01*
X146778424Y-116995792D01*
X146820756Y-117008241D01*
X146853294Y-117012933D01*
X149211194Y-117013885D01*
X149234686Y-117020783D01*
X149381484Y-117020783D01*
X149404709Y-117013963D01*
X150264868Y-117014309D01*
X150299752Y-117019334D01*
X150304686Y-117020783D01*
X150304688Y-117020783D01*
X150451483Y-117020783D01*
X150451484Y-117020783D01*
X150456105Y-117019425D01*
X150491094Y-117014401D01*
X153783988Y-117015732D01*
X153808565Y-117013097D01*
X153860126Y-117001891D01*
X153911232Y-116976315D01*
X153964036Y-116930560D01*
X153999218Y-116875816D01*
X153999219Y-116875816D01*
X153999219Y-116875814D01*
X153999221Y-116875812D01*
X154018906Y-116808773D01*
X154023585Y-116776232D01*
X154023585Y-115153592D01*
X154021013Y-115129355D01*
X154010093Y-115078474D01*
X153984875Y-115027563D01*
X153939416Y-114974505D01*
X153939413Y-114974502D01*
X153884867Y-114939016D01*
X153884864Y-114939014D01*
X153817939Y-114918956D01*
X153801680Y-114916526D01*
X153785423Y-114914096D01*
X153739270Y-114913838D01*
X151479623Y-114901213D01*
X151479623Y-114901212D01*
X151466096Y-114901136D01*
X151461484Y-114899783D01*
X151314686Y-114899783D01*
X151312981Y-114900282D01*
X151302064Y-114900222D01*
X151302063Y-114900221D01*
X151302063Y-114900222D01*
X149016426Y-114887452D01*
X148949498Y-114867393D01*
X148904039Y-114814334D01*
X148893124Y-114762347D01*
X148898341Y-114178066D01*
X148898355Y-114176494D01*
X151903172Y-114176494D01*
X151904397Y-114188600D01*
X151905623Y-114200712D01*
X151916276Y-114251584D01*
X151941220Y-114302597D01*
X151986400Y-114355894D01*
X152040765Y-114391670D01*
X152107587Y-114412080D01*
X152140074Y-114417111D01*
X155659696Y-114455263D01*
X155706581Y-114465020D01*
X158228251Y-115529726D01*
X158228250Y-115529726D01*
X158275446Y-115549652D01*
X158340031Y-115576922D01*
X158362038Y-115583721D01*
X158362046Y-115583722D01*
X158362055Y-115583725D01*
X158408572Y-115593142D01*
X158410271Y-115593486D01*
X158433190Y-115595783D01*
X158433195Y-115595783D01*
X165434078Y-115595783D01*
X165434085Y-115595783D01*
X165458637Y-115593143D01*
X165510148Y-115581937D01*
X165561232Y-115556366D01*
X165614036Y-115510611D01*
X165649218Y-115455867D01*
X165649219Y-115455867D01*
X165649219Y-115455865D01*
X165649221Y-115455863D01*
X165668906Y-115388824D01*
X165673585Y-115356283D01*
X165673585Y-111203861D01*
X165670987Y-111179502D01*
X165659956Y-111128374D01*
X165634600Y-111077394D01*
X165589025Y-111024435D01*
X165561710Y-111006749D01*
X165534395Y-110989063D01*
X165534392Y-110989062D01*
X165467435Y-110969154D01*
X165467420Y-110969150D01*
X165434903Y-110964363D01*
X165434899Y-110964362D01*
X161927920Y-110952433D01*
X161927920Y-110952432D01*
X161910302Y-110952372D01*
X161901484Y-110949783D01*
X161754686Y-110949783D01*
X161747743Y-110951820D01*
X161731596Y-110951766D01*
X161731595Y-110951765D01*
X161731595Y-110951766D01*
X160353745Y-110947079D01*
X160319237Y-110942059D01*
X160311484Y-110939783D01*
X160164686Y-110939783D01*
X160164684Y-110939783D01*
X160164680Y-110939784D01*
X160159588Y-110941279D01*
X160124243Y-110946298D01*
X159687879Y-110944814D01*
X159681823Y-110945022D01*
X159679139Y-110945115D01*
X159660468Y-110946466D01*
X159660459Y-110946466D01*
X159660445Y-110946468D01*
X159651797Y-110947423D01*
X152116269Y-112070364D01*
X152100746Y-112073785D01*
X152100734Y-112073788D01*
X152100727Y-112073790D01*
X152078989Y-112080178D01*
X152068036Y-112083397D01*
X152025383Y-112106563D01*
X151972363Y-112152064D01*
X151972362Y-112152065D01*
X151936917Y-112206643D01*
X151936916Y-112206645D01*
X151916912Y-112273589D01*
X151912080Y-112306099D01*
X151912078Y-112306114D01*
X151903172Y-114176494D01*
X148898355Y-114176494D01*
X148912950Y-112541783D01*
X148912563Y-112538172D01*
X148910113Y-112515289D01*
X148897584Y-112459857D01*
X148870291Y-112407519D01*
X148823226Y-112355879D01*
X148797847Y-112334980D01*
X146567745Y-110979616D01*
X146567741Y-110979614D01*
X146567739Y-110979613D01*
X146538907Y-110967097D01*
X146538909Y-110967097D01*
X146484160Y-110951766D01*
X146474504Y-110949062D01*
X146474503Y-110949061D01*
X146474500Y-110949061D01*
X146474495Y-110949060D01*
X146443363Y-110944783D01*
X146443359Y-110944783D01*
X130602085Y-110944783D01*
X130602076Y-110944783D01*
X130577537Y-110947422D01*
X130577529Y-110947423D01*
X130526021Y-110958629D01*
X130474936Y-110984200D01*
X130422134Y-111029955D01*
X130422131Y-111029958D01*
X130386951Y-111084698D01*
X130386950Y-111084698D01*
X130367265Y-111151736D01*
X130367264Y-111151741D01*
X130367264Y-111151742D01*
X130363273Y-111179502D01*
X130362585Y-111184286D01*
X129578585Y-111184286D01*
X129578585Y-110284783D01*
X129598270Y-110217744D01*
X129651074Y-110171989D01*
X129702585Y-110160783D01*
X138143975Y-110160783D01*
X138143977Y-110160783D01*
X138271271Y-110126675D01*
X138385399Y-110060783D01*
X140646786Y-107799394D01*
X144117585Y-107799394D01*
X144117585Y-109521171D01*
X144123994Y-109553395D01*
X144123996Y-109553398D01*
X144148418Y-109589949D01*
X144184969Y-109614371D01*
X144184972Y-109614373D01*
X144217196Y-109620782D01*
X144217200Y-109620783D01*
X144217201Y-109620783D01*
X145938970Y-109620783D01*
X145938971Y-109620782D01*
X145949810Y-109618626D01*
X145971197Y-109614373D01*
X145971197Y-109614372D01*
X145971200Y-109614372D01*
X146007751Y-109589949D01*
X146032174Y-109553398D01*
X146032460Y-109551963D01*
X146038584Y-109521171D01*
X146038585Y-109521168D01*
X146038585Y-108660283D01*
X149192938Y-108660283D01*
X149211482Y-108848572D01*
X149211483Y-108848574D01*
X149266405Y-109029629D01*
X149335974Y-109159783D01*
X149355597Y-109196493D01*
X149475622Y-109342745D01*
X149621874Y-109462770D01*
X149621878Y-109462773D01*
X149788739Y-109551963D01*
X149969794Y-109606885D01*
X150158085Y-109625430D01*
X150346376Y-109606885D01*
X150527431Y-109551963D01*
X150694292Y-109462773D01*
X150840547Y-109342745D01*
X150960575Y-109196490D01*
X151049765Y-109029629D01*
X151104687Y-108848574D01*
X151123232Y-108660283D01*
X151732938Y-108660283D01*
X151751482Y-108848572D01*
X151751483Y-108848574D01*
X151806405Y-109029629D01*
X151875974Y-109159783D01*
X151895597Y-109196493D01*
X152015622Y-109342745D01*
X152161874Y-109462770D01*
X152161878Y-109462773D01*
X152328739Y-109551963D01*
X152509794Y-109606885D01*
X152698085Y-109625430D01*
X152886376Y-109606885D01*
X153067431Y-109551963D01*
X153234292Y-109462773D01*
X153380547Y-109342745D01*
X153500575Y-109196490D01*
X153589765Y-109029629D01*
X153644687Y-108848574D01*
X153663232Y-108660283D01*
X153644687Y-108471992D01*
X153589765Y-108290937D01*
X153500575Y-108124076D01*
X153500572Y-108124072D01*
X153380547Y-107977820D01*
X153234295Y-107857795D01*
X153234293Y-107857794D01*
X153234292Y-107857793D01*
X153067431Y-107768603D01*
X152942204Y-107730616D01*
X152886374Y-107713680D01*
X152698085Y-107695136D01*
X152509795Y-107713680D01*
X152328736Y-107768604D01*
X152161874Y-107857795D01*
X152015622Y-107977820D01*
X151895597Y-108124072D01*
X151806406Y-108290934D01*
X151751482Y-108471993D01*
X151732938Y-108660283D01*
X151123232Y-108660283D01*
X151104687Y-108471992D01*
X151049765Y-108290937D01*
X150960575Y-108124076D01*
X150960572Y-108124072D01*
X150840547Y-107977820D01*
X150694295Y-107857795D01*
X150694293Y-107857794D01*
X150694292Y-107857793D01*
X150527431Y-107768603D01*
X150402204Y-107730616D01*
X150346374Y-107713680D01*
X150158085Y-107695136D01*
X149969795Y-107713680D01*
X149788736Y-107768604D01*
X149621874Y-107857795D01*
X149475622Y-107977820D01*
X149355597Y-108124072D01*
X149266406Y-108290934D01*
X149211482Y-108471993D01*
X149192938Y-108660283D01*
X146038585Y-108660283D01*
X146038585Y-107799398D01*
X146038584Y-107799394D01*
X146032175Y-107767170D01*
X146032173Y-107767167D01*
X146007751Y-107730616D01*
X145971200Y-107706194D01*
X145971197Y-107706192D01*
X145938973Y-107699783D01*
X145938969Y-107699783D01*
X144217201Y-107699783D01*
X144217196Y-107699783D01*
X144184972Y-107706192D01*
X144184969Y-107706194D01*
X144148418Y-107730616D01*
X144123996Y-107767167D01*
X144123994Y-107767170D01*
X144117585Y-107799394D01*
X140646786Y-107799394D01*
X141149079Y-107297101D01*
X141210402Y-107263617D01*
X141236760Y-107260783D01*
X141312193Y-107260783D01*
X145327338Y-107260783D01*
X145347356Y-107262409D01*
X145362315Y-107264856D01*
X145393163Y-107261771D01*
X145396899Y-107261398D01*
X145396993Y-107261389D01*
X145403101Y-107260783D01*
X145443977Y-107260783D01*
X145467991Y-107254348D01*
X145542039Y-107246988D01*
X145542040Y-107246988D01*
X145596073Y-107233089D01*
X145764243Y-107189834D01*
X145870096Y-107144598D01*
X145919701Y-107134628D01*
X147682218Y-107147231D01*
G37*
%TD.AperFunction*%
%TA.AperFunction,Conductor*%
G36*
X154365046Y-87261630D02*
G01*
X154455352Y-87271804D01*
X154482418Y-87277981D01*
X154561620Y-87305695D01*
X154586636Y-87317742D01*
X154657680Y-87362384D01*
X154679381Y-87379690D01*
X154738716Y-87439026D01*
X154756026Y-87460733D01*
X154800663Y-87531776D01*
X154812711Y-87556796D01*
X154840420Y-87635993D01*
X154846598Y-87663064D01*
X154856805Y-87753686D01*
X154857584Y-87767563D01*
X154857584Y-87778649D01*
X154857582Y-87826216D01*
X154857584Y-87826226D01*
X154857585Y-87834498D01*
X154857585Y-103808850D01*
X154856806Y-103822728D01*
X154853675Y-103850527D01*
X154847497Y-103877598D01*
X154819792Y-103956786D01*
X154807745Y-103981806D01*
X154763112Y-104052844D01*
X154745799Y-104074554D01*
X154686475Y-104133881D01*
X154664765Y-104151195D01*
X154593724Y-104195834D01*
X154568706Y-104207882D01*
X154489520Y-104235591D01*
X154462449Y-104241770D01*
X154400358Y-104248766D01*
X154372017Y-104251959D01*
X154358136Y-104252739D01*
X154296179Y-104252739D01*
X154287618Y-104253332D01*
X153462324Y-104259813D01*
X153461351Y-104259817D01*
X153349988Y-104259817D01*
X153116721Y-104296766D01*
X153032250Y-104324214D01*
X152993931Y-104330283D01*
X150902373Y-104330283D01*
X150864056Y-104324214D01*
X150779454Y-104296726D01*
X150546172Y-104259781D01*
X150428077Y-104259783D01*
X150302738Y-104259783D01*
X150235699Y-104240098D01*
X150189944Y-104187294D01*
X150180000Y-104118136D01*
X150209025Y-104054580D01*
X150267803Y-104016806D01*
X150290584Y-104012380D01*
X150346376Y-104006885D01*
X150527431Y-103951963D01*
X150694292Y-103862773D01*
X150840547Y-103742745D01*
X150960575Y-103596490D01*
X151049765Y-103429629D01*
X151104687Y-103248574D01*
X151123232Y-103060283D01*
X151104687Y-102871992D01*
X151049765Y-102690937D01*
X150960575Y-102524076D01*
X150960572Y-102524072D01*
X150840547Y-102377820D01*
X150694295Y-102257795D01*
X150694293Y-102257794D01*
X150694292Y-102257793D01*
X150527431Y-102168603D01*
X150436903Y-102141142D01*
X150346374Y-102113680D01*
X150158085Y-102095136D01*
X149969795Y-102113680D01*
X149788736Y-102168604D01*
X149621874Y-102257795D01*
X149475622Y-102377820D01*
X149355597Y-102524072D01*
X149266406Y-102690934D01*
X149211482Y-102871993D01*
X149192938Y-103060283D01*
X149211482Y-103248572D01*
X149266406Y-103429631D01*
X149355597Y-103596493D01*
X149475622Y-103742745D01*
X149619141Y-103860527D01*
X149621878Y-103862773D01*
X149788739Y-103951963D01*
X149969794Y-104006885D01*
X150025586Y-104012380D01*
X150090373Y-104038541D01*
X150130732Y-104095575D01*
X150133849Y-104165375D01*
X150098735Y-104225780D01*
X150036537Y-104257611D01*
X150013432Y-104259783D01*
X148353974Y-104259783D01*
X148353970Y-104259782D01*
X148288077Y-104259783D01*
X148214462Y-104259783D01*
X148213932Y-104259817D01*
X148169988Y-104259817D01*
X147936721Y-104296766D01*
X147852250Y-104324214D01*
X147813931Y-104330283D01*
X145768547Y-104330283D01*
X145731407Y-104324590D01*
X145619586Y-104289486D01*
X145489070Y-104269482D01*
X145392796Y-104254727D01*
X145392794Y-104254727D01*
X145392788Y-104254726D01*
X145281105Y-104254793D01*
X145281100Y-104254793D01*
X145278078Y-104254795D01*
X145212185Y-104254796D01*
X145196566Y-104258980D01*
X145183367Y-104259634D01*
X145181608Y-104259210D01*
X145177239Y-104259786D01*
X143883168Y-104259845D01*
X143869279Y-104259065D01*
X143779137Y-104248909D01*
X143752067Y-104242730D01*
X143672870Y-104215018D01*
X143647852Y-104202969D01*
X143576805Y-104158325D01*
X143555095Y-104141011D01*
X143547965Y-104133881D01*
X143495769Y-104081681D01*
X143478457Y-104059971D01*
X143433819Y-103988924D01*
X143421772Y-103963906D01*
X143394063Y-103884708D01*
X143387885Y-103857636D01*
X143377677Y-103767001D01*
X143376899Y-103753134D01*
X143376903Y-103694481D01*
X143376899Y-103694466D01*
X143376899Y-103060283D01*
X146652938Y-103060283D01*
X146671482Y-103248572D01*
X146726406Y-103429631D01*
X146815597Y-103596493D01*
X146935622Y-103742745D01*
X147079141Y-103860527D01*
X147081878Y-103862773D01*
X147248739Y-103951963D01*
X147429794Y-104006885D01*
X147618085Y-104025430D01*
X147806376Y-104006885D01*
X147987431Y-103951963D01*
X148154292Y-103862773D01*
X148300547Y-103742745D01*
X148420575Y-103596490D01*
X148509765Y-103429629D01*
X148564687Y-103248574D01*
X148583232Y-103060283D01*
X148564687Y-102871992D01*
X148528426Y-102752457D01*
X148527804Y-102682592D01*
X148559405Y-102628785D01*
X149334557Y-101853635D01*
X149382018Y-101771431D01*
X149406585Y-101679744D01*
X149406585Y-101584822D01*
X149406585Y-93829707D01*
X149420100Y-93773413D01*
X149431731Y-93750587D01*
X149451577Y-93625283D01*
X149451577Y-93625279D01*
X149431732Y-93499982D01*
X149431732Y-93499981D01*
X149431731Y-93499979D01*
X149374135Y-93386941D01*
X149374131Y-93386937D01*
X149374130Y-93386935D01*
X149284432Y-93297237D01*
X149284429Y-93297235D01*
X149284427Y-93297233D01*
X149171389Y-93239637D01*
X149171388Y-93239636D01*
X149171385Y-93239635D01*
X149046088Y-93219791D01*
X149046082Y-93219791D01*
X148920784Y-93239635D01*
X148920783Y-93239635D01*
X148845422Y-93278034D01*
X148807743Y-93297233D01*
X148807742Y-93297234D01*
X148807737Y-93297237D01*
X148718039Y-93386935D01*
X148718036Y-93386940D01*
X148660437Y-93499981D01*
X148660437Y-93499982D01*
X148640593Y-93625279D01*
X148640593Y-93625286D01*
X148660437Y-93750583D01*
X148660438Y-93750586D01*
X148660439Y-93750587D01*
X148672069Y-93773413D01*
X148685585Y-93829707D01*
X148685585Y-101431596D01*
X148665900Y-101498635D01*
X148649266Y-101519277D01*
X148049583Y-102118960D01*
X147988260Y-102152445D01*
X147925907Y-102149940D01*
X147806374Y-102113680D01*
X147618085Y-102095136D01*
X147429795Y-102113680D01*
X147248736Y-102168604D01*
X147081874Y-102257795D01*
X146935622Y-102377820D01*
X146815597Y-102524072D01*
X146726406Y-102690934D01*
X146671482Y-102871993D01*
X146652938Y-103060283D01*
X143376899Y-103060283D01*
X143376899Y-97221852D01*
X143396584Y-97154813D01*
X143449388Y-97109058D01*
X143518546Y-97099114D01*
X143582102Y-97128139D01*
X143588580Y-97134171D01*
X143627737Y-97173328D01*
X143627739Y-97173329D01*
X143627743Y-97173333D01*
X143740781Y-97230929D01*
X143740782Y-97230929D01*
X143740784Y-97230930D01*
X143866082Y-97250775D01*
X143866085Y-97250775D01*
X143866088Y-97250775D01*
X143912728Y-97243388D01*
X144510585Y-97243388D01*
X144510585Y-97243394D01*
X144510585Y-97815283D01*
X144521023Y-97863263D01*
X144535509Y-97879981D01*
X144537030Y-97881736D01*
X144566054Y-97945292D01*
X144556110Y-98014451D01*
X144538297Y-98038246D01*
X144528920Y-98052837D01*
X144510585Y-98115282D01*
X144510585Y-98687177D01*
X144515263Y-98719706D01*
X144515266Y-98719720D01*
X144555768Y-98857659D01*
X144555770Y-98857664D01*
X144555771Y-98857667D01*
X144569427Y-98887571D01*
X144647159Y-99008525D01*
X144647162Y-99008528D01*
X144668686Y-99033369D01*
X144668685Y-99033369D01*
X144777341Y-99127519D01*
X144777345Y-99127521D01*
X144777349Y-99127525D01*
X144805004Y-99145297D01*
X144805009Y-99145300D01*
X144805010Y-99145301D01*
X144935777Y-99205020D01*
X144935780Y-99205020D01*
X144935789Y-99205025D01*
X144967332Y-99214287D01*
X144967334Y-99214287D01*
X144967336Y-99214288D01*
X145009771Y-99220388D01*
X145109647Y-99234749D01*
X145109648Y-99234749D01*
X145142519Y-99234749D01*
X145142522Y-99234749D01*
X145161329Y-99232044D01*
X145178975Y-99230783D01*
X145573195Y-99230783D01*
X145590840Y-99232044D01*
X145609648Y-99234749D01*
X145609651Y-99234749D01*
X145642522Y-99234749D01*
X145642523Y-99234749D01*
X145756757Y-99218324D01*
X145784833Y-99214288D01*
X145784833Y-99214287D01*
X145784838Y-99214287D01*
X145816381Y-99205025D01*
X145816392Y-99205020D01*
X145947159Y-99145301D01*
X145947160Y-99145300D01*
X145947161Y-99145299D01*
X145947166Y-99145297D01*
X145974821Y-99127525D01*
X146083482Y-99033371D01*
X146105011Y-99008525D01*
X146120384Y-98984602D01*
X146153713Y-98932744D01*
X146206516Y-98886989D01*
X146258028Y-98875783D01*
X146646821Y-98875783D01*
X146713860Y-98895468D01*
X146734502Y-98912102D01*
X147435123Y-99612723D01*
X147468608Y-99674046D01*
X147469915Y-99681006D01*
X147490437Y-99810584D01*
X147490439Y-99810587D01*
X147548035Y-99923625D01*
X147548037Y-99923627D01*
X147548039Y-99923630D01*
X147637737Y-100013328D01*
X147637739Y-100013329D01*
X147637743Y-100013333D01*
X147750781Y-100070929D01*
X147750782Y-100070929D01*
X147750784Y-100070930D01*
X147876082Y-100090775D01*
X147876085Y-100090775D01*
X147876088Y-100090775D01*
X148001385Y-100070930D01*
X148001386Y-100070930D01*
X148001387Y-100070929D01*
X148001389Y-100070929D01*
X148114427Y-100013333D01*
X148204135Y-99923625D01*
X148261731Y-99810587D01*
X148261731Y-99810585D01*
X148261732Y-99810584D01*
X148261732Y-99810583D01*
X148281577Y-99685286D01*
X148281577Y-99685279D01*
X148261732Y-99559982D01*
X148261732Y-99559981D01*
X148261731Y-99559979D01*
X148204135Y-99446941D01*
X148204131Y-99446937D01*
X148204130Y-99446935D01*
X148114432Y-99357237D01*
X148114429Y-99357235D01*
X148114427Y-99357233D01*
X148037602Y-99318088D01*
X148001386Y-99299635D01*
X147871808Y-99279113D01*
X147808674Y-99249184D01*
X147803525Y-99244321D01*
X147148873Y-98589669D01*
X147115388Y-98528346D01*
X147120372Y-98458654D01*
X147162244Y-98402721D01*
X147180260Y-98391503D01*
X147181385Y-98390929D01*
X147181389Y-98390929D01*
X147294427Y-98333333D01*
X147384135Y-98243625D01*
X147441731Y-98130587D01*
X147441731Y-98130585D01*
X147441732Y-98130584D01*
X147441732Y-98130583D01*
X147461577Y-98005286D01*
X147461577Y-98005279D01*
X147441732Y-97879982D01*
X147441732Y-97879981D01*
X147440584Y-97877728D01*
X147384135Y-97766941D01*
X147384131Y-97766937D01*
X147384130Y-97766935D01*
X147294432Y-97677237D01*
X147294429Y-97677235D01*
X147294427Y-97677233D01*
X147217602Y-97638088D01*
X147181386Y-97619635D01*
X147051808Y-97599113D01*
X146988674Y-97569184D01*
X146983525Y-97564321D01*
X146513647Y-97094443D01*
X146513646Y-97094442D01*
X146417902Y-97054783D01*
X146258028Y-97054783D01*
X146190989Y-97035098D01*
X146153713Y-96997822D01*
X146105019Y-96922053D01*
X146105016Y-96922050D01*
X146105011Y-96922041D01*
X146083483Y-96897196D01*
X146083484Y-96897196D01*
X145974828Y-96803046D01*
X145974823Y-96803042D01*
X145974821Y-96803041D01*
X145947166Y-96785269D01*
X145947160Y-96785265D01*
X145947159Y-96785264D01*
X145816392Y-96725545D01*
X145816385Y-96725543D01*
X145816381Y-96725541D01*
X145784838Y-96716279D01*
X145784835Y-96716278D01*
X145784833Y-96716277D01*
X145656882Y-96697881D01*
X145642523Y-96695817D01*
X145609648Y-96695817D01*
X145609646Y-96695817D01*
X145590841Y-96698521D01*
X145573195Y-96699783D01*
X145178975Y-96699783D01*
X145161329Y-96698521D01*
X145142523Y-96695817D01*
X145142522Y-96695817D01*
X145109647Y-96695817D01*
X144967336Y-96716277D01*
X144967334Y-96716278D01*
X144954731Y-96719979D01*
X144935789Y-96725541D01*
X144935787Y-96725542D01*
X144935777Y-96725545D01*
X144805010Y-96785264D01*
X144805009Y-96785265D01*
X144777341Y-96803046D01*
X144668686Y-96897196D01*
X144647162Y-96922037D01*
X144647157Y-96922043D01*
X144569428Y-97042992D01*
X144555770Y-97072901D01*
X144555768Y-97072906D01*
X144515266Y-97210845D01*
X144515263Y-97210859D01*
X144510585Y-97243388D01*
X143912728Y-97243388D01*
X143991385Y-97230930D01*
X143991386Y-97230930D01*
X143991387Y-97230929D01*
X143991389Y-97230929D01*
X144104427Y-97173333D01*
X144104432Y-97173328D01*
X144126477Y-97151284D01*
X144194130Y-97083630D01*
X144194135Y-97083625D01*
X144251731Y-96970587D01*
X144251731Y-96970585D01*
X144251732Y-96970584D01*
X144251732Y-96970583D01*
X144271577Y-96845286D01*
X144271577Y-96845279D01*
X144251732Y-96719982D01*
X144251732Y-96719981D01*
X144249845Y-96716277D01*
X144194135Y-96606941D01*
X144194131Y-96606937D01*
X144194130Y-96606935D01*
X144162904Y-96575709D01*
X144129419Y-96514386D01*
X144126585Y-96488028D01*
X144126585Y-95791547D01*
X144146270Y-95724508D01*
X144162904Y-95703866D01*
X144317768Y-95549003D01*
X144474669Y-95392102D01*
X144535992Y-95358617D01*
X144562350Y-95355783D01*
X144955195Y-95355783D01*
X144972840Y-95357044D01*
X144991648Y-95359749D01*
X144991651Y-95359749D01*
X145024522Y-95359749D01*
X145024523Y-95359749D01*
X145138757Y-95343324D01*
X145166833Y-95339288D01*
X145166833Y-95339287D01*
X145166838Y-95339287D01*
X145198381Y-95330025D01*
X145198392Y-95330020D01*
X145329159Y-95270301D01*
X145329160Y-95270300D01*
X145329161Y-95270299D01*
X145329166Y-95270297D01*
X145356821Y-95252525D01*
X145465482Y-95158371D01*
X145487011Y-95133525D01*
X145529286Y-95067742D01*
X145582089Y-95021989D01*
X145633601Y-95010783D01*
X146466142Y-95010783D01*
X146533181Y-95030468D01*
X146570457Y-95067744D01*
X146619150Y-95143512D01*
X146619154Y-95143518D01*
X146619159Y-95143525D01*
X146619162Y-95143528D01*
X146640686Y-95168369D01*
X146640685Y-95168369D01*
X146749341Y-95262519D01*
X146749345Y-95262521D01*
X146749349Y-95262525D01*
X146777004Y-95280297D01*
X146777009Y-95280300D01*
X146777010Y-95280301D01*
X146907777Y-95340020D01*
X146907780Y-95340020D01*
X146907789Y-95340025D01*
X146939332Y-95349287D01*
X146939334Y-95349287D01*
X146939336Y-95349288D01*
X146981771Y-95355388D01*
X147081647Y-95369749D01*
X147081648Y-95369749D01*
X147114519Y-95369749D01*
X147114522Y-95369749D01*
X147133329Y-95367044D01*
X147150975Y-95365783D01*
X147545195Y-95365783D01*
X147562840Y-95367044D01*
X147581648Y-95369749D01*
X147581651Y-95369749D01*
X147614522Y-95369749D01*
X147614523Y-95369749D01*
X147728757Y-95353324D01*
X147756833Y-95349288D01*
X147756833Y-95349287D01*
X147756838Y-95349287D01*
X147788381Y-95340025D01*
X147810289Y-95330020D01*
X147919159Y-95280301D01*
X147919160Y-95280300D01*
X147919161Y-95280299D01*
X147919166Y-95280297D01*
X147946821Y-95262525D01*
X148055482Y-95168371D01*
X148077011Y-95143525D01*
X148154743Y-95022571D01*
X148168399Y-94992667D01*
X148208906Y-94854712D01*
X148213585Y-94822172D01*
X148213585Y-94250283D01*
X148203147Y-94202303D01*
X148187138Y-94183827D01*
X148158115Y-94120273D01*
X148168059Y-94051115D01*
X148185869Y-94027324D01*
X148195249Y-94012728D01*
X148195249Y-94012727D01*
X148195250Y-94012727D01*
X148213585Y-93950283D01*
X148213585Y-93378394D01*
X148208906Y-93345854D01*
X148168399Y-93207899D01*
X148154743Y-93177995D01*
X148077011Y-93057041D01*
X148055483Y-93032196D01*
X148055484Y-93032196D01*
X147946828Y-92938046D01*
X147946823Y-92938042D01*
X147946821Y-92938041D01*
X147919166Y-92920269D01*
X147919160Y-92920265D01*
X147919159Y-92920264D01*
X147788392Y-92860545D01*
X147788385Y-92860543D01*
X147788381Y-92860541D01*
X147756838Y-92851279D01*
X147756835Y-92851278D01*
X147756833Y-92851277D01*
X147628882Y-92832881D01*
X147614523Y-92830817D01*
X147581648Y-92830817D01*
X147581646Y-92830817D01*
X147562841Y-92833521D01*
X147545195Y-92834783D01*
X147150975Y-92834783D01*
X147133329Y-92833521D01*
X147114523Y-92830817D01*
X147114522Y-92830817D01*
X147081647Y-92830817D01*
X146939336Y-92851277D01*
X146939334Y-92851278D01*
X146923560Y-92855910D01*
X146907789Y-92860541D01*
X146907787Y-92860542D01*
X146907777Y-92860545D01*
X146777010Y-92920264D01*
X146777009Y-92920265D01*
X146749341Y-92938046D01*
X146640686Y-93032196D01*
X146619162Y-93057037D01*
X146619157Y-93057043D01*
X146541428Y-93177992D01*
X146527770Y-93207901D01*
X146527768Y-93207906D01*
X146518134Y-93240718D01*
X146503848Y-93262945D01*
X146492870Y-93286986D01*
X146485252Y-93291881D01*
X146480359Y-93299496D01*
X146456323Y-93310472D01*
X146434092Y-93324760D01*
X146420879Y-93326659D01*
X146416804Y-93328521D01*
X146399157Y-93329783D01*
X146315339Y-93329783D01*
X146248300Y-93310098D01*
X146227657Y-93293463D01*
X146196431Y-93262236D01*
X146196429Y-93262235D01*
X146196427Y-93262233D01*
X146083389Y-93204637D01*
X146083388Y-93204636D01*
X146083385Y-93204635D01*
X145958088Y-93184791D01*
X145958082Y-93184791D01*
X145832784Y-93204635D01*
X145832783Y-93204635D01*
X145770496Y-93236373D01*
X145744235Y-93249753D01*
X145675568Y-93262649D01*
X145610827Y-93236373D01*
X145575148Y-93190780D01*
X145564743Y-93167995D01*
X145487011Y-93047041D01*
X145465483Y-93022196D01*
X145465484Y-93022196D01*
X145356828Y-92928046D01*
X145356823Y-92928042D01*
X145356821Y-92928041D01*
X145335338Y-92914235D01*
X145329160Y-92910265D01*
X145329159Y-92910264D01*
X145198392Y-92850545D01*
X145198385Y-92850543D01*
X145198381Y-92850541D01*
X145166838Y-92841279D01*
X145166835Y-92841278D01*
X145166833Y-92841277D01*
X145038882Y-92822881D01*
X145024523Y-92820817D01*
X144991648Y-92820817D01*
X144991646Y-92820817D01*
X144972841Y-92823521D01*
X144955195Y-92824783D01*
X144562349Y-92824783D01*
X144532908Y-92816138D01*
X144502922Y-92809615D01*
X144497906Y-92805860D01*
X144495310Y-92805098D01*
X144474668Y-92788464D01*
X144304977Y-92618773D01*
X144271492Y-92557450D01*
X144270185Y-92511697D01*
X144273577Y-92490283D01*
X144265417Y-92438762D01*
X144253732Y-92364982D01*
X144253732Y-92364981D01*
X144253731Y-92364979D01*
X144196135Y-92251941D01*
X144196131Y-92251937D01*
X144196130Y-92251935D01*
X144106432Y-92162237D01*
X144106429Y-92162235D01*
X144106427Y-92162233D01*
X143993389Y-92104637D01*
X143993388Y-92104636D01*
X143993385Y-92104635D01*
X143868088Y-92084791D01*
X143868082Y-92084791D01*
X143742784Y-92104635D01*
X143742783Y-92104635D01*
X143667422Y-92143034D01*
X143629743Y-92162233D01*
X143629742Y-92162234D01*
X143629737Y-92162237D01*
X143588580Y-92203395D01*
X143527257Y-92236880D01*
X143457565Y-92231896D01*
X143401632Y-92190024D01*
X143377215Y-92124560D01*
X143376899Y-92115714D01*
X143376899Y-87711296D01*
X143377567Y-87699394D01*
X144117585Y-87699394D01*
X144117585Y-89421171D01*
X144123994Y-89453395D01*
X144123996Y-89453398D01*
X144148418Y-89489949D01*
X144184969Y-89514371D01*
X144184972Y-89514373D01*
X144217196Y-89520782D01*
X144217200Y-89520783D01*
X144217201Y-89520783D01*
X145938970Y-89520783D01*
X145938971Y-89520782D01*
X145949810Y-89518626D01*
X145971197Y-89514373D01*
X145971197Y-89514372D01*
X145971200Y-89514372D01*
X146007751Y-89489949D01*
X146032174Y-89453398D01*
X146032460Y-89451963D01*
X146038584Y-89421171D01*
X146038585Y-89421168D01*
X146038585Y-88560283D01*
X149192938Y-88560283D01*
X149211482Y-88748572D01*
X149266406Y-88929631D01*
X149355597Y-89096493D01*
X149475622Y-89242745D01*
X149621874Y-89362770D01*
X149621878Y-89362773D01*
X149788739Y-89451963D01*
X149969794Y-89506885D01*
X150158085Y-89525430D01*
X150346376Y-89506885D01*
X150527431Y-89451963D01*
X150694292Y-89362773D01*
X150840547Y-89242745D01*
X150960575Y-89096490D01*
X151049765Y-88929629D01*
X151104687Y-88748574D01*
X151123232Y-88560283D01*
X151732938Y-88560283D01*
X151751482Y-88748572D01*
X151806406Y-88929631D01*
X151895597Y-89096493D01*
X152015622Y-89242745D01*
X152161874Y-89362770D01*
X152161878Y-89362773D01*
X152328739Y-89451963D01*
X152509794Y-89506885D01*
X152698085Y-89525430D01*
X152886376Y-89506885D01*
X152947590Y-89488315D01*
X153017455Y-89487691D01*
X153076569Y-89524939D01*
X153106160Y-89588233D01*
X153107585Y-89606976D01*
X153107585Y-95825857D01*
X153094071Y-95882150D01*
X153082437Y-95904982D01*
X153062593Y-96030279D01*
X153062593Y-96030286D01*
X153082437Y-96155583D01*
X153082437Y-96155584D01*
X153082439Y-96155587D01*
X153140035Y-96268625D01*
X153140037Y-96268627D01*
X153140039Y-96268630D01*
X153229737Y-96358328D01*
X153229739Y-96358329D01*
X153229743Y-96358333D01*
X153342781Y-96415929D01*
X153342782Y-96415929D01*
X153342784Y-96415930D01*
X153468082Y-96435775D01*
X153468085Y-96435775D01*
X153468088Y-96435775D01*
X153593385Y-96415930D01*
X153593386Y-96415930D01*
X153593387Y-96415929D01*
X153593389Y-96415929D01*
X153706427Y-96358333D01*
X153796135Y-96268625D01*
X153853731Y-96155587D01*
X153853731Y-96155585D01*
X153853732Y-96155584D01*
X153853732Y-96155583D01*
X153873577Y-96030286D01*
X153873577Y-96030279D01*
X153853732Y-95904982D01*
X153853731Y-95904980D01*
X153853731Y-95904979D01*
X153842098Y-95882149D01*
X153828585Y-95825857D01*
X153828585Y-89282824D01*
X153828585Y-89282822D01*
X153804018Y-89191135D01*
X153756557Y-89108931D01*
X153689437Y-89041811D01*
X153639407Y-88991781D01*
X153605922Y-88930458D01*
X153608428Y-88868104D01*
X153644686Y-88748576D01*
X153644687Y-88748574D01*
X153663232Y-88560283D01*
X153644687Y-88371992D01*
X153589765Y-88190937D01*
X153500575Y-88024076D01*
X153500572Y-88024072D01*
X153380547Y-87877820D01*
X153234295Y-87757795D01*
X153234293Y-87757794D01*
X153234292Y-87757793D01*
X153067431Y-87668603D01*
X152976903Y-87641142D01*
X152886374Y-87613680D01*
X152698085Y-87595136D01*
X152509795Y-87613680D01*
X152328736Y-87668604D01*
X152161874Y-87757795D01*
X152015622Y-87877820D01*
X151895597Y-88024072D01*
X151806406Y-88190934D01*
X151751482Y-88371993D01*
X151732938Y-88560283D01*
X151123232Y-88560283D01*
X151104687Y-88371992D01*
X151049765Y-88190937D01*
X150960575Y-88024076D01*
X150960572Y-88024072D01*
X150840547Y-87877820D01*
X150694295Y-87757795D01*
X150694293Y-87757794D01*
X150694292Y-87757793D01*
X150527431Y-87668603D01*
X150436903Y-87641142D01*
X150346374Y-87613680D01*
X150158085Y-87595136D01*
X149969795Y-87613680D01*
X149788736Y-87668604D01*
X149621874Y-87757795D01*
X149475622Y-87877820D01*
X149355597Y-88024072D01*
X149266406Y-88190934D01*
X149211482Y-88371993D01*
X149192938Y-88560283D01*
X146038585Y-88560283D01*
X146038585Y-87699398D01*
X146038584Y-87699394D01*
X146032175Y-87667170D01*
X146032173Y-87667167D01*
X146007751Y-87630616D01*
X145971200Y-87606194D01*
X145971197Y-87606192D01*
X145938973Y-87599783D01*
X145938969Y-87599783D01*
X144217201Y-87599783D01*
X144217196Y-87599783D01*
X144184972Y-87606192D01*
X144184969Y-87606194D01*
X144148418Y-87630616D01*
X144123996Y-87667167D01*
X144123994Y-87667170D01*
X144117585Y-87699394D01*
X143377567Y-87699394D01*
X143377678Y-87697418D01*
X143379704Y-87679429D01*
X143380748Y-87670155D01*
X143386924Y-87643088D01*
X143414640Y-87563872D01*
X143426679Y-87538868D01*
X143471332Y-87467797D01*
X143488638Y-87446097D01*
X143547976Y-87386756D01*
X143569676Y-87369449D01*
X143640738Y-87324796D01*
X143665744Y-87312752D01*
X143744961Y-87285031D01*
X143772025Y-87278854D01*
X143844456Y-87270692D01*
X143861835Y-87268734D01*
X143875627Y-87267954D01*
X143935189Y-87267954D01*
X143935351Y-87267909D01*
X143939738Y-87267906D01*
X154351100Y-87260851D01*
X154365046Y-87261630D01*
G37*
%TD.AperFunction*%
%TD*%
%TA.AperFunction,Conductor*%
%TO.N,VCC_PROTECTED*%
G36*
X165434509Y-111079862D02*
G01*
X165501479Y-111099774D01*
X165547054Y-111152733D01*
X165558085Y-111203861D01*
X165558085Y-115356283D01*
X165538400Y-115423322D01*
X165485596Y-115469077D01*
X165434085Y-115480283D01*
X158433190Y-115480283D01*
X158384957Y-115470518D01*
X158273177Y-115423322D01*
X155708085Y-114340283D01*
X155708082Y-114340282D01*
X155708085Y-114340282D01*
X152141326Y-114301618D01*
X152074504Y-114281208D01*
X152029324Y-114227911D01*
X152018671Y-114177039D01*
X152027578Y-112306657D01*
X152047582Y-112239714D01*
X152100603Y-112194211D01*
X152133293Y-112184604D01*
X159668804Y-111061665D01*
X159687475Y-111060314D01*
X165434509Y-111079862D01*
G37*
%TD.AperFunction*%
%TD*%
%TA.AperFunction,Conductor*%
%TO.N,/C*%
G36*
X153784778Y-115029594D02*
G01*
X153851706Y-115049653D01*
X153897165Y-115102711D01*
X153908085Y-115153592D01*
X153908085Y-116776232D01*
X153888400Y-116843271D01*
X153835596Y-116889026D01*
X153784035Y-116900232D01*
X146853341Y-116897433D01*
X146786309Y-116877721D01*
X146740576Y-116824899D01*
X146729398Y-116772135D01*
X146746791Y-115113669D01*
X146767177Y-115046840D01*
X146820458Y-115001642D01*
X146871475Y-114990972D01*
X153784778Y-115029594D01*
G37*
%TD.AperFunction*%
%TD*%
%TA.AperFunction,Conductor*%
%TO.N,VCC*%
G36*
X146507759Y-111078317D02*
G01*
X148737861Y-112433681D01*
X148784926Y-112485321D01*
X148797455Y-112540753D01*
X148777618Y-114762531D01*
X148757336Y-114829392D01*
X148704125Y-114874674D01*
X148652930Y-114885422D01*
X146886029Y-114875551D01*
X146872120Y-114875474D01*
X146872119Y-114875474D01*
X146872113Y-114875474D01*
X146856569Y-114877038D01*
X146847830Y-114877918D01*
X146847826Y-114877918D01*
X146847824Y-114877919D01*
X146796814Y-114888587D01*
X146745742Y-114913563D01*
X146692459Y-114958763D01*
X146692457Y-114958766D01*
X146656703Y-115013138D01*
X146636315Y-115079974D01*
X146631296Y-115112461D01*
X146631296Y-115112462D01*
X146613903Y-116770909D01*
X146613904Y-116770922D01*
X146613904Y-116770924D01*
X146616406Y-116796072D01*
X146616406Y-116796076D01*
X146616407Y-116796077D01*
X146621970Y-116822338D01*
X146616606Y-116892001D01*
X146574430Y-116947706D01*
X146508834Y-116971765D01*
X146501857Y-116972029D01*
X144645809Y-116989919D01*
X144578583Y-116970882D01*
X144576551Y-116969576D01*
X144210311Y-116729084D01*
X142278085Y-115460283D01*
X142278084Y-115460283D01*
X130602085Y-115460283D01*
X130535046Y-115440598D01*
X130489291Y-115387794D01*
X130478085Y-115336283D01*
X130478085Y-111184283D01*
X130497770Y-111117244D01*
X130550574Y-111071489D01*
X130602085Y-111060283D01*
X146443359Y-111060283D01*
X146507759Y-111078317D01*
G37*
%TD.AperFunction*%
%TD*%
M02*
