%TF.GenerationSoftware,KiCad,Pcbnew,7.99.0-957-g18dd623122*%
%TF.CreationDate,2023-07-10T16:21:33-04:00*%
%TF.ProjectId,rp2040_base,72703230-3430-45f6-9261-73652e6b6963,rev?*%
%TF.SameCoordinates,Original*%
%TF.FileFunction,Other,Comment*%
%FSLAX46Y46*%
G04 Gerber Fmt 4.6, Leading zero omitted, Abs format (unit mm)*
G04 Created by KiCad (PCBNEW 7.99.0-957-g18dd623122) date 2023-07-10 16:21:33*
%MOMM*%
%LPD*%
G01*
G04 APERTURE LIST*
%ADD10C,0.150000*%
G04 APERTURE END LIST*
D10*
X133048953Y-72067858D02*
X133096572Y-72020239D01*
X133096572Y-72020239D02*
X133191810Y-71972620D01*
X133191810Y-71972620D02*
X133429905Y-71972620D01*
X133429905Y-71972620D02*
X133525143Y-72020239D01*
X133525143Y-72020239D02*
X133572762Y-72067858D01*
X133572762Y-72067858D02*
X133620381Y-72163096D01*
X133620381Y-72163096D02*
X133620381Y-72258334D01*
X133620381Y-72258334D02*
X133572762Y-72401191D01*
X133572762Y-72401191D02*
X133001334Y-72972620D01*
X133001334Y-72972620D02*
X133620381Y-72972620D01*
X133953715Y-71972620D02*
X134572762Y-71972620D01*
X134572762Y-71972620D02*
X134239429Y-72353572D01*
X134239429Y-72353572D02*
X134382286Y-72353572D01*
X134382286Y-72353572D02*
X134477524Y-72401191D01*
X134477524Y-72401191D02*
X134525143Y-72448810D01*
X134525143Y-72448810D02*
X134572762Y-72544048D01*
X134572762Y-72544048D02*
X134572762Y-72782143D01*
X134572762Y-72782143D02*
X134525143Y-72877381D01*
X134525143Y-72877381D02*
X134477524Y-72925001D01*
X134477524Y-72925001D02*
X134382286Y-72972620D01*
X134382286Y-72972620D02*
X134096572Y-72972620D01*
X134096572Y-72972620D02*
X134001334Y-72925001D01*
X134001334Y-72925001D02*
X133953715Y-72877381D01*
X135001334Y-72877381D02*
X135048953Y-72925001D01*
X135048953Y-72925001D02*
X135001334Y-72972620D01*
X135001334Y-72972620D02*
X134953715Y-72925001D01*
X134953715Y-72925001D02*
X135001334Y-72877381D01*
X135001334Y-72877381D02*
X135001334Y-72972620D01*
X135382286Y-71972620D02*
X136001333Y-71972620D01*
X136001333Y-71972620D02*
X135668000Y-72353572D01*
X135668000Y-72353572D02*
X135810857Y-72353572D01*
X135810857Y-72353572D02*
X135906095Y-72401191D01*
X135906095Y-72401191D02*
X135953714Y-72448810D01*
X135953714Y-72448810D02*
X136001333Y-72544048D01*
X136001333Y-72544048D02*
X136001333Y-72782143D01*
X136001333Y-72782143D02*
X135953714Y-72877381D01*
X135953714Y-72877381D02*
X135906095Y-72925001D01*
X135906095Y-72925001D02*
X135810857Y-72972620D01*
X135810857Y-72972620D02*
X135525143Y-72972620D01*
X135525143Y-72972620D02*
X135429905Y-72925001D01*
X135429905Y-72925001D02*
X135382286Y-72877381D01*
X136858476Y-71972620D02*
X136668000Y-71972620D01*
X136668000Y-71972620D02*
X136572762Y-72020239D01*
X136572762Y-72020239D02*
X136525143Y-72067858D01*
X136525143Y-72067858D02*
X136429905Y-72210715D01*
X136429905Y-72210715D02*
X136382286Y-72401191D01*
X136382286Y-72401191D02*
X136382286Y-72782143D01*
X136382286Y-72782143D02*
X136429905Y-72877381D01*
X136429905Y-72877381D02*
X136477524Y-72925001D01*
X136477524Y-72925001D02*
X136572762Y-72972620D01*
X136572762Y-72972620D02*
X136763238Y-72972620D01*
X136763238Y-72972620D02*
X136858476Y-72925001D01*
X136858476Y-72925001D02*
X136906095Y-72877381D01*
X136906095Y-72877381D02*
X136953714Y-72782143D01*
X136953714Y-72782143D02*
X136953714Y-72544048D01*
X136953714Y-72544048D02*
X136906095Y-72448810D01*
X136906095Y-72448810D02*
X136858476Y-72401191D01*
X136858476Y-72401191D02*
X136763238Y-72353572D01*
X136763238Y-72353572D02*
X136572762Y-72353572D01*
X136572762Y-72353572D02*
X136477524Y-72401191D01*
X136477524Y-72401191D02*
X136429905Y-72448810D01*
X136429905Y-72448810D02*
X136382286Y-72544048D01*
X137525143Y-72401191D02*
X137429905Y-72353572D01*
X137429905Y-72353572D02*
X137382286Y-72305953D01*
X137382286Y-72305953D02*
X137334667Y-72210715D01*
X137334667Y-72210715D02*
X137334667Y-72163096D01*
X137334667Y-72163096D02*
X137382286Y-72067858D01*
X137382286Y-72067858D02*
X137429905Y-72020239D01*
X137429905Y-72020239D02*
X137525143Y-71972620D01*
X137525143Y-71972620D02*
X137715619Y-71972620D01*
X137715619Y-71972620D02*
X137810857Y-72020239D01*
X137810857Y-72020239D02*
X137858476Y-72067858D01*
X137858476Y-72067858D02*
X137906095Y-72163096D01*
X137906095Y-72163096D02*
X137906095Y-72210715D01*
X137906095Y-72210715D02*
X137858476Y-72305953D01*
X137858476Y-72305953D02*
X137810857Y-72353572D01*
X137810857Y-72353572D02*
X137715619Y-72401191D01*
X137715619Y-72401191D02*
X137525143Y-72401191D01*
X137525143Y-72401191D02*
X137429905Y-72448810D01*
X137429905Y-72448810D02*
X137382286Y-72496429D01*
X137382286Y-72496429D02*
X137334667Y-72591667D01*
X137334667Y-72591667D02*
X137334667Y-72782143D01*
X137334667Y-72782143D02*
X137382286Y-72877381D01*
X137382286Y-72877381D02*
X137429905Y-72925001D01*
X137429905Y-72925001D02*
X137525143Y-72972620D01*
X137525143Y-72972620D02*
X137715619Y-72972620D01*
X137715619Y-72972620D02*
X137810857Y-72925001D01*
X137810857Y-72925001D02*
X137858476Y-72877381D01*
X137858476Y-72877381D02*
X137906095Y-72782143D01*
X137906095Y-72782143D02*
X137906095Y-72591667D01*
X137906095Y-72591667D02*
X137858476Y-72496429D01*
X137858476Y-72496429D02*
X137810857Y-72448810D01*
X137810857Y-72448810D02*
X137715619Y-72401191D01*
X138525143Y-71972620D02*
X138620381Y-71972620D01*
X138620381Y-71972620D02*
X138715619Y-72020239D01*
X138715619Y-72020239D02*
X138763238Y-72067858D01*
X138763238Y-72067858D02*
X138810857Y-72163096D01*
X138810857Y-72163096D02*
X138858476Y-72353572D01*
X138858476Y-72353572D02*
X138858476Y-72591667D01*
X138858476Y-72591667D02*
X138810857Y-72782143D01*
X138810857Y-72782143D02*
X138763238Y-72877381D01*
X138763238Y-72877381D02*
X138715619Y-72925001D01*
X138715619Y-72925001D02*
X138620381Y-72972620D01*
X138620381Y-72972620D02*
X138525143Y-72972620D01*
X138525143Y-72972620D02*
X138429905Y-72925001D01*
X138429905Y-72925001D02*
X138382286Y-72877381D01*
X138382286Y-72877381D02*
X138334667Y-72782143D01*
X138334667Y-72782143D02*
X138287048Y-72591667D01*
X138287048Y-72591667D02*
X138287048Y-72353572D01*
X138287048Y-72353572D02*
X138334667Y-72163096D01*
X138334667Y-72163096D02*
X138382286Y-72067858D01*
X138382286Y-72067858D02*
X138429905Y-72020239D01*
X138429905Y-72020239D02*
X138525143Y-71972620D01*
X140048953Y-72972620D02*
X140048953Y-72305953D01*
X140048953Y-72401191D02*
X140096572Y-72353572D01*
X140096572Y-72353572D02*
X140191810Y-72305953D01*
X140191810Y-72305953D02*
X140334667Y-72305953D01*
X140334667Y-72305953D02*
X140429905Y-72353572D01*
X140429905Y-72353572D02*
X140477524Y-72448810D01*
X140477524Y-72448810D02*
X140477524Y-72972620D01*
X140477524Y-72448810D02*
X140525143Y-72353572D01*
X140525143Y-72353572D02*
X140620381Y-72305953D01*
X140620381Y-72305953D02*
X140763238Y-72305953D01*
X140763238Y-72305953D02*
X140858477Y-72353572D01*
X140858477Y-72353572D02*
X140906096Y-72448810D01*
X140906096Y-72448810D02*
X140906096Y-72972620D01*
X141382286Y-72972620D02*
X141382286Y-72305953D01*
X141382286Y-72401191D02*
X141429905Y-72353572D01*
X141429905Y-72353572D02*
X141525143Y-72305953D01*
X141525143Y-72305953D02*
X141668000Y-72305953D01*
X141668000Y-72305953D02*
X141763238Y-72353572D01*
X141763238Y-72353572D02*
X141810857Y-72448810D01*
X141810857Y-72448810D02*
X141810857Y-72972620D01*
X141810857Y-72448810D02*
X141858476Y-72353572D01*
X141858476Y-72353572D02*
X141953714Y-72305953D01*
X141953714Y-72305953D02*
X142096571Y-72305953D01*
X142096571Y-72305953D02*
X142191810Y-72353572D01*
X142191810Y-72353572D02*
X142239429Y-72448810D01*
X142239429Y-72448810D02*
X142239429Y-72972620D01*
X149352000Y-78748000D02*
X149352000Y-73073581D01*
X125984000Y-78748000D02*
X125984000Y-73073581D01*
X149352000Y-73660001D02*
X125984000Y-73660001D01*
X149352000Y-73660001D02*
X125984000Y-73660001D01*
X149352000Y-73660001D02*
X148225496Y-74246422D01*
X149352000Y-73660001D02*
X148225496Y-73073580D01*
X125984000Y-73660001D02*
X127110504Y-73073580D01*
X125984000Y-73660001D02*
X127110504Y-74246422D01*
X152331857Y-95678046D02*
X152284238Y-95630427D01*
X152284238Y-95630427D02*
X152236619Y-95535189D01*
X152236619Y-95535189D02*
X152236619Y-95297094D01*
X152236619Y-95297094D02*
X152284238Y-95201856D01*
X152284238Y-95201856D02*
X152331857Y-95154237D01*
X152331857Y-95154237D02*
X152427095Y-95106618D01*
X152427095Y-95106618D02*
X152522333Y-95106618D01*
X152522333Y-95106618D02*
X152665190Y-95154237D01*
X152665190Y-95154237D02*
X153236619Y-95725665D01*
X153236619Y-95725665D02*
X153236619Y-95106618D01*
X152236619Y-94773284D02*
X152236619Y-94154237D01*
X152236619Y-94154237D02*
X152617571Y-94487570D01*
X152617571Y-94487570D02*
X152617571Y-94344713D01*
X152617571Y-94344713D02*
X152665190Y-94249475D01*
X152665190Y-94249475D02*
X152712809Y-94201856D01*
X152712809Y-94201856D02*
X152808047Y-94154237D01*
X152808047Y-94154237D02*
X153046142Y-94154237D01*
X153046142Y-94154237D02*
X153141380Y-94201856D01*
X153141380Y-94201856D02*
X153189000Y-94249475D01*
X153189000Y-94249475D02*
X153236619Y-94344713D01*
X153236619Y-94344713D02*
X153236619Y-94630427D01*
X153236619Y-94630427D02*
X153189000Y-94725665D01*
X153189000Y-94725665D02*
X153141380Y-94773284D01*
X153141380Y-93725665D02*
X153189000Y-93678046D01*
X153189000Y-93678046D02*
X153236619Y-93725665D01*
X153236619Y-93725665D02*
X153189000Y-93773284D01*
X153189000Y-93773284D02*
X153141380Y-93725665D01*
X153141380Y-93725665D02*
X153236619Y-93725665D01*
X152236619Y-92820904D02*
X152236619Y-93011380D01*
X152236619Y-93011380D02*
X152284238Y-93106618D01*
X152284238Y-93106618D02*
X152331857Y-93154237D01*
X152331857Y-93154237D02*
X152474714Y-93249475D01*
X152474714Y-93249475D02*
X152665190Y-93297094D01*
X152665190Y-93297094D02*
X153046142Y-93297094D01*
X153046142Y-93297094D02*
X153141380Y-93249475D01*
X153141380Y-93249475D02*
X153189000Y-93201856D01*
X153189000Y-93201856D02*
X153236619Y-93106618D01*
X153236619Y-93106618D02*
X153236619Y-92916142D01*
X153236619Y-92916142D02*
X153189000Y-92820904D01*
X153189000Y-92820904D02*
X153141380Y-92773285D01*
X153141380Y-92773285D02*
X153046142Y-92725666D01*
X153046142Y-92725666D02*
X152808047Y-92725666D01*
X152808047Y-92725666D02*
X152712809Y-92773285D01*
X152712809Y-92773285D02*
X152665190Y-92820904D01*
X152665190Y-92820904D02*
X152617571Y-92916142D01*
X152617571Y-92916142D02*
X152617571Y-93106618D01*
X152617571Y-93106618D02*
X152665190Y-93201856D01*
X152665190Y-93201856D02*
X152712809Y-93249475D01*
X152712809Y-93249475D02*
X152808047Y-93297094D01*
X152331857Y-92344713D02*
X152284238Y-92297094D01*
X152284238Y-92297094D02*
X152236619Y-92201856D01*
X152236619Y-92201856D02*
X152236619Y-91963761D01*
X152236619Y-91963761D02*
X152284238Y-91868523D01*
X152284238Y-91868523D02*
X152331857Y-91820904D01*
X152331857Y-91820904D02*
X152427095Y-91773285D01*
X152427095Y-91773285D02*
X152522333Y-91773285D01*
X152522333Y-91773285D02*
X152665190Y-91820904D01*
X152665190Y-91820904D02*
X153236619Y-92392332D01*
X153236619Y-92392332D02*
X153236619Y-91773285D01*
X152331857Y-91392332D02*
X152284238Y-91344713D01*
X152284238Y-91344713D02*
X152236619Y-91249475D01*
X152236619Y-91249475D02*
X152236619Y-91011380D01*
X152236619Y-91011380D02*
X152284238Y-90916142D01*
X152284238Y-90916142D02*
X152331857Y-90868523D01*
X152331857Y-90868523D02*
X152427095Y-90820904D01*
X152427095Y-90820904D02*
X152522333Y-90820904D01*
X152522333Y-90820904D02*
X152665190Y-90868523D01*
X152665190Y-90868523D02*
X153236619Y-91439951D01*
X153236619Y-91439951D02*
X153236619Y-90820904D01*
X152236619Y-90201856D02*
X152236619Y-90106618D01*
X152236619Y-90106618D02*
X152284238Y-90011380D01*
X152284238Y-90011380D02*
X152331857Y-89963761D01*
X152331857Y-89963761D02*
X152427095Y-89916142D01*
X152427095Y-89916142D02*
X152617571Y-89868523D01*
X152617571Y-89868523D02*
X152855666Y-89868523D01*
X152855666Y-89868523D02*
X153046142Y-89916142D01*
X153046142Y-89916142D02*
X153141380Y-89963761D01*
X153141380Y-89963761D02*
X153189000Y-90011380D01*
X153189000Y-90011380D02*
X153236619Y-90106618D01*
X153236619Y-90106618D02*
X153236619Y-90201856D01*
X153236619Y-90201856D02*
X153189000Y-90297094D01*
X153189000Y-90297094D02*
X153141380Y-90344713D01*
X153141380Y-90344713D02*
X153046142Y-90392332D01*
X153046142Y-90392332D02*
X152855666Y-90439951D01*
X152855666Y-90439951D02*
X152617571Y-90439951D01*
X152617571Y-90439951D02*
X152427095Y-90392332D01*
X152427095Y-90392332D02*
X152331857Y-90344713D01*
X152331857Y-90344713D02*
X152284238Y-90297094D01*
X152284238Y-90297094D02*
X152236619Y-90201856D01*
X153236619Y-88678046D02*
X152569952Y-88678046D01*
X152665190Y-88678046D02*
X152617571Y-88630427D01*
X152617571Y-88630427D02*
X152569952Y-88535189D01*
X152569952Y-88535189D02*
X152569952Y-88392332D01*
X152569952Y-88392332D02*
X152617571Y-88297094D01*
X152617571Y-88297094D02*
X152712809Y-88249475D01*
X152712809Y-88249475D02*
X153236619Y-88249475D01*
X152712809Y-88249475D02*
X152617571Y-88201856D01*
X152617571Y-88201856D02*
X152569952Y-88106618D01*
X152569952Y-88106618D02*
X152569952Y-87963761D01*
X152569952Y-87963761D02*
X152617571Y-87868522D01*
X152617571Y-87868522D02*
X152712809Y-87820903D01*
X152712809Y-87820903D02*
X153236619Y-87820903D01*
X153236619Y-87344713D02*
X152569952Y-87344713D01*
X152665190Y-87344713D02*
X152617571Y-87297094D01*
X152617571Y-87297094D02*
X152569952Y-87201856D01*
X152569952Y-87201856D02*
X152569952Y-87058999D01*
X152569952Y-87058999D02*
X152617571Y-86963761D01*
X152617571Y-86963761D02*
X152712809Y-86916142D01*
X152712809Y-86916142D02*
X153236619Y-86916142D01*
X152712809Y-86916142D02*
X152617571Y-86868523D01*
X152617571Y-86868523D02*
X152569952Y-86773285D01*
X152569952Y-86773285D02*
X152569952Y-86630428D01*
X152569952Y-86630428D02*
X152617571Y-86535189D01*
X152617571Y-86535189D02*
X152712809Y-86487570D01*
X152712809Y-86487570D02*
X153236619Y-86487570D01*
X149852000Y-79248000D02*
X154510420Y-79248000D01*
X149852000Y-102870000D02*
X154510420Y-102870000D01*
X153924000Y-79248000D02*
X153924000Y-102870000D01*
X153924000Y-79248000D02*
X153924000Y-102870000D01*
X153924000Y-79248000D02*
X154510421Y-80374504D01*
X153924000Y-79248000D02*
X153337579Y-80374504D01*
X153924000Y-102870000D02*
X153337579Y-101743496D01*
X153924000Y-102870000D02*
X154510421Y-101743496D01*
M02*
