M48
; DRILL file {KiCad 7.99.0-957-g18dd623122} date 2023 August 18, Friday 16:16:10
; FORMAT={-:-/ absolute / inch / decimal}
; #@! TF.CreationDate,2023-08-18T16:16:10-04:00
; #@! TF.GenerationSoftware,Kicad,Pcbnew,7.99.0-957-g18dd623122
; #@! TF.FileFunction,Plated,1,2,PTH
FMAT,2
INCH
; #@! TA.AperFunction,Plated,PTH,ViaDrill
T1C0.0118
; #@! TA.AperFunction,Plated,PTH,ComponentDrill
T2C0.0394
%
G90
G05
T1
X5.4673Y-4.3
X5.5Y-3.91
X5.5573Y-4.11
X5.6173Y-3.96
X5.6273Y-4.12
X5.6473Y-4.06
X5.6673Y-4.22
X5.6873Y-4.03
X5.7073Y-4.3
X5.7573Y-4.09
X5.7773Y-3.93
X5.7773Y-3.99
X5.7776Y-3.96
X5.7873Y-4.2
X5.7873Y-4.32
X5.7973Y-4.16
X5.8373Y-4.07
X5.8472Y-4.161
X5.8473Y-4.21
X5.9173Y-4.1
X5.9273Y-4.03
X5.9373Y-3.96
X6.0173Y-4.16
X6.0273Y-3.84
X6.0273Y-3.97
X6.0573Y-4.07
X6.0573Y-4.33
X6.0973Y-4.23
X6.1173Y-3.87
X6.1173Y-4.17
T2
X5.4073Y-3.8717
X5.4073Y-3.9717
X5.4073Y-4.0717
X5.4073Y-4.1717
X5.7471Y-3.86
X5.8471Y-3.86
X6.2073Y-3.87
X6.2073Y-3.97
X6.2073Y-4.07
X6.2073Y-4.17
X6.2073Y-4.27
T0
M30
