%TF.GenerationSoftware,KiCad,Pcbnew,7.99.0-957-g18dd623122*%
%TF.CreationDate,2023-08-18T16:16:10-04:00*%
%TF.ProjectId,bmi088,626d6930-3838-42e6-9b69-6361645f7063,V1.0*%
%TF.SameCoordinates,Original*%
%TF.FileFunction,Copper,L1,Top*%
%TF.FilePolarity,Positive*%
%FSLAX46Y46*%
G04 Gerber Fmt 4.6, Leading zero omitted, Abs format (unit mm)*
G04 Created by KiCad (PCBNEW 7.99.0-957-g18dd623122) date 2023-08-18 16:16:10*
%MOMM*%
%LPD*%
G01*
G04 APERTURE LIST*
%TA.AperFunction,ComponentPad*%
%ADD10R,1.700000X1.700000*%
%TD*%
%TA.AperFunction,ComponentPad*%
%ADD11O,1.700000X1.700000*%
%TD*%
%TA.AperFunction,SMDPad,CuDef*%
%ADD12R,1.000000X1.500000*%
%TD*%
%TA.AperFunction,SMDPad,CuDef*%
%ADD13R,0.350000X0.590000*%
%TD*%
%TA.AperFunction,SMDPad,CuDef*%
%ADD14R,0.590000X0.350000*%
%TD*%
%TA.AperFunction,ViaPad*%
%ADD15C,0.500000*%
%TD*%
%TA.AperFunction,Conductor*%
%ADD16C,0.300000*%
%TD*%
%TA.AperFunction,Conductor*%
%ADD17C,0.150000*%
%TD*%
%TA.AperFunction,Conductor*%
%ADD18C,0.250000*%
%TD*%
G04 APERTURE END LIST*
D10*
%TO.P,J3,1,Pin_1*%
%TO.N,+3.3V*%
X145976500Y-98044000D03*
D11*
%TO.P,J3,2,Pin_2*%
%TO.N,GND*%
X148516500Y-98044000D03*
%TD*%
D12*
%TO.P,JP2,1,A*%
%TO.N,GND*%
X151285500Y-108712000D03*
%TO.P,JP2,2,B*%
%TO.N,/CSB1*%
X152585500Y-108712000D03*
%TD*%
%TO.P,JP3,1,A*%
%TO.N,/ADDR{slash}MISO*%
X141999500Y-108712000D03*
%TO.P,JP3,2,B*%
%TO.N,GND*%
X143299500Y-108712000D03*
%TD*%
%TO.P,JP1,1,A*%
%TO.N,+3.3V*%
X146713501Y-108712000D03*
%TO.P,JP1,2,B*%
%TO.N,/CSB1*%
X148013499Y-108712000D03*
%TD*%
D13*
%TO.P,U1,1,INT2*%
%TO.N,/INT2*%
X145751500Y-102467000D03*
%TO.P,U1,2,NC*%
%TO.N,unconnected-(U1-NC-Pad2)*%
X146251500Y-102467000D03*
%TO.P,U1,3,VDD*%
%TO.N,+3.3V*%
X146751500Y-102467000D03*
%TO.P,U1,4,GNDA*%
%TO.N,GND*%
X147251500Y-102467001D03*
%TO.P,U1,5,CSB2*%
%TO.N,/CSB2*%
X147751500Y-102467000D03*
%TO.P,U1,6,GNDIO*%
%TO.N,GND*%
X148251500Y-102467000D03*
%TO.P,U1,7,PS*%
%TO.N,/CSB1*%
X148751500Y-102467000D03*
D14*
%TO.P,U1,8,SCL/SCK*%
%TO.N,/SCL{slash}SCK*%
X149166499Y-103632000D03*
D13*
%TO.P,U1,9,SDA/SDI*%
%TO.N,/SDA{slash}SDI*%
X148751500Y-104797000D03*
%TO.P,U1,10,SDO2*%
%TO.N,/ADDR{slash}MISO*%
X148251500Y-104797000D03*
%TO.P,U1,11,VDDIO*%
%TO.N,+3.3V*%
X147751500Y-104797000D03*
%TO.P,U1,12,INT3*%
%TO.N,/INT3*%
X147251500Y-104796999D03*
%TO.P,U1,13,INT4*%
%TO.N,/INT4*%
X146751500Y-104797000D03*
%TO.P,U1,14,CSB1*%
%TO.N,/CSB1*%
X146251500Y-104797000D03*
%TO.P,U1,15,SDO1*%
%TO.N,/ADDR{slash}MISO*%
X145751500Y-104797000D03*
D14*
%TO.P,U1,16,INT1*%
%TO.N,/INT1*%
X145336501Y-103632000D03*
%TD*%
D10*
%TO.P,J1,1,Pin_1*%
%TO.N,/INT1*%
X137345500Y-98340000D03*
D11*
%TO.P,J1,2,Pin_2*%
%TO.N,/INT2*%
X137345500Y-100880000D03*
%TO.P,J1,3,Pin_3*%
%TO.N,/INT3*%
X137345500Y-103420000D03*
%TO.P,J1,4,Pin_4*%
%TO.N,/INT4*%
X137345500Y-105960000D03*
%TD*%
D10*
%TO.P,J2,1,Pin_1*%
%TO.N,/CSB1*%
X157665500Y-108458000D03*
D11*
%TO.P,J2,2,Pin_2*%
%TO.N,/CSB2*%
X157665500Y-105918000D03*
%TO.P,J2,3,Pin_3*%
%TO.N,/SCL{slash}SCK*%
X157665500Y-103378001D03*
%TO.P,J2,4,Pin_4*%
%TO.N,/SDA{slash}SDI*%
X157665500Y-100838000D03*
%TO.P,J2,5,Pin_5*%
%TO.N,/ADDR{slash}MISO*%
X157665500Y-98298000D03*
%TD*%
D15*
%TO.N,GND*%
X142679500Y-100584000D03*
X138869500Y-109220000D03*
X144965500Y-109220000D03*
X153093500Y-97536000D03*
X150299500Y-104140000D03*
X139700000Y-99314000D03*
X150807500Y-100584000D03*
X153855500Y-109982000D03*
X150553500Y-102362000D03*
X154871500Y-107442000D03*
X155379500Y-98298000D03*
X152839500Y-105664000D03*
X141155500Y-104394000D03*
X155379500Y-105918000D03*
X153093500Y-100838000D03*
X142933500Y-104648000D03*
X143441500Y-103124000D03*
%TO.N,+3.3V*%
X146997500Y-109728000D03*
X146751500Y-100584000D03*
X146743500Y-101346000D03*
X146743500Y-99822000D03*
X148521500Y-106934000D03*
%TO.N,/INT2*%
X144457500Y-102362000D03*
%TO.N,/INT3*%
X147251500Y-105664000D03*
%TO.N,/INT4*%
X146997500Y-106680000D03*
%TO.N,/CSB1*%
X148267500Y-103378000D03*
X146235500Y-103886000D03*
%TO.N,/SCL{slash}SCK*%
X153855500Y-103378000D03*
%TO.N,/ADDR{slash}MISO*%
X143949500Y-107188000D03*
X148519120Y-105688749D03*
%TD*%
D16*
%TO.N,+3.3V*%
X146751500Y-99814000D02*
X146751500Y-98819000D01*
X146751500Y-102467000D02*
X146751500Y-103307999D01*
X146751500Y-98819000D02*
X145976500Y-98044000D01*
X146751500Y-99830000D02*
X146743500Y-99822000D01*
D17*
X147751500Y-106164000D02*
X147751500Y-104797000D01*
D16*
X146751500Y-100584000D02*
X146751500Y-99830000D01*
D17*
X146713501Y-109444001D02*
X146997500Y-109728000D01*
D16*
X146751500Y-102467000D02*
X146751500Y-101354000D01*
X147751500Y-104307999D02*
X147751500Y-104797000D01*
X146743500Y-101346000D02*
X146751500Y-101338000D01*
D17*
X148521500Y-106934000D02*
X147751500Y-106164000D01*
D16*
X146751500Y-101354000D02*
X146743500Y-101346000D01*
X146751500Y-101338000D02*
X146751500Y-100584000D01*
X146751500Y-103307999D02*
X147751500Y-104307999D01*
D17*
X146713501Y-108712000D02*
X146713501Y-109444001D01*
D16*
X146743500Y-99822000D02*
X146751500Y-99814000D01*
D17*
%TO.N,/INT1*%
X145336501Y-103632000D02*
X142637500Y-103632000D01*
X142637500Y-103632000D02*
X137345500Y-98340000D01*
%TO.N,/INT2*%
X145751500Y-102467000D02*
X144562500Y-102467000D01*
X144562500Y-102467000D02*
X144457500Y-102362000D01*
%TO.N,/INT3*%
X147251500Y-104796999D02*
X147251500Y-105664000D01*
%TO.N,/INT4*%
X146577000Y-105384612D02*
X146751500Y-105210112D01*
X146997500Y-106680000D02*
X146577000Y-106259500D01*
X146577000Y-106259500D02*
X146577000Y-105384612D01*
X146751500Y-105210112D02*
X146751500Y-104797000D01*
%TO.N,/CSB1*%
X146251500Y-104797000D02*
X146251500Y-103902000D01*
X146251500Y-104797000D02*
X146227500Y-104821000D01*
X146227500Y-104821000D02*
X146227500Y-106863888D01*
X152585500Y-109612000D02*
X152585500Y-108712000D01*
X148013499Y-108712000D02*
X148013499Y-109219999D01*
X152585500Y-108712000D02*
X157411500Y-108712000D01*
X148751500Y-102467000D02*
X148751500Y-102894000D01*
X146251500Y-103902000D02*
X146235500Y-103886000D01*
X146227500Y-106863888D02*
X146718112Y-107354500D01*
X148013499Y-107949999D02*
X148013499Y-108712000D01*
X146718112Y-107354500D02*
X147418000Y-107354500D01*
X148775500Y-109982000D02*
X152215500Y-109982000D01*
D18*
X157411500Y-108712000D02*
X157665500Y-108458000D01*
D17*
X152215500Y-109982000D02*
X152585500Y-109612000D01*
X148013499Y-109219999D02*
X148775500Y-109982000D01*
X148751500Y-102894000D02*
X148267500Y-103378000D01*
X147418000Y-107354500D02*
X148013499Y-107949999D01*
%TO.N,/CSB2*%
X158935500Y-100330000D02*
X158935500Y-104648000D01*
X147751500Y-102022000D02*
X150205500Y-99568000D01*
X158173500Y-99568000D02*
X158935500Y-100330000D01*
X147751500Y-102467000D02*
X147751500Y-102022000D01*
X150205500Y-99568000D02*
X158173500Y-99568000D01*
X158935500Y-104648000D02*
X157665500Y-105918000D01*
%TO.N,/SCL{slash}SCK*%
X153601500Y-103632000D02*
X149166499Y-103632000D01*
X153855500Y-103378000D02*
X153601500Y-103632000D01*
%TO.N,/SDA{slash}SDI*%
X153706500Y-104797000D02*
X157665500Y-100838000D01*
X148751500Y-104797000D02*
X153706500Y-104797000D01*
%TO.N,/ADDR{slash}MISO*%
X141999500Y-107812000D02*
X141999500Y-108712000D01*
X148251500Y-104797000D02*
X148251500Y-105421129D01*
X145751500Y-104797000D02*
X145014500Y-104797000D01*
X142679500Y-107188000D02*
X142651500Y-107160000D01*
X143949500Y-107188000D02*
X142679500Y-107188000D01*
X145014500Y-104797000D02*
X142651500Y-107160000D01*
X142651500Y-107160000D02*
X141999500Y-107812000D01*
X148251500Y-105421129D02*
X148519120Y-105688749D01*
%TD*%
%TA.AperFunction,Conductor*%
%TO.N,GND*%
G36*
X158914705Y-96266500D02*
G01*
X158934296Y-96266500D01*
X158936698Y-96266618D01*
X158970810Y-96269977D01*
X159088046Y-96283187D01*
X159096766Y-96284986D01*
X159156055Y-96302971D01*
X159157021Y-96303286D01*
X159241098Y-96332707D01*
X159247991Y-96335732D01*
X159307593Y-96367590D01*
X159309030Y-96368424D01*
X159361343Y-96401295D01*
X159381762Y-96414125D01*
X159384271Y-96415932D01*
X159439191Y-96461002D01*
X159440963Y-96462608D01*
X159500889Y-96522534D01*
X159502496Y-96524307D01*
X159547566Y-96579227D01*
X159549373Y-96581736D01*
X159595063Y-96654450D01*
X159595919Y-96655924D01*
X159601744Y-96666821D01*
X159627759Y-96715492D01*
X159630794Y-96722406D01*
X159660209Y-96806470D01*
X159660529Y-96807450D01*
X159678510Y-96866723D01*
X159680312Y-96875461D01*
X159693526Y-96992742D01*
X159696882Y-97026801D01*
X159697000Y-97029205D01*
X159697000Y-109726794D01*
X159696882Y-109729198D01*
X159693526Y-109763256D01*
X159680312Y-109880537D01*
X159678510Y-109889275D01*
X159660529Y-109948548D01*
X159660209Y-109949528D01*
X159630794Y-110033592D01*
X159627759Y-110040506D01*
X159595926Y-110100062D01*
X159595063Y-110101548D01*
X159549373Y-110174262D01*
X159547566Y-110176771D01*
X159502496Y-110231691D01*
X159500880Y-110233474D01*
X159440974Y-110293380D01*
X159439191Y-110294996D01*
X159384271Y-110340066D01*
X159381762Y-110341873D01*
X159309048Y-110387563D01*
X159307562Y-110388426D01*
X159248006Y-110420259D01*
X159241092Y-110423294D01*
X159157028Y-110452709D01*
X159156048Y-110453029D01*
X159096775Y-110471010D01*
X159088037Y-110472812D01*
X158970756Y-110486026D01*
X158938557Y-110489198D01*
X158936697Y-110489382D01*
X158934295Y-110489500D01*
X135822705Y-110489500D01*
X135820302Y-110489382D01*
X135818194Y-110489174D01*
X135786242Y-110486026D01*
X135668961Y-110472812D01*
X135660223Y-110471010D01*
X135600950Y-110453029D01*
X135599970Y-110452709D01*
X135515906Y-110423294D01*
X135508996Y-110420260D01*
X135449424Y-110388419D01*
X135447950Y-110387563D01*
X135375236Y-110341873D01*
X135372727Y-110340066D01*
X135317807Y-110294996D01*
X135316034Y-110293389D01*
X135256108Y-110233463D01*
X135254502Y-110231691D01*
X135209432Y-110176771D01*
X135207625Y-110174262D01*
X135182565Y-110134380D01*
X135161924Y-110101530D01*
X135161090Y-110100093D01*
X135129232Y-110040491D01*
X135126207Y-110033598D01*
X135096786Y-109949521D01*
X135096469Y-109948548D01*
X135094644Y-109942531D01*
X135078486Y-109889266D01*
X135076687Y-109880546D01*
X135063472Y-109763256D01*
X135060118Y-109729198D01*
X135060000Y-109726796D01*
X135060000Y-109472884D01*
X141389000Y-109472884D01*
X141395104Y-109503572D01*
X141395411Y-109505115D01*
X141419833Y-109541666D01*
X141444256Y-109557984D01*
X141456385Y-109566089D01*
X141488616Y-109572500D01*
X141488619Y-109572500D01*
X142510381Y-109572500D01*
X142510384Y-109572500D01*
X142542615Y-109566089D01*
X142579166Y-109541666D01*
X142603589Y-109505115D01*
X142610000Y-109472884D01*
X142610000Y-107951116D01*
X142603589Y-107918885D01*
X142595484Y-107906756D01*
X142579166Y-107882333D01*
X142542615Y-107857911D01*
X142510384Y-107851500D01*
X142510381Y-107851500D01*
X142340632Y-107851500D01*
X142305984Y-107837148D01*
X142291632Y-107802500D01*
X142305984Y-107767852D01*
X142685983Y-107387852D01*
X142720631Y-107373500D01*
X143609391Y-107373500D01*
X143644039Y-107387852D01*
X143653047Y-107400249D01*
X143654214Y-107402538D01*
X143654217Y-107402541D01*
X143734961Y-107483285D01*
X143734968Y-107483290D01*
X143836706Y-107535128D01*
X143836707Y-107535128D01*
X143836711Y-107535130D01*
X143949500Y-107552994D01*
X144062289Y-107535130D01*
X144062293Y-107535128D01*
X144062294Y-107535128D01*
X144164031Y-107483290D01*
X144164033Y-107483288D01*
X144164038Y-107483286D01*
X144244786Y-107402538D01*
X144244790Y-107402531D01*
X144296628Y-107300794D01*
X144296628Y-107300792D01*
X144296630Y-107300789D01*
X144314494Y-107188000D01*
X144296630Y-107075211D01*
X144296628Y-107075207D01*
X144296628Y-107075205D01*
X144244790Y-106973468D01*
X144244786Y-106973463D01*
X144244786Y-106973462D01*
X144164038Y-106892714D01*
X144164031Y-106892709D01*
X144062293Y-106840871D01*
X144062290Y-106840870D01*
X144062289Y-106840870D01*
X143949500Y-106823006D01*
X143836711Y-106840870D01*
X143836709Y-106840870D01*
X143836707Y-106840871D01*
X143836705Y-106840871D01*
X143734968Y-106892709D01*
X143734961Y-106892714D01*
X143654217Y-106973458D01*
X143654213Y-106973463D01*
X143653049Y-106975749D01*
X143624530Y-107000103D01*
X143609391Y-107002500D01*
X143189632Y-107002500D01*
X143154984Y-106988148D01*
X143140632Y-106953500D01*
X143154984Y-106918852D01*
X144089798Y-105984039D01*
X145076984Y-104996852D01*
X145111633Y-104982500D01*
X145417000Y-104982500D01*
X145451648Y-104996852D01*
X145466000Y-105031500D01*
X145466000Y-105102884D01*
X145472411Y-105135114D01*
X145472411Y-105135115D01*
X145496833Y-105171666D01*
X145515282Y-105183993D01*
X145533385Y-105196089D01*
X145565616Y-105202500D01*
X145565619Y-105202500D01*
X145937381Y-105202500D01*
X145937384Y-105202500D01*
X145969615Y-105196089D01*
X145969617Y-105196087D01*
X145974074Y-105194242D01*
X145975140Y-105196817D01*
X146002419Y-105191309D01*
X146033662Y-105212053D01*
X146042000Y-105239395D01*
X146042000Y-106824047D01*
X146039251Y-106840228D01*
X146038427Y-106842582D01*
X146038427Y-106842583D01*
X146038427Y-106842584D01*
X146040656Y-106862371D01*
X146041846Y-106872927D01*
X146042000Y-106875672D01*
X146042000Y-106884786D01*
X146044027Y-106893674D01*
X146044487Y-106896381D01*
X146047907Y-106926727D01*
X146047907Y-106926728D01*
X146047908Y-106926730D01*
X146047909Y-106926731D01*
X146049236Y-106928844D01*
X146055515Y-106944001D01*
X146056072Y-106946440D01*
X146056073Y-106946444D01*
X146075120Y-106970328D01*
X146076710Y-106972569D01*
X146081557Y-106980282D01*
X146087991Y-106986716D01*
X146089823Y-106988765D01*
X146098865Y-107000103D01*
X146108869Y-107012647D01*
X146111115Y-107013728D01*
X146124505Y-107023229D01*
X146558770Y-107457494D01*
X146568269Y-107470881D01*
X146569352Y-107473129D01*
X146569352Y-107473130D01*
X146593234Y-107492175D01*
X146595284Y-107494008D01*
X146601721Y-107500445D01*
X146609429Y-107505288D01*
X146611672Y-107506879D01*
X146635557Y-107525927D01*
X146635558Y-107525927D01*
X146635560Y-107525928D01*
X146637992Y-107526483D01*
X146653159Y-107532765D01*
X146655270Y-107534092D01*
X146685624Y-107537511D01*
X146688318Y-107537969D01*
X146693373Y-107539123D01*
X146697212Y-107540000D01*
X146697214Y-107540000D01*
X146706328Y-107540000D01*
X146709070Y-107540153D01*
X146739416Y-107543573D01*
X146741767Y-107542750D01*
X146757953Y-107540000D01*
X147320868Y-107540000D01*
X147355516Y-107554352D01*
X147569015Y-107767852D01*
X147583367Y-107802500D01*
X147569015Y-107837148D01*
X147534367Y-107851500D01*
X147502615Y-107851500D01*
X147478441Y-107856308D01*
X147470383Y-107857911D01*
X147433832Y-107882333D01*
X147409410Y-107918885D01*
X147408769Y-107920433D01*
X147407585Y-107921616D01*
X147406729Y-107922898D01*
X147406473Y-107922727D01*
X147382248Y-107946949D01*
X147344745Y-107946947D01*
X147320525Y-107922727D01*
X147320271Y-107922898D01*
X147319415Y-107921617D01*
X147318231Y-107920433D01*
X147317590Y-107918889D01*
X147317590Y-107918885D01*
X147302949Y-107896973D01*
X147293167Y-107882333D01*
X147256616Y-107857911D01*
X147256615Y-107857910D01*
X147224385Y-107851500D01*
X146202617Y-107851500D01*
X146178443Y-107856308D01*
X146170385Y-107857911D01*
X146133834Y-107882333D01*
X146109412Y-107918884D01*
X146108648Y-107922727D01*
X146103001Y-107951116D01*
X146103001Y-109472884D01*
X146109105Y-109503572D01*
X146109412Y-109505115D01*
X146133834Y-109541666D01*
X146158256Y-109557984D01*
X146170386Y-109566089D01*
X146202617Y-109572500D01*
X146555116Y-109572500D01*
X146589764Y-109586852D01*
X146593425Y-109590949D01*
X146594866Y-109592756D01*
X146594868Y-109592757D01*
X146594870Y-109592760D01*
X146597118Y-109593842D01*
X146610506Y-109603342D01*
X146628887Y-109621723D01*
X146643239Y-109656371D01*
X146642636Y-109664035D01*
X146632697Y-109726794D01*
X146632506Y-109728000D01*
X146650370Y-109840789D01*
X146650370Y-109840790D01*
X146650371Y-109840792D01*
X146650371Y-109840794D01*
X146702209Y-109942531D01*
X146702214Y-109942538D01*
X146782961Y-110023285D01*
X146782968Y-110023290D01*
X146884706Y-110075128D01*
X146884707Y-110075128D01*
X146884711Y-110075130D01*
X146997500Y-110092994D01*
X147110289Y-110075130D01*
X147110293Y-110075128D01*
X147110294Y-110075128D01*
X147212031Y-110023290D01*
X147212033Y-110023288D01*
X147212038Y-110023286D01*
X147292786Y-109942538D01*
X147292790Y-109942531D01*
X147344628Y-109840794D01*
X147344628Y-109840792D01*
X147344630Y-109840789D01*
X147362494Y-109728000D01*
X147344630Y-109615211D01*
X147314143Y-109555377D01*
X147311200Y-109517989D01*
X147317062Y-109505906D01*
X147317300Y-109505547D01*
X147317590Y-109505115D01*
X147317591Y-109505109D01*
X147318229Y-109503572D01*
X147319413Y-109502387D01*
X147320273Y-109501101D01*
X147320528Y-109501271D01*
X147344746Y-109477052D01*
X147382249Y-109477050D01*
X147406474Y-109501272D01*
X147406729Y-109501102D01*
X147407585Y-109502383D01*
X147408769Y-109503567D01*
X147408770Y-109503569D01*
X147409410Y-109505115D01*
X147433832Y-109541666D01*
X147458255Y-109557984D01*
X147470384Y-109566089D01*
X147502615Y-109572500D01*
X148083368Y-109572500D01*
X148118016Y-109586852D01*
X148616158Y-110084994D01*
X148625657Y-110098381D01*
X148626740Y-110100629D01*
X148626740Y-110100630D01*
X148626741Y-110100631D01*
X148627868Y-110101530D01*
X148650622Y-110119675D01*
X148652672Y-110121508D01*
X148659109Y-110127945D01*
X148659111Y-110127946D01*
X148666817Y-110132788D01*
X148669060Y-110134379D01*
X148692945Y-110153427D01*
X148692946Y-110153427D01*
X148692948Y-110153428D01*
X148695380Y-110153983D01*
X148710547Y-110160265D01*
X148712658Y-110161592D01*
X148743012Y-110165011D01*
X148745706Y-110165469D01*
X148750761Y-110166623D01*
X148754600Y-110167500D01*
X148754602Y-110167500D01*
X148763716Y-110167500D01*
X148766458Y-110167653D01*
X148796804Y-110171073D01*
X148799155Y-110170250D01*
X148815341Y-110167500D01*
X152175659Y-110167500D01*
X152191840Y-110170249D01*
X152192621Y-110170522D01*
X152194196Y-110171073D01*
X152224541Y-110167653D01*
X152227284Y-110167500D01*
X152236395Y-110167500D01*
X152236398Y-110167500D01*
X152245289Y-110165469D01*
X152247986Y-110165011D01*
X152278342Y-110161592D01*
X152280452Y-110160265D01*
X152295618Y-110153982D01*
X152298055Y-110153427D01*
X152321958Y-110134363D01*
X152324172Y-110132794D01*
X152331891Y-110127945D01*
X152338342Y-110121492D01*
X152340377Y-110119675D01*
X152364259Y-110100631D01*
X152365341Y-110098383D01*
X152374838Y-110084996D01*
X152688496Y-109771338D01*
X152701883Y-109761841D01*
X152704131Y-109760759D01*
X152723177Y-109736873D01*
X152724992Y-109734842D01*
X152731445Y-109728391D01*
X152736294Y-109720672D01*
X152737863Y-109718458D01*
X152756927Y-109694555D01*
X152757482Y-109692118D01*
X152763765Y-109676952D01*
X152765092Y-109674842D01*
X152768511Y-109644486D01*
X152768971Y-109641783D01*
X152771000Y-109632898D01*
X152771000Y-109623785D01*
X152771154Y-109621042D01*
X152771720Y-109616017D01*
X152789858Y-109583192D01*
X152820412Y-109572500D01*
X153096381Y-109572500D01*
X153096384Y-109572500D01*
X153128615Y-109566089D01*
X153165166Y-109541666D01*
X153189589Y-109505115D01*
X153196000Y-109472884D01*
X153196000Y-108946500D01*
X153210352Y-108911852D01*
X153245000Y-108897500D01*
X156656000Y-108897500D01*
X156690648Y-108911852D01*
X156705000Y-108946500D01*
X156705000Y-109318884D01*
X156711411Y-109351114D01*
X156711411Y-109351115D01*
X156735833Y-109387666D01*
X156760256Y-109403984D01*
X156772385Y-109412089D01*
X156804616Y-109418500D01*
X156804619Y-109418500D01*
X158526381Y-109418500D01*
X158526384Y-109418500D01*
X158558615Y-109412089D01*
X158595166Y-109387666D01*
X158619589Y-109351115D01*
X158626000Y-109318884D01*
X158626000Y-107597116D01*
X158619589Y-107564885D01*
X158602961Y-107540000D01*
X158595166Y-107528333D01*
X158558615Y-107503911D01*
X158526384Y-107497500D01*
X156804616Y-107497500D01*
X156780442Y-107502308D01*
X156772384Y-107503911D01*
X156735833Y-107528333D01*
X156711411Y-107564884D01*
X156711410Y-107564885D01*
X156711411Y-107564885D01*
X156705000Y-107597116D01*
X156705000Y-107597119D01*
X156705000Y-108477500D01*
X156690648Y-108512148D01*
X156656000Y-108526500D01*
X153245000Y-108526500D01*
X153210352Y-108512148D01*
X153196000Y-108477500D01*
X153196000Y-107951119D01*
X153196000Y-107951116D01*
X153189589Y-107918885D01*
X153181484Y-107906756D01*
X153165166Y-107882333D01*
X153128615Y-107857911D01*
X153096384Y-107851500D01*
X152074616Y-107851500D01*
X152050442Y-107856308D01*
X152042384Y-107857911D01*
X152005833Y-107882333D01*
X151981411Y-107918884D01*
X151980647Y-107922727D01*
X151975000Y-107951116D01*
X151975000Y-109472884D01*
X151981104Y-109503572D01*
X151981411Y-109505115D01*
X152005833Y-109541666D01*
X152030256Y-109557984D01*
X152042385Y-109566089D01*
X152074616Y-109572500D01*
X152244368Y-109572500D01*
X152279016Y-109586852D01*
X152293368Y-109621500D01*
X152279016Y-109656148D01*
X152153016Y-109782148D01*
X152118368Y-109796500D01*
X148872632Y-109796500D01*
X148837984Y-109782148D01*
X148623337Y-109567501D01*
X148608985Y-109532853D01*
X148616014Y-109509687D01*
X148615741Y-109509574D01*
X148616893Y-109506792D01*
X148617247Y-109505624D01*
X148617588Y-109505115D01*
X148623999Y-109472884D01*
X148623999Y-107951116D01*
X148617588Y-107918885D01*
X148609483Y-107906756D01*
X148593165Y-107882333D01*
X148556614Y-107857911D01*
X148524383Y-107851500D01*
X148524380Y-107851500D01*
X148197310Y-107851500D01*
X148162662Y-107837148D01*
X148159947Y-107834110D01*
X148153003Y-107827166D01*
X148151170Y-107825116D01*
X148132129Y-107801239D01*
X148129880Y-107800156D01*
X148116495Y-107790658D01*
X147577341Y-107251505D01*
X147567840Y-107238115D01*
X147566759Y-107235869D01*
X147566758Y-107235868D01*
X147542877Y-107216823D01*
X147540828Y-107214991D01*
X147534394Y-107208557D01*
X147526681Y-107203710D01*
X147524440Y-107202120D01*
X147500556Y-107183073D01*
X147500552Y-107183072D01*
X147498113Y-107182515D01*
X147482956Y-107176236D01*
X147482087Y-107175690D01*
X147480842Y-107174908D01*
X147480840Y-107174907D01*
X147480839Y-107174907D01*
X147450493Y-107171487D01*
X147447786Y-107171027D01*
X147438899Y-107169000D01*
X147438898Y-107169000D01*
X147429784Y-107169000D01*
X147427041Y-107168846D01*
X147396696Y-107165427D01*
X147396695Y-107165427D01*
X147396694Y-107165427D01*
X147394340Y-107166251D01*
X147378159Y-107169000D01*
X146815244Y-107169000D01*
X146780596Y-107154648D01*
X146427352Y-106801403D01*
X146413000Y-106766755D01*
X146413000Y-106476132D01*
X146427352Y-106441484D01*
X146462000Y-106427132D01*
X146496648Y-106441484D01*
X146628887Y-106573723D01*
X146643239Y-106608371D01*
X146642636Y-106616035D01*
X146638451Y-106642461D01*
X146632506Y-106680000D01*
X146650370Y-106792789D01*
X146650370Y-106792790D01*
X146650371Y-106792792D01*
X146650371Y-106792794D01*
X146702209Y-106894531D01*
X146702214Y-106894538D01*
X146782961Y-106975285D01*
X146782968Y-106975290D01*
X146884706Y-107027128D01*
X146884707Y-107027128D01*
X146884711Y-107027130D01*
X146997500Y-107044994D01*
X147110289Y-107027130D01*
X147110293Y-107027128D01*
X147110294Y-107027128D01*
X147212031Y-106975290D01*
X147212033Y-106975288D01*
X147212038Y-106975286D01*
X147292786Y-106894538D01*
X147292790Y-106894531D01*
X147344628Y-106792794D01*
X147344628Y-106792792D01*
X147344630Y-106792789D01*
X147362494Y-106680000D01*
X147344630Y-106567211D01*
X147344628Y-106567207D01*
X147344628Y-106567205D01*
X147292790Y-106465468D01*
X147292785Y-106465461D01*
X147212038Y-106384714D01*
X147212031Y-106384709D01*
X147110293Y-106332871D01*
X147110290Y-106332870D01*
X147110289Y-106332870D01*
X146997500Y-106315006D01*
X146997499Y-106315006D01*
X146933535Y-106325136D01*
X146897069Y-106316380D01*
X146891223Y-106311387D01*
X146776852Y-106197015D01*
X146762500Y-106162367D01*
X146762500Y-105481743D01*
X146776851Y-105447096D01*
X146854496Y-105369450D01*
X146867883Y-105359953D01*
X146870131Y-105358871D01*
X146889177Y-105334985D01*
X146890992Y-105332954D01*
X146897445Y-105326503D01*
X146902294Y-105318784D01*
X146903863Y-105316570D01*
X146922927Y-105292667D01*
X146923482Y-105290230D01*
X146929765Y-105275064D01*
X146931092Y-105272954D01*
X146934511Y-105242601D01*
X146934971Y-105239896D01*
X146936764Y-105232039D01*
X146958467Y-105201456D01*
X146965785Y-105197675D01*
X146969612Y-105196089D01*
X146969615Y-105196089D01*
X146974273Y-105192975D01*
X147011055Y-105185656D01*
X147028721Y-105192972D01*
X147030622Y-105194242D01*
X147033385Y-105196088D01*
X147033387Y-105196088D01*
X147035751Y-105197068D01*
X147062270Y-105223586D01*
X147066000Y-105242338D01*
X147066000Y-105323891D01*
X147051648Y-105358539D01*
X147039250Y-105367547D01*
X147038352Y-105368005D01*
X147036963Y-105368713D01*
X147036958Y-105368717D01*
X146956214Y-105449461D01*
X146956209Y-105449468D01*
X146904371Y-105551205D01*
X146904371Y-105551207D01*
X146904370Y-105551209D01*
X146904370Y-105551211D01*
X146886506Y-105664000D01*
X146904370Y-105776789D01*
X146904370Y-105776790D01*
X146904371Y-105776792D01*
X146904371Y-105776794D01*
X146956209Y-105878531D01*
X146956214Y-105878538D01*
X147036961Y-105959285D01*
X147036968Y-105959290D01*
X147138706Y-106011128D01*
X147138707Y-106011128D01*
X147138711Y-106011130D01*
X147251500Y-106028994D01*
X147364289Y-106011130D01*
X147364293Y-106011128D01*
X147364294Y-106011128D01*
X147466031Y-105959290D01*
X147466033Y-105959288D01*
X147466038Y-105959286D01*
X147482352Y-105942972D01*
X147517000Y-105928620D01*
X147551648Y-105942972D01*
X147566000Y-105977620D01*
X147566000Y-106124159D01*
X147563251Y-106140340D01*
X147562427Y-106142694D01*
X147562427Y-106142695D01*
X147562427Y-106142696D01*
X147564643Y-106162367D01*
X147565846Y-106173039D01*
X147566000Y-106175784D01*
X147566000Y-106184898D01*
X147568027Y-106193786D01*
X147568487Y-106196493D01*
X147571907Y-106226839D01*
X147571907Y-106226840D01*
X147571908Y-106226842D01*
X147571909Y-106226843D01*
X147573236Y-106228956D01*
X147579515Y-106244113D01*
X147580072Y-106246552D01*
X147580073Y-106246556D01*
X147599120Y-106270440D01*
X147600710Y-106272681D01*
X147605557Y-106280394D01*
X147611991Y-106286828D01*
X147613823Y-106288877D01*
X147631775Y-106311387D01*
X147632869Y-106312759D01*
X147635115Y-106313840D01*
X147648505Y-106323341D01*
X148152887Y-106827723D01*
X148167239Y-106862371D01*
X148166636Y-106870035D01*
X148156506Y-106933999D01*
X148156506Y-106934000D01*
X148174370Y-107046789D01*
X148174370Y-107046790D01*
X148174371Y-107046792D01*
X148174371Y-107046794D01*
X148226209Y-107148531D01*
X148226214Y-107148538D01*
X148306961Y-107229285D01*
X148306968Y-107229290D01*
X148408706Y-107281128D01*
X148408707Y-107281128D01*
X148408711Y-107281130D01*
X148521500Y-107298994D01*
X148634289Y-107281130D01*
X148634293Y-107281128D01*
X148634294Y-107281128D01*
X148736031Y-107229290D01*
X148736033Y-107229288D01*
X148736038Y-107229286D01*
X148816786Y-107148538D01*
X148816790Y-107148531D01*
X148868628Y-107046794D01*
X148868628Y-107046792D01*
X148868630Y-107046789D01*
X148886494Y-106934000D01*
X148868630Y-106821211D01*
X148868628Y-106821207D01*
X148868628Y-106821205D01*
X148816790Y-106719468D01*
X148816785Y-106719461D01*
X148736038Y-106638714D01*
X148736031Y-106638709D01*
X148634293Y-106586871D01*
X148634290Y-106586870D01*
X148634289Y-106586870D01*
X148521500Y-106569006D01*
X148521499Y-106569006D01*
X148457535Y-106579136D01*
X148421069Y-106570380D01*
X148415223Y-106565387D01*
X147951352Y-106101515D01*
X147937000Y-106066867D01*
X147937000Y-105242339D01*
X147951352Y-105207691D01*
X147967251Y-105197068D01*
X147969610Y-105196089D01*
X147969615Y-105196089D01*
X147974273Y-105192975D01*
X148011055Y-105185656D01*
X148028725Y-105192975D01*
X148033385Y-105196089D01*
X148033387Y-105196089D01*
X148035749Y-105197068D01*
X148062269Y-105223585D01*
X148066000Y-105242339D01*
X148066000Y-105381288D01*
X148063251Y-105397469D01*
X148062427Y-105399823D01*
X148062427Y-105399824D01*
X148065846Y-105430168D01*
X148066000Y-105432913D01*
X148066000Y-105442027D01*
X148068027Y-105450915D01*
X148068487Y-105453622D01*
X148071907Y-105483968D01*
X148071907Y-105483969D01*
X148071908Y-105483971D01*
X148071909Y-105483972D01*
X148073236Y-105486085D01*
X148079515Y-105501242D01*
X148080072Y-105503681D01*
X148080073Y-105503685D01*
X148099120Y-105527569D01*
X148100710Y-105529810D01*
X148105557Y-105537523D01*
X148111991Y-105543957D01*
X148113823Y-105546006D01*
X148132868Y-105569887D01*
X148132869Y-105569888D01*
X148135115Y-105570969D01*
X148148505Y-105580470D01*
X148150507Y-105582472D01*
X148164859Y-105617120D01*
X148164256Y-105624784D01*
X148154126Y-105688748D01*
X148154126Y-105688749D01*
X148171990Y-105801538D01*
X148171990Y-105801539D01*
X148171991Y-105801541D01*
X148171991Y-105801543D01*
X148223829Y-105903280D01*
X148223834Y-105903287D01*
X148304581Y-105984034D01*
X148304588Y-105984039D01*
X148406326Y-106035877D01*
X148406327Y-106035877D01*
X148406331Y-106035879D01*
X148519120Y-106053743D01*
X148631909Y-106035879D01*
X148631913Y-106035877D01*
X148631914Y-106035877D01*
X148733651Y-105984039D01*
X148733653Y-105984037D01*
X148733658Y-105984035D01*
X148814406Y-105903287D01*
X148814410Y-105903280D01*
X148866248Y-105801543D01*
X148866248Y-105801541D01*
X148866250Y-105801538D01*
X148884114Y-105688749D01*
X148866250Y-105575960D01*
X148866248Y-105575956D01*
X148866248Y-105575954D01*
X148814410Y-105474217D01*
X148814405Y-105474210D01*
X148733658Y-105393463D01*
X148733651Y-105393458D01*
X148631913Y-105341620D01*
X148631910Y-105341619D01*
X148631909Y-105341619D01*
X148519120Y-105323755D01*
X148519119Y-105323755D01*
X148493664Y-105327786D01*
X148457197Y-105319030D01*
X148437603Y-105287053D01*
X148437000Y-105279389D01*
X148437000Y-105242339D01*
X148451352Y-105207691D01*
X148467251Y-105197068D01*
X148469610Y-105196089D01*
X148469615Y-105196089D01*
X148474273Y-105192975D01*
X148511055Y-105185656D01*
X148528725Y-105192975D01*
X148533384Y-105196088D01*
X148533383Y-105196088D01*
X148533385Y-105196089D01*
X148565616Y-105202500D01*
X148565619Y-105202500D01*
X148937381Y-105202500D01*
X148937384Y-105202500D01*
X148969615Y-105196089D01*
X149006166Y-105171666D01*
X149030589Y-105135115D01*
X149037000Y-105102884D01*
X149037000Y-105031500D01*
X149051352Y-104996852D01*
X149086000Y-104982500D01*
X153666659Y-104982500D01*
X153682840Y-104985249D01*
X153683621Y-104985522D01*
X153685196Y-104986073D01*
X153715541Y-104982653D01*
X153718284Y-104982500D01*
X153727395Y-104982500D01*
X153727398Y-104982500D01*
X153736289Y-104980469D01*
X153738986Y-104980011D01*
X153769342Y-104976592D01*
X153771452Y-104975265D01*
X153786618Y-104968982D01*
X153789055Y-104968427D01*
X153812958Y-104949363D01*
X153815172Y-104947794D01*
X153822891Y-104942945D01*
X153829342Y-104936492D01*
X153831373Y-104934677D01*
X153855259Y-104915631D01*
X153856341Y-104913383D01*
X153865838Y-104899996D01*
X155387833Y-103378001D01*
X156700353Y-103378001D01*
X156718898Y-103566292D01*
X156718898Y-103566293D01*
X156731638Y-103608291D01*
X156773820Y-103747347D01*
X156863010Y-103914208D01*
X156983038Y-104060463D01*
X157129293Y-104180491D01*
X157296154Y-104269681D01*
X157477209Y-104324603D01*
X157665500Y-104343148D01*
X157853791Y-104324603D01*
X158034846Y-104269681D01*
X158201707Y-104180491D01*
X158347962Y-104060463D01*
X158467990Y-103914208D01*
X158557180Y-103747347D01*
X158612102Y-103566292D01*
X158630647Y-103378001D01*
X158612102Y-103189710D01*
X158557180Y-103008655D01*
X158467990Y-102841794D01*
X158347962Y-102695539D01*
X158201707Y-102575511D01*
X158034846Y-102486321D01*
X157853791Y-102431399D01*
X157665500Y-102412854D01*
X157477208Y-102431399D01*
X157477207Y-102431399D01*
X157296151Y-102486322D01*
X157129293Y-102575511D01*
X156983038Y-102695539D01*
X156863010Y-102841794D01*
X156773821Y-103008652D01*
X156773820Y-103008654D01*
X156773820Y-103008655D01*
X156769427Y-103023136D01*
X156718898Y-103189708D01*
X156718898Y-103189709D01*
X156700353Y-103378000D01*
X156700353Y-103378001D01*
X155387833Y-103378001D01*
X157101024Y-101664811D01*
X157135671Y-101650460D01*
X157158770Y-101656246D01*
X157296154Y-101729680D01*
X157477209Y-101784602D01*
X157646953Y-101801320D01*
X157665499Y-101803147D01*
X157665499Y-101803146D01*
X157665500Y-101803147D01*
X157853791Y-101784602D01*
X158034846Y-101729680D01*
X158201707Y-101640490D01*
X158347962Y-101520462D01*
X158467990Y-101374207D01*
X158557180Y-101207346D01*
X158612102Y-101026291D01*
X158630647Y-100838000D01*
X158612102Y-100649709D01*
X158557180Y-100468654D01*
X158467990Y-100301793D01*
X158347962Y-100155538D01*
X158201707Y-100035510D01*
X158034846Y-99946320D01*
X157853791Y-99891398D01*
X157665500Y-99872853D01*
X157477208Y-99891398D01*
X157477207Y-99891398D01*
X157296151Y-99946321D01*
X157129293Y-100035510D01*
X156983038Y-100155538D01*
X156863010Y-100301793D01*
X156773821Y-100468651D01*
X156718898Y-100649707D01*
X156718898Y-100649708D01*
X156714762Y-100691707D01*
X156700353Y-100838000D01*
X156718898Y-101026291D01*
X156773820Y-101207346D01*
X156847253Y-101344728D01*
X156850929Y-101382050D01*
X156838687Y-101402474D01*
X153644016Y-104597148D01*
X153609368Y-104611500D01*
X149086000Y-104611500D01*
X149051352Y-104597148D01*
X149037000Y-104562500D01*
X149037000Y-104491119D01*
X149037000Y-104491116D01*
X149030589Y-104458885D01*
X149022484Y-104446755D01*
X149006166Y-104422333D01*
X148969615Y-104397911D01*
X148964673Y-104396928D01*
X148937384Y-104391500D01*
X148565616Y-104391500D01*
X148546277Y-104395346D01*
X148533383Y-104397911D01*
X148528721Y-104401027D01*
X148491939Y-104408342D01*
X148474279Y-104401027D01*
X148469616Y-104397911D01*
X148461557Y-104396308D01*
X148437384Y-104391500D01*
X148065616Y-104391500D01*
X148063209Y-104391500D01*
X148063209Y-104390698D01*
X148029905Y-104380587D01*
X148012235Y-104347507D01*
X148012000Y-104342717D01*
X148012000Y-104338481D01*
X148012942Y-104328920D01*
X148017104Y-104307999D01*
X148017104Y-104307997D01*
X147997827Y-104211093D01*
X147997589Y-104208678D01*
X147996885Y-104206357D01*
X147939310Y-104120188D01*
X147921571Y-104108336D01*
X147914146Y-104102242D01*
X147629788Y-103817884D01*
X148760999Y-103817884D01*
X148766939Y-103847749D01*
X148767410Y-103850115D01*
X148791832Y-103886666D01*
X148816255Y-103902984D01*
X148828384Y-103911089D01*
X148860615Y-103917500D01*
X148860618Y-103917500D01*
X149472380Y-103917500D01*
X149472383Y-103917500D01*
X149504614Y-103911089D01*
X149541165Y-103886666D01*
X149565588Y-103850115D01*
X149565588Y-103850111D01*
X149566568Y-103847749D01*
X149593086Y-103821230D01*
X149611838Y-103817500D01*
X153561659Y-103817500D01*
X153577840Y-103820249D01*
X153578621Y-103820522D01*
X153580196Y-103821073D01*
X153610541Y-103817653D01*
X153613284Y-103817500D01*
X153622395Y-103817500D01*
X153622398Y-103817500D01*
X153631289Y-103815469D01*
X153633986Y-103815011D01*
X153664342Y-103811592D01*
X153666452Y-103810265D01*
X153681618Y-103803982D01*
X153684055Y-103803427D01*
X153707958Y-103784363D01*
X153710172Y-103782794D01*
X153717891Y-103777945D01*
X153724342Y-103771492D01*
X153726377Y-103769675D01*
X153742191Y-103757064D01*
X153754579Y-103747187D01*
X153755390Y-103748205D01*
X153782490Y-103733220D01*
X153795647Y-103733513D01*
X153855500Y-103742994D01*
X153968289Y-103725130D01*
X153968293Y-103725128D01*
X153968294Y-103725128D01*
X154070031Y-103673290D01*
X154070033Y-103673288D01*
X154070038Y-103673286D01*
X154150786Y-103592538D01*
X154150790Y-103592531D01*
X154202628Y-103490794D01*
X154202628Y-103490792D01*
X154202630Y-103490789D01*
X154220494Y-103378000D01*
X154202630Y-103265211D01*
X154202628Y-103265207D01*
X154202628Y-103265205D01*
X154150790Y-103163468D01*
X154150785Y-103163461D01*
X154070038Y-103082714D01*
X154070031Y-103082709D01*
X153968293Y-103030871D01*
X153968290Y-103030870D01*
X153968289Y-103030870D01*
X153855500Y-103013006D01*
X153742711Y-103030870D01*
X153742709Y-103030870D01*
X153742707Y-103030871D01*
X153742705Y-103030871D01*
X153640968Y-103082709D01*
X153640961Y-103082714D01*
X153560214Y-103163461D01*
X153560209Y-103163468D01*
X153508371Y-103265205D01*
X153508371Y-103265207D01*
X153508370Y-103265209D01*
X153508370Y-103265211D01*
X153501593Y-103307999D01*
X153490612Y-103377333D01*
X153490506Y-103378000D01*
X153492380Y-103389835D01*
X153483626Y-103426301D01*
X153451650Y-103445897D01*
X153443984Y-103446500D01*
X149611838Y-103446500D01*
X149577190Y-103432148D01*
X149566568Y-103416251D01*
X149565588Y-103413886D01*
X149565588Y-103413885D01*
X149553376Y-103395609D01*
X149541165Y-103377333D01*
X149504614Y-103352911D01*
X149472383Y-103346500D01*
X148860615Y-103346500D01*
X148836441Y-103351308D01*
X148828383Y-103352911D01*
X148791832Y-103377333D01*
X148767410Y-103413884D01*
X148767409Y-103413885D01*
X148767410Y-103413885D01*
X148760999Y-103446116D01*
X148760999Y-103817884D01*
X147629788Y-103817884D01*
X147189904Y-103378000D01*
X147902506Y-103378000D01*
X147920370Y-103490789D01*
X147920370Y-103490790D01*
X147920371Y-103490792D01*
X147920371Y-103490794D01*
X147972209Y-103592531D01*
X147972214Y-103592538D01*
X148052961Y-103673285D01*
X148052968Y-103673290D01*
X148154706Y-103725128D01*
X148154707Y-103725128D01*
X148154711Y-103725130D01*
X148267500Y-103742994D01*
X148380289Y-103725130D01*
X148380293Y-103725128D01*
X148380294Y-103725128D01*
X148482031Y-103673290D01*
X148482033Y-103673288D01*
X148482038Y-103673286D01*
X148562786Y-103592538D01*
X148562790Y-103592531D01*
X148614628Y-103490794D01*
X148614628Y-103490792D01*
X148614630Y-103490789D01*
X148632494Y-103378000D01*
X148622362Y-103314035D01*
X148631117Y-103277570D01*
X148636105Y-103271729D01*
X148854496Y-103053338D01*
X148867883Y-103043841D01*
X148870131Y-103042759D01*
X148889177Y-103018873D01*
X148890992Y-103016842D01*
X148897445Y-103010391D01*
X148902294Y-103002672D01*
X148903863Y-103000458D01*
X148922927Y-102976555D01*
X148923482Y-102974118D01*
X148929765Y-102958952D01*
X148931092Y-102956842D01*
X148934511Y-102926486D01*
X148934971Y-102923783D01*
X148935542Y-102921282D01*
X148937000Y-102914898D01*
X148937000Y-102912339D01*
X148951352Y-102877691D01*
X148967249Y-102867069D01*
X148969611Y-102866089D01*
X148969615Y-102866089D01*
X149006166Y-102841666D01*
X149030589Y-102805115D01*
X149037000Y-102772884D01*
X149037000Y-102161116D01*
X149030589Y-102128885D01*
X149012000Y-102101065D01*
X149006166Y-102092333D01*
X148969615Y-102067911D01*
X148963597Y-102066714D01*
X148937384Y-102061500D01*
X148565616Y-102061500D01*
X148541442Y-102066308D01*
X148533384Y-102067911D01*
X148496833Y-102092333D01*
X148472411Y-102128884D01*
X148472410Y-102128885D01*
X148472411Y-102128885D01*
X148466000Y-102161116D01*
X148466000Y-102772884D01*
X148472411Y-102805115D01*
X148492382Y-102835003D01*
X148499698Y-102871785D01*
X148486288Y-102896874D01*
X148373775Y-103009387D01*
X148339127Y-103023739D01*
X148331462Y-103023136D01*
X148267500Y-103013006D01*
X148154711Y-103030870D01*
X148154709Y-103030870D01*
X148154707Y-103030871D01*
X148154705Y-103030871D01*
X148052968Y-103082709D01*
X148052961Y-103082714D01*
X147972214Y-103163461D01*
X147972209Y-103163468D01*
X147920371Y-103265205D01*
X147920371Y-103265207D01*
X147920370Y-103265209D01*
X147920370Y-103265211D01*
X147902506Y-103378000D01*
X147189904Y-103378000D01*
X147026352Y-103214448D01*
X147012000Y-103179800D01*
X147012000Y-102847798D01*
X147020258Y-102820575D01*
X147030589Y-102805115D01*
X147037000Y-102772884D01*
X147037000Y-102161116D01*
X147030589Y-102128885D01*
X147020257Y-102113423D01*
X147012000Y-102086201D01*
X147012000Y-101764500D01*
X147026352Y-101729852D01*
X147061000Y-101715500D01*
X147677367Y-101715500D01*
X147712015Y-101729852D01*
X147726367Y-101764500D01*
X147712014Y-101799148D01*
X147666016Y-101845147D01*
X147648503Y-101862660D01*
X147635121Y-101872156D01*
X147632869Y-101873240D01*
X147632867Y-101873242D01*
X147613827Y-101897116D01*
X147611999Y-101899162D01*
X147605556Y-101905607D01*
X147605554Y-101905609D01*
X147600705Y-101913325D01*
X147599117Y-101915564D01*
X147580071Y-101939447D01*
X147580071Y-101939448D01*
X147579514Y-101941888D01*
X147573238Y-101957038D01*
X147571909Y-101959152D01*
X147571907Y-101959157D01*
X147568487Y-101989508D01*
X147568027Y-101992215D01*
X147566000Y-102001102D01*
X147566000Y-102010214D01*
X147565846Y-102012961D01*
X147564176Y-102027777D01*
X147546033Y-102060599D01*
X147534242Y-102067555D01*
X147533389Y-102067908D01*
X147496833Y-102092333D01*
X147472411Y-102128884D01*
X147472410Y-102128885D01*
X147472411Y-102128885D01*
X147466000Y-102161116D01*
X147466000Y-102772884D01*
X147472411Y-102805114D01*
X147472411Y-102805115D01*
X147496833Y-102841666D01*
X147517771Y-102855656D01*
X147533385Y-102866089D01*
X147565616Y-102872500D01*
X147565619Y-102872500D01*
X147937381Y-102872500D01*
X147937384Y-102872500D01*
X147969615Y-102866089D01*
X148006166Y-102841666D01*
X148030589Y-102805115D01*
X148037000Y-102772884D01*
X148037000Y-102161116D01*
X148030589Y-102128885D01*
X148006166Y-102092334D01*
X148003485Y-102088321D01*
X148005804Y-102086771D01*
X147995130Y-102061001D01*
X148009482Y-102026353D01*
X150267984Y-99767852D01*
X150302632Y-99753500D01*
X158076368Y-99753500D01*
X158111016Y-99767852D01*
X158735648Y-100392484D01*
X158750000Y-100427132D01*
X158750000Y-104550867D01*
X158735648Y-104585515D01*
X158229975Y-105091187D01*
X158195327Y-105105539D01*
X158172228Y-105099753D01*
X158034848Y-105026321D01*
X158034847Y-105026320D01*
X158034846Y-105026320D01*
X157853791Y-104971398D01*
X157665500Y-104952853D01*
X157477208Y-104971398D01*
X157477207Y-104971398D01*
X157296151Y-105026321D01*
X157129293Y-105115510D01*
X156983038Y-105235538D01*
X156863010Y-105381793D01*
X156773821Y-105548651D01*
X156718898Y-105729707D01*
X156718898Y-105729708D01*
X156700353Y-105917999D01*
X156700353Y-105918000D01*
X156718898Y-106106291D01*
X156718898Y-106106292D01*
X156729941Y-106142695D01*
X156773820Y-106287346D01*
X156863010Y-106454207D01*
X156983038Y-106600462D01*
X157129293Y-106720490D01*
X157296154Y-106809680D01*
X157477209Y-106864602D01*
X157665500Y-106883147D01*
X157853791Y-106864602D01*
X158034846Y-106809680D01*
X158201707Y-106720490D01*
X158347962Y-106600462D01*
X158467990Y-106454207D01*
X158557180Y-106287346D01*
X158612102Y-106106291D01*
X158630647Y-105918000D01*
X158612102Y-105729709D01*
X158557180Y-105548654D01*
X158483744Y-105411267D01*
X158480069Y-105373948D01*
X158492309Y-105353525D01*
X159038496Y-104807338D01*
X159051883Y-104797841D01*
X159054131Y-104796759D01*
X159073177Y-104772873D01*
X159074992Y-104770842D01*
X159081445Y-104764391D01*
X159086294Y-104756672D01*
X159087863Y-104754458D01*
X159106927Y-104730555D01*
X159107482Y-104728118D01*
X159113765Y-104712952D01*
X159115092Y-104710842D01*
X159118511Y-104680486D01*
X159118971Y-104677783D01*
X159121000Y-104668898D01*
X159121000Y-104659784D01*
X159121154Y-104657039D01*
X159121828Y-104651054D01*
X159124573Y-104626696D01*
X159123749Y-104624340D01*
X159121000Y-104608159D01*
X159121000Y-100369840D01*
X159123751Y-100353653D01*
X159124573Y-100351304D01*
X159121153Y-100320955D01*
X159121000Y-100318212D01*
X159121000Y-100309106D01*
X159121000Y-100309102D01*
X159118969Y-100300208D01*
X159118512Y-100297518D01*
X159115093Y-100267158D01*
X159113764Y-100265043D01*
X159107480Y-100249870D01*
X159106927Y-100247446D01*
X159106927Y-100247445D01*
X159087883Y-100223564D01*
X159086292Y-100221321D01*
X159081446Y-100213609D01*
X159075004Y-100207167D01*
X159073171Y-100205117D01*
X159054130Y-100181240D01*
X159051881Y-100180157D01*
X159038496Y-100170659D01*
X158332841Y-99465005D01*
X158323340Y-99451615D01*
X158322259Y-99449369D01*
X158322258Y-99449368D01*
X158298377Y-99430323D01*
X158296328Y-99428491D01*
X158289894Y-99422057D01*
X158282181Y-99417210D01*
X158279940Y-99415620D01*
X158256056Y-99396573D01*
X158256052Y-99396572D01*
X158253613Y-99396015D01*
X158238456Y-99389736D01*
X158237587Y-99389190D01*
X158236342Y-99388408D01*
X158236340Y-99388407D01*
X158236339Y-99388407D01*
X158205993Y-99384987D01*
X158203286Y-99384527D01*
X158194399Y-99382500D01*
X158194398Y-99382500D01*
X158185284Y-99382500D01*
X158182541Y-99382346D01*
X158152196Y-99378927D01*
X158152195Y-99378927D01*
X158152194Y-99378927D01*
X158149840Y-99379751D01*
X158133659Y-99382500D01*
X150245341Y-99382500D01*
X150229156Y-99379750D01*
X150226804Y-99378927D01*
X150196458Y-99382346D01*
X150193716Y-99382500D01*
X150184602Y-99382500D01*
X150175715Y-99384527D01*
X150173008Y-99384987D01*
X150142657Y-99388407D01*
X150142652Y-99388409D01*
X150140538Y-99389738D01*
X150125388Y-99396014D01*
X150122948Y-99396571D01*
X150122947Y-99396571D01*
X150114258Y-99403500D01*
X150099059Y-99415620D01*
X150096825Y-99417205D01*
X150089109Y-99422054D01*
X150089107Y-99422056D01*
X150082662Y-99428499D01*
X150080616Y-99430327D01*
X150056742Y-99449367D01*
X150056740Y-99449369D01*
X150055656Y-99451621D01*
X150046159Y-99465003D01*
X148720648Y-100790515D01*
X148686000Y-100804867D01*
X148651352Y-100790515D01*
X148637000Y-100755867D01*
X148637000Y-99617003D01*
X148637000Y-99617002D01*
X148637000Y-99617000D01*
X148628208Y-99572799D01*
X148613856Y-99538151D01*
X148613855Y-99538147D01*
X148605629Y-99522006D01*
X148605628Y-99522004D01*
X148551349Y-99475644D01*
X148516706Y-99461294D01*
X148516704Y-99461293D01*
X148516698Y-99461291D01*
X148498872Y-99457745D01*
X148472500Y-99452500D01*
X148472497Y-99452500D01*
X147061000Y-99452500D01*
X147026352Y-99438148D01*
X147012000Y-99403500D01*
X147012000Y-98849482D01*
X147012942Y-98839921D01*
X147017104Y-98819000D01*
X147017104Y-98818998D01*
X146997827Y-98722094D01*
X146997589Y-98719679D01*
X146996884Y-98717356D01*
X146945258Y-98640090D01*
X146937000Y-98612868D01*
X146937000Y-98298000D01*
X156700353Y-98298000D01*
X156718898Y-98486291D01*
X156773820Y-98667346D01*
X156863010Y-98834207D01*
X156983038Y-98980462D01*
X157129293Y-99100490D01*
X157296154Y-99189680D01*
X157477209Y-99244602D01*
X157665500Y-99263147D01*
X157853791Y-99244602D01*
X158034846Y-99189680D01*
X158201707Y-99100490D01*
X158347962Y-98980462D01*
X158467990Y-98834207D01*
X158557180Y-98667346D01*
X158612102Y-98486291D01*
X158630647Y-98298000D01*
X158612102Y-98109709D01*
X158557180Y-97928654D01*
X158467990Y-97761793D01*
X158347962Y-97615538D01*
X158201707Y-97495510D01*
X158034846Y-97406320D01*
X157853791Y-97351398D01*
X157665500Y-97332853D01*
X157477208Y-97351398D01*
X157477207Y-97351398D01*
X157296151Y-97406321D01*
X157129293Y-97495510D01*
X156983038Y-97615538D01*
X156863010Y-97761793D01*
X156773821Y-97928651D01*
X156718898Y-98109707D01*
X156718898Y-98109708D01*
X156718898Y-98109709D01*
X156700353Y-98298000D01*
X146937000Y-98298000D01*
X146937000Y-97183119D01*
X146937000Y-97183118D01*
X146937000Y-97183116D01*
X146930589Y-97150885D01*
X146922484Y-97138755D01*
X146906166Y-97114333D01*
X146869615Y-97089911D01*
X146837384Y-97083500D01*
X145115616Y-97083500D01*
X145091442Y-97088308D01*
X145083384Y-97089911D01*
X145046833Y-97114333D01*
X145022411Y-97150884D01*
X145022410Y-97150885D01*
X145022411Y-97150885D01*
X145016000Y-97183116D01*
X145016000Y-98904884D01*
X145022411Y-98937114D01*
X145022411Y-98937115D01*
X145046833Y-98973666D01*
X145071256Y-98989984D01*
X145083385Y-98998089D01*
X145115616Y-99004500D01*
X146442000Y-99004500D01*
X146476648Y-99018852D01*
X146491000Y-99053500D01*
X146491000Y-99403500D01*
X146476648Y-99438148D01*
X146442000Y-99452500D01*
X145014500Y-99452500D01*
X144992502Y-99456875D01*
X144970301Y-99461291D01*
X144970291Y-99461294D01*
X144935651Y-99475643D01*
X144935647Y-99475644D01*
X144919506Y-99483870D01*
X144919505Y-99483871D01*
X144873144Y-99538150D01*
X144858793Y-99572795D01*
X144858791Y-99572801D01*
X144854375Y-99595002D01*
X144850000Y-99617000D01*
X144850000Y-101551000D01*
X144852280Y-101562461D01*
X144858791Y-101595198D01*
X144858794Y-101595208D01*
X144873143Y-101629848D01*
X144873144Y-101629852D01*
X144881370Y-101645993D01*
X144881372Y-101645996D01*
X144935651Y-101692356D01*
X144970299Y-101706708D01*
X145014500Y-101715500D01*
X146442000Y-101715500D01*
X146476648Y-101729852D01*
X146491000Y-101764500D01*
X146491000Y-102012717D01*
X146476648Y-102047365D01*
X146442000Y-102061717D01*
X146437577Y-102061500D01*
X146437384Y-102061500D01*
X146065616Y-102061500D01*
X146046277Y-102065346D01*
X146033383Y-102067911D01*
X146028721Y-102071027D01*
X145991939Y-102078342D01*
X145974279Y-102071027D01*
X145969616Y-102067911D01*
X145961557Y-102066308D01*
X145937384Y-102061500D01*
X145565616Y-102061500D01*
X145541442Y-102066308D01*
X145533384Y-102067911D01*
X145496833Y-102092333D01*
X145472411Y-102128884D01*
X145472410Y-102128885D01*
X145472411Y-102128885D01*
X145466000Y-102161116D01*
X145466000Y-102161118D01*
X145466000Y-102161119D01*
X145466000Y-102232500D01*
X145451648Y-102267148D01*
X145417000Y-102281500D01*
X144850722Y-102281500D01*
X144816074Y-102267148D01*
X144806994Y-102252333D01*
X144806381Y-102252646D01*
X144752790Y-102147468D01*
X144752785Y-102147461D01*
X144672038Y-102066714D01*
X144672031Y-102066709D01*
X144570293Y-102014871D01*
X144570290Y-102014870D01*
X144570289Y-102014870D01*
X144457500Y-101997006D01*
X144344711Y-102014870D01*
X144344709Y-102014870D01*
X144344707Y-102014871D01*
X144344705Y-102014871D01*
X144242968Y-102066709D01*
X144242961Y-102066714D01*
X144162214Y-102147461D01*
X144162209Y-102147468D01*
X144110371Y-102249205D01*
X144110371Y-102249207D01*
X144110370Y-102249209D01*
X144110370Y-102249211D01*
X144092506Y-102362000D01*
X144110370Y-102474789D01*
X144110370Y-102474790D01*
X144110371Y-102474792D01*
X144110371Y-102474794D01*
X144162209Y-102576531D01*
X144162214Y-102576538D01*
X144242961Y-102657285D01*
X144242968Y-102657290D01*
X144344706Y-102709128D01*
X144344707Y-102709128D01*
X144344711Y-102709130D01*
X144457500Y-102726994D01*
X144570289Y-102709130D01*
X144653264Y-102666852D01*
X144670950Y-102657841D01*
X144693196Y-102652500D01*
X145417000Y-102652500D01*
X145451648Y-102666852D01*
X145466000Y-102701500D01*
X145466000Y-102772884D01*
X145472411Y-102805114D01*
X145472411Y-102805115D01*
X145496833Y-102841666D01*
X145517771Y-102855656D01*
X145533385Y-102866089D01*
X145565616Y-102872500D01*
X145565619Y-102872500D01*
X145937381Y-102872500D01*
X145937384Y-102872500D01*
X145969615Y-102866089D01*
X145974273Y-102862975D01*
X146011055Y-102855656D01*
X146028725Y-102862975D01*
X146033384Y-102866088D01*
X146033383Y-102866088D01*
X146033385Y-102866089D01*
X146065616Y-102872500D01*
X146065619Y-102872500D01*
X146439791Y-102872500D01*
X146439791Y-102873308D01*
X146473078Y-102883398D01*
X146490763Y-102916470D01*
X146491000Y-102921282D01*
X146491000Y-103277516D01*
X146490059Y-103287074D01*
X146485897Y-103307999D01*
X146491000Y-103333653D01*
X146506115Y-103409641D01*
X146510532Y-103416251D01*
X146563690Y-103495810D01*
X146581430Y-103507663D01*
X146588856Y-103513757D01*
X147382950Y-104307851D01*
X147397302Y-104342499D01*
X147382950Y-104377147D01*
X147348302Y-104391499D01*
X147065616Y-104391499D01*
X147041442Y-104396307D01*
X147033384Y-104397910D01*
X147033380Y-104397912D01*
X147028718Y-104401027D01*
X146991935Y-104408341D01*
X146974279Y-104401027D01*
X146969615Y-104397911D01*
X146964673Y-104396928D01*
X146937384Y-104391500D01*
X146565616Y-104391500D01*
X146546277Y-104395346D01*
X146533383Y-104397911D01*
X146528721Y-104401027D01*
X146491939Y-104408342D01*
X146474279Y-104401027D01*
X146469615Y-104397910D01*
X146467243Y-104396928D01*
X146440728Y-104370406D01*
X146437000Y-104351660D01*
X146437000Y-104214619D01*
X146451351Y-104179972D01*
X146530786Y-104100538D01*
X146530790Y-104100531D01*
X146582628Y-103998794D01*
X146582628Y-103998792D01*
X146582630Y-103998789D01*
X146600494Y-103886000D01*
X146582630Y-103773211D01*
X146582628Y-103773207D01*
X146582628Y-103773205D01*
X146530790Y-103671468D01*
X146530785Y-103671461D01*
X146450038Y-103590714D01*
X146450031Y-103590709D01*
X146348293Y-103538871D01*
X146348290Y-103538870D01*
X146348289Y-103538870D01*
X146235500Y-103521006D01*
X146122711Y-103538870D01*
X146122709Y-103538870D01*
X146122707Y-103538871D01*
X146122705Y-103538871D01*
X146020968Y-103590709D01*
X146020961Y-103590714D01*
X145940214Y-103671461D01*
X145940209Y-103671468D01*
X145888371Y-103773205D01*
X145888371Y-103773207D01*
X145888370Y-103773209D01*
X145888370Y-103773211D01*
X145870506Y-103886000D01*
X145888370Y-103998789D01*
X145888370Y-103998790D01*
X145888371Y-103998792D01*
X145888371Y-103998794D01*
X145940209Y-104100531D01*
X145940214Y-104100538D01*
X146020962Y-104181286D01*
X146020966Y-104181288D01*
X146039244Y-104190601D01*
X146063601Y-104219118D01*
X146066000Y-104234261D01*
X146066000Y-104351660D01*
X146051648Y-104386308D01*
X146035757Y-104396928D01*
X146033384Y-104397910D01*
X146028721Y-104401027D01*
X145991939Y-104408342D01*
X145974279Y-104401027D01*
X145969616Y-104397911D01*
X145961557Y-104396308D01*
X145937384Y-104391500D01*
X145565616Y-104391500D01*
X145541442Y-104396308D01*
X145533384Y-104397911D01*
X145496833Y-104422333D01*
X145472411Y-104458884D01*
X145472410Y-104458885D01*
X145472411Y-104458885D01*
X145466000Y-104491116D01*
X145466000Y-104491118D01*
X145466000Y-104491119D01*
X145466000Y-104562500D01*
X145451648Y-104597148D01*
X145417000Y-104611500D01*
X145054343Y-104611500D01*
X145038159Y-104608750D01*
X145035804Y-104607926D01*
X145035803Y-104607926D01*
X145022117Y-104609468D01*
X145005449Y-104611346D01*
X145002707Y-104611500D01*
X144993597Y-104611500D01*
X144984721Y-104613525D01*
X144982015Y-104613985D01*
X144951657Y-104617406D01*
X144951655Y-104617407D01*
X144949536Y-104618739D01*
X144934384Y-104625015D01*
X144931951Y-104625570D01*
X144931941Y-104625575D01*
X144908062Y-104644617D01*
X144905823Y-104646206D01*
X144898106Y-104651055D01*
X144891657Y-104657503D01*
X144889611Y-104659331D01*
X144865743Y-104678366D01*
X144865740Y-104678369D01*
X144864654Y-104680625D01*
X144855159Y-104694002D01*
X142550271Y-106998892D01*
X142490392Y-107058771D01*
X141896503Y-107652659D01*
X141883121Y-107662156D01*
X141880869Y-107663240D01*
X141880867Y-107663242D01*
X141861827Y-107687116D01*
X141859999Y-107689162D01*
X141853556Y-107695607D01*
X141853554Y-107695609D01*
X141848705Y-107703325D01*
X141847117Y-107705564D01*
X141828071Y-107729447D01*
X141828071Y-107729448D01*
X141827514Y-107731888D01*
X141821238Y-107747038D01*
X141819909Y-107749152D01*
X141819907Y-107749157D01*
X141816487Y-107779508D01*
X141816027Y-107782215D01*
X141814000Y-107791102D01*
X141814000Y-107800212D01*
X141813846Y-107802954D01*
X141813606Y-107805085D01*
X141813280Y-107807981D01*
X141795144Y-107840806D01*
X141764588Y-107851500D01*
X141488616Y-107851500D01*
X141464442Y-107856308D01*
X141456384Y-107857911D01*
X141419833Y-107882333D01*
X141395411Y-107918884D01*
X141394647Y-107922727D01*
X141389000Y-107951116D01*
X141389000Y-109472884D01*
X135060000Y-109472884D01*
X135060000Y-105960000D01*
X136380353Y-105960000D01*
X136398898Y-106148291D01*
X136398898Y-106148292D01*
X136412699Y-106193786D01*
X136453820Y-106329346D01*
X136543010Y-106496207D01*
X136663038Y-106642462D01*
X136809293Y-106762490D01*
X136976154Y-106851680D01*
X137157209Y-106906602D01*
X137345500Y-106925147D01*
X137533791Y-106906602D01*
X137714846Y-106851680D01*
X137881707Y-106762490D01*
X138027962Y-106642462D01*
X138147990Y-106496207D01*
X138237180Y-106329346D01*
X138292102Y-106148291D01*
X138310647Y-105960000D01*
X138292102Y-105771709D01*
X138237180Y-105590654D01*
X138147990Y-105423793D01*
X138027962Y-105277538D01*
X137881707Y-105157510D01*
X137714846Y-105068320D01*
X137533791Y-105013398D01*
X137345500Y-104994853D01*
X137157208Y-105013398D01*
X137157207Y-105013398D01*
X136976151Y-105068321D01*
X136809293Y-105157510D01*
X136663038Y-105277538D01*
X136543010Y-105423793D01*
X136453821Y-105590651D01*
X136398898Y-105771707D01*
X136398898Y-105771708D01*
X136380353Y-105959999D01*
X136380353Y-105960000D01*
X135060000Y-105960000D01*
X135060000Y-103420000D01*
X136380353Y-103420000D01*
X136398898Y-103608291D01*
X136453820Y-103789346D01*
X136543010Y-103956207D01*
X136663038Y-104102462D01*
X136809293Y-104222490D01*
X136976154Y-104311680D01*
X137157209Y-104366602D01*
X137326953Y-104383320D01*
X137345499Y-104385147D01*
X137345499Y-104385146D01*
X137345500Y-104385147D01*
X137533791Y-104366602D01*
X137714846Y-104311680D01*
X137881707Y-104222490D01*
X138027962Y-104102462D01*
X138147990Y-103956207D01*
X138237180Y-103789346D01*
X138292102Y-103608291D01*
X138310647Y-103420000D01*
X138292102Y-103231709D01*
X138237180Y-103050654D01*
X138147990Y-102883793D01*
X138027962Y-102737538D01*
X137881707Y-102617510D01*
X137714846Y-102528320D01*
X137533791Y-102473398D01*
X137345500Y-102454853D01*
X137157208Y-102473398D01*
X137157207Y-102473398D01*
X136976151Y-102528321D01*
X136809293Y-102617510D01*
X136663038Y-102737538D01*
X136543010Y-102883793D01*
X136453821Y-103050651D01*
X136398898Y-103231707D01*
X136398898Y-103231708D01*
X136384490Y-103378001D01*
X136380353Y-103420000D01*
X135060000Y-103420000D01*
X135060000Y-100880000D01*
X136380353Y-100880000D01*
X136398898Y-101068291D01*
X136453820Y-101249346D01*
X136543010Y-101416207D01*
X136663038Y-101562462D01*
X136809293Y-101682490D01*
X136976154Y-101771680D01*
X137157209Y-101826602D01*
X137326954Y-101843320D01*
X137345499Y-101845147D01*
X137345499Y-101845146D01*
X137345500Y-101845147D01*
X137533791Y-101826602D01*
X137714846Y-101771680D01*
X137881707Y-101682490D01*
X138027962Y-101562462D01*
X138147990Y-101416207D01*
X138237180Y-101249346D01*
X138292102Y-101068291D01*
X138310647Y-100880000D01*
X138292102Y-100691709D01*
X138237180Y-100510654D01*
X138147990Y-100343793D01*
X138027962Y-100197538D01*
X137881707Y-100077510D01*
X137714846Y-99988320D01*
X137533791Y-99933398D01*
X137345500Y-99914853D01*
X137157208Y-99933398D01*
X137157207Y-99933398D01*
X136976151Y-99988321D01*
X136809293Y-100077510D01*
X136663038Y-100197538D01*
X136543010Y-100343793D01*
X136453821Y-100510651D01*
X136398898Y-100691707D01*
X136398898Y-100691708D01*
X136398898Y-100691709D01*
X136380353Y-100880000D01*
X135060000Y-100880000D01*
X135060000Y-99200884D01*
X136385000Y-99200884D01*
X136391411Y-99233115D01*
X136415833Y-99269666D01*
X136440256Y-99285984D01*
X136452385Y-99294089D01*
X136484616Y-99300500D01*
X138023368Y-99300500D01*
X138058016Y-99314852D01*
X142478158Y-103734994D01*
X142487657Y-103748381D01*
X142488740Y-103750629D01*
X142488740Y-103750630D01*
X142512622Y-103769675D01*
X142514672Y-103771508D01*
X142521109Y-103777945D01*
X142521111Y-103777946D01*
X142528817Y-103782788D01*
X142531060Y-103784379D01*
X142554945Y-103803427D01*
X142554946Y-103803427D01*
X142554948Y-103803428D01*
X142557380Y-103803983D01*
X142572547Y-103810265D01*
X142574658Y-103811592D01*
X142605012Y-103815011D01*
X142607706Y-103815469D01*
X142612761Y-103816623D01*
X142616600Y-103817500D01*
X142616602Y-103817500D01*
X142625716Y-103817500D01*
X142628458Y-103817653D01*
X142658804Y-103821073D01*
X142661155Y-103820250D01*
X142677341Y-103817500D01*
X144891162Y-103817500D01*
X144925810Y-103831852D01*
X144936432Y-103847749D01*
X144937411Y-103850113D01*
X144961834Y-103886666D01*
X144986256Y-103902984D01*
X144998386Y-103911089D01*
X145030617Y-103917500D01*
X145030620Y-103917500D01*
X145642382Y-103917500D01*
X145642385Y-103917500D01*
X145674616Y-103911089D01*
X145711167Y-103886666D01*
X145735590Y-103850115D01*
X145742001Y-103817884D01*
X145742001Y-103446116D01*
X145735590Y-103413885D01*
X145727485Y-103401755D01*
X145711167Y-103377333D01*
X145674616Y-103352911D01*
X145674615Y-103352910D01*
X145642385Y-103346500D01*
X145030617Y-103346500D01*
X145006443Y-103351308D01*
X144998385Y-103352911D01*
X144961834Y-103377333D01*
X144937411Y-103413886D01*
X144936432Y-103416251D01*
X144909914Y-103442770D01*
X144891162Y-103446500D01*
X142734632Y-103446500D01*
X142699984Y-103432148D01*
X138320352Y-99052516D01*
X138306000Y-99017868D01*
X138306000Y-97479119D01*
X138306000Y-97479116D01*
X138299589Y-97446885D01*
X138291484Y-97434756D01*
X138275166Y-97410333D01*
X138238615Y-97385911D01*
X138206384Y-97379500D01*
X136484616Y-97379500D01*
X136460442Y-97384308D01*
X136452384Y-97385911D01*
X136415833Y-97410333D01*
X136391411Y-97446884D01*
X136391410Y-97446885D01*
X136391411Y-97446885D01*
X136385000Y-97479116D01*
X136385000Y-99200884D01*
X135060000Y-99200884D01*
X135060000Y-97029190D01*
X135060118Y-97026788D01*
X135063474Y-96992712D01*
X135076687Y-96875448D01*
X135078484Y-96866736D01*
X135096479Y-96807414D01*
X135096776Y-96806505D01*
X135126208Y-96722393D01*
X135129231Y-96715508D01*
X135161079Y-96655925D01*
X135161923Y-96654469D01*
X135207645Y-96581703D01*
X135209411Y-96579251D01*
X135254509Y-96524298D01*
X135256084Y-96522559D01*
X135316059Y-96462584D01*
X135317807Y-96461002D01*
X135372751Y-96415911D01*
X135375203Y-96414145D01*
X135447969Y-96368423D01*
X135449425Y-96367579D01*
X135509008Y-96335731D01*
X135515893Y-96332708D01*
X135600005Y-96303276D01*
X135600914Y-96302979D01*
X135660236Y-96284984D01*
X135668948Y-96283187D01*
X135786221Y-96269973D01*
X135820301Y-96266616D01*
X135822702Y-96266499D01*
X158914703Y-96266499D01*
X158914705Y-96266500D01*
G37*
%TD.AperFunction*%
%TD*%
%TA.AperFunction,Conductor*%
%TO.N,+3.3V*%
G36*
X148507148Y-99582352D02*
G01*
X148521500Y-99617000D01*
X148521500Y-100969367D01*
X148507148Y-101004015D01*
X147925516Y-101585648D01*
X147890868Y-101600000D01*
X145014500Y-101600000D01*
X144979852Y-101585648D01*
X144965500Y-101551000D01*
X144965500Y-99617000D01*
X144979852Y-99582352D01*
X145014500Y-99568000D01*
X148472500Y-99568000D01*
X148507148Y-99582352D01*
G37*
%TD.AperFunction*%
%TD*%
M02*
