%TF.GenerationSoftware,KiCad,Pcbnew,9.0.1*%
%TF.CreationDate,2026-01-02T15:43:32+00:00*%
%TF.ProjectId,float_carrier_2025-2026,666c6f61-745f-4636-9172-726965725f32,v01*%
%TF.SameCoordinates,Original*%
%TF.FileFunction,Legend,Top*%
%TF.FilePolarity,Positive*%
%FSLAX46Y46*%
G04 Gerber Fmt 4.6, Leading zero omitted, Abs format (unit mm)*
G04 Created by KiCad (PCBNEW 9.0.1) date 2026-01-02 15:43:32*
%MOMM*%
%LPD*%
G01*
G04 APERTURE LIST*
%ADD10C,0.100000*%
%ADD11C,0.150000*%
%ADD12C,0.120000*%
G04 APERTURE END LIST*
D10*
X78679219Y-117996639D02*
X78679219Y-117901401D01*
X78679219Y-117901401D02*
X78726838Y-117806163D01*
X78726838Y-117806163D02*
X78774457Y-117758544D01*
X78774457Y-117758544D02*
X78869695Y-117710925D01*
X78869695Y-117710925D02*
X79060171Y-117663306D01*
X79060171Y-117663306D02*
X79298266Y-117663306D01*
X79298266Y-117663306D02*
X79488742Y-117710925D01*
X79488742Y-117710925D02*
X79583980Y-117758544D01*
X79583980Y-117758544D02*
X79631600Y-117806163D01*
X79631600Y-117806163D02*
X79679219Y-117901401D01*
X79679219Y-117901401D02*
X79679219Y-117996639D01*
X79679219Y-117996639D02*
X79631600Y-118091877D01*
X79631600Y-118091877D02*
X79583980Y-118139496D01*
X79583980Y-118139496D02*
X79488742Y-118187115D01*
X79488742Y-118187115D02*
X79298266Y-118234734D01*
X79298266Y-118234734D02*
X79060171Y-118234734D01*
X79060171Y-118234734D02*
X78869695Y-118187115D01*
X78869695Y-118187115D02*
X78774457Y-118139496D01*
X78774457Y-118139496D02*
X78726838Y-118091877D01*
X78726838Y-118091877D02*
X78679219Y-117996639D01*
X79583980Y-117234734D02*
X79631600Y-117187115D01*
X79631600Y-117187115D02*
X79679219Y-117234734D01*
X79679219Y-117234734D02*
X79631600Y-117282353D01*
X79631600Y-117282353D02*
X79583980Y-117234734D01*
X79583980Y-117234734D02*
X79679219Y-117234734D01*
X79679219Y-116234735D02*
X79679219Y-116806163D01*
X79679219Y-116520449D02*
X78679219Y-116520449D01*
X78679219Y-116520449D02*
X78822076Y-116615687D01*
X78822076Y-116615687D02*
X78917314Y-116710925D01*
X78917314Y-116710925D02*
X78964933Y-116806163D01*
X79012552Y-115377592D02*
X79679219Y-115377592D01*
X79012552Y-115806163D02*
X79536361Y-115806163D01*
X79536361Y-115806163D02*
X79631600Y-115758544D01*
X79631600Y-115758544D02*
X79679219Y-115663306D01*
X79679219Y-115663306D02*
X79679219Y-115520449D01*
X79679219Y-115520449D02*
X79631600Y-115425211D01*
X79631600Y-115425211D02*
X79583980Y-115377592D01*
X79155409Y-114568068D02*
X79155409Y-114901401D01*
X79679219Y-114901401D02*
X78679219Y-114901401D01*
X78679219Y-114901401D02*
X78679219Y-114425211D01*
X106797019Y-77312153D02*
X106797019Y-76693106D01*
X106797019Y-76693106D02*
X107177971Y-77026439D01*
X107177971Y-77026439D02*
X107177971Y-76883582D01*
X107177971Y-76883582D02*
X107225590Y-76788344D01*
X107225590Y-76788344D02*
X107273209Y-76740725D01*
X107273209Y-76740725D02*
X107368447Y-76693106D01*
X107368447Y-76693106D02*
X107606542Y-76693106D01*
X107606542Y-76693106D02*
X107701780Y-76740725D01*
X107701780Y-76740725D02*
X107749400Y-76788344D01*
X107749400Y-76788344D02*
X107797019Y-76883582D01*
X107797019Y-76883582D02*
X107797019Y-77169296D01*
X107797019Y-77169296D02*
X107749400Y-77264534D01*
X107749400Y-77264534D02*
X107701780Y-77312153D01*
X79834465Y-95589257D02*
X79882084Y-95541638D01*
X79882084Y-95541638D02*
X79977322Y-95494019D01*
X79977322Y-95494019D02*
X80215417Y-95494019D01*
X80215417Y-95494019D02*
X80310655Y-95541638D01*
X80310655Y-95541638D02*
X80358274Y-95589257D01*
X80358274Y-95589257D02*
X80405893Y-95684495D01*
X80405893Y-95684495D02*
X80405893Y-95779733D01*
X80405893Y-95779733D02*
X80358274Y-95922590D01*
X80358274Y-95922590D02*
X79786846Y-96494019D01*
X79786846Y-96494019D02*
X80405893Y-96494019D01*
X80786846Y-95589257D02*
X80834465Y-95541638D01*
X80834465Y-95541638D02*
X80929703Y-95494019D01*
X80929703Y-95494019D02*
X81167798Y-95494019D01*
X81167798Y-95494019D02*
X81263036Y-95541638D01*
X81263036Y-95541638D02*
X81310655Y-95589257D01*
X81310655Y-95589257D02*
X81358274Y-95684495D01*
X81358274Y-95684495D02*
X81358274Y-95779733D01*
X81358274Y-95779733D02*
X81310655Y-95922590D01*
X81310655Y-95922590D02*
X80739227Y-96494019D01*
X80739227Y-96494019D02*
X81358274Y-96494019D01*
X82215417Y-95827352D02*
X82215417Y-96494019D01*
X81786846Y-95827352D02*
X81786846Y-96351161D01*
X81786846Y-96351161D02*
X81834465Y-96446400D01*
X81834465Y-96446400D02*
X81929703Y-96494019D01*
X81929703Y-96494019D02*
X82072560Y-96494019D01*
X82072560Y-96494019D02*
X82167798Y-96446400D01*
X82167798Y-96446400D02*
X82215417Y-96398780D01*
X83024941Y-95970209D02*
X82691608Y-95970209D01*
X82691608Y-96494019D02*
X82691608Y-95494019D01*
X82691608Y-95494019D02*
X83167798Y-95494019D01*
X116906219Y-77388353D02*
X116906219Y-76721687D01*
X116906219Y-76721687D02*
X117906219Y-77150258D01*
X88391084Y-127228019D02*
X88391084Y-126228019D01*
X88867274Y-126561352D02*
X88867274Y-127228019D01*
X88867274Y-126656590D02*
X88914893Y-126608971D01*
X88914893Y-126608971D02*
X89010131Y-126561352D01*
X89010131Y-126561352D02*
X89152988Y-126561352D01*
X89152988Y-126561352D02*
X89248226Y-126608971D01*
X89248226Y-126608971D02*
X89295845Y-126704209D01*
X89295845Y-126704209D02*
X89295845Y-127228019D01*
X89772036Y-126561352D02*
X89772036Y-127561352D01*
X89772036Y-126608971D02*
X89867274Y-126561352D01*
X89867274Y-126561352D02*
X90057750Y-126561352D01*
X90057750Y-126561352D02*
X90152988Y-126608971D01*
X90152988Y-126608971D02*
X90200607Y-126656590D01*
X90200607Y-126656590D02*
X90248226Y-126751828D01*
X90248226Y-126751828D02*
X90248226Y-127037542D01*
X90248226Y-127037542D02*
X90200607Y-127132780D01*
X90200607Y-127132780D02*
X90152988Y-127180400D01*
X90152988Y-127180400D02*
X90057750Y-127228019D01*
X90057750Y-127228019D02*
X89867274Y-127228019D01*
X89867274Y-127228019D02*
X89772036Y-127180400D01*
X91105369Y-126561352D02*
X91105369Y-127228019D01*
X90676798Y-126561352D02*
X90676798Y-127085161D01*
X90676798Y-127085161D02*
X90724417Y-127180400D01*
X90724417Y-127180400D02*
X90819655Y-127228019D01*
X90819655Y-127228019D02*
X90962512Y-127228019D01*
X90962512Y-127228019D02*
X91057750Y-127180400D01*
X91057750Y-127180400D02*
X91105369Y-127132780D01*
X91438703Y-126561352D02*
X91819655Y-126561352D01*
X91581560Y-126228019D02*
X91581560Y-127085161D01*
X91581560Y-127085161D02*
X91629179Y-127180400D01*
X91629179Y-127180400D02*
X91724417Y-127228019D01*
X91724417Y-127228019D02*
X91819655Y-127228019D01*
X92914894Y-127228019D02*
X92914894Y-126228019D01*
X92914894Y-126228019D02*
X93295846Y-126228019D01*
X93295846Y-126228019D02*
X93391084Y-126275638D01*
X93391084Y-126275638D02*
X93438703Y-126323257D01*
X93438703Y-126323257D02*
X93486322Y-126418495D01*
X93486322Y-126418495D02*
X93486322Y-126561352D01*
X93486322Y-126561352D02*
X93438703Y-126656590D01*
X93438703Y-126656590D02*
X93391084Y-126704209D01*
X93391084Y-126704209D02*
X93295846Y-126751828D01*
X93295846Y-126751828D02*
X92914894Y-126751828D01*
X94057751Y-127228019D02*
X93962513Y-127180400D01*
X93962513Y-127180400D02*
X93914894Y-127132780D01*
X93914894Y-127132780D02*
X93867275Y-127037542D01*
X93867275Y-127037542D02*
X93867275Y-126751828D01*
X93867275Y-126751828D02*
X93914894Y-126656590D01*
X93914894Y-126656590D02*
X93962513Y-126608971D01*
X93962513Y-126608971D02*
X94057751Y-126561352D01*
X94057751Y-126561352D02*
X94200608Y-126561352D01*
X94200608Y-126561352D02*
X94295846Y-126608971D01*
X94295846Y-126608971D02*
X94343465Y-126656590D01*
X94343465Y-126656590D02*
X94391084Y-126751828D01*
X94391084Y-126751828D02*
X94391084Y-127037542D01*
X94391084Y-127037542D02*
X94343465Y-127132780D01*
X94343465Y-127132780D02*
X94295846Y-127180400D01*
X94295846Y-127180400D02*
X94200608Y-127228019D01*
X94200608Y-127228019D02*
X94057751Y-127228019D01*
X94724418Y-126561352D02*
X94914894Y-127228019D01*
X94914894Y-127228019D02*
X95105370Y-126751828D01*
X95105370Y-126751828D02*
X95295846Y-127228019D01*
X95295846Y-127228019D02*
X95486322Y-126561352D01*
X96248227Y-127180400D02*
X96152989Y-127228019D01*
X96152989Y-127228019D02*
X95962513Y-127228019D01*
X95962513Y-127228019D02*
X95867275Y-127180400D01*
X95867275Y-127180400D02*
X95819656Y-127085161D01*
X95819656Y-127085161D02*
X95819656Y-126704209D01*
X95819656Y-126704209D02*
X95867275Y-126608971D01*
X95867275Y-126608971D02*
X95962513Y-126561352D01*
X95962513Y-126561352D02*
X96152989Y-126561352D01*
X96152989Y-126561352D02*
X96248227Y-126608971D01*
X96248227Y-126608971D02*
X96295846Y-126704209D01*
X96295846Y-126704209D02*
X96295846Y-126799447D01*
X96295846Y-126799447D02*
X95819656Y-126894685D01*
X96724418Y-127228019D02*
X96724418Y-126561352D01*
X96724418Y-126751828D02*
X96772037Y-126656590D01*
X96772037Y-126656590D02*
X96819656Y-126608971D01*
X96819656Y-126608971D02*
X96914894Y-126561352D01*
X96914894Y-126561352D02*
X97010132Y-126561352D01*
X119785819Y-121727306D02*
X119785819Y-122298734D01*
X119785819Y-122013020D02*
X118785819Y-122013020D01*
X118785819Y-122013020D02*
X118928676Y-122108258D01*
X118928676Y-122108258D02*
X119023914Y-122203496D01*
X119023914Y-122203496D02*
X119071533Y-122298734D01*
X118785819Y-121108258D02*
X118785819Y-121013020D01*
X118785819Y-121013020D02*
X118833438Y-120917782D01*
X118833438Y-120917782D02*
X118881057Y-120870163D01*
X118881057Y-120870163D02*
X118976295Y-120822544D01*
X118976295Y-120822544D02*
X119166771Y-120774925D01*
X119166771Y-120774925D02*
X119404866Y-120774925D01*
X119404866Y-120774925D02*
X119595342Y-120822544D01*
X119595342Y-120822544D02*
X119690580Y-120870163D01*
X119690580Y-120870163D02*
X119738200Y-120917782D01*
X119738200Y-120917782D02*
X119785819Y-121013020D01*
X119785819Y-121013020D02*
X119785819Y-121108258D01*
X119785819Y-121108258D02*
X119738200Y-121203496D01*
X119738200Y-121203496D02*
X119690580Y-121251115D01*
X119690580Y-121251115D02*
X119595342Y-121298734D01*
X119595342Y-121298734D02*
X119404866Y-121346353D01*
X119404866Y-121346353D02*
X119166771Y-121346353D01*
X119166771Y-121346353D02*
X118976295Y-121298734D01*
X118976295Y-121298734D02*
X118881057Y-121251115D01*
X118881057Y-121251115D02*
X118833438Y-121203496D01*
X118833438Y-121203496D02*
X118785819Y-121108258D01*
X119785819Y-120346353D02*
X118785819Y-120346353D01*
X119404866Y-120251115D02*
X119785819Y-119965401D01*
X119119152Y-119965401D02*
X119500104Y-120346353D01*
X83847665Y-95513057D02*
X83895284Y-95465438D01*
X83895284Y-95465438D02*
X83990522Y-95417819D01*
X83990522Y-95417819D02*
X84228617Y-95417819D01*
X84228617Y-95417819D02*
X84323855Y-95465438D01*
X84323855Y-95465438D02*
X84371474Y-95513057D01*
X84371474Y-95513057D02*
X84419093Y-95608295D01*
X84419093Y-95608295D02*
X84419093Y-95703533D01*
X84419093Y-95703533D02*
X84371474Y-95846390D01*
X84371474Y-95846390D02*
X83800046Y-96417819D01*
X83800046Y-96417819D02*
X84419093Y-96417819D01*
X84800046Y-95513057D02*
X84847665Y-95465438D01*
X84847665Y-95465438D02*
X84942903Y-95417819D01*
X84942903Y-95417819D02*
X85180998Y-95417819D01*
X85180998Y-95417819D02*
X85276236Y-95465438D01*
X85276236Y-95465438D02*
X85323855Y-95513057D01*
X85323855Y-95513057D02*
X85371474Y-95608295D01*
X85371474Y-95608295D02*
X85371474Y-95703533D01*
X85371474Y-95703533D02*
X85323855Y-95846390D01*
X85323855Y-95846390D02*
X84752427Y-96417819D01*
X84752427Y-96417819D02*
X85371474Y-96417819D01*
X86228617Y-95751152D02*
X86228617Y-96417819D01*
X85800046Y-95751152D02*
X85800046Y-96274961D01*
X85800046Y-96274961D02*
X85847665Y-96370200D01*
X85847665Y-96370200D02*
X85942903Y-96417819D01*
X85942903Y-96417819D02*
X86085760Y-96417819D01*
X86085760Y-96417819D02*
X86180998Y-96370200D01*
X86180998Y-96370200D02*
X86228617Y-96322580D01*
X87038141Y-95894009D02*
X86704808Y-95894009D01*
X86704808Y-96417819D02*
X86704808Y-95417819D01*
X86704808Y-95417819D02*
X87180998Y-95417819D01*
X102463019Y-76642306D02*
X102463019Y-77213734D01*
X102463019Y-76928020D02*
X101463019Y-76928020D01*
X101463019Y-76928020D02*
X101605876Y-77023258D01*
X101605876Y-77023258D02*
X101701114Y-77118496D01*
X101701114Y-77118496D02*
X101748733Y-77213734D01*
X114366219Y-76864544D02*
X114366219Y-77055020D01*
X114366219Y-77055020D02*
X114413838Y-77150258D01*
X114413838Y-77150258D02*
X114461457Y-77197877D01*
X114461457Y-77197877D02*
X114604314Y-77293115D01*
X114604314Y-77293115D02*
X114794790Y-77340734D01*
X114794790Y-77340734D02*
X115175742Y-77340734D01*
X115175742Y-77340734D02*
X115270980Y-77293115D01*
X115270980Y-77293115D02*
X115318600Y-77245496D01*
X115318600Y-77245496D02*
X115366219Y-77150258D01*
X115366219Y-77150258D02*
X115366219Y-76959782D01*
X115366219Y-76959782D02*
X115318600Y-76864544D01*
X115318600Y-76864544D02*
X115270980Y-76816925D01*
X115270980Y-76816925D02*
X115175742Y-76769306D01*
X115175742Y-76769306D02*
X114937647Y-76769306D01*
X114937647Y-76769306D02*
X114842409Y-76816925D01*
X114842409Y-76816925D02*
X114794790Y-76864544D01*
X114794790Y-76864544D02*
X114747171Y-76959782D01*
X114747171Y-76959782D02*
X114747171Y-77150258D01*
X114747171Y-77150258D02*
X114794790Y-77245496D01*
X114794790Y-77245496D02*
X114842409Y-77293115D01*
X114842409Y-77293115D02*
X114937647Y-77340734D01*
X72633493Y-106095219D02*
X72062065Y-106095219D01*
X72347779Y-106095219D02*
X72347779Y-105095219D01*
X72347779Y-105095219D02*
X72252541Y-105238076D01*
X72252541Y-105238076D02*
X72157303Y-105333314D01*
X72157303Y-105333314D02*
X72062065Y-105380933D01*
X73252541Y-105095219D02*
X73347779Y-105095219D01*
X73347779Y-105095219D02*
X73443017Y-105142838D01*
X73443017Y-105142838D02*
X73490636Y-105190457D01*
X73490636Y-105190457D02*
X73538255Y-105285695D01*
X73538255Y-105285695D02*
X73585874Y-105476171D01*
X73585874Y-105476171D02*
X73585874Y-105714266D01*
X73585874Y-105714266D02*
X73538255Y-105904742D01*
X73538255Y-105904742D02*
X73490636Y-105999980D01*
X73490636Y-105999980D02*
X73443017Y-106047600D01*
X73443017Y-106047600D02*
X73347779Y-106095219D01*
X73347779Y-106095219D02*
X73252541Y-106095219D01*
X73252541Y-106095219D02*
X73157303Y-106047600D01*
X73157303Y-106047600D02*
X73109684Y-105999980D01*
X73109684Y-105999980D02*
X73062065Y-105904742D01*
X73062065Y-105904742D02*
X73014446Y-105714266D01*
X73014446Y-105714266D02*
X73014446Y-105476171D01*
X73014446Y-105476171D02*
X73062065Y-105285695D01*
X73062065Y-105285695D02*
X73109684Y-105190457D01*
X73109684Y-105190457D02*
X73157303Y-105142838D01*
X73157303Y-105142838D02*
X73252541Y-105095219D01*
X74443017Y-105428552D02*
X74443017Y-106095219D01*
X74014446Y-105428552D02*
X74014446Y-105952361D01*
X74014446Y-105952361D02*
X74062065Y-106047600D01*
X74062065Y-106047600D02*
X74157303Y-106095219D01*
X74157303Y-106095219D02*
X74300160Y-106095219D01*
X74300160Y-106095219D02*
X74395398Y-106047600D01*
X74395398Y-106047600D02*
X74443017Y-105999980D01*
X75252541Y-105571409D02*
X74919208Y-105571409D01*
X74919208Y-106095219D02*
X74919208Y-105095219D01*
X74919208Y-105095219D02*
X75395398Y-105095219D01*
X70967019Y-113853306D02*
X70967019Y-114424734D01*
X70967019Y-114139020D02*
X69967019Y-114139020D01*
X69967019Y-114139020D02*
X70109876Y-114234258D01*
X70109876Y-114234258D02*
X70205114Y-114329496D01*
X70205114Y-114329496D02*
X70252733Y-114424734D01*
X69967019Y-113234258D02*
X69967019Y-113139020D01*
X69967019Y-113139020D02*
X70014638Y-113043782D01*
X70014638Y-113043782D02*
X70062257Y-112996163D01*
X70062257Y-112996163D02*
X70157495Y-112948544D01*
X70157495Y-112948544D02*
X70347971Y-112900925D01*
X70347971Y-112900925D02*
X70586066Y-112900925D01*
X70586066Y-112900925D02*
X70776542Y-112948544D01*
X70776542Y-112948544D02*
X70871780Y-112996163D01*
X70871780Y-112996163D02*
X70919400Y-113043782D01*
X70919400Y-113043782D02*
X70967019Y-113139020D01*
X70967019Y-113139020D02*
X70967019Y-113234258D01*
X70967019Y-113234258D02*
X70919400Y-113329496D01*
X70919400Y-113329496D02*
X70871780Y-113377115D01*
X70871780Y-113377115D02*
X70776542Y-113424734D01*
X70776542Y-113424734D02*
X70586066Y-113472353D01*
X70586066Y-113472353D02*
X70347971Y-113472353D01*
X70347971Y-113472353D02*
X70157495Y-113424734D01*
X70157495Y-113424734D02*
X70062257Y-113377115D01*
X70062257Y-113377115D02*
X70014638Y-113329496D01*
X70014638Y-113329496D02*
X69967019Y-113234258D01*
X70967019Y-112472353D02*
X69967019Y-112472353D01*
X70586066Y-112377115D02*
X70967019Y-112091401D01*
X70300352Y-112091401D02*
X70681304Y-112472353D01*
X107695084Y-127101019D02*
X107695084Y-126101019D01*
X107695084Y-126101019D02*
X107933179Y-126101019D01*
X107933179Y-126101019D02*
X108076036Y-126148638D01*
X108076036Y-126148638D02*
X108171274Y-126243876D01*
X108171274Y-126243876D02*
X108218893Y-126339114D01*
X108218893Y-126339114D02*
X108266512Y-126529590D01*
X108266512Y-126529590D02*
X108266512Y-126672447D01*
X108266512Y-126672447D02*
X108218893Y-126862923D01*
X108218893Y-126862923D02*
X108171274Y-126958161D01*
X108171274Y-126958161D02*
X108076036Y-127053400D01*
X108076036Y-127053400D02*
X107933179Y-127101019D01*
X107933179Y-127101019D02*
X107695084Y-127101019D01*
X109076036Y-127053400D02*
X108980798Y-127101019D01*
X108980798Y-127101019D02*
X108790322Y-127101019D01*
X108790322Y-127101019D02*
X108695084Y-127053400D01*
X108695084Y-127053400D02*
X108647465Y-126958161D01*
X108647465Y-126958161D02*
X108647465Y-126577209D01*
X108647465Y-126577209D02*
X108695084Y-126481971D01*
X108695084Y-126481971D02*
X108790322Y-126434352D01*
X108790322Y-126434352D02*
X108980798Y-126434352D01*
X108980798Y-126434352D02*
X109076036Y-126481971D01*
X109076036Y-126481971D02*
X109123655Y-126577209D01*
X109123655Y-126577209D02*
X109123655Y-126672447D01*
X109123655Y-126672447D02*
X108647465Y-126767685D01*
X109552227Y-126434352D02*
X109552227Y-127434352D01*
X109552227Y-126481971D02*
X109647465Y-126434352D01*
X109647465Y-126434352D02*
X109837941Y-126434352D01*
X109837941Y-126434352D02*
X109933179Y-126481971D01*
X109933179Y-126481971D02*
X109980798Y-126529590D01*
X109980798Y-126529590D02*
X110028417Y-126624828D01*
X110028417Y-126624828D02*
X110028417Y-126910542D01*
X110028417Y-126910542D02*
X109980798Y-127005780D01*
X109980798Y-127005780D02*
X109933179Y-127053400D01*
X109933179Y-127053400D02*
X109837941Y-127101019D01*
X109837941Y-127101019D02*
X109647465Y-127101019D01*
X109647465Y-127101019D02*
X109552227Y-127053400D01*
X110314132Y-126434352D02*
X110695084Y-126434352D01*
X110456989Y-126101019D02*
X110456989Y-126958161D01*
X110456989Y-126958161D02*
X110504608Y-127053400D01*
X110504608Y-127053400D02*
X110599846Y-127101019D01*
X110599846Y-127101019D02*
X110695084Y-127101019D01*
X111028418Y-127101019D02*
X111028418Y-126101019D01*
X111456989Y-127101019D02*
X111456989Y-126577209D01*
X111456989Y-126577209D02*
X111409370Y-126481971D01*
X111409370Y-126481971D02*
X111314132Y-126434352D01*
X111314132Y-126434352D02*
X111171275Y-126434352D01*
X111171275Y-126434352D02*
X111076037Y-126481971D01*
X111076037Y-126481971D02*
X111028418Y-126529590D01*
X112647466Y-127053400D02*
X112790323Y-127101019D01*
X112790323Y-127101019D02*
X113028418Y-127101019D01*
X113028418Y-127101019D02*
X113123656Y-127053400D01*
X113123656Y-127053400D02*
X113171275Y-127005780D01*
X113171275Y-127005780D02*
X113218894Y-126910542D01*
X113218894Y-126910542D02*
X113218894Y-126815304D01*
X113218894Y-126815304D02*
X113171275Y-126720066D01*
X113171275Y-126720066D02*
X113123656Y-126672447D01*
X113123656Y-126672447D02*
X113028418Y-126624828D01*
X113028418Y-126624828D02*
X112837942Y-126577209D01*
X112837942Y-126577209D02*
X112742704Y-126529590D01*
X112742704Y-126529590D02*
X112695085Y-126481971D01*
X112695085Y-126481971D02*
X112647466Y-126386733D01*
X112647466Y-126386733D02*
X112647466Y-126291495D01*
X112647466Y-126291495D02*
X112695085Y-126196257D01*
X112695085Y-126196257D02*
X112742704Y-126148638D01*
X112742704Y-126148638D02*
X112837942Y-126101019D01*
X112837942Y-126101019D02*
X113076037Y-126101019D01*
X113076037Y-126101019D02*
X113218894Y-126148638D01*
X114028418Y-127053400D02*
X113933180Y-127101019D01*
X113933180Y-127101019D02*
X113742704Y-127101019D01*
X113742704Y-127101019D02*
X113647466Y-127053400D01*
X113647466Y-127053400D02*
X113599847Y-126958161D01*
X113599847Y-126958161D02*
X113599847Y-126577209D01*
X113599847Y-126577209D02*
X113647466Y-126481971D01*
X113647466Y-126481971D02*
X113742704Y-126434352D01*
X113742704Y-126434352D02*
X113933180Y-126434352D01*
X113933180Y-126434352D02*
X114028418Y-126481971D01*
X114028418Y-126481971D02*
X114076037Y-126577209D01*
X114076037Y-126577209D02*
X114076037Y-126672447D01*
X114076037Y-126672447D02*
X113599847Y-126767685D01*
X114504609Y-126434352D02*
X114504609Y-127101019D01*
X114504609Y-126529590D02*
X114552228Y-126481971D01*
X114552228Y-126481971D02*
X114647466Y-126434352D01*
X114647466Y-126434352D02*
X114790323Y-126434352D01*
X114790323Y-126434352D02*
X114885561Y-126481971D01*
X114885561Y-126481971D02*
X114933180Y-126577209D01*
X114933180Y-126577209D02*
X114933180Y-127101019D01*
X115361752Y-127053400D02*
X115456990Y-127101019D01*
X115456990Y-127101019D02*
X115647466Y-127101019D01*
X115647466Y-127101019D02*
X115742704Y-127053400D01*
X115742704Y-127053400D02*
X115790323Y-126958161D01*
X115790323Y-126958161D02*
X115790323Y-126910542D01*
X115790323Y-126910542D02*
X115742704Y-126815304D01*
X115742704Y-126815304D02*
X115647466Y-126767685D01*
X115647466Y-126767685D02*
X115504609Y-126767685D01*
X115504609Y-126767685D02*
X115409371Y-126720066D01*
X115409371Y-126720066D02*
X115361752Y-126624828D01*
X115361752Y-126624828D02*
X115361752Y-126577209D01*
X115361752Y-126577209D02*
X115409371Y-126481971D01*
X115409371Y-126481971D02*
X115504609Y-126434352D01*
X115504609Y-126434352D02*
X115647466Y-126434352D01*
X115647466Y-126434352D02*
X115742704Y-126481971D01*
X116361752Y-127101019D02*
X116266514Y-127053400D01*
X116266514Y-127053400D02*
X116218895Y-127005780D01*
X116218895Y-127005780D02*
X116171276Y-126910542D01*
X116171276Y-126910542D02*
X116171276Y-126624828D01*
X116171276Y-126624828D02*
X116218895Y-126529590D01*
X116218895Y-126529590D02*
X116266514Y-126481971D01*
X116266514Y-126481971D02*
X116361752Y-126434352D01*
X116361752Y-126434352D02*
X116504609Y-126434352D01*
X116504609Y-126434352D02*
X116599847Y-126481971D01*
X116599847Y-126481971D02*
X116647466Y-126529590D01*
X116647466Y-126529590D02*
X116695085Y-126624828D01*
X116695085Y-126624828D02*
X116695085Y-126910542D01*
X116695085Y-126910542D02*
X116647466Y-127005780D01*
X116647466Y-127005780D02*
X116599847Y-127053400D01*
X116599847Y-127053400D02*
X116504609Y-127101019D01*
X116504609Y-127101019D02*
X116361752Y-127101019D01*
X117123657Y-127101019D02*
X117123657Y-126434352D01*
X117123657Y-126624828D02*
X117171276Y-126529590D01*
X117171276Y-126529590D02*
X117218895Y-126481971D01*
X117218895Y-126481971D02*
X117314133Y-126434352D01*
X117314133Y-126434352D02*
X117409371Y-126434352D01*
X75668865Y-95640057D02*
X75716484Y-95592438D01*
X75716484Y-95592438D02*
X75811722Y-95544819D01*
X75811722Y-95544819D02*
X76049817Y-95544819D01*
X76049817Y-95544819D02*
X76145055Y-95592438D01*
X76145055Y-95592438D02*
X76192674Y-95640057D01*
X76192674Y-95640057D02*
X76240293Y-95735295D01*
X76240293Y-95735295D02*
X76240293Y-95830533D01*
X76240293Y-95830533D02*
X76192674Y-95973390D01*
X76192674Y-95973390D02*
X75621246Y-96544819D01*
X75621246Y-96544819D02*
X76240293Y-96544819D01*
X76621246Y-95640057D02*
X76668865Y-95592438D01*
X76668865Y-95592438D02*
X76764103Y-95544819D01*
X76764103Y-95544819D02*
X77002198Y-95544819D01*
X77002198Y-95544819D02*
X77097436Y-95592438D01*
X77097436Y-95592438D02*
X77145055Y-95640057D01*
X77145055Y-95640057D02*
X77192674Y-95735295D01*
X77192674Y-95735295D02*
X77192674Y-95830533D01*
X77192674Y-95830533D02*
X77145055Y-95973390D01*
X77145055Y-95973390D02*
X76573627Y-96544819D01*
X76573627Y-96544819D02*
X77192674Y-96544819D01*
X78049817Y-95878152D02*
X78049817Y-96544819D01*
X77621246Y-95878152D02*
X77621246Y-96401961D01*
X77621246Y-96401961D02*
X77668865Y-96497200D01*
X77668865Y-96497200D02*
X77764103Y-96544819D01*
X77764103Y-96544819D02*
X77906960Y-96544819D01*
X77906960Y-96544819D02*
X78002198Y-96497200D01*
X78002198Y-96497200D02*
X78049817Y-96449580D01*
X78859341Y-96021009D02*
X78526008Y-96021009D01*
X78526008Y-96544819D02*
X78526008Y-95544819D01*
X78526008Y-95544819D02*
X79002198Y-95544819D01*
X111800819Y-76791525D02*
X111800819Y-77267715D01*
X111800819Y-77267715D02*
X112277009Y-77315334D01*
X112277009Y-77315334D02*
X112229390Y-77267715D01*
X112229390Y-77267715D02*
X112181771Y-77172477D01*
X112181771Y-77172477D02*
X112181771Y-76934382D01*
X112181771Y-76934382D02*
X112229390Y-76839144D01*
X112229390Y-76839144D02*
X112277009Y-76791525D01*
X112277009Y-76791525D02*
X112372247Y-76743906D01*
X112372247Y-76743906D02*
X112610342Y-76743906D01*
X112610342Y-76743906D02*
X112705580Y-76791525D01*
X112705580Y-76791525D02*
X112753200Y-76839144D01*
X112753200Y-76839144D02*
X112800819Y-76934382D01*
X112800819Y-76934382D02*
X112800819Y-77172477D01*
X112800819Y-77172477D02*
X112753200Y-77267715D01*
X112753200Y-77267715D02*
X112705580Y-77315334D01*
X99671865Y-127180400D02*
X99814722Y-127228019D01*
X99814722Y-127228019D02*
X100052817Y-127228019D01*
X100052817Y-127228019D02*
X100148055Y-127180400D01*
X100148055Y-127180400D02*
X100195674Y-127132780D01*
X100195674Y-127132780D02*
X100243293Y-127037542D01*
X100243293Y-127037542D02*
X100243293Y-126942304D01*
X100243293Y-126942304D02*
X100195674Y-126847066D01*
X100195674Y-126847066D02*
X100148055Y-126799447D01*
X100148055Y-126799447D02*
X100052817Y-126751828D01*
X100052817Y-126751828D02*
X99862341Y-126704209D01*
X99862341Y-126704209D02*
X99767103Y-126656590D01*
X99767103Y-126656590D02*
X99719484Y-126608971D01*
X99719484Y-126608971D02*
X99671865Y-126513733D01*
X99671865Y-126513733D02*
X99671865Y-126418495D01*
X99671865Y-126418495D02*
X99719484Y-126323257D01*
X99719484Y-126323257D02*
X99767103Y-126275638D01*
X99767103Y-126275638D02*
X99862341Y-126228019D01*
X99862341Y-126228019D02*
X100100436Y-126228019D01*
X100100436Y-126228019D02*
X100243293Y-126275638D01*
X101052817Y-127180400D02*
X100957579Y-127228019D01*
X100957579Y-127228019D02*
X100767103Y-127228019D01*
X100767103Y-127228019D02*
X100671865Y-127180400D01*
X100671865Y-127180400D02*
X100624246Y-127085161D01*
X100624246Y-127085161D02*
X100624246Y-126704209D01*
X100624246Y-126704209D02*
X100671865Y-126608971D01*
X100671865Y-126608971D02*
X100767103Y-126561352D01*
X100767103Y-126561352D02*
X100957579Y-126561352D01*
X100957579Y-126561352D02*
X101052817Y-126608971D01*
X101052817Y-126608971D02*
X101100436Y-126704209D01*
X101100436Y-126704209D02*
X101100436Y-126799447D01*
X101100436Y-126799447D02*
X100624246Y-126894685D01*
X101529008Y-127228019D02*
X101529008Y-126561352D01*
X101529008Y-126751828D02*
X101576627Y-126656590D01*
X101576627Y-126656590D02*
X101624246Y-126608971D01*
X101624246Y-126608971D02*
X101719484Y-126561352D01*
X101719484Y-126561352D02*
X101814722Y-126561352D01*
X102052818Y-126561352D02*
X102290913Y-127228019D01*
X102290913Y-127228019D02*
X102529008Y-126561352D01*
X103052818Y-127228019D02*
X102957580Y-127180400D01*
X102957580Y-127180400D02*
X102909961Y-127132780D01*
X102909961Y-127132780D02*
X102862342Y-127037542D01*
X102862342Y-127037542D02*
X102862342Y-126751828D01*
X102862342Y-126751828D02*
X102909961Y-126656590D01*
X102909961Y-126656590D02*
X102957580Y-126608971D01*
X102957580Y-126608971D02*
X103052818Y-126561352D01*
X103052818Y-126561352D02*
X103195675Y-126561352D01*
X103195675Y-126561352D02*
X103290913Y-126608971D01*
X103290913Y-126608971D02*
X103338532Y-126656590D01*
X103338532Y-126656590D02*
X103386151Y-126751828D01*
X103386151Y-126751828D02*
X103386151Y-127037542D01*
X103386151Y-127037542D02*
X103338532Y-127132780D01*
X103338532Y-127132780D02*
X103290913Y-127180400D01*
X103290913Y-127180400D02*
X103195675Y-127228019D01*
X103195675Y-127228019D02*
X103052818Y-127228019D01*
X94782293Y-74739038D02*
X94687055Y-74691419D01*
X94687055Y-74691419D02*
X94544198Y-74691419D01*
X94544198Y-74691419D02*
X94401341Y-74739038D01*
X94401341Y-74739038D02*
X94306103Y-74834276D01*
X94306103Y-74834276D02*
X94258484Y-74929514D01*
X94258484Y-74929514D02*
X94210865Y-75119990D01*
X94210865Y-75119990D02*
X94210865Y-75262847D01*
X94210865Y-75262847D02*
X94258484Y-75453323D01*
X94258484Y-75453323D02*
X94306103Y-75548561D01*
X94306103Y-75548561D02*
X94401341Y-75643800D01*
X94401341Y-75643800D02*
X94544198Y-75691419D01*
X94544198Y-75691419D02*
X94639436Y-75691419D01*
X94639436Y-75691419D02*
X94782293Y-75643800D01*
X94782293Y-75643800D02*
X94829912Y-75596180D01*
X94829912Y-75596180D02*
X94829912Y-75262847D01*
X94829912Y-75262847D02*
X94639436Y-75262847D01*
X95258484Y-75691419D02*
X95258484Y-74691419D01*
X95258484Y-74691419D02*
X95829912Y-75691419D01*
X95829912Y-75691419D02*
X95829912Y-74691419D01*
X96306103Y-75691419D02*
X96306103Y-74691419D01*
X96306103Y-74691419D02*
X96544198Y-74691419D01*
X96544198Y-74691419D02*
X96687055Y-74739038D01*
X96687055Y-74739038D02*
X96782293Y-74834276D01*
X96782293Y-74834276D02*
X96829912Y-74929514D01*
X96829912Y-74929514D02*
X96877531Y-75119990D01*
X96877531Y-75119990D02*
X96877531Y-75262847D01*
X96877531Y-75262847D02*
X96829912Y-75453323D01*
X96829912Y-75453323D02*
X96782293Y-75548561D01*
X96782293Y-75548561D02*
X96687055Y-75643800D01*
X96687055Y-75643800D02*
X96544198Y-75691419D01*
X96544198Y-75691419D02*
X96306103Y-75691419D01*
X70690465Y-94776457D02*
X70738084Y-94728838D01*
X70738084Y-94728838D02*
X70833322Y-94681219D01*
X70833322Y-94681219D02*
X71071417Y-94681219D01*
X71071417Y-94681219D02*
X71166655Y-94728838D01*
X71166655Y-94728838D02*
X71214274Y-94776457D01*
X71214274Y-94776457D02*
X71261893Y-94871695D01*
X71261893Y-94871695D02*
X71261893Y-94966933D01*
X71261893Y-94966933D02*
X71214274Y-95109790D01*
X71214274Y-95109790D02*
X70642846Y-95681219D01*
X70642846Y-95681219D02*
X71261893Y-95681219D01*
X71690465Y-95585980D02*
X71738084Y-95633600D01*
X71738084Y-95633600D02*
X71690465Y-95681219D01*
X71690465Y-95681219D02*
X71642846Y-95633600D01*
X71642846Y-95633600D02*
X71690465Y-95585980D01*
X71690465Y-95585980D02*
X71690465Y-95681219D01*
X72119036Y-94776457D02*
X72166655Y-94728838D01*
X72166655Y-94728838D02*
X72261893Y-94681219D01*
X72261893Y-94681219D02*
X72499988Y-94681219D01*
X72499988Y-94681219D02*
X72595226Y-94728838D01*
X72595226Y-94728838D02*
X72642845Y-94776457D01*
X72642845Y-94776457D02*
X72690464Y-94871695D01*
X72690464Y-94871695D02*
X72690464Y-94966933D01*
X72690464Y-94966933D02*
X72642845Y-95109790D01*
X72642845Y-95109790D02*
X72071417Y-95681219D01*
X72071417Y-95681219D02*
X72690464Y-95681219D01*
X73547607Y-95014552D02*
X73547607Y-95681219D01*
X73119036Y-95014552D02*
X73119036Y-95538361D01*
X73119036Y-95538361D02*
X73166655Y-95633600D01*
X73166655Y-95633600D02*
X73261893Y-95681219D01*
X73261893Y-95681219D02*
X73404750Y-95681219D01*
X73404750Y-95681219D02*
X73499988Y-95633600D01*
X73499988Y-95633600D02*
X73547607Y-95585980D01*
X74357131Y-95157409D02*
X74023798Y-95157409D01*
X74023798Y-95681219D02*
X74023798Y-94681219D01*
X74023798Y-94681219D02*
X74499988Y-94681219D01*
X74742219Y-125597553D02*
X74742219Y-124978506D01*
X74742219Y-124978506D02*
X75123171Y-125311839D01*
X75123171Y-125311839D02*
X75123171Y-125168982D01*
X75123171Y-125168982D02*
X75170790Y-125073744D01*
X75170790Y-125073744D02*
X75218409Y-125026125D01*
X75218409Y-125026125D02*
X75313647Y-124978506D01*
X75313647Y-124978506D02*
X75551742Y-124978506D01*
X75551742Y-124978506D02*
X75646980Y-125026125D01*
X75646980Y-125026125D02*
X75694600Y-125073744D01*
X75694600Y-125073744D02*
X75742219Y-125168982D01*
X75742219Y-125168982D02*
X75742219Y-125454696D01*
X75742219Y-125454696D02*
X75694600Y-125549934D01*
X75694600Y-125549934D02*
X75646980Y-125597553D01*
X74742219Y-124645172D02*
X74742219Y-124026125D01*
X74742219Y-124026125D02*
X75123171Y-124359458D01*
X75123171Y-124359458D02*
X75123171Y-124216601D01*
X75123171Y-124216601D02*
X75170790Y-124121363D01*
X75170790Y-124121363D02*
X75218409Y-124073744D01*
X75218409Y-124073744D02*
X75313647Y-124026125D01*
X75313647Y-124026125D02*
X75551742Y-124026125D01*
X75551742Y-124026125D02*
X75646980Y-124073744D01*
X75646980Y-124073744D02*
X75694600Y-124121363D01*
X75694600Y-124121363D02*
X75742219Y-124216601D01*
X75742219Y-124216601D02*
X75742219Y-124502315D01*
X75742219Y-124502315D02*
X75694600Y-124597553D01*
X75694600Y-124597553D02*
X75646980Y-124645172D01*
X75646980Y-123597553D02*
X75694600Y-123549934D01*
X75694600Y-123549934D02*
X75742219Y-123597553D01*
X75742219Y-123597553D02*
X75694600Y-123645172D01*
X75694600Y-123645172D02*
X75646980Y-123597553D01*
X75646980Y-123597553D02*
X75742219Y-123597553D01*
X74837457Y-123168982D02*
X74789838Y-123121363D01*
X74789838Y-123121363D02*
X74742219Y-123026125D01*
X74742219Y-123026125D02*
X74742219Y-122788030D01*
X74742219Y-122788030D02*
X74789838Y-122692792D01*
X74789838Y-122692792D02*
X74837457Y-122645173D01*
X74837457Y-122645173D02*
X74932695Y-122597554D01*
X74932695Y-122597554D02*
X75027933Y-122597554D01*
X75027933Y-122597554D02*
X75170790Y-122645173D01*
X75170790Y-122645173D02*
X75742219Y-123216601D01*
X75742219Y-123216601D02*
X75742219Y-122597554D01*
X75742219Y-122168982D02*
X74742219Y-122168982D01*
X75361266Y-122073744D02*
X75742219Y-121788030D01*
X75075552Y-121788030D02*
X75456504Y-122168982D01*
X104301457Y-77289934D02*
X104253838Y-77242315D01*
X104253838Y-77242315D02*
X104206219Y-77147077D01*
X104206219Y-77147077D02*
X104206219Y-76908982D01*
X104206219Y-76908982D02*
X104253838Y-76813744D01*
X104253838Y-76813744D02*
X104301457Y-76766125D01*
X104301457Y-76766125D02*
X104396695Y-76718506D01*
X104396695Y-76718506D02*
X104491933Y-76718506D01*
X104491933Y-76718506D02*
X104634790Y-76766125D01*
X104634790Y-76766125D02*
X105206219Y-77337553D01*
X105206219Y-77337553D02*
X105206219Y-76718506D01*
X72633493Y-102031219D02*
X72062065Y-102031219D01*
X72347779Y-102031219D02*
X72347779Y-101031219D01*
X72347779Y-101031219D02*
X72252541Y-101174076D01*
X72252541Y-101174076D02*
X72157303Y-101269314D01*
X72157303Y-101269314D02*
X72062065Y-101316933D01*
X73252541Y-101031219D02*
X73347779Y-101031219D01*
X73347779Y-101031219D02*
X73443017Y-101078838D01*
X73443017Y-101078838D02*
X73490636Y-101126457D01*
X73490636Y-101126457D02*
X73538255Y-101221695D01*
X73538255Y-101221695D02*
X73585874Y-101412171D01*
X73585874Y-101412171D02*
X73585874Y-101650266D01*
X73585874Y-101650266D02*
X73538255Y-101840742D01*
X73538255Y-101840742D02*
X73490636Y-101935980D01*
X73490636Y-101935980D02*
X73443017Y-101983600D01*
X73443017Y-101983600D02*
X73347779Y-102031219D01*
X73347779Y-102031219D02*
X73252541Y-102031219D01*
X73252541Y-102031219D02*
X73157303Y-101983600D01*
X73157303Y-101983600D02*
X73109684Y-101935980D01*
X73109684Y-101935980D02*
X73062065Y-101840742D01*
X73062065Y-101840742D02*
X73014446Y-101650266D01*
X73014446Y-101650266D02*
X73014446Y-101412171D01*
X73014446Y-101412171D02*
X73062065Y-101221695D01*
X73062065Y-101221695D02*
X73109684Y-101126457D01*
X73109684Y-101126457D02*
X73157303Y-101078838D01*
X73157303Y-101078838D02*
X73252541Y-101031219D01*
X74443017Y-101364552D02*
X74443017Y-102031219D01*
X74014446Y-101364552D02*
X74014446Y-101888361D01*
X74014446Y-101888361D02*
X74062065Y-101983600D01*
X74062065Y-101983600D02*
X74157303Y-102031219D01*
X74157303Y-102031219D02*
X74300160Y-102031219D01*
X74300160Y-102031219D02*
X74395398Y-101983600D01*
X74395398Y-101983600D02*
X74443017Y-101935980D01*
X75252541Y-101507409D02*
X74919208Y-101507409D01*
X74919208Y-102031219D02*
X74919208Y-101031219D01*
X74919208Y-101031219D02*
X75395398Y-101031219D01*
X109670352Y-76889944D02*
X110337019Y-76889944D01*
X109289400Y-77128039D02*
X110003685Y-77366134D01*
X110003685Y-77366134D02*
X110003685Y-76747087D01*
X72608093Y-110260819D02*
X72036665Y-110260819D01*
X72322379Y-110260819D02*
X72322379Y-109260819D01*
X72322379Y-109260819D02*
X72227141Y-109403676D01*
X72227141Y-109403676D02*
X72131903Y-109498914D01*
X72131903Y-109498914D02*
X72036665Y-109546533D01*
X73227141Y-109260819D02*
X73322379Y-109260819D01*
X73322379Y-109260819D02*
X73417617Y-109308438D01*
X73417617Y-109308438D02*
X73465236Y-109356057D01*
X73465236Y-109356057D02*
X73512855Y-109451295D01*
X73512855Y-109451295D02*
X73560474Y-109641771D01*
X73560474Y-109641771D02*
X73560474Y-109879866D01*
X73560474Y-109879866D02*
X73512855Y-110070342D01*
X73512855Y-110070342D02*
X73465236Y-110165580D01*
X73465236Y-110165580D02*
X73417617Y-110213200D01*
X73417617Y-110213200D02*
X73322379Y-110260819D01*
X73322379Y-110260819D02*
X73227141Y-110260819D01*
X73227141Y-110260819D02*
X73131903Y-110213200D01*
X73131903Y-110213200D02*
X73084284Y-110165580D01*
X73084284Y-110165580D02*
X73036665Y-110070342D01*
X73036665Y-110070342D02*
X72989046Y-109879866D01*
X72989046Y-109879866D02*
X72989046Y-109641771D01*
X72989046Y-109641771D02*
X73036665Y-109451295D01*
X73036665Y-109451295D02*
X73084284Y-109356057D01*
X73084284Y-109356057D02*
X73131903Y-109308438D01*
X73131903Y-109308438D02*
X73227141Y-109260819D01*
X74417617Y-109594152D02*
X74417617Y-110260819D01*
X73989046Y-109594152D02*
X73989046Y-110117961D01*
X73989046Y-110117961D02*
X74036665Y-110213200D01*
X74036665Y-110213200D02*
X74131903Y-110260819D01*
X74131903Y-110260819D02*
X74274760Y-110260819D01*
X74274760Y-110260819D02*
X74369998Y-110213200D01*
X74369998Y-110213200D02*
X74417617Y-110165580D01*
X75227141Y-109737009D02*
X74893808Y-109737009D01*
X74893808Y-110260819D02*
X74893808Y-109260819D01*
X74893808Y-109260819D02*
X75369998Y-109260819D01*
X80517419Y-120762106D02*
X80517419Y-121333534D01*
X80517419Y-121047820D02*
X79517419Y-121047820D01*
X79517419Y-121047820D02*
X79660276Y-121143058D01*
X79660276Y-121143058D02*
X79755514Y-121238296D01*
X79755514Y-121238296D02*
X79803133Y-121333534D01*
X79517419Y-120143058D02*
X79517419Y-120047820D01*
X79517419Y-120047820D02*
X79565038Y-119952582D01*
X79565038Y-119952582D02*
X79612657Y-119904963D01*
X79612657Y-119904963D02*
X79707895Y-119857344D01*
X79707895Y-119857344D02*
X79898371Y-119809725D01*
X79898371Y-119809725D02*
X80136466Y-119809725D01*
X80136466Y-119809725D02*
X80326942Y-119857344D01*
X80326942Y-119857344D02*
X80422180Y-119904963D01*
X80422180Y-119904963D02*
X80469800Y-119952582D01*
X80469800Y-119952582D02*
X80517419Y-120047820D01*
X80517419Y-120047820D02*
X80517419Y-120143058D01*
X80517419Y-120143058D02*
X80469800Y-120238296D01*
X80469800Y-120238296D02*
X80422180Y-120285915D01*
X80422180Y-120285915D02*
X80326942Y-120333534D01*
X80326942Y-120333534D02*
X80136466Y-120381153D01*
X80136466Y-120381153D02*
X79898371Y-120381153D01*
X79898371Y-120381153D02*
X79707895Y-120333534D01*
X79707895Y-120333534D02*
X79612657Y-120285915D01*
X79612657Y-120285915D02*
X79565038Y-120238296D01*
X79565038Y-120238296D02*
X79517419Y-120143058D01*
X80517419Y-119381153D02*
X79517419Y-119381153D01*
X80136466Y-119285915D02*
X80517419Y-119000201D01*
X79850752Y-119000201D02*
X80231704Y-119381153D01*
D11*
X139384819Y-111587333D02*
X140099104Y-111587333D01*
X140099104Y-111587333D02*
X140241961Y-111634952D01*
X140241961Y-111634952D02*
X140337200Y-111730190D01*
X140337200Y-111730190D02*
X140384819Y-111873047D01*
X140384819Y-111873047D02*
X140384819Y-111968285D01*
X139480057Y-111158761D02*
X139432438Y-111111142D01*
X139432438Y-111111142D02*
X139384819Y-111015904D01*
X139384819Y-111015904D02*
X139384819Y-110777809D01*
X139384819Y-110777809D02*
X139432438Y-110682571D01*
X139432438Y-110682571D02*
X139480057Y-110634952D01*
X139480057Y-110634952D02*
X139575295Y-110587333D01*
X139575295Y-110587333D02*
X139670533Y-110587333D01*
X139670533Y-110587333D02*
X139813390Y-110634952D01*
X139813390Y-110634952D02*
X140384819Y-111206380D01*
X140384819Y-111206380D02*
X140384819Y-110587333D01*
X86369580Y-98650666D02*
X86417200Y-98698285D01*
X86417200Y-98698285D02*
X86464819Y-98841142D01*
X86464819Y-98841142D02*
X86464819Y-98936380D01*
X86464819Y-98936380D02*
X86417200Y-99079237D01*
X86417200Y-99079237D02*
X86321961Y-99174475D01*
X86321961Y-99174475D02*
X86226723Y-99222094D01*
X86226723Y-99222094D02*
X86036247Y-99269713D01*
X86036247Y-99269713D02*
X85893390Y-99269713D01*
X85893390Y-99269713D02*
X85702914Y-99222094D01*
X85702914Y-99222094D02*
X85607676Y-99174475D01*
X85607676Y-99174475D02*
X85512438Y-99079237D01*
X85512438Y-99079237D02*
X85464819Y-98936380D01*
X85464819Y-98936380D02*
X85464819Y-98841142D01*
X85464819Y-98841142D02*
X85512438Y-98698285D01*
X85512438Y-98698285D02*
X85560057Y-98650666D01*
X85798152Y-97793523D02*
X86464819Y-97793523D01*
X85417200Y-98031618D02*
X86131485Y-98269713D01*
X86131485Y-98269713D02*
X86131485Y-97650666D01*
X79003580Y-98663666D02*
X79051200Y-98711285D01*
X79051200Y-98711285D02*
X79098819Y-98854142D01*
X79098819Y-98854142D02*
X79098819Y-98949380D01*
X79098819Y-98949380D02*
X79051200Y-99092237D01*
X79051200Y-99092237D02*
X78955961Y-99187475D01*
X78955961Y-99187475D02*
X78860723Y-99235094D01*
X78860723Y-99235094D02*
X78670247Y-99282713D01*
X78670247Y-99282713D02*
X78527390Y-99282713D01*
X78527390Y-99282713D02*
X78336914Y-99235094D01*
X78336914Y-99235094D02*
X78241676Y-99187475D01*
X78241676Y-99187475D02*
X78146438Y-99092237D01*
X78146438Y-99092237D02*
X78098819Y-98949380D01*
X78098819Y-98949380D02*
X78098819Y-98854142D01*
X78098819Y-98854142D02*
X78146438Y-98711285D01*
X78146438Y-98711285D02*
X78194057Y-98663666D01*
X78098819Y-98330332D02*
X78098819Y-97711285D01*
X78098819Y-97711285D02*
X78479771Y-98044618D01*
X78479771Y-98044618D02*
X78479771Y-97901761D01*
X78479771Y-97901761D02*
X78527390Y-97806523D01*
X78527390Y-97806523D02*
X78575009Y-97758904D01*
X78575009Y-97758904D02*
X78670247Y-97711285D01*
X78670247Y-97711285D02*
X78908342Y-97711285D01*
X78908342Y-97711285D02*
X79003580Y-97758904D01*
X79003580Y-97758904D02*
X79051200Y-97806523D01*
X79051200Y-97806523D02*
X79098819Y-97901761D01*
X79098819Y-97901761D02*
X79098819Y-98187475D01*
X79098819Y-98187475D02*
X79051200Y-98282713D01*
X79051200Y-98282713D02*
X79003580Y-98330332D01*
X73504333Y-99130580D02*
X73456714Y-99178200D01*
X73456714Y-99178200D02*
X73313857Y-99225819D01*
X73313857Y-99225819D02*
X73218619Y-99225819D01*
X73218619Y-99225819D02*
X73075762Y-99178200D01*
X73075762Y-99178200D02*
X72980524Y-99082961D01*
X72980524Y-99082961D02*
X72932905Y-98987723D01*
X72932905Y-98987723D02*
X72885286Y-98797247D01*
X72885286Y-98797247D02*
X72885286Y-98654390D01*
X72885286Y-98654390D02*
X72932905Y-98463914D01*
X72932905Y-98463914D02*
X72980524Y-98368676D01*
X72980524Y-98368676D02*
X73075762Y-98273438D01*
X73075762Y-98273438D02*
X73218619Y-98225819D01*
X73218619Y-98225819D02*
X73313857Y-98225819D01*
X73313857Y-98225819D02*
X73456714Y-98273438D01*
X73456714Y-98273438D02*
X73504333Y-98321057D01*
X74456714Y-99225819D02*
X73885286Y-99225819D01*
X74171000Y-99225819D02*
X74171000Y-98225819D01*
X74171000Y-98225819D02*
X74075762Y-98368676D01*
X74075762Y-98368676D02*
X73980524Y-98463914D01*
X73980524Y-98463914D02*
X73885286Y-98511533D01*
X72475333Y-86803819D02*
X71999143Y-86803819D01*
X71999143Y-86803819D02*
X71999143Y-85803819D01*
X73332476Y-86803819D02*
X72761048Y-86803819D01*
X73046762Y-86803819D02*
X73046762Y-85803819D01*
X73046762Y-85803819D02*
X72951524Y-85946676D01*
X72951524Y-85946676D02*
X72856286Y-86041914D01*
X72856286Y-86041914D02*
X72761048Y-86089533D01*
X77555333Y-119545819D02*
X77222000Y-119069628D01*
X76983905Y-119545819D02*
X76983905Y-118545819D01*
X76983905Y-118545819D02*
X77364857Y-118545819D01*
X77364857Y-118545819D02*
X77460095Y-118593438D01*
X77460095Y-118593438D02*
X77507714Y-118641057D01*
X77507714Y-118641057D02*
X77555333Y-118736295D01*
X77555333Y-118736295D02*
X77555333Y-118879152D01*
X77555333Y-118879152D02*
X77507714Y-118974390D01*
X77507714Y-118974390D02*
X77460095Y-119022009D01*
X77460095Y-119022009D02*
X77364857Y-119069628D01*
X77364857Y-119069628D02*
X76983905Y-119069628D01*
X77888667Y-118545819D02*
X78507714Y-118545819D01*
X78507714Y-118545819D02*
X78174381Y-118926771D01*
X78174381Y-118926771D02*
X78317238Y-118926771D01*
X78317238Y-118926771D02*
X78412476Y-118974390D01*
X78412476Y-118974390D02*
X78460095Y-119022009D01*
X78460095Y-119022009D02*
X78507714Y-119117247D01*
X78507714Y-119117247D02*
X78507714Y-119355342D01*
X78507714Y-119355342D02*
X78460095Y-119450580D01*
X78460095Y-119450580D02*
X78412476Y-119498200D01*
X78412476Y-119498200D02*
X78317238Y-119545819D01*
X78317238Y-119545819D02*
X78031524Y-119545819D01*
X78031524Y-119545819D02*
X77936286Y-119498200D01*
X77936286Y-119498200D02*
X77888667Y-119450580D01*
X82686580Y-98650666D02*
X82734200Y-98698285D01*
X82734200Y-98698285D02*
X82781819Y-98841142D01*
X82781819Y-98841142D02*
X82781819Y-98936380D01*
X82781819Y-98936380D02*
X82734200Y-99079237D01*
X82734200Y-99079237D02*
X82638961Y-99174475D01*
X82638961Y-99174475D02*
X82543723Y-99222094D01*
X82543723Y-99222094D02*
X82353247Y-99269713D01*
X82353247Y-99269713D02*
X82210390Y-99269713D01*
X82210390Y-99269713D02*
X82019914Y-99222094D01*
X82019914Y-99222094D02*
X81924676Y-99174475D01*
X81924676Y-99174475D02*
X81829438Y-99079237D01*
X81829438Y-99079237D02*
X81781819Y-98936380D01*
X81781819Y-98936380D02*
X81781819Y-98841142D01*
X81781819Y-98841142D02*
X81829438Y-98698285D01*
X81829438Y-98698285D02*
X81877057Y-98650666D01*
X81781819Y-98317332D02*
X81781819Y-97650666D01*
X81781819Y-97650666D02*
X82781819Y-98079237D01*
X122628819Y-122810494D02*
X121628819Y-122810494D01*
X121628819Y-122810494D02*
X121628819Y-122572399D01*
X121628819Y-122572399D02*
X121676438Y-122429542D01*
X121676438Y-122429542D02*
X121771676Y-122334304D01*
X121771676Y-122334304D02*
X121866914Y-122286685D01*
X121866914Y-122286685D02*
X122057390Y-122239066D01*
X122057390Y-122239066D02*
X122200247Y-122239066D01*
X122200247Y-122239066D02*
X122390723Y-122286685D01*
X122390723Y-122286685D02*
X122485961Y-122334304D01*
X122485961Y-122334304D02*
X122581200Y-122429542D01*
X122581200Y-122429542D02*
X122628819Y-122572399D01*
X122628819Y-122572399D02*
X122628819Y-122810494D01*
X122628819Y-121286685D02*
X122628819Y-121858113D01*
X122628819Y-121572399D02*
X121628819Y-121572399D01*
X121628819Y-121572399D02*
X121771676Y-121667637D01*
X121771676Y-121667637D02*
X121866914Y-121762875D01*
X121866914Y-121762875D02*
X121914533Y-121858113D01*
X91843266Y-117281819D02*
X91843266Y-117996104D01*
X91843266Y-117996104D02*
X91795647Y-118138961D01*
X91795647Y-118138961D02*
X91700409Y-118234200D01*
X91700409Y-118234200D02*
X91557552Y-118281819D01*
X91557552Y-118281819D02*
X91462314Y-118281819D01*
X92224219Y-117281819D02*
X92890885Y-117281819D01*
X92890885Y-117281819D02*
X92462314Y-118281819D01*
X77555333Y-125709819D02*
X77222000Y-125233628D01*
X76983905Y-125709819D02*
X76983905Y-124709819D01*
X76983905Y-124709819D02*
X77364857Y-124709819D01*
X77364857Y-124709819D02*
X77460095Y-124757438D01*
X77460095Y-124757438D02*
X77507714Y-124805057D01*
X77507714Y-124805057D02*
X77555333Y-124900295D01*
X77555333Y-124900295D02*
X77555333Y-125043152D01*
X77555333Y-125043152D02*
X77507714Y-125138390D01*
X77507714Y-125138390D02*
X77460095Y-125186009D01*
X77460095Y-125186009D02*
X77364857Y-125233628D01*
X77364857Y-125233628D02*
X76983905Y-125233628D01*
X77936286Y-124805057D02*
X77983905Y-124757438D01*
X77983905Y-124757438D02*
X78079143Y-124709819D01*
X78079143Y-124709819D02*
X78317238Y-124709819D01*
X78317238Y-124709819D02*
X78412476Y-124757438D01*
X78412476Y-124757438D02*
X78460095Y-124805057D01*
X78460095Y-124805057D02*
X78507714Y-124900295D01*
X78507714Y-124900295D02*
X78507714Y-124995533D01*
X78507714Y-124995533D02*
X78460095Y-125138390D01*
X78460095Y-125138390D02*
X77888667Y-125709819D01*
X77888667Y-125709819D02*
X78507714Y-125709819D01*
X77302580Y-116595666D02*
X77350200Y-116643285D01*
X77350200Y-116643285D02*
X77397819Y-116786142D01*
X77397819Y-116786142D02*
X77397819Y-116881380D01*
X77397819Y-116881380D02*
X77350200Y-117024237D01*
X77350200Y-117024237D02*
X77254961Y-117119475D01*
X77254961Y-117119475D02*
X77159723Y-117167094D01*
X77159723Y-117167094D02*
X76969247Y-117214713D01*
X76969247Y-117214713D02*
X76826390Y-117214713D01*
X76826390Y-117214713D02*
X76635914Y-117167094D01*
X76635914Y-117167094D02*
X76540676Y-117119475D01*
X76540676Y-117119475D02*
X76445438Y-117024237D01*
X76445438Y-117024237D02*
X76397819Y-116881380D01*
X76397819Y-116881380D02*
X76397819Y-116786142D01*
X76397819Y-116786142D02*
X76445438Y-116643285D01*
X76445438Y-116643285D02*
X76493057Y-116595666D01*
X76397819Y-115738523D02*
X76397819Y-115928999D01*
X76397819Y-115928999D02*
X76445438Y-116024237D01*
X76445438Y-116024237D02*
X76493057Y-116071856D01*
X76493057Y-116071856D02*
X76635914Y-116167094D01*
X76635914Y-116167094D02*
X76826390Y-116214713D01*
X76826390Y-116214713D02*
X77207342Y-116214713D01*
X77207342Y-116214713D02*
X77302580Y-116167094D01*
X77302580Y-116167094D02*
X77350200Y-116119475D01*
X77350200Y-116119475D02*
X77397819Y-116024237D01*
X77397819Y-116024237D02*
X77397819Y-115833761D01*
X77397819Y-115833761D02*
X77350200Y-115738523D01*
X77350200Y-115738523D02*
X77302580Y-115690904D01*
X77302580Y-115690904D02*
X77207342Y-115643285D01*
X77207342Y-115643285D02*
X76969247Y-115643285D01*
X76969247Y-115643285D02*
X76874009Y-115690904D01*
X76874009Y-115690904D02*
X76826390Y-115738523D01*
X76826390Y-115738523D02*
X76778771Y-115833761D01*
X76778771Y-115833761D02*
X76778771Y-116024237D01*
X76778771Y-116024237D02*
X76826390Y-116119475D01*
X76826390Y-116119475D02*
X76874009Y-116167094D01*
X76874009Y-116167094D02*
X76969247Y-116214713D01*
X95126666Y-83874819D02*
X95126666Y-84589104D01*
X95126666Y-84589104D02*
X95079047Y-84731961D01*
X95079047Y-84731961D02*
X94983809Y-84827200D01*
X94983809Y-84827200D02*
X94840952Y-84874819D01*
X94840952Y-84874819D02*
X94745714Y-84874819D01*
X96079047Y-83874819D02*
X95602857Y-83874819D01*
X95602857Y-83874819D02*
X95555238Y-84351009D01*
X95555238Y-84351009D02*
X95602857Y-84303390D01*
X95602857Y-84303390D02*
X95698095Y-84255771D01*
X95698095Y-84255771D02*
X95936190Y-84255771D01*
X95936190Y-84255771D02*
X96031428Y-84303390D01*
X96031428Y-84303390D02*
X96079047Y-84351009D01*
X96079047Y-84351009D02*
X96126666Y-84446247D01*
X96126666Y-84446247D02*
X96126666Y-84684342D01*
X96126666Y-84684342D02*
X96079047Y-84779580D01*
X96079047Y-84779580D02*
X96031428Y-84827200D01*
X96031428Y-84827200D02*
X95936190Y-84874819D01*
X95936190Y-84874819D02*
X95698095Y-84874819D01*
X95698095Y-84874819D02*
X95602857Y-84827200D01*
X95602857Y-84827200D02*
X95555238Y-84779580D01*
X100926666Y-117234819D02*
X100926666Y-117949104D01*
X100926666Y-117949104D02*
X100879047Y-118091961D01*
X100879047Y-118091961D02*
X100783809Y-118187200D01*
X100783809Y-118187200D02*
X100640952Y-118234819D01*
X100640952Y-118234819D02*
X100545714Y-118234819D01*
X101831428Y-117568152D02*
X101831428Y-118234819D01*
X101593333Y-117187200D02*
X101355238Y-117901485D01*
X101355238Y-117901485D02*
X101974285Y-117901485D01*
X75705819Y-114165404D02*
X76515342Y-114165404D01*
X76515342Y-114165404D02*
X76610580Y-114117785D01*
X76610580Y-114117785D02*
X76658200Y-114070166D01*
X76658200Y-114070166D02*
X76705819Y-113974928D01*
X76705819Y-113974928D02*
X76705819Y-113784452D01*
X76705819Y-113784452D02*
X76658200Y-113689214D01*
X76658200Y-113689214D02*
X76610580Y-113641595D01*
X76610580Y-113641595D02*
X76515342Y-113593976D01*
X76515342Y-113593976D02*
X75705819Y-113593976D01*
X75801057Y-113165404D02*
X75753438Y-113117785D01*
X75753438Y-113117785D02*
X75705819Y-113022547D01*
X75705819Y-113022547D02*
X75705819Y-112784452D01*
X75705819Y-112784452D02*
X75753438Y-112689214D01*
X75753438Y-112689214D02*
X75801057Y-112641595D01*
X75801057Y-112641595D02*
X75896295Y-112593976D01*
X75896295Y-112593976D02*
X75991533Y-112593976D01*
X75991533Y-112593976D02*
X76134390Y-112641595D01*
X76134390Y-112641595D02*
X76705819Y-113213023D01*
X76705819Y-113213023D02*
X76705819Y-112593976D01*
X125219619Y-119089466D02*
X124743428Y-119422799D01*
X125219619Y-119660894D02*
X124219619Y-119660894D01*
X124219619Y-119660894D02*
X124219619Y-119279942D01*
X124219619Y-119279942D02*
X124267238Y-119184704D01*
X124267238Y-119184704D02*
X124314857Y-119137085D01*
X124314857Y-119137085D02*
X124410095Y-119089466D01*
X124410095Y-119089466D02*
X124552952Y-119089466D01*
X124552952Y-119089466D02*
X124648190Y-119137085D01*
X124648190Y-119137085D02*
X124695809Y-119184704D01*
X124695809Y-119184704D02*
X124743428Y-119279942D01*
X124743428Y-119279942D02*
X124743428Y-119660894D01*
X125219619Y-118137085D02*
X125219619Y-118708513D01*
X125219619Y-118422799D02*
X124219619Y-118422799D01*
X124219619Y-118422799D02*
X124362476Y-118518037D01*
X124362476Y-118518037D02*
X124457714Y-118613275D01*
X124457714Y-118613275D02*
X124505333Y-118708513D01*
X73749933Y-107454380D02*
X73702314Y-107502000D01*
X73702314Y-107502000D02*
X73559457Y-107549619D01*
X73559457Y-107549619D02*
X73464219Y-107549619D01*
X73464219Y-107549619D02*
X73321362Y-107502000D01*
X73321362Y-107502000D02*
X73226124Y-107406761D01*
X73226124Y-107406761D02*
X73178505Y-107311523D01*
X73178505Y-107311523D02*
X73130886Y-107121047D01*
X73130886Y-107121047D02*
X73130886Y-106978190D01*
X73130886Y-106978190D02*
X73178505Y-106787714D01*
X73178505Y-106787714D02*
X73226124Y-106692476D01*
X73226124Y-106692476D02*
X73321362Y-106597238D01*
X73321362Y-106597238D02*
X73464219Y-106549619D01*
X73464219Y-106549619D02*
X73559457Y-106549619D01*
X73559457Y-106549619D02*
X73702314Y-106597238D01*
X73702314Y-106597238D02*
X73749933Y-106644857D01*
X74654695Y-106549619D02*
X74178505Y-106549619D01*
X74178505Y-106549619D02*
X74130886Y-107025809D01*
X74130886Y-107025809D02*
X74178505Y-106978190D01*
X74178505Y-106978190D02*
X74273743Y-106930571D01*
X74273743Y-106930571D02*
X74511838Y-106930571D01*
X74511838Y-106930571D02*
X74607076Y-106978190D01*
X74607076Y-106978190D02*
X74654695Y-107025809D01*
X74654695Y-107025809D02*
X74702314Y-107121047D01*
X74702314Y-107121047D02*
X74702314Y-107359142D01*
X74702314Y-107359142D02*
X74654695Y-107454380D01*
X74654695Y-107454380D02*
X74607076Y-107502000D01*
X74607076Y-107502000D02*
X74511838Y-107549619D01*
X74511838Y-107549619D02*
X74273743Y-107549619D01*
X74273743Y-107549619D02*
X74178505Y-107502000D01*
X74178505Y-107502000D02*
X74130886Y-107454380D01*
X68110819Y-113448666D02*
X67634628Y-113781999D01*
X68110819Y-114020094D02*
X67110819Y-114020094D01*
X67110819Y-114020094D02*
X67110819Y-113639142D01*
X67110819Y-113639142D02*
X67158438Y-113543904D01*
X67158438Y-113543904D02*
X67206057Y-113496285D01*
X67206057Y-113496285D02*
X67301295Y-113448666D01*
X67301295Y-113448666D02*
X67444152Y-113448666D01*
X67444152Y-113448666D02*
X67539390Y-113496285D01*
X67539390Y-113496285D02*
X67587009Y-113543904D01*
X67587009Y-113543904D02*
X67634628Y-113639142D01*
X67634628Y-113639142D02*
X67634628Y-114020094D01*
X67444152Y-112591523D02*
X68110819Y-112591523D01*
X67063200Y-112829618D02*
X67777485Y-113067713D01*
X67777485Y-113067713D02*
X67777485Y-112448666D01*
X73544133Y-103331180D02*
X73496514Y-103378800D01*
X73496514Y-103378800D02*
X73353657Y-103426419D01*
X73353657Y-103426419D02*
X73258419Y-103426419D01*
X73258419Y-103426419D02*
X73115562Y-103378800D01*
X73115562Y-103378800D02*
X73020324Y-103283561D01*
X73020324Y-103283561D02*
X72972705Y-103188323D01*
X72972705Y-103188323D02*
X72925086Y-102997847D01*
X72925086Y-102997847D02*
X72925086Y-102854990D01*
X72925086Y-102854990D02*
X72972705Y-102664514D01*
X72972705Y-102664514D02*
X73020324Y-102569276D01*
X73020324Y-102569276D02*
X73115562Y-102474038D01*
X73115562Y-102474038D02*
X73258419Y-102426419D01*
X73258419Y-102426419D02*
X73353657Y-102426419D01*
X73353657Y-102426419D02*
X73496514Y-102474038D01*
X73496514Y-102474038D02*
X73544133Y-102521657D01*
X73925086Y-102521657D02*
X73972705Y-102474038D01*
X73972705Y-102474038D02*
X74067943Y-102426419D01*
X74067943Y-102426419D02*
X74306038Y-102426419D01*
X74306038Y-102426419D02*
X74401276Y-102474038D01*
X74401276Y-102474038D02*
X74448895Y-102521657D01*
X74448895Y-102521657D02*
X74496514Y-102616895D01*
X74496514Y-102616895D02*
X74496514Y-102712133D01*
X74496514Y-102712133D02*
X74448895Y-102854990D01*
X74448895Y-102854990D02*
X73877467Y-103426419D01*
X73877467Y-103426419D02*
X74496514Y-103426419D01*
X139384819Y-88598333D02*
X140099104Y-88598333D01*
X140099104Y-88598333D02*
X140241961Y-88645952D01*
X140241961Y-88645952D02*
X140337200Y-88741190D01*
X140337200Y-88741190D02*
X140384819Y-88884047D01*
X140384819Y-88884047D02*
X140384819Y-88979285D01*
X140384819Y-87598333D02*
X140384819Y-88169761D01*
X140384819Y-87884047D02*
X139384819Y-87884047D01*
X139384819Y-87884047D02*
X139527676Y-87979285D01*
X139527676Y-87979285D02*
X139622914Y-88074523D01*
X139622914Y-88074523D02*
X139670533Y-88169761D01*
X112256666Y-117034819D02*
X112256666Y-117749104D01*
X112256666Y-117749104D02*
X112209047Y-117891961D01*
X112209047Y-117891961D02*
X112113809Y-117987200D01*
X112113809Y-117987200D02*
X111970952Y-118034819D01*
X111970952Y-118034819D02*
X111875714Y-118034819D01*
X112637619Y-117034819D02*
X113256666Y-117034819D01*
X113256666Y-117034819D02*
X112923333Y-117415771D01*
X112923333Y-117415771D02*
X113066190Y-117415771D01*
X113066190Y-117415771D02*
X113161428Y-117463390D01*
X113161428Y-117463390D02*
X113209047Y-117511009D01*
X113209047Y-117511009D02*
X113256666Y-117606247D01*
X113256666Y-117606247D02*
X113256666Y-117844342D01*
X113256666Y-117844342D02*
X113209047Y-117939580D01*
X113209047Y-117939580D02*
X113161428Y-117987200D01*
X113161428Y-117987200D02*
X113066190Y-118034819D01*
X113066190Y-118034819D02*
X112780476Y-118034819D01*
X112780476Y-118034819D02*
X112685238Y-117987200D01*
X112685238Y-117987200D02*
X112637619Y-117939580D01*
D12*
%TO.C,J6*%
X116357400Y-80127800D02*
X101057400Y-80127800D01*
X116357400Y-80127800D02*
X116357400Y-82787800D01*
X101057400Y-80127800D02*
X101057400Y-82787800D01*
X118957400Y-81457800D02*
X118957400Y-82787800D01*
X118957400Y-82787800D02*
X117627400Y-82787800D01*
X116357400Y-82787800D02*
X101057400Y-82787800D01*
%TO.C,J2*%
X135890000Y-109924000D02*
X92650000Y-109924000D01*
X135890000Y-109924000D02*
X135890000Y-112584000D01*
X92650000Y-109924000D02*
X92650000Y-112584000D01*
X138490000Y-111254000D02*
X138490000Y-112584000D01*
X138490000Y-112584000D02*
X137160000Y-112584000D01*
X135890000Y-112584000D02*
X92650000Y-112584000D01*
%TO.C,C4*%
X85090000Y-98343420D02*
X85090000Y-98624580D01*
X84070000Y-98343420D02*
X84070000Y-98624580D01*
%TO.C,C3*%
X77724000Y-98356420D02*
X77724000Y-98637580D01*
X76704000Y-98356420D02*
X76704000Y-98637580D01*
%TO.C,C1*%
X73530420Y-100711000D02*
X73811580Y-100711000D01*
X73530420Y-99691000D02*
X73811580Y-99691000D01*
%TO.C,L1*%
X69182000Y-88599000D02*
X69182000Y-87749000D01*
X69182000Y-93299000D02*
X69182000Y-92499000D01*
X69792000Y-87139000D02*
X75492000Y-87139000D01*
X75492000Y-93959000D02*
X69842000Y-93959000D01*
X76102000Y-87749000D02*
X76102000Y-88599000D01*
X76102000Y-92499000D02*
X76102000Y-93349000D01*
X69182000Y-87749000D02*
G75*
G02*
X69792000Y-87139000I610000J0D01*
G01*
X69842000Y-93959000D02*
G75*
G02*
X69182000Y-93299000I2J660002D01*
G01*
X75492000Y-87139000D02*
G75*
G02*
X76102000Y-87749000I0J-610000D01*
G01*
X76102000Y-93349000D02*
G75*
G02*
X75492000Y-93959000I-610000J0D01*
G01*
%TO.C,R3*%
X77484742Y-119998500D02*
X77959258Y-119998500D01*
X77484742Y-121043500D02*
X77959258Y-121043500D01*
%TO.C,C7*%
X80387000Y-98343420D02*
X80387000Y-98624580D01*
X81407000Y-98343420D02*
X81407000Y-98624580D01*
%TO.C,D1*%
X122515000Y-118662500D02*
X122515000Y-120947500D01*
X122515000Y-120947500D02*
X123985000Y-120947500D01*
X123985000Y-120947500D02*
X123985000Y-118662500D01*
%TO.C,J7*%
X89266600Y-118827000D02*
X89266600Y-125567000D01*
X89266600Y-118827000D02*
X95086600Y-118827000D01*
X89266600Y-120547000D02*
X95086600Y-120547000D01*
X89266600Y-123647000D02*
X95086600Y-123647000D01*
X89266600Y-124647000D02*
X95086600Y-124647000D01*
X89266600Y-125567000D02*
X90606600Y-125567000D01*
X91206600Y-125567000D02*
X95086600Y-125567000D01*
X95086600Y-118827000D02*
X95086600Y-125567000D01*
X91346600Y-126177000D02*
X90466600Y-126177000D01*
X90906600Y-125567000D01*
X91346600Y-126177000D01*
G36*
X91346600Y-126177000D02*
G01*
X90466600Y-126177000D01*
X90906600Y-125567000D01*
X91346600Y-126177000D01*
G37*
%TO.C,R2*%
X77959258Y-123302500D02*
X77484742Y-123302500D01*
X77959258Y-124347500D02*
X77484742Y-124347500D01*
%TO.C,C6*%
X77743000Y-116536836D02*
X77743000Y-116321164D01*
X78463000Y-116536836D02*
X78463000Y-116321164D01*
%TO.C,J5*%
X91280000Y-83420000D02*
X91280000Y-76680000D01*
X97700000Y-76680000D02*
X91280000Y-76680000D01*
X99640000Y-76680000D02*
X98300000Y-76680000D01*
X99640000Y-77600000D02*
X91280000Y-77600000D01*
X99640000Y-78600000D02*
X91280000Y-78600000D01*
X99640000Y-81700000D02*
X91280000Y-81700000D01*
X99640000Y-83420000D02*
X91280000Y-83420000D01*
X99640000Y-83420000D02*
X99640000Y-76680000D01*
X98000000Y-76680000D02*
X97560000Y-76070000D01*
X98440000Y-76070000D01*
X98000000Y-76680000D01*
G36*
X98000000Y-76680000D02*
G01*
X97560000Y-76070000D01*
X98440000Y-76070000D01*
X98000000Y-76680000D01*
G37*
%TO.C,J4*%
X97080000Y-118780000D02*
X97080000Y-125520000D01*
X97080000Y-118780000D02*
X105440000Y-118780000D01*
X97080000Y-120500000D02*
X105440000Y-120500000D01*
X97080000Y-123600000D02*
X105440000Y-123600000D01*
X97080000Y-124600000D02*
X105440000Y-124600000D01*
X97080000Y-125520000D02*
X98420000Y-125520000D01*
X99020000Y-125520000D02*
X105440000Y-125520000D01*
X105440000Y-118780000D02*
X105440000Y-125520000D01*
X99160000Y-126130000D02*
X98280000Y-126130000D01*
X98720000Y-125520000D01*
X99160000Y-126130000D01*
G36*
X99160000Y-126130000D02*
G01*
X98280000Y-126130000D01*
X98720000Y-125520000D01*
X99160000Y-126130000D01*
G37*
%TO.C,U2*%
X72291000Y-113403500D02*
X72291000Y-112603500D01*
X72291000Y-113403500D02*
X72291000Y-114203500D01*
X75411000Y-113403500D02*
X75411000Y-112603500D01*
X75411000Y-113403500D02*
X75411000Y-114203500D01*
X75691000Y-112343500D02*
X75361000Y-112103500D01*
X75691000Y-111863500D01*
X75691000Y-112343500D01*
G36*
X75691000Y-112343500D02*
G01*
X75361000Y-112103500D01*
X75691000Y-111863500D01*
X75691000Y-112343500D01*
G37*
%TO.C,R1*%
X120227500Y-120937742D02*
X120227500Y-121412258D01*
X121272500Y-120937742D02*
X121272500Y-121412258D01*
%TO.C,C5*%
X73808764Y-107894800D02*
X74024436Y-107894800D01*
X73808764Y-108614800D02*
X74024436Y-108614800D01*
%TO.C,R4*%
X68563500Y-113519258D02*
X68563500Y-113044742D01*
X69608500Y-113519258D02*
X69608500Y-113044742D01*
%TO.C,C2*%
X73530420Y-103755000D02*
X73811580Y-103755000D01*
X73530420Y-104775000D02*
X73811580Y-104775000D01*
%TO.C,J1*%
X135890000Y-89595000D02*
X92650000Y-89595000D01*
X138490000Y-89595000D02*
X137160000Y-89595000D01*
X138490000Y-88265000D02*
X138490000Y-89595000D01*
X92650000Y-86935000D02*
X92650000Y-89595000D01*
X135890000Y-86935000D02*
X135890000Y-89595000D01*
X135890000Y-86935000D02*
X92650000Y-86935000D01*
%TO.C,J3*%
X107140000Y-118580000D02*
X107140000Y-125320000D01*
X107140000Y-118580000D02*
X118040000Y-118580000D01*
X107140000Y-120300000D02*
X118040000Y-120300000D01*
X107140000Y-123400000D02*
X118040000Y-123400000D01*
X107140000Y-124400000D02*
X118040000Y-124400000D01*
X107140000Y-125320000D02*
X108480000Y-125320000D01*
X109080000Y-125320000D02*
X118040000Y-125320000D01*
X118040000Y-118580000D02*
X118040000Y-125320000D01*
X109220000Y-125930000D02*
X108340000Y-125930000D01*
X108780000Y-125320000D01*
X109220000Y-125930000D01*
G36*
X109220000Y-125930000D02*
G01*
X108340000Y-125930000D01*
X108780000Y-125320000D01*
X109220000Y-125930000D01*
G37*
%TD*%
M02*
