%TF.GenerationSoftware,KiCad,Pcbnew,8.99.0-3334-g98ae574c78*%
%TF.CreationDate,2024-12-15T17:17:25-05:00*%
%TF.ProjectId,SmartPowerBoard,536d6172-7450-46f7-9765-72426f617264,rev?*%
%TF.SameCoordinates,Original*%
%TF.FileFunction,Other,User*%
%FSLAX46Y46*%
G04 Gerber Fmt 4.6, Leading zero omitted, Abs format (unit mm)*
G04 Created by KiCad (PCBNEW 8.99.0-3334-g98ae574c78) date 2024-12-15 17:17:25*
%MOMM*%
%LPD*%
G01*
G04 APERTURE LIST*
%ADD10C,0.050000*%
%ADD11C,0.100000*%
%ADD12C,0.127000*%
G04 APERTURE END LIST*
D10*
%TO.C,C27*%
X149060000Y-82780000D02*
X147240000Y-82780000D01*
X149060000Y-81860000D02*
X149060000Y-82780000D01*
X147240000Y-82780000D02*
X147240000Y-81860000D01*
X147240000Y-81860000D02*
X149060000Y-81860000D01*
%TO.C,C6*%
X165930000Y-82860000D02*
X164110000Y-82860000D01*
X165930000Y-81940000D02*
X165930000Y-82860000D01*
X164110000Y-82860000D02*
X164110000Y-81940000D01*
X164110000Y-81940000D02*
X165930000Y-81940000D01*
%TO.C,R10*%
X183828750Y-77027500D02*
X184768750Y-77027500D01*
X183828750Y-78887500D02*
X183828750Y-77027500D01*
X184768750Y-77027500D02*
X184768750Y-78887500D01*
X184768750Y-78887500D02*
X183828750Y-78887500D01*
%TO.C,R2*%
X161610000Y-81020000D02*
X163470000Y-81020000D01*
X161610000Y-81960000D02*
X161610000Y-81020000D01*
X163470000Y-81020000D02*
X163470000Y-81960000D01*
X163470000Y-81960000D02*
X161610000Y-81960000D01*
%TO.C,U5*%
X144640000Y-75645000D02*
X148890000Y-75645000D01*
X144640000Y-79895000D02*
X144640000Y-75645000D01*
X148890000Y-75645000D02*
X148890000Y-79895000D01*
X148890000Y-79895000D02*
X144640000Y-79895000D01*
%TO.C,R20*%
X171685000Y-93030000D02*
X173545000Y-93030000D01*
X171685000Y-93970000D02*
X171685000Y-93030000D01*
X173545000Y-93030000D02*
X173545000Y-93970000D01*
X173545000Y-93970000D02*
X171685000Y-93970000D01*
%TO.C,C24*%
X146915000Y-73770000D02*
X147835000Y-73770000D01*
X146915000Y-75590000D02*
X146915000Y-73770000D01*
X147835000Y-73770000D02*
X147835000Y-75590000D01*
X147835000Y-75590000D02*
X146915000Y-75590000D01*
%TO.C,C32*%
X180820000Y-77265000D02*
X182640000Y-77265000D01*
X180820000Y-78185000D02*
X180820000Y-77265000D01*
X182640000Y-77265000D02*
X182640000Y-78185000D01*
X182640000Y-78185000D02*
X180820000Y-78185000D01*
%TO.C,R19*%
X178350000Y-98180000D02*
X180210000Y-98180000D01*
X178350000Y-99120000D02*
X178350000Y-98180000D01*
X180210000Y-98180000D02*
X180210000Y-99120000D01*
X180210000Y-99120000D02*
X178350000Y-99120000D01*
%TO.C,R26*%
X148945000Y-77800000D02*
X149885000Y-77800000D01*
X148945000Y-79660000D02*
X148945000Y-77800000D01*
X149885000Y-77800000D02*
X149885000Y-79660000D01*
X149885000Y-79660000D02*
X148945000Y-79660000D01*
%TO.C,C45*%
X165540000Y-91515000D02*
X167360000Y-91515000D01*
X165540000Y-92435000D02*
X165540000Y-91515000D01*
X167360000Y-91515000D02*
X167360000Y-92435000D01*
X167360000Y-92435000D02*
X165540000Y-92435000D01*
%TO.C,L1*%
X167750000Y-73625000D02*
X175150000Y-73625000D01*
X167750000Y-82675000D02*
X167750000Y-73625000D01*
X175150000Y-73625000D02*
X175150000Y-82675000D01*
X175150000Y-82675000D02*
X167750000Y-82675000D01*
%TO.C,C36*%
X178415000Y-84935000D02*
X179335000Y-84935000D01*
X178415000Y-86755000D02*
X178415000Y-84935000D01*
X179335000Y-84935000D02*
X179335000Y-86755000D01*
X179335000Y-86755000D02*
X178415000Y-86755000D01*
%TO.C,C30*%
X145920000Y-82800000D02*
X147380000Y-82800000D01*
X145920000Y-85760000D02*
X145920000Y-82800000D01*
X147380000Y-82800000D02*
X147380000Y-85760000D01*
X147380000Y-85760000D02*
X145920000Y-85760000D01*
%TO.C,C37*%
X179365000Y-84935000D02*
X180285000Y-84935000D01*
X179365000Y-86755000D02*
X179365000Y-84935000D01*
X180285000Y-84935000D02*
X180285000Y-86755000D01*
X180285000Y-86755000D02*
X179365000Y-86755000D01*
%TO.C,U8*%
X165550000Y-88280000D02*
X165550000Y-91270000D01*
X165550000Y-91270000D02*
X166630000Y-91270000D01*
X166630000Y-88075000D02*
X166630000Y-88280000D01*
X166630000Y-88280000D02*
X165550000Y-88280000D01*
X166630000Y-91270000D02*
X166630000Y-91475000D01*
X166630000Y-91475000D02*
X168730000Y-91475000D01*
X168730000Y-88075000D02*
X166630000Y-88075000D01*
X168730000Y-88280000D02*
X168730000Y-88075000D01*
X168730000Y-91270000D02*
X169810000Y-91270000D01*
X168730000Y-91475000D02*
X168730000Y-91270000D01*
X169810000Y-88280000D02*
X168730000Y-88280000D01*
X169810000Y-91270000D02*
X169810000Y-88280000D01*
%TO.C,R34*%
X175505000Y-96085000D02*
X176445000Y-96085000D01*
X175505000Y-97945000D02*
X175505000Y-96085000D01*
X176445000Y-96085000D02*
X176445000Y-97945000D01*
X176445000Y-97945000D02*
X175505000Y-97945000D01*
%TO.C,C31*%
X144420000Y-82800000D02*
X145880000Y-82800000D01*
X144420000Y-85760000D02*
X144420000Y-82800000D01*
X145880000Y-82800000D02*
X145880000Y-85760000D01*
X145880000Y-85760000D02*
X144420000Y-85760000D01*
%TO.C,C12*%
X180335000Y-84937500D02*
X181255000Y-84937500D01*
X180335000Y-86757500D02*
X180335000Y-84937500D01*
X181255000Y-84937500D02*
X181255000Y-86757500D01*
X181255000Y-86757500D02*
X180335000Y-86757500D01*
%TO.C,C28*%
X148920000Y-82825000D02*
X150380000Y-82825000D01*
X148920000Y-85785000D02*
X148920000Y-82825000D01*
X150380000Y-82825000D02*
X150380000Y-85785000D01*
X150380000Y-85785000D02*
X148920000Y-85785000D01*
%TO.C,R1*%
X161610000Y-80030000D02*
X163470000Y-80030000D01*
X161610000Y-80970000D02*
X161610000Y-80030000D01*
X163470000Y-80030000D02*
X163470000Y-80970000D01*
X163470000Y-80970000D02*
X161610000Y-80970000D01*
%TO.C,C5*%
X165804663Y-75686885D02*
X166724663Y-75686885D01*
X165804663Y-77506885D02*
X165804663Y-75686885D01*
X166724663Y-75686885D02*
X166724663Y-77506885D01*
X166724663Y-77506885D02*
X165804663Y-77506885D01*
%TO.C,R33*%
X163645000Y-88305000D02*
X165505000Y-88305000D01*
X163645000Y-89245000D02*
X163645000Y-88305000D01*
X165505000Y-88305000D02*
X165505000Y-89245000D01*
X165505000Y-89245000D02*
X163645000Y-89245000D01*
%TO.C,J6*%
X132185000Y-94830000D02*
X146965000Y-94830000D01*
X132185000Y-110520000D02*
X132185000Y-94830000D01*
X146965000Y-94830000D02*
X146965000Y-110520000D01*
X146965000Y-110520000D02*
X132185000Y-110520000D01*
%TO.C,U1*%
X152632500Y-89445000D02*
X152632500Y-94705000D01*
X152632500Y-94705000D02*
X157892500Y-94705000D01*
X157892500Y-89445000D02*
X152632500Y-89445000D01*
X157892500Y-94705000D02*
X157892500Y-89445000D01*
%TO.C,C52*%
X188615000Y-100195000D02*
X188615000Y-102015000D01*
X188615000Y-102015000D02*
X189535000Y-102015000D01*
X189535000Y-100195000D02*
X188615000Y-100195000D01*
X189535000Y-102015000D02*
X189535000Y-100195000D01*
%TO.C,C2*%
X162920000Y-72670000D02*
X164380000Y-72670000D01*
X162920000Y-75630000D02*
X162920000Y-72670000D01*
X164380000Y-72670000D02*
X164380000Y-75630000D01*
X164380000Y-75630000D02*
X162920000Y-75630000D01*
%TO.C,U9*%
X188570000Y-82865000D02*
X185210000Y-82865000D01*
X185210000Y-103975000D01*
X188570000Y-103975000D01*
X188570000Y-82865000D01*
%TO.C,R3*%
X165805000Y-77820000D02*
X166745000Y-77820000D01*
X165805000Y-79680000D02*
X165805000Y-77820000D01*
X166745000Y-77820000D02*
X166745000Y-79680000D01*
X166745000Y-79680000D02*
X165805000Y-79680000D01*
D11*
%TO.C,J7*%
X147220000Y-98200000D02*
X169540000Y-98200000D01*
X147220000Y-110200000D02*
X147220000Y-98200000D01*
X169540000Y-98200000D02*
X169540000Y-110200000D01*
X169540000Y-110200000D02*
X147220000Y-110200000D01*
D10*
%TO.C,C34*%
X176390000Y-98040000D02*
X178210000Y-98040000D01*
X176390000Y-98960000D02*
X176390000Y-98040000D01*
X178210000Y-98040000D02*
X178210000Y-98960000D01*
X178210000Y-98960000D02*
X176390000Y-98960000D01*
%TO.C,R11*%
X183803750Y-74077500D02*
X184743750Y-74077500D01*
X183803750Y-75937500D02*
X183803750Y-74077500D01*
X184743750Y-74077500D02*
X184743750Y-75937500D01*
X184743750Y-75937500D02*
X183803750Y-75937500D01*
%TO.C,C50*%
X183215000Y-83765000D02*
X183215000Y-84685000D01*
X183215000Y-84685000D02*
X185035000Y-84685000D01*
X185035000Y-83765000D02*
X183215000Y-83765000D01*
X185035000Y-84685000D02*
X185035000Y-83765000D01*
%TO.C,C12*%
X179760000Y-95947500D02*
X180680000Y-95947500D01*
X179760000Y-97767500D02*
X179760000Y-95947500D01*
X180680000Y-95947500D02*
X180680000Y-97767500D01*
X180680000Y-97767500D02*
X179760000Y-97767500D01*
%TO.C,SW1*%
X138775000Y-86425000D02*
X142175000Y-86425000D01*
X138775000Y-91925000D02*
X138775000Y-86425000D01*
X142175000Y-86425000D02*
X142175000Y-91925000D01*
X142175000Y-91925000D02*
X138775000Y-91925000D01*
%TO.C,R12*%
X178230000Y-74175000D02*
X180090000Y-74175000D01*
X178230000Y-75115000D02*
X178230000Y-74175000D01*
X180090000Y-74175000D02*
X180090000Y-75115000D01*
X180090000Y-75115000D02*
X178230000Y-75115000D01*
%TO.C,C20*%
X180545000Y-78695000D02*
X183505000Y-78695000D01*
X180545000Y-80155000D02*
X180545000Y-78695000D01*
X183505000Y-78695000D02*
X183505000Y-80155000D01*
X183505000Y-80155000D02*
X180545000Y-80155000D01*
%TO.C,R43*%
X183245000Y-85880000D02*
X183245000Y-86820000D01*
X183245000Y-86820000D02*
X185105000Y-86820000D01*
X185105000Y-85880000D02*
X183245000Y-85880000D01*
X185105000Y-86820000D02*
X185105000Y-85880000D01*
D12*
%TO.C,J1*%
X132265358Y-70110000D02*
X132265358Y-84890001D01*
X132265358Y-84890001D02*
X141955343Y-84890001D01*
X141955343Y-70110000D02*
X132265358Y-70110000D01*
X141955343Y-84890001D02*
X141955343Y-70110000D01*
D10*
%TO.C,R14*%
X147235000Y-87705000D02*
X151335000Y-87705000D01*
X147235000Y-94705000D02*
X147235000Y-87705000D01*
X151335000Y-87705000D02*
X151335000Y-94705000D01*
X151335000Y-94705000D02*
X147235000Y-94705000D01*
D11*
%TO.C,L2*%
X150925000Y-73750000D02*
X160225000Y-73750000D01*
X150925000Y-83550000D02*
X150925000Y-73750000D01*
X160225000Y-73750000D02*
X160225000Y-83550000D01*
X160225000Y-83550000D02*
X150925000Y-83550000D01*
D10*
%TO.C,C19*%
X180545000Y-80195000D02*
X183505000Y-80195000D01*
X180545000Y-81655000D02*
X180545000Y-80195000D01*
X183505000Y-80195000D02*
X183505000Y-81655000D01*
X183505000Y-81655000D02*
X180545000Y-81655000D01*
%TO.C,C1*%
X161420000Y-72670000D02*
X162880000Y-72670000D01*
X161420000Y-75630000D02*
X161420000Y-72670000D01*
X162880000Y-72670000D02*
X162880000Y-75630000D01*
X162880000Y-75630000D02*
X161420000Y-75630000D01*
%TO.C,R21*%
X171685000Y-94005000D02*
X173545000Y-94005000D01*
X171685000Y-94945000D02*
X171685000Y-94005000D01*
X173545000Y-94005000D02*
X173545000Y-94945000D01*
X173545000Y-94945000D02*
X171685000Y-94945000D01*
%TO.C,C49*%
X183290000Y-84765000D02*
X183290000Y-85685000D01*
X183290000Y-85685000D02*
X185110000Y-85685000D01*
X185110000Y-84765000D02*
X183290000Y-84765000D01*
X185110000Y-85685000D02*
X185110000Y-84765000D01*
%TO.C,R4*%
X165805000Y-79730000D02*
X166745000Y-79730000D01*
X165805000Y-81590000D02*
X165805000Y-79730000D01*
X166745000Y-79730000D02*
X166745000Y-81590000D01*
X166745000Y-81590000D02*
X165805000Y-81590000D01*
%TO.C,R37*%
X173580000Y-87505000D02*
X174520000Y-87505000D01*
X173580000Y-89365000D02*
X173580000Y-87505000D01*
X174520000Y-87505000D02*
X174520000Y-89365000D01*
X174520000Y-89365000D02*
X173580000Y-89365000D01*
%TO.C,C17*%
X176325000Y-75695000D02*
X177245000Y-75695000D01*
X176325000Y-77515000D02*
X176325000Y-75695000D01*
X177245000Y-75695000D02*
X177245000Y-77515000D01*
X177245000Y-77515000D02*
X176325000Y-77515000D01*
%TO.C,C14*%
X181290000Y-84940000D02*
X182210000Y-84940000D01*
X181290000Y-86760000D02*
X181290000Y-84940000D01*
X182210000Y-84940000D02*
X182210000Y-86760000D01*
X182210000Y-86760000D02*
X181290000Y-86760000D01*
%TO.C,C46*%
X168045000Y-92920000D02*
X171005000Y-92920000D01*
X168045000Y-94380000D02*
X168045000Y-92920000D01*
X171005000Y-92920000D02*
X171005000Y-94380000D01*
X171005000Y-94380000D02*
X168045000Y-94380000D01*
%TO.C,C43*%
X167020000Y-85095000D02*
X168480000Y-85095000D01*
X167020000Y-88055000D02*
X167020000Y-85095000D01*
X168480000Y-85095000D02*
X168480000Y-88055000D01*
X168480000Y-88055000D02*
X167020000Y-88055000D01*
%TO.C,C33*%
X178348750Y-99140000D02*
X180168750Y-99140000D01*
X178348750Y-100060000D02*
X178348750Y-99140000D01*
X180168750Y-99140000D02*
X180168750Y-100060000D01*
X180168750Y-100060000D02*
X178348750Y-100060000D01*
%TO.C,C22*%
X145370000Y-72645000D02*
X146830000Y-72645000D01*
X145370000Y-75605000D02*
X145370000Y-72645000D01*
X146830000Y-72645000D02*
X146830000Y-75605000D01*
X146830000Y-75605000D02*
X145370000Y-75605000D01*
%TO.C,R35*%
X176505000Y-96085000D02*
X177445000Y-96085000D01*
X176505000Y-97945000D02*
X176505000Y-96085000D01*
X177445000Y-96085000D02*
X177445000Y-97945000D01*
X177445000Y-97945000D02*
X176505000Y-97945000D01*
%TO.C,R31*%
X163645000Y-89280000D02*
X165505000Y-89280000D01*
X163645000Y-90220000D02*
X163645000Y-89280000D01*
X165505000Y-89280000D02*
X165505000Y-90220000D01*
X165505000Y-90220000D02*
X163645000Y-90220000D01*
%TO.C,U2*%
X177325000Y-76570000D02*
X177325000Y-78670000D01*
X177325000Y-78670000D02*
X177530000Y-78670000D01*
X177530000Y-75490000D02*
X177530000Y-76570000D01*
X177530000Y-76570000D02*
X177325000Y-76570000D01*
X177530000Y-78670000D02*
X177530000Y-79750000D01*
X177530000Y-79750000D02*
X180520000Y-79750000D01*
X180520000Y-75490000D02*
X177530000Y-75490000D01*
X180520000Y-76570000D02*
X180520000Y-75490000D01*
X180520000Y-78670000D02*
X180725000Y-78670000D01*
X180520000Y-79750000D02*
X180520000Y-78670000D01*
X180725000Y-76570000D02*
X180520000Y-76570000D01*
X180725000Y-78670000D02*
X180725000Y-76570000D01*
%TO.C,C7*%
X163300000Y-82915000D02*
X164760000Y-82915000D01*
X163300000Y-85875000D02*
X163300000Y-82915000D01*
X164760000Y-82915000D02*
X164760000Y-85875000D01*
X164760000Y-85875000D02*
X163300000Y-85875000D01*
%TO.C,C44*%
X168490000Y-85095000D02*
X169410000Y-85095000D01*
X168490000Y-86915000D02*
X168490000Y-85095000D01*
X169410000Y-85095000D02*
X169410000Y-86915000D01*
X169410000Y-86915000D02*
X168490000Y-86915000D01*
%TO.C,C8*%
X164775000Y-82915000D02*
X167735000Y-82915000D01*
X164775000Y-84375000D02*
X164775000Y-82915000D01*
X167735000Y-82915000D02*
X167735000Y-84375000D01*
X167735000Y-84375000D02*
X164775000Y-84375000D01*
%TO.C,C15*%
X182865000Y-87245000D02*
X183785000Y-87245000D01*
X182865000Y-89065000D02*
X182865000Y-87245000D01*
X183785000Y-87245000D02*
X183785000Y-89065000D01*
X183785000Y-89065000D02*
X182865000Y-89065000D01*
%TO.C,C42*%
X165545000Y-85095000D02*
X167005000Y-85095000D01*
X165545000Y-88055000D02*
X165545000Y-85095000D01*
X167005000Y-85095000D02*
X167005000Y-88055000D01*
X167005000Y-88055000D02*
X165545000Y-88055000D01*
%TO.C,SW3*%
X135325000Y-86425000D02*
X138725000Y-86425000D01*
X135325000Y-91925000D02*
X135325000Y-86425000D01*
X138725000Y-86425000D02*
X138725000Y-91925000D01*
X138725000Y-91925000D02*
X135325000Y-91925000D01*
%TO.C,R22*%
X144935000Y-79930000D02*
X146795000Y-79930000D01*
X144935000Y-80870000D02*
X144935000Y-79930000D01*
X146795000Y-79930000D02*
X146795000Y-80870000D01*
X146795000Y-80870000D02*
X144935000Y-80870000D01*
%TO.C,R17*%
X176320000Y-74465000D02*
X178180000Y-74465000D01*
X176320000Y-75405000D02*
X176320000Y-74465000D01*
X178180000Y-74465000D02*
X178180000Y-75405000D01*
X178180000Y-75405000D02*
X176320000Y-75405000D01*
%TO.C,C18*%
X175170000Y-79770000D02*
X176630000Y-79770000D01*
X175170000Y-82730000D02*
X175170000Y-79770000D01*
X176630000Y-79770000D02*
X176630000Y-82730000D01*
X176630000Y-82730000D02*
X175170000Y-82730000D01*
%TO.C,R28*%
X146945000Y-80895000D02*
X148805000Y-80895000D01*
X146945000Y-81835000D02*
X146945000Y-80895000D01*
X148805000Y-80895000D02*
X148805000Y-81835000D01*
X148805000Y-81835000D02*
X146945000Y-81835000D01*
%TO.C,Y1*%
X176500000Y-100060000D02*
X180600000Y-100060000D01*
X176500000Y-103360000D02*
X176500000Y-100060000D01*
X176500000Y-103360000D02*
X180600000Y-103360000D01*
X180600000Y-100060000D02*
X180600000Y-103360000D01*
%TO.C,U6*%
X174570000Y-87295000D02*
X174570000Y-95555000D01*
X174570000Y-95555000D02*
X182830000Y-95555000D01*
X182830000Y-87295000D02*
X174570000Y-87295000D01*
X182830000Y-95555000D02*
X182830000Y-87295000D01*
%TO.C,R16*%
X176320000Y-73490000D02*
X178180000Y-73490000D01*
X176320000Y-74430000D02*
X176320000Y-73490000D01*
X178180000Y-73490000D02*
X178180000Y-74430000D01*
X178180000Y-74430000D02*
X176320000Y-74430000D01*
%TO.C,C40*%
X173615000Y-91945000D02*
X174535000Y-91945000D01*
X173615000Y-93765000D02*
X173615000Y-91945000D01*
X174535000Y-91945000D02*
X174535000Y-93765000D01*
X174535000Y-93765000D02*
X173615000Y-93765000D01*
%TO.C,R39*%
X180700000Y-95595000D02*
X181640000Y-95595000D01*
X180700000Y-97455000D02*
X180700000Y-95595000D01*
X181640000Y-95595000D02*
X181640000Y-97455000D01*
X181640000Y-97455000D02*
X180700000Y-97455000D01*
%TO.C,R40*%
X179428750Y-83302500D02*
X181288750Y-83302500D01*
X179428750Y-84242500D02*
X179428750Y-83302500D01*
X181288750Y-83302500D02*
X181288750Y-84242500D01*
X181288750Y-84242500D02*
X179428750Y-84242500D01*
%TO.C,R13*%
X152812500Y-85625000D02*
X157812500Y-85625000D01*
X152812500Y-88625000D02*
X152812500Y-85625000D01*
X157812500Y-85625000D02*
X157812500Y-88625000D01*
X157812500Y-88625000D02*
X152812500Y-88625000D01*
%TO.C,C26*%
X149935000Y-78090000D02*
X150855000Y-78090000D01*
X149935000Y-79910000D02*
X149935000Y-78090000D01*
X150855000Y-78090000D02*
X150855000Y-79910000D01*
X150855000Y-79910000D02*
X149935000Y-79910000D01*
%TO.C,C29*%
X147420000Y-82825000D02*
X148880000Y-82825000D01*
X147420000Y-85785000D02*
X147420000Y-82825000D01*
X148880000Y-82825000D02*
X148880000Y-85785000D01*
X148880000Y-85785000D02*
X147420000Y-85785000D01*
%TO.C,R29*%
X146945000Y-79930000D02*
X148805000Y-79930000D01*
X146945000Y-80870000D02*
X146945000Y-79930000D01*
X148805000Y-79930000D02*
X148805000Y-80870000D01*
X148805000Y-80870000D02*
X146945000Y-80870000D01*
%TO.C,C13*%
X173365000Y-86015000D02*
X175185000Y-86015000D01*
X173365000Y-86935000D02*
X173365000Y-86015000D01*
X175185000Y-86015000D02*
X175185000Y-86935000D01*
X175185000Y-86935000D02*
X173365000Y-86935000D01*
%TO.C,L4*%
X169900000Y-88250000D02*
X173200000Y-88250000D01*
X169900000Y-92900000D02*
X169900000Y-88250000D01*
X173200000Y-88250000D02*
X173200000Y-92900000D01*
X173200000Y-92900000D02*
X169900000Y-92900000D01*
%TO.C,R7*%
X163885000Y-79980000D02*
X165745000Y-79980000D01*
X163885000Y-80920000D02*
X163885000Y-79980000D01*
X165745000Y-79980000D02*
X165745000Y-80920000D01*
X165745000Y-80920000D02*
X163885000Y-80920000D01*
%TO.C,R38*%
X173580000Y-89405000D02*
X174520000Y-89405000D01*
X173580000Y-91265000D02*
X173580000Y-89405000D01*
X174520000Y-89405000D02*
X174520000Y-91265000D01*
X174520000Y-91265000D02*
X173580000Y-91265000D01*
%TO.C,R36*%
X163645000Y-87330000D02*
X165505000Y-87330000D01*
X163645000Y-88270000D02*
X163645000Y-87330000D01*
X165505000Y-87330000D02*
X165505000Y-88270000D01*
X165505000Y-88270000D02*
X163645000Y-88270000D01*
%TO.C,R27*%
X143380000Y-77780000D02*
X144320000Y-77780000D01*
X143380000Y-79640000D02*
X143380000Y-77780000D01*
X144320000Y-77780000D02*
X144320000Y-79640000D01*
X144320000Y-79640000D02*
X143380000Y-79640000D01*
%TO.C,C47*%
X182730000Y-96300000D02*
X182730000Y-98120000D01*
X182730000Y-98120000D02*
X183650000Y-98120000D01*
X183650000Y-96300000D02*
X182730000Y-96300000D01*
X183650000Y-98120000D02*
X183650000Y-96300000D01*
%TO.C,R5*%
X160270000Y-78080000D02*
X161210000Y-78080000D01*
X160270000Y-79940000D02*
X160270000Y-78080000D01*
X161210000Y-78080000D02*
X161210000Y-79940000D01*
X161210000Y-79940000D02*
X160270000Y-79940000D01*
%TO.C,L3*%
X176637000Y-79765000D02*
X176637000Y-82435000D01*
X180507000Y-79765000D02*
X176637000Y-79765000D01*
X180507000Y-79765000D02*
X180507000Y-82435000D01*
X180507000Y-82435000D02*
X176637000Y-82435000D01*
%TO.C,R42*%
X181860000Y-103045000D02*
X181860000Y-103985000D01*
X181860000Y-103985000D02*
X183720000Y-103985000D01*
X183720000Y-103045000D02*
X181860000Y-103045000D01*
X183720000Y-103985000D02*
X183720000Y-103045000D01*
%TO.C,C35*%
X175390000Y-103435000D02*
X176310000Y-103435000D01*
X175390000Y-105255000D02*
X175390000Y-103435000D01*
X176310000Y-103435000D02*
X176310000Y-105255000D01*
X176310000Y-105255000D02*
X175390000Y-105255000D01*
%TO.C,R8*%
X157927500Y-91985000D02*
X158847500Y-91985000D01*
X157927500Y-93805000D02*
X157927500Y-91985000D01*
X158847500Y-91985000D02*
X158847500Y-93805000D01*
X158847500Y-93805000D02*
X157927500Y-93805000D01*
%TO.C,C48*%
X183680000Y-96300000D02*
X183680000Y-98120000D01*
X183680000Y-98120000D02*
X184600000Y-98120000D01*
X184600000Y-96300000D02*
X183680000Y-96300000D01*
X184600000Y-98120000D02*
X184600000Y-96300000D01*
%TO.C,R9*%
X178230000Y-73200000D02*
X180090000Y-73200000D01*
X178230000Y-74140000D02*
X178230000Y-73200000D01*
X180090000Y-73200000D02*
X180090000Y-74140000D01*
X180090000Y-74140000D02*
X178230000Y-74140000D01*
%TO.C,SW2*%
X142225000Y-86425000D02*
X145625000Y-86425000D01*
X142225000Y-91925000D02*
X142225000Y-86425000D01*
X145625000Y-86425000D02*
X145625000Y-91925000D01*
X145625000Y-91925000D02*
X142225000Y-91925000D01*
%TO.C,R24*%
X144935000Y-80920000D02*
X146795000Y-80920000D01*
X144935000Y-81860000D02*
X144935000Y-80920000D01*
X146795000Y-80920000D02*
X146795000Y-81860000D01*
X146795000Y-81860000D02*
X144935000Y-81860000D01*
%TO.C,U4*%
X161509663Y-75681885D02*
X165759663Y-75681885D01*
X161509663Y-79931885D02*
X161509663Y-75681885D01*
X165759663Y-75681885D02*
X165759663Y-79931885D01*
X165759663Y-79931885D02*
X161509663Y-79931885D01*
%TO.C,U7*%
X169585000Y-95850000D02*
X169585000Y-105150000D01*
X169585000Y-105150000D02*
X175305000Y-105150000D01*
X175305000Y-95850000D02*
X169585000Y-95850000D01*
X175305000Y-105150000D02*
X175305000Y-95850000D01*
%TO.C,J2*%
X184793750Y-81492500D02*
X193733750Y-81492500D01*
X193733750Y-70852500D01*
X184793750Y-70852500D01*
X184793750Y-81492500D01*
%TO.C,C38*%
X178790000Y-95945000D02*
X179710000Y-95945000D01*
X178790000Y-97765000D02*
X178790000Y-95945000D01*
X179710000Y-95945000D02*
X179710000Y-97765000D01*
X179710000Y-97765000D02*
X178790000Y-97765000D01*
%TO.C,C21*%
X152602500Y-94740000D02*
X154422500Y-94740000D01*
X152602500Y-95660000D02*
X152602500Y-94740000D01*
X154422500Y-94740000D02*
X154422500Y-95660000D01*
X154422500Y-95660000D02*
X152602500Y-95660000D01*
%TO.C,C51*%
X188615000Y-102045000D02*
X188615000Y-103865000D01*
X188615000Y-103865000D02*
X189535000Y-103865000D01*
X189535000Y-102045000D02*
X188615000Y-102045000D01*
X189535000Y-103865000D02*
X189535000Y-102045000D01*
%TO.C,R18*%
X183630000Y-92945000D02*
X183630000Y-94805000D01*
X183630000Y-94805000D02*
X184570000Y-94805000D01*
X184570000Y-92945000D02*
X183630000Y-92945000D01*
X184570000Y-94805000D02*
X184570000Y-92945000D01*
%TO.C,R6*%
X163885000Y-80970000D02*
X165745000Y-80970000D01*
X163885000Y-81910000D02*
X163885000Y-80970000D01*
X165745000Y-80970000D02*
X165745000Y-81910000D01*
X165745000Y-81910000D02*
X163885000Y-81910000D01*
%TO.C,C11*%
X177465000Y-84935000D02*
X178385000Y-84935000D01*
X177465000Y-86755000D02*
X177465000Y-84935000D01*
X178385000Y-84935000D02*
X178385000Y-86755000D01*
X178385000Y-86755000D02*
X177465000Y-86755000D01*
%TO.C,R44*%
X181785000Y-107340000D02*
X181785000Y-108280000D01*
X181785000Y-108280000D02*
X183645000Y-108280000D01*
X183645000Y-107340000D02*
X181785000Y-107340000D01*
X183645000Y-108280000D02*
X183645000Y-107340000D01*
%TO.C,C23*%
X143870000Y-72645000D02*
X145330000Y-72645000D01*
X143870000Y-75605000D02*
X143870000Y-72645000D01*
X145330000Y-72645000D02*
X145330000Y-75605000D01*
X145330000Y-75605000D02*
X143870000Y-75605000D01*
%TO.C,R25*%
X148945000Y-79710000D02*
X149885000Y-79710000D01*
X148945000Y-81570000D02*
X148945000Y-79710000D01*
X149885000Y-79710000D02*
X149885000Y-81570000D01*
X149885000Y-81570000D02*
X148945000Y-81570000D01*
%TO.C,C4*%
X166795000Y-77820000D02*
X167715000Y-77820000D01*
X166795000Y-79640000D02*
X166795000Y-77820000D01*
X167715000Y-77820000D02*
X167715000Y-79640000D01*
X167715000Y-79640000D02*
X166795000Y-79640000D01*
%TO.C,C25*%
X148965000Y-75640000D02*
X149885000Y-75640000D01*
X148965000Y-77460000D02*
X148965000Y-75640000D01*
X149885000Y-75640000D02*
X149885000Y-77460000D01*
X149885000Y-77460000D02*
X148965000Y-77460000D01*
%TO.C,C9*%
X161800000Y-82915000D02*
X163260000Y-82915000D01*
X161800000Y-85875000D02*
X161800000Y-82915000D01*
X163260000Y-82915000D02*
X163260000Y-85875000D01*
X163260000Y-85875000D02*
X161800000Y-85875000D01*
%TO.C,C3*%
X164415000Y-73815000D02*
X165335000Y-73815000D01*
X164415000Y-75635000D02*
X164415000Y-73815000D01*
X165335000Y-73815000D02*
X165335000Y-75635000D01*
X165335000Y-75635000D02*
X164415000Y-75635000D01*
%TO.C,C39*%
X183285000Y-91965000D02*
X185105000Y-91965000D01*
X183285000Y-92885000D02*
X183285000Y-91965000D01*
X185105000Y-91965000D02*
X185105000Y-92885000D01*
X185105000Y-92885000D02*
X183285000Y-92885000D01*
%TO.C,R32*%
X163645000Y-90255000D02*
X165505000Y-90255000D01*
X163645000Y-91195000D02*
X163645000Y-90255000D01*
X165505000Y-90255000D02*
X165505000Y-91195000D01*
X165505000Y-91195000D02*
X163645000Y-91195000D01*
%TO.C,C10*%
X160300000Y-82915000D02*
X161760000Y-82915000D01*
X160300000Y-85875000D02*
X160300000Y-82915000D01*
X161760000Y-82915000D02*
X161760000Y-85875000D01*
X161760000Y-85875000D02*
X160300000Y-85875000D01*
%TO.C,R41*%
X181343750Y-83287500D02*
X183203750Y-83287500D01*
X181343750Y-84227500D02*
X181343750Y-83287500D01*
X183203750Y-83287500D02*
X183203750Y-84227500D01*
X183203750Y-84227500D02*
X181343750Y-84227500D01*
%TO.C,R15*%
X159862500Y-89050000D02*
X162862500Y-89050000D01*
X159862500Y-94050000D02*
X159862500Y-89050000D01*
X162862500Y-89050000D02*
X162862500Y-94050000D01*
X162862500Y-94050000D02*
X159862500Y-94050000D01*
%TO.C,C16*%
X182265000Y-84965000D02*
X183185000Y-84965000D01*
X182265000Y-86785000D02*
X182265000Y-84965000D01*
X183185000Y-84965000D02*
X183185000Y-86785000D01*
X183185000Y-86785000D02*
X182265000Y-86785000D01*
%TD*%
M02*
