%TF.GenerationSoftware,KiCad,Pcbnew,8.99.0-3334-g98ae574c78*%
%TF.CreationDate,2024-12-15T17:17:25-05:00*%
%TF.ProjectId,SmartPowerBoard,536d6172-7450-46f7-9765-72426f617264,rev?*%
%TF.SameCoordinates,Original*%
%TF.FileFunction,Soldermask,Bot*%
%TF.FilePolarity,Negative*%
%FSLAX46Y46*%
G04 Gerber Fmt 4.6, Leading zero omitted, Abs format (unit mm)*
G04 Created by KiCad (PCBNEW 8.99.0-3334-g98ae574c78) date 2024-12-15 17:17:25*
%MOMM*%
%LPD*%
G01*
G04 APERTURE LIST*
%ADD10C,1.576200*%
%ADD11C,0.836200*%
%ADD12C,0.010000*%
%ADD13C,3.000000*%
%ADD14R,2.100000X2.100000*%
%ADD15C,2.100000*%
%ADD16C,2.999999*%
%ADD17R,1.520000X1.520000*%
%ADD18C,1.520000*%
%ADD19C,0.650000*%
%ADD20O,2.100000X1.000000*%
%ADD21O,1.800000X1.000000*%
G04 APERTURE END LIST*
D10*
%TO.C,J6*%
X138843100Y-102675000D02*
G75*
G02*
X137266900Y-102675000I-788100J0D01*
G01*
X137266900Y-102675000D02*
G75*
G02*
X138843100Y-102675000I788100J0D01*
G01*
D11*
X142793100Y-99675000D02*
G75*
G02*
X141956900Y-99675000I-418100J0D01*
G01*
X141956900Y-99675000D02*
G75*
G02*
X142793100Y-99675000I418100J0D01*
G01*
X142793100Y-102675000D02*
G75*
G02*
X141956900Y-102675000I-418100J0D01*
G01*
X141956900Y-102675000D02*
G75*
G02*
X142793100Y-102675000I418100J0D01*
G01*
X145793100Y-99675000D02*
G75*
G02*
X144956900Y-99675000I-418100J0D01*
G01*
X144956900Y-99675000D02*
G75*
G02*
X145793100Y-99675000I418100J0D01*
G01*
X145793100Y-102675000D02*
G75*
G02*
X144956900Y-102675000I-418100J0D01*
G01*
X144956900Y-102675000D02*
G75*
G02*
X145793100Y-102675000I418100J0D01*
G01*
X145793100Y-105675000D02*
G75*
G02*
X144956900Y-105675000I-418100J0D01*
G01*
X144956900Y-105675000D02*
G75*
G02*
X145793100Y-105675000I418100J0D01*
G01*
D12*
X143211200Y-106511200D02*
X141538800Y-106511200D01*
X141538800Y-104838800D01*
X143211200Y-104838800D01*
X143211200Y-106511200D01*
G36*
X143211200Y-106511200D02*
G01*
X141538800Y-106511200D01*
X141538800Y-104838800D01*
X143211200Y-104838800D01*
X143211200Y-106511200D01*
G37*
%TD*%
D13*
%TO.C,J6*%
X138055000Y-102675000D03*
%TD*%
D14*
%TO.C,J7*%
X150760000Y-104200000D03*
D15*
X155840000Y-104200000D03*
X160920000Y-104200000D03*
X166000000Y-104200000D03*
%TD*%
D16*
%TO.C,J1*%
X137110352Y-75980001D03*
D17*
X137110352Y-80300000D03*
D18*
X137110352Y-83299999D03*
%TD*%
D19*
%TO.C,J2*%
X186948750Y-79062500D03*
X186948750Y-73282500D03*
D20*
X186448750Y-80492500D03*
D21*
X190628750Y-80492500D03*
D20*
X186448750Y-71852500D03*
D21*
X190628750Y-71852500D03*
%TD*%
M02*
