%TF.GenerationSoftware,KiCad,Pcbnew,7.99.0-957-g18dd623122*%
%TF.CreationDate,2023-07-16T20:13:36+08:00*%
%TF.ProjectId,power,706f7765-722e-46b6-9963-61645f706362,V1.1*%
%TF.SameCoordinates,Original*%
%TF.FileFunction,Copper,L3,Inr*%
%TF.FilePolarity,Positive*%
%FSLAX46Y46*%
G04 Gerber Fmt 4.6, Leading zero omitted, Abs format (unit mm)*
G04 Created by KiCad (PCBNEW 7.99.0-957-g18dd623122) date 2023-07-16 20:13:36*
%MOMM*%
%LPD*%
G01*
G04 APERTURE LIST*
G04 Aperture macros list*
%AMRoundRect*
0 Rectangle with rounded corners*
0 $1 Rounding radius*
0 $2 $3 $4 $5 $6 $7 $8 $9 X,Y pos of 4 corners*
0 Add a 4 corners polygon primitive as box body*
4,1,4,$2,$3,$4,$5,$6,$7,$8,$9,$2,$3,0*
0 Add four circle primitives for the rounded corners*
1,1,$1+$1,$2,$3*
1,1,$1+$1,$4,$5*
1,1,$1+$1,$6,$7*
1,1,$1+$1,$8,$9*
0 Add four rect primitives between the rounded corners*
20,1,$1+$1,$2,$3,$4,$5,0*
20,1,$1+$1,$4,$5,$6,$7,0*
20,1,$1+$1,$6,$7,$8,$9,0*
20,1,$1+$1,$8,$9,$2,$3,0*%
G04 Aperture macros list end*
%TA.AperFunction,ComponentPad*%
%ADD10RoundRect,0.250002X1.599998X-1.599998X1.599998X1.599998X-1.599998X1.599998X-1.599998X-1.599998X0*%
%TD*%
%TA.AperFunction,ComponentPad*%
%ADD11C,3.700000*%
%TD*%
%TA.AperFunction,ComponentPad*%
%ADD12R,1.520000X1.520000*%
%TD*%
%TA.AperFunction,ComponentPad*%
%ADD13C,1.520000*%
%TD*%
%TA.AperFunction,ComponentPad*%
%ADD14C,2.909999*%
%TD*%
%TA.AperFunction,ComponentPad*%
%ADD15R,1.800000X1.800000*%
%TD*%
%TA.AperFunction,ComponentPad*%
%ADD16C,1.800000*%
%TD*%
%TA.AperFunction,ViaPad*%
%ADD17C,0.800000*%
%TD*%
%TA.AperFunction,Conductor*%
%ADD18C,2.540000*%
%TD*%
G04 APERTURE END LIST*
D10*
%TO.N,GND*%
%TO.C,J1*%
X140245200Y-86080600D03*
D11*
%TO.N,/+12V*%
X145745200Y-86080600D03*
%TD*%
D12*
%TO.N,GND*%
%TO.C,J3*%
X135610600Y-104783397D03*
D13*
X135610600Y-101783398D03*
%TO.N,/VIN-*%
X135610600Y-98783399D03*
X135610600Y-95783400D03*
%TO.N,GND*%
X138610599Y-104783397D03*
X138610599Y-101783398D03*
%TO.N,/+3V3*%
X138610599Y-98783399D03*
%TO.N,/VIN-*%
X138610599Y-95783400D03*
D14*
%TO.N,N/C*%
X131290601Y-106933395D03*
X131290601Y-93633402D03*
%TD*%
D15*
%TO.N,/+5V*%
%TO.C,J4*%
X176809400Y-86131400D03*
D16*
%TO.N,GND*%
X181809400Y-86131400D03*
%TD*%
D17*
%TO.N,/VIN-*%
X156971400Y-101625400D03*
X155727400Y-96139000D03*
X159435800Y-97028000D03*
X156951500Y-116789200D03*
X166004000Y-95224600D03*
X160401000Y-95224600D03*
X154787600Y-97028000D03*
X157632400Y-98831400D03*
X158496000Y-98831400D03*
X157632400Y-96139000D03*
X155727400Y-97028000D03*
X156972000Y-99923600D03*
X158496000Y-97028000D03*
X160401000Y-97028000D03*
X156926100Y-114096800D03*
X156692600Y-97942400D03*
X162255200Y-95224600D03*
X154787600Y-98831400D03*
X154787600Y-97942400D03*
X157632400Y-97942400D03*
X161340800Y-98831400D03*
X160401000Y-96139000D03*
X155727400Y-98831400D03*
X157632400Y-97028000D03*
X159435800Y-97942400D03*
X156692600Y-96139000D03*
X158496000Y-96139000D03*
X162255200Y-97942400D03*
X158496000Y-97942400D03*
X156951500Y-117703600D03*
X154787600Y-96139000D03*
X164160200Y-95224600D03*
X154787600Y-95224600D03*
X156692600Y-95224600D03*
X156926100Y-114960400D03*
X160426400Y-94310200D03*
X162255200Y-98831400D03*
X159435800Y-96139000D03*
X158496000Y-95224600D03*
X159435800Y-95224600D03*
X162255200Y-97028000D03*
X157632400Y-95224600D03*
X161340800Y-96139000D03*
X179059600Y-95351600D03*
X157657800Y-94310200D03*
X160401000Y-98831400D03*
X166893000Y-95224600D03*
X162255200Y-96139000D03*
X161340800Y-97942400D03*
X156971400Y-100761800D03*
X180888400Y-95377000D03*
X165115000Y-95224600D03*
X160401000Y-97942400D03*
X156971400Y-102539800D03*
X181752000Y-95377000D03*
X178196000Y-95351600D03*
X177281600Y-95326200D03*
X158521400Y-94310200D03*
X179974000Y-95351600D03*
X156951500Y-115874800D03*
X159435800Y-98831400D03*
X156718000Y-94310200D03*
X161340800Y-95224600D03*
X156692600Y-97028000D03*
X155727400Y-95224600D03*
X167782000Y-95224600D03*
X156927000Y-113182400D03*
X156692600Y-98831400D03*
X161340800Y-97028000D03*
X159461200Y-94310200D03*
X163245800Y-95224600D03*
X155727400Y-97942400D03*
%TO.N,GND*%
X151339000Y-99644200D03*
X181802800Y-101168200D03*
X146181900Y-99644200D03*
X180939200Y-101168200D03*
X162778200Y-112649000D03*
X151339000Y-103251000D03*
X164327600Y-101066600D03*
X146359700Y-116916200D03*
X152075600Y-111760000D03*
X173395400Y-92684600D03*
X180024800Y-101168200D03*
X145856000Y-120933400D03*
X160883450Y-108122750D03*
X183159400Y-112725200D03*
X163692600Y-112649000D03*
X151339000Y-114681000D03*
X169392600Y-100177600D03*
X151339000Y-100558600D03*
X177495200Y-91821000D03*
X167883600Y-101066600D03*
X146359700Y-113309400D03*
X167020000Y-101066600D03*
X171689050Y-91363800D03*
X152202600Y-105384600D03*
X179552600Y-112725200D03*
X150723600Y-90678000D03*
X166105600Y-101066600D03*
X160502600Y-114020600D03*
X182245000Y-112725200D03*
X146181900Y-103251000D03*
X177332400Y-101168200D03*
X176062400Y-100228400D03*
X148548400Y-120933400D03*
X149462800Y-120933400D03*
X151339000Y-113817400D03*
X168938200Y-86116400D03*
X151339000Y-115595400D03*
X151339000Y-102336600D03*
X151339000Y-101422200D03*
X150326400Y-120933400D03*
X146359700Y-115087400D03*
X168910000Y-93776800D03*
X175376600Y-96139000D03*
X151339000Y-104114600D03*
X159105450Y-103677750D03*
X151339000Y-112928400D03*
X151993600Y-89408000D03*
X179110400Y-101168200D03*
X151339000Y-117373400D03*
X160502600Y-110286800D03*
X178246800Y-101168200D03*
X146359700Y-114223800D03*
X151339000Y-116509800D03*
X165470600Y-112649000D03*
X146770400Y-120933400D03*
X161914600Y-112649000D03*
X146359700Y-116001800D03*
X163413200Y-101066600D03*
X146181900Y-102336600D03*
X156189500Y-111226600D03*
X147634000Y-120933400D03*
X180441600Y-112725200D03*
X181330600Y-112725200D03*
X165191200Y-101066600D03*
X170408600Y-82042000D03*
X164607000Y-112649000D03*
X162918400Y-93050600D03*
X146181900Y-101422200D03*
X146181900Y-100558600D03*
X146181900Y-104114600D03*
%TO.N,Net-(C9-Pad2)*%
X170068000Y-94411800D03*
X169291000Y-101955600D03*
%TO.N,/+5V*%
X183184800Y-117246400D03*
X163489400Y-117221000D03*
X156498600Y-120958800D03*
X162625800Y-117221000D03*
X164327600Y-117221000D03*
X159064000Y-120958800D03*
X155635000Y-120958800D03*
X181457600Y-117246400D03*
X166054800Y-117221000D03*
X159927600Y-120958800D03*
X179755800Y-117246400D03*
X161747200Y-117221000D03*
X158200400Y-120958800D03*
X182321200Y-117246400D03*
X180619400Y-117246400D03*
X165191200Y-117221000D03*
X157362200Y-120958800D03*
X178892200Y-117246400D03*
%TO.N,Net-(C25-Pad2)*%
X151085600Y-106354200D03*
X157815100Y-106375200D03*
%TO.N,/+3V3*%
X162610800Y-94030800D03*
X157036000Y-87970600D03*
X141763800Y-104190800D03*
X141762300Y-99741400D03*
X141838500Y-116560600D03*
X141838500Y-115620800D03*
X141762300Y-101494000D03*
X141757400Y-102387400D03*
X161645600Y-94030800D03*
X141838500Y-114757200D03*
X141762300Y-100630400D03*
X141840000Y-117454000D03*
X141838500Y-113893600D03*
X141762300Y-103297400D03*
X141838500Y-113004600D03*
%TO.N,/VIOUT*%
X167338000Y-83322400D03*
%TO.N,/SDA*%
X162991800Y-119913400D03*
X155905200Y-92125800D03*
%TO.N,/SCL*%
X155218400Y-92913200D03*
X162991800Y-120980200D03*
%TO.N,Net-(JP1-A)*%
X159880800Y-89001600D03*
%TD*%
D18*
%TO.N,/+3V3*%
X141762300Y-100860298D02*
X141762300Y-103297400D01*
X139685401Y-98783399D02*
X141762300Y-100860298D01*
X138610599Y-98783399D02*
X139685401Y-98783399D01*
%TD*%
%TA.AperFunction,Conductor*%
%TO.N,GND*%
G36*
X160911945Y-80526748D02*
G01*
X160943827Y-80539100D01*
X160943830Y-80539101D01*
X160952755Y-80540769D01*
X160962742Y-80542162D01*
X160971792Y-80543001D01*
X160971792Y-80543000D01*
X160971793Y-80543001D01*
X160980869Y-80542160D01*
X161011036Y-80539365D01*
X161016759Y-80539100D01*
X179952405Y-80539100D01*
X179998647Y-80539100D01*
X180001351Y-80539159D01*
X180406905Y-80556865D01*
X180412257Y-80557334D01*
X180813381Y-80610143D01*
X180818697Y-80611081D01*
X181213680Y-80698647D01*
X181218892Y-80700043D01*
X181604745Y-80821702D01*
X181609826Y-80823551D01*
X181983612Y-80978378D01*
X181988482Y-80980649D01*
X182347350Y-81167464D01*
X182352028Y-81170166D01*
X182693241Y-81387542D01*
X182697674Y-81390646D01*
X183018634Y-81636927D01*
X183022779Y-81640406D01*
X183321051Y-81913722D01*
X183324877Y-81917548D01*
X183598193Y-82215820D01*
X183601672Y-82219965D01*
X183847953Y-82540925D01*
X183851057Y-82545358D01*
X184068433Y-82886571D01*
X184071139Y-82891257D01*
X184213973Y-83165639D01*
X184257941Y-83250099D01*
X184260225Y-83254997D01*
X184288145Y-83322401D01*
X184415048Y-83628774D01*
X184416899Y-83633859D01*
X184538552Y-84019692D01*
X184539952Y-84024919D01*
X184627518Y-84419902D01*
X184628458Y-84425231D01*
X184681263Y-84826324D01*
X184681735Y-84831715D01*
X184699441Y-85237248D01*
X184699500Y-85239952D01*
X184699500Y-118092164D01*
X184699294Y-118097205D01*
X184681822Y-118310796D01*
X184680088Y-118331996D01*
X184677391Y-118349482D01*
X184626338Y-118573133D01*
X184621181Y-118590056D01*
X184538815Y-118804176D01*
X184531301Y-118820193D01*
X184419309Y-119020400D01*
X184409593Y-119035185D01*
X184270239Y-119217429D01*
X184258517Y-119230681D01*
X184094654Y-119391229D01*
X184081166Y-119402677D01*
X183897737Y-119537089D01*
X183896125Y-119538270D01*
X183881144Y-119547683D01*
X183678677Y-119655568D01*
X183662510Y-119662752D01*
X183446762Y-119740721D01*
X183429737Y-119745532D01*
X183205085Y-119792005D01*
X183187548Y-119794344D01*
X182951932Y-119808779D01*
X182947508Y-119808892D01*
X182896926Y-119808377D01*
X182889825Y-119808900D01*
X165332555Y-119808900D01*
X165177910Y-119839661D01*
X165177898Y-119839664D01*
X165032227Y-119900002D01*
X165032214Y-119900009D01*
X164901111Y-119987610D01*
X164901107Y-119987613D01*
X164789613Y-120099107D01*
X164789610Y-120099111D01*
X164702009Y-120230214D01*
X164702002Y-120230227D01*
X164641664Y-120375898D01*
X164641661Y-120375908D01*
X164617820Y-120495766D01*
X164585435Y-120557677D01*
X164524719Y-120592251D01*
X164495584Y-120595572D01*
X163509558Y-120590649D01*
X163442618Y-120570630D01*
X163422490Y-120554327D01*
X163420085Y-120551922D01*
X163420082Y-120551918D01*
X163420077Y-120551914D01*
X163420076Y-120551913D01*
X163411295Y-120545175D01*
X163370092Y-120488747D01*
X163365937Y-120419001D01*
X163400149Y-120358081D01*
X163411283Y-120348433D01*
X163420082Y-120341682D01*
X163516336Y-120216241D01*
X163540876Y-120156994D01*
X163584718Y-120102590D01*
X163651012Y-120080525D01*
X163667832Y-120081067D01*
X163707733Y-120085078D01*
X163777064Y-120076421D01*
X163833484Y-120060988D01*
X166510406Y-118898064D01*
X166559525Y-118887797D01*
X183494293Y-118849178D01*
X183536971Y-118844598D01*
X183575071Y-118836416D01*
X183587306Y-118833789D01*
X183587320Y-118833785D01*
X183587337Y-118833782D01*
X183596535Y-118831585D01*
X183596538Y-118831583D01*
X183596542Y-118831582D01*
X183677567Y-118789196D01*
X183677566Y-118789196D01*
X183677573Y-118789193D01*
X183730725Y-118743843D01*
X183748817Y-118726386D01*
X183794071Y-118646911D01*
X183814266Y-118580024D01*
X183823031Y-118522195D01*
X183846543Y-115442137D01*
X183842083Y-115397959D01*
X183831037Y-115345843D01*
X183828481Y-115335192D01*
X183828480Y-115335191D01*
X183828480Y-115335189D01*
X183785719Y-115254353D01*
X183785717Y-115254351D01*
X183785717Y-115254350D01*
X183740122Y-115201407D01*
X183722583Y-115183398D01*
X183645619Y-115140040D01*
X183642903Y-115138510D01*
X183642902Y-115138509D01*
X183642901Y-115138509D01*
X183642897Y-115138508D01*
X183642895Y-115138507D01*
X183596349Y-115124687D01*
X183575923Y-115118622D01*
X183575918Y-115118621D01*
X183575917Y-115118621D01*
X183552391Y-115115166D01*
X183518053Y-115110123D01*
X183518051Y-115110122D01*
X183518046Y-115110122D01*
X175589124Y-115086095D01*
X175522145Y-115066208D01*
X175476550Y-115013265D01*
X175465500Y-114962096D01*
X175465500Y-114706400D01*
X183591200Y-114706400D01*
X183591200Y-112217200D01*
X182626000Y-112191800D01*
X182549800Y-99009200D01*
X182575200Y-98577400D01*
X174599600Y-98552000D01*
X174599600Y-98377611D01*
X182450780Y-98387639D01*
X182494598Y-98382970D01*
X182494601Y-98382969D01*
X182494604Y-98382969D01*
X182546216Y-98371775D01*
X182546212Y-98371775D01*
X182546267Y-98371764D01*
X182556573Y-98369249D01*
X182637285Y-98326239D01*
X182690089Y-98280484D01*
X182708043Y-98262893D01*
X182752690Y-98183076D01*
X182772375Y-98116037D01*
X182780700Y-98058139D01*
X182780700Y-95054567D01*
X182776097Y-95011314D01*
X182768682Y-94976872D01*
X182765120Y-94960326D01*
X182765118Y-94960317D01*
X182765111Y-94960287D01*
X182762760Y-94950532D01*
X182762757Y-94950527D01*
X182762757Y-94950525D01*
X182738554Y-94904632D01*
X182720098Y-94869636D01*
X182674571Y-94816636D01*
X182657054Y-94798603D01*
X182657053Y-94798602D01*
X182657052Y-94798601D01*
X182577427Y-94753613D01*
X182577422Y-94753611D01*
X182510482Y-94733644D01*
X182510465Y-94733640D01*
X182452620Y-94725070D01*
X182452609Y-94725069D01*
X178523312Y-94708204D01*
X178456357Y-94688232D01*
X178410830Y-94635232D01*
X178399848Y-94583283D01*
X178434217Y-89995050D01*
X178434215Y-89995049D01*
X178434216Y-89995049D01*
X178434217Y-89995049D01*
X167944486Y-89927008D01*
X167921290Y-94496490D01*
X167901266Y-94563429D01*
X167848230Y-94608915D01*
X167790127Y-94617473D01*
X167790127Y-94618918D01*
X167781998Y-94618918D01*
X167625235Y-94639556D01*
X167596002Y-94651664D01*
X167548022Y-94661100D01*
X167121492Y-94659270D01*
X167074573Y-94649833D01*
X167060988Y-94644206D01*
X167049762Y-94639556D01*
X167049760Y-94639555D01*
X166893001Y-94618918D01*
X166892999Y-94618918D01*
X166736236Y-94639556D01*
X166716119Y-94647888D01*
X166668141Y-94657323D01*
X166223183Y-94655414D01*
X166176265Y-94645977D01*
X166160765Y-94639557D01*
X166160760Y-94639555D01*
X166004001Y-94618918D01*
X166003999Y-94618918D01*
X165847235Y-94639556D01*
X165847233Y-94639557D01*
X165836235Y-94644112D01*
X165788258Y-94653547D01*
X165324874Y-94651558D01*
X165277957Y-94642122D01*
X165271762Y-94639556D01*
X165115001Y-94618918D01*
X165114999Y-94618918D01*
X164958239Y-94639555D01*
X164958234Y-94639557D01*
X164956357Y-94640335D01*
X164952503Y-94641092D01*
X164950387Y-94641660D01*
X164950348Y-94641516D01*
X164908374Y-94649771D01*
X164902834Y-94649748D01*
X164824652Y-94649412D01*
X164824565Y-94649407D01*
X164821819Y-94649400D01*
X164819986Y-94649392D01*
X164819861Y-94649395D01*
X164362392Y-94648282D01*
X164325041Y-94640806D01*
X164324813Y-94641660D01*
X164316960Y-94639555D01*
X164160201Y-94618918D01*
X164160199Y-94618918D01*
X164003435Y-94639556D01*
X163995584Y-94641660D01*
X163995219Y-94640298D01*
X163959769Y-94647302D01*
X163442586Y-94646043D01*
X163410931Y-94639723D01*
X163410413Y-94641660D01*
X163402559Y-94639555D01*
X163245801Y-94618918D01*
X163245797Y-94618918D01*
X163176223Y-94628077D01*
X163107188Y-94617311D01*
X163054933Y-94570930D01*
X163036048Y-94503661D01*
X163056529Y-94436861D01*
X163061649Y-94429671D01*
X163135336Y-94333641D01*
X163195844Y-94187562D01*
X163213708Y-94051868D01*
X163216482Y-94030801D01*
X163216482Y-94030798D01*
X163195844Y-93874039D01*
X163195844Y-93874038D01*
X163135336Y-93727959D01*
X163039082Y-93602518D01*
X162913641Y-93506264D01*
X162879557Y-93492146D01*
X162767562Y-93445756D01*
X162767560Y-93445755D01*
X162610801Y-93425118D01*
X162610799Y-93425118D01*
X162454039Y-93445755D01*
X162454037Y-93445756D01*
X162307957Y-93506264D01*
X162203686Y-93586275D01*
X162138517Y-93611469D01*
X162070072Y-93597431D01*
X162052714Y-93586275D01*
X161948442Y-93506264D01*
X161802362Y-93445756D01*
X161802360Y-93445755D01*
X161645601Y-93425118D01*
X161645599Y-93425118D01*
X161488839Y-93445755D01*
X161488837Y-93445756D01*
X161342760Y-93506263D01*
X161217318Y-93602518D01*
X161121063Y-93727960D01*
X161118794Y-93733439D01*
X161074951Y-93787841D01*
X161008656Y-93809904D01*
X160940957Y-93792623D01*
X160915493Y-93772592D01*
X160914050Y-93771113D01*
X160834319Y-93726312D01*
X160767320Y-93706498D01*
X160709437Y-93698061D01*
X160660468Y-93697966D01*
X155539933Y-93688110D01*
X155472932Y-93668296D01*
X155427279Y-93615404D01*
X155417468Y-93546227D01*
X155446616Y-93482727D01*
X155492718Y-93449550D01*
X155521241Y-93437736D01*
X155646682Y-93341482D01*
X155742936Y-93216041D01*
X155803444Y-93069962D01*
X155824082Y-92913200D01*
X155818133Y-92868013D01*
X155828898Y-92798980D01*
X155875278Y-92746724D01*
X155924886Y-92728890D01*
X156061962Y-92710844D01*
X156208041Y-92650336D01*
X156333482Y-92554082D01*
X156429736Y-92428641D01*
X156490244Y-92282562D01*
X156510882Y-92125800D01*
X156490244Y-91969038D01*
X156429736Y-91822959D01*
X156333482Y-91697518D01*
X156208041Y-91601264D01*
X156061962Y-91540756D01*
X156061960Y-91540755D01*
X155905201Y-91520118D01*
X155905199Y-91520118D01*
X155748439Y-91540755D01*
X155748437Y-91540756D01*
X155602360Y-91601263D01*
X155476918Y-91697518D01*
X155380663Y-91822960D01*
X155320156Y-91969037D01*
X155320155Y-91969039D01*
X155299518Y-92125798D01*
X155299518Y-92125802D01*
X155305466Y-92170986D01*
X155294700Y-92240021D01*
X155248319Y-92292276D01*
X155198713Y-92310109D01*
X155080423Y-92325682D01*
X155061638Y-92328156D01*
X155061637Y-92328156D01*
X154915560Y-92388663D01*
X154790118Y-92484918D01*
X154693863Y-92610360D01*
X154633356Y-92756437D01*
X154633355Y-92756439D01*
X154612718Y-92913198D01*
X154612718Y-92913201D01*
X154633355Y-93069960D01*
X154633356Y-93069962D01*
X154693864Y-93216041D01*
X154790118Y-93341482D01*
X154915559Y-93437736D01*
X154934919Y-93445755D01*
X154941075Y-93448305D01*
X154995478Y-93492146D01*
X155017543Y-93558440D01*
X155000264Y-93626140D01*
X154949127Y-93673750D01*
X154893384Y-93686865D01*
X134566834Y-93647739D01*
X134566833Y-93647739D01*
X134566829Y-93647739D01*
X134522951Y-93652393D01*
X134522936Y-93652396D01*
X134471235Y-93663591D01*
X134471204Y-93663598D01*
X134460826Y-93666129D01*
X134380119Y-93709136D01*
X134380113Y-93709140D01*
X134327304Y-93754899D01*
X134309360Y-93772481D01*
X134309354Y-93772488D01*
X134264711Y-93852298D01*
X134264709Y-93852303D01*
X134245026Y-93919335D01*
X134236700Y-93977242D01*
X134236700Y-99621807D01*
X134241396Y-99665482D01*
X134252603Y-99716997D01*
X134255090Y-99727172D01*
X134255091Y-99727175D01*
X134298099Y-99807883D01*
X134298101Y-99807886D01*
X134343860Y-99860695D01*
X134349120Y-99866063D01*
X134361446Y-99878643D01*
X134361447Y-99878644D01*
X134361449Y-99878645D01*
X134405197Y-99903116D01*
X134441263Y-99923290D01*
X134508302Y-99942975D01*
X134566200Y-99951300D01*
X134566204Y-99951300D01*
X137251296Y-99951300D01*
X137251302Y-99951300D01*
X137287408Y-99948103D01*
X137318318Y-99942586D01*
X137330239Y-99940459D01*
X137330270Y-99940453D01*
X137330305Y-99940447D01*
X137333019Y-99939944D01*
X137416732Y-99903116D01*
X137466620Y-99866061D01*
X137532172Y-99841891D01*
X137600388Y-99856998D01*
X137624535Y-99874375D01*
X137704304Y-99947807D01*
X137908320Y-100081098D01*
X138131492Y-100178990D01*
X138367733Y-100238815D01*
X138549774Y-100253899D01*
X139024938Y-100253899D01*
X139091977Y-100273584D01*
X139112619Y-100290218D01*
X139246841Y-100424440D01*
X139280326Y-100485763D01*
X139275342Y-100555455D01*
X139233470Y-100611388D01*
X139168006Y-100635805D01*
X139106756Y-100624504D01*
X139043188Y-100594862D01*
X139043186Y-100594861D01*
X138830233Y-100537800D01*
X138830225Y-100537799D01*
X138610601Y-100518585D01*
X138610597Y-100518585D01*
X138390972Y-100537799D01*
X138390965Y-100537800D01*
X138178003Y-100594864D01*
X137978193Y-100688038D01*
X137913846Y-100733092D01*
X138469233Y-101288479D01*
X138465438Y-101289025D01*
X138332037Y-101349947D01*
X138221204Y-101445985D01*
X138141917Y-101569358D01*
X138119465Y-101645818D01*
X137560293Y-101086646D01*
X137515239Y-101150992D01*
X137422065Y-101350802D01*
X137365001Y-101563764D01*
X137365000Y-101563771D01*
X137345786Y-101783396D01*
X137345786Y-101783399D01*
X137365000Y-102003024D01*
X137365001Y-102003032D01*
X137422062Y-102215985D01*
X137422065Y-102215991D01*
X137515237Y-102415800D01*
X137560293Y-102480148D01*
X138119465Y-101920977D01*
X138141917Y-101997438D01*
X138221204Y-102120811D01*
X138332037Y-102216849D01*
X138465438Y-102277771D01*
X138469232Y-102278316D01*
X137913846Y-102833702D01*
X137978192Y-102878757D01*
X138178005Y-102971931D01*
X138178011Y-102971934D01*
X138390964Y-103028995D01*
X138390972Y-103028996D01*
X138610597Y-103048211D01*
X138610601Y-103048211D01*
X138830225Y-103028996D01*
X138830233Y-103028995D01*
X139043186Y-102971934D01*
X139043197Y-102971930D01*
X139243001Y-102878760D01*
X139243009Y-102878756D01*
X139307350Y-102833703D01*
X139307350Y-102833702D01*
X138751965Y-102278316D01*
X138755760Y-102277771D01*
X138889161Y-102216849D01*
X138999994Y-102120811D01*
X139079281Y-101997438D01*
X139101732Y-101920977D01*
X139660904Y-102480149D01*
X139705957Y-102415808D01*
X139705961Y-102415800D01*
X139799131Y-102215996D01*
X139799135Y-102215985D01*
X139856196Y-102003032D01*
X139856197Y-102003024D01*
X139875412Y-101783399D01*
X139875412Y-101783396D01*
X139856197Y-101563771D01*
X139856196Y-101563764D01*
X139799132Y-101350802D01*
X139769492Y-101287240D01*
X139759000Y-101218163D01*
X139787519Y-101154379D01*
X139845996Y-101116139D01*
X139915863Y-101115584D01*
X139969555Y-101147154D01*
X140255481Y-101433080D01*
X140288966Y-101494403D01*
X140291800Y-101520761D01*
X140291800Y-103358225D01*
X140305087Y-103518584D01*
X140306884Y-103540267D01*
X140366708Y-103776506D01*
X140464601Y-103999680D01*
X140563459Y-104150992D01*
X140597892Y-104203695D01*
X140762944Y-104382990D01*
X140762947Y-104382992D01*
X140762950Y-104382995D01*
X140830331Y-104435440D01*
X140871144Y-104492150D01*
X140878169Y-104533124D01*
X140896232Y-117808646D01*
X140896232Y-117808652D01*
X140900960Y-117852196D01*
X140908308Y-117885862D01*
X140912165Y-117903532D01*
X140914622Y-117913573D01*
X140953172Y-117985915D01*
X140957631Y-117994283D01*
X140957633Y-117994286D01*
X141003392Y-118047095D01*
X141009243Y-118053066D01*
X141020978Y-118065043D01*
X141020979Y-118065044D01*
X141020981Y-118065045D01*
X141081852Y-118099094D01*
X141100795Y-118109690D01*
X141167834Y-118129375D01*
X141225732Y-118137700D01*
X141225736Y-118137700D01*
X143517891Y-118137700D01*
X143517900Y-118137700D01*
X143561584Y-118133003D01*
X143613095Y-118121797D01*
X143623273Y-118119310D01*
X143703985Y-118076300D01*
X143756789Y-118030545D01*
X143774743Y-118012954D01*
X143819390Y-117933137D01*
X143839075Y-117866098D01*
X143847400Y-117808200D01*
X143847400Y-110489299D01*
X143867085Y-110422261D01*
X143919889Y-110376506D01*
X143971400Y-110365300D01*
X144353100Y-110365300D01*
X144353100Y-117932200D01*
X153751100Y-117906800D01*
X153751100Y-110642400D01*
X154141195Y-110642400D01*
X154139921Y-111226153D01*
X154139920Y-111226599D01*
X154132326Y-114706400D01*
X154125171Y-117985282D01*
X154129818Y-118029187D01*
X154141032Y-118081007D01*
X154143559Y-118091370D01*
X154186570Y-118172083D01*
X154186572Y-118172086D01*
X154232331Y-118224895D01*
X154248877Y-118241782D01*
X154249917Y-118242843D01*
X154249918Y-118242844D01*
X154249920Y-118242845D01*
X154329730Y-118287488D01*
X154329734Y-118287490D01*
X154396773Y-118307175D01*
X154454671Y-118315500D01*
X154454675Y-118315500D01*
X157259264Y-118315500D01*
X157259268Y-118315500D01*
X157302976Y-118310798D01*
X157354517Y-118299579D01*
X157364723Y-118297083D01*
X157445424Y-118254052D01*
X157498216Y-118208283D01*
X157516166Y-118190686D01*
X157560792Y-118110857D01*
X157580459Y-118043813D01*
X157588768Y-117985915D01*
X157588069Y-115303920D01*
X157607736Y-115236878D01*
X157660528Y-115191109D01*
X157711523Y-115179892D01*
X161016985Y-115165457D01*
X161084107Y-115184849D01*
X161130092Y-115237452D01*
X161140668Y-115304003D01*
X161138579Y-115321685D01*
X161138920Y-115335192D01*
X161168759Y-116518866D01*
X161150770Y-116586380D01*
X161111201Y-116626712D01*
X155215574Y-120365104D01*
X155215555Y-120365118D01*
X155183130Y-120390581D01*
X155183128Y-120390582D01*
X155183121Y-120390588D01*
X155183118Y-120390591D01*
X155166753Y-120406340D01*
X155147415Y-120424950D01*
X155141911Y-120430452D01*
X155107142Y-120488161D01*
X155055684Y-120535424D01*
X155000311Y-120548166D01*
X150760600Y-120526999D01*
X150760599Y-120526999D01*
X150772248Y-121209685D01*
X150753710Y-121277050D01*
X150701694Y-121323699D01*
X150648266Y-121335800D01*
X145566191Y-121335800D01*
X145499152Y-121316115D01*
X145453397Y-121263311D01*
X145442204Y-121210022D01*
X145452000Y-120527000D01*
X145447122Y-120522095D01*
X145396802Y-120507792D01*
X145350592Y-120455386D01*
X145341320Y-120427096D01*
X145331137Y-120375903D01*
X145316051Y-120339482D01*
X145270797Y-120230227D01*
X145270790Y-120230214D01*
X145183189Y-120099111D01*
X145183186Y-120099107D01*
X145071692Y-119987613D01*
X145071688Y-119987610D01*
X144940585Y-119900009D01*
X144940572Y-119900002D01*
X144794901Y-119839664D01*
X144794889Y-119839661D01*
X144640245Y-119808900D01*
X144640242Y-119808900D01*
X144617573Y-119808900D01*
X144042573Y-119808900D01*
X134160348Y-119808900D01*
X134157654Y-119808841D01*
X133753801Y-119791282D01*
X133748432Y-119790814D01*
X133348967Y-119738444D01*
X133343659Y-119737512D01*
X132950243Y-119650667D01*
X132945036Y-119649278D01*
X132560649Y-119528617D01*
X132555582Y-119526781D01*
X132254581Y-119402677D01*
X132183111Y-119373209D01*
X132178229Y-119370943D01*
X131820496Y-119185623D01*
X131815823Y-119182939D01*
X131475529Y-118967273D01*
X131471106Y-118964193D01*
X131150803Y-118719795D01*
X131146665Y-118716343D01*
X130933474Y-118522195D01*
X130848794Y-118445078D01*
X130844975Y-118441283D01*
X130571766Y-118145180D01*
X130568287Y-118141064D01*
X130521816Y-118080977D01*
X130344876Y-117852190D01*
X130321814Y-117822371D01*
X130318710Y-117817977D01*
X130100819Y-117479079D01*
X130098109Y-117474432D01*
X129910459Y-117117909D01*
X129908163Y-117113044D01*
X129752163Y-116741576D01*
X129750303Y-116736546D01*
X129627127Y-116352919D01*
X129625709Y-116347739D01*
X129536301Y-115954895D01*
X129535336Y-115949609D01*
X129480359Y-115550458D01*
X129479860Y-115545142D01*
X129459664Y-115141333D01*
X129459591Y-115138739D01*
X129459500Y-115124687D01*
X129459499Y-107445574D01*
X129479185Y-107378535D01*
X129531989Y-107332780D01*
X129601147Y-107322836D01*
X129664703Y-107351861D01*
X129702477Y-107410639D01*
X129704074Y-107416628D01*
X129711256Y-107446547D01*
X129810979Y-107687300D01*
X129947129Y-107909477D01*
X129947130Y-107909478D01*
X129947131Y-107909480D01*
X129947133Y-107909482D01*
X130116367Y-108107629D01*
X130314514Y-108276863D01*
X130314516Y-108276864D01*
X130314517Y-108276865D01*
X130314518Y-108276866D01*
X130536695Y-108413016D01*
X130629799Y-108451581D01*
X130777442Y-108512737D01*
X131030823Y-108573568D01*
X131290601Y-108594013D01*
X131550379Y-108573568D01*
X131803760Y-108512737D01*
X132044506Y-108413016D01*
X132266688Y-108276863D01*
X132464835Y-108107629D01*
X132634069Y-107909482D01*
X132770222Y-107687300D01*
X132869943Y-107446554D01*
X132930774Y-107193173D01*
X132951219Y-106933395D01*
X132930774Y-106673617D01*
X132869943Y-106420236D01*
X132777657Y-106197439D01*
X132770222Y-106179489D01*
X132634072Y-105957312D01*
X132634071Y-105957311D01*
X132634070Y-105957310D01*
X132634069Y-105957308D01*
X132464835Y-105759161D01*
X132268226Y-105591241D01*
X134350600Y-105591241D01*
X134357001Y-105650769D01*
X134357003Y-105650776D01*
X134407245Y-105785483D01*
X134407249Y-105785490D01*
X134493409Y-105900584D01*
X134493412Y-105900587D01*
X134608506Y-105986747D01*
X134608513Y-105986751D01*
X134743220Y-106036993D01*
X134743227Y-106036995D01*
X134802755Y-106043396D01*
X134802772Y-106043397D01*
X135360600Y-106043397D01*
X135360600Y-105229891D01*
X135465439Y-105277770D01*
X135574127Y-105293397D01*
X135647073Y-105293397D01*
X135755761Y-105277770D01*
X135860600Y-105229891D01*
X135860600Y-106043397D01*
X136418428Y-106043397D01*
X136418444Y-106043396D01*
X136477972Y-106036995D01*
X136477979Y-106036993D01*
X136612686Y-105986751D01*
X136612693Y-105986747D01*
X136727787Y-105900587D01*
X136727790Y-105900584D01*
X136813950Y-105785490D01*
X136813954Y-105785483D01*
X136864196Y-105650776D01*
X136864198Y-105650769D01*
X136870599Y-105591241D01*
X136870600Y-105591224D01*
X136870600Y-105033397D01*
X136056172Y-105033397D01*
X136079282Y-104997437D01*
X136120600Y-104856724D01*
X136120600Y-104783398D01*
X137345786Y-104783398D01*
X137365000Y-105003023D01*
X137365001Y-105003031D01*
X137422062Y-105215984D01*
X137422065Y-105215990D01*
X137515237Y-105415799D01*
X137560293Y-105480147D01*
X138119465Y-104920976D01*
X138141917Y-104997437D01*
X138221204Y-105120810D01*
X138332037Y-105216848D01*
X138465438Y-105277770D01*
X138469232Y-105278315D01*
X137913846Y-105833701D01*
X137978192Y-105878756D01*
X138178005Y-105971930D01*
X138178011Y-105971933D01*
X138390964Y-106028994D01*
X138390972Y-106028995D01*
X138610597Y-106048210D01*
X138610601Y-106048210D01*
X138830225Y-106028995D01*
X138830233Y-106028994D01*
X139043186Y-105971933D01*
X139043197Y-105971929D01*
X139243001Y-105878759D01*
X139243009Y-105878755D01*
X139307350Y-105833702D01*
X139307350Y-105833701D01*
X138751965Y-105278315D01*
X138755760Y-105277770D01*
X138889161Y-105216848D01*
X138999994Y-105120810D01*
X139079281Y-104997437D01*
X139101732Y-104920977D01*
X139660903Y-105480148D01*
X139660904Y-105480148D01*
X139705957Y-105415807D01*
X139705961Y-105415799D01*
X139799131Y-105215995D01*
X139799135Y-105215984D01*
X139856196Y-105003031D01*
X139856197Y-105003023D01*
X139875412Y-104783398D01*
X139875412Y-104783395D01*
X139856197Y-104563770D01*
X139856196Y-104563763D01*
X139799132Y-104350801D01*
X139705959Y-104150992D01*
X139705958Y-104150990D01*
X139660903Y-104086645D01*
X139660903Y-104086644D01*
X139101731Y-104645815D01*
X139079281Y-104569357D01*
X138999994Y-104445984D01*
X138889161Y-104349946D01*
X138755760Y-104289024D01*
X138751964Y-104288478D01*
X139307350Y-103733091D01*
X139243001Y-103688035D01*
X139043192Y-103594863D01*
X139043186Y-103594860D01*
X138830233Y-103537799D01*
X138830225Y-103537798D01*
X138610601Y-103518584D01*
X138610597Y-103518584D01*
X138390972Y-103537798D01*
X138390965Y-103537799D01*
X138178003Y-103594863D01*
X137978193Y-103688037D01*
X137913847Y-103733091D01*
X138469234Y-104288478D01*
X138465438Y-104289024D01*
X138332037Y-104349946D01*
X138221204Y-104445984D01*
X138141917Y-104569357D01*
X138119465Y-104645817D01*
X137560293Y-104086645D01*
X137515239Y-104150991D01*
X137422065Y-104350801D01*
X137365001Y-104563763D01*
X137365000Y-104563770D01*
X137345786Y-104783395D01*
X137345786Y-104783398D01*
X136120600Y-104783398D01*
X136120600Y-104710070D01*
X136079282Y-104569357D01*
X136056172Y-104533397D01*
X136870600Y-104533397D01*
X136870600Y-103975569D01*
X136870599Y-103975552D01*
X136864198Y-103916024D01*
X136864196Y-103916017D01*
X136813954Y-103781310D01*
X136813950Y-103781303D01*
X136727790Y-103666209D01*
X136727787Y-103666206D01*
X136612693Y-103580046D01*
X136612686Y-103580042D01*
X136477979Y-103529800D01*
X136477972Y-103529798D01*
X136418444Y-103523397D01*
X135860600Y-103523397D01*
X135860600Y-104336902D01*
X135755761Y-104289024D01*
X135647073Y-104273397D01*
X135574127Y-104273397D01*
X135465439Y-104289024D01*
X135360600Y-104336902D01*
X135360600Y-103523397D01*
X134802755Y-103523397D01*
X134743227Y-103529798D01*
X134743220Y-103529800D01*
X134608513Y-103580042D01*
X134608506Y-103580046D01*
X134493412Y-103666206D01*
X134493409Y-103666209D01*
X134407249Y-103781303D01*
X134407245Y-103781310D01*
X134357003Y-103916017D01*
X134357001Y-103916024D01*
X134350600Y-103975552D01*
X134350600Y-104533397D01*
X135165028Y-104533397D01*
X135141918Y-104569357D01*
X135100600Y-104710070D01*
X135100600Y-104856724D01*
X135141918Y-104997437D01*
X135165028Y-105033397D01*
X134350600Y-105033397D01*
X134350600Y-105591241D01*
X132268226Y-105591241D01*
X132266688Y-105589927D01*
X132266686Y-105589925D01*
X132266684Y-105589924D01*
X132266683Y-105589923D01*
X132044506Y-105453773D01*
X131803755Y-105354051D01*
X131550375Y-105293221D01*
X131550376Y-105293221D01*
X131290601Y-105272777D01*
X131030825Y-105293221D01*
X130777446Y-105354051D01*
X130536695Y-105453773D01*
X130314518Y-105589923D01*
X130314517Y-105589924D01*
X130116367Y-105759161D01*
X129947130Y-105957311D01*
X129947129Y-105957312D01*
X129810979Y-106179489D01*
X129711257Y-106420240D01*
X129704074Y-106450162D01*
X129669283Y-106510754D01*
X129607257Y-106542918D01*
X129537688Y-106536442D01*
X129482664Y-106493382D01*
X129459655Y-106427410D01*
X129459500Y-106421215D01*
X129459500Y-101783399D01*
X134345787Y-101783399D01*
X134365001Y-102003024D01*
X134365002Y-102003032D01*
X134422063Y-102215985D01*
X134422066Y-102215991D01*
X134515238Y-102415800D01*
X134560294Y-102480148D01*
X135119466Y-101920977D01*
X135141918Y-101997438D01*
X135221205Y-102120811D01*
X135332038Y-102216849D01*
X135465439Y-102277771D01*
X135469233Y-102278316D01*
X134913847Y-102833702D01*
X134978193Y-102878757D01*
X135178006Y-102971931D01*
X135178012Y-102971934D01*
X135390965Y-103028995D01*
X135390973Y-103028996D01*
X135610598Y-103048211D01*
X135610602Y-103048211D01*
X135830226Y-103028996D01*
X135830234Y-103028995D01*
X136043187Y-102971934D01*
X136043198Y-102971930D01*
X136243002Y-102878760D01*
X136243010Y-102878756D01*
X136307351Y-102833703D01*
X136307351Y-102833702D01*
X135751966Y-102278316D01*
X135755761Y-102277771D01*
X135889162Y-102216849D01*
X135999995Y-102120811D01*
X136079282Y-101997438D01*
X136101733Y-101920976D01*
X136660905Y-102480149D01*
X136705958Y-102415808D01*
X136705962Y-102415800D01*
X136799132Y-102215996D01*
X136799136Y-102215985D01*
X136856197Y-102003032D01*
X136856198Y-102003024D01*
X136875413Y-101783399D01*
X136875413Y-101783396D01*
X136856198Y-101563771D01*
X136856197Y-101563764D01*
X136799133Y-101350802D01*
X136705960Y-101150993D01*
X136705959Y-101150991D01*
X136660904Y-101086646D01*
X136660903Y-101086645D01*
X136101732Y-101645816D01*
X136079282Y-101569358D01*
X135999995Y-101445985D01*
X135889162Y-101349947D01*
X135755761Y-101289025D01*
X135751965Y-101288479D01*
X136307351Y-100733092D01*
X136243002Y-100688036D01*
X136043193Y-100594864D01*
X136043187Y-100594861D01*
X135830234Y-100537800D01*
X135830226Y-100537799D01*
X135610602Y-100518585D01*
X135610598Y-100518585D01*
X135390973Y-100537799D01*
X135390966Y-100537800D01*
X135178004Y-100594864D01*
X134978194Y-100688038D01*
X134913848Y-100733092D01*
X135469235Y-101288479D01*
X135465439Y-101289025D01*
X135332038Y-101349947D01*
X135221205Y-101445985D01*
X135141918Y-101569358D01*
X135119466Y-101645818D01*
X134560294Y-101086646D01*
X134515240Y-101150992D01*
X134422066Y-101350802D01*
X134365002Y-101563764D01*
X134365001Y-101563771D01*
X134345787Y-101783396D01*
X134345787Y-101783399D01*
X129459500Y-101783399D01*
X129459500Y-94145581D01*
X129479185Y-94078542D01*
X129531989Y-94032787D01*
X129601147Y-94022843D01*
X129664703Y-94051868D01*
X129702477Y-94110646D01*
X129704074Y-94116635D01*
X129711256Y-94146554D01*
X129810979Y-94387307D01*
X129947129Y-94609484D01*
X129947130Y-94609485D01*
X129947131Y-94609487D01*
X129947133Y-94609489D01*
X130116367Y-94807636D01*
X130314514Y-94976870D01*
X130314516Y-94976871D01*
X130314517Y-94976872D01*
X130314518Y-94976873D01*
X130536695Y-95113023D01*
X130629799Y-95151588D01*
X130777442Y-95212744D01*
X131030823Y-95273575D01*
X131290601Y-95294020D01*
X131550379Y-95273575D01*
X131803760Y-95212744D01*
X132044506Y-95113023D01*
X132266688Y-94976870D01*
X132464835Y-94807636D01*
X132634069Y-94609489D01*
X132770222Y-94387307D01*
X132869943Y-94146561D01*
X132930774Y-93893180D01*
X132951219Y-93633402D01*
X132930774Y-93373624D01*
X132869943Y-93120243D01*
X132784183Y-92913201D01*
X132770222Y-92879496D01*
X132634072Y-92657319D01*
X132634071Y-92657318D01*
X132634070Y-92657317D01*
X132634069Y-92657315D01*
X132464835Y-92459168D01*
X132266688Y-92289934D01*
X132266686Y-92289932D01*
X132266684Y-92289931D01*
X132266683Y-92289930D01*
X132044506Y-92153780D01*
X131803755Y-92054058D01*
X131550375Y-91993228D01*
X131550376Y-91993228D01*
X131290601Y-91972784D01*
X131030825Y-91993228D01*
X130777446Y-92054058D01*
X130536695Y-92153780D01*
X130314518Y-92289930D01*
X130314517Y-92289931D01*
X130116367Y-92459168D01*
X129947130Y-92657318D01*
X129947129Y-92657319D01*
X129810979Y-92879496D01*
X129711257Y-93120247D01*
X129704074Y-93150169D01*
X129669283Y-93210761D01*
X129607257Y-93242925D01*
X129537688Y-93236449D01*
X129482664Y-93193389D01*
X129459655Y-93127417D01*
X129459500Y-93121222D01*
X129459500Y-89001601D01*
X159275118Y-89001601D01*
X159295755Y-89158360D01*
X159295756Y-89158362D01*
X159356264Y-89304441D01*
X159452518Y-89429882D01*
X159577959Y-89526136D01*
X159724038Y-89586644D01*
X159802419Y-89596963D01*
X159880799Y-89607282D01*
X159880800Y-89607282D01*
X159880801Y-89607282D01*
X159933053Y-89600402D01*
X160037562Y-89586644D01*
X160183641Y-89526136D01*
X160309082Y-89429882D01*
X160405336Y-89304441D01*
X160465844Y-89158362D01*
X160486482Y-89001600D01*
X160465844Y-88844838D01*
X160405336Y-88698759D01*
X160309082Y-88573318D01*
X160183641Y-88477064D01*
X160037562Y-88416556D01*
X160037560Y-88416555D01*
X159880801Y-88395918D01*
X159880799Y-88395918D01*
X159724039Y-88416555D01*
X159724037Y-88416556D01*
X159577960Y-88477063D01*
X159452518Y-88573318D01*
X159356263Y-88698760D01*
X159295756Y-88844837D01*
X159295755Y-88844839D01*
X159275118Y-89001598D01*
X159275118Y-89001601D01*
X129459500Y-89001601D01*
X129459500Y-86211787D01*
X131194700Y-86211787D01*
X131206193Y-86288031D01*
X131233804Y-86471215D01*
X131233805Y-86471217D01*
X131233806Y-86471223D01*
X131311138Y-86721926D01*
X131424967Y-86958296D01*
X131424968Y-86958297D01*
X131424970Y-86958300D01*
X131424972Y-86958304D01*
X131488275Y-87051152D01*
X131572767Y-87175079D01*
X131751214Y-87367401D01*
X131751218Y-87367404D01*
X131751219Y-87367405D01*
X131956343Y-87530986D01*
X132183557Y-87662168D01*
X132427784Y-87758020D01*
X132683570Y-87816402D01*
X132683576Y-87816402D01*
X132683579Y-87816403D01*
X132879684Y-87831099D01*
X132879703Y-87831099D01*
X132879706Y-87831100D01*
X132879708Y-87831100D01*
X133010692Y-87831100D01*
X133010694Y-87831100D01*
X133010696Y-87831099D01*
X133010715Y-87831099D01*
X133206820Y-87816403D01*
X133206822Y-87816402D01*
X133206830Y-87816402D01*
X133462616Y-87758020D01*
X133706843Y-87662168D01*
X133934057Y-87530986D01*
X134139181Y-87367405D01*
X134317633Y-87175079D01*
X134465428Y-86958304D01*
X134579263Y-86721923D01*
X134656596Y-86471215D01*
X134695700Y-86211782D01*
X134695700Y-85949418D01*
X134677791Y-85830600D01*
X137895200Y-85830600D01*
X139378233Y-85830600D01*
X139345200Y-85986006D01*
X139345200Y-86175194D01*
X139378233Y-86330600D01*
X137895201Y-86330600D01*
X137895201Y-87730584D01*
X137905694Y-87833295D01*
X137960841Y-87999717D01*
X137960843Y-87999722D01*
X138052884Y-88148944D01*
X138176855Y-88272915D01*
X138326077Y-88364956D01*
X138326082Y-88364958D01*
X138492504Y-88420105D01*
X138492511Y-88420106D01*
X138595221Y-88430599D01*
X139995199Y-88430599D01*
X139995200Y-88430598D01*
X139995200Y-86945685D01*
X140057049Y-86965782D01*
X140198036Y-86980600D01*
X140292364Y-86980600D01*
X140433351Y-86965782D01*
X140495200Y-86945685D01*
X140495200Y-88430599D01*
X141895170Y-88430599D01*
X141895184Y-88430598D01*
X141997895Y-88420105D01*
X142164317Y-88364958D01*
X142164322Y-88364956D01*
X142313544Y-88272915D01*
X142437515Y-88148944D01*
X142529556Y-87999722D01*
X142529558Y-87999717D01*
X142584705Y-87833295D01*
X142584706Y-87833288D01*
X142595199Y-87730584D01*
X142595200Y-87730571D01*
X142595200Y-86330600D01*
X141112167Y-86330600D01*
X141145200Y-86175194D01*
X141145200Y-86080600D01*
X143689909Y-86080600D01*
X143709051Y-86360462D01*
X143709052Y-86360464D01*
X143766121Y-86635099D01*
X143766126Y-86635116D01*
X143829249Y-86812726D01*
X143860064Y-86899430D01*
X143989119Y-87148496D01*
X144150888Y-87377669D01*
X144150892Y-87377673D01*
X144150892Y-87377674D01*
X144294075Y-87530986D01*
X144342355Y-87582681D01*
X144559954Y-87759711D01*
X144559956Y-87759712D01*
X144559957Y-87759713D01*
X144799633Y-87905463D01*
X144949590Y-87970598D01*
X145056925Y-88017220D01*
X145327039Y-88092903D01*
X145571359Y-88126484D01*
X145604941Y-88131100D01*
X145604942Y-88131100D01*
X145885459Y-88131100D01*
X145915419Y-88126981D01*
X146163361Y-88092903D01*
X146433475Y-88017220D01*
X146540803Y-87970601D01*
X156430318Y-87970601D01*
X156450955Y-88127360D01*
X156450956Y-88127362D01*
X156511464Y-88273441D01*
X156607718Y-88398882D01*
X156733159Y-88495136D01*
X156879238Y-88555644D01*
X156957619Y-88565963D01*
X157035999Y-88576282D01*
X157036000Y-88576282D01*
X157036001Y-88576282D01*
X157088254Y-88569402D01*
X157192762Y-88555644D01*
X157338841Y-88495136D01*
X157464282Y-88398882D01*
X157560536Y-88273441D01*
X157621044Y-88127362D01*
X157641682Y-87970600D01*
X157633106Y-87905462D01*
X157627923Y-87866092D01*
X157621044Y-87813838D01*
X157560536Y-87667759D01*
X157464282Y-87542318D01*
X157338841Y-87446064D01*
X157270796Y-87417879D01*
X157192762Y-87385556D01*
X157192760Y-87385555D01*
X157036001Y-87364918D01*
X157035999Y-87364918D01*
X156879239Y-87385555D01*
X156879237Y-87385556D01*
X156733160Y-87446063D01*
X156607718Y-87542318D01*
X156511463Y-87667760D01*
X156450956Y-87813837D01*
X156450955Y-87813839D01*
X156430318Y-87970598D01*
X156430318Y-87970601D01*
X146540803Y-87970601D01*
X146690768Y-87905462D01*
X146930446Y-87759711D01*
X147148045Y-87582681D01*
X147339512Y-87377669D01*
X147501281Y-87148496D01*
X147551720Y-87051152D01*
X175708900Y-87051152D01*
X175720531Y-87109629D01*
X175720532Y-87109630D01*
X175764847Y-87175952D01*
X175831169Y-87220267D01*
X175831170Y-87220268D01*
X175889647Y-87231899D01*
X175889650Y-87231900D01*
X175889652Y-87231900D01*
X177729150Y-87231900D01*
X177729151Y-87231899D01*
X177743968Y-87228952D01*
X177787629Y-87220268D01*
X177787629Y-87220267D01*
X177787631Y-87220267D01*
X177853952Y-87175952D01*
X177898267Y-87109631D01*
X177898267Y-87109629D01*
X177898268Y-87109629D01*
X177909899Y-87051152D01*
X177909900Y-87051150D01*
X177909900Y-86131405D01*
X180404602Y-86131405D01*
X180423761Y-86362618D01*
X180480717Y-86587535D01*
X180573916Y-86800009D01*
X180658211Y-86929033D01*
X181246626Y-86340619D01*
X181285301Y-86433988D01*
X181381475Y-86559325D01*
X181506812Y-86655499D01*
X181600179Y-86694172D01*
X181010599Y-87283751D01*
X181041050Y-87307450D01*
X181245097Y-87417876D01*
X181245106Y-87417879D01*
X181464539Y-87493211D01*
X181693393Y-87531400D01*
X181925407Y-87531400D01*
X182154260Y-87493211D01*
X182373693Y-87417879D01*
X182373702Y-87417876D01*
X182577750Y-87307450D01*
X182608198Y-87283751D01*
X182018620Y-86694173D01*
X182111988Y-86655499D01*
X182237325Y-86559325D01*
X182333499Y-86433989D01*
X182372172Y-86340620D01*
X182960586Y-86929034D01*
X183044884Y-86800006D01*
X183138082Y-86587535D01*
X183195038Y-86362618D01*
X183214197Y-86131405D01*
X183214197Y-86131394D01*
X183195038Y-85900181D01*
X183138082Y-85675264D01*
X183044883Y-85462790D01*
X182960586Y-85333764D01*
X182372172Y-85922178D01*
X182333499Y-85828812D01*
X182237325Y-85703475D01*
X182111988Y-85607301D01*
X182018620Y-85568627D01*
X182608199Y-84979048D01*
X182608199Y-84979047D01*
X182577749Y-84955349D01*
X182373702Y-84844923D01*
X182373693Y-84844920D01*
X182154260Y-84769588D01*
X181925407Y-84731400D01*
X181693393Y-84731400D01*
X181464539Y-84769588D01*
X181245106Y-84844920D01*
X181245098Y-84844923D01*
X181041044Y-84955352D01*
X181010600Y-84979046D01*
X181010600Y-84979047D01*
X181600179Y-85568626D01*
X181506812Y-85607301D01*
X181381475Y-85703475D01*
X181285301Y-85828811D01*
X181246627Y-85922179D01*
X180658212Y-85333765D01*
X180573916Y-85462791D01*
X180573914Y-85462795D01*
X180480717Y-85675264D01*
X180423761Y-85900181D01*
X180404602Y-86131394D01*
X180404602Y-86131405D01*
X177909900Y-86131405D01*
X177909900Y-85211649D01*
X177909899Y-85211647D01*
X177898268Y-85153170D01*
X177898267Y-85153169D01*
X177853952Y-85086847D01*
X177787630Y-85042532D01*
X177787629Y-85042531D01*
X177729152Y-85030900D01*
X177729148Y-85030900D01*
X175889652Y-85030900D01*
X175889647Y-85030900D01*
X175831170Y-85042531D01*
X175831169Y-85042532D01*
X175764847Y-85086847D01*
X175720532Y-85153169D01*
X175720531Y-85153170D01*
X175708900Y-85211647D01*
X175708900Y-87051152D01*
X147551720Y-87051152D01*
X147630336Y-86899430D01*
X147724275Y-86635111D01*
X147724276Y-86635104D01*
X147724278Y-86635099D01*
X147766069Y-86433988D01*
X147781348Y-86360462D01*
X147800491Y-86080600D01*
X147781348Y-85800738D01*
X147745478Y-85628121D01*
X147724278Y-85526100D01*
X147724273Y-85526083D01*
X147693421Y-85439273D01*
X147630336Y-85261770D01*
X147501281Y-85012704D01*
X147339512Y-84783531D01*
X147339507Y-84783525D01*
X147148045Y-84578519D01*
X146966265Y-84430630D01*
X146930446Y-84401489D01*
X146930444Y-84401488D01*
X146930442Y-84401486D01*
X146690766Y-84255736D01*
X146433476Y-84143980D01*
X146163366Y-84068298D01*
X146163362Y-84068297D01*
X146163361Y-84068297D01*
X146024409Y-84049198D01*
X145885459Y-84030100D01*
X145885458Y-84030100D01*
X145604942Y-84030100D01*
X145604941Y-84030100D01*
X145327039Y-84068297D01*
X145327033Y-84068298D01*
X145056923Y-84143980D01*
X144799633Y-84255736D01*
X144559957Y-84401486D01*
X144342354Y-84578519D01*
X144150892Y-84783525D01*
X144150892Y-84783526D01*
X143989119Y-85012703D01*
X143860063Y-85261771D01*
X143766126Y-85526083D01*
X143766121Y-85526100D01*
X143709052Y-85800735D01*
X143709051Y-85800737D01*
X143689909Y-86080600D01*
X141145200Y-86080600D01*
X141145200Y-85986006D01*
X141112167Y-85830600D01*
X142595199Y-85830600D01*
X142595199Y-84430630D01*
X142595198Y-84430615D01*
X142584705Y-84327904D01*
X142529558Y-84161482D01*
X142529556Y-84161477D01*
X142437515Y-84012255D01*
X142313544Y-83888284D01*
X142164322Y-83796243D01*
X142164317Y-83796241D01*
X141997895Y-83741094D01*
X141997888Y-83741093D01*
X141895184Y-83730600D01*
X140495200Y-83730600D01*
X140495200Y-85215514D01*
X140433351Y-85195418D01*
X140292364Y-85180600D01*
X140198036Y-85180600D01*
X140057049Y-85195418D01*
X139995200Y-85215514D01*
X139995200Y-83730600D01*
X138595230Y-83730600D01*
X138595214Y-83730601D01*
X138492504Y-83741094D01*
X138326082Y-83796241D01*
X138326077Y-83796243D01*
X138176855Y-83888284D01*
X138052884Y-84012255D01*
X137960843Y-84161477D01*
X137960841Y-84161482D01*
X137905694Y-84327904D01*
X137905693Y-84327911D01*
X137895200Y-84430615D01*
X137895200Y-85830600D01*
X134677791Y-85830600D01*
X134656596Y-85689985D01*
X134579263Y-85439277D01*
X134493781Y-85261771D01*
X134465432Y-85202903D01*
X134465431Y-85202902D01*
X134465430Y-85202901D01*
X134465428Y-85202896D01*
X134317633Y-84986121D01*
X134289081Y-84955349D01*
X134139185Y-84793798D01*
X134060940Y-84731400D01*
X133934057Y-84630214D01*
X133706843Y-84499032D01*
X133462616Y-84403180D01*
X133462611Y-84403178D01*
X133462602Y-84403176D01*
X133245018Y-84353514D01*
X133206830Y-84344798D01*
X133206829Y-84344797D01*
X133206825Y-84344797D01*
X133206820Y-84344796D01*
X133010715Y-84330100D01*
X133010694Y-84330100D01*
X132879706Y-84330100D01*
X132879684Y-84330100D01*
X132683579Y-84344796D01*
X132683574Y-84344797D01*
X132427797Y-84403176D01*
X132427778Y-84403182D01*
X132183556Y-84499032D01*
X131956343Y-84630214D01*
X131751214Y-84793798D01*
X131572767Y-84986120D01*
X131424968Y-85202902D01*
X131424967Y-85202903D01*
X131311138Y-85439273D01*
X131233806Y-85689976D01*
X131233805Y-85689981D01*
X131233804Y-85689985D01*
X131231771Y-85703475D01*
X131194700Y-85949412D01*
X131194700Y-86211787D01*
X129459500Y-86211787D01*
X129459500Y-85239952D01*
X129459559Y-85237248D01*
X129459805Y-85231593D01*
X129477265Y-84831692D01*
X129477734Y-84826343D01*
X129530543Y-84425214D01*
X129531481Y-84419902D01*
X129619047Y-84024919D01*
X129620441Y-84019712D01*
X129742104Y-83633847D01*
X129743951Y-83628774D01*
X129870855Y-83322401D01*
X166732318Y-83322401D01*
X166752955Y-83479160D01*
X166752956Y-83479162D01*
X166813464Y-83625241D01*
X166909718Y-83750682D01*
X167035159Y-83846936D01*
X167181238Y-83907444D01*
X167259618Y-83917763D01*
X167337999Y-83928082D01*
X167338000Y-83928082D01*
X167338001Y-83928082D01*
X167390253Y-83921202D01*
X167494762Y-83907444D01*
X167640841Y-83846936D01*
X167766282Y-83750682D01*
X167862536Y-83625241D01*
X167923044Y-83479162D01*
X167943682Y-83322400D01*
X167934163Y-83250099D01*
X167923044Y-83165639D01*
X167923044Y-83165638D01*
X167862536Y-83019559D01*
X167766282Y-82894118D01*
X167640841Y-82797864D01*
X167494762Y-82737356D01*
X167494760Y-82737355D01*
X167338001Y-82716718D01*
X167337999Y-82716718D01*
X167181239Y-82737355D01*
X167181237Y-82737356D01*
X167035160Y-82797863D01*
X166909718Y-82894118D01*
X166813463Y-83019560D01*
X166752956Y-83165637D01*
X166752955Y-83165639D01*
X166732318Y-83322398D01*
X166732318Y-83322401D01*
X129870855Y-83322401D01*
X129898782Y-83254978D01*
X129901045Y-83250126D01*
X130087870Y-82891239D01*
X130090566Y-82886571D01*
X130307942Y-82545358D01*
X130311035Y-82540940D01*
X130557339Y-82219949D01*
X130560798Y-82215828D01*
X130834133Y-81917536D01*
X130837936Y-81913733D01*
X131136228Y-81640398D01*
X131140349Y-81636939D01*
X131461340Y-81390635D01*
X131465750Y-81387547D01*
X131806971Y-81170166D01*
X131811639Y-81167470D01*
X132170526Y-80980645D01*
X132175378Y-80978382D01*
X132549181Y-80823548D01*
X132554247Y-80821704D01*
X132940112Y-80700041D01*
X132945319Y-80698647D01*
X133340302Y-80611081D01*
X133345614Y-80610143D01*
X133746743Y-80557334D01*
X133752092Y-80556865D01*
X134157648Y-80539159D01*
X134160353Y-80539100D01*
X134206595Y-80539100D01*
X152940785Y-80539100D01*
X152962730Y-80542160D01*
X152969578Y-80542795D01*
X152970824Y-80543289D01*
X152972459Y-80543517D01*
X152974261Y-80543512D01*
X152974264Y-80543512D01*
X153009599Y-80543399D01*
X153009600Y-80543400D01*
X160866763Y-80518377D01*
X160911945Y-80526748D01*
G37*
%TD.AperFunction*%
%TA.AperFunction,Conductor*%
G36*
X169568100Y-114883905D02*
G01*
X169548415Y-114950944D01*
X169495611Y-114996699D01*
X169443727Y-115007904D01*
X161563543Y-114984169D01*
X161496563Y-114964283D01*
X161450967Y-114911341D01*
X161439920Y-114861190D01*
X161438652Y-114706400D01*
X169568100Y-114706400D01*
X169568100Y-114883905D01*
G37*
%TD.AperFunction*%
%TA.AperFunction,Conductor*%
G36*
X170535600Y-98372420D02*
G01*
X170535600Y-98501200D01*
X162915600Y-98501200D01*
X162915600Y-112064800D01*
X162102684Y-112064800D01*
X162059241Y-102539800D01*
X157708717Y-102539800D01*
X157641678Y-102520115D01*
X157595923Y-102467311D01*
X157584717Y-102415832D01*
X157584150Y-100238814D01*
X157583985Y-99605616D01*
X157603652Y-99538574D01*
X157656444Y-99492805D01*
X157708580Y-99481587D01*
X162538753Y-99504810D01*
X162580707Y-99500687D01*
X162623543Y-99491972D01*
X162630282Y-99490602D01*
X162630333Y-99490591D01*
X162634493Y-99489652D01*
X162638775Y-99488687D01*
X162720422Y-99447481D01*
X162774229Y-99402910D01*
X162792569Y-99385722D01*
X162838978Y-99306916D01*
X162860147Y-99240331D01*
X162869755Y-99182632D01*
X162873281Y-99023871D01*
X162878275Y-98991685D01*
X162884172Y-98971605D01*
X162884172Y-98971602D01*
X162884174Y-98971597D01*
X162892500Y-98913696D01*
X162892500Y-98486817D01*
X162912185Y-98419778D01*
X162964989Y-98374023D01*
X163016655Y-98362817D01*
X170535600Y-98372420D01*
G37*
%TD.AperFunction*%
%TA.AperFunction,Conductor*%
G36*
X154108818Y-99218420D02*
G01*
X154154631Y-99271173D01*
X154165893Y-99323080D01*
X154150062Y-106578400D01*
X153776500Y-106578400D01*
X153776500Y-99237800D01*
X144353100Y-99237800D01*
X144353100Y-106957100D01*
X143895200Y-106957100D01*
X143828161Y-106937415D01*
X143782406Y-106884611D01*
X143771200Y-106833100D01*
X143771200Y-99387208D01*
X143771200Y-99387200D01*
X143766902Y-99347231D01*
X143779306Y-99278475D01*
X143826915Y-99227337D01*
X143890054Y-99209977D01*
X154041759Y-99198809D01*
X154108818Y-99218420D01*
G37*
%TD.AperFunction*%
%TD*%
%TA.AperFunction,Conductor*%
%TO.N,GND*%
G36*
X153776500Y-106578400D02*
G01*
X154150062Y-106578400D01*
X154141195Y-110642400D01*
X153751100Y-110642400D01*
X153751100Y-117906800D01*
X144353100Y-117932200D01*
X144353100Y-110365300D01*
X145016491Y-110365300D01*
X145016500Y-110365300D01*
X145060184Y-110360603D01*
X145111695Y-110349397D01*
X145121873Y-110346910D01*
X145202585Y-110303900D01*
X145255389Y-110258145D01*
X145273343Y-110240554D01*
X145317990Y-110160737D01*
X145337675Y-110093698D01*
X145346000Y-110035800D01*
X145346000Y-107286600D01*
X145341303Y-107242916D01*
X145330097Y-107191405D01*
X145327610Y-107181227D01*
X145284600Y-107100515D01*
X145238845Y-107047711D01*
X145238839Y-107047704D01*
X145221257Y-107029760D01*
X145221256Y-107029759D01*
X145221254Y-107029757D01*
X145221252Y-107029756D01*
X145221250Y-107029754D01*
X145141440Y-106985111D01*
X145141435Y-106985109D01*
X145074403Y-106965426D01*
X145074399Y-106965425D01*
X145074398Y-106965425D01*
X145016500Y-106957100D01*
X145016496Y-106957100D01*
X144353100Y-106957100D01*
X144353100Y-106354201D01*
X150479918Y-106354201D01*
X150500555Y-106510960D01*
X150500556Y-106510962D01*
X150561064Y-106657041D01*
X150657318Y-106782482D01*
X150782759Y-106878736D01*
X150928838Y-106939244D01*
X151007219Y-106949563D01*
X151085599Y-106959882D01*
X151085600Y-106959882D01*
X151085601Y-106959882D01*
X151137853Y-106953002D01*
X151242362Y-106939244D01*
X151388441Y-106878736D01*
X151513882Y-106782482D01*
X151610136Y-106657041D01*
X151670644Y-106510962D01*
X151684402Y-106406454D01*
X151691282Y-106354201D01*
X151691282Y-106354198D01*
X151670644Y-106197439D01*
X151670644Y-106197438D01*
X151610136Y-106051359D01*
X151513882Y-105925918D01*
X151388441Y-105829664D01*
X151242362Y-105769156D01*
X151242360Y-105769155D01*
X151085601Y-105748518D01*
X151085599Y-105748518D01*
X150928839Y-105769155D01*
X150928837Y-105769156D01*
X150782760Y-105829663D01*
X150657318Y-105925918D01*
X150561063Y-106051360D01*
X150500556Y-106197437D01*
X150500555Y-106197439D01*
X150479918Y-106354198D01*
X150479918Y-106354201D01*
X144353100Y-106354201D01*
X144353100Y-99237800D01*
X153776500Y-99237800D01*
X153776500Y-106578400D01*
G37*
%TD.AperFunction*%
%TD*%
%TA.AperFunction,Conductor*%
%TO.N,GND*%
G36*
X174599600Y-98377611D02*
G01*
X174599600Y-98552000D01*
X182575200Y-98577400D01*
X182549800Y-99009200D01*
X182626000Y-112191800D01*
X183591200Y-112217200D01*
X183591200Y-114706400D01*
X175465500Y-114706400D01*
X175465500Y-113230775D01*
X175460702Y-113186629D01*
X175449257Y-113134596D01*
X175446619Y-113123963D01*
X175435813Y-113103909D01*
X175403239Y-113043453D01*
X175392965Y-113031707D01*
X175357238Y-112990859D01*
X175339563Y-112972986D01*
X175339560Y-112972984D01*
X175319252Y-112961748D01*
X175259540Y-112928709D01*
X175259536Y-112928708D01*
X175259535Y-112928707D01*
X175192417Y-112909336D01*
X175192404Y-112909333D01*
X175134479Y-112901278D01*
X175134477Y-112901278D01*
X173039114Y-112910979D01*
X169896069Y-112925530D01*
X169852868Y-112930327D01*
X169852865Y-112930328D01*
X169801958Y-112941527D01*
X169801911Y-112941538D01*
X169792232Y-112943915D01*
X169792223Y-112943918D01*
X169711519Y-112986924D01*
X169711513Y-112986928D01*
X169658704Y-113032687D01*
X169640760Y-113050269D01*
X169640754Y-113050276D01*
X169596111Y-113130086D01*
X169596109Y-113130091D01*
X169576426Y-113197123D01*
X169568100Y-113255030D01*
X169568100Y-114706400D01*
X161438651Y-114706400D01*
X161438548Y-114693863D01*
X161419943Y-114660118D01*
X161417000Y-114633264D01*
X161417000Y-112188800D01*
X161436685Y-112121761D01*
X161489489Y-112076006D01*
X161541000Y-112064800D01*
X162102684Y-112064800D01*
X162915600Y-112064800D01*
X162915600Y-101955601D01*
X168685318Y-101955601D01*
X168705955Y-102112360D01*
X168705956Y-102112362D01*
X168766464Y-102258441D01*
X168862718Y-102383882D01*
X168988159Y-102480136D01*
X169134238Y-102540644D01*
X169212618Y-102550963D01*
X169290999Y-102561282D01*
X169291000Y-102561282D01*
X169291001Y-102561282D01*
X169343253Y-102554402D01*
X169447762Y-102540644D01*
X169593841Y-102480136D01*
X169719282Y-102383882D01*
X169815536Y-102258441D01*
X169876044Y-102112362D01*
X169896682Y-101955600D01*
X169876044Y-101798838D01*
X169815536Y-101652759D01*
X169719282Y-101527318D01*
X169593841Y-101431064D01*
X169447762Y-101370556D01*
X169447760Y-101370555D01*
X169291001Y-101349918D01*
X169290999Y-101349918D01*
X169134239Y-101370555D01*
X169134237Y-101370556D01*
X168988160Y-101431063D01*
X168862718Y-101527318D01*
X168766463Y-101652760D01*
X168705956Y-101798837D01*
X168705955Y-101798839D01*
X168685318Y-101955598D01*
X168685318Y-101955601D01*
X162915600Y-101955601D01*
X162915600Y-98501200D01*
X170535600Y-98501200D01*
X170535600Y-98372420D01*
X174599600Y-98377611D01*
G37*
%TD.AperFunction*%
%TD*%
%TA.AperFunction,Conductor*%
%TO.N,/+3V3*%
G36*
X143508739Y-99282885D02*
G01*
X143554494Y-99335689D01*
X143565700Y-99387200D01*
X143565700Y-107162600D01*
X145016500Y-107162600D01*
X145083539Y-107182285D01*
X145129294Y-107235089D01*
X145140500Y-107286600D01*
X145140500Y-110035800D01*
X145120815Y-110102839D01*
X145068011Y-110148594D01*
X145016500Y-110159800D01*
X143641900Y-110159800D01*
X143641900Y-117808200D01*
X143622215Y-117875239D01*
X143569411Y-117920994D01*
X143517900Y-117932200D01*
X141225732Y-117932200D01*
X141158693Y-117912515D01*
X141112938Y-117859711D01*
X141101732Y-117808369D01*
X141076669Y-99387369D01*
X141096262Y-99320303D01*
X141149004Y-99274476D01*
X141200669Y-99263200D01*
X143441700Y-99263200D01*
X143508739Y-99282885D01*
G37*
%TD.AperFunction*%
%TD*%
%TA.AperFunction,Conductor*%
%TO.N,/+5V*%
G36*
X175202556Y-113126150D02*
G01*
X175248555Y-113178742D01*
X175260000Y-113230775D01*
X175260000Y-115290600D01*
X183517430Y-115315622D01*
X183584408Y-115335509D01*
X183630003Y-115388452D01*
X183641049Y-115440568D01*
X183617537Y-118520626D01*
X183597342Y-118587513D01*
X183544190Y-118632863D01*
X183493824Y-118643679D01*
X166530019Y-118682365D01*
X166490967Y-118682454D01*
X166522400Y-118668800D01*
X166497000Y-116662200D01*
X161378900Y-116700300D01*
X161344014Y-115316506D01*
X161362003Y-115248994D01*
X161413637Y-115201923D01*
X161468347Y-115189384D01*
X169773600Y-115214400D01*
X169773600Y-115214399D01*
X169773600Y-113255027D01*
X169793285Y-113187988D01*
X169846089Y-113142233D01*
X169897023Y-113131028D01*
X175135428Y-113106776D01*
X175202556Y-113126150D01*
G37*
%TD.AperFunction*%
%TD*%
%TA.AperFunction,Conductor*%
%TO.N,/+5V*%
G36*
X166522400Y-118668800D02*
G01*
X166490967Y-118682454D01*
X166490967Y-118682455D01*
X163751602Y-119872505D01*
X163682271Y-119881162D01*
X163619265Y-119850962D01*
X163582589Y-119791492D01*
X163579258Y-119774975D01*
X163576844Y-119756638D01*
X163516336Y-119610559D01*
X163420082Y-119485118D01*
X163294641Y-119388864D01*
X163148562Y-119328356D01*
X163148560Y-119328355D01*
X162991801Y-119307718D01*
X162991799Y-119307718D01*
X162835039Y-119328355D01*
X162835037Y-119328356D01*
X162688960Y-119388863D01*
X162563518Y-119485118D01*
X162467263Y-119610560D01*
X162406756Y-119756637D01*
X162406755Y-119756639D01*
X162386118Y-119913398D01*
X162386118Y-119913401D01*
X162406755Y-120070160D01*
X162406756Y-120070162D01*
X162467264Y-120216242D01*
X162493891Y-120250942D01*
X162519086Y-120316111D01*
X162505048Y-120384556D01*
X162456235Y-120434546D01*
X162444924Y-120440161D01*
X162286441Y-120509010D01*
X162217110Y-120517667D01*
X162168142Y-120498380D01*
X162037953Y-120411390D01*
X162037940Y-120411383D01*
X161874067Y-120343506D01*
X161874058Y-120343503D01*
X161700094Y-120308900D01*
X161700091Y-120308900D01*
X161522709Y-120308900D01*
X161522706Y-120308900D01*
X161348741Y-120343503D01*
X161348732Y-120343506D01*
X161184859Y-120411383D01*
X161184846Y-120411390D01*
X161037365Y-120509935D01*
X161037361Y-120509938D01*
X160911938Y-120635361D01*
X160911935Y-120635365D01*
X160813390Y-120782846D01*
X160813383Y-120782859D01*
X160745506Y-120946732D01*
X160745503Y-120946741D01*
X160710899Y-121120709D01*
X160710556Y-121124192D01*
X160709867Y-121125897D01*
X160709711Y-121126683D01*
X160709561Y-121126653D01*
X160684391Y-121188977D01*
X160636562Y-121225761D01*
X160348438Y-121350931D01*
X160299030Y-121361200D01*
X155372865Y-121361200D01*
X155305826Y-121341515D01*
X155260071Y-121288711D01*
X155248929Y-121233202D01*
X155254709Y-121054026D01*
X155268084Y-120639381D01*
X155289920Y-120573013D01*
X155325616Y-120538660D01*
X158451536Y-118556529D01*
X161378899Y-116700301D01*
X161378898Y-116700300D01*
X161378900Y-116700300D01*
X166497000Y-116662200D01*
X166522400Y-118668800D01*
G37*
%TD.AperFunction*%
%TD*%
%TA.AperFunction,Conductor*%
%TO.N,/VIN-*%
G36*
X160709041Y-93903561D02*
G01*
X160776040Y-93923375D01*
X160821693Y-93976267D01*
X160832800Y-94027560D01*
X160832800Y-94818200D01*
X162630369Y-94842824D01*
X162652398Y-94849621D01*
X162687000Y-94849705D01*
X162687000Y-98156898D01*
X162687000Y-98913696D01*
X162668803Y-98975664D01*
X162668622Y-98983820D01*
X154372114Y-98992947D01*
X154372113Y-98992947D01*
X154372114Y-98992946D01*
X142039614Y-99006513D01*
X141972553Y-98986902D01*
X141951797Y-98970194D01*
X140792484Y-97810881D01*
X140787394Y-97805117D01*
X140781103Y-97797035D01*
X140770991Y-97784043D01*
X140704637Y-97722960D01*
X140702812Y-97721209D01*
X140692494Y-97710891D01*
X140682200Y-97700596D01*
X140659959Y-97681759D01*
X140658037Y-97680062D01*
X140591695Y-97618990D01*
X140569347Y-97604389D01*
X140563182Y-97599792D01*
X140542803Y-97582532D01*
X140465332Y-97536368D01*
X140463158Y-97535012D01*
X140387677Y-97485698D01*
X140363226Y-97474973D01*
X140356389Y-97471454D01*
X140333453Y-97457787D01*
X140249419Y-97424996D01*
X140247113Y-97424041D01*
X140194482Y-97400956D01*
X140164509Y-97387808D01*
X140164501Y-97387806D01*
X140138628Y-97381254D01*
X140131309Y-97378909D01*
X140106427Y-97369201D01*
X140061760Y-97359835D01*
X140018186Y-97350698D01*
X140015691Y-97350120D01*
X139928265Y-97327982D01*
X139928267Y-97327982D01*
X139901648Y-97325777D01*
X139894043Y-97324669D01*
X139867914Y-97319191D01*
X139867909Y-97319190D01*
X139867911Y-97319190D01*
X139777849Y-97315465D01*
X139775294Y-97315307D01*
X139763138Y-97314300D01*
X139746226Y-97312899D01*
X139746224Y-97312899D01*
X139717069Y-97312899D01*
X139714510Y-97312846D01*
X139659027Y-97310551D01*
X139624425Y-97309120D01*
X139624424Y-97309120D01*
X139597921Y-97312423D01*
X139590252Y-97312899D01*
X138549774Y-97312899D01*
X138407728Y-97324669D01*
X138367731Y-97327983D01*
X138131492Y-97387807D01*
X137908318Y-97485700D01*
X137704306Y-97618989D01*
X137704302Y-97618992D01*
X137525006Y-97784046D01*
X137525003Y-97784049D01*
X137375328Y-97976351D01*
X137375322Y-97976360D01*
X137259342Y-98190674D01*
X137259336Y-98190688D01*
X137180210Y-98421172D01*
X137140099Y-98661550D01*
X137140099Y-98905247D01*
X137180210Y-99145625D01*
X137259336Y-99376109D01*
X137259342Y-99376123D01*
X137360357Y-99562783D01*
X137374952Y-99631111D01*
X137350289Y-99696483D01*
X137294199Y-99738144D01*
X137251302Y-99745800D01*
X134566200Y-99745800D01*
X134499161Y-99726115D01*
X134453406Y-99673311D01*
X134442200Y-99621800D01*
X134442200Y-93977239D01*
X134461885Y-93910200D01*
X134514689Y-93864445D01*
X134566438Y-93853239D01*
X160709041Y-93903561D01*
G37*
%TD.AperFunction*%
%TD*%
%TA.AperFunction,Conductor*%
%TO.N,/VIN-*%
G36*
X162664306Y-99178068D02*
G01*
X162643137Y-99244653D01*
X162589330Y-99289224D01*
X162539741Y-99299312D01*
X157378400Y-99274498D01*
X157380127Y-105913513D01*
X157360460Y-105980557D01*
X157354503Y-105989031D01*
X157290564Y-106072357D01*
X157230056Y-106218437D01*
X157230055Y-106218439D01*
X157209418Y-106375198D01*
X157209418Y-106375201D01*
X157230055Y-106531960D01*
X157230056Y-106531962D01*
X157290564Y-106678042D01*
X157354742Y-106761681D01*
X157379936Y-106826851D01*
X157380366Y-106837135D01*
X157383268Y-117985968D01*
X157363601Y-118053012D01*
X157310809Y-118098781D01*
X157259268Y-118110000D01*
X154454671Y-118110000D01*
X154387632Y-118090315D01*
X154341877Y-118037511D01*
X154330671Y-117985729D01*
X154344099Y-111832282D01*
X154345421Y-111226601D01*
X155583818Y-111226601D01*
X155604455Y-111383360D01*
X155604456Y-111383362D01*
X155664964Y-111529441D01*
X155761218Y-111654882D01*
X155886659Y-111751136D01*
X156032738Y-111811644D01*
X156111119Y-111821962D01*
X156189499Y-111832282D01*
X156189500Y-111832282D01*
X156189501Y-111832282D01*
X156241753Y-111825402D01*
X156346262Y-111811644D01*
X156492341Y-111751136D01*
X156617782Y-111654882D01*
X156714036Y-111529441D01*
X156774544Y-111383362D01*
X156795182Y-111226600D01*
X156774544Y-111069838D01*
X156714036Y-110923759D01*
X156617782Y-110798318D01*
X156492341Y-110702064D01*
X156346262Y-110641556D01*
X156346260Y-110641555D01*
X156189501Y-110620918D01*
X156189499Y-110620918D01*
X156032739Y-110641555D01*
X156032737Y-110641556D01*
X155886660Y-110702063D01*
X155761218Y-110798318D01*
X155664963Y-110923760D01*
X155604456Y-111069837D01*
X155604455Y-111069839D01*
X155583818Y-111226598D01*
X155583818Y-111226601D01*
X154345421Y-111226601D01*
X154355800Y-106469749D01*
X154372115Y-98992947D01*
X162668621Y-98983820D01*
X162664306Y-99178068D01*
G37*
%TD.AperFunction*%
%TA.AperFunction,Conductor*%
G36*
X164820599Y-94854898D02*
G01*
X164820600Y-94854898D01*
X164820599Y-94854947D01*
X164820825Y-94854898D01*
X169644449Y-94875601D01*
X169711400Y-94895572D01*
X169719383Y-94901211D01*
X169765159Y-94936336D01*
X169765162Y-94936337D01*
X169765163Y-94936338D01*
X169799450Y-94950540D01*
X169911238Y-94996844D01*
X169989619Y-95007163D01*
X170067999Y-95017482D01*
X170068000Y-95017482D01*
X170068001Y-95017482D01*
X170120253Y-95010602D01*
X170224762Y-94996844D01*
X170370841Y-94936336D01*
X170411884Y-94904842D01*
X170477047Y-94879649D01*
X170487872Y-94879221D01*
X182451732Y-94930568D01*
X182518687Y-94950540D01*
X182564214Y-95003540D01*
X182575200Y-95054567D01*
X182575200Y-98058139D01*
X182555515Y-98125178D01*
X182502711Y-98170933D01*
X182451042Y-98182139D01*
X162687000Y-98156897D01*
X162687000Y-96139001D01*
X174770918Y-96139001D01*
X174791555Y-96295760D01*
X174791556Y-96295762D01*
X174852064Y-96441841D01*
X174948318Y-96567282D01*
X175073759Y-96663536D01*
X175219838Y-96724044D01*
X175298218Y-96734363D01*
X175376599Y-96744682D01*
X175376600Y-96744682D01*
X175376601Y-96744682D01*
X175428853Y-96737802D01*
X175533362Y-96724044D01*
X175679441Y-96663536D01*
X175804882Y-96567282D01*
X175901136Y-96441841D01*
X175961644Y-96295762D01*
X175982282Y-96139000D01*
X175961644Y-95982238D01*
X175901136Y-95836159D01*
X175804882Y-95710718D01*
X175679441Y-95614464D01*
X175533362Y-95553956D01*
X175533360Y-95553955D01*
X175376601Y-95533318D01*
X175376599Y-95533318D01*
X175219839Y-95553955D01*
X175219837Y-95553956D01*
X175073760Y-95614463D01*
X174948318Y-95710718D01*
X174852063Y-95836160D01*
X174791556Y-95982237D01*
X174791555Y-95982239D01*
X174770918Y-96138998D01*
X174770918Y-96139001D01*
X162687000Y-96139001D01*
X162687000Y-94849706D01*
X164820599Y-94854898D01*
G37*
%TD.AperFunction*%
%TD*%
M02*
