%TF.GenerationSoftware,KiCad,Pcbnew,7.99.0-3012-g423a5b9961*%
%TF.CreationDate,2023-12-02T08:16:08-05:00*%
%TF.ProjectId,power,706f7765-722e-46b6-9963-61645f706362,V2.0*%
%TF.SameCoordinates,Original*%
%TF.FileFunction,Copper,L3,Inr*%
%TF.FilePolarity,Positive*%
%FSLAX46Y46*%
G04 Gerber Fmt 4.6, Leading zero omitted, Abs format (unit mm)*
G04 Created by KiCad (PCBNEW 7.99.0-3012-g423a5b9961) date 2023-12-02 08:16:08*
%MOMM*%
%LPD*%
G01*
G04 APERTURE LIST*
G04 Aperture macros list*
%AMRoundRect*
0 Rectangle with rounded corners*
0 $1 Rounding radius*
0 $2 $3 $4 $5 $6 $7 $8 $9 X,Y pos of 4 corners*
0 Add a 4 corners polygon primitive as box body*
4,1,4,$2,$3,$4,$5,$6,$7,$8,$9,$2,$3,0*
0 Add four circle primitives for the rounded corners*
1,1,$1+$1,$2,$3*
1,1,$1+$1,$4,$5*
1,1,$1+$1,$6,$7*
1,1,$1+$1,$8,$9*
0 Add four rect primitives between the rounded corners*
20,1,$1+$1,$2,$3,$4,$5,0*
20,1,$1+$1,$4,$5,$6,$7,0*
20,1,$1+$1,$6,$7,$8,$9,0*
20,1,$1+$1,$8,$9,$2,$3,0*%
G04 Aperture macros list end*
%TA.AperFunction,ComponentPad*%
%ADD10R,1.700000X1.700000*%
%TD*%
%TA.AperFunction,ComponentPad*%
%ADD11O,1.700000X1.700000*%
%TD*%
%TA.AperFunction,ComponentPad*%
%ADD12RoundRect,0.250002X1.599998X-1.599998X1.599998X1.599998X-1.599998X1.599998X-1.599998X-1.599998X0*%
%TD*%
%TA.AperFunction,ComponentPad*%
%ADD13C,3.700000*%
%TD*%
%TA.AperFunction,ComponentPad*%
%ADD14R,1.520000X1.520000*%
%TD*%
%TA.AperFunction,ComponentPad*%
%ADD15C,1.520000*%
%TD*%
%TA.AperFunction,ComponentPad*%
%ADD16C,2.909999*%
%TD*%
%TA.AperFunction,ComponentPad*%
%ADD17R,2.600000X2.600000*%
%TD*%
%TA.AperFunction,ComponentPad*%
%ADD18C,2.600000*%
%TD*%
%TA.AperFunction,ViaPad*%
%ADD19C,0.800000*%
%TD*%
%TA.AperFunction,Conductor*%
%ADD20C,0.406400*%
%TD*%
%TA.AperFunction,Conductor*%
%ADD21C,2.540000*%
%TD*%
G04 APERTURE END LIST*
D10*
%TO.N,/SCL*%
%TO.C,J3*%
X163169600Y-93472000D03*
D11*
%TO.N,/SDA*%
X163169600Y-90932000D03*
%TD*%
D12*
%TO.N,GND*%
%TO.C,J1*%
X128356001Y-86588104D03*
D13*
%TO.N,/Ideal Diode Controller/VIN*%
X133856001Y-86588104D03*
%TD*%
D14*
%TO.N,/VIN-*%
%TO.C,J4*%
X158490001Y-100356005D03*
D15*
X158490001Y-103356004D03*
%TO.N,GND*%
X158490001Y-106356003D03*
X158490001Y-109356002D03*
%TO.N,/VIN-*%
X155490002Y-100356005D03*
%TO.N,/+3.3V*%
X155490002Y-103356004D03*
%TO.N,GND*%
X155490002Y-106356003D03*
X155490002Y-109356002D03*
D16*
%TO.N,N/C*%
X162810000Y-98206007D03*
X162810000Y-111506000D03*
%TD*%
D17*
%TO.N,/Stage 2 Step Down/VIN*%
%TO.C,J2*%
X151940801Y-120170804D03*
D18*
%TO.N,/+3.3V*%
X156940801Y-120170804D03*
%TO.N,GND*%
X161940801Y-120170804D03*
%TD*%
D19*
%TO.N,/VIN-*%
X133553200Y-97790000D03*
X157734000Y-95961200D03*
X131521200Y-97790000D03*
X157734000Y-97332800D03*
X134112000Y-98704400D03*
X157734000Y-98602800D03*
X132080000Y-98704400D03*
X130505200Y-97790000D03*
X156464000Y-98602800D03*
X156464000Y-95961200D03*
X156464000Y-97332800D03*
X159054800Y-97332800D03*
X159054800Y-98602800D03*
X159054800Y-95961200D03*
X120167400Y-92303600D03*
X131013200Y-98704400D03*
X133096000Y-98704400D03*
X132537200Y-97790000D03*
X129489200Y-97790000D03*
%TO.N,GND*%
X140944600Y-111252000D03*
X143662400Y-102463600D03*
X149250400Y-101574600D03*
X142083301Y-106316598D03*
X136448800Y-94437200D03*
X140970000Y-109982000D03*
X126415800Y-100609400D03*
X136829800Y-119964200D03*
X148971000Y-102463600D03*
X127289287Y-98148505D03*
X136398000Y-121818400D03*
X137795000Y-116078000D03*
X145770600Y-102463600D03*
X120878600Y-104876600D03*
X129971800Y-93929200D03*
X128168400Y-93040200D03*
X126298074Y-98148505D03*
X127294101Y-97116311D03*
X150012400Y-94730096D03*
X136448800Y-93421200D03*
X120878600Y-107899200D03*
X127863600Y-93929200D03*
X142925800Y-103225600D03*
X142290800Y-108686600D03*
X120853200Y-114020600D03*
X135915400Y-103098600D03*
X120853200Y-112522000D03*
X128905000Y-93929200D03*
X136347200Y-116078000D03*
X120091200Y-93903800D03*
X142392400Y-99568000D03*
X126415800Y-101955600D03*
X138582400Y-95351600D03*
X146812000Y-102463600D03*
X120091200Y-95453200D03*
X123901200Y-109423200D03*
X134188200Y-93929200D03*
X122301000Y-117068600D03*
X131343400Y-93040200D03*
X120853200Y-115544600D03*
X142290800Y-109982000D03*
X120878600Y-106375200D03*
X136372600Y-123926600D03*
X143967200Y-101574600D03*
X147142200Y-101574600D03*
X131013200Y-93929200D03*
X119569501Y-100380800D03*
X141351000Y-99415100D03*
X136829800Y-118440200D03*
X143084301Y-105335376D03*
X133172200Y-93929200D03*
X136448800Y-95351600D03*
X129235200Y-93040200D03*
X122301000Y-115544600D03*
X123901200Y-104876600D03*
X122326400Y-104876600D03*
X120878600Y-103301800D03*
X126415800Y-103225600D03*
X119569501Y-101904800D03*
X154178000Y-82702400D03*
X148234400Y-101574600D03*
X126293101Y-97147505D03*
X120878600Y-109423200D03*
X125145800Y-103276400D03*
X139369800Y-116078000D03*
X122326400Y-107899200D03*
X132435600Y-93040200D03*
X122326400Y-106375200D03*
X147878800Y-102463600D03*
X132080000Y-93929200D03*
X149987000Y-102463600D03*
X123901200Y-107899200D03*
X122301000Y-110947200D03*
X146075400Y-101574600D03*
X137515600Y-95351600D03*
X120853200Y-110947200D03*
X122301000Y-114020600D03*
X123901200Y-106375200D03*
X125171200Y-101981000D03*
X145034000Y-101574600D03*
X144703800Y-102463600D03*
X135940800Y-101650800D03*
X143061342Y-106322704D03*
X147218400Y-99618800D03*
X151690799Y-94679296D03*
X124231400Y-92227400D03*
X142083301Y-105348581D03*
X136448800Y-92456000D03*
X122326400Y-103301800D03*
X130276600Y-93040200D03*
X133451600Y-93040200D03*
X139700000Y-111252000D03*
X142595600Y-91897200D03*
X120853200Y-117068600D03*
X142290800Y-111252000D03*
X153974800Y-107721400D03*
X122326400Y-109423200D03*
X127127000Y-94691200D03*
X135712200Y-108587804D03*
X139732857Y-100500344D03*
X135661400Y-110111804D03*
X127127000Y-93040200D03*
X122301000Y-112522000D03*
%TO.N,/Stage 1 Step Down/SW*%
X127736600Y-100101400D03*
X127965200Y-95492700D03*
%TO.N,/Stage 2 Step Down/VIN*%
X146812000Y-107238800D03*
X126212600Y-117144800D03*
X149352000Y-106324400D03*
X127584200Y-117144800D03*
X126212600Y-115824000D03*
X148336000Y-106324400D03*
X147878800Y-107238800D03*
X147320000Y-106324400D03*
X130073400Y-117144800D03*
X149910800Y-107238800D03*
X131445000Y-117144800D03*
X128879600Y-117119400D03*
X148894800Y-107238800D03*
X127584200Y-115824000D03*
X132740400Y-117119400D03*
X131445000Y-115824000D03*
X146304000Y-106324400D03*
X135890000Y-100152200D03*
X119569501Y-98882200D03*
X130073400Y-115824000D03*
X126492000Y-111074200D03*
X128879600Y-115824000D03*
X132740400Y-115824000D03*
X145288000Y-106324400D03*
%TO.N,/Stage 1 Step Down/VCC*%
X125984000Y-92303600D03*
X123484045Y-101661554D03*
%TO.N,/Stage 2 Step Down/SW*%
X144043400Y-103505000D03*
X143510000Y-108254800D03*
%TO.N,/Stage 2 Step Down/VCC*%
X139649200Y-109829600D03*
X142849600Y-101498400D03*
%TO.N,/+3.3V*%
X154383199Y-95898496D03*
X145618200Y-122910600D03*
X142925800Y-122910600D03*
X141655800Y-121564400D03*
X141630400Y-124206000D03*
X141630400Y-122910600D03*
X142925800Y-124206000D03*
X145618200Y-124206000D03*
X144322800Y-124206000D03*
X144322800Y-122910600D03*
X148539200Y-95339696D03*
X135356600Y-107035600D03*
%TO.N,/SDA*%
X151688800Y-92562193D03*
%TO.N,/SCL*%
X151688800Y-93561696D03*
%TO.N,Net-(JP1-A)*%
X148590000Y-91529696D03*
%TO.N,/VIN+*%
X156718000Y-86817200D03*
X152908000Y-86868000D03*
X151587200Y-85598000D03*
X151587200Y-86868000D03*
X152908000Y-85598000D03*
X155498800Y-85598000D03*
X154178000Y-85598000D03*
X155498800Y-84429600D03*
X155498800Y-88087200D03*
X151587200Y-84429600D03*
X155498800Y-86868000D03*
X152908000Y-84429600D03*
X154178000Y-86868000D03*
X154178000Y-88087200D03*
X151587200Y-88087200D03*
X152908000Y-88087200D03*
X156718000Y-85648800D03*
X154178000Y-84429600D03*
X157937200Y-86817200D03*
%TO.N,/Ideal Diode Controller/VIN*%
X133096000Y-90068400D03*
X135737600Y-89001600D03*
X135737600Y-90068400D03*
X135737600Y-84429600D03*
X133146800Y-83210400D03*
X135737600Y-83210400D03*
X134467600Y-90068400D03*
X134518400Y-83210400D03*
%TO.N,/Ideal Diode Controller/GATE*%
X142900400Y-88188800D03*
X147116800Y-82702400D03*
%TD*%
D20*
%TO.N,/VIN-*%
X120167400Y-92303600D02*
X124159700Y-96295900D01*
D21*
X157298304Y-97768496D02*
X152902493Y-97768496D01*
D20*
X127995100Y-96295900D02*
X129489200Y-97790000D01*
D21*
X155490002Y-100356005D02*
X152679597Y-97545600D01*
D20*
X124159700Y-96295900D02*
X127995100Y-96295900D01*
D21*
X157734000Y-97332800D02*
X157298304Y-97768496D01*
X152902493Y-97768496D02*
X152679597Y-97545600D01*
X131765600Y-97545600D02*
X131521200Y-97790000D01*
X152679597Y-97545600D02*
X131765600Y-97545600D01*
D20*
%TO.N,/Stage 2 Step Down/VIN*%
X132740400Y-115824000D02*
X132740400Y-103301800D01*
D21*
X148463000Y-106451400D02*
X148336000Y-106324400D01*
D20*
X124841000Y-109423200D02*
X126492000Y-111074200D01*
D21*
X130759200Y-113944400D02*
X128879600Y-115824000D01*
X148463000Y-110820200D02*
X148463000Y-106451400D01*
D20*
X124841000Y-104153699D02*
X124841000Y-109423200D01*
D21*
X145338800Y-113944400D02*
X151565204Y-120170804D01*
D20*
X132740400Y-103301800D02*
X135890000Y-100152200D01*
D21*
X145338800Y-113944400D02*
X148463000Y-110820200D01*
X151565204Y-120170804D02*
X151940801Y-120170804D01*
X142242980Y-113944400D02*
X145338800Y-113944400D01*
X142242980Y-113944400D02*
X130759200Y-113944400D01*
D20*
X119569501Y-98882200D02*
X124841000Y-104153699D01*
D21*
%TO.N,/+3.3V*%
X144353004Y-122940804D02*
X144322800Y-122910600D01*
X152104800Y-115334803D02*
X152104800Y-106391000D01*
X152104800Y-106391000D02*
X155139796Y-103356004D01*
X156940801Y-120170804D02*
X154170801Y-122940804D01*
X156940801Y-120170804D02*
X152104800Y-115334803D01*
X155139796Y-103356004D02*
X155490002Y-103356004D01*
X154170801Y-122940804D02*
X144353004Y-122940804D01*
D20*
%TO.N,/Ideal Diode Controller/GATE*%
X142900400Y-88188800D02*
X147116800Y-83972400D01*
X147116800Y-83972400D02*
X147116800Y-82702400D01*
%TD*%
%TA.AperFunction,Conductor*%
%TO.N,GND*%
G36*
X162201336Y-81761802D02*
G01*
X162342541Y-81769731D01*
X162498381Y-81778483D01*
X162505271Y-81779259D01*
X162753973Y-81821515D01*
X162796858Y-81828802D01*
X162803642Y-81830350D01*
X163087831Y-81912224D01*
X163087842Y-81912227D01*
X163094409Y-81914526D01*
X163231028Y-81971115D01*
X163367660Y-82027709D01*
X163373909Y-82030719D01*
X163543043Y-82124196D01*
X163632769Y-82173786D01*
X163638661Y-82177488D01*
X163879873Y-82348637D01*
X163885300Y-82352965D01*
X164091180Y-82536951D01*
X164105830Y-82550043D01*
X164110751Y-82554963D01*
X164307830Y-82775496D01*
X164312168Y-82780936D01*
X164483313Y-83022142D01*
X164487015Y-83028034D01*
X164630078Y-83286886D01*
X164633097Y-83293155D01*
X164746275Y-83566394D01*
X164748573Y-83572961D01*
X164830450Y-83857162D01*
X164831998Y-83863946D01*
X164881539Y-84155520D01*
X164882318Y-84162435D01*
X164899003Y-84459560D01*
X164899101Y-84463037D01*
X164899101Y-122655462D01*
X164899003Y-122658939D01*
X164882322Y-122955972D01*
X164881543Y-122962886D01*
X164832001Y-123254459D01*
X164830453Y-123261243D01*
X164748576Y-123545445D01*
X164746277Y-123552012D01*
X164633099Y-123825251D01*
X164630080Y-123831520D01*
X164487017Y-124090372D01*
X164483315Y-124096264D01*
X164312170Y-124337470D01*
X164307832Y-124342910D01*
X164110751Y-124563442D01*
X164105831Y-124568362D01*
X163966195Y-124693150D01*
X163895307Y-124756500D01*
X163885314Y-124765430D01*
X163879873Y-124769768D01*
X163638662Y-124940916D01*
X163632770Y-124944618D01*
X163373917Y-125087682D01*
X163367648Y-125090701D01*
X163094410Y-125203879D01*
X163087843Y-125206177D01*
X162803642Y-125288054D01*
X162796858Y-125289602D01*
X162505285Y-125339143D01*
X162498370Y-125339922D01*
X162201278Y-125356606D01*
X162197801Y-125356704D01*
X121871743Y-125356704D01*
X121868266Y-125356606D01*
X121571230Y-125339925D01*
X121564316Y-125339146D01*
X121272742Y-125289605D01*
X121265958Y-125288057D01*
X120981757Y-125206180D01*
X120975190Y-125203882D01*
X120802591Y-125132390D01*
X120701947Y-125090702D01*
X120695682Y-125087685D01*
X120436829Y-124944621D01*
X120430937Y-124940919D01*
X120189731Y-124769774D01*
X120184290Y-124765436D01*
X119963757Y-124568355D01*
X119958837Y-124563435D01*
X119930060Y-124531234D01*
X119761759Y-124342905D01*
X119757431Y-124337478D01*
X119586282Y-124096266D01*
X119582580Y-124090374D01*
X119499557Y-123940156D01*
X119439512Y-123831512D01*
X119436502Y-123825264D01*
X119359606Y-123639619D01*
X119323319Y-123552014D01*
X119321020Y-123545447D01*
X119239143Y-123261244D01*
X119237595Y-123254460D01*
X119207523Y-123077475D01*
X119188051Y-122962875D01*
X119187275Y-122955982D01*
X119172272Y-122688824D01*
X119170599Y-122659028D01*
X119170501Y-122655551D01*
X119170501Y-122419563D01*
X120345187Y-122419563D01*
X120374813Y-122688813D01*
X120374815Y-122688824D01*
X120443326Y-122950882D01*
X120443328Y-122950888D01*
X120549270Y-123200190D01*
X120586531Y-123261244D01*
X120690379Y-123431405D01*
X120690386Y-123431415D01*
X120863653Y-123639619D01*
X120863659Y-123639624D01*
X121065398Y-123820382D01*
X121291310Y-123969844D01*
X121536576Y-124084820D01*
X121536583Y-124084822D01*
X121536585Y-124084823D01*
X121795957Y-124162857D01*
X121795964Y-124162858D01*
X121795969Y-124162860D01*
X122063961Y-124202300D01*
X122063966Y-124202300D01*
X122267036Y-124202300D01*
X122318533Y-124198530D01*
X122469556Y-124187477D01*
X122603431Y-124157655D01*
X122733946Y-124128582D01*
X122733948Y-124128581D01*
X122733953Y-124128580D01*
X122986958Y-124031814D01*
X123223177Y-123899241D01*
X123437577Y-123733688D01*
X123625586Y-123538681D01*
X123783199Y-123318379D01*
X123857314Y-123174224D01*
X123907049Y-123077490D01*
X123907051Y-123077484D01*
X123907056Y-123077475D01*
X123994518Y-122821105D01*
X124043719Y-122554733D01*
X124053612Y-122284035D01*
X124023986Y-122014782D01*
X123955472Y-121752712D01*
X123849530Y-121503410D01*
X123708418Y-121272190D01*
X123638044Y-121187626D01*
X123535146Y-121063980D01*
X123535140Y-121063975D01*
X123333402Y-120883218D01*
X123107492Y-120733757D01*
X123041574Y-120702856D01*
X122862224Y-120618780D01*
X122862219Y-120618778D01*
X122862214Y-120618776D01*
X122602842Y-120540742D01*
X122602828Y-120540739D01*
X122474536Y-120521859D01*
X122334839Y-120501300D01*
X122131769Y-120501300D01*
X122131764Y-120501300D01*
X121929244Y-120516123D01*
X121929231Y-120516125D01*
X121664853Y-120575017D01*
X121664846Y-120575020D01*
X121411839Y-120671787D01*
X121175626Y-120804357D01*
X120961222Y-120969912D01*
X120773222Y-121164909D01*
X120773216Y-121164916D01*
X120615602Y-121385219D01*
X120615599Y-121385224D01*
X120491750Y-121626109D01*
X120491743Y-121626127D01*
X120404284Y-121882485D01*
X120404281Y-121882499D01*
X120355081Y-122148868D01*
X120355080Y-122148875D01*
X120345187Y-122419563D01*
X119170501Y-122419563D01*
X119170501Y-102989395D01*
X119190186Y-102922356D01*
X119242990Y-102876601D01*
X119293804Y-102865398D01*
X122909642Y-102845310D01*
X122976788Y-102864622D01*
X122998010Y-102881627D01*
X124400981Y-104284598D01*
X124434466Y-104345921D01*
X124437300Y-104372279D01*
X124437300Y-109487138D01*
X124444225Y-109508453D01*
X124448766Y-109527366D01*
X124452273Y-109549505D01*
X124452273Y-109549506D01*
X124462446Y-109569473D01*
X124469888Y-109587440D01*
X124476815Y-109608757D01*
X124476817Y-109608762D01*
X124489989Y-109626892D01*
X124500152Y-109643476D01*
X124510327Y-109663445D01*
X124510328Y-109663446D01*
X124510329Y-109663447D01*
X124533076Y-109686194D01*
X124773538Y-109926656D01*
X124894301Y-110047419D01*
X124927786Y-110108742D01*
X124922802Y-110178434D01*
X124880930Y-110234367D01*
X124815466Y-110258784D01*
X124806620Y-110259100D01*
X124737198Y-110259100D01*
X124658564Y-110274741D01*
X124658558Y-110274743D01*
X124606230Y-110296418D01*
X124606229Y-110296419D01*
X124547937Y-110333046D01*
X124495019Y-110407628D01*
X124495018Y-110407630D01*
X124473343Y-110459958D01*
X124473341Y-110459964D01*
X124457700Y-110538597D01*
X124457700Y-117477201D01*
X124473577Y-117556403D01*
X124473578Y-117556408D01*
X124495407Y-117608664D01*
X124495408Y-117608667D01*
X124495410Y-117608670D01*
X124532213Y-117666854D01*
X124606960Y-117719553D01*
X124659351Y-117741070D01*
X124738039Y-117756476D01*
X124738048Y-117756475D01*
X124738049Y-117756476D01*
X124792717Y-117756311D01*
X127561092Y-117747997D01*
X127569346Y-117748525D01*
X127584200Y-117750482D01*
X127600115Y-117748386D01*
X127608006Y-117747857D01*
X129994783Y-117740689D01*
X130003035Y-117741218D01*
X130073400Y-117750482D01*
X130147419Y-117740736D01*
X130155310Y-117740207D01*
X131335794Y-117736662D01*
X131344047Y-117737191D01*
X131445000Y-117750482D01*
X131551035Y-117736521D01*
X131558926Y-117735992D01*
X133048016Y-117731521D01*
X133126725Y-117715594D01*
X133178973Y-117693731D01*
X133237130Y-117656896D01*
X133289785Y-117582118D01*
X133311271Y-117529715D01*
X133326632Y-117451017D01*
X133326003Y-117276207D01*
X133326532Y-117267893D01*
X133346082Y-117119400D01*
X133325444Y-116962638D01*
X133325375Y-116962111D01*
X133324844Y-116954245D01*
X133321456Y-116012412D01*
X133324518Y-115988839D01*
X133324383Y-115988822D01*
X133346082Y-115824001D01*
X133346082Y-115823998D01*
X133325445Y-115667245D01*
X133325444Y-115667244D01*
X133325444Y-115667238D01*
X133325441Y-115667232D01*
X133324311Y-115663014D01*
X133320085Y-115631363D01*
X133319755Y-115539344D01*
X133339199Y-115472235D01*
X133391838Y-115426291D01*
X133443754Y-115414900D01*
X142182155Y-115414900D01*
X144678337Y-115414900D01*
X144745376Y-115434585D01*
X144766018Y-115451219D01*
X150403982Y-121089183D01*
X150437467Y-121150506D01*
X150440301Y-121176864D01*
X150440301Y-121346304D01*
X150420616Y-121413343D01*
X150367812Y-121459098D01*
X150316301Y-121470304D01*
X146354100Y-121470304D01*
X146287061Y-121450619D01*
X146241306Y-121397815D01*
X146230100Y-121346304D01*
X146230100Y-118081146D01*
X146230099Y-118081139D01*
X146227356Y-118055398D01*
X146225484Y-118037831D01*
X146214467Y-117986735D01*
X146212096Y-117976917D01*
X146212095Y-117976916D01*
X146212095Y-117976914D01*
X146187619Y-117930572D01*
X146169384Y-117896047D01*
X146123824Y-117843075D01*
X146123819Y-117843070D01*
X146123814Y-117843064D01*
X146123814Y-117843065D01*
X146106298Y-117825055D01*
X146040348Y-117787846D01*
X146026644Y-117780114D01*
X145959686Y-117760185D01*
X145959687Y-117760185D01*
X145901807Y-117751645D01*
X145901809Y-117751645D01*
X139240540Y-117727156D01*
X139240536Y-117727156D01*
X139240535Y-117727156D01*
X139235477Y-117727680D01*
X139196846Y-117731689D01*
X139145310Y-117742700D01*
X139135146Y-117745143D01*
X139135141Y-117745144D01*
X139135140Y-117745145D01*
X139135138Y-117745145D01*
X139135135Y-117745147D01*
X139054268Y-117787843D01*
X139054263Y-117787846D01*
X139001282Y-117833403D01*
X139001282Y-117833404D01*
X138983262Y-117850925D01*
X138983261Y-117850926D01*
X138938313Y-117930572D01*
X138938311Y-117930576D01*
X138918375Y-117997529D01*
X138918373Y-117997538D01*
X138909829Y-118055398D01*
X138885373Y-124487139D01*
X138889987Y-124531234D01*
X138901192Y-124583213D01*
X138903760Y-124593769D01*
X138903762Y-124593773D01*
X138946772Y-124674485D01*
X138992527Y-124727289D01*
X139010118Y-124745243D01*
X139010119Y-124745244D01*
X139010121Y-124745245D01*
X139089931Y-124789888D01*
X139089935Y-124789890D01*
X139156974Y-124809575D01*
X139214872Y-124817900D01*
X139214876Y-124817900D01*
X145900591Y-124817900D01*
X145900600Y-124817900D01*
X145944284Y-124813203D01*
X145970039Y-124807600D01*
X145995793Y-124801998D01*
X145999974Y-124800975D01*
X146005973Y-124799510D01*
X146086685Y-124756500D01*
X146139489Y-124710745D01*
X146157443Y-124693154D01*
X146202090Y-124613337D01*
X146221775Y-124546298D01*
X146225893Y-124517653D01*
X146254919Y-124454100D01*
X146313698Y-124416326D01*
X146348631Y-124411304D01*
X154075652Y-124411304D01*
X154083321Y-124411779D01*
X154109824Y-124415083D01*
X154201190Y-124411304D01*
X154231626Y-124411304D01*
X154261960Y-124408790D01*
X154353314Y-124405012D01*
X154379439Y-124399533D01*
X154387041Y-124398425D01*
X154413667Y-124396220D01*
X154502330Y-124373767D01*
X154591827Y-124355002D01*
X154616724Y-124345286D01*
X154624006Y-124342953D01*
X154649908Y-124336395D01*
X154733651Y-124299661D01*
X154818853Y-124266416D01*
X154841796Y-124252743D01*
X154848613Y-124249233D01*
X154873080Y-124238503D01*
X154928492Y-124202300D01*
X154949629Y-124188491D01*
X154979897Y-124170454D01*
X155028203Y-124141671D01*
X155048599Y-124124395D01*
X155054733Y-124119821D01*
X155077096Y-124105212D01*
X155144370Y-124043281D01*
X155157910Y-124031814D01*
X155167594Y-124023613D01*
X155167592Y-124023614D01*
X155189106Y-124002099D01*
X155256391Y-123940160D01*
X155272801Y-123919075D01*
X155277866Y-123913338D01*
X157742576Y-121448628D01*
X157762447Y-121432495D01*
X157764303Y-121431281D01*
X157764310Y-121431278D01*
X157960545Y-121278542D01*
X158128965Y-121095589D01*
X158264974Y-120887411D01*
X158364864Y-120659685D01*
X158425909Y-120418625D01*
X158429668Y-120373261D01*
X158446444Y-120170809D01*
X158446444Y-120170808D01*
X160135754Y-120170808D01*
X160155914Y-120439830D01*
X160155914Y-120439832D01*
X160215943Y-120702837D01*
X160215949Y-120702856D01*
X160314510Y-120953985D01*
X160314509Y-120953985D01*
X160449403Y-121187626D01*
X160503095Y-121254955D01*
X161338253Y-120419796D01*
X161347989Y-120449760D01*
X161435987Y-120588423D01*
X161555704Y-120700844D01*
X161690311Y-120774845D01*
X160855649Y-121609506D01*
X161038284Y-121734024D01*
X161038286Y-121734025D01*
X161281340Y-121851073D01*
X161281338Y-121851073D01*
X161539138Y-121930594D01*
X161539144Y-121930596D01*
X161805902Y-121970803D01*
X161805911Y-121970804D01*
X162075691Y-121970804D01*
X162075699Y-121970803D01*
X162342457Y-121930596D01*
X162342463Y-121930594D01*
X162600262Y-121851073D01*
X162843322Y-121734022D01*
X163025951Y-121609506D01*
X162188335Y-120771890D01*
X162256430Y-120744930D01*
X162389293Y-120648399D01*
X162493976Y-120521859D01*
X162542432Y-120418883D01*
X163378504Y-121254955D01*
X163378505Y-121254954D01*
X163432194Y-121187632D01*
X163432201Y-121187621D01*
X163567091Y-120953985D01*
X163665652Y-120702856D01*
X163665658Y-120702837D01*
X163725687Y-120439832D01*
X163725687Y-120439830D01*
X163745848Y-120170808D01*
X163745848Y-120170799D01*
X163725687Y-119901777D01*
X163725687Y-119901775D01*
X163665658Y-119638770D01*
X163665652Y-119638751D01*
X163567091Y-119387622D01*
X163567092Y-119387622D01*
X163432198Y-119153981D01*
X163378505Y-119086651D01*
X162543347Y-119921808D01*
X162533613Y-119891848D01*
X162445615Y-119753185D01*
X162325898Y-119640764D01*
X162191290Y-119566762D01*
X163025951Y-118732100D01*
X162843318Y-118607583D01*
X162843317Y-118607582D01*
X162600261Y-118490534D01*
X162600263Y-118490534D01*
X162342463Y-118411013D01*
X162342457Y-118411011D01*
X162075699Y-118370804D01*
X161805902Y-118370804D01*
X161539144Y-118411011D01*
X161539138Y-118411013D01*
X161281339Y-118490534D01*
X161038286Y-118607582D01*
X161038277Y-118607587D01*
X160855649Y-118732100D01*
X161693266Y-119569717D01*
X161625172Y-119596678D01*
X161492309Y-119693209D01*
X161387626Y-119819749D01*
X161339169Y-119922725D01*
X160503096Y-119086652D01*
X160449401Y-119153984D01*
X160314510Y-119387622D01*
X160215949Y-119638751D01*
X160215943Y-119638770D01*
X160155914Y-119901775D01*
X160155914Y-119901777D01*
X160135754Y-120170799D01*
X160135754Y-120170808D01*
X158446444Y-120170808D01*
X158446444Y-120170798D01*
X158425910Y-119922991D01*
X158425908Y-119922979D01*
X158364864Y-119681922D01*
X158264974Y-119454197D01*
X158128967Y-119246021D01*
X158109815Y-119225217D01*
X157960545Y-119063066D01*
X157960540Y-119063062D01*
X157960538Y-119063060D01*
X157764314Y-118910332D01*
X157762425Y-118909098D01*
X157742573Y-118892975D01*
X153611619Y-114762021D01*
X153578134Y-114700698D01*
X153575300Y-114674340D01*
X153575300Y-111506000D01*
X161149382Y-111506000D01*
X161169826Y-111765775D01*
X161230656Y-112019154D01*
X161330378Y-112259905D01*
X161466528Y-112482082D01*
X161466529Y-112482083D01*
X161466530Y-112482085D01*
X161466532Y-112482087D01*
X161635766Y-112680234D01*
X161833913Y-112849468D01*
X161833915Y-112849469D01*
X161833916Y-112849470D01*
X161833917Y-112849471D01*
X162056094Y-112985621D01*
X162149198Y-113024186D01*
X162296841Y-113085342D01*
X162550222Y-113146173D01*
X162810000Y-113166618D01*
X163069778Y-113146173D01*
X163323159Y-113085342D01*
X163563905Y-112985621D01*
X163786087Y-112849468D01*
X163984234Y-112680234D01*
X164153468Y-112482087D01*
X164289621Y-112259905D01*
X164389342Y-112019159D01*
X164450173Y-111765778D01*
X164470618Y-111506000D01*
X164450173Y-111246222D01*
X164389342Y-110992841D01*
X164289621Y-110752095D01*
X164289621Y-110752094D01*
X164153471Y-110529917D01*
X164153470Y-110529916D01*
X164153469Y-110529915D01*
X164153468Y-110529913D01*
X163984234Y-110331766D01*
X163786087Y-110162532D01*
X163786085Y-110162530D01*
X163786083Y-110162529D01*
X163786082Y-110162528D01*
X163563905Y-110026378D01*
X163323154Y-109926656D01*
X163069774Y-109865826D01*
X163069775Y-109865826D01*
X162810000Y-109845382D01*
X162550224Y-109865826D01*
X162296845Y-109926656D01*
X162056094Y-110026378D01*
X161833917Y-110162528D01*
X161833916Y-110162529D01*
X161635766Y-110331766D01*
X161466529Y-110529916D01*
X161466528Y-110529917D01*
X161330378Y-110752094D01*
X161230656Y-110992845D01*
X161169826Y-111246224D01*
X161149382Y-111506000D01*
X153575300Y-111506000D01*
X153575300Y-109356003D01*
X154225189Y-109356003D01*
X154244403Y-109575628D01*
X154244404Y-109575636D01*
X154301465Y-109788589D01*
X154301468Y-109788595D01*
X154394640Y-109988404D01*
X154439696Y-110052752D01*
X154998868Y-109493581D01*
X155021320Y-109570042D01*
X155100607Y-109693415D01*
X155211440Y-109789453D01*
X155344841Y-109850375D01*
X155348635Y-109850920D01*
X154793249Y-110406306D01*
X154857595Y-110451361D01*
X155057408Y-110544535D01*
X155057414Y-110544538D01*
X155270367Y-110601599D01*
X155270375Y-110601600D01*
X155490000Y-110620815D01*
X155490004Y-110620815D01*
X155709628Y-110601600D01*
X155709636Y-110601599D01*
X155922589Y-110544538D01*
X155922600Y-110544534D01*
X156122404Y-110451364D01*
X156122412Y-110451360D01*
X156186753Y-110406307D01*
X156186753Y-110406306D01*
X155631368Y-109850920D01*
X155635163Y-109850375D01*
X155768564Y-109789453D01*
X155879397Y-109693415D01*
X155958684Y-109570042D01*
X155981135Y-109493582D01*
X156540306Y-110052753D01*
X156540307Y-110052753D01*
X156585360Y-109988412D01*
X156585364Y-109988404D01*
X156678534Y-109788600D01*
X156678538Y-109788589D01*
X156735599Y-109575636D01*
X156735600Y-109575628D01*
X156754815Y-109356003D01*
X157225188Y-109356003D01*
X157244402Y-109575628D01*
X157244403Y-109575636D01*
X157301464Y-109788589D01*
X157301467Y-109788595D01*
X157394639Y-109988404D01*
X157439695Y-110052752D01*
X157998867Y-109493581D01*
X158021319Y-109570042D01*
X158100606Y-109693415D01*
X158211439Y-109789453D01*
X158344840Y-109850375D01*
X158348634Y-109850920D01*
X157793248Y-110406306D01*
X157857594Y-110451361D01*
X158057407Y-110544535D01*
X158057413Y-110544538D01*
X158270366Y-110601599D01*
X158270374Y-110601600D01*
X158489999Y-110620815D01*
X158490003Y-110620815D01*
X158709627Y-110601600D01*
X158709635Y-110601599D01*
X158922588Y-110544538D01*
X158922599Y-110544534D01*
X159122403Y-110451364D01*
X159122411Y-110451360D01*
X159186752Y-110406307D01*
X159186752Y-110406306D01*
X158631367Y-109850920D01*
X158635162Y-109850375D01*
X158768563Y-109789453D01*
X158879396Y-109693415D01*
X158958683Y-109570042D01*
X158981134Y-109493582D01*
X159540305Y-110052753D01*
X159540306Y-110052753D01*
X159585359Y-109988412D01*
X159585363Y-109988404D01*
X159678533Y-109788600D01*
X159678537Y-109788589D01*
X159735598Y-109575636D01*
X159735599Y-109575628D01*
X159754814Y-109356003D01*
X159754814Y-109356000D01*
X159735599Y-109136375D01*
X159735598Y-109136368D01*
X159678534Y-108923406D01*
X159585361Y-108723597D01*
X159585360Y-108723595D01*
X159540305Y-108659250D01*
X159540305Y-108659249D01*
X158981133Y-109218420D01*
X158958683Y-109141962D01*
X158879396Y-109018589D01*
X158768563Y-108922551D01*
X158635162Y-108861629D01*
X158631366Y-108861083D01*
X159186752Y-108305696D01*
X159122403Y-108260640D01*
X158922594Y-108167468D01*
X158922588Y-108167465D01*
X158709635Y-108110404D01*
X158709627Y-108110403D01*
X158490003Y-108091189D01*
X158489999Y-108091189D01*
X158270374Y-108110403D01*
X158270367Y-108110404D01*
X158057405Y-108167468D01*
X157857595Y-108260642D01*
X157793249Y-108305696D01*
X158348636Y-108861083D01*
X158344840Y-108861629D01*
X158211439Y-108922551D01*
X158100606Y-109018589D01*
X158021319Y-109141962D01*
X157998867Y-109218422D01*
X157439695Y-108659250D01*
X157394641Y-108723596D01*
X157301467Y-108923406D01*
X157244403Y-109136368D01*
X157244402Y-109136375D01*
X157225188Y-109356000D01*
X157225188Y-109356003D01*
X156754815Y-109356003D01*
X156754815Y-109356000D01*
X156735600Y-109136375D01*
X156735599Y-109136368D01*
X156678535Y-108923406D01*
X156585362Y-108723597D01*
X156585361Y-108723595D01*
X156540306Y-108659250D01*
X156540306Y-108659249D01*
X155981134Y-109218420D01*
X155958684Y-109141962D01*
X155879397Y-109018589D01*
X155768564Y-108922551D01*
X155635163Y-108861629D01*
X155631367Y-108861083D01*
X156186753Y-108305696D01*
X156122404Y-108260640D01*
X155922595Y-108167468D01*
X155922589Y-108167465D01*
X155709636Y-108110404D01*
X155709628Y-108110403D01*
X155490004Y-108091189D01*
X155490000Y-108091189D01*
X155270375Y-108110403D01*
X155270368Y-108110404D01*
X155057406Y-108167468D01*
X154857596Y-108260642D01*
X154793250Y-108305696D01*
X155348637Y-108861083D01*
X155344841Y-108861629D01*
X155211440Y-108922551D01*
X155100607Y-109018589D01*
X155021320Y-109141962D01*
X154998868Y-109218422D01*
X154439696Y-108659250D01*
X154394642Y-108723596D01*
X154301468Y-108923406D01*
X154244404Y-109136368D01*
X154244403Y-109136375D01*
X154225189Y-109356000D01*
X154225189Y-109356003D01*
X153575300Y-109356003D01*
X153575300Y-107051462D01*
X153594985Y-106984423D01*
X153611614Y-106963786D01*
X154040840Y-106534559D01*
X154102160Y-106501077D01*
X154171851Y-106506061D01*
X154227785Y-106547932D01*
X154248293Y-106590149D01*
X154301465Y-106788589D01*
X154301468Y-106788596D01*
X154394640Y-106988405D01*
X154439696Y-107052753D01*
X154998868Y-106493582D01*
X155021320Y-106570043D01*
X155100607Y-106693416D01*
X155211440Y-106789454D01*
X155344841Y-106850376D01*
X155348635Y-106850921D01*
X154793249Y-107406307D01*
X154857595Y-107451362D01*
X155057408Y-107544536D01*
X155057414Y-107544539D01*
X155270367Y-107601600D01*
X155270375Y-107601601D01*
X155490000Y-107620816D01*
X155490004Y-107620816D01*
X155709628Y-107601601D01*
X155709636Y-107601600D01*
X155922589Y-107544539D01*
X155922600Y-107544535D01*
X156122404Y-107451365D01*
X156122412Y-107451361D01*
X156186753Y-107406308D01*
X156186753Y-107406307D01*
X155631368Y-106850921D01*
X155635163Y-106850376D01*
X155768564Y-106789454D01*
X155879397Y-106693416D01*
X155958684Y-106570043D01*
X155981135Y-106493583D01*
X156540306Y-107052754D01*
X156540307Y-107052754D01*
X156585360Y-106988413D01*
X156585364Y-106988405D01*
X156678534Y-106788601D01*
X156678538Y-106788590D01*
X156735599Y-106575637D01*
X156735600Y-106575629D01*
X156754815Y-106356004D01*
X157225188Y-106356004D01*
X157244402Y-106575629D01*
X157244403Y-106575637D01*
X157301464Y-106788590D01*
X157301467Y-106788596D01*
X157394639Y-106988405D01*
X157439695Y-107052753D01*
X157998867Y-106493582D01*
X158021319Y-106570043D01*
X158100606Y-106693416D01*
X158211439Y-106789454D01*
X158344840Y-106850376D01*
X158348634Y-106850921D01*
X157793248Y-107406307D01*
X157857594Y-107451362D01*
X158057407Y-107544536D01*
X158057413Y-107544539D01*
X158270366Y-107601600D01*
X158270374Y-107601601D01*
X158489999Y-107620816D01*
X158490003Y-107620816D01*
X158709627Y-107601601D01*
X158709635Y-107601600D01*
X158922588Y-107544539D01*
X158922599Y-107544535D01*
X159122403Y-107451365D01*
X159122411Y-107451361D01*
X159186752Y-107406308D01*
X159186752Y-107406307D01*
X158631367Y-106850921D01*
X158635162Y-106850376D01*
X158768563Y-106789454D01*
X158879396Y-106693416D01*
X158958683Y-106570043D01*
X158981134Y-106493583D01*
X159540305Y-107052754D01*
X159540306Y-107052754D01*
X159585359Y-106988413D01*
X159585363Y-106988405D01*
X159678533Y-106788601D01*
X159678537Y-106788590D01*
X159735598Y-106575637D01*
X159735599Y-106575629D01*
X159754814Y-106356004D01*
X159754814Y-106356001D01*
X159735599Y-106136376D01*
X159735598Y-106136369D01*
X159678534Y-105923407D01*
X159585361Y-105723598D01*
X159585360Y-105723596D01*
X159540305Y-105659251D01*
X159540305Y-105659250D01*
X158981133Y-106218421D01*
X158958683Y-106141963D01*
X158879396Y-106018590D01*
X158768563Y-105922552D01*
X158635162Y-105861630D01*
X158631366Y-105861084D01*
X159186752Y-105305697D01*
X159122403Y-105260641D01*
X158922594Y-105167469D01*
X158922588Y-105167466D01*
X158709635Y-105110405D01*
X158709627Y-105110404D01*
X158490003Y-105091190D01*
X158489999Y-105091190D01*
X158270374Y-105110404D01*
X158270367Y-105110405D01*
X158057405Y-105167469D01*
X157857595Y-105260643D01*
X157793249Y-105305697D01*
X158348636Y-105861084D01*
X158344840Y-105861630D01*
X158211439Y-105922552D01*
X158100606Y-106018590D01*
X158021319Y-106141963D01*
X157998867Y-106218423D01*
X157439695Y-105659251D01*
X157394641Y-105723597D01*
X157301467Y-105923407D01*
X157244403Y-106136369D01*
X157244402Y-106136376D01*
X157225188Y-106356001D01*
X157225188Y-106356004D01*
X156754815Y-106356004D01*
X156754815Y-106356001D01*
X156735600Y-106136376D01*
X156735599Y-106136369D01*
X156678535Y-105923407D01*
X156585362Y-105723598D01*
X156585361Y-105723596D01*
X156540306Y-105659251D01*
X156540306Y-105659250D01*
X155981134Y-106218421D01*
X155958684Y-106141963D01*
X155879397Y-106018590D01*
X155768564Y-105922552D01*
X155635163Y-105861630D01*
X155631367Y-105861084D01*
X156186753Y-105305697D01*
X156122404Y-105260641D01*
X155922595Y-105167469D01*
X155922588Y-105167466D01*
X155724148Y-105114294D01*
X155664488Y-105077929D01*
X155633959Y-105015082D01*
X155642254Y-104945706D01*
X155668558Y-104906841D01*
X155750389Y-104825010D01*
X155807625Y-104792488D01*
X155969109Y-104751595D01*
X156192281Y-104653703D01*
X156396297Y-104520412D01*
X156575592Y-104355360D01*
X156725275Y-104163048D01*
X156841262Y-103948722D01*
X156920391Y-103718228D01*
X156960502Y-103477853D01*
X156960502Y-103234155D01*
X156920391Y-102993780D01*
X156841262Y-102763286D01*
X156725275Y-102548960D01*
X156725272Y-102548956D01*
X156575597Y-102356654D01*
X156575594Y-102356651D01*
X156575592Y-102356648D01*
X156396297Y-102191596D01*
X156396294Y-102191594D01*
X156192282Y-102058305D01*
X155989948Y-101969554D01*
X155936462Y-101924598D01*
X155915772Y-101857862D01*
X155934446Y-101790534D01*
X155986557Y-101743991D01*
X156004371Y-101737154D01*
X156026372Y-101730605D01*
X156245309Y-101623574D01*
X156313925Y-101574582D01*
X156379922Y-101551648D01*
X156385978Y-101551500D01*
X157201300Y-101551500D01*
X157268339Y-101571185D01*
X157314094Y-101623989D01*
X157325300Y-101675500D01*
X157325300Y-104219207D01*
X157329997Y-104262886D01*
X157341202Y-104314393D01*
X157343689Y-104324570D01*
X157343690Y-104324573D01*
X157386700Y-104405285D01*
X157432455Y-104458089D01*
X157450046Y-104476043D01*
X157450047Y-104476044D01*
X157450049Y-104476045D01*
X157529859Y-104520688D01*
X157529863Y-104520690D01*
X157596902Y-104540375D01*
X157654800Y-104548700D01*
X157654804Y-104548700D01*
X159337191Y-104548700D01*
X159337200Y-104548700D01*
X159380884Y-104544003D01*
X159406639Y-104538400D01*
X159432393Y-104532798D01*
X159436574Y-104531775D01*
X159442573Y-104530310D01*
X159523285Y-104487300D01*
X159576089Y-104441545D01*
X159594043Y-104423954D01*
X159638690Y-104344137D01*
X159658375Y-104277098D01*
X159666700Y-104219200D01*
X159666700Y-98206007D01*
X161149382Y-98206007D01*
X161169826Y-98465782D01*
X161230656Y-98719161D01*
X161330378Y-98959912D01*
X161466528Y-99182089D01*
X161466529Y-99182090D01*
X161466530Y-99182092D01*
X161466532Y-99182094D01*
X161635766Y-99380241D01*
X161833913Y-99549475D01*
X161833915Y-99549476D01*
X161833916Y-99549477D01*
X161833917Y-99549478D01*
X162056094Y-99685628D01*
X162148535Y-99723918D01*
X162296841Y-99785349D01*
X162550222Y-99846180D01*
X162810000Y-99866625D01*
X163069778Y-99846180D01*
X163323159Y-99785349D01*
X163563905Y-99685628D01*
X163786087Y-99549475D01*
X163984234Y-99380241D01*
X164153468Y-99182094D01*
X164289621Y-98959912D01*
X164389342Y-98719166D01*
X164450173Y-98465785D01*
X164470618Y-98206007D01*
X164450173Y-97946229D01*
X164389342Y-97692848D01*
X164289621Y-97452102D01*
X164289621Y-97452101D01*
X164153471Y-97229924D01*
X164153470Y-97229923D01*
X164153469Y-97229922D01*
X164153468Y-97229920D01*
X163984234Y-97031773D01*
X163786087Y-96862539D01*
X163786085Y-96862537D01*
X163786083Y-96862536D01*
X163786082Y-96862535D01*
X163563905Y-96726385D01*
X163323154Y-96626663D01*
X163069774Y-96565833D01*
X163069775Y-96565833D01*
X162810000Y-96545389D01*
X162550224Y-96565833D01*
X162296845Y-96626663D01*
X162056094Y-96726385D01*
X161833917Y-96862535D01*
X161833916Y-96862536D01*
X161635766Y-97031773D01*
X161466529Y-97229923D01*
X161466528Y-97229924D01*
X161330378Y-97452101D01*
X161230656Y-97692852D01*
X161169826Y-97946231D01*
X161149382Y-98206007D01*
X159666700Y-98206007D01*
X159666700Y-94341752D01*
X162119100Y-94341752D01*
X162130731Y-94400229D01*
X162130732Y-94400230D01*
X162175047Y-94466552D01*
X162241369Y-94510867D01*
X162241370Y-94510868D01*
X162299847Y-94522499D01*
X162299850Y-94522500D01*
X162299852Y-94522500D01*
X164039350Y-94522500D01*
X164039351Y-94522499D01*
X164054168Y-94519552D01*
X164097829Y-94510868D01*
X164097829Y-94510867D01*
X164097831Y-94510867D01*
X164164152Y-94466552D01*
X164208467Y-94400231D01*
X164208467Y-94400229D01*
X164208468Y-94400229D01*
X164220099Y-94341752D01*
X164220100Y-94341750D01*
X164220100Y-92602249D01*
X164220099Y-92602247D01*
X164208468Y-92543770D01*
X164208467Y-92543769D01*
X164164152Y-92477447D01*
X164097830Y-92433132D01*
X164097829Y-92433131D01*
X164039352Y-92421500D01*
X164039348Y-92421500D01*
X162299852Y-92421500D01*
X162299847Y-92421500D01*
X162241370Y-92433131D01*
X162241369Y-92433132D01*
X162175047Y-92477447D01*
X162130732Y-92543769D01*
X162130731Y-92543770D01*
X162119100Y-92602247D01*
X162119100Y-94341752D01*
X159666700Y-94341752D01*
X159666700Y-93850000D01*
X159662003Y-93806316D01*
X159657735Y-93786701D01*
X159650798Y-93754807D01*
X159648310Y-93744629D01*
X159648310Y-93744627D01*
X159605300Y-93663915D01*
X159559545Y-93611111D01*
X159541956Y-93593159D01*
X159541950Y-93593154D01*
X159462140Y-93548511D01*
X159462135Y-93548509D01*
X159395103Y-93528826D01*
X159395099Y-93528825D01*
X159395098Y-93528825D01*
X159337200Y-93520500D01*
X156181600Y-93520500D01*
X156181592Y-93520500D01*
X156137913Y-93525197D01*
X156086407Y-93536402D01*
X156076229Y-93538889D01*
X156076224Y-93538891D01*
X155995516Y-93581899D01*
X155995513Y-93581901D01*
X155982521Y-93593159D01*
X155942711Y-93627655D01*
X155924759Y-93645243D01*
X155924754Y-93645249D01*
X155880111Y-93725059D01*
X155880109Y-93725064D01*
X155860426Y-93792096D01*
X155860425Y-93792101D01*
X155860425Y-93792102D01*
X155852102Y-93849992D01*
X155852100Y-93850003D01*
X155852100Y-96173996D01*
X155832415Y-96241035D01*
X155779611Y-96286790D01*
X155728100Y-96297996D01*
X155053277Y-96297996D01*
X154986238Y-96278311D01*
X154940483Y-96225507D01*
X154930539Y-96156349D01*
X154938716Y-96126544D01*
X154960221Y-96074624D01*
X154968243Y-96055258D01*
X154988881Y-95898496D01*
X154968243Y-95741734D01*
X154907735Y-95595655D01*
X154811481Y-95470214D01*
X154686040Y-95373960D01*
X154539961Y-95313452D01*
X154539959Y-95313451D01*
X154383200Y-95292814D01*
X154383198Y-95292814D01*
X154226438Y-95313451D01*
X154226436Y-95313452D01*
X154080359Y-95373959D01*
X153954917Y-95470214D01*
X153858662Y-95595656D01*
X153798155Y-95741733D01*
X153798154Y-95741735D01*
X153777517Y-95898494D01*
X153777517Y-95898497D01*
X153798154Y-96055256D01*
X153798156Y-96055261D01*
X153827682Y-96126544D01*
X153835151Y-96196013D01*
X153803875Y-96258492D01*
X153743786Y-96294144D01*
X153713121Y-96297996D01*
X153495469Y-96297996D01*
X153428430Y-96278311D01*
X153427648Y-96277805D01*
X153381873Y-96247899D01*
X153357422Y-96237174D01*
X153350585Y-96233655D01*
X153336911Y-96225507D01*
X153327650Y-96219988D01*
X153242447Y-96186742D01*
X153158710Y-96150011D01*
X153158697Y-96150007D01*
X153132824Y-96143455D01*
X153125505Y-96141110D01*
X153100626Y-96131403D01*
X153100627Y-96131403D01*
X153100623Y-96131402D01*
X153011126Y-96112636D01*
X152965632Y-96101115D01*
X152922460Y-96090183D01*
X152895844Y-96087978D01*
X152888239Y-96086870D01*
X152862110Y-96081392D01*
X152862105Y-96081391D01*
X152862108Y-96081391D01*
X152770757Y-96077613D01*
X152760644Y-96076775D01*
X152740422Y-96075100D01*
X152740420Y-96075100D01*
X152709986Y-96075100D01*
X152618621Y-96071321D01*
X152618620Y-96071321D01*
X152592117Y-96074624D01*
X152584448Y-96075100D01*
X148932525Y-96075100D01*
X148865486Y-96055415D01*
X148819731Y-96002611D01*
X148809787Y-95933453D01*
X148838812Y-95869897D01*
X148857035Y-95852726D01*
X148967482Y-95767978D01*
X149063736Y-95642537D01*
X149124244Y-95496458D01*
X149144882Y-95339696D01*
X149144387Y-95335939D01*
X149124244Y-95182935D01*
X149124244Y-95182934D01*
X149063736Y-95036855D01*
X148967482Y-94911414D01*
X148842041Y-94815160D01*
X148695962Y-94754652D01*
X148695960Y-94754651D01*
X148539201Y-94734014D01*
X148539199Y-94734014D01*
X148382439Y-94754651D01*
X148382437Y-94754652D01*
X148236360Y-94815159D01*
X148110918Y-94911414D01*
X148014663Y-95036856D01*
X147954156Y-95182933D01*
X147954155Y-95182935D01*
X147933518Y-95339694D01*
X147933518Y-95339697D01*
X147954155Y-95496456D01*
X147954156Y-95496458D01*
X148014664Y-95642537D01*
X148110918Y-95767978D01*
X148221362Y-95852724D01*
X148262564Y-95909152D01*
X148266719Y-95978898D01*
X148232506Y-96039819D01*
X148170789Y-96072571D01*
X148145875Y-96075100D01*
X134550087Y-96075100D01*
X134515153Y-96070077D01*
X134484350Y-96061032D01*
X134452303Y-96051622D01*
X134452299Y-96051621D01*
X134452298Y-96051621D01*
X134394400Y-96043296D01*
X134394396Y-96043296D01*
X128551074Y-96043296D01*
X128484035Y-96023611D01*
X128438280Y-95970807D01*
X128428336Y-95901649D01*
X128452697Y-95843811D01*
X128489736Y-95795541D01*
X128550244Y-95649462D01*
X128570882Y-95492700D01*
X128550244Y-95335938D01*
X128489736Y-95189859D01*
X128393482Y-95064418D01*
X128268041Y-94968164D01*
X128121962Y-94907656D01*
X128121960Y-94907655D01*
X127965201Y-94887018D01*
X127965199Y-94887018D01*
X127808439Y-94907655D01*
X127808437Y-94907656D01*
X127662360Y-94968163D01*
X127536918Y-95064418D01*
X127440663Y-95189860D01*
X127380156Y-95335937D01*
X127380155Y-95335939D01*
X127359518Y-95492698D01*
X127359518Y-95492701D01*
X127380155Y-95649460D01*
X127380157Y-95649465D01*
X127409683Y-95720748D01*
X127417152Y-95790217D01*
X127385876Y-95852696D01*
X127325787Y-95888348D01*
X127295122Y-95892200D01*
X125383686Y-95892200D01*
X125316647Y-95872515D01*
X125270892Y-95819711D01*
X125259691Y-95767131D01*
X125278759Y-93561697D01*
X151083118Y-93561697D01*
X151103755Y-93718456D01*
X151103756Y-93718458D01*
X151158242Y-93850000D01*
X151164264Y-93864537D01*
X151260518Y-93989978D01*
X151385959Y-94086232D01*
X151532038Y-94146740D01*
X151610419Y-94157059D01*
X151688799Y-94167378D01*
X151688800Y-94167378D01*
X151688801Y-94167378D01*
X151741054Y-94160498D01*
X151845562Y-94146740D01*
X151991641Y-94086232D01*
X152117082Y-93989978D01*
X152213336Y-93864537D01*
X152273844Y-93718458D01*
X152290340Y-93593157D01*
X152294482Y-93561697D01*
X152294482Y-93561694D01*
X152273844Y-93404935D01*
X152273844Y-93404934D01*
X152213336Y-93258855D01*
X152120161Y-93137427D01*
X152094969Y-93072262D01*
X152109007Y-93003817D01*
X152120158Y-92986465D01*
X152213336Y-92865034D01*
X152273844Y-92718955D01*
X152294482Y-92562193D01*
X152292056Y-92543769D01*
X152277491Y-92433131D01*
X152273844Y-92405431D01*
X152213336Y-92259352D01*
X152117082Y-92133911D01*
X151991641Y-92037657D01*
X151902561Y-92000759D01*
X151845562Y-91977149D01*
X151845560Y-91977148D01*
X151688801Y-91956511D01*
X151688799Y-91956511D01*
X151532039Y-91977148D01*
X151532037Y-91977149D01*
X151385960Y-92037656D01*
X151260518Y-92133911D01*
X151164263Y-92259353D01*
X151103756Y-92405430D01*
X151103755Y-92405432D01*
X151083118Y-92562191D01*
X151083118Y-92562194D01*
X151103755Y-92718953D01*
X151103756Y-92718955D01*
X151164264Y-92865034D01*
X151257437Y-92986459D01*
X151282630Y-93051627D01*
X151268592Y-93120071D01*
X151257436Y-93137430D01*
X151164264Y-93258853D01*
X151103756Y-93404933D01*
X151103755Y-93404935D01*
X151083118Y-93561694D01*
X151083118Y-93561697D01*
X125278759Y-93561697D01*
X125285825Y-92744363D01*
X125306088Y-92677497D01*
X125359286Y-92632201D01*
X125428527Y-92622855D01*
X125491830Y-92652429D01*
X125508191Y-92669944D01*
X125555718Y-92731882D01*
X125681159Y-92828136D01*
X125827238Y-92888644D01*
X125905619Y-92898963D01*
X125983999Y-92909282D01*
X125984000Y-92909282D01*
X125984001Y-92909282D01*
X126036254Y-92902402D01*
X126140762Y-92888644D01*
X126286841Y-92828136D01*
X126412282Y-92731882D01*
X126508536Y-92606441D01*
X126569044Y-92460362D01*
X126589682Y-92303600D01*
X126569044Y-92146838D01*
X126508536Y-92000759D01*
X126412282Y-91875318D01*
X126286841Y-91779064D01*
X126140762Y-91718556D01*
X126140760Y-91718555D01*
X125984001Y-91697918D01*
X125983999Y-91697918D01*
X125827239Y-91718555D01*
X125827237Y-91718556D01*
X125681160Y-91779063D01*
X125555715Y-91875320D01*
X125515922Y-91927180D01*
X125459494Y-91968383D01*
X125389748Y-91972537D01*
X125328828Y-91938324D01*
X125296075Y-91876606D01*
X125293552Y-91850621D01*
X125296327Y-91529697D01*
X147984318Y-91529697D01*
X148004955Y-91686456D01*
X148004956Y-91686458D01*
X148065464Y-91832537D01*
X148161718Y-91957978D01*
X148287159Y-92054232D01*
X148433238Y-92114740D01*
X148511619Y-92125059D01*
X148589999Y-92135378D01*
X148590000Y-92135378D01*
X148590001Y-92135378D01*
X148642254Y-92128498D01*
X148746762Y-92114740D01*
X148892841Y-92054232D01*
X149018282Y-91957978D01*
X149114536Y-91832537D01*
X149175044Y-91686458D01*
X149195682Y-91529696D01*
X149194201Y-91518450D01*
X149175044Y-91372935D01*
X149175044Y-91372934D01*
X149114536Y-91226855D01*
X149018282Y-91101414D01*
X148892841Y-91005160D01*
X148746762Y-90944652D01*
X148746760Y-90944651D01*
X148650663Y-90932000D01*
X162114017Y-90932000D01*
X162134299Y-91137932D01*
X162161274Y-91226855D01*
X162194368Y-91335954D01*
X162291915Y-91518450D01*
X162301145Y-91529697D01*
X162423189Y-91678410D01*
X162472107Y-91718555D01*
X162583150Y-91809685D01*
X162765646Y-91907232D01*
X162963666Y-91967300D01*
X162963665Y-91967300D01*
X162982129Y-91969118D01*
X163169600Y-91987583D01*
X163375534Y-91967300D01*
X163573554Y-91907232D01*
X163756050Y-91809685D01*
X163916010Y-91678410D01*
X164047285Y-91518450D01*
X164144832Y-91335954D01*
X164204900Y-91137934D01*
X164225183Y-90932000D01*
X164204900Y-90726066D01*
X164144832Y-90528046D01*
X164047285Y-90345550D01*
X163995302Y-90282209D01*
X163916010Y-90185589D01*
X163756052Y-90054317D01*
X163756053Y-90054317D01*
X163756050Y-90054315D01*
X163573554Y-89956768D01*
X163375534Y-89896700D01*
X163375532Y-89896699D01*
X163375534Y-89896699D01*
X163169600Y-89876417D01*
X162963667Y-89896699D01*
X162765643Y-89956769D01*
X162655498Y-90015643D01*
X162583150Y-90054315D01*
X162583148Y-90054316D01*
X162583147Y-90054317D01*
X162423189Y-90185589D01*
X162291917Y-90345547D01*
X162194369Y-90528043D01*
X162134299Y-90726067D01*
X162114017Y-90932000D01*
X148650663Y-90932000D01*
X148590001Y-90924014D01*
X148589999Y-90924014D01*
X148433239Y-90944651D01*
X148433237Y-90944652D01*
X148287160Y-91005159D01*
X148161718Y-91101414D01*
X148065463Y-91226856D01*
X148004956Y-91372933D01*
X148004955Y-91372935D01*
X147984318Y-91529694D01*
X147984318Y-91529697D01*
X125296327Y-91529697D01*
X125298200Y-91313000D01*
X119294501Y-91313000D01*
X119227462Y-91293315D01*
X119181707Y-91240511D01*
X119170501Y-91189000D01*
X119170501Y-90604807D01*
X131722100Y-90604807D01*
X131726797Y-90648486D01*
X131738002Y-90699993D01*
X131740489Y-90710170D01*
X131740490Y-90710173D01*
X131783500Y-90790885D01*
X131829255Y-90843689D01*
X131846846Y-90861643D01*
X131846847Y-90861644D01*
X131846849Y-90861645D01*
X131926659Y-90906288D01*
X131926663Y-90906290D01*
X131993702Y-90925975D01*
X132051600Y-90934300D01*
X132051604Y-90934300D01*
X138864791Y-90934300D01*
X138864800Y-90934300D01*
X138908484Y-90929603D01*
X138934239Y-90924000D01*
X138959993Y-90918398D01*
X138964174Y-90917375D01*
X138970173Y-90915910D01*
X139050885Y-90872900D01*
X139103689Y-90827145D01*
X139121643Y-90809554D01*
X139166290Y-90729737D01*
X139185975Y-90662698D01*
X139194300Y-90604800D01*
X139194300Y-88211200D01*
X139191892Y-88188801D01*
X142294718Y-88188801D01*
X142315355Y-88345560D01*
X142315356Y-88345562D01*
X142368958Y-88474970D01*
X142375864Y-88491641D01*
X142472118Y-88617082D01*
X142597559Y-88713336D01*
X142743638Y-88773844D01*
X142822019Y-88784163D01*
X142900399Y-88794482D01*
X142900400Y-88794482D01*
X142900401Y-88794482D01*
X142952654Y-88787602D01*
X143057162Y-88773844D01*
X143203241Y-88713336D01*
X143328682Y-88617082D01*
X143424936Y-88491641D01*
X143475484Y-88369607D01*
X149197300Y-88369607D01*
X149201997Y-88413286D01*
X149213202Y-88464793D01*
X149215689Y-88474970D01*
X149215690Y-88474973D01*
X149258700Y-88555685D01*
X149304455Y-88608489D01*
X149322046Y-88626443D01*
X149322047Y-88626444D01*
X149322049Y-88626445D01*
X149375687Y-88656448D01*
X149401863Y-88671090D01*
X149468902Y-88690775D01*
X149526800Y-88699100D01*
X153032678Y-88699100D01*
X153053398Y-88700843D01*
X153484093Y-88773843D01*
X156017219Y-89203187D01*
X156025777Y-89204270D01*
X156055094Y-89206738D01*
X156063715Y-89207100D01*
X156063717Y-89207100D01*
X159286391Y-89207100D01*
X159286400Y-89207100D01*
X159330084Y-89202403D01*
X159355839Y-89196800D01*
X159381593Y-89191198D01*
X159385774Y-89190175D01*
X159391773Y-89188710D01*
X159472485Y-89145700D01*
X159525289Y-89099945D01*
X159543243Y-89082354D01*
X159587890Y-89002537D01*
X159607575Y-88935498D01*
X159615900Y-88877600D01*
X159615900Y-87827619D01*
X159615385Y-87817336D01*
X159614567Y-87809211D01*
X159612384Y-87787508D01*
X159589611Y-87712068D01*
X159579276Y-87692509D01*
X159556974Y-87650300D01*
X159556973Y-87650299D01*
X159556971Y-87650297D01*
X159556969Y-87650292D01*
X159522561Y-87602992D01*
X159247441Y-87320230D01*
X158458249Y-86509115D01*
X158453494Y-86503618D01*
X158417662Y-86456921D01*
X158365482Y-86388918D01*
X158365480Y-86388917D01*
X158365480Y-86388916D01*
X158277182Y-86321164D01*
X158263793Y-86309259D01*
X158208862Y-86252802D01*
X156896284Y-84903763D01*
X159994587Y-84903763D01*
X160024213Y-85173013D01*
X160024215Y-85173024D01*
X160092726Y-85435082D01*
X160092728Y-85435088D01*
X160198670Y-85684390D01*
X160245660Y-85761385D01*
X160339779Y-85915605D01*
X160339786Y-85915615D01*
X160513053Y-86123819D01*
X160513059Y-86123824D01*
X160595271Y-86197486D01*
X160714798Y-86304582D01*
X160940710Y-86454044D01*
X161185976Y-86569020D01*
X161185983Y-86569022D01*
X161185985Y-86569023D01*
X161445357Y-86647057D01*
X161445364Y-86647058D01*
X161445369Y-86647060D01*
X161713361Y-86686500D01*
X161713366Y-86686500D01*
X161916436Y-86686500D01*
X161968377Y-86682698D01*
X162118956Y-86671677D01*
X162231558Y-86646593D01*
X162383346Y-86612782D01*
X162383348Y-86612781D01*
X162383353Y-86612780D01*
X162636358Y-86516014D01*
X162872577Y-86383441D01*
X163086977Y-86217888D01*
X163274986Y-86022881D01*
X163432599Y-85802579D01*
X163506587Y-85658669D01*
X163556449Y-85561690D01*
X163556451Y-85561684D01*
X163556456Y-85561675D01*
X163643918Y-85305305D01*
X163693119Y-85038933D01*
X163703012Y-84768235D01*
X163673386Y-84498982D01*
X163604872Y-84236912D01*
X163498930Y-83987610D01*
X163357818Y-83756390D01*
X163268547Y-83649119D01*
X163184546Y-83548180D01*
X163184540Y-83548175D01*
X162982802Y-83367418D01*
X162756892Y-83217957D01*
X162728845Y-83204809D01*
X162511624Y-83102980D01*
X162511619Y-83102978D01*
X162511614Y-83102976D01*
X162252242Y-83024942D01*
X162252228Y-83024939D01*
X162136591Y-83007921D01*
X161984239Y-82985500D01*
X161781169Y-82985500D01*
X161781164Y-82985500D01*
X161578644Y-83000323D01*
X161578631Y-83000325D01*
X161314253Y-83059217D01*
X161314246Y-83059220D01*
X161061239Y-83155987D01*
X160825026Y-83288557D01*
X160610622Y-83454112D01*
X160422622Y-83649109D01*
X160422616Y-83649116D01*
X160265002Y-83869419D01*
X160264999Y-83869424D01*
X160141150Y-84110309D01*
X160141143Y-84110327D01*
X160053684Y-84366685D01*
X160053681Y-84366699D01*
X160004481Y-84633068D01*
X160004480Y-84633075D01*
X159994587Y-84903763D01*
X156896284Y-84903763D01*
X155932517Y-83913224D01*
X155923883Y-83905307D01*
X155923881Y-83905305D01*
X155897516Y-83883760D01*
X155897514Y-83883759D01*
X155897513Y-83883758D01*
X155825377Y-83845710D01*
X155825376Y-83845709D01*
X155825375Y-83845709D01*
X155758345Y-83826026D01*
X155757696Y-83825932D01*
X155700440Y-83817700D01*
X149526800Y-83817700D01*
X149526792Y-83817700D01*
X149483113Y-83822397D01*
X149431607Y-83833602D01*
X149421429Y-83836089D01*
X149421424Y-83836091D01*
X149340716Y-83879099D01*
X149340713Y-83879101D01*
X149301334Y-83913224D01*
X149287911Y-83924855D01*
X149269959Y-83942443D01*
X149269954Y-83942449D01*
X149225311Y-84022259D01*
X149225309Y-84022264D01*
X149205626Y-84089296D01*
X149205625Y-84089301D01*
X149205625Y-84089302D01*
X149198818Y-84136648D01*
X149197300Y-84147203D01*
X149197300Y-88369607D01*
X143475484Y-88369607D01*
X143485444Y-88345562D01*
X143505859Y-88190493D01*
X143534124Y-88126600D01*
X143541104Y-88119012D01*
X147424724Y-84235394D01*
X147447471Y-84212647D01*
X147457646Y-84192675D01*
X147467805Y-84176096D01*
X147480983Y-84157960D01*
X147487908Y-84136644D01*
X147495354Y-84118668D01*
X147505527Y-84098705D01*
X147509033Y-84076568D01*
X147513575Y-84057651D01*
X147520499Y-84036341D01*
X147520500Y-84036339D01*
X147520500Y-83908461D01*
X147520500Y-83204809D01*
X147540185Y-83137770D01*
X147546106Y-83129346D01*
X147641336Y-83005241D01*
X147701844Y-82859162D01*
X147722482Y-82702400D01*
X147720996Y-82691116D01*
X147704537Y-82566091D01*
X147701844Y-82545638D01*
X147641336Y-82399559D01*
X147545082Y-82274118D01*
X147419641Y-82177864D01*
X147418733Y-82177488D01*
X147273562Y-82117356D01*
X147273560Y-82117355D01*
X147116801Y-82096718D01*
X147116799Y-82096718D01*
X146960039Y-82117355D01*
X146960037Y-82117356D01*
X146813960Y-82177863D01*
X146688518Y-82274118D01*
X146592263Y-82399560D01*
X146531756Y-82545637D01*
X146531755Y-82545639D01*
X146511118Y-82702398D01*
X146511118Y-82702401D01*
X146531755Y-82859160D01*
X146531756Y-82859162D01*
X146573835Y-82960751D01*
X146592264Y-83005241D01*
X146687477Y-83129326D01*
X146712670Y-83194491D01*
X146713100Y-83204809D01*
X146713100Y-83753819D01*
X146693415Y-83820858D01*
X146676781Y-83841500D01*
X142970197Y-87548083D01*
X142908874Y-87581568D01*
X142898702Y-87583341D01*
X142743638Y-87603756D01*
X142743637Y-87603756D01*
X142597560Y-87664263D01*
X142472118Y-87760518D01*
X142375863Y-87885960D01*
X142315356Y-88032037D01*
X142315355Y-88032039D01*
X142294718Y-88188798D01*
X142294718Y-88188801D01*
X139191892Y-88188801D01*
X139189603Y-88167516D01*
X139179049Y-88119000D01*
X139178398Y-88116007D01*
X139175910Y-88105829D01*
X139175910Y-88105827D01*
X139132900Y-88025115D01*
X139087145Y-87972311D01*
X139069556Y-87954359D01*
X139069550Y-87954354D01*
X138989740Y-87909711D01*
X138989735Y-87909709D01*
X138922703Y-87890026D01*
X138922699Y-87890025D01*
X138922698Y-87890025D01*
X138864800Y-87881700D01*
X138864796Y-87881700D01*
X137997500Y-87881700D01*
X137930461Y-87862015D01*
X137884706Y-87809211D01*
X137873500Y-87757700D01*
X137873500Y-82877208D01*
X137873499Y-82877192D01*
X137868803Y-82833516D01*
X137864535Y-82813901D01*
X137857598Y-82782007D01*
X137856325Y-82776803D01*
X137855110Y-82771827D01*
X137812100Y-82691115D01*
X137766345Y-82638311D01*
X137748756Y-82620359D01*
X137748750Y-82620354D01*
X137668940Y-82575711D01*
X137668935Y-82575709D01*
X137601903Y-82556026D01*
X137601899Y-82556025D01*
X137601898Y-82556025D01*
X137544000Y-82547700D01*
X132051600Y-82547700D01*
X132051592Y-82547700D01*
X132007913Y-82552397D01*
X131956407Y-82563602D01*
X131946229Y-82566089D01*
X131946224Y-82566091D01*
X131865516Y-82609099D01*
X131865513Y-82609101D01*
X131852521Y-82620359D01*
X131812711Y-82654855D01*
X131794759Y-82672443D01*
X131794754Y-82672449D01*
X131750111Y-82752259D01*
X131750109Y-82752264D01*
X131730426Y-82819296D01*
X131730425Y-82819301D01*
X131730425Y-82819302D01*
X131722102Y-82877192D01*
X131722100Y-82877203D01*
X131722100Y-90604807D01*
X119170501Y-90604807D01*
X119170501Y-87236973D01*
X119190186Y-87169934D01*
X119242990Y-87124179D01*
X119312148Y-87114235D01*
X119375704Y-87143260D01*
X119412990Y-87200421D01*
X119421938Y-87229427D01*
X119421939Y-87229430D01*
X119535768Y-87465800D01*
X119535769Y-87465801D01*
X119535771Y-87465804D01*
X119535773Y-87465808D01*
X119629304Y-87602992D01*
X119683568Y-87682583D01*
X119862015Y-87874905D01*
X119862019Y-87874908D01*
X119862020Y-87874909D01*
X120067144Y-88038490D01*
X120294358Y-88169672D01*
X120538585Y-88265524D01*
X120794371Y-88323906D01*
X120794377Y-88323906D01*
X120794380Y-88323907D01*
X120990501Y-88338604D01*
X120990507Y-88338604D01*
X121121501Y-88338604D01*
X121317621Y-88323907D01*
X121317623Y-88323906D01*
X121317631Y-88323906D01*
X121573417Y-88265524D01*
X121817644Y-88169672D01*
X122044858Y-88038490D01*
X122249982Y-87874909D01*
X122428434Y-87682583D01*
X122576229Y-87465808D01*
X122690064Y-87229427D01*
X122767397Y-86978719D01*
X122806501Y-86719286D01*
X122806501Y-86456922D01*
X122788592Y-86338104D01*
X126006001Y-86338104D01*
X127489034Y-86338104D01*
X127456001Y-86493510D01*
X127456001Y-86682698D01*
X127489034Y-86838104D01*
X126006002Y-86838104D01*
X126006002Y-88238088D01*
X126016495Y-88340799D01*
X126071642Y-88507221D01*
X126071644Y-88507226D01*
X126163685Y-88656448D01*
X126287656Y-88780419D01*
X126436878Y-88872460D01*
X126436883Y-88872462D01*
X126603305Y-88927609D01*
X126603312Y-88927610D01*
X126706022Y-88938103D01*
X128106000Y-88938103D01*
X128106001Y-88938102D01*
X128106001Y-87453189D01*
X128167850Y-87473286D01*
X128308837Y-87488104D01*
X128403165Y-87488104D01*
X128544152Y-87473286D01*
X128606001Y-87453189D01*
X128606001Y-88938103D01*
X130005971Y-88938103D01*
X130005985Y-88938102D01*
X130108696Y-88927609D01*
X130275118Y-88872462D01*
X130275123Y-88872460D01*
X130424345Y-88780419D01*
X130548316Y-88656448D01*
X130640357Y-88507226D01*
X130640359Y-88507221D01*
X130695506Y-88340799D01*
X130695507Y-88340792D01*
X130706000Y-88238088D01*
X130706001Y-88238075D01*
X130706001Y-86838104D01*
X129222968Y-86838104D01*
X129256001Y-86682698D01*
X129256001Y-86493510D01*
X129222968Y-86338104D01*
X130706000Y-86338104D01*
X130706000Y-84938134D01*
X130705999Y-84938119D01*
X130695506Y-84835408D01*
X130640359Y-84668986D01*
X130640357Y-84668981D01*
X130548316Y-84519759D01*
X130424345Y-84395788D01*
X130275123Y-84303747D01*
X130275118Y-84303745D01*
X130108696Y-84248598D01*
X130108689Y-84248597D01*
X130005985Y-84238104D01*
X128606001Y-84238104D01*
X128606001Y-85723018D01*
X128544152Y-85702922D01*
X128403165Y-85688104D01*
X128308837Y-85688104D01*
X128167850Y-85702922D01*
X128106001Y-85723018D01*
X128106001Y-84238104D01*
X126706031Y-84238104D01*
X126706015Y-84238105D01*
X126603305Y-84248598D01*
X126436883Y-84303745D01*
X126436878Y-84303747D01*
X126287656Y-84395788D01*
X126163685Y-84519759D01*
X126071644Y-84668981D01*
X126071642Y-84668986D01*
X126016495Y-84835408D01*
X126016494Y-84835415D01*
X126006001Y-84938119D01*
X126006001Y-86338104D01*
X122788592Y-86338104D01*
X122767397Y-86197489D01*
X122690064Y-85946781D01*
X122620618Y-85802575D01*
X122576233Y-85710407D01*
X122576232Y-85710406D01*
X122576231Y-85710405D01*
X122576229Y-85710400D01*
X122428434Y-85493625D01*
X122374114Y-85435082D01*
X122249986Y-85301302D01*
X122089130Y-85173024D01*
X122044858Y-85137718D01*
X121817644Y-85006536D01*
X121573417Y-84910684D01*
X121573412Y-84910682D01*
X121573403Y-84910680D01*
X121355819Y-84861018D01*
X121317631Y-84852302D01*
X121317630Y-84852301D01*
X121317626Y-84852301D01*
X121317621Y-84852300D01*
X121121501Y-84837604D01*
X121121495Y-84837604D01*
X120990507Y-84837604D01*
X120990501Y-84837604D01*
X120794380Y-84852300D01*
X120794375Y-84852301D01*
X120538598Y-84910680D01*
X120538579Y-84910686D01*
X120294357Y-85006536D01*
X120067144Y-85137718D01*
X119862015Y-85301302D01*
X119683568Y-85493624D01*
X119535769Y-85710406D01*
X119535768Y-85710407D01*
X119421940Y-85946775D01*
X119421938Y-85946780D01*
X119421938Y-85946781D01*
X119412991Y-85975786D01*
X119374421Y-86034043D01*
X119310476Y-86062201D01*
X119241459Y-86051317D01*
X119189283Y-86004848D01*
X119170501Y-85939234D01*
X119170501Y-84462945D01*
X119170599Y-84459468D01*
X119177414Y-84338091D01*
X119187280Y-84162418D01*
X119188056Y-84155534D01*
X119237599Y-83863938D01*
X119239145Y-83857164D01*
X119242446Y-83845709D01*
X119321024Y-83572953D01*
X119323317Y-83566401D01*
X119436507Y-83293134D01*
X119439510Y-83286899D01*
X119582584Y-83028027D01*
X119586283Y-83022142D01*
X119730210Y-82819296D01*
X119757429Y-82780934D01*
X119761765Y-82775496D01*
X119940304Y-82575711D01*
X119958848Y-82554960D01*
X119963760Y-82550047D01*
X120184306Y-82352954D01*
X120189716Y-82348640D01*
X120430943Y-82177481D01*
X120436824Y-82173785D01*
X120695697Y-82030712D01*
X120701932Y-82027709D01*
X120908070Y-81942324D01*
X120975190Y-81914523D01*
X120981751Y-81912225D01*
X121265962Y-81830346D01*
X121272742Y-81828799D01*
X121564332Y-81779256D01*
X121571218Y-81778480D01*
X121733426Y-81769370D01*
X121868213Y-81761802D01*
X121871690Y-81761704D01*
X121917595Y-81761704D01*
X162152006Y-81761704D01*
X162197859Y-81761704D01*
X162201336Y-81761802D01*
G37*
%TD.AperFunction*%
%TA.AperFunction,Conductor*%
G36*
X127626539Y-96719285D02*
G01*
X127672294Y-96772089D01*
X127683500Y-96823600D01*
X127683500Y-97033700D01*
X127683720Y-97040421D01*
X127684691Y-97055233D01*
X127685350Y-97061927D01*
X127690379Y-97100127D01*
X127690379Y-97132492D01*
X127685350Y-97170694D01*
X127684691Y-97177388D01*
X127683720Y-97192200D01*
X127683500Y-97198921D01*
X127683500Y-98072407D01*
X127688197Y-98116086D01*
X127699402Y-98167593D01*
X127701889Y-98177770D01*
X127701890Y-98177773D01*
X127744900Y-98258485D01*
X127790655Y-98311289D01*
X127808246Y-98329243D01*
X127808247Y-98329244D01*
X127808249Y-98329245D01*
X127859055Y-98357664D01*
X127888063Y-98373890D01*
X127955102Y-98393575D01*
X128013000Y-98401900D01*
X129904921Y-98401900D01*
X129971960Y-98421585D01*
X130013316Y-98465680D01*
X130391726Y-99146815D01*
X130391735Y-99146829D01*
X130421471Y-99187594D01*
X130421475Y-99187598D01*
X130421477Y-99187601D01*
X130462833Y-99231696D01*
X130475009Y-99243643D01*
X130554826Y-99288290D01*
X130621865Y-99307975D01*
X130679763Y-99316300D01*
X130679767Y-99316300D01*
X134394391Y-99316300D01*
X134394400Y-99316300D01*
X134438084Y-99311603D01*
X134463839Y-99306000D01*
X134489593Y-99300398D01*
X134493774Y-99299375D01*
X134499773Y-99297910D01*
X134580485Y-99254900D01*
X134633289Y-99209145D01*
X134651243Y-99191554D01*
X134695890Y-99111737D01*
X134695893Y-99111727D01*
X134697821Y-99105163D01*
X134735596Y-99046386D01*
X134799152Y-99017362D01*
X134816797Y-99016100D01*
X152019134Y-99016100D01*
X152086173Y-99035785D01*
X152106815Y-99052419D01*
X154310587Y-101256191D01*
X154344062Y-101317465D01*
X154344003Y-101317195D01*
X154346490Y-101327373D01*
X154389500Y-101408085D01*
X154435255Y-101460889D01*
X154452846Y-101478843D01*
X154452847Y-101478844D01*
X154452849Y-101478845D01*
X154532659Y-101523488D01*
X154532663Y-101523490D01*
X154599702Y-101543175D01*
X154599703Y-101543175D01*
X154603953Y-101544423D01*
X154603636Y-101545499D01*
X154632672Y-101556915D01*
X154841950Y-101681617D01*
X154843304Y-101682145D01*
X154843777Y-101682510D01*
X154846558Y-101683870D01*
X154846278Y-101684441D01*
X154898604Y-101724849D01*
X154922039Y-101790671D01*
X154906166Y-101858714D01*
X154856027Y-101907375D01*
X154828683Y-101917869D01*
X154808267Y-101923040D01*
X154790899Y-101926682D01*
X154718771Y-101941806D01*
X154693891Y-101951513D01*
X154686574Y-101953857D01*
X154660691Y-101960412D01*
X154576942Y-101997147D01*
X154491748Y-102030390D01*
X154491743Y-102030392D01*
X154468801Y-102044062D01*
X154461973Y-102047577D01*
X154437517Y-102058305D01*
X154437515Y-102058306D01*
X154437511Y-102058308D01*
X154360967Y-102108316D01*
X154282386Y-102155142D01*
X154262011Y-102172398D01*
X154255851Y-102176992D01*
X154233500Y-102191596D01*
X154173752Y-102246598D01*
X154166228Y-102253524D01*
X154143006Y-102273193D01*
X154143003Y-102273196D01*
X154143003Y-102273195D01*
X154121491Y-102294707D01*
X154054210Y-102356643D01*
X154054202Y-102356652D01*
X154037798Y-102377726D01*
X154032709Y-102383488D01*
X151132284Y-105283913D01*
X151126522Y-105289002D01*
X151105448Y-105305406D01*
X151105439Y-105305414D01*
X151043503Y-105372695D01*
X151021993Y-105394205D01*
X151002322Y-105417430D01*
X150940397Y-105484698D01*
X150940392Y-105484704D01*
X150925788Y-105507055D01*
X150921194Y-105513215D01*
X150903938Y-105533590D01*
X150857112Y-105612171D01*
X150807104Y-105688715D01*
X150807102Y-105688719D01*
X150807101Y-105688721D01*
X150796373Y-105713177D01*
X150792858Y-105720005D01*
X150779188Y-105742947D01*
X150779187Y-105742949D01*
X150762217Y-105786440D01*
X150719509Y-105841737D01*
X150653684Y-105865166D01*
X150585642Y-105849289D01*
X150536986Y-105799146D01*
X150522700Y-105741363D01*
X150522700Y-104907204D01*
X150522699Y-104907188D01*
X150518003Y-104863512D01*
X150513735Y-104843897D01*
X150506798Y-104812003D01*
X150504310Y-104801825D01*
X150504310Y-104801823D01*
X150461300Y-104721111D01*
X150415545Y-104668307D01*
X150397956Y-104650355D01*
X150397950Y-104650350D01*
X150318140Y-104605707D01*
X150318135Y-104605705D01*
X150251103Y-104586022D01*
X150251099Y-104586021D01*
X150251098Y-104586021D01*
X150193200Y-104577696D01*
X143811800Y-104577696D01*
X143811792Y-104577696D01*
X143768113Y-104582393D01*
X143716607Y-104593598D01*
X143706429Y-104596085D01*
X143706424Y-104596087D01*
X143625716Y-104639095D01*
X143625713Y-104639097D01*
X143592005Y-104668306D01*
X143572911Y-104684851D01*
X143554959Y-104702439D01*
X143554954Y-104702445D01*
X143510311Y-104782255D01*
X143510309Y-104782260D01*
X143490626Y-104849292D01*
X143490625Y-104849297D01*
X143490625Y-104849298D01*
X143482302Y-104907188D01*
X143482300Y-104907199D01*
X143482300Y-105318087D01*
X143482520Y-105324817D01*
X143482946Y-105331326D01*
X143482946Y-105339422D01*
X143482520Y-105345933D01*
X143482300Y-105352663D01*
X143482300Y-106606807D01*
X143486997Y-106650486D01*
X143498202Y-106701993D01*
X143500689Y-106712170D01*
X143500690Y-106712173D01*
X143543700Y-106792885D01*
X143589455Y-106845689D01*
X143607046Y-106863643D01*
X143607047Y-106863644D01*
X143607049Y-106863645D01*
X143634212Y-106878839D01*
X143686863Y-106908290D01*
X143753902Y-106927975D01*
X143811800Y-106936300D01*
X145703721Y-106936300D01*
X145770760Y-106955985D01*
X145812116Y-107000080D01*
X146190526Y-107681215D01*
X146190535Y-107681229D01*
X146220271Y-107721994D01*
X146220275Y-107721998D01*
X146220277Y-107722001D01*
X146261633Y-107766096D01*
X146273809Y-107778043D01*
X146353626Y-107822690D01*
X146420665Y-107842375D01*
X146478563Y-107850700D01*
X146868500Y-107850700D01*
X146935539Y-107870385D01*
X146981294Y-107923189D01*
X146992500Y-107974700D01*
X146992500Y-110159737D01*
X146972815Y-110226776D01*
X146956181Y-110247418D01*
X144766018Y-112437581D01*
X144704695Y-112471066D01*
X144678337Y-112473900D01*
X133432284Y-112473900D01*
X133365245Y-112454215D01*
X133319490Y-112401411D01*
X133308285Y-112350346D01*
X133306041Y-111726506D01*
X133301764Y-110537595D01*
X133285980Y-110459350D01*
X133264306Y-110407290D01*
X133263686Y-110406306D01*
X133227820Y-110349339D01*
X133196344Y-110327006D01*
X133153061Y-110272159D01*
X133144100Y-110225877D01*
X133144100Y-103520379D01*
X133163785Y-103453340D01*
X133180414Y-103432703D01*
X134668512Y-101944605D01*
X134729832Y-101911122D01*
X134799524Y-101916106D01*
X134855457Y-101957978D01*
X134879874Y-102023442D01*
X134880172Y-102034381D01*
X134799947Y-106787678D01*
X134790527Y-106833035D01*
X134771557Y-106878834D01*
X134771555Y-106878839D01*
X134750918Y-107035598D01*
X134750918Y-107035601D01*
X134771556Y-107192363D01*
X134782418Y-107218587D01*
X134791838Y-107268130D01*
X134727789Y-111063073D01*
X134721600Y-111429800D01*
X134721601Y-111429800D01*
X135788400Y-111429800D01*
X138912600Y-111455200D01*
X139697080Y-110464276D01*
X139754120Y-110423937D01*
X139778096Y-110418312D01*
X139805962Y-110414644D01*
X139952041Y-110354136D01*
X140077482Y-110257882D01*
X140173736Y-110132441D01*
X140234244Y-109986362D01*
X140254882Y-109829600D01*
X140253838Y-109821670D01*
X140264603Y-109752636D01*
X140279549Y-109728527D01*
X141325600Y-108407200D01*
X141324210Y-108254801D01*
X142904318Y-108254801D01*
X142924955Y-108411560D01*
X142924956Y-108411562D01*
X142985464Y-108557641D01*
X143081718Y-108683082D01*
X143207159Y-108779336D01*
X143353238Y-108839844D01*
X143400013Y-108846002D01*
X143509999Y-108860482D01*
X143510000Y-108860482D01*
X143510001Y-108860482D01*
X143562254Y-108853602D01*
X143666762Y-108839844D01*
X143812841Y-108779336D01*
X143938282Y-108683082D01*
X144034536Y-108557641D01*
X144095044Y-108411562D01*
X144115682Y-108254800D01*
X144095044Y-108098038D01*
X144034536Y-107951959D01*
X143938282Y-107826518D01*
X143812841Y-107730264D01*
X143805096Y-107727056D01*
X143666762Y-107669756D01*
X143666760Y-107669755D01*
X143510001Y-107649118D01*
X143509999Y-107649118D01*
X143353239Y-107669755D01*
X143353237Y-107669756D01*
X143207160Y-107730263D01*
X143081718Y-107826518D01*
X142985463Y-107951960D01*
X142924956Y-108098037D01*
X142924955Y-108098039D01*
X142904318Y-108254798D01*
X142904318Y-108254801D01*
X141324210Y-108254801D01*
X141280899Y-103505001D01*
X143437718Y-103505001D01*
X143458355Y-103661760D01*
X143458356Y-103661762D01*
X143518864Y-103807841D01*
X143615118Y-103933282D01*
X143740559Y-104029536D01*
X143886638Y-104090044D01*
X143965019Y-104100363D01*
X144043399Y-104110682D01*
X144043400Y-104110682D01*
X144043401Y-104110682D01*
X144095654Y-104103802D01*
X144200162Y-104090044D01*
X144346241Y-104029536D01*
X144471682Y-103933282D01*
X144567936Y-103807841D01*
X144628444Y-103661762D01*
X144649082Y-103505000D01*
X144628444Y-103348238D01*
X144567936Y-103202159D01*
X144471682Y-103076718D01*
X144346241Y-102980464D01*
X144323704Y-102971129D01*
X144200162Y-102919956D01*
X144200160Y-102919955D01*
X144043401Y-102899318D01*
X144043399Y-102899318D01*
X143886639Y-102919955D01*
X143886637Y-102919956D01*
X143740560Y-102980463D01*
X143615118Y-103076718D01*
X143518863Y-103202160D01*
X143458356Y-103348237D01*
X143458355Y-103348239D01*
X143437718Y-103504998D01*
X143437718Y-103505001D01*
X141280899Y-103505001D01*
X141262602Y-101498401D01*
X142243918Y-101498401D01*
X142264555Y-101655160D01*
X142264556Y-101655162D01*
X142312207Y-101770203D01*
X142325064Y-101801241D01*
X142421318Y-101926682D01*
X142546759Y-102022936D01*
X142692838Y-102083444D01*
X142771219Y-102093763D01*
X142849599Y-102104082D01*
X142849600Y-102104082D01*
X142849601Y-102104082D01*
X142901854Y-102097202D01*
X143006362Y-102083444D01*
X143152441Y-102022936D01*
X143277882Y-101926682D01*
X143374136Y-101801241D01*
X143434644Y-101655162D01*
X143454440Y-101504793D01*
X143455282Y-101498401D01*
X143455282Y-101498398D01*
X143434644Y-101341639D01*
X143434644Y-101341638D01*
X143374136Y-101195559D01*
X143277882Y-101070118D01*
X143152441Y-100973864D01*
X143006362Y-100913356D01*
X143006360Y-100913355D01*
X142849601Y-100892718D01*
X142849599Y-100892718D01*
X142692839Y-100913355D01*
X142692837Y-100913356D01*
X142546760Y-100973863D01*
X142421318Y-101070118D01*
X142325063Y-101195560D01*
X142264556Y-101341637D01*
X142264555Y-101341639D01*
X142243918Y-101498398D01*
X142243918Y-101498401D01*
X141262602Y-101498401D01*
X141250543Y-100175986D01*
X141269616Y-100108771D01*
X141322000Y-100062537D01*
X141374791Y-100050857D01*
X141510471Y-100051136D01*
X141510469Y-100051134D01*
X141510471Y-100051135D01*
X140836366Y-99549477D01*
X140690600Y-99441000D01*
X140640242Y-99440556D01*
X134924800Y-99390199D01*
X134924800Y-99390200D01*
X134905795Y-100516197D01*
X134884982Y-100582894D01*
X134869494Y-100601785D01*
X132500153Y-102971129D01*
X132409729Y-103061552D01*
X132399552Y-103081525D01*
X132389391Y-103098106D01*
X132376218Y-103116238D01*
X132376214Y-103116246D01*
X132369289Y-103137557D01*
X132361847Y-103155524D01*
X132351672Y-103175494D01*
X132348164Y-103197638D01*
X132343626Y-103216542D01*
X132336700Y-103237862D01*
X132336700Y-110135100D01*
X132317015Y-110202139D01*
X132264211Y-110247894D01*
X132212700Y-110259100D01*
X126299180Y-110259100D01*
X126232141Y-110239415D01*
X126211499Y-110222781D01*
X125281019Y-109292301D01*
X125247534Y-109230978D01*
X125244700Y-109204620D01*
X125244700Y-104089759D01*
X125244699Y-104089756D01*
X125237775Y-104068448D01*
X125233231Y-104049526D01*
X125229727Y-104027394D01*
X125229726Y-104027392D01*
X125229726Y-104027391D01*
X125229725Y-104027390D01*
X125219552Y-104007424D01*
X125212105Y-103989445D01*
X125205182Y-103968138D01*
X125192011Y-103950010D01*
X125181843Y-103933417D01*
X125171671Y-103913452D01*
X125081247Y-103823028D01*
X123675871Y-102417652D01*
X123642386Y-102356329D01*
X123647370Y-102286637D01*
X123689242Y-102230704D01*
X123716089Y-102215414D01*
X123786886Y-102186090D01*
X123912327Y-102089836D01*
X124008581Y-101964395D01*
X124069089Y-101818316D01*
X124089727Y-101661554D01*
X124088885Y-101655162D01*
X124069089Y-101504793D01*
X124069089Y-101504792D01*
X124008581Y-101358713D01*
X123912327Y-101233272D01*
X123786886Y-101137018D01*
X123640807Y-101076510D01*
X123640805Y-101076509D01*
X123484046Y-101055872D01*
X123484044Y-101055872D01*
X123327284Y-101076509D01*
X123327279Y-101076511D01*
X123226589Y-101118218D01*
X123157120Y-101125687D01*
X123094641Y-101094411D01*
X123058989Y-101034322D01*
X123055143Y-101002483D01*
X123061857Y-100297561D01*
X123082179Y-100230714D01*
X123135416Y-100185464D01*
X123182933Y-100174778D01*
X125222000Y-100126800D01*
X125222220Y-100101401D01*
X127130918Y-100101401D01*
X127151555Y-100258160D01*
X127151556Y-100258162D01*
X127212064Y-100404241D01*
X127308318Y-100529682D01*
X127433759Y-100625936D01*
X127579838Y-100686444D01*
X127658219Y-100696763D01*
X127736599Y-100707082D01*
X127736600Y-100707082D01*
X127736601Y-100707082D01*
X127788854Y-100700202D01*
X127893362Y-100686444D01*
X128039441Y-100625936D01*
X128164882Y-100529682D01*
X128261136Y-100404241D01*
X128321644Y-100258162D01*
X128342282Y-100101400D01*
X128335664Y-100051134D01*
X128321644Y-99944639D01*
X128321644Y-99944638D01*
X128261136Y-99798559D01*
X128164882Y-99673118D01*
X128039441Y-99576864D01*
X127973325Y-99549478D01*
X127893362Y-99516356D01*
X127893360Y-99516355D01*
X127736601Y-99495718D01*
X127736599Y-99495718D01*
X127579839Y-99516355D01*
X127579837Y-99516356D01*
X127433760Y-99576863D01*
X127308318Y-99673118D01*
X127212063Y-99798560D01*
X127151556Y-99944637D01*
X127151555Y-99944639D01*
X127130918Y-100101398D01*
X127130918Y-100101401D01*
X125222220Y-100101401D01*
X125250567Y-96822527D01*
X125270830Y-96755661D01*
X125324028Y-96710365D01*
X125374562Y-96699600D01*
X127559500Y-96699600D01*
X127626539Y-96719285D01*
G37*
%TD.AperFunction*%
%TD*%
%TA.AperFunction,Conductor*%
%TO.N,/Ideal Diode Controller/VIN*%
G36*
X137611039Y-82772885D02*
G01*
X137656794Y-82825689D01*
X137668000Y-82877200D01*
X137668000Y-88087200D01*
X138864800Y-88087200D01*
X138931839Y-88106885D01*
X138977594Y-88159689D01*
X138988800Y-88211200D01*
X138988800Y-90604800D01*
X138969115Y-90671839D01*
X138916311Y-90717594D01*
X138864800Y-90728800D01*
X132051600Y-90728800D01*
X131984561Y-90709115D01*
X131938806Y-90656311D01*
X131927600Y-90604800D01*
X131927600Y-82877200D01*
X131947285Y-82810161D01*
X132000089Y-82764406D01*
X132051600Y-82753200D01*
X137544000Y-82753200D01*
X137611039Y-82772885D01*
G37*
%TD.AperFunction*%
%TD*%
%TA.AperFunction,Conductor*%
%TO.N,/VIN+*%
G36*
X155767479Y-84042885D02*
G01*
X155789314Y-84060728D01*
X159375274Y-87746298D01*
X159407916Y-87808074D01*
X159410400Y-87832770D01*
X159410400Y-88877600D01*
X159390715Y-88944639D01*
X159337911Y-88990394D01*
X159286400Y-89001600D01*
X156068031Y-89001600D01*
X156047310Y-88999856D01*
X155991484Y-88990394D01*
X155721530Y-88944639D01*
X153060411Y-88493601D01*
X153060400Y-88493600D01*
X153060399Y-88493600D01*
X149526800Y-88493600D01*
X149459761Y-88473915D01*
X149414006Y-88421111D01*
X149402800Y-88369600D01*
X149402800Y-84147200D01*
X149422485Y-84080161D01*
X149475289Y-84034406D01*
X149526800Y-84023200D01*
X155700440Y-84023200D01*
X155767479Y-84042885D01*
G37*
%TD.AperFunction*%
%TD*%
%TA.AperFunction,Conductor*%
%TO.N,/Stage 2 Step Down/VIN*%
G36*
X133074591Y-110486274D02*
G01*
X133096265Y-110538334D01*
X133121133Y-117451756D01*
X133099647Y-117504159D01*
X133047399Y-117526022D01*
X133047355Y-117526022D01*
X124737422Y-117550977D01*
X124685031Y-117529460D01*
X124663200Y-117477199D01*
X124663200Y-110538600D01*
X124684874Y-110486274D01*
X124737200Y-110464600D01*
X133022265Y-110464600D01*
X133074591Y-110486274D01*
G37*
%TD.AperFunction*%
%TD*%
%TA.AperFunction,Conductor*%
%TO.N,/+3.3V*%
G36*
X145901058Y-117957145D02*
G01*
X145968023Y-117977076D01*
X146013583Y-118030048D01*
X146024600Y-118081144D01*
X146024600Y-124488400D01*
X146004915Y-124555439D01*
X145952111Y-124601194D01*
X145900600Y-124612400D01*
X139214872Y-124612400D01*
X139147833Y-124592715D01*
X139102078Y-124539911D01*
X139090873Y-124487929D01*
X139115328Y-118056181D01*
X139135267Y-117989218D01*
X139188245Y-117943665D01*
X139239779Y-117932655D01*
X145901058Y-117957145D01*
G37*
%TD.AperFunction*%
%TD*%
%TA.AperFunction,Conductor*%
%TO.N,/VIN-*%
G36*
X159404239Y-93745685D02*
G01*
X159449994Y-93798489D01*
X159461200Y-93850000D01*
X159461200Y-104219200D01*
X159441515Y-104286239D01*
X159388711Y-104331994D01*
X159337200Y-104343200D01*
X157654800Y-104343200D01*
X157587761Y-104323515D01*
X157542006Y-104270711D01*
X157530800Y-104219200D01*
X157530800Y-101346000D01*
X154657600Y-101346000D01*
X154590561Y-101326315D01*
X154544806Y-101273511D01*
X154533600Y-101222000D01*
X154533600Y-99539600D01*
X154553285Y-99472561D01*
X154606089Y-99426806D01*
X154657600Y-99415600D01*
X156057600Y-99415600D01*
X156057600Y-93850000D01*
X156077285Y-93782961D01*
X156130089Y-93737206D01*
X156181600Y-93726000D01*
X159337200Y-93726000D01*
X159404239Y-93745685D01*
G37*
%TD.AperFunction*%
%TD*%
%TA.AperFunction,Conductor*%
%TO.N,/VIN-*%
G36*
X134461439Y-96268481D02*
G01*
X134507194Y-96321285D01*
X134518400Y-96372796D01*
X134518400Y-98986800D01*
X134498715Y-99053839D01*
X134445911Y-99099594D01*
X134394400Y-99110800D01*
X130679763Y-99110800D01*
X130612724Y-99091115D01*
X130571368Y-99047020D01*
X130098800Y-98196400D01*
X128013000Y-98196400D01*
X127945961Y-98176715D01*
X127900206Y-98123911D01*
X127889000Y-98072400D01*
X127889000Y-97202283D01*
X127889531Y-97194181D01*
X127899783Y-97116311D01*
X127899783Y-97116310D01*
X127889531Y-97038440D01*
X127889000Y-97030338D01*
X127889000Y-96372796D01*
X127908685Y-96305757D01*
X127961489Y-96260002D01*
X128013000Y-96248796D01*
X134394400Y-96248796D01*
X134461439Y-96268481D01*
G37*
%TD.AperFunction*%
%TD*%
%TA.AperFunction,Conductor*%
%TO.N,/Stage 2 Step Down/VIN*%
G36*
X150260239Y-104802881D02*
G01*
X150305994Y-104855685D01*
X150317200Y-104907196D01*
X150317200Y-107521200D01*
X150297515Y-107588239D01*
X150244711Y-107633994D01*
X150193200Y-107645200D01*
X146478563Y-107645200D01*
X146411524Y-107625515D01*
X146370168Y-107581420D01*
X145897600Y-106730800D01*
X143811800Y-106730800D01*
X143744761Y-106711115D01*
X143699006Y-106658311D01*
X143687800Y-106606800D01*
X143687800Y-105356024D01*
X143688331Y-105347922D01*
X143689983Y-105335375D01*
X143688331Y-105322827D01*
X143687800Y-105314726D01*
X143687800Y-104907196D01*
X143707485Y-104840157D01*
X143760289Y-104794402D01*
X143811800Y-104783196D01*
X150193200Y-104783196D01*
X150260239Y-104802881D01*
G37*
%TD.AperFunction*%
%TD*%
M02*
