%TF.GenerationSoftware,KiCad,Pcbnew,7.99.0-957-g18dd623122*%
%TF.CreationDate,2023-07-21T22:23:38+08:00*%
%TF.ProjectId,power,706f7765-722e-46b6-9963-61645f706362,V1.1*%
%TF.SameCoordinates,Original*%
%TF.FileFunction,Soldermask,Top*%
%TF.FilePolarity,Negative*%
%FSLAX46Y46*%
G04 Gerber Fmt 4.6, Leading zero omitted, Abs format (unit mm)*
G04 Created by KiCad (PCBNEW 7.99.0-957-g18dd623122) date 2023-07-21 22:23:38*
%MOMM*%
%LPD*%
G01*
G04 APERTURE LIST*
G04 Aperture macros list*
%AMRoundRect*
0 Rectangle with rounded corners*
0 $1 Rounding radius*
0 $2 $3 $4 $5 $6 $7 $8 $9 X,Y pos of 4 corners*
0 Add a 4 corners polygon primitive as box body*
4,1,4,$2,$3,$4,$5,$6,$7,$8,$9,$2,$3,0*
0 Add four circle primitives for the rounded corners*
1,1,$1+$1,$2,$3*
1,1,$1+$1,$4,$5*
1,1,$1+$1,$6,$7*
1,1,$1+$1,$8,$9*
0 Add four rect primitives between the rounded corners*
20,1,$1+$1,$2,$3,$4,$5,0*
20,1,$1+$1,$4,$5,$6,$7,0*
20,1,$1+$1,$6,$7,$8,$9,0*
20,1,$1+$1,$8,$9,$2,$3,0*%
G04 Aperture macros list end*
%ADD10C,0.010000*%
%ADD11RoundRect,0.225000X-0.225000X-0.250000X0.225000X-0.250000X0.225000X0.250000X-0.225000X0.250000X0*%
%ADD12RoundRect,0.028800X0.211200X-0.696200X0.211200X0.696200X-0.211200X0.696200X-0.211200X-0.696200X0*%
%ADD13RoundRect,0.250000X-1.425000X0.362500X-1.425000X-0.362500X1.425000X-0.362500X1.425000X0.362500X0*%
%ADD14RoundRect,0.250000X0.475000X-0.250000X0.475000X0.250000X-0.475000X0.250000X-0.475000X-0.250000X0*%
%ADD15RoundRect,0.225000X-0.250000X0.225000X-0.250000X-0.225000X0.250000X-0.225000X0.250000X0.225000X0*%
%ADD16RoundRect,0.200000X-0.200000X-0.275000X0.200000X-0.275000X0.200000X0.275000X-0.200000X0.275000X0*%
%ADD17RoundRect,0.200000X0.200000X0.275000X-0.200000X0.275000X-0.200000X-0.275000X0.200000X-0.275000X0*%
%ADD18R,1.500000X1.000000*%
%ADD19RoundRect,0.250000X0.325000X0.650000X-0.325000X0.650000X-0.325000X-0.650000X0.325000X-0.650000X0*%
%ADD20C,3.000000*%
%ADD21RoundRect,0.250002X1.599998X-1.599998X1.599998X1.599998X-1.599998X1.599998X-1.599998X-1.599998X0*%
%ADD22C,3.700000*%
%ADD23RoundRect,0.140000X0.170000X-0.140000X0.170000X0.140000X-0.170000X0.140000X-0.170000X-0.140000X0*%
%ADD24RoundRect,0.250000X-0.250000X-0.475000X0.250000X-0.475000X0.250000X0.475000X-0.250000X0.475000X0*%
%ADD25RoundRect,0.225000X0.225000X0.250000X-0.225000X0.250000X-0.225000X-0.250000X0.225000X-0.250000X0*%
%ADD26RoundRect,0.250000X-0.650000X0.325000X-0.650000X-0.325000X0.650000X-0.325000X0.650000X0.325000X0*%
%ADD27RoundRect,0.140000X-0.170000X0.140000X-0.170000X-0.140000X0.170000X-0.140000X0.170000X0.140000X0*%
%ADD28RoundRect,0.200000X0.275000X-0.200000X0.275000X0.200000X-0.275000X0.200000X-0.275000X-0.200000X0*%
%ADD29R,1.520000X1.520000*%
%ADD30C,1.520000*%
%ADD31C,2.909999*%
%ADD32RoundRect,0.200000X-0.275000X0.200000X-0.275000X-0.200000X0.275000X-0.200000X0.275000X0.200000X0*%
%ADD33RoundRect,0.140000X-0.140000X-0.170000X0.140000X-0.170000X0.140000X0.170000X-0.140000X0.170000X0*%
%ADD34RoundRect,0.225000X0.250000X-0.225000X0.250000X0.225000X-0.250000X0.225000X-0.250000X-0.225000X0*%
%ADD35RoundRect,0.140000X0.140000X0.170000X-0.140000X0.170000X-0.140000X-0.170000X0.140000X-0.170000X0*%
%ADD36C,3.200000*%
%ADD37RoundRect,0.075000X-0.650000X-0.075000X0.650000X-0.075000X0.650000X0.075000X-0.650000X0.075000X0*%
%ADD38R,1.800000X1.800000*%
%ADD39C,1.800000*%
%ADD40R,0.670000X0.570000*%
%ADD41R,1.270000X0.610000*%
%ADD42R,3.810000X3.910000*%
%ADD43R,1.020000X0.610000*%
%ADD44R,5.400000X5.500000*%
%ADD45R,4.000000X3.000000*%
%ADD46R,1.700000X1.700000*%
%ADD47O,1.700000X1.700000*%
G04 APERTURE END LIST*
D10*
%TO.C,U3*%
X153736400Y-107813800D02*
X153472710Y-107813800D01*
X153472710Y-106646290D01*
X153736400Y-106646290D01*
X153736400Y-107813800D01*
G36*
X153736400Y-107813800D02*
G01*
X153472710Y-107813800D01*
X153472710Y-106646290D01*
X153736400Y-106646290D01*
X153736400Y-107813800D01*
G37*
X153736400Y-110563800D02*
X153476140Y-110563800D01*
X153476140Y-109419178D01*
X153736400Y-109419178D01*
X153736400Y-110563800D01*
G36*
X153736400Y-110563800D02*
G01*
X153476140Y-110563800D01*
X153476140Y-109419178D01*
X153736400Y-109419178D01*
X153736400Y-110563800D01*
G37*
X154286400Y-107813800D02*
X154028171Y-107813800D01*
X154028171Y-106647340D01*
X154286400Y-106647340D01*
X154286400Y-107813800D01*
G36*
X154286400Y-107813800D02*
G01*
X154028171Y-107813800D01*
X154028171Y-106647340D01*
X154286400Y-106647340D01*
X154286400Y-107813800D01*
G37*
X154286400Y-110563800D02*
X154026597Y-110563800D01*
X154026597Y-109421842D01*
X154286400Y-109421842D01*
X154286400Y-110563800D01*
G36*
X154286400Y-110563800D02*
G01*
X154026597Y-110563800D01*
X154026597Y-109421842D01*
X154286400Y-109421842D01*
X154286400Y-110563800D01*
G37*
X154836400Y-107813800D02*
X154582410Y-107813800D01*
X154582410Y-106645490D01*
X154836400Y-106645490D01*
X154836400Y-107813800D01*
G36*
X154836400Y-107813800D02*
G01*
X154582410Y-107813800D01*
X154582410Y-106645490D01*
X154836400Y-106645490D01*
X154836400Y-107813800D01*
G37*
X154836400Y-110563800D02*
X154581874Y-110563800D01*
X154581874Y-109422321D01*
X154836400Y-109422321D01*
X154836400Y-110563800D01*
G36*
X154836400Y-110563800D02*
G01*
X154581874Y-110563800D01*
X154581874Y-109422321D01*
X154836400Y-109422321D01*
X154836400Y-110563800D01*
G37*
X155561400Y-107813800D02*
X155162746Y-107813800D01*
X155162746Y-106646310D01*
X155561400Y-106646310D01*
X155561400Y-107813800D01*
G36*
X155561400Y-107813800D02*
G01*
X155162746Y-107813800D01*
X155162746Y-106646310D01*
X155561400Y-106646310D01*
X155561400Y-107813800D01*
G37*
X155561400Y-110563800D02*
X155163094Y-110563800D01*
X155163094Y-109422829D01*
X155561400Y-109422829D01*
X155561400Y-110563800D01*
G36*
X155561400Y-110563800D02*
G01*
X155163094Y-110563800D01*
X155163094Y-109422829D01*
X155561400Y-109422829D01*
X155561400Y-110563800D01*
G37*
X155661400Y-108463800D02*
X153041310Y-108463800D01*
X153041310Y-108159164D01*
X155661400Y-108159164D01*
X155661400Y-108463800D01*
G36*
X155661400Y-108463800D02*
G01*
X153041310Y-108463800D01*
X153041310Y-108159164D01*
X155661400Y-108159164D01*
X155661400Y-108463800D01*
G37*
X155661400Y-109063800D02*
X153042610Y-109063800D01*
X153042610Y-108765246D01*
X155661400Y-108765246D01*
X155661400Y-109063800D01*
G36*
X155661400Y-109063800D02*
G01*
X153042610Y-109063800D01*
X153042610Y-108765246D01*
X155661400Y-108765246D01*
X155661400Y-109063800D01*
G37*
X156111400Y-107313800D02*
X155768168Y-107313800D01*
X155768168Y-106595740D01*
X156111400Y-106595740D01*
X156111400Y-107313800D01*
G36*
X156111400Y-107313800D02*
G01*
X155768168Y-107313800D01*
X155768168Y-106595740D01*
X156111400Y-106595740D01*
X156111400Y-107313800D01*
G37*
X156111400Y-110613800D02*
X155768172Y-110613800D01*
X155768172Y-109925550D01*
X156111400Y-109925550D01*
X156111400Y-110613800D01*
G36*
X156111400Y-110613800D02*
G01*
X155768172Y-110613800D01*
X155768172Y-109925550D01*
X156111400Y-109925550D01*
X156111400Y-110613800D01*
G37*
X157011400Y-107538800D02*
X156328110Y-107538800D01*
X156328110Y-107170490D01*
X157011400Y-107170490D01*
X157011400Y-107538800D01*
G36*
X157011400Y-107538800D02*
G01*
X156328110Y-107538800D01*
X156328110Y-107170490D01*
X157011400Y-107170490D01*
X157011400Y-107538800D01*
G37*
X157011400Y-108038800D02*
X156321630Y-108038800D01*
X156321630Y-107681518D01*
X157011400Y-107681518D01*
X157011400Y-108038800D01*
G36*
X157011400Y-108038800D02*
G01*
X156321630Y-108038800D01*
X156321630Y-107681518D01*
X157011400Y-107681518D01*
X157011400Y-108038800D01*
G37*
X157011400Y-108538800D02*
X156321830Y-108538800D01*
X156321830Y-108185394D01*
X157011400Y-108185394D01*
X157011400Y-108538800D01*
G36*
X157011400Y-108538800D02*
G01*
X156321830Y-108538800D01*
X156321830Y-108185394D01*
X157011400Y-108185394D01*
X157011400Y-108538800D01*
G37*
X157011400Y-109038800D02*
X156324430Y-109038800D01*
X156324430Y-108689551D01*
X157011400Y-108689551D01*
X157011400Y-109038800D01*
G36*
X157011400Y-109038800D02*
G01*
X156324430Y-109038800D01*
X156324430Y-108689551D01*
X157011400Y-108689551D01*
X157011400Y-109038800D01*
G37*
X157011400Y-109538800D02*
X156323900Y-109538800D01*
X156323900Y-109194326D01*
X157011400Y-109194326D01*
X157011400Y-109538800D01*
G36*
X157011400Y-109538800D02*
G01*
X156323900Y-109538800D01*
X156323900Y-109194326D01*
X157011400Y-109194326D01*
X157011400Y-109538800D01*
G37*
X157011400Y-110038800D02*
X156326670Y-110038800D01*
X156326670Y-109701420D01*
X157011400Y-109701420D01*
X157011400Y-110038800D01*
G36*
X157011400Y-110038800D02*
G01*
X156326670Y-110038800D01*
X156326670Y-109701420D01*
X157011400Y-109701420D01*
X157011400Y-110038800D01*
G37*
%TO.C,U2*%
X171271600Y-96722432D02*
X170553540Y-96722432D01*
X170553540Y-96379200D01*
X171271600Y-96379200D01*
X171271600Y-96722432D01*
G36*
X171271600Y-96722432D02*
G01*
X170553540Y-96722432D01*
X170553540Y-96379200D01*
X171271600Y-96379200D01*
X171271600Y-96722432D01*
G37*
X171771600Y-97908190D02*
X170603290Y-97908190D01*
X170603290Y-97654200D01*
X171771600Y-97654200D01*
X171771600Y-97908190D01*
G36*
X171771600Y-97908190D02*
G01*
X170603290Y-97908190D01*
X170603290Y-97654200D01*
X171771600Y-97654200D01*
X171771600Y-97908190D01*
G37*
X171771600Y-99017890D02*
X170604090Y-99017890D01*
X170604090Y-98754200D01*
X171771600Y-98754200D01*
X171771600Y-99017890D01*
G36*
X171771600Y-99017890D02*
G01*
X170604090Y-99017890D01*
X170604090Y-98754200D01*
X171771600Y-98754200D01*
X171771600Y-99017890D01*
G37*
X171771600Y-97327854D02*
X170604110Y-97327854D01*
X170604110Y-96929200D01*
X171771600Y-96929200D01*
X171771600Y-97327854D01*
G36*
X171771600Y-97327854D02*
G01*
X170604110Y-97327854D01*
X170604110Y-96929200D01*
X171771600Y-96929200D01*
X171771600Y-97327854D01*
G37*
X171771600Y-98462429D02*
X170605140Y-98462429D01*
X170605140Y-98204200D01*
X171771600Y-98204200D01*
X171771600Y-98462429D01*
G36*
X171771600Y-98462429D02*
G01*
X170605140Y-98462429D01*
X170605140Y-98204200D01*
X171771600Y-98204200D01*
X171771600Y-98462429D01*
G37*
X171496600Y-96162490D02*
X171128290Y-96162490D01*
X171128290Y-95479200D01*
X171496600Y-95479200D01*
X171496600Y-96162490D01*
G36*
X171496600Y-96162490D02*
G01*
X171128290Y-96162490D01*
X171128290Y-95479200D01*
X171496600Y-95479200D01*
X171496600Y-96162490D01*
G37*
X171996600Y-96168970D02*
X171639318Y-96168970D01*
X171639318Y-95479200D01*
X171996600Y-95479200D01*
X171996600Y-96168970D01*
G36*
X171996600Y-96168970D02*
G01*
X171639318Y-96168970D01*
X171639318Y-95479200D01*
X171996600Y-95479200D01*
X171996600Y-96168970D01*
G37*
X172421600Y-99449290D02*
X172116964Y-99449290D01*
X172116964Y-96829200D01*
X172421600Y-96829200D01*
X172421600Y-99449290D01*
G36*
X172421600Y-99449290D02*
G01*
X172116964Y-99449290D01*
X172116964Y-96829200D01*
X172421600Y-96829200D01*
X172421600Y-99449290D01*
G37*
X172496600Y-96168770D02*
X172143194Y-96168770D01*
X172143194Y-95479200D01*
X172496600Y-95479200D01*
X172496600Y-96168770D01*
G36*
X172496600Y-96168770D02*
G01*
X172143194Y-96168770D01*
X172143194Y-95479200D01*
X172496600Y-95479200D01*
X172496600Y-96168770D01*
G37*
X172996600Y-96166170D02*
X172647351Y-96166170D01*
X172647351Y-95479200D01*
X172996600Y-95479200D01*
X172996600Y-96166170D01*
G36*
X172996600Y-96166170D02*
G01*
X172647351Y-96166170D01*
X172647351Y-95479200D01*
X172996600Y-95479200D01*
X172996600Y-96166170D01*
G37*
X173021600Y-99447990D02*
X172723046Y-99447990D01*
X172723046Y-96829200D01*
X173021600Y-96829200D01*
X173021600Y-99447990D01*
G36*
X173021600Y-99447990D02*
G01*
X172723046Y-99447990D01*
X172723046Y-96829200D01*
X173021600Y-96829200D01*
X173021600Y-99447990D01*
G37*
X173496600Y-96166700D02*
X173152126Y-96166700D01*
X173152126Y-95479200D01*
X173496600Y-95479200D01*
X173496600Y-96166700D01*
G36*
X173496600Y-96166700D02*
G01*
X173152126Y-96166700D01*
X173152126Y-95479200D01*
X173496600Y-95479200D01*
X173496600Y-96166700D01*
G37*
X174521600Y-99014460D02*
X173376978Y-99014460D01*
X173376978Y-98754200D01*
X174521600Y-98754200D01*
X174521600Y-99014460D01*
G36*
X174521600Y-99014460D02*
G01*
X173376978Y-99014460D01*
X173376978Y-98754200D01*
X174521600Y-98754200D01*
X174521600Y-99014460D01*
G37*
X174521600Y-98464003D02*
X173379642Y-98464003D01*
X173379642Y-98204200D01*
X174521600Y-98204200D01*
X174521600Y-98464003D01*
G36*
X174521600Y-98464003D02*
G01*
X173379642Y-98464003D01*
X173379642Y-98204200D01*
X174521600Y-98204200D01*
X174521600Y-98464003D01*
G37*
X174521600Y-97908726D02*
X173380121Y-97908726D01*
X173380121Y-97654200D01*
X174521600Y-97654200D01*
X174521600Y-97908726D01*
G36*
X174521600Y-97908726D02*
G01*
X173380121Y-97908726D01*
X173380121Y-97654200D01*
X174521600Y-97654200D01*
X174521600Y-97908726D01*
G37*
X174521600Y-97327506D02*
X173380629Y-97327506D01*
X173380629Y-96929200D01*
X174521600Y-96929200D01*
X174521600Y-97327506D01*
G36*
X174521600Y-97327506D02*
G01*
X173380629Y-97327506D01*
X173380629Y-96929200D01*
X174521600Y-96929200D01*
X174521600Y-97327506D01*
G37*
X173996600Y-96163930D02*
X173659220Y-96163930D01*
X173659220Y-95479200D01*
X173996600Y-95479200D01*
X173996600Y-96163930D01*
G36*
X173996600Y-96163930D02*
G01*
X173659220Y-96163930D01*
X173659220Y-95479200D01*
X173996600Y-95479200D01*
X173996600Y-96163930D01*
G37*
X174571600Y-96722428D02*
X173883350Y-96722428D01*
X173883350Y-96379200D01*
X174571600Y-96379200D01*
X174571600Y-96722428D01*
G36*
X174571600Y-96722428D02*
G01*
X173883350Y-96722428D01*
X173883350Y-96379200D01*
X174571600Y-96379200D01*
X174571600Y-96722428D01*
G37*
%TD*%
D11*
%TO.C,C24*%
X158191050Y-107950000D03*
X159741050Y-107950000D03*
%TD*%
D12*
%TO.C,U1*%
X148852000Y-92303600D03*
X149502000Y-92303600D03*
X150152000Y-92303600D03*
X150802000Y-92303600D03*
X151452000Y-92303600D03*
X152102000Y-92303600D03*
X152102000Y-87983600D03*
X151452000Y-87983600D03*
X150802000Y-87983600D03*
X150152000Y-87983600D03*
X149502000Y-87983600D03*
X148852000Y-87983600D03*
%TD*%
D13*
%TO.C,R18*%
X166514000Y-87827500D03*
X166514000Y-93752500D03*
%TD*%
D14*
%TO.C,C14*%
X182488600Y-115971400D03*
X182488600Y-114071400D03*
%TD*%
D15*
%TO.C,C2*%
X175971200Y-97505600D03*
X175971200Y-99055600D03*
%TD*%
%TO.C,C1*%
X169164000Y-97441800D03*
X169164000Y-98991800D03*
%TD*%
D16*
%TO.C,R4*%
X174701200Y-91313000D03*
X176351200Y-91313000D03*
%TD*%
D17*
%TO.C,R2*%
X172721800Y-89433400D03*
X171071800Y-89433400D03*
%TD*%
D18*
%TO.C,D1*%
X153815200Y-93401800D03*
X153815200Y-90801800D03*
%TD*%
D19*
%TO.C,C20*%
X155635200Y-100685600D03*
X152685200Y-100685600D03*
%TD*%
D20*
%TO.C,J1*%
X132945200Y-86080600D03*
D21*
X140245200Y-86080600D03*
D22*
X145745200Y-86080600D03*
%TD*%
D23*
%TO.C,C9*%
X169712400Y-96128800D03*
X169712400Y-95168800D03*
%TD*%
D24*
%TO.C,C27*%
X143062700Y-101244400D03*
X144962700Y-101244400D03*
%TD*%
D19*
%TO.C,C19*%
X155635200Y-103276400D03*
X152685200Y-103276400D03*
%TD*%
D25*
%TO.C,C18*%
X154818800Y-111810800D03*
X153268800Y-111810800D03*
%TD*%
D26*
%TO.C,C5*%
X180898800Y-96814400D03*
X180898800Y-99764400D03*
%TD*%
D27*
%TO.C,C7*%
X173329600Y-93697200D03*
X173329600Y-94657200D03*
%TD*%
D28*
%TO.C,R9*%
X162026450Y-109277950D03*
X162026450Y-107627950D03*
%TD*%
D19*
%TO.C,C21*%
X155635200Y-116535200D03*
X152685200Y-116535200D03*
%TD*%
D29*
%TO.C,J3*%
X135610600Y-104783397D03*
D30*
X135610600Y-101783398D03*
X135610600Y-98783399D03*
X135610600Y-95783400D03*
X138610599Y-104783397D03*
X138610599Y-101783398D03*
X138610599Y-98783399D03*
X138610599Y-95783400D03*
D31*
X131290601Y-106933395D03*
X131290601Y-93633402D03*
%TD*%
D28*
%TO.C,R5*%
X174792400Y-94449400D03*
X174792400Y-92799400D03*
%TD*%
D24*
%TO.C,C30*%
X143133900Y-116128800D03*
X145033900Y-116128800D03*
%TD*%
D16*
%TO.C,R13*%
X157023800Y-89001600D03*
X158673800Y-89001600D03*
%TD*%
D32*
%TO.C,R1*%
X169306000Y-91275400D03*
X169306000Y-92925400D03*
%TD*%
D28*
%TO.C,R10*%
X160604050Y-106216750D03*
X160604050Y-104566750D03*
%TD*%
D33*
%TO.C,C25*%
X156292000Y-105664000D03*
X157252000Y-105664000D03*
%TD*%
D24*
%TO.C,C29*%
X143133900Y-113931600D03*
X145033900Y-113931600D03*
%TD*%
D34*
%TO.C,C8*%
X171699450Y-94124400D03*
X171699450Y-92574400D03*
%TD*%
D27*
%TO.C,C10*%
X176138600Y-93220600D03*
X176138600Y-94180600D03*
%TD*%
D26*
%TO.C,C4*%
X164287200Y-96711000D03*
X164287200Y-99661000D03*
%TD*%
D35*
%TO.C,C23*%
X159255250Y-110129350D03*
X158295250Y-110129350D03*
%TD*%
D32*
%TO.C,R6*%
X153545800Y-87655400D03*
X153545800Y-89305400D03*
%TD*%
D26*
%TO.C,C6*%
X178206400Y-96814400D03*
X178206400Y-99764400D03*
%TD*%
D14*
%TO.C,C12*%
X164708600Y-115895200D03*
X164708600Y-113995200D03*
%TD*%
D36*
%TO.C,H1*%
X132892800Y-115900200D03*
%TD*%
D37*
%TO.C,U4*%
X157354400Y-90555600D03*
X157354400Y-91055600D03*
X157354400Y-91555600D03*
X157354400Y-92055600D03*
X157354400Y-92555600D03*
X161754400Y-92555600D03*
X161754400Y-92055600D03*
X161754400Y-91555600D03*
X161754400Y-91055600D03*
X161754400Y-90555600D03*
%TD*%
D38*
%TO.C,J4*%
X176809400Y-86131400D03*
D39*
X181809400Y-86131400D03*
%TD*%
D35*
%TO.C,C26*%
X158930100Y-113284000D03*
X157970100Y-113284000D03*
%TD*%
D32*
%TO.C,R11*%
X160172250Y-111425750D03*
X160172250Y-113075750D03*
%TD*%
D14*
%TO.C,C13*%
X180202600Y-115971400D03*
X180202600Y-114071400D03*
%TD*%
D19*
%TO.C,C22*%
X155635200Y-113944400D03*
X152685200Y-113944400D03*
%TD*%
D24*
%TO.C,C28*%
X143062700Y-103428800D03*
X144962700Y-103428800D03*
%TD*%
D34*
%TO.C,C33*%
X163680400Y-93889400D03*
X163680400Y-92339400D03*
%TD*%
D26*
%TO.C,C3*%
X166928800Y-96711000D03*
X166928800Y-99661000D03*
%TD*%
D28*
%TO.C,R3*%
X169316400Y-89737200D03*
X169316400Y-88087200D03*
%TD*%
D40*
%TO.C,D2*%
X155628600Y-91361000D03*
X155628600Y-90501000D03*
%TD*%
D41*
%TO.C,Q1*%
X149098000Y-82245200D03*
X149098000Y-83515200D03*
X149098000Y-84785200D03*
X149098000Y-86055200D03*
D42*
X152458000Y-84150200D03*
D43*
X154563000Y-82245200D03*
X154563000Y-83515200D03*
X154563000Y-84785200D03*
X154563000Y-86055200D03*
%TD*%
D25*
%TO.C,C17*%
X154882600Y-105410000D03*
X153332600Y-105410000D03*
%TD*%
D14*
%TO.C,C11*%
X162371800Y-115895200D03*
X162371800Y-113995200D03*
%TD*%
D32*
%TO.C,R7*%
X155095200Y-87642200D03*
X155095200Y-89292200D03*
%TD*%
D16*
%TO.C,R12*%
X157041800Y-111836200D03*
X158691800Y-111836200D03*
%TD*%
D44*
%TO.C,L1*%
X172531800Y-103396800D03*
X172531800Y-115896800D03*
%TD*%
D45*
%TO.C,L2*%
X149534300Y-108661200D03*
X143134300Y-108661200D03*
%TD*%
D28*
%TO.C,R8*%
X159080050Y-106229950D03*
X159080050Y-104579950D03*
%TD*%
D46*
%TO.C,J2*%
X171500800Y-82905600D03*
D47*
X171500800Y-85445600D03*
%TD*%
D11*
%TO.C,C15*%
X148902800Y-94105000D03*
X150452800Y-94105000D03*
%TD*%
M02*
