M48
; DRILL file {KiCad 7.99.0-957-g18dd623122} date 2023 July 11, Tuesday 22:05:46
; FORMAT={-:-/ absolute / inch / decimal}
; #@! TF.CreationDate,2023-07-11T22:05:46+08:00
; #@! TF.GenerationSoftware,Kicad,Pcbnew,7.99.0-957-g18dd623122
; #@! TF.FileFunction,Plated,1,4,PTH
FMAT,2
INCH
; #@! TA.AperFunction,Plated,PTH,ViaDrill
T1C0.0157
; #@! TA.AperFunction,Plated,PTH,ComponentDrill
T2C0.0394
; #@! TA.AperFunction,Plated,PTH,ComponentDrill
T3C0.0402
; #@! TA.AperFunction,Plated,PTH,ComponentDrill
T4C0.0472
; #@! TA.AperFunction,Plated,PTH,ComponentDrill
T5C0.0949
%
G90
G05
T1
X5.2429Y-4.936
X5.262Y-3.8858
X5.262Y-3.9208
X5.262Y-3.9548
X5.262Y-3.9888
X5.262Y-4.0258
X5.2621Y-4.061
X5.265Y-4.408
X5.265Y-4.443
X5.265Y-4.477
X5.265Y-4.511
X5.265Y-4.548
X5.2651Y-4.5832
X5.2789Y-4.936
X5.3129Y-4.936
X5.3489Y-4.936
X5.3849Y-4.936
X5.4189Y-4.936
X5.436Y-3.882
X5.436Y-3.918
X5.436Y-3.952
X5.436Y-3.988
X5.436Y-4.024
X5.436Y-4.058
X5.443Y-4.42
X5.443Y-4.456
X5.443Y-4.49
X5.443Y-4.526
X5.443Y-4.562
X5.475Y-4.678
X5.595Y-4.722
X5.6279Y-4.937
X5.6291Y-4.1462
X5.639Y-3.882
X5.639Y-3.918
X5.639Y-3.952
X5.639Y-3.988
X5.639Y-4.024
X5.639Y-4.058
X5.639Y-4.405
X5.639Y-4.44
X5.639Y-4.474
X5.639Y-4.51
X5.639Y-4.546
X5.639Y-4.58
X5.6619Y-4.937
X5.668Y-4.359
X5.673Y-4.108
X5.6959Y-4.937
X5.7289Y-4.937
X5.7629Y-4.937
X5.7799Y-4.8078
X5.78Y-4.843
X5.7969Y-4.937
X5.8159Y-4.8078
X5.816Y-4.843
X5.83Y-4.338
X5.8529Y-4.8078
X5.853Y-4.843
X5.859Y-4.451
X5.859Y-4.485
X5.859Y-4.415
X5.86Y-4.521
X5.86Y-4.557
X5.86Y-4.593
X5.861Y-4.032
X5.861Y-4.066
X5.862Y-3.926
X5.862Y-3.96
X5.862Y-3.996
X5.862Y-3.893
X5.894Y-4.147
X5.901Y-4.733
X5.917Y-3.879
X5.917Y-3.915
X5.917Y-3.95
X5.917Y-3.986
X5.917Y-4.021
X5.948Y-3.306
X5.955Y-3.879
X5.955Y-3.915
X5.955Y-3.95
X5.955Y-3.986
X5.955Y-4.021
X5.97Y-4.276
X5.977Y-3.608
X5.989Y-4.067
X5.992Y-3.879
X5.992Y-3.915
X5.992Y-3.95
X5.992Y-3.986
X5.992Y-4.021
X6.017Y-4.209
X6.03Y-3.879
X6.03Y-3.915
X6.03Y-3.95
X6.03Y-3.986
X6.03Y-4.021
X6.0577Y-4.322
X6.058Y-4.418
X6.058Y-4.454
X6.058Y-4.49
X6.067Y-3.879
X6.067Y-3.915
X6.067Y-3.95
X6.067Y-3.986
X6.067Y-4.021
X6.094Y-4.418
X6.094Y-4.454
X6.094Y-4.49
X6.103Y-3.879
X6.103Y-3.915
X6.103Y-3.95
X6.103Y-3.986
X6.103Y-4.021
X6.137Y-4.363
X6.138Y-3.652
X6.138Y-3.688
X6.138Y-3.724
X6.138Y-3.759
X6.138Y-3.795
X6.138Y-3.832
X6.138Y-3.867
X6.138Y-3.903
X6.138Y-3.938
X6.138Y-3.974
X6.138Y-4.009
X6.139Y-3.242
X6.1436Y-4.183
X6.1716Y-4.363
X6.176Y-3.242
X6.1776Y-4.183
X6.2026Y-3.727
X6.2056Y-4.363
X6.2106Y-3.496
X6.2136Y-4.183
X6.214Y-3.242
X6.2386Y-3.727
X6.2386Y-4.363
X6.2466Y-3.496
X6.2496Y-4.183
X6.2726Y-3.727
X6.2726Y-4.363
X6.2816Y-3.496
X6.2836Y-4.183
X6.3066Y-4.363
X6.3086Y-3.727
X6.3166Y-3.496
X6.3446Y-3.727
X6.3516Y-3.496
X6.3786Y-3.727
X6.3856Y-3.435
X6.3866Y-3.496
X6.4256Y-3.76
X6.4286Y-3.692
X6.433Y-4.509
X6.4646Y-3.465
X6.496Y-4.619
X6.5284Y-3.345
X6.5591Y-4.4666
X6.5956Y-3.397
X6.6736Y-3.533
X6.6776Y-3.232
X6.7006Y-3.694
X6.7486Y-3.501
X6.7506Y-3.731
X6.7846Y-3.502
X6.7866Y-3.731
X6.812Y-4.364
X6.8186Y-3.502
X6.8206Y-3.731
X6.838Y-4.186
X6.846Y-4.364
X6.8546Y-3.502
X6.8566Y-3.731
X6.873Y-4.186
X6.88Y-4.364
X6.8906Y-3.503
X6.8926Y-3.731
X6.908Y-4.186
X6.913Y-4.364
X6.9246Y-3.503
X6.9266Y-3.731
X6.944Y-4.186
X6.947Y-4.364
X6.98Y-4.186
X6.981Y-4.364
T3
X5.0352Y-4.0376
X5.0352Y-4.1557
X5.0352Y-4.2738
X5.0352Y-4.3919
X5.1533Y-4.0376
X5.1533Y-4.1557
X5.1533Y-4.2738
X5.1533Y-4.3919
T4
X6.7126Y-4.626
X6.9094Y-4.626
T5
X4.8652Y-3.9529
X4.8652Y-4.4766
T2
G00X5.2181Y-3.4009
M15
G01X5.2181Y-3.5643
M16
G05
G00X5.513Y-3.4009
M15
G01X5.513Y-3.5643
M16
G05
T0
M30
