%TF.GenerationSoftware,KiCad,Pcbnew,7.99.0-957-g18dd623122*%
%TF.CreationDate,2023-07-20T21:46:05+08:00*%
%TF.ProjectId,power,706f7765-722e-46b6-9963-61645f706362,V1.1*%
%TF.SameCoordinates,Original*%
%TF.FileFunction,Copper,L1,Top*%
%TF.FilePolarity,Positive*%
%FSLAX46Y46*%
G04 Gerber Fmt 4.6, Leading zero omitted, Abs format (unit mm)*
G04 Created by KiCad (PCBNEW 7.99.0-957-g18dd623122) date 2023-07-20 21:46:05*
%MOMM*%
%LPD*%
G01*
G04 APERTURE LIST*
G04 Aperture macros list*
%AMRoundRect*
0 Rectangle with rounded corners*
0 $1 Rounding radius*
0 $2 $3 $4 $5 $6 $7 $8 $9 X,Y pos of 4 corners*
0 Add a 4 corners polygon primitive as box body*
4,1,4,$2,$3,$4,$5,$6,$7,$8,$9,$2,$3,0*
0 Add four circle primitives for the rounded corners*
1,1,$1+$1,$2,$3*
1,1,$1+$1,$4,$5*
1,1,$1+$1,$6,$7*
1,1,$1+$1,$8,$9*
0 Add four rect primitives between the rounded corners*
20,1,$1+$1,$2,$3,$4,$5,0*
20,1,$1+$1,$4,$5,$6,$7,0*
20,1,$1+$1,$6,$7,$8,$9,0*
20,1,$1+$1,$8,$9,$2,$3,0*%
G04 Aperture macros list end*
%TA.AperFunction,SMDPad,CuDef*%
%ADD10RoundRect,0.225000X-0.225000X-0.250000X0.225000X-0.250000X0.225000X0.250000X-0.225000X0.250000X0*%
%TD*%
%TA.AperFunction,SMDPad,CuDef*%
%ADD11RoundRect,0.028800X0.211200X-0.696200X0.211200X0.696200X-0.211200X0.696200X-0.211200X-0.696200X0*%
%TD*%
%TA.AperFunction,SMDPad,CuDef*%
%ADD12RoundRect,0.250000X-1.425000X0.362500X-1.425000X-0.362500X1.425000X-0.362500X1.425000X0.362500X0*%
%TD*%
%TA.AperFunction,SMDPad,CuDef*%
%ADD13RoundRect,0.250000X0.475000X-0.250000X0.475000X0.250000X-0.475000X0.250000X-0.475000X-0.250000X0*%
%TD*%
%TA.AperFunction,SMDPad,CuDef*%
%ADD14RoundRect,0.225000X-0.250000X0.225000X-0.250000X-0.225000X0.250000X-0.225000X0.250000X0.225000X0*%
%TD*%
%TA.AperFunction,SMDPad,CuDef*%
%ADD15RoundRect,0.200000X-0.200000X-0.275000X0.200000X-0.275000X0.200000X0.275000X-0.200000X0.275000X0*%
%TD*%
%TA.AperFunction,SMDPad,CuDef*%
%ADD16RoundRect,0.200000X0.200000X0.275000X-0.200000X0.275000X-0.200000X-0.275000X0.200000X-0.275000X0*%
%TD*%
%TA.AperFunction,SMDPad,CuDef*%
%ADD17R,1.500000X1.000000*%
%TD*%
%TA.AperFunction,SMDPad,CuDef*%
%ADD18RoundRect,0.250000X0.325000X0.650000X-0.325000X0.650000X-0.325000X-0.650000X0.325000X-0.650000X0*%
%TD*%
%TA.AperFunction,ComponentPad*%
%ADD19RoundRect,0.250002X1.599998X-1.599998X1.599998X1.599998X-1.599998X1.599998X-1.599998X-1.599998X0*%
%TD*%
%TA.AperFunction,ComponentPad*%
%ADD20C,3.700000*%
%TD*%
%TA.AperFunction,SMDPad,CuDef*%
%ADD21RoundRect,0.140000X0.170000X-0.140000X0.170000X0.140000X-0.170000X0.140000X-0.170000X-0.140000X0*%
%TD*%
%TA.AperFunction,SMDPad,CuDef*%
%ADD22RoundRect,0.250000X-0.250000X-0.475000X0.250000X-0.475000X0.250000X0.475000X-0.250000X0.475000X0*%
%TD*%
%TA.AperFunction,SMDPad,CuDef*%
%ADD23RoundRect,0.225000X0.225000X0.250000X-0.225000X0.250000X-0.225000X-0.250000X0.225000X-0.250000X0*%
%TD*%
%TA.AperFunction,SMDPad,CuDef*%
%ADD24RoundRect,0.250000X-0.650000X0.325000X-0.650000X-0.325000X0.650000X-0.325000X0.650000X0.325000X0*%
%TD*%
%TA.AperFunction,SMDPad,CuDef*%
%ADD25R,0.250000X0.600000*%
%TD*%
%TA.AperFunction,SMDPad,CuDef*%
%ADD26R,0.500000X1.250000*%
%TD*%
%TA.AperFunction,SMDPad,CuDef*%
%ADD27R,0.350000X1.250000*%
%TD*%
%TA.AperFunction,SMDPad,CuDef*%
%ADD28R,2.700000X0.400000*%
%TD*%
%TA.AperFunction,SMDPad,CuDef*%
%ADD29R,0.600000X0.250000*%
%TD*%
%TA.AperFunction,SMDPad,CuDef*%
%ADD30RoundRect,0.140000X-0.170000X0.140000X-0.170000X-0.140000X0.170000X-0.140000X0.170000X0.140000X0*%
%TD*%
%TA.AperFunction,SMDPad,CuDef*%
%ADD31RoundRect,0.200000X0.275000X-0.200000X0.275000X0.200000X-0.275000X0.200000X-0.275000X-0.200000X0*%
%TD*%
%TA.AperFunction,ComponentPad*%
%ADD32R,1.520000X1.520000*%
%TD*%
%TA.AperFunction,ComponentPad*%
%ADD33C,1.520000*%
%TD*%
%TA.AperFunction,ComponentPad*%
%ADD34C,2.909999*%
%TD*%
%TA.AperFunction,SMDPad,CuDef*%
%ADD35RoundRect,0.200000X-0.275000X0.200000X-0.275000X-0.200000X0.275000X-0.200000X0.275000X0.200000X0*%
%TD*%
%TA.AperFunction,SMDPad,CuDef*%
%ADD36RoundRect,0.140000X-0.140000X-0.170000X0.140000X-0.170000X0.140000X0.170000X-0.140000X0.170000X0*%
%TD*%
%TA.AperFunction,SMDPad,CuDef*%
%ADD37RoundRect,0.225000X0.250000X-0.225000X0.250000X0.225000X-0.250000X0.225000X-0.250000X-0.225000X0*%
%TD*%
%TA.AperFunction,SMDPad,CuDef*%
%ADD38RoundRect,0.140000X0.140000X0.170000X-0.140000X0.170000X-0.140000X-0.170000X0.140000X-0.170000X0*%
%TD*%
%TA.AperFunction,SMDPad,CuDef*%
%ADD39RoundRect,0.075000X-0.650000X-0.075000X0.650000X-0.075000X0.650000X0.075000X-0.650000X0.075000X0*%
%TD*%
%TA.AperFunction,ComponentPad*%
%ADD40R,1.800000X1.800000*%
%TD*%
%TA.AperFunction,ComponentPad*%
%ADD41C,1.800000*%
%TD*%
%TA.AperFunction,SMDPad,CuDef*%
%ADD42R,0.670000X0.570000*%
%TD*%
%TA.AperFunction,SMDPad,CuDef*%
%ADD43R,1.270000X0.610000*%
%TD*%
%TA.AperFunction,SMDPad,CuDef*%
%ADD44R,3.810000X3.910000*%
%TD*%
%TA.AperFunction,SMDPad,CuDef*%
%ADD45R,1.020000X0.610000*%
%TD*%
%TA.AperFunction,SMDPad,CuDef*%
%ADD46R,1.250000X0.500000*%
%TD*%
%TA.AperFunction,SMDPad,CuDef*%
%ADD47R,1.250000X0.350000*%
%TD*%
%TA.AperFunction,SMDPad,CuDef*%
%ADD48R,0.400000X2.700000*%
%TD*%
%TA.AperFunction,SMDPad,CuDef*%
%ADD49R,5.400000X5.500000*%
%TD*%
%TA.AperFunction,SMDPad,CuDef*%
%ADD50R,4.000000X3.000000*%
%TD*%
%TA.AperFunction,ViaPad*%
%ADD51C,0.800000*%
%TD*%
%TA.AperFunction,Conductor*%
%ADD52C,0.406400*%
%TD*%
%TA.AperFunction,Conductor*%
%ADD53C,0.254000*%
%TD*%
%TA.AperFunction,Conductor*%
%ADD54C,0.250000*%
%TD*%
%TA.AperFunction,Conductor*%
%ADD55C,0.762000*%
%TD*%
%TA.AperFunction,Conductor*%
%ADD56C,2.540000*%
%TD*%
G04 APERTURE END LIST*
D10*
%TO.P,C24,1*%
%TO.N,/TI Buck Converter 2/V5*%
X158191050Y-107950000D03*
%TO.P,C24,2*%
%TO.N,GND*%
X159741050Y-107950000D03*
%TD*%
D11*
%TO.P,U1,1,VIN*%
%TO.N,/+12V*%
X148852000Y-92303600D03*
%TO.P,U1,2,VCC*%
%TO.N,Net-(U1-UV)*%
X149502000Y-92303600D03*
%TO.P,U1,3,UV*%
X150152000Y-92303600D03*
%TO.P,U1,4,OV*%
%TO.N,GND*%
X150802000Y-92303600D03*
%TO.P,U1,5,STATUS*%
%TO.N,Net-(D1-K)*%
X151452000Y-92303600D03*
%TO.P,U1,6,FAULT*%
%TO.N,Net-(D2-K)*%
X152102000Y-92303600D03*
%TO.P,U1,7,REV*%
%TO.N,GND*%
X152102000Y-87983600D03*
%TO.P,U1,8,OUT*%
%TO.N,/VIN+*%
X151452000Y-87983600D03*
%TO.P,U1,9,GND*%
%TO.N,GND*%
X150802000Y-87983600D03*
%TO.P,U1,10,CPO*%
%TO.N,/+12V*%
X150152000Y-87983600D03*
%TO.P,U1,11,GATE*%
%TO.N,Net-(Q1-G)*%
X149502000Y-87983600D03*
%TO.P,U1,12,SOURCE*%
%TO.N,/+12V*%
X148852000Y-87983600D03*
%TD*%
D12*
%TO.P,R18,2*%
%TO.N,/VIN-*%
X166514000Y-93752500D03*
%TO.P,R18,1*%
%TO.N,/VIN+*%
X166514000Y-87827500D03*
%TD*%
D13*
%TO.P,C14,1*%
%TO.N,/+5V*%
X182488600Y-115971400D03*
%TO.P,C14,2*%
%TO.N,GND*%
X182488600Y-114071400D03*
%TD*%
D14*
%TO.P,C2,1*%
%TO.N,/VIN-*%
X175971200Y-97505600D03*
%TO.P,C2,2*%
%TO.N,GND*%
X175971200Y-99055600D03*
%TD*%
%TO.P,C1,1*%
%TO.N,/VIN-*%
X169164000Y-97441800D03*
%TO.P,C1,2*%
%TO.N,GND*%
X169164000Y-98991800D03*
%TD*%
D15*
%TO.P,R4,1*%
%TO.N,Net-(U2-FB)*%
X174701200Y-91313000D03*
%TO.P,R4,2*%
%TO.N,GND*%
X176351200Y-91313000D03*
%TD*%
D16*
%TO.P,R2,1*%
%TO.N,Net-(U2-PGOOD)*%
X172721800Y-89433400D03*
%TO.P,R2,2*%
%TO.N,/TI Buck Converter 1/V5*%
X171071800Y-89433400D03*
%TD*%
D17*
%TO.P,D1,1,K*%
%TO.N,Net-(D1-K)*%
X153815200Y-93401800D03*
%TO.P,D1,2,A*%
%TO.N,Net-(D1-A)*%
X153815200Y-90801800D03*
%TD*%
D18*
%TO.P,C20,1*%
%TO.N,/VIN-*%
X155635200Y-100685600D03*
%TO.P,C20,2*%
%TO.N,GND*%
X152685200Y-100685600D03*
%TD*%
D19*
%TO.P,J1,1,Pin_1*%
%TO.N,GND*%
X140245200Y-86080600D03*
D20*
%TO.P,J1,2,Pin_2*%
%TO.N,/+12V*%
X145745200Y-86080600D03*
%TD*%
D21*
%TO.P,C9,1*%
%TO.N,Net-(U2-BOOT)*%
X169712400Y-96128800D03*
%TO.P,C9,2*%
%TO.N,Net-(C9-Pad2)*%
X169712400Y-95168800D03*
%TD*%
D22*
%TO.P,C27,1*%
%TO.N,/+3V3*%
X143062700Y-101244400D03*
%TO.P,C27,2*%
%TO.N,GND*%
X144962700Y-101244400D03*
%TD*%
D18*
%TO.P,C19,1*%
%TO.N,/VIN-*%
X155635200Y-103276400D03*
%TO.P,C19,2*%
%TO.N,GND*%
X152685200Y-103276400D03*
%TD*%
D23*
%TO.P,C18,1*%
%TO.N,/VIN-*%
X154818800Y-111810800D03*
%TO.P,C18,2*%
%TO.N,GND*%
X153268800Y-111810800D03*
%TD*%
D24*
%TO.P,C5,1*%
%TO.N,/VIN-*%
X180898800Y-96814400D03*
%TO.P,C5,2*%
%TO.N,GND*%
X180898800Y-99764400D03*
%TD*%
D25*
%TO.P,U3,1,BOOT*%
%TO.N,Net-(U3-BOOT)*%
X155936400Y-106963800D03*
D26*
%TO.P,U3,2,VIN*%
%TO.N,/VIN-*%
X155361400Y-107238800D03*
D27*
%TO.P,U3,3,PGND*%
%TO.N,GND*%
X154711400Y-107238800D03*
%TO.P,U3,4,PGND*%
X154161400Y-107238800D03*
%TO.P,U3,5,PGND*%
X153611400Y-107238800D03*
D28*
%TO.P,U3,6,SW*%
%TO.N,Net-(C25-Pad2)*%
X154361400Y-108313800D03*
%TO.P,U3,7,SW*%
X154361400Y-108913800D03*
D27*
%TO.P,U3,8,PGND*%
%TO.N,GND*%
X153611400Y-109988800D03*
%TO.P,U3,9,PGND*%
X154161400Y-109988800D03*
%TO.P,U3,10,PGND*%
X154711400Y-109988800D03*
D26*
%TO.P,U3,11,VIN*%
%TO.N,/VIN-*%
X155361400Y-109988800D03*
D25*
%TO.P,U3,12,AGND*%
%TO.N,GND*%
X155936400Y-110263800D03*
D29*
%TO.P,U3,13,FB*%
%TO.N,Net-(U3-FB)*%
X156661400Y-109863800D03*
%TO.P,U3,14,SS*%
%TO.N,Net-(U3-SS)*%
X156661400Y-109363800D03*
%TO.P,U3,15,EN*%
%TO.N,unconnected-(U3-EN-Pad15)*%
X156661400Y-108863800D03*
%TO.P,U3,16,PGOOD*%
%TO.N,Net-(U3-PGOOD)*%
X156661400Y-108363800D03*
%TO.P,U3,17,VREG5*%
%TO.N,/TI Buck Converter 2/V5*%
X156661400Y-107863800D03*
%TO.P,U3,18,MODE*%
%TO.N,Net-(U3-MODE)*%
X156661400Y-107363800D03*
%TD*%
D30*
%TO.P,C7,1*%
%TO.N,GND*%
X173329600Y-93697200D03*
%TO.P,C7,2*%
%TO.N,Net-(U2-SS)*%
X173329600Y-94657200D03*
%TD*%
D31*
%TO.P,R9,1*%
%TO.N,Net-(U3-PGOOD)*%
X162026450Y-109277950D03*
%TO.P,R9,2*%
%TO.N,/TI Buck Converter 2/V5*%
X162026450Y-107627950D03*
%TD*%
D18*
%TO.P,C21,1*%
%TO.N,/VIN-*%
X155635200Y-116535200D03*
%TO.P,C21,2*%
%TO.N,GND*%
X152685200Y-116535200D03*
%TD*%
D32*
%TO.P,J3,1,Pin_1*%
%TO.N,GND*%
X135610600Y-104783397D03*
D33*
%TO.P,J3,2,Pin_2*%
X135610600Y-101783398D03*
%TO.P,J3,3,Pin_3*%
%TO.N,/VIN-*%
X135610600Y-98783399D03*
%TO.P,J3,4,Pin_4*%
X135610600Y-95783400D03*
%TO.P,J3,5,Pin_5*%
%TO.N,GND*%
X138610599Y-104783397D03*
%TO.P,J3,6,Pin_6*%
X138610599Y-101783398D03*
%TO.P,J3,7,Pin_7*%
%TO.N,/+3V3*%
X138610599Y-98783399D03*
%TO.P,J3,8,Pin_8*%
%TO.N,/VIN-*%
X138610599Y-95783400D03*
D34*
%TO.P,J3,P1*%
%TO.N,N/C*%
X131290601Y-106933395D03*
%TO.P,J3,P2*%
X131290601Y-93633402D03*
%TD*%
D31*
%TO.P,R5,1*%
%TO.N,/+5V*%
X174792400Y-94449400D03*
%TO.P,R5,2*%
%TO.N,Net-(U2-FB)*%
X174792400Y-92799400D03*
%TD*%
D22*
%TO.P,C30,1*%
%TO.N,/+3V3*%
X143133900Y-116128800D03*
%TO.P,C30,2*%
%TO.N,GND*%
X145033900Y-116128800D03*
%TD*%
D15*
%TO.P,R13,1*%
%TO.N,/+3V3*%
X157023800Y-89001600D03*
%TO.P,R13,2*%
%TO.N,Net-(JP1-A)*%
X158673800Y-89001600D03*
%TD*%
D35*
%TO.P,R1,1*%
%TO.N,Net-(U2-MODE)*%
X169306000Y-91275400D03*
%TO.P,R1,2*%
%TO.N,GND*%
X169306000Y-92925400D03*
%TD*%
D31*
%TO.P,R10,1*%
%TO.N,Net-(U3-MODE)*%
X160604050Y-106216750D03*
%TO.P,R10,2*%
%TO.N,/TI Buck Converter 2/V5*%
X160604050Y-104566750D03*
%TD*%
D36*
%TO.P,C25,1*%
%TO.N,Net-(U3-BOOT)*%
X156292000Y-105664000D03*
%TO.P,C25,2*%
%TO.N,Net-(C25-Pad2)*%
X157252000Y-105664000D03*
%TD*%
D22*
%TO.P,C29,1*%
%TO.N,/+3V3*%
X143133900Y-113931600D03*
%TO.P,C29,2*%
%TO.N,GND*%
X145033900Y-113931600D03*
%TD*%
D37*
%TO.P,C8,1*%
%TO.N,/TI Buck Converter 1/V5*%
X171699450Y-94124400D03*
%TO.P,C8,2*%
%TO.N,GND*%
X171699450Y-92574400D03*
%TD*%
D30*
%TO.P,C10,1*%
%TO.N,Net-(U2-FB)*%
X176138600Y-93220600D03*
%TO.P,C10,2*%
%TO.N,/+5V*%
X176138600Y-94180600D03*
%TD*%
D24*
%TO.P,C4,1*%
%TO.N,/VIN-*%
X164287200Y-96711000D03*
%TO.P,C4,2*%
%TO.N,GND*%
X164287200Y-99661000D03*
%TD*%
D38*
%TO.P,C23,1*%
%TO.N,GND*%
X159255250Y-110129350D03*
%TO.P,C23,2*%
%TO.N,Net-(U3-SS)*%
X158295250Y-110129350D03*
%TD*%
D35*
%TO.P,R6,1*%
%TO.N,/VIN+*%
X153545800Y-87655400D03*
%TO.P,R6,2*%
%TO.N,Net-(D1-A)*%
X153545800Y-89305400D03*
%TD*%
D24*
%TO.P,C6,1*%
%TO.N,/VIN-*%
X178206400Y-96814400D03*
%TO.P,C6,2*%
%TO.N,GND*%
X178206400Y-99764400D03*
%TD*%
D13*
%TO.P,C12,1*%
%TO.N,/+5V*%
X164708600Y-115895200D03*
%TO.P,C12,2*%
%TO.N,GND*%
X164708600Y-113995200D03*
%TD*%
D39*
%TO.P,U4,1,A1*%
%TO.N,Net-(JP1-A)*%
X157354400Y-90555600D03*
%TO.P,U4,2,A0*%
%TO.N,/+3V3*%
X157354400Y-91055600D03*
%TO.P,U4,3,~{Alert}*%
%TO.N,unconnected-(U4-~{Alert}-Pad3)*%
X157354400Y-91555600D03*
%TO.P,U4,4,SDA*%
%TO.N,/SDA*%
X157354400Y-92055600D03*
%TO.P,U4,5,SCL*%
%TO.N,/SCL*%
X157354400Y-92555600D03*
%TO.P,U4,6,VS*%
%TO.N,/+3V3*%
X161754400Y-92555600D03*
%TO.P,U4,7,GND*%
%TO.N,GND*%
X161754400Y-92055600D03*
%TO.P,U4,8,Vbus*%
%TO.N,/VIN-*%
X161754400Y-91555600D03*
%TO.P,U4,9,Vin-*%
X161754400Y-91055600D03*
%TO.P,U4,10,Vin+*%
%TO.N,/VIN+*%
X161754400Y-90555600D03*
%TD*%
D40*
%TO.P,J4,1,Pin_1*%
%TO.N,/+5V*%
X176809400Y-86131400D03*
D41*
%TO.P,J4,2,Pin_2*%
%TO.N,GND*%
X181809400Y-86131400D03*
%TD*%
D38*
%TO.P,C26,1*%
%TO.N,Net-(U3-FB)*%
X158930100Y-113284000D03*
%TO.P,C26,2*%
%TO.N,/+3V3*%
X157970100Y-113284000D03*
%TD*%
D35*
%TO.P,R11,1*%
%TO.N,Net-(U3-FB)*%
X160172250Y-111425750D03*
%TO.P,R11,2*%
%TO.N,GND*%
X160172250Y-113075750D03*
%TD*%
D13*
%TO.P,C13,1*%
%TO.N,/+5V*%
X180202600Y-115971400D03*
%TO.P,C13,2*%
%TO.N,GND*%
X180202600Y-114071400D03*
%TD*%
D18*
%TO.P,C22,1*%
%TO.N,/VIN-*%
X155635200Y-113944400D03*
%TO.P,C22,2*%
%TO.N,GND*%
X152685200Y-113944400D03*
%TD*%
D22*
%TO.P,C28,1*%
%TO.N,/+3V3*%
X143062700Y-103428800D03*
%TO.P,C28,2*%
%TO.N,GND*%
X144962700Y-103428800D03*
%TD*%
D37*
%TO.P,C33,1*%
%TO.N,/+3V3*%
X163680400Y-93889400D03*
%TO.P,C33,2*%
%TO.N,GND*%
X163680400Y-92339400D03*
%TD*%
D24*
%TO.P,C3,1*%
%TO.N,/VIN-*%
X166928800Y-96711000D03*
%TO.P,C3,2*%
%TO.N,GND*%
X166928800Y-99661000D03*
%TD*%
D31*
%TO.P,R3,1*%
%TO.N,Net-(U2-MODE)*%
X169316400Y-89737200D03*
%TO.P,R3,2*%
%TO.N,/TI Buck Converter 1/V5*%
X169316400Y-88087200D03*
%TD*%
D42*
%TO.P,D2,1,K*%
%TO.N,Net-(D2-K)*%
X155628600Y-91361000D03*
%TO.P,D2,2,A*%
%TO.N,Net-(D2-A)*%
X155628600Y-90501000D03*
%TD*%
D43*
%TO.P,Q1,1,S*%
%TO.N,/+12V*%
X149098000Y-82245200D03*
%TO.P,Q1,2,S*%
X149098000Y-83515200D03*
%TO.P,Q1,3,S*%
X149098000Y-84785200D03*
%TO.P,Q1,4,G*%
%TO.N,Net-(Q1-G)*%
X149098000Y-86055200D03*
D44*
%TO.P,Q1,5,D*%
%TO.N,/VIN+*%
X152458000Y-84150200D03*
D45*
X154563000Y-82245200D03*
X154563000Y-83515200D03*
X154563000Y-84785200D03*
X154563000Y-86055200D03*
%TD*%
D29*
%TO.P,U2,1,BOOT*%
%TO.N,Net-(U2-BOOT)*%
X170921600Y-96554200D03*
D46*
%TO.P,U2,2,VIN*%
%TO.N,/VIN-*%
X171196600Y-97129200D03*
D47*
%TO.P,U2,3,PGND*%
%TO.N,GND*%
X171196600Y-97779200D03*
%TO.P,U2,4,PGND*%
X171196600Y-98329200D03*
%TO.P,U2,5,PGND*%
X171196600Y-98879200D03*
D48*
%TO.P,U2,6,SW*%
%TO.N,Net-(C9-Pad2)*%
X172271600Y-98129200D03*
%TO.P,U2,7,SW*%
X172871600Y-98129200D03*
D47*
%TO.P,U2,8,PGND*%
%TO.N,GND*%
X173946600Y-98879200D03*
%TO.P,U2,9,PGND*%
X173946600Y-98329200D03*
%TO.P,U2,10,PGND*%
X173946600Y-97779200D03*
D46*
%TO.P,U2,11,VIN*%
%TO.N,/VIN-*%
X173946600Y-97129200D03*
D29*
%TO.P,U2,12,AGND*%
%TO.N,GND*%
X174221600Y-96554200D03*
D25*
%TO.P,U2,13,FB*%
%TO.N,Net-(U2-FB)*%
X173821600Y-95829200D03*
%TO.P,U2,14,SS*%
%TO.N,Net-(U2-SS)*%
X173321600Y-95829200D03*
%TO.P,U2,15,EN*%
%TO.N,unconnected-(U2-EN-Pad15)*%
X172821600Y-95829200D03*
%TO.P,U2,16,PGOOD*%
%TO.N,Net-(U2-PGOOD)*%
X172321600Y-95829200D03*
%TO.P,U2,17,VREG5*%
%TO.N,/TI Buck Converter 1/V5*%
X171821600Y-95829200D03*
%TO.P,U2,18,MODE*%
%TO.N,Net-(U2-MODE)*%
X171321600Y-95829200D03*
%TD*%
D23*
%TO.P,C17,1*%
%TO.N,/VIN-*%
X154882600Y-105410000D03*
%TO.P,C17,2*%
%TO.N,GND*%
X153332600Y-105410000D03*
%TD*%
D13*
%TO.P,C11,1*%
%TO.N,/+5V*%
X162371800Y-115895200D03*
%TO.P,C11,2*%
%TO.N,GND*%
X162371800Y-113995200D03*
%TD*%
D35*
%TO.P,R7,1*%
%TO.N,/VIN+*%
X155095200Y-87642200D03*
%TO.P,R7,2*%
%TO.N,Net-(D2-A)*%
X155095200Y-89292200D03*
%TD*%
D15*
%TO.P,R12,1*%
%TO.N,/+3V3*%
X157041800Y-111836200D03*
%TO.P,R12,2*%
%TO.N,Net-(U3-FB)*%
X158691800Y-111836200D03*
%TD*%
D49*
%TO.P,L1,1,1*%
%TO.N,Net-(C9-Pad2)*%
X172531800Y-103396800D03*
%TO.P,L1,2,2*%
%TO.N,/+5V*%
X172531800Y-115896800D03*
%TD*%
D50*
%TO.P,L2,1,1*%
%TO.N,Net-(C25-Pad2)*%
X149534300Y-108661200D03*
%TO.P,L2,2,2*%
%TO.N,/+3V3*%
X143134300Y-108661200D03*
%TD*%
D31*
%TO.P,R8,1*%
%TO.N,Net-(U3-MODE)*%
X159080050Y-106229950D03*
%TO.P,R8,2*%
%TO.N,GND*%
X159080050Y-104579950D03*
%TD*%
D10*
%TO.P,C15,1*%
%TO.N,Net-(U1-UV)*%
X148902800Y-94105000D03*
%TO.P,C15,2*%
%TO.N,GND*%
X150452800Y-94105000D03*
%TD*%
D51*
%TO.N,/VIN+*%
X164084000Y-87452200D03*
X164084000Y-86537800D03*
X156718000Y-82905600D03*
X155778200Y-82905600D03*
X155778200Y-84709000D03*
X156718000Y-84709000D03*
X155778200Y-83820000D03*
X156718000Y-85623400D03*
X155778200Y-85623400D03*
X156718000Y-83820000D03*
X156718000Y-82016600D03*
X155778200Y-82016600D03*
X158521400Y-85623400D03*
X159435800Y-85623400D03*
X157581600Y-85623400D03*
X160350200Y-85623400D03*
X158521400Y-82016600D03*
X159435800Y-82016600D03*
X157581600Y-82016600D03*
X160350200Y-82016600D03*
X157581600Y-82905600D03*
X158521400Y-82905600D03*
X159435800Y-82905600D03*
X160350200Y-82905600D03*
X158521400Y-84709000D03*
X159435800Y-84709000D03*
X160350200Y-84709000D03*
X158521400Y-83820000D03*
X159435800Y-83820000D03*
X157581600Y-83820000D03*
X160350200Y-83820000D03*
X157581600Y-84709000D03*
X162255200Y-85648800D03*
X163169600Y-85648800D03*
X161315400Y-85648800D03*
X164084000Y-85648800D03*
X162255200Y-82042000D03*
X163169600Y-82042000D03*
X161315400Y-82042000D03*
X164084000Y-82042000D03*
X161315400Y-82931000D03*
X162255200Y-82931000D03*
X163169600Y-82931000D03*
X164084000Y-82931000D03*
X162255200Y-84734400D03*
X163169600Y-84734400D03*
X164084000Y-84734400D03*
X162255200Y-83845400D03*
X163169600Y-83845400D03*
X161315400Y-83845400D03*
X164084000Y-83845400D03*
X161315400Y-84734400D03*
X165938200Y-82042000D03*
X166852600Y-82042000D03*
X164998400Y-82042000D03*
X167767000Y-82042000D03*
X164998400Y-82931000D03*
X165938200Y-82931000D03*
X166852600Y-82931000D03*
X167767000Y-82931000D03*
X165938200Y-83845400D03*
X166852600Y-83845400D03*
X164998400Y-83845400D03*
X167767000Y-83845400D03*
X164998400Y-84734400D03*
X165938200Y-84734400D03*
X166852600Y-84734400D03*
X167767000Y-84734400D03*
X164998400Y-85648800D03*
X165938200Y-85648800D03*
X166852600Y-85648800D03*
X167767000Y-85648800D03*
X164998400Y-86537800D03*
X165938200Y-86537800D03*
X166852600Y-86537800D03*
X167767000Y-86537800D03*
%TO.N,/VIN-*%
X156971400Y-101625400D03*
X155727400Y-96139000D03*
X159435800Y-97028000D03*
X156951500Y-116789200D03*
X166004000Y-95224600D03*
X160401000Y-95224600D03*
X154787600Y-97028000D03*
X157632400Y-98831400D03*
X158496000Y-98831400D03*
X157632400Y-96139000D03*
X155727400Y-97028000D03*
X156972000Y-99923600D03*
X158496000Y-97028000D03*
X160401000Y-97028000D03*
X156926100Y-114096800D03*
X156692600Y-97942400D03*
X162255200Y-95224600D03*
X154787600Y-98831400D03*
X154787600Y-97942400D03*
X157632400Y-97942400D03*
X161340800Y-98831400D03*
X160401000Y-96139000D03*
X155727400Y-98831400D03*
X157632400Y-97028000D03*
X159435800Y-97942400D03*
X156692600Y-96139000D03*
X158496000Y-96139000D03*
X162255200Y-97942400D03*
X158496000Y-97942400D03*
X156951500Y-117703600D03*
X154787600Y-96139000D03*
X164160200Y-95224600D03*
X154787600Y-95224600D03*
X156692600Y-95224600D03*
X156926100Y-114960400D03*
X160426400Y-94310200D03*
X162255200Y-98831400D03*
X159435800Y-96139000D03*
X158496000Y-95224600D03*
X159435800Y-95224600D03*
X162255200Y-97028000D03*
X157632400Y-95224600D03*
X161340800Y-96139000D03*
X179059600Y-95351600D03*
X157657800Y-94310200D03*
X160401000Y-98831400D03*
X166893000Y-95224600D03*
X162255200Y-96139000D03*
X161340800Y-97942400D03*
X156971400Y-100761800D03*
X180888400Y-95377000D03*
X165115000Y-95224600D03*
X160401000Y-97942400D03*
X156971400Y-102539800D03*
X181752000Y-95377000D03*
X178196000Y-95351600D03*
X177281600Y-95326200D03*
X158521400Y-94310200D03*
X179974000Y-95351600D03*
X156951500Y-115874800D03*
X159435800Y-98831400D03*
X156718000Y-94310200D03*
X161340800Y-95224600D03*
X156692600Y-97028000D03*
X155727400Y-95224600D03*
X167782000Y-95224600D03*
X156927000Y-113182400D03*
X156692600Y-98831400D03*
X161340800Y-97028000D03*
X159461200Y-94310200D03*
X163245800Y-95224600D03*
X155727400Y-97942400D03*
%TO.N,GND*%
X151339000Y-99644200D03*
X181802800Y-101168200D03*
X146181900Y-99644200D03*
X180939200Y-101168200D03*
X162778200Y-112649000D03*
X151339000Y-103251000D03*
X164327600Y-101066600D03*
X146359700Y-116916200D03*
X152075600Y-111760000D03*
X173395400Y-92684600D03*
X180024800Y-101168200D03*
X160883450Y-108122750D03*
X183159400Y-112725200D03*
X163692600Y-112649000D03*
X151339000Y-114681000D03*
X169392600Y-100177600D03*
X151339000Y-100558600D03*
X177495200Y-91821000D03*
X167883600Y-101066600D03*
X146359700Y-113309400D03*
X167020000Y-101066600D03*
X171689050Y-91363800D03*
X152202600Y-105384600D03*
X179552600Y-112725200D03*
X151612600Y-94488000D03*
X166105600Y-101066600D03*
X160502600Y-114020600D03*
X182245000Y-112725200D03*
X146181900Y-103251000D03*
X177332400Y-101168200D03*
X176062400Y-100228400D03*
X151339000Y-113817400D03*
X151339000Y-115595400D03*
X151339000Y-102336600D03*
X151339000Y-101422200D03*
X146359700Y-115087400D03*
X168910000Y-93776800D03*
X175376600Y-96139000D03*
X151339000Y-104114600D03*
X159105450Y-103677750D03*
X151339000Y-112928400D03*
X150799800Y-89281000D03*
X179110400Y-101168200D03*
X151339000Y-117373400D03*
X160502600Y-110286800D03*
X178246800Y-101168200D03*
X146359700Y-114223800D03*
X151339000Y-116509800D03*
X165470600Y-112649000D03*
X161914600Y-112649000D03*
X146359700Y-116001800D03*
X163413200Y-101066600D03*
X146181900Y-102336600D03*
X156189500Y-111226600D03*
X180441600Y-112725200D03*
X181330600Y-112725200D03*
X165191200Y-101066600D03*
X164607000Y-112649000D03*
X162918400Y-93050600D03*
X146181900Y-101422200D03*
X146181900Y-100558600D03*
X146181900Y-104114600D03*
%TO.N,Net-(C9-Pad2)*%
X170068000Y-94411800D03*
X169291000Y-101955600D03*
%TO.N,/+5V*%
X183184800Y-117246400D03*
X163489400Y-117221000D03*
X162625800Y-117221000D03*
X164327600Y-117221000D03*
X181457600Y-117246400D03*
X166054800Y-117221000D03*
X179755800Y-117246400D03*
X161747200Y-117221000D03*
X182321200Y-117246400D03*
X180619400Y-117246400D03*
X165191200Y-117221000D03*
X178892200Y-117246400D03*
%TO.N,Net-(C25-Pad2)*%
X151085600Y-106354200D03*
X157815100Y-106375200D03*
%TO.N,/+3V3*%
X162610800Y-94030800D03*
X157036000Y-87970600D03*
X141763800Y-104190800D03*
X141762300Y-99741400D03*
X141838500Y-116560600D03*
X141838500Y-115620800D03*
X141762300Y-101494000D03*
X141757400Y-102387400D03*
X141838500Y-114757200D03*
X141762300Y-100630400D03*
X141840000Y-117454000D03*
X141838500Y-113893600D03*
X141762300Y-103297400D03*
X141838500Y-113004600D03*
%TO.N,/SDA*%
X155905200Y-92125800D03*
%TO.N,/SCL*%
X155218400Y-92913200D03*
%TO.N,Net-(JP1-A)*%
X159880800Y-89001600D03*
%TD*%
D52*
%TO.N,GND*%
X150802000Y-87983600D02*
X150802000Y-89278800D01*
X150802000Y-89278800D02*
X150799800Y-89281000D01*
X152102000Y-87983600D02*
X152102000Y-88851233D01*
X152102000Y-88851233D02*
X151672233Y-89281000D01*
X151672233Y-89281000D02*
X150799800Y-89281000D01*
D53*
%TO.N,/VIN-*%
X166525200Y-91348800D02*
X166525200Y-93741300D01*
X162799400Y-91555600D02*
X163299400Y-91055600D01*
X161754400Y-91055600D02*
X163299400Y-91055600D01*
X163299400Y-91055600D02*
X166232000Y-91055600D01*
X166232000Y-91055600D02*
X166525200Y-91348800D01*
X161754400Y-91555600D02*
X162799400Y-91555600D01*
D52*
%TO.N,GND*%
X153332600Y-105410000D02*
X152228000Y-105410000D01*
X152228000Y-105410000D02*
X152202600Y-105384600D01*
X175376600Y-96139000D02*
X175039100Y-96476500D01*
X175971200Y-100137200D02*
X176062400Y-100228400D01*
X175039100Y-96476500D02*
X174221600Y-96476500D01*
D54*
X153611400Y-109988800D02*
X154711400Y-109988800D01*
D55*
X173329600Y-92750400D02*
X173395400Y-92684600D01*
D53*
X163680400Y-92339400D02*
X163629600Y-92339400D01*
D52*
X176859200Y-91821000D02*
X176351200Y-91313000D01*
D53*
X161754400Y-92055600D02*
X163507000Y-92055600D01*
X163629600Y-92339400D02*
X162918400Y-93050600D01*
D52*
X171699450Y-92574400D02*
X171699450Y-91374200D01*
X160172250Y-113075750D02*
X160172250Y-113690250D01*
X173946600Y-98879200D02*
X173946600Y-97781900D01*
D54*
X159255250Y-110129350D02*
X160345150Y-110129350D01*
X160345150Y-110129350D02*
X160502600Y-110286800D01*
D52*
X169392600Y-99220400D02*
X169164000Y-98991800D01*
X175971200Y-99055600D02*
X175971200Y-100137200D01*
X177495200Y-91821000D02*
X176859200Y-91821000D01*
X160172250Y-113690250D02*
X160502600Y-114020600D01*
X171196600Y-98879200D02*
X171196600Y-97781900D01*
D54*
X153611400Y-107238800D02*
X154711400Y-107238800D01*
D52*
X150802000Y-92303600D02*
X150802000Y-93755800D01*
X171699450Y-91374200D02*
X171689050Y-91363800D01*
D55*
X173329600Y-93697200D02*
X173329600Y-92750400D01*
D52*
X153268800Y-111810800D02*
X152126400Y-111810800D01*
X150835800Y-94488000D02*
X150452800Y-94105000D01*
X152126400Y-111810800D02*
X152075600Y-111760000D01*
D53*
X160710700Y-107950000D02*
X160883450Y-108122750D01*
D52*
X169392600Y-100177600D02*
X169392600Y-99220400D01*
X150802000Y-93755800D02*
X150452800Y-94105000D01*
X159080050Y-104579950D02*
X159080050Y-103703150D01*
X169306000Y-93380800D02*
X168910000Y-93776800D01*
X169306000Y-92925400D02*
X169306000Y-93380800D01*
D53*
X156189500Y-111226600D02*
X155937900Y-110975000D01*
X159741050Y-107950000D02*
X160710700Y-107950000D01*
D52*
X151612600Y-94488000D02*
X150835800Y-94488000D01*
D53*
X155937900Y-110975000D02*
X155937900Y-110263800D01*
D52*
X159080050Y-103703150D02*
X159105450Y-103677750D01*
D53*
%TO.N,Net-(U2-SS)*%
X173321600Y-95829200D02*
X173321600Y-94665200D01*
X173321600Y-94665200D02*
X173329600Y-94657200D01*
D52*
%TO.N,/TI Buck Converter 1/V5*%
X171793900Y-95250000D02*
X171793900Y-95126500D01*
X170662600Y-89433400D02*
X169316400Y-88087200D01*
X170821750Y-93246700D02*
X170821750Y-89683450D01*
X171793900Y-95250000D02*
X171793900Y-95829200D01*
X171071800Y-89433400D02*
X170662600Y-89433400D01*
X171699450Y-94124400D02*
X171636950Y-94186900D01*
X170821750Y-89683450D02*
X171071800Y-89433400D01*
X171793900Y-94186900D02*
X171793900Y-95250000D01*
X171699450Y-94124400D02*
X170821750Y-93246700D01*
%TO.N,Net-(U2-BOOT)*%
X170060100Y-96476500D02*
X170921600Y-96476500D01*
X169712400Y-96128800D02*
X170060100Y-96476500D01*
%TO.N,Net-(C9-Pad2)*%
X169712400Y-94767400D02*
X170068000Y-94411800D01*
X169291000Y-101955600D02*
X171090600Y-101955600D01*
X172531800Y-103396800D02*
X170569400Y-103396800D01*
X171090600Y-101955600D02*
X172531800Y-103396800D01*
X169712400Y-95168800D02*
X169712400Y-94767400D01*
D53*
%TO.N,Net-(U2-FB)*%
X173966100Y-94044300D02*
X174792400Y-93218000D01*
X174701200Y-91313000D02*
X174701200Y-92708200D01*
X173821600Y-95829200D02*
X173873000Y-95829200D01*
X173821600Y-95829200D02*
X173966100Y-95684700D01*
X173966100Y-95684700D02*
X173966100Y-94044300D01*
X174701200Y-92708200D02*
X174792400Y-92799400D01*
X175717400Y-92799400D02*
X176138600Y-93220600D01*
X174792400Y-93218000D02*
X174792400Y-92799400D01*
X174792400Y-92799400D02*
X175717400Y-92799400D01*
D52*
%TO.N,/+5V*%
X172531800Y-115896800D02*
X172531800Y-118633000D01*
X183184800Y-94792800D02*
X182572600Y-94180600D01*
X172974000Y-119075200D02*
X183718200Y-119075200D01*
X184099200Y-112318800D02*
X183184800Y-111404400D01*
X184099200Y-118694200D02*
X184099200Y-112318800D01*
X175869800Y-94449400D02*
X176138600Y-94180600D01*
X182572600Y-94180600D02*
X176138600Y-94180600D01*
X183184800Y-111404400D02*
X183184800Y-94792800D01*
X172531800Y-118633000D02*
X172974000Y-119075200D01*
X174792400Y-94449400D02*
X175869800Y-94449400D01*
X183718200Y-119075200D02*
X184099200Y-118694200D01*
%TO.N,Net-(U1-UV)*%
X149502000Y-93505800D02*
X149502000Y-92303600D01*
X148902800Y-94105000D02*
X149502000Y-93505800D01*
X150152000Y-92303600D02*
X149502000Y-92303600D01*
D53*
%TO.N,Net-(U3-SS)*%
X158295250Y-110049650D02*
X157607400Y-109361800D01*
X158295250Y-110129350D02*
X158295250Y-110049650D01*
X157607400Y-109361800D02*
X156661400Y-109361800D01*
%TO.N,/TI Buck Converter 2/V5*%
X158191050Y-107950000D02*
X158486111Y-107950000D01*
X162026450Y-105989150D02*
X160604050Y-104566750D01*
X162026450Y-107627950D02*
X162026450Y-105989150D01*
X159287611Y-107148500D02*
X161547000Y-107148500D01*
X157927050Y-107863800D02*
X158013250Y-107950000D01*
X161547000Y-107148500D02*
X162026450Y-107627950D01*
X156661400Y-107863800D02*
X157927050Y-107863800D01*
X158486111Y-107950000D02*
X159287611Y-107148500D01*
%TO.N,Net-(U3-BOOT)*%
X156292000Y-105664000D02*
X155937900Y-106018100D01*
X155937900Y-106018100D02*
X155937900Y-106963800D01*
D52*
%TO.N,Net-(C25-Pad2)*%
X149534300Y-108661200D02*
X149534300Y-107905500D01*
X149534300Y-107905500D02*
X151085600Y-106354200D01*
X157815100Y-106375200D02*
X157815100Y-106227100D01*
X157815100Y-106227100D02*
X157252000Y-105664000D01*
%TO.N,Net-(U3-FB)*%
X159761800Y-111836200D02*
X160172250Y-111425750D01*
X158930100Y-113284000D02*
X158930100Y-112074500D01*
X158691800Y-111836200D02*
X159761800Y-111836200D01*
X156747100Y-109891500D02*
X156661400Y-109891500D01*
X158691800Y-111836200D02*
X156747100Y-109891500D01*
X158930100Y-112074500D02*
X158691800Y-111836200D01*
%TO.N,/+3V3*%
X141508300Y-108661200D02*
X143134300Y-108661200D01*
X140644700Y-118160800D02*
X140644700Y-109626400D01*
D56*
X139051699Y-98783399D02*
X141762300Y-101494000D01*
D52*
X157023800Y-87982800D02*
X157036000Y-87970600D01*
X157970100Y-112764500D02*
X157970100Y-113284000D01*
D56*
X138610599Y-98783399D02*
X139051699Y-98783399D01*
D52*
X157023800Y-89001600D02*
X157023800Y-87982800D01*
D55*
X161645600Y-94030800D02*
X161645600Y-92786100D01*
D53*
X158194206Y-91055600D02*
X157354400Y-91055600D01*
D55*
X161645600Y-92786100D02*
X161754400Y-92786100D01*
D52*
X141609900Y-108661200D02*
X143134300Y-108661200D01*
X157970100Y-113284000D02*
X157970100Y-118310600D01*
D53*
X161754400Y-92555600D02*
X159694207Y-92555600D01*
D52*
X140990200Y-118506300D02*
X140644700Y-118160800D01*
X157774400Y-118506300D02*
X140990200Y-118506300D01*
D55*
X163680400Y-93889400D02*
X163539000Y-94030800D01*
D52*
X140644700Y-109626400D02*
X141609900Y-108661200D01*
D53*
X158295703Y-91157097D02*
X158194206Y-91055600D01*
D52*
X157970100Y-118310600D02*
X157774400Y-118506300D01*
X157041800Y-111836200D02*
X157970100Y-112764500D01*
X142169100Y-109626400D02*
X143134300Y-108661200D01*
D53*
X159694207Y-92555600D02*
X158295703Y-91157097D01*
X158295703Y-91157097D02*
X158194207Y-91055600D01*
D55*
X163539000Y-94030800D02*
X161645600Y-94030800D01*
D52*
%TO.N,Net-(D1-K)*%
X151452000Y-92303600D02*
X151452000Y-93171233D01*
X151940667Y-93659900D02*
X153557100Y-93659900D01*
X151452000Y-93171233D02*
X151940667Y-93659900D01*
X153557100Y-93659900D02*
X153815200Y-93401800D01*
D55*
%TO.N,Net-(D1-A)*%
X153815200Y-89574800D02*
X153545800Y-89305400D01*
X153815200Y-90801800D02*
X153815200Y-89574800D01*
D52*
%TO.N,Net-(D2-K)*%
X155628600Y-91361000D02*
X154686000Y-92303600D01*
X154686000Y-92303600D02*
X152102000Y-92303600D01*
X152102000Y-92303600D02*
X152102000Y-91922600D01*
D55*
%TO.N,Net-(D2-A)*%
X155623100Y-90495500D02*
X155628600Y-90495500D01*
X155095200Y-89967600D02*
X155623100Y-90495500D01*
X155095200Y-89292200D02*
X155095200Y-89967600D01*
D52*
%TO.N,Net-(Q1-G)*%
X149502000Y-87983600D02*
X149502000Y-86459200D01*
X149502000Y-86459200D02*
X149098000Y-86055200D01*
%TO.N,Net-(U2-MODE)*%
X170215850Y-92185250D02*
X169306000Y-91275400D01*
X170821750Y-94103572D02*
X170821750Y-94609402D01*
X171188000Y-94975652D02*
X171188000Y-95829200D01*
X170821750Y-94609402D02*
X171188000Y-94975652D01*
X170215850Y-93497672D02*
X170821750Y-94103572D01*
X170215850Y-93497672D02*
X170215850Y-92185250D01*
X169316400Y-89737200D02*
X169316400Y-91265000D01*
D53*
%TO.N,Net-(U2-PGOOD)*%
X172323600Y-95249200D02*
X172323600Y-95829200D01*
X172622100Y-89533100D02*
X172622100Y-94950700D01*
X172622100Y-94950700D02*
X172323600Y-95249200D01*
X172721800Y-89433400D02*
X172622100Y-89533100D01*
%TO.N,Net-(U3-MODE)*%
X156661400Y-107363800D02*
X156876700Y-107148500D01*
X159080050Y-106654204D02*
X159080050Y-106229950D01*
X160604050Y-106216750D02*
X159093250Y-106216750D01*
X159080050Y-106654204D02*
X158585754Y-107148500D01*
X159093250Y-106216750D02*
X159080050Y-106229950D01*
X156876700Y-107148500D02*
X158585754Y-107148500D01*
%TO.N,Net-(U3-PGOOD)*%
X157734950Y-108859350D02*
X157239400Y-108363800D01*
X157783900Y-108908300D02*
X157531200Y-108655600D01*
X157239400Y-108363800D02*
X156661400Y-108363800D01*
X161656800Y-108908300D02*
X157783900Y-108908300D01*
X162026450Y-109277950D02*
X161656800Y-108908300D01*
%TO.N,/SDA*%
X155975400Y-92055600D02*
X155905200Y-92125800D01*
X156204000Y-92055600D02*
X157354400Y-92055600D01*
X155930600Y-92329000D02*
X156204000Y-92055600D01*
X157354400Y-92055600D02*
X155975400Y-92055600D01*
%TO.N,/SCL*%
X157354400Y-92555600D02*
X156996800Y-92913200D01*
X156996800Y-92913200D02*
X155219400Y-92913200D01*
D52*
%TO.N,Net-(JP1-A)*%
X159880800Y-89001600D02*
X158673800Y-89001600D01*
D53*
X157354400Y-90321000D02*
X158673800Y-89001600D01*
X157354400Y-90555600D02*
X157354400Y-90321000D01*
D55*
%TO.N,/VIN+*%
X155095200Y-86587400D02*
X154563000Y-86055200D01*
D52*
X151452000Y-87115967D02*
X151750767Y-86817200D01*
D53*
X161754400Y-90555600D02*
X166226200Y-90555600D01*
D55*
X155082000Y-87655400D02*
X155095200Y-87642200D01*
X153545800Y-87655400D02*
X155082000Y-87655400D01*
D52*
X152707600Y-86817200D02*
X153545800Y-87655400D01*
D55*
X155095200Y-87642200D02*
X155095200Y-86587400D01*
D52*
X151750767Y-86817200D02*
X152707600Y-86817200D01*
D53*
X166226200Y-90555600D02*
X166525200Y-90256600D01*
X166525200Y-90256600D02*
X166525200Y-87838700D01*
D52*
X151452000Y-87983600D02*
X151452000Y-87115967D01*
%TD*%
%TA.AperFunction,Conductor*%
%TO.N,/SCL*%
G36*
X157359522Y-92565728D02*
G01*
X157359552Y-92565800D01*
X157413349Y-92697791D01*
X157413298Y-92706746D01*
X157410131Y-92711088D01*
X157196363Y-92894412D01*
X157187852Y-92897197D01*
X157180473Y-92893804D01*
X157004637Y-92717968D01*
X157001210Y-92709695D01*
X157004637Y-92701422D01*
X157008419Y-92698891D01*
X157344229Y-92559410D01*
X157353184Y-92559402D01*
X157359522Y-92565728D01*
G37*
%TD.AperFunction*%
%TD*%
%TA.AperFunction,Conductor*%
%TO.N,Net-(C25-Pad2)*%
G36*
X157490043Y-105612950D02*
G01*
X157839378Y-105888445D01*
X158087632Y-106084225D01*
X158092006Y-106092039D01*
X158089574Y-106100657D01*
X158088681Y-106101664D01*
X157817469Y-106374235D01*
X157813627Y-106376803D01*
X157456515Y-106523759D01*
X157447561Y-106523738D01*
X157441243Y-106517391D01*
X157441184Y-106517244D01*
X157197338Y-105901023D01*
X157197480Y-105892069D01*
X157199941Y-105888448D01*
X157474526Y-105613863D01*
X157482798Y-105610437D01*
X157490043Y-105612950D01*
G37*
%TD.AperFunction*%
%TD*%
%TA.AperFunction,Conductor*%
%TO.N,Net-(U1-UV)*%
G36*
X149747832Y-92064494D02*
G01*
X149972074Y-92098878D01*
X149979731Y-92103518D01*
X149982000Y-92110442D01*
X149982000Y-92496757D01*
X149978573Y-92505030D01*
X149972073Y-92508322D01*
X149747841Y-92542704D01*
X149739144Y-92540570D01*
X149737812Y-92539429D01*
X149643728Y-92445736D01*
X149509323Y-92311889D01*
X149505880Y-92303624D01*
X149509290Y-92295344D01*
X149737813Y-92067769D01*
X149746092Y-92064360D01*
X149747832Y-92064494D01*
G37*
%TD.AperFunction*%
%TD*%
%TA.AperFunction,Conductor*%
%TO.N,/VIN+*%
G36*
X162618891Y-90427525D02*
G01*
X162626772Y-90431775D01*
X162629400Y-90439164D01*
X162629400Y-90672035D01*
X162625973Y-90680308D01*
X162618890Y-90683674D01*
X162543805Y-90691349D01*
X162409578Y-90705070D01*
X162408996Y-90705100D01*
X162403559Y-90705100D01*
X162400932Y-90704801D01*
X162294633Y-90680308D01*
X161802879Y-90567000D01*
X161795588Y-90561804D01*
X161794106Y-90552973D01*
X161799303Y-90545681D01*
X161802880Y-90544199D01*
X162402512Y-90406034D01*
X162406327Y-90405797D01*
X162618891Y-90427525D01*
G37*
%TD.AperFunction*%
%TD*%
%TA.AperFunction,Conductor*%
%TO.N,Net-(D2-K)*%
G36*
X155300997Y-91294432D02*
G01*
X155623165Y-91359060D01*
X155630602Y-91364047D01*
X155631686Y-91366086D01*
X155705538Y-91545899D01*
X155705511Y-91554854D01*
X155699192Y-91561153D01*
X155602367Y-91601259D01*
X155602357Y-91601265D01*
X155476918Y-91697518D01*
X155380665Y-91822957D01*
X155380659Y-91822967D01*
X155323540Y-91960864D01*
X155319745Y-91965751D01*
X155293875Y-91985129D01*
X155285199Y-91987346D01*
X155278588Y-91984038D01*
X155005419Y-91710869D01*
X155001992Y-91702596D01*
X155004190Y-91695769D01*
X155039947Y-91646000D01*
X155289198Y-91299075D01*
X155296806Y-91294358D01*
X155300997Y-91294432D01*
G37*
%TD.AperFunction*%
%TD*%
%TA.AperFunction,Conductor*%
%TO.N,/VIN-*%
G36*
X162645332Y-99237750D02*
G01*
X162643138Y-99244653D01*
X162589331Y-99289224D01*
X162539742Y-99299312D01*
X157378400Y-99274498D01*
X157403221Y-104610921D01*
X157383848Y-104678052D01*
X157331258Y-104724052D01*
X157279222Y-104735498D01*
X155651200Y-104735498D01*
X155651200Y-105818556D01*
X155639581Y-105870963D01*
X155634372Y-105882132D01*
X155627125Y-105899629D01*
X155625402Y-105904364D01*
X155618327Y-105944483D01*
X155617156Y-105949762D01*
X155606612Y-105989116D01*
X155610164Y-106029698D01*
X155610400Y-106035105D01*
X155610400Y-106992451D01*
X155610664Y-106995468D01*
X155610900Y-107000875D01*
X155610900Y-107283552D01*
X155622531Y-107342028D01*
X155622532Y-107342030D01*
X155622533Y-107342031D01*
X155630300Y-107353655D01*
X155651180Y-107420331D01*
X155651200Y-107422548D01*
X155651200Y-107761098D01*
X155631515Y-107828137D01*
X155578711Y-107873892D01*
X155527200Y-107885098D01*
X155210900Y-107885098D01*
X155143861Y-107865413D01*
X155098106Y-107812609D01*
X155086900Y-107761098D01*
X155086900Y-106594049D01*
X155086899Y-106594047D01*
X155075268Y-106535570D01*
X155075267Y-106535569D01*
X155030952Y-106469247D01*
X154964630Y-106424932D01*
X154964629Y-106424931D01*
X154906152Y-106413300D01*
X154906148Y-106413300D01*
X154594385Y-106413300D01*
X154527346Y-106393615D01*
X154481591Y-106340811D01*
X154470389Y-106290265D01*
X154415989Y-99299898D01*
X154415309Y-99212504D01*
X162645332Y-99237750D01*
G37*
%TD.AperFunction*%
%TA.AperFunction,Conductor*%
G36*
X168224199Y-96861497D02*
G01*
X168224200Y-96861498D01*
X169957400Y-96873703D01*
X169994837Y-96879769D01*
X169996161Y-96880200D01*
X169996164Y-96880200D01*
X170879874Y-96880200D01*
X170939442Y-96880619D01*
X171707876Y-96886030D01*
X171774772Y-96906186D01*
X171820154Y-96959311D01*
X171831000Y-97010027D01*
X171831000Y-97279700D01*
X171811315Y-97346739D01*
X171758511Y-97392494D01*
X171707000Y-97403700D01*
X171373336Y-97403700D01*
X171332900Y-97393991D01*
X171332187Y-97396188D01*
X171322905Y-97393172D01*
X171196602Y-97373168D01*
X171196598Y-97373168D01*
X171070294Y-97393172D01*
X171061013Y-97396188D01*
X171060299Y-97393991D01*
X171019864Y-97403700D01*
X170551847Y-97403700D01*
X170493370Y-97415331D01*
X170493369Y-97415332D01*
X170427047Y-97459647D01*
X170382732Y-97525969D01*
X170382731Y-97525970D01*
X170371100Y-97584447D01*
X170371100Y-97973947D01*
X170382251Y-98030010D01*
X170382257Y-98078359D01*
X170381830Y-98080506D01*
X170381442Y-98082458D01*
X170349074Y-98144376D01*
X170288368Y-98178967D01*
X170259819Y-98182298D01*
X167894098Y-98182298D01*
X162739595Y-98157154D01*
X162687000Y-98156898D01*
X162686999Y-98156898D01*
X162664307Y-99178068D01*
X162661971Y-99185413D01*
X162687000Y-95656400D01*
X168215771Y-95631038D01*
X168224199Y-96861497D01*
G37*
%TD.AperFunction*%
%TA.AperFunction,Conductor*%
G36*
X168142686Y-93172783D02*
G01*
X168188441Y-93225587D01*
X168199643Y-93276246D01*
X168210205Y-94818200D01*
X164821148Y-94818200D01*
X164821271Y-94809978D01*
X164827138Y-94416861D01*
X164834796Y-93903800D01*
X164844176Y-93275248D01*
X164864860Y-93208509D01*
X164918341Y-93163547D01*
X164968163Y-93153098D01*
X168075647Y-93153098D01*
X168142686Y-93172783D01*
G37*
%TD.AperFunction*%
%TA.AperFunction,Conductor*%
G36*
X160709497Y-93903107D02*
G01*
X160711026Y-93903565D01*
X156311600Y-93895097D01*
X156311600Y-93895096D01*
X156328144Y-93895128D01*
X156352991Y-93881591D01*
X156379926Y-93878783D01*
X160709497Y-93903107D01*
G37*
%TD.AperFunction*%
%TD*%
%TA.AperFunction,Conductor*%
%TO.N,/VIN+*%
G36*
X153042983Y-86862004D02*
G01*
X153268301Y-86994597D01*
X153523507Y-87144780D01*
X153702734Y-87250250D01*
X153708126Y-87257400D01*
X153707619Y-87264788D01*
X153548921Y-87650243D01*
X153542602Y-87656589D01*
X153540276Y-87657285D01*
X153079223Y-87744491D01*
X153070458Y-87742662D01*
X153066742Y-87738531D01*
X152751925Y-87152438D01*
X152751030Y-87143531D01*
X152753958Y-87138633D01*
X153028777Y-86863814D01*
X153037049Y-86860388D01*
X153042983Y-86862004D01*
G37*
%TD.AperFunction*%
%TD*%
%TA.AperFunction,Conductor*%
%TO.N,/TI Buck Converter 2/V5*%
G36*
X162155154Y-106831377D02*
G01*
X162156870Y-106833558D01*
X162421345Y-107267186D01*
X162422727Y-107276033D01*
X162419103Y-107282046D01*
X162034196Y-107622105D01*
X162025727Y-107625015D01*
X162018702Y-107622105D01*
X161633796Y-107282046D01*
X161629865Y-107274000D01*
X161631553Y-107267188D01*
X161896029Y-106833558D01*
X161903264Y-106828279D01*
X161906019Y-106827950D01*
X162146881Y-106827950D01*
X162155154Y-106831377D01*
G37*
%TD.AperFunction*%
%TD*%
%TA.AperFunction,Conductor*%
%TO.N,Net-(U2-FB)*%
G36*
X175151805Y-92418498D02*
G01*
X175660870Y-92669184D01*
X175666777Y-92675912D01*
X175667400Y-92679679D01*
X175667400Y-92919120D01*
X175663973Y-92927393D01*
X175660869Y-92929616D01*
X175151807Y-93180300D01*
X175142871Y-93180881D01*
X175138011Y-93177708D01*
X175109309Y-93146381D01*
X174798640Y-92807302D01*
X174795579Y-92798889D01*
X174798640Y-92791497D01*
X175138012Y-92421090D01*
X175146127Y-92417306D01*
X175151805Y-92418498D01*
G37*
%TD.AperFunction*%
%TD*%
%TA.AperFunction,Conductor*%
%TO.N,/TI Buck Converter 2/V5*%
G36*
X157885309Y-107499995D02*
G01*
X158186756Y-107942234D01*
X158188584Y-107951000D01*
X158185607Y-107956843D01*
X157813953Y-108351660D01*
X157805787Y-108355336D01*
X157798636Y-108353163D01*
X157295952Y-107994299D01*
X157291210Y-107986703D01*
X157291050Y-107984777D01*
X157291050Y-107744608D01*
X157294477Y-107736335D01*
X157298257Y-107733805D01*
X157871153Y-107495779D01*
X157880107Y-107495771D01*
X157885309Y-107499995D01*
G37*
%TD.AperFunction*%
%TD*%
%TA.AperFunction,Conductor*%
%TO.N,/VIN+*%
G36*
X168050084Y-81635378D02*
G01*
X168117088Y-81655183D01*
X168162748Y-81708069D01*
X168173860Y-81758915D01*
X168193324Y-86975315D01*
X168198336Y-88318337D01*
X168178902Y-88385450D01*
X168126269Y-88431401D01*
X168074337Y-88442800D01*
X163750800Y-88442800D01*
X163683761Y-88423115D01*
X163638006Y-88370311D01*
X163626800Y-88318800D01*
X163626800Y-86995000D01*
X154175000Y-86995000D01*
X154107961Y-86975315D01*
X154062206Y-86922511D01*
X154051000Y-86871000D01*
X154051000Y-81734423D01*
X154070685Y-81667384D01*
X154123489Y-81621629D01*
X154175221Y-81610423D01*
X168050084Y-81635378D01*
G37*
%TD.AperFunction*%
%TD*%
%TA.AperFunction,Conductor*%
%TO.N,Net-(Q1-G)*%
G36*
X149108387Y-86059580D02*
G01*
X149682846Y-86357153D01*
X149688615Y-86364000D01*
X149689141Y-86366812D01*
X149704425Y-86611764D01*
X149701520Y-86620235D01*
X149693477Y-86624170D01*
X149692748Y-86624193D01*
X149302649Y-86624193D01*
X149295702Y-86621907D01*
X148949046Y-86366104D01*
X148944424Y-86358435D01*
X148945583Y-86351350D01*
X149092640Y-86064648D01*
X149099463Y-86058854D01*
X149108387Y-86059580D01*
G37*
%TD.AperFunction*%
%TD*%
%TA.AperFunction,Conductor*%
%TO.N,Net-(U3-FB)*%
G36*
X159705957Y-111232565D02*
G01*
X160087366Y-111390244D01*
X160167824Y-111423507D01*
X160174160Y-111429834D01*
X160174694Y-111431440D01*
X160271903Y-111814358D01*
X160270617Y-111823220D01*
X160263442Y-111828577D01*
X160263391Y-111828590D01*
X159431465Y-112035781D01*
X159422608Y-112034455D01*
X159417284Y-112027256D01*
X159416937Y-112024428D01*
X159416937Y-111636660D01*
X159419023Y-111629992D01*
X159691878Y-111236707D01*
X159699409Y-111231865D01*
X159705957Y-111232565D01*
G37*
%TD.AperFunction*%
%TD*%
%TA.AperFunction,Conductor*%
%TO.N,/SCL*%
G36*
X155549447Y-92610375D02*
G01*
X155552459Y-92612047D01*
X155580577Y-92633622D01*
X155602359Y-92650336D01*
X155602363Y-92650338D01*
X155602367Y-92650340D01*
X155677624Y-92681512D01*
X155748438Y-92710844D01*
X155853420Y-92724665D01*
X155855988Y-92725307D01*
X156010807Y-92783353D01*
X156017351Y-92789466D01*
X156018400Y-92794308D01*
X156018400Y-93032091D01*
X156014973Y-93040364D01*
X156010807Y-93043046D01*
X155382037Y-93278791D01*
X155373088Y-93278487D01*
X155367131Y-93272338D01*
X155219275Y-92917699D01*
X155219255Y-92908750D01*
X155367132Y-92554059D01*
X155373478Y-92547743D01*
X155382035Y-92547608D01*
X155549447Y-92610375D01*
G37*
%TD.AperFunction*%
%TD*%
%TA.AperFunction,Conductor*%
%TO.N,/TI Buck Converter 1/V5*%
G36*
X170684369Y-89377589D02*
G01*
X171066411Y-89431637D01*
X171074121Y-89436189D01*
X171074688Y-89437014D01*
X171352291Y-89880506D01*
X171353776Y-89889337D01*
X171351477Y-89894064D01*
X171126699Y-90172435D01*
X171034398Y-90286745D01*
X171028463Y-90294095D01*
X171020599Y-90298379D01*
X171019360Y-90298445D01*
X170630945Y-90298445D01*
X170622672Y-90295018D01*
X170619245Y-90286745D01*
X170619264Y-90286071D01*
X170641889Y-89894064D01*
X170671067Y-89388500D01*
X170674965Y-89380440D01*
X170683422Y-89377495D01*
X170684369Y-89377589D01*
G37*
%TD.AperFunction*%
%TD*%
%TA.AperFunction,Conductor*%
%TO.N,Net-(U3-MODE)*%
G36*
X159086990Y-106238353D02*
G01*
X159270380Y-106506389D01*
X159348944Y-106621214D01*
X159350788Y-106629977D01*
X159346826Y-106636769D01*
X158912376Y-107002778D01*
X158903841Y-107005487D01*
X158896565Y-107002103D01*
X158726552Y-106832090D01*
X158723689Y-106827406D01*
X158623118Y-106515313D01*
X158623842Y-106506389D01*
X158628217Y-106501704D01*
X159071299Y-106234936D01*
X159080154Y-106233605D01*
X159086990Y-106238353D01*
G37*
%TD.AperFunction*%
%TD*%
%TA.AperFunction,Conductor*%
%TO.N,Net-(U3-MODE)*%
G36*
X159439363Y-105848807D02*
G01*
X159948303Y-106086598D01*
X159954347Y-106093204D01*
X159955050Y-106097197D01*
X159955050Y-106336632D01*
X159951623Y-106344905D01*
X159948729Y-106347022D01*
X159439542Y-106610607D01*
X159430619Y-106611367D01*
X159425536Y-106608121D01*
X159176793Y-106336632D01*
X159086290Y-106237852D01*
X159083229Y-106229439D01*
X159086290Y-106222047D01*
X159425788Y-105851502D01*
X159433902Y-105847719D01*
X159439363Y-105848807D01*
G37*
%TD.AperFunction*%
%TD*%
%TA.AperFunction,Conductor*%
%TO.N,/+3V3*%
G36*
X157396023Y-88119700D02*
G01*
X157402340Y-88126046D01*
X157402795Y-88133622D01*
X157229376Y-88759597D01*
X157223865Y-88766655D01*
X157218101Y-88768173D01*
X156829832Y-88768173D01*
X156821559Y-88764746D01*
X156818453Y-88759195D01*
X156668765Y-88133360D01*
X156670173Y-88124516D01*
X156675640Y-88119840D01*
X157031500Y-87971475D01*
X157040449Y-87971455D01*
X157396023Y-88119700D01*
G37*
%TD.AperFunction*%
%TD*%
%TA.AperFunction,Conductor*%
%TO.N,Net-(D1-A)*%
G36*
X154195231Y-89805227D02*
G01*
X154198340Y-89810791D01*
X154313688Y-90295448D01*
X154312270Y-90304290D01*
X154310587Y-90306422D01*
X153823481Y-90794502D01*
X153815212Y-90797937D01*
X153806935Y-90794518D01*
X153806919Y-90794502D01*
X153631175Y-90618407D01*
X153319811Y-90306420D01*
X153316393Y-90298145D01*
X153316710Y-90295454D01*
X153432060Y-89810790D01*
X153437309Y-89803536D01*
X153443442Y-89801800D01*
X154186958Y-89801800D01*
X154195231Y-89805227D01*
G37*
%TD.AperFunction*%
%TD*%
%TA.AperFunction,Conductor*%
%TO.N,Net-(U3-BOOT)*%
G36*
X156286708Y-105661286D02*
G01*
X156293522Y-105667095D01*
X156294011Y-105668187D01*
X156408755Y-105964171D01*
X156408550Y-105973123D01*
X156403185Y-105978811D01*
X156067413Y-106151022D01*
X156062074Y-106152311D01*
X155827340Y-106152311D01*
X155819067Y-106148884D01*
X155815640Y-106140611D01*
X155816286Y-106136778D01*
X156008245Y-105583141D01*
X156014193Y-105576447D01*
X156022902Y-105575843D01*
X156286708Y-105661286D01*
G37*
%TD.AperFunction*%
%TD*%
%TA.AperFunction,Conductor*%
%TO.N,/VIN-*%
G36*
X162618891Y-91427525D02*
G01*
X162626772Y-91431775D01*
X162629400Y-91439164D01*
X162629400Y-91672035D01*
X162625973Y-91680308D01*
X162618890Y-91683674D01*
X162543805Y-91691349D01*
X162409578Y-91705070D01*
X162408996Y-91705100D01*
X162403559Y-91705100D01*
X162400932Y-91704801D01*
X162294633Y-91680308D01*
X161802879Y-91567000D01*
X161795588Y-91561804D01*
X161794106Y-91552973D01*
X161799303Y-91545681D01*
X161802880Y-91544199D01*
X162402512Y-91406034D01*
X162406327Y-91405797D01*
X162618891Y-91427525D01*
G37*
%TD.AperFunction*%
%TD*%
%TA.AperFunction,Conductor*%
%TO.N,Net-(C25-Pad2)*%
G36*
X151458939Y-107182285D02*
G01*
X151504694Y-107235089D01*
X151515900Y-107286599D01*
X151515900Y-108102400D01*
X155608300Y-108102400D01*
X155675339Y-108122085D01*
X155721094Y-108174889D01*
X155732300Y-108226400D01*
X155732300Y-108995148D01*
X155712615Y-109062187D01*
X155659811Y-109107942D01*
X155609052Y-109119146D01*
X151541300Y-109143800D01*
X151541300Y-110035800D01*
X151521615Y-110102839D01*
X151468811Y-110148594D01*
X151417300Y-110159800D01*
X147652100Y-110159800D01*
X147585061Y-110140115D01*
X147539306Y-110087311D01*
X147528100Y-110035800D01*
X147528100Y-107286600D01*
X147547785Y-107219561D01*
X147600589Y-107173806D01*
X147652100Y-107162600D01*
X151391900Y-107162600D01*
X151458939Y-107182285D01*
G37*
%TD.AperFunction*%
%TD*%
%TA.AperFunction,Conductor*%
%TO.N,Net-(JP1-A)*%
G36*
X159034011Y-88605037D02*
G01*
X159466809Y-88795326D01*
X159473003Y-88801792D01*
X159473800Y-88806036D01*
X159473800Y-89197163D01*
X159470373Y-89205436D01*
X159466809Y-89207873D01*
X159034014Y-89398161D01*
X159025061Y-89398354D01*
X159020537Y-89395198D01*
X158972967Y-89341355D01*
X158679643Y-89009346D01*
X158676734Y-89000878D01*
X158679644Y-88993853D01*
X158845577Y-88806036D01*
X159020538Y-88608000D01*
X159028583Y-88604070D01*
X159034011Y-88605037D01*
G37*
%TD.AperFunction*%
%TD*%
%TA.AperFunction,Conductor*%
%TO.N,/+3V3*%
G36*
X158056907Y-90926187D02*
G01*
X158289004Y-90985593D01*
X158296169Y-90990965D01*
X158297438Y-90999829D01*
X158294376Y-91005201D01*
X158131344Y-91168233D01*
X158126513Y-91171142D01*
X158036009Y-91198996D01*
X158030125Y-91199255D01*
X157884763Y-91168233D01*
X157411203Y-91067166D01*
X157403827Y-91062088D01*
X157402203Y-91053282D01*
X157407281Y-91045906D01*
X157411517Y-91044219D01*
X158051884Y-90926017D01*
X158056907Y-90926187D01*
G37*
%TD.AperFunction*%
%TD*%
%TA.AperFunction,Conductor*%
%TO.N,Net-(U3-FB)*%
G36*
X159131819Y-112697427D02*
G01*
X159135055Y-112703596D01*
X159208654Y-113106098D01*
X159206771Y-113114852D01*
X159203243Y-113118187D01*
X158936198Y-113281275D01*
X158927351Y-113282663D01*
X158924002Y-113281275D01*
X158656956Y-113118187D01*
X158651681Y-113110951D01*
X158651545Y-113106097D01*
X158725145Y-112703595D01*
X158730004Y-112696074D01*
X158736654Y-112694000D01*
X159123546Y-112694000D01*
X159131819Y-112697427D01*
G37*
%TD.AperFunction*%
%TD*%
%TA.AperFunction,Conductor*%
%TO.N,/VIN+*%
G36*
X151390771Y-86917041D02*
G01*
X151662426Y-87188696D01*
X151665374Y-87193655D01*
X151670700Y-87211687D01*
X151670954Y-87217283D01*
X151661500Y-87264816D01*
X151661500Y-87358478D01*
X151660888Y-87362214D01*
X151463882Y-87946939D01*
X151457993Y-87953685D01*
X151449058Y-87954291D01*
X151442312Y-87948402D01*
X151441464Y-87946124D01*
X151265330Y-87261851D01*
X151265509Y-87255397D01*
X151277600Y-87217283D01*
X151371346Y-86921774D01*
X151377114Y-86914926D01*
X151386036Y-86914162D01*
X151390771Y-86917041D01*
G37*
%TD.AperFunction*%
%TD*%
%TA.AperFunction,Conductor*%
%TO.N,/TI Buck Converter 2/V5*%
G36*
X161078442Y-104479665D02*
G01*
X161082674Y-104484887D01*
X161345196Y-105124044D01*
X161345169Y-105132999D01*
X161342646Y-105136762D01*
X161174370Y-105305038D01*
X161166097Y-105308465D01*
X161161109Y-105307349D01*
X160772139Y-105124044D01*
X160448432Y-104971494D01*
X160442410Y-104964868D01*
X160442601Y-104956459D01*
X160600929Y-104571904D01*
X160607247Y-104565560D01*
X160609567Y-104564865D01*
X161069679Y-104477836D01*
X161078442Y-104479665D01*
G37*
%TD.AperFunction*%
%TD*%
%TA.AperFunction,Conductor*%
%TO.N,/+5V*%
G36*
X175151201Y-94067143D02*
G01*
X175659534Y-94243471D01*
X175666228Y-94249420D01*
X175667400Y-94254525D01*
X175667400Y-94644274D01*
X175663973Y-94652547D01*
X175659534Y-94655328D01*
X175151202Y-94831655D01*
X175142263Y-94831129D01*
X175138741Y-94828505D01*
X174798641Y-94457303D01*
X174795579Y-94448888D01*
X174798639Y-94441498D01*
X175138742Y-94070293D01*
X175146857Y-94066509D01*
X175151201Y-94067143D01*
G37*
%TD.AperFunction*%
%TD*%
%TA.AperFunction,Conductor*%
%TO.N,Net-(U3-FB)*%
G36*
X159087780Y-111785309D02*
G01*
X159092281Y-111793051D01*
X159092374Y-111794087D01*
X159132750Y-112691356D01*
X159129699Y-112699775D01*
X159121588Y-112703570D01*
X159121062Y-112703582D01*
X158732605Y-112703582D01*
X158724332Y-112700155D01*
X158723386Y-112699086D01*
X158405929Y-112292870D01*
X158403535Y-112284242D01*
X158405314Y-112279328D01*
X158688877Y-111839731D01*
X158696240Y-111834637D01*
X158697126Y-111834482D01*
X159079125Y-111783018D01*
X159087780Y-111785309D01*
G37*
%TD.AperFunction*%
%TD*%
%TA.AperFunction,Conductor*%
%TO.N,Net-(U3-FB)*%
G36*
X158188838Y-111042325D02*
G01*
X158774931Y-111357142D01*
X158780598Y-111364076D01*
X158780891Y-111369623D01*
X158693685Y-111830676D01*
X158688780Y-111838169D01*
X158686643Y-111839321D01*
X158301188Y-111998019D01*
X158292234Y-111998000D01*
X158286650Y-111993134D01*
X157898404Y-111333383D01*
X157897162Y-111324515D01*
X157900213Y-111319178D01*
X158175032Y-111044359D01*
X158183304Y-111040933D01*
X158188838Y-111042325D01*
G37*
%TD.AperFunction*%
%TD*%
%TA.AperFunction,Conductor*%
%TO.N,Net-(U3-MODE)*%
G36*
X160258438Y-105838441D02*
G01*
X160597808Y-106208846D01*
X160600870Y-106217261D01*
X160597808Y-106224654D01*
X160258438Y-106595058D01*
X160250322Y-106598843D01*
X160244642Y-106597650D01*
X160239378Y-106595058D01*
X159735581Y-106346966D01*
X159729673Y-106340237D01*
X159729050Y-106336470D01*
X159729050Y-106097029D01*
X159732477Y-106088756D01*
X159735577Y-106086535D01*
X160244644Y-105835848D01*
X160253578Y-105835268D01*
X160258438Y-105838441D01*
G37*
%TD.AperFunction*%
%TD*%
%TA.AperFunction,Conductor*%
%TO.N,Net-(U2-BOOT)*%
G36*
X170022619Y-96009328D02*
G01*
X170027661Y-96013509D01*
X170201354Y-96270331D01*
X170203362Y-96276885D01*
X170203362Y-96661333D01*
X170199935Y-96669606D01*
X170191662Y-96673033D01*
X170186717Y-96671937D01*
X169758530Y-96472262D01*
X169631759Y-96413145D01*
X169625711Y-96406543D01*
X169625554Y-96399001D01*
X169709719Y-96134090D01*
X169715489Y-96127245D01*
X169716555Y-96126759D01*
X170013666Y-96009186D01*
X170022619Y-96009328D01*
G37*
%TD.AperFunction*%
%TD*%
%TA.AperFunction,Conductor*%
%TO.N,Net-(C9-Pad2)*%
G36*
X169711143Y-94263951D02*
G01*
X170065823Y-94409904D01*
X170069659Y-94412465D01*
X170341902Y-94685670D01*
X170345314Y-94693950D01*
X170341873Y-94702217D01*
X170341190Y-94702845D01*
X169918876Y-95061723D01*
X169911300Y-95064507D01*
X169523966Y-95064507D01*
X169515693Y-95061080D01*
X169512266Y-95052807D01*
X169512576Y-95050132D01*
X169594141Y-94702845D01*
X169695307Y-94272096D01*
X169700535Y-94264827D01*
X169709372Y-94263383D01*
X169711143Y-94263951D01*
G37*
%TD.AperFunction*%
%TD*%
%TA.AperFunction,Conductor*%
%TO.N,/+5V*%
G36*
X175839660Y-94027515D02*
G01*
X176134806Y-94178153D01*
X176140617Y-94184966D01*
X176140861Y-94185830D01*
X176204612Y-94450067D01*
X176203221Y-94458913D01*
X176196846Y-94463941D01*
X175630265Y-94647636D01*
X175621339Y-94646927D01*
X175615527Y-94640114D01*
X175614957Y-94636506D01*
X175614957Y-94250959D01*
X175618279Y-94242791D01*
X175825965Y-94029767D01*
X175834193Y-94026237D01*
X175839660Y-94027515D01*
G37*
%TD.AperFunction*%
%TD*%
%TA.AperFunction,Conductor*%
%TO.N,Net-(U3-PGOOD)*%
G36*
X161265270Y-108782750D02*
G01*
X162104941Y-108876498D01*
X162112782Y-108880822D01*
X162115270Y-108889424D01*
X162115054Y-108890708D01*
X162028722Y-109272323D01*
X162023554Y-109279636D01*
X162022209Y-109280366D01*
X161564146Y-109491592D01*
X161555199Y-109491944D01*
X161549470Y-109487394D01*
X161254199Y-109038225D01*
X161252276Y-109031798D01*
X161252276Y-108794379D01*
X161255703Y-108786106D01*
X161263976Y-108782679D01*
X161265270Y-108782750D01*
G37*
%TD.AperFunction*%
%TD*%
%TA.AperFunction,Conductor*%
%TO.N,/+3V3*%
G36*
X163311670Y-93518590D02*
G01*
X163678346Y-93886338D01*
X163681727Y-93893712D01*
X163714741Y-94327729D01*
X163711952Y-94336238D01*
X163703962Y-94340282D01*
X163703958Y-94340283D01*
X162767983Y-94411147D01*
X162759475Y-94408354D01*
X162755433Y-94400363D01*
X162755400Y-94399480D01*
X162755400Y-93658867D01*
X162758827Y-93650594D01*
X162763813Y-93647638D01*
X162789053Y-93640255D01*
X162793854Y-93639885D01*
X162918400Y-93656282D01*
X163075162Y-93635644D01*
X163170722Y-93596061D01*
X163221232Y-93575140D01*
X163221233Y-93575139D01*
X163221241Y-93575136D01*
X163296265Y-93517568D01*
X163304912Y-93515251D01*
X163311670Y-93518590D01*
G37*
%TD.AperFunction*%
%TD*%
%TA.AperFunction,Conductor*%
%TO.N,Net-(U3-FB)*%
G36*
X159052011Y-111439637D02*
G01*
X159484809Y-111629926D01*
X159491003Y-111636392D01*
X159491800Y-111640636D01*
X159491800Y-112031763D01*
X159488373Y-112040036D01*
X159484809Y-112042473D01*
X159052014Y-112232761D01*
X159043061Y-112232954D01*
X159038537Y-112229798D01*
X158990967Y-112175955D01*
X158697643Y-111843946D01*
X158694734Y-111835478D01*
X158697644Y-111828453D01*
X158863577Y-111640636D01*
X159038538Y-111442600D01*
X159046583Y-111438670D01*
X159052011Y-111439637D01*
G37*
%TD.AperFunction*%
%TD*%
%TA.AperFunction,Conductor*%
%TO.N,Net-(U1-UV)*%
G36*
X149512514Y-92333415D02*
G01*
X149513062Y-92334737D01*
X149741093Y-92997165D01*
X149741622Y-93002560D01*
X149706585Y-93258487D01*
X149702068Y-93266219D01*
X149694993Y-93268600D01*
X149309007Y-93268600D01*
X149300734Y-93265173D01*
X149297415Y-93258487D01*
X149275691Y-93099807D01*
X149277555Y-93091723D01*
X149279196Y-93089268D01*
X149292500Y-93022383D01*
X149292499Y-92913148D01*
X149293134Y-92909353D01*
X149490938Y-92334734D01*
X149496869Y-92328030D01*
X149505807Y-92327482D01*
X149512514Y-92333415D01*
G37*
%TD.AperFunction*%
%TD*%
%TA.AperFunction,Conductor*%
%TO.N,/+3V3*%
G36*
X161107859Y-92406397D02*
G01*
X161705920Y-92544199D01*
X161713211Y-92549395D01*
X161714693Y-92558226D01*
X161709496Y-92565518D01*
X161705919Y-92567000D01*
X161106288Y-92705164D01*
X161102471Y-92705402D01*
X160889910Y-92683674D01*
X160882028Y-92679424D01*
X160879400Y-92672035D01*
X160879400Y-92439164D01*
X160882827Y-92430891D01*
X160889908Y-92427525D01*
X161099241Y-92406127D01*
X161099783Y-92406099D01*
X161105248Y-92406099D01*
X161107859Y-92406397D01*
G37*
%TD.AperFunction*%
%TD*%
%TA.AperFunction,Conductor*%
%TO.N,/TI Buck Converter 1/V5*%
G36*
X169791741Y-87999936D02*
G01*
X169795457Y-88004067D01*
X170110273Y-88590159D01*
X170111169Y-88599068D01*
X170108239Y-88603968D01*
X169833423Y-88878784D01*
X169825150Y-88882211D01*
X169819216Y-88880595D01*
X169159465Y-88492349D01*
X169154073Y-88485199D01*
X169154579Y-88477812D01*
X169313279Y-88092354D01*
X169319597Y-88086010D01*
X169321917Y-88085315D01*
X169782976Y-87998107D01*
X169791741Y-87999936D01*
G37*
%TD.AperFunction*%
%TD*%
%TA.AperFunction,Conductor*%
%TO.N,/+3V3*%
G36*
X157976197Y-113286723D02*
G01*
X158243243Y-113449812D01*
X158248518Y-113457048D01*
X158248654Y-113461901D01*
X158175055Y-113864404D01*
X158170196Y-113871926D01*
X158163546Y-113874000D01*
X157776654Y-113874000D01*
X157768381Y-113870573D01*
X157765145Y-113864405D01*
X157691545Y-113461902D01*
X157693428Y-113453147D01*
X157696953Y-113449814D01*
X157964002Y-113286723D01*
X157972849Y-113285336D01*
X157976197Y-113286723D01*
G37*
%TD.AperFunction*%
%TD*%
%TA.AperFunction,Conductor*%
%TO.N,Net-(U1-UV)*%
G36*
X149914855Y-92066629D02*
G01*
X149916187Y-92067770D01*
X150144675Y-92295310D01*
X150148119Y-92303576D01*
X150144709Y-92311856D01*
X150144675Y-92311890D01*
X149916187Y-92539429D01*
X149907907Y-92542839D01*
X149906158Y-92542704D01*
X149681927Y-92508322D01*
X149674269Y-92503681D01*
X149672000Y-92496757D01*
X149672000Y-92110442D01*
X149675427Y-92102169D01*
X149681924Y-92098878D01*
X149906159Y-92064495D01*
X149914855Y-92066629D01*
G37*
%TD.AperFunction*%
%TD*%
%TA.AperFunction,Conductor*%
%TO.N,Net-(JP1-A)*%
G36*
X158284090Y-88840151D02*
G01*
X158668644Y-88998479D01*
X158674989Y-89004797D01*
X158675685Y-89007123D01*
X158762713Y-89467227D01*
X158760884Y-89475992D01*
X158755662Y-89480224D01*
X158116505Y-89742746D01*
X158107550Y-89742719D01*
X158103787Y-89740196D01*
X157935511Y-89571920D01*
X157932084Y-89563647D01*
X157933199Y-89558661D01*
X158269056Y-88845980D01*
X158275681Y-88839960D01*
X158284090Y-88840151D01*
G37*
%TD.AperFunction*%
%TD*%
%TA.AperFunction,Conductor*%
%TO.N,Net-(C25-Pad2)*%
G36*
X157532537Y-105551503D02*
G01*
X157537423Y-105555326D01*
X157838667Y-105961209D01*
X157840846Y-105969894D01*
X157837545Y-105976454D01*
X157564362Y-106249637D01*
X157556089Y-106253064D01*
X157549238Y-106250848D01*
X157172599Y-105978752D01*
X157167901Y-105971130D01*
X157168169Y-105966173D01*
X157169532Y-105961208D01*
X157249772Y-105668834D01*
X157255265Y-105661764D01*
X157256602Y-105661112D01*
X157523584Y-105551476D01*
X157532537Y-105551503D01*
G37*
%TD.AperFunction*%
%TD*%
%TA.AperFunction,Conductor*%
%TO.N,/TI Buck Converter 2/V5*%
G36*
X161314178Y-107025022D02*
G01*
X162135393Y-107225032D01*
X162142620Y-107230320D01*
X162143992Y-107239169D01*
X162143831Y-107239760D01*
X162029167Y-107622221D01*
X162023509Y-107629162D01*
X162021800Y-107629913D01*
X161561268Y-107789944D01*
X161552329Y-107789422D01*
X161546905Y-107784007D01*
X161471999Y-107629913D01*
X161300895Y-107277921D01*
X161299718Y-107272806D01*
X161299718Y-107036391D01*
X161303145Y-107028118D01*
X161311418Y-107024691D01*
X161314178Y-107025022D01*
G37*
%TD.AperFunction*%
%TD*%
%TA.AperFunction,Conductor*%
%TO.N,/VIN-*%
G36*
X155572810Y-109366685D02*
G01*
X155618565Y-109419489D01*
X155629768Y-109471926D01*
X155626929Y-109852165D01*
X155624549Y-109875430D01*
X155610900Y-109944047D01*
X155610900Y-110226720D01*
X155610664Y-110232122D01*
X155610400Y-110235143D01*
X155610400Y-110957994D01*
X155610164Y-110963401D01*
X155606612Y-111003985D01*
X155607558Y-111014791D01*
X155605760Y-111014948D01*
X155605761Y-111064965D01*
X155604456Y-111069835D01*
X155583818Y-111226599D01*
X155583818Y-111226600D01*
X155604456Y-111383363D01*
X155605685Y-111386330D01*
X155615119Y-111434703D01*
X155605300Y-112750600D01*
X157259300Y-112750600D01*
X157326339Y-112770285D01*
X157372094Y-112823089D01*
X157383300Y-112874600D01*
X157383300Y-117978600D01*
X157363615Y-118045639D01*
X157310811Y-118091394D01*
X157259300Y-118102600D01*
X154459300Y-118102600D01*
X154392261Y-118082915D01*
X154346506Y-118030111D01*
X154335300Y-117978600D01*
X154335300Y-111452200D01*
X154354985Y-111385161D01*
X154407789Y-111339406D01*
X154459300Y-111328200D01*
X155097300Y-111328200D01*
X155097300Y-109471000D01*
X155116985Y-109403961D01*
X155169789Y-109358206D01*
X155221300Y-109347000D01*
X155505771Y-109347000D01*
X155572810Y-109366685D01*
G37*
%TD.AperFunction*%
%TD*%
%TA.AperFunction,Conductor*%
%TO.N,/VIN-*%
G36*
X162618891Y-90927525D02*
G01*
X162626772Y-90931775D01*
X162629400Y-90939164D01*
X162629400Y-91172035D01*
X162625973Y-91180308D01*
X162618890Y-91183674D01*
X162406328Y-91205402D01*
X162402511Y-91205164D01*
X161802880Y-91067000D01*
X161795588Y-91061803D01*
X161794106Y-91052972D01*
X161799303Y-91045680D01*
X161802874Y-91044200D01*
X162384048Y-90910289D01*
X162387330Y-90910010D01*
X162397710Y-90910599D01*
X162397727Y-90910599D01*
X162397735Y-90910600D01*
X162397740Y-90910600D01*
X162411638Y-90910600D01*
X162411642Y-90910600D01*
X162416932Y-90910464D01*
X162421546Y-90910225D01*
X162422667Y-90910168D01*
X162422696Y-90910166D01*
X162422741Y-90910164D01*
X162427901Y-90909768D01*
X162427946Y-90909763D01*
X162427951Y-90909763D01*
X162428643Y-90909692D01*
X162435356Y-90909006D01*
X162437720Y-90909006D01*
X162618891Y-90927525D01*
G37*
%TD.AperFunction*%
%TD*%
%TA.AperFunction,Conductor*%
%TO.N,Net-(D2-K)*%
G36*
X152347832Y-92064494D02*
G01*
X152572074Y-92098878D01*
X152579731Y-92103518D01*
X152582000Y-92110442D01*
X152582000Y-92496757D01*
X152578573Y-92505030D01*
X152572073Y-92508322D01*
X152347841Y-92542704D01*
X152339144Y-92540570D01*
X152337812Y-92539429D01*
X152243728Y-92445736D01*
X152109323Y-92311889D01*
X152105880Y-92303624D01*
X152109290Y-92295344D01*
X152337813Y-92067769D01*
X152346092Y-92064360D01*
X152347832Y-92064494D01*
G37*
%TD.AperFunction*%
%TD*%
%TA.AperFunction,Conductor*%
%TO.N,Net-(U3-SS)*%
G36*
X157985763Y-109557635D02*
G01*
X158393290Y-109814434D01*
X158398462Y-109821744D01*
X158398135Y-109828083D01*
X158297767Y-110124705D01*
X158291869Y-110131443D01*
X158290639Y-110131966D01*
X158025561Y-110227180D01*
X158016617Y-110226752D01*
X158010878Y-110220838D01*
X157972202Y-110131966D01*
X157801434Y-109739565D01*
X157801276Y-109730614D01*
X157803888Y-109726628D01*
X157971255Y-109559261D01*
X157979527Y-109555835D01*
X157985763Y-109557635D01*
G37*
%TD.AperFunction*%
%TD*%
%TA.AperFunction,Conductor*%
%TO.N,Net-(D1-K)*%
G36*
X153071898Y-93049382D02*
G01*
X153797506Y-93392949D01*
X153803517Y-93399586D01*
X153803074Y-93408530D01*
X153798983Y-93413262D01*
X153068560Y-93899562D01*
X153061173Y-93901488D01*
X152575997Y-93863935D01*
X152568013Y-93859880D01*
X152565200Y-93852270D01*
X152565200Y-93462232D01*
X152568627Y-93453959D01*
X152569470Y-93453194D01*
X153059470Y-93050914D01*
X153068038Y-93048314D01*
X153071898Y-93049382D01*
G37*
%TD.AperFunction*%
%TD*%
%TA.AperFunction,Conductor*%
%TO.N,Net-(C9-Pad2)*%
G36*
X173018639Y-96793685D02*
G01*
X173064394Y-96846489D01*
X173075600Y-96897999D01*
X173075600Y-100609400D01*
X175136000Y-100609400D01*
X175203039Y-100629085D01*
X175248794Y-100681889D01*
X175260000Y-100733400D01*
X175260000Y-106048000D01*
X175240315Y-106115039D01*
X175187511Y-106160794D01*
X175136000Y-106172000D01*
X169923000Y-106172000D01*
X169855961Y-106152315D01*
X169810206Y-106099511D01*
X169799000Y-106048000D01*
X169799000Y-100733400D01*
X169818685Y-100666361D01*
X169871489Y-100620606D01*
X169923000Y-100609400D01*
X172059600Y-100609400D01*
X172059600Y-96898000D01*
X172079285Y-96830961D01*
X172132089Y-96785206D01*
X172183600Y-96774000D01*
X172951600Y-96774000D01*
X173018639Y-96793685D01*
G37*
%TD.AperFunction*%
%TD*%
%TA.AperFunction,Conductor*%
%TO.N,/+3V3*%
G36*
X157226948Y-88130027D02*
G01*
X157229729Y-88134466D01*
X157406055Y-88642797D01*
X157405529Y-88651736D01*
X157402905Y-88655258D01*
X157031704Y-88995358D01*
X157023289Y-88998420D01*
X157015896Y-88995358D01*
X156644694Y-88655258D01*
X156640909Y-88647142D01*
X156641544Y-88642797D01*
X156817871Y-88134466D01*
X156823820Y-88127772D01*
X156828925Y-88126600D01*
X157218675Y-88126600D01*
X157226948Y-88130027D01*
G37*
%TD.AperFunction*%
%TD*%
%TA.AperFunction,Conductor*%
%TO.N,/TI Buck Converter 1/V5*%
G36*
X171138485Y-93272525D02*
G01*
X171442729Y-93436124D01*
X171876547Y-93669400D01*
X171882211Y-93676336D01*
X171881824Y-93684161D01*
X171702185Y-94120183D01*
X171695865Y-94126527D01*
X171695111Y-94126811D01*
X171240894Y-94280241D01*
X171231960Y-94279642D01*
X171226065Y-94272900D01*
X171225450Y-94269156D01*
X171225450Y-94039632D01*
X171225449Y-94039631D01*
X171215792Y-94009908D01*
X171215365Y-94008130D01*
X171210477Y-93977268D01*
X171210477Y-93977267D01*
X171196284Y-93949412D01*
X171195593Y-93947743D01*
X171185933Y-93918012D01*
X171167566Y-93892731D01*
X171166607Y-93891166D01*
X171152420Y-93863324D01*
X170852435Y-93563339D01*
X170849008Y-93555066D01*
X170852434Y-93546794D01*
X171124672Y-93274556D01*
X171132944Y-93271130D01*
X171138485Y-93272525D01*
G37*
%TD.AperFunction*%
%TD*%
%TA.AperFunction,Conductor*%
%TO.N,/SDA*%
G36*
X156127987Y-91775230D02*
G01*
X156682610Y-91926251D01*
X156689692Y-91931731D01*
X156691236Y-91937540D01*
X156691236Y-92175331D01*
X156687809Y-92183604D01*
X156684719Y-92185820D01*
X156625811Y-92214926D01*
X156622911Y-92215912D01*
X156596904Y-92221085D01*
X156550547Y-92252059D01*
X156549888Y-92252440D01*
X156069455Y-92489826D01*
X156060520Y-92490419D01*
X156053783Y-92484520D01*
X156053473Y-92483839D01*
X155906075Y-92130299D01*
X155906055Y-92121350D01*
X156021618Y-91844165D01*
X156027965Y-91837848D01*
X156030130Y-91837194D01*
X156041831Y-91834867D01*
X156108152Y-91790552D01*
X156115190Y-91780018D01*
X156122632Y-91775045D01*
X156127987Y-91775230D01*
G37*
%TD.AperFunction*%
%TD*%
%TA.AperFunction,Conductor*%
%TO.N,Net-(C9-Pad2)*%
G36*
X169689295Y-94520832D02*
G01*
X169692301Y-94523006D01*
X169965925Y-94796630D01*
X169969011Y-94802099D01*
X170009745Y-94967130D01*
X170008401Y-94975984D01*
X170004745Y-94979755D01*
X169720282Y-95163945D01*
X169711475Y-95165565D01*
X169705037Y-95161734D01*
X169488581Y-94908922D01*
X169485803Y-94900409D01*
X169487019Y-94896050D01*
X169673583Y-94526010D01*
X169680365Y-94520167D01*
X169689295Y-94520832D01*
G37*
%TD.AperFunction*%
%TD*%
%TA.AperFunction,Conductor*%
%TO.N,Net-(JP1-A)*%
G36*
X159726779Y-88635829D02*
G01*
X159731626Y-88641400D01*
X159879923Y-88997098D01*
X159879944Y-89006052D01*
X159879923Y-89006102D01*
X159731626Y-89361799D01*
X159725279Y-89368117D01*
X159717913Y-89368628D01*
X159089586Y-89207059D01*
X159082427Y-89201680D01*
X159080800Y-89195728D01*
X159080800Y-88807471D01*
X159084227Y-88799198D01*
X159089583Y-88796141D01*
X159717914Y-88634571D01*
X159726779Y-88635829D01*
G37*
%TD.AperFunction*%
%TD*%
%TA.AperFunction,Conductor*%
%TO.N,Net-(C9-Pad2)*%
G36*
X170091000Y-101752400D02*
G01*
X170091000Y-102158800D01*
X169799000Y-102233885D01*
X169799000Y-102233884D01*
X169453886Y-102322628D01*
X169445020Y-102321370D01*
X169440174Y-102315800D01*
X169291875Y-101960099D01*
X169291855Y-101951150D01*
X169440174Y-101595398D01*
X169446520Y-101589082D01*
X169453884Y-101588571D01*
X170091000Y-101752400D01*
G37*
%TD.AperFunction*%
%TD*%
%TA.AperFunction,Conductor*%
%TO.N,/VIN-*%
G36*
X182518239Y-94939485D02*
G01*
X182563994Y-94992289D01*
X182575200Y-95043800D01*
X182575200Y-98047677D01*
X182555515Y-98114716D01*
X182502711Y-98160471D01*
X182451879Y-98171675D01*
X174890189Y-98213108D01*
X174823043Y-98193791D01*
X174777000Y-98141239D01*
X174767893Y-98113301D01*
X174760949Y-98078391D01*
X174760949Y-98030008D01*
X174772100Y-97973950D01*
X174772100Y-97584449D01*
X174772099Y-97584447D01*
X174760468Y-97525970D01*
X174760467Y-97525969D01*
X174716152Y-97459647D01*
X174649830Y-97415332D01*
X174649829Y-97415331D01*
X174591352Y-97403700D01*
X174591348Y-97403700D01*
X174123336Y-97403700D01*
X174082900Y-97393991D01*
X174082187Y-97396188D01*
X174072905Y-97393172D01*
X173946602Y-97373168D01*
X173946598Y-97373168D01*
X173820294Y-97393172D01*
X173811013Y-97396188D01*
X173810299Y-97393991D01*
X173769864Y-97403700D01*
X173428200Y-97403700D01*
X173361161Y-97384015D01*
X173315406Y-97331211D01*
X173304200Y-97279700D01*
X173304200Y-96974200D01*
X173323885Y-96907161D01*
X173376689Y-96861406D01*
X173428200Y-96850200D01*
X173779014Y-96850200D01*
X173831204Y-96865524D01*
X173832087Y-96863394D01*
X173843370Y-96868068D01*
X173901847Y-96879699D01*
X173901850Y-96879700D01*
X173901852Y-96879700D01*
X174181035Y-96879700D01*
X174185898Y-96879891D01*
X174189826Y-96880200D01*
X174189830Y-96880200D01*
X175103038Y-96880200D01*
X175103039Y-96880200D01*
X175124353Y-96873274D01*
X175143268Y-96868733D01*
X175165405Y-96865227D01*
X175167281Y-96864270D01*
X175168369Y-96863717D01*
X175224667Y-96850200D01*
X176834800Y-96850200D01*
X176834800Y-95043800D01*
X176854485Y-94976761D01*
X176907289Y-94931006D01*
X176958800Y-94919800D01*
X182451200Y-94919800D01*
X182518239Y-94939485D01*
G37*
%TD.AperFunction*%
%TD*%
%TA.AperFunction,Conductor*%
%TO.N,/SDA*%
G36*
X156127987Y-91775230D02*
G01*
X156682610Y-91926251D01*
X156689692Y-91931731D01*
X156691236Y-91937540D01*
X156691236Y-92175331D01*
X156687809Y-92183604D01*
X156684719Y-92185820D01*
X156625811Y-92214926D01*
X156622911Y-92215912D01*
X156596904Y-92221085D01*
X156550547Y-92252059D01*
X156549888Y-92252440D01*
X156069455Y-92489826D01*
X156060520Y-92490419D01*
X156053783Y-92484520D01*
X156053473Y-92483839D01*
X155906075Y-92130299D01*
X155906055Y-92121350D01*
X156021618Y-91844165D01*
X156027965Y-91837848D01*
X156030130Y-91837194D01*
X156041831Y-91834867D01*
X156108152Y-91790552D01*
X156115190Y-91780018D01*
X156122632Y-91775045D01*
X156127987Y-91775230D01*
G37*
%TD.AperFunction*%
%TD*%
%TA.AperFunction,Conductor*%
%TO.N,/TI Buck Converter 1/V5*%
G36*
X171707125Y-94128631D02*
G01*
X172150434Y-94430808D01*
X172155340Y-94438300D01*
X172155134Y-94443548D01*
X171999447Y-95015772D01*
X171993968Y-95022855D01*
X171988157Y-95024400D01*
X171603400Y-95024400D01*
X171595127Y-95020973D01*
X171591700Y-95012700D01*
X171591700Y-94911712D01*
X171591699Y-94911711D01*
X171582042Y-94881988D01*
X171581615Y-94880210D01*
X171580377Y-94872396D01*
X171576727Y-94849347D01*
X171562534Y-94821492D01*
X171561843Y-94819823D01*
X171552183Y-94790092D01*
X171533816Y-94764811D01*
X171532857Y-94763246D01*
X171527256Y-94752255D01*
X171518671Y-94735405D01*
X171428247Y-94644981D01*
X171402679Y-94619413D01*
X171295235Y-94511968D01*
X171291808Y-94503695D01*
X171295235Y-94495422D01*
X171295551Y-94495118D01*
X171692615Y-94129690D01*
X171701021Y-94126610D01*
X171707125Y-94128631D01*
G37*
%TD.AperFunction*%
%TD*%
%TA.AperFunction,Conductor*%
%TO.N,/SDA*%
G36*
X156707859Y-91906397D02*
G01*
X157305920Y-92044199D01*
X157313211Y-92049395D01*
X157314693Y-92058226D01*
X157309496Y-92065518D01*
X157305919Y-92067000D01*
X156707863Y-92204801D01*
X156705236Y-92205100D01*
X156699813Y-92205100D01*
X156699218Y-92205070D01*
X156489910Y-92183674D01*
X156482028Y-92179424D01*
X156479400Y-92172035D01*
X156479400Y-91939164D01*
X156482827Y-91930891D01*
X156489908Y-91927525D01*
X156699241Y-91906127D01*
X156699783Y-91906099D01*
X156705248Y-91906099D01*
X156707859Y-91906397D01*
G37*
%TD.AperFunction*%
%TD*%
%TA.AperFunction,Conductor*%
%TO.N,Net-(U1-UV)*%
G36*
X149696437Y-93349263D02*
G01*
X149699864Y-93357536D01*
X149699084Y-93361736D01*
X149356862Y-94251472D01*
X149350694Y-94257964D01*
X149342109Y-94258326D01*
X148907757Y-94107718D01*
X148901063Y-94101770D01*
X148900786Y-94101153D01*
X148709273Y-93640251D01*
X148709263Y-93631297D01*
X148715024Y-93625209D01*
X149296405Y-93346981D01*
X149301456Y-93345836D01*
X149688164Y-93345836D01*
X149696437Y-93349263D01*
G37*
%TD.AperFunction*%
%TD*%
%TA.AperFunction,Conductor*%
%TO.N,Net-(JP1-A)*%
G36*
X157323616Y-90197726D02*
G01*
X157490417Y-90364527D01*
X157522058Y-90396631D01*
X157525425Y-90404929D01*
X157521938Y-90413177D01*
X157521305Y-90413757D01*
X157362648Y-90548690D01*
X157354126Y-90551439D01*
X157346155Y-90547357D01*
X157346119Y-90547314D01*
X157268370Y-90455009D01*
X157231189Y-90410866D01*
X157228482Y-90402332D01*
X157229204Y-90399170D01*
X157304410Y-90201831D01*
X157310558Y-90195322D01*
X157319510Y-90195066D01*
X157323616Y-90197726D01*
G37*
%TD.AperFunction*%
%TD*%
%TA.AperFunction,Conductor*%
%TO.N,Net-(U2-MODE)*%
G36*
X169781341Y-91188136D02*
G01*
X169785057Y-91192267D01*
X170099873Y-91778359D01*
X170100769Y-91787268D01*
X170097839Y-91792168D01*
X169823023Y-92066984D01*
X169814750Y-92070411D01*
X169808816Y-92068795D01*
X169149065Y-91680549D01*
X169143673Y-91673399D01*
X169144179Y-91666012D01*
X169302879Y-91280554D01*
X169309197Y-91274210D01*
X169311517Y-91273515D01*
X169772576Y-91186307D01*
X169781341Y-91188136D01*
G37*
%TD.AperFunction*%
%TD*%
%TA.AperFunction,Conductor*%
%TO.N,/+3V3*%
G36*
X158067316Y-112584127D02*
G01*
X158070085Y-112588532D01*
X158228319Y-113040301D01*
X158227820Y-113049242D01*
X158225160Y-113052815D01*
X157978332Y-113277846D01*
X157969909Y-113280888D01*
X157962974Y-113278201D01*
X157707159Y-113065741D01*
X157702984Y-113057819D01*
X157703678Y-113052636D01*
X157775676Y-112860701D01*
X157778355Y-112856542D01*
X158050771Y-112584126D01*
X158059043Y-112580700D01*
X158067316Y-112584127D01*
G37*
%TD.AperFunction*%
%TD*%
%TA.AperFunction,Conductor*%
%TO.N,/TI Buck Converter 2/V5*%
G36*
X158872441Y-107390165D02*
G01*
X158873440Y-107391056D01*
X159042381Y-107559997D01*
X159045808Y-107568270D01*
X159043949Y-107574598D01*
X158646641Y-108192517D01*
X158639284Y-108197622D01*
X158631103Y-108196408D01*
X158195177Y-107953401D01*
X158189620Y-107946380D01*
X158189360Y-107945259D01*
X158121359Y-107568270D01*
X158107200Y-107489775D01*
X158109104Y-107481027D01*
X158116637Y-107476186D01*
X158118714Y-107476000D01*
X158571206Y-107476000D01*
X158571700Y-107476021D01*
X158603576Y-107478810D01*
X158614735Y-107479787D01*
X158614736Y-107479787D01*
X158614736Y-107479786D01*
X158614738Y-107479787D01*
X158656476Y-107468602D01*
X158656930Y-107468501D01*
X158686724Y-107463248D01*
X158699490Y-107460998D01*
X158699491Y-107460997D01*
X158699493Y-107460997D01*
X158710837Y-107454446D01*
X158713646Y-107453283D01*
X158724369Y-107450410D01*
X158726294Y-107449895D01*
X158726294Y-107449894D01*
X158726297Y-107449894D01*
X158761681Y-107425116D01*
X158762087Y-107424857D01*
X158799514Y-107403250D01*
X158804087Y-107397799D01*
X158811710Y-107393698D01*
X158863832Y-107387706D01*
X158872441Y-107390165D01*
G37*
%TD.AperFunction*%
%TD*%
%TA.AperFunction,Conductor*%
%TO.N,Net-(U2-FB)*%
G36*
X174830712Y-92002827D02*
G01*
X174831712Y-92003965D01*
X175145561Y-92411865D01*
X175147890Y-92420512D01*
X175144797Y-92427031D01*
X174799377Y-92793006D01*
X174791206Y-92796670D01*
X174784104Y-92794522D01*
X174362332Y-92495694D01*
X174357563Y-92488115D01*
X174358417Y-92481366D01*
X174571102Y-92006319D01*
X174577611Y-92000168D01*
X174581781Y-91999400D01*
X174822439Y-91999400D01*
X174830712Y-92002827D01*
G37*
%TD.AperFunction*%
%TD*%
%TA.AperFunction,Conductor*%
%TO.N,Net-(U2-PGOOD)*%
G36*
X172729206Y-89441483D02*
G01*
X172729634Y-89441977D01*
X173015909Y-89791978D01*
X173057669Y-89843033D01*
X173060255Y-89851607D01*
X173058266Y-89857053D01*
X172752585Y-90303312D01*
X172745082Y-90308201D01*
X172742932Y-90308400D01*
X172503788Y-90308400D01*
X172495515Y-90304973D01*
X172492588Y-90300082D01*
X172339150Y-89791977D01*
X172340038Y-89783068D01*
X172342446Y-89779969D01*
X172712675Y-89440760D01*
X172721090Y-89437698D01*
X172729206Y-89441483D01*
G37*
%TD.AperFunction*%
%TD*%
%TA.AperFunction,Conductor*%
%TO.N,Net-(Q1-G)*%
G36*
X149703266Y-87022027D02*
G01*
X149706585Y-87028713D01*
X149728308Y-87187389D01*
X149726445Y-87195475D01*
X149724804Y-87197931D01*
X149711500Y-87264817D01*
X149711500Y-87374044D01*
X149710863Y-87377852D01*
X149513063Y-87952461D01*
X149507130Y-87959168D01*
X149498192Y-87959716D01*
X149491485Y-87953783D01*
X149490937Y-87952461D01*
X149293136Y-87377849D01*
X149292499Y-87374041D01*
X149292499Y-87264817D01*
X149279196Y-87197932D01*
X149277554Y-87195474D01*
X149275691Y-87187391D01*
X149297415Y-87028711D01*
X149301933Y-87020981D01*
X149309007Y-87018600D01*
X149694993Y-87018600D01*
X149703266Y-87022027D01*
G37*
%TD.AperFunction*%
%TD*%
%TA.AperFunction,Conductor*%
%TO.N,/TI Buck Converter 1/V5*%
G36*
X170871445Y-88961928D02*
G01*
X170875370Y-88966862D01*
X171068761Y-89425230D01*
X171068819Y-89434184D01*
X171064512Y-89439485D01*
X170679539Y-89698497D01*
X170670762Y-89700272D01*
X170665000Y-89697320D01*
X170251382Y-89309011D01*
X170247696Y-89300850D01*
X170250860Y-89292473D01*
X170251084Y-89292241D01*
X170527271Y-89016054D01*
X170533681Y-89012778D01*
X170862732Y-88959858D01*
X170871445Y-88961928D01*
G37*
%TD.AperFunction*%
%TD*%
%TA.AperFunction,Conductor*%
%TO.N,Net-(C25-Pad2)*%
G36*
X150725415Y-106204981D02*
G01*
X151081795Y-106351636D01*
X151088142Y-106357954D01*
X151088163Y-106358004D01*
X151234817Y-106714382D01*
X151234796Y-106723336D01*
X151229949Y-106728907D01*
X150671408Y-107058953D01*
X150662542Y-107060211D01*
X150657183Y-107057153D01*
X150382646Y-106782616D01*
X150379219Y-106774343D01*
X150380846Y-106768391D01*
X150412760Y-106714382D01*
X150710894Y-106209847D01*
X150718051Y-106204471D01*
X150725415Y-106204981D01*
G37*
%TD.AperFunction*%
%TD*%
%TA.AperFunction,Conductor*%
%TO.N,Net-(U2-FB)*%
G36*
X174799331Y-92807848D02*
G01*
X175059588Y-93190631D01*
X175061406Y-93199399D01*
X175057410Y-93206192D01*
X174620721Y-93570641D01*
X174612173Y-93573311D01*
X174604951Y-93569931D01*
X174434947Y-93399927D01*
X174432049Y-93395133D01*
X174335354Y-93084701D01*
X174336166Y-93075785D01*
X174340487Y-93071202D01*
X174783623Y-92804402D01*
X174792476Y-92803071D01*
X174799331Y-92807848D01*
G37*
%TD.AperFunction*%
%TD*%
%TA.AperFunction,Conductor*%
%TO.N,Net-(D1-K)*%
G36*
X151462868Y-92338046D02*
G01*
X151463882Y-92340260D01*
X151660888Y-92924986D01*
X151661500Y-92928722D01*
X151661500Y-93022382D01*
X151670954Y-93069914D01*
X151670700Y-93075510D01*
X151665374Y-93093544D01*
X151662426Y-93098503D01*
X151390771Y-93370158D01*
X151382498Y-93373585D01*
X151374225Y-93370158D01*
X151371346Y-93365423D01*
X151265509Y-93031802D01*
X151265330Y-93025347D01*
X151441464Y-92341077D01*
X151446844Y-92333922D01*
X151455711Y-92332665D01*
X151462868Y-92338046D01*
G37*
%TD.AperFunction*%
%TD*%
%TA.AperFunction,Conductor*%
%TO.N,Net-(U2-FB)*%
G36*
X175694760Y-92680246D02*
G01*
X176238290Y-92935955D01*
X176244317Y-92942578D01*
X176244218Y-92950772D01*
X176141652Y-93215306D01*
X176135466Y-93221780D01*
X176134169Y-93222263D01*
X175839013Y-93312657D01*
X175830099Y-93311803D01*
X175824674Y-93305688D01*
X175678870Y-92928436D01*
X175678083Y-92924218D01*
X175678083Y-92690834D01*
X175681510Y-92682561D01*
X175689783Y-92679134D01*
X175694760Y-92680246D01*
G37*
%TD.AperFunction*%
%TD*%
%TA.AperFunction,Conductor*%
%TO.N,Net-(U2-MODE)*%
G36*
X169324147Y-89743044D02*
G01*
X169709998Y-90083937D01*
X169713929Y-90091983D01*
X169712961Y-90097414D01*
X169522674Y-90530209D01*
X169516208Y-90536403D01*
X169511964Y-90537200D01*
X169120836Y-90537200D01*
X169112563Y-90533773D01*
X169110126Y-90530209D01*
X168919837Y-90097412D01*
X168919645Y-90088461D01*
X168922799Y-90083939D01*
X169308653Y-89743043D01*
X169317122Y-89740134D01*
X169324147Y-89743044D01*
G37*
%TD.AperFunction*%
%TD*%
%TA.AperFunction,Conductor*%
%TO.N,Net-(U2-FB)*%
G36*
X174709102Y-91319240D02*
G01*
X175048181Y-91629909D01*
X175079508Y-91658611D01*
X175083293Y-91666727D01*
X175082100Y-91672407D01*
X174831416Y-92181469D01*
X174824687Y-92187377D01*
X174820920Y-92188000D01*
X174581480Y-92188000D01*
X174573207Y-92184573D01*
X174570984Y-92181469D01*
X174516031Y-92069877D01*
X174320298Y-91672405D01*
X174319718Y-91663471D01*
X174322889Y-91658613D01*
X174693297Y-91319240D01*
X174701711Y-91316179D01*
X174709102Y-91319240D01*
G37*
%TD.AperFunction*%
%TD*%
%TA.AperFunction,Conductor*%
%TO.N,/+5V*%
G36*
X176719006Y-93975645D02*
G01*
X176726526Y-93980504D01*
X176728600Y-93987154D01*
X176728600Y-94374045D01*
X176725173Y-94382318D01*
X176719005Y-94385554D01*
X176316502Y-94459154D01*
X176307747Y-94457271D01*
X176304412Y-94453743D01*
X176255739Y-94374045D01*
X176141323Y-94186697D01*
X176139936Y-94177851D01*
X176141324Y-94174502D01*
X176259801Y-93980504D01*
X176304413Y-93907454D01*
X176311648Y-93902181D01*
X176316502Y-93902045D01*
X176719006Y-93975645D01*
G37*
%TD.AperFunction*%
%TD*%
%TA.AperFunction,Conductor*%
%TO.N,/SDA*%
G36*
X156707859Y-91906397D02*
G01*
X157305920Y-92044199D01*
X157313211Y-92049395D01*
X157314693Y-92058226D01*
X157309496Y-92065518D01*
X157305919Y-92067000D01*
X156707863Y-92204801D01*
X156705236Y-92205100D01*
X156699813Y-92205100D01*
X156699218Y-92205070D01*
X156489910Y-92183674D01*
X156482028Y-92179424D01*
X156479400Y-92172035D01*
X156479400Y-91939164D01*
X156482827Y-91930891D01*
X156489908Y-91927525D01*
X156699241Y-91906127D01*
X156699783Y-91906099D01*
X156705248Y-91906099D01*
X156707859Y-91906397D01*
G37*
%TD.AperFunction*%
%TD*%
%TA.AperFunction,Conductor*%
%TO.N,/+3V3*%
G36*
X157441365Y-111674398D02*
G01*
X157446949Y-111679264D01*
X157835195Y-112339016D01*
X157836437Y-112347884D01*
X157833384Y-112353223D01*
X157558568Y-112628039D01*
X157550295Y-112631466D01*
X157544759Y-112630073D01*
X156958668Y-112315257D01*
X156953001Y-112308323D01*
X156952708Y-112302776D01*
X157039914Y-111841721D01*
X157044819Y-111834230D01*
X157046947Y-111833082D01*
X157432412Y-111674379D01*
X157441365Y-111674398D01*
G37*
%TD.AperFunction*%
%TD*%
%TA.AperFunction,Conductor*%
%TO.N,Net-(U2-MODE)*%
G36*
X169520124Y-90478827D02*
G01*
X169522624Y-90482535D01*
X169707260Y-90918230D01*
X169707332Y-90927184D01*
X169704146Y-90931640D01*
X169313814Y-91269633D01*
X169305316Y-91272458D01*
X169298322Y-91269478D01*
X168916960Y-90925675D01*
X168913111Y-90917591D01*
X168914148Y-90912137D01*
X169110078Y-90482248D01*
X169116628Y-90476141D01*
X169120725Y-90475400D01*
X169511851Y-90475400D01*
X169520124Y-90478827D01*
G37*
%TD.AperFunction*%
%TD*%
%TA.AperFunction,Conductor*%
%TO.N,Net-(U2-SS)*%
G36*
X173336806Y-94662146D02*
G01*
X173548164Y-94836530D01*
X173594804Y-94875011D01*
X173599340Y-94878753D01*
X173603541Y-94886662D01*
X173602465Y-94892792D01*
X173451771Y-95210514D01*
X173445130Y-95216520D01*
X173441200Y-95217200D01*
X173202284Y-95217200D01*
X173194011Y-95213773D01*
X173191547Y-95210149D01*
X173050063Y-94883356D01*
X173049921Y-94874402D01*
X173053643Y-94869451D01*
X173322207Y-94661912D01*
X173330847Y-94659566D01*
X173336806Y-94662146D01*
G37*
%TD.AperFunction*%
%TD*%
%TA.AperFunction,Conductor*%
%TO.N,/VIN-*%
G36*
X148128543Y-93879345D02*
G01*
X148195540Y-93899158D01*
X148241193Y-93952050D01*
X148252300Y-94003344D01*
X148252300Y-94388493D01*
X148268079Y-94488121D01*
X148268080Y-94488124D01*
X148268081Y-94488126D01*
X148323725Y-94597333D01*
X148329273Y-94608221D01*
X148329276Y-94608225D01*
X148424574Y-94703523D01*
X148424578Y-94703526D01*
X148424580Y-94703528D01*
X148544674Y-94764719D01*
X148544676Y-94764719D01*
X148544678Y-94764720D01*
X148644307Y-94780500D01*
X148644312Y-94780500D01*
X149161293Y-94780500D01*
X149260921Y-94764720D01*
X149260921Y-94764719D01*
X149260926Y-94764719D01*
X149381020Y-94703528D01*
X149476328Y-94608220D01*
X149537519Y-94488126D01*
X149541510Y-94462928D01*
X149553300Y-94388493D01*
X149553300Y-94336213D01*
X149561565Y-94291700D01*
X149562565Y-94289100D01*
X149605003Y-94233595D01*
X149670713Y-94209845D01*
X149738831Y-94225391D01*
X149787731Y-94275297D01*
X149802300Y-94333613D01*
X149802300Y-94388493D01*
X149818079Y-94488121D01*
X149818080Y-94488124D01*
X149818081Y-94488126D01*
X149873725Y-94597333D01*
X149879273Y-94608221D01*
X149879276Y-94608225D01*
X149974574Y-94703523D01*
X149974578Y-94703526D01*
X149974580Y-94703528D01*
X150094674Y-94764719D01*
X150094676Y-94764719D01*
X150094678Y-94764720D01*
X150194307Y-94780500D01*
X150194312Y-94780500D01*
X150506019Y-94780500D01*
X150573058Y-94800185D01*
X150593700Y-94816819D01*
X150595547Y-94818666D01*
X150595551Y-94818669D01*
X150595553Y-94818671D01*
X150615524Y-94828846D01*
X150632107Y-94839009D01*
X150650239Y-94852182D01*
X150650242Y-94852184D01*
X150663159Y-94856380D01*
X150671547Y-94859106D01*
X150689522Y-94866550D01*
X150709495Y-94876727D01*
X150731633Y-94880233D01*
X150750534Y-94884770D01*
X150771861Y-94891700D01*
X150804030Y-94891700D01*
X151110190Y-94891700D01*
X151177229Y-94911385D01*
X151185676Y-94917324D01*
X151309757Y-95012535D01*
X151309758Y-95012535D01*
X151309759Y-95012536D01*
X151455838Y-95073044D01*
X151534218Y-95083363D01*
X151612599Y-95093682D01*
X151612600Y-95093682D01*
X151612601Y-95093682D01*
X151664853Y-95086802D01*
X151769362Y-95073044D01*
X151915441Y-95012536D01*
X152040882Y-94916282D01*
X152137136Y-94790841D01*
X152197644Y-94644762D01*
X152213527Y-94524119D01*
X152218282Y-94488001D01*
X152218282Y-94487998D01*
X152197644Y-94331239D01*
X152197642Y-94331234D01*
X152157803Y-94235052D01*
X152150334Y-94165583D01*
X152181609Y-94103104D01*
X152241698Y-94067452D01*
X152272364Y-94063600D01*
X152524461Y-94063600D01*
X152557965Y-94068212D01*
X152560139Y-94068822D01*
X153045311Y-94106375D01*
X153045312Y-94106374D01*
X153045315Y-94106375D01*
X153088286Y-94102544D01*
X153093786Y-94102300D01*
X154584950Y-94102300D01*
X154584951Y-94102299D01*
X154599768Y-94099352D01*
X154643429Y-94090668D01*
X154643429Y-94090667D01*
X154643431Y-94090667D01*
X154709752Y-94046352D01*
X154754067Y-93980031D01*
X154754067Y-93980026D01*
X154758688Y-93968875D01*
X154802529Y-93914472D01*
X154868823Y-93892407D01*
X154873447Y-93892328D01*
X160711026Y-93903565D01*
X160776424Y-93923168D01*
X160821882Y-93976228D01*
X160832800Y-94027105D01*
X160832800Y-94818200D01*
X168210205Y-94818200D01*
X168210334Y-94837061D01*
X168221274Y-94856933D01*
X168224200Y-94883710D01*
X168224200Y-95571563D01*
X168215566Y-95600965D01*
X168215771Y-95631038D01*
X168215772Y-95631038D01*
X162687000Y-95656400D01*
X162661971Y-99185413D01*
X162645332Y-99237750D01*
X154415309Y-99212504D01*
X154415308Y-99212503D01*
X154415293Y-99210479D01*
X154384096Y-99153665D01*
X154381200Y-99127021D01*
X154381200Y-98856799D01*
X141210376Y-98811538D01*
X141143404Y-98791623D01*
X141123121Y-98775220D01*
X140158782Y-97810881D01*
X140153692Y-97805117D01*
X140147401Y-97797035D01*
X140137289Y-97784043D01*
X140070935Y-97722960D01*
X140069110Y-97721209D01*
X140058792Y-97710891D01*
X140048498Y-97700596D01*
X140026257Y-97681759D01*
X140024335Y-97680062D01*
X139957993Y-97618990D01*
X139935645Y-97604389D01*
X139929480Y-97599792D01*
X139909101Y-97582532D01*
X139831630Y-97536368D01*
X139829456Y-97535012D01*
X139753975Y-97485698D01*
X139729524Y-97474973D01*
X139722687Y-97471454D01*
X139699751Y-97457787D01*
X139615717Y-97424996D01*
X139613411Y-97424041D01*
X139560780Y-97400956D01*
X139530807Y-97387808D01*
X139530799Y-97387806D01*
X139504926Y-97381254D01*
X139497607Y-97378909D01*
X139472725Y-97369201D01*
X139428058Y-97359835D01*
X139384484Y-97350698D01*
X139381989Y-97350120D01*
X139294563Y-97327982D01*
X139294565Y-97327982D01*
X139267946Y-97325777D01*
X139260341Y-97324669D01*
X139234212Y-97319191D01*
X139234207Y-97319190D01*
X139234209Y-97319190D01*
X139144147Y-97315465D01*
X139141592Y-97315307D01*
X139129436Y-97314300D01*
X139112524Y-97312899D01*
X139112522Y-97312899D01*
X139083367Y-97312899D01*
X139080808Y-97312846D01*
X139025325Y-97310551D01*
X138990723Y-97309120D01*
X138990722Y-97309120D01*
X138964219Y-97312423D01*
X138956550Y-97312899D01*
X138549774Y-97312899D01*
X138407728Y-97324669D01*
X138367731Y-97327983D01*
X138131492Y-97387807D01*
X137908318Y-97485700D01*
X137704306Y-97618989D01*
X137704302Y-97618992D01*
X137525006Y-97784046D01*
X137525003Y-97784049D01*
X137375328Y-97976351D01*
X137375322Y-97976360D01*
X137259342Y-98190674D01*
X137259336Y-98190688D01*
X137180210Y-98421172D01*
X137140099Y-98661549D01*
X137140099Y-98661550D01*
X137140099Y-98905248D01*
X137153469Y-98985372D01*
X137180210Y-99145625D01*
X137259336Y-99376109D01*
X137259342Y-99376123D01*
X137360357Y-99562783D01*
X137374952Y-99631111D01*
X137350289Y-99696483D01*
X137294199Y-99738144D01*
X137251302Y-99745800D01*
X134566200Y-99745800D01*
X134499161Y-99726115D01*
X134453406Y-99673311D01*
X134442200Y-99621800D01*
X134442200Y-93977239D01*
X134461885Y-93910200D01*
X134514689Y-93864445D01*
X134566438Y-93853239D01*
X148128543Y-93879345D01*
G37*
%TD.AperFunction*%
%TD*%
%TA.AperFunction,Conductor*%
%TO.N,GND*%
G36*
X180001351Y-80539159D02*
G01*
X180406905Y-80556865D01*
X180412257Y-80557334D01*
X180813381Y-80610143D01*
X180818697Y-80611081D01*
X181213680Y-80698647D01*
X181218892Y-80700043D01*
X181604745Y-80821702D01*
X181609826Y-80823551D01*
X181983612Y-80978378D01*
X181988482Y-80980649D01*
X182347350Y-81167464D01*
X182352028Y-81170166D01*
X182693241Y-81387542D01*
X182697669Y-81390643D01*
X182936336Y-81573778D01*
X183018634Y-81636927D01*
X183022779Y-81640406D01*
X183321051Y-81913722D01*
X183324877Y-81917548D01*
X183598193Y-82215820D01*
X183601672Y-82219965D01*
X183847953Y-82540925D01*
X183851057Y-82545358D01*
X184068433Y-82886571D01*
X184071139Y-82891257D01*
X184257941Y-83250099D01*
X184260228Y-83255003D01*
X184415048Y-83628774D01*
X184416899Y-83633859D01*
X184538552Y-84019692D01*
X184539952Y-84024919D01*
X184627518Y-84419902D01*
X184628458Y-84425231D01*
X184681263Y-84826324D01*
X184681735Y-84831715D01*
X184699441Y-85237248D01*
X184699500Y-85239952D01*
X184699500Y-112080147D01*
X184679815Y-112147186D01*
X184627011Y-112192941D01*
X184557853Y-112202885D01*
X184494297Y-112173860D01*
X184465018Y-112136447D01*
X184463385Y-112133243D01*
X184450209Y-112115107D01*
X184440046Y-112098524D01*
X184429871Y-112078553D01*
X184339447Y-111988129D01*
X183624818Y-111273500D01*
X183591334Y-111212178D01*
X183588500Y-111185820D01*
X183588500Y-94728863D01*
X183588500Y-94728861D01*
X183581570Y-94707534D01*
X183577033Y-94688633D01*
X183573527Y-94666495D01*
X183563350Y-94646522D01*
X183555905Y-94628545D01*
X183548984Y-94607242D01*
X183548982Y-94607239D01*
X183548224Y-94606196D01*
X183538648Y-94593015D01*
X183535809Y-94589107D01*
X183525646Y-94572524D01*
X183515471Y-94552553D01*
X183442486Y-94479568D01*
X183442485Y-94479566D01*
X183296532Y-94333613D01*
X182835594Y-93872676D01*
X182812847Y-93849929D01*
X182812846Y-93849928D01*
X182812845Y-93849927D01*
X182792876Y-93839752D01*
X182776292Y-93829589D01*
X182758162Y-93816417D01*
X182758157Y-93816415D01*
X182736840Y-93809488D01*
X182718873Y-93802046D01*
X182698906Y-93791873D01*
X182683723Y-93789468D01*
X182676764Y-93788365D01*
X182657856Y-93783825D01*
X182636539Y-93776900D01*
X182636538Y-93776900D01*
X178530822Y-93776900D01*
X178463783Y-93757215D01*
X178418028Y-93704411D01*
X178406825Y-93651971D01*
X178434217Y-89995049D01*
X173431412Y-89962599D01*
X173364501Y-89942480D01*
X173319090Y-89889381D01*
X173309595Y-89820159D01*
X173309743Y-89819204D01*
X173322299Y-89739924D01*
X173322299Y-89739923D01*
X173322300Y-89739919D01*
X173322299Y-89126882D01*
X173307446Y-89033096D01*
X173249850Y-88920058D01*
X173249846Y-88920054D01*
X173249845Y-88920052D01*
X173160147Y-88830354D01*
X173160144Y-88830352D01*
X173160142Y-88830350D01*
X173083317Y-88791205D01*
X173047101Y-88772752D01*
X172953324Y-88757900D01*
X172490282Y-88757900D01*
X172409319Y-88770723D01*
X172396496Y-88772754D01*
X172283458Y-88830350D01*
X172283457Y-88830350D01*
X172283457Y-88830351D01*
X172283452Y-88830354D01*
X172193754Y-88920052D01*
X172193751Y-88920057D01*
X172193750Y-88920058D01*
X172179620Y-88947789D01*
X172136152Y-89033098D01*
X172121300Y-89126875D01*
X172121300Y-89739917D01*
X172128405Y-89784772D01*
X172131880Y-89806719D01*
X172132397Y-89809979D01*
X172123441Y-89879273D01*
X172078444Y-89932724D01*
X172011692Y-89953363D01*
X172009119Y-89953373D01*
X171783105Y-89951907D01*
X171716194Y-89931788D01*
X171670783Y-89878689D01*
X171661288Y-89809467D01*
X171661436Y-89808511D01*
X171670372Y-89752091D01*
X171672300Y-89739919D01*
X171672299Y-89126882D01*
X171657446Y-89033096D01*
X171599850Y-88920058D01*
X171599846Y-88920054D01*
X171599845Y-88920052D01*
X171510147Y-88830354D01*
X171510144Y-88830352D01*
X171510142Y-88830350D01*
X171433317Y-88791205D01*
X171397101Y-88772752D01*
X171303324Y-88757900D01*
X171303319Y-88757900D01*
X170856605Y-88757900D01*
X170854321Y-88757858D01*
X170838315Y-88757267D01*
X170830102Y-88756965D01*
X170830101Y-88756965D01*
X170830100Y-88756965D01*
X170657470Y-88784728D01*
X170588155Y-88775938D01*
X170550100Y-88749982D01*
X170302221Y-88502103D01*
X170280664Y-88473099D01*
X170260098Y-88434812D01*
X170076895Y-88093742D01*
X170006661Y-87962987D01*
X169991899Y-87904310D01*
X169991899Y-87855682D01*
X169991899Y-87855681D01*
X169977046Y-87761896D01*
X169919450Y-87648858D01*
X169919446Y-87648854D01*
X169919445Y-87648852D01*
X169829747Y-87559154D01*
X169829744Y-87559152D01*
X169829742Y-87559150D01*
X169752917Y-87520005D01*
X169716701Y-87501552D01*
X169622924Y-87486700D01*
X169009882Y-87486700D01*
X168928919Y-87499523D01*
X168916096Y-87501554D01*
X168803058Y-87559150D01*
X168803057Y-87559151D01*
X168803052Y-87559154D01*
X168713354Y-87648852D01*
X168713351Y-87648857D01*
X168713350Y-87648858D01*
X168703719Y-87667760D01*
X168655752Y-87761898D01*
X168655752Y-87761899D01*
X168648338Y-87808713D01*
X168618409Y-87871848D01*
X168559097Y-87908779D01*
X168489234Y-87907781D01*
X168431002Y-87869171D01*
X168402888Y-87805207D01*
X168401866Y-87789778D01*
X168399110Y-87051152D01*
X175708900Y-87051152D01*
X175720531Y-87109629D01*
X175720532Y-87109630D01*
X175764847Y-87175952D01*
X175831169Y-87220267D01*
X175831170Y-87220268D01*
X175889647Y-87231899D01*
X175889650Y-87231900D01*
X175889652Y-87231900D01*
X177729150Y-87231900D01*
X177729151Y-87231899D01*
X177743968Y-87228952D01*
X177787629Y-87220268D01*
X177787629Y-87220267D01*
X177787631Y-87220267D01*
X177853952Y-87175952D01*
X177898267Y-87109631D01*
X177898267Y-87109629D01*
X177898268Y-87109629D01*
X177907230Y-87064572D01*
X177909900Y-87051148D01*
X177909900Y-86131405D01*
X180404602Y-86131405D01*
X180423761Y-86362618D01*
X180480717Y-86587535D01*
X180573916Y-86800009D01*
X180658211Y-86929033D01*
X181246626Y-86340619D01*
X181285301Y-86433988D01*
X181381475Y-86559325D01*
X181506812Y-86655499D01*
X181600179Y-86694172D01*
X181010599Y-87283751D01*
X181041050Y-87307450D01*
X181245097Y-87417876D01*
X181245106Y-87417879D01*
X181464539Y-87493211D01*
X181693393Y-87531400D01*
X181925407Y-87531400D01*
X182154260Y-87493211D01*
X182373693Y-87417879D01*
X182373702Y-87417876D01*
X182577750Y-87307450D01*
X182608198Y-87283751D01*
X182018620Y-86694173D01*
X182111988Y-86655499D01*
X182237325Y-86559325D01*
X182333499Y-86433989D01*
X182372172Y-86340620D01*
X182960586Y-86929034D01*
X183044884Y-86800006D01*
X183138082Y-86587535D01*
X183195038Y-86362618D01*
X183214197Y-86131405D01*
X183214197Y-86131394D01*
X183195038Y-85900181D01*
X183138082Y-85675264D01*
X183044883Y-85462790D01*
X182960586Y-85333764D01*
X182372172Y-85922178D01*
X182333499Y-85828812D01*
X182237325Y-85703475D01*
X182111988Y-85607301D01*
X182018620Y-85568627D01*
X182608199Y-84979048D01*
X182608199Y-84979047D01*
X182577749Y-84955349D01*
X182373702Y-84844923D01*
X182373693Y-84844920D01*
X182154260Y-84769588D01*
X181925407Y-84731400D01*
X181693393Y-84731400D01*
X181464539Y-84769588D01*
X181245106Y-84844920D01*
X181245098Y-84844923D01*
X181041044Y-84955352D01*
X181010600Y-84979046D01*
X181010600Y-84979047D01*
X181600179Y-85568626D01*
X181506812Y-85607301D01*
X181381475Y-85703475D01*
X181285301Y-85828811D01*
X181246627Y-85922179D01*
X180658212Y-85333765D01*
X180573916Y-85462791D01*
X180573914Y-85462795D01*
X180480717Y-85675264D01*
X180423761Y-85900181D01*
X180404602Y-86131394D01*
X180404602Y-86131405D01*
X177909900Y-86131405D01*
X177909900Y-85211652D01*
X177909900Y-85211651D01*
X177909900Y-85211649D01*
X177909899Y-85211647D01*
X177898268Y-85153170D01*
X177898267Y-85153169D01*
X177853952Y-85086847D01*
X177787630Y-85042532D01*
X177787629Y-85042531D01*
X177729152Y-85030900D01*
X177729148Y-85030900D01*
X175889652Y-85030900D01*
X175889647Y-85030900D01*
X175831170Y-85042531D01*
X175831169Y-85042532D01*
X175764847Y-85086847D01*
X175720532Y-85153169D01*
X175720531Y-85153170D01*
X175708900Y-85211647D01*
X175708900Y-87051152D01*
X168399110Y-87051152D01*
X168379359Y-81758150D01*
X168374622Y-81715041D01*
X168374622Y-81715040D01*
X168363510Y-81664194D01*
X168361160Y-81654563D01*
X168351803Y-81636927D01*
X168318299Y-81573778D01*
X168318297Y-81573776D01*
X168318296Y-81573774D01*
X168272636Y-81520888D01*
X168255076Y-81502902D01*
X168255075Y-81502901D01*
X168255073Y-81502900D01*
X168175341Y-81458113D01*
X168175338Y-81458112D01*
X168108333Y-81438306D01*
X168058881Y-81431105D01*
X168050454Y-81429878D01*
X167985074Y-81429760D01*
X160393564Y-81416106D01*
X160385576Y-81415575D01*
X160376886Y-81414431D01*
X160350202Y-81410918D01*
X160350197Y-81410918D01*
X160315997Y-81415420D01*
X160307785Y-81415951D01*
X159466502Y-81414438D01*
X159458516Y-81413907D01*
X159435802Y-81410918D01*
X159435797Y-81410918D01*
X159413919Y-81413798D01*
X159405707Y-81414329D01*
X158539438Y-81412771D01*
X158531453Y-81412240D01*
X158521406Y-81410918D01*
X158521398Y-81410918D01*
X158511839Y-81412176D01*
X158503631Y-81412706D01*
X157586605Y-81411057D01*
X157584489Y-81410917D01*
X157578362Y-81410918D01*
X157576495Y-81411039D01*
X154175591Y-81404922D01*
X154131721Y-81409580D01*
X154131710Y-81409581D01*
X154080004Y-81420781D01*
X154079944Y-81420795D01*
X154069631Y-81423311D01*
X154069626Y-81423313D01*
X153988916Y-81466322D01*
X153988913Y-81466324D01*
X153936104Y-81512083D01*
X153918160Y-81529665D01*
X153918154Y-81529672D01*
X153873511Y-81609482D01*
X153873509Y-81609487D01*
X153853826Y-81676519D01*
X153853825Y-81676524D01*
X153853825Y-81676525D01*
X153846878Y-81724843D01*
X153845500Y-81734426D01*
X153845500Y-81870700D01*
X153825815Y-81937739D01*
X153773011Y-81983494D01*
X153721500Y-81994700D01*
X150533247Y-81994700D01*
X150474770Y-82006331D01*
X150474769Y-82006332D01*
X150408447Y-82050647D01*
X150364132Y-82116969D01*
X150364131Y-82116970D01*
X150352500Y-82175447D01*
X150352500Y-86124952D01*
X150364131Y-86183429D01*
X150364132Y-86183430D01*
X150408447Y-86249752D01*
X150474769Y-86294067D01*
X150474770Y-86294068D01*
X150533247Y-86305699D01*
X150533250Y-86305700D01*
X150533252Y-86305700D01*
X151391987Y-86305700D01*
X151459026Y-86325385D01*
X151504781Y-86378189D01*
X151514725Y-86447347D01*
X151485700Y-86510903D01*
X151479681Y-86517367D01*
X151437724Y-86559325D01*
X151260147Y-86736900D01*
X151198823Y-86770384D01*
X151147498Y-86769528D01*
X151147472Y-86769753D01*
X151145294Y-86769491D01*
X151142084Y-86769438D01*
X151139580Y-86768805D01*
X151054602Y-86758600D01*
X151042000Y-86758600D01*
X151042000Y-87134582D01*
X151027010Y-87185628D01*
X151029477Y-87186650D01*
X151024803Y-87197933D01*
X151011500Y-87264812D01*
X151011500Y-88702380D01*
X151024804Y-88769268D01*
X151029478Y-88780551D01*
X151026725Y-88781691D01*
X151041980Y-88830391D01*
X151042000Y-88832617D01*
X151042000Y-89208600D01*
X151054602Y-89208600D01*
X151139575Y-89198395D01*
X151139576Y-89198395D01*
X151274809Y-89145066D01*
X151377075Y-89067516D01*
X151442386Y-89042693D01*
X151510750Y-89057121D01*
X151526925Y-89067516D01*
X151629190Y-89145066D01*
X151764424Y-89198395D01*
X151849398Y-89208600D01*
X151861999Y-89208600D01*
X151862000Y-88832618D01*
X151876988Y-88781573D01*
X151874522Y-88780552D01*
X151879197Y-88769265D01*
X151891671Y-88706552D01*
X151892500Y-88702383D01*
X151892499Y-87867598D01*
X151912183Y-87800561D01*
X151964987Y-87754806D01*
X152016499Y-87743600D01*
X152218000Y-87743600D01*
X152285039Y-87763285D01*
X152330794Y-87816089D01*
X152342000Y-87867600D01*
X152342000Y-89208600D01*
X152354602Y-89208600D01*
X152439575Y-89198395D01*
X152439576Y-89198395D01*
X152574807Y-89145067D01*
X152671374Y-89071838D01*
X152736686Y-89047015D01*
X152805050Y-89061443D01*
X152854761Y-89110540D01*
X152870300Y-89170642D01*
X152870300Y-89536917D01*
X152875303Y-89568503D01*
X152885154Y-89630704D01*
X152942750Y-89743742D01*
X152942752Y-89743744D01*
X152942754Y-89743747D01*
X153032452Y-89833445D01*
X153032454Y-89833446D01*
X153032458Y-89833450D01*
X153097941Y-89866815D01*
X153148737Y-89914790D01*
X153165532Y-89982611D01*
X153142994Y-90048746D01*
X153088279Y-90092197D01*
X153051383Y-90099399D01*
X153051512Y-90100703D01*
X153045447Y-90101300D01*
X152986970Y-90112931D01*
X152986969Y-90112932D01*
X152920647Y-90157247D01*
X152876332Y-90223569D01*
X152876331Y-90223570D01*
X152864700Y-90282047D01*
X152864700Y-91321552D01*
X152876331Y-91380029D01*
X152876332Y-91380030D01*
X152920647Y-91446352D01*
X152986969Y-91490667D01*
X152986970Y-91490668D01*
X153045447Y-91502299D01*
X153045450Y-91502300D01*
X153045452Y-91502300D01*
X154584946Y-91502300D01*
X154584948Y-91502300D01*
X154597756Y-91499752D01*
X154667346Y-91505978D01*
X154722524Y-91548839D01*
X154745771Y-91614728D01*
X154729705Y-91682725D01*
X154709631Y-91709050D01*
X154555099Y-91863582D01*
X154493779Y-91897066D01*
X154467420Y-91899900D01*
X152666499Y-91899900D01*
X152599460Y-91880215D01*
X152553705Y-91827411D01*
X152542499Y-91775900D01*
X152542499Y-91584818D01*
X152539652Y-91570504D01*
X152529196Y-91517932D01*
X152478516Y-91442084D01*
X152402668Y-91391404D01*
X152402667Y-91391403D01*
X152402666Y-91391403D01*
X152402665Y-91391402D01*
X152335785Y-91378100D01*
X151868218Y-91378100D01*
X151868217Y-91378101D01*
X151801188Y-91391432D01*
X151752810Y-91391432D01*
X151710920Y-91383100D01*
X151685783Y-91378100D01*
X151685782Y-91378100D01*
X151564557Y-91378100D01*
X151497518Y-91358415D01*
X151465753Y-91329025D01*
X151390634Y-91229965D01*
X151274809Y-91142133D01*
X151139575Y-91088804D01*
X151054602Y-91078600D01*
X151042000Y-91078600D01*
X151042000Y-91454581D01*
X151027010Y-91505627D01*
X151029477Y-91506649D01*
X151024803Y-91517932D01*
X151011500Y-91584812D01*
X151011500Y-91584815D01*
X151011500Y-91584817D01*
X151011500Y-92289934D01*
X151011501Y-92419600D01*
X150991817Y-92486639D01*
X150939013Y-92532394D01*
X150887501Y-92543600D01*
X150716500Y-92543600D01*
X150649461Y-92523915D01*
X150603706Y-92471111D01*
X150592500Y-92419600D01*
X150592499Y-91584819D01*
X150590718Y-91575864D01*
X150579196Y-91517932D01*
X150579193Y-91517928D01*
X150574521Y-91506646D01*
X150577272Y-91505506D01*
X150562020Y-91456788D01*
X150562000Y-91454581D01*
X150562000Y-91078600D01*
X150549398Y-91078600D01*
X150464424Y-91088804D01*
X150464423Y-91088804D01*
X150329190Y-91142133D01*
X150213367Y-91229964D01*
X150138246Y-91329026D01*
X150082053Y-91370549D01*
X150039443Y-91378100D01*
X149918218Y-91378100D01*
X149918216Y-91378101D01*
X149851188Y-91391432D01*
X149802810Y-91391432D01*
X149760920Y-91383100D01*
X149735783Y-91378100D01*
X149735782Y-91378100D01*
X149427500Y-91378100D01*
X149360461Y-91358415D01*
X149314706Y-91305611D01*
X149303500Y-91254100D01*
X149303500Y-89813700D01*
X149323185Y-89746661D01*
X149375989Y-89700906D01*
X149427500Y-89689700D01*
X150079472Y-89689700D01*
X150079475Y-89689700D01*
X150136197Y-89681717D01*
X150201990Y-89662823D01*
X150224555Y-89654895D01*
X150298962Y-89601718D01*
X150345342Y-89549462D01*
X150360847Y-89529677D01*
X150394694Y-89444715D01*
X150405460Y-89375680D01*
X150406007Y-89329685D01*
X150426486Y-89262886D01*
X150479830Y-89217762D01*
X150544795Y-89208046D01*
X150549404Y-89208600D01*
X150562000Y-89208600D01*
X150562000Y-88924911D01*
X150567611Y-88888031D01*
X150574802Y-88864949D01*
X150581031Y-88795358D01*
X150580373Y-88783086D01*
X150582577Y-88752266D01*
X150592500Y-88702383D01*
X150592499Y-87264818D01*
X150579196Y-87197932D01*
X150579193Y-87197928D01*
X150574521Y-87186646D01*
X150577272Y-87185506D01*
X150562020Y-87136788D01*
X150562000Y-87134581D01*
X150562000Y-86758600D01*
X150549398Y-86758600D01*
X150464424Y-86768804D01*
X150464423Y-86768804D01*
X150329190Y-86822133D01*
X150213367Y-86909964D01*
X150148489Y-86995519D01*
X150092296Y-87037042D01*
X150062942Y-87043882D01*
X150042957Y-87046031D01*
X149974198Y-87033627D01*
X149923059Y-86986018D01*
X149905700Y-86922742D01*
X149905700Y-86631507D01*
X149906257Y-86623213D01*
X149909526Y-86598964D01*
X149908716Y-86585996D01*
X149905819Y-86539559D01*
X149905700Y-86535718D01*
X149905700Y-86500241D01*
X149920174Y-86450947D01*
X149917194Y-86449713D01*
X149921868Y-86438429D01*
X149933499Y-86379952D01*
X149933500Y-86379950D01*
X149933500Y-85730449D01*
X149933499Y-85730447D01*
X149923373Y-85679536D01*
X149929600Y-85609944D01*
X149932776Y-85602582D01*
X149967324Y-85529105D01*
X149967324Y-85529103D01*
X149967328Y-85529096D01*
X149982243Y-85460837D01*
X149986470Y-85402499D01*
X149982656Y-85348474D01*
X149968870Y-85153169D01*
X149964053Y-85084939D01*
X149963900Y-85080577D01*
X149963900Y-82014093D01*
X149963900Y-82014089D01*
X149959118Y-81970013D01*
X149952031Y-81937739D01*
X149947720Y-81918105D01*
X149947714Y-81918080D01*
X149947709Y-81918058D01*
X149945093Y-81907492D01*
X149927570Y-81874920D01*
X149924891Y-81869272D01*
X149921867Y-81861971D01*
X149921867Y-81861969D01*
X149917025Y-81854723D01*
X149913989Y-81849672D01*
X149901766Y-81826950D01*
X149890355Y-81813885D01*
X149885505Y-81807549D01*
X149877551Y-81795646D01*
X149868918Y-81787013D01*
X149869051Y-81786879D01*
X149859223Y-81778242D01*
X149855803Y-81774326D01*
X149838140Y-81756439D01*
X149758146Y-81712108D01*
X149714678Y-81699530D01*
X149691034Y-81692689D01*
X149691026Y-81692687D01*
X149633106Y-81684592D01*
X149633103Y-81684592D01*
X143429218Y-81709016D01*
X143386173Y-81713748D01*
X143335411Y-81724836D01*
X143335398Y-81724839D01*
X143335385Y-81724842D01*
X143335381Y-81724843D01*
X143325859Y-81727163D01*
X143325856Y-81727164D01*
X143245048Y-81769988D01*
X143245042Y-81769991D01*
X143192151Y-81815610D01*
X143192140Y-81815621D01*
X143174143Y-81833173D01*
X143129312Y-81912889D01*
X143109475Y-81979883D01*
X143109475Y-81979885D01*
X143101020Y-82037752D01*
X143101019Y-82037763D01*
X143076186Y-92939765D01*
X143076187Y-92939774D01*
X143081024Y-92984566D01*
X143091115Y-93030238D01*
X143092684Y-93037339D01*
X143093527Y-93040700D01*
X143095507Y-93048597D01*
X143139217Y-93128927D01*
X143139218Y-93128928D01*
X143185427Y-93181325D01*
X143185434Y-93181332D01*
X143203183Y-93199134D01*
X143257803Y-93229062D01*
X143279042Y-93240700D01*
X143283388Y-93243081D01*
X143350597Y-93262179D01*
X143408563Y-93269997D01*
X148457668Y-93225898D01*
X148524875Y-93244996D01*
X148571089Y-93297398D01*
X148581636Y-93366467D01*
X148553168Y-93430274D01*
X148515045Y-93460377D01*
X148424581Y-93506471D01*
X148424574Y-93506476D01*
X148329272Y-93601778D01*
X148321542Y-93616949D01*
X148273565Y-93667743D01*
X148205743Y-93684536D01*
X148191242Y-93682646D01*
X148191203Y-93682920D01*
X148128948Y-93673846D01*
X148128940Y-93673845D01*
X145868585Y-93669494D01*
X134566834Y-93647739D01*
X134566833Y-93647739D01*
X134566829Y-93647739D01*
X134522951Y-93652393D01*
X134522936Y-93652396D01*
X134471235Y-93663591D01*
X134471204Y-93663598D01*
X134460826Y-93666129D01*
X134380119Y-93709136D01*
X134380113Y-93709140D01*
X134327304Y-93754899D01*
X134309360Y-93772481D01*
X134309354Y-93772488D01*
X134264711Y-93852298D01*
X134264709Y-93852303D01*
X134245026Y-93919335D01*
X134245025Y-93919340D01*
X134245025Y-93919341D01*
X134237260Y-93973348D01*
X134236700Y-93977242D01*
X134236700Y-99621807D01*
X134241396Y-99665482D01*
X134252603Y-99716997D01*
X134255090Y-99727172D01*
X134255091Y-99727175D01*
X134298099Y-99807883D01*
X134298101Y-99807886D01*
X134343860Y-99860695D01*
X134357266Y-99874377D01*
X134361446Y-99878643D01*
X134361447Y-99878644D01*
X134361449Y-99878645D01*
X134441259Y-99923288D01*
X134441263Y-99923290D01*
X134508302Y-99942975D01*
X134566200Y-99951300D01*
X134566204Y-99951300D01*
X137251296Y-99951300D01*
X137251302Y-99951300D01*
X137287408Y-99948103D01*
X137322730Y-99941799D01*
X137330239Y-99940459D01*
X137330270Y-99940453D01*
X137330305Y-99940447D01*
X137333019Y-99939944D01*
X137416732Y-99903116D01*
X137466620Y-99866061D01*
X137532172Y-99841891D01*
X137600388Y-99856998D01*
X137624535Y-99874375D01*
X137704304Y-99947807D01*
X137908320Y-100081098D01*
X138131492Y-100178990D01*
X138367733Y-100238815D01*
X138387612Y-100240461D01*
X138452796Y-100265612D01*
X138465056Y-100276357D01*
X138511472Y-100322773D01*
X138544957Y-100384096D01*
X138539973Y-100453788D01*
X138498101Y-100509721D01*
X138434600Y-100533982D01*
X138390971Y-100537799D01*
X138390965Y-100537800D01*
X138178003Y-100594864D01*
X137978193Y-100688038D01*
X137913846Y-100733092D01*
X138469233Y-101288479D01*
X138465438Y-101289025D01*
X138332037Y-101349947D01*
X138221204Y-101445985D01*
X138141917Y-101569358D01*
X138119465Y-101645818D01*
X137560293Y-101086646D01*
X137515239Y-101150992D01*
X137422065Y-101350802D01*
X137365001Y-101563764D01*
X137365000Y-101563771D01*
X137345786Y-101783396D01*
X137345786Y-101783399D01*
X137365000Y-102003024D01*
X137365001Y-102003032D01*
X137422062Y-102215985D01*
X137422065Y-102215991D01*
X137515237Y-102415800D01*
X137560293Y-102480148D01*
X138119465Y-101920977D01*
X138141917Y-101997438D01*
X138221204Y-102120811D01*
X138332037Y-102216849D01*
X138465438Y-102277771D01*
X138469232Y-102278316D01*
X137913846Y-102833702D01*
X137978192Y-102878757D01*
X138178005Y-102971931D01*
X138178011Y-102971934D01*
X138390964Y-103028995D01*
X138390972Y-103028996D01*
X138610597Y-103048211D01*
X138610601Y-103048211D01*
X138830225Y-103028996D01*
X138830233Y-103028995D01*
X139043186Y-102971934D01*
X139043197Y-102971930D01*
X139243001Y-102878760D01*
X139243009Y-102878756D01*
X139307350Y-102833703D01*
X139307350Y-102833702D01*
X138751965Y-102278316D01*
X138755760Y-102277771D01*
X138889161Y-102216849D01*
X138999994Y-102120811D01*
X139079281Y-101997438D01*
X139101732Y-101920977D01*
X139660904Y-102480149D01*
X139705957Y-102415808D01*
X139705961Y-102415800D01*
X139799131Y-102215996D01*
X139799135Y-102215985D01*
X139856196Y-102003032D01*
X139856197Y-102003024D01*
X139860014Y-101959398D01*
X139885466Y-101894329D01*
X139942057Y-101853351D01*
X140011819Y-101849472D01*
X140071221Y-101882523D01*
X140257378Y-102068680D01*
X140765504Y-102576807D01*
X140765507Y-102576809D01*
X140765509Y-102576811D01*
X140831852Y-102633001D01*
X140870287Y-102691348D01*
X140875712Y-102727454D01*
X140883926Y-108764723D01*
X140864333Y-108831789D01*
X140847607Y-108852573D01*
X140387012Y-109313169D01*
X140387011Y-109313169D01*
X140387012Y-109313170D01*
X140314028Y-109386154D01*
X140303852Y-109406125D01*
X140293691Y-109422706D01*
X140280518Y-109440838D01*
X140280514Y-109440846D01*
X140273589Y-109462157D01*
X140266147Y-109480124D01*
X140255972Y-109500094D01*
X140252464Y-109522238D01*
X140247926Y-109541142D01*
X140241000Y-109562462D01*
X140241000Y-118224738D01*
X140247925Y-118246053D01*
X140252466Y-118264966D01*
X140255973Y-118287105D01*
X140255973Y-118287106D01*
X140266146Y-118307073D01*
X140273588Y-118325040D01*
X140280515Y-118346357D01*
X140280517Y-118346362D01*
X140293689Y-118364492D01*
X140303852Y-118381076D01*
X140314027Y-118401045D01*
X140314028Y-118401046D01*
X140314029Y-118401047D01*
X140336776Y-118423794D01*
X140659529Y-118746547D01*
X140749953Y-118836971D01*
X140769924Y-118847146D01*
X140786507Y-118857309D01*
X140804639Y-118870482D01*
X140804642Y-118870484D01*
X140817559Y-118874680D01*
X140825947Y-118877406D01*
X140843922Y-118884850D01*
X140863895Y-118895027D01*
X140886033Y-118898533D01*
X140904934Y-118903070D01*
X140926261Y-118910000D01*
X140926264Y-118910000D01*
X157838338Y-118910000D01*
X157838339Y-118910000D01*
X157859653Y-118903074D01*
X157878568Y-118898533D01*
X157900705Y-118895027D01*
X157920668Y-118884854D01*
X157938644Y-118877408D01*
X157959960Y-118870483D01*
X157978096Y-118857305D01*
X157994675Y-118847146D01*
X158014647Y-118836971D01*
X158105071Y-118746547D01*
X158105071Y-118746546D01*
X158242088Y-118609530D01*
X158295466Y-118556153D01*
X158295469Y-118556148D01*
X158300771Y-118550847D01*
X158310944Y-118530881D01*
X158321114Y-118514285D01*
X158334283Y-118496160D01*
X158341208Y-118474844D01*
X158348654Y-118456868D01*
X158358827Y-118436905D01*
X158362333Y-118414768D01*
X158366875Y-118395851D01*
X158373799Y-118374541D01*
X158373800Y-118374539D01*
X158373800Y-118246660D01*
X158373800Y-118246659D01*
X158373800Y-115300458D01*
X158393485Y-115233420D01*
X158446289Y-115187665D01*
X158497254Y-115176460D01*
X161016985Y-115165457D01*
X161084107Y-115184849D01*
X161130092Y-115237452D01*
X161140668Y-115304002D01*
X161138579Y-115321685D01*
X161138907Y-115334680D01*
X161173315Y-116699587D01*
X161173323Y-116702308D01*
X161171740Y-116785200D01*
X161167022Y-117032031D01*
X161162824Y-117061739D01*
X161162156Y-117064232D01*
X161141518Y-117220998D01*
X161141518Y-117221002D01*
X161159420Y-117356993D01*
X161160458Y-117375546D01*
X161137757Y-118563606D01*
X161142055Y-118609535D01*
X161153344Y-118663620D01*
X161153357Y-118663676D01*
X161156328Y-118675998D01*
X161177947Y-118716343D01*
X161194130Y-118746546D01*
X161199524Y-118756611D01*
X161245394Y-118809304D01*
X161256419Y-118820505D01*
X161263029Y-118827221D01*
X161342949Y-118871686D01*
X161410033Y-118891218D01*
X161410037Y-118891218D01*
X161410039Y-118891219D01*
X161418716Y-118892446D01*
X161467949Y-118899410D01*
X172151283Y-118875045D01*
X172218366Y-118894577D01*
X172239245Y-118911363D01*
X172643328Y-119315446D01*
X172643329Y-119315447D01*
X172733753Y-119405871D01*
X172753720Y-119416044D01*
X172770311Y-119426211D01*
X172788439Y-119439382D01*
X172809746Y-119446305D01*
X172827725Y-119453752D01*
X172847691Y-119463925D01*
X172847692Y-119463926D01*
X172847693Y-119463926D01*
X172847695Y-119463927D01*
X172869827Y-119467431D01*
X172888750Y-119471975D01*
X172910060Y-119478900D01*
X183463289Y-119478900D01*
X183530328Y-119498585D01*
X183576083Y-119551389D01*
X183586027Y-119620547D01*
X183557002Y-119684103D01*
X183505434Y-119719517D01*
X183447492Y-119740457D01*
X183446761Y-119740722D01*
X183429737Y-119745532D01*
X183205085Y-119792005D01*
X183187548Y-119794344D01*
X182951932Y-119808779D01*
X182947508Y-119808892D01*
X182896926Y-119808377D01*
X182889825Y-119808900D01*
X134160348Y-119808900D01*
X134157654Y-119808841D01*
X133753801Y-119791282D01*
X133748432Y-119790814D01*
X133348967Y-119738444D01*
X133343659Y-119737512D01*
X132950243Y-119650667D01*
X132945036Y-119649278D01*
X132560649Y-119528617D01*
X132555582Y-119526781D01*
X132262321Y-119405868D01*
X132183111Y-119373209D01*
X132178229Y-119370943D01*
X131820496Y-119185623D01*
X131815823Y-119182939D01*
X131475529Y-118967273D01*
X131471106Y-118964193D01*
X131150803Y-118719795D01*
X131146665Y-118716343D01*
X130848798Y-118445082D01*
X130844975Y-118441283D01*
X130571766Y-118145180D01*
X130568287Y-118141064D01*
X130321814Y-117822371D01*
X130318710Y-117817977D01*
X130100819Y-117479079D01*
X130098109Y-117474432D01*
X129910459Y-117117909D01*
X129908163Y-117113044D01*
X129752163Y-116741576D01*
X129750303Y-116736546D01*
X129627127Y-116352919D01*
X129625709Y-116347739D01*
X129600555Y-116237218D01*
X129539275Y-115967963D01*
X131038587Y-115967963D01*
X131068213Y-116237213D01*
X131068215Y-116237224D01*
X131105228Y-116378800D01*
X131136728Y-116499288D01*
X131242670Y-116748590D01*
X131383779Y-116979805D01*
X131383786Y-116979815D01*
X131557053Y-117188019D01*
X131557059Y-117188024D01*
X131662040Y-117282087D01*
X131758798Y-117368782D01*
X131984710Y-117518244D01*
X132229976Y-117633220D01*
X132229983Y-117633222D01*
X132229985Y-117633223D01*
X132489357Y-117711257D01*
X132489364Y-117711258D01*
X132489369Y-117711260D01*
X132757361Y-117750700D01*
X132757366Y-117750700D01*
X132960429Y-117750700D01*
X132960431Y-117750700D01*
X132960436Y-117750699D01*
X132960448Y-117750699D01*
X132997991Y-117747950D01*
X133162956Y-117735877D01*
X133275558Y-117710793D01*
X133427346Y-117676982D01*
X133427348Y-117676981D01*
X133427353Y-117676980D01*
X133680358Y-117580214D01*
X133916577Y-117447641D01*
X134130977Y-117282088D01*
X134318986Y-117087081D01*
X134476599Y-116866779D01*
X134561145Y-116702335D01*
X134600449Y-116625890D01*
X134600451Y-116625884D01*
X134600456Y-116625875D01*
X134687918Y-116369505D01*
X134737119Y-116103133D01*
X134747012Y-115832435D01*
X134717386Y-115563182D01*
X134648872Y-115301112D01*
X134542930Y-115051810D01*
X134401818Y-114820590D01*
X134376149Y-114789745D01*
X134228546Y-114612380D01*
X134228540Y-114612375D01*
X134026802Y-114431618D01*
X133800892Y-114282157D01*
X133763096Y-114264439D01*
X133555624Y-114167180D01*
X133555619Y-114167178D01*
X133555614Y-114167176D01*
X133296242Y-114089142D01*
X133296228Y-114089139D01*
X133180591Y-114072121D01*
X133028239Y-114049700D01*
X132825169Y-114049700D01*
X132825151Y-114049700D01*
X132622644Y-114064523D01*
X132622631Y-114064525D01*
X132358253Y-114123417D01*
X132358246Y-114123420D01*
X132105239Y-114220187D01*
X131869026Y-114352757D01*
X131654622Y-114518312D01*
X131466622Y-114713309D01*
X131466616Y-114713316D01*
X131309002Y-114933619D01*
X131308999Y-114933624D01*
X131185150Y-115174509D01*
X131185143Y-115174527D01*
X131097684Y-115430885D01*
X131097681Y-115430899D01*
X131048481Y-115697268D01*
X131048480Y-115697275D01*
X131038587Y-115967963D01*
X129539275Y-115967963D01*
X129536301Y-115954895D01*
X129535336Y-115949609D01*
X129480359Y-115550458D01*
X129479860Y-115545142D01*
X129459664Y-115141333D01*
X129459591Y-115138739D01*
X129459500Y-115124687D01*
X129459499Y-107445574D01*
X129479185Y-107378535D01*
X129531989Y-107332780D01*
X129601147Y-107322836D01*
X129664703Y-107351861D01*
X129702477Y-107410639D01*
X129704074Y-107416628D01*
X129711256Y-107446547D01*
X129810979Y-107687300D01*
X129947129Y-107909477D01*
X129947130Y-107909478D01*
X129947131Y-107909480D01*
X129947133Y-107909482D01*
X130116367Y-108107629D01*
X130314514Y-108276863D01*
X130314516Y-108276864D01*
X130314517Y-108276865D01*
X130314518Y-108276866D01*
X130536695Y-108413016D01*
X130629799Y-108451581D01*
X130777442Y-108512737D01*
X131030823Y-108573568D01*
X131290601Y-108594013D01*
X131550379Y-108573568D01*
X131803760Y-108512737D01*
X132044506Y-108413016D01*
X132266688Y-108276863D01*
X132464835Y-108107629D01*
X132634069Y-107909482D01*
X132770222Y-107687300D01*
X132869943Y-107446554D01*
X132930774Y-107193173D01*
X132951219Y-106933395D01*
X132930774Y-106673617D01*
X132869943Y-106420236D01*
X132792211Y-106232575D01*
X132770222Y-106179489D01*
X132634072Y-105957312D01*
X132634071Y-105957311D01*
X132634070Y-105957310D01*
X132634069Y-105957308D01*
X132464835Y-105759161D01*
X132268226Y-105591241D01*
X134350600Y-105591241D01*
X134357001Y-105650769D01*
X134357003Y-105650776D01*
X134407245Y-105785483D01*
X134407249Y-105785490D01*
X134493409Y-105900584D01*
X134493412Y-105900587D01*
X134608506Y-105986747D01*
X134608513Y-105986751D01*
X134743220Y-106036993D01*
X134743227Y-106036995D01*
X134802755Y-106043396D01*
X134802772Y-106043397D01*
X135360600Y-106043397D01*
X135360600Y-105229891D01*
X135465439Y-105277770D01*
X135574127Y-105293397D01*
X135647073Y-105293397D01*
X135755761Y-105277770D01*
X135860600Y-105229891D01*
X135860600Y-106043397D01*
X136418428Y-106043397D01*
X136418444Y-106043396D01*
X136477972Y-106036995D01*
X136477979Y-106036993D01*
X136612686Y-105986751D01*
X136612693Y-105986747D01*
X136727787Y-105900587D01*
X136727790Y-105900584D01*
X136813950Y-105785490D01*
X136813954Y-105785483D01*
X136864196Y-105650776D01*
X136864198Y-105650769D01*
X136870599Y-105591241D01*
X136870600Y-105591224D01*
X136870600Y-105033397D01*
X136056172Y-105033397D01*
X136079282Y-104997437D01*
X136120600Y-104856724D01*
X136120600Y-104783398D01*
X137345786Y-104783398D01*
X137365000Y-105003023D01*
X137365001Y-105003031D01*
X137422062Y-105215984D01*
X137422065Y-105215990D01*
X137515237Y-105415799D01*
X137560293Y-105480147D01*
X138119465Y-104920976D01*
X138141917Y-104997437D01*
X138221204Y-105120810D01*
X138332037Y-105216848D01*
X138465438Y-105277770D01*
X138469232Y-105278315D01*
X137913846Y-105833701D01*
X137978192Y-105878756D01*
X138178005Y-105971930D01*
X138178011Y-105971933D01*
X138390964Y-106028994D01*
X138390972Y-106028995D01*
X138610597Y-106048210D01*
X138610601Y-106048210D01*
X138830225Y-106028995D01*
X138830233Y-106028994D01*
X139043186Y-105971933D01*
X139043197Y-105971929D01*
X139243001Y-105878759D01*
X139243009Y-105878755D01*
X139307350Y-105833702D01*
X139307350Y-105833701D01*
X138751965Y-105278315D01*
X138755760Y-105277770D01*
X138889161Y-105216848D01*
X138999994Y-105120810D01*
X139079281Y-104997437D01*
X139101732Y-104920977D01*
X139660903Y-105480148D01*
X139660904Y-105480148D01*
X139705957Y-105415807D01*
X139705961Y-105415799D01*
X139799131Y-105215995D01*
X139799135Y-105215984D01*
X139856196Y-105003031D01*
X139856197Y-105003023D01*
X139875412Y-104783398D01*
X139875412Y-104783395D01*
X139856197Y-104563770D01*
X139856196Y-104563763D01*
X139799132Y-104350801D01*
X139705959Y-104150992D01*
X139705958Y-104150990D01*
X139660903Y-104086645D01*
X139660903Y-104086644D01*
X139101731Y-104645815D01*
X139079281Y-104569357D01*
X138999994Y-104445984D01*
X138889161Y-104349946D01*
X138755760Y-104289024D01*
X138751964Y-104288478D01*
X139307350Y-103733091D01*
X139243001Y-103688035D01*
X139043192Y-103594863D01*
X139043186Y-103594860D01*
X138830233Y-103537799D01*
X138830225Y-103537798D01*
X138610601Y-103518584D01*
X138610597Y-103518584D01*
X138390972Y-103537798D01*
X138390965Y-103537799D01*
X138178003Y-103594863D01*
X137978193Y-103688037D01*
X137913847Y-103733091D01*
X138469234Y-104288478D01*
X138465438Y-104289024D01*
X138332037Y-104349946D01*
X138221204Y-104445984D01*
X138141917Y-104569357D01*
X138119465Y-104645817D01*
X137560293Y-104086645D01*
X137515239Y-104150991D01*
X137422065Y-104350801D01*
X137365001Y-104563763D01*
X137365000Y-104563770D01*
X137345786Y-104783395D01*
X137345786Y-104783398D01*
X136120600Y-104783398D01*
X136120600Y-104710070D01*
X136079282Y-104569357D01*
X136056172Y-104533397D01*
X136870600Y-104533397D01*
X136870600Y-103975569D01*
X136870599Y-103975552D01*
X136864198Y-103916024D01*
X136864196Y-103916017D01*
X136813954Y-103781310D01*
X136813950Y-103781303D01*
X136727790Y-103666209D01*
X136727787Y-103666206D01*
X136612693Y-103580046D01*
X136612686Y-103580042D01*
X136477979Y-103529800D01*
X136477972Y-103529798D01*
X136418444Y-103523397D01*
X135860600Y-103523397D01*
X135860600Y-104336902D01*
X135755761Y-104289024D01*
X135647073Y-104273397D01*
X135574127Y-104273397D01*
X135465439Y-104289024D01*
X135360600Y-104336902D01*
X135360600Y-103523397D01*
X134802755Y-103523397D01*
X134743227Y-103529798D01*
X134743220Y-103529800D01*
X134608513Y-103580042D01*
X134608506Y-103580046D01*
X134493412Y-103666206D01*
X134493409Y-103666209D01*
X134407249Y-103781303D01*
X134407245Y-103781310D01*
X134357003Y-103916017D01*
X134357001Y-103916024D01*
X134350600Y-103975552D01*
X134350600Y-104533397D01*
X135165028Y-104533397D01*
X135141918Y-104569357D01*
X135100600Y-104710070D01*
X135100600Y-104856724D01*
X135141918Y-104997437D01*
X135165028Y-105033397D01*
X134350600Y-105033397D01*
X134350600Y-105591241D01*
X132268226Y-105591241D01*
X132266688Y-105589927D01*
X132266686Y-105589925D01*
X132266684Y-105589924D01*
X132266683Y-105589923D01*
X132044506Y-105453773D01*
X131803755Y-105354051D01*
X131550375Y-105293221D01*
X131550376Y-105293221D01*
X131290601Y-105272777D01*
X131030825Y-105293221D01*
X130777446Y-105354051D01*
X130536695Y-105453773D01*
X130314518Y-105589923D01*
X130314517Y-105589924D01*
X130116367Y-105759161D01*
X129947130Y-105957311D01*
X129947129Y-105957312D01*
X129810979Y-106179489D01*
X129711257Y-106420240D01*
X129704074Y-106450162D01*
X129669283Y-106510754D01*
X129607257Y-106542918D01*
X129537688Y-106536442D01*
X129482664Y-106493382D01*
X129459655Y-106427410D01*
X129459500Y-106421215D01*
X129459500Y-101783399D01*
X134345787Y-101783399D01*
X134365001Y-102003024D01*
X134365002Y-102003032D01*
X134422063Y-102215985D01*
X134422066Y-102215991D01*
X134515238Y-102415800D01*
X134560294Y-102480148D01*
X135119466Y-101920977D01*
X135141918Y-101997438D01*
X135221205Y-102120811D01*
X135332038Y-102216849D01*
X135465439Y-102277771D01*
X135469233Y-102278316D01*
X134913847Y-102833702D01*
X134978193Y-102878757D01*
X135178006Y-102971931D01*
X135178012Y-102971934D01*
X135390965Y-103028995D01*
X135390973Y-103028996D01*
X135610598Y-103048211D01*
X135610602Y-103048211D01*
X135830226Y-103028996D01*
X135830234Y-103028995D01*
X136043187Y-102971934D01*
X136043198Y-102971930D01*
X136243002Y-102878760D01*
X136243010Y-102878756D01*
X136307351Y-102833703D01*
X136307351Y-102833702D01*
X135751966Y-102278316D01*
X135755761Y-102277771D01*
X135889162Y-102216849D01*
X135999995Y-102120811D01*
X136079282Y-101997438D01*
X136101733Y-101920976D01*
X136660905Y-102480149D01*
X136705958Y-102415808D01*
X136705962Y-102415800D01*
X136799132Y-102215996D01*
X136799136Y-102215985D01*
X136856197Y-102003032D01*
X136856198Y-102003024D01*
X136875413Y-101783399D01*
X136875413Y-101783396D01*
X136856198Y-101563771D01*
X136856197Y-101563764D01*
X136799133Y-101350802D01*
X136705960Y-101150993D01*
X136705959Y-101150991D01*
X136660904Y-101086646D01*
X136660903Y-101086645D01*
X136101732Y-101645816D01*
X136079282Y-101569358D01*
X135999995Y-101445985D01*
X135889162Y-101349947D01*
X135755761Y-101289025D01*
X135751965Y-101288479D01*
X136307351Y-100733092D01*
X136243002Y-100688036D01*
X136043193Y-100594864D01*
X136043187Y-100594861D01*
X135830234Y-100537800D01*
X135830226Y-100537799D01*
X135610602Y-100518585D01*
X135610598Y-100518585D01*
X135390973Y-100537799D01*
X135390966Y-100537800D01*
X135178004Y-100594864D01*
X134978194Y-100688038D01*
X134913848Y-100733092D01*
X135469235Y-101288479D01*
X135465439Y-101289025D01*
X135332038Y-101349947D01*
X135221205Y-101445985D01*
X135141918Y-101569358D01*
X135119466Y-101645818D01*
X134560294Y-101086646D01*
X134515240Y-101150992D01*
X134422066Y-101350802D01*
X134365002Y-101563764D01*
X134365001Y-101563771D01*
X134345787Y-101783396D01*
X134345787Y-101783399D01*
X129459500Y-101783399D01*
X129459500Y-94145581D01*
X129479185Y-94078542D01*
X129531989Y-94032787D01*
X129601147Y-94022843D01*
X129664703Y-94051868D01*
X129702477Y-94110646D01*
X129704074Y-94116635D01*
X129711256Y-94146554D01*
X129810979Y-94387307D01*
X129947129Y-94609484D01*
X129947130Y-94609485D01*
X129947131Y-94609487D01*
X129947133Y-94609489D01*
X130116367Y-94807636D01*
X130314514Y-94976870D01*
X130314516Y-94976871D01*
X130314517Y-94976872D01*
X130314518Y-94976873D01*
X130536695Y-95113023D01*
X130570043Y-95126836D01*
X130777442Y-95212744D01*
X131030823Y-95273575D01*
X131290601Y-95294020D01*
X131550379Y-95273575D01*
X131803760Y-95212744D01*
X132044506Y-95113023D01*
X132266688Y-94976870D01*
X132464835Y-94807636D01*
X132634069Y-94609489D01*
X132770222Y-94387307D01*
X132869943Y-94146561D01*
X132930774Y-93893180D01*
X132951219Y-93633402D01*
X132930774Y-93373624D01*
X132869943Y-93120243D01*
X132798362Y-92947433D01*
X132770222Y-92879496D01*
X132634072Y-92657319D01*
X132634071Y-92657318D01*
X132634070Y-92657317D01*
X132634069Y-92657315D01*
X132464835Y-92459168D01*
X132266688Y-92289934D01*
X132266686Y-92289932D01*
X132266684Y-92289931D01*
X132266683Y-92289930D01*
X132044506Y-92153780D01*
X131803755Y-92054058D01*
X131550375Y-91993228D01*
X131550376Y-91993228D01*
X131290601Y-91972784D01*
X131030825Y-91993228D01*
X130777446Y-92054058D01*
X130536695Y-92153780D01*
X130314518Y-92289930D01*
X130314517Y-92289931D01*
X130116367Y-92459168D01*
X129947130Y-92657318D01*
X129947129Y-92657319D01*
X129810979Y-92879496D01*
X129711257Y-93120247D01*
X129704074Y-93150169D01*
X129669283Y-93210761D01*
X129607257Y-93242925D01*
X129537688Y-93236449D01*
X129482664Y-93193389D01*
X129459655Y-93127417D01*
X129459500Y-93121222D01*
X129459500Y-86211787D01*
X131194700Y-86211787D01*
X131207103Y-86294068D01*
X131233804Y-86471215D01*
X131233805Y-86471217D01*
X131233806Y-86471223D01*
X131311138Y-86721926D01*
X131424967Y-86958296D01*
X131424968Y-86958297D01*
X131424970Y-86958300D01*
X131424972Y-86958304D01*
X131510805Y-87084197D01*
X131572767Y-87175079D01*
X131751214Y-87367401D01*
X131751218Y-87367404D01*
X131751219Y-87367405D01*
X131956343Y-87530986D01*
X132183557Y-87662168D01*
X132427784Y-87758020D01*
X132683570Y-87816402D01*
X132683576Y-87816402D01*
X132683579Y-87816403D01*
X132879684Y-87831099D01*
X132879703Y-87831099D01*
X132879706Y-87831100D01*
X132879708Y-87831100D01*
X133010692Y-87831100D01*
X133010694Y-87831100D01*
X133010696Y-87831099D01*
X133010715Y-87831099D01*
X133206820Y-87816403D01*
X133206822Y-87816402D01*
X133206830Y-87816402D01*
X133462616Y-87758020D01*
X133706843Y-87662168D01*
X133934057Y-87530986D01*
X134139181Y-87367405D01*
X134317633Y-87175079D01*
X134465428Y-86958304D01*
X134478863Y-86930407D01*
X134506586Y-86872839D01*
X134579263Y-86721923D01*
X134656596Y-86471215D01*
X134695700Y-86211782D01*
X134695700Y-85949418D01*
X134677791Y-85830600D01*
X137895200Y-85830600D01*
X139378233Y-85830600D01*
X139345200Y-85986006D01*
X139345200Y-86175194D01*
X139378233Y-86330600D01*
X137895201Y-86330600D01*
X137895201Y-87730584D01*
X137905694Y-87833295D01*
X137960841Y-87999717D01*
X137960843Y-87999722D01*
X138052884Y-88148944D01*
X138176855Y-88272915D01*
X138326077Y-88364956D01*
X138326082Y-88364958D01*
X138492504Y-88420105D01*
X138492511Y-88420106D01*
X138595221Y-88430599D01*
X139995199Y-88430599D01*
X139995200Y-88430598D01*
X139995200Y-86945685D01*
X140057049Y-86965782D01*
X140198036Y-86980600D01*
X140292364Y-86980600D01*
X140433351Y-86965782D01*
X140495200Y-86945685D01*
X140495200Y-88430599D01*
X141895170Y-88430599D01*
X141895184Y-88430598D01*
X141997895Y-88420105D01*
X142164317Y-88364958D01*
X142164322Y-88364956D01*
X142313544Y-88272915D01*
X142437515Y-88148944D01*
X142529556Y-87999722D01*
X142529558Y-87999717D01*
X142584705Y-87833295D01*
X142584706Y-87833288D01*
X142595199Y-87730584D01*
X142595200Y-87730571D01*
X142595200Y-86330600D01*
X141112167Y-86330600D01*
X141145200Y-86175194D01*
X141145200Y-85986006D01*
X141112167Y-85830600D01*
X142595199Y-85830600D01*
X142595199Y-84430630D01*
X142595198Y-84430615D01*
X142584705Y-84327904D01*
X142529558Y-84161482D01*
X142529556Y-84161477D01*
X142437515Y-84012255D01*
X142313544Y-83888284D01*
X142164322Y-83796243D01*
X142164317Y-83796241D01*
X141997895Y-83741094D01*
X141997888Y-83741093D01*
X141895184Y-83730600D01*
X140495200Y-83730600D01*
X140495200Y-85215514D01*
X140433351Y-85195418D01*
X140292364Y-85180600D01*
X140198036Y-85180600D01*
X140057049Y-85195418D01*
X139995200Y-85215514D01*
X139995200Y-83730600D01*
X138595230Y-83730600D01*
X138595214Y-83730601D01*
X138492504Y-83741094D01*
X138326082Y-83796241D01*
X138326077Y-83796243D01*
X138176855Y-83888284D01*
X138052884Y-84012255D01*
X137960843Y-84161477D01*
X137960841Y-84161482D01*
X137905694Y-84327904D01*
X137905693Y-84327911D01*
X137895200Y-84430615D01*
X137895200Y-85830600D01*
X134677791Y-85830600D01*
X134656596Y-85689985D01*
X134579263Y-85439277D01*
X134528451Y-85333764D01*
X134465432Y-85202903D01*
X134465431Y-85202902D01*
X134465430Y-85202901D01*
X134465428Y-85202896D01*
X134317633Y-84986121D01*
X134289081Y-84955349D01*
X134139185Y-84793798D01*
X134060940Y-84731400D01*
X133934057Y-84630214D01*
X133706843Y-84499032D01*
X133462616Y-84403180D01*
X133462611Y-84403178D01*
X133462602Y-84403176D01*
X133245018Y-84353514D01*
X133206830Y-84344798D01*
X133206829Y-84344797D01*
X133206825Y-84344797D01*
X133206820Y-84344796D01*
X133010715Y-84330100D01*
X133010694Y-84330100D01*
X132879706Y-84330100D01*
X132879684Y-84330100D01*
X132683579Y-84344796D01*
X132683574Y-84344797D01*
X132427797Y-84403176D01*
X132427778Y-84403182D01*
X132183556Y-84499032D01*
X131956343Y-84630214D01*
X131751214Y-84793798D01*
X131572767Y-84986120D01*
X131424968Y-85202902D01*
X131424967Y-85202903D01*
X131311138Y-85439273D01*
X131233806Y-85689976D01*
X131233805Y-85689981D01*
X131233804Y-85689985D01*
X131220561Y-85777847D01*
X131194700Y-85949412D01*
X131194700Y-86211787D01*
X129459500Y-86211787D01*
X129459500Y-85239952D01*
X129459559Y-85237248D01*
X129459805Y-85231593D01*
X129477265Y-84831692D01*
X129477734Y-84826343D01*
X129530543Y-84425214D01*
X129531481Y-84419902D01*
X129619047Y-84024919D01*
X129620441Y-84019712D01*
X129742104Y-83633847D01*
X129743951Y-83628774D01*
X129898782Y-83254978D01*
X129901045Y-83250126D01*
X130087870Y-82891239D01*
X130090566Y-82886571D01*
X130307942Y-82545358D01*
X130311035Y-82540940D01*
X130557339Y-82219949D01*
X130560798Y-82215828D01*
X130834133Y-81917536D01*
X130837936Y-81913733D01*
X131136228Y-81640398D01*
X131140349Y-81636939D01*
X131461340Y-81390635D01*
X131465750Y-81387547D01*
X131806971Y-81170166D01*
X131811639Y-81167470D01*
X132170526Y-80980645D01*
X132175378Y-80978382D01*
X132549181Y-80823548D01*
X132554247Y-80821704D01*
X132940112Y-80700041D01*
X132945319Y-80698647D01*
X133340302Y-80611081D01*
X133345614Y-80610143D01*
X133746743Y-80557334D01*
X133752092Y-80556865D01*
X134157648Y-80539159D01*
X134160353Y-80539100D01*
X134206595Y-80539100D01*
X160943827Y-80539100D01*
X179952405Y-80539100D01*
X179998647Y-80539100D01*
X180001351Y-80539159D01*
G37*
%TD.AperFunction*%
%TA.AperFunction,Conductor*%
G36*
X144052603Y-116836718D02*
G01*
X144089106Y-116891427D01*
X144099541Y-116922919D01*
X144099543Y-116922924D01*
X144191584Y-117072145D01*
X144315554Y-117196115D01*
X144353100Y-117219273D01*
X144353100Y-117932200D01*
X152081163Y-117911313D01*
X152093482Y-117925009D01*
X152104705Y-117993972D01*
X152076861Y-118058054D01*
X152018792Y-118096910D01*
X151981661Y-118102600D01*
X143934789Y-118102600D01*
X143867750Y-118082915D01*
X143821995Y-118030111D01*
X143812051Y-117960953D01*
X143817870Y-117939947D01*
X143817428Y-117939817D01*
X143819388Y-117933138D01*
X143819390Y-117933137D01*
X143839075Y-117866098D01*
X143847400Y-117808200D01*
X143847400Y-116930430D01*
X143867085Y-116863392D01*
X143919889Y-116817637D01*
X143989047Y-116807693D01*
X144052603Y-116836718D01*
G37*
%TD.AperFunction*%
%TA.AperFunction,Conductor*%
G36*
X154074758Y-112639449D02*
G01*
X154119528Y-112693090D01*
X154129800Y-112742506D01*
X154129800Y-117978600D01*
X154110115Y-118045639D01*
X154057311Y-118091394D01*
X154005800Y-118102600D01*
X153388739Y-118102600D01*
X153321700Y-118082915D01*
X153275945Y-118030111D01*
X153266001Y-117960953D01*
X153290162Y-117908045D01*
X153751100Y-117906800D01*
X153751100Y-117324245D01*
X153760199Y-117235186D01*
X153760200Y-117235173D01*
X153760200Y-116785200D01*
X153751100Y-116785200D01*
X153751100Y-116285200D01*
X153760199Y-116285200D01*
X153760199Y-115835228D01*
X153760198Y-115835213D01*
X153751100Y-115746156D01*
X153751100Y-114733445D01*
X153760199Y-114644386D01*
X153760200Y-114644373D01*
X153760200Y-114194400D01*
X153751100Y-114194400D01*
X153751100Y-113694400D01*
X153760199Y-113694400D01*
X153760199Y-113244428D01*
X153760198Y-113244413D01*
X153751100Y-113155356D01*
X153751100Y-112739306D01*
X153802279Y-112722348D01*
X153802288Y-112722344D01*
X153940702Y-112636968D01*
X154008094Y-112618527D01*
X154074758Y-112639449D01*
G37*
%TD.AperFunction*%
%TA.AperFunction,Conductor*%
G36*
X179135284Y-114789745D02*
G01*
X179230722Y-114885183D01*
X179264207Y-114946506D01*
X179259223Y-115016198D01*
X179217351Y-115072131D01*
X179151887Y-115096548D01*
X179142665Y-115096863D01*
X175589124Y-115086095D01*
X175522145Y-115066208D01*
X175476550Y-115013265D01*
X175465500Y-114962096D01*
X175465500Y-114706400D01*
X179083876Y-114706400D01*
X179135284Y-114789745D01*
G37*
%TD.AperFunction*%
%TA.AperFunction,Conductor*%
G36*
X169568100Y-114883905D02*
G01*
X169548415Y-114950944D01*
X169495611Y-114996699D01*
X169443727Y-115007904D01*
X165791544Y-114996904D01*
X165724564Y-114977018D01*
X165678968Y-114924077D01*
X165669233Y-114854888D01*
X165698449Y-114791420D01*
X165704236Y-114785223D01*
X165775917Y-114713542D01*
X165780322Y-114706400D01*
X169568100Y-114706400D01*
X169568100Y-114883905D01*
G37*
%TD.AperFunction*%
%TA.AperFunction,Conductor*%
G36*
X163637468Y-114708719D02*
G01*
X163641283Y-114713544D01*
X163706417Y-114778678D01*
X163739902Y-114840001D01*
X163734918Y-114909693D01*
X163693046Y-114965626D01*
X163627582Y-114990043D01*
X163618362Y-114990358D01*
X163461761Y-114989886D01*
X163394781Y-114970000D01*
X163349186Y-114917058D01*
X163339451Y-114847870D01*
X163368667Y-114784402D01*
X163374454Y-114778205D01*
X163439120Y-114713538D01*
X163442932Y-114708719D01*
X163446207Y-114706400D01*
X163635459Y-114706400D01*
X163637468Y-114708719D01*
G37*
%TD.AperFunction*%
%TA.AperFunction,Conductor*%
G36*
X183659181Y-112449698D02*
G01*
X183692666Y-112511021D01*
X183695500Y-112537379D01*
X183695500Y-113193277D01*
X183675815Y-113260316D01*
X183623011Y-113306071D01*
X183591200Y-113310644D01*
X183591200Y-112381717D01*
X183659181Y-112449698D01*
G37*
%TD.AperFunction*%
%TA.AperFunction,Conductor*%
G36*
X144353100Y-112841125D02*
G01*
X144315554Y-112864284D01*
X144191584Y-112988254D01*
X144099543Y-113137475D01*
X144099541Y-113137480D01*
X144089106Y-113168973D01*
X144049333Y-113226418D01*
X143984817Y-113253241D01*
X143916042Y-113240926D01*
X143864842Y-113193383D01*
X143847400Y-113129969D01*
X143847400Y-110489300D01*
X143867085Y-110422261D01*
X143919889Y-110376506D01*
X143971400Y-110365300D01*
X144353100Y-110365300D01*
X144353100Y-112841125D01*
G37*
%TD.AperFunction*%
%TA.AperFunction,Conductor*%
G36*
X182732417Y-98347218D02*
G01*
X182773717Y-98403575D01*
X182781100Y-98445724D01*
X182781100Y-111468338D01*
X182788025Y-111489653D01*
X182792565Y-111508564D01*
X182795911Y-111529681D01*
X182796073Y-111530705D01*
X182796073Y-111530706D01*
X182806246Y-111550673D01*
X182813688Y-111568640D01*
X182820615Y-111589956D01*
X182820616Y-111589957D01*
X182820617Y-111589960D01*
X182833793Y-111608096D01*
X182843954Y-111624678D01*
X182854129Y-111644647D01*
X182859435Y-111649953D01*
X182876876Y-111667393D01*
X182876876Y-111667394D01*
X183285488Y-112076006D01*
X183422235Y-112212753D01*
X182626000Y-112191800D01*
X182549800Y-99009200D01*
X182575200Y-98577400D01*
X176898235Y-98559320D01*
X176896200Y-98500138D01*
X176931932Y-98440096D01*
X176994452Y-98408903D01*
X177015615Y-98406965D01*
X182453005Y-98377172D01*
X182496112Y-98372358D01*
X182546944Y-98361154D01*
X182556573Y-98358787D01*
X182598785Y-98336292D01*
X182667204Y-98322136D01*
X182732417Y-98347218D01*
G37*
%TD.AperFunction*%
%TA.AperFunction,Conductor*%
G36*
X162876032Y-99411000D02*
G01*
X162915600Y-99411000D01*
X162915600Y-99911000D01*
X162887201Y-99911000D01*
X162887201Y-100035986D01*
X162897694Y-100138697D01*
X162915600Y-100192733D01*
X162915600Y-112064800D01*
X162102684Y-112064800D01*
X162093280Y-110003013D01*
X162112659Y-109935886D01*
X162165254Y-109889891D01*
X162217278Y-109878449D01*
X162332968Y-109878449D01*
X162426754Y-109863596D01*
X162539792Y-109806000D01*
X162629500Y-109716292D01*
X162687096Y-109603254D01*
X162687096Y-109603252D01*
X162687097Y-109603251D01*
X162698403Y-109531865D01*
X162701950Y-109509469D01*
X162701949Y-109046432D01*
X162687096Y-108952646D01*
X162629500Y-108839608D01*
X162629496Y-108839604D01*
X162629495Y-108839602D01*
X162539797Y-108749904D01*
X162539794Y-108749902D01*
X162539792Y-108749900D01*
X162462967Y-108710755D01*
X162426751Y-108692302D01*
X162332974Y-108677450D01*
X162332969Y-108677450D01*
X162210670Y-108677450D01*
X162143631Y-108657765D01*
X162097876Y-108604961D01*
X162086671Y-108554018D01*
X162085754Y-108353012D01*
X162105133Y-108285886D01*
X162157727Y-108239891D01*
X162209752Y-108228449D01*
X162332968Y-108228449D01*
X162426754Y-108213596D01*
X162539792Y-108156000D01*
X162629500Y-108066292D01*
X162687096Y-107953254D01*
X162687096Y-107953252D01*
X162687097Y-107953251D01*
X162701949Y-107859474D01*
X162701950Y-107859469D01*
X162701949Y-107396432D01*
X162687096Y-107302646D01*
X162629500Y-107189608D01*
X162602118Y-107162226D01*
X162583943Y-107139122D01*
X162372085Y-106791762D01*
X162353950Y-106727198D01*
X162353950Y-106006145D01*
X162354186Y-106000738D01*
X162356707Y-105971930D01*
X162357736Y-105960165D01*
X162357735Y-105960164D01*
X162357736Y-105960163D01*
X162347191Y-105920812D01*
X162346024Y-105915552D01*
X162338947Y-105875411D01*
X162338945Y-105875407D01*
X162337206Y-105870630D01*
X162329996Y-105853222D01*
X162327843Y-105848605D01*
X162304482Y-105815243D01*
X162301573Y-105810678D01*
X162281200Y-105775390D01*
X162281196Y-105775386D01*
X162249985Y-105749196D01*
X162245996Y-105745541D01*
X162109158Y-105608703D01*
X162075673Y-105547380D01*
X162072840Y-105521595D01*
X162059241Y-102539800D01*
X162059240Y-102539800D01*
X157722515Y-102539800D01*
X157655476Y-102520115D01*
X157609721Y-102467311D01*
X157598516Y-102416377D01*
X157590700Y-100735998D01*
X157585444Y-99606169D01*
X157604817Y-99539039D01*
X157657407Y-99493039D01*
X157710035Y-99481594D01*
X162538754Y-99504810D01*
X162580708Y-99500687D01*
X162623544Y-99491972D01*
X162630283Y-99490602D01*
X162630334Y-99490591D01*
X162634494Y-99489652D01*
X162638776Y-99488687D01*
X162720423Y-99447481D01*
X162744646Y-99427415D01*
X162808829Y-99399810D01*
X162876032Y-99411000D01*
G37*
%TD.AperFunction*%
%TA.AperFunction,Conductor*%
G36*
X143976403Y-104121629D02*
G01*
X144012906Y-104176338D01*
X144028341Y-104222919D01*
X144028343Y-104222924D01*
X144120384Y-104372145D01*
X144244354Y-104496115D01*
X144353100Y-104563190D01*
X144353100Y-106957100D01*
X143895200Y-106957100D01*
X143828161Y-106937415D01*
X143782406Y-106884611D01*
X143771200Y-106833100D01*
X143771200Y-104215342D01*
X143790885Y-104148303D01*
X143843689Y-104102548D01*
X143912847Y-104092604D01*
X143976403Y-104121629D01*
G37*
%TD.AperFunction*%
%TA.AperFunction,Conductor*%
G36*
X154056507Y-99061184D02*
G01*
X154123478Y-99081099D01*
X154169051Y-99134059D01*
X154179353Y-99171777D01*
X154179797Y-99175860D01*
X154179799Y-99175871D01*
X154204686Y-99254862D01*
X154210413Y-99291159D01*
X154251166Y-104527938D01*
X154232004Y-104595129D01*
X154179558Y-104641293D01*
X154110479Y-104651774D01*
X154046699Y-104623245D01*
X154039489Y-104616584D01*
X154010332Y-104587427D01*
X154010328Y-104587424D01*
X153866092Y-104498457D01*
X153866081Y-104498452D01*
X153776500Y-104468767D01*
X153776500Y-99237800D01*
X153107898Y-99237800D01*
X153090397Y-99195705D01*
X153102712Y-99126930D01*
X153150255Y-99075730D01*
X153214093Y-99058289D01*
X154056507Y-99061184D01*
G37*
%TD.AperFunction*%
%TA.AperFunction,Conductor*%
G36*
X152168004Y-99054694D02*
G01*
X152234974Y-99074609D01*
X152280547Y-99127569D01*
X152290252Y-99196762D01*
X152271340Y-99237800D01*
X144353100Y-99237800D01*
X144353100Y-100110008D01*
X144244354Y-100177084D01*
X144120384Y-100301054D01*
X144028343Y-100450275D01*
X144028341Y-100450280D01*
X144012906Y-100496862D01*
X143973133Y-100554307D01*
X143908617Y-100581130D01*
X143839842Y-100568815D01*
X143788642Y-100521272D01*
X143771200Y-100457858D01*
X143771200Y-99387208D01*
X143771199Y-99387192D01*
X143767333Y-99351241D01*
X143766503Y-99343516D01*
X143755297Y-99292005D01*
X143752810Y-99281827D01*
X143713644Y-99208329D01*
X143699489Y-99139912D01*
X143724572Y-99074699D01*
X143780929Y-99033400D01*
X143823497Y-99026018D01*
X152168004Y-99054694D01*
G37*
%TD.AperFunction*%
%TA.AperFunction,Conductor*%
G36*
X163412455Y-98365939D02*
G01*
X163479397Y-98385951D01*
X163524893Y-98438977D01*
X163533530Y-98501200D01*
X162915600Y-98501200D01*
X162915600Y-98816027D01*
X162904500Y-98807718D01*
X162880084Y-98742253D01*
X162879799Y-98730667D01*
X162885253Y-98485217D01*
X162906422Y-98418634D01*
X162960229Y-98374063D01*
X163009824Y-98363975D01*
X163412455Y-98365939D01*
G37*
%TD.AperFunction*%
%TA.AperFunction,Conductor*%
G36*
X166015737Y-98378637D02*
G01*
X166082676Y-98398649D01*
X166128173Y-98451675D01*
X166135047Y-98501200D01*
X165067370Y-98501200D01*
X165077747Y-98443246D01*
X165125290Y-98392047D01*
X165189306Y-98374606D01*
X166015737Y-98378637D01*
G37*
%TD.AperFunction*%
%TA.AperFunction,Conductor*%
G36*
X167893597Y-98387798D02*
G01*
X167893696Y-98387798D01*
X168104101Y-98387798D01*
X168171140Y-98407483D01*
X168216895Y-98460287D01*
X168222778Y-98501200D01*
X167750778Y-98501200D01*
X167758813Y-98456325D01*
X167806356Y-98405125D01*
X167870373Y-98387684D01*
X167893597Y-98387798D01*
G37*
%TD.AperFunction*%
%TA.AperFunction,Conductor*%
G36*
X151527156Y-93833154D02*
G01*
X151571505Y-93861655D01*
X151592554Y-93882704D01*
X151592555Y-93882706D01*
X151592556Y-93882706D01*
X151609996Y-93900146D01*
X151609996Y-93900147D01*
X151700420Y-93990571D01*
X151720392Y-94000746D01*
X151736972Y-94010906D01*
X151755106Y-94024082D01*
X151755108Y-94024082D01*
X151755109Y-94024083D01*
X151776413Y-94031005D01*
X151794392Y-94038452D01*
X151814358Y-94048625D01*
X151814359Y-94048626D01*
X151814360Y-94048626D01*
X151814362Y-94048627D01*
X151836494Y-94052131D01*
X151855410Y-94056673D01*
X151860790Y-94058421D01*
X151918466Y-94097857D01*
X151945665Y-94162216D01*
X151945638Y-94180585D01*
X151946047Y-94180588D01*
X151946011Y-94187551D01*
X151953480Y-94257019D01*
X151953481Y-94257023D01*
X151967943Y-94313686D01*
X151967945Y-94313692D01*
X151991184Y-94369797D01*
X151999561Y-94401060D01*
X151999859Y-94403322D01*
X152008835Y-94471498D01*
X152008877Y-94471812D01*
X152008877Y-94504186D01*
X151999563Y-94574930D01*
X151991185Y-94606196D01*
X151963879Y-94672119D01*
X151947693Y-94700154D01*
X151904253Y-94756765D01*
X151881365Y-94779653D01*
X151824755Y-94823092D01*
X151796721Y-94839278D01*
X151730796Y-94866585D01*
X151699529Y-94874963D01*
X151628785Y-94884277D01*
X151596413Y-94884277D01*
X151525668Y-94874963D01*
X151494402Y-94866585D01*
X151428476Y-94839278D01*
X151400441Y-94823092D01*
X151386484Y-94812382D01*
X151379517Y-94807036D01*
X151338316Y-94750607D01*
X151334163Y-94680860D01*
X151337300Y-94669658D01*
X151392655Y-94502606D01*
X151402799Y-94403322D01*
X151402800Y-94403309D01*
X151402800Y-94355000D01*
X150326800Y-94355000D01*
X150259761Y-94335315D01*
X150214006Y-94282511D01*
X150202800Y-94231000D01*
X150202800Y-93979000D01*
X150222485Y-93911961D01*
X150275289Y-93866206D01*
X150326800Y-93855000D01*
X151408330Y-93855000D01*
X151457464Y-93828170D01*
X151527156Y-93833154D01*
G37*
%TD.AperFunction*%
%TA.AperFunction,Conductor*%
G36*
X162728520Y-92832550D02*
G01*
X162768892Y-92872948D01*
X162857826Y-93017131D01*
X162977667Y-93136972D01*
X162977671Y-93136975D01*
X163078239Y-93199007D01*
X163124964Y-93250955D01*
X163136185Y-93319917D01*
X163108342Y-93383999D01*
X163100823Y-93392226D01*
X163100587Y-93392462D01*
X163060361Y-93419341D01*
X163036599Y-93429184D01*
X163005330Y-93437563D01*
X162934586Y-93446877D01*
X162902215Y-93446877D01*
X162820681Y-93436143D01*
X162778061Y-93434992D01*
X162773267Y-93435362D01*
X162773259Y-93435363D01*
X162756968Y-93438339D01*
X162718505Y-93439296D01*
X162610803Y-93425118D01*
X162610798Y-93425118D01*
X162532981Y-93435363D01*
X162454038Y-93445756D01*
X162454037Y-93445756D01*
X162445980Y-93446817D01*
X162445935Y-93446476D01*
X162424488Y-93449300D01*
X162351100Y-93449300D01*
X162284061Y-93429615D01*
X162238306Y-93376811D01*
X162227100Y-93325300D01*
X162227100Y-93167375D01*
X162246785Y-93100336D01*
X162252715Y-93091900D01*
X162262339Y-93079359D01*
X162292622Y-93006250D01*
X162302400Y-92982645D01*
X162346242Y-92928242D01*
X162412536Y-92906178D01*
X162416961Y-92906099D01*
X162431530Y-92906099D01*
X162431532Y-92906099D01*
X162511895Y-92890115D01*
X162594463Y-92834943D01*
X162661140Y-92814066D01*
X162728520Y-92832550D01*
G37*
%TD.AperFunction*%
%TA.AperFunction,Conductor*%
G36*
X166112023Y-91402785D02*
G01*
X166132665Y-91419419D01*
X166161381Y-91448135D01*
X166194866Y-91509458D01*
X166197700Y-91535816D01*
X166197700Y-92815500D01*
X166178015Y-92882539D01*
X166125211Y-92928294D01*
X166073700Y-92939500D01*
X165034730Y-92939500D01*
X165004305Y-92942353D01*
X164996930Y-92943964D01*
X164996668Y-92942767D01*
X164971342Y-92947071D01*
X164971351Y-92947255D01*
X164971353Y-92947267D01*
X164971352Y-92947267D01*
X164971361Y-92947433D01*
X164968279Y-92947592D01*
X164968246Y-92947598D01*
X164968155Y-92947598D01*
X164925972Y-92951975D01*
X164925967Y-92951976D01*
X164876189Y-92962416D01*
X164876173Y-92962420D01*
X164876161Y-92962422D01*
X164876160Y-92962423D01*
X164867444Y-92964450D01*
X164836705Y-92980246D01*
X164786101Y-93006249D01*
X164780305Y-93010105D01*
X164778638Y-93007599D01*
X164726782Y-93030238D01*
X164657800Y-93019135D01*
X164605772Y-92972500D01*
X164587215Y-92905139D01*
X164593492Y-92868216D01*
X164645256Y-92712005D01*
X164655399Y-92612722D01*
X164655400Y-92612709D01*
X164655400Y-92589400D01*
X163554400Y-92589400D01*
X163487361Y-92569715D01*
X163441606Y-92516911D01*
X163430400Y-92465400D01*
X163430400Y-92213400D01*
X163450085Y-92146361D01*
X163502889Y-92100606D01*
X163554400Y-92089400D01*
X164655399Y-92089400D01*
X164655399Y-92066092D01*
X164655398Y-92066077D01*
X164645255Y-91966792D01*
X164591947Y-91805918D01*
X164591942Y-91805907D01*
X164502975Y-91661671D01*
X164502972Y-91661667D01*
X164436086Y-91594781D01*
X164402601Y-91533458D01*
X164407585Y-91463766D01*
X164449457Y-91407833D01*
X164514921Y-91383416D01*
X164523767Y-91383100D01*
X166044984Y-91383100D01*
X166112023Y-91402785D01*
G37*
%TD.AperFunction*%
%TA.AperFunction,Conductor*%
G36*
X163364339Y-87220185D02*
G01*
X163410094Y-87272989D01*
X163421300Y-87324500D01*
X163421300Y-88318807D01*
X163425996Y-88362482D01*
X163437203Y-88413997D01*
X163439690Y-88424172D01*
X163439691Y-88424175D01*
X163482699Y-88504883D01*
X163482701Y-88504886D01*
X163528460Y-88557695D01*
X163543768Y-88573318D01*
X163546046Y-88575643D01*
X163546047Y-88575644D01*
X163546049Y-88575645D01*
X163625859Y-88620288D01*
X163625863Y-88620290D01*
X163692902Y-88639975D01*
X163750800Y-88648300D01*
X166073700Y-88648300D01*
X166140739Y-88667985D01*
X166186494Y-88720789D01*
X166197700Y-88772300D01*
X166197700Y-90069582D01*
X166178015Y-90136621D01*
X166161383Y-90157262D01*
X166126866Y-90191780D01*
X166065543Y-90225266D01*
X166039183Y-90228100D01*
X162674715Y-90228100D01*
X162645865Y-90223766D01*
X162645757Y-90224300D01*
X162639785Y-90223089D01*
X162427244Y-90201363D01*
X162427206Y-90201361D01*
X162393607Y-90200692D01*
X162393572Y-90200692D01*
X162389768Y-90200929D01*
X162369921Y-90203812D01*
X162352098Y-90205100D01*
X161077270Y-90205100D01*
X160996904Y-90221085D01*
X160905775Y-90281975D01*
X160844885Y-90373105D01*
X160844883Y-90373109D01*
X160828900Y-90453463D01*
X160828900Y-90657729D01*
X160836893Y-90697913D01*
X160844380Y-90735558D01*
X160844886Y-90738098D01*
X160849559Y-90749380D01*
X160848114Y-90749978D01*
X160864836Y-90803388D01*
X160848882Y-90861538D01*
X160849559Y-90861819D01*
X160847326Y-90867209D01*
X160846350Y-90870768D01*
X160844950Y-90872945D01*
X160844884Y-90873105D01*
X160828900Y-90953463D01*
X160828900Y-91157729D01*
X160844886Y-91238098D01*
X160849559Y-91249380D01*
X160848114Y-91249978D01*
X160864836Y-91303388D01*
X160848882Y-91361538D01*
X160849559Y-91361819D01*
X160847326Y-91367209D01*
X160846350Y-91370768D01*
X160844950Y-91372945D01*
X160844884Y-91373103D01*
X160834774Y-91423932D01*
X160802388Y-91485842D01*
X160788645Y-91498114D01*
X160694306Y-91570504D01*
X160602136Y-91690621D01*
X160544201Y-91830491D01*
X160544200Y-91830496D01*
X160534311Y-91905599D01*
X160534312Y-91905600D01*
X161069143Y-91905600D01*
X161075223Y-91905899D01*
X161077260Y-91906098D01*
X161077267Y-91906100D01*
X161780401Y-91906099D01*
X161847439Y-91925783D01*
X161893194Y-91978587D01*
X161904400Y-92030099D01*
X161904400Y-92080600D01*
X161884715Y-92147639D01*
X161831911Y-92193394D01*
X161780400Y-92204600D01*
X161687783Y-92204600D01*
X161679684Y-92204069D01*
X161656629Y-92201034D01*
X161645601Y-92199582D01*
X161645599Y-92199582D01*
X161632839Y-92201262D01*
X161607717Y-92204569D01*
X161599619Y-92205100D01*
X161160421Y-92205100D01*
X161139442Y-92203312D01*
X161136942Y-92202882D01*
X161136915Y-92202879D01*
X161122763Y-92201263D01*
X161122735Y-92201261D01*
X161111089Y-92200599D01*
X161111088Y-92200599D01*
X161097131Y-92200599D01*
X161092094Y-92200729D01*
X161091828Y-92200736D01*
X161091796Y-92200737D01*
X161086096Y-92201031D01*
X161086034Y-92201035D01*
X161080915Y-92201429D01*
X161043266Y-92205278D01*
X161036957Y-92205600D01*
X160520502Y-92205600D01*
X160492623Y-92223283D01*
X160458397Y-92228100D01*
X159881224Y-92228100D01*
X159814185Y-92208415D01*
X159793543Y-92191781D01*
X158507020Y-90905259D01*
X158437803Y-90836041D01*
X158434148Y-90832052D01*
X158407968Y-90800852D01*
X158407962Y-90800847D01*
X158372689Y-90780483D01*
X158368124Y-90777574D01*
X158332773Y-90752820D01*
X158289149Y-90698242D01*
X158279899Y-90651251D01*
X158279899Y-90453468D01*
X158263915Y-90373105D01*
X158231730Y-90324937D01*
X158203024Y-90281975D01*
X158120974Y-90227151D01*
X158076169Y-90173538D01*
X158067462Y-90104213D01*
X158097617Y-90041186D01*
X158102158Y-90036394D01*
X158195906Y-89942646D01*
X158236471Y-89915629D01*
X158794580Y-89686396D01*
X158841691Y-89677099D01*
X158905317Y-89677099D01*
X158905318Y-89677099D01*
X158999104Y-89662246D01*
X159112142Y-89604650D01*
X159124864Y-89591926D01*
X159162636Y-89566094D01*
X159307172Y-89502546D01*
X159376460Y-89493584D01*
X159387944Y-89495964D01*
X159666735Y-89567653D01*
X159666745Y-89567653D01*
X159671644Y-89568503D01*
X159671478Y-89569457D01*
X159698841Y-89576206D01*
X159724038Y-89586644D01*
X159860161Y-89604564D01*
X159880799Y-89607282D01*
X159880800Y-89607282D01*
X159880801Y-89607282D01*
X159933053Y-89600402D01*
X160037562Y-89586644D01*
X160183641Y-89526136D01*
X160309082Y-89429882D01*
X160405336Y-89304441D01*
X160465844Y-89158362D01*
X160482335Y-89033097D01*
X160486482Y-89001601D01*
X160486482Y-89001598D01*
X160468769Y-88867057D01*
X160465844Y-88844838D01*
X160405336Y-88698759D01*
X160309082Y-88573318D01*
X160183641Y-88477064D01*
X160100459Y-88442609D01*
X160037562Y-88416556D01*
X160037560Y-88416555D01*
X159880801Y-88395918D01*
X159880799Y-88395918D01*
X159724036Y-88416556D01*
X159698782Y-88427016D01*
X159670312Y-88434992D01*
X159666741Y-88435545D01*
X159666737Y-88435545D01*
X159666736Y-88435546D01*
X159505280Y-88477063D01*
X159387958Y-88507231D01*
X159318128Y-88504862D01*
X159307169Y-88500651D01*
X159175159Y-88442610D01*
X159162637Y-88437104D01*
X159124863Y-88411271D01*
X159112146Y-88398553D01*
X159112144Y-88398552D01*
X159112142Y-88398550D01*
X159010723Y-88346874D01*
X158999101Y-88340952D01*
X158905324Y-88326100D01*
X158442282Y-88326100D01*
X158361319Y-88338923D01*
X158348496Y-88340954D01*
X158235458Y-88398550D01*
X158235457Y-88398550D01*
X158235457Y-88398551D01*
X158235452Y-88398554D01*
X158145754Y-88488252D01*
X158145751Y-88488257D01*
X158145750Y-88488258D01*
X158138696Y-88502103D01*
X158088152Y-88601298D01*
X158073300Y-88695075D01*
X158073300Y-88751552D01*
X158061468Y-88804413D01*
X157860467Y-89230931D01*
X157814083Y-89283182D01*
X157746812Y-89302061D01*
X157680013Y-89281574D01*
X157634895Y-89228225D01*
X157624299Y-89178073D01*
X157624299Y-88695082D01*
X157609446Y-88601296D01*
X157609444Y-88601292D01*
X157607561Y-88595498D01*
X157602279Y-88581181D01*
X157602203Y-88581208D01*
X157600842Y-88577286D01*
X157600281Y-88575764D01*
X157600206Y-88575456D01*
X157600206Y-88575451D01*
X157553616Y-88441140D01*
X157550244Y-88371353D01*
X157551270Y-88367398D01*
X157551947Y-88364956D01*
X157600836Y-88188487D01*
X157600837Y-88188477D01*
X157601792Y-88183452D01*
X157602288Y-88183546D01*
X157609452Y-88155343D01*
X157621044Y-88127362D01*
X157641682Y-87970600D01*
X157641274Y-87967504D01*
X157626553Y-87855681D01*
X157621044Y-87813838D01*
X157560536Y-87667759D01*
X157464282Y-87542318D01*
X157338841Y-87446064D01*
X157321933Y-87439060D01*
X157267531Y-87395220D01*
X157245466Y-87328926D01*
X157262745Y-87261227D01*
X157313882Y-87213616D01*
X157369387Y-87200500D01*
X163297300Y-87200500D01*
X163364339Y-87220185D01*
G37*
%TD.AperFunction*%
%TD*%
%TA.AperFunction,Conductor*%
%TO.N,GND*%
G36*
X153776500Y-106578400D02*
G01*
X154447297Y-106578400D01*
X154469444Y-106590788D01*
X154469448Y-106590790D01*
X154536487Y-106610475D01*
X154594385Y-106618800D01*
X154757399Y-106618800D01*
X154824438Y-106638485D01*
X154870193Y-106691289D01*
X154881399Y-106742800D01*
X154881399Y-107761089D01*
X154881578Y-107764406D01*
X154881399Y-107764415D01*
X154881400Y-107764419D01*
X154881336Y-107764419D01*
X154880368Y-107764470D01*
X154868848Y-107828386D01*
X154821247Y-107879531D01*
X154757955Y-107896900D01*
X151858800Y-107896900D01*
X151791761Y-107877215D01*
X151746006Y-107824411D01*
X151734800Y-107772900D01*
X151734800Y-107141449D01*
X151734799Y-107141447D01*
X151723168Y-107082970D01*
X151723167Y-107082969D01*
X151678852Y-107016647D01*
X151612530Y-106972332D01*
X151596131Y-106969070D01*
X151534221Y-106936683D01*
X151499648Y-106875967D01*
X151503389Y-106806197D01*
X151521947Y-106771971D01*
X151610136Y-106657041D01*
X151670644Y-106510962D01*
X151691282Y-106354200D01*
X151670644Y-106197438D01*
X151610136Y-106051359D01*
X151513882Y-105925918D01*
X151388441Y-105829664D01*
X151242362Y-105769156D01*
X151242360Y-105769155D01*
X151085601Y-105748518D01*
X151085599Y-105748518D01*
X150928839Y-105769155D01*
X150928837Y-105769156D01*
X150782760Y-105829663D01*
X150657316Y-105925919D01*
X150561063Y-106051359D01*
X150550605Y-106076606D01*
X150536110Y-106102381D01*
X150533980Y-106105290D01*
X150210301Y-106653055D01*
X150191227Y-106677653D01*
X149948099Y-106920782D01*
X149886779Y-106954266D01*
X149860420Y-106957100D01*
X147652092Y-106957100D01*
X147621929Y-106960344D01*
X147615296Y-106960700D01*
X147514547Y-106960700D01*
X147456070Y-106972331D01*
X147456069Y-106972332D01*
X147389747Y-107016647D01*
X147345432Y-107082969D01*
X147345431Y-107082970D01*
X147333800Y-107141447D01*
X147333800Y-107202153D01*
X147331418Y-107224298D01*
X147331555Y-107224318D01*
X147331004Y-107228144D01*
X147330965Y-107228515D01*
X147330925Y-107228697D01*
X147322600Y-107286601D01*
X147322600Y-110035807D01*
X147327296Y-110079480D01*
X147327297Y-110079487D01*
X147330966Y-110096349D01*
X147333800Y-110122709D01*
X147333800Y-110180952D01*
X147345431Y-110239429D01*
X147345432Y-110239430D01*
X147389747Y-110305752D01*
X147456069Y-110350067D01*
X147456070Y-110350068D01*
X147514547Y-110361699D01*
X147514550Y-110361700D01*
X147514552Y-110361700D01*
X147618193Y-110361700D01*
X147635839Y-110362961D01*
X147652100Y-110365300D01*
X147652101Y-110365300D01*
X151417291Y-110365300D01*
X151417300Y-110365300D01*
X151439044Y-110362962D01*
X151447471Y-110362056D01*
X151454104Y-110361700D01*
X151554050Y-110361700D01*
X151554051Y-110361699D01*
X151568868Y-110358752D01*
X151612529Y-110350068D01*
X151612529Y-110350067D01*
X151612531Y-110350067D01*
X151678852Y-110305752D01*
X151723167Y-110239431D01*
X151723167Y-110239429D01*
X151723168Y-110239429D01*
X151734799Y-110180952D01*
X151734800Y-110180950D01*
X151734800Y-110123921D01*
X151737634Y-110097561D01*
X151738470Y-110093714D01*
X151738475Y-110093698D01*
X151746800Y-110035800D01*
X151746800Y-109471308D01*
X151766485Y-109404269D01*
X151819289Y-109358514D01*
X151870043Y-109347311D01*
X154768257Y-109329744D01*
X154835412Y-109349022D01*
X154881486Y-109401548D01*
X154891230Y-109466520D01*
X154892116Y-109466584D01*
X154891833Y-109470538D01*
X154891849Y-109470645D01*
X154891801Y-109470981D01*
X154891800Y-109471001D01*
X154891800Y-110642400D01*
X153751100Y-110642400D01*
X153751100Y-117906800D01*
X144353100Y-117932200D01*
X144353100Y-110365300D01*
X145016491Y-110365300D01*
X145016500Y-110365300D01*
X145038244Y-110362962D01*
X145046671Y-110362056D01*
X145053304Y-110361700D01*
X145154050Y-110361700D01*
X145154051Y-110361699D01*
X145168868Y-110358752D01*
X145212529Y-110350068D01*
X145212529Y-110350067D01*
X145212531Y-110350067D01*
X145278852Y-110305752D01*
X145323167Y-110239431D01*
X145323167Y-110239429D01*
X145323168Y-110239429D01*
X145334799Y-110180952D01*
X145334800Y-110180950D01*
X145334800Y-110120246D01*
X145337180Y-110098100D01*
X145337044Y-110098081D01*
X145337592Y-110094269D01*
X145337632Y-110093898D01*
X145337671Y-110093714D01*
X145337671Y-110093709D01*
X145337675Y-110093698D01*
X145346000Y-110035800D01*
X145346000Y-107286600D01*
X145341303Y-107242916D01*
X145337634Y-107226050D01*
X145334800Y-107199691D01*
X145334800Y-107141449D01*
X145334799Y-107141447D01*
X145323168Y-107082970D01*
X145323167Y-107082969D01*
X145278852Y-107016647D01*
X145212530Y-106972332D01*
X145212529Y-106972331D01*
X145154052Y-106960700D01*
X145154048Y-106960700D01*
X145050407Y-106960700D01*
X145032760Y-106959438D01*
X145016500Y-106957100D01*
X145016499Y-106957100D01*
X144353100Y-106957100D01*
X144353100Y-99237800D01*
X153776500Y-99237800D01*
X153776500Y-106578400D01*
G37*
%TD.AperFunction*%
%TD*%
%TA.AperFunction,Conductor*%
%TO.N,GND*%
G36*
X171289314Y-97595913D02*
G01*
X171292040Y-97596408D01*
X171294595Y-97596930D01*
X171313838Y-97600867D01*
X171313841Y-97600866D01*
X171315956Y-97601299D01*
X171317995Y-97601752D01*
X171325357Y-97603521D01*
X171373330Y-97609199D01*
X171373333Y-97609200D01*
X171373336Y-97609200D01*
X171706991Y-97609200D01*
X171707000Y-97609200D01*
X171716842Y-97608141D01*
X171785599Y-97620543D01*
X171836739Y-97668151D01*
X171854100Y-97731430D01*
X171854100Y-100279900D01*
X171834415Y-100346939D01*
X171781611Y-100392694D01*
X171730100Y-100403900D01*
X169922992Y-100403900D01*
X169879317Y-100408596D01*
X169827802Y-100419803D01*
X169817627Y-100422290D01*
X169736917Y-100465298D01*
X169736916Y-100465299D01*
X169720878Y-100479195D01*
X169714719Y-100483891D01*
X169687249Y-100502247D01*
X169687243Y-100502253D01*
X169683285Y-100508176D01*
X169666981Y-100527837D01*
X169666161Y-100528639D01*
X169666156Y-100528647D01*
X169649602Y-100558239D01*
X169647046Y-100562411D01*
X169642932Y-100568568D01*
X169641779Y-100571353D01*
X169638610Y-100577890D01*
X169621511Y-100608460D01*
X169601826Y-100675496D01*
X169601825Y-100675501D01*
X169601825Y-100675502D01*
X169593502Y-100733392D01*
X169593500Y-100733403D01*
X169593500Y-101248348D01*
X169573815Y-101315387D01*
X169521011Y-101361142D01*
X169453315Y-101371287D01*
X169291001Y-101349918D01*
X169290999Y-101349918D01*
X169134239Y-101370555D01*
X169134237Y-101370556D01*
X168988160Y-101431063D01*
X168862718Y-101527318D01*
X168766463Y-101652760D01*
X168705956Y-101798837D01*
X168705955Y-101798839D01*
X168685318Y-101955598D01*
X168685318Y-101955601D01*
X168705955Y-102112360D01*
X168705956Y-102112362D01*
X168766464Y-102258441D01*
X168862718Y-102383882D01*
X168988159Y-102480136D01*
X169134238Y-102540644D01*
X169210447Y-102550677D01*
X169290999Y-102561282D01*
X169291000Y-102561282D01*
X169447762Y-102540644D01*
X169447765Y-102540642D01*
X169453314Y-102539912D01*
X169522349Y-102550677D01*
X169574605Y-102597057D01*
X169593500Y-102662851D01*
X169593500Y-106048007D01*
X169598196Y-106091682D01*
X169603599Y-106116518D01*
X169609403Y-106143195D01*
X169609406Y-106143206D01*
X169611890Y-106153372D01*
X169611892Y-106153380D01*
X169630065Y-106187482D01*
X169642249Y-106221598D01*
X169642931Y-106225026D01*
X169642932Y-106225029D01*
X169687247Y-106291352D01*
X169713812Y-106309101D01*
X169753569Y-106335667D01*
X169765036Y-106337947D01*
X169791287Y-106347627D01*
X169791639Y-106346791D01*
X169798057Y-106349488D01*
X169798062Y-106349489D01*
X169798063Y-106349490D01*
X169865102Y-106369175D01*
X169923000Y-106377500D01*
X169923004Y-106377500D01*
X175135991Y-106377500D01*
X175136000Y-106377500D01*
X175179684Y-106372803D01*
X175231195Y-106361597D01*
X175241373Y-106359110D01*
X175254509Y-106352109D01*
X175288635Y-106339922D01*
X175310031Y-106335667D01*
X175376352Y-106291352D01*
X175420667Y-106225031D01*
X175423637Y-106210093D01*
X175434947Y-106179416D01*
X175434794Y-106179352D01*
X175436233Y-106175927D01*
X175437037Y-106173745D01*
X175437490Y-106172937D01*
X175457175Y-106105898D01*
X175465500Y-106048000D01*
X175465500Y-100733400D01*
X175460803Y-100689716D01*
X175449597Y-100638205D01*
X175447110Y-100628027D01*
X175432402Y-100600426D01*
X175423276Y-100574867D01*
X175420667Y-100568570D01*
X175420667Y-100568569D01*
X175376352Y-100502248D01*
X175356841Y-100489211D01*
X175347911Y-100481804D01*
X175347803Y-100481947D01*
X175340752Y-100476555D01*
X175325394Y-100467965D01*
X175321218Y-100465407D01*
X175310031Y-100457932D01*
X175303480Y-100455219D01*
X175296942Y-100452049D01*
X175283927Y-100444769D01*
X175260942Y-100431912D01*
X175260942Y-100431911D01*
X175193903Y-100412226D01*
X175193899Y-100412225D01*
X175193898Y-100412225D01*
X175136000Y-100403900D01*
X175135996Y-100403900D01*
X173405100Y-100403900D01*
X173338061Y-100384215D01*
X173292306Y-100331411D01*
X173281100Y-100279900D01*
X173281100Y-97731153D01*
X173300785Y-97664114D01*
X173353589Y-97618359D01*
X173422743Y-97608415D01*
X173428200Y-97609200D01*
X173428201Y-97609200D01*
X173769868Y-97609200D01*
X173809540Y-97604503D01*
X173817844Y-97603520D01*
X173831535Y-97600232D01*
X173838701Y-97598512D01*
X173843480Y-97597561D01*
X173852439Y-97596141D01*
X173852440Y-97596142D01*
X173927202Y-97584301D01*
X173965993Y-97584301D01*
X174039314Y-97595913D01*
X174042040Y-97596408D01*
X174044595Y-97596930D01*
X174063838Y-97600867D01*
X174063841Y-97600866D01*
X174065956Y-97601299D01*
X174067995Y-97601752D01*
X174075357Y-97603521D01*
X174123330Y-97609199D01*
X174123333Y-97609200D01*
X174123336Y-97609200D01*
X174442599Y-97609200D01*
X174509638Y-97628885D01*
X174555393Y-97681689D01*
X174566599Y-97733200D01*
X174566599Y-97941497D01*
X174564217Y-97965686D01*
X174559397Y-97989917D01*
X174556157Y-98022820D01*
X174555449Y-98030008D01*
X174555449Y-98078391D01*
X174559398Y-98118482D01*
X174567532Y-98159378D01*
X174567534Y-98159385D01*
X174570616Y-98171175D01*
X174570623Y-98171199D01*
X174581616Y-98204923D01*
X174581618Y-98204928D01*
X174599600Y-98236532D01*
X174599600Y-98552000D01*
X182575200Y-98577400D01*
X182549800Y-99009200D01*
X182626000Y-112191800D01*
X183422235Y-112212753D01*
X183591200Y-112381718D01*
X183591200Y-114706400D01*
X175465500Y-114706400D01*
X175465500Y-113230775D01*
X175460702Y-113186629D01*
X175449257Y-113134596D01*
X175446619Y-113123963D01*
X175431775Y-113096415D01*
X175425758Y-113079684D01*
X175425343Y-113079857D01*
X175420668Y-113068571D01*
X175376351Y-113002246D01*
X175363649Y-112993759D01*
X175344372Y-112977848D01*
X175339565Y-112972987D01*
X175289708Y-112945401D01*
X175259540Y-112928709D01*
X175259537Y-112928708D01*
X175259535Y-112928707D01*
X175192417Y-112909336D01*
X175192404Y-112909333D01*
X175134479Y-112901278D01*
X175134477Y-112901278D01*
X173039114Y-112910979D01*
X169896069Y-112925530D01*
X169852868Y-112930327D01*
X169852865Y-112930328D01*
X169801958Y-112941527D01*
X169801951Y-112941528D01*
X169795328Y-112943155D01*
X169792227Y-112943917D01*
X169792226Y-112943917D01*
X169792224Y-112943918D01*
X169789441Y-112945401D01*
X169755331Y-112957582D01*
X169753572Y-112957931D01*
X169753565Y-112957934D01*
X169687250Y-113002246D01*
X169686642Y-113002854D01*
X169665583Y-113026725D01*
X169658718Y-113032675D01*
X169658709Y-113032683D01*
X169640760Y-113050269D01*
X169640754Y-113050276D01*
X169596111Y-113130086D01*
X169596109Y-113130091D01*
X169576426Y-113197123D01*
X169568100Y-113255030D01*
X169568100Y-114706400D01*
X161438651Y-114706400D01*
X161438548Y-114693863D01*
X161419943Y-114660118D01*
X161417000Y-114633264D01*
X161417000Y-112188800D01*
X161436685Y-112121761D01*
X161489489Y-112076006D01*
X161541000Y-112064800D01*
X162102684Y-112064800D01*
X162915600Y-112064800D01*
X162915600Y-98501200D01*
X170535600Y-98501200D01*
X170535599Y-98231146D01*
X170563559Y-98177661D01*
X170582997Y-98122533D01*
X170583812Y-98118434D01*
X170587757Y-98078333D01*
X170587751Y-98029984D01*
X170583803Y-97989921D01*
X170578982Y-97965681D01*
X170576600Y-97941493D01*
X170576600Y-97733200D01*
X170596285Y-97666161D01*
X170649089Y-97620406D01*
X170700600Y-97609200D01*
X171019868Y-97609200D01*
X171059540Y-97604503D01*
X171067844Y-97603520D01*
X171081535Y-97600232D01*
X171088701Y-97598512D01*
X171093480Y-97597561D01*
X171102439Y-97596141D01*
X171102440Y-97596142D01*
X171177202Y-97584301D01*
X171215993Y-97584301D01*
X171289314Y-97595913D01*
G37*
%TD.AperFunction*%
%TD*%
%TA.AperFunction,Conductor*%
%TO.N,/+12V*%
G36*
X149701028Y-81909510D02*
G01*
X149746991Y-81962134D01*
X149758400Y-82014089D01*
X149758400Y-85090006D01*
X149781480Y-85416969D01*
X149766565Y-85485228D01*
X149717114Y-85534587D01*
X149657788Y-85549700D01*
X148443247Y-85549700D01*
X148384770Y-85561331D01*
X148384769Y-85561332D01*
X148318447Y-85605647D01*
X148274132Y-85671969D01*
X148274131Y-85671970D01*
X148262500Y-85730447D01*
X148262500Y-86379952D01*
X148274131Y-86438429D01*
X148274132Y-86438430D01*
X148318447Y-86504752D01*
X148384769Y-86549067D01*
X148384770Y-86549068D01*
X148443247Y-86560699D01*
X148443250Y-86560700D01*
X148443252Y-86560700D01*
X148825859Y-86560700D01*
X148892898Y-86580385D01*
X148899478Y-86584919D01*
X149047926Y-86694461D01*
X149090181Y-86750106D01*
X149098300Y-86794237D01*
X149098300Y-86967448D01*
X149094914Y-86996227D01*
X149093815Y-87000832D01*
X149072089Y-87159516D01*
X149073328Y-87186892D01*
X149071073Y-87216681D01*
X149061500Y-87264814D01*
X149061500Y-88702380D01*
X149074803Y-88769265D01*
X149074804Y-88769268D01*
X149125484Y-88845116D01*
X149201332Y-88895796D01*
X149201333Y-88895796D01*
X149201334Y-88895797D01*
X149241389Y-88903763D01*
X149268217Y-88909100D01*
X149735782Y-88909099D01*
X149802668Y-88895796D01*
X149878516Y-88845116D01*
X149929196Y-88769268D01*
X149942500Y-88702383D01*
X149942499Y-87372999D01*
X149962184Y-87305961D01*
X150014987Y-87260206D01*
X150066499Y-87249000D01*
X150237500Y-87249000D01*
X150304539Y-87268685D01*
X150350294Y-87321489D01*
X150361500Y-87373000D01*
X150361500Y-88702381D01*
X150361501Y-88702382D01*
X150376349Y-88777037D01*
X150370120Y-88846628D01*
X150353107Y-88876711D01*
X150275264Y-88978157D01*
X150214756Y-89124237D01*
X150214755Y-89124239D01*
X150194118Y-89280998D01*
X150194118Y-89281001D01*
X150202414Y-89344015D01*
X150191648Y-89413050D01*
X150145268Y-89465306D01*
X150079475Y-89484200D01*
X149098000Y-89484200D01*
X149098000Y-91445601D01*
X149078315Y-91512640D01*
X149077104Y-91514489D01*
X149074803Y-91517932D01*
X149061500Y-91584812D01*
X149061500Y-92892196D01*
X149041815Y-92959235D01*
X148989011Y-93004990D01*
X148938583Y-93016191D01*
X143406768Y-93064505D01*
X143339559Y-93045407D01*
X143293345Y-92993005D01*
X143281685Y-92940230D01*
X143306519Y-82038230D01*
X143326357Y-81971236D01*
X143379265Y-81925602D01*
X143430027Y-81914514D01*
X149633912Y-81890090D01*
X149701028Y-81909510D01*
G37*
%TD.AperFunction*%
%TD*%
%TA.AperFunction,Conductor*%
%TO.N,/+3V3*%
G36*
X143508739Y-99282885D02*
G01*
X143554494Y-99335689D01*
X143565700Y-99387200D01*
X143565700Y-107162600D01*
X145016500Y-107162600D01*
X145083539Y-107182285D01*
X145129294Y-107235089D01*
X145140500Y-107286600D01*
X145140500Y-110035800D01*
X145120815Y-110102839D01*
X145068011Y-110148594D01*
X145016500Y-110159800D01*
X143641900Y-110159800D01*
X143641900Y-117808200D01*
X143622215Y-117875239D01*
X143569411Y-117920994D01*
X143517900Y-117932200D01*
X141225732Y-117932200D01*
X141158693Y-117912515D01*
X141112938Y-117859711D01*
X141101732Y-117808369D01*
X141076669Y-99387369D01*
X141096262Y-99320303D01*
X141149004Y-99274476D01*
X141200669Y-99263200D01*
X143441700Y-99263200D01*
X143508739Y-99282885D01*
G37*
%TD.AperFunction*%
%TD*%
%TA.AperFunction,Conductor*%
%TO.N,/+5V*%
G36*
X175202556Y-113126150D02*
G01*
X175248555Y-113178742D01*
X175260000Y-113230775D01*
X175260000Y-115290600D01*
X183517430Y-115315622D01*
X183584408Y-115335509D01*
X183630003Y-115388452D01*
X183641049Y-115440568D01*
X183617537Y-118520626D01*
X183597342Y-118587513D01*
X183544190Y-118632863D01*
X183493824Y-118643679D01*
X161467480Y-118693911D01*
X161400396Y-118674379D01*
X161354520Y-118621680D01*
X161343220Y-118567542D01*
X161378900Y-116700331D01*
X161378899Y-116700317D01*
X161378900Y-116700300D01*
X161344014Y-115316506D01*
X161362003Y-115248994D01*
X161413637Y-115201923D01*
X161468347Y-115189384D01*
X169773600Y-115214400D01*
X169773600Y-115214399D01*
X169773600Y-113255027D01*
X169793285Y-113187988D01*
X169846089Y-113142233D01*
X169897023Y-113131028D01*
X175135428Y-113106776D01*
X175202556Y-113126150D01*
G37*
%TD.AperFunction*%
%TD*%
M02*
