M48
; DRILL file {KiCad 7.99.0-3012-g423a5b9961} date 2023-12-02T08:16:08-0500
; FORMAT={-:-/ absolute / inch / decimal}
; #@! TF.CreationDate,2023-12-02T08:16:08-05:00
; #@! TF.GenerationSoftware,Kicad,Pcbnew,7.99.0-3012-g423a5b9961
; #@! TF.FileFunction,Plated,1,4,PTH
FMAT,2
INCH
; #@! TA.AperFunction,Plated,PTH,ViaDrill
T1C0.0157
; #@! TA.AperFunction,Plated,PTH,ComponentDrill
T2C0.0394
; #@! TA.AperFunction,Plated,PTH,ComponentDrill
T3C0.0402
; #@! TA.AperFunction,Plated,PTH,ComponentDrill
T4C0.0512
; #@! TA.AperFunction,Plated,PTH,ComponentDrill
T5C0.0709
; #@! TA.AperFunction,Plated,PTH,ComponentDrill
T6C0.0949
%
G90
G05
T1
X4.7075Y-3.893
X4.7075Y-3.952
X4.7075Y-4.012
X4.728Y-3.697
X4.728Y-3.758
X4.731Y-3.634
X4.758Y-4.368
X4.758Y-4.43
X4.758Y-4.489
X4.758Y-4.549
X4.758Y-4.609
X4.759Y-4.067
X4.759Y-4.129
X4.759Y-4.188
X4.759Y-4.248
X4.759Y-4.308
X4.815Y-4.368
X4.815Y-4.43
X4.815Y-4.489
X4.815Y-4.549
X4.815Y-4.609
X4.816Y-4.067
X4.816Y-4.129
X4.816Y-4.188
X4.816Y-4.248
X4.816Y-4.308
X4.8616Y-4.0024
X4.878Y-4.129
X4.878Y-4.188
X4.878Y-4.248
X4.878Y-4.308
X4.891Y-3.631
X4.927Y-4.066
X4.928Y-4.015
X4.96Y-3.634
X4.969Y-4.56
X4.969Y-4.612
X4.9722Y-3.8247
X4.9724Y-3.8641
X4.977Y-3.961
X4.977Y-4.014
X4.977Y-4.064
X4.98Y-4.373
X5.005Y-3.663
X5.005Y-3.728
X5.0114Y-3.8641
X5.0116Y-3.8235
X5.023Y-4.56
X5.023Y-4.612
X5.029Y-3.941
X5.034Y-3.698
X5.038Y-3.7596
X5.046Y-3.663
X5.074Y-4.56
X5.074Y-4.611
X5.075Y-3.698
X5.088Y-3.663
X5.098Y-3.85
X5.117Y-3.698
X5.121Y-4.56
X5.121Y-4.612
X5.129Y-3.663
X5.138Y-3.85
X5.158Y-3.698
X5.158Y-3.886
X5.171Y-3.663
X5.175Y-4.56
X5.175Y-4.612
X5.178Y-3.85
X5.2Y-3.698
X5.2Y-3.886
X5.214Y-3.663
X5.218Y-3.85
X5.226Y-4.56
X5.226Y-4.611
X5.24Y-3.546
X5.24Y-3.886
X5.242Y-3.276
X5.243Y-3.698
X5.254Y-3.663
X5.258Y-3.85
X5.28Y-3.886
X5.283Y-3.698
X5.294Y-3.546
X5.296Y-3.276
X5.329Y-4.214
X5.341Y-4.3351
X5.343Y-4.2751
X5.344Y-3.276
X5.344Y-3.324
X5.344Y-3.504
X5.344Y-3.546
X5.35Y-3.943
X5.351Y-4.059
X5.352Y-4.002
X5.368Y-4.57
X5.369Y-4.879
X5.37Y-4.796
X5.372Y-3.64
X5.372Y-3.678
X5.372Y-3.718
X5.372Y-3.754
X5.387Y-4.663
X5.387Y-4.723
X5.414Y-3.754
X5.425Y-4.57
X5.456Y-3.754
X5.487Y-4.57
X5.498Y-4.324
X5.5Y-4.38
X5.5013Y-3.9567
X5.549Y-4.38
X5.55Y-4.33
X5.565Y-3.914
X5.576Y-4.839
X5.576Y-4.89
X5.577Y-4.786
X5.5938Y-4.1476
X5.5938Y-4.1857
X5.602Y-4.279
X5.602Y-4.33
X5.602Y-4.38
X5.606Y-3.92
X5.614Y-3.618
X5.624Y-3.996
X5.626Y-3.472
X5.627Y-4.064
X5.627Y-4.839
X5.627Y-4.89
X5.6323Y-4.1859
X5.6332Y-4.1471
X5.65Y-4.262
X5.656Y-4.034
X5.668Y-3.999
X5.671Y-4.075
X5.682Y-4.839
X5.682Y-4.89
X5.697Y-4.034
X5.71Y-3.999
X5.72Y-4.186
X5.733Y-4.839
X5.733Y-4.89
X5.739Y-4.034
X5.751Y-3.999
X5.76Y-4.186
X5.78Y-4.034
X5.78Y-4.222
X5.792Y-3.256
X5.793Y-3.999
X5.796Y-3.922
X5.8Y-4.186
X5.822Y-4.034
X5.822Y-4.222
X5.836Y-3.999
X5.84Y-4.186
X5.848Y-3.7535
X5.85Y-3.6035
X5.862Y-4.222
X5.865Y-4.034
X5.876Y-3.999
X5.88Y-4.186
X5.902Y-4.222
X5.905Y-4.034
X5.906Y-3.7295
X5.968Y-3.324
X5.968Y-3.37
X5.968Y-3.42
X5.968Y-3.468
X5.972Y-3.6442
X5.972Y-3.6835
X5.9721Y-3.7275
X6.02Y-3.324
X6.02Y-3.37
X6.02Y-3.42
X6.02Y-3.468
X6.062Y-4.241
X6.07Y-3.256
X6.07Y-3.324
X6.07Y-3.37
X6.07Y-3.42
X6.07Y-3.468
X6.0781Y-3.7755
X6.122Y-3.324
X6.122Y-3.37
X6.122Y-3.42
X6.122Y-3.468
X6.16Y-3.778
X6.16Y-3.832
X6.16Y-3.882
X6.17Y-3.372
X6.17Y-3.418
X6.21Y-3.778
X6.21Y-3.832
X6.21Y-3.882
X6.218Y-3.418
X6.262Y-3.778
X6.262Y-3.832
X6.262Y-3.882
T2
X6.424Y-3.58
X6.424Y-3.68
T3
X6.1217Y-3.951
X6.1217Y-4.0691
X6.1217Y-4.1872
X6.1217Y-4.3054
X6.2398Y-3.951
X6.2398Y-4.0691
X6.2398Y-4.1872
X6.2398Y-4.3054
T4
X5.9819Y-4.7311
X6.1788Y-4.7311
X6.3756Y-4.7311
T5
X5.0534Y-3.409
X5.2699Y-3.409
T6
X6.4098Y-3.8664
X6.4098Y-4.39
T0
M30
