%TF.GenerationSoftware,KiCad,Pcbnew,7.99.0-957-g18dd623122*%
%TF.CreationDate,2023-07-07T15:53:50+08:00*%
%TF.ProjectId,power,706f7765-722e-46b6-9963-61645f706362,V2*%
%TF.SameCoordinates,Original*%
%TF.FileFunction,Copper,L4,Bot*%
%TF.FilePolarity,Positive*%
%FSLAX46Y46*%
G04 Gerber Fmt 4.6, Leading zero omitted, Abs format (unit mm)*
G04 Created by KiCad (PCBNEW 7.99.0-957-g18dd623122) date 2023-07-07 15:53:50*
%MOMM*%
%LPD*%
G01*
G04 APERTURE LIST*
G04 Aperture macros list*
%AMFreePoly0*
4,1,19,0.500000,-0.750000,0.000000,-0.750000,0.000000,-0.744911,-0.071157,-0.744911,-0.207708,-0.704816,-0.327430,-0.627875,-0.420627,-0.520320,-0.479746,-0.390866,-0.500000,-0.250000,-0.500000,0.250000,-0.479746,0.390866,-0.420627,0.520320,-0.327430,0.627875,-0.207708,0.704816,-0.071157,0.744911,0.000000,0.744911,0.000000,0.750000,0.500000,0.750000,0.500000,-0.750000,0.500000,-0.750000,
$1*%
%AMFreePoly1*
4,1,19,0.000000,0.744911,0.071157,0.744911,0.207708,0.704816,0.327430,0.627875,0.420627,0.520320,0.479746,0.390866,0.500000,0.250000,0.500000,-0.250000,0.479746,-0.390866,0.420627,-0.520320,0.327430,-0.627875,0.207708,-0.704816,0.071157,-0.744911,0.000000,-0.744911,0.000000,-0.750000,-0.500000,-0.750000,-0.500000,0.750000,0.000000,0.750000,0.000000,0.744911,0.000000,0.744911,
$1*%
G04 Aperture macros list end*
%TA.AperFunction,ComponentPad*%
%ADD10R,1.500000X5.650000*%
%TD*%
%TA.AperFunction,ComponentPad*%
%ADD11O,1.500000X5.650000*%
%TD*%
%TA.AperFunction,ComponentPad*%
%ADD12R,1.520000X1.520000*%
%TD*%
%TA.AperFunction,ComponentPad*%
%ADD13C,1.520000*%
%TD*%
%TA.AperFunction,ComponentPad*%
%ADD14C,2.909999*%
%TD*%
%TA.AperFunction,SMDPad,CuDef*%
%ADD15R,0.350000X1.950000*%
%TD*%
%TA.AperFunction,ComponentPad*%
%ADD16R,1.800000X1.800000*%
%TD*%
%TA.AperFunction,ComponentPad*%
%ADD17C,1.800000*%
%TD*%
%TA.AperFunction,SMDPad,CuDef*%
%ADD18FreePoly0,180.000000*%
%TD*%
%TA.AperFunction,SMDPad,CuDef*%
%ADD19FreePoly1,180.000000*%
%TD*%
%TA.AperFunction,ViaPad*%
%ADD20C,0.800000*%
%TD*%
%TA.AperFunction,Conductor*%
%ADD21C,0.406400*%
%TD*%
%TA.AperFunction,Conductor*%
%ADD22C,0.254000*%
%TD*%
G04 APERTURE END LIST*
D10*
%TO.P,J1,1,Pin_1*%
%TO.N,/+12V*%
X140030800Y-88457600D03*
D11*
%TO.P,J1,2,Pin_2*%
%TO.N,GND*%
X132540800Y-88457600D03*
%TD*%
D12*
%TO.P,J3,1,Pin_1*%
%TO.N,/VIN*%
X127894999Y-111554648D03*
D13*
%TO.P,J3,2,Pin_2*%
X127894999Y-108554649D03*
%TO.P,J3,3,Pin_3*%
X127894999Y-105554650D03*
%TO.P,J3,4,Pin_4*%
%TO.N,/+3V3*%
X127894999Y-102554651D03*
%TO.P,J3,5,Pin_5*%
%TO.N,GND*%
X130894998Y-111554648D03*
%TO.P,J3,6,Pin_6*%
X130894998Y-108554649D03*
%TO.P,J3,7,Pin_7*%
X130894998Y-105554650D03*
%TO.P,J3,8,Pin_8*%
X130894998Y-102554651D03*
D14*
%TO.P,J3,P1*%
%TO.N,N/C*%
X123575000Y-113704646D03*
%TO.P,J3,P2*%
X123575000Y-100404653D03*
%TD*%
D15*
%TO.P,J2,2,2*%
%TO.N,/VIOUT*%
X151300200Y-127025400D03*
%TO.P,J2,4,4*%
X150800200Y-127025400D03*
%TO.P,J2,6,6*%
X150300200Y-127025400D03*
%TO.P,J2,16,16*%
%TO.N,/+5V*%
X147800200Y-127025400D03*
%TO.P,J2,18,18*%
X147300200Y-127025400D03*
%TO.P,J2,20,20*%
X146800200Y-127025400D03*
%TO.P,J2,22,22*%
X146300200Y-127025400D03*
%TO.P,J2,24,24*%
X145800200Y-127025400D03*
%TO.P,J2,26,26*%
X145300200Y-127025400D03*
%TO.P,J2,28,28*%
X144800200Y-127025400D03*
%TO.P,J2,30,30*%
X144300200Y-127025400D03*
%TO.P,J2,32,32*%
X143800200Y-127025400D03*
%TO.P,J2,34,34*%
X143300200Y-127025400D03*
%TO.P,J2,36,36*%
X142800200Y-127025400D03*
%TO.P,J2,38,38*%
X142300200Y-127025400D03*
%TO.P,J2,40,40*%
X141800200Y-127025400D03*
%TO.P,J2,42,42*%
X141300200Y-127025400D03*
%TO.P,J2,44,44*%
X140800200Y-127025400D03*
%TO.P,J2,46,46*%
X140300200Y-127025400D03*
%TO.P,J2,48,48*%
X139800200Y-127025400D03*
%TO.P,J2,50,50*%
X139300200Y-127025400D03*
%TO.P,J2,52,52*%
X138800200Y-127025400D03*
%TO.P,J2,54,54*%
X138300200Y-127025400D03*
%TO.P,J2,56,56*%
X137800200Y-127025400D03*
%TO.P,J2,58,58*%
X137300200Y-127025400D03*
%TO.P,J2,60,60*%
X136800200Y-127025400D03*
%TO.P,J2,62,62*%
X136300200Y-127025400D03*
%TO.P,J2,64,64*%
X135800200Y-127025400D03*
%TO.P,J2,66,66*%
X135300200Y-127025400D03*
%TO.P,J2,68,68*%
X134800200Y-127025400D03*
%TO.P,J2,70,70*%
X134300200Y-127025400D03*
%TO.P,J2,72,72*%
X133800200Y-127025400D03*
%TO.P,J2,74,74*%
X133300200Y-127025400D03*
%TD*%
D16*
%TO.P,J4,1,Pin_1*%
%TO.N,/+5V*%
X170499400Y-117500400D03*
D17*
%TO.P,J4,2,Pin_2*%
%TO.N,GND*%
X175499400Y-117500400D03*
%TD*%
D18*
%TO.P,JP1,1,A*%
%TO.N,Net-(JP1-A)*%
X141533400Y-121183400D03*
D19*
%TO.P,JP1,2,B*%
%TO.N,GND*%
X140233400Y-121183400D03*
%TD*%
D20*
%TO.N,/VIN*%
X148894800Y-100584000D03*
X148844000Y-115747800D03*
X160441400Y-88798400D03*
X154787600Y-112217200D03*
X148869400Y-103276400D03*
X153873200Y-113131600D03*
X155905200Y-96393000D03*
X148869400Y-102412800D03*
X148895400Y-98882200D03*
X148818600Y-113055400D03*
X155016200Y-98501200D03*
X153873200Y-112217200D03*
X155905200Y-94589600D03*
X153873200Y-114046000D03*
X156870400Y-82346800D03*
X154787600Y-113131600D03*
X154787600Y-114046000D03*
X148844000Y-116662200D03*
X158663400Y-88798400D03*
X148818600Y-113919000D03*
X155930600Y-82346800D03*
X154101800Y-99415600D03*
X173192200Y-88950800D03*
X161330400Y-88798400D03*
X155016200Y-99415600D03*
X148894800Y-99720400D03*
X175021000Y-88976200D03*
X159552400Y-88798400D03*
X148894800Y-101498400D03*
X175884600Y-88976200D03*
X172328600Y-88950800D03*
X155905200Y-95478600D03*
X171414200Y-88925400D03*
X155905200Y-98221800D03*
X174106600Y-88950800D03*
X148844000Y-114833400D03*
X155905200Y-99136200D03*
X154101800Y-98501200D03*
X162219400Y-88798400D03*
X148819500Y-112141000D03*
X155905200Y-97332800D03*
X157835600Y-82346800D03*
X157749000Y-88798400D03*
%TO.N,GND*%
X143231500Y-98602800D03*
X175935400Y-94767400D03*
X138074400Y-98602800D03*
X175071800Y-94767400D03*
X156910800Y-106248200D03*
X143231500Y-102209600D03*
X158460200Y-94665800D03*
X138252200Y-115874800D03*
X143968100Y-110718600D03*
X167528000Y-86283800D03*
X174157400Y-94767400D03*
X133169800Y-125374400D03*
X177292000Y-106324400D03*
X157825200Y-106248200D03*
X143231500Y-113639600D03*
X163286200Y-93776800D03*
X143231500Y-99517200D03*
X169610800Y-82092800D03*
X162016200Y-94665800D03*
X138252200Y-112268000D03*
X161152600Y-94665800D03*
X165821650Y-84963000D03*
X144095100Y-104343200D03*
X173685200Y-106324400D03*
X160238200Y-94665800D03*
X153865700Y-109778800D03*
X176377600Y-106324400D03*
X138074400Y-102209600D03*
X171465000Y-94767400D03*
X170195000Y-93827600D03*
X135862200Y-125374400D03*
X136776600Y-125374400D03*
X143231500Y-112776000D03*
X164998400Y-117322600D03*
X143231500Y-114554000D03*
X143231500Y-101295200D03*
X143231500Y-100380800D03*
X152831800Y-106908600D03*
X137640200Y-125374400D03*
X138252200Y-114046000D03*
X162194000Y-87249000D03*
X169509200Y-89738200D03*
X143231500Y-103073200D03*
X151283300Y-102997000D03*
X143231500Y-111887000D03*
X151079200Y-83972400D03*
X173243000Y-94767400D03*
X143231500Y-116332000D03*
X151638000Y-108610400D03*
X172379400Y-94767400D03*
X138252200Y-113182400D03*
X143231500Y-115468400D03*
X151815800Y-91643200D03*
X159603200Y-106248200D03*
X134084200Y-125374400D03*
X156047200Y-106248200D03*
X138252200Y-114960400D03*
X157545800Y-94665800D03*
X138074400Y-101295200D03*
X148082000Y-110185200D03*
X134947800Y-125374400D03*
X174574200Y-106324400D03*
X175463200Y-106324400D03*
X159323800Y-94665800D03*
X166601000Y-113452500D03*
X158739600Y-106248200D03*
X149885400Y-120218200D03*
X138074400Y-100380800D03*
X138074400Y-99517200D03*
X138074400Y-103073200D03*
%TO.N,Net-(C9-Pad2)*%
X164200600Y-88011000D03*
X163210000Y-95504000D03*
%TO.N,/+5V*%
X177317400Y-110845600D03*
X157622000Y-110820200D03*
X143812400Y-125399800D03*
X156758400Y-110820200D03*
X158460200Y-110820200D03*
X146377800Y-125399800D03*
X142948800Y-125399800D03*
X175590200Y-110845600D03*
X160187400Y-110820200D03*
X147241400Y-125399800D03*
X173888400Y-110845600D03*
X155879800Y-110820200D03*
X145514200Y-125399800D03*
X176453800Y-110845600D03*
X174752000Y-110845600D03*
X159323800Y-110820200D03*
X144676000Y-125399800D03*
X173024800Y-110845600D03*
%TO.N,Net-(C25-Pad2)*%
X142978100Y-105312800D03*
X149707600Y-105333800D03*
%TO.N,/+3V3*%
X148666200Y-123012200D03*
X139065000Y-118821200D03*
X133656300Y-103149400D03*
X147726400Y-123012200D03*
X133654800Y-98700000D03*
X133731000Y-115519200D03*
X133731000Y-114579400D03*
X133654800Y-100452600D03*
X146810500Y-122118800D03*
X133731000Y-113715800D03*
X148664700Y-122118800D03*
X146812000Y-123012200D03*
X133654800Y-99589000D03*
X133732500Y-116412600D03*
X133654800Y-101316200D03*
X147724900Y-122118800D03*
X133731000Y-112852200D03*
X133654800Y-102256000D03*
X133731000Y-111963200D03*
%TO.N,/VIOUT*%
X163398200Y-114528600D03*
%TO.N,Net-(JP1-A)*%
X142113000Y-119938800D03*
%TD*%
D21*
%TO.N,Net-(C9-Pad2)*%
X164088900Y-88122700D02*
X164200600Y-88011000D01*
X163210000Y-95504000D02*
X164088900Y-94625100D01*
X164088900Y-94625100D02*
X164088900Y-88122700D01*
%TO.N,Net-(C25-Pad2)*%
X149686600Y-105312800D02*
X149707600Y-105333800D01*
X142978100Y-105312800D02*
X149686600Y-105312800D01*
D22*
%TO.N,/VIOUT*%
X150800200Y-125069200D02*
X150825200Y-125044200D01*
X151300200Y-127025400D02*
X150300200Y-127025400D01*
X163398200Y-114528600D02*
X161340800Y-114528600D01*
X161340800Y-114528600D02*
X150825200Y-125044200D01*
X150800200Y-127025400D02*
X150800200Y-125069200D01*
D21*
%TO.N,Net-(JP1-A)*%
X141533400Y-120518400D02*
X142113000Y-119938800D01*
X141533400Y-121183400D02*
X141533400Y-120518400D01*
%TD*%
%TA.AperFunction,Conductor*%
%TO.N,GND*%
G36*
X173766551Y-80628159D02*
G01*
X174172105Y-80645865D01*
X174177457Y-80646334D01*
X174578581Y-80699143D01*
X174583897Y-80700081D01*
X174978880Y-80787647D01*
X174984092Y-80789043D01*
X175369945Y-80910702D01*
X175375026Y-80912551D01*
X175748812Y-81067378D01*
X175753682Y-81069649D01*
X176112550Y-81256464D01*
X176117228Y-81259166D01*
X176458441Y-81476542D01*
X176462874Y-81479646D01*
X176783834Y-81725927D01*
X176787979Y-81729406D01*
X177086251Y-82002722D01*
X177090077Y-82006548D01*
X177363393Y-82304820D01*
X177366871Y-82308963D01*
X177516190Y-82503560D01*
X177613153Y-82629925D01*
X177616257Y-82634358D01*
X177833633Y-82975571D01*
X177836339Y-82980257D01*
X178001283Y-83297112D01*
X178023141Y-83339099D01*
X178025428Y-83344003D01*
X178180248Y-83717774D01*
X178182099Y-83722859D01*
X178303752Y-84108692D01*
X178305152Y-84113919D01*
X178392718Y-84508902D01*
X178393658Y-84514231D01*
X178446463Y-84915324D01*
X178446935Y-84920715D01*
X178464641Y-85326249D01*
X178464700Y-85328953D01*
X178464700Y-119560246D01*
X178464641Y-119562950D01*
X178446935Y-119968484D01*
X178446463Y-119973875D01*
X178393658Y-120374968D01*
X178392718Y-120380297D01*
X178305152Y-120775280D01*
X178303752Y-120780507D01*
X178182099Y-121166340D01*
X178180248Y-121171425D01*
X178025428Y-121545196D01*
X178023141Y-121550100D01*
X177836339Y-121908942D01*
X177833633Y-121913628D01*
X177616257Y-122254841D01*
X177613153Y-122259274D01*
X177366872Y-122580234D01*
X177363393Y-122584379D01*
X177090077Y-122882651D01*
X177086251Y-122886477D01*
X176787979Y-123159793D01*
X176783834Y-123163272D01*
X176462874Y-123409553D01*
X176458441Y-123412657D01*
X176117228Y-123630033D01*
X176112542Y-123632739D01*
X175753700Y-123819541D01*
X175748796Y-123821828D01*
X175375025Y-123976648D01*
X175369940Y-123978499D01*
X174984107Y-124100152D01*
X174978880Y-124101552D01*
X174583897Y-124189118D01*
X174578568Y-124190058D01*
X174177475Y-124242863D01*
X174172084Y-124243335D01*
X173766564Y-124261040D01*
X173763826Y-124261099D01*
X153367784Y-124249936D01*
X153367388Y-124249900D01*
X153356373Y-124249900D01*
X153299962Y-124249900D01*
X153269848Y-124249883D01*
X153269496Y-124249900D01*
X152646355Y-124249900D01*
X152491710Y-124280661D01*
X152491698Y-124280664D01*
X152346027Y-124341002D01*
X152346018Y-124341007D01*
X152324566Y-124355341D01*
X152257888Y-124376217D01*
X152190508Y-124357731D01*
X152143819Y-124305751D01*
X152132644Y-124236781D01*
X152160531Y-124172718D01*
X152167973Y-124164580D01*
X157912402Y-118420152D01*
X169398900Y-118420152D01*
X169410531Y-118478629D01*
X169410532Y-118478630D01*
X169454847Y-118544952D01*
X169521169Y-118589267D01*
X169521170Y-118589268D01*
X169579647Y-118600899D01*
X169579650Y-118600900D01*
X169579652Y-118600900D01*
X171419150Y-118600900D01*
X171419151Y-118600899D01*
X171433968Y-118597952D01*
X171477629Y-118589268D01*
X171477629Y-118589267D01*
X171477631Y-118589267D01*
X171543952Y-118544952D01*
X171588267Y-118478631D01*
X171588267Y-118478629D01*
X171588268Y-118478629D01*
X171599899Y-118420152D01*
X171599900Y-118420150D01*
X171599900Y-117500405D01*
X174094602Y-117500405D01*
X174113761Y-117731618D01*
X174170717Y-117956535D01*
X174263916Y-118169009D01*
X174348211Y-118298033D01*
X174936626Y-117709619D01*
X174975301Y-117802988D01*
X175071475Y-117928325D01*
X175196812Y-118024499D01*
X175290179Y-118063172D01*
X174700599Y-118652751D01*
X174731050Y-118676450D01*
X174935097Y-118786876D01*
X174935106Y-118786879D01*
X175154539Y-118862211D01*
X175383393Y-118900400D01*
X175615407Y-118900400D01*
X175844260Y-118862211D01*
X176063693Y-118786879D01*
X176063702Y-118786876D01*
X176267750Y-118676450D01*
X176298198Y-118652751D01*
X175708620Y-118063173D01*
X175801988Y-118024499D01*
X175927325Y-117928325D01*
X176023499Y-117802989D01*
X176062172Y-117709620D01*
X176650586Y-118298034D01*
X176734884Y-118169006D01*
X176828082Y-117956535D01*
X176885038Y-117731618D01*
X176904197Y-117500405D01*
X176904197Y-117500394D01*
X176885038Y-117269181D01*
X176828082Y-117044264D01*
X176734883Y-116831790D01*
X176650586Y-116702764D01*
X176062172Y-117291178D01*
X176023499Y-117197812D01*
X175927325Y-117072475D01*
X175801988Y-116976301D01*
X175708620Y-116937627D01*
X176298199Y-116348048D01*
X176298199Y-116348047D01*
X176267749Y-116324349D01*
X176063702Y-116213923D01*
X176063693Y-116213920D01*
X175844260Y-116138588D01*
X175615407Y-116100400D01*
X175383393Y-116100400D01*
X175154539Y-116138588D01*
X174935106Y-116213920D01*
X174935098Y-116213923D01*
X174731044Y-116324352D01*
X174700600Y-116348046D01*
X174700600Y-116348047D01*
X175290179Y-116937626D01*
X175196812Y-116976301D01*
X175071475Y-117072475D01*
X174975301Y-117197811D01*
X174936626Y-117291179D01*
X174348212Y-116702765D01*
X174263916Y-116831791D01*
X174263914Y-116831795D01*
X174170717Y-117044264D01*
X174113761Y-117269181D01*
X174094602Y-117500394D01*
X174094602Y-117500405D01*
X171599900Y-117500405D01*
X171599900Y-116580649D01*
X171599899Y-116580647D01*
X171588268Y-116522170D01*
X171588267Y-116522169D01*
X171543952Y-116455847D01*
X171477630Y-116411532D01*
X171477629Y-116411531D01*
X171419152Y-116399900D01*
X171419148Y-116399900D01*
X169579652Y-116399900D01*
X169579647Y-116399900D01*
X169521170Y-116411531D01*
X169521169Y-116411532D01*
X169454847Y-116455847D01*
X169410532Y-116522169D01*
X169410531Y-116522170D01*
X169398900Y-116580647D01*
X169398900Y-118420152D01*
X157912402Y-118420152D01*
X161440135Y-114892419D01*
X161501459Y-114858934D01*
X161527817Y-114856100D01*
X162525129Y-114856100D01*
X162568661Y-114863993D01*
X163162409Y-115086608D01*
X163162413Y-115086609D01*
X163162418Y-115086611D01*
X163172480Y-115088353D01*
X163198776Y-115095972D01*
X163241438Y-115113644D01*
X163379962Y-115131880D01*
X163398199Y-115134282D01*
X163398200Y-115134282D01*
X163398201Y-115134282D01*
X163470337Y-115124785D01*
X163554962Y-115113644D01*
X163701041Y-115053136D01*
X163826482Y-114956882D01*
X163922736Y-114831441D01*
X163983244Y-114685362D01*
X164003882Y-114528600D01*
X163983244Y-114371838D01*
X163922736Y-114225759D01*
X163826482Y-114100318D01*
X163701041Y-114004064D01*
X163616816Y-113969177D01*
X163554962Y-113943556D01*
X163554960Y-113943555D01*
X163398201Y-113922918D01*
X163398199Y-113922918D01*
X163241438Y-113943556D01*
X163198427Y-113961371D01*
X163171030Y-113969177D01*
X163162421Y-113970587D01*
X162568655Y-114193208D01*
X162525123Y-114201100D01*
X161357805Y-114201100D01*
X161352401Y-114200864D01*
X161346889Y-114200381D01*
X161311816Y-114197312D01*
X161272462Y-114207856D01*
X161267183Y-114209027D01*
X161227064Y-114216102D01*
X161222328Y-114217825D01*
X161204828Y-114225073D01*
X161200256Y-114227205D01*
X161166887Y-114250570D01*
X161162327Y-114253475D01*
X161127042Y-114273847D01*
X161127039Y-114273850D01*
X161100853Y-114305057D01*
X161097197Y-114309046D01*
X150613885Y-124792360D01*
X150613882Y-124792363D01*
X150597708Y-124808536D01*
X150580652Y-124825591D01*
X150576666Y-124829244D01*
X150545453Y-124855437D01*
X150545446Y-124855444D01*
X150525076Y-124890726D01*
X150522171Y-124895287D01*
X150498804Y-124928659D01*
X150496673Y-124933228D01*
X150489424Y-124950731D01*
X150485326Y-124961991D01*
X150443898Y-125018253D01*
X150378629Y-125043187D01*
X150369123Y-125043577D01*
X149645412Y-125045432D01*
X149578322Y-125025919D01*
X149557413Y-125009113D01*
X149499238Y-124950938D01*
X149499234Y-124950935D01*
X149351753Y-124852390D01*
X149351740Y-124852383D01*
X149187867Y-124784506D01*
X149187858Y-124784503D01*
X149013894Y-124749900D01*
X149013891Y-124749900D01*
X149005227Y-124749900D01*
X148938188Y-124730215D01*
X148892433Y-124677411D01*
X148882489Y-124608253D01*
X148911514Y-124544697D01*
X148913008Y-124543005D01*
X160753416Y-111370857D01*
X160758695Y-111364486D01*
X160773300Y-111345340D01*
X160807090Y-111278597D01*
X160826775Y-111211558D01*
X160835100Y-111153660D01*
X160835100Y-110845601D01*
X172419118Y-110845601D01*
X172439755Y-111002360D01*
X172439756Y-111002362D01*
X172500264Y-111148441D01*
X172596518Y-111273882D01*
X172721959Y-111370136D01*
X172868038Y-111430644D01*
X172928949Y-111438663D01*
X173024799Y-111451282D01*
X173024800Y-111451282D01*
X173024801Y-111451282D01*
X173113640Y-111439586D01*
X173181562Y-111430644D01*
X173327641Y-111370136D01*
X173373413Y-111335014D01*
X173381114Y-111329105D01*
X173446283Y-111303911D01*
X173514728Y-111317949D01*
X173532086Y-111329105D01*
X173585557Y-111370135D01*
X173585558Y-111370135D01*
X173585559Y-111370136D01*
X173731638Y-111430644D01*
X173792549Y-111438663D01*
X173888399Y-111451282D01*
X173888400Y-111451282D01*
X173888401Y-111451282D01*
X173977240Y-111439586D01*
X174045162Y-111430644D01*
X174191241Y-111370136D01*
X174244712Y-111329105D01*
X174309881Y-111303911D01*
X174378326Y-111317949D01*
X174395685Y-111329105D01*
X174449157Y-111370135D01*
X174449158Y-111370135D01*
X174449159Y-111370136D01*
X174595238Y-111430644D01*
X174656149Y-111438663D01*
X174751999Y-111451282D01*
X174752000Y-111451282D01*
X174752001Y-111451282D01*
X174840840Y-111439586D01*
X174908762Y-111430644D01*
X175054841Y-111370136D01*
X175095614Y-111338849D01*
X175160781Y-111313655D01*
X175229226Y-111327693D01*
X175246583Y-111338847D01*
X175287359Y-111370136D01*
X175287361Y-111370136D01*
X175287363Y-111370138D01*
X175360398Y-111400389D01*
X175433438Y-111430644D01*
X175494349Y-111438663D01*
X175590199Y-111451282D01*
X175590200Y-111451282D01*
X175590201Y-111451282D01*
X175679040Y-111439586D01*
X175746962Y-111430644D01*
X175893041Y-111370136D01*
X175946512Y-111329105D01*
X176011681Y-111303911D01*
X176080126Y-111317949D01*
X176097485Y-111329105D01*
X176150957Y-111370135D01*
X176150958Y-111370135D01*
X176150959Y-111370136D01*
X176297038Y-111430644D01*
X176357949Y-111438663D01*
X176453799Y-111451282D01*
X176453800Y-111451282D01*
X176453801Y-111451282D01*
X176542640Y-111439586D01*
X176610562Y-111430644D01*
X176756641Y-111370136D01*
X176802413Y-111335014D01*
X176810114Y-111329105D01*
X176875283Y-111303911D01*
X176943728Y-111317949D01*
X176961086Y-111329105D01*
X177014557Y-111370135D01*
X177014558Y-111370135D01*
X177014559Y-111370136D01*
X177160638Y-111430644D01*
X177221549Y-111438663D01*
X177317399Y-111451282D01*
X177317400Y-111451282D01*
X177317401Y-111451282D01*
X177406240Y-111439586D01*
X177474162Y-111430644D01*
X177620241Y-111370136D01*
X177745682Y-111273882D01*
X177841936Y-111148441D01*
X177902444Y-111002362D01*
X177923082Y-110845600D01*
X177902444Y-110688838D01*
X177841936Y-110542759D01*
X177745682Y-110417318D01*
X177620241Y-110321064D01*
X177615702Y-110319184D01*
X177474162Y-110260556D01*
X177474160Y-110260555D01*
X177317401Y-110239918D01*
X177317399Y-110239918D01*
X177160639Y-110260555D01*
X177160637Y-110260556D01*
X177014558Y-110321064D01*
X176961085Y-110362095D01*
X176895916Y-110387288D01*
X176827471Y-110373249D01*
X176810115Y-110362095D01*
X176756641Y-110321064D01*
X176610562Y-110260556D01*
X176610560Y-110260555D01*
X176453801Y-110239918D01*
X176453799Y-110239918D01*
X176297039Y-110260555D01*
X176297037Y-110260556D01*
X176150958Y-110321064D01*
X176097485Y-110362095D01*
X176032316Y-110387288D01*
X175963871Y-110373249D01*
X175946515Y-110362095D01*
X175893041Y-110321064D01*
X175746962Y-110260556D01*
X175746960Y-110260555D01*
X175590201Y-110239918D01*
X175590199Y-110239918D01*
X175433439Y-110260555D01*
X175433437Y-110260556D01*
X175287358Y-110321064D01*
X175246585Y-110352350D01*
X175181416Y-110377543D01*
X175112971Y-110363504D01*
X175095615Y-110352350D01*
X175054841Y-110321064D01*
X174908762Y-110260556D01*
X174908760Y-110260555D01*
X174752001Y-110239918D01*
X174751999Y-110239918D01*
X174595239Y-110260555D01*
X174595237Y-110260556D01*
X174449158Y-110321064D01*
X174395685Y-110362095D01*
X174330516Y-110387288D01*
X174262071Y-110373249D01*
X174244715Y-110362095D01*
X174191241Y-110321064D01*
X174045162Y-110260556D01*
X174045160Y-110260555D01*
X173888401Y-110239918D01*
X173888399Y-110239918D01*
X173731639Y-110260555D01*
X173731637Y-110260556D01*
X173585558Y-110321064D01*
X173532085Y-110362095D01*
X173466916Y-110387288D01*
X173398471Y-110373249D01*
X173381115Y-110362095D01*
X173327641Y-110321064D01*
X173181562Y-110260556D01*
X173181560Y-110260555D01*
X173024801Y-110239918D01*
X173024799Y-110239918D01*
X172868039Y-110260555D01*
X172868037Y-110260556D01*
X172721960Y-110321063D01*
X172596518Y-110417318D01*
X172500263Y-110542760D01*
X172439756Y-110688837D01*
X172439755Y-110688839D01*
X172419118Y-110845598D01*
X172419118Y-110845601D01*
X160835100Y-110845601D01*
X160835100Y-110537800D01*
X160830403Y-110494116D01*
X160819197Y-110442605D01*
X160816710Y-110432427D01*
X160773700Y-110351715D01*
X160727945Y-110298911D01*
X160727939Y-110298904D01*
X160710357Y-110280960D01*
X160710356Y-110280959D01*
X160710354Y-110280957D01*
X160710352Y-110280956D01*
X160710350Y-110280954D01*
X160630540Y-110236311D01*
X160630535Y-110236309D01*
X160563503Y-110216626D01*
X160563499Y-110216625D01*
X160563498Y-110216625D01*
X160505600Y-110208300D01*
X155522127Y-110208300D01*
X155518484Y-110208550D01*
X155508076Y-110209264D01*
X155508058Y-110209266D01*
X155467523Y-110214858D01*
X155386491Y-110244290D01*
X155327285Y-110281387D01*
X155282644Y-110319181D01*
X155282642Y-110319182D01*
X155282641Y-110319184D01*
X155088781Y-110537800D01*
X154425808Y-111285436D01*
X154425787Y-111285461D01*
X154421177Y-111291048D01*
X154421106Y-111291137D01*
X154408199Y-111307969D01*
X154408198Y-111307971D01*
X154408196Y-111307974D01*
X154398034Y-111327693D01*
X154374796Y-111372783D01*
X154374794Y-111372789D01*
X154354310Y-111439596D01*
X154348428Y-111464023D01*
X154352935Y-111555370D01*
X154353951Y-111561603D01*
X154345300Y-111630935D01*
X154300538Y-111684584D01*
X154233878Y-111705515D01*
X154184756Y-111692859D01*
X154183549Y-111695774D01*
X154176038Y-111692663D01*
X154029962Y-111632156D01*
X154029960Y-111632155D01*
X153873201Y-111611518D01*
X153873199Y-111611518D01*
X153716439Y-111632155D01*
X153716437Y-111632156D01*
X153570360Y-111692663D01*
X153444918Y-111788918D01*
X153348663Y-111914360D01*
X153288156Y-112060437D01*
X153288155Y-112060439D01*
X153267518Y-112217198D01*
X153267518Y-112217201D01*
X153288155Y-112373960D01*
X153288156Y-112373962D01*
X153348664Y-112520042D01*
X153409185Y-112598914D01*
X153434379Y-112664083D01*
X153420341Y-112732528D01*
X153409185Y-112749886D01*
X153348664Y-112828758D01*
X153344598Y-112835801D01*
X153342005Y-112834304D01*
X153307118Y-112877573D01*
X153240819Y-112899620D01*
X153207453Y-112896266D01*
X153192297Y-112892624D01*
X153122440Y-112891823D01*
X153097328Y-112893074D01*
X153097325Y-112893074D01*
X153010966Y-112923170D01*
X152951771Y-112960260D01*
X152951766Y-112960264D01*
X152907120Y-112998062D01*
X149656854Y-116663391D01*
X149597647Y-116700489D01*
X149527782Y-116699689D01*
X149469440Y-116661244D01*
X149441145Y-116597362D01*
X149429044Y-116505438D01*
X149368536Y-116359359D01*
X149368535Y-116359358D01*
X149368535Y-116359357D01*
X149338764Y-116320560D01*
X149308014Y-116280485D01*
X149282820Y-116215318D01*
X149296858Y-116146873D01*
X149308012Y-116129517D01*
X149368536Y-116050641D01*
X149429044Y-115904562D01*
X149449682Y-115747800D01*
X149429044Y-115591038D01*
X149368536Y-115444959D01*
X149308013Y-115366083D01*
X149282820Y-115300916D01*
X149296858Y-115232472D01*
X149308004Y-115215127D01*
X149368536Y-115136241D01*
X149429044Y-114990162D01*
X149449682Y-114833400D01*
X149445869Y-114804441D01*
X149435923Y-114728891D01*
X149429044Y-114676638D01*
X149368536Y-114530559D01*
X149368535Y-114530558D01*
X149368535Y-114530557D01*
X149307394Y-114450877D01*
X149295314Y-114435134D01*
X149270120Y-114369967D01*
X149284158Y-114301522D01*
X149295312Y-114284166D01*
X149343136Y-114221841D01*
X149403644Y-114075762D01*
X149424282Y-113919000D01*
X149403644Y-113762238D01*
X149343136Y-113616159D01*
X149343135Y-113616158D01*
X149343135Y-113616157D01*
X149302105Y-113562686D01*
X149276911Y-113497517D01*
X149290949Y-113429072D01*
X149302105Y-113411714D01*
X149343135Y-113358242D01*
X149343134Y-113358242D01*
X149343136Y-113358241D01*
X149403644Y-113212162D01*
X149424282Y-113055400D01*
X149403644Y-112898638D01*
X149343136Y-112752559D01*
X149283062Y-112674269D01*
X149257870Y-112609104D01*
X149271908Y-112540659D01*
X149283060Y-112523306D01*
X149344036Y-112443841D01*
X149404544Y-112297762D01*
X149425182Y-112141000D01*
X149423115Y-112125302D01*
X149404939Y-111987241D01*
X149404544Y-111984238D01*
X149344036Y-111838159D01*
X149247782Y-111712718D01*
X149122341Y-111616464D01*
X149110400Y-111611518D01*
X148976262Y-111555956D01*
X148976260Y-111555955D01*
X148819501Y-111535318D01*
X148819499Y-111535318D01*
X148662739Y-111555955D01*
X148662737Y-111555956D01*
X148516660Y-111616463D01*
X148391218Y-111712718D01*
X148294963Y-111838160D01*
X148234456Y-111984237D01*
X148234455Y-111984239D01*
X148213818Y-112140998D01*
X148213818Y-112141001D01*
X148234455Y-112297760D01*
X148234456Y-112297762D01*
X148294964Y-112443842D01*
X148355034Y-112522127D01*
X148380228Y-112587296D01*
X148366189Y-112655741D01*
X148355035Y-112673098D01*
X148294064Y-112752558D01*
X148233556Y-112898637D01*
X148233555Y-112898639D01*
X148212918Y-113055398D01*
X148212918Y-113055401D01*
X148233555Y-113212160D01*
X148233556Y-113212162D01*
X148294064Y-113358242D01*
X148335094Y-113411713D01*
X148360288Y-113476882D01*
X148346250Y-113545327D01*
X148335095Y-113562684D01*
X148294064Y-113616158D01*
X148233556Y-113762237D01*
X148233555Y-113762239D01*
X148212918Y-113918998D01*
X148212918Y-113919001D01*
X148233555Y-114075760D01*
X148233556Y-114075762D01*
X148292400Y-114217825D01*
X148294064Y-114221841D01*
X148367286Y-114317266D01*
X148392479Y-114382432D01*
X148378441Y-114450877D01*
X148367285Y-114468236D01*
X148319464Y-114530557D01*
X148258956Y-114676637D01*
X148258955Y-114676639D01*
X148238318Y-114833398D01*
X148238318Y-114833401D01*
X148258955Y-114990160D01*
X148258956Y-114990162D01*
X148319464Y-115136242D01*
X148379984Y-115215112D01*
X148405179Y-115280281D01*
X148391141Y-115348726D01*
X148379985Y-115366085D01*
X148319464Y-115444957D01*
X148258956Y-115591037D01*
X148258955Y-115591039D01*
X148238318Y-115747798D01*
X148238318Y-115747801D01*
X148258955Y-115904560D01*
X148258956Y-115904562D01*
X148319464Y-116050642D01*
X148379984Y-116129513D01*
X148405178Y-116194682D01*
X148391140Y-116263127D01*
X148379985Y-116280484D01*
X148319464Y-116359358D01*
X148258956Y-116505437D01*
X148258955Y-116505439D01*
X148238318Y-116662198D01*
X148238318Y-116662201D01*
X148258955Y-116818960D01*
X148258956Y-116818962D01*
X148319464Y-116965041D01*
X148415718Y-117090482D01*
X148541159Y-117186736D01*
X148687238Y-117247244D01*
X148765619Y-117257562D01*
X148843999Y-117267882D01*
X148845127Y-117267882D01*
X148846043Y-117268151D01*
X148852058Y-117268943D01*
X148851934Y-117269880D01*
X148912166Y-117287567D01*
X148957921Y-117340371D01*
X148967865Y-117409529D01*
X148938840Y-117473085D01*
X148937917Y-117474137D01*
X146845850Y-119833365D01*
X146625497Y-120081857D01*
X146504594Y-120218199D01*
X144940122Y-121982457D01*
X144819219Y-122118799D01*
X142419618Y-124824832D01*
X142414614Y-124830934D01*
X142414589Y-124830967D01*
X142400672Y-124849340D01*
X142400671Y-124849341D01*
X142367311Y-124915520D01*
X142367309Y-124915525D01*
X142349735Y-124975373D01*
X142311960Y-125034150D01*
X142248403Y-125063173D01*
X142231077Y-125064435D01*
X132799933Y-125088607D01*
X132732843Y-125069094D01*
X132686953Y-125016407D01*
X132676211Y-124976755D01*
X132675700Y-124971565D01*
X132675700Y-124971558D01*
X132675698Y-124971550D01*
X132675698Y-124971545D01*
X132652603Y-124855444D01*
X132644937Y-124816903D01*
X132587158Y-124677411D01*
X132584597Y-124671227D01*
X132584590Y-124671214D01*
X132496989Y-124540111D01*
X132496986Y-124540107D01*
X132385492Y-124428613D01*
X132385488Y-124428610D01*
X132254385Y-124341009D01*
X132254372Y-124341002D01*
X132108701Y-124280664D01*
X132108689Y-124280661D01*
X131954045Y-124249900D01*
X131954042Y-124249900D01*
X131931373Y-124249900D01*
X131367721Y-124249900D01*
X131365928Y-124249735D01*
X131299844Y-124249900D01*
X131270416Y-124249900D01*
X131268775Y-124249977D01*
X126819812Y-124261094D01*
X126816952Y-124261035D01*
X126421845Y-124243786D01*
X126411513Y-124243334D01*
X126406123Y-124242863D01*
X126005031Y-124190058D01*
X125999702Y-124189118D01*
X125604719Y-124101552D01*
X125599492Y-124100152D01*
X125213659Y-123978499D01*
X125208574Y-123976648D01*
X124952977Y-123870777D01*
X124834797Y-123821825D01*
X124829907Y-123819545D01*
X124471057Y-123632739D01*
X124466371Y-123630033D01*
X124125158Y-123412657D01*
X124120725Y-123409553D01*
X123799765Y-123163272D01*
X123795620Y-123159793D01*
X123497348Y-122886477D01*
X123493522Y-122882651D01*
X123220206Y-122584379D01*
X123216727Y-122580234D01*
X123205862Y-122566075D01*
X122970443Y-122259269D01*
X122967342Y-122254841D01*
X122749966Y-121913628D01*
X122747260Y-121908942D01*
X122560449Y-121550082D01*
X122558178Y-121545212D01*
X122403351Y-121171425D01*
X122401500Y-121166340D01*
X122378664Y-121093914D01*
X122279843Y-120780492D01*
X122278447Y-120775280D01*
X122260065Y-120692363D01*
X123875787Y-120692363D01*
X123905413Y-120961613D01*
X123905415Y-120961624D01*
X123973926Y-121223682D01*
X123973928Y-121223688D01*
X124079870Y-121472990D01*
X124160318Y-121604808D01*
X124220979Y-121704205D01*
X124220986Y-121704215D01*
X124394253Y-121912419D01*
X124394259Y-121912424D01*
X124472421Y-121982457D01*
X124595998Y-122093182D01*
X124821910Y-122242644D01*
X125067176Y-122357620D01*
X125067183Y-122357622D01*
X125067185Y-122357623D01*
X125326557Y-122435657D01*
X125326564Y-122435658D01*
X125326569Y-122435660D01*
X125594561Y-122475100D01*
X125594566Y-122475100D01*
X125797629Y-122475100D01*
X125797631Y-122475100D01*
X125797636Y-122475099D01*
X125797648Y-122475099D01*
X125835191Y-122472350D01*
X126000156Y-122460277D01*
X126112758Y-122435193D01*
X126264546Y-122401382D01*
X126264548Y-122401381D01*
X126264553Y-122401380D01*
X126517558Y-122304614D01*
X126753777Y-122172041D01*
X126968177Y-122006488D01*
X127156186Y-121811481D01*
X127313799Y-121591179D01*
X127379959Y-121462494D01*
X140825911Y-121462494D01*
X140827710Y-121475006D01*
X140828972Y-121492652D01*
X140828972Y-121933404D01*
X140844531Y-122011629D01*
X140844532Y-122011630D01*
X140888847Y-122077952D01*
X140955169Y-122122267D01*
X140955170Y-122122268D01*
X141033395Y-122137827D01*
X141033399Y-122137828D01*
X141033400Y-122137828D01*
X141605288Y-122137828D01*
X141605289Y-122137828D01*
X141662883Y-122129547D01*
X141800838Y-122089040D01*
X141853766Y-122064869D01*
X141974720Y-121987137D01*
X142018695Y-121949032D01*
X142112849Y-121840371D01*
X142144306Y-121791423D01*
X142204034Y-121660638D01*
X142220427Y-121604808D01*
X142240889Y-121462493D01*
X142240889Y-121404307D01*
X142239090Y-121391793D01*
X142237828Y-121374148D01*
X142237828Y-120992651D01*
X142239090Y-120975005D01*
X142240889Y-120962493D01*
X142240889Y-120904307D01*
X142220427Y-120761992D01*
X142220426Y-120761988D01*
X142204036Y-120706166D01*
X142202896Y-120703111D01*
X142202817Y-120702015D01*
X142202787Y-120701912D01*
X142202809Y-120701905D01*
X142197901Y-120633421D01*
X142231377Y-120572093D01*
X142255982Y-120553010D01*
X142361893Y-120490428D01*
X142361908Y-120490415D01*
X142365958Y-120487562D01*
X142366522Y-120488362D01*
X142390643Y-120473773D01*
X142415841Y-120463336D01*
X142541282Y-120367082D01*
X142637536Y-120241641D01*
X142698044Y-120095562D01*
X142718682Y-119938800D01*
X142717068Y-119926543D01*
X142698044Y-119782039D01*
X142698044Y-119782038D01*
X142637536Y-119635959D01*
X142541282Y-119510518D01*
X142415841Y-119414264D01*
X142269762Y-119353756D01*
X142269760Y-119353755D01*
X142113001Y-119333118D01*
X142112999Y-119333118D01*
X141956239Y-119353755D01*
X141956237Y-119353756D01*
X141810160Y-119414263D01*
X141684716Y-119510519D01*
X141588463Y-119635959D01*
X141578005Y-119661206D01*
X141563510Y-119686981D01*
X141561377Y-119689894D01*
X141278830Y-120168054D01*
X141227778Y-120215756D01*
X141172075Y-120228972D01*
X141033395Y-120228972D01*
X140955170Y-120244531D01*
X140955169Y-120244532D01*
X140888847Y-120288847D01*
X140844532Y-120355169D01*
X140844531Y-120355170D01*
X140828972Y-120433395D01*
X140828972Y-120874148D01*
X140827710Y-120891793D01*
X140825911Y-120904303D01*
X140825911Y-120962493D01*
X140827710Y-120975005D01*
X140828972Y-120992651D01*
X140828972Y-121374148D01*
X140827710Y-121391793D01*
X140825911Y-121404304D01*
X140825911Y-121462494D01*
X127379959Y-121462494D01*
X127387787Y-121447269D01*
X127437649Y-121350290D01*
X127437651Y-121350284D01*
X127437656Y-121350275D01*
X127525118Y-121093905D01*
X127574319Y-120827533D01*
X127584212Y-120556835D01*
X127554586Y-120287582D01*
X127486072Y-120025512D01*
X127380130Y-119776210D01*
X127239018Y-119544990D01*
X127149747Y-119437719D01*
X127065746Y-119336780D01*
X127065740Y-119336775D01*
X126864002Y-119156018D01*
X126638092Y-119006557D01*
X126577089Y-118977960D01*
X126392824Y-118891580D01*
X126392819Y-118891578D01*
X126392814Y-118891576D01*
X126158899Y-118821201D01*
X138459318Y-118821201D01*
X138479955Y-118977960D01*
X138479956Y-118977962D01*
X138540464Y-119124041D01*
X138636718Y-119249482D01*
X138762159Y-119345736D01*
X138908238Y-119406244D01*
X138969149Y-119414263D01*
X139064999Y-119426882D01*
X139065000Y-119426882D01*
X139065001Y-119426882D01*
X139117253Y-119420002D01*
X139221762Y-119406244D01*
X139367841Y-119345736D01*
X139493282Y-119249482D01*
X139589536Y-119124041D01*
X139650044Y-118977962D01*
X139670682Y-118821200D01*
X139669673Y-118813539D01*
X139650044Y-118664439D01*
X139650044Y-118664438D01*
X139589536Y-118518359D01*
X139493282Y-118392918D01*
X139367841Y-118296664D01*
X139221762Y-118236156D01*
X139221760Y-118236155D01*
X139065001Y-118215518D01*
X139064999Y-118215518D01*
X138908239Y-118236155D01*
X138908237Y-118236156D01*
X138762160Y-118296663D01*
X138636718Y-118392918D01*
X138540463Y-118518360D01*
X138479956Y-118664437D01*
X138479955Y-118664439D01*
X138459318Y-118821198D01*
X138459318Y-118821201D01*
X126158899Y-118821201D01*
X126133442Y-118813542D01*
X126133428Y-118813539D01*
X126017791Y-118796521D01*
X125865439Y-118774100D01*
X125662369Y-118774100D01*
X125662351Y-118774100D01*
X125459844Y-118788923D01*
X125459831Y-118788925D01*
X125195453Y-118847817D01*
X125195446Y-118847820D01*
X124942439Y-118944587D01*
X124706226Y-119077157D01*
X124491822Y-119242712D01*
X124303822Y-119437709D01*
X124303816Y-119437716D01*
X124146202Y-119658019D01*
X124146199Y-119658024D01*
X124022350Y-119898909D01*
X124022343Y-119898927D01*
X123934884Y-120155285D01*
X123934881Y-120155299D01*
X123918933Y-120241641D01*
X123889255Y-120402321D01*
X123885681Y-120421668D01*
X123885680Y-120421675D01*
X123875787Y-120692363D01*
X122260065Y-120692363D01*
X122190881Y-120380297D01*
X122189943Y-120374981D01*
X122137134Y-119973857D01*
X122136665Y-119968505D01*
X122118959Y-119562950D01*
X122118900Y-119560246D01*
X122118900Y-119514004D01*
X122118900Y-117247243D01*
X122118900Y-115519201D01*
X133125318Y-115519201D01*
X133145955Y-115675960D01*
X133145956Y-115675962D01*
X133206464Y-115822041D01*
X133259678Y-115891392D01*
X133284872Y-115956560D01*
X133270834Y-116025004D01*
X133259678Y-116042363D01*
X133207964Y-116109757D01*
X133147456Y-116255837D01*
X133147455Y-116255839D01*
X133126818Y-116412598D01*
X133126818Y-116412601D01*
X133147455Y-116569360D01*
X133147456Y-116569362D01*
X133207964Y-116715441D01*
X133304218Y-116840882D01*
X133429659Y-116937136D01*
X133575738Y-116997644D01*
X133654119Y-117007963D01*
X133732499Y-117018282D01*
X133732500Y-117018282D01*
X133732501Y-117018282D01*
X133784754Y-117011402D01*
X133889262Y-116997644D01*
X134035341Y-116937136D01*
X134160782Y-116840882D01*
X134257036Y-116715441D01*
X134317544Y-116569362D01*
X134338182Y-116412600D01*
X134338041Y-116411532D01*
X134320789Y-116280484D01*
X134317544Y-116255838D01*
X134257036Y-116109759D01*
X134203819Y-116040406D01*
X134178627Y-115975240D01*
X134192665Y-115906795D01*
X134203817Y-115889442D01*
X134255536Y-115822041D01*
X134316044Y-115675962D01*
X134336682Y-115519200D01*
X134316044Y-115362438D01*
X134255536Y-115216359D01*
X134255535Y-115216358D01*
X134255535Y-115216357D01*
X134194059Y-115136241D01*
X134185269Y-115124785D01*
X134160075Y-115059618D01*
X134174113Y-114991173D01*
X134185267Y-114973817D01*
X134255536Y-114882241D01*
X134316044Y-114736162D01*
X134336682Y-114579400D01*
X134316044Y-114422638D01*
X134255536Y-114276559D01*
X134255535Y-114276558D01*
X134255535Y-114276557D01*
X134214505Y-114223086D01*
X134189311Y-114157917D01*
X134203349Y-114089472D01*
X134214505Y-114072114D01*
X134255535Y-114018642D01*
X134255534Y-114018642D01*
X134255536Y-114018641D01*
X134316044Y-113872562D01*
X134336682Y-113715800D01*
X134335213Y-113704645D01*
X134316044Y-113559039D01*
X134316044Y-113559038D01*
X134255536Y-113412959D01*
X134255535Y-113412958D01*
X134255535Y-113412957D01*
X134214505Y-113359485D01*
X134189311Y-113294315D01*
X134203350Y-113225871D01*
X134214506Y-113208512D01*
X134255535Y-113155042D01*
X134255534Y-113155042D01*
X134255536Y-113155041D01*
X134316044Y-113008962D01*
X134336682Y-112852200D01*
X134316044Y-112695438D01*
X134255536Y-112549359D01*
X134255535Y-112549358D01*
X134255535Y-112549357D01*
X134229284Y-112515147D01*
X134204759Y-112483185D01*
X134179565Y-112418018D01*
X134193603Y-112349573D01*
X134204757Y-112332217D01*
X134255536Y-112266041D01*
X134316044Y-112119962D01*
X134333912Y-111984238D01*
X134336682Y-111963201D01*
X134336682Y-111963198D01*
X134316044Y-111806439D01*
X134316044Y-111806438D01*
X134255536Y-111660359D01*
X134159282Y-111534918D01*
X134033841Y-111438664D01*
X134014474Y-111430642D01*
X133887762Y-111378156D01*
X133887760Y-111378155D01*
X133731001Y-111357518D01*
X133730999Y-111357518D01*
X133574239Y-111378155D01*
X133574237Y-111378156D01*
X133428160Y-111438663D01*
X133302718Y-111534918D01*
X133206463Y-111660360D01*
X133145956Y-111806437D01*
X133145955Y-111806439D01*
X133125318Y-111963198D01*
X133125318Y-111963201D01*
X133145955Y-112119960D01*
X133145956Y-112119962D01*
X133206464Y-112266042D01*
X133257239Y-112332213D01*
X133282433Y-112397382D01*
X133268395Y-112465827D01*
X133257240Y-112483184D01*
X133206464Y-112549358D01*
X133145956Y-112695437D01*
X133145955Y-112695439D01*
X133125318Y-112852198D01*
X133125318Y-112852201D01*
X133145955Y-113008960D01*
X133145956Y-113008962D01*
X133206464Y-113155041D01*
X133247495Y-113208515D01*
X133272688Y-113273684D01*
X133258649Y-113342129D01*
X133247495Y-113359485D01*
X133206464Y-113412958D01*
X133145956Y-113559037D01*
X133145955Y-113559039D01*
X133125318Y-113715798D01*
X133125318Y-113715801D01*
X133145955Y-113872560D01*
X133145956Y-113872562D01*
X133206464Y-114018641D01*
X133247495Y-114072115D01*
X133272688Y-114137284D01*
X133258649Y-114205729D01*
X133247495Y-114223085D01*
X133206464Y-114276558D01*
X133145956Y-114422637D01*
X133145955Y-114422639D01*
X133125318Y-114579398D01*
X133125318Y-114579401D01*
X133145955Y-114736160D01*
X133145956Y-114736162D01*
X133186232Y-114833398D01*
X133206464Y-114882241D01*
X133276731Y-114973815D01*
X133301924Y-115038981D01*
X133287886Y-115107426D01*
X133276730Y-115124785D01*
X133206464Y-115216357D01*
X133145956Y-115362437D01*
X133145955Y-115362439D01*
X133125318Y-115519198D01*
X133125318Y-115519201D01*
X122118900Y-115519201D01*
X122118900Y-114884969D01*
X122138584Y-114817934D01*
X122191388Y-114772179D01*
X122260546Y-114762235D01*
X122324102Y-114791260D01*
X122337188Y-114804440D01*
X122400766Y-114878880D01*
X122598913Y-115048114D01*
X122598915Y-115048115D01*
X122598916Y-115048116D01*
X122598917Y-115048117D01*
X122821094Y-115184267D01*
X122898571Y-115216359D01*
X123061841Y-115283988D01*
X123315222Y-115344819D01*
X123575000Y-115365264D01*
X123834778Y-115344819D01*
X124088159Y-115283988D01*
X124328905Y-115184267D01*
X124551087Y-115048114D01*
X124749234Y-114878880D01*
X124918468Y-114680733D01*
X125054621Y-114458551D01*
X125154342Y-114217805D01*
X125215173Y-113964424D01*
X125235618Y-113704646D01*
X125215173Y-113444868D01*
X125154342Y-113191487D01*
X125074222Y-112998062D01*
X125054621Y-112950740D01*
X124918471Y-112728563D01*
X124918470Y-112728562D01*
X124918469Y-112728561D01*
X124918468Y-112728559D01*
X124749234Y-112530412D01*
X124551087Y-112361178D01*
X124551085Y-112361176D01*
X124551083Y-112361175D01*
X124551082Y-112361174D01*
X124507391Y-112334400D01*
X126934499Y-112334400D01*
X126946130Y-112392877D01*
X126946131Y-112392878D01*
X126990446Y-112459200D01*
X127056768Y-112503515D01*
X127056769Y-112503516D01*
X127115246Y-112515147D01*
X127115249Y-112515148D01*
X127115251Y-112515148D01*
X128674749Y-112515148D01*
X128674750Y-112515147D01*
X128689567Y-112512200D01*
X128733228Y-112503516D01*
X128733228Y-112503515D01*
X128733230Y-112503515D01*
X128799551Y-112459200D01*
X128843866Y-112392879D01*
X128843866Y-112392877D01*
X128843867Y-112392877D01*
X128855498Y-112334400D01*
X128855499Y-112334398D01*
X128855499Y-111554649D01*
X129630185Y-111554649D01*
X129649399Y-111774274D01*
X129649400Y-111774282D01*
X129706461Y-111987235D01*
X129706464Y-111987241D01*
X129799636Y-112187050D01*
X129844692Y-112251398D01*
X130403864Y-111692227D01*
X130426316Y-111768688D01*
X130505603Y-111892061D01*
X130616436Y-111988099D01*
X130749837Y-112049021D01*
X130753631Y-112049566D01*
X130198245Y-112604952D01*
X130262591Y-112650007D01*
X130462404Y-112743181D01*
X130462410Y-112743184D01*
X130675363Y-112800245D01*
X130675371Y-112800246D01*
X130894996Y-112819461D01*
X130895000Y-112819461D01*
X131114624Y-112800246D01*
X131114632Y-112800245D01*
X131327585Y-112743184D01*
X131327596Y-112743180D01*
X131527400Y-112650010D01*
X131527408Y-112650006D01*
X131591749Y-112604953D01*
X131591749Y-112604952D01*
X131036364Y-112049566D01*
X131040159Y-112049021D01*
X131173560Y-111988099D01*
X131284393Y-111892061D01*
X131363680Y-111768688D01*
X131386130Y-111692228D01*
X131945302Y-112251399D01*
X131945303Y-112251399D01*
X131990356Y-112187058D01*
X131990360Y-112187050D01*
X132083530Y-111987246D01*
X132083534Y-111987235D01*
X132140595Y-111774282D01*
X132140596Y-111774274D01*
X132159811Y-111554649D01*
X132159811Y-111554646D01*
X132140596Y-111335021D01*
X132140595Y-111335014D01*
X132083531Y-111122052D01*
X131990358Y-110922243D01*
X131990357Y-110922241D01*
X131945302Y-110857896D01*
X131945302Y-110857895D01*
X131386130Y-111417066D01*
X131363680Y-111340608D01*
X131284393Y-111217235D01*
X131173560Y-111121197D01*
X131040159Y-111060275D01*
X131036363Y-111059729D01*
X131591749Y-110504342D01*
X131527400Y-110459286D01*
X131327591Y-110366114D01*
X131327585Y-110366111D01*
X131114632Y-110309050D01*
X131114624Y-110309049D01*
X130895000Y-110289835D01*
X130894996Y-110289835D01*
X130675371Y-110309049D01*
X130675364Y-110309050D01*
X130462402Y-110366114D01*
X130262592Y-110459288D01*
X130198246Y-110504342D01*
X130753633Y-111059729D01*
X130749837Y-111060275D01*
X130616436Y-111121197D01*
X130505603Y-111217235D01*
X130426316Y-111340608D01*
X130403864Y-111417068D01*
X129844692Y-110857896D01*
X129799638Y-110922242D01*
X129706464Y-111122052D01*
X129649400Y-111335014D01*
X129649399Y-111335021D01*
X129630185Y-111554646D01*
X129630185Y-111554649D01*
X128855499Y-111554649D01*
X128855499Y-110774897D01*
X128855498Y-110774895D01*
X128843867Y-110716418D01*
X128843866Y-110716417D01*
X128799551Y-110650095D01*
X128733229Y-110605780D01*
X128733228Y-110605779D01*
X128674751Y-110594148D01*
X128674747Y-110594148D01*
X127115251Y-110594148D01*
X127115246Y-110594148D01*
X127056769Y-110605779D01*
X127056768Y-110605780D01*
X126990446Y-110650095D01*
X126946131Y-110716417D01*
X126946130Y-110716418D01*
X126934499Y-110774895D01*
X126934499Y-112334400D01*
X124507391Y-112334400D01*
X124328905Y-112225024D01*
X124088154Y-112125302D01*
X123834774Y-112064472D01*
X123834775Y-112064472D01*
X123575000Y-112044028D01*
X123315224Y-112064472D01*
X123061845Y-112125302D01*
X122821094Y-112225024D01*
X122598917Y-112361174D01*
X122598916Y-112361175D01*
X122544443Y-112407700D01*
X122400766Y-112530412D01*
X122352183Y-112587296D01*
X122337190Y-112604850D01*
X122278683Y-112643043D01*
X122208815Y-112643541D01*
X122149769Y-112606187D01*
X122120291Y-112542841D01*
X122118900Y-112524318D01*
X122118900Y-108554648D01*
X126929852Y-108554648D01*
X126948396Y-108742938D01*
X126975858Y-108833467D01*
X126998528Y-108908202D01*
X127003320Y-108923997D01*
X127092511Y-109090859D01*
X127212536Y-109237111D01*
X127358788Y-109357136D01*
X127358792Y-109357139D01*
X127525653Y-109446329D01*
X127706708Y-109501251D01*
X127894999Y-109519796D01*
X128083290Y-109501251D01*
X128264345Y-109446329D01*
X128431206Y-109357139D01*
X128577461Y-109237111D01*
X128697489Y-109090856D01*
X128786679Y-108923995D01*
X128841601Y-108742940D01*
X128860146Y-108554650D01*
X129630185Y-108554650D01*
X129649399Y-108774275D01*
X129649400Y-108774283D01*
X129706461Y-108987236D01*
X129706464Y-108987242D01*
X129799636Y-109187051D01*
X129844692Y-109251399D01*
X130403864Y-108692228D01*
X130426316Y-108768689D01*
X130505603Y-108892062D01*
X130616436Y-108988100D01*
X130749837Y-109049022D01*
X130753631Y-109049567D01*
X130198245Y-109604953D01*
X130262591Y-109650008D01*
X130462404Y-109743182D01*
X130462410Y-109743185D01*
X130675363Y-109800246D01*
X130675371Y-109800247D01*
X130894996Y-109819462D01*
X130895000Y-109819462D01*
X131114624Y-109800247D01*
X131114632Y-109800246D01*
X131327585Y-109743185D01*
X131327596Y-109743181D01*
X131527400Y-109650011D01*
X131527408Y-109650007D01*
X131591749Y-109604954D01*
X131591749Y-109604953D01*
X131036364Y-109049567D01*
X131040159Y-109049022D01*
X131173560Y-108988100D01*
X131284393Y-108892062D01*
X131363680Y-108768689D01*
X131386130Y-108692229D01*
X131945302Y-109251400D01*
X131945303Y-109251400D01*
X131990356Y-109187059D01*
X131990360Y-109187051D01*
X132083530Y-108987247D01*
X132083534Y-108987236D01*
X132140595Y-108774283D01*
X132140596Y-108774275D01*
X132159811Y-108554650D01*
X132159811Y-108554647D01*
X132140596Y-108335022D01*
X132140595Y-108335015D01*
X132083531Y-108122053D01*
X131990358Y-107922244D01*
X131990357Y-107922242D01*
X131945302Y-107857897D01*
X131945302Y-107857896D01*
X131386130Y-108417067D01*
X131363680Y-108340609D01*
X131284393Y-108217236D01*
X131173560Y-108121198D01*
X131040159Y-108060276D01*
X131036363Y-108059730D01*
X131591749Y-107504343D01*
X131527400Y-107459287D01*
X131327591Y-107366115D01*
X131327585Y-107366112D01*
X131114632Y-107309051D01*
X131114624Y-107309050D01*
X130895000Y-107289836D01*
X130894996Y-107289836D01*
X130675371Y-107309050D01*
X130675364Y-107309051D01*
X130462402Y-107366115D01*
X130262592Y-107459289D01*
X130198246Y-107504343D01*
X130753633Y-108059730D01*
X130749837Y-108060276D01*
X130616436Y-108121198D01*
X130505603Y-108217236D01*
X130426316Y-108340609D01*
X130403864Y-108417069D01*
X129844692Y-107857897D01*
X129799638Y-107922243D01*
X129706464Y-108122053D01*
X129649400Y-108335015D01*
X129649399Y-108335022D01*
X129630185Y-108554647D01*
X129630185Y-108554650D01*
X128860146Y-108554650D01*
X128860146Y-108554649D01*
X128841601Y-108366358D01*
X128786679Y-108185303D01*
X128697489Y-108018442D01*
X128618541Y-107922243D01*
X128577461Y-107872186D01*
X128431209Y-107752161D01*
X128431207Y-107752160D01*
X128431206Y-107752159D01*
X128264345Y-107662969D01*
X128173817Y-107635508D01*
X128083288Y-107608046D01*
X127894999Y-107589502D01*
X127706709Y-107608046D01*
X127525650Y-107662970D01*
X127358788Y-107752161D01*
X127212536Y-107872186D01*
X127092511Y-108018438D01*
X127003320Y-108185300D01*
X126948396Y-108366359D01*
X126929852Y-108554648D01*
X122118900Y-108554648D01*
X122118900Y-105554649D01*
X126929852Y-105554649D01*
X126948396Y-105742939D01*
X126975858Y-105833468D01*
X127001756Y-105918844D01*
X127003320Y-105923998D01*
X127092511Y-106090860D01*
X127212536Y-106237112D01*
X127358788Y-106357137D01*
X127358792Y-106357140D01*
X127525653Y-106446330D01*
X127706708Y-106501252D01*
X127894999Y-106519797D01*
X128083290Y-106501252D01*
X128264345Y-106446330D01*
X128431206Y-106357140D01*
X128577461Y-106237112D01*
X128697489Y-106090857D01*
X128786679Y-105923996D01*
X128841601Y-105742941D01*
X128860146Y-105554651D01*
X129630185Y-105554651D01*
X129649399Y-105774276D01*
X129649400Y-105774284D01*
X129706461Y-105987237D01*
X129706464Y-105987243D01*
X129799636Y-106187052D01*
X129844692Y-106251400D01*
X130403864Y-105692229D01*
X130426316Y-105768690D01*
X130505603Y-105892063D01*
X130616436Y-105988101D01*
X130749837Y-106049023D01*
X130753631Y-106049568D01*
X130198245Y-106604954D01*
X130262591Y-106650009D01*
X130462404Y-106743183D01*
X130462410Y-106743186D01*
X130675363Y-106800247D01*
X130675371Y-106800248D01*
X130894996Y-106819463D01*
X130895000Y-106819463D01*
X131114624Y-106800248D01*
X131114632Y-106800247D01*
X131327585Y-106743186D01*
X131327596Y-106743182D01*
X131527400Y-106650012D01*
X131527408Y-106650008D01*
X131591749Y-106604955D01*
X131591749Y-106604954D01*
X131036364Y-106049568D01*
X131040159Y-106049023D01*
X131173560Y-105988101D01*
X131284393Y-105892063D01*
X131363680Y-105768690D01*
X131386130Y-105692230D01*
X131945302Y-106251401D01*
X131945303Y-106251401D01*
X131990356Y-106187060D01*
X131990360Y-106187052D01*
X132083530Y-105987248D01*
X132083534Y-105987237D01*
X132140595Y-105774284D01*
X132140596Y-105774276D01*
X132159811Y-105554651D01*
X132159811Y-105554648D01*
X132140596Y-105335023D01*
X132140595Y-105335016D01*
X132134642Y-105312801D01*
X142372418Y-105312801D01*
X142393055Y-105469560D01*
X142393056Y-105469562D01*
X142453564Y-105615641D01*
X142549818Y-105741082D01*
X142675259Y-105837336D01*
X142821338Y-105897844D01*
X142899719Y-105908162D01*
X142978099Y-105918482D01*
X142978100Y-105918482D01*
X142978101Y-105918482D01*
X143056177Y-105908203D01*
X143134862Y-105897844D01*
X143160114Y-105887383D01*
X143188620Y-105879401D01*
X143192160Y-105878853D01*
X143192164Y-105878853D01*
X143271953Y-105858336D01*
X143808349Y-105720407D01*
X143839230Y-105716500D01*
X148847579Y-105716500D01*
X148882278Y-105721453D01*
X149486974Y-105897713D01*
X149487568Y-105897781D01*
X149488464Y-105898013D01*
X149492102Y-105898749D01*
X149492061Y-105898947D01*
X149520803Y-105906402D01*
X149550838Y-105918844D01*
X149686960Y-105936764D01*
X149707599Y-105939482D01*
X149707600Y-105939482D01*
X149707601Y-105939482D01*
X149759854Y-105932602D01*
X149864362Y-105918844D01*
X150010441Y-105858336D01*
X150135882Y-105762082D01*
X150232136Y-105636641D01*
X150292644Y-105490562D01*
X150308996Y-105366359D01*
X150313282Y-105333801D01*
X150313282Y-105333798D01*
X150292644Y-105177039D01*
X150292644Y-105177038D01*
X150232136Y-105030959D01*
X150135882Y-104905518D01*
X150010441Y-104809264D01*
X149864362Y-104748756D01*
X149864360Y-104748755D01*
X149707601Y-104728118D01*
X149707599Y-104728118D01*
X149550837Y-104748756D01*
X149528891Y-104757846D01*
X149505415Y-104764054D01*
X149505547Y-104764635D01*
X149499608Y-104765977D01*
X149499607Y-104765978D01*
X148880220Y-104906046D01*
X148852873Y-104909100D01*
X143839230Y-104909100D01*
X143808349Y-104905193D01*
X143192163Y-104746745D01*
X143187261Y-104745897D01*
X143187424Y-104744951D01*
X143160060Y-104738193D01*
X143134865Y-104727757D01*
X143134860Y-104727755D01*
X142978101Y-104707118D01*
X142978099Y-104707118D01*
X142821339Y-104727755D01*
X142821337Y-104727756D01*
X142675260Y-104788263D01*
X142549818Y-104884518D01*
X142453563Y-105009960D01*
X142393056Y-105156037D01*
X142393055Y-105156039D01*
X142372418Y-105312798D01*
X142372418Y-105312801D01*
X132134642Y-105312801D01*
X132083531Y-105122054D01*
X131990358Y-104922245D01*
X131990357Y-104922243D01*
X131945302Y-104857898D01*
X131945302Y-104857897D01*
X131386130Y-105417068D01*
X131363680Y-105340610D01*
X131284393Y-105217237D01*
X131173560Y-105121199D01*
X131040159Y-105060277D01*
X131036363Y-105059731D01*
X131591749Y-104504344D01*
X131527400Y-104459288D01*
X131327591Y-104366116D01*
X131327585Y-104366113D01*
X131114632Y-104309052D01*
X131114624Y-104309051D01*
X130895000Y-104289837D01*
X130894996Y-104289837D01*
X130675371Y-104309051D01*
X130675364Y-104309052D01*
X130462402Y-104366116D01*
X130262592Y-104459290D01*
X130198246Y-104504344D01*
X130753633Y-105059731D01*
X130749837Y-105060277D01*
X130616436Y-105121199D01*
X130505603Y-105217237D01*
X130426316Y-105340610D01*
X130403864Y-105417070D01*
X129844692Y-104857898D01*
X129799638Y-104922244D01*
X129706464Y-105122054D01*
X129649400Y-105335016D01*
X129649399Y-105335023D01*
X129630185Y-105554648D01*
X129630185Y-105554651D01*
X128860146Y-105554651D01*
X128860146Y-105554650D01*
X128841601Y-105366359D01*
X128786679Y-105185304D01*
X128697489Y-105018443D01*
X128697486Y-105018439D01*
X128577461Y-104872187D01*
X128431209Y-104752162D01*
X128431207Y-104752161D01*
X128431206Y-104752160D01*
X128264345Y-104662970D01*
X128173817Y-104635508D01*
X128083288Y-104608047D01*
X127894999Y-104589503D01*
X127706709Y-104608047D01*
X127525650Y-104662971D01*
X127358788Y-104752162D01*
X127212536Y-104872187D01*
X127092511Y-105018439D01*
X127003320Y-105185301D01*
X126948396Y-105366360D01*
X126929852Y-105554649D01*
X122118900Y-105554649D01*
X122118900Y-102554651D01*
X126929852Y-102554651D01*
X126948396Y-102742940D01*
X126959384Y-102779163D01*
X127002132Y-102920085D01*
X127003320Y-102923999D01*
X127092511Y-103090861D01*
X127212536Y-103237113D01*
X127358788Y-103357138D01*
X127358792Y-103357141D01*
X127525653Y-103446331D01*
X127706708Y-103501253D01*
X127894999Y-103519798D01*
X128083290Y-103501253D01*
X128264345Y-103446331D01*
X128431206Y-103357141D01*
X128577461Y-103237113D01*
X128697489Y-103090858D01*
X128786679Y-102923997D01*
X128841601Y-102742942D01*
X128860146Y-102554652D01*
X129630185Y-102554652D01*
X129649399Y-102774277D01*
X129649400Y-102774285D01*
X129706461Y-102987238D01*
X129706464Y-102987244D01*
X129799636Y-103187053D01*
X129844692Y-103251401D01*
X130403864Y-102692230D01*
X130426316Y-102768691D01*
X130505603Y-102892064D01*
X130616436Y-102988102D01*
X130749837Y-103049024D01*
X130753631Y-103049569D01*
X130198245Y-103604955D01*
X130262591Y-103650010D01*
X130462404Y-103743184D01*
X130462410Y-103743187D01*
X130675363Y-103800248D01*
X130675371Y-103800249D01*
X130894996Y-103819464D01*
X130895000Y-103819464D01*
X131114624Y-103800249D01*
X131114632Y-103800248D01*
X131327585Y-103743187D01*
X131327596Y-103743183D01*
X131527400Y-103650013D01*
X131527408Y-103650009D01*
X131591749Y-103604956D01*
X131591749Y-103604955D01*
X131036364Y-103049569D01*
X131040159Y-103049024D01*
X131173560Y-102988102D01*
X131284393Y-102892064D01*
X131363680Y-102768691D01*
X131386131Y-102692230D01*
X131945303Y-103251402D01*
X131990356Y-103187061D01*
X131990360Y-103187053D01*
X132083530Y-102987249D01*
X132083534Y-102987238D01*
X132140595Y-102774285D01*
X132140596Y-102774277D01*
X132159811Y-102554652D01*
X132159811Y-102554649D01*
X132140596Y-102335024D01*
X132140595Y-102335017D01*
X132119422Y-102256001D01*
X133049118Y-102256001D01*
X133069755Y-102412760D01*
X133069756Y-102412762D01*
X133128527Y-102554649D01*
X133130264Y-102558841D01*
X133183478Y-102628192D01*
X133208672Y-102693360D01*
X133194634Y-102761804D01*
X133183478Y-102779163D01*
X133131764Y-102846557D01*
X133071256Y-102992637D01*
X133071255Y-102992639D01*
X133050618Y-103149398D01*
X133050618Y-103149401D01*
X133071255Y-103306160D01*
X133071256Y-103306162D01*
X133131764Y-103452241D01*
X133228018Y-103577682D01*
X133353459Y-103673936D01*
X133499538Y-103734444D01*
X133565918Y-103743183D01*
X133656299Y-103755082D01*
X133656300Y-103755082D01*
X133656301Y-103755082D01*
X133708553Y-103748202D01*
X133813062Y-103734444D01*
X133959141Y-103673936D01*
X134084582Y-103577682D01*
X134180836Y-103452241D01*
X134241344Y-103306162D01*
X134245262Y-103276401D01*
X148263718Y-103276401D01*
X148284355Y-103433160D01*
X148284356Y-103433162D01*
X148344864Y-103579241D01*
X148441118Y-103704682D01*
X148566559Y-103800936D01*
X148712638Y-103861444D01*
X148791018Y-103871763D01*
X148869399Y-103882082D01*
X148869400Y-103882082D01*
X148869401Y-103882082D01*
X148921654Y-103875202D01*
X149026162Y-103861444D01*
X149172241Y-103800936D01*
X149297682Y-103704682D01*
X149393936Y-103579241D01*
X149454444Y-103433162D01*
X149475082Y-103276400D01*
X149454444Y-103119638D01*
X149393936Y-102973559D01*
X149393935Y-102973558D01*
X149393935Y-102973557D01*
X149355907Y-102923999D01*
X149352904Y-102920085D01*
X149327710Y-102854919D01*
X149341748Y-102786474D01*
X149352904Y-102769115D01*
X149393936Y-102715641D01*
X149454444Y-102569562D01*
X149475082Y-102412800D01*
X149454444Y-102256038D01*
X149393936Y-102109959D01*
X149346113Y-102047634D01*
X149320920Y-101982467D01*
X149334958Y-101914023D01*
X149346108Y-101896673D01*
X149419336Y-101801241D01*
X149479844Y-101655162D01*
X149500482Y-101498400D01*
X149479844Y-101341638D01*
X149419336Y-101195559D01*
X149419335Y-101195558D01*
X149419335Y-101195557D01*
X149389564Y-101156760D01*
X149358814Y-101116685D01*
X149333620Y-101051518D01*
X149347658Y-100983073D01*
X149358812Y-100965717D01*
X149419336Y-100886841D01*
X149479844Y-100740762D01*
X149500482Y-100584000D01*
X149479844Y-100427238D01*
X149419336Y-100281159D01*
X149419335Y-100281158D01*
X149419335Y-100281157D01*
X149378305Y-100227686D01*
X149353111Y-100162517D01*
X149367149Y-100094072D01*
X149378305Y-100076714D01*
X149395219Y-100054670D01*
X149419336Y-100023241D01*
X149479844Y-99877162D01*
X149500482Y-99720400D01*
X149479844Y-99563638D01*
X149419336Y-99417559D01*
X149419335Y-99417558D01*
X149419335Y-99417557D01*
X149417834Y-99415601D01*
X153496118Y-99415601D01*
X153516755Y-99572360D01*
X153516756Y-99572362D01*
X153577264Y-99718441D01*
X153673518Y-99843882D01*
X153798959Y-99940136D01*
X153945038Y-100000644D01*
X154019781Y-100010484D01*
X154101799Y-100021282D01*
X154101800Y-100021282D01*
X154101801Y-100021282D01*
X154183819Y-100010484D01*
X154258562Y-100000644D01*
X154404641Y-99940136D01*
X154483514Y-99879614D01*
X154548682Y-99854420D01*
X154617127Y-99868458D01*
X154634482Y-99879612D01*
X154649973Y-99891498D01*
X154713357Y-99940135D01*
X154713358Y-99940135D01*
X154713359Y-99940136D01*
X154859438Y-100000644D01*
X154934181Y-100010484D01*
X155016199Y-100021282D01*
X155016200Y-100021282D01*
X155016201Y-100021282D01*
X155098219Y-100010484D01*
X155172962Y-100000644D01*
X155319041Y-99940136D01*
X155444482Y-99843882D01*
X155531276Y-99730769D01*
X155587702Y-99689568D01*
X155657448Y-99685413D01*
X155677102Y-99691696D01*
X155714867Y-99707338D01*
X155748438Y-99721244D01*
X155820803Y-99730771D01*
X155905199Y-99741882D01*
X155905200Y-99741882D01*
X155905201Y-99741882D01*
X155957453Y-99735002D01*
X156061962Y-99721244D01*
X156208041Y-99660736D01*
X156333482Y-99564482D01*
X156429736Y-99439041D01*
X156490244Y-99292962D01*
X156509789Y-99144500D01*
X156510882Y-99136201D01*
X156510882Y-99136198D01*
X156490244Y-98979439D01*
X156490244Y-98979438D01*
X156429736Y-98833359D01*
X156429735Y-98833358D01*
X156429735Y-98833357D01*
X156376883Y-98764480D01*
X156369214Y-98754485D01*
X156344020Y-98689318D01*
X156358058Y-98620873D01*
X156369212Y-98603517D01*
X156429736Y-98524641D01*
X156490244Y-98378562D01*
X156510882Y-98221800D01*
X156490244Y-98065038D01*
X156429736Y-97918959D01*
X156429735Y-97918958D01*
X156429735Y-97918957D01*
X156405340Y-97887166D01*
X156378959Y-97852785D01*
X156353765Y-97787618D01*
X156367803Y-97719173D01*
X156378957Y-97701817D01*
X156429736Y-97635641D01*
X156490244Y-97489562D01*
X156510882Y-97332800D01*
X156490244Y-97176038D01*
X156429736Y-97029959D01*
X156429735Y-97029958D01*
X156429735Y-97029957D01*
X156394325Y-96983811D01*
X156359469Y-96938385D01*
X156334275Y-96873218D01*
X156348313Y-96804773D01*
X156359467Y-96787417D01*
X156429736Y-96695841D01*
X156490244Y-96549762D01*
X156510882Y-96393000D01*
X156490244Y-96236238D01*
X156429736Y-96090159D01*
X156429735Y-96090158D01*
X156429735Y-96090157D01*
X156382451Y-96028536D01*
X156369214Y-96011285D01*
X156344020Y-95946118D01*
X156358058Y-95877673D01*
X156369212Y-95860317D01*
X156429736Y-95781441D01*
X156490244Y-95635362D01*
X156507538Y-95504001D01*
X162604318Y-95504001D01*
X162624955Y-95660760D01*
X162624956Y-95660762D01*
X162675007Y-95781597D01*
X162685464Y-95806841D01*
X162781718Y-95932282D01*
X162907159Y-96028536D01*
X163053238Y-96089044D01*
X163131618Y-96099363D01*
X163209999Y-96109682D01*
X163210000Y-96109682D01*
X163210001Y-96109682D01*
X163262254Y-96102802D01*
X163366762Y-96089044D01*
X163512841Y-96028536D01*
X163638282Y-95932282D01*
X163734536Y-95806841D01*
X163744994Y-95781590D01*
X163759504Y-95755794D01*
X163761622Y-95752898D01*
X163761628Y-95752893D01*
X164085298Y-95205141D01*
X164104361Y-95180555D01*
X164396824Y-94888094D01*
X164396823Y-94888094D01*
X164419571Y-94865347D01*
X164419572Y-94865344D01*
X164423765Y-94861152D01*
X164427778Y-94849238D01*
X164429753Y-94845361D01*
X164439906Y-94828794D01*
X164453082Y-94810661D01*
X164460009Y-94789339D01*
X164467446Y-94771384D01*
X164477627Y-94751405D01*
X164481131Y-94729270D01*
X164485674Y-94710352D01*
X164492600Y-94689040D01*
X164492600Y-94561161D01*
X164492600Y-88925401D01*
X170808518Y-88925401D01*
X170829155Y-89082160D01*
X170829156Y-89082162D01*
X170889664Y-89228241D01*
X170985918Y-89353682D01*
X171111359Y-89449936D01*
X171257438Y-89510444D01*
X171335819Y-89520763D01*
X171414199Y-89531082D01*
X171414200Y-89531082D01*
X171414201Y-89531082D01*
X171466453Y-89524202D01*
X171570962Y-89510444D01*
X171717041Y-89449936D01*
X171779363Y-89402114D01*
X171844531Y-89376920D01*
X171912976Y-89390958D01*
X171930331Y-89402112D01*
X171972286Y-89434305D01*
X172025757Y-89475335D01*
X172025758Y-89475335D01*
X172025759Y-89475336D01*
X172171838Y-89535844D01*
X172250218Y-89546163D01*
X172328599Y-89556482D01*
X172328600Y-89556482D01*
X172328601Y-89556482D01*
X172380854Y-89549602D01*
X172485362Y-89535844D01*
X172631441Y-89475336D01*
X172666351Y-89448549D01*
X172684914Y-89434305D01*
X172750083Y-89409111D01*
X172818528Y-89423149D01*
X172835886Y-89434305D01*
X172889357Y-89475335D01*
X172889358Y-89475335D01*
X172889359Y-89475336D01*
X173035438Y-89535844D01*
X173113818Y-89546163D01*
X173192199Y-89556482D01*
X173192200Y-89556482D01*
X173192201Y-89556482D01*
X173244454Y-89549602D01*
X173348962Y-89535844D01*
X173495041Y-89475336D01*
X173573914Y-89414814D01*
X173639082Y-89389620D01*
X173707527Y-89403658D01*
X173724882Y-89414812D01*
X173750286Y-89434305D01*
X173803757Y-89475335D01*
X173803758Y-89475335D01*
X173803759Y-89475336D01*
X173949838Y-89535844D01*
X174028218Y-89546163D01*
X174106599Y-89556482D01*
X174106600Y-89556482D01*
X174106601Y-89556482D01*
X174158854Y-89549602D01*
X174263362Y-89535844D01*
X174409441Y-89475336D01*
X174471763Y-89427514D01*
X174536931Y-89402320D01*
X174605376Y-89416358D01*
X174622731Y-89427512D01*
X174651954Y-89449935D01*
X174718157Y-89500735D01*
X174718158Y-89500735D01*
X174718159Y-89500736D01*
X174864238Y-89561244D01*
X174942618Y-89571563D01*
X175020999Y-89581882D01*
X175021000Y-89581882D01*
X175021001Y-89581882D01*
X175073253Y-89575002D01*
X175177762Y-89561244D01*
X175323841Y-89500736D01*
X175377313Y-89459705D01*
X175442483Y-89434511D01*
X175510928Y-89448549D01*
X175528286Y-89459705D01*
X175581757Y-89500735D01*
X175581758Y-89500735D01*
X175581759Y-89500736D01*
X175727838Y-89561244D01*
X175806219Y-89571563D01*
X175884599Y-89581882D01*
X175884600Y-89581882D01*
X175884601Y-89581882D01*
X175936854Y-89575002D01*
X176041362Y-89561244D01*
X176187441Y-89500736D01*
X176312882Y-89404482D01*
X176409136Y-89279041D01*
X176469644Y-89132962D01*
X176490282Y-88976200D01*
X176487512Y-88955162D01*
X176469644Y-88819439D01*
X176469644Y-88819438D01*
X176409136Y-88673359D01*
X176312882Y-88547918D01*
X176187441Y-88451664D01*
X176041362Y-88391156D01*
X176041360Y-88391155D01*
X175884601Y-88370518D01*
X175884599Y-88370518D01*
X175727839Y-88391155D01*
X175727837Y-88391156D01*
X175581758Y-88451664D01*
X175528285Y-88492695D01*
X175463116Y-88517888D01*
X175394671Y-88503849D01*
X175377315Y-88492695D01*
X175323841Y-88451664D01*
X175177762Y-88391156D01*
X175177760Y-88391155D01*
X175021001Y-88370518D01*
X175020999Y-88370518D01*
X174864239Y-88391155D01*
X174864237Y-88391156D01*
X174718157Y-88451664D01*
X174655836Y-88499485D01*
X174590666Y-88524679D01*
X174522222Y-88510640D01*
X174504873Y-88499491D01*
X174409441Y-88426264D01*
X174263362Y-88365756D01*
X174263360Y-88365755D01*
X174106601Y-88345118D01*
X174106599Y-88345118D01*
X173949839Y-88365755D01*
X173949837Y-88365756D01*
X173803757Y-88426264D01*
X173724886Y-88486785D01*
X173659717Y-88511979D01*
X173591272Y-88497941D01*
X173573914Y-88486785D01*
X173495042Y-88426264D01*
X173348962Y-88365756D01*
X173348960Y-88365755D01*
X173192201Y-88345118D01*
X173192199Y-88345118D01*
X173035439Y-88365755D01*
X173035437Y-88365756D01*
X172889358Y-88426264D01*
X172835885Y-88467295D01*
X172770716Y-88492488D01*
X172702271Y-88478449D01*
X172684915Y-88467295D01*
X172631441Y-88426264D01*
X172485362Y-88365756D01*
X172485360Y-88365755D01*
X172328601Y-88345118D01*
X172328599Y-88345118D01*
X172171839Y-88365755D01*
X172171837Y-88365756D01*
X172025757Y-88426264D01*
X171963436Y-88474085D01*
X171898266Y-88499279D01*
X171829822Y-88485240D01*
X171812473Y-88474091D01*
X171717041Y-88400864D01*
X171693601Y-88391155D01*
X171570962Y-88340356D01*
X171570960Y-88340355D01*
X171414201Y-88319718D01*
X171414199Y-88319718D01*
X171257439Y-88340355D01*
X171257437Y-88340356D01*
X171111360Y-88400863D01*
X170985918Y-88497118D01*
X170889663Y-88622560D01*
X170829156Y-88768637D01*
X170829155Y-88768639D01*
X170808518Y-88925398D01*
X170808518Y-88925401D01*
X164492600Y-88925401D01*
X164492600Y-88870030D01*
X164503315Y-88819608D01*
X164753534Y-88257434D01*
X164753544Y-88257410D01*
X164753563Y-88257368D01*
X164754197Y-88255891D01*
X164756869Y-88242974D01*
X164763736Y-88220652D01*
X164785643Y-88167764D01*
X164785642Y-88167764D01*
X164785644Y-88167762D01*
X164806282Y-88011000D01*
X164785644Y-87854238D01*
X164725136Y-87708159D01*
X164628882Y-87582718D01*
X164503441Y-87486464D01*
X164357362Y-87425956D01*
X164357360Y-87425955D01*
X164200601Y-87405318D01*
X164200599Y-87405318D01*
X164043839Y-87425955D01*
X164043837Y-87425956D01*
X163897760Y-87486463D01*
X163772318Y-87582718D01*
X163676063Y-87708160D01*
X163615556Y-87854237D01*
X163615555Y-87854239D01*
X163594918Y-88010998D01*
X163594918Y-88011001D01*
X163596691Y-88024469D01*
X163597034Y-88040198D01*
X163597668Y-88040192D01*
X163597734Y-88046292D01*
X163680276Y-88800697D01*
X163680277Y-88800702D01*
X163680278Y-88800706D01*
X163680435Y-88801258D01*
X163680559Y-88802139D01*
X163681286Y-88805847D01*
X163681083Y-88805886D01*
X163685200Y-88835299D01*
X163685199Y-94406519D01*
X163665514Y-94473558D01*
X163648880Y-94494200D01*
X163533451Y-94609629D01*
X163508853Y-94628703D01*
X162961106Y-94952373D01*
X162957042Y-94955238D01*
X162956491Y-94954457D01*
X162932362Y-94969023D01*
X162907160Y-94979463D01*
X162781719Y-95075716D01*
X162685463Y-95201160D01*
X162624956Y-95347237D01*
X162624955Y-95347239D01*
X162604318Y-95503998D01*
X162604318Y-95504001D01*
X156507538Y-95504001D01*
X156510882Y-95478600D01*
X156490244Y-95321838D01*
X156429736Y-95175759D01*
X156429735Y-95175758D01*
X156429735Y-95175757D01*
X156405340Y-95143966D01*
X156378959Y-95109585D01*
X156353765Y-95044418D01*
X156367803Y-94975973D01*
X156378957Y-94958617D01*
X156429736Y-94892441D01*
X156490244Y-94746362D01*
X156510882Y-94589600D01*
X156490244Y-94432838D01*
X156429736Y-94286759D01*
X156333482Y-94161318D01*
X156208041Y-94065064D01*
X156061962Y-94004556D01*
X156061960Y-94004555D01*
X155905201Y-93983918D01*
X155905199Y-93983918D01*
X155748439Y-94004555D01*
X155748437Y-94004556D01*
X155602360Y-94065063D01*
X155476918Y-94161318D01*
X155380663Y-94286760D01*
X155320156Y-94432837D01*
X155320155Y-94432839D01*
X155299518Y-94589598D01*
X155299518Y-94589601D01*
X155320155Y-94746360D01*
X155320156Y-94746362D01*
X155380664Y-94892442D01*
X155431439Y-94958613D01*
X155456633Y-95023782D01*
X155442595Y-95092227D01*
X155431440Y-95109584D01*
X155380664Y-95175758D01*
X155320156Y-95321837D01*
X155320155Y-95321839D01*
X155299518Y-95478598D01*
X155299518Y-95478601D01*
X155320155Y-95635360D01*
X155320156Y-95635362D01*
X155380664Y-95781442D01*
X155441184Y-95860313D01*
X155466378Y-95925482D01*
X155452340Y-95993927D01*
X155441185Y-96011284D01*
X155380664Y-96090158D01*
X155320156Y-96236237D01*
X155320155Y-96236239D01*
X155299518Y-96392998D01*
X155299518Y-96393001D01*
X155320155Y-96549760D01*
X155320156Y-96549762D01*
X155380664Y-96695841D01*
X155450931Y-96787415D01*
X155476124Y-96852581D01*
X155462086Y-96921026D01*
X155450930Y-96938385D01*
X155380664Y-97029957D01*
X155320156Y-97176037D01*
X155320155Y-97176039D01*
X155299518Y-97332798D01*
X155299518Y-97332801D01*
X155320155Y-97489560D01*
X155320156Y-97489562D01*
X155380664Y-97635641D01*
X155380665Y-97635642D01*
X155431440Y-97701814D01*
X155456633Y-97766984D01*
X155442594Y-97835429D01*
X155431439Y-97852786D01*
X155390125Y-97906628D01*
X155333698Y-97947831D01*
X155263952Y-97951986D01*
X155244297Y-97945703D01*
X155172965Y-97916157D01*
X155172960Y-97916155D01*
X155016201Y-97895518D01*
X155016199Y-97895518D01*
X154859439Y-97916155D01*
X154859437Y-97916156D01*
X154713357Y-97976664D01*
X154634486Y-98037185D01*
X154569317Y-98062379D01*
X154500872Y-98048341D01*
X154483514Y-98037185D01*
X154404642Y-97976664D01*
X154258562Y-97916156D01*
X154258560Y-97916155D01*
X154101801Y-97895518D01*
X154101799Y-97895518D01*
X153945039Y-97916155D01*
X153945037Y-97916156D01*
X153798960Y-97976663D01*
X153673518Y-98072918D01*
X153577263Y-98198360D01*
X153516756Y-98344437D01*
X153516755Y-98344439D01*
X153496118Y-98501198D01*
X153496118Y-98501201D01*
X153516755Y-98657960D01*
X153516756Y-98657962D01*
X153577264Y-98804042D01*
X153637784Y-98882913D01*
X153662978Y-98948082D01*
X153648940Y-99016527D01*
X153637785Y-99033884D01*
X153577264Y-99112758D01*
X153516756Y-99258837D01*
X153516755Y-99258839D01*
X153496118Y-99415598D01*
X153496118Y-99415601D01*
X149417834Y-99415601D01*
X149388350Y-99377177D01*
X149363155Y-99312008D01*
X149377193Y-99243563D01*
X149388347Y-99226207D01*
X149419936Y-99185041D01*
X149480444Y-99038962D01*
X149501082Y-98882200D01*
X149493592Y-98825311D01*
X149480444Y-98725439D01*
X149480444Y-98725438D01*
X149419936Y-98579359D01*
X149323682Y-98453918D01*
X149198241Y-98357664D01*
X149166308Y-98344437D01*
X149052162Y-98297156D01*
X149052160Y-98297155D01*
X148895401Y-98276518D01*
X148895399Y-98276518D01*
X148738639Y-98297155D01*
X148738637Y-98297156D01*
X148592560Y-98357663D01*
X148467118Y-98453918D01*
X148370863Y-98579360D01*
X148310356Y-98725437D01*
X148310355Y-98725439D01*
X148289718Y-98882198D01*
X148289718Y-98882201D01*
X148310355Y-99038960D01*
X148310356Y-99038962D01*
X148370864Y-99185041D01*
X148401850Y-99225424D01*
X148427043Y-99290593D01*
X148413004Y-99359038D01*
X148401850Y-99376394D01*
X148370264Y-99417558D01*
X148309756Y-99563637D01*
X148309755Y-99563639D01*
X148289118Y-99720398D01*
X148289118Y-99720401D01*
X148309755Y-99877160D01*
X148309756Y-99877162D01*
X148370264Y-100023241D01*
X148411295Y-100076715D01*
X148436488Y-100141884D01*
X148422449Y-100210329D01*
X148411295Y-100227685D01*
X148370264Y-100281158D01*
X148309756Y-100427237D01*
X148309755Y-100427239D01*
X148289118Y-100583998D01*
X148289118Y-100584001D01*
X148309755Y-100740760D01*
X148309756Y-100740762D01*
X148370264Y-100886842D01*
X148430785Y-100965714D01*
X148455979Y-101030883D01*
X148441941Y-101099328D01*
X148430785Y-101116686D01*
X148370264Y-101195557D01*
X148309756Y-101341637D01*
X148309755Y-101341639D01*
X148289118Y-101498398D01*
X148289118Y-101498401D01*
X148309755Y-101655160D01*
X148309756Y-101655162D01*
X148370264Y-101801242D01*
X148418084Y-101863562D01*
X148443278Y-101928731D01*
X148429239Y-101997176D01*
X148418085Y-102014533D01*
X148344864Y-102109958D01*
X148284356Y-102256037D01*
X148284355Y-102256039D01*
X148263718Y-102412798D01*
X148263718Y-102412801D01*
X148284355Y-102569560D01*
X148284356Y-102569562D01*
X148344864Y-102715641D01*
X148385895Y-102769115D01*
X148411088Y-102834284D01*
X148397049Y-102902729D01*
X148385895Y-102920085D01*
X148344864Y-102973558D01*
X148284356Y-103119637D01*
X148284355Y-103119639D01*
X148263718Y-103276398D01*
X148263718Y-103276401D01*
X134245262Y-103276401D01*
X134261982Y-103149400D01*
X134241344Y-102992638D01*
X134180836Y-102846559D01*
X134127619Y-102777206D01*
X134102427Y-102712040D01*
X134116465Y-102643595D01*
X134127617Y-102626242D01*
X134179336Y-102558841D01*
X134239844Y-102412762D01*
X134260482Y-102256000D01*
X134251174Y-102185302D01*
X134242735Y-102121200D01*
X134239844Y-102099238D01*
X134179336Y-101953159D01*
X134179335Y-101953158D01*
X134179335Y-101953157D01*
X134126479Y-101884274D01*
X134109069Y-101861585D01*
X134083875Y-101796418D01*
X134097913Y-101727973D01*
X134109067Y-101710617D01*
X134179336Y-101619041D01*
X134239844Y-101472962D01*
X134260482Y-101316200D01*
X134257011Y-101289838D01*
X134239844Y-101159439D01*
X134239844Y-101159438D01*
X134179336Y-101013359D01*
X134179335Y-101013358D01*
X134179335Y-101013357D01*
X134156097Y-100983073D01*
X134138304Y-100959885D01*
X134113110Y-100894719D01*
X134127148Y-100826274D01*
X134138304Y-100808915D01*
X134179336Y-100755441D01*
X134239844Y-100609362D01*
X134260482Y-100452600D01*
X134239844Y-100295838D01*
X134179336Y-100149759D01*
X134179335Y-100149758D01*
X134179335Y-100149757D01*
X134138305Y-100096286D01*
X134113111Y-100031117D01*
X134127149Y-99962672D01*
X134138305Y-99945314D01*
X134179335Y-99891842D01*
X134179334Y-99891842D01*
X134179336Y-99891841D01*
X134239844Y-99745762D01*
X134260482Y-99589000D01*
X134258291Y-99572360D01*
X134239844Y-99432239D01*
X134239844Y-99432238D01*
X134179336Y-99286159D01*
X134179335Y-99286158D01*
X134179335Y-99286157D01*
X134128560Y-99219985D01*
X134103366Y-99154815D01*
X134117405Y-99086371D01*
X134128561Y-99069012D01*
X134179335Y-99002842D01*
X134179334Y-99002842D01*
X134179336Y-99002841D01*
X134239844Y-98856762D01*
X134260482Y-98700000D01*
X134257717Y-98679000D01*
X134246723Y-98595492D01*
X134239844Y-98543238D01*
X134179336Y-98397159D01*
X134083082Y-98271718D01*
X133957641Y-98175464D01*
X133811562Y-98114956D01*
X133811560Y-98114955D01*
X133654801Y-98094318D01*
X133654799Y-98094318D01*
X133498039Y-98114955D01*
X133498037Y-98114956D01*
X133351960Y-98175463D01*
X133226518Y-98271718D01*
X133130263Y-98397160D01*
X133069756Y-98543237D01*
X133069755Y-98543239D01*
X133049118Y-98699998D01*
X133049118Y-98700001D01*
X133069755Y-98856760D01*
X133069756Y-98856762D01*
X133120570Y-98979439D01*
X133130264Y-99002841D01*
X133154084Y-99033884D01*
X133181040Y-99069014D01*
X133206233Y-99134184D01*
X133192194Y-99202629D01*
X133181040Y-99219986D01*
X133130263Y-99286160D01*
X133069756Y-99432237D01*
X133069755Y-99432239D01*
X133049118Y-99588998D01*
X133049118Y-99589001D01*
X133069755Y-99745760D01*
X133069756Y-99745762D01*
X133130264Y-99891841D01*
X133171295Y-99945315D01*
X133196488Y-100010484D01*
X133182449Y-100078929D01*
X133171295Y-100096285D01*
X133130264Y-100149758D01*
X133069756Y-100295837D01*
X133069755Y-100295839D01*
X133049118Y-100452598D01*
X133049118Y-100452601D01*
X133069755Y-100609360D01*
X133069756Y-100609362D01*
X133130264Y-100755441D01*
X133171295Y-100808915D01*
X133196488Y-100874084D01*
X133182449Y-100942529D01*
X133171295Y-100959885D01*
X133130264Y-101013358D01*
X133069756Y-101159437D01*
X133069755Y-101159439D01*
X133049118Y-101316198D01*
X133049118Y-101316201D01*
X133069755Y-101472960D01*
X133069756Y-101472962D01*
X133130264Y-101619042D01*
X133200530Y-101710614D01*
X133225724Y-101775783D01*
X133211686Y-101844228D01*
X133200530Y-101861586D01*
X133130264Y-101953157D01*
X133069756Y-102099237D01*
X133069755Y-102099239D01*
X133049118Y-102255998D01*
X133049118Y-102256001D01*
X132119422Y-102256001D01*
X132083531Y-102122055D01*
X131990358Y-101922246D01*
X131990357Y-101922244D01*
X131945302Y-101857899D01*
X131945301Y-101857898D01*
X131386130Y-102417068D01*
X131363680Y-102340611D01*
X131284393Y-102217238D01*
X131173560Y-102121200D01*
X131040159Y-102060278D01*
X131036363Y-102059732D01*
X131591749Y-101504345D01*
X131527400Y-101459289D01*
X131327591Y-101366117D01*
X131327585Y-101366114D01*
X131114632Y-101309053D01*
X131114624Y-101309052D01*
X130895000Y-101289838D01*
X130894996Y-101289838D01*
X130675371Y-101309052D01*
X130675364Y-101309053D01*
X130462402Y-101366117D01*
X130262592Y-101459291D01*
X130198246Y-101504345D01*
X130753633Y-102059732D01*
X130749837Y-102060278D01*
X130616436Y-102121200D01*
X130505603Y-102217238D01*
X130426316Y-102340611D01*
X130403864Y-102417071D01*
X129844692Y-101857899D01*
X129799638Y-101922245D01*
X129706464Y-102122055D01*
X129649400Y-102335017D01*
X129649399Y-102335024D01*
X129630185Y-102554649D01*
X129630185Y-102554652D01*
X128860146Y-102554652D01*
X128860146Y-102554651D01*
X128841601Y-102366360D01*
X128786679Y-102185305D01*
X128697489Y-102018444D01*
X128697486Y-102018440D01*
X128577461Y-101872188D01*
X128431209Y-101752163D01*
X128431207Y-101752162D01*
X128431206Y-101752161D01*
X128264345Y-101662971D01*
X128173817Y-101635509D01*
X128083288Y-101608048D01*
X127915568Y-101591529D01*
X127894999Y-101589504D01*
X127894998Y-101589504D01*
X127706709Y-101608048D01*
X127525650Y-101662972D01*
X127358788Y-101752163D01*
X127212536Y-101872188D01*
X127092511Y-102018440D01*
X127003320Y-102185302D01*
X126948396Y-102366361D01*
X126929852Y-102554651D01*
X122118900Y-102554651D01*
X122118900Y-101584980D01*
X122138585Y-101517941D01*
X122191389Y-101472186D01*
X122260547Y-101462242D01*
X122324103Y-101491267D01*
X122337182Y-101504440D01*
X122400766Y-101578887D01*
X122598913Y-101748121D01*
X122598915Y-101748122D01*
X122598916Y-101748123D01*
X122598917Y-101748124D01*
X122821094Y-101884274D01*
X122851004Y-101896663D01*
X123061841Y-101983995D01*
X123315222Y-102044826D01*
X123575000Y-102065271D01*
X123834778Y-102044826D01*
X124088159Y-101983995D01*
X124328905Y-101884274D01*
X124551087Y-101748121D01*
X124749234Y-101578887D01*
X124918468Y-101380740D01*
X125054621Y-101158558D01*
X125154342Y-100917812D01*
X125215173Y-100664431D01*
X125235618Y-100404653D01*
X125215173Y-100144875D01*
X125154342Y-99891494D01*
X125083821Y-99721242D01*
X125054621Y-99650747D01*
X124918471Y-99428570D01*
X124918470Y-99428569D01*
X124918469Y-99428568D01*
X124918468Y-99428566D01*
X124749234Y-99230419D01*
X124551087Y-99061185D01*
X124551085Y-99061183D01*
X124551083Y-99061182D01*
X124551082Y-99061181D01*
X124328905Y-98925031D01*
X124088154Y-98825309D01*
X123834774Y-98764479D01*
X123834775Y-98764479D01*
X123575000Y-98744035D01*
X123315224Y-98764479D01*
X123061845Y-98825309D01*
X122821094Y-98925031D01*
X122598917Y-99061181D01*
X122598916Y-99061182D01*
X122400765Y-99230419D01*
X122337188Y-99304858D01*
X122278681Y-99343050D01*
X122208813Y-99343548D01*
X122149767Y-99306194D01*
X122120290Y-99242847D01*
X122118899Y-99224337D01*
X122118899Y-90393787D01*
X125990300Y-90393787D01*
X126010594Y-90528423D01*
X126029404Y-90653215D01*
X126029405Y-90653217D01*
X126029406Y-90653223D01*
X126106738Y-90903926D01*
X126220567Y-91140296D01*
X126220568Y-91140297D01*
X126220570Y-91140300D01*
X126220572Y-91140304D01*
X126331055Y-91302352D01*
X126368367Y-91357079D01*
X126546814Y-91549401D01*
X126546818Y-91549404D01*
X126546819Y-91549405D01*
X126751943Y-91712986D01*
X126979157Y-91844168D01*
X127223384Y-91940020D01*
X127479170Y-91998402D01*
X127479176Y-91998402D01*
X127479179Y-91998403D01*
X127675284Y-92013099D01*
X127675303Y-92013099D01*
X127675306Y-92013100D01*
X127675308Y-92013100D01*
X127806292Y-92013100D01*
X127806294Y-92013100D01*
X127806296Y-92013099D01*
X127806315Y-92013099D01*
X128002420Y-91998403D01*
X128002422Y-91998402D01*
X128002430Y-91998402D01*
X128258216Y-91940020D01*
X128502443Y-91844168D01*
X128729657Y-91712986D01*
X128934781Y-91549405D01*
X129113233Y-91357079D01*
X129261028Y-91140304D01*
X129374863Y-90903923D01*
X129452196Y-90653215D01*
X129461916Y-90588729D01*
X131290800Y-90588729D01*
X131305916Y-90756696D01*
X131305917Y-90756702D01*
X131365773Y-90973584D01*
X131365778Y-90973597D01*
X131463398Y-91176308D01*
X131463402Y-91176316D01*
X131595651Y-91358341D01*
X131595657Y-91358349D01*
X131758286Y-91513837D01*
X131946066Y-91637791D01*
X132152969Y-91726224D01*
X132152978Y-91726227D01*
X132290799Y-91757684D01*
X132290800Y-91757684D01*
X132290799Y-90966286D01*
X132330956Y-90992093D01*
X132468911Y-91032600D01*
X132612689Y-91032600D01*
X132750644Y-90992093D01*
X132790800Y-90966286D01*
X132790800Y-91760150D01*
X132820067Y-91756186D01*
X132820073Y-91756185D01*
X133034068Y-91686654D01*
X133232201Y-91580034D01*
X133232204Y-91580032D01*
X133408120Y-91439745D01*
X133528155Y-91302352D01*
X139080300Y-91302352D01*
X139091931Y-91360829D01*
X139091932Y-91360830D01*
X139136247Y-91427152D01*
X139202569Y-91471467D01*
X139202570Y-91471468D01*
X139261047Y-91483099D01*
X139261050Y-91483100D01*
X139261052Y-91483100D01*
X140800550Y-91483100D01*
X140800551Y-91483099D01*
X140815368Y-91480152D01*
X140859029Y-91471468D01*
X140859029Y-91471467D01*
X140859031Y-91471467D01*
X140925352Y-91427152D01*
X140969667Y-91360831D01*
X140969667Y-91360829D01*
X140969668Y-91360829D01*
X140981299Y-91302352D01*
X140981300Y-91302350D01*
X140981300Y-90393787D01*
X143080300Y-90393787D01*
X143100594Y-90528423D01*
X143119404Y-90653215D01*
X143119405Y-90653217D01*
X143119406Y-90653223D01*
X143196738Y-90903926D01*
X143310567Y-91140296D01*
X143310568Y-91140297D01*
X143310570Y-91140300D01*
X143310572Y-91140304D01*
X143421055Y-91302352D01*
X143458367Y-91357079D01*
X143636814Y-91549401D01*
X143636818Y-91549404D01*
X143636819Y-91549405D01*
X143841943Y-91712986D01*
X144069157Y-91844168D01*
X144313384Y-91940020D01*
X144569170Y-91998402D01*
X144569176Y-91998402D01*
X144569179Y-91998403D01*
X144765284Y-92013099D01*
X144765303Y-92013099D01*
X144765306Y-92013100D01*
X144765308Y-92013100D01*
X144896292Y-92013100D01*
X144896294Y-92013100D01*
X144896296Y-92013099D01*
X144896315Y-92013099D01*
X145092420Y-91998403D01*
X145092422Y-91998402D01*
X145092430Y-91998402D01*
X145348216Y-91940020D01*
X145592443Y-91844168D01*
X145819657Y-91712986D01*
X146024781Y-91549405D01*
X146203233Y-91357079D01*
X146351028Y-91140304D01*
X146464863Y-90903923D01*
X146542196Y-90653215D01*
X146581300Y-90393782D01*
X146581300Y-90131418D01*
X146542196Y-89871985D01*
X146464863Y-89621277D01*
X146435952Y-89561243D01*
X146351032Y-89384903D01*
X146351031Y-89384902D01*
X146351030Y-89384901D01*
X146351028Y-89384896D01*
X146203233Y-89168121D01*
X146170610Y-89132962D01*
X146024785Y-88975798D01*
X145961585Y-88925398D01*
X145819657Y-88812214D01*
X145795732Y-88798401D01*
X157143318Y-88798401D01*
X157163955Y-88955160D01*
X157163956Y-88955162D01*
X157224464Y-89101241D01*
X157320718Y-89226682D01*
X157446159Y-89322936D01*
X157592238Y-89383444D01*
X157639150Y-89389620D01*
X157748999Y-89404082D01*
X157749000Y-89404082D01*
X157749001Y-89404082D01*
X157801253Y-89397202D01*
X157905762Y-89383444D01*
X158051841Y-89322936D01*
X158130714Y-89262414D01*
X158195882Y-89237220D01*
X158264327Y-89251258D01*
X158281682Y-89262412D01*
X158303351Y-89279039D01*
X158360557Y-89322935D01*
X158360558Y-89322935D01*
X158360559Y-89322936D01*
X158506638Y-89383444D01*
X158553550Y-89389620D01*
X158663399Y-89404082D01*
X158663400Y-89404082D01*
X158663401Y-89404082D01*
X158715653Y-89397202D01*
X158820162Y-89383444D01*
X158966241Y-89322936D01*
X159032414Y-89272159D01*
X159097582Y-89246965D01*
X159166027Y-89261003D01*
X159183382Y-89272157D01*
X159192354Y-89279041D01*
X159249557Y-89322935D01*
X159249558Y-89322935D01*
X159249559Y-89322936D01*
X159395638Y-89383444D01*
X159442550Y-89389620D01*
X159552399Y-89404082D01*
X159552400Y-89404082D01*
X159552401Y-89404082D01*
X159604653Y-89397202D01*
X159709162Y-89383444D01*
X159855241Y-89322936D01*
X159921414Y-89272159D01*
X159986582Y-89246965D01*
X160055027Y-89261003D01*
X160072382Y-89272157D01*
X160081354Y-89279041D01*
X160138557Y-89322935D01*
X160138558Y-89322935D01*
X160138559Y-89322936D01*
X160284638Y-89383444D01*
X160331550Y-89389620D01*
X160441399Y-89404082D01*
X160441400Y-89404082D01*
X160441401Y-89404082D01*
X160493653Y-89397202D01*
X160598162Y-89383444D01*
X160744241Y-89322936D01*
X160810414Y-89272159D01*
X160875582Y-89246965D01*
X160944027Y-89261003D01*
X160961382Y-89272157D01*
X160970354Y-89279041D01*
X161027557Y-89322935D01*
X161027558Y-89322935D01*
X161027559Y-89322936D01*
X161173638Y-89383444D01*
X161220550Y-89389620D01*
X161330399Y-89404082D01*
X161330400Y-89404082D01*
X161330401Y-89404082D01*
X161382653Y-89397202D01*
X161487162Y-89383444D01*
X161633241Y-89322936D01*
X161699414Y-89272159D01*
X161764582Y-89246965D01*
X161833027Y-89261003D01*
X161850382Y-89272157D01*
X161859354Y-89279041D01*
X161916557Y-89322935D01*
X161916558Y-89322935D01*
X161916559Y-89322936D01*
X162062638Y-89383444D01*
X162109550Y-89389620D01*
X162219399Y-89404082D01*
X162219400Y-89404082D01*
X162219401Y-89404082D01*
X162271654Y-89397202D01*
X162376162Y-89383444D01*
X162522241Y-89322936D01*
X162647682Y-89226682D01*
X162743936Y-89101241D01*
X162804444Y-88955162D01*
X162822312Y-88819438D01*
X162825082Y-88798401D01*
X162825082Y-88798398D01*
X162804444Y-88641639D01*
X162804444Y-88641638D01*
X162743936Y-88495559D01*
X162647682Y-88370118D01*
X162522241Y-88273864D01*
X162478850Y-88255891D01*
X162376162Y-88213356D01*
X162376160Y-88213355D01*
X162219401Y-88192718D01*
X162219399Y-88192718D01*
X162062639Y-88213355D01*
X162062637Y-88213356D01*
X161916560Y-88273863D01*
X161850386Y-88324640D01*
X161785216Y-88349833D01*
X161716771Y-88335794D01*
X161699414Y-88324640D01*
X161682121Y-88311370D01*
X161633241Y-88273864D01*
X161589850Y-88255891D01*
X161487162Y-88213356D01*
X161487160Y-88213355D01*
X161330401Y-88192718D01*
X161330399Y-88192718D01*
X161173639Y-88213355D01*
X161173637Y-88213356D01*
X161027560Y-88273863D01*
X160961386Y-88324640D01*
X160896216Y-88349833D01*
X160827771Y-88335794D01*
X160810414Y-88324640D01*
X160793121Y-88311370D01*
X160744241Y-88273864D01*
X160700850Y-88255891D01*
X160598162Y-88213356D01*
X160598160Y-88213355D01*
X160441401Y-88192718D01*
X160441399Y-88192718D01*
X160284639Y-88213355D01*
X160284637Y-88213356D01*
X160138560Y-88273863D01*
X160072386Y-88324640D01*
X160007216Y-88349833D01*
X159938771Y-88335794D01*
X159921414Y-88324640D01*
X159904121Y-88311370D01*
X159855241Y-88273864D01*
X159811850Y-88255891D01*
X159709162Y-88213356D01*
X159709160Y-88213355D01*
X159552401Y-88192718D01*
X159552399Y-88192718D01*
X159395639Y-88213355D01*
X159395637Y-88213356D01*
X159249560Y-88273863D01*
X159183386Y-88324640D01*
X159118216Y-88349833D01*
X159049771Y-88335794D01*
X159032414Y-88324640D01*
X159015121Y-88311370D01*
X158966241Y-88273864D01*
X158922850Y-88255891D01*
X158820162Y-88213356D01*
X158820160Y-88213355D01*
X158663401Y-88192718D01*
X158663399Y-88192718D01*
X158506639Y-88213355D01*
X158506637Y-88213356D01*
X158360557Y-88273864D01*
X158281686Y-88334385D01*
X158216517Y-88359579D01*
X158148072Y-88345541D01*
X158130714Y-88334385D01*
X158051842Y-88273864D01*
X157905762Y-88213356D01*
X157905760Y-88213355D01*
X157749001Y-88192718D01*
X157748999Y-88192718D01*
X157592239Y-88213355D01*
X157592237Y-88213356D01*
X157446160Y-88273863D01*
X157320718Y-88370118D01*
X157224463Y-88495560D01*
X157163956Y-88641637D01*
X157163955Y-88641639D01*
X157143318Y-88798398D01*
X157143318Y-88798401D01*
X145795732Y-88798401D01*
X145592443Y-88681032D01*
X145348216Y-88585180D01*
X145348211Y-88585178D01*
X145348202Y-88585176D01*
X145130618Y-88535514D01*
X145092430Y-88526798D01*
X145092429Y-88526797D01*
X145092425Y-88526797D01*
X145092420Y-88526796D01*
X144896315Y-88512100D01*
X144896294Y-88512100D01*
X144765306Y-88512100D01*
X144765284Y-88512100D01*
X144569179Y-88526796D01*
X144569174Y-88526797D01*
X144313397Y-88585176D01*
X144313378Y-88585182D01*
X144069156Y-88681032D01*
X143841943Y-88812214D01*
X143636814Y-88975798D01*
X143458367Y-89168120D01*
X143310568Y-89384902D01*
X143310567Y-89384903D01*
X143196738Y-89621273D01*
X143119406Y-89871976D01*
X143119405Y-89871981D01*
X143119404Y-89871985D01*
X143104653Y-89969847D01*
X143080300Y-90131412D01*
X143080300Y-90393787D01*
X140981300Y-90393787D01*
X140981300Y-85612849D01*
X140981299Y-85612847D01*
X140969668Y-85554370D01*
X140969667Y-85554369D01*
X140925352Y-85488047D01*
X140859030Y-85443732D01*
X140859029Y-85443731D01*
X140800552Y-85432100D01*
X140800548Y-85432100D01*
X139261052Y-85432100D01*
X139261047Y-85432100D01*
X139202570Y-85443731D01*
X139202569Y-85443732D01*
X139136247Y-85488047D01*
X139091932Y-85554369D01*
X139091931Y-85554370D01*
X139080300Y-85612847D01*
X139080300Y-91302352D01*
X133528155Y-91302352D01*
X133556152Y-91270307D01*
X133556159Y-91270299D01*
X133671559Y-91077153D01*
X133671561Y-91077148D01*
X133750624Y-90866489D01*
X133750624Y-90866488D01*
X133790800Y-90645105D01*
X133790800Y-88707600D01*
X133040800Y-88707600D01*
X133040800Y-88207600D01*
X133790800Y-88207600D01*
X133790800Y-86326473D01*
X133790799Y-86326470D01*
X133775683Y-86158503D01*
X133775682Y-86158497D01*
X133715826Y-85941615D01*
X133715821Y-85941602D01*
X133618201Y-85738891D01*
X133618197Y-85738883D01*
X133485948Y-85556858D01*
X133485942Y-85556850D01*
X133323313Y-85401362D01*
X133135533Y-85277408D01*
X132928630Y-85188975D01*
X132928623Y-85188973D01*
X132790800Y-85157515D01*
X132790799Y-85157515D01*
X132790799Y-85948912D01*
X132750644Y-85923107D01*
X132612689Y-85882600D01*
X132468911Y-85882600D01*
X132330956Y-85923107D01*
X132290800Y-85948913D01*
X132290800Y-85155049D01*
X132290799Y-85155049D01*
X132261521Y-85159015D01*
X132047531Y-85228545D01*
X131849398Y-85335165D01*
X131849395Y-85335167D01*
X131673479Y-85475454D01*
X131525447Y-85644892D01*
X131525440Y-85644900D01*
X131410040Y-85838046D01*
X131410038Y-85838051D01*
X131330975Y-86048710D01*
X131330975Y-86048711D01*
X131290800Y-86270094D01*
X131290800Y-88207600D01*
X132040800Y-88207600D01*
X132040800Y-88707600D01*
X131290800Y-88707600D01*
X131290800Y-90588729D01*
X129461916Y-90588729D01*
X129491300Y-90393782D01*
X129491300Y-90131418D01*
X129452196Y-89871985D01*
X129374863Y-89621277D01*
X129345952Y-89561243D01*
X129261032Y-89384903D01*
X129261031Y-89384902D01*
X129261030Y-89384901D01*
X129261028Y-89384896D01*
X129113233Y-89168121D01*
X129080610Y-89132962D01*
X128934785Y-88975798D01*
X128871585Y-88925398D01*
X128729657Y-88812214D01*
X128502443Y-88681032D01*
X128258216Y-88585180D01*
X128258211Y-88585178D01*
X128258202Y-88585176D01*
X128040618Y-88535514D01*
X128002430Y-88526798D01*
X128002429Y-88526797D01*
X128002425Y-88526797D01*
X128002420Y-88526796D01*
X127806315Y-88512100D01*
X127806294Y-88512100D01*
X127675306Y-88512100D01*
X127675284Y-88512100D01*
X127479179Y-88526796D01*
X127479174Y-88526797D01*
X127223397Y-88585176D01*
X127223378Y-88585182D01*
X126979156Y-88681032D01*
X126751943Y-88812214D01*
X126546814Y-88975798D01*
X126368367Y-89168120D01*
X126220568Y-89384902D01*
X126220567Y-89384903D01*
X126106738Y-89621273D01*
X126029406Y-89871976D01*
X126029405Y-89871981D01*
X126029404Y-89871985D01*
X126014653Y-89969847D01*
X125990300Y-90131412D01*
X125990300Y-90393787D01*
X122118899Y-90393787D01*
X122118899Y-85328952D01*
X122118958Y-85326249D01*
X122121061Y-85278087D01*
X122136665Y-84920692D01*
X122137134Y-84915343D01*
X122189943Y-84514214D01*
X122190881Y-84508902D01*
X122278447Y-84113919D01*
X122279841Y-84108712D01*
X122325480Y-83963963D01*
X172465987Y-83963963D01*
X172495613Y-84233213D01*
X172495615Y-84233224D01*
X172564126Y-84495282D01*
X172564128Y-84495288D01*
X172670070Y-84744590D01*
X172742198Y-84862775D01*
X172811179Y-84975805D01*
X172811186Y-84975815D01*
X172984453Y-85184019D01*
X172984459Y-85184024D01*
X173089440Y-85278087D01*
X173186198Y-85364782D01*
X173412110Y-85514244D01*
X173657376Y-85629220D01*
X173657383Y-85629222D01*
X173657385Y-85629223D01*
X173916757Y-85707257D01*
X173916764Y-85707258D01*
X173916769Y-85707260D01*
X174184761Y-85746700D01*
X174184766Y-85746700D01*
X174387829Y-85746700D01*
X174387831Y-85746700D01*
X174387836Y-85746699D01*
X174387848Y-85746699D01*
X174425391Y-85743950D01*
X174590356Y-85731877D01*
X174702958Y-85706793D01*
X174854746Y-85672982D01*
X174854748Y-85672981D01*
X174854753Y-85672980D01*
X175107758Y-85576214D01*
X175343977Y-85443641D01*
X175558377Y-85278088D01*
X175746386Y-85083081D01*
X175903999Y-84862779D01*
X176002390Y-84671407D01*
X176027849Y-84621890D01*
X176027851Y-84621884D01*
X176027856Y-84621875D01*
X176115318Y-84365505D01*
X176164519Y-84099133D01*
X176174412Y-83828435D01*
X176144786Y-83559182D01*
X176076272Y-83297112D01*
X175970330Y-83047810D01*
X175829218Y-82816590D01*
X175816302Y-82801070D01*
X175655946Y-82608380D01*
X175655940Y-82608375D01*
X175454202Y-82427618D01*
X175228292Y-82278157D01*
X175228290Y-82278156D01*
X174983024Y-82163180D01*
X174983019Y-82163178D01*
X174983014Y-82163176D01*
X174723642Y-82085142D01*
X174723628Y-82085139D01*
X174607991Y-82068121D01*
X174455639Y-82045700D01*
X174252569Y-82045700D01*
X174252551Y-82045700D01*
X174050044Y-82060523D01*
X174050031Y-82060525D01*
X173785653Y-82119417D01*
X173785646Y-82119420D01*
X173532639Y-82216187D01*
X173296426Y-82348757D01*
X173082022Y-82514312D01*
X172894022Y-82709309D01*
X172894016Y-82709316D01*
X172736402Y-82929619D01*
X172736399Y-82929624D01*
X172612550Y-83170509D01*
X172612543Y-83170527D01*
X172525084Y-83426885D01*
X172525081Y-83426899D01*
X172475881Y-83693268D01*
X172475880Y-83693275D01*
X172465987Y-83963963D01*
X122325480Y-83963963D01*
X122401504Y-83722847D01*
X122403351Y-83717774D01*
X122413502Y-83693267D01*
X122558182Y-83343978D01*
X122560445Y-83339126D01*
X122747270Y-82980239D01*
X122749966Y-82975571D01*
X122816371Y-82871336D01*
X122967347Y-82634350D01*
X122970435Y-82629940D01*
X123187694Y-82346801D01*
X155324918Y-82346801D01*
X155345555Y-82503560D01*
X155345556Y-82503562D01*
X155399733Y-82634358D01*
X155406064Y-82649641D01*
X155502318Y-82775082D01*
X155627759Y-82871336D01*
X155773838Y-82931844D01*
X155852218Y-82942163D01*
X155930599Y-82952482D01*
X155930600Y-82952482D01*
X155930601Y-82952482D01*
X155982853Y-82945602D01*
X156087362Y-82931844D01*
X156233441Y-82871336D01*
X156325014Y-82801069D01*
X156390182Y-82775875D01*
X156458627Y-82789913D01*
X156475982Y-82801067D01*
X156496218Y-82816594D01*
X156567557Y-82871335D01*
X156567558Y-82871335D01*
X156567559Y-82871336D01*
X156713638Y-82931844D01*
X156792019Y-82942163D01*
X156870399Y-82952482D01*
X156870400Y-82952482D01*
X156870401Y-82952482D01*
X156922654Y-82945602D01*
X157027162Y-82931844D01*
X157173241Y-82871336D01*
X157277514Y-82791324D01*
X157342682Y-82766130D01*
X157411127Y-82780168D01*
X157428482Y-82791322D01*
X157461418Y-82816594D01*
X157532757Y-82871335D01*
X157532758Y-82871335D01*
X157532759Y-82871336D01*
X157678838Y-82931844D01*
X157757218Y-82942163D01*
X157835599Y-82952482D01*
X157835600Y-82952482D01*
X157835601Y-82952482D01*
X157887854Y-82945602D01*
X157992362Y-82931844D01*
X158138441Y-82871336D01*
X158263882Y-82775082D01*
X158360136Y-82649641D01*
X158420644Y-82503562D01*
X158441282Y-82346800D01*
X158420644Y-82190038D01*
X158360136Y-82043959D01*
X158263882Y-81918518D01*
X158138441Y-81822264D01*
X157992362Y-81761756D01*
X157992360Y-81761755D01*
X157835601Y-81741118D01*
X157835599Y-81741118D01*
X157678839Y-81761755D01*
X157678837Y-81761756D01*
X157532757Y-81822264D01*
X157428486Y-81902275D01*
X157363317Y-81927469D01*
X157294872Y-81913431D01*
X157277514Y-81902275D01*
X157173242Y-81822264D01*
X157027162Y-81761756D01*
X157027160Y-81761755D01*
X156870401Y-81741118D01*
X156870399Y-81741118D01*
X156713639Y-81761755D01*
X156713637Y-81761756D01*
X156567557Y-81822264D01*
X156475986Y-81892530D01*
X156410817Y-81917724D01*
X156342372Y-81903686D01*
X156325014Y-81892530D01*
X156233442Y-81822264D01*
X156087362Y-81761756D01*
X156087360Y-81761755D01*
X155930601Y-81741118D01*
X155930599Y-81741118D01*
X155773839Y-81761755D01*
X155773837Y-81761756D01*
X155627760Y-81822263D01*
X155502318Y-81918518D01*
X155406063Y-82043960D01*
X155345556Y-82190037D01*
X155345555Y-82190039D01*
X155324918Y-82346798D01*
X155324918Y-82346801D01*
X123187694Y-82346801D01*
X123216739Y-82308949D01*
X123220198Y-82304828D01*
X123493533Y-82006536D01*
X123497336Y-82002733D01*
X123795628Y-81729398D01*
X123799749Y-81725939D01*
X124120740Y-81479635D01*
X124125150Y-81476547D01*
X124466371Y-81259166D01*
X124471039Y-81256470D01*
X124829926Y-81069645D01*
X124834778Y-81067382D01*
X125208581Y-80912548D01*
X125213647Y-80910704D01*
X125599512Y-80789041D01*
X125604719Y-80787647D01*
X125999702Y-80700081D01*
X126005014Y-80699143D01*
X126406143Y-80646334D01*
X126411492Y-80645865D01*
X126817048Y-80628159D01*
X126819753Y-80628100D01*
X126865995Y-80628100D01*
X173717605Y-80628100D01*
X173763847Y-80628100D01*
X173766551Y-80628159D01*
G37*
%TD.AperFunction*%
%TA.AperFunction,Conductor*%
G36*
X149972326Y-119831234D02*
G01*
X150003592Y-119839611D01*
X150069525Y-119866921D01*
X150097556Y-119883106D01*
X150154166Y-119926546D01*
X150177053Y-119949433D01*
X150220493Y-120006044D01*
X150236679Y-120034079D01*
X150263985Y-120100002D01*
X150272363Y-120131268D01*
X150281677Y-120202013D01*
X150281677Y-120234385D01*
X150272363Y-120305130D01*
X150263985Y-120336396D01*
X150236679Y-120402319D01*
X150220493Y-120430354D01*
X150177053Y-120486965D01*
X150154165Y-120509853D01*
X150097555Y-120553292D01*
X150069521Y-120569478D01*
X150003596Y-120596785D01*
X149972329Y-120605163D01*
X149901585Y-120614477D01*
X149869213Y-120614477D01*
X149798468Y-120605163D01*
X149767202Y-120596785D01*
X149701279Y-120569479D01*
X149673244Y-120553293D01*
X149616633Y-120509853D01*
X149593745Y-120486965D01*
X149550306Y-120430355D01*
X149534120Y-120402321D01*
X149506813Y-120336396D01*
X149498435Y-120305128D01*
X149496124Y-120287575D01*
X149489121Y-120234378D01*
X149489121Y-120202018D01*
X149498434Y-120131267D01*
X149506812Y-120100003D01*
X149514328Y-120081857D01*
X149534121Y-120034072D01*
X149550301Y-120006048D01*
X149593748Y-119949427D01*
X149616627Y-119926548D01*
X149673246Y-119883102D01*
X149701277Y-119866919D01*
X149767200Y-119839612D01*
X149798465Y-119831235D01*
X149869220Y-119821921D01*
X149901580Y-119821921D01*
X149972326Y-119831234D01*
G37*
%TD.AperFunction*%
%TD*%
%TA.AperFunction,Conductor*%
%TO.N,Net-(C9-Pad2)*%
G36*
X164202771Y-88010905D02*
G01*
X164513617Y-88140502D01*
X164559092Y-88159462D01*
X164565410Y-88165809D01*
X164565389Y-88174763D01*
X164565279Y-88175019D01*
X164295190Y-88781840D01*
X164288695Y-88788004D01*
X164284501Y-88788782D01*
X163896190Y-88788782D01*
X163887917Y-88785355D01*
X163884559Y-88778355D01*
X163802015Y-88023937D01*
X163804522Y-88015343D01*
X163812373Y-88011036D01*
X163813608Y-88010967D01*
X164198248Y-88010005D01*
X164202771Y-88010905D01*
G37*
%TD.AperFunction*%
%TD*%
%TA.AperFunction,Conductor*%
%TO.N,Net-(JP1-A)*%
G36*
X141752815Y-119789581D02*
G01*
X142109195Y-119936236D01*
X142115542Y-119942554D01*
X142115563Y-119942604D01*
X142262217Y-120298982D01*
X142262196Y-120307936D01*
X142257349Y-120313507D01*
X141698808Y-120643553D01*
X141689942Y-120644811D01*
X141684583Y-120641753D01*
X141410046Y-120367216D01*
X141406619Y-120358943D01*
X141408246Y-120352991D01*
X141440160Y-120298982D01*
X141738294Y-119794447D01*
X141745451Y-119789071D01*
X141752815Y-119789581D01*
G37*
%TD.AperFunction*%
%TD*%
%TA.AperFunction,Conductor*%
%TO.N,Net-(C25-Pad2)*%
G36*
X143769315Y-105107341D02*
G01*
X143776473Y-105112719D01*
X143778100Y-105118671D01*
X143778100Y-105506928D01*
X143774673Y-105515201D01*
X143769314Y-105518259D01*
X143140986Y-105679828D01*
X143132120Y-105678570D01*
X143127274Y-105673000D01*
X142978975Y-105317299D01*
X142978955Y-105308350D01*
X143127274Y-104952598D01*
X143133620Y-104946282D01*
X143140984Y-104945771D01*
X143769315Y-105107341D01*
G37*
%TD.AperFunction*%
%TD*%
%TA.AperFunction,Conductor*%
%TO.N,Net-(C9-Pad2)*%
G36*
X163638416Y-94801046D02*
G01*
X163912953Y-95075583D01*
X163916380Y-95083856D01*
X163914753Y-95089808D01*
X163584707Y-95648349D01*
X163577548Y-95653728D01*
X163570182Y-95653217D01*
X163213804Y-95506563D01*
X163207457Y-95500245D01*
X163207436Y-95500195D01*
X163060782Y-95143817D01*
X163060803Y-95134863D01*
X163065647Y-95129295D01*
X163624191Y-94799245D01*
X163633057Y-94797988D01*
X163638416Y-94801046D01*
G37*
%TD.AperFunction*%
%TD*%
%TA.AperFunction,Conductor*%
%TO.N,/VIOUT*%
G36*
X163243511Y-114163312D02*
G01*
X163249468Y-114169461D01*
X163345064Y-114398753D01*
X163397323Y-114524097D01*
X163397344Y-114533051D01*
X163397323Y-114533101D01*
X163249468Y-114887738D01*
X163243121Y-114894056D01*
X163234562Y-114894191D01*
X162605793Y-114658446D01*
X162599249Y-114652333D01*
X162598200Y-114647491D01*
X162598200Y-114409708D01*
X162601627Y-114401435D01*
X162605793Y-114398753D01*
X163234564Y-114163008D01*
X163243511Y-114163312D01*
G37*
%TD.AperFunction*%
%TD*%
%TA.AperFunction,Conductor*%
%TO.N,/VIOUT*%
G36*
X151127546Y-126853309D02*
G01*
X151130006Y-126855179D01*
X151292855Y-127017103D01*
X151296305Y-127025367D01*
X151292902Y-127033650D01*
X151292855Y-127033697D01*
X151130006Y-127195620D01*
X151121723Y-127199023D01*
X151118661Y-127198606D01*
X150958805Y-127154760D01*
X150951733Y-127149267D01*
X150950200Y-127143477D01*
X150950200Y-126907322D01*
X150953627Y-126899049D01*
X150958802Y-126896040D01*
X151118662Y-126852193D01*
X151127546Y-126853309D01*
G37*
%TD.AperFunction*%
%TD*%
%TA.AperFunction,Conductor*%
%TO.N,/VIOUT*%
G36*
X150926550Y-125878827D02*
G01*
X150929560Y-125884005D01*
X150974499Y-126047846D01*
X150974732Y-126053006D01*
X150811716Y-126962173D01*
X150806883Y-126969711D01*
X150798135Y-126971624D01*
X150790597Y-126966791D01*
X150788684Y-126962173D01*
X150625667Y-126053006D01*
X150625899Y-126047848D01*
X150670839Y-125884005D01*
X150676333Y-125876933D01*
X150682123Y-125875400D01*
X150918277Y-125875400D01*
X150926550Y-125878827D01*
G37*
%TD.AperFunction*%
%TD*%
%TA.AperFunction,Conductor*%
%TO.N,Net-(C25-Pad2)*%
G36*
X149553758Y-104967935D02*
G01*
X149558312Y-104973327D01*
X149706723Y-105329298D01*
X149706744Y-105338252D01*
X149706723Y-105338302D01*
X149558554Y-105693692D01*
X149552207Y-105700010D01*
X149544481Y-105700423D01*
X148920203Y-105518456D01*
X148913219Y-105512850D01*
X148911777Y-105507223D01*
X148911777Y-105118949D01*
X148915204Y-105110676D01*
X148920893Y-105107538D01*
X149544934Y-104966417D01*
X149553758Y-104967935D01*
G37*
%TD.AperFunction*%
%TD*%
%TA.AperFunction,Conductor*%
%TO.N,/VIOUT*%
G36*
X150481735Y-126852192D02*
G01*
X150641596Y-126896040D01*
X150648667Y-126901532D01*
X150650200Y-126907322D01*
X150650200Y-127143477D01*
X150646773Y-127151750D01*
X150641595Y-127154760D01*
X150481738Y-127198606D01*
X150472853Y-127197490D01*
X150470393Y-127195620D01*
X150307544Y-127033697D01*
X150304094Y-127025433D01*
X150307497Y-127017150D01*
X150307544Y-127017103D01*
X150470394Y-126855178D01*
X150478676Y-126851776D01*
X150481735Y-126852192D01*
G37*
%TD.AperFunction*%
%TD*%
%TA.AperFunction,Conductor*%
%TO.N,/+5V*%
G36*
X160572639Y-110433485D02*
G01*
X160618394Y-110486289D01*
X160629600Y-110537800D01*
X160629600Y-111153660D01*
X160609915Y-111220699D01*
X160597819Y-111236555D01*
X148209000Y-125018799D01*
X148209000Y-125063796D01*
X148189315Y-125130835D01*
X148188102Y-125132687D01*
X148127190Y-125223846D01*
X148127183Y-125223859D01*
X148059306Y-125387732D01*
X148059303Y-125387741D01*
X148024700Y-125561704D01*
X148024700Y-127916879D01*
X148005015Y-127983918D01*
X147952211Y-128029673D01*
X147900491Y-128040879D01*
X133245191Y-128016208D01*
X133178185Y-127996410D01*
X133132519Y-127943530D01*
X133121400Y-127892208D01*
X133121400Y-126159135D01*
X133141085Y-126092096D01*
X133193889Y-126046341D01*
X133245733Y-126035135D01*
X142544800Y-126060200D01*
X142544800Y-126060199D01*
X142544800Y-125040460D01*
X142564485Y-124973421D01*
X142576018Y-124958194D01*
X145093877Y-122118801D01*
X146204818Y-122118801D01*
X146225455Y-122275560D01*
X146225456Y-122275562D01*
X146285964Y-122421641D01*
X146339178Y-122490992D01*
X146364372Y-122556160D01*
X146350334Y-122624604D01*
X146339178Y-122641963D01*
X146287464Y-122709357D01*
X146226956Y-122855437D01*
X146226955Y-122855439D01*
X146206318Y-123012198D01*
X146206318Y-123012201D01*
X146226955Y-123168960D01*
X146226956Y-123168962D01*
X146287464Y-123315041D01*
X146383718Y-123440482D01*
X146509159Y-123536736D01*
X146655238Y-123597244D01*
X146733618Y-123607562D01*
X146811999Y-123617882D01*
X146812000Y-123617882D01*
X146812001Y-123617882D01*
X146864253Y-123611002D01*
X146968762Y-123597244D01*
X147114841Y-123536736D01*
X147193714Y-123476214D01*
X147258882Y-123451020D01*
X147327327Y-123465058D01*
X147344682Y-123476212D01*
X147384760Y-123506964D01*
X147423557Y-123536735D01*
X147423558Y-123536735D01*
X147423559Y-123536736D01*
X147569638Y-123597244D01*
X147648019Y-123607562D01*
X147726399Y-123617882D01*
X147726400Y-123617882D01*
X147726401Y-123617882D01*
X147778653Y-123611002D01*
X147883162Y-123597244D01*
X148029241Y-123536736D01*
X148120814Y-123466469D01*
X148185982Y-123441275D01*
X148254427Y-123455313D01*
X148271782Y-123466467D01*
X148317211Y-123501325D01*
X148363357Y-123536735D01*
X148363358Y-123536735D01*
X148363359Y-123536736D01*
X148509438Y-123597244D01*
X148587818Y-123607562D01*
X148666199Y-123617882D01*
X148666200Y-123617882D01*
X148666201Y-123617882D01*
X148718453Y-123611002D01*
X148822962Y-123597244D01*
X148969041Y-123536736D01*
X149094482Y-123440482D01*
X149190736Y-123315041D01*
X149251244Y-123168962D01*
X149271882Y-123012200D01*
X149251244Y-122855438D01*
X149190736Y-122709359D01*
X149137519Y-122640006D01*
X149112327Y-122574840D01*
X149126365Y-122506395D01*
X149137517Y-122489042D01*
X149189236Y-122421641D01*
X149249744Y-122275562D01*
X149270382Y-122118800D01*
X149249744Y-121962038D01*
X149189236Y-121815959D01*
X149092982Y-121690518D01*
X148967541Y-121594264D01*
X148821462Y-121533756D01*
X148821460Y-121533755D01*
X148664701Y-121513118D01*
X148664699Y-121513118D01*
X148507939Y-121533755D01*
X148507937Y-121533756D01*
X148361857Y-121594264D01*
X148270286Y-121664530D01*
X148205117Y-121689724D01*
X148136672Y-121675686D01*
X148119314Y-121664530D01*
X148027742Y-121594264D01*
X147881662Y-121533756D01*
X147881660Y-121533755D01*
X147724901Y-121513118D01*
X147724899Y-121513118D01*
X147568139Y-121533755D01*
X147568137Y-121533756D01*
X147422057Y-121594264D01*
X147343186Y-121654785D01*
X147278017Y-121679979D01*
X147209572Y-121665941D01*
X147192214Y-121654785D01*
X147113342Y-121594264D01*
X146967262Y-121533756D01*
X146967260Y-121533755D01*
X146810501Y-121513118D01*
X146810499Y-121513118D01*
X146653739Y-121533755D01*
X146653737Y-121533756D01*
X146507660Y-121594263D01*
X146382218Y-121690518D01*
X146285963Y-121815960D01*
X146225456Y-121962037D01*
X146225455Y-121962039D01*
X146204818Y-122118798D01*
X146204818Y-122118801D01*
X145093877Y-122118801D01*
X146779252Y-120218201D01*
X149279718Y-120218201D01*
X149300355Y-120374960D01*
X149300356Y-120374962D01*
X149360864Y-120521041D01*
X149457118Y-120646482D01*
X149582559Y-120742736D01*
X149728638Y-120803244D01*
X149807019Y-120813562D01*
X149885399Y-120823882D01*
X149885400Y-120823882D01*
X149885401Y-120823882D01*
X149937654Y-120817002D01*
X150042162Y-120803244D01*
X150188241Y-120742736D01*
X150313682Y-120646482D01*
X150409936Y-120521041D01*
X150470444Y-120374962D01*
X150491082Y-120218200D01*
X150470444Y-120061438D01*
X150409936Y-119915359D01*
X150313682Y-119789918D01*
X150188241Y-119693664D01*
X150179161Y-119689903D01*
X150042162Y-119633156D01*
X150042160Y-119633155D01*
X149885401Y-119612518D01*
X149885399Y-119612518D01*
X149728639Y-119633155D01*
X149728637Y-119633156D01*
X149582560Y-119693663D01*
X149457118Y-119789918D01*
X149360863Y-119915360D01*
X149300356Y-120061437D01*
X149300355Y-120061439D01*
X149279718Y-120218198D01*
X149279718Y-120218201D01*
X146779252Y-120218201D01*
X153060876Y-113134406D01*
X153120079Y-113097311D01*
X153189944Y-113098111D01*
X153248286Y-113136556D01*
X153276581Y-113200440D01*
X153276588Y-113200494D01*
X153288156Y-113288361D01*
X153288156Y-113288362D01*
X153348664Y-113434442D01*
X153409184Y-113513313D01*
X153434378Y-113578482D01*
X153420340Y-113646927D01*
X153409185Y-113664284D01*
X153348664Y-113743158D01*
X153288156Y-113889237D01*
X153288155Y-113889239D01*
X153267518Y-114045998D01*
X153267518Y-114046001D01*
X153288155Y-114202760D01*
X153288156Y-114202762D01*
X153348664Y-114348841D01*
X153444918Y-114474282D01*
X153570359Y-114570536D01*
X153716438Y-114631044D01*
X153794818Y-114641362D01*
X153873199Y-114651682D01*
X153873200Y-114651682D01*
X153873201Y-114651682D01*
X153925453Y-114644802D01*
X154029962Y-114631044D01*
X154176041Y-114570536D01*
X154254914Y-114510014D01*
X154320082Y-114484820D01*
X154388527Y-114498858D01*
X154405882Y-114510012D01*
X154432660Y-114530559D01*
X154484757Y-114570535D01*
X154484758Y-114570535D01*
X154484759Y-114570536D01*
X154630838Y-114631044D01*
X154709218Y-114641362D01*
X154787599Y-114651682D01*
X154787600Y-114651682D01*
X154787601Y-114651682D01*
X154839853Y-114644802D01*
X154944362Y-114631044D01*
X155090441Y-114570536D01*
X155215882Y-114474282D01*
X155312136Y-114348841D01*
X155372644Y-114202762D01*
X155393282Y-114046000D01*
X155372644Y-113889238D01*
X155312136Y-113743159D01*
X155251613Y-113664283D01*
X155226420Y-113599116D01*
X155240458Y-113530672D01*
X155251604Y-113513327D01*
X155312136Y-113434441D01*
X155372644Y-113288362D01*
X155393282Y-113131600D01*
X155372644Y-112974838D01*
X155312136Y-112828759D01*
X155312135Y-112828758D01*
X155312135Y-112828757D01*
X155254862Y-112754118D01*
X155251614Y-112749885D01*
X155226420Y-112684718D01*
X155240458Y-112616273D01*
X155251612Y-112598917D01*
X155312136Y-112520041D01*
X155372644Y-112373962D01*
X155393282Y-112217200D01*
X155372644Y-112060438D01*
X155312136Y-111914359D01*
X155215882Y-111788918D01*
X155090441Y-111692664D01*
X155017179Y-111662318D01*
X154944362Y-111632156D01*
X154944360Y-111632155D01*
X154787601Y-111611518D01*
X154787599Y-111611518D01*
X154690963Y-111624240D01*
X154621928Y-111613474D01*
X154569672Y-111567094D01*
X154550787Y-111499825D01*
X154571268Y-111433025D01*
X154581990Y-111419043D01*
X155436396Y-110455528D01*
X155495603Y-110418431D01*
X155529173Y-110413800D01*
X160505600Y-110413800D01*
X160572639Y-110433485D01*
G37*
%TD.AperFunction*%
%TD*%
M02*
