%TF.GenerationSoftware,KiCad,Pcbnew,7.99.0-957-g18dd623122*%
%TF.CreationDate,2023-07-16T20:13:36+08:00*%
%TF.ProjectId,power,706f7765-722e-46b6-9963-61645f706362,V1.1*%
%TF.SameCoordinates,Original*%
%TF.FileFunction,Copper,L4,Bot*%
%TF.FilePolarity,Positive*%
%FSLAX46Y46*%
G04 Gerber Fmt 4.6, Leading zero omitted, Abs format (unit mm)*
G04 Created by KiCad (PCBNEW 7.99.0-957-g18dd623122) date 2023-07-16 20:13:36*
%MOMM*%
%LPD*%
G01*
G04 APERTURE LIST*
G04 Aperture macros list*
%AMRoundRect*
0 Rectangle with rounded corners*
0 $1 Rounding radius*
0 $2 $3 $4 $5 $6 $7 $8 $9 X,Y pos of 4 corners*
0 Add a 4 corners polygon primitive as box body*
4,1,4,$2,$3,$4,$5,$6,$7,$8,$9,$2,$3,0*
0 Add four circle primitives for the rounded corners*
1,1,$1+$1,$2,$3*
1,1,$1+$1,$4,$5*
1,1,$1+$1,$6,$7*
1,1,$1+$1,$8,$9*
0 Add four rect primitives between the rounded corners*
20,1,$1+$1,$2,$3,$4,$5,0*
20,1,$1+$1,$4,$5,$6,$7,0*
20,1,$1+$1,$6,$7,$8,$9,0*
20,1,$1+$1,$8,$9,$2,$3,0*%
%AMFreePoly0*
4,1,19,0.500000,-0.750000,0.000000,-0.750000,0.000000,-0.744911,-0.071157,-0.744911,-0.207708,-0.704816,-0.327430,-0.627875,-0.420627,-0.520320,-0.479746,-0.390866,-0.500000,-0.250000,-0.500000,0.250000,-0.479746,0.390866,-0.420627,0.520320,-0.327430,0.627875,-0.207708,0.704816,-0.071157,0.744911,0.000000,0.744911,0.000000,0.750000,0.500000,0.750000,0.500000,-0.750000,0.500000,-0.750000,
$1*%
%AMFreePoly1*
4,1,19,0.000000,0.744911,0.071157,0.744911,0.207708,0.704816,0.327430,0.627875,0.420627,0.520320,0.479746,0.390866,0.500000,0.250000,0.500000,-0.250000,0.479746,-0.390866,0.420627,-0.520320,0.327430,-0.627875,0.207708,-0.704816,0.071157,-0.744911,0.000000,-0.744911,0.000000,-0.750000,-0.500000,-0.750000,-0.500000,0.750000,0.000000,0.750000,0.000000,0.744911,0.000000,0.744911,
$1*%
G04 Aperture macros list end*
%TA.AperFunction,ComponentPad*%
%ADD10RoundRect,0.250002X1.599998X-1.599998X1.599998X1.599998X-1.599998X1.599998X-1.599998X-1.599998X0*%
%TD*%
%TA.AperFunction,ComponentPad*%
%ADD11C,3.700000*%
%TD*%
%TA.AperFunction,ComponentPad*%
%ADD12R,1.520000X1.520000*%
%TD*%
%TA.AperFunction,ComponentPad*%
%ADD13C,1.520000*%
%TD*%
%TA.AperFunction,ComponentPad*%
%ADD14C,2.909999*%
%TD*%
%TA.AperFunction,SMDPad,CuDef*%
%ADD15R,0.350000X1.950000*%
%TD*%
%TA.AperFunction,ComponentPad*%
%ADD16R,1.800000X1.800000*%
%TD*%
%TA.AperFunction,ComponentPad*%
%ADD17C,1.800000*%
%TD*%
%TA.AperFunction,SMDPad,CuDef*%
%ADD18FreePoly0,90.000000*%
%TD*%
%TA.AperFunction,SMDPad,CuDef*%
%ADD19FreePoly1,90.000000*%
%TD*%
%TA.AperFunction,ViaPad*%
%ADD20C,0.800000*%
%TD*%
%TA.AperFunction,Conductor*%
%ADD21C,2.540000*%
%TD*%
%TA.AperFunction,Conductor*%
%ADD22C,0.406400*%
%TD*%
%TA.AperFunction,Conductor*%
%ADD23C,0.762000*%
%TD*%
%TA.AperFunction,Conductor*%
%ADD24C,1.270000*%
%TD*%
%TA.AperFunction,Conductor*%
%ADD25C,0.254000*%
%TD*%
%TA.AperFunction,Conductor*%
%ADD26C,0.250000*%
%TD*%
G04 APERTURE END LIST*
D10*
%TO.P,J1,1,Pin_1*%
%TO.N,GND*%
X140245200Y-86080600D03*
D11*
%TO.P,J1,2,Pin_2*%
%TO.N,/+12V*%
X145745200Y-86080600D03*
%TD*%
D12*
%TO.P,J3,1,Pin_1*%
%TO.N,GND*%
X135610600Y-104783397D03*
D13*
%TO.P,J3,2,Pin_2*%
X135610600Y-101783398D03*
%TO.P,J3,3,Pin_3*%
%TO.N,/VIN-*%
X135610600Y-98783399D03*
%TO.P,J3,4,Pin_4*%
X135610600Y-95783400D03*
%TO.P,J3,5,Pin_5*%
%TO.N,GND*%
X138610599Y-104783397D03*
%TO.P,J3,6,Pin_6*%
X138610599Y-101783398D03*
%TO.P,J3,7,Pin_7*%
%TO.N,/+3V3*%
X138610599Y-98783399D03*
%TO.P,J3,8,Pin_8*%
%TO.N,/VIN-*%
X138610599Y-95783400D03*
D14*
%TO.P,J3,P1*%
%TO.N,N/C*%
X131290601Y-106933395D03*
%TO.P,J3,P2*%
X131290601Y-93633402D03*
%TD*%
D15*
%TO.P,J2,2,2*%
%TO.N,/VIOUT*%
X163986400Y-122584400D03*
%TO.P,J2,4,4*%
X163486400Y-122584400D03*
%TO.P,J2,6,6*%
X162986400Y-122584400D03*
%TO.P,J2,16,16*%
%TO.N,/+5V*%
X160486400Y-122584400D03*
%TO.P,J2,18,18*%
X159986400Y-122584400D03*
%TO.P,J2,20,20*%
X159486400Y-122584400D03*
%TO.P,J2,22,22*%
X158986400Y-122584400D03*
%TO.P,J2,24,24*%
X158486400Y-122584400D03*
%TO.P,J2,26,26*%
X157986400Y-122584400D03*
%TO.P,J2,28,28*%
X157486400Y-122584400D03*
%TO.P,J2,30,30*%
X156986400Y-122584400D03*
%TO.P,J2,32,32*%
X156486400Y-122584400D03*
%TO.P,J2,34,34*%
X155986400Y-122584400D03*
%TO.P,J2,36,36*%
X155486400Y-122584400D03*
%TO.P,J2,38,38*%
X154986400Y-122584400D03*
%TO.P,J2,40,40*%
X154486400Y-122584400D03*
%TO.P,J2,42,42*%
X153986400Y-122584400D03*
%TO.P,J2,44,44*%
X153486400Y-122584400D03*
%TO.P,J2,46,46*%
X152986400Y-122584400D03*
%TO.P,J2,48,48*%
X152486400Y-122584400D03*
%TO.P,J2,50,50*%
X151986400Y-122584400D03*
%TO.P,J2,52,52*%
X151486400Y-122584400D03*
%TO.P,J2,54,54*%
X150986400Y-122584400D03*
%TO.P,J2,56,56*%
X150486400Y-122584400D03*
%TO.P,J2,58,58*%
X149986400Y-122584400D03*
%TO.P,J2,60,60*%
X149486400Y-122584400D03*
%TO.P,J2,62,62*%
X148986400Y-122584400D03*
%TO.P,J2,64,64*%
X148486400Y-122584400D03*
%TO.P,J2,66,66*%
X147986400Y-122584400D03*
%TO.P,J2,68,68*%
X147486400Y-122584400D03*
%TO.P,J2,70,70*%
X146986400Y-122584400D03*
%TO.P,J2,72,72*%
X146486400Y-122584400D03*
%TO.P,J2,74,74*%
X145986400Y-122584400D03*
%TD*%
D16*
%TO.P,J4,1,Pin_1*%
%TO.N,/+5V*%
X176809400Y-86131400D03*
D17*
%TO.P,J4,2,Pin_2*%
%TO.N,GND*%
X181809400Y-86131400D03*
%TD*%
D18*
%TO.P,JP1,1,A*%
%TO.N,Net-(JP1-A)*%
X159728400Y-87975200D03*
D19*
%TO.P,JP1,2,B*%
%TO.N,GND*%
X159728400Y-86675200D03*
%TD*%
D20*
%TO.N,/VIN-*%
X156971400Y-101625400D03*
X155727400Y-96139000D03*
X159435800Y-97028000D03*
X156951500Y-116789200D03*
X166004000Y-95224600D03*
X160401000Y-95224600D03*
X154787600Y-97028000D03*
X157632400Y-98831400D03*
X158496000Y-98831400D03*
X157632400Y-96139000D03*
X155727400Y-97028000D03*
X156972000Y-99923600D03*
X158496000Y-97028000D03*
X160401000Y-97028000D03*
X156926100Y-114096800D03*
X156692600Y-97942400D03*
X162255200Y-95224600D03*
X154787600Y-98831400D03*
X154787600Y-97942400D03*
X157632400Y-97942400D03*
X161340800Y-98831400D03*
X160401000Y-96139000D03*
X155727400Y-98831400D03*
X157632400Y-97028000D03*
X159435800Y-97942400D03*
X156692600Y-96139000D03*
X158496000Y-96139000D03*
X162255200Y-97942400D03*
X158496000Y-97942400D03*
X156951500Y-117703600D03*
X154787600Y-96139000D03*
X164160200Y-95224600D03*
X154787600Y-95224600D03*
X156692600Y-95224600D03*
X156926100Y-114960400D03*
X160426400Y-94310200D03*
X162255200Y-98831400D03*
X159435800Y-96139000D03*
X158496000Y-95224600D03*
X159435800Y-95224600D03*
X162255200Y-97028000D03*
X157632400Y-95224600D03*
X161340800Y-96139000D03*
X179059600Y-95351600D03*
X157657800Y-94310200D03*
X160401000Y-98831400D03*
X166893000Y-95224600D03*
X162255200Y-96139000D03*
X161340800Y-97942400D03*
X156971400Y-100761800D03*
X180888400Y-95377000D03*
X165115000Y-95224600D03*
X160401000Y-97942400D03*
X156971400Y-102539800D03*
X181752000Y-95377000D03*
X178196000Y-95351600D03*
X177281600Y-95326200D03*
X158521400Y-94310200D03*
X179974000Y-95351600D03*
X156951500Y-115874800D03*
X159435800Y-98831400D03*
X156718000Y-94310200D03*
X161340800Y-95224600D03*
X156692600Y-97028000D03*
X155727400Y-95224600D03*
X167782000Y-95224600D03*
X156927000Y-113182400D03*
X156692600Y-98831400D03*
X161340800Y-97028000D03*
X159461200Y-94310200D03*
X163245800Y-95224600D03*
X155727400Y-97942400D03*
%TO.N,GND*%
X151339000Y-99644200D03*
X181802800Y-101168200D03*
X146181900Y-99644200D03*
X180939200Y-101168200D03*
X162778200Y-112649000D03*
X151339000Y-103251000D03*
X164327600Y-101066600D03*
X146359700Y-116916200D03*
X152075600Y-111760000D03*
X173395400Y-92684600D03*
X180024800Y-101168200D03*
X145856000Y-120933400D03*
X160883450Y-108122750D03*
X183159400Y-112725200D03*
X163692600Y-112649000D03*
X151339000Y-114681000D03*
X169392600Y-100177600D03*
X151339000Y-100558600D03*
X177495200Y-91821000D03*
X167883600Y-101066600D03*
X146359700Y-113309400D03*
X167020000Y-101066600D03*
X171689050Y-91363800D03*
X152202600Y-105384600D03*
X179552600Y-112725200D03*
X150723600Y-90678000D03*
X166105600Y-101066600D03*
X160502600Y-114020600D03*
X182245000Y-112725200D03*
X146181900Y-103251000D03*
X177332400Y-101168200D03*
X176062400Y-100228400D03*
X148548400Y-120933400D03*
X149462800Y-120933400D03*
X151339000Y-113817400D03*
X168938200Y-86116400D03*
X151339000Y-115595400D03*
X151339000Y-102336600D03*
X151339000Y-101422200D03*
X150326400Y-120933400D03*
X146359700Y-115087400D03*
X168910000Y-93776800D03*
X175376600Y-96139000D03*
X151339000Y-104114600D03*
X159105450Y-103677750D03*
X151339000Y-112928400D03*
X151993600Y-89408000D03*
X179110400Y-101168200D03*
X151339000Y-117373400D03*
X160502600Y-110286800D03*
X178246800Y-101168200D03*
X146359700Y-114223800D03*
X151339000Y-116509800D03*
X165470600Y-112649000D03*
X146770400Y-120933400D03*
X161914600Y-112649000D03*
X146359700Y-116001800D03*
X163413200Y-101066600D03*
X146181900Y-102336600D03*
X156189500Y-111226600D03*
X147634000Y-120933400D03*
X180441600Y-112725200D03*
X181330600Y-112725200D03*
X165191200Y-101066600D03*
X170408600Y-82042000D03*
X164607000Y-112649000D03*
X162918400Y-93050600D03*
X146181900Y-101422200D03*
X146181900Y-100558600D03*
X146181900Y-104114600D03*
%TO.N,Net-(C9-Pad2)*%
X170068000Y-94411800D03*
X169291000Y-101955600D03*
%TO.N,/+5V*%
X183184800Y-117246400D03*
X163489400Y-117221000D03*
X156498600Y-120958800D03*
X162625800Y-117221000D03*
X164327600Y-117221000D03*
X159064000Y-120958800D03*
X155635000Y-120958800D03*
X181457600Y-117246400D03*
X166054800Y-117221000D03*
X159927600Y-120958800D03*
X179755800Y-117246400D03*
X161747200Y-117221000D03*
X158200400Y-120958800D03*
X182321200Y-117246400D03*
X180619400Y-117246400D03*
X165191200Y-117221000D03*
X157362200Y-120958800D03*
X178892200Y-117246400D03*
%TO.N,Net-(C25-Pad2)*%
X151085600Y-106354200D03*
X157815100Y-106375200D03*
%TO.N,/+3V3*%
X162610800Y-94030800D03*
X157036000Y-87970600D03*
X141763800Y-104190800D03*
X141762300Y-99741400D03*
X141838500Y-116560600D03*
X141838500Y-115620800D03*
X141762300Y-101494000D03*
X141757400Y-102387400D03*
X161645600Y-94030800D03*
X141838500Y-114757200D03*
X141762300Y-100630400D03*
X141840000Y-117454000D03*
X141838500Y-113893600D03*
X141762300Y-103297400D03*
X141838500Y-113004600D03*
%TO.N,/VIOUT*%
X167338000Y-83322400D03*
%TO.N,/SDA*%
X162991800Y-119913400D03*
X155905200Y-92125800D03*
%TO.N,/SCL*%
X155218400Y-92913200D03*
X162991800Y-120980200D03*
%TO.N,Net-(JP1-A)*%
X159880800Y-89001600D03*
%TD*%
D21*
%TO.N,/+3V3*%
X155031500Y-90256300D02*
X156997400Y-90256300D01*
D22*
X157036000Y-90217700D02*
X156997400Y-90256300D01*
D21*
X156997400Y-90256300D02*
X158470600Y-90256300D01*
D23*
X157036000Y-87970600D02*
X157036000Y-90217700D01*
X161645600Y-94030800D02*
X162610800Y-94030800D01*
D24*
X160655000Y-92440700D02*
X160655000Y-92533047D01*
D21*
X158470600Y-90256300D02*
X160655000Y-92440700D01*
X144508273Y-96995427D02*
X148292373Y-96995427D01*
X141762300Y-99741400D02*
X144508273Y-96995427D01*
X148292373Y-96995427D02*
X155031500Y-90256300D01*
D24*
X160655000Y-92533047D02*
X161645600Y-93523647D01*
X161645600Y-93523647D02*
X161645600Y-93990100D01*
D21*
X141763800Y-104190800D02*
X141763800Y-99742900D01*
X141763800Y-99742900D02*
X141762300Y-99741400D01*
D22*
%TO.N,Net-(C9-Pad2)*%
X170195300Y-101051300D02*
X170195300Y-94539100D01*
X169956300Y-94523500D02*
X170068000Y-94411800D01*
X169291000Y-101955600D02*
X170195300Y-101051300D01*
X170195300Y-94539100D02*
X170068000Y-94411800D01*
%TO.N,/+5V*%
X155006400Y-122584400D02*
X154006400Y-122584400D01*
D21*
X173507100Y-95216773D02*
X175615600Y-93108273D01*
X173507100Y-111861300D02*
X173507100Y-95216773D01*
X175615600Y-93108273D02*
X175615600Y-87325200D01*
X183184800Y-117246400D02*
X178892200Y-117246400D01*
X175615600Y-87325200D02*
X176809400Y-86131400D01*
X178892200Y-117246400D02*
X173507100Y-111861300D01*
D22*
%TO.N,Net-(C25-Pad2)*%
X157794100Y-106354200D02*
X157815100Y-106375200D01*
X151085600Y-106354200D02*
X157794100Y-106354200D01*
D25*
%TO.N,/VIOUT*%
X166781300Y-117927300D02*
X163986400Y-120722200D01*
X168610100Y-101493500D02*
X166781300Y-103322300D01*
X167338000Y-83322400D02*
X167338000Y-93753173D01*
X168610100Y-95025273D02*
X168610100Y-101493500D01*
X166781300Y-103322300D02*
X166781300Y-117927300D01*
X167338000Y-93753173D02*
X168610100Y-95025273D01*
X163986400Y-120722200D02*
X163986400Y-122584400D01*
D26*
X162986400Y-122584400D02*
X163986400Y-122584400D01*
D25*
%TO.N,/SDA*%
X155905200Y-92125800D02*
X155944900Y-92165500D01*
D26*
X159594450Y-116516050D02*
X159594450Y-106187448D01*
D25*
X154447300Y-94498100D02*
X154025600Y-94919800D01*
D26*
X154025600Y-100618598D02*
X154025600Y-99796600D01*
X159594450Y-106187448D02*
X154025600Y-100618598D01*
X162991800Y-119913400D02*
X159594450Y-116516050D01*
D25*
X154025600Y-94919800D02*
X154025600Y-99796600D01*
X154726700Y-94498100D02*
X154447300Y-94498100D01*
X155944900Y-92165500D02*
X155944900Y-93279900D01*
X155905200Y-92125800D02*
X155945900Y-92166500D01*
X155944900Y-93279900D02*
X154726700Y-94498100D01*
%TO.N,/SCL*%
X153572100Y-101104773D02*
X159142950Y-106675623D01*
X159142950Y-117131350D02*
X162991800Y-120980200D01*
X159142950Y-106675623D02*
X159142950Y-117131350D01*
X155219400Y-92913200D02*
X153572100Y-94560500D01*
X153572100Y-94560500D02*
X153572100Y-101104773D01*
D22*
%TO.N,Net-(JP1-A)*%
X159728400Y-87975200D02*
X159728400Y-88849200D01*
X159728400Y-88849200D02*
X159880800Y-89001600D01*
%TD*%
%TA.AperFunction,Conductor*%
%TO.N,GND*%
G36*
X160911945Y-80526748D02*
G01*
X160943827Y-80539100D01*
X160943830Y-80539101D01*
X160952755Y-80540769D01*
X160962742Y-80542162D01*
X160971792Y-80543001D01*
X160971792Y-80543000D01*
X160971793Y-80543001D01*
X160980869Y-80542160D01*
X161011036Y-80539365D01*
X161016759Y-80539100D01*
X179952405Y-80539100D01*
X179998647Y-80539100D01*
X180001351Y-80539159D01*
X180406905Y-80556865D01*
X180412257Y-80557334D01*
X180813381Y-80610143D01*
X180818697Y-80611081D01*
X181213680Y-80698647D01*
X181218892Y-80700043D01*
X181604745Y-80821702D01*
X181609826Y-80823551D01*
X181983612Y-80978378D01*
X181988482Y-80980649D01*
X182347350Y-81167464D01*
X182352028Y-81170166D01*
X182693241Y-81387542D01*
X182697674Y-81390646D01*
X183018634Y-81636927D01*
X183022779Y-81640406D01*
X183321051Y-81913722D01*
X183324877Y-81917548D01*
X183598193Y-82215820D01*
X183601672Y-82219965D01*
X183847953Y-82540925D01*
X183851057Y-82545358D01*
X184068433Y-82886571D01*
X184071139Y-82891257D01*
X184213973Y-83165639D01*
X184257941Y-83250099D01*
X184260225Y-83254997D01*
X184288145Y-83322401D01*
X184415048Y-83628774D01*
X184416899Y-83633859D01*
X184538552Y-84019692D01*
X184539952Y-84024919D01*
X184627518Y-84419902D01*
X184628458Y-84425231D01*
X184681263Y-84826324D01*
X184681735Y-84831715D01*
X184699441Y-85237248D01*
X184699500Y-85239952D01*
X184699500Y-116466026D01*
X184679815Y-116533065D01*
X184627011Y-116578820D01*
X184557853Y-116588764D01*
X184494297Y-116559739D01*
X184466445Y-116525044D01*
X184420073Y-116439356D01*
X184420070Y-116439352D01*
X184270395Y-116247050D01*
X184270392Y-116247047D01*
X184270390Y-116247044D01*
X184091095Y-116081992D01*
X184013907Y-116031562D01*
X183887080Y-115948701D01*
X183663906Y-115850808D01*
X183427666Y-115790984D01*
X183427669Y-115790984D01*
X183378018Y-115786870D01*
X183245625Y-115775900D01*
X183245617Y-115775900D01*
X179552663Y-115775900D01*
X179485624Y-115756215D01*
X179464982Y-115739581D01*
X175013919Y-111288518D01*
X174980434Y-111227195D01*
X174977600Y-111200837D01*
X174977600Y-96796400D01*
X174997285Y-96729361D01*
X175050089Y-96683606D01*
X175101600Y-96672400D01*
X178384200Y-96672400D01*
X178389210Y-96003469D01*
X178409397Y-95936582D01*
X178462542Y-95891224D01*
X178465704Y-95889861D01*
X178498841Y-95876136D01*
X178550940Y-95836159D01*
X178552314Y-95835105D01*
X178617483Y-95809911D01*
X178685928Y-95823949D01*
X178703286Y-95835105D01*
X178756757Y-95876135D01*
X178756758Y-95876135D01*
X178756759Y-95876136D01*
X178902838Y-95936644D01*
X178981218Y-95946963D01*
X179059599Y-95957282D01*
X179059600Y-95957282D01*
X179059601Y-95957282D01*
X179111853Y-95950402D01*
X179216362Y-95936644D01*
X179362441Y-95876136D01*
X179441316Y-95815612D01*
X179506480Y-95790420D01*
X179574925Y-95804458D01*
X179592279Y-95815609D01*
X179671159Y-95876136D01*
X179817238Y-95936644D01*
X179895619Y-95946963D01*
X179973999Y-95957282D01*
X179974000Y-95957282D01*
X179974001Y-95957282D01*
X180026253Y-95950402D01*
X180130762Y-95936644D01*
X180276841Y-95876136D01*
X180339163Y-95828314D01*
X180404331Y-95803120D01*
X180472776Y-95817158D01*
X180490131Y-95828312D01*
X180519355Y-95850736D01*
X180585557Y-95901535D01*
X180585558Y-95901535D01*
X180585559Y-95901536D01*
X180731638Y-95962044D01*
X180804915Y-95971691D01*
X180888399Y-95982682D01*
X180888400Y-95982682D01*
X180888401Y-95982682D01*
X180971885Y-95971691D01*
X181045162Y-95962044D01*
X181191241Y-95901536D01*
X181244713Y-95860505D01*
X181309883Y-95835311D01*
X181378328Y-95849349D01*
X181395686Y-95860505D01*
X181449157Y-95901535D01*
X181449158Y-95901535D01*
X181449159Y-95901536D01*
X181595238Y-95962044D01*
X181668515Y-95971691D01*
X181751999Y-95982682D01*
X181752000Y-95982682D01*
X181752001Y-95982682D01*
X181835485Y-95971691D01*
X181908762Y-95962044D01*
X182054841Y-95901536D01*
X182180282Y-95805282D01*
X182276536Y-95679841D01*
X182337044Y-95533762D01*
X182357682Y-95377000D01*
X182337044Y-95220238D01*
X182276536Y-95074159D01*
X182180282Y-94948718D01*
X182054841Y-94852464D01*
X182050232Y-94850555D01*
X181908762Y-94791956D01*
X181908760Y-94791955D01*
X181752001Y-94771318D01*
X181751999Y-94771318D01*
X181595239Y-94791955D01*
X181595237Y-94791956D01*
X181449158Y-94852464D01*
X181395684Y-94893495D01*
X181330514Y-94918688D01*
X181262069Y-94904649D01*
X181244713Y-94893494D01*
X181191242Y-94852464D01*
X181045162Y-94791956D01*
X181045160Y-94791955D01*
X180888401Y-94771318D01*
X180888399Y-94771318D01*
X180731639Y-94791955D01*
X180731637Y-94791956D01*
X180585557Y-94852464D01*
X180523236Y-94900285D01*
X180458066Y-94925479D01*
X180389622Y-94911440D01*
X180372273Y-94900291D01*
X180276841Y-94827064D01*
X180255569Y-94818253D01*
X180130762Y-94766556D01*
X180130760Y-94766555D01*
X179974001Y-94745918D01*
X179973999Y-94745918D01*
X179817239Y-94766555D01*
X179817237Y-94766556D01*
X179671157Y-94827064D01*
X179592285Y-94887585D01*
X179527115Y-94912779D01*
X179458671Y-94898740D01*
X179441312Y-94887584D01*
X179438261Y-94885243D01*
X179415914Y-94868095D01*
X179362442Y-94827064D01*
X179216362Y-94766556D01*
X179216360Y-94766555D01*
X179059601Y-94745918D01*
X179059599Y-94745918D01*
X178902839Y-94766555D01*
X178902837Y-94766556D01*
X178756758Y-94827064D01*
X178703284Y-94868095D01*
X178638114Y-94893288D01*
X178569669Y-94879249D01*
X178552313Y-94868094D01*
X178498841Y-94827064D01*
X178498836Y-94827061D01*
X178475501Y-94817395D01*
X178421098Y-94773553D01*
X178399035Y-94707258D01*
X178398959Y-94701955D01*
X178434217Y-89995050D01*
X178434215Y-89995049D01*
X178434216Y-89995049D01*
X178434217Y-89995049D01*
X177209296Y-89987104D01*
X177142385Y-89966985D01*
X177096974Y-89913886D01*
X177086100Y-89863107D01*
X177086100Y-87985662D01*
X177105785Y-87918623D01*
X177122419Y-87897981D01*
X177437720Y-87582680D01*
X177816679Y-87203720D01*
X177835458Y-87188308D01*
X177853952Y-87175952D01*
X177866302Y-87157467D01*
X177881725Y-87138675D01*
X177892210Y-87128191D01*
X177931050Y-87082333D01*
X178010261Y-86988810D01*
X178010262Y-86988806D01*
X178010267Y-86988802D01*
X178135012Y-86779452D01*
X178196093Y-86622916D01*
X178223594Y-86552437D01*
X178223594Y-86552434D01*
X178223598Y-86552426D01*
X178273608Y-86313914D01*
X178281157Y-86131405D01*
X180404602Y-86131405D01*
X180423761Y-86362618D01*
X180480717Y-86587535D01*
X180573916Y-86800009D01*
X180658211Y-86929033D01*
X181246626Y-86340619D01*
X181285301Y-86433988D01*
X181381475Y-86559325D01*
X181506812Y-86655499D01*
X181600179Y-86694172D01*
X181010599Y-87283751D01*
X181041050Y-87307450D01*
X181245097Y-87417876D01*
X181245106Y-87417879D01*
X181464539Y-87493211D01*
X181693393Y-87531400D01*
X181925407Y-87531400D01*
X182154260Y-87493211D01*
X182373693Y-87417879D01*
X182373702Y-87417876D01*
X182577750Y-87307450D01*
X182608198Y-87283751D01*
X182018620Y-86694173D01*
X182111988Y-86655499D01*
X182237325Y-86559325D01*
X182333499Y-86433989D01*
X182372172Y-86340620D01*
X182960586Y-86929034D01*
X183044884Y-86800006D01*
X183138082Y-86587535D01*
X183195038Y-86362618D01*
X183214197Y-86131405D01*
X183214197Y-86131394D01*
X183195038Y-85900181D01*
X183138082Y-85675264D01*
X183044883Y-85462790D01*
X182960586Y-85333764D01*
X182372172Y-85922178D01*
X182333499Y-85828812D01*
X182237325Y-85703475D01*
X182111988Y-85607301D01*
X182018620Y-85568627D01*
X182608199Y-84979048D01*
X182608199Y-84979047D01*
X182577749Y-84955349D01*
X182373702Y-84844923D01*
X182373693Y-84844920D01*
X182154260Y-84769588D01*
X181925407Y-84731400D01*
X181693393Y-84731400D01*
X181464539Y-84769588D01*
X181245106Y-84844920D01*
X181245098Y-84844923D01*
X181041044Y-84955352D01*
X181010600Y-84979046D01*
X181010600Y-84979047D01*
X181600179Y-85568626D01*
X181506812Y-85607301D01*
X181381475Y-85703475D01*
X181285301Y-85828811D01*
X181246627Y-85922179D01*
X180658212Y-85333765D01*
X180573916Y-85462791D01*
X180573914Y-85462795D01*
X180480717Y-85675264D01*
X180423761Y-85900181D01*
X180404602Y-86131394D01*
X180404602Y-86131405D01*
X178281157Y-86131405D01*
X178283679Y-86070423D01*
X178253536Y-85828596D01*
X178184000Y-85595030D01*
X178076969Y-85376093D01*
X177938693Y-85182427D01*
X177935359Y-85177757D01*
X177881725Y-85124124D01*
X177866303Y-85105333D01*
X177853952Y-85086848D01*
X177853947Y-85086844D01*
X177835462Y-85074492D01*
X177816672Y-85059071D01*
X177763042Y-85005440D01*
X177564707Y-84863831D01*
X177526030Y-84844923D01*
X177345770Y-84756800D01*
X177260453Y-84731400D01*
X177112204Y-84687264D01*
X176870377Y-84657121D01*
X176870373Y-84657121D01*
X176626887Y-84667191D01*
X176388374Y-84717202D01*
X176388362Y-84717205D01*
X176161351Y-84805786D01*
X175951989Y-84930538D01*
X175812617Y-85048582D01*
X175812616Y-85048582D01*
X175802112Y-85059085D01*
X175783339Y-85074490D01*
X175764850Y-85086845D01*
X175764847Y-85086848D01*
X175752491Y-85105339D01*
X175737074Y-85124123D01*
X174643084Y-86218113D01*
X174637322Y-86223202D01*
X174616248Y-86239606D01*
X174616245Y-86239609D01*
X174555175Y-86305948D01*
X174553402Y-86307796D01*
X174532797Y-86328400D01*
X174513938Y-86350665D01*
X174512244Y-86352582D01*
X174451193Y-86418904D01*
X174451192Y-86418904D01*
X174436588Y-86441255D01*
X174431994Y-86447415D01*
X174414738Y-86467790D01*
X174368574Y-86545261D01*
X174367218Y-86547433D01*
X174317903Y-86622916D01*
X174317900Y-86622921D01*
X174317901Y-86622921D01*
X174307173Y-86647377D01*
X174303658Y-86654205D01*
X174289988Y-86677147D01*
X174289985Y-86677153D01*
X174257206Y-86761157D01*
X174256226Y-86763524D01*
X174220008Y-86846095D01*
X174213454Y-86871974D01*
X174211109Y-86879293D01*
X174201403Y-86904169D01*
X174201400Y-86904180D01*
X174182897Y-86992423D01*
X174182319Y-86994919D01*
X174160183Y-87082333D01*
X174160183Y-87082337D01*
X174157978Y-87108951D01*
X174156869Y-87116560D01*
X174151393Y-87142674D01*
X174151391Y-87142689D01*
X174147666Y-87232752D01*
X174147508Y-87235307D01*
X174145100Y-87264375D01*
X174145100Y-87293530D01*
X174145047Y-87296092D01*
X174141320Y-87386175D01*
X174141320Y-87386176D01*
X174144623Y-87412672D01*
X174145100Y-87420348D01*
X174145100Y-89842421D01*
X174125415Y-89909460D01*
X174072611Y-89955215D01*
X174020296Y-89966418D01*
X167944486Y-89927008D01*
X167925946Y-93579234D01*
X167905922Y-93646173D01*
X167852886Y-93691659D01*
X167783678Y-93701252D01*
X167720271Y-93671905D01*
X167714267Y-93666286D01*
X167701819Y-93653838D01*
X167668334Y-93592515D01*
X167665500Y-93566157D01*
X167665500Y-84195475D01*
X167673392Y-84151943D01*
X167704753Y-84068298D01*
X167896011Y-83558181D01*
X167897753Y-83548118D01*
X167905375Y-83521817D01*
X167923044Y-83479162D01*
X167943682Y-83322400D01*
X167934163Y-83250099D01*
X167923044Y-83165639D01*
X167923044Y-83165638D01*
X167862536Y-83019559D01*
X167766282Y-82894118D01*
X167640841Y-82797864D01*
X167494762Y-82737356D01*
X167494760Y-82737355D01*
X167338001Y-82716718D01*
X167337999Y-82716718D01*
X167181239Y-82737355D01*
X167181237Y-82737356D01*
X167035160Y-82797863D01*
X166909718Y-82894118D01*
X166813463Y-83019560D01*
X166752956Y-83165637D01*
X166752955Y-83165639D01*
X166732318Y-83322398D01*
X166732318Y-83322401D01*
X166752955Y-83479160D01*
X166752956Y-83479161D01*
X166770771Y-83522172D01*
X166778577Y-83549569D01*
X166779987Y-83558178D01*
X166869245Y-83796243D01*
X167001851Y-84149926D01*
X167002608Y-84151943D01*
X167010500Y-84195475D01*
X167010500Y-93736167D01*
X167010264Y-93741574D01*
X167006712Y-93782156D01*
X167017257Y-93821508D01*
X167018428Y-93826791D01*
X167025503Y-93866913D01*
X167027232Y-93871664D01*
X167034468Y-93889132D01*
X167036606Y-93893717D01*
X167059972Y-93927087D01*
X167062879Y-93931651D01*
X167083247Y-93966930D01*
X167083251Y-93966934D01*
X167114463Y-93993124D01*
X167118442Y-93996769D01*
X167364876Y-94243203D01*
X167590174Y-94468501D01*
X167623659Y-94529824D01*
X167618675Y-94599516D01*
X167576803Y-94655449D01*
X167549946Y-94670743D01*
X167479160Y-94700063D01*
X167412986Y-94750840D01*
X167347816Y-94776033D01*
X167279371Y-94761994D01*
X167262014Y-94750840D01*
X167198305Y-94701955D01*
X167195841Y-94700064D01*
X167173292Y-94690724D01*
X167049762Y-94639556D01*
X167049760Y-94639555D01*
X166893001Y-94618918D01*
X166892999Y-94618918D01*
X166736239Y-94639555D01*
X166736237Y-94639556D01*
X166590160Y-94700063D01*
X166523986Y-94750840D01*
X166458816Y-94776033D01*
X166390371Y-94761994D01*
X166373014Y-94750840D01*
X166309305Y-94701955D01*
X166306841Y-94700064D01*
X166284292Y-94690724D01*
X166160762Y-94639556D01*
X166160760Y-94639555D01*
X166004001Y-94618918D01*
X166003999Y-94618918D01*
X165847239Y-94639555D01*
X165847237Y-94639556D01*
X165701160Y-94700063D01*
X165634986Y-94750840D01*
X165569816Y-94776033D01*
X165501371Y-94761994D01*
X165484014Y-94750840D01*
X165420305Y-94701955D01*
X165417841Y-94700064D01*
X165395292Y-94690724D01*
X165271762Y-94639556D01*
X165271760Y-94639555D01*
X165115001Y-94618918D01*
X165114999Y-94618918D01*
X164958239Y-94639555D01*
X164958237Y-94639556D01*
X164812157Y-94700064D01*
X164713086Y-94776085D01*
X164647917Y-94801279D01*
X164579472Y-94787241D01*
X164562114Y-94776085D01*
X164463042Y-94700064D01*
X164316962Y-94639556D01*
X164316960Y-94639555D01*
X164160201Y-94618918D01*
X164160199Y-94618918D01*
X164003439Y-94639555D01*
X164003437Y-94639556D01*
X163857357Y-94700064D01*
X163778486Y-94760585D01*
X163713317Y-94785779D01*
X163644872Y-94771741D01*
X163627514Y-94760585D01*
X163548642Y-94700064D01*
X163402562Y-94639556D01*
X163402560Y-94639555D01*
X163245801Y-94618918D01*
X163245797Y-94618918D01*
X163176223Y-94628077D01*
X163107188Y-94617311D01*
X163054933Y-94570930D01*
X163036048Y-94503661D01*
X163056529Y-94436861D01*
X163061649Y-94429671D01*
X163135336Y-94333641D01*
X163195844Y-94187562D01*
X163213708Y-94051868D01*
X163216482Y-94030801D01*
X163216482Y-94030798D01*
X163195844Y-93874039D01*
X163195844Y-93874038D01*
X163135336Y-93727959D01*
X163039082Y-93602518D01*
X162913641Y-93506264D01*
X162907038Y-93503529D01*
X162767562Y-93445756D01*
X162767560Y-93445755D01*
X162610801Y-93425118D01*
X162610799Y-93425118D01*
X162600161Y-93426518D01*
X162531126Y-93415749D01*
X162478872Y-93369367D01*
X162463594Y-93327154D01*
X162462809Y-93327350D01*
X162461185Y-93320824D01*
X162461185Y-93320820D01*
X162434042Y-93246940D01*
X162433486Y-93245360D01*
X162408352Y-93170762D01*
X162407335Y-93168566D01*
X162399652Y-93152530D01*
X162398515Y-93150236D01*
X162383929Y-93127417D01*
X162356092Y-93083866D01*
X162355249Y-93082505D01*
X162314659Y-93015044D01*
X162314658Y-93015042D01*
X162314655Y-93015039D01*
X162313150Y-93013058D01*
X162302225Y-92999084D01*
X162300643Y-92997116D01*
X162300640Y-92997111D01*
X162244976Y-92941447D01*
X162243842Y-92940281D01*
X162223492Y-92918799D01*
X162189681Y-92883105D01*
X162189669Y-92883097D01*
X162187782Y-92881493D01*
X162171881Y-92868352D01*
X162136225Y-92832696D01*
X162102740Y-92771373D01*
X162100858Y-92729685D01*
X162129279Y-92501677D01*
X162119208Y-92258186D01*
X162069198Y-92019674D01*
X162069195Y-92019666D01*
X162069194Y-92019662D01*
X161980613Y-91792651D01*
X161980612Y-91792648D01*
X161855867Y-91583298D01*
X161855864Y-91583295D01*
X161855861Y-91583289D01*
X161737811Y-91443909D01*
X161737806Y-91443904D01*
X160057758Y-89763857D01*
X160024273Y-89702534D01*
X160029257Y-89632842D01*
X160071129Y-89576909D01*
X160097987Y-89561615D01*
X160183641Y-89526136D01*
X160309082Y-89429882D01*
X160405336Y-89304441D01*
X160465844Y-89158362D01*
X160486482Y-89001600D01*
X160465844Y-88844838D01*
X160436325Y-88773575D01*
X160434032Y-88767022D01*
X160429195Y-88750247D01*
X160427069Y-88742875D01*
X160410855Y-88711511D01*
X160408663Y-88706792D01*
X160405336Y-88698759D01*
X160405334Y-88698756D01*
X160401274Y-88691723D01*
X160401409Y-88691644D01*
X160396987Y-88684682D01*
X160391800Y-88674648D01*
X160378500Y-88606056D01*
X160404396Y-88541163D01*
X160420742Y-88523999D01*
X160494032Y-88460495D01*
X160532137Y-88416520D01*
X160609869Y-88295566D01*
X160634040Y-88242638D01*
X160674547Y-88104683D01*
X160682828Y-88047089D01*
X160682828Y-87475200D01*
X160677033Y-87446064D01*
X160667268Y-87396970D01*
X160667267Y-87396969D01*
X160622952Y-87330647D01*
X160556630Y-87286332D01*
X160556629Y-87286331D01*
X160478404Y-87270772D01*
X160478400Y-87270772D01*
X160037652Y-87270772D01*
X160020006Y-87269510D01*
X160007494Y-87267711D01*
X160007493Y-87267711D01*
X159949307Y-87267711D01*
X159949303Y-87267711D01*
X159936793Y-87269510D01*
X159919148Y-87270772D01*
X159537652Y-87270772D01*
X159520007Y-87269510D01*
X159507496Y-87267711D01*
X159507493Y-87267711D01*
X159449307Y-87267711D01*
X159449305Y-87267711D01*
X159436794Y-87269510D01*
X159419148Y-87270772D01*
X158978395Y-87270772D01*
X158900170Y-87286331D01*
X158900169Y-87286332D01*
X158833847Y-87330647D01*
X158789532Y-87396969D01*
X158789531Y-87396970D01*
X158773972Y-87475195D01*
X158773972Y-88047088D01*
X158782252Y-88104678D01*
X158782255Y-88104692D01*
X158822756Y-88242628D01*
X158822757Y-88242630D01*
X158822758Y-88242633D01*
X158822760Y-88242638D01*
X158846931Y-88295566D01*
X158924663Y-88416520D01*
X158962768Y-88460495D01*
X159071429Y-88554649D01*
X159071434Y-88554652D01*
X159071435Y-88554653D01*
X159120367Y-88586100D01*
X159120369Y-88586101D01*
X159120377Y-88586106D01*
X159217176Y-88630313D01*
X159269979Y-88676067D01*
X159289663Y-88743106D01*
X159289457Y-88750247D01*
X159285349Y-88821464D01*
X159261837Y-88887258D01*
X159206485Y-88929897D01*
X159136869Y-88935841D01*
X159116481Y-88929841D01*
X159034618Y-88897897D01*
X159032312Y-88896942D01*
X158979681Y-88873857D01*
X158949708Y-88860709D01*
X158949700Y-88860707D01*
X158923827Y-88854155D01*
X158916508Y-88851810D01*
X158891626Y-88842102D01*
X158846959Y-88832736D01*
X158803385Y-88823599D01*
X158800890Y-88823021D01*
X158713464Y-88800883D01*
X158713466Y-88800883D01*
X158686847Y-88798678D01*
X158679242Y-88797570D01*
X158653113Y-88792092D01*
X158653108Y-88792091D01*
X158653110Y-88792091D01*
X158563048Y-88788366D01*
X158560493Y-88788208D01*
X158548337Y-88787201D01*
X158531425Y-88785800D01*
X158531423Y-88785800D01*
X158502268Y-88785800D01*
X158499709Y-88785747D01*
X158444226Y-88783452D01*
X158409624Y-88782021D01*
X158409623Y-88782021D01*
X158383120Y-88785324D01*
X158375451Y-88785800D01*
X157741500Y-88785800D01*
X157674461Y-88766115D01*
X157628706Y-88713311D01*
X157617500Y-88661800D01*
X157617500Y-88156912D01*
X157620324Y-88135465D01*
X157619983Y-88135421D01*
X157641682Y-87970601D01*
X157641682Y-87970598D01*
X157627923Y-87866092D01*
X157621044Y-87813838D01*
X157560536Y-87667759D01*
X157464282Y-87542318D01*
X157338841Y-87446064D01*
X157270796Y-87417879D01*
X157192762Y-87385556D01*
X157192760Y-87385555D01*
X157036001Y-87364918D01*
X157035999Y-87364918D01*
X156879239Y-87385555D01*
X156879237Y-87385556D01*
X156733160Y-87446063D01*
X156607718Y-87542318D01*
X156511463Y-87667760D01*
X156450956Y-87813837D01*
X156450955Y-87813839D01*
X156430318Y-87970598D01*
X156430318Y-87970601D01*
X156452017Y-88135421D01*
X156451675Y-88135465D01*
X156454500Y-88156912D01*
X156454500Y-88661800D01*
X156434815Y-88728839D01*
X156382011Y-88774594D01*
X156330500Y-88785800D01*
X155126657Y-88785800D01*
X155118985Y-88785324D01*
X155092477Y-88782020D01*
X155092475Y-88782020D01*
X155026518Y-88784748D01*
X155002376Y-88785747D01*
X154999816Y-88785800D01*
X154970675Y-88785800D01*
X154941609Y-88788207D01*
X154939065Y-88788365D01*
X154848988Y-88792091D01*
X154848974Y-88792093D01*
X154822860Y-88797569D01*
X154815251Y-88798678D01*
X154788637Y-88800883D01*
X154788632Y-88800884D01*
X154701205Y-88823022D01*
X154698710Y-88823600D01*
X154610481Y-88842100D01*
X154610474Y-88842102D01*
X154597281Y-88847249D01*
X154585595Y-88851809D01*
X154578278Y-88854153D01*
X154552392Y-88860709D01*
X154505802Y-88881144D01*
X154469816Y-88896929D01*
X154467463Y-88897904D01*
X154383452Y-88930685D01*
X154383447Y-88930688D01*
X154360505Y-88944358D01*
X154353677Y-88947873D01*
X154335456Y-88955865D01*
X154329216Y-88958603D01*
X154253733Y-89007918D01*
X154251561Y-89009274D01*
X154174090Y-89055438D01*
X154153715Y-89072694D01*
X154147555Y-89077288D01*
X154125204Y-89091892D01*
X154125204Y-89091893D01*
X154058882Y-89152944D01*
X154056965Y-89154638D01*
X154034700Y-89173497D01*
X154014096Y-89194102D01*
X154012248Y-89195875D01*
X153945909Y-89256945D01*
X153945906Y-89256948D01*
X153929502Y-89278022D01*
X153924413Y-89283784D01*
X147719591Y-95488608D01*
X147658268Y-95522093D01*
X147631910Y-95524927D01*
X144603421Y-95524927D01*
X144595751Y-95524451D01*
X144569249Y-95521148D01*
X144569247Y-95521148D01*
X144519248Y-95523216D01*
X144479162Y-95524874D01*
X144476604Y-95524927D01*
X144447447Y-95524927D01*
X144418379Y-95527335D01*
X144415824Y-95527493D01*
X144325761Y-95531218D01*
X144325746Y-95531220D01*
X144299632Y-95536696D01*
X144292023Y-95537805D01*
X144265406Y-95540010D01*
X144177983Y-95562148D01*
X144175487Y-95562726D01*
X144087245Y-95581229D01*
X144062364Y-95590936D01*
X144055045Y-95593281D01*
X144029168Y-95599834D01*
X144029164Y-95599835D01*
X143946583Y-95636059D01*
X143944217Y-95637039D01*
X143860222Y-95669815D01*
X143860220Y-95669815D01*
X143837286Y-95683480D01*
X143830455Y-95686997D01*
X143805997Y-95697726D01*
X143805995Y-95697727D01*
X143730525Y-95747033D01*
X143728352Y-95748390D01*
X143650868Y-95794560D01*
X143650866Y-95794561D01*
X143630487Y-95811822D01*
X143624325Y-95816417D01*
X143601982Y-95831015D01*
X143601978Y-95831018D01*
X143535642Y-95892084D01*
X143533723Y-95893778D01*
X143511477Y-95912620D01*
X143511475Y-95912623D01*
X143490869Y-95933229D01*
X143489024Y-95934998D01*
X143437707Y-95982240D01*
X143422682Y-95996072D01*
X143422679Y-95996075D01*
X143406275Y-96017149D01*
X143401186Y-96022911D01*
X142751698Y-96672400D01*
X140808660Y-98615438D01*
X140808660Y-98615439D01*
X140777744Y-98646352D01*
X140771986Y-98651438D01*
X140764453Y-98657301D01*
X140764443Y-98657310D01*
X140738152Y-98685870D01*
X140736378Y-98687718D01*
X140636341Y-98787756D01*
X140636340Y-98787757D01*
X140610864Y-98823437D01*
X140606023Y-98829399D01*
X140599396Y-98836598D01*
X140599387Y-98836609D01*
X140594134Y-98844650D01*
X140589541Y-98850810D01*
X140561430Y-98884000D01*
X140531499Y-98934230D01*
X140528696Y-98938520D01*
X140494733Y-98986088D01*
X140494733Y-98986089D01*
X140475627Y-99025165D01*
X140471835Y-99031840D01*
X140466104Y-99040614D01*
X140466099Y-99040622D01*
X140462051Y-99049852D01*
X140458534Y-99056683D01*
X140436689Y-99093346D01*
X140415433Y-99147816D01*
X140413375Y-99152507D01*
X140387701Y-99205027D01*
X140387696Y-99205040D01*
X140375519Y-99245937D01*
X140372876Y-99253149D01*
X140368211Y-99263784D01*
X140368208Y-99263795D01*
X140365507Y-99274457D01*
X140363164Y-99281771D01*
X140348103Y-99320369D01*
X140348101Y-99320378D01*
X140336101Y-99377601D01*
X140334843Y-99382568D01*
X140318166Y-99438585D01*
X140318163Y-99438597D01*
X140313037Y-99479716D01*
X140311616Y-99487267D01*
X140308384Y-99500032D01*
X140308383Y-99500036D01*
X140307363Y-99512344D01*
X140306255Y-99519947D01*
X140298093Y-99558880D01*
X140298091Y-99558889D01*
X140295676Y-99617292D01*
X140295253Y-99622400D01*
X140288021Y-99680423D01*
X140290437Y-99738836D01*
X140290437Y-99743962D01*
X140288020Y-99802375D01*
X140292823Y-99840907D01*
X140293300Y-99848583D01*
X140293300Y-104251625D01*
X140296399Y-104289024D01*
X140308384Y-104433667D01*
X140368208Y-104669906D01*
X140466101Y-104893080D01*
X140557776Y-105033397D01*
X140599392Y-105097095D01*
X140764444Y-105276390D01*
X140764447Y-105276392D01*
X140764450Y-105276395D01*
X140864222Y-105354051D01*
X140956756Y-105426073D01*
X140956758Y-105426074D01*
X140956761Y-105426076D01*
X141007941Y-105453773D01*
X141171082Y-105542060D01*
X141401576Y-105621189D01*
X141641951Y-105661300D01*
X141885649Y-105661300D01*
X142126024Y-105621189D01*
X142356518Y-105542060D01*
X142570844Y-105426073D01*
X142763156Y-105276390D01*
X142928208Y-105097095D01*
X143061499Y-104893079D01*
X143159391Y-104669907D01*
X143219216Y-104433666D01*
X143234300Y-104251625D01*
X143234300Y-100400363D01*
X143253985Y-100333324D01*
X143270619Y-100312682D01*
X145081055Y-98502246D01*
X145142378Y-98468761D01*
X145168736Y-98465927D01*
X148197224Y-98465927D01*
X148204893Y-98466402D01*
X148231396Y-98469706D01*
X148321482Y-98465979D01*
X148324041Y-98465927D01*
X148353197Y-98465927D01*
X148353198Y-98465927D01*
X148382267Y-98463517D01*
X148384796Y-98463360D01*
X148474886Y-98459635D01*
X148501011Y-98454156D01*
X148508613Y-98453048D01*
X148535239Y-98450843D01*
X148622708Y-98428692D01*
X148625113Y-98428136D01*
X148713399Y-98409625D01*
X148738296Y-98399909D01*
X148745578Y-98397576D01*
X148771480Y-98391018D01*
X148854083Y-98354783D01*
X148856369Y-98353836D01*
X148940425Y-98321039D01*
X148963368Y-98307366D01*
X148970185Y-98303856D01*
X148994652Y-98293126D01*
X149064958Y-98247192D01*
X149070135Y-98243810D01*
X149072310Y-98242452D01*
X149149775Y-98196294D01*
X149170171Y-98179018D01*
X149176305Y-98174444D01*
X149198668Y-98159835D01*
X149265040Y-98098733D01*
X149266898Y-98097094D01*
X149289164Y-98078237D01*
X149309784Y-98057615D01*
X149311583Y-98055888D01*
X149377963Y-97994783D01*
X149394373Y-97973698D01*
X149399438Y-97967961D01*
X153058074Y-94309325D01*
X153119395Y-94275842D01*
X153189087Y-94280826D01*
X153245020Y-94322698D01*
X153269437Y-94388162D01*
X153262277Y-94439413D01*
X153259602Y-94446762D01*
X153252527Y-94486883D01*
X153251356Y-94492162D01*
X153240812Y-94531516D01*
X153244364Y-94572098D01*
X153244600Y-94577505D01*
X153244600Y-101087767D01*
X153244364Y-101093174D01*
X153240812Y-101133756D01*
X153251357Y-101173108D01*
X153252528Y-101178391D01*
X153259603Y-101218513D01*
X153261332Y-101223264D01*
X153268568Y-101240732D01*
X153270706Y-101245317D01*
X153294072Y-101278687D01*
X153296979Y-101283251D01*
X153317347Y-101318530D01*
X153317351Y-101318534D01*
X153348563Y-101344724D01*
X153352542Y-101348369D01*
X153932414Y-101928241D01*
X155607813Y-103603641D01*
X155641298Y-103664964D01*
X155644130Y-103692083D01*
X155631031Y-105827261D01*
X155610935Y-105894178D01*
X155557852Y-105939608D01*
X155507033Y-105950500D01*
X151946730Y-105950500D01*
X151915849Y-105946593D01*
X151299663Y-105788145D01*
X151294761Y-105787297D01*
X151294924Y-105786351D01*
X151267560Y-105779593D01*
X151242365Y-105769157D01*
X151242360Y-105769155D01*
X151085601Y-105748518D01*
X151085599Y-105748518D01*
X150928839Y-105769155D01*
X150928837Y-105769156D01*
X150782760Y-105829663D01*
X150657318Y-105925918D01*
X150561063Y-106051360D01*
X150500556Y-106197437D01*
X150500555Y-106197439D01*
X150479918Y-106354198D01*
X150479918Y-106354201D01*
X150500555Y-106510960D01*
X150500556Y-106510962D01*
X150561064Y-106657041D01*
X150657318Y-106782482D01*
X150782759Y-106878736D01*
X150928838Y-106939244D01*
X151007219Y-106949563D01*
X151085599Y-106959882D01*
X151085600Y-106959882D01*
X151085601Y-106959882D01*
X151137853Y-106953002D01*
X151242362Y-106939244D01*
X151267614Y-106928783D01*
X151296120Y-106920801D01*
X151299660Y-106920253D01*
X151299664Y-106920253D01*
X151445864Y-106882659D01*
X151915849Y-106761807D01*
X151946730Y-106757900D01*
X155500559Y-106757900D01*
X155567598Y-106777585D01*
X155613353Y-106830389D01*
X155624556Y-106882659D01*
X155600400Y-110820200D01*
X155600400Y-111734600D01*
X155605462Y-112422981D01*
X155625799Y-115188999D01*
X155625799Y-115188998D01*
X155625800Y-115189000D01*
X156286224Y-115186116D01*
X156353346Y-115205507D01*
X156399331Y-115258110D01*
X156401317Y-115262645D01*
X156401564Y-115263241D01*
X156474786Y-115358666D01*
X156499979Y-115423832D01*
X156485941Y-115492277D01*
X156474785Y-115509636D01*
X156426964Y-115571957D01*
X156366456Y-115718037D01*
X156366455Y-115718039D01*
X156345818Y-115874798D01*
X156345818Y-115874801D01*
X156366455Y-116031560D01*
X156366456Y-116031562D01*
X156426964Y-116177642D01*
X156487485Y-116256514D01*
X156512679Y-116321683D01*
X156498641Y-116390128D01*
X156487485Y-116407486D01*
X156426964Y-116486357D01*
X156366456Y-116632437D01*
X156366455Y-116632439D01*
X156345818Y-116789198D01*
X156345818Y-116789201D01*
X156366455Y-116945960D01*
X156366456Y-116945962D01*
X156426964Y-117092042D01*
X156487485Y-117170914D01*
X156512679Y-117236083D01*
X156498641Y-117304528D01*
X156487485Y-117321886D01*
X156426964Y-117400757D01*
X156366456Y-117546837D01*
X156366455Y-117546839D01*
X156345818Y-117703598D01*
X156345818Y-117703601D01*
X156366455Y-117860360D01*
X156366456Y-117860362D01*
X156424674Y-118000914D01*
X156426964Y-118006441D01*
X156523218Y-118131882D01*
X156648659Y-118228136D01*
X156794738Y-118288644D01*
X156873118Y-118298963D01*
X156951499Y-118309282D01*
X156951500Y-118309282D01*
X156951501Y-118309282D01*
X157003754Y-118302402D01*
X157108262Y-118288644D01*
X157254341Y-118228136D01*
X157379782Y-118131882D01*
X157476036Y-118006441D01*
X157536544Y-117860362D01*
X157557182Y-117703600D01*
X157557115Y-117703093D01*
X157536544Y-117546839D01*
X157536544Y-117546838D01*
X157476036Y-117400759D01*
X157476035Y-117400758D01*
X157476035Y-117400757D01*
X157433333Y-117345107D01*
X157415514Y-117321885D01*
X157390320Y-117256718D01*
X157404358Y-117188273D01*
X157415512Y-117170917D01*
X157476036Y-117092041D01*
X157536544Y-116945962D01*
X157557182Y-116789200D01*
X157554449Y-116768443D01*
X157540867Y-116665276D01*
X157536544Y-116632438D01*
X157476036Y-116486359D01*
X157476035Y-116486358D01*
X157476035Y-116486357D01*
X157423231Y-116417542D01*
X157415514Y-116407485D01*
X157390320Y-116342318D01*
X157404358Y-116273873D01*
X157415512Y-116256517D01*
X157476036Y-116177641D01*
X157536544Y-116031562D01*
X157557182Y-115874800D01*
X157554023Y-115850808D01*
X157536544Y-115718039D01*
X157536544Y-115718038D01*
X157476036Y-115571959D01*
X157476035Y-115571958D01*
X157476035Y-115571957D01*
X157414894Y-115492277D01*
X157402814Y-115476534D01*
X157377620Y-115411367D01*
X157391658Y-115342922D01*
X157402812Y-115325566D01*
X157449681Y-115264486D01*
X157450633Y-115263245D01*
X157450633Y-115263244D01*
X157450636Y-115263241D01*
X157453191Y-115257071D01*
X157497025Y-115202669D01*
X157563317Y-115180599D01*
X157567134Y-115180522D01*
X158690913Y-115175615D01*
X158758033Y-115195006D01*
X158804018Y-115247609D01*
X158815450Y-115299613D01*
X158815450Y-117114344D01*
X158815214Y-117119751D01*
X158811662Y-117160333D01*
X158822207Y-117199685D01*
X158823378Y-117204968D01*
X158830453Y-117245090D01*
X158832182Y-117249841D01*
X158839418Y-117267309D01*
X158841556Y-117271894D01*
X158864922Y-117305264D01*
X158867829Y-117309828D01*
X158888197Y-117345107D01*
X158888201Y-117345111D01*
X158919413Y-117371301D01*
X158923392Y-117374946D01*
X160983258Y-119434813D01*
X161645664Y-120097219D01*
X161679149Y-120158542D01*
X161674165Y-120228234D01*
X161632293Y-120284167D01*
X161566829Y-120308584D01*
X161557983Y-120308900D01*
X161522706Y-120308900D01*
X161348741Y-120343503D01*
X161348732Y-120343506D01*
X161184859Y-120411383D01*
X161184846Y-120411390D01*
X161037368Y-120509933D01*
X161008519Y-120538781D01*
X160947194Y-120572264D01*
X160877503Y-120567277D01*
X160821571Y-120525404D01*
X160811411Y-120509418D01*
X160799100Y-120486315D01*
X160753345Y-120433511D01*
X160753339Y-120433504D01*
X160735757Y-120415560D01*
X160735756Y-120415559D01*
X160735754Y-120415557D01*
X160735752Y-120415556D01*
X160735750Y-120415554D01*
X160655940Y-120370911D01*
X160655935Y-120370909D01*
X160588903Y-120351226D01*
X160588899Y-120351225D01*
X160588898Y-120351225D01*
X160531000Y-120342900D01*
X155368800Y-120342900D01*
X155368792Y-120342900D01*
X155325117Y-120347596D01*
X155273602Y-120358803D01*
X155263427Y-120361290D01*
X155263424Y-120361291D01*
X155182716Y-120404299D01*
X155182713Y-120404301D01*
X155129904Y-120450060D01*
X155111960Y-120467642D01*
X155111954Y-120467650D01*
X155102434Y-120484670D01*
X155052527Y-120533568D01*
X154993596Y-120548132D01*
X150760600Y-120526999D01*
X150760599Y-120526999D01*
X150772248Y-121209685D01*
X150753710Y-121277050D01*
X150701694Y-121323699D01*
X150648266Y-121335800D01*
X145566191Y-121335800D01*
X145499152Y-121316115D01*
X145453397Y-121263311D01*
X145442204Y-121210022D01*
X145452000Y-120527000D01*
X145447122Y-120522095D01*
X145396802Y-120507792D01*
X145350592Y-120455386D01*
X145341320Y-120427096D01*
X145331137Y-120375903D01*
X145316051Y-120339482D01*
X145270797Y-120230227D01*
X145270790Y-120230214D01*
X145183189Y-120099111D01*
X145183186Y-120099107D01*
X145071692Y-119987613D01*
X145071688Y-119987610D01*
X144940585Y-119900009D01*
X144940572Y-119900002D01*
X144794901Y-119839664D01*
X144794889Y-119839661D01*
X144640245Y-119808900D01*
X144640242Y-119808900D01*
X144617573Y-119808900D01*
X144042573Y-119808900D01*
X134160348Y-119808900D01*
X134157654Y-119808841D01*
X133753801Y-119791282D01*
X133748432Y-119790814D01*
X133348967Y-119738444D01*
X133343659Y-119737512D01*
X132950243Y-119650667D01*
X132945036Y-119649278D01*
X132560649Y-119528617D01*
X132555582Y-119526781D01*
X132254581Y-119402677D01*
X132183111Y-119373209D01*
X132178229Y-119370943D01*
X131820496Y-119185623D01*
X131815823Y-119182939D01*
X131475529Y-118967273D01*
X131471106Y-118964193D01*
X131150803Y-118719795D01*
X131146665Y-118716343D01*
X130901871Y-118493414D01*
X130848794Y-118445078D01*
X130844975Y-118441283D01*
X130571766Y-118145180D01*
X130568287Y-118141064D01*
X130321814Y-117822371D01*
X130318710Y-117817977D01*
X130100819Y-117479079D01*
X130098109Y-117474432D01*
X129910459Y-117117909D01*
X129908163Y-117113044D01*
X129752163Y-116741576D01*
X129750303Y-116736546D01*
X129693810Y-116560601D01*
X141232818Y-116560601D01*
X141253455Y-116717360D01*
X141253456Y-116717362D01*
X141284669Y-116792718D01*
X141313964Y-116863441D01*
X141367178Y-116932792D01*
X141392372Y-116997960D01*
X141378334Y-117066404D01*
X141367178Y-117083763D01*
X141315464Y-117151157D01*
X141254956Y-117297237D01*
X141254955Y-117297239D01*
X141234318Y-117453998D01*
X141234318Y-117454001D01*
X141254955Y-117610760D01*
X141254956Y-117610762D01*
X141270911Y-117649282D01*
X141315464Y-117756841D01*
X141411718Y-117882282D01*
X141537159Y-117978536D01*
X141683238Y-118039044D01*
X141761618Y-118049362D01*
X141839999Y-118059682D01*
X141840000Y-118059682D01*
X141840001Y-118059682D01*
X141892253Y-118052802D01*
X141996762Y-118039044D01*
X142142841Y-117978536D01*
X142268282Y-117882282D01*
X142364536Y-117756841D01*
X142425044Y-117610762D01*
X142445682Y-117454000D01*
X142440969Y-117418204D01*
X142425044Y-117297239D01*
X142425044Y-117297238D01*
X142364536Y-117151159D01*
X142311319Y-117081806D01*
X142286127Y-117016640D01*
X142300165Y-116948195D01*
X142311317Y-116930842D01*
X142363036Y-116863441D01*
X142423544Y-116717362D01*
X142444182Y-116560600D01*
X142423544Y-116403838D01*
X142363036Y-116257759D01*
X142363035Y-116257758D01*
X142363035Y-116257757D01*
X142301559Y-116177641D01*
X142292769Y-116166185D01*
X142267575Y-116101018D01*
X142281613Y-116032573D01*
X142292767Y-116015217D01*
X142363036Y-115923641D01*
X142423544Y-115777562D01*
X142444182Y-115620800D01*
X142434572Y-115547808D01*
X142423544Y-115464039D01*
X142423544Y-115464038D01*
X142363036Y-115317959D01*
X142363035Y-115317958D01*
X142363035Y-115317957D01*
X142322005Y-115264486D01*
X142296811Y-115199317D01*
X142310849Y-115130872D01*
X142322005Y-115113514D01*
X142363035Y-115060042D01*
X142363034Y-115060042D01*
X142363036Y-115060041D01*
X142423544Y-114913962D01*
X142444182Y-114757200D01*
X142423544Y-114600438D01*
X142363036Y-114454359D01*
X142363035Y-114454358D01*
X142363035Y-114454357D01*
X142343771Y-114429253D01*
X142322004Y-114400885D01*
X142296810Y-114335719D01*
X142310848Y-114267274D01*
X142322004Y-114249915D01*
X142363036Y-114196441D01*
X142423544Y-114050362D01*
X142444182Y-113893600D01*
X142423544Y-113736838D01*
X142363036Y-113590759D01*
X142363035Y-113590758D01*
X142363035Y-113590757D01*
X142338640Y-113558966D01*
X142312259Y-113524585D01*
X142287065Y-113459418D01*
X142301103Y-113390973D01*
X142312257Y-113373617D01*
X142363036Y-113307441D01*
X142423544Y-113161362D01*
X142444182Y-113004600D01*
X142423544Y-112847838D01*
X142363036Y-112701759D01*
X142266782Y-112576318D01*
X142141341Y-112480064D01*
X141995262Y-112419556D01*
X141995260Y-112419555D01*
X141838501Y-112398918D01*
X141838499Y-112398918D01*
X141681739Y-112419555D01*
X141681737Y-112419556D01*
X141535660Y-112480063D01*
X141410218Y-112576318D01*
X141313963Y-112701760D01*
X141253456Y-112847837D01*
X141253455Y-112847839D01*
X141232818Y-113004598D01*
X141232818Y-113004601D01*
X141253455Y-113161360D01*
X141253456Y-113161362D01*
X141313964Y-113307441D01*
X141351470Y-113356321D01*
X141364740Y-113373614D01*
X141389933Y-113438784D01*
X141375894Y-113507229D01*
X141364740Y-113524586D01*
X141313963Y-113590760D01*
X141253456Y-113736837D01*
X141253455Y-113736839D01*
X141232818Y-113893598D01*
X141232818Y-113893601D01*
X141253455Y-114050360D01*
X141253456Y-114050362D01*
X141313964Y-114196441D01*
X141354995Y-114249915D01*
X141380188Y-114315084D01*
X141366149Y-114383529D01*
X141354995Y-114400885D01*
X141313964Y-114454358D01*
X141253456Y-114600437D01*
X141253455Y-114600439D01*
X141232818Y-114757198D01*
X141232818Y-114757201D01*
X141253455Y-114913960D01*
X141253456Y-114913962D01*
X141313964Y-115060041D01*
X141354995Y-115113515D01*
X141380188Y-115178684D01*
X141366149Y-115247129D01*
X141354995Y-115264485D01*
X141313964Y-115317958D01*
X141253456Y-115464037D01*
X141253455Y-115464039D01*
X141232818Y-115620798D01*
X141232818Y-115620801D01*
X141253455Y-115777560D01*
X141253456Y-115777562D01*
X141293732Y-115874798D01*
X141313964Y-115923641D01*
X141384231Y-116015215D01*
X141409424Y-116080381D01*
X141395386Y-116148826D01*
X141384230Y-116166185D01*
X141313964Y-116257757D01*
X141253456Y-116403837D01*
X141253455Y-116403839D01*
X141232818Y-116560598D01*
X141232818Y-116560601D01*
X129693810Y-116560601D01*
X129627127Y-116352919D01*
X129625709Y-116347739D01*
X129624475Y-116342318D01*
X129536301Y-115954895D01*
X129535336Y-115949609D01*
X129480359Y-115550458D01*
X129479860Y-115545142D01*
X129459664Y-115141333D01*
X129459591Y-115138739D01*
X129459500Y-115124687D01*
X129459499Y-107445574D01*
X129479185Y-107378535D01*
X129531989Y-107332780D01*
X129601147Y-107322836D01*
X129664703Y-107351861D01*
X129702477Y-107410639D01*
X129704074Y-107416628D01*
X129711256Y-107446547D01*
X129810979Y-107687300D01*
X129947129Y-107909477D01*
X129947130Y-107909478D01*
X129947131Y-107909480D01*
X129947133Y-107909482D01*
X130116367Y-108107629D01*
X130314514Y-108276863D01*
X130314516Y-108276864D01*
X130314517Y-108276865D01*
X130314518Y-108276866D01*
X130536695Y-108413016D01*
X130629799Y-108451581D01*
X130777442Y-108512737D01*
X131030823Y-108573568D01*
X131290601Y-108594013D01*
X131550379Y-108573568D01*
X131803760Y-108512737D01*
X132044506Y-108413016D01*
X132266688Y-108276863D01*
X132464835Y-108107629D01*
X132634069Y-107909482D01*
X132770222Y-107687300D01*
X132869943Y-107446554D01*
X132930774Y-107193173D01*
X132951219Y-106933395D01*
X132930774Y-106673617D01*
X132869943Y-106420236D01*
X132777657Y-106197439D01*
X132770222Y-106179489D01*
X132634072Y-105957312D01*
X132634071Y-105957311D01*
X132634070Y-105957310D01*
X132634069Y-105957308D01*
X132464835Y-105759161D01*
X132268226Y-105591241D01*
X134350600Y-105591241D01*
X134357001Y-105650769D01*
X134357003Y-105650776D01*
X134407245Y-105785483D01*
X134407249Y-105785490D01*
X134493409Y-105900584D01*
X134493412Y-105900587D01*
X134608506Y-105986747D01*
X134608513Y-105986751D01*
X134743220Y-106036993D01*
X134743227Y-106036995D01*
X134802755Y-106043396D01*
X134802772Y-106043397D01*
X135360600Y-106043397D01*
X135360600Y-105229891D01*
X135465439Y-105277770D01*
X135574127Y-105293397D01*
X135647073Y-105293397D01*
X135755761Y-105277770D01*
X135860600Y-105229891D01*
X135860600Y-106043397D01*
X136418428Y-106043397D01*
X136418444Y-106043396D01*
X136477972Y-106036995D01*
X136477979Y-106036993D01*
X136612686Y-105986751D01*
X136612693Y-105986747D01*
X136727787Y-105900587D01*
X136727790Y-105900584D01*
X136813950Y-105785490D01*
X136813954Y-105785483D01*
X136864196Y-105650776D01*
X136864198Y-105650769D01*
X136870599Y-105591241D01*
X136870600Y-105591224D01*
X136870600Y-105033397D01*
X136056172Y-105033397D01*
X136079282Y-104997437D01*
X136120600Y-104856724D01*
X136120600Y-104783398D01*
X137345786Y-104783398D01*
X137365000Y-105003023D01*
X137365001Y-105003031D01*
X137422062Y-105215984D01*
X137422065Y-105215990D01*
X137515237Y-105415799D01*
X137560293Y-105480147D01*
X138119465Y-104920976D01*
X138141917Y-104997437D01*
X138221204Y-105120810D01*
X138332037Y-105216848D01*
X138465438Y-105277770D01*
X138469232Y-105278315D01*
X137913846Y-105833701D01*
X137978192Y-105878756D01*
X138178005Y-105971930D01*
X138178011Y-105971933D01*
X138390964Y-106028994D01*
X138390972Y-106028995D01*
X138610597Y-106048210D01*
X138610601Y-106048210D01*
X138830225Y-106028995D01*
X138830233Y-106028994D01*
X139043186Y-105971933D01*
X139043197Y-105971929D01*
X139243001Y-105878759D01*
X139243009Y-105878755D01*
X139307350Y-105833702D01*
X139307350Y-105833701D01*
X138751965Y-105278315D01*
X138755760Y-105277770D01*
X138889161Y-105216848D01*
X138999994Y-105120810D01*
X139079281Y-104997437D01*
X139101732Y-104920977D01*
X139660903Y-105480148D01*
X139660904Y-105480148D01*
X139705957Y-105415807D01*
X139705961Y-105415799D01*
X139799131Y-105215995D01*
X139799135Y-105215984D01*
X139856196Y-105003031D01*
X139856197Y-105003023D01*
X139875412Y-104783398D01*
X139875412Y-104783395D01*
X139856197Y-104563770D01*
X139856196Y-104563763D01*
X139799132Y-104350801D01*
X139705959Y-104150992D01*
X139705958Y-104150990D01*
X139660903Y-104086645D01*
X139660903Y-104086644D01*
X139101731Y-104645815D01*
X139079281Y-104569357D01*
X138999994Y-104445984D01*
X138889161Y-104349946D01*
X138755760Y-104289024D01*
X138751964Y-104288478D01*
X139307350Y-103733091D01*
X139243001Y-103688035D01*
X139043192Y-103594863D01*
X139043186Y-103594860D01*
X138830233Y-103537799D01*
X138830225Y-103537798D01*
X138610601Y-103518584D01*
X138610597Y-103518584D01*
X138390972Y-103537798D01*
X138390965Y-103537799D01*
X138178003Y-103594863D01*
X137978193Y-103688037D01*
X137913847Y-103733091D01*
X138469234Y-104288478D01*
X138465438Y-104289024D01*
X138332037Y-104349946D01*
X138221204Y-104445984D01*
X138141917Y-104569357D01*
X138119465Y-104645817D01*
X137560293Y-104086645D01*
X137515239Y-104150991D01*
X137422065Y-104350801D01*
X137365001Y-104563763D01*
X137365000Y-104563770D01*
X137345786Y-104783395D01*
X137345786Y-104783398D01*
X136120600Y-104783398D01*
X136120600Y-104710070D01*
X136079282Y-104569357D01*
X136056172Y-104533397D01*
X136870600Y-104533397D01*
X136870600Y-103975569D01*
X136870599Y-103975552D01*
X136864198Y-103916024D01*
X136864196Y-103916017D01*
X136813954Y-103781310D01*
X136813950Y-103781303D01*
X136727790Y-103666209D01*
X136727787Y-103666206D01*
X136612693Y-103580046D01*
X136612686Y-103580042D01*
X136477979Y-103529800D01*
X136477972Y-103529798D01*
X136418444Y-103523397D01*
X135860600Y-103523397D01*
X135860600Y-104336902D01*
X135755761Y-104289024D01*
X135647073Y-104273397D01*
X135574127Y-104273397D01*
X135465439Y-104289024D01*
X135360600Y-104336902D01*
X135360600Y-103523397D01*
X134802755Y-103523397D01*
X134743227Y-103529798D01*
X134743220Y-103529800D01*
X134608513Y-103580042D01*
X134608506Y-103580046D01*
X134493412Y-103666206D01*
X134493409Y-103666209D01*
X134407249Y-103781303D01*
X134407245Y-103781310D01*
X134357003Y-103916017D01*
X134357001Y-103916024D01*
X134350600Y-103975552D01*
X134350600Y-104533397D01*
X135165028Y-104533397D01*
X135141918Y-104569357D01*
X135100600Y-104710070D01*
X135100600Y-104856724D01*
X135141918Y-104997437D01*
X135165028Y-105033397D01*
X134350600Y-105033397D01*
X134350600Y-105591241D01*
X132268226Y-105591241D01*
X132266688Y-105589927D01*
X132266686Y-105589925D01*
X132266684Y-105589924D01*
X132266683Y-105589923D01*
X132044506Y-105453773D01*
X131803755Y-105354051D01*
X131550375Y-105293221D01*
X131550376Y-105293221D01*
X131290601Y-105272777D01*
X131030825Y-105293221D01*
X130777446Y-105354051D01*
X130536695Y-105453773D01*
X130314518Y-105589923D01*
X130314517Y-105589924D01*
X130116367Y-105759161D01*
X129947130Y-105957311D01*
X129947129Y-105957312D01*
X129810979Y-106179489D01*
X129711257Y-106420240D01*
X129704074Y-106450162D01*
X129669283Y-106510754D01*
X129607257Y-106542918D01*
X129537688Y-106536442D01*
X129482664Y-106493382D01*
X129459655Y-106427410D01*
X129459500Y-106421215D01*
X129459500Y-101783399D01*
X134345787Y-101783399D01*
X134365001Y-102003024D01*
X134365002Y-102003032D01*
X134422063Y-102215985D01*
X134422066Y-102215991D01*
X134515238Y-102415800D01*
X134560294Y-102480148D01*
X135119466Y-101920977D01*
X135141918Y-101997438D01*
X135221205Y-102120811D01*
X135332038Y-102216849D01*
X135465439Y-102277771D01*
X135469233Y-102278316D01*
X134913847Y-102833702D01*
X134978193Y-102878757D01*
X135178006Y-102971931D01*
X135178012Y-102971934D01*
X135390965Y-103028995D01*
X135390973Y-103028996D01*
X135610598Y-103048211D01*
X135610602Y-103048211D01*
X135830226Y-103028996D01*
X135830234Y-103028995D01*
X136043187Y-102971934D01*
X136043198Y-102971930D01*
X136243002Y-102878760D01*
X136243010Y-102878756D01*
X136307351Y-102833703D01*
X136307351Y-102833702D01*
X135751966Y-102278316D01*
X135755761Y-102277771D01*
X135889162Y-102216849D01*
X135999995Y-102120811D01*
X136079282Y-101997438D01*
X136101733Y-101920976D01*
X136660905Y-102480149D01*
X136705958Y-102415808D01*
X136705962Y-102415800D01*
X136799132Y-102215996D01*
X136799136Y-102215985D01*
X136856197Y-102003032D01*
X136856198Y-102003024D01*
X136875413Y-101783399D01*
X137345786Y-101783399D01*
X137365000Y-102003024D01*
X137365001Y-102003032D01*
X137422062Y-102215985D01*
X137422065Y-102215991D01*
X137515237Y-102415800D01*
X137560293Y-102480148D01*
X138119465Y-101920977D01*
X138141917Y-101997438D01*
X138221204Y-102120811D01*
X138332037Y-102216849D01*
X138465438Y-102277771D01*
X138469232Y-102278316D01*
X137913846Y-102833702D01*
X137978192Y-102878757D01*
X138178005Y-102971931D01*
X138178011Y-102971934D01*
X138390964Y-103028995D01*
X138390972Y-103028996D01*
X138610597Y-103048211D01*
X138610601Y-103048211D01*
X138830225Y-103028996D01*
X138830233Y-103028995D01*
X139043186Y-102971934D01*
X139043197Y-102971930D01*
X139243001Y-102878760D01*
X139243009Y-102878756D01*
X139307350Y-102833703D01*
X139307350Y-102833702D01*
X138751965Y-102278316D01*
X138755760Y-102277771D01*
X138889161Y-102216849D01*
X138999994Y-102120811D01*
X139079281Y-101997438D01*
X139101732Y-101920977D01*
X139660904Y-102480149D01*
X139705957Y-102415808D01*
X139705961Y-102415800D01*
X139799131Y-102215996D01*
X139799135Y-102215985D01*
X139856196Y-102003032D01*
X139856197Y-102003024D01*
X139875412Y-101783399D01*
X139875412Y-101783396D01*
X139856197Y-101563771D01*
X139856196Y-101563764D01*
X139799132Y-101350802D01*
X139705959Y-101150993D01*
X139705958Y-101150991D01*
X139660903Y-101086646D01*
X139660902Y-101086645D01*
X139101731Y-101645816D01*
X139079281Y-101569358D01*
X138999994Y-101445985D01*
X138889161Y-101349947D01*
X138755760Y-101289025D01*
X138751964Y-101288479D01*
X139307350Y-100733092D01*
X139243001Y-100688036D01*
X139043192Y-100594864D01*
X139043186Y-100594861D01*
X138830233Y-100537800D01*
X138830225Y-100537799D01*
X138610601Y-100518585D01*
X138610597Y-100518585D01*
X138390972Y-100537799D01*
X138390965Y-100537800D01*
X138178003Y-100594864D01*
X137978193Y-100688038D01*
X137913847Y-100733092D01*
X138469234Y-101288479D01*
X138465438Y-101289025D01*
X138332037Y-101349947D01*
X138221204Y-101445985D01*
X138141917Y-101569358D01*
X138119465Y-101645818D01*
X137560293Y-101086646D01*
X137515239Y-101150992D01*
X137422065Y-101350802D01*
X137365001Y-101563764D01*
X137365000Y-101563771D01*
X137345786Y-101783396D01*
X137345786Y-101783399D01*
X136875413Y-101783399D01*
X136875413Y-101783396D01*
X136856198Y-101563771D01*
X136856197Y-101563764D01*
X136799133Y-101350802D01*
X136705960Y-101150993D01*
X136705959Y-101150991D01*
X136660904Y-101086646D01*
X136660903Y-101086645D01*
X136101732Y-101645816D01*
X136079282Y-101569358D01*
X135999995Y-101445985D01*
X135889162Y-101349947D01*
X135755761Y-101289025D01*
X135751965Y-101288479D01*
X136307351Y-100733092D01*
X136243002Y-100688036D01*
X136043193Y-100594864D01*
X136043187Y-100594861D01*
X135830234Y-100537800D01*
X135830226Y-100537799D01*
X135610602Y-100518585D01*
X135610598Y-100518585D01*
X135390973Y-100537799D01*
X135390966Y-100537800D01*
X135178004Y-100594864D01*
X134978194Y-100688038D01*
X134913848Y-100733092D01*
X135469235Y-101288479D01*
X135465439Y-101289025D01*
X135332038Y-101349947D01*
X135221205Y-101445985D01*
X135141918Y-101569358D01*
X135119466Y-101645818D01*
X134560294Y-101086646D01*
X134515240Y-101150992D01*
X134422066Y-101350802D01*
X134365002Y-101563764D01*
X134365001Y-101563771D01*
X134345787Y-101783396D01*
X134345787Y-101783399D01*
X129459500Y-101783399D01*
X129459500Y-98783399D01*
X134645453Y-98783399D01*
X134663997Y-98971688D01*
X134682244Y-99031840D01*
X134718920Y-99152745D01*
X134805597Y-99314905D01*
X134808112Y-99319609D01*
X134928137Y-99465861D01*
X135074389Y-99585886D01*
X135074393Y-99585889D01*
X135241254Y-99675079D01*
X135422309Y-99730001D01*
X135610600Y-99748546D01*
X135798891Y-99730001D01*
X135979946Y-99675079D01*
X136146807Y-99585889D01*
X136293062Y-99465861D01*
X136413090Y-99319606D01*
X136502280Y-99152745D01*
X136557202Y-98971690D01*
X136575747Y-98783399D01*
X137645452Y-98783399D01*
X137663996Y-98971688D01*
X137682243Y-99031840D01*
X137718919Y-99152745D01*
X137805596Y-99314905D01*
X137808111Y-99319609D01*
X137928136Y-99465861D01*
X138074388Y-99585886D01*
X138074392Y-99585889D01*
X138241253Y-99675079D01*
X138422308Y-99730001D01*
X138610599Y-99748546D01*
X138798890Y-99730001D01*
X138979945Y-99675079D01*
X139146806Y-99585889D01*
X139293061Y-99465861D01*
X139413089Y-99319606D01*
X139502279Y-99152745D01*
X139557201Y-98971690D01*
X139575746Y-98783399D01*
X139557201Y-98595108D01*
X139502279Y-98414053D01*
X139413089Y-98247192D01*
X139411487Y-98245240D01*
X139293061Y-98100936D01*
X139146809Y-97980911D01*
X139146807Y-97980910D01*
X139146806Y-97980909D01*
X138979945Y-97891719D01*
X138889417Y-97864258D01*
X138798888Y-97836796D01*
X138610599Y-97818252D01*
X138422309Y-97836796D01*
X138241250Y-97891720D01*
X138074388Y-97980911D01*
X137928136Y-98100936D01*
X137808111Y-98247188D01*
X137718920Y-98414050D01*
X137663996Y-98595109D01*
X137645452Y-98783399D01*
X136575747Y-98783399D01*
X136557202Y-98595108D01*
X136502280Y-98414053D01*
X136413090Y-98247192D01*
X136411488Y-98245240D01*
X136293062Y-98100936D01*
X136146810Y-97980911D01*
X136146808Y-97980910D01*
X136146807Y-97980909D01*
X135979946Y-97891719D01*
X135889418Y-97864258D01*
X135798889Y-97836796D01*
X135610600Y-97818252D01*
X135422310Y-97836796D01*
X135241251Y-97891720D01*
X135074389Y-97980911D01*
X134928137Y-98100936D01*
X134808112Y-98247188D01*
X134718921Y-98414050D01*
X134663997Y-98595109D01*
X134645453Y-98783399D01*
X129459500Y-98783399D01*
X129459500Y-95783399D01*
X134645453Y-95783399D01*
X134663997Y-95971689D01*
X134677787Y-96017149D01*
X134718920Y-96152746D01*
X134795364Y-96295762D01*
X134808112Y-96319610D01*
X134928137Y-96465862D01*
X135074389Y-96585887D01*
X135074393Y-96585890D01*
X135241254Y-96675080D01*
X135422309Y-96730002D01*
X135610600Y-96748547D01*
X135798891Y-96730002D01*
X135979946Y-96675080D01*
X136146807Y-96585890D01*
X136293062Y-96465862D01*
X136413090Y-96319607D01*
X136502280Y-96152746D01*
X136557202Y-95971691D01*
X136575747Y-95783400D01*
X136575747Y-95783399D01*
X137645452Y-95783399D01*
X137663996Y-95971689D01*
X137677786Y-96017149D01*
X137718919Y-96152746D01*
X137795363Y-96295762D01*
X137808111Y-96319610D01*
X137928136Y-96465862D01*
X138074388Y-96585887D01*
X138074392Y-96585890D01*
X138241253Y-96675080D01*
X138422308Y-96730002D01*
X138610599Y-96748547D01*
X138798890Y-96730002D01*
X138979945Y-96675080D01*
X139146806Y-96585890D01*
X139293061Y-96465862D01*
X139413089Y-96319607D01*
X139502279Y-96152746D01*
X139557201Y-95971691D01*
X139575746Y-95783400D01*
X139557201Y-95595109D01*
X139502279Y-95414054D01*
X139413089Y-95247193D01*
X139413086Y-95247189D01*
X139293061Y-95100937D01*
X139146809Y-94980912D01*
X139146807Y-94980911D01*
X139146806Y-94980910D01*
X138983264Y-94893494D01*
X138979947Y-94891721D01*
X138979946Y-94891720D01*
X138979945Y-94891720D01*
X138876462Y-94860329D01*
X138798888Y-94836797D01*
X138631168Y-94820278D01*
X138610599Y-94818253D01*
X138610598Y-94818253D01*
X138422309Y-94836797D01*
X138241250Y-94891721D01*
X138074388Y-94980912D01*
X137928136Y-95100937D01*
X137808111Y-95247189D01*
X137718920Y-95414051D01*
X137663996Y-95595110D01*
X137645452Y-95783399D01*
X136575747Y-95783399D01*
X136557202Y-95595109D01*
X136502280Y-95414054D01*
X136413090Y-95247193D01*
X136413087Y-95247189D01*
X136293062Y-95100937D01*
X136146810Y-94980912D01*
X136146808Y-94980911D01*
X136146807Y-94980910D01*
X135983265Y-94893494D01*
X135979948Y-94891721D01*
X135979947Y-94891720D01*
X135979946Y-94891720D01*
X135876463Y-94860329D01*
X135798889Y-94836797D01*
X135610600Y-94818253D01*
X135422310Y-94836797D01*
X135241251Y-94891721D01*
X135074389Y-94980912D01*
X134928137Y-95100937D01*
X134808112Y-95247189D01*
X134718921Y-95414051D01*
X134663997Y-95595110D01*
X134645453Y-95783399D01*
X129459500Y-95783399D01*
X129459500Y-94145581D01*
X129479185Y-94078542D01*
X129531989Y-94032787D01*
X129601147Y-94022843D01*
X129664703Y-94051868D01*
X129702477Y-94110646D01*
X129704074Y-94116635D01*
X129711256Y-94146554D01*
X129810979Y-94387307D01*
X129947129Y-94609484D01*
X129947130Y-94609485D01*
X129947131Y-94609487D01*
X129947133Y-94609489D01*
X130116367Y-94807636D01*
X130314514Y-94976870D01*
X130314516Y-94976871D01*
X130314517Y-94976872D01*
X130314518Y-94976873D01*
X130536695Y-95113023D01*
X130629799Y-95151588D01*
X130777442Y-95212744D01*
X131030823Y-95273575D01*
X131290601Y-95294020D01*
X131550379Y-95273575D01*
X131803760Y-95212744D01*
X132044506Y-95113023D01*
X132266688Y-94976870D01*
X132464835Y-94807636D01*
X132634069Y-94609489D01*
X132770222Y-94387307D01*
X132869943Y-94146561D01*
X132930774Y-93893180D01*
X132951219Y-93633402D01*
X132930774Y-93373624D01*
X132869943Y-93120243D01*
X132795400Y-92940281D01*
X132770222Y-92879496D01*
X132634072Y-92657319D01*
X132634071Y-92657318D01*
X132634070Y-92657317D01*
X132634069Y-92657315D01*
X132464835Y-92459168D01*
X132266688Y-92289934D01*
X132266686Y-92289932D01*
X132266684Y-92289931D01*
X132266683Y-92289930D01*
X132044506Y-92153780D01*
X131803755Y-92054058D01*
X131550375Y-91993228D01*
X131550376Y-91993228D01*
X131290601Y-91972784D01*
X131030825Y-91993228D01*
X130777446Y-92054058D01*
X130536695Y-92153780D01*
X130314518Y-92289930D01*
X130314517Y-92289931D01*
X130116367Y-92459168D01*
X129947130Y-92657318D01*
X129947129Y-92657319D01*
X129810979Y-92879496D01*
X129711257Y-93120247D01*
X129704074Y-93150169D01*
X129669283Y-93210761D01*
X129607257Y-93242925D01*
X129537688Y-93236449D01*
X129482664Y-93193389D01*
X129459655Y-93127417D01*
X129459500Y-93121222D01*
X129459500Y-86211787D01*
X131194700Y-86211787D01*
X131209036Y-86306894D01*
X131233804Y-86471215D01*
X131233805Y-86471217D01*
X131233806Y-86471223D01*
X131311138Y-86721926D01*
X131424967Y-86958296D01*
X131424968Y-86958297D01*
X131424970Y-86958300D01*
X131424972Y-86958304D01*
X131550684Y-87142689D01*
X131572767Y-87175079D01*
X131751214Y-87367401D01*
X131751218Y-87367404D01*
X131751219Y-87367405D01*
X131956343Y-87530986D01*
X132183557Y-87662168D01*
X132427784Y-87758020D01*
X132683570Y-87816402D01*
X132683576Y-87816402D01*
X132683579Y-87816403D01*
X132879684Y-87831099D01*
X132879703Y-87831099D01*
X132879706Y-87831100D01*
X132879708Y-87831100D01*
X133010692Y-87831100D01*
X133010694Y-87831100D01*
X133010696Y-87831099D01*
X133010715Y-87831099D01*
X133206820Y-87816403D01*
X133206822Y-87816402D01*
X133206830Y-87816402D01*
X133462616Y-87758020D01*
X133706843Y-87662168D01*
X133934057Y-87530986D01*
X134139181Y-87367405D01*
X134317633Y-87175079D01*
X134465428Y-86958304D01*
X134579263Y-86721923D01*
X134656596Y-86471215D01*
X134695700Y-86211782D01*
X134695700Y-85949418D01*
X134677791Y-85830600D01*
X137895200Y-85830600D01*
X139378233Y-85830600D01*
X139345200Y-85986006D01*
X139345200Y-86175194D01*
X139378233Y-86330600D01*
X137895201Y-86330600D01*
X137895201Y-87730584D01*
X137905694Y-87833295D01*
X137960841Y-87999717D01*
X137960843Y-87999722D01*
X138052884Y-88148944D01*
X138176855Y-88272915D01*
X138326077Y-88364956D01*
X138326082Y-88364958D01*
X138492504Y-88420105D01*
X138492511Y-88420106D01*
X138595221Y-88430599D01*
X139995199Y-88430599D01*
X139995200Y-88430598D01*
X139995200Y-86945685D01*
X140057049Y-86965782D01*
X140198036Y-86980600D01*
X140292364Y-86980600D01*
X140433351Y-86965782D01*
X140495200Y-86945685D01*
X140495200Y-88430599D01*
X141895170Y-88430599D01*
X141895184Y-88430598D01*
X141997895Y-88420105D01*
X142164317Y-88364958D01*
X142164322Y-88364956D01*
X142313544Y-88272915D01*
X142437515Y-88148944D01*
X142529556Y-87999722D01*
X142529558Y-87999717D01*
X142584705Y-87833295D01*
X142584706Y-87833288D01*
X142595199Y-87730584D01*
X142595200Y-87730571D01*
X142595200Y-86330600D01*
X141112167Y-86330600D01*
X141145200Y-86175194D01*
X141145200Y-86080600D01*
X143689909Y-86080600D01*
X143709051Y-86360462D01*
X143709052Y-86360464D01*
X143766121Y-86635099D01*
X143766126Y-86635116D01*
X143850306Y-86871974D01*
X143860064Y-86899430D01*
X143989119Y-87148496D01*
X144150888Y-87377669D01*
X144150892Y-87377673D01*
X144150892Y-87377674D01*
X144294075Y-87530986D01*
X144342355Y-87582681D01*
X144559954Y-87759711D01*
X144559956Y-87759712D01*
X144559957Y-87759713D01*
X144799633Y-87905463D01*
X144949590Y-87970598D01*
X145056925Y-88017220D01*
X145327039Y-88092903D01*
X145571359Y-88126484D01*
X145604941Y-88131100D01*
X145604942Y-88131100D01*
X145885459Y-88131100D01*
X145915419Y-88126981D01*
X146163361Y-88092903D01*
X146433475Y-88017220D01*
X146690768Y-87905462D01*
X146930446Y-87759711D01*
X147148045Y-87582681D01*
X147339512Y-87377669D01*
X147501281Y-87148496D01*
X147630336Y-86899430D01*
X147724275Y-86635111D01*
X147724276Y-86635104D01*
X147724278Y-86635099D01*
X147769203Y-86418905D01*
X147781348Y-86360462D01*
X147800491Y-86080600D01*
X147781348Y-85800738D01*
X147745478Y-85628121D01*
X147724278Y-85526100D01*
X147724273Y-85526083D01*
X147670966Y-85376092D01*
X147630336Y-85261770D01*
X147501281Y-85012704D01*
X147339512Y-84783531D01*
X147339507Y-84783525D01*
X147148045Y-84578519D01*
X146966265Y-84430630D01*
X146930446Y-84401489D01*
X146930444Y-84401488D01*
X146930442Y-84401486D01*
X146690766Y-84255736D01*
X146433476Y-84143980D01*
X146163366Y-84068298D01*
X146163362Y-84068297D01*
X146163361Y-84068297D01*
X146024409Y-84049198D01*
X145885459Y-84030100D01*
X145885458Y-84030100D01*
X145604942Y-84030100D01*
X145604941Y-84030100D01*
X145327039Y-84068297D01*
X145327033Y-84068298D01*
X145056923Y-84143980D01*
X144799633Y-84255736D01*
X144559957Y-84401486D01*
X144342354Y-84578519D01*
X144150892Y-84783525D01*
X144150892Y-84783526D01*
X144150889Y-84783528D01*
X144150888Y-84783531D01*
X144120681Y-84826324D01*
X143989119Y-85012703D01*
X143860063Y-85261771D01*
X143766126Y-85526083D01*
X143766121Y-85526100D01*
X143709052Y-85800735D01*
X143709051Y-85800737D01*
X143689909Y-86080600D01*
X141145200Y-86080600D01*
X141145200Y-85986006D01*
X141112167Y-85830600D01*
X142595199Y-85830600D01*
X142595199Y-84430630D01*
X142595198Y-84430615D01*
X142584705Y-84327904D01*
X142529558Y-84161482D01*
X142529556Y-84161477D01*
X142437515Y-84012255D01*
X142313544Y-83888284D01*
X142164322Y-83796243D01*
X142164317Y-83796241D01*
X141997895Y-83741094D01*
X141997888Y-83741093D01*
X141895184Y-83730600D01*
X140495200Y-83730600D01*
X140495200Y-85215514D01*
X140433351Y-85195418D01*
X140292364Y-85180600D01*
X140198036Y-85180600D01*
X140057049Y-85195418D01*
X139995200Y-85215514D01*
X139995200Y-83730600D01*
X138595230Y-83730600D01*
X138595214Y-83730601D01*
X138492504Y-83741094D01*
X138326082Y-83796241D01*
X138326077Y-83796243D01*
X138176855Y-83888284D01*
X138052884Y-84012255D01*
X137960843Y-84161477D01*
X137960841Y-84161482D01*
X137905694Y-84327904D01*
X137905693Y-84327911D01*
X137895200Y-84430615D01*
X137895200Y-85830600D01*
X134677791Y-85830600D01*
X134656596Y-85689985D01*
X134579263Y-85439277D01*
X134493781Y-85261771D01*
X134465432Y-85202903D01*
X134465431Y-85202902D01*
X134465430Y-85202901D01*
X134465428Y-85202896D01*
X134317633Y-84986121D01*
X134204165Y-84863831D01*
X134139185Y-84793798D01*
X134092791Y-84756800D01*
X133934057Y-84630214D01*
X133706843Y-84499032D01*
X133462616Y-84403180D01*
X133462611Y-84403178D01*
X133462602Y-84403176D01*
X133245018Y-84353514D01*
X133206830Y-84344798D01*
X133206829Y-84344797D01*
X133206825Y-84344797D01*
X133206820Y-84344796D01*
X133010715Y-84330100D01*
X133010694Y-84330100D01*
X132879706Y-84330100D01*
X132879684Y-84330100D01*
X132683579Y-84344796D01*
X132683574Y-84344797D01*
X132427797Y-84403176D01*
X132427778Y-84403182D01*
X132183556Y-84499032D01*
X131956343Y-84630214D01*
X131751214Y-84793798D01*
X131572767Y-84986120D01*
X131424968Y-85202902D01*
X131424967Y-85202903D01*
X131311138Y-85439273D01*
X131233806Y-85689976D01*
X131233805Y-85689981D01*
X131233804Y-85689985D01*
X131231771Y-85703475D01*
X131194700Y-85949412D01*
X131194700Y-86211787D01*
X129459500Y-86211787D01*
X129459500Y-85239952D01*
X129459559Y-85237248D01*
X129460716Y-85210755D01*
X129477265Y-84831692D01*
X129477734Y-84826343D01*
X129530543Y-84425214D01*
X129531481Y-84419902D01*
X129619047Y-84024919D01*
X129620441Y-84019712D01*
X129742104Y-83633847D01*
X129743951Y-83628774D01*
X129898782Y-83254978D01*
X129901045Y-83250126D01*
X130087870Y-82891239D01*
X130090566Y-82886571D01*
X130307942Y-82545358D01*
X130311035Y-82540940D01*
X130557339Y-82219949D01*
X130560798Y-82215828D01*
X130834133Y-81917536D01*
X130837936Y-81913733D01*
X131136228Y-81640398D01*
X131140349Y-81636939D01*
X131461340Y-81390635D01*
X131465750Y-81387547D01*
X131806971Y-81170166D01*
X131811639Y-81167470D01*
X132170526Y-80980645D01*
X132175378Y-80978382D01*
X132549181Y-80823548D01*
X132554247Y-80821704D01*
X132940112Y-80700041D01*
X132945319Y-80698647D01*
X133340302Y-80611081D01*
X133345614Y-80610143D01*
X133746743Y-80557334D01*
X133752092Y-80556865D01*
X134157648Y-80539159D01*
X134160353Y-80539100D01*
X134206595Y-80539100D01*
X152940785Y-80539100D01*
X152962730Y-80542160D01*
X152969578Y-80542795D01*
X152970824Y-80543289D01*
X152972459Y-80543517D01*
X152974261Y-80543512D01*
X152974264Y-80543512D01*
X153009599Y-80543399D01*
X153009600Y-80543400D01*
X160866763Y-80518377D01*
X160911945Y-80526748D01*
G37*
%TD.AperFunction*%
%TA.AperFunction,Conductor*%
G36*
X164695727Y-95661958D02*
G01*
X164713082Y-95673111D01*
X164762092Y-95710718D01*
X164812157Y-95749135D01*
X164812158Y-95749135D01*
X164812159Y-95749136D01*
X164958238Y-95809644D01*
X165015313Y-95817158D01*
X165114999Y-95830282D01*
X165115000Y-95830282D01*
X165115001Y-95830282D01*
X165167254Y-95823402D01*
X165271762Y-95809644D01*
X165417841Y-95749136D01*
X165484014Y-95698359D01*
X165549182Y-95673165D01*
X165617627Y-95687203D01*
X165634982Y-95698357D01*
X165651092Y-95710718D01*
X165701157Y-95749135D01*
X165701158Y-95749135D01*
X165701159Y-95749136D01*
X165847238Y-95809644D01*
X165904313Y-95817158D01*
X166003999Y-95830282D01*
X166004000Y-95830282D01*
X166004001Y-95830282D01*
X166056253Y-95823402D01*
X166160762Y-95809644D01*
X166306841Y-95749136D01*
X166373014Y-95698359D01*
X166438182Y-95673165D01*
X166506627Y-95687203D01*
X166523982Y-95698357D01*
X166540092Y-95710718D01*
X166590157Y-95749135D01*
X166590158Y-95749135D01*
X166590159Y-95749136D01*
X166736238Y-95809644D01*
X166793313Y-95817158D01*
X166892999Y-95830282D01*
X166893000Y-95830282D01*
X166893001Y-95830282D01*
X166945254Y-95823402D01*
X167049762Y-95809644D01*
X167195841Y-95749136D01*
X167262016Y-95698357D01*
X167327180Y-95673165D01*
X167395625Y-95687202D01*
X167412979Y-95698354D01*
X167479159Y-95749136D01*
X167625238Y-95809644D01*
X167682313Y-95817158D01*
X167781999Y-95830282D01*
X167790127Y-95830282D01*
X167790127Y-95832352D01*
X167848233Y-95841406D01*
X167900496Y-95887778D01*
X167919399Y-95953586D01*
X167919400Y-96621600D01*
X168159496Y-96623333D01*
X168226391Y-96643501D01*
X168271763Y-96696634D01*
X168282600Y-96747330D01*
X168282600Y-101306483D01*
X168262915Y-101373522D01*
X168246281Y-101394164D01*
X166561751Y-103078693D01*
X166557762Y-103082349D01*
X166526550Y-103108539D01*
X166526548Y-103108541D01*
X166506176Y-103143826D01*
X166503271Y-103148387D01*
X166479904Y-103181759D01*
X166477773Y-103186328D01*
X166470525Y-103203828D01*
X166468802Y-103208564D01*
X166461727Y-103248683D01*
X166460556Y-103253962D01*
X166450012Y-103293316D01*
X166453564Y-103333898D01*
X166453800Y-103339305D01*
X166453800Y-116550715D01*
X166434115Y-116617754D01*
X166381311Y-116663509D01*
X166312153Y-116673453D01*
X166282348Y-116665276D01*
X166211565Y-116635957D01*
X166211560Y-116635955D01*
X166054801Y-116615318D01*
X166054799Y-116615318D01*
X165898039Y-116635955D01*
X165898037Y-116635956D01*
X165751958Y-116696464D01*
X165698484Y-116737495D01*
X165633314Y-116762688D01*
X165564869Y-116748649D01*
X165547513Y-116737494D01*
X165494042Y-116696464D01*
X165347962Y-116635956D01*
X165347960Y-116635955D01*
X165191201Y-116615318D01*
X165191199Y-116615318D01*
X165034439Y-116635955D01*
X165034437Y-116635956D01*
X164888358Y-116696464D01*
X164834884Y-116737495D01*
X164769714Y-116762688D01*
X164701269Y-116748649D01*
X164683913Y-116737494D01*
X164630442Y-116696464D01*
X164484362Y-116635956D01*
X164484360Y-116635955D01*
X164327601Y-116615318D01*
X164327599Y-116615318D01*
X164170839Y-116635955D01*
X164170837Y-116635956D01*
X164024758Y-116696464D01*
X163983985Y-116727750D01*
X163918816Y-116752943D01*
X163850371Y-116738904D01*
X163833015Y-116727750D01*
X163792241Y-116696464D01*
X163646162Y-116635956D01*
X163646160Y-116635955D01*
X163489401Y-116615318D01*
X163489399Y-116615318D01*
X163332639Y-116635955D01*
X163332637Y-116635956D01*
X163186558Y-116696464D01*
X163133084Y-116737495D01*
X163067914Y-116762688D01*
X162999469Y-116748649D01*
X162982113Y-116737494D01*
X162928642Y-116696464D01*
X162782562Y-116635956D01*
X162782560Y-116635955D01*
X162625801Y-116615318D01*
X162625799Y-116615318D01*
X162469039Y-116635955D01*
X162469037Y-116635956D01*
X162322958Y-116696464D01*
X162261984Y-116743250D01*
X162196814Y-116768443D01*
X162128370Y-116754404D01*
X162111013Y-116743249D01*
X162050042Y-116696464D01*
X161903962Y-116635956D01*
X161903960Y-116635955D01*
X161747201Y-116615318D01*
X161747199Y-116615318D01*
X161590439Y-116635955D01*
X161590437Y-116635956D01*
X161444360Y-116696463D01*
X161318918Y-116792718D01*
X161222663Y-116918160D01*
X161162156Y-117064237D01*
X161162155Y-117064239D01*
X161141518Y-117220998D01*
X161141518Y-117221001D01*
X161151722Y-117298509D01*
X161140956Y-117367544D01*
X161094576Y-117419800D01*
X161027307Y-117438685D01*
X160960507Y-117418204D01*
X160941102Y-117402375D01*
X159956269Y-116417542D01*
X159922784Y-116356219D01*
X159919950Y-116329861D01*
X159919950Y-115293707D01*
X159939635Y-115226668D01*
X159992439Y-115180913D01*
X160043403Y-115169709D01*
X161442400Y-115163600D01*
X161418063Y-112194530D01*
X161437198Y-112127334D01*
X161489625Y-112081148D01*
X161546645Y-112069601D01*
X162102800Y-112090200D01*
X162059241Y-102539800D01*
X157685827Y-102539800D01*
X157618788Y-102520115D01*
X157573033Y-102467311D01*
X157562888Y-102431986D01*
X157560757Y-102415800D01*
X157556444Y-102383038D01*
X157495936Y-102236959D01*
X157495935Y-102236958D01*
X157495935Y-102236957D01*
X157466164Y-102198160D01*
X157435414Y-102158085D01*
X157410220Y-102092918D01*
X157424258Y-102024473D01*
X157435412Y-102007117D01*
X157495936Y-101928241D01*
X157556444Y-101782162D01*
X157577082Y-101625400D01*
X157568968Y-101563771D01*
X157556444Y-101468639D01*
X157556444Y-101468638D01*
X157495936Y-101322559D01*
X157495935Y-101322558D01*
X157495935Y-101322557D01*
X157454905Y-101269086D01*
X157429711Y-101203917D01*
X157443749Y-101135472D01*
X157454905Y-101118114D01*
X157488812Y-101073925D01*
X157495936Y-101064641D01*
X157556444Y-100918562D01*
X157577082Y-100761800D01*
X157556444Y-100605038D01*
X157495936Y-100458959D01*
X157495935Y-100458958D01*
X157495935Y-100458957D01*
X157464950Y-100418577D01*
X157439755Y-100353408D01*
X157453793Y-100284963D01*
X157464947Y-100267607D01*
X157496536Y-100226441D01*
X157557044Y-100080362D01*
X157577682Y-99923600D01*
X157557044Y-99766838D01*
X157496536Y-99620759D01*
X157496533Y-99620755D01*
X157496314Y-99620375D01*
X157496225Y-99620008D01*
X157493426Y-99613251D01*
X157494479Y-99612814D01*
X157479840Y-99552475D01*
X157502691Y-99486448D01*
X157557612Y-99443256D01*
X157619884Y-99435434D01*
X157632400Y-99437082D01*
X157789162Y-99416444D01*
X157935241Y-99355936D01*
X157981581Y-99320378D01*
X157988714Y-99314905D01*
X158053883Y-99289711D01*
X158122328Y-99303749D01*
X158139686Y-99314905D01*
X158193157Y-99355935D01*
X158193158Y-99355935D01*
X158193159Y-99355936D01*
X158339238Y-99416444D01*
X158365816Y-99419943D01*
X158495999Y-99437082D01*
X158496000Y-99437082D01*
X158496001Y-99437082D01*
X158558301Y-99428880D01*
X158652762Y-99416444D01*
X158798841Y-99355936D01*
X158890414Y-99285669D01*
X158955582Y-99260475D01*
X159024027Y-99274513D01*
X159041382Y-99285667D01*
X159079486Y-99314905D01*
X159132957Y-99355935D01*
X159132958Y-99355935D01*
X159132959Y-99355936D01*
X159279038Y-99416444D01*
X159305616Y-99419943D01*
X159435799Y-99437082D01*
X159435800Y-99437082D01*
X159435801Y-99437082D01*
X159498101Y-99428880D01*
X159592562Y-99416444D01*
X159738641Y-99355936D01*
X159842914Y-99275924D01*
X159908082Y-99250730D01*
X159976527Y-99264768D01*
X159993882Y-99275922D01*
X160044293Y-99314603D01*
X160098157Y-99355935D01*
X160098158Y-99355935D01*
X160098159Y-99355936D01*
X160244238Y-99416444D01*
X160270816Y-99419943D01*
X160400999Y-99437082D01*
X160401000Y-99437082D01*
X160401001Y-99437082D01*
X160463301Y-99428880D01*
X160557762Y-99416444D01*
X160703841Y-99355936D01*
X160795414Y-99285669D01*
X160860582Y-99260475D01*
X160929027Y-99274513D01*
X160946382Y-99285667D01*
X160984486Y-99314905D01*
X161037957Y-99355935D01*
X161037958Y-99355935D01*
X161037959Y-99355936D01*
X161184038Y-99416444D01*
X161210616Y-99419943D01*
X161340799Y-99437082D01*
X161340800Y-99437082D01*
X161340801Y-99437082D01*
X161403101Y-99428880D01*
X161497562Y-99416444D01*
X161643641Y-99355936D01*
X161722514Y-99295414D01*
X161787682Y-99270220D01*
X161856127Y-99284258D01*
X161873482Y-99295412D01*
X161898886Y-99314905D01*
X161952357Y-99355935D01*
X161952358Y-99355935D01*
X161952359Y-99355936D01*
X162098438Y-99416444D01*
X162125016Y-99419943D01*
X162255199Y-99437082D01*
X162255200Y-99437082D01*
X162255201Y-99437082D01*
X162317501Y-99428880D01*
X162411962Y-99416444D01*
X162558041Y-99355936D01*
X162683482Y-99259682D01*
X162779736Y-99134241D01*
X162840244Y-98988162D01*
X162860882Y-98831400D01*
X162854562Y-98783398D01*
X162840244Y-98674639D01*
X162840244Y-98674638D01*
X162779736Y-98528559D01*
X162728958Y-98462383D01*
X162703765Y-98397216D01*
X162717803Y-98328772D01*
X162728949Y-98311427D01*
X162779736Y-98245241D01*
X162840244Y-98099162D01*
X162860882Y-97942400D01*
X162840244Y-97785638D01*
X162779736Y-97639559D01*
X162779735Y-97639558D01*
X162779735Y-97639557D01*
X162725099Y-97568355D01*
X162719214Y-97560685D01*
X162694020Y-97495518D01*
X162708058Y-97427073D01*
X162719212Y-97409717D01*
X162779736Y-97330841D01*
X162840244Y-97184762D01*
X162860882Y-97028000D01*
X162840244Y-96871238D01*
X162779736Y-96725159D01*
X162779735Y-96725158D01*
X162779735Y-96725157D01*
X162741309Y-96675080D01*
X162728959Y-96658985D01*
X162703765Y-96593818D01*
X162717803Y-96525373D01*
X162728957Y-96508017D01*
X162779736Y-96441841D01*
X162840244Y-96295762D01*
X162860882Y-96139000D01*
X162840244Y-95982238D01*
X162816979Y-95926072D01*
X162809511Y-95856607D01*
X162840785Y-95794128D01*
X162900874Y-95758475D01*
X162970699Y-95760968D01*
X162978988Y-95764060D01*
X163089038Y-95809644D01*
X163146113Y-95817158D01*
X163245799Y-95830282D01*
X163245800Y-95830282D01*
X163245801Y-95830282D01*
X163298053Y-95823402D01*
X163402562Y-95809644D01*
X163548641Y-95749136D01*
X163627514Y-95688614D01*
X163692682Y-95663420D01*
X163761127Y-95677458D01*
X163778482Y-95688612D01*
X163807292Y-95710718D01*
X163857357Y-95749135D01*
X163857358Y-95749135D01*
X163857359Y-95749136D01*
X164003438Y-95809644D01*
X164060513Y-95817158D01*
X164160199Y-95830282D01*
X164160200Y-95830282D01*
X164160201Y-95830282D01*
X164212454Y-95823402D01*
X164316962Y-95809644D01*
X164463041Y-95749136D01*
X164562114Y-95673114D01*
X164627282Y-95647920D01*
X164695727Y-95661958D01*
G37*
%TD.AperFunction*%
%TA.AperFunction,Conductor*%
G36*
X169668497Y-96634228D02*
G01*
X169735391Y-96654396D01*
X169780763Y-96707529D01*
X169791600Y-96758225D01*
X169791600Y-100832719D01*
X169771915Y-100899758D01*
X169755281Y-100920400D01*
X169649633Y-101026047D01*
X169614451Y-101061230D01*
X169589853Y-101080303D01*
X169124683Y-101355177D01*
X169056952Y-101372335D01*
X168990698Y-101350151D01*
X168946954Y-101295670D01*
X168937600Y-101248422D01*
X168937600Y-96753849D01*
X168957285Y-96686810D01*
X169010089Y-96641055D01*
X169062488Y-96629853D01*
X169668497Y-96634228D01*
G37*
%TD.AperFunction*%
%TD*%
%TA.AperFunction,Conductor*%
%TO.N,/SCL*%
G36*
X162523295Y-120328066D02*
G01*
X162577241Y-120352591D01*
X162579508Y-120353951D01*
X162688959Y-120437936D01*
X162688963Y-120437937D01*
X162688967Y-120437940D01*
X162816373Y-120490712D01*
X162835038Y-120498444D01*
X162922037Y-120509897D01*
X162925335Y-120510841D01*
X163134601Y-120605978D01*
X163140714Y-120612522D01*
X163140579Y-120621081D01*
X162994363Y-120976395D01*
X162988045Y-120982742D01*
X162987995Y-120982763D01*
X162632681Y-121128979D01*
X162623727Y-121128958D01*
X162617578Y-121123001D01*
X162553823Y-120982763D01*
X162339666Y-120511696D01*
X162339363Y-120502749D01*
X162342043Y-120498585D01*
X162510184Y-120330444D01*
X162518456Y-120327018D01*
X162523295Y-120328066D01*
G37*
%TD.AperFunction*%
%TD*%
%TA.AperFunction,Conductor*%
%TO.N,/SCL*%
G36*
X154859289Y-92764423D02*
G01*
X155214595Y-92910636D01*
X155220942Y-92916954D01*
X155220963Y-92917004D01*
X155367183Y-93272327D01*
X155367162Y-93281281D01*
X155361215Y-93287426D01*
X154750501Y-93565723D01*
X154741551Y-93566035D01*
X154737376Y-93563349D01*
X154569238Y-93395211D01*
X154565811Y-93386938D01*
X154566854Y-93382109D01*
X154844184Y-92770412D01*
X154850721Y-92764293D01*
X154859289Y-92764423D01*
G37*
%TD.AperFunction*%
%TD*%
%TA.AperFunction,Conductor*%
%TO.N,Net-(C9-Pad2)*%
G36*
X169719416Y-101252646D02*
G01*
X169993953Y-101527183D01*
X169997380Y-101535456D01*
X169995753Y-101541408D01*
X169665707Y-102099949D01*
X169658548Y-102105328D01*
X169651182Y-102104817D01*
X169294804Y-101958163D01*
X169288457Y-101951845D01*
X169288436Y-101951795D01*
X169141782Y-101595417D01*
X169141803Y-101586463D01*
X169146647Y-101580895D01*
X169705191Y-101250845D01*
X169714057Y-101249588D01*
X169719416Y-101252646D01*
G37*
%TD.AperFunction*%
%TD*%
%TA.AperFunction,Conductor*%
%TO.N,/SDA*%
G36*
X156264859Y-92274748D02*
G01*
X156271177Y-92281095D01*
X156271509Y-92289087D01*
X156074490Y-92909743D01*
X156068720Y-92916592D01*
X156063338Y-92917903D01*
X155834962Y-92917903D01*
X155826689Y-92914476D01*
X155823362Y-92907730D01*
X155803444Y-92756440D01*
X155803444Y-92756438D01*
X155795712Y-92737773D01*
X155742940Y-92610367D01*
X155742937Y-92610363D01*
X155742936Y-92610359D01*
X155646682Y-92484918D01*
X155646680Y-92484917D01*
X155646680Y-92484916D01*
X155632906Y-92474347D01*
X155618760Y-92463492D01*
X155615182Y-92458941D01*
X155540473Y-92289799D01*
X155540267Y-92280849D01*
X155546450Y-92274371D01*
X155546609Y-92274303D01*
X155900700Y-92126675D01*
X155909649Y-92126655D01*
X156264859Y-92274748D01*
G37*
%TD.AperFunction*%
%TD*%
%TA.AperFunction,Conductor*%
%TO.N,/VIOUT*%
G36*
X163167997Y-122411284D02*
G01*
X163327914Y-122456975D01*
X163334928Y-122462543D01*
X163336400Y-122468225D01*
X163336400Y-122700574D01*
X163332973Y-122708847D01*
X163327914Y-122711824D01*
X163167998Y-122757514D01*
X163159102Y-122756492D01*
X163156534Y-122754561D01*
X162993744Y-122592697D01*
X162990294Y-122584433D01*
X162993697Y-122576150D01*
X162993744Y-122576103D01*
X163102239Y-122468225D01*
X163156534Y-122414237D01*
X163164817Y-122410835D01*
X163167997Y-122411284D01*
G37*
%TD.AperFunction*%
%TD*%
%TA.AperFunction,Conductor*%
%TO.N,Net-(C25-Pad2)*%
G36*
X151876815Y-106148741D02*
G01*
X151883973Y-106154119D01*
X151885600Y-106160071D01*
X151885600Y-106548328D01*
X151882173Y-106556601D01*
X151876814Y-106559659D01*
X151248486Y-106721228D01*
X151239620Y-106719970D01*
X151234774Y-106714400D01*
X151086475Y-106358699D01*
X151086455Y-106349750D01*
X151234774Y-105993998D01*
X151241120Y-105987682D01*
X151248484Y-105987171D01*
X151876815Y-106148741D01*
G37*
%TD.AperFunction*%
%TD*%
%TA.AperFunction,Conductor*%
%TO.N,Net-(C25-Pad2)*%
G36*
X157661258Y-106009335D02*
G01*
X157665812Y-106014727D01*
X157814223Y-106370698D01*
X157814244Y-106379652D01*
X157814223Y-106379702D01*
X157666054Y-106735092D01*
X157659707Y-106741410D01*
X157651981Y-106741823D01*
X157027703Y-106559856D01*
X157020719Y-106554250D01*
X157019277Y-106548623D01*
X157019277Y-106160349D01*
X157022704Y-106152076D01*
X157028393Y-106148938D01*
X157652434Y-106007817D01*
X157661258Y-106009335D01*
G37*
%TD.AperFunction*%
%TD*%
%TA.AperFunction,Conductor*%
%TO.N,/VIOUT*%
G36*
X167697138Y-83471131D02*
G01*
X167703456Y-83477478D01*
X167703591Y-83486037D01*
X167467847Y-84114807D01*
X167461734Y-84121351D01*
X167456892Y-84122400D01*
X167219108Y-84122400D01*
X167210835Y-84118973D01*
X167208153Y-84114807D01*
X166972408Y-83486035D01*
X166972712Y-83477088D01*
X166978859Y-83471132D01*
X167333500Y-83323275D01*
X167342449Y-83323255D01*
X167697138Y-83471131D01*
G37*
%TD.AperFunction*%
%TD*%
%TA.AperFunction,Conductor*%
%TO.N,Net-(JP1-A)*%
G36*
X159932751Y-88235341D02*
G01*
X159934871Y-88238241D01*
X160244518Y-88837243D01*
X160245273Y-88846166D01*
X160239498Y-88853009D01*
X160238627Y-88853415D01*
X159882975Y-89001693D01*
X159878444Y-89002594D01*
X159493164Y-89001630D01*
X159484899Y-88998182D01*
X159481493Y-88989901D01*
X159481512Y-88989256D01*
X159524564Y-88242940D01*
X159528462Y-88234878D01*
X159536245Y-88231914D01*
X159924478Y-88231914D01*
X159932751Y-88235341D01*
G37*
%TD.AperFunction*%
%TD*%
%TA.AperFunction,Conductor*%
%TO.N,/+5V*%
G36*
X160598039Y-120568085D02*
G01*
X160643794Y-120620889D01*
X160655000Y-120672400D01*
X160655000Y-123446787D01*
X160635315Y-123513826D01*
X160582511Y-123559581D01*
X160530788Y-123570787D01*
X145945188Y-123545811D01*
X145878182Y-123526011D01*
X145832518Y-123473129D01*
X145821400Y-123421811D01*
X145821400Y-121739200D01*
X145841085Y-121672161D01*
X145893889Y-121626406D01*
X145945400Y-121615200D01*
X155244800Y-121615200D01*
X155244800Y-120672400D01*
X155264485Y-120605361D01*
X155317289Y-120559606D01*
X155368800Y-120548400D01*
X160531000Y-120548400D01*
X160598039Y-120568085D01*
G37*
%TD.AperFunction*%
%TD*%
%TA.AperFunction,Conductor*%
%TO.N,/VIOUT*%
G36*
X164112750Y-121437827D02*
G01*
X164115760Y-121443005D01*
X164160699Y-121606846D01*
X164160932Y-121612006D01*
X163997916Y-122521173D01*
X163993083Y-122528711D01*
X163984335Y-122530624D01*
X163976797Y-122525791D01*
X163974884Y-122521173D01*
X163811867Y-121612006D01*
X163812099Y-121606848D01*
X163857039Y-121443005D01*
X163862533Y-121435933D01*
X163868323Y-121434400D01*
X164104477Y-121434400D01*
X164112750Y-121437827D01*
G37*
%TD.AperFunction*%
%TD*%
%TA.AperFunction,Conductor*%
%TO.N,Net-(C9-Pad2)*%
G36*
X170455235Y-94411768D02*
G01*
X170463500Y-94415216D01*
X170466906Y-94423497D01*
X170466859Y-94424513D01*
X170399456Y-95175824D01*
X170395304Y-95183758D01*
X170387803Y-95186479D01*
X169999513Y-95186479D01*
X169991240Y-95183052D01*
X169988934Y-95179777D01*
X169703682Y-94575953D01*
X169703247Y-94567008D01*
X169709263Y-94560376D01*
X169709712Y-94560176D01*
X170065829Y-94411704D01*
X170070350Y-94410805D01*
X170455235Y-94411768D01*
G37*
%TD.AperFunction*%
%TD*%
%TA.AperFunction,Conductor*%
%TO.N,/VIOUT*%
G36*
X163813697Y-122412307D02*
G01*
X163816265Y-122414238D01*
X163979055Y-122576103D01*
X163982505Y-122584367D01*
X163979102Y-122592650D01*
X163979055Y-122592697D01*
X163816265Y-122754561D01*
X163807982Y-122757964D01*
X163804801Y-122757514D01*
X163644886Y-122711824D01*
X163637872Y-122706256D01*
X163636400Y-122700574D01*
X163636400Y-122468225D01*
X163639827Y-122459952D01*
X163644884Y-122456975D01*
X163804802Y-122411285D01*
X163813697Y-122412307D01*
G37*
%TD.AperFunction*%
%TD*%
%TA.AperFunction,Conductor*%
%TO.N,/SDA*%
G36*
X162521871Y-119262652D02*
G01*
X163134560Y-119539193D01*
X163140691Y-119545720D01*
X163140567Y-119554309D01*
X162994363Y-119909595D01*
X162988045Y-119915942D01*
X162987995Y-119915963D01*
X162632709Y-120062167D01*
X162623755Y-120062146D01*
X162617593Y-120056160D01*
X162553476Y-119914107D01*
X162391079Y-119554309D01*
X162341052Y-119443471D01*
X162340772Y-119434521D01*
X162343441Y-119430387D01*
X162508786Y-119265042D01*
X162517058Y-119261616D01*
X162521871Y-119262652D01*
G37*
%TD.AperFunction*%
%TD*%
M02*
