%TF.GenerationSoftware,KiCad,Pcbnew,7.99.0-957-g18dd623122*%
%TF.CreationDate,2023-08-18T16:19:00-04:00*%
%TF.ProjectId,pca9685,70636139-3638-4352-9e6b-696361645f70,V1.0*%
%TF.SameCoordinates,Original*%
%TF.FileFunction,Soldermask,Bot*%
%TF.FilePolarity,Negative*%
%FSLAX46Y46*%
G04 Gerber Fmt 4.6, Leading zero omitted, Abs format (unit mm)*
G04 Created by KiCad (PCBNEW 7.99.0-957-g18dd623122) date 2023-08-18 16:19:00*
%MOMM*%
%LPD*%
G01*
G04 APERTURE LIST*
%ADD10R,1.700000X1.700000*%
%ADD11O,1.700000X1.700000*%
%ADD12R,1.980000X3.960000*%
%ADD13O,1.980000X3.960000*%
G04 APERTURE END LIST*
D10*
%TO.C,J9*%
X148352934Y-105156000D03*
D11*
X148352934Y-107696000D03*
X148352934Y-110236000D03*
%TD*%
D10*
%TO.C,J8*%
X132317066Y-105410000D03*
D11*
X132317066Y-107950000D03*
X132317066Y-110490000D03*
%TD*%
D10*
%TO.C,J10*%
X152146000Y-105156000D03*
D11*
X152146000Y-107696000D03*
X152146000Y-110236000D03*
%TD*%
D10*
%TO.C,J13*%
X159371058Y-94742000D03*
D11*
X159371058Y-97282000D03*
X159371058Y-99822000D03*
%TD*%
D10*
%TO.C,J16*%
X148152472Y-94742000D03*
D11*
X148152472Y-97282000D03*
X148152472Y-99822000D03*
%TD*%
D10*
%TO.C,J5*%
X120937868Y-105410000D03*
D11*
X120937868Y-107950000D03*
X120937868Y-110490000D03*
%TD*%
D10*
%TO.C,J1*%
X132296777Y-94757000D03*
D11*
X132296777Y-97297000D03*
X132296777Y-99837000D03*
%TD*%
D10*
%TO.C,J12*%
X159732132Y-105156000D03*
D11*
X159732132Y-107696000D03*
X159732132Y-110236000D03*
%TD*%
D12*
%TO.C,J18*%
X137494000Y-110744000D03*
D13*
X142494000Y-110744000D03*
%TD*%
D10*
%TO.C,J17*%
X150875999Y-90932000D03*
D11*
X148335999Y-90932000D03*
X145796000Y-90932000D03*
X143255999Y-90932000D03*
%TD*%
D10*
%TO.C,J14*%
X155631528Y-94742000D03*
D11*
X155631528Y-97282000D03*
X155631528Y-99822000D03*
%TD*%
D10*
%TO.C,J11*%
X155939066Y-105156000D03*
D11*
X155939066Y-107696000D03*
X155939066Y-110236000D03*
%TD*%
D10*
%TO.C,J4*%
X120843498Y-94757000D03*
D11*
X120843498Y-97297000D03*
X120843498Y-99837000D03*
%TD*%
D10*
%TO.C,J6*%
X124730934Y-105410000D03*
D11*
X124730934Y-107950000D03*
X124730934Y-110490000D03*
%TD*%
D10*
%TO.C,J2*%
X128479016Y-94757000D03*
D11*
X128479016Y-97297000D03*
X128479016Y-99837000D03*
%TD*%
D10*
%TO.C,J15*%
X151892000Y-94742000D03*
D11*
X151892000Y-97282000D03*
X151892000Y-99822000D03*
%TD*%
D10*
%TO.C,J3*%
X124661257Y-94757000D03*
D11*
X124661257Y-97297000D03*
X124661257Y-99837000D03*
%TD*%
D10*
%TO.C,J7*%
X128524000Y-105410000D03*
D11*
X128524000Y-107950000D03*
X128524000Y-110490000D03*
%TD*%
M02*
