%TF.GenerationSoftware,KiCad,Pcbnew,7.99.0-957-g18dd623122*%
%TF.CreationDate,2023-08-18T16:19:00-04:00*%
%TF.ProjectId,pca9685,70636139-3638-4352-9e6b-696361645f70,V1.0*%
%TF.SameCoordinates,Original*%
%TF.FileFunction,Soldermask,Top*%
%TF.FilePolarity,Negative*%
%FSLAX46Y46*%
G04 Gerber Fmt 4.6, Leading zero omitted, Abs format (unit mm)*
G04 Created by KiCad (PCBNEW 7.99.0-957-g18dd623122) date 2023-08-18 16:19:00*
%MOMM*%
%LPD*%
G01*
G04 APERTURE LIST*
G04 Aperture macros list*
%AMRoundRect*
0 Rectangle with rounded corners*
0 $1 Rounding radius*
0 $2 $3 $4 $5 $6 $7 $8 $9 X,Y pos of 4 corners*
0 Add a 4 corners polygon primitive as box body*
4,1,4,$2,$3,$4,$5,$6,$7,$8,$9,$2,$3,0*
0 Add four circle primitives for the rounded corners*
1,1,$1+$1,$2,$3*
1,1,$1+$1,$4,$5*
1,1,$1+$1,$6,$7*
1,1,$1+$1,$8,$9*
0 Add four rect primitives between the rounded corners*
20,1,$1+$1,$2,$3,$4,$5,0*
20,1,$1+$1,$4,$5,$6,$7,0*
20,1,$1+$1,$6,$7,$8,$9,0*
20,1,$1+$1,$8,$9,$2,$3,0*%
G04 Aperture macros list end*
%ADD10R,1.700000X1.700000*%
%ADD11O,1.700000X1.700000*%
%ADD12RoundRect,0.225000X0.225000X0.250000X-0.225000X0.250000X-0.225000X-0.250000X0.225000X-0.250000X0*%
%ADD13R,1.980000X3.960000*%
%ADD14O,1.980000X3.960000*%
%ADD15RoundRect,0.200000X0.200000X0.275000X-0.200000X0.275000X-0.200000X-0.275000X0.200000X-0.275000X0*%
%ADD16RoundRect,0.100000X-0.637500X-0.100000X0.637500X-0.100000X0.637500X0.100000X-0.637500X0.100000X0*%
%ADD17RoundRect,0.200000X-0.200000X-0.275000X0.200000X-0.275000X0.200000X0.275000X-0.200000X0.275000X0*%
%ADD18RoundRect,0.218750X-0.218750X-0.256250X0.218750X-0.256250X0.218750X0.256250X-0.218750X0.256250X0*%
G04 APERTURE END LIST*
D10*
%TO.C,J9*%
X148352934Y-105156000D03*
D11*
X148352934Y-107696000D03*
X148352934Y-110236000D03*
%TD*%
D10*
%TO.C,J8*%
X132317066Y-105410000D03*
D11*
X132317066Y-107950000D03*
X132317066Y-110490000D03*
%TD*%
D10*
%TO.C,J10*%
X152146000Y-105156000D03*
D11*
X152146000Y-107696000D03*
X152146000Y-110236000D03*
%TD*%
D12*
%TO.C,C1*%
X145047000Y-93726000D03*
X143497000Y-93726000D03*
%TD*%
D10*
%TO.C,J13*%
X159371058Y-94742000D03*
D11*
X159371058Y-97282000D03*
X159371058Y-99822000D03*
%TD*%
D10*
%TO.C,J16*%
X148152472Y-94742000D03*
D11*
X148152472Y-97282000D03*
X148152472Y-99822000D03*
%TD*%
D10*
%TO.C,J5*%
X120937868Y-105410000D03*
D11*
X120937868Y-107950000D03*
X120937868Y-110490000D03*
%TD*%
D10*
%TO.C,J1*%
X132296777Y-94757000D03*
D11*
X132296777Y-97297000D03*
X132296777Y-99837000D03*
%TD*%
D10*
%TO.C,J12*%
X159732132Y-105156000D03*
D11*
X159732132Y-107696000D03*
X159732132Y-110236000D03*
%TD*%
D13*
%TO.C,J18*%
X137494000Y-110744000D03*
D14*
X142494000Y-110744000D03*
%TD*%
D15*
%TO.C,R2*%
X140525000Y-91948000D03*
X138875000Y-91948000D03*
%TD*%
D16*
%TO.C,U1*%
X135821500Y-93819000D03*
X135821500Y-94469000D03*
X135821500Y-95119000D03*
X135821500Y-95769000D03*
X135821500Y-96419000D03*
X135821500Y-97069000D03*
X135821500Y-97719000D03*
X135821500Y-98369000D03*
X135821500Y-99019000D03*
X135821500Y-99669000D03*
X135821500Y-100319000D03*
X135821500Y-100969000D03*
X135821500Y-101619000D03*
X135821500Y-102269000D03*
X141546500Y-102269000D03*
X141546500Y-101619000D03*
X141546500Y-100969000D03*
X141546500Y-100319000D03*
X141546500Y-99669000D03*
X141546500Y-99019000D03*
X141546500Y-98369000D03*
X141546500Y-97719000D03*
X141546500Y-97069000D03*
X141546500Y-96419000D03*
X141546500Y-95769000D03*
X141546500Y-95119000D03*
X141546500Y-94469000D03*
X141546500Y-93819000D03*
%TD*%
D10*
%TO.C,J17*%
X150875999Y-90932000D03*
D11*
X148335999Y-90932000D03*
X145796000Y-90932000D03*
X143255999Y-90932000D03*
%TD*%
D10*
%TO.C,J14*%
X155631528Y-94742000D03*
D11*
X155631528Y-97282000D03*
X155631528Y-99822000D03*
%TD*%
D17*
%TO.C,R1*%
X143447000Y-96520000D03*
X145097000Y-96520000D03*
%TD*%
D10*
%TO.C,J11*%
X155939066Y-105156000D03*
D11*
X155939066Y-107696000D03*
X155939066Y-110236000D03*
%TD*%
D10*
%TO.C,J4*%
X120843498Y-94757000D03*
D11*
X120843498Y-97297000D03*
X120843498Y-99837000D03*
%TD*%
D10*
%TO.C,J6*%
X124730934Y-105410000D03*
D11*
X124730934Y-107950000D03*
X124730934Y-110490000D03*
%TD*%
D10*
%TO.C,J2*%
X128479016Y-94757000D03*
D11*
X128479016Y-97297000D03*
X128479016Y-99837000D03*
%TD*%
D10*
%TO.C,J15*%
X151892000Y-94742000D03*
D11*
X151892000Y-97282000D03*
X151892000Y-99822000D03*
%TD*%
D18*
%TO.C,D1*%
X135610499Y-91948000D03*
X137185501Y-91948000D03*
%TD*%
D10*
%TO.C,J3*%
X124661257Y-94757000D03*
D11*
X124661257Y-97297000D03*
X124661257Y-99837000D03*
%TD*%
D10*
%TO.C,J7*%
X128524000Y-105410000D03*
D11*
X128524000Y-107950000D03*
X128524000Y-110490000D03*
%TD*%
M02*
