%TF.GenerationSoftware,KiCad,Pcbnew,7.99.0-957-g18dd623122*%
%TF.CreationDate,2023-08-18T16:19:00-04:00*%
%TF.ProjectId,pca9685,70636139-3638-4352-9e6b-696361645f70,V1.0*%
%TF.SameCoordinates,Original*%
%TF.FileFunction,Copper,L1,Top*%
%TF.FilePolarity,Positive*%
%FSLAX46Y46*%
G04 Gerber Fmt 4.6, Leading zero omitted, Abs format (unit mm)*
G04 Created by KiCad (PCBNEW 7.99.0-957-g18dd623122) date 2023-08-18 16:19:00*
%MOMM*%
%LPD*%
G01*
G04 APERTURE LIST*
G04 Aperture macros list*
%AMRoundRect*
0 Rectangle with rounded corners*
0 $1 Rounding radius*
0 $2 $3 $4 $5 $6 $7 $8 $9 X,Y pos of 4 corners*
0 Add a 4 corners polygon primitive as box body*
4,1,4,$2,$3,$4,$5,$6,$7,$8,$9,$2,$3,0*
0 Add four circle primitives for the rounded corners*
1,1,$1+$1,$2,$3*
1,1,$1+$1,$4,$5*
1,1,$1+$1,$6,$7*
1,1,$1+$1,$8,$9*
0 Add four rect primitives between the rounded corners*
20,1,$1+$1,$2,$3,$4,$5,0*
20,1,$1+$1,$4,$5,$6,$7,0*
20,1,$1+$1,$6,$7,$8,$9,0*
20,1,$1+$1,$8,$9,$2,$3,0*%
G04 Aperture macros list end*
%TA.AperFunction,ComponentPad*%
%ADD10R,1.700000X1.700000*%
%TD*%
%TA.AperFunction,ComponentPad*%
%ADD11O,1.700000X1.700000*%
%TD*%
%TA.AperFunction,SMDPad,CuDef*%
%ADD12RoundRect,0.225000X0.225000X0.250000X-0.225000X0.250000X-0.225000X-0.250000X0.225000X-0.250000X0*%
%TD*%
%TA.AperFunction,ComponentPad*%
%ADD13R,1.980000X3.960000*%
%TD*%
%TA.AperFunction,ComponentPad*%
%ADD14O,1.980000X3.960000*%
%TD*%
%TA.AperFunction,SMDPad,CuDef*%
%ADD15RoundRect,0.200000X0.200000X0.275000X-0.200000X0.275000X-0.200000X-0.275000X0.200000X-0.275000X0*%
%TD*%
%TA.AperFunction,SMDPad,CuDef*%
%ADD16RoundRect,0.100000X-0.637500X-0.100000X0.637500X-0.100000X0.637500X0.100000X-0.637500X0.100000X0*%
%TD*%
%TA.AperFunction,SMDPad,CuDef*%
%ADD17RoundRect,0.200000X-0.200000X-0.275000X0.200000X-0.275000X0.200000X0.275000X-0.200000X0.275000X0*%
%TD*%
%TA.AperFunction,SMDPad,CuDef*%
%ADD18RoundRect,0.218750X-0.218750X-0.256250X0.218750X-0.256250X0.218750X0.256250X-0.218750X0.256250X0*%
%TD*%
%TA.AperFunction,ViaPad*%
%ADD19C,0.800000*%
%TD*%
%TA.AperFunction,Conductor*%
%ADD20C,0.250000*%
%TD*%
%TA.AperFunction,Conductor*%
%ADD21C,0.300000*%
%TD*%
%TA.AperFunction,Conductor*%
%ADD22C,2.000000*%
%TD*%
%TA.AperFunction,Conductor*%
%ADD23C,0.150000*%
%TD*%
G04 APERTURE END LIST*
D10*
%TO.P,J9,1,Pin_1*%
%TO.N,/LED8*%
X148352934Y-105156000D03*
D11*
%TO.P,J9,2,Pin_2*%
%TO.N,/VDD*%
X148352934Y-107696000D03*
%TO.P,J9,3,Pin_3*%
%TO.N,GND*%
X148352934Y-110236000D03*
%TD*%
D10*
%TO.P,J8,1,Pin_1*%
%TO.N,/LED7*%
X132317066Y-105410000D03*
D11*
%TO.P,J8,2,Pin_2*%
%TO.N,/VDD*%
X132317066Y-107950000D03*
%TO.P,J8,3,Pin_3*%
%TO.N,GND*%
X132317066Y-110490000D03*
%TD*%
D10*
%TO.P,J10,1,Pin_1*%
%TO.N,/LED9*%
X152146000Y-105156000D03*
D11*
%TO.P,J10,2,Pin_2*%
%TO.N,/VDD*%
X152146000Y-107696000D03*
%TO.P,J10,3,Pin_3*%
%TO.N,GND*%
X152146000Y-110236000D03*
%TD*%
D12*
%TO.P,C1,1*%
%TO.N,GND*%
X145047000Y-93726000D03*
%TO.P,C1,2*%
%TO.N,+3.3V*%
X143497000Y-93726000D03*
%TD*%
D10*
%TO.P,J13,1,Pin_1*%
%TO.N,/LED12*%
X159371058Y-94742000D03*
D11*
%TO.P,J13,2,Pin_2*%
%TO.N,/VDD*%
X159371058Y-97282000D03*
%TO.P,J13,3,Pin_3*%
%TO.N,GND*%
X159371058Y-99822000D03*
%TD*%
D10*
%TO.P,J16,1,Pin_1*%
%TO.N,/LED15*%
X148152472Y-94742000D03*
D11*
%TO.P,J16,2,Pin_2*%
%TO.N,/VDD*%
X148152472Y-97282000D03*
%TO.P,J16,3,Pin_3*%
%TO.N,GND*%
X148152472Y-99822000D03*
%TD*%
D10*
%TO.P,J5,1,Pin_1*%
%TO.N,/LED4*%
X120937868Y-105410000D03*
D11*
%TO.P,J5,2,Pin_2*%
%TO.N,/VDD*%
X120937868Y-107950000D03*
%TO.P,J5,3,Pin_3*%
%TO.N,GND*%
X120937868Y-110490000D03*
%TD*%
D10*
%TO.P,J1,1,Pin_1*%
%TO.N,/LED0*%
X132296777Y-94757000D03*
D11*
%TO.P,J1,2,Pin_2*%
%TO.N,/VDD*%
X132296777Y-97297000D03*
%TO.P,J1,3,Pin_3*%
%TO.N,GND*%
X132296777Y-99837000D03*
%TD*%
D10*
%TO.P,J12,1,Pin_1*%
%TO.N,/LED11*%
X159732132Y-105156000D03*
D11*
%TO.P,J12,2,Pin_2*%
%TO.N,/VDD*%
X159732132Y-107696000D03*
%TO.P,J12,3,Pin_3*%
%TO.N,GND*%
X159732132Y-110236000D03*
%TD*%
D13*
%TO.P,J18,1,Pin_1*%
%TO.N,/VDD*%
X137494000Y-110744000D03*
D14*
%TO.P,J18,2,Pin_2*%
%TO.N,GND*%
X142494000Y-110744000D03*
%TD*%
D15*
%TO.P,R2,1*%
%TO.N,+3.3V*%
X140525000Y-91948000D03*
%TO.P,R2,2*%
%TO.N,Net-(D1-A)*%
X138875000Y-91948000D03*
%TD*%
D16*
%TO.P,U1,1,A0*%
%TO.N,GND*%
X135821500Y-93819000D03*
%TO.P,U1,2,A1*%
X135821500Y-94469000D03*
%TO.P,U1,3,A2*%
X135821500Y-95119000D03*
%TO.P,U1,4,A3*%
X135821500Y-95769000D03*
%TO.P,U1,5,A4*%
X135821500Y-96419000D03*
%TO.P,U1,6,LED0*%
%TO.N,/LED0*%
X135821500Y-97069000D03*
%TO.P,U1,7,LED1*%
%TO.N,/LED1*%
X135821500Y-97719000D03*
%TO.P,U1,8,LED2*%
%TO.N,/LED2*%
X135821500Y-98369000D03*
%TO.P,U1,9,LED3*%
%TO.N,/LED3*%
X135821500Y-99019000D03*
%TO.P,U1,10,LED4*%
%TO.N,/LED4*%
X135821500Y-99669000D03*
%TO.P,U1,11,LED5*%
%TO.N,/LED5*%
X135821500Y-100319000D03*
%TO.P,U1,12,LED6*%
%TO.N,/LED6*%
X135821500Y-100969000D03*
%TO.P,U1,13,LED7*%
%TO.N,/LED7*%
X135821500Y-101619000D03*
%TO.P,U1,14,VSS*%
%TO.N,GND*%
X135821500Y-102269000D03*
%TO.P,U1,15,LED8*%
%TO.N,/LED8*%
X141546500Y-102269000D03*
%TO.P,U1,16,LED9*%
%TO.N,/LED9*%
X141546500Y-101619000D03*
%TO.P,U1,17,LED10*%
%TO.N,/LED10*%
X141546500Y-100969000D03*
%TO.P,U1,18,LED11*%
%TO.N,/LED11*%
X141546500Y-100319000D03*
%TO.P,U1,19,LED12*%
%TO.N,/LED12*%
X141546500Y-99669000D03*
%TO.P,U1,20,LED13*%
%TO.N,/LED13*%
X141546500Y-99019000D03*
%TO.P,U1,21,LED14*%
%TO.N,/LED14*%
X141546500Y-98369000D03*
%TO.P,U1,22,LED15*%
%TO.N,/LED15*%
X141546500Y-97719000D03*
%TO.P,U1,23,~{OE}*%
%TO.N,Net-(U1-~{OE})*%
X141546500Y-97069000D03*
%TO.P,U1,24,A5*%
%TO.N,GND*%
X141546500Y-96419000D03*
%TO.P,U1,25,EXTCLK*%
X141546500Y-95769000D03*
%TO.P,U1,26,SCL*%
%TO.N,/SCL*%
X141546500Y-95119000D03*
%TO.P,U1,27,SDA*%
%TO.N,/SDA*%
X141546500Y-94469000D03*
%TO.P,U1,28,VDD*%
%TO.N,+3.3V*%
X141546500Y-93819000D03*
%TD*%
D10*
%TO.P,J17,1,Pin_1*%
%TO.N,/SCL*%
X150875999Y-90932000D03*
D11*
%TO.P,J17,2,Pin_2*%
%TO.N,/SDA*%
X148335999Y-90932000D03*
%TO.P,J17,3,Pin_3*%
%TO.N,GND*%
X145796000Y-90932000D03*
%TO.P,J17,4,Pin_4*%
%TO.N,+3.3V*%
X143255999Y-90932000D03*
%TD*%
D10*
%TO.P,J14,1,Pin_1*%
%TO.N,/LED13*%
X155631528Y-94742000D03*
D11*
%TO.P,J14,2,Pin_2*%
%TO.N,/VDD*%
X155631528Y-97282000D03*
%TO.P,J14,3,Pin_3*%
%TO.N,GND*%
X155631528Y-99822000D03*
%TD*%
D17*
%TO.P,R1,1*%
%TO.N,Net-(U1-~{OE})*%
X143447000Y-96520000D03*
%TO.P,R1,2*%
%TO.N,GND*%
X145097000Y-96520000D03*
%TD*%
D10*
%TO.P,J11,1,Pin_1*%
%TO.N,/LED10*%
X155939066Y-105156000D03*
D11*
%TO.P,J11,2,Pin_2*%
%TO.N,/VDD*%
X155939066Y-107696000D03*
%TO.P,J11,3,Pin_3*%
%TO.N,GND*%
X155939066Y-110236000D03*
%TD*%
D10*
%TO.P,J4,1,Pin_1*%
%TO.N,/LED3*%
X120843498Y-94757000D03*
D11*
%TO.P,J4,2,Pin_2*%
%TO.N,/VDD*%
X120843498Y-97297000D03*
%TO.P,J4,3,Pin_3*%
%TO.N,GND*%
X120843498Y-99837000D03*
%TD*%
D10*
%TO.P,J6,1,Pin_1*%
%TO.N,/LED5*%
X124730934Y-105410000D03*
D11*
%TO.P,J6,2,Pin_2*%
%TO.N,/VDD*%
X124730934Y-107950000D03*
%TO.P,J6,3,Pin_3*%
%TO.N,GND*%
X124730934Y-110490000D03*
%TD*%
D10*
%TO.P,J2,1,Pin_1*%
%TO.N,/LED1*%
X128479016Y-94757000D03*
D11*
%TO.P,J2,2,Pin_2*%
%TO.N,/VDD*%
X128479016Y-97297000D03*
%TO.P,J2,3,Pin_3*%
%TO.N,GND*%
X128479016Y-99837000D03*
%TD*%
D10*
%TO.P,J15,1,Pin_1*%
%TO.N,/LED14*%
X151892000Y-94742000D03*
D11*
%TO.P,J15,2,Pin_2*%
%TO.N,/VDD*%
X151892000Y-97282000D03*
%TO.P,J15,3,Pin_3*%
%TO.N,GND*%
X151892000Y-99822000D03*
%TD*%
D18*
%TO.P,D1,1,K*%
%TO.N,GND*%
X135610499Y-91948000D03*
%TO.P,D1,2,A*%
%TO.N,Net-(D1-A)*%
X137185501Y-91948000D03*
%TD*%
D10*
%TO.P,J3,1,Pin_1*%
%TO.N,/LED2*%
X124661257Y-94757000D03*
D11*
%TO.P,J3,2,Pin_2*%
%TO.N,/VDD*%
X124661257Y-97297000D03*
%TO.P,J3,3,Pin_3*%
%TO.N,GND*%
X124661257Y-99837000D03*
%TD*%
D10*
%TO.P,J7,1,Pin_1*%
%TO.N,/LED6*%
X128524000Y-105410000D03*
D11*
%TO.P,J7,2,Pin_2*%
%TO.N,/VDD*%
X128524000Y-107950000D03*
%TO.P,J7,3,Pin_3*%
%TO.N,GND*%
X128524000Y-110490000D03*
%TD*%
D19*
%TO.N,/LED2*%
X137160000Y-98298000D03*
%TO.N,/LED3*%
X137160000Y-99314000D03*
%TO.N,/LED12*%
X143002000Y-100059503D03*
%TO.N,/LED13*%
X143002000Y-99060000D03*
%TO.N,/SCL*%
X143256000Y-95250000D03*
%TD*%
D20*
%TO.N,GND*%
X135821500Y-93819000D02*
X135821500Y-96419000D01*
D21*
%TO.N,+3.3V*%
X143255999Y-90932000D02*
X143255999Y-93484999D01*
X140525000Y-91948000D02*
X140525000Y-92611500D01*
X140525000Y-92611500D02*
X141639500Y-93726000D01*
D20*
X143404000Y-93819000D02*
X143497000Y-93726000D01*
D21*
X143255999Y-93484999D02*
X143497000Y-93726000D01*
D20*
X141639500Y-93726000D02*
X141546500Y-93819000D01*
X143497000Y-93726000D02*
X141639500Y-93726000D01*
D21*
%TO.N,Net-(D1-A)*%
X138875000Y-91948000D02*
X137185501Y-91948000D01*
D22*
%TO.N,/VDD*%
X120843498Y-97297000D02*
X124661257Y-97297000D01*
X132317066Y-107950000D02*
X134700000Y-107950000D01*
X128524000Y-107950000D02*
X132317066Y-107950000D01*
X119641417Y-97297000D02*
X118793998Y-98144419D01*
X161781632Y-106950368D02*
X161036000Y-107696000D01*
X120843498Y-97297000D02*
X119641417Y-97297000D01*
X161781632Y-98490493D02*
X161781632Y-106950368D01*
X155939066Y-107696000D02*
X159732132Y-107696000D01*
X124730934Y-107950000D02*
X128524000Y-107950000D01*
X148352934Y-107696000D02*
X152146000Y-107696000D01*
X137494000Y-110744000D02*
X140673500Y-107564500D01*
X160573139Y-97282000D02*
X161781632Y-98490493D01*
X119378868Y-107950000D02*
X120937868Y-107950000D01*
X120937868Y-107950000D02*
X124730934Y-107950000D01*
X148152472Y-97282000D02*
X151892000Y-97282000D01*
X159371058Y-97282000D02*
X160573139Y-97282000D01*
X161036000Y-107696000D02*
X159732132Y-107696000D01*
X140673500Y-107564500D02*
X148221434Y-107564500D01*
X155631528Y-97282000D02*
X159371058Y-97282000D01*
X118793998Y-98144419D02*
X118793998Y-107365130D01*
X124661257Y-97297000D02*
X128479016Y-97297000D01*
X148221434Y-107564500D02*
X148352934Y-107696000D01*
X152146000Y-107696000D02*
X155939066Y-107696000D01*
X151892000Y-97282000D02*
X155631528Y-97282000D01*
X128479016Y-97297000D02*
X132296777Y-97297000D01*
X118793998Y-107365130D02*
X119378868Y-107950000D01*
X134700000Y-107950000D02*
X137494000Y-110744000D01*
D23*
%TO.N,/LED0*%
X132296777Y-94757000D02*
X134608777Y-97069000D01*
X134608777Y-97069000D02*
X135821500Y-97069000D01*
%TO.N,/LED1*%
X129603516Y-95881500D02*
X132927009Y-95881500D01*
X128479016Y-94757000D02*
X129603516Y-95881500D01*
X132927009Y-95881500D02*
X134764509Y-97719000D01*
X134764509Y-97719000D02*
X135821500Y-97719000D01*
%TO.N,/LED2*%
X135821500Y-98369000D02*
X137089000Y-98369000D01*
X137089000Y-98369000D02*
X137160000Y-98298000D01*
%TO.N,/LED3*%
X136865000Y-99019000D02*
X137160000Y-99314000D01*
X135821500Y-99019000D02*
X136865000Y-99019000D01*
%TO.N,/LED4*%
X135204377Y-99669000D02*
X135821500Y-99669000D01*
X132765377Y-102108000D02*
X135204377Y-99669000D01*
X124239868Y-102108000D02*
X132765377Y-102108000D01*
X120937868Y-105410000D02*
X124239868Y-102108000D01*
%TO.N,/LED5*%
X135204377Y-100319000D02*
X135821500Y-100319000D01*
X127683434Y-102457500D02*
X133065877Y-102457500D01*
X124730934Y-105410000D02*
X127683434Y-102457500D01*
X133065877Y-102457500D02*
X135204377Y-100319000D01*
%TO.N,/LED6*%
X131127000Y-102807000D02*
X133366377Y-102807000D01*
X133366377Y-102807000D02*
X135204377Y-100969000D01*
X128524000Y-105410000D02*
X131127000Y-102807000D01*
X135204377Y-100969000D02*
X135821500Y-100969000D01*
%TO.N,/LED7*%
X132317066Y-104410000D02*
X135108066Y-101619000D01*
X135108066Y-101619000D02*
X135821500Y-101619000D01*
X132317066Y-105410000D02*
X132317066Y-104410000D01*
%TO.N,/LED8*%
X144433500Y-105156000D02*
X141546500Y-102269000D01*
X148352934Y-105156000D02*
X144433500Y-105156000D01*
%TO.N,/LED9*%
X143160623Y-102616000D02*
X142163623Y-101619000D01*
X152146000Y-105156000D02*
X149606000Y-102616000D01*
X142163623Y-101619000D02*
X141546500Y-101619000D01*
X149606000Y-102616000D02*
X143160623Y-102616000D01*
%TO.N,/LED10*%
X153049566Y-102266500D02*
X143461123Y-102266500D01*
X155939066Y-105156000D02*
X153049566Y-102266500D01*
X143461123Y-102266500D02*
X142163623Y-100969000D01*
X142163623Y-100969000D02*
X141546500Y-100969000D01*
%TO.N,/LED11*%
X142163623Y-100319000D02*
X141546500Y-100319000D01*
X156493132Y-101917000D02*
X143761623Y-101917000D01*
X143761623Y-101917000D02*
X142163623Y-100319000D01*
X159732132Y-105156000D02*
X156493132Y-101917000D01*
%TO.N,/LED12*%
X143002000Y-100059503D02*
X142611497Y-99669000D01*
X142611497Y-99669000D02*
X141546500Y-99669000D01*
%TO.N,/LED13*%
X141546500Y-99019000D02*
X142961000Y-99019000D01*
X142961000Y-99019000D02*
X143002000Y-99060000D01*
%TO.N,/LED14*%
X150767500Y-95866500D02*
X147522240Y-95866500D01*
X145019740Y-98369000D02*
X141546500Y-98369000D01*
X151892000Y-94742000D02*
X150767500Y-95866500D01*
X147522240Y-95866500D02*
X145019740Y-98369000D01*
%TO.N,/LED15*%
X145175472Y-97719000D02*
X141546500Y-97719000D01*
X148152472Y-94742000D02*
X145175472Y-97719000D01*
%TO.N,/SCL*%
X141546500Y-95119000D02*
X143125000Y-95119000D01*
X143125000Y-95119000D02*
X143256000Y-95250000D01*
%TO.N,/SDA*%
X148335999Y-92134081D02*
X145994580Y-94475500D01*
X148335999Y-90932000D02*
X148335999Y-92134081D01*
X141553000Y-94475500D02*
X141546500Y-94469000D01*
X145994580Y-94475500D02*
X141553000Y-94475500D01*
%TO.N,Net-(U1-~{OE})*%
X142898000Y-97069000D02*
X141546500Y-97069000D01*
X143447000Y-96520000D02*
X142898000Y-97069000D01*
%TD*%
%TA.AperFunction,Conductor*%
%TO.N,GND*%
G36*
X133500458Y-96849244D02*
G01*
X133515314Y-96859421D01*
X134547102Y-97891209D01*
X134553196Y-97898634D01*
X134565885Y-97917625D01*
X134586886Y-97931657D01*
X134642027Y-97968501D01*
X134642026Y-97968501D01*
X134657012Y-97978514D01*
X134657014Y-97978515D01*
X134737376Y-97994500D01*
X134737380Y-97994500D01*
X134764509Y-97999896D01*
X134783242Y-97996169D01*
X134786908Y-97995441D01*
X134796466Y-97994500D01*
X134914233Y-97994500D01*
X134948881Y-98008852D01*
X134949380Y-98009351D01*
X134963732Y-98043999D01*
X134949381Y-98078646D01*
X134931794Y-98096233D01*
X134886415Y-98199006D01*
X134883500Y-98224134D01*
X134883500Y-98513858D01*
X134883501Y-98513868D01*
X134886415Y-98538992D01*
X134931794Y-98641766D01*
X134949380Y-98659352D01*
X134963732Y-98694000D01*
X134949380Y-98728648D01*
X134931794Y-98746233D01*
X134886415Y-98849006D01*
X134883500Y-98874134D01*
X134883500Y-99163858D01*
X134883501Y-99163868D01*
X134886415Y-99188992D01*
X134931794Y-99291766D01*
X134949380Y-99309352D01*
X134963732Y-99344000D01*
X134949380Y-99378648D01*
X134931794Y-99396233D01*
X134886415Y-99499006D01*
X134883500Y-99524134D01*
X134883500Y-99579964D01*
X134869148Y-99614612D01*
X132665613Y-101818148D01*
X132630965Y-101832500D01*
X124271825Y-101832500D01*
X124262265Y-101831558D01*
X124239869Y-101827103D01*
X124239865Y-101827103D01*
X124132374Y-101848484D01*
X124132373Y-101848484D01*
X124065530Y-101893145D01*
X124065522Y-101893153D01*
X124041243Y-101909376D01*
X124041242Y-101909377D01*
X124028554Y-101928365D01*
X124022462Y-101935788D01*
X121613104Y-104345148D01*
X121578456Y-104359500D01*
X120068119Y-104359500D01*
X120053055Y-104362496D01*
X120016273Y-104355178D01*
X119995439Y-104323994D01*
X119994498Y-104314437D01*
X119994498Y-101627148D01*
X119994498Y-98661975D01*
X120008848Y-98627331D01*
X120124327Y-98511852D01*
X120158976Y-98497500D01*
X132352275Y-98497500D01*
X132352280Y-98497500D01*
X132518313Y-98482115D01*
X132732305Y-98421229D01*
X132931466Y-98322058D01*
X133109013Y-98187981D01*
X133258901Y-98023562D01*
X133376024Y-97834401D01*
X133456395Y-97626940D01*
X133497277Y-97408243D01*
X133497277Y-97185757D01*
X133456395Y-96967060D01*
X133434975Y-96911768D01*
X133435841Y-96874277D01*
X133462965Y-96848378D01*
X133500458Y-96849244D01*
G37*
%TD.AperFunction*%
%TA.AperFunction,Conductor*%
G36*
X147003231Y-96844419D02*
G01*
X147017583Y-96879067D01*
X147014274Y-96896767D01*
X146992857Y-96952051D01*
X146992854Y-96952060D01*
X146951972Y-97170757D01*
X146951972Y-97393243D01*
X146992854Y-97611940D01*
X147023993Y-97692318D01*
X147069249Y-97809140D01*
X147073225Y-97819401D01*
X147190348Y-98008562D01*
X147190349Y-98008563D01*
X147190351Y-98008566D01*
X147340235Y-98172980D01*
X147340238Y-98172983D01*
X147395155Y-98214454D01*
X147517783Y-98307058D01*
X147716944Y-98406229D01*
X147930936Y-98467115D01*
X148096969Y-98482500D01*
X151836497Y-98482500D01*
X155576025Y-98482500D01*
X159315555Y-98482500D01*
X160055580Y-98482500D01*
X160090228Y-98496852D01*
X160566780Y-98973404D01*
X160581132Y-99008051D01*
X160581132Y-104056500D01*
X160566780Y-104091148D01*
X160532132Y-104105500D01*
X159091544Y-104105500D01*
X159056896Y-104091148D01*
X156710538Y-101744790D01*
X156704444Y-101737364D01*
X156691757Y-101718376D01*
X156668755Y-101703007D01*
X156642596Y-101685527D01*
X156642596Y-101685526D01*
X156600628Y-101657485D01*
X156517900Y-101641029D01*
X156493132Y-101636103D01*
X156493131Y-101636103D01*
X156493130Y-101636103D01*
X156470735Y-101640558D01*
X156461175Y-101641500D01*
X143896035Y-101641500D01*
X143861387Y-101627148D01*
X142981616Y-100747377D01*
X142967264Y-100712729D01*
X142981616Y-100678081D01*
X143009866Y-100664149D01*
X143158762Y-100644547D01*
X143304841Y-100584039D01*
X143430282Y-100487785D01*
X143526536Y-100362344D01*
X143587044Y-100216265D01*
X143607682Y-100059503D01*
X143587044Y-99902741D01*
X143560450Y-99838538D01*
X143526538Y-99756666D01*
X143526535Y-99756661D01*
X143430282Y-99631221D01*
X143430281Y-99631220D01*
X143387802Y-99598625D01*
X143369050Y-99566147D01*
X143378757Y-99529922D01*
X143387795Y-99520882D01*
X143430282Y-99488282D01*
X143526536Y-99362841D01*
X143587044Y-99216762D01*
X143607682Y-99060000D01*
X143587044Y-98903238D01*
X143526536Y-98757159D01*
X143500576Y-98723328D01*
X143490870Y-98687104D01*
X143509622Y-98654626D01*
X143539451Y-98644500D01*
X144987783Y-98644500D01*
X144997343Y-98645442D01*
X145019739Y-98649897D01*
X145019740Y-98649897D01*
X145046872Y-98644500D01*
X145046873Y-98644500D01*
X145127235Y-98628515D01*
X145169205Y-98600471D01*
X145195362Y-98582994D01*
X145195363Y-98582992D01*
X145218364Y-98567624D01*
X145231056Y-98548626D01*
X145237141Y-98541213D01*
X146933936Y-96844418D01*
X146968583Y-96830067D01*
X147003231Y-96844419D01*
G37*
%TD.AperFunction*%
%TA.AperFunction,Conductor*%
G36*
X147087620Y-93841371D02*
G01*
X147101972Y-93876019D01*
X147101972Y-95382588D01*
X147087620Y-95417236D01*
X145075708Y-97429148D01*
X145041060Y-97443500D01*
X142924930Y-97443500D01*
X142899744Y-97433067D01*
X142898292Y-97435242D01*
X142871070Y-97443500D01*
X142453767Y-97443500D01*
X142419119Y-97429148D01*
X142418618Y-97428647D01*
X142404266Y-97393999D01*
X142418616Y-97359354D01*
X142419188Y-97358783D01*
X142453767Y-97344500D01*
X142866043Y-97344500D01*
X142875603Y-97345442D01*
X142880630Y-97346442D01*
X142896068Y-97356758D01*
X142915365Y-97346442D01*
X142925132Y-97344500D01*
X142925133Y-97344500D01*
X143005495Y-97328515D01*
X143063147Y-97289993D01*
X143073622Y-97282994D01*
X143073623Y-97282992D01*
X143096624Y-97267624D01*
X143109316Y-97248626D01*
X143115401Y-97241213D01*
X143150895Y-97205719D01*
X143185542Y-97191368D01*
X143193207Y-97191971D01*
X143215481Y-97195500D01*
X143678518Y-97195499D01*
X143772304Y-97180646D01*
X143833387Y-97149522D01*
X143885335Y-97123054D01*
X143885337Y-97123052D01*
X143885342Y-97123050D01*
X143975050Y-97033342D01*
X144008823Y-96967060D01*
X144032644Y-96920309D01*
X144032644Y-96920307D01*
X144032646Y-96920304D01*
X144047500Y-96826519D01*
X144047499Y-96213482D01*
X144032646Y-96119696D01*
X144025036Y-96104761D01*
X143975054Y-96006664D01*
X143975049Y-96006657D01*
X143885342Y-95916950D01*
X143885335Y-95916945D01*
X143772308Y-95859355D01*
X143772305Y-95859354D01*
X143772304Y-95859354D01*
X143678519Y-95844500D01*
X143678517Y-95844500D01*
X143612011Y-95844500D01*
X143577363Y-95830148D01*
X143563011Y-95795500D01*
X143577363Y-95760852D01*
X143582182Y-95756626D01*
X143608343Y-95736552D01*
X143684282Y-95678282D01*
X143780536Y-95552841D01*
X143841044Y-95406762D01*
X143861682Y-95250000D01*
X143841044Y-95093238D01*
X143791710Y-94974135D01*
X143780538Y-94947163D01*
X143780535Y-94947158D01*
X143690506Y-94829829D01*
X143680799Y-94793604D01*
X143699551Y-94761126D01*
X143729380Y-94751000D01*
X145962623Y-94751000D01*
X145972183Y-94751942D01*
X145994579Y-94756397D01*
X145994580Y-94756397D01*
X146021712Y-94751000D01*
X146021713Y-94751000D01*
X146102075Y-94735015D01*
X146157374Y-94698065D01*
X146170202Y-94689494D01*
X146170201Y-94689494D01*
X146175505Y-94685951D01*
X146175509Y-94685946D01*
X146193204Y-94674124D01*
X146205896Y-94655126D01*
X146211981Y-94647713D01*
X147018323Y-93841371D01*
X147052972Y-93827019D01*
X147087620Y-93841371D01*
G37*
%TD.AperFunction*%
%TA.AperFunction,Conductor*%
G36*
X162306959Y-88900576D02*
G01*
X162318762Y-88901504D01*
X162363017Y-88904987D01*
X162509140Y-88917772D01*
X162516282Y-88918936D01*
X162601706Y-88939444D01*
X162602307Y-88939597D01*
X162715099Y-88969819D01*
X162718120Y-88970845D01*
X162806509Y-89007456D01*
X162807403Y-89007850D01*
X162907908Y-89054717D01*
X162910322Y-89056014D01*
X162993734Y-89107129D01*
X162994985Y-89107949D01*
X163084090Y-89170341D01*
X163085909Y-89171749D01*
X163160948Y-89235838D01*
X163162347Y-89237131D01*
X163238866Y-89313650D01*
X163240159Y-89315049D01*
X163304245Y-89390084D01*
X163305662Y-89391915D01*
X163336747Y-89436309D01*
X163368049Y-89481013D01*
X163368869Y-89482264D01*
X163419976Y-89565661D01*
X163421288Y-89568104D01*
X163456566Y-89643757D01*
X163468132Y-89668559D01*
X163468563Y-89669538D01*
X163505150Y-89757869D01*
X163506181Y-89760907D01*
X163536398Y-89873681D01*
X163536556Y-89874302D01*
X163557060Y-89959704D01*
X163558228Y-89966872D01*
X163571023Y-90113128D01*
X163575424Y-90169040D01*
X163575500Y-90170964D01*
X163575500Y-112013035D01*
X163575424Y-112014959D01*
X163571023Y-112070870D01*
X163558228Y-112217126D01*
X163557060Y-112224294D01*
X163536556Y-112309696D01*
X163536398Y-112310317D01*
X163506181Y-112423091D01*
X163505150Y-112426129D01*
X163468563Y-112514460D01*
X163468132Y-112515439D01*
X163421292Y-112615888D01*
X163419976Y-112618337D01*
X163368869Y-112701734D01*
X163368049Y-112702985D01*
X163305671Y-112792072D01*
X163304231Y-112793932D01*
X163240160Y-112868948D01*
X163238854Y-112870361D01*
X163162361Y-112946854D01*
X163160948Y-112948160D01*
X163085932Y-113012231D01*
X163084072Y-113013671D01*
X162994985Y-113076049D01*
X162993734Y-113076869D01*
X162910337Y-113127976D01*
X162907888Y-113129292D01*
X162807439Y-113176132D01*
X162806460Y-113176563D01*
X162718129Y-113213150D01*
X162715091Y-113214181D01*
X162602317Y-113244398D01*
X162601696Y-113244556D01*
X162516294Y-113265060D01*
X162509126Y-113266228D01*
X162362870Y-113279023D01*
X162306959Y-113283424D01*
X162305035Y-113283500D01*
X117756773Y-113283500D01*
X117754849Y-113283424D01*
X117697674Y-113278923D01*
X117548779Y-113265925D01*
X117541601Y-113264757D01*
X117453134Y-113243517D01*
X117452513Y-113243359D01*
X117338802Y-113212891D01*
X117335763Y-113211860D01*
X117244767Y-113174167D01*
X117243789Y-113173737D01*
X117142214Y-113126372D01*
X117139765Y-113125056D01*
X117054005Y-113072501D01*
X117052753Y-113071680D01*
X116962556Y-113008521D01*
X116960696Y-113007081D01*
X116883627Y-112941255D01*
X116882214Y-112939949D01*
X116804725Y-112862459D01*
X116803430Y-112861059D01*
X116737588Y-112783965D01*
X116736157Y-112782118D01*
X116699940Y-112730393D01*
X116672991Y-112691902D01*
X116672183Y-112690671D01*
X116619622Y-112604895D01*
X116618316Y-112602465D01*
X116570917Y-112500812D01*
X116570518Y-112499902D01*
X116539963Y-112426129D01*
X116532827Y-112408900D01*
X116531798Y-112405873D01*
X116501303Y-112292047D01*
X116501192Y-112291610D01*
X116479926Y-112203016D01*
X116478765Y-112195886D01*
X116466038Y-112050356D01*
X116461233Y-111989273D01*
X116461159Y-111987394D01*
X116461159Y-110507998D01*
X116462201Y-107420814D01*
X117589642Y-107420814D01*
X117601097Y-107502932D01*
X117601226Y-107504043D01*
X117608883Y-107586666D01*
X117614761Y-107607327D01*
X117616059Y-107611887D01*
X117616759Y-107615210D01*
X117620380Y-107641164D01*
X117620380Y-107641165D01*
X117646734Y-107719795D01*
X117647068Y-107720876D01*
X117669767Y-107800653D01*
X117669771Y-107800663D01*
X117681451Y-107824119D01*
X117682751Y-107827257D01*
X117691084Y-107852119D01*
X117713924Y-107893123D01*
X117731460Y-107924606D01*
X117731962Y-107925558D01*
X117750932Y-107963654D01*
X117768938Y-107999816D01*
X117768940Y-107999819D01*
X117784736Y-108020737D01*
X117786590Y-108023582D01*
X117799342Y-108046476D01*
X117799346Y-108046483D01*
X117852332Y-108110292D01*
X117853035Y-108111179D01*
X117903014Y-108177363D01*
X117903017Y-108177366D01*
X117964309Y-108233241D01*
X117965128Y-108234023D01*
X118509973Y-108778868D01*
X118510755Y-108779687D01*
X118566631Y-108840980D01*
X118566634Y-108840983D01*
X118632817Y-108890961D01*
X118633704Y-108891664D01*
X118685097Y-108934340D01*
X118697515Y-108944652D01*
X118716513Y-108955233D01*
X118720418Y-108957409D01*
X118723259Y-108959260D01*
X118744179Y-108975058D01*
X118818454Y-109012042D01*
X118819374Y-109012527D01*
X118868265Y-109039759D01*
X118891880Y-109052914D01*
X118891883Y-109052915D01*
X118916738Y-109061245D01*
X118919872Y-109062543D01*
X118943332Y-109074226D01*
X118943334Y-109074227D01*
X118943338Y-109074228D01*
X118943340Y-109074229D01*
X118962509Y-109079683D01*
X119023127Y-109096931D01*
X119024208Y-109097265D01*
X119102835Y-109123618D01*
X119128797Y-109127239D01*
X119132111Y-109127938D01*
X119157332Y-109135115D01*
X119239971Y-109142772D01*
X119241043Y-109142896D01*
X119323187Y-109154356D01*
X119396040Y-109150987D01*
X119406033Y-109150526D01*
X119407164Y-109150500D01*
X120882365Y-109150500D01*
X124675431Y-109150500D01*
X128468497Y-109150500D01*
X132261563Y-109150500D01*
X134182441Y-109150500D01*
X134217089Y-109164852D01*
X136289148Y-111236911D01*
X136303500Y-111271558D01*
X136303500Y-112743748D01*
X136315133Y-112802231D01*
X136332882Y-112828795D01*
X136359447Y-112868552D01*
X136386012Y-112886301D01*
X136425769Y-112912867D01*
X136484252Y-112924500D01*
X136484255Y-112924500D01*
X138503745Y-112924500D01*
X138503748Y-112924500D01*
X138562231Y-112912867D01*
X138628552Y-112868552D01*
X138672867Y-112802231D01*
X138684500Y-112743748D01*
X138684500Y-111271558D01*
X138698852Y-111236910D01*
X141156411Y-108779352D01*
X141191059Y-108765000D01*
X147792335Y-108765000D01*
X147816178Y-108771192D01*
X147865949Y-108798915D01*
X147890804Y-108807245D01*
X147893938Y-108808543D01*
X147917398Y-108820226D01*
X147917400Y-108820227D01*
X147917404Y-108820228D01*
X147917406Y-108820229D01*
X147936575Y-108825683D01*
X147997193Y-108842931D01*
X147998274Y-108843265D01*
X148076901Y-108869618D01*
X148102863Y-108873239D01*
X148106177Y-108873938D01*
X148131398Y-108881115D01*
X148214037Y-108888772D01*
X148215109Y-108888896D01*
X148297253Y-108900356D01*
X148370106Y-108896987D01*
X148380099Y-108896526D01*
X148381230Y-108896500D01*
X152090497Y-108896500D01*
X155883563Y-108896500D01*
X159676629Y-108896500D01*
X161007704Y-108896500D01*
X161008835Y-108896526D01*
X161019197Y-108897004D01*
X161091681Y-108900356D01*
X161173833Y-108888895D01*
X161174890Y-108888772D01*
X161257536Y-108881115D01*
X161282766Y-108873935D01*
X161286060Y-108873240D01*
X161312033Y-108869618D01*
X161390670Y-108843260D01*
X161391724Y-108842934D01*
X161471528Y-108820229D01*
X161494997Y-108808541D01*
X161498118Y-108807248D01*
X161522985Y-108798915D01*
X161595477Y-108758535D01*
X161596395Y-108758051D01*
X161670689Y-108721058D01*
X161691610Y-108705257D01*
X161694446Y-108703410D01*
X161717353Y-108690652D01*
X161781211Y-108637622D01*
X161782007Y-108636992D01*
X161848236Y-108586981D01*
X161904122Y-108525675D01*
X161904883Y-108524878D01*
X162610510Y-107819251D01*
X162611307Y-107818491D01*
X162611976Y-107817880D01*
X162672613Y-107762604D01*
X162722601Y-107696406D01*
X162723272Y-107695559D01*
X162776285Y-107631721D01*
X162789043Y-107608812D01*
X162790898Y-107605967D01*
X162806690Y-107585057D01*
X162843680Y-107510767D01*
X162844146Y-107509883D01*
X162884547Y-107437353D01*
X162892877Y-107412497D01*
X162894170Y-107409372D01*
X162905861Y-107385896D01*
X162928567Y-107306088D01*
X162928898Y-107305022D01*
X162955250Y-107226400D01*
X162958871Y-107200435D01*
X162959569Y-107197129D01*
X162966747Y-107171904D01*
X162974404Y-107089257D01*
X162974527Y-107088200D01*
X162985988Y-107006049D01*
X162982158Y-106923201D01*
X162982132Y-106922070D01*
X162982132Y-98518789D01*
X162982158Y-98517658D01*
X162983801Y-98482114D01*
X162985988Y-98434812D01*
X162974528Y-98352668D01*
X162974404Y-98351596D01*
X162966747Y-98268957D01*
X162959570Y-98243736D01*
X162958871Y-98240422D01*
X162955250Y-98214460D01*
X162928897Y-98135833D01*
X162928563Y-98134752D01*
X162905859Y-98054959D01*
X162905858Y-98054957D01*
X162894175Y-98031497D01*
X162892875Y-98028358D01*
X162884546Y-98003505D01*
X162865048Y-97968501D01*
X162844159Y-97930999D01*
X162843674Y-97930079D01*
X162806690Y-97855804D01*
X162790892Y-97834884D01*
X162789041Y-97832043D01*
X162781997Y-97819397D01*
X162776284Y-97809140D01*
X162758657Y-97787913D01*
X162723296Y-97745329D01*
X162722593Y-97744442D01*
X162672615Y-97678259D01*
X162672612Y-97678256D01*
X162611319Y-97622380D01*
X162610500Y-97621598D01*
X161442032Y-96453130D01*
X161441250Y-96452311D01*
X161385375Y-96391019D01*
X161385372Y-96391016D01*
X161319188Y-96341037D01*
X161318301Y-96340334D01*
X161254492Y-96287348D01*
X161254485Y-96287344D01*
X161231591Y-96274592D01*
X161228746Y-96272738D01*
X161207828Y-96256942D01*
X161207825Y-96256940D01*
X161163699Y-96234968D01*
X161133567Y-96219964D01*
X161132615Y-96219462D01*
X161060128Y-96179087D01*
X161060128Y-96179086D01*
X161035266Y-96170753D01*
X161032128Y-96169453D01*
X161008672Y-96157773D01*
X161008662Y-96157769D01*
X160928885Y-96135070D01*
X160927804Y-96134736D01*
X160849173Y-96108382D01*
X160823219Y-96104761D01*
X160819898Y-96104061D01*
X160794675Y-96096885D01*
X160794666Y-96096884D01*
X160764685Y-96094105D01*
X160712052Y-96089228D01*
X160710941Y-96089099D01*
X160628823Y-96077644D01*
X160628822Y-96077644D01*
X160628820Y-96077644D01*
X160598012Y-96079068D01*
X160545974Y-96081474D01*
X160544843Y-96081500D01*
X151060412Y-96081500D01*
X151025764Y-96067148D01*
X151011412Y-96032500D01*
X151025764Y-95997852D01*
X151216764Y-95806852D01*
X151251412Y-95792500D01*
X152761745Y-95792500D01*
X152761748Y-95792500D01*
X152820231Y-95780867D01*
X152886552Y-95736552D01*
X152930867Y-95670231D01*
X152942500Y-95611748D01*
X154581028Y-95611748D01*
X154592661Y-95670231D01*
X154598040Y-95678281D01*
X154636975Y-95736552D01*
X154659425Y-95751552D01*
X154703297Y-95780867D01*
X154761780Y-95792500D01*
X154761783Y-95792500D01*
X156501273Y-95792500D01*
X156501276Y-95792500D01*
X156559759Y-95780867D01*
X156626080Y-95736552D01*
X156670395Y-95670231D01*
X156682028Y-95611748D01*
X158320558Y-95611748D01*
X158332191Y-95670231D01*
X158337570Y-95678281D01*
X158376505Y-95736552D01*
X158398955Y-95751552D01*
X158442827Y-95780867D01*
X158501310Y-95792500D01*
X158501313Y-95792500D01*
X160240803Y-95792500D01*
X160240806Y-95792500D01*
X160299289Y-95780867D01*
X160365610Y-95736552D01*
X160409925Y-95670231D01*
X160421558Y-95611748D01*
X160421558Y-93872252D01*
X160409925Y-93813769D01*
X160375632Y-93762447D01*
X160365610Y-93747447D01*
X160321738Y-93718133D01*
X160299289Y-93703133D01*
X160240806Y-93691500D01*
X158501310Y-93691500D01*
X158442827Y-93703133D01*
X158376505Y-93747447D01*
X158332191Y-93813768D01*
X158332191Y-93813769D01*
X158320558Y-93872252D01*
X158320558Y-95611748D01*
X156682028Y-95611748D01*
X156682028Y-93872252D01*
X156670395Y-93813769D01*
X156636102Y-93762447D01*
X156626080Y-93747447D01*
X156582208Y-93718133D01*
X156559759Y-93703133D01*
X156501276Y-93691500D01*
X154761780Y-93691500D01*
X154703296Y-93703132D01*
X154703297Y-93703133D01*
X154636975Y-93747447D01*
X154592660Y-93813768D01*
X154592661Y-93813769D01*
X154581028Y-93872252D01*
X154581028Y-95611748D01*
X152942500Y-95611748D01*
X152942500Y-93872252D01*
X152930867Y-93813769D01*
X152896574Y-93762447D01*
X152886552Y-93747447D01*
X152842680Y-93718133D01*
X152820231Y-93703133D01*
X152761748Y-93691500D01*
X151022252Y-93691500D01*
X150963768Y-93703132D01*
X150963769Y-93703133D01*
X150897447Y-93747447D01*
X150853133Y-93813768D01*
X150853133Y-93813769D01*
X150841500Y-93872252D01*
X150841500Y-93872255D01*
X150841500Y-95382588D01*
X150827148Y-95417236D01*
X150667736Y-95576648D01*
X150633088Y-95591000D01*
X149251972Y-95591000D01*
X149217324Y-95576648D01*
X149202972Y-95542000D01*
X149202972Y-93872255D01*
X149202972Y-93872252D01*
X149191339Y-93813769D01*
X149157046Y-93762447D01*
X149147024Y-93747447D01*
X149103152Y-93718133D01*
X149080703Y-93703133D01*
X149022220Y-93691500D01*
X147286491Y-93691500D01*
X147251843Y-93677148D01*
X147237491Y-93642500D01*
X147251843Y-93607852D01*
X147858195Y-93001500D01*
X148508212Y-92351482D01*
X148515625Y-92345397D01*
X148534623Y-92332705D01*
X148552933Y-92305301D01*
X148557480Y-92298499D01*
X148566956Y-92284316D01*
X148595515Y-92241575D01*
X148616896Y-92134081D01*
X148612440Y-92111677D01*
X148611499Y-92102119D01*
X148611499Y-91982538D01*
X148625851Y-91947890D01*
X148646275Y-91935648D01*
X148739953Y-91907232D01*
X148922449Y-91809685D01*
X148932120Y-91801748D01*
X149825499Y-91801748D01*
X149837132Y-91860231D01*
X149854881Y-91886795D01*
X149881446Y-91926552D01*
X149896613Y-91936686D01*
X149947768Y-91970867D01*
X150006251Y-91982500D01*
X150006254Y-91982500D01*
X151745744Y-91982500D01*
X151745747Y-91982500D01*
X151804230Y-91970867D01*
X151870551Y-91926552D01*
X151914866Y-91860231D01*
X151926499Y-91801748D01*
X151926499Y-90062252D01*
X151914866Y-90003769D01*
X151883461Y-89956769D01*
X151870551Y-89937447D01*
X151809568Y-89896700D01*
X151804230Y-89893133D01*
X151745747Y-89881500D01*
X150006251Y-89881500D01*
X149947768Y-89893132D01*
X149947768Y-89893133D01*
X149881446Y-89937447D01*
X149837131Y-90003768D01*
X149837132Y-90003769D01*
X149825499Y-90062252D01*
X149825499Y-91801748D01*
X148932120Y-91801748D01*
X149082409Y-91678410D01*
X149213684Y-91518450D01*
X149311231Y-91335954D01*
X149371299Y-91137934D01*
X149391582Y-90932000D01*
X149371299Y-90726066D01*
X149311231Y-90528046D01*
X149213684Y-90345550D01*
X149082409Y-90185590D01*
X148922449Y-90054315D01*
X148758856Y-89966872D01*
X148739955Y-89956769D01*
X148739954Y-89956768D01*
X148739953Y-89956768D01*
X148541933Y-89896700D01*
X148335999Y-89876417D01*
X148130064Y-89896700D01*
X148130063Y-89896700D01*
X147932042Y-89956769D01*
X147749547Y-90054316D01*
X147589589Y-90185590D01*
X147458315Y-90345548D01*
X147360768Y-90528043D01*
X147300699Y-90726064D01*
X147300699Y-90726065D01*
X147300699Y-90726066D01*
X147280416Y-90932000D01*
X147300699Y-91137934D01*
X147346235Y-91288049D01*
X147360768Y-91335956D01*
X147367386Y-91348338D01*
X147458314Y-91518450D01*
X147589589Y-91678410D01*
X147749549Y-91809685D01*
X147932045Y-91907232D01*
X148025723Y-91935648D01*
X148054713Y-91959439D01*
X148060499Y-91982538D01*
X148060499Y-91999669D01*
X148046147Y-92034317D01*
X145894816Y-94185648D01*
X145860168Y-94200000D01*
X144165377Y-94200000D01*
X144130729Y-94185648D01*
X144116377Y-94151000D01*
X144121718Y-94128754D01*
X144122651Y-94126922D01*
X144131719Y-94109126D01*
X144147500Y-94009488D01*
X144147500Y-93442512D01*
X144131719Y-93342874D01*
X144131717Y-93342870D01*
X144070532Y-93222786D01*
X144070527Y-93222779D01*
X143975220Y-93127472D01*
X143975213Y-93127467D01*
X143855129Y-93066282D01*
X143855127Y-93066281D01*
X143855126Y-93066281D01*
X143755488Y-93050500D01*
X143755486Y-93050500D01*
X143655499Y-93050500D01*
X143620851Y-93036148D01*
X143606499Y-93001500D01*
X143606499Y-91959787D01*
X143620851Y-91925139D01*
X143641275Y-91912897D01*
X143659953Y-91907232D01*
X143842449Y-91809685D01*
X144002409Y-91678410D01*
X144133684Y-91518450D01*
X144231231Y-91335954D01*
X144291299Y-91137934D01*
X144311582Y-90932000D01*
X144291299Y-90726066D01*
X144231231Y-90528046D01*
X144133684Y-90345550D01*
X144002409Y-90185590D01*
X143842449Y-90054315D01*
X143678856Y-89966872D01*
X143659955Y-89956769D01*
X143659954Y-89956768D01*
X143659953Y-89956768D01*
X143461933Y-89896700D01*
X143255999Y-89876417D01*
X143050064Y-89896700D01*
X143050063Y-89896700D01*
X142852042Y-89956769D01*
X142669547Y-90054316D01*
X142509589Y-90185590D01*
X142378315Y-90345548D01*
X142280768Y-90528043D01*
X142220699Y-90726064D01*
X142220699Y-90726065D01*
X142220699Y-90726066D01*
X142200416Y-90932000D01*
X142220699Y-91137934D01*
X142266235Y-91288049D01*
X142280768Y-91335956D01*
X142287386Y-91348338D01*
X142378314Y-91518450D01*
X142509589Y-91678410D01*
X142669549Y-91809685D01*
X142852041Y-91907230D01*
X142852047Y-91907233D01*
X142859315Y-91909437D01*
X142870721Y-91912896D01*
X142899712Y-91936686D01*
X142905499Y-91959787D01*
X142905499Y-93246290D01*
X142900158Y-93268535D01*
X142862282Y-93342870D01*
X142859701Y-93359166D01*
X142840105Y-93391142D01*
X142811304Y-93400500D01*
X141829978Y-93400500D01*
X141795330Y-93386148D01*
X140996435Y-92587253D01*
X140982083Y-92552605D01*
X140996435Y-92517957D01*
X140996434Y-92517956D01*
X141053050Y-92461342D01*
X141056918Y-92453751D01*
X141110644Y-92348309D01*
X141110644Y-92348307D01*
X141110646Y-92348304D01*
X141125500Y-92254519D01*
X141125499Y-91641482D01*
X141110646Y-91547696D01*
X141095745Y-91518451D01*
X141053054Y-91434664D01*
X141053049Y-91434657D01*
X140963342Y-91344950D01*
X140963335Y-91344945D01*
X140850308Y-91287355D01*
X140850305Y-91287354D01*
X140850304Y-91287354D01*
X140756519Y-91272500D01*
X140756517Y-91272500D01*
X140293482Y-91272500D01*
X140199696Y-91287353D01*
X140086664Y-91344945D01*
X140086657Y-91344950D01*
X139996950Y-91434657D01*
X139996945Y-91434664D01*
X139939355Y-91547690D01*
X139939355Y-91547692D01*
X139939354Y-91547694D01*
X139939354Y-91547696D01*
X139936828Y-91563646D01*
X139924500Y-91641482D01*
X139924500Y-92254517D01*
X139939353Y-92348303D01*
X139996945Y-92461335D01*
X139996950Y-92461342D01*
X140086658Y-92551050D01*
X140146352Y-92581465D01*
X140170708Y-92609982D01*
X140172729Y-92619060D01*
X140174311Y-92631747D01*
X140174500Y-92634782D01*
X140174500Y-92640539D01*
X140178002Y-92661534D01*
X140178148Y-92662534D01*
X140184426Y-92712893D01*
X140184427Y-92712895D01*
X140184553Y-92713152D01*
X140188859Y-92726593D01*
X140188905Y-92726871D01*
X140188909Y-92726884D01*
X140213059Y-92771508D01*
X140213509Y-92772382D01*
X140235801Y-92817984D01*
X140235802Y-92817984D01*
X140236002Y-92818184D01*
X140244445Y-92829506D01*
X140244582Y-92829758D01*
X140281915Y-92864126D01*
X140282635Y-92864817D01*
X140788584Y-93370766D01*
X140802936Y-93405414D01*
X140788584Y-93440062D01*
X140773728Y-93450239D01*
X140736233Y-93466794D01*
X140656794Y-93546233D01*
X140611415Y-93649006D01*
X140608500Y-93674134D01*
X140608500Y-93963858D01*
X140608501Y-93963868D01*
X140611415Y-93988992D01*
X140656794Y-94091766D01*
X140674380Y-94109352D01*
X140688732Y-94144000D01*
X140674380Y-94178648D01*
X140656794Y-94196233D01*
X140611415Y-94299006D01*
X140608500Y-94324134D01*
X140608500Y-94613858D01*
X140608501Y-94613868D01*
X140611415Y-94638992D01*
X140656794Y-94741766D01*
X140674379Y-94759350D01*
X140688732Y-94793998D01*
X140674381Y-94828646D01*
X140656794Y-94846233D01*
X140611415Y-94949006D01*
X140608500Y-94974134D01*
X140608500Y-95263858D01*
X140608501Y-95263868D01*
X140611415Y-95288992D01*
X140656794Y-95391766D01*
X140736233Y-95471205D01*
X140839006Y-95516584D01*
X140839009Y-95516585D01*
X140864135Y-95519500D01*
X142228864Y-95519499D01*
X142253991Y-95516585D01*
X142356765Y-95471206D01*
X142419119Y-95408851D01*
X142453767Y-95394500D01*
X142633136Y-95394500D01*
X142667784Y-95408852D01*
X142678406Y-95424748D01*
X142731463Y-95552839D01*
X142731464Y-95552841D01*
X142821539Y-95670230D01*
X142827718Y-95678282D01*
X142953159Y-95774536D01*
X142953161Y-95774536D01*
X142953163Y-95774538D01*
X142968443Y-95780867D01*
X143039743Y-95810400D01*
X143066262Y-95836918D01*
X143066262Y-95874421D01*
X143043238Y-95899329D01*
X143008662Y-95916946D01*
X143008657Y-95916950D01*
X142918950Y-96006657D01*
X142918945Y-96006664D01*
X142861355Y-96119690D01*
X142861355Y-96119692D01*
X142861354Y-96119694D01*
X142861354Y-96119696D01*
X142850977Y-96185216D01*
X142846500Y-96213482D01*
X142846500Y-96710586D01*
X142832149Y-96745234D01*
X142798236Y-96779148D01*
X142763588Y-96793500D01*
X142453767Y-96793500D01*
X142419119Y-96779148D01*
X142356766Y-96716794D01*
X142253993Y-96671415D01*
X142241428Y-96669957D01*
X142228865Y-96668500D01*
X142228863Y-96668500D01*
X140864141Y-96668500D01*
X140864131Y-96668501D01*
X140839007Y-96671415D01*
X140736233Y-96716794D01*
X140656794Y-96796233D01*
X140611415Y-96899006D01*
X140608500Y-96924134D01*
X140608500Y-97213858D01*
X140608501Y-97213868D01*
X140611415Y-97238992D01*
X140656794Y-97341766D01*
X140674379Y-97359350D01*
X140688732Y-97393998D01*
X140674382Y-97428646D01*
X140656794Y-97446234D01*
X140656792Y-97446238D01*
X140611415Y-97549006D01*
X140608500Y-97574134D01*
X140608500Y-97863858D01*
X140608501Y-97863868D01*
X140611415Y-97888992D01*
X140656794Y-97991766D01*
X140674380Y-98009352D01*
X140688732Y-98044000D01*
X140674380Y-98078648D01*
X140656794Y-98096233D01*
X140611415Y-98199006D01*
X140608500Y-98224134D01*
X140608500Y-98513858D01*
X140608501Y-98513868D01*
X140611415Y-98538992D01*
X140656794Y-98641766D01*
X140674380Y-98659352D01*
X140688732Y-98694000D01*
X140674380Y-98728648D01*
X140656794Y-98746233D01*
X140611415Y-98849006D01*
X140608500Y-98874134D01*
X140608500Y-99163858D01*
X140608501Y-99163868D01*
X140611415Y-99188992D01*
X140656794Y-99291766D01*
X140674380Y-99309352D01*
X140688732Y-99344000D01*
X140674380Y-99378648D01*
X140656794Y-99396233D01*
X140611415Y-99499006D01*
X140608500Y-99524134D01*
X140608500Y-99813858D01*
X140608501Y-99813868D01*
X140611415Y-99838992D01*
X140656794Y-99941766D01*
X140674379Y-99959350D01*
X140688732Y-99993998D01*
X140674381Y-100028646D01*
X140656794Y-100046233D01*
X140611415Y-100149006D01*
X140608500Y-100174134D01*
X140608500Y-100463858D01*
X140608501Y-100463868D01*
X140611415Y-100488992D01*
X140656794Y-100591766D01*
X140674380Y-100609352D01*
X140688732Y-100644000D01*
X140674380Y-100678648D01*
X140656794Y-100696233D01*
X140611415Y-100799006D01*
X140608500Y-100824134D01*
X140608500Y-101113858D01*
X140608501Y-101113868D01*
X140611415Y-101138992D01*
X140656794Y-101241766D01*
X140674379Y-101259350D01*
X140688732Y-101293998D01*
X140674382Y-101328646D01*
X140656794Y-101346234D01*
X140656792Y-101346238D01*
X140611415Y-101449006D01*
X140608500Y-101474134D01*
X140608500Y-101763858D01*
X140608501Y-101763868D01*
X140611415Y-101788992D01*
X140656794Y-101891766D01*
X140674380Y-101909352D01*
X140688732Y-101944000D01*
X140674380Y-101978648D01*
X140656794Y-101996233D01*
X140611415Y-102099006D01*
X140608500Y-102124134D01*
X140608500Y-102413858D01*
X140608501Y-102413868D01*
X140611415Y-102438992D01*
X140656794Y-102541766D01*
X140736233Y-102621205D01*
X140839006Y-102666584D01*
X140839009Y-102666585D01*
X140864135Y-102669500D01*
X141537087Y-102669499D01*
X141571735Y-102683851D01*
X144216093Y-105328209D01*
X144222187Y-105335634D01*
X144234876Y-105354624D01*
X144257277Y-105369591D01*
X144257288Y-105369600D01*
X144257878Y-105369994D01*
X144326006Y-105415516D01*
X144433500Y-105436897D01*
X144452252Y-105433167D01*
X144455904Y-105432441D01*
X144465462Y-105431500D01*
X147253434Y-105431500D01*
X147288082Y-105445852D01*
X147302434Y-105480500D01*
X147302434Y-106025748D01*
X147314067Y-106084231D01*
X147331816Y-106110795D01*
X147358381Y-106150552D01*
X147384946Y-106168301D01*
X147424703Y-106194867D01*
X147483186Y-106206500D01*
X147483189Y-106206500D01*
X149222679Y-106206500D01*
X149222682Y-106206500D01*
X149281165Y-106194867D01*
X149347486Y-106150552D01*
X149391801Y-106084231D01*
X149403434Y-106025748D01*
X149403434Y-104286252D01*
X149391801Y-104227769D01*
X149365235Y-104188012D01*
X149347486Y-104161447D01*
X149307729Y-104134882D01*
X149281165Y-104117133D01*
X149222682Y-104105500D01*
X147483186Y-104105500D01*
X147424703Y-104117133D01*
X147358381Y-104161447D01*
X147325019Y-104211378D01*
X147314067Y-104227769D01*
X147302434Y-104286252D01*
X147302434Y-104286254D01*
X147302434Y-104286255D01*
X147302434Y-104831500D01*
X147288082Y-104866148D01*
X147253434Y-104880500D01*
X144567912Y-104880500D01*
X144533264Y-104866148D01*
X142357191Y-102690075D01*
X142342839Y-102655427D01*
X142357190Y-102620780D01*
X142436206Y-102541765D01*
X142481585Y-102438991D01*
X142481594Y-102438911D01*
X142481618Y-102438867D01*
X142482552Y-102435437D01*
X142483400Y-102435667D01*
X142499842Y-102406148D01*
X142535913Y-102395883D01*
X142564916Y-102409909D01*
X142943213Y-102788206D01*
X142949305Y-102795629D01*
X142961997Y-102814622D01*
X142961999Y-102814624D01*
X142984397Y-102829590D01*
X142984415Y-102829603D01*
X143011156Y-102847471D01*
X143039200Y-102866208D01*
X143053128Y-102875515D01*
X143133490Y-102891500D01*
X143133491Y-102891500D01*
X143160623Y-102896897D01*
X143160624Y-102896897D01*
X143183020Y-102892442D01*
X143192580Y-102891500D01*
X149471588Y-102891500D01*
X149506236Y-102905852D01*
X151081148Y-104480764D01*
X151095500Y-104515410D01*
X151095500Y-106025748D01*
X151107133Y-106084231D01*
X151124882Y-106110795D01*
X151151447Y-106150552D01*
X151178012Y-106168301D01*
X151217769Y-106194867D01*
X151276252Y-106206500D01*
X151276255Y-106206500D01*
X153015745Y-106206500D01*
X153015748Y-106206500D01*
X153074231Y-106194867D01*
X153140552Y-106150552D01*
X153184867Y-106084231D01*
X153196500Y-106025748D01*
X153196500Y-104286252D01*
X153184867Y-104227769D01*
X153158301Y-104188012D01*
X153140552Y-104161447D01*
X153100795Y-104134882D01*
X153074231Y-104117133D01*
X153015748Y-104105500D01*
X153015745Y-104105500D01*
X151505412Y-104105500D01*
X151470764Y-104091148D01*
X150005264Y-102625648D01*
X149990912Y-102591000D01*
X150005264Y-102556352D01*
X150039912Y-102542000D01*
X152915154Y-102542000D01*
X152949802Y-102556352D01*
X154874214Y-104480764D01*
X154888566Y-104515411D01*
X154888566Y-106025748D01*
X154900199Y-106084231D01*
X154917948Y-106110795D01*
X154944513Y-106150552D01*
X154971078Y-106168301D01*
X155010835Y-106194867D01*
X155069318Y-106206500D01*
X155069321Y-106206500D01*
X156808811Y-106206500D01*
X156808814Y-106206500D01*
X156867297Y-106194867D01*
X156933618Y-106150552D01*
X156977933Y-106084231D01*
X156989566Y-106025748D01*
X156989566Y-104286252D01*
X156977933Y-104227769D01*
X156951367Y-104188012D01*
X156933618Y-104161447D01*
X156893861Y-104134882D01*
X156867297Y-104117133D01*
X156808814Y-104105500D01*
X156808811Y-104105500D01*
X155298478Y-104105500D01*
X155263830Y-104091148D01*
X153448830Y-102276148D01*
X153434478Y-102241500D01*
X153448830Y-102206852D01*
X153483478Y-102192500D01*
X156358720Y-102192500D01*
X156393368Y-102206852D01*
X158667280Y-104480764D01*
X158681632Y-104515411D01*
X158681632Y-106025748D01*
X158693265Y-106084231D01*
X158711014Y-106110795D01*
X158737579Y-106150552D01*
X158764144Y-106168301D01*
X158803901Y-106194867D01*
X158862384Y-106206500D01*
X160532132Y-106206500D01*
X160566780Y-106220852D01*
X160581132Y-106255500D01*
X160581132Y-106432807D01*
X160566781Y-106467454D01*
X160553089Y-106481147D01*
X160518442Y-106495500D01*
X148782034Y-106495500D01*
X148758190Y-106489307D01*
X148708424Y-106461587D01*
X148708423Y-106461586D01*
X148683561Y-106453253D01*
X148680423Y-106451953D01*
X148656967Y-106440273D01*
X148656957Y-106440269D01*
X148577180Y-106417570D01*
X148576099Y-106417236D01*
X148497468Y-106390882D01*
X148471514Y-106387261D01*
X148468193Y-106386561D01*
X148442970Y-106379385D01*
X148442961Y-106379384D01*
X148412980Y-106376605D01*
X148360347Y-106371728D01*
X148359236Y-106371599D01*
X148277118Y-106360144D01*
X148277117Y-106360144D01*
X148277115Y-106360144D01*
X148246307Y-106361568D01*
X148194269Y-106363974D01*
X148193138Y-106364000D01*
X140701796Y-106364000D01*
X140700665Y-106363974D01*
X140656784Y-106361945D01*
X140617819Y-106360144D01*
X140617818Y-106360144D01*
X140617816Y-106360144D01*
X140617813Y-106360144D01*
X140535696Y-106371599D01*
X140534580Y-106371729D01*
X140491897Y-106375684D01*
X140451962Y-106379385D01*
X140426740Y-106386560D01*
X140423417Y-106387261D01*
X140397464Y-106390882D01*
X140318833Y-106417236D01*
X140317752Y-106417570D01*
X140237974Y-106440270D01*
X140237961Y-106440275D01*
X140214514Y-106451951D01*
X140211377Y-106453250D01*
X140186517Y-106461583D01*
X140186513Y-106461585D01*
X140114053Y-106501945D01*
X140113052Y-106502472D01*
X140038809Y-106539443D01*
X140038803Y-106539447D01*
X140017892Y-106555237D01*
X140015048Y-106557091D01*
X139992150Y-106569845D01*
X139928347Y-106622826D01*
X139927460Y-106623529D01*
X139861265Y-106673518D01*
X139805387Y-106734812D01*
X139804605Y-106735630D01*
X137991089Y-108549148D01*
X137956441Y-108563500D01*
X137031559Y-108563500D01*
X136996911Y-108549148D01*
X135568893Y-107121130D01*
X135568111Y-107120311D01*
X135512236Y-107059019D01*
X135512233Y-107059016D01*
X135446049Y-107009037D01*
X135445162Y-107008334D01*
X135381353Y-106955348D01*
X135381346Y-106955344D01*
X135358452Y-106942592D01*
X135355607Y-106940738D01*
X135334689Y-106924942D01*
X135334686Y-106924940D01*
X135298524Y-106906934D01*
X135260428Y-106887964D01*
X135259476Y-106887462D01*
X135186989Y-106847087D01*
X135186989Y-106847086D01*
X135162127Y-106838753D01*
X135158989Y-106837453D01*
X135135533Y-106825773D01*
X135135523Y-106825769D01*
X135055746Y-106803070D01*
X135054665Y-106802736D01*
X134976034Y-106776382D01*
X134950080Y-106772761D01*
X134946759Y-106772061D01*
X134921536Y-106764885D01*
X134921527Y-106764884D01*
X134891546Y-106762105D01*
X134838913Y-106757228D01*
X134837802Y-106757099D01*
X134755684Y-106745644D01*
X134755683Y-106745644D01*
X134755681Y-106745644D01*
X134724873Y-106747068D01*
X134672835Y-106749474D01*
X134671704Y-106749500D01*
X120043498Y-106749500D01*
X120008850Y-106735148D01*
X119994498Y-106700500D01*
X119994498Y-106505562D01*
X120008850Y-106470914D01*
X120043498Y-106456562D01*
X120053058Y-106457504D01*
X120068120Y-106460500D01*
X120068121Y-106460500D01*
X121807613Y-106460500D01*
X121807616Y-106460500D01*
X121866099Y-106448867D01*
X121932420Y-106404552D01*
X121976735Y-106338231D01*
X121988368Y-106279748D01*
X121988367Y-104769411D01*
X122002720Y-104734763D01*
X124339632Y-102397852D01*
X124374280Y-102383500D01*
X127249522Y-102383500D01*
X127284170Y-102397852D01*
X127298522Y-102432500D01*
X127284170Y-102467148D01*
X125406170Y-104345148D01*
X125371522Y-104359500D01*
X123861186Y-104359500D01*
X123802702Y-104371133D01*
X123802703Y-104371133D01*
X123736381Y-104415447D01*
X123692739Y-104480763D01*
X123692067Y-104481769D01*
X123680434Y-104540252D01*
X123680434Y-106279748D01*
X123692067Y-106338231D01*
X123706709Y-106360144D01*
X123736381Y-106404552D01*
X123755864Y-106417570D01*
X123802703Y-106448867D01*
X123861186Y-106460500D01*
X123861189Y-106460500D01*
X125600679Y-106460500D01*
X125600682Y-106460500D01*
X125659165Y-106448867D01*
X125725486Y-106404552D01*
X125769801Y-106338231D01*
X125781434Y-106279748D01*
X125781433Y-104769410D01*
X125795784Y-104734764D01*
X127783197Y-102747352D01*
X127817846Y-102733000D01*
X130693088Y-102733000D01*
X130727736Y-102747352D01*
X130742088Y-102782000D01*
X130727736Y-102816648D01*
X129199236Y-104345148D01*
X129164588Y-104359500D01*
X127654252Y-104359500D01*
X127595769Y-104371132D01*
X127595769Y-104371133D01*
X127529447Y-104415447D01*
X127485805Y-104480763D01*
X127485133Y-104481769D01*
X127473500Y-104540252D01*
X127473500Y-106279748D01*
X127485133Y-106338231D01*
X127499775Y-106360144D01*
X127529447Y-106404552D01*
X127548930Y-106417570D01*
X127595769Y-106448867D01*
X127654252Y-106460500D01*
X127654255Y-106460500D01*
X129393745Y-106460500D01*
X129393748Y-106460500D01*
X129452231Y-106448867D01*
X129518552Y-106404552D01*
X129562867Y-106338231D01*
X129574500Y-106279748D01*
X129574500Y-104769410D01*
X129588851Y-104734764D01*
X131226763Y-103096852D01*
X131261412Y-103082500D01*
X133136654Y-103082500D01*
X133171302Y-103096852D01*
X133185654Y-103131500D01*
X133171302Y-103166148D01*
X132144854Y-104192594D01*
X132137431Y-104198686D01*
X132118444Y-104211373D01*
X132118439Y-104211378D01*
X132060231Y-104298493D01*
X132054138Y-104305917D01*
X132053604Y-104306450D01*
X132054652Y-104317077D01*
X132054061Y-104320051D01*
X132033231Y-104351237D01*
X132006001Y-104359500D01*
X131447318Y-104359500D01*
X131388834Y-104371132D01*
X131388835Y-104371133D01*
X131322513Y-104415447D01*
X131278199Y-104481769D01*
X131266565Y-104540255D01*
X131266565Y-106279744D01*
X131266566Y-106279748D01*
X131278199Y-106338231D01*
X131292841Y-106360144D01*
X131322513Y-106404552D01*
X131341996Y-106417570D01*
X131388835Y-106448867D01*
X131447318Y-106460500D01*
X131447321Y-106460500D01*
X133186811Y-106460500D01*
X133186814Y-106460500D01*
X133245297Y-106448867D01*
X133311618Y-106404552D01*
X133355933Y-106338231D01*
X133367566Y-106279748D01*
X133367566Y-104540252D01*
X133355933Y-104481769D01*
X133329367Y-104442012D01*
X133311618Y-104415447D01*
X133271861Y-104388882D01*
X133245297Y-104371133D01*
X133186814Y-104359500D01*
X133186811Y-104359500D01*
X132875478Y-104359500D01*
X132840830Y-104345148D01*
X132826478Y-104310500D01*
X132840830Y-104275852D01*
X134495903Y-102620778D01*
X135084786Y-102031894D01*
X135119433Y-102017543D01*
X135125081Y-102017870D01*
X135135877Y-102019122D01*
X135139135Y-102019500D01*
X136503864Y-102019499D01*
X136528991Y-102016585D01*
X136631765Y-101971206D01*
X136711206Y-101891765D01*
X136756585Y-101788991D01*
X136759500Y-101763865D01*
X136759499Y-101474136D01*
X136756585Y-101449009D01*
X136711206Y-101346235D01*
X136711205Y-101346234D01*
X136711205Y-101346233D01*
X136693619Y-101328647D01*
X136679267Y-101293999D01*
X136693618Y-101259352D01*
X136711206Y-101241765D01*
X136756585Y-101138991D01*
X136759500Y-101113865D01*
X136759499Y-100824136D01*
X136756585Y-100799009D01*
X136711206Y-100696235D01*
X136711205Y-100696234D01*
X136711205Y-100696233D01*
X136693620Y-100678649D01*
X136679267Y-100644001D01*
X136693618Y-100609353D01*
X136711205Y-100591766D01*
X136711205Y-100591765D01*
X136711206Y-100591765D01*
X136756585Y-100488991D01*
X136759500Y-100463865D01*
X136759499Y-100174136D01*
X136756585Y-100149009D01*
X136711206Y-100046235D01*
X136711205Y-100046234D01*
X136711205Y-100046233D01*
X136693620Y-100028649D01*
X136679267Y-99994001D01*
X136693618Y-99959353D01*
X136711205Y-99941766D01*
X136711204Y-99941766D01*
X136711206Y-99941765D01*
X136756585Y-99838991D01*
X136756585Y-99838989D01*
X136757001Y-99838048D01*
X136784125Y-99812149D01*
X136821618Y-99813015D01*
X136831654Y-99818965D01*
X136857159Y-99838536D01*
X136857161Y-99838536D01*
X136857163Y-99838538D01*
X137003237Y-99899044D01*
X137003238Y-99899044D01*
X137160000Y-99919682D01*
X137316762Y-99899044D01*
X137462841Y-99838536D01*
X137588282Y-99742282D01*
X137684536Y-99616841D01*
X137745044Y-99470762D01*
X137765682Y-99314000D01*
X137745044Y-99157238D01*
X137684536Y-99011159D01*
X137588282Y-98885718D01*
X137535050Y-98844872D01*
X137516300Y-98812396D01*
X137526006Y-98776171D01*
X137535045Y-98767131D01*
X137588282Y-98726282D01*
X137684536Y-98600841D01*
X137745044Y-98454762D01*
X137765682Y-98298000D01*
X137745044Y-98141238D01*
X137742805Y-98135833D01*
X137684538Y-97995163D01*
X137684535Y-97995158D01*
X137681931Y-97991765D01*
X137588282Y-97869718D01*
X137522707Y-97819401D01*
X137462841Y-97773464D01*
X137462836Y-97773461D01*
X137316761Y-97712955D01*
X137160000Y-97692318D01*
X137003238Y-97712955D01*
X136857160Y-97773462D01*
X136857159Y-97773463D01*
X136838328Y-97787913D01*
X136802102Y-97797619D01*
X136769624Y-97778867D01*
X136759499Y-97749038D01*
X136759499Y-97574141D01*
X136759498Y-97574135D01*
X136756585Y-97549009D01*
X136711206Y-97446235D01*
X136708471Y-97443500D01*
X136693618Y-97428646D01*
X136679267Y-97393998D01*
X136693619Y-97359351D01*
X136711206Y-97341765D01*
X136756585Y-97238991D01*
X136759500Y-97213865D01*
X136759499Y-96924136D01*
X136756585Y-96899009D01*
X136711206Y-96796235D01*
X136711205Y-96796234D01*
X136711205Y-96796233D01*
X136631766Y-96716794D01*
X136631767Y-96716794D01*
X136528993Y-96671415D01*
X136516428Y-96669957D01*
X136503865Y-96668500D01*
X136503863Y-96668500D01*
X135139141Y-96668500D01*
X135139131Y-96668501D01*
X135114007Y-96671415D01*
X135011233Y-96716794D01*
X134948881Y-96779148D01*
X134914233Y-96793500D01*
X134743189Y-96793500D01*
X134708541Y-96779148D01*
X133361629Y-95432235D01*
X133347277Y-95397587D01*
X133347277Y-94647708D01*
X133347277Y-93887252D01*
X133335644Y-93828769D01*
X133309078Y-93789012D01*
X133291329Y-93762447D01*
X133251572Y-93735882D01*
X133225008Y-93718133D01*
X133166525Y-93706500D01*
X131427029Y-93706500D01*
X131368545Y-93718133D01*
X131368546Y-93718133D01*
X131302224Y-93762447D01*
X131257910Y-93828769D01*
X131246276Y-93887255D01*
X131246277Y-95557000D01*
X131231925Y-95591648D01*
X131197277Y-95606000D01*
X129737928Y-95606000D01*
X129703280Y-95591648D01*
X129543868Y-95432236D01*
X129529516Y-95397588D01*
X129529516Y-93887255D01*
X129529515Y-93887254D01*
X129529516Y-93887252D01*
X129517883Y-93828769D01*
X129491317Y-93789012D01*
X129473568Y-93762447D01*
X129433811Y-93735882D01*
X129407247Y-93718133D01*
X129348764Y-93706500D01*
X127609268Y-93706500D01*
X127550784Y-93718133D01*
X127550785Y-93718133D01*
X127484463Y-93762447D01*
X127440149Y-93828769D01*
X127428515Y-93887255D01*
X127428515Y-95626744D01*
X127428516Y-95626748D01*
X127440149Y-95685231D01*
X127457898Y-95711795D01*
X127484463Y-95751552D01*
X127498382Y-95760852D01*
X127550785Y-95795867D01*
X127609268Y-95807500D01*
X129119604Y-95807500D01*
X129154252Y-95821852D01*
X129345252Y-96012852D01*
X129359604Y-96047500D01*
X129345252Y-96082148D01*
X129310604Y-96096500D01*
X119669713Y-96096500D01*
X119668582Y-96096474D01*
X119624701Y-96094445D01*
X119585736Y-96092644D01*
X119585735Y-96092644D01*
X119585733Y-96092644D01*
X119585730Y-96092644D01*
X119503613Y-96104099D01*
X119502497Y-96104229D01*
X119459814Y-96108184D01*
X119419879Y-96111885D01*
X119394657Y-96119060D01*
X119391334Y-96119761D01*
X119365381Y-96123382D01*
X119286751Y-96149736D01*
X119285670Y-96150070D01*
X119205891Y-96172770D01*
X119205878Y-96172775D01*
X119182425Y-96184454D01*
X119179288Y-96185753D01*
X119154434Y-96194084D01*
X119081977Y-96234441D01*
X119080976Y-96234968D01*
X119006735Y-96271937D01*
X119006727Y-96271942D01*
X118985814Y-96287735D01*
X118982969Y-96289589D01*
X118960058Y-96302350D01*
X118960055Y-96302352D01*
X118896258Y-96355330D01*
X118895371Y-96356032D01*
X118829185Y-96406014D01*
X118773304Y-96467312D01*
X118772522Y-96468130D01*
X117965128Y-97275524D01*
X117964310Y-97276306D01*
X117903016Y-97332184D01*
X117853027Y-97398379D01*
X117852324Y-97399266D01*
X117799343Y-97463069D01*
X117786589Y-97485967D01*
X117784735Y-97488811D01*
X117768945Y-97509722D01*
X117768941Y-97509728D01*
X117731970Y-97583971D01*
X117731443Y-97584972D01*
X117691083Y-97657432D01*
X117691081Y-97657436D01*
X117682748Y-97682296D01*
X117681449Y-97685433D01*
X117669773Y-97708880D01*
X117669768Y-97708893D01*
X117647068Y-97788671D01*
X117646734Y-97789752D01*
X117620380Y-97868383D01*
X117616759Y-97894336D01*
X117616058Y-97897659D01*
X117608883Y-97922881D01*
X117608070Y-97931657D01*
X117601747Y-97999895D01*
X117601228Y-98005491D01*
X117601097Y-98006615D01*
X117589642Y-98088732D01*
X117589642Y-98088735D01*
X117593472Y-98171584D01*
X117593498Y-98172715D01*
X117593498Y-107336832D01*
X117593472Y-107337963D01*
X117589642Y-107420814D01*
X116462201Y-107420814D01*
X116466183Y-95626748D01*
X119792998Y-95626748D01*
X119804631Y-95685231D01*
X119822380Y-95711795D01*
X119848945Y-95751552D01*
X119862864Y-95760852D01*
X119915267Y-95795867D01*
X119973750Y-95807500D01*
X119973753Y-95807500D01*
X121713243Y-95807500D01*
X121713246Y-95807500D01*
X121771729Y-95795867D01*
X121838050Y-95751552D01*
X121882365Y-95685231D01*
X121893998Y-95626748D01*
X123610757Y-95626748D01*
X123622390Y-95685231D01*
X123640139Y-95711795D01*
X123666704Y-95751552D01*
X123680623Y-95760852D01*
X123733026Y-95795867D01*
X123791509Y-95807500D01*
X123791512Y-95807500D01*
X125531002Y-95807500D01*
X125531005Y-95807500D01*
X125589488Y-95795867D01*
X125655809Y-95751552D01*
X125700124Y-95685231D01*
X125711757Y-95626748D01*
X125711757Y-93887252D01*
X125700124Y-93828769D01*
X125673558Y-93789012D01*
X125655809Y-93762447D01*
X125616052Y-93735882D01*
X125589488Y-93718133D01*
X125531005Y-93706500D01*
X123791509Y-93706500D01*
X123733025Y-93718133D01*
X123733026Y-93718133D01*
X123666704Y-93762447D01*
X123623559Y-93827019D01*
X123622390Y-93828769D01*
X123610757Y-93887252D01*
X123610757Y-95626748D01*
X121893998Y-95626748D01*
X121893998Y-93887252D01*
X121882365Y-93828769D01*
X121855799Y-93789012D01*
X121838050Y-93762447D01*
X121798293Y-93735882D01*
X121771729Y-93718133D01*
X121713246Y-93706500D01*
X119973750Y-93706500D01*
X119915267Y-93718133D01*
X119848945Y-93762447D01*
X119805800Y-93827019D01*
X119804631Y-93828769D01*
X119792998Y-93887252D01*
X119792998Y-95626748D01*
X116466183Y-95626748D01*
X116467327Y-92237246D01*
X136547501Y-92237246D01*
X136563050Y-92335420D01*
X136563050Y-92335421D01*
X136563051Y-92335422D01*
X136623339Y-92453746D01*
X136623343Y-92453751D01*
X136717249Y-92547657D01*
X136717254Y-92547661D01*
X136794959Y-92587253D01*
X136835581Y-92607951D01*
X136933755Y-92623500D01*
X136933756Y-92623500D01*
X137437246Y-92623500D01*
X137437247Y-92623500D01*
X137535421Y-92607951D01*
X137616403Y-92566688D01*
X137653747Y-92547661D01*
X137653748Y-92547659D01*
X137653752Y-92547658D01*
X137747659Y-92453751D01*
X137805704Y-92339833D01*
X137807950Y-92335424D01*
X137807951Y-92335422D01*
X137807952Y-92335420D01*
X137807952Y-92335415D01*
X137808948Y-92332354D01*
X137833307Y-92303839D01*
X137855549Y-92298500D01*
X138239616Y-92298500D01*
X138274264Y-92312852D01*
X138288012Y-92339831D01*
X138289354Y-92348304D01*
X138289354Y-92348305D01*
X138289355Y-92348307D01*
X138346945Y-92461335D01*
X138346950Y-92461342D01*
X138436657Y-92551049D01*
X138436664Y-92551054D01*
X138549691Y-92608644D01*
X138549692Y-92608644D01*
X138549696Y-92608646D01*
X138643481Y-92623500D01*
X139106518Y-92623499D01*
X139200304Y-92608646D01*
X139261387Y-92577522D01*
X139313335Y-92551054D01*
X139313337Y-92551052D01*
X139313342Y-92551050D01*
X139403050Y-92461342D01*
X139406918Y-92453751D01*
X139460644Y-92348309D01*
X139460644Y-92348307D01*
X139460646Y-92348304D01*
X139475500Y-92254519D01*
X139475499Y-91641482D01*
X139460646Y-91547696D01*
X139445745Y-91518451D01*
X139403054Y-91434664D01*
X139403049Y-91434657D01*
X139313342Y-91344950D01*
X139313335Y-91344945D01*
X139200308Y-91287355D01*
X139200305Y-91287354D01*
X139200304Y-91287354D01*
X139106519Y-91272500D01*
X139106517Y-91272500D01*
X138643482Y-91272500D01*
X138549696Y-91287353D01*
X138436664Y-91344945D01*
X138436657Y-91344950D01*
X138346950Y-91434657D01*
X138346945Y-91434664D01*
X138289355Y-91547692D01*
X138289354Y-91547694D01*
X138289354Y-91547696D01*
X138288012Y-91556168D01*
X138268416Y-91588143D01*
X138239616Y-91597500D01*
X137855549Y-91597500D01*
X137820901Y-91583148D01*
X137808948Y-91563646D01*
X137807950Y-91560575D01*
X137747663Y-91442255D01*
X137747658Y-91442248D01*
X137653752Y-91348342D01*
X137653747Y-91348338D01*
X137535423Y-91288050D01*
X137535422Y-91288049D01*
X137535421Y-91288049D01*
X137437247Y-91272500D01*
X136933755Y-91272500D01*
X136835581Y-91288049D01*
X136835579Y-91288049D01*
X136835578Y-91288050D01*
X136717254Y-91348338D01*
X136717249Y-91348342D01*
X136623343Y-91442248D01*
X136623339Y-91442253D01*
X136563051Y-91560577D01*
X136563050Y-91560578D01*
X136563050Y-91560580D01*
X136547501Y-91658754D01*
X136547501Y-92237246D01*
X116467327Y-92237246D01*
X116468018Y-90191284D01*
X116468526Y-90190060D01*
X116468526Y-90170963D01*
X116468602Y-90169040D01*
X116469702Y-90155057D01*
X116473071Y-90112243D01*
X116485761Y-89967015D01*
X116486921Y-89959887D01*
X116507701Y-89873333D01*
X116507853Y-89872739D01*
X116537774Y-89761070D01*
X116538789Y-89758079D01*
X116575709Y-89668947D01*
X116576097Y-89668066D01*
X116622619Y-89568300D01*
X116623913Y-89565890D01*
X116675405Y-89481864D01*
X116676180Y-89480683D01*
X116738195Y-89392118D01*
X116739598Y-89390305D01*
X116804112Y-89314771D01*
X116805362Y-89313420D01*
X116881431Y-89237353D01*
X116882807Y-89236080D01*
X116958328Y-89171581D01*
X116960149Y-89170171D01*
X117048708Y-89108163D01*
X117049873Y-89107399D01*
X117133905Y-89055906D01*
X117136313Y-89054612D01*
X117236069Y-89008096D01*
X117236953Y-89007706D01*
X117326098Y-88970783D01*
X117329100Y-88969764D01*
X117440855Y-88939822D01*
X117441258Y-88939719D01*
X117527908Y-88918918D01*
X117535063Y-88917752D01*
X117678110Y-88905240D01*
X117737407Y-88900574D01*
X117739321Y-88900500D01*
X162305037Y-88900500D01*
X162306959Y-88900576D01*
G37*
%TD.AperFunction*%
%TD*%
M02*
