%TF.GenerationSoftware,KiCad,Pcbnew,7.99.0-957-g18dd623122*%
%TF.CreationDate,2023-08-18T16:19:00-04:00*%
%TF.ProjectId,pca9685,70636139-3638-4352-9e6b-696361645f70,V1.0*%
%TF.SameCoordinates,Original*%
%TF.FileFunction,Copper,L2,Bot*%
%TF.FilePolarity,Positive*%
%FSLAX46Y46*%
G04 Gerber Fmt 4.6, Leading zero omitted, Abs format (unit mm)*
G04 Created by KiCad (PCBNEW 7.99.0-957-g18dd623122) date 2023-08-18 16:19:00*
%MOMM*%
%LPD*%
G01*
G04 APERTURE LIST*
%TA.AperFunction,ComponentPad*%
%ADD10R,1.700000X1.700000*%
%TD*%
%TA.AperFunction,ComponentPad*%
%ADD11O,1.700000X1.700000*%
%TD*%
%TA.AperFunction,ComponentPad*%
%ADD12R,1.980000X3.960000*%
%TD*%
%TA.AperFunction,ComponentPad*%
%ADD13O,1.980000X3.960000*%
%TD*%
%TA.AperFunction,ViaPad*%
%ADD14C,0.800000*%
%TD*%
%TA.AperFunction,Conductor*%
%ADD15C,0.150000*%
%TD*%
G04 APERTURE END LIST*
D10*
%TO.P,J9,1,Pin_1*%
%TO.N,/LED8*%
X148352934Y-105156000D03*
D11*
%TO.P,J9,2,Pin_2*%
%TO.N,/VDD*%
X148352934Y-107696000D03*
%TO.P,J9,3,Pin_3*%
%TO.N,GND*%
X148352934Y-110236000D03*
%TD*%
D10*
%TO.P,J8,1,Pin_1*%
%TO.N,/LED7*%
X132317066Y-105410000D03*
D11*
%TO.P,J8,2,Pin_2*%
%TO.N,/VDD*%
X132317066Y-107950000D03*
%TO.P,J8,3,Pin_3*%
%TO.N,GND*%
X132317066Y-110490000D03*
%TD*%
D10*
%TO.P,J10,1,Pin_1*%
%TO.N,/LED9*%
X152146000Y-105156000D03*
D11*
%TO.P,J10,2,Pin_2*%
%TO.N,/VDD*%
X152146000Y-107696000D03*
%TO.P,J10,3,Pin_3*%
%TO.N,GND*%
X152146000Y-110236000D03*
%TD*%
D10*
%TO.P,J13,1,Pin_1*%
%TO.N,/LED12*%
X159371058Y-94742000D03*
D11*
%TO.P,J13,2,Pin_2*%
%TO.N,/VDD*%
X159371058Y-97282000D03*
%TO.P,J13,3,Pin_3*%
%TO.N,GND*%
X159371058Y-99822000D03*
%TD*%
D10*
%TO.P,J16,1,Pin_1*%
%TO.N,/LED15*%
X148152472Y-94742000D03*
D11*
%TO.P,J16,2,Pin_2*%
%TO.N,/VDD*%
X148152472Y-97282000D03*
%TO.P,J16,3,Pin_3*%
%TO.N,GND*%
X148152472Y-99822000D03*
%TD*%
D10*
%TO.P,J5,1,Pin_1*%
%TO.N,/LED4*%
X120937868Y-105410000D03*
D11*
%TO.P,J5,2,Pin_2*%
%TO.N,/VDD*%
X120937868Y-107950000D03*
%TO.P,J5,3,Pin_3*%
%TO.N,GND*%
X120937868Y-110490000D03*
%TD*%
D10*
%TO.P,J1,1,Pin_1*%
%TO.N,/LED0*%
X132296777Y-94757000D03*
D11*
%TO.P,J1,2,Pin_2*%
%TO.N,/VDD*%
X132296777Y-97297000D03*
%TO.P,J1,3,Pin_3*%
%TO.N,GND*%
X132296777Y-99837000D03*
%TD*%
D10*
%TO.P,J12,1,Pin_1*%
%TO.N,/LED11*%
X159732132Y-105156000D03*
D11*
%TO.P,J12,2,Pin_2*%
%TO.N,/VDD*%
X159732132Y-107696000D03*
%TO.P,J12,3,Pin_3*%
%TO.N,GND*%
X159732132Y-110236000D03*
%TD*%
D12*
%TO.P,J18,1,Pin_1*%
%TO.N,/VDD*%
X137494000Y-110744000D03*
D13*
%TO.P,J18,2,Pin_2*%
%TO.N,GND*%
X142494000Y-110744000D03*
%TD*%
D10*
%TO.P,J17,1,Pin_1*%
%TO.N,/SCL*%
X150875999Y-90932000D03*
D11*
%TO.P,J17,2,Pin_2*%
%TO.N,/SDA*%
X148335999Y-90932000D03*
%TO.P,J17,3,Pin_3*%
%TO.N,GND*%
X145796000Y-90932000D03*
%TO.P,J17,4,Pin_4*%
%TO.N,+3.3V*%
X143255999Y-90932000D03*
%TD*%
D10*
%TO.P,J14,1,Pin_1*%
%TO.N,/LED13*%
X155631528Y-94742000D03*
D11*
%TO.P,J14,2,Pin_2*%
%TO.N,/VDD*%
X155631528Y-97282000D03*
%TO.P,J14,3,Pin_3*%
%TO.N,GND*%
X155631528Y-99822000D03*
%TD*%
D10*
%TO.P,J11,1,Pin_1*%
%TO.N,/LED10*%
X155939066Y-105156000D03*
D11*
%TO.P,J11,2,Pin_2*%
%TO.N,/VDD*%
X155939066Y-107696000D03*
%TO.P,J11,3,Pin_3*%
%TO.N,GND*%
X155939066Y-110236000D03*
%TD*%
D10*
%TO.P,J4,1,Pin_1*%
%TO.N,/LED3*%
X120843498Y-94757000D03*
D11*
%TO.P,J4,2,Pin_2*%
%TO.N,/VDD*%
X120843498Y-97297000D03*
%TO.P,J4,3,Pin_3*%
%TO.N,GND*%
X120843498Y-99837000D03*
%TD*%
D10*
%TO.P,J6,1,Pin_1*%
%TO.N,/LED5*%
X124730934Y-105410000D03*
D11*
%TO.P,J6,2,Pin_2*%
%TO.N,/VDD*%
X124730934Y-107950000D03*
%TO.P,J6,3,Pin_3*%
%TO.N,GND*%
X124730934Y-110490000D03*
%TD*%
D10*
%TO.P,J2,1,Pin_1*%
%TO.N,/LED1*%
X128479016Y-94757000D03*
D11*
%TO.P,J2,2,Pin_2*%
%TO.N,/VDD*%
X128479016Y-97297000D03*
%TO.P,J2,3,Pin_3*%
%TO.N,GND*%
X128479016Y-99837000D03*
%TD*%
D10*
%TO.P,J15,1,Pin_1*%
%TO.N,/LED14*%
X151892000Y-94742000D03*
D11*
%TO.P,J15,2,Pin_2*%
%TO.N,/VDD*%
X151892000Y-97282000D03*
%TO.P,J15,3,Pin_3*%
%TO.N,GND*%
X151892000Y-99822000D03*
%TD*%
D10*
%TO.P,J3,1,Pin_1*%
%TO.N,/LED2*%
X124661257Y-94757000D03*
D11*
%TO.P,J3,2,Pin_2*%
%TO.N,/VDD*%
X124661257Y-97297000D03*
%TO.P,J3,3,Pin_3*%
%TO.N,GND*%
X124661257Y-99837000D03*
%TD*%
D10*
%TO.P,J7,1,Pin_1*%
%TO.N,/LED6*%
X128524000Y-105410000D03*
D11*
%TO.P,J7,2,Pin_2*%
%TO.N,/VDD*%
X128524000Y-107950000D03*
%TO.P,J7,3,Pin_3*%
%TO.N,GND*%
X128524000Y-110490000D03*
%TD*%
D14*
%TO.N,/LED2*%
X137160000Y-98298000D03*
%TO.N,/LED3*%
X137160000Y-99314000D03*
%TO.N,/LED12*%
X143002000Y-100059503D03*
%TO.N,/LED13*%
X143002000Y-99060000D03*
%TO.N,/SCL*%
X143256000Y-95250000D03*
%TD*%
D15*
%TO.N,/LED2*%
X125946257Y-93472000D02*
X124661257Y-94757000D01*
X133260777Y-93472000D02*
X125946257Y-93472000D01*
X137160000Y-98298000D02*
X137160000Y-97371223D01*
X137160000Y-97371223D02*
X133260777Y-93472000D01*
%TO.N,/LED3*%
X137834500Y-98639500D02*
X137834500Y-97551455D01*
X137160000Y-99314000D02*
X137834500Y-98639500D01*
X122636498Y-92964000D02*
X120843498Y-94757000D01*
X133247045Y-92964000D02*
X122636498Y-92964000D01*
X137834500Y-97551455D02*
X133247045Y-92964000D01*
%TO.N,/LED12*%
X147027972Y-93617500D02*
X142240000Y-98405472D01*
X142240000Y-99297503D02*
X143002000Y-100059503D01*
X158246558Y-93617500D02*
X147027972Y-93617500D01*
X159371058Y-94742000D02*
X158246558Y-93617500D01*
X142240000Y-98405472D02*
X142240000Y-99297503D01*
%TO.N,/LED13*%
X154507028Y-95866500D02*
X155631528Y-94742000D01*
X143002000Y-99060000D02*
X146195500Y-95866500D01*
X146195500Y-95866500D02*
X154507028Y-95866500D01*
%TO.N,/SCL*%
X144901204Y-95250000D02*
X146883204Y-93268000D01*
X143256000Y-95250000D02*
X144901204Y-95250000D01*
X146883204Y-93268000D02*
X148539999Y-93268000D01*
X148539999Y-93268000D02*
X150875999Y-90932000D01*
%TD*%
%TA.AperFunction,Conductor*%
%TO.N,GND*%
G36*
X162306959Y-88900576D02*
G01*
X162318762Y-88901504D01*
X162363017Y-88904987D01*
X162509140Y-88917772D01*
X162516282Y-88918936D01*
X162601706Y-88939444D01*
X162602307Y-88939597D01*
X162715099Y-88969819D01*
X162718120Y-88970845D01*
X162806509Y-89007456D01*
X162807403Y-89007850D01*
X162907908Y-89054717D01*
X162910322Y-89056014D01*
X162993734Y-89107129D01*
X162994985Y-89107949D01*
X163084090Y-89170341D01*
X163085909Y-89171749D01*
X163160948Y-89235838D01*
X163162347Y-89237131D01*
X163238866Y-89313650D01*
X163240159Y-89315049D01*
X163304245Y-89390084D01*
X163305662Y-89391915D01*
X163336747Y-89436309D01*
X163368049Y-89481013D01*
X163368869Y-89482264D01*
X163419976Y-89565661D01*
X163421288Y-89568104D01*
X163456566Y-89643757D01*
X163468132Y-89668559D01*
X163468563Y-89669538D01*
X163505150Y-89757869D01*
X163506181Y-89760907D01*
X163536398Y-89873681D01*
X163536556Y-89874302D01*
X163557060Y-89959704D01*
X163558228Y-89966872D01*
X163571023Y-90113128D01*
X163575424Y-90169040D01*
X163575500Y-90170964D01*
X163575500Y-112013035D01*
X163575424Y-112014959D01*
X163571023Y-112070870D01*
X163558228Y-112217126D01*
X163557060Y-112224294D01*
X163536556Y-112309696D01*
X163536398Y-112310317D01*
X163506181Y-112423091D01*
X163505150Y-112426129D01*
X163468563Y-112514460D01*
X163468132Y-112515439D01*
X163421292Y-112615888D01*
X163419976Y-112618337D01*
X163368869Y-112701734D01*
X163368049Y-112702985D01*
X163305671Y-112792072D01*
X163304231Y-112793932D01*
X163240160Y-112868948D01*
X163238854Y-112870361D01*
X163162361Y-112946854D01*
X163160948Y-112948160D01*
X163085932Y-113012231D01*
X163084072Y-113013671D01*
X162994985Y-113076049D01*
X162993734Y-113076869D01*
X162910337Y-113127976D01*
X162907888Y-113129292D01*
X162807439Y-113176132D01*
X162806460Y-113176563D01*
X162718129Y-113213150D01*
X162715091Y-113214181D01*
X162602317Y-113244398D01*
X162601696Y-113244556D01*
X162516294Y-113265060D01*
X162509126Y-113266228D01*
X162362870Y-113279023D01*
X162306959Y-113283424D01*
X162305035Y-113283500D01*
X117756773Y-113283500D01*
X117754849Y-113283424D01*
X117697674Y-113278923D01*
X117548779Y-113265925D01*
X117541601Y-113264757D01*
X117453134Y-113243517D01*
X117452513Y-113243359D01*
X117338802Y-113212891D01*
X117335763Y-113211860D01*
X117244767Y-113174167D01*
X117243789Y-113173737D01*
X117142214Y-113126372D01*
X117139765Y-113125056D01*
X117054005Y-113072501D01*
X117052753Y-113071680D01*
X116962556Y-113008521D01*
X116960696Y-113007081D01*
X116883627Y-112941255D01*
X116882214Y-112939949D01*
X116804725Y-112862459D01*
X116803430Y-112861059D01*
X116737588Y-112783965D01*
X116736157Y-112782118D01*
X116709291Y-112743748D01*
X136303500Y-112743748D01*
X136315133Y-112802231D01*
X136332882Y-112828795D01*
X136359447Y-112868552D01*
X136386012Y-112886301D01*
X136425769Y-112912867D01*
X136484252Y-112924500D01*
X136484255Y-112924500D01*
X138503745Y-112924500D01*
X138503748Y-112924500D01*
X138562231Y-112912867D01*
X138628552Y-112868552D01*
X138672867Y-112802231D01*
X138684500Y-112743748D01*
X138684500Y-108744252D01*
X138672867Y-108685769D01*
X138646301Y-108646012D01*
X138628552Y-108619447D01*
X138588795Y-108592882D01*
X138562231Y-108575133D01*
X138503748Y-108563500D01*
X136484252Y-108563500D01*
X136433059Y-108573683D01*
X136425769Y-108575133D01*
X136359447Y-108619447D01*
X136324846Y-108671232D01*
X136315133Y-108685769D01*
X136303500Y-108744252D01*
X136303500Y-112743748D01*
X116709291Y-112743748D01*
X116699940Y-112730393D01*
X116672991Y-112691902D01*
X116672183Y-112690671D01*
X116619622Y-112604895D01*
X116618316Y-112602465D01*
X116570917Y-112500812D01*
X116570518Y-112499902D01*
X116539963Y-112426129D01*
X116532827Y-112408900D01*
X116531798Y-112405873D01*
X116501303Y-112292047D01*
X116501192Y-112291610D01*
X116479926Y-112203016D01*
X116478765Y-112195886D01*
X116466038Y-112050356D01*
X116461233Y-111989273D01*
X116461159Y-111987394D01*
X116461159Y-110507998D01*
X116462023Y-107950000D01*
X119882285Y-107950000D01*
X119902568Y-108155934D01*
X119962636Y-108353954D01*
X120060183Y-108536450D01*
X120191458Y-108696410D01*
X120351418Y-108827685D01*
X120533914Y-108925232D01*
X120731934Y-108985300D01*
X120937868Y-109005583D01*
X121143802Y-108985300D01*
X121341822Y-108925232D01*
X121524318Y-108827685D01*
X121684278Y-108696410D01*
X121815553Y-108536450D01*
X121913100Y-108353954D01*
X121973168Y-108155934D01*
X121993451Y-107950000D01*
X123675351Y-107950000D01*
X123695634Y-108155934D01*
X123755702Y-108353954D01*
X123853249Y-108536450D01*
X123984524Y-108696410D01*
X124144484Y-108827685D01*
X124326980Y-108925232D01*
X124525000Y-108985300D01*
X124710650Y-109003585D01*
X124730933Y-109005583D01*
X124730933Y-109005582D01*
X124730934Y-109005583D01*
X124936868Y-108985300D01*
X125134888Y-108925232D01*
X125317384Y-108827685D01*
X125477344Y-108696410D01*
X125608619Y-108536450D01*
X125706166Y-108353954D01*
X125766234Y-108155934D01*
X125786517Y-107950000D01*
X127468417Y-107950000D01*
X127488700Y-108155934D01*
X127548768Y-108353954D01*
X127646315Y-108536450D01*
X127777590Y-108696410D01*
X127937550Y-108827685D01*
X128120046Y-108925232D01*
X128318066Y-108985300D01*
X128524000Y-109005583D01*
X128729934Y-108985300D01*
X128927954Y-108925232D01*
X129110450Y-108827685D01*
X129270410Y-108696410D01*
X129401685Y-108536450D01*
X129499232Y-108353954D01*
X129559300Y-108155934D01*
X129579583Y-107950000D01*
X131261483Y-107950000D01*
X131281766Y-108155934D01*
X131341834Y-108353954D01*
X131439381Y-108536450D01*
X131570656Y-108696410D01*
X131730616Y-108827685D01*
X131913112Y-108925232D01*
X132111132Y-108985300D01*
X132317066Y-109005583D01*
X132523000Y-108985300D01*
X132721020Y-108925232D01*
X132903516Y-108827685D01*
X133063476Y-108696410D01*
X133194751Y-108536450D01*
X133292298Y-108353954D01*
X133352366Y-108155934D01*
X133372649Y-107950000D01*
X133352366Y-107744066D01*
X133337786Y-107696000D01*
X147297351Y-107696000D01*
X147317634Y-107901934D01*
X147377702Y-108099954D01*
X147475249Y-108282450D01*
X147606524Y-108442410D01*
X147766484Y-108573685D01*
X147948980Y-108671232D01*
X148147000Y-108731300D01*
X148352934Y-108751583D01*
X148558868Y-108731300D01*
X148756888Y-108671232D01*
X148939384Y-108573685D01*
X149099344Y-108442410D01*
X149230619Y-108282450D01*
X149328166Y-108099954D01*
X149388234Y-107901934D01*
X149408517Y-107696000D01*
X151090417Y-107696000D01*
X151110700Y-107901934D01*
X151170768Y-108099954D01*
X151268315Y-108282450D01*
X151399590Y-108442410D01*
X151559550Y-108573685D01*
X151742046Y-108671232D01*
X151940066Y-108731300D01*
X152146000Y-108751583D01*
X152351934Y-108731300D01*
X152549954Y-108671232D01*
X152732450Y-108573685D01*
X152892410Y-108442410D01*
X153023685Y-108282450D01*
X153121232Y-108099954D01*
X153181300Y-107901934D01*
X153201583Y-107696000D01*
X154883483Y-107696000D01*
X154903766Y-107901934D01*
X154963834Y-108099954D01*
X155061381Y-108282450D01*
X155192656Y-108442410D01*
X155352616Y-108573685D01*
X155535112Y-108671232D01*
X155733132Y-108731300D01*
X155918782Y-108749585D01*
X155939065Y-108751583D01*
X155939065Y-108751582D01*
X155939066Y-108751583D01*
X156145000Y-108731300D01*
X156343020Y-108671232D01*
X156525516Y-108573685D01*
X156685476Y-108442410D01*
X156816751Y-108282450D01*
X156914298Y-108099954D01*
X156974366Y-107901934D01*
X156994649Y-107696000D01*
X158676549Y-107696000D01*
X158696832Y-107901934D01*
X158756900Y-108099954D01*
X158854447Y-108282450D01*
X158985722Y-108442410D01*
X159145682Y-108573685D01*
X159328178Y-108671232D01*
X159526198Y-108731300D01*
X159711847Y-108749585D01*
X159732131Y-108751583D01*
X159732131Y-108751582D01*
X159732132Y-108751583D01*
X159938066Y-108731300D01*
X160136086Y-108671232D01*
X160318582Y-108573685D01*
X160478542Y-108442410D01*
X160609817Y-108282450D01*
X160707364Y-108099954D01*
X160767432Y-107901934D01*
X160787715Y-107696000D01*
X160767432Y-107490066D01*
X160707364Y-107292046D01*
X160609817Y-107109550D01*
X160478542Y-106949590D01*
X160318582Y-106818315D01*
X160136086Y-106720768D01*
X159938066Y-106660700D01*
X159732132Y-106640417D01*
X159526197Y-106660700D01*
X159526196Y-106660700D01*
X159328175Y-106720769D01*
X159145680Y-106818316D01*
X158985722Y-106949590D01*
X158854448Y-107109548D01*
X158756901Y-107292043D01*
X158696832Y-107490064D01*
X158696832Y-107490065D01*
X158696832Y-107490066D01*
X158676549Y-107696000D01*
X156994649Y-107696000D01*
X156974366Y-107490066D01*
X156914298Y-107292046D01*
X156816751Y-107109550D01*
X156685476Y-106949590D01*
X156525516Y-106818315D01*
X156343020Y-106720768D01*
X156145000Y-106660700D01*
X155939066Y-106640417D01*
X155733131Y-106660700D01*
X155733130Y-106660700D01*
X155535109Y-106720769D01*
X155352614Y-106818316D01*
X155192656Y-106949590D01*
X155061382Y-107109548D01*
X154963835Y-107292043D01*
X154903766Y-107490064D01*
X154903766Y-107490065D01*
X154903766Y-107490066D01*
X154883483Y-107696000D01*
X153201583Y-107696000D01*
X153181300Y-107490066D01*
X153121232Y-107292046D01*
X153023685Y-107109550D01*
X152892410Y-106949590D01*
X152732450Y-106818315D01*
X152549954Y-106720768D01*
X152351934Y-106660700D01*
X152146000Y-106640417D01*
X151940065Y-106660700D01*
X151940064Y-106660700D01*
X151742043Y-106720769D01*
X151559548Y-106818316D01*
X151399590Y-106949590D01*
X151268316Y-107109548D01*
X151170769Y-107292043D01*
X151110700Y-107490064D01*
X151110700Y-107490065D01*
X151110700Y-107490066D01*
X151090417Y-107696000D01*
X149408517Y-107696000D01*
X149388234Y-107490066D01*
X149328166Y-107292046D01*
X149230619Y-107109550D01*
X149099344Y-106949590D01*
X148939384Y-106818315D01*
X148756888Y-106720768D01*
X148558868Y-106660700D01*
X148352934Y-106640417D01*
X148146999Y-106660700D01*
X148146998Y-106660700D01*
X147948977Y-106720769D01*
X147766482Y-106818316D01*
X147606524Y-106949590D01*
X147475250Y-107109548D01*
X147377703Y-107292043D01*
X147317634Y-107490064D01*
X147317634Y-107490065D01*
X147317634Y-107490066D01*
X147297351Y-107696000D01*
X133337786Y-107696000D01*
X133292298Y-107546046D01*
X133194751Y-107363550D01*
X133063476Y-107203590D01*
X132903516Y-107072315D01*
X132721020Y-106974768D01*
X132523000Y-106914700D01*
X132317066Y-106894417D01*
X132111131Y-106914700D01*
X132111130Y-106914700D01*
X131913109Y-106974769D01*
X131730614Y-107072316D01*
X131570656Y-107203590D01*
X131439382Y-107363548D01*
X131341835Y-107546043D01*
X131281766Y-107744064D01*
X131281766Y-107744065D01*
X131281766Y-107744066D01*
X131261483Y-107950000D01*
X129579583Y-107950000D01*
X129559300Y-107744066D01*
X129499232Y-107546046D01*
X129401685Y-107363550D01*
X129270410Y-107203590D01*
X129110450Y-107072315D01*
X128927954Y-106974768D01*
X128729934Y-106914700D01*
X128524000Y-106894417D01*
X128318065Y-106914700D01*
X128318064Y-106914700D01*
X128120043Y-106974769D01*
X127937548Y-107072316D01*
X127777590Y-107203590D01*
X127646316Y-107363548D01*
X127548769Y-107546043D01*
X127488700Y-107744064D01*
X127488700Y-107744065D01*
X127488700Y-107744066D01*
X127468417Y-107950000D01*
X125786517Y-107950000D01*
X125766234Y-107744066D01*
X125706166Y-107546046D01*
X125608619Y-107363550D01*
X125477344Y-107203590D01*
X125317384Y-107072315D01*
X125134888Y-106974768D01*
X124936868Y-106914700D01*
X124730934Y-106894417D01*
X124524999Y-106914700D01*
X124524998Y-106914700D01*
X124326977Y-106974769D01*
X124144482Y-107072316D01*
X123984524Y-107203590D01*
X123853250Y-107363548D01*
X123755703Y-107546043D01*
X123695634Y-107744064D01*
X123695634Y-107744065D01*
X123695634Y-107744066D01*
X123675351Y-107950000D01*
X121993451Y-107950000D01*
X121973168Y-107744066D01*
X121913100Y-107546046D01*
X121815553Y-107363550D01*
X121684278Y-107203590D01*
X121524318Y-107072315D01*
X121341822Y-106974768D01*
X121143802Y-106914700D01*
X120937868Y-106894417D01*
X120731933Y-106914700D01*
X120731932Y-106914700D01*
X120533911Y-106974769D01*
X120351416Y-107072316D01*
X120191458Y-107203590D01*
X120060184Y-107363548D01*
X119962637Y-107546043D01*
X119902568Y-107744064D01*
X119902568Y-107744065D01*
X119902568Y-107744066D01*
X119882285Y-107950000D01*
X116462023Y-107950000D01*
X116462587Y-106279748D01*
X119887368Y-106279748D01*
X119899001Y-106338231D01*
X119916750Y-106364795D01*
X119943315Y-106404552D01*
X119969880Y-106422301D01*
X120009637Y-106448867D01*
X120068120Y-106460500D01*
X120068123Y-106460500D01*
X121807613Y-106460500D01*
X121807616Y-106460500D01*
X121866099Y-106448867D01*
X121932420Y-106404552D01*
X121976735Y-106338231D01*
X121988368Y-106279748D01*
X123680434Y-106279748D01*
X123692067Y-106338231D01*
X123709816Y-106364795D01*
X123736381Y-106404552D01*
X123762946Y-106422301D01*
X123802703Y-106448867D01*
X123861186Y-106460500D01*
X123861189Y-106460500D01*
X125600679Y-106460500D01*
X125600682Y-106460500D01*
X125659165Y-106448867D01*
X125725486Y-106404552D01*
X125769801Y-106338231D01*
X125781434Y-106279748D01*
X127473500Y-106279748D01*
X127485133Y-106338231D01*
X127502882Y-106364795D01*
X127529447Y-106404552D01*
X127556012Y-106422301D01*
X127595769Y-106448867D01*
X127654252Y-106460500D01*
X127654255Y-106460500D01*
X129393745Y-106460500D01*
X129393748Y-106460500D01*
X129452231Y-106448867D01*
X129518552Y-106404552D01*
X129562867Y-106338231D01*
X129574500Y-106279748D01*
X129574500Y-106279744D01*
X131266565Y-106279744D01*
X131266566Y-106279748D01*
X131278199Y-106338231D01*
X131295948Y-106364795D01*
X131322513Y-106404552D01*
X131349078Y-106422301D01*
X131388835Y-106448867D01*
X131447318Y-106460500D01*
X131447321Y-106460500D01*
X133186811Y-106460500D01*
X133186814Y-106460500D01*
X133245297Y-106448867D01*
X133311618Y-106404552D01*
X133355933Y-106338231D01*
X133367566Y-106279748D01*
X133367566Y-106025748D01*
X147302434Y-106025748D01*
X147314067Y-106084231D01*
X147331816Y-106110795D01*
X147358381Y-106150552D01*
X147384946Y-106168301D01*
X147424703Y-106194867D01*
X147483186Y-106206500D01*
X147483189Y-106206500D01*
X149222679Y-106206500D01*
X149222682Y-106206500D01*
X149281165Y-106194867D01*
X149347486Y-106150552D01*
X149391801Y-106084231D01*
X149403434Y-106025748D01*
X151095500Y-106025748D01*
X151107133Y-106084231D01*
X151124882Y-106110795D01*
X151151447Y-106150552D01*
X151178012Y-106168301D01*
X151217769Y-106194867D01*
X151276252Y-106206500D01*
X151276255Y-106206500D01*
X153015745Y-106206500D01*
X153015748Y-106206500D01*
X153074231Y-106194867D01*
X153140552Y-106150552D01*
X153184867Y-106084231D01*
X153196500Y-106025748D01*
X154888566Y-106025748D01*
X154900199Y-106084231D01*
X154917948Y-106110795D01*
X154944513Y-106150552D01*
X154971078Y-106168301D01*
X155010835Y-106194867D01*
X155069318Y-106206500D01*
X155069321Y-106206500D01*
X156808811Y-106206500D01*
X156808814Y-106206500D01*
X156867297Y-106194867D01*
X156933618Y-106150552D01*
X156977933Y-106084231D01*
X156989566Y-106025748D01*
X158681632Y-106025748D01*
X158693265Y-106084231D01*
X158711014Y-106110795D01*
X158737579Y-106150552D01*
X158764144Y-106168301D01*
X158803901Y-106194867D01*
X158862384Y-106206500D01*
X158862387Y-106206500D01*
X160601877Y-106206500D01*
X160601880Y-106206500D01*
X160660363Y-106194867D01*
X160726684Y-106150552D01*
X160770999Y-106084231D01*
X160782632Y-106025748D01*
X160782632Y-104286252D01*
X160770999Y-104227769D01*
X160744433Y-104188012D01*
X160726684Y-104161447D01*
X160686927Y-104134882D01*
X160660363Y-104117133D01*
X160601880Y-104105500D01*
X158862384Y-104105500D01*
X158803900Y-104117133D01*
X158803901Y-104117133D01*
X158737579Y-104161447D01*
X158693265Y-104227769D01*
X158681632Y-104286252D01*
X158681632Y-106025748D01*
X156989566Y-106025748D01*
X156989566Y-104286252D01*
X156977933Y-104227769D01*
X156951367Y-104188012D01*
X156933618Y-104161447D01*
X156893861Y-104134882D01*
X156867297Y-104117133D01*
X156808814Y-104105500D01*
X155069318Y-104105500D01*
X155010835Y-104117132D01*
X155010835Y-104117133D01*
X154944513Y-104161447D01*
X154900199Y-104227769D01*
X154888566Y-104286252D01*
X154888566Y-106025748D01*
X153196500Y-106025748D01*
X153196500Y-104286252D01*
X153184867Y-104227769D01*
X153158301Y-104188012D01*
X153140552Y-104161447D01*
X153100795Y-104134882D01*
X153074231Y-104117133D01*
X153015748Y-104105500D01*
X151276252Y-104105500D01*
X151217768Y-104117132D01*
X151217769Y-104117133D01*
X151151447Y-104161447D01*
X151107133Y-104227768D01*
X151107133Y-104227769D01*
X151095500Y-104286252D01*
X151095500Y-106025748D01*
X149403434Y-106025748D01*
X149403434Y-104286252D01*
X149391801Y-104227769D01*
X149365235Y-104188012D01*
X149347486Y-104161447D01*
X149307729Y-104134882D01*
X149281165Y-104117133D01*
X149222682Y-104105500D01*
X147483186Y-104105500D01*
X147424703Y-104117133D01*
X147358381Y-104161447D01*
X147314067Y-104227769D01*
X147302434Y-104286252D01*
X147302434Y-106025748D01*
X133367566Y-106025748D01*
X133367566Y-104540252D01*
X133355933Y-104481769D01*
X133329367Y-104442012D01*
X133311618Y-104415447D01*
X133271861Y-104388882D01*
X133245297Y-104371133D01*
X133186814Y-104359500D01*
X131447318Y-104359500D01*
X131388834Y-104371132D01*
X131388835Y-104371133D01*
X131322513Y-104415447D01*
X131278199Y-104481769D01*
X131266565Y-104540255D01*
X131266565Y-106279744D01*
X129574500Y-106279744D01*
X129574500Y-104540252D01*
X129562867Y-104481769D01*
X129536301Y-104442012D01*
X129518552Y-104415447D01*
X129478795Y-104388882D01*
X129452231Y-104371133D01*
X129393748Y-104359500D01*
X127654252Y-104359500D01*
X127595769Y-104371132D01*
X127595769Y-104371133D01*
X127529447Y-104415447D01*
X127485132Y-104481768D01*
X127485133Y-104481769D01*
X127473500Y-104540252D01*
X127473500Y-106279748D01*
X125781434Y-106279748D01*
X125781434Y-104540252D01*
X125769801Y-104481769D01*
X125743235Y-104442012D01*
X125725486Y-104415447D01*
X125685729Y-104388882D01*
X125659165Y-104371133D01*
X125600682Y-104359500D01*
X123861186Y-104359500D01*
X123802702Y-104371133D01*
X123802703Y-104371133D01*
X123736381Y-104415447D01*
X123692067Y-104481768D01*
X123692067Y-104481769D01*
X123680434Y-104540252D01*
X123680434Y-106279748D01*
X121988368Y-106279748D01*
X121988368Y-104540252D01*
X121976735Y-104481769D01*
X121950169Y-104442012D01*
X121932420Y-104415447D01*
X121892663Y-104388882D01*
X121866099Y-104371133D01*
X121807616Y-104359500D01*
X120068120Y-104359500D01*
X120009637Y-104371132D01*
X120009637Y-104371133D01*
X119943315Y-104415447D01*
X119899001Y-104481768D01*
X119899001Y-104481769D01*
X119887368Y-104540252D01*
X119887368Y-106279748D01*
X116462587Y-106279748D01*
X116465619Y-97297000D01*
X119787915Y-97297000D01*
X119808198Y-97502934D01*
X119808198Y-97502935D01*
X119822917Y-97551456D01*
X119868266Y-97700954D01*
X119965813Y-97883450D01*
X120097088Y-98043410D01*
X120257048Y-98174685D01*
X120439544Y-98272232D01*
X120637564Y-98332300D01*
X120823214Y-98350585D01*
X120843497Y-98352583D01*
X120843497Y-98352582D01*
X120843498Y-98352583D01*
X121049432Y-98332300D01*
X121247452Y-98272232D01*
X121429948Y-98174685D01*
X121589908Y-98043410D01*
X121721183Y-97883450D01*
X121818730Y-97700954D01*
X121878798Y-97502934D01*
X121899081Y-97297000D01*
X123605674Y-97297000D01*
X123625957Y-97502934D01*
X123625957Y-97502935D01*
X123640676Y-97551456D01*
X123686025Y-97700954D01*
X123783572Y-97883450D01*
X123914847Y-98043410D01*
X124074807Y-98174685D01*
X124257303Y-98272232D01*
X124455323Y-98332300D01*
X124661257Y-98352583D01*
X124867191Y-98332300D01*
X125065211Y-98272232D01*
X125247707Y-98174685D01*
X125407667Y-98043410D01*
X125538942Y-97883450D01*
X125636489Y-97700954D01*
X125696557Y-97502934D01*
X125716840Y-97297000D01*
X127423433Y-97297000D01*
X127443716Y-97502934D01*
X127443716Y-97502935D01*
X127458435Y-97551456D01*
X127503784Y-97700954D01*
X127601331Y-97883450D01*
X127732606Y-98043410D01*
X127892566Y-98174685D01*
X128075062Y-98272232D01*
X128273082Y-98332300D01*
X128479016Y-98352583D01*
X128684950Y-98332300D01*
X128882970Y-98272232D01*
X129065466Y-98174685D01*
X129225426Y-98043410D01*
X129356701Y-97883450D01*
X129454248Y-97700954D01*
X129514316Y-97502934D01*
X129534599Y-97297000D01*
X131241194Y-97297000D01*
X131261477Y-97502934D01*
X131261477Y-97502935D01*
X131276196Y-97551456D01*
X131321545Y-97700954D01*
X131419092Y-97883450D01*
X131550367Y-98043410D01*
X131710327Y-98174685D01*
X131892823Y-98272232D01*
X132090843Y-98332300D01*
X132276493Y-98350585D01*
X132296776Y-98352583D01*
X132296776Y-98352582D01*
X132296777Y-98352583D01*
X132502711Y-98332300D01*
X132700731Y-98272232D01*
X132883227Y-98174685D01*
X133043187Y-98043410D01*
X133174462Y-97883450D01*
X133272009Y-97700954D01*
X133332077Y-97502934D01*
X133352360Y-97297000D01*
X133332077Y-97091066D01*
X133272009Y-96893046D01*
X133174462Y-96710550D01*
X133043187Y-96550590D01*
X132883227Y-96419315D01*
X132700731Y-96321768D01*
X132502711Y-96261700D01*
X132296777Y-96241417D01*
X132090842Y-96261700D01*
X132090841Y-96261700D01*
X131892820Y-96321769D01*
X131710325Y-96419316D01*
X131550367Y-96550590D01*
X131419093Y-96710548D01*
X131321546Y-96893043D01*
X131261477Y-97091064D01*
X131261477Y-97091065D01*
X131241194Y-97296999D01*
X131241194Y-97297000D01*
X129534599Y-97297000D01*
X129514316Y-97091066D01*
X129454248Y-96893046D01*
X129356701Y-96710550D01*
X129225426Y-96550590D01*
X129065466Y-96419315D01*
X128882970Y-96321768D01*
X128684950Y-96261700D01*
X128479016Y-96241417D01*
X128273081Y-96261700D01*
X128273080Y-96261700D01*
X128075059Y-96321769D01*
X127892564Y-96419316D01*
X127732606Y-96550590D01*
X127601332Y-96710548D01*
X127503785Y-96893043D01*
X127443716Y-97091064D01*
X127443716Y-97091065D01*
X127423433Y-97296999D01*
X127423433Y-97297000D01*
X125716840Y-97297000D01*
X125696557Y-97091066D01*
X125636489Y-96893046D01*
X125538942Y-96710550D01*
X125407667Y-96550590D01*
X125247707Y-96419315D01*
X125065211Y-96321768D01*
X124867191Y-96261700D01*
X124661257Y-96241417D01*
X124455322Y-96261700D01*
X124455321Y-96261700D01*
X124257300Y-96321769D01*
X124074805Y-96419316D01*
X123914847Y-96550590D01*
X123783573Y-96710548D01*
X123686026Y-96893043D01*
X123625957Y-97091064D01*
X123625957Y-97091065D01*
X123605674Y-97296999D01*
X123605674Y-97297000D01*
X121899081Y-97297000D01*
X121878798Y-97091066D01*
X121818730Y-96893046D01*
X121721183Y-96710550D01*
X121589908Y-96550590D01*
X121429948Y-96419315D01*
X121247452Y-96321768D01*
X121049432Y-96261700D01*
X120843498Y-96241417D01*
X120637563Y-96261700D01*
X120637562Y-96261700D01*
X120439541Y-96321769D01*
X120257046Y-96419316D01*
X120097088Y-96550590D01*
X119965814Y-96710548D01*
X119868267Y-96893043D01*
X119808198Y-97091064D01*
X119808198Y-97091065D01*
X119787915Y-97296999D01*
X119787915Y-97297000D01*
X116465619Y-97297000D01*
X116466183Y-95626748D01*
X119792998Y-95626748D01*
X119804631Y-95685231D01*
X119805723Y-95686865D01*
X119848945Y-95751552D01*
X119875510Y-95769301D01*
X119915267Y-95795867D01*
X119973750Y-95807500D01*
X119973753Y-95807500D01*
X121713243Y-95807500D01*
X121713246Y-95807500D01*
X121771729Y-95795867D01*
X121838050Y-95751552D01*
X121882365Y-95685231D01*
X121893998Y-95626748D01*
X121893998Y-94116410D01*
X121908350Y-94081763D01*
X122736262Y-93253852D01*
X122770910Y-93239500D01*
X125670844Y-93239500D01*
X125705492Y-93253852D01*
X125719844Y-93288500D01*
X125705492Y-93323148D01*
X125336493Y-93692148D01*
X125301845Y-93706500D01*
X123791509Y-93706500D01*
X123733025Y-93718133D01*
X123733026Y-93718133D01*
X123666704Y-93762447D01*
X123625762Y-93823723D01*
X123622390Y-93828769D01*
X123610757Y-93887252D01*
X123610757Y-95626748D01*
X123622390Y-95685231D01*
X123623482Y-95686865D01*
X123666704Y-95751552D01*
X123693269Y-95769301D01*
X123733026Y-95795867D01*
X123791509Y-95807500D01*
X123791512Y-95807500D01*
X125531002Y-95807500D01*
X125531005Y-95807500D01*
X125589488Y-95795867D01*
X125655809Y-95751552D01*
X125700124Y-95685231D01*
X125711757Y-95626748D01*
X125711757Y-94116411D01*
X125726109Y-94081764D01*
X126046021Y-93761852D01*
X126080669Y-93747500D01*
X127402779Y-93747500D01*
X127437427Y-93761852D01*
X127451779Y-93796500D01*
X127443521Y-93823723D01*
X127440149Y-93828769D01*
X127428515Y-93887255D01*
X127428515Y-95626744D01*
X127433470Y-95651653D01*
X127440149Y-95685231D01*
X127441241Y-95686865D01*
X127484463Y-95751552D01*
X127511028Y-95769301D01*
X127550785Y-95795867D01*
X127609268Y-95807500D01*
X127609271Y-95807500D01*
X129348761Y-95807500D01*
X129348764Y-95807500D01*
X129407247Y-95795867D01*
X129473568Y-95751552D01*
X129517883Y-95685231D01*
X129529516Y-95626748D01*
X129529516Y-93887252D01*
X129517883Y-93828769D01*
X129514510Y-93823722D01*
X129507195Y-93786940D01*
X129528030Y-93755758D01*
X129555253Y-93747500D01*
X131220540Y-93747500D01*
X131255188Y-93761852D01*
X131269540Y-93796500D01*
X131261282Y-93823722D01*
X131257910Y-93828769D01*
X131246277Y-93887252D01*
X131246277Y-95626748D01*
X131257910Y-95685231D01*
X131259002Y-95686865D01*
X131302224Y-95751552D01*
X131328789Y-95769301D01*
X131368546Y-95795867D01*
X131427029Y-95807500D01*
X131427032Y-95807500D01*
X133166522Y-95807500D01*
X133166525Y-95807500D01*
X133225008Y-95795867D01*
X133291329Y-95751552D01*
X133335644Y-95685231D01*
X133347277Y-95626748D01*
X133347276Y-94066410D01*
X133361628Y-94031763D01*
X133396276Y-94017411D01*
X133430923Y-94031763D01*
X136870148Y-97470987D01*
X136884500Y-97505634D01*
X136884500Y-97729397D01*
X136870148Y-97764045D01*
X136859562Y-97771196D01*
X136859943Y-97771856D01*
X136857157Y-97773464D01*
X136731718Y-97869717D01*
X136731717Y-97869718D01*
X136635464Y-97995158D01*
X136635461Y-97995163D01*
X136574955Y-98141238D01*
X136554318Y-98298000D01*
X136574955Y-98454761D01*
X136635461Y-98600836D01*
X136635464Y-98600841D01*
X136684131Y-98664266D01*
X136731718Y-98726282D01*
X136758712Y-98746995D01*
X136784947Y-98767126D01*
X136803698Y-98799605D01*
X136793991Y-98835830D01*
X136784947Y-98844874D01*
X136731716Y-98885719D01*
X136635464Y-99011158D01*
X136635461Y-99011163D01*
X136574955Y-99157238D01*
X136554318Y-99314000D01*
X136574955Y-99470761D01*
X136635461Y-99616836D01*
X136635464Y-99616841D01*
X136731718Y-99742282D01*
X136857159Y-99838536D01*
X136857161Y-99838536D01*
X136857163Y-99838538D01*
X136946156Y-99875400D01*
X137003238Y-99899044D01*
X137160000Y-99919682D01*
X137316762Y-99899044D01*
X137462841Y-99838536D01*
X137588282Y-99742282D01*
X137684536Y-99616841D01*
X137745044Y-99470762D01*
X137765682Y-99314000D01*
X137763510Y-99297502D01*
X141959103Y-99297502D01*
X141962384Y-99314000D01*
X141964500Y-99324635D01*
X141964500Y-99324636D01*
X141980485Y-99404998D01*
X142010930Y-99450562D01*
X142041376Y-99496128D01*
X142060364Y-99508815D01*
X142067790Y-99514909D01*
X142405129Y-99852248D01*
X142419481Y-99886896D01*
X142417098Y-99899459D01*
X142417786Y-99899644D01*
X142416955Y-99902741D01*
X142396318Y-100059503D01*
X142416955Y-100216264D01*
X142477461Y-100362339D01*
X142477464Y-100362344D01*
X142573718Y-100487785D01*
X142699159Y-100584039D01*
X142699161Y-100584039D01*
X142699163Y-100584041D01*
X142845238Y-100644546D01*
X142845238Y-100644547D01*
X143002000Y-100665185D01*
X143158762Y-100644547D01*
X143304841Y-100584039D01*
X143430282Y-100487785D01*
X143526536Y-100362344D01*
X143587044Y-100216265D01*
X143607682Y-100059503D01*
X143587044Y-99902741D01*
X143560450Y-99838538D01*
X143526538Y-99756666D01*
X143526535Y-99756661D01*
X143430282Y-99631221D01*
X143430281Y-99631220D01*
X143387802Y-99598625D01*
X143369050Y-99566147D01*
X143378757Y-99529922D01*
X143387795Y-99520882D01*
X143430282Y-99488282D01*
X143526536Y-99362841D01*
X143587044Y-99216762D01*
X143607682Y-99060000D01*
X143587044Y-98903238D01*
X143587042Y-98903234D01*
X143586213Y-98900138D01*
X143588201Y-98899604D01*
X143588318Y-98868471D01*
X143598867Y-98852747D01*
X146295263Y-96156352D01*
X146329912Y-96142000D01*
X148012157Y-96142000D01*
X148046805Y-96156352D01*
X148061157Y-96191000D01*
X148046805Y-96225648D01*
X148016960Y-96239763D01*
X147991904Y-96242231D01*
X147946537Y-96246700D01*
X147946536Y-96246700D01*
X147748515Y-96306769D01*
X147566020Y-96404316D01*
X147406062Y-96535590D01*
X147274788Y-96695548D01*
X147177241Y-96878043D01*
X147117172Y-97076064D01*
X147117172Y-97076065D01*
X147117172Y-97076066D01*
X147096889Y-97282000D01*
X147117172Y-97487934D01*
X147177240Y-97685954D01*
X147274787Y-97868450D01*
X147406062Y-98028410D01*
X147566022Y-98159685D01*
X147748518Y-98257232D01*
X147946538Y-98317300D01*
X148132188Y-98335585D01*
X148152471Y-98337583D01*
X148152471Y-98337582D01*
X148152472Y-98337583D01*
X148358406Y-98317300D01*
X148556426Y-98257232D01*
X148738922Y-98159685D01*
X148898882Y-98028410D01*
X149030157Y-97868450D01*
X149127704Y-97685954D01*
X149187772Y-97487934D01*
X149208055Y-97282000D01*
X149187772Y-97076066D01*
X149127704Y-96878046D01*
X149030157Y-96695550D01*
X148898882Y-96535590D01*
X148738922Y-96404315D01*
X148556426Y-96306768D01*
X148358406Y-96246700D01*
X148287983Y-96239763D01*
X148254909Y-96222085D01*
X148244023Y-96186197D01*
X148261702Y-96153122D01*
X148292787Y-96142000D01*
X151751685Y-96142000D01*
X151786333Y-96156352D01*
X151800685Y-96191000D01*
X151786333Y-96225648D01*
X151756488Y-96239763D01*
X151731432Y-96242231D01*
X151686065Y-96246700D01*
X151686064Y-96246700D01*
X151488043Y-96306769D01*
X151305548Y-96404316D01*
X151145590Y-96535590D01*
X151014316Y-96695548D01*
X150916769Y-96878043D01*
X150856700Y-97076064D01*
X150856700Y-97076065D01*
X150856700Y-97076066D01*
X150836417Y-97282000D01*
X150856700Y-97487934D01*
X150916768Y-97685954D01*
X151014315Y-97868450D01*
X151145590Y-98028410D01*
X151305550Y-98159685D01*
X151488046Y-98257232D01*
X151686066Y-98317300D01*
X151892000Y-98337583D01*
X152097934Y-98317300D01*
X152295954Y-98257232D01*
X152478450Y-98159685D01*
X152638410Y-98028410D01*
X152769685Y-97868450D01*
X152867232Y-97685954D01*
X152927300Y-97487934D01*
X152947583Y-97282000D01*
X154575945Y-97282000D01*
X154596228Y-97487934D01*
X154656296Y-97685954D01*
X154753843Y-97868450D01*
X154885118Y-98028410D01*
X155045078Y-98159685D01*
X155227574Y-98257232D01*
X155425594Y-98317300D01*
X155611243Y-98335585D01*
X155631527Y-98337583D01*
X155631527Y-98337582D01*
X155631528Y-98337583D01*
X155837462Y-98317300D01*
X156035482Y-98257232D01*
X156217978Y-98159685D01*
X156377938Y-98028410D01*
X156509213Y-97868450D01*
X156606760Y-97685954D01*
X156666828Y-97487934D01*
X156687111Y-97282000D01*
X158315475Y-97282000D01*
X158335758Y-97487934D01*
X158395826Y-97685954D01*
X158493373Y-97868450D01*
X158624648Y-98028410D01*
X158784608Y-98159685D01*
X158967104Y-98257232D01*
X159165124Y-98317300D01*
X159350774Y-98335585D01*
X159371057Y-98337583D01*
X159371057Y-98337582D01*
X159371058Y-98337583D01*
X159576992Y-98317300D01*
X159775012Y-98257232D01*
X159957508Y-98159685D01*
X160117468Y-98028410D01*
X160248743Y-97868450D01*
X160346290Y-97685954D01*
X160406358Y-97487934D01*
X160426641Y-97282000D01*
X160406358Y-97076066D01*
X160346290Y-96878046D01*
X160248743Y-96695550D01*
X160117468Y-96535590D01*
X159957508Y-96404315D01*
X159775012Y-96306768D01*
X159576992Y-96246700D01*
X159371058Y-96226417D01*
X159165123Y-96246700D01*
X159165122Y-96246700D01*
X158967101Y-96306769D01*
X158784606Y-96404316D01*
X158624648Y-96535590D01*
X158493374Y-96695548D01*
X158395827Y-96878043D01*
X158335758Y-97076064D01*
X158335758Y-97076065D01*
X158335758Y-97076066D01*
X158315475Y-97282000D01*
X156687111Y-97282000D01*
X156666828Y-97076066D01*
X156606760Y-96878046D01*
X156509213Y-96695550D01*
X156377938Y-96535590D01*
X156217978Y-96404315D01*
X156035482Y-96306768D01*
X155837462Y-96246700D01*
X155631528Y-96226417D01*
X155425593Y-96246700D01*
X155425592Y-96246700D01*
X155227571Y-96306769D01*
X155045076Y-96404316D01*
X154885118Y-96535590D01*
X154753844Y-96695548D01*
X154656297Y-96878043D01*
X154596228Y-97076064D01*
X154596228Y-97076065D01*
X154596228Y-97076066D01*
X154575945Y-97282000D01*
X152947583Y-97282000D01*
X152927300Y-97076066D01*
X152867232Y-96878046D01*
X152769685Y-96695550D01*
X152638410Y-96535590D01*
X152478450Y-96404315D01*
X152295954Y-96306768D01*
X152097934Y-96246700D01*
X152027511Y-96239763D01*
X151994437Y-96222085D01*
X151983551Y-96186197D01*
X152001230Y-96153122D01*
X152032315Y-96142000D01*
X154475071Y-96142000D01*
X154484631Y-96142942D01*
X154507027Y-96147397D01*
X154507028Y-96147397D01*
X154534160Y-96142000D01*
X154534161Y-96142000D01*
X154614523Y-96126015D01*
X154656493Y-96097971D01*
X154682650Y-96080494D01*
X154682651Y-96080492D01*
X154705652Y-96065124D01*
X154718344Y-96046130D01*
X154724432Y-96038711D01*
X154956291Y-95806852D01*
X154990940Y-95792500D01*
X156501273Y-95792500D01*
X156501276Y-95792500D01*
X156559759Y-95780867D01*
X156626080Y-95736552D01*
X156670395Y-95670231D01*
X156682028Y-95611748D01*
X156682028Y-93941999D01*
X156696380Y-93907352D01*
X156731028Y-93893000D01*
X158112146Y-93893000D01*
X158146794Y-93907352D01*
X158306206Y-94066763D01*
X158320558Y-94101411D01*
X158320558Y-95611748D01*
X158332191Y-95670231D01*
X158337570Y-95678281D01*
X158376505Y-95736552D01*
X158398955Y-95751552D01*
X158442827Y-95780867D01*
X158501310Y-95792500D01*
X158501313Y-95792500D01*
X160240803Y-95792500D01*
X160240806Y-95792500D01*
X160299289Y-95780867D01*
X160365610Y-95736552D01*
X160409925Y-95670231D01*
X160421558Y-95611748D01*
X160421558Y-93872252D01*
X160409925Y-93813769D01*
X160365645Y-93747500D01*
X160365610Y-93747447D01*
X160321738Y-93718133D01*
X160299289Y-93703133D01*
X160240806Y-93691500D01*
X160240803Y-93691500D01*
X158730470Y-93691500D01*
X158695822Y-93677148D01*
X158463964Y-93445290D01*
X158457870Y-93437864D01*
X158445184Y-93418877D01*
X158424182Y-93404844D01*
X158424182Y-93404843D01*
X158380258Y-93375495D01*
X158354053Y-93357985D01*
X158332710Y-93353739D01*
X158271326Y-93341529D01*
X158246558Y-93336603D01*
X158246557Y-93336603D01*
X158246556Y-93336603D01*
X158224161Y-93341058D01*
X158214601Y-93342000D01*
X148973911Y-93342000D01*
X148939263Y-93327648D01*
X148924911Y-93293000D01*
X148939263Y-93258352D01*
X150200763Y-91996852D01*
X150235411Y-91982500D01*
X151745744Y-91982500D01*
X151745747Y-91982500D01*
X151804230Y-91970867D01*
X151870551Y-91926552D01*
X151914866Y-91860231D01*
X151926499Y-91801748D01*
X151926499Y-90062252D01*
X151914866Y-90003769D01*
X151883461Y-89956769D01*
X151870551Y-89937447D01*
X151809568Y-89896700D01*
X151804230Y-89893133D01*
X151745747Y-89881500D01*
X150006251Y-89881500D01*
X149947768Y-89893132D01*
X149947768Y-89893133D01*
X149881446Y-89937447D01*
X149837131Y-90003768D01*
X149837132Y-90003769D01*
X149825499Y-90062252D01*
X149825499Y-90062255D01*
X149825499Y-91572588D01*
X149811147Y-91607236D01*
X148440235Y-92978148D01*
X148405587Y-92992500D01*
X146915161Y-92992500D01*
X146905601Y-92991558D01*
X146883205Y-92987103D01*
X146883201Y-92987103D01*
X146775710Y-93008484D01*
X146775709Y-93008484D01*
X146708866Y-93053145D01*
X146708858Y-93053153D01*
X146684579Y-93069376D01*
X146684578Y-93069377D01*
X146671890Y-93088365D01*
X146665798Y-93095788D01*
X144801440Y-94960148D01*
X144766792Y-94974500D01*
X143824602Y-94974500D01*
X143789954Y-94960148D01*
X143782847Y-94949537D01*
X143782144Y-94949944D01*
X143780535Y-94947158D01*
X143684282Y-94821718D01*
X143684281Y-94821717D01*
X143558841Y-94725464D01*
X143558836Y-94725461D01*
X143412761Y-94664955D01*
X143276637Y-94647034D01*
X143256000Y-94644318D01*
X143255999Y-94644318D01*
X143099238Y-94664955D01*
X142953163Y-94725461D01*
X142953158Y-94725464D01*
X142827718Y-94821717D01*
X142827717Y-94821718D01*
X142731464Y-94947158D01*
X142731461Y-94947163D01*
X142670955Y-95093238D01*
X142650318Y-95250000D01*
X142670955Y-95406761D01*
X142731461Y-95552836D01*
X142731464Y-95552841D01*
X142821539Y-95670230D01*
X142827718Y-95678282D01*
X142953159Y-95774536D01*
X142953161Y-95774536D01*
X142953163Y-95774538D01*
X143032741Y-95807500D01*
X143099238Y-95835044D01*
X143256000Y-95855682D01*
X143412762Y-95835044D01*
X143558841Y-95774536D01*
X143684282Y-95678282D01*
X143780536Y-95552841D01*
X143780538Y-95552834D01*
X143782144Y-95550056D01*
X143783946Y-95551097D01*
X143805945Y-95529191D01*
X143824602Y-95525500D01*
X144612060Y-95525500D01*
X144646708Y-95539852D01*
X144661060Y-95574500D01*
X144646708Y-95609148D01*
X142067788Y-98188066D01*
X142060365Y-98194158D01*
X142041378Y-98206845D01*
X142041373Y-98206850D01*
X141980484Y-98297978D01*
X141973657Y-98332299D01*
X141973658Y-98332300D01*
X141959103Y-98405473D01*
X141963558Y-98427868D01*
X141964500Y-98437428D01*
X141964500Y-99265542D01*
X141963559Y-99275101D01*
X141959103Y-99297502D01*
X137763510Y-99297502D01*
X137745044Y-99157238D01*
X137745042Y-99157234D01*
X137744213Y-99154138D01*
X137746201Y-99153604D01*
X137746318Y-99122471D01*
X137756867Y-99106747D01*
X138006712Y-98856902D01*
X138014134Y-98850812D01*
X138023021Y-98844874D01*
X138033124Y-98838124D01*
X138049286Y-98813937D01*
X138065971Y-98788965D01*
X138094015Y-98746995D01*
X138110000Y-98666633D01*
X138110000Y-98666632D01*
X138115397Y-98639500D01*
X138110940Y-98617097D01*
X138110000Y-98607539D01*
X138110000Y-97583411D01*
X138110942Y-97573851D01*
X138115397Y-97551456D01*
X138115397Y-97551453D01*
X138111800Y-97533375D01*
X138102762Y-97487934D01*
X138094015Y-97443960D01*
X138073809Y-97413720D01*
X138033124Y-97352830D01*
X138014134Y-97340142D01*
X138006709Y-97334048D01*
X133464451Y-92791790D01*
X133458357Y-92784364D01*
X133445670Y-92765376D01*
X133422668Y-92750007D01*
X133396509Y-92732527D01*
X133396509Y-92732526D01*
X133354541Y-92704485D01*
X133271813Y-92688029D01*
X133247045Y-92683103D01*
X133247044Y-92683103D01*
X133247043Y-92683103D01*
X133224648Y-92687558D01*
X133215088Y-92688500D01*
X122668455Y-92688500D01*
X122658895Y-92687558D01*
X122636499Y-92683103D01*
X122636498Y-92683103D01*
X122628673Y-92684659D01*
X122613235Y-92687730D01*
X122613233Y-92687730D01*
X122609366Y-92688500D01*
X122609365Y-92688500D01*
X122579773Y-92694386D01*
X122529000Y-92704485D01*
X122487032Y-92732528D01*
X122462154Y-92749151D01*
X122462152Y-92749153D01*
X122437873Y-92765376D01*
X122437872Y-92765377D01*
X122425184Y-92784365D01*
X122419092Y-92791788D01*
X121518734Y-93692148D01*
X121484086Y-93706500D01*
X119973750Y-93706500D01*
X119915267Y-93718133D01*
X119848945Y-93762447D01*
X119808003Y-93823723D01*
X119804631Y-93828769D01*
X119792998Y-93887252D01*
X119792998Y-95626748D01*
X116466183Y-95626748D01*
X116467768Y-90932000D01*
X142200416Y-90932000D01*
X142220699Y-91137934D01*
X142280767Y-91335954D01*
X142378314Y-91518450D01*
X142509589Y-91678410D01*
X142669549Y-91809685D01*
X142852045Y-91907232D01*
X143050065Y-91967300D01*
X143255999Y-91987583D01*
X143461933Y-91967300D01*
X143659953Y-91907232D01*
X143842449Y-91809685D01*
X144002409Y-91678410D01*
X144133684Y-91518450D01*
X144231231Y-91335954D01*
X144291299Y-91137934D01*
X144311582Y-90932000D01*
X147280416Y-90932000D01*
X147300699Y-91137934D01*
X147360767Y-91335954D01*
X147458314Y-91518450D01*
X147589589Y-91678410D01*
X147749549Y-91809685D01*
X147932045Y-91907232D01*
X148130065Y-91967300D01*
X148335999Y-91987583D01*
X148541933Y-91967300D01*
X148739953Y-91907232D01*
X148922449Y-91809685D01*
X149082409Y-91678410D01*
X149213684Y-91518450D01*
X149311231Y-91335954D01*
X149371299Y-91137934D01*
X149391582Y-90932000D01*
X149371299Y-90726066D01*
X149311231Y-90528046D01*
X149213684Y-90345550D01*
X149082409Y-90185590D01*
X148922449Y-90054315D01*
X148758856Y-89966872D01*
X148739955Y-89956769D01*
X148739954Y-89956768D01*
X148739953Y-89956768D01*
X148541933Y-89896700D01*
X148335999Y-89876417D01*
X148130064Y-89896700D01*
X148130063Y-89896700D01*
X147932042Y-89956769D01*
X147749547Y-90054316D01*
X147589589Y-90185590D01*
X147458315Y-90345548D01*
X147360768Y-90528043D01*
X147300699Y-90726064D01*
X147300699Y-90726065D01*
X147300699Y-90726066D01*
X147280416Y-90932000D01*
X144311582Y-90932000D01*
X144291299Y-90726066D01*
X144231231Y-90528046D01*
X144133684Y-90345550D01*
X144002409Y-90185590D01*
X143842449Y-90054315D01*
X143678856Y-89966872D01*
X143659955Y-89956769D01*
X143659954Y-89956768D01*
X143659953Y-89956768D01*
X143461933Y-89896700D01*
X143255999Y-89876417D01*
X143050064Y-89896700D01*
X143050063Y-89896700D01*
X142852042Y-89956769D01*
X142669547Y-90054316D01*
X142509589Y-90185590D01*
X142378315Y-90345548D01*
X142280768Y-90528043D01*
X142220699Y-90726064D01*
X142220699Y-90726065D01*
X142220699Y-90726066D01*
X142200416Y-90932000D01*
X116467768Y-90932000D01*
X116468018Y-90191284D01*
X116468526Y-90190060D01*
X116468526Y-90170963D01*
X116468602Y-90169040D01*
X116469702Y-90155057D01*
X116473071Y-90112243D01*
X116485761Y-89967015D01*
X116486921Y-89959887D01*
X116507701Y-89873333D01*
X116507853Y-89872739D01*
X116537774Y-89761070D01*
X116538789Y-89758079D01*
X116575709Y-89668947D01*
X116576097Y-89668066D01*
X116622619Y-89568300D01*
X116623913Y-89565890D01*
X116675405Y-89481864D01*
X116676180Y-89480683D01*
X116738195Y-89392118D01*
X116739598Y-89390305D01*
X116804112Y-89314771D01*
X116805362Y-89313420D01*
X116881431Y-89237353D01*
X116882807Y-89236080D01*
X116958328Y-89171581D01*
X116960149Y-89170171D01*
X117048708Y-89108163D01*
X117049873Y-89107399D01*
X117133905Y-89055906D01*
X117136313Y-89054612D01*
X117236069Y-89008096D01*
X117236953Y-89007706D01*
X117326098Y-88970783D01*
X117329100Y-88969764D01*
X117440855Y-88939822D01*
X117441258Y-88939719D01*
X117527908Y-88918918D01*
X117535063Y-88917752D01*
X117678110Y-88905240D01*
X117737407Y-88900574D01*
X117739321Y-88900500D01*
X162305037Y-88900500D01*
X162306959Y-88900576D01*
G37*
%TD.AperFunction*%
%TD*%
M02*
