%TF.GenerationSoftware,KiCad,Pcbnew,7.99.0-957-g18dd623122*%
%TF.CreationDate,2023-07-10T16:21:33-04:00*%
%TF.ProjectId,rp2040_base,72703230-3430-45f6-9261-73652e6b6963,rev?*%
%TF.SameCoordinates,Original*%
%TF.FileFunction,Legend,Top*%
%TF.FilePolarity,Positive*%
%FSLAX46Y46*%
G04 Gerber Fmt 4.6, Leading zero omitted, Abs format (unit mm)*
G04 Created by KiCad (PCBNEW 7.99.0-957-g18dd623122) date 2023-07-10 16:21:33*
%MOMM*%
%LPD*%
G01*
G04 APERTURE LIST*
G04 Aperture macros list*
%AMRoundRect*
0 Rectangle with rounded corners*
0 $1 Rounding radius*
0 $2 $3 $4 $5 $6 $7 $8 $9 X,Y pos of 4 corners*
0 Add a 4 corners polygon primitive as box body*
4,1,4,$2,$3,$4,$5,$6,$7,$8,$9,$2,$3,0*
0 Add four circle primitives for the rounded corners*
1,1,$1+$1,$2,$3*
1,1,$1+$1,$4,$5*
1,1,$1+$1,$6,$7*
1,1,$1+$1,$8,$9*
0 Add four rect primitives between the rounded corners*
20,1,$1+$1,$2,$3,$4,$5,0*
20,1,$1+$1,$4,$5,$6,$7,0*
20,1,$1+$1,$6,$7,$8,$9,0*
20,1,$1+$1,$8,$9,$2,$3,0*%
G04 Aperture macros list end*
%ADD10C,0.150000*%
%ADD11C,0.120000*%
%ADD12C,0.152400*%
%ADD13RoundRect,0.140000X0.170000X-0.140000X0.170000X0.140000X-0.170000X0.140000X-0.170000X-0.140000X0*%
%ADD14R,1.700000X1.700000*%
%ADD15O,1.700000X1.700000*%
%ADD16RoundRect,0.200000X0.275000X-0.200000X0.275000X0.200000X-0.275000X0.200000X-0.275000X-0.200000X0*%
%ADD17RoundRect,0.140000X-0.170000X0.140000X-0.170000X-0.140000X0.170000X-0.140000X0.170000X0.140000X0*%
%ADD18C,0.650000*%
%ADD19R,0.600000X1.450000*%
%ADD20R,0.300000X1.450000*%
%ADD21O,1.000000X2.100000*%
%ADD22O,1.000000X1.600000*%
%ADD23RoundRect,0.135000X0.185000X-0.135000X0.185000X0.135000X-0.185000X0.135000X-0.185000X-0.135000X0*%
%ADD24RoundRect,0.135000X-0.185000X0.135000X-0.185000X-0.135000X0.185000X-0.135000X0.185000X0.135000X0*%
%ADD25RoundRect,0.140000X-0.140000X-0.170000X0.140000X-0.170000X0.140000X0.170000X-0.140000X0.170000X0*%
%ADD26RoundRect,0.140000X0.140000X0.170000X-0.140000X0.170000X-0.140000X-0.170000X0.140000X-0.170000X0*%
%ADD27C,2.000000*%
%ADD28R,0.304800X0.863600*%
%ADD29R,3.098800X2.387600*%
%ADD30RoundRect,0.050000X-0.387500X-0.050000X0.387500X-0.050000X0.387500X0.050000X-0.387500X0.050000X0*%
%ADD31RoundRect,0.050000X-0.050000X-0.387500X0.050000X-0.387500X0.050000X0.387500X-0.050000X0.387500X0*%
%ADD32R,3.200000X3.200000*%
%ADD33RoundRect,0.135000X-0.135000X-0.185000X0.135000X-0.185000X0.135000X0.185000X-0.135000X0.185000X0*%
%ADD34R,0.800000X0.900000*%
%ADD35RoundRect,0.200000X-0.275000X0.200000X-0.275000X-0.200000X0.275000X-0.200000X0.275000X0.200000X0*%
G04 APERTURE END LIST*
D10*
%TO.C,C9*%
X147289380Y-88699666D02*
X147337000Y-88747285D01*
X147337000Y-88747285D02*
X147384619Y-88890142D01*
X147384619Y-88890142D02*
X147384619Y-88985380D01*
X147384619Y-88985380D02*
X147337000Y-89128237D01*
X147337000Y-89128237D02*
X147241761Y-89223475D01*
X147241761Y-89223475D02*
X147146523Y-89271094D01*
X147146523Y-89271094D02*
X146956047Y-89318713D01*
X146956047Y-89318713D02*
X146813190Y-89318713D01*
X146813190Y-89318713D02*
X146622714Y-89271094D01*
X146622714Y-89271094D02*
X146527476Y-89223475D01*
X146527476Y-89223475D02*
X146432238Y-89128237D01*
X146432238Y-89128237D02*
X146384619Y-88985380D01*
X146384619Y-88985380D02*
X146384619Y-88890142D01*
X146384619Y-88890142D02*
X146432238Y-88747285D01*
X146432238Y-88747285D02*
X146479857Y-88699666D01*
X147384619Y-88223475D02*
X147384619Y-88032999D01*
X147384619Y-88032999D02*
X147337000Y-87937761D01*
X147337000Y-87937761D02*
X147289380Y-87890142D01*
X147289380Y-87890142D02*
X147146523Y-87794904D01*
X147146523Y-87794904D02*
X146956047Y-87747285D01*
X146956047Y-87747285D02*
X146575095Y-87747285D01*
X146575095Y-87747285D02*
X146479857Y-87794904D01*
X146479857Y-87794904D02*
X146432238Y-87842523D01*
X146432238Y-87842523D02*
X146384619Y-87937761D01*
X146384619Y-87937761D02*
X146384619Y-88128237D01*
X146384619Y-88128237D02*
X146432238Y-88223475D01*
X146432238Y-88223475D02*
X146479857Y-88271094D01*
X146479857Y-88271094D02*
X146575095Y-88318713D01*
X146575095Y-88318713D02*
X146813190Y-88318713D01*
X146813190Y-88318713D02*
X146908428Y-88271094D01*
X146908428Y-88271094D02*
X146956047Y-88223475D01*
X146956047Y-88223475D02*
X147003666Y-88128237D01*
X147003666Y-88128237D02*
X147003666Y-87937761D01*
X147003666Y-87937761D02*
X146956047Y-87842523D01*
X146956047Y-87842523D02*
X146908428Y-87794904D01*
X146908428Y-87794904D02*
X146813190Y-87747285D01*
%TO.C,J2*%
X125656620Y-81359333D02*
X126370905Y-81359333D01*
X126370905Y-81359333D02*
X126513762Y-81406952D01*
X126513762Y-81406952D02*
X126609001Y-81502190D01*
X126609001Y-81502190D02*
X126656620Y-81645047D01*
X126656620Y-81645047D02*
X126656620Y-81740285D01*
X125751858Y-80930761D02*
X125704239Y-80883142D01*
X125704239Y-80883142D02*
X125656620Y-80787904D01*
X125656620Y-80787904D02*
X125656620Y-80549809D01*
X125656620Y-80549809D02*
X125704239Y-80454571D01*
X125704239Y-80454571D02*
X125751858Y-80406952D01*
X125751858Y-80406952D02*
X125847096Y-80359333D01*
X125847096Y-80359333D02*
X125942334Y-80359333D01*
X125942334Y-80359333D02*
X126085191Y-80406952D01*
X126085191Y-80406952D02*
X126656620Y-80978380D01*
X126656620Y-80978380D02*
X126656620Y-80359333D01*
%TO.C,R5*%
X144701619Y-88812665D02*
X144225428Y-89145998D01*
X144701619Y-89384093D02*
X143701619Y-89384093D01*
X143701619Y-89384093D02*
X143701619Y-89003141D01*
X143701619Y-89003141D02*
X143749238Y-88907903D01*
X143749238Y-88907903D02*
X143796857Y-88860284D01*
X143796857Y-88860284D02*
X143892095Y-88812665D01*
X143892095Y-88812665D02*
X144034952Y-88812665D01*
X144034952Y-88812665D02*
X144130190Y-88860284D01*
X144130190Y-88860284D02*
X144177809Y-88907903D01*
X144177809Y-88907903D02*
X144225428Y-89003141D01*
X144225428Y-89003141D02*
X144225428Y-89384093D01*
X143701619Y-87907903D02*
X143701619Y-88384093D01*
X143701619Y-88384093D02*
X144177809Y-88431712D01*
X144177809Y-88431712D02*
X144130190Y-88384093D01*
X144130190Y-88384093D02*
X144082571Y-88288855D01*
X144082571Y-88288855D02*
X144082571Y-88050760D01*
X144082571Y-88050760D02*
X144130190Y-87955522D01*
X144130190Y-87955522D02*
X144177809Y-87907903D01*
X144177809Y-87907903D02*
X144273047Y-87860284D01*
X144273047Y-87860284D02*
X144511142Y-87860284D01*
X144511142Y-87860284D02*
X144606380Y-87907903D01*
X144606380Y-87907903D02*
X144654000Y-87955522D01*
X144654000Y-87955522D02*
X144701619Y-88050760D01*
X144701619Y-88050760D02*
X144701619Y-88288855D01*
X144701619Y-88288855D02*
X144654000Y-88384093D01*
X144654000Y-88384093D02*
X144606380Y-88431712D01*
%TO.C,C13*%
X139054226Y-101237590D02*
X139101846Y-101285209D01*
X139101846Y-101285209D02*
X139149465Y-101428066D01*
X139149465Y-101428066D02*
X139149465Y-101523304D01*
X139149465Y-101523304D02*
X139101846Y-101666161D01*
X139101846Y-101666161D02*
X139006607Y-101761399D01*
X139006607Y-101761399D02*
X138911369Y-101809018D01*
X138911369Y-101809018D02*
X138720893Y-101856637D01*
X138720893Y-101856637D02*
X138578036Y-101856637D01*
X138578036Y-101856637D02*
X138387560Y-101809018D01*
X138387560Y-101809018D02*
X138292322Y-101761399D01*
X138292322Y-101761399D02*
X138197084Y-101666161D01*
X138197084Y-101666161D02*
X138149465Y-101523304D01*
X138149465Y-101523304D02*
X138149465Y-101428066D01*
X138149465Y-101428066D02*
X138197084Y-101285209D01*
X138197084Y-101285209D02*
X138244703Y-101237590D01*
X139149465Y-100285209D02*
X139149465Y-100856637D01*
X139149465Y-100570923D02*
X138149465Y-100570923D01*
X138149465Y-100570923D02*
X138292322Y-100666161D01*
X138292322Y-100666161D02*
X138387560Y-100761399D01*
X138387560Y-100761399D02*
X138435179Y-100856637D01*
X138149465Y-99951875D02*
X138149465Y-99332828D01*
X138149465Y-99332828D02*
X138530417Y-99666161D01*
X138530417Y-99666161D02*
X138530417Y-99523304D01*
X138530417Y-99523304D02*
X138578036Y-99428066D01*
X138578036Y-99428066D02*
X138625655Y-99380447D01*
X138625655Y-99380447D02*
X138720893Y-99332828D01*
X138720893Y-99332828D02*
X138958988Y-99332828D01*
X138958988Y-99332828D02*
X139054226Y-99380447D01*
X139054226Y-99380447D02*
X139101846Y-99428066D01*
X139101846Y-99428066D02*
X139149465Y-99523304D01*
X139149465Y-99523304D02*
X139149465Y-99809018D01*
X139149465Y-99809018D02*
X139101846Y-99904256D01*
X139101846Y-99904256D02*
X139054226Y-99951875D01*
%TO.C,C4*%
X141701380Y-88586666D02*
X141749000Y-88634285D01*
X141749000Y-88634285D02*
X141796619Y-88777142D01*
X141796619Y-88777142D02*
X141796619Y-88872380D01*
X141796619Y-88872380D02*
X141749000Y-89015237D01*
X141749000Y-89015237D02*
X141653761Y-89110475D01*
X141653761Y-89110475D02*
X141558523Y-89158094D01*
X141558523Y-89158094D02*
X141368047Y-89205713D01*
X141368047Y-89205713D02*
X141225190Y-89205713D01*
X141225190Y-89205713D02*
X141034714Y-89158094D01*
X141034714Y-89158094D02*
X140939476Y-89110475D01*
X140939476Y-89110475D02*
X140844238Y-89015237D01*
X140844238Y-89015237D02*
X140796619Y-88872380D01*
X140796619Y-88872380D02*
X140796619Y-88777142D01*
X140796619Y-88777142D02*
X140844238Y-88634285D01*
X140844238Y-88634285D02*
X140891857Y-88586666D01*
X141129952Y-87729523D02*
X141796619Y-87729523D01*
X140749000Y-87967618D02*
X141463285Y-88205713D01*
X141463285Y-88205713D02*
X141463285Y-87586666D01*
%TO.C,J1*%
X143430666Y-86895619D02*
X143430666Y-87609904D01*
X143430666Y-87609904D02*
X143383047Y-87752761D01*
X143383047Y-87752761D02*
X143287809Y-87848000D01*
X143287809Y-87848000D02*
X143144952Y-87895619D01*
X143144952Y-87895619D02*
X143049714Y-87895619D01*
X144430666Y-87895619D02*
X143859238Y-87895619D01*
X144144952Y-87895619D02*
X144144952Y-86895619D01*
X144144952Y-86895619D02*
X144049714Y-87038476D01*
X144049714Y-87038476D02*
X143954476Y-87133714D01*
X143954476Y-87133714D02*
X143859238Y-87181333D01*
%TO.C,C10*%
X139669380Y-89062857D02*
X139717000Y-89110476D01*
X139717000Y-89110476D02*
X139764619Y-89253333D01*
X139764619Y-89253333D02*
X139764619Y-89348571D01*
X139764619Y-89348571D02*
X139717000Y-89491428D01*
X139717000Y-89491428D02*
X139621761Y-89586666D01*
X139621761Y-89586666D02*
X139526523Y-89634285D01*
X139526523Y-89634285D02*
X139336047Y-89681904D01*
X139336047Y-89681904D02*
X139193190Y-89681904D01*
X139193190Y-89681904D02*
X139002714Y-89634285D01*
X139002714Y-89634285D02*
X138907476Y-89586666D01*
X138907476Y-89586666D02*
X138812238Y-89491428D01*
X138812238Y-89491428D02*
X138764619Y-89348571D01*
X138764619Y-89348571D02*
X138764619Y-89253333D01*
X138764619Y-89253333D02*
X138812238Y-89110476D01*
X138812238Y-89110476D02*
X138859857Y-89062857D01*
X139764619Y-88110476D02*
X139764619Y-88681904D01*
X139764619Y-88396190D02*
X138764619Y-88396190D01*
X138764619Y-88396190D02*
X138907476Y-88491428D01*
X138907476Y-88491428D02*
X139002714Y-88586666D01*
X139002714Y-88586666D02*
X139050333Y-88681904D01*
X138764619Y-87491428D02*
X138764619Y-87396190D01*
X138764619Y-87396190D02*
X138812238Y-87300952D01*
X138812238Y-87300952D02*
X138859857Y-87253333D01*
X138859857Y-87253333D02*
X138955095Y-87205714D01*
X138955095Y-87205714D02*
X139145571Y-87158095D01*
X139145571Y-87158095D02*
X139383666Y-87158095D01*
X139383666Y-87158095D02*
X139574142Y-87205714D01*
X139574142Y-87205714D02*
X139669380Y-87253333D01*
X139669380Y-87253333D02*
X139717000Y-87300952D01*
X139717000Y-87300952D02*
X139764619Y-87396190D01*
X139764619Y-87396190D02*
X139764619Y-87491428D01*
X139764619Y-87491428D02*
X139717000Y-87586666D01*
X139717000Y-87586666D02*
X139669380Y-87634285D01*
X139669380Y-87634285D02*
X139574142Y-87681904D01*
X139574142Y-87681904D02*
X139383666Y-87729523D01*
X139383666Y-87729523D02*
X139145571Y-87729523D01*
X139145571Y-87729523D02*
X138955095Y-87681904D01*
X138955095Y-87681904D02*
X138859857Y-87634285D01*
X138859857Y-87634285D02*
X138812238Y-87586666D01*
X138812238Y-87586666D02*
X138764619Y-87491428D01*
%TO.C,C11*%
X146211749Y-89175857D02*
X146259369Y-89223476D01*
X146259369Y-89223476D02*
X146306988Y-89366333D01*
X146306988Y-89366333D02*
X146306988Y-89461571D01*
X146306988Y-89461571D02*
X146259369Y-89604428D01*
X146259369Y-89604428D02*
X146164130Y-89699666D01*
X146164130Y-89699666D02*
X146068892Y-89747285D01*
X146068892Y-89747285D02*
X145878416Y-89794904D01*
X145878416Y-89794904D02*
X145735559Y-89794904D01*
X145735559Y-89794904D02*
X145545083Y-89747285D01*
X145545083Y-89747285D02*
X145449845Y-89699666D01*
X145449845Y-89699666D02*
X145354607Y-89604428D01*
X145354607Y-89604428D02*
X145306988Y-89461571D01*
X145306988Y-89461571D02*
X145306988Y-89366333D01*
X145306988Y-89366333D02*
X145354607Y-89223476D01*
X145354607Y-89223476D02*
X145402226Y-89175857D01*
X146306988Y-88223476D02*
X146306988Y-88794904D01*
X146306988Y-88509190D02*
X145306988Y-88509190D01*
X145306988Y-88509190D02*
X145449845Y-88604428D01*
X145449845Y-88604428D02*
X145545083Y-88699666D01*
X145545083Y-88699666D02*
X145592702Y-88794904D01*
X146306988Y-87271095D02*
X146306988Y-87842523D01*
X146306988Y-87556809D02*
X145306988Y-87556809D01*
X145306988Y-87556809D02*
X145449845Y-87652047D01*
X145449845Y-87652047D02*
X145545083Y-87747285D01*
X145545083Y-87747285D02*
X145592702Y-87842523D01*
%TO.C,R2*%
X136452619Y-84240666D02*
X135976428Y-84573999D01*
X136452619Y-84812094D02*
X135452619Y-84812094D01*
X135452619Y-84812094D02*
X135452619Y-84431142D01*
X135452619Y-84431142D02*
X135500238Y-84335904D01*
X135500238Y-84335904D02*
X135547857Y-84288285D01*
X135547857Y-84288285D02*
X135643095Y-84240666D01*
X135643095Y-84240666D02*
X135785952Y-84240666D01*
X135785952Y-84240666D02*
X135881190Y-84288285D01*
X135881190Y-84288285D02*
X135928809Y-84335904D01*
X135928809Y-84335904D02*
X135976428Y-84431142D01*
X135976428Y-84431142D02*
X135976428Y-84812094D01*
X135547857Y-83859713D02*
X135500238Y-83812094D01*
X135500238Y-83812094D02*
X135452619Y-83716856D01*
X135452619Y-83716856D02*
X135452619Y-83478761D01*
X135452619Y-83478761D02*
X135500238Y-83383523D01*
X135500238Y-83383523D02*
X135547857Y-83335904D01*
X135547857Y-83335904D02*
X135643095Y-83288285D01*
X135643095Y-83288285D02*
X135738333Y-83288285D01*
X135738333Y-83288285D02*
X135881190Y-83335904D01*
X135881190Y-83335904D02*
X136452619Y-83907332D01*
X136452619Y-83907332D02*
X136452619Y-83288285D01*
%TO.C,R6*%
X143081173Y-100021666D02*
X142604982Y-100354999D01*
X143081173Y-100593094D02*
X142081173Y-100593094D01*
X142081173Y-100593094D02*
X142081173Y-100212142D01*
X142081173Y-100212142D02*
X142128792Y-100116904D01*
X142128792Y-100116904D02*
X142176411Y-100069285D01*
X142176411Y-100069285D02*
X142271649Y-100021666D01*
X142271649Y-100021666D02*
X142414506Y-100021666D01*
X142414506Y-100021666D02*
X142509744Y-100069285D01*
X142509744Y-100069285D02*
X142557363Y-100116904D01*
X142557363Y-100116904D02*
X142604982Y-100212142D01*
X142604982Y-100212142D02*
X142604982Y-100593094D01*
X142081173Y-99164523D02*
X142081173Y-99354999D01*
X142081173Y-99354999D02*
X142128792Y-99450237D01*
X142128792Y-99450237D02*
X142176411Y-99497856D01*
X142176411Y-99497856D02*
X142319268Y-99593094D01*
X142319268Y-99593094D02*
X142509744Y-99640713D01*
X142509744Y-99640713D02*
X142890696Y-99640713D01*
X142890696Y-99640713D02*
X142985934Y-99593094D01*
X142985934Y-99593094D02*
X143033554Y-99545475D01*
X143033554Y-99545475D02*
X143081173Y-99450237D01*
X143081173Y-99450237D02*
X143081173Y-99259761D01*
X143081173Y-99259761D02*
X143033554Y-99164523D01*
X143033554Y-99164523D02*
X142985934Y-99116904D01*
X142985934Y-99116904D02*
X142890696Y-99069285D01*
X142890696Y-99069285D02*
X142652601Y-99069285D01*
X142652601Y-99069285D02*
X142557363Y-99116904D01*
X142557363Y-99116904D02*
X142509744Y-99164523D01*
X142509744Y-99164523D02*
X142462125Y-99259761D01*
X142462125Y-99259761D02*
X142462125Y-99450237D01*
X142462125Y-99450237D02*
X142509744Y-99545475D01*
X142509744Y-99545475D02*
X142557363Y-99593094D01*
X142557363Y-99593094D02*
X142652601Y-99640713D01*
%TO.C,C12*%
X141311642Y-100586380D02*
X141264023Y-100634000D01*
X141264023Y-100634000D02*
X141121166Y-100681619D01*
X141121166Y-100681619D02*
X141025928Y-100681619D01*
X141025928Y-100681619D02*
X140883071Y-100634000D01*
X140883071Y-100634000D02*
X140787833Y-100538761D01*
X140787833Y-100538761D02*
X140740214Y-100443523D01*
X140740214Y-100443523D02*
X140692595Y-100253047D01*
X140692595Y-100253047D02*
X140692595Y-100110190D01*
X140692595Y-100110190D02*
X140740214Y-99919714D01*
X140740214Y-99919714D02*
X140787833Y-99824476D01*
X140787833Y-99824476D02*
X140883071Y-99729238D01*
X140883071Y-99729238D02*
X141025928Y-99681619D01*
X141025928Y-99681619D02*
X141121166Y-99681619D01*
X141121166Y-99681619D02*
X141264023Y-99729238D01*
X141264023Y-99729238D02*
X141311642Y-99776857D01*
X142264023Y-100681619D02*
X141692595Y-100681619D01*
X141978309Y-100681619D02*
X141978309Y-99681619D01*
X141978309Y-99681619D02*
X141883071Y-99824476D01*
X141883071Y-99824476D02*
X141787833Y-99919714D01*
X141787833Y-99919714D02*
X141692595Y-99967333D01*
X142644976Y-99776857D02*
X142692595Y-99729238D01*
X142692595Y-99729238D02*
X142787833Y-99681619D01*
X142787833Y-99681619D02*
X143025928Y-99681619D01*
X143025928Y-99681619D02*
X143121166Y-99729238D01*
X143121166Y-99729238D02*
X143168785Y-99776857D01*
X143168785Y-99776857D02*
X143216404Y-99872095D01*
X143216404Y-99872095D02*
X143216404Y-99967333D01*
X143216404Y-99967333D02*
X143168785Y-100110190D01*
X143168785Y-100110190D02*
X142597357Y-100681619D01*
X142597357Y-100681619D02*
X143216404Y-100681619D01*
%TO.C,C7*%
X136282549Y-93501066D02*
X136234930Y-93548686D01*
X136234930Y-93548686D02*
X136092073Y-93596305D01*
X136092073Y-93596305D02*
X135996835Y-93596305D01*
X135996835Y-93596305D02*
X135853978Y-93548686D01*
X135853978Y-93548686D02*
X135758740Y-93453447D01*
X135758740Y-93453447D02*
X135711121Y-93358209D01*
X135711121Y-93358209D02*
X135663502Y-93167733D01*
X135663502Y-93167733D02*
X135663502Y-93024876D01*
X135663502Y-93024876D02*
X135711121Y-92834400D01*
X135711121Y-92834400D02*
X135758740Y-92739162D01*
X135758740Y-92739162D02*
X135853978Y-92643924D01*
X135853978Y-92643924D02*
X135996835Y-92596305D01*
X135996835Y-92596305D02*
X136092073Y-92596305D01*
X136092073Y-92596305D02*
X136234930Y-92643924D01*
X136234930Y-92643924D02*
X136282549Y-92691543D01*
X136615883Y-92596305D02*
X137282549Y-92596305D01*
X137282549Y-92596305D02*
X136853978Y-93596305D01*
%TO.C,C3*%
X144182249Y-100042979D02*
X144229869Y-100090598D01*
X144229869Y-100090598D02*
X144277488Y-100233455D01*
X144277488Y-100233455D02*
X144277488Y-100328693D01*
X144277488Y-100328693D02*
X144229869Y-100471550D01*
X144229869Y-100471550D02*
X144134630Y-100566788D01*
X144134630Y-100566788D02*
X144039392Y-100614407D01*
X144039392Y-100614407D02*
X143848916Y-100662026D01*
X143848916Y-100662026D02*
X143706059Y-100662026D01*
X143706059Y-100662026D02*
X143515583Y-100614407D01*
X143515583Y-100614407D02*
X143420345Y-100566788D01*
X143420345Y-100566788D02*
X143325107Y-100471550D01*
X143325107Y-100471550D02*
X143277488Y-100328693D01*
X143277488Y-100328693D02*
X143277488Y-100233455D01*
X143277488Y-100233455D02*
X143325107Y-100090598D01*
X143325107Y-100090598D02*
X143372726Y-100042979D01*
X143277488Y-99709645D02*
X143277488Y-99090598D01*
X143277488Y-99090598D02*
X143658440Y-99423931D01*
X143658440Y-99423931D02*
X143658440Y-99281074D01*
X143658440Y-99281074D02*
X143706059Y-99185836D01*
X143706059Y-99185836D02*
X143753678Y-99138217D01*
X143753678Y-99138217D02*
X143848916Y-99090598D01*
X143848916Y-99090598D02*
X144087011Y-99090598D01*
X144087011Y-99090598D02*
X144182249Y-99138217D01*
X144182249Y-99138217D02*
X144229869Y-99185836D01*
X144229869Y-99185836D02*
X144277488Y-99281074D01*
X144277488Y-99281074D02*
X144277488Y-99566788D01*
X144277488Y-99566788D02*
X144229869Y-99662026D01*
X144229869Y-99662026D02*
X144182249Y-99709645D01*
%TO.C,R3*%
X135436619Y-84240666D02*
X134960428Y-84573999D01*
X135436619Y-84812094D02*
X134436619Y-84812094D01*
X134436619Y-84812094D02*
X134436619Y-84431142D01*
X134436619Y-84431142D02*
X134484238Y-84335904D01*
X134484238Y-84335904D02*
X134531857Y-84288285D01*
X134531857Y-84288285D02*
X134627095Y-84240666D01*
X134627095Y-84240666D02*
X134769952Y-84240666D01*
X134769952Y-84240666D02*
X134865190Y-84288285D01*
X134865190Y-84288285D02*
X134912809Y-84335904D01*
X134912809Y-84335904D02*
X134960428Y-84431142D01*
X134960428Y-84431142D02*
X134960428Y-84812094D01*
X134436619Y-83907332D02*
X134436619Y-83288285D01*
X134436619Y-83288285D02*
X134817571Y-83621618D01*
X134817571Y-83621618D02*
X134817571Y-83478761D01*
X134817571Y-83478761D02*
X134865190Y-83383523D01*
X134865190Y-83383523D02*
X134912809Y-83335904D01*
X134912809Y-83335904D02*
X135008047Y-83288285D01*
X135008047Y-83288285D02*
X135246142Y-83288285D01*
X135246142Y-83288285D02*
X135341380Y-83335904D01*
X135341380Y-83335904D02*
X135389000Y-83383523D01*
X135389000Y-83383523D02*
X135436619Y-83478761D01*
X135436619Y-83478761D02*
X135436619Y-83764475D01*
X135436619Y-83764475D02*
X135389000Y-83859713D01*
X135389000Y-83859713D02*
X135341380Y-83907332D01*
%TO.C,SW1*%
X131828000Y-97778332D02*
X131875619Y-97635475D01*
X131875619Y-97635475D02*
X131875619Y-97397380D01*
X131875619Y-97397380D02*
X131828000Y-97302142D01*
X131828000Y-97302142D02*
X131780380Y-97254523D01*
X131780380Y-97254523D02*
X131685142Y-97206904D01*
X131685142Y-97206904D02*
X131589904Y-97206904D01*
X131589904Y-97206904D02*
X131494666Y-97254523D01*
X131494666Y-97254523D02*
X131447047Y-97302142D01*
X131447047Y-97302142D02*
X131399428Y-97397380D01*
X131399428Y-97397380D02*
X131351809Y-97587856D01*
X131351809Y-97587856D02*
X131304190Y-97683094D01*
X131304190Y-97683094D02*
X131256571Y-97730713D01*
X131256571Y-97730713D02*
X131161333Y-97778332D01*
X131161333Y-97778332D02*
X131066095Y-97778332D01*
X131066095Y-97778332D02*
X130970857Y-97730713D01*
X130970857Y-97730713D02*
X130923238Y-97683094D01*
X130923238Y-97683094D02*
X130875619Y-97587856D01*
X130875619Y-97587856D02*
X130875619Y-97349761D01*
X130875619Y-97349761D02*
X130923238Y-97206904D01*
X130875619Y-96873570D02*
X131875619Y-96635475D01*
X131875619Y-96635475D02*
X131161333Y-96444999D01*
X131161333Y-96444999D02*
X131875619Y-96254523D01*
X131875619Y-96254523D02*
X130875619Y-96016428D01*
X131875619Y-95111666D02*
X131875619Y-95683094D01*
X131875619Y-95397380D02*
X130875619Y-95397380D01*
X130875619Y-95397380D02*
X131018476Y-95492618D01*
X131018476Y-95492618D02*
X131113714Y-95587856D01*
X131113714Y-95587856D02*
X131161333Y-95683094D01*
%TO.C,C14*%
X130236992Y-82773380D02*
X130189373Y-82821000D01*
X130189373Y-82821000D02*
X130046516Y-82868619D01*
X130046516Y-82868619D02*
X129951278Y-82868619D01*
X129951278Y-82868619D02*
X129808421Y-82821000D01*
X129808421Y-82821000D02*
X129713183Y-82725761D01*
X129713183Y-82725761D02*
X129665564Y-82630523D01*
X129665564Y-82630523D02*
X129617945Y-82440047D01*
X129617945Y-82440047D02*
X129617945Y-82297190D01*
X129617945Y-82297190D02*
X129665564Y-82106714D01*
X129665564Y-82106714D02*
X129713183Y-82011476D01*
X129713183Y-82011476D02*
X129808421Y-81916238D01*
X129808421Y-81916238D02*
X129951278Y-81868619D01*
X129951278Y-81868619D02*
X130046516Y-81868619D01*
X130046516Y-81868619D02*
X130189373Y-81916238D01*
X130189373Y-81916238D02*
X130236992Y-81963857D01*
X131189373Y-82868619D02*
X130617945Y-82868619D01*
X130903659Y-82868619D02*
X130903659Y-81868619D01*
X130903659Y-81868619D02*
X130808421Y-82011476D01*
X130808421Y-82011476D02*
X130713183Y-82106714D01*
X130713183Y-82106714D02*
X130617945Y-82154333D01*
X132046516Y-82201952D02*
X132046516Y-82868619D01*
X131808421Y-81821000D02*
X131570326Y-82535285D01*
X131570326Y-82535285D02*
X132189373Y-82535285D01*
%TO.C,U2*%
X132120469Y-87883904D02*
X132929992Y-87883904D01*
X132929992Y-87883904D02*
X133025230Y-87836285D01*
X133025230Y-87836285D02*
X133072850Y-87788666D01*
X133072850Y-87788666D02*
X133120469Y-87693428D01*
X133120469Y-87693428D02*
X133120469Y-87502952D01*
X133120469Y-87502952D02*
X133072850Y-87407714D01*
X133072850Y-87407714D02*
X133025230Y-87360095D01*
X133025230Y-87360095D02*
X132929992Y-87312476D01*
X132929992Y-87312476D02*
X132120469Y-87312476D01*
X132215707Y-86883904D02*
X132168088Y-86836285D01*
X132168088Y-86836285D02*
X132120469Y-86741047D01*
X132120469Y-86741047D02*
X132120469Y-86502952D01*
X132120469Y-86502952D02*
X132168088Y-86407714D01*
X132168088Y-86407714D02*
X132215707Y-86360095D01*
X132215707Y-86360095D02*
X132310945Y-86312476D01*
X132310945Y-86312476D02*
X132406183Y-86312476D01*
X132406183Y-86312476D02*
X132549040Y-86360095D01*
X132549040Y-86360095D02*
X133120469Y-86931523D01*
X133120469Y-86931523D02*
X133120469Y-86312476D01*
%TO.C,R7*%
X131045619Y-88939666D02*
X130569428Y-89272999D01*
X131045619Y-89511094D02*
X130045619Y-89511094D01*
X130045619Y-89511094D02*
X130045619Y-89130142D01*
X130045619Y-89130142D02*
X130093238Y-89034904D01*
X130093238Y-89034904D02*
X130140857Y-88987285D01*
X130140857Y-88987285D02*
X130236095Y-88939666D01*
X130236095Y-88939666D02*
X130378952Y-88939666D01*
X130378952Y-88939666D02*
X130474190Y-88987285D01*
X130474190Y-88987285D02*
X130521809Y-89034904D01*
X130521809Y-89034904D02*
X130569428Y-89130142D01*
X130569428Y-89130142D02*
X130569428Y-89511094D01*
X130045619Y-88606332D02*
X130045619Y-87939666D01*
X130045619Y-87939666D02*
X131045619Y-88368237D01*
%TO.C,U1*%
X140803095Y-89217619D02*
X140803095Y-90027142D01*
X140803095Y-90027142D02*
X140850714Y-90122380D01*
X140850714Y-90122380D02*
X140898333Y-90170000D01*
X140898333Y-90170000D02*
X140993571Y-90217619D01*
X140993571Y-90217619D02*
X141184047Y-90217619D01*
X141184047Y-90217619D02*
X141279285Y-90170000D01*
X141279285Y-90170000D02*
X141326904Y-90122380D01*
X141326904Y-90122380D02*
X141374523Y-90027142D01*
X141374523Y-90027142D02*
X141374523Y-89217619D01*
X142374523Y-90217619D02*
X141803095Y-90217619D01*
X142088809Y-90217619D02*
X142088809Y-89217619D01*
X142088809Y-89217619D02*
X141993571Y-89360476D01*
X141993571Y-89360476D02*
X141898333Y-89455714D01*
X141898333Y-89455714D02*
X141803095Y-89503333D01*
%TO.C,C2*%
X140685380Y-88586666D02*
X140733000Y-88634285D01*
X140733000Y-88634285D02*
X140780619Y-88777142D01*
X140780619Y-88777142D02*
X140780619Y-88872380D01*
X140780619Y-88872380D02*
X140733000Y-89015237D01*
X140733000Y-89015237D02*
X140637761Y-89110475D01*
X140637761Y-89110475D02*
X140542523Y-89158094D01*
X140542523Y-89158094D02*
X140352047Y-89205713D01*
X140352047Y-89205713D02*
X140209190Y-89205713D01*
X140209190Y-89205713D02*
X140018714Y-89158094D01*
X140018714Y-89158094D02*
X139923476Y-89110475D01*
X139923476Y-89110475D02*
X139828238Y-89015237D01*
X139828238Y-89015237D02*
X139780619Y-88872380D01*
X139780619Y-88872380D02*
X139780619Y-88777142D01*
X139780619Y-88777142D02*
X139828238Y-88634285D01*
X139828238Y-88634285D02*
X139875857Y-88586666D01*
X139875857Y-88205713D02*
X139828238Y-88158094D01*
X139828238Y-88158094D02*
X139780619Y-88062856D01*
X139780619Y-88062856D02*
X139780619Y-87824761D01*
X139780619Y-87824761D02*
X139828238Y-87729523D01*
X139828238Y-87729523D02*
X139875857Y-87681904D01*
X139875857Y-87681904D02*
X139971095Y-87634285D01*
X139971095Y-87634285D02*
X140066333Y-87634285D01*
X140066333Y-87634285D02*
X140209190Y-87681904D01*
X140209190Y-87681904D02*
X140780619Y-88253332D01*
X140780619Y-88253332D02*
X140780619Y-87634285D01*
%TO.C,C6*%
X146699646Y-94773170D02*
X146652027Y-94820790D01*
X146652027Y-94820790D02*
X146509170Y-94868409D01*
X146509170Y-94868409D02*
X146413932Y-94868409D01*
X146413932Y-94868409D02*
X146271075Y-94820790D01*
X146271075Y-94820790D02*
X146175837Y-94725551D01*
X146175837Y-94725551D02*
X146128218Y-94630313D01*
X146128218Y-94630313D02*
X146080599Y-94439837D01*
X146080599Y-94439837D02*
X146080599Y-94296980D01*
X146080599Y-94296980D02*
X146128218Y-94106504D01*
X146128218Y-94106504D02*
X146175837Y-94011266D01*
X146175837Y-94011266D02*
X146271075Y-93916028D01*
X146271075Y-93916028D02*
X146413932Y-93868409D01*
X146413932Y-93868409D02*
X146509170Y-93868409D01*
X146509170Y-93868409D02*
X146652027Y-93916028D01*
X146652027Y-93916028D02*
X146699646Y-93963647D01*
X147556789Y-93868409D02*
X147366313Y-93868409D01*
X147366313Y-93868409D02*
X147271075Y-93916028D01*
X147271075Y-93916028D02*
X147223456Y-93963647D01*
X147223456Y-93963647D02*
X147128218Y-94106504D01*
X147128218Y-94106504D02*
X147080599Y-94296980D01*
X147080599Y-94296980D02*
X147080599Y-94677932D01*
X147080599Y-94677932D02*
X147128218Y-94773170D01*
X147128218Y-94773170D02*
X147175837Y-94820790D01*
X147175837Y-94820790D02*
X147271075Y-94868409D01*
X147271075Y-94868409D02*
X147461551Y-94868409D01*
X147461551Y-94868409D02*
X147556789Y-94820790D01*
X147556789Y-94820790D02*
X147604408Y-94773170D01*
X147604408Y-94773170D02*
X147652027Y-94677932D01*
X147652027Y-94677932D02*
X147652027Y-94439837D01*
X147652027Y-94439837D02*
X147604408Y-94344599D01*
X147604408Y-94344599D02*
X147556789Y-94296980D01*
X147556789Y-94296980D02*
X147461551Y-94249361D01*
X147461551Y-94249361D02*
X147271075Y-94249361D01*
X147271075Y-94249361D02*
X147175837Y-94296980D01*
X147175837Y-94296980D02*
X147128218Y-94344599D01*
X147128218Y-94344599D02*
X147080599Y-94439837D01*
%TO.C,R8*%
X131913333Y-89970619D02*
X131580000Y-89494428D01*
X131341905Y-89970619D02*
X131341905Y-88970619D01*
X131341905Y-88970619D02*
X131722857Y-88970619D01*
X131722857Y-88970619D02*
X131818095Y-89018238D01*
X131818095Y-89018238D02*
X131865714Y-89065857D01*
X131865714Y-89065857D02*
X131913333Y-89161095D01*
X131913333Y-89161095D02*
X131913333Y-89303952D01*
X131913333Y-89303952D02*
X131865714Y-89399190D01*
X131865714Y-89399190D02*
X131818095Y-89446809D01*
X131818095Y-89446809D02*
X131722857Y-89494428D01*
X131722857Y-89494428D02*
X131341905Y-89494428D01*
X132484762Y-89399190D02*
X132389524Y-89351571D01*
X132389524Y-89351571D02*
X132341905Y-89303952D01*
X132341905Y-89303952D02*
X132294286Y-89208714D01*
X132294286Y-89208714D02*
X132294286Y-89161095D01*
X132294286Y-89161095D02*
X132341905Y-89065857D01*
X132341905Y-89065857D02*
X132389524Y-89018238D01*
X132389524Y-89018238D02*
X132484762Y-88970619D01*
X132484762Y-88970619D02*
X132675238Y-88970619D01*
X132675238Y-88970619D02*
X132770476Y-89018238D01*
X132770476Y-89018238D02*
X132818095Y-89065857D01*
X132818095Y-89065857D02*
X132865714Y-89161095D01*
X132865714Y-89161095D02*
X132865714Y-89208714D01*
X132865714Y-89208714D02*
X132818095Y-89303952D01*
X132818095Y-89303952D02*
X132770476Y-89351571D01*
X132770476Y-89351571D02*
X132675238Y-89399190D01*
X132675238Y-89399190D02*
X132484762Y-89399190D01*
X132484762Y-89399190D02*
X132389524Y-89446809D01*
X132389524Y-89446809D02*
X132341905Y-89494428D01*
X132341905Y-89494428D02*
X132294286Y-89589666D01*
X132294286Y-89589666D02*
X132294286Y-89780142D01*
X132294286Y-89780142D02*
X132341905Y-89875380D01*
X132341905Y-89875380D02*
X132389524Y-89923000D01*
X132389524Y-89923000D02*
X132484762Y-89970619D01*
X132484762Y-89970619D02*
X132675238Y-89970619D01*
X132675238Y-89970619D02*
X132770476Y-89923000D01*
X132770476Y-89923000D02*
X132818095Y-89875380D01*
X132818095Y-89875380D02*
X132865714Y-89780142D01*
X132865714Y-89780142D02*
X132865714Y-89589666D01*
X132865714Y-89589666D02*
X132818095Y-89494428D01*
X132818095Y-89494428D02*
X132770476Y-89446809D01*
X132770476Y-89446809D02*
X132675238Y-89399190D01*
%TO.C,C5*%
X146699646Y-90103436D02*
X146652027Y-90151056D01*
X146652027Y-90151056D02*
X146509170Y-90198675D01*
X146509170Y-90198675D02*
X146413932Y-90198675D01*
X146413932Y-90198675D02*
X146271075Y-90151056D01*
X146271075Y-90151056D02*
X146175837Y-90055817D01*
X146175837Y-90055817D02*
X146128218Y-89960579D01*
X146128218Y-89960579D02*
X146080599Y-89770103D01*
X146080599Y-89770103D02*
X146080599Y-89627246D01*
X146080599Y-89627246D02*
X146128218Y-89436770D01*
X146128218Y-89436770D02*
X146175837Y-89341532D01*
X146175837Y-89341532D02*
X146271075Y-89246294D01*
X146271075Y-89246294D02*
X146413932Y-89198675D01*
X146413932Y-89198675D02*
X146509170Y-89198675D01*
X146509170Y-89198675D02*
X146652027Y-89246294D01*
X146652027Y-89246294D02*
X146699646Y-89293913D01*
X147604408Y-89198675D02*
X147128218Y-89198675D01*
X147128218Y-89198675D02*
X147080599Y-89674865D01*
X147080599Y-89674865D02*
X147128218Y-89627246D01*
X147128218Y-89627246D02*
X147223456Y-89579627D01*
X147223456Y-89579627D02*
X147461551Y-89579627D01*
X147461551Y-89579627D02*
X147556789Y-89627246D01*
X147556789Y-89627246D02*
X147604408Y-89674865D01*
X147604408Y-89674865D02*
X147652027Y-89770103D01*
X147652027Y-89770103D02*
X147652027Y-90008198D01*
X147652027Y-90008198D02*
X147604408Y-90103436D01*
X147604408Y-90103436D02*
X147556789Y-90151056D01*
X147556789Y-90151056D02*
X147461551Y-90198675D01*
X147461551Y-90198675D02*
X147223456Y-90198675D01*
X147223456Y-90198675D02*
X147128218Y-90151056D01*
X147128218Y-90151056D02*
X147080599Y-90103436D01*
%TO.C,C1*%
X136282549Y-97093170D02*
X136234930Y-97140790D01*
X136234930Y-97140790D02*
X136092073Y-97188409D01*
X136092073Y-97188409D02*
X135996835Y-97188409D01*
X135996835Y-97188409D02*
X135853978Y-97140790D01*
X135853978Y-97140790D02*
X135758740Y-97045551D01*
X135758740Y-97045551D02*
X135711121Y-96950313D01*
X135711121Y-96950313D02*
X135663502Y-96759837D01*
X135663502Y-96759837D02*
X135663502Y-96616980D01*
X135663502Y-96616980D02*
X135711121Y-96426504D01*
X135711121Y-96426504D02*
X135758740Y-96331266D01*
X135758740Y-96331266D02*
X135853978Y-96236028D01*
X135853978Y-96236028D02*
X135996835Y-96188409D01*
X135996835Y-96188409D02*
X136092073Y-96188409D01*
X136092073Y-96188409D02*
X136234930Y-96236028D01*
X136234930Y-96236028D02*
X136282549Y-96283647D01*
X137234930Y-97188409D02*
X136663502Y-97188409D01*
X136949216Y-97188409D02*
X136949216Y-96188409D01*
X136949216Y-96188409D02*
X136853978Y-96331266D01*
X136853978Y-96331266D02*
X136758740Y-96426504D01*
X136758740Y-96426504D02*
X136663502Y-96474123D01*
%TO.C,C8*%
X145259880Y-100042979D02*
X145307500Y-100090598D01*
X145307500Y-100090598D02*
X145355119Y-100233455D01*
X145355119Y-100233455D02*
X145355119Y-100328693D01*
X145355119Y-100328693D02*
X145307500Y-100471550D01*
X145307500Y-100471550D02*
X145212261Y-100566788D01*
X145212261Y-100566788D02*
X145117023Y-100614407D01*
X145117023Y-100614407D02*
X144926547Y-100662026D01*
X144926547Y-100662026D02*
X144783690Y-100662026D01*
X144783690Y-100662026D02*
X144593214Y-100614407D01*
X144593214Y-100614407D02*
X144497976Y-100566788D01*
X144497976Y-100566788D02*
X144402738Y-100471550D01*
X144402738Y-100471550D02*
X144355119Y-100328693D01*
X144355119Y-100328693D02*
X144355119Y-100233455D01*
X144355119Y-100233455D02*
X144402738Y-100090598D01*
X144402738Y-100090598D02*
X144450357Y-100042979D01*
X144783690Y-99471550D02*
X144736071Y-99566788D01*
X144736071Y-99566788D02*
X144688452Y-99614407D01*
X144688452Y-99614407D02*
X144593214Y-99662026D01*
X144593214Y-99662026D02*
X144545595Y-99662026D01*
X144545595Y-99662026D02*
X144450357Y-99614407D01*
X144450357Y-99614407D02*
X144402738Y-99566788D01*
X144402738Y-99566788D02*
X144355119Y-99471550D01*
X144355119Y-99471550D02*
X144355119Y-99281074D01*
X144355119Y-99281074D02*
X144402738Y-99185836D01*
X144402738Y-99185836D02*
X144450357Y-99138217D01*
X144450357Y-99138217D02*
X144545595Y-99090598D01*
X144545595Y-99090598D02*
X144593214Y-99090598D01*
X144593214Y-99090598D02*
X144688452Y-99138217D01*
X144688452Y-99138217D02*
X144736071Y-99185836D01*
X144736071Y-99185836D02*
X144783690Y-99281074D01*
X144783690Y-99281074D02*
X144783690Y-99471550D01*
X144783690Y-99471550D02*
X144831309Y-99566788D01*
X144831309Y-99566788D02*
X144878928Y-99614407D01*
X144878928Y-99614407D02*
X144974166Y-99662026D01*
X144974166Y-99662026D02*
X145164642Y-99662026D01*
X145164642Y-99662026D02*
X145259880Y-99614407D01*
X145259880Y-99614407D02*
X145307500Y-99566788D01*
X145307500Y-99566788D02*
X145355119Y-99471550D01*
X145355119Y-99471550D02*
X145355119Y-99281074D01*
X145355119Y-99281074D02*
X145307500Y-99185836D01*
X145307500Y-99185836D02*
X145259880Y-99138217D01*
X145259880Y-99138217D02*
X145164642Y-99090598D01*
X145164642Y-99090598D02*
X144974166Y-99090598D01*
X144974166Y-99090598D02*
X144878928Y-99138217D01*
X144878928Y-99138217D02*
X144831309Y-99185836D01*
X144831309Y-99185836D02*
X144783690Y-99281074D01*
%TO.C,Y1*%
X141488932Y-101250527D02*
X141965123Y-101250527D01*
X140965123Y-101583860D02*
X141488932Y-101250527D01*
X141488932Y-101250527D02*
X140965123Y-100917194D01*
X141965123Y-100060051D02*
X141965123Y-100631479D01*
X141965123Y-100345765D02*
X140965123Y-100345765D01*
X140965123Y-100345765D02*
X141107980Y-100441003D01*
X141107980Y-100441003D02*
X141203218Y-100536241D01*
X141203218Y-100536241D02*
X141250837Y-100631479D01*
%TO.C,SW2*%
X135384000Y-97778332D02*
X135431619Y-97635475D01*
X135431619Y-97635475D02*
X135431619Y-97397380D01*
X135431619Y-97397380D02*
X135384000Y-97302142D01*
X135384000Y-97302142D02*
X135336380Y-97254523D01*
X135336380Y-97254523D02*
X135241142Y-97206904D01*
X135241142Y-97206904D02*
X135145904Y-97206904D01*
X135145904Y-97206904D02*
X135050666Y-97254523D01*
X135050666Y-97254523D02*
X135003047Y-97302142D01*
X135003047Y-97302142D02*
X134955428Y-97397380D01*
X134955428Y-97397380D02*
X134907809Y-97587856D01*
X134907809Y-97587856D02*
X134860190Y-97683094D01*
X134860190Y-97683094D02*
X134812571Y-97730713D01*
X134812571Y-97730713D02*
X134717333Y-97778332D01*
X134717333Y-97778332D02*
X134622095Y-97778332D01*
X134622095Y-97778332D02*
X134526857Y-97730713D01*
X134526857Y-97730713D02*
X134479238Y-97683094D01*
X134479238Y-97683094D02*
X134431619Y-97587856D01*
X134431619Y-97587856D02*
X134431619Y-97349761D01*
X134431619Y-97349761D02*
X134479238Y-97206904D01*
X134431619Y-96873570D02*
X135431619Y-96635475D01*
X135431619Y-96635475D02*
X134717333Y-96444999D01*
X134717333Y-96444999D02*
X135431619Y-96254523D01*
X135431619Y-96254523D02*
X134431619Y-96016428D01*
X134526857Y-95683094D02*
X134479238Y-95635475D01*
X134479238Y-95635475D02*
X134431619Y-95540237D01*
X134431619Y-95540237D02*
X134431619Y-95302142D01*
X134431619Y-95302142D02*
X134479238Y-95206904D01*
X134479238Y-95206904D02*
X134526857Y-95159285D01*
X134526857Y-95159285D02*
X134622095Y-95111666D01*
X134622095Y-95111666D02*
X134717333Y-95111666D01*
X134717333Y-95111666D02*
X134860190Y-95159285D01*
X134860190Y-95159285D02*
X135431619Y-95730713D01*
X135431619Y-95730713D02*
X135431619Y-95111666D01*
%TO.C,R1*%
X144542486Y-100222584D02*
X144066295Y-100555917D01*
X144542486Y-100794012D02*
X143542486Y-100794012D01*
X143542486Y-100794012D02*
X143542486Y-100413060D01*
X143542486Y-100413060D02*
X143590105Y-100317822D01*
X143590105Y-100317822D02*
X143637724Y-100270203D01*
X143637724Y-100270203D02*
X143732962Y-100222584D01*
X143732962Y-100222584D02*
X143875819Y-100222584D01*
X143875819Y-100222584D02*
X143971057Y-100270203D01*
X143971057Y-100270203D02*
X144018676Y-100317822D01*
X144018676Y-100317822D02*
X144066295Y-100413060D01*
X144066295Y-100413060D02*
X144066295Y-100794012D01*
X144542486Y-99270203D02*
X144542486Y-99841631D01*
X144542486Y-99555917D02*
X143542486Y-99555917D01*
X143542486Y-99555917D02*
X143685343Y-99651155D01*
X143685343Y-99651155D02*
X143780581Y-99746393D01*
X143780581Y-99746393D02*
X143828200Y-99841631D01*
%TO.C,R4*%
X145942119Y-88812666D02*
X145465928Y-89145999D01*
X145942119Y-89384094D02*
X144942119Y-89384094D01*
X144942119Y-89384094D02*
X144942119Y-89003142D01*
X144942119Y-89003142D02*
X144989738Y-88907904D01*
X144989738Y-88907904D02*
X145037357Y-88860285D01*
X145037357Y-88860285D02*
X145132595Y-88812666D01*
X145132595Y-88812666D02*
X145275452Y-88812666D01*
X145275452Y-88812666D02*
X145370690Y-88860285D01*
X145370690Y-88860285D02*
X145418309Y-88907904D01*
X145418309Y-88907904D02*
X145465928Y-89003142D01*
X145465928Y-89003142D02*
X145465928Y-89384094D01*
X145275452Y-87955523D02*
X145942119Y-87955523D01*
X144894500Y-88193618D02*
X145608785Y-88431713D01*
X145608785Y-88431713D02*
X145608785Y-87812666D01*
D11*
%TO.C,C9*%
X147722000Y-88640836D02*
X147722000Y-88425164D01*
X148442000Y-88640836D02*
X148442000Y-88425164D01*
%TO.C,J2*%
X127194001Y-82356000D02*
X127194001Y-81026000D01*
X128524001Y-82356000D02*
X127194001Y-82356000D01*
X129794002Y-79696000D02*
X137474001Y-79696000D01*
X129794002Y-82356000D02*
X129794002Y-79696000D01*
X129794002Y-82356000D02*
X137474001Y-82356000D01*
X137474001Y-82356000D02*
X137474001Y-79696000D01*
%TO.C,R5*%
X145146500Y-88883257D02*
X145146500Y-88408741D01*
X146191500Y-88883257D02*
X146191500Y-88408741D01*
%TO.C,C13*%
X137166846Y-100486897D02*
X137166846Y-100702569D01*
X137886846Y-100486897D02*
X137886846Y-100702569D01*
%TO.C,C4*%
X142134000Y-88527836D02*
X142134000Y-88312164D01*
X142854000Y-88527836D02*
X142854000Y-88312164D01*
%TO.C,J1*%
X139064000Y-79788000D02*
X139064000Y-77888000D01*
X139064000Y-83688000D02*
X139064000Y-81688000D01*
X148464000Y-77888000D02*
X139064000Y-77888000D01*
X148464000Y-79788000D02*
X148464000Y-77888000D01*
X148464000Y-83688000D02*
X148464000Y-81688000D01*
%TO.C,C10*%
X140102000Y-88527836D02*
X140102000Y-88312164D01*
X140822000Y-88527836D02*
X140822000Y-88312164D01*
%TO.C,C11*%
X146644369Y-88640836D02*
X146644369Y-88425164D01*
X147364369Y-88640836D02*
X147364369Y-88425164D01*
%TO.C,R2*%
X136780000Y-84227641D02*
X136780000Y-83920359D01*
X137540000Y-84227641D02*
X137540000Y-83920359D01*
%TO.C,R6*%
X141068554Y-99701359D02*
X141068554Y-100008641D01*
X141828554Y-99701359D02*
X141828554Y-100008641D01*
%TO.C,C12*%
X141846664Y-101019000D02*
X142062336Y-101019000D01*
X141846664Y-101739000D02*
X142062336Y-101739000D01*
%TO.C,C7*%
X136557052Y-91613686D02*
X136341380Y-91613686D01*
X136557052Y-92333686D02*
X136341380Y-92333686D01*
%TO.C,C3*%
X142294869Y-99768477D02*
X142294869Y-99984149D01*
X143014869Y-99768477D02*
X143014869Y-99984149D01*
%TO.C,R3*%
X135764000Y-84227641D02*
X135764000Y-83920359D01*
X136524000Y-84227641D02*
X136524000Y-83920359D01*
%TO.C,SW1*%
X128143000Y-94247000D02*
X128143000Y-98747000D01*
X130413000Y-98695000D02*
X130413000Y-94195000D01*
%TO.C,C14*%
X130772014Y-83206000D02*
X130987686Y-83206000D01*
X130772014Y-83926000D02*
X130987686Y-83926000D01*
D12*
%TO.C,U2*%
X130486150Y-84950300D02*
X130486150Y-89293700D01*
X130486150Y-89293700D02*
X130972560Y-89293700D01*
X130972560Y-84950300D02*
X130486150Y-84950300D01*
X134343140Y-89293700D02*
X134829550Y-89293700D01*
X134829550Y-84950300D02*
X134343140Y-84950300D01*
X134829550Y-89293700D02*
X134829550Y-84950300D01*
X131559300Y-90424000D02*
G75*
G03*
X131559300Y-90424000I-101600J0D01*
G01*
D11*
%TO.C,R7*%
X129033000Y-88619359D02*
X129033000Y-88926641D01*
X129793000Y-88619359D02*
X129793000Y-88926641D01*
%TO.C,U1*%
X137955000Y-98185000D02*
X137955000Y-97535001D01*
X138604999Y-90965000D02*
X137955000Y-90965000D01*
X138604999Y-98185000D02*
X137955000Y-98185000D01*
X144525001Y-90965000D02*
X145175000Y-90965000D01*
X144525001Y-98185000D02*
X145175000Y-98185000D01*
X145175000Y-90965000D02*
X145175000Y-91614999D01*
X145175000Y-98185000D02*
X145175000Y-97535001D01*
%TO.C,C2*%
X141118000Y-88527836D02*
X141118000Y-88312164D01*
X141838000Y-88527836D02*
X141838000Y-88312164D01*
%TO.C,C6*%
X146758477Y-95205790D02*
X146974149Y-95205790D01*
X146758477Y-95925790D02*
X146974149Y-95925790D01*
%TO.C,R8*%
X131926359Y-90298000D02*
X132233641Y-90298000D01*
X131926359Y-91058000D02*
X132233641Y-91058000D01*
%TO.C,C5*%
X146758477Y-90536056D02*
X146974149Y-90536056D01*
X146758477Y-91256056D02*
X146974149Y-91256056D01*
%TO.C,C1*%
X136557052Y-95205790D02*
X136341380Y-95205790D01*
X136557052Y-95925790D02*
X136341380Y-95925790D01*
%TO.C,C8*%
X143372500Y-99768477D02*
X143372500Y-99984149D01*
X144092500Y-99768477D02*
X144092500Y-99984149D01*
%TO.C,Y1*%
X138352503Y-99424337D02*
X138352503Y-102124337D01*
X140652503Y-99424337D02*
X138352503Y-99424337D01*
%TO.C,SW2*%
X131699000Y-94247000D02*
X131699000Y-98747000D01*
X133969000Y-98695000D02*
X133969000Y-94195000D01*
%TO.C,R1*%
X144869867Y-100209559D02*
X144869867Y-99902277D01*
X145629867Y-100209559D02*
X145629867Y-99902277D01*
%TO.C,R4*%
X143527000Y-88408742D02*
X143527000Y-88883258D01*
X144572000Y-88408742D02*
X144572000Y-88883258D01*
%TD*%
%LPC*%
D13*
%TO.C,C9*%
X148082000Y-89013000D03*
X148082000Y-88053000D03*
%TD*%
D14*
%TO.C,J2*%
X128524001Y-81026000D03*
D15*
X131064001Y-81026000D03*
X133604000Y-81026000D03*
X136144001Y-81026000D03*
%TD*%
D16*
%TO.C,R5*%
X145669000Y-89470999D03*
X145669000Y-87820999D03*
%TD*%
D17*
%TO.C,C13*%
X137526846Y-100114733D03*
X137526846Y-101074733D03*
%TD*%
D13*
%TO.C,C4*%
X142494000Y-88900000D03*
X142494000Y-87940000D03*
%TD*%
D18*
%TO.C,J1*%
X146654000Y-84388000D03*
X140874000Y-84388000D03*
D19*
X147014000Y-85833000D03*
X146214000Y-85833000D03*
D20*
X145014000Y-85833000D03*
X144014000Y-85833000D03*
X143514000Y-85833000D03*
X142514000Y-85833000D03*
D19*
X141314000Y-85833000D03*
X140514000Y-85833000D03*
X140514000Y-85833000D03*
X141314000Y-85833000D03*
D20*
X142014000Y-85833000D03*
X143014000Y-85833000D03*
X144514000Y-85833000D03*
X145514000Y-85833000D03*
D19*
X146214000Y-85833000D03*
X147014000Y-85833000D03*
D21*
X148084000Y-84918000D03*
D22*
X148084000Y-80738000D03*
D21*
X139444000Y-84918000D03*
D22*
X139444000Y-80738000D03*
%TD*%
D13*
%TO.C,C10*%
X140462000Y-88900000D03*
X140462000Y-87940000D03*
%TD*%
%TO.C,C11*%
X147004369Y-89013000D03*
X147004369Y-88053000D03*
%TD*%
D23*
%TO.C,R2*%
X137160000Y-84583999D03*
X137160000Y-83564001D03*
%TD*%
D24*
%TO.C,R6*%
X141448554Y-99345001D03*
X141448554Y-100364999D03*
%TD*%
D25*
%TO.C,C12*%
X141474500Y-101379000D03*
X142434500Y-101379000D03*
%TD*%
D26*
%TO.C,C7*%
X136929216Y-91973686D03*
X135969216Y-91973686D03*
%TD*%
D17*
%TO.C,C3*%
X142654869Y-99396313D03*
X142654869Y-100356313D03*
%TD*%
D23*
%TO.C,R3*%
X136144000Y-84583999D03*
X136144000Y-83564001D03*
%TD*%
D27*
%TO.C,SW1*%
X129413000Y-93195000D03*
X129413000Y-99695000D03*
%TD*%
D25*
%TO.C,C14*%
X130399850Y-83566000D03*
X131359850Y-83566000D03*
%TD*%
D28*
%TO.C,U2*%
X131457700Y-89141300D03*
X132257800Y-89141300D03*
X133057900Y-89141300D03*
X133858000Y-89141300D03*
D29*
X132657850Y-87122000D03*
D28*
X133858000Y-85102700D03*
X133057900Y-85102700D03*
X132257800Y-85102700D03*
X131457700Y-85102700D03*
%TD*%
D24*
%TO.C,R7*%
X129413000Y-88263001D03*
X129413000Y-89282999D03*
%TD*%
D30*
%TO.C,U1*%
X138127500Y-91975000D03*
X138127500Y-92375001D03*
X138127500Y-92775000D03*
X138127500Y-93175000D03*
X138127500Y-93575000D03*
X138127500Y-93974999D03*
X138127500Y-94375000D03*
X138127500Y-94775000D03*
X138127500Y-95175001D03*
X138127500Y-95575000D03*
X138127500Y-95975000D03*
X138127500Y-96375000D03*
X138127500Y-96774999D03*
X138127500Y-97175000D03*
D31*
X138965000Y-98012500D03*
X139365001Y-98012500D03*
X139765000Y-98012500D03*
X140165000Y-98012500D03*
X140565000Y-98012500D03*
X140964999Y-98012500D03*
X141365000Y-98012500D03*
X141765000Y-98012500D03*
X142165001Y-98012500D03*
X142565000Y-98012500D03*
X142965000Y-98012500D03*
X143365000Y-98012500D03*
X143764999Y-98012500D03*
X144165000Y-98012500D03*
D30*
X145002500Y-97175000D03*
X145002500Y-96774999D03*
X145002500Y-96375000D03*
X145002500Y-95975000D03*
X145002500Y-95575000D03*
X145002500Y-95175001D03*
X145002500Y-94775000D03*
X145002500Y-94375000D03*
X145002500Y-93974999D03*
X145002500Y-93575000D03*
X145002500Y-93175000D03*
X145002500Y-92775000D03*
X145002500Y-92375001D03*
X145002500Y-91975000D03*
D31*
X144165000Y-91137500D03*
X143764999Y-91137500D03*
X143365000Y-91137500D03*
X142965000Y-91137500D03*
X142565000Y-91137500D03*
X142165001Y-91137500D03*
X141765000Y-91137500D03*
X141365000Y-91137500D03*
X140964999Y-91137500D03*
X140565000Y-91137500D03*
X140165000Y-91137500D03*
X139765000Y-91137500D03*
X139365001Y-91137500D03*
X138965000Y-91137500D03*
D32*
X141565000Y-94575000D03*
%TD*%
D13*
%TO.C,C2*%
X141478000Y-88900000D03*
X141478000Y-87940000D03*
%TD*%
D25*
%TO.C,C6*%
X146386313Y-95565790D03*
X147346313Y-95565790D03*
%TD*%
D33*
%TO.C,R8*%
X131570001Y-90678000D03*
X132589999Y-90678000D03*
%TD*%
D25*
%TO.C,C5*%
X146386313Y-90896056D03*
X147346313Y-90896056D03*
%TD*%
D26*
%TO.C,C1*%
X136929216Y-95565790D03*
X135969216Y-95565790D03*
%TD*%
D17*
%TO.C,C8*%
X143732500Y-99396313D03*
X143732500Y-100356313D03*
%TD*%
D34*
%TO.C,Y1*%
X138952503Y-100074337D03*
X138952503Y-101474337D03*
X140052503Y-101474337D03*
X140052503Y-100074337D03*
%TD*%
D27*
%TO.C,SW2*%
X132969000Y-93195000D03*
X132969000Y-99695000D03*
%TD*%
D23*
%TO.C,R1*%
X145249867Y-100565917D03*
X145249867Y-99545919D03*
%TD*%
D35*
%TO.C,R4*%
X144049500Y-87821000D03*
X144049500Y-89471000D03*
%TD*%
%LPD*%
M02*
