%TF.GenerationSoftware,KiCad,Pcbnew,7.99.0-3012-g423a5b9961*%
%TF.CreationDate,2023-10-18T14:49:52-04:00*%
%TF.ProjectId,switch,73776974-6368-42e6-9b69-6361645f7063,rev?*%
%TF.SameCoordinates,Original*%
%TF.FileFunction,Soldermask,Bot*%
%TF.FilePolarity,Negative*%
%FSLAX46Y46*%
G04 Gerber Fmt 4.6, Leading zero omitted, Abs format (unit mm)*
G04 Created by KiCad (PCBNEW 7.99.0-3012-g423a5b9961) date 2023-10-18 14:49:52*
%MOMM*%
%LPD*%
G01*
G04 APERTURE LIST*
G04 Aperture macros list*
%AMRoundRect*
0 Rectangle with rounded corners*
0 $1 Rounding radius*
0 $2 $3 $4 $5 $6 $7 $8 $9 X,Y pos of 4 corners*
0 Add a 4 corners polygon primitive as box body*
4,1,4,$2,$3,$4,$5,$6,$7,$8,$9,$2,$3,0*
0 Add four circle primitives for the rounded corners*
1,1,$1+$1,$2,$3*
1,1,$1+$1,$4,$5*
1,1,$1+$1,$6,$7*
1,1,$1+$1,$8,$9*
0 Add four rect primitives between the rounded corners*
20,1,$1+$1,$2,$3,$4,$5,0*
20,1,$1+$1,$4,$5,$6,$7,0*
20,1,$1+$1,$6,$7,$8,$9,0*
20,1,$1+$1,$8,$9,$2,$3,0*%
G04 Aperture macros list end*
%ADD10C,3.200000*%
%ADD11RoundRect,0.200000X0.450000X-0.200000X0.450000X0.200000X-0.450000X0.200000X-0.450000X-0.200000X0*%
%ADD12O,1.300000X0.800000*%
%ADD13RoundRect,0.200000X0.200000X0.450000X-0.200000X0.450000X-0.200000X-0.450000X0.200000X-0.450000X0*%
%ADD14O,0.800000X1.300000*%
%ADD15RoundRect,0.200000X-0.200000X-0.450000X0.200000X-0.450000X0.200000X0.450000X-0.200000X0.450000X0*%
%ADD16C,2.000000*%
%ADD17R,1.000000X1.500000*%
G04 APERTURE END LIST*
D10*
%TO.C,H3*%
X109702600Y-120345200D03*
%TD*%
D11*
%TO.C,J8*%
X154813000Y-114604800D03*
D12*
X154813000Y-113354801D03*
X154813000Y-112104800D03*
X154813000Y-110854801D03*
%TD*%
D11*
%TO.C,J6*%
X154762200Y-95215400D03*
D12*
X154762200Y-93965400D03*
X154762200Y-92715400D03*
X154762200Y-91465400D03*
%TD*%
D10*
%TO.C,H1*%
X109702600Y-75133200D03*
%TD*%
D13*
%TO.C,J4*%
X124575000Y-73826000D03*
D14*
X123325000Y-73826000D03*
X122075000Y-73826000D03*
X120825000Y-73826000D03*
%TD*%
D10*
%TO.C,H2*%
X152247600Y-75107800D03*
%TD*%
%TO.C,H4*%
X152019000Y-120370600D03*
%TD*%
D15*
%TO.C,J1*%
X123174600Y-118280600D03*
D14*
X124424600Y-118280600D03*
%TD*%
D16*
%TO.C,SW1*%
X107023600Y-97141800D03*
X107023600Y-90641800D03*
%TD*%
D11*
%TO.C,J7*%
X154762200Y-103327200D03*
D12*
X154762200Y-102077201D03*
X154762200Y-100827200D03*
X154762200Y-99577201D03*
%TD*%
D15*
%TO.C,J3*%
X123159200Y-113766600D03*
D14*
X124409200Y-113766600D03*
%TD*%
D16*
%TO.C,SW2*%
X111810800Y-90678000D03*
X111810800Y-97178000D03*
%TD*%
D13*
%TO.C,J5*%
X132816600Y-73749800D03*
D14*
X131566600Y-73749800D03*
X130316600Y-73749800D03*
X129066600Y-73749800D03*
%TD*%
D17*
%TO.C,JP6*%
X108396800Y-114173000D03*
X107096800Y-114173000D03*
%TD*%
%TO.C,JP1*%
X108396800Y-101244400D03*
X107096800Y-101244400D03*
%TD*%
%TO.C,JP5*%
X108396800Y-111588200D03*
X107096800Y-111588200D03*
%TD*%
%TO.C,JP3*%
X108394800Y-106418600D03*
X107094800Y-106418600D03*
%TD*%
%TO.C,JP4*%
X108396800Y-109003400D03*
X107096800Y-109003400D03*
%TD*%
%TO.C,JP2*%
X108396800Y-103833800D03*
X107096800Y-103833800D03*
%TD*%
M02*
