M48
; DRILL file {KiCad 8.99.0-187-g1297ddc88d} date 2024-06-02T21:20:44+0800
; FORMAT={-:-/ absolute / inch / decimal}
; #@! TF.CreationDate,2024-06-02T21:20:44+08:00
; #@! TF.GenerationSoftware,Kicad,Pcbnew,8.99.0-187-g1297ddc88d
; #@! TF.FileFunction,Plated,1,4,PTH
FMAT,2
INCH
; #@! TA.AperFunction,Plated,PTH,ComponentDrill
T1C0.0079
; #@! TA.AperFunction,Plated,PTH,ViaDrill
T2C0.0118
; #@! TA.AperFunction,Plated,PTH,ComponentDrill
T3C0.0197
%
G90
G05
T1
X4.8455Y-3.9197
X4.8455Y-3.9696
X4.8455Y-4.0195
X4.8455Y-4.0693
X4.8954Y-3.9197
X4.8954Y-3.9696
X4.8954Y-4.0195
X4.8954Y-4.0693
X4.9453Y-3.9197
X4.9453Y-3.9696
X4.9453Y-4.0195
X4.9453Y-4.0693
X4.9951Y-3.9197
X4.9951Y-3.9696
X4.9951Y-4.0195
X4.9951Y-4.0693
T2
X4.4114Y-4.1476
X4.4252Y-4.061
X4.4437Y-3.1642
X4.4654Y-3.2638
X4.4665Y-4.5577
X4.4764Y-3.548
X4.4764Y-3.598
X4.4961Y-4.1398
X4.4969Y-4.2165
X4.5165Y-4.3077
X4.5165Y-4.5077
X4.5165Y-4.5577
X4.5169Y-4.3492
X4.5202Y-4.1142
X4.5335Y-3.5972
X4.55Y-3.2642
X4.56Y-4.132
X4.5665Y-4.3077
X4.5665Y-4.5077
X4.5665Y-4.5577
X4.5669Y-4.3492
X4.5689Y-3.8819
X4.5709Y-3.9506
X4.5797Y-3.9911
X4.5823Y-4.1555
X4.5827Y-3.561
X4.5835Y-3.5972
X4.5872Y-4.105
X4.6004Y-3.6685
X4.606Y-3.746
X4.6165Y-4.3077
X4.6165Y-4.5077
X4.6165Y-4.5577
X4.6169Y-4.3492
X4.6181Y-3.2638
X4.631Y-3.8591
X4.6323Y-4.1555
X4.6417Y-4.1004
X4.6457Y-3.9449
X4.6705Y-3.0331
X4.6705Y-3.0831
X4.673Y-3.974
X4.6756Y-4.5941
X4.6823Y-4.1555
X4.7Y-3.933
X4.7122Y-3.0843
X4.7122Y-3.1343
X4.714Y-4.068
X4.7256Y-4.5941
X4.744Y-4.121
X4.7461Y-4.0689
X4.7461Y-4.0965
X4.766Y-3.94
X4.7685Y-3.8362
X4.7894Y-3.2874
X4.7894Y-3.5217
X4.8031Y-3.8488
X4.816Y-4.201
X4.836Y-4.222
X4.8819Y-4.3248
X4.9051Y-4.4236
X4.9173Y-4.3327
X4.943Y-4.226
X4.944Y-4.195
X4.952Y-4.35
X4.9551Y-4.4236
X4.966Y-4.258
X4.9705Y-3.7421
X4.9961Y-3.7421
X5.0051Y-4.4236
X5.0394Y-3.2854
X5.0413Y-3.5256
X5.042Y-3.871
X5.0654Y-4.4752
X5.0654Y-4.5252
X5.0654Y-4.5752
X5.082Y-4.1063
X5.0945Y-3.7756
X5.1113Y-3.9733
X5.1157Y-3.0094
X5.1157Y-3.0996
X5.1198Y-4.1043
X5.1327Y-4.3457
X5.1327Y-4.3957
X5.1339Y-3.8051
X5.1713Y-3.9331
X5.2157Y-3.0094
X5.2157Y-3.0996
X5.2433Y-4.3457
X5.2433Y-4.3957
X5.2433Y-4.4457
X5.2433Y-4.4961
X5.2433Y-4.5461
X5.2996Y-4.5232
X5.3642Y-3.315
X5.3654Y-3.4343
X5.3654Y-3.5563
X5.3654Y-3.6764
X5.3673Y-3.7984
X5.3673Y-3.9224
X5.3673Y-4.0366
X5.3673Y-4.1567
X5.3673Y-4.3457
X5.3673Y-4.387
X5.3673Y-4.4264
X5.3673Y-4.4697
X5.3996Y-4.5232
X5.3996Y-4.589
X5.4Y-3.0098
X5.4Y-3.1
X5.4Y-3.2
X5.4996Y-4.5232
X5.4996Y-4.589
X5.5Y-3.0098
X5.5Y-3.1
X5.5Y-3.2
X5.5933Y-4.5894
X5.6933Y-4.5894
X5.7933Y-4.5894
X5.7945Y-4.4106
X5.7949Y-4.3433
X5.8Y-3.0256
X5.8Y-3.1
X5.8083Y-4.1587
X5.8102Y-3.1606
X5.8102Y-3.3122
X5.8102Y-3.6685
X5.8102Y-3.9224
X5.8102Y-4.0386
X5.8122Y-3.4165
X5.8122Y-3.5445
X5.8122Y-3.8043
X5.8161Y-3.2039
X5.9Y-3.0256
X5.9Y-3.1
X5.9Y-3.2
X6.0Y-3.0256
X6.0Y-3.1
X6.1Y-3.1
T3
X4.8465Y-3.0571
X4.8957Y-3.0571
X4.9449Y-3.0571
X4.9724Y-4.4803
X4.9724Y-4.5295
X4.9941Y-3.0571
X5.1575Y-4.4803
X5.1575Y-4.5295
X6.0386Y-3.812
X6.0386Y-3.8612
X6.0386Y-3.9104
X6.0386Y-3.9596
X6.074Y-3.497
X6.074Y-3.5463
X6.074Y-3.5955
X6.074Y-3.6447
X6.074Y-4.127
X6.074Y-4.1762
X6.074Y-4.2254
X6.074Y-4.2746
X6.075Y-3.1831
X6.075Y-3.2323
X6.075Y-3.2815
X6.075Y-3.3307
M30
