%TF.GenerationSoftware,KiCad,Pcbnew,9.0.2*%
%TF.CreationDate,2025-07-16T09:04:19-04:00*%
%TF.ProjectId,switch,73776974-6368-42e6-9b69-6361645f7063,V2*%
%TF.SameCoordinates,Original*%
%TF.FileFunction,Legend,Bot*%
%TF.FilePolarity,Positive*%
%FSLAX46Y46*%
G04 Gerber Fmt 4.6, Leading zero omitted, Abs format (unit mm)*
G04 Created by KiCad (PCBNEW 9.0.2) date 2025-07-16 09:04:19*
%MOMM*%
%LPD*%
G01*
G04 APERTURE LIST*
G04 Aperture macros list*
%AMRoundRect*
0 Rectangle with rounded corners*
0 $1 Rounding radius*
0 $2 $3 $4 $5 $6 $7 $8 $9 X,Y pos of 4 corners*
0 Add a 4 corners polygon primitive as box body*
4,1,4,$2,$3,$4,$5,$6,$7,$8,$9,$2,$3,0*
0 Add four circle primitives for the rounded corners*
1,1,$1+$1,$2,$3*
1,1,$1+$1,$4,$5*
1,1,$1+$1,$6,$7*
1,1,$1+$1,$8,$9*
0 Add four rect primitives between the rounded corners*
20,1,$1+$1,$2,$3,$4,$5,0*
20,1,$1+$1,$4,$5,$6,$7,0*
20,1,$1+$1,$6,$7,$8,$9,0*
20,1,$1+$1,$8,$9,$2,$3,0*%
G04 Aperture macros list end*
%ADD10C,0.100000*%
%ADD11C,0.200000*%
%ADD12C,0.540000*%
%ADD13C,0.300000*%
%ADD14C,0.500000*%
%ADD15C,0.010000*%
%ADD16C,0.000000*%
%ADD17RoundRect,0.200000X0.450000X-0.200000X0.450000X0.200000X-0.450000X0.200000X-0.450000X-0.200000X0*%
%ADD18O,1.300000X0.800000*%
%ADD19C,3.200000*%
%ADD20RoundRect,0.200000X0.200000X0.450000X-0.200000X0.450000X-0.200000X-0.450000X0.200000X-0.450000X0*%
%ADD21O,0.800000X1.300000*%
%ADD22RoundRect,0.200000X-0.450000X0.200000X-0.450000X-0.200000X0.450000X-0.200000X0.450000X0.200000X0*%
G04 APERTURE END LIST*
D10*
X127475200Y-103250000D02*
X151935400Y-103250000D01*
X151935400Y-109762400D01*
X127475200Y-109762400D01*
X127475200Y-103250000D01*
D11*
X125315564Y-108210552D02*
X125125088Y-108877219D01*
X125125088Y-108877219D02*
X124934612Y-108401028D01*
X124934612Y-108401028D02*
X124744136Y-108877219D01*
X124744136Y-108877219D02*
X124553660Y-108210552D01*
X124029850Y-108877219D02*
X124125088Y-108829600D01*
X124125088Y-108829600D02*
X124172707Y-108781980D01*
X124172707Y-108781980D02*
X124220326Y-108686742D01*
X124220326Y-108686742D02*
X124220326Y-108401028D01*
X124220326Y-108401028D02*
X124172707Y-108305790D01*
X124172707Y-108305790D02*
X124125088Y-108258171D01*
X124125088Y-108258171D02*
X124029850Y-108210552D01*
X124029850Y-108210552D02*
X123886993Y-108210552D01*
X123886993Y-108210552D02*
X123791755Y-108258171D01*
X123791755Y-108258171D02*
X123744136Y-108305790D01*
X123744136Y-108305790D02*
X123696517Y-108401028D01*
X123696517Y-108401028D02*
X123696517Y-108686742D01*
X123696517Y-108686742D02*
X123744136Y-108781980D01*
X123744136Y-108781980D02*
X123791755Y-108829600D01*
X123791755Y-108829600D02*
X123886993Y-108877219D01*
X123886993Y-108877219D02*
X124029850Y-108877219D01*
X123267945Y-108877219D02*
X123267945Y-108210552D01*
X123267945Y-108401028D02*
X123220326Y-108305790D01*
X123220326Y-108305790D02*
X123172707Y-108258171D01*
X123172707Y-108258171D02*
X123077469Y-108210552D01*
X123077469Y-108210552D02*
X122982231Y-108210552D01*
X122506040Y-108877219D02*
X122601278Y-108829600D01*
X122601278Y-108829600D02*
X122648897Y-108734361D01*
X122648897Y-108734361D02*
X122648897Y-107877219D01*
X121696516Y-108877219D02*
X121696516Y-107877219D01*
X121696516Y-108829600D02*
X121791754Y-108877219D01*
X121791754Y-108877219D02*
X121982230Y-108877219D01*
X121982230Y-108877219D02*
X122077468Y-108829600D01*
X122077468Y-108829600D02*
X122125087Y-108781980D01*
X122125087Y-108781980D02*
X122172706Y-108686742D01*
X122172706Y-108686742D02*
X122172706Y-108401028D01*
X122172706Y-108401028D02*
X122125087Y-108305790D01*
X122125087Y-108305790D02*
X122077468Y-108258171D01*
X122077468Y-108258171D02*
X121982230Y-108210552D01*
X121982230Y-108210552D02*
X121791754Y-108210552D01*
X121791754Y-108210552D02*
X121696516Y-108258171D01*
X121172706Y-107877219D02*
X121267944Y-108067695D01*
X120791754Y-108829600D02*
X120696516Y-108877219D01*
X120696516Y-108877219D02*
X120506040Y-108877219D01*
X120506040Y-108877219D02*
X120410802Y-108829600D01*
X120410802Y-108829600D02*
X120363183Y-108734361D01*
X120363183Y-108734361D02*
X120363183Y-108686742D01*
X120363183Y-108686742D02*
X120410802Y-108591504D01*
X120410802Y-108591504D02*
X120506040Y-108543885D01*
X120506040Y-108543885D02*
X120648897Y-108543885D01*
X120648897Y-108543885D02*
X120744135Y-108496266D01*
X120744135Y-108496266D02*
X120791754Y-108401028D01*
X120791754Y-108401028D02*
X120791754Y-108353409D01*
X120791754Y-108353409D02*
X120744135Y-108258171D01*
X120744135Y-108258171D02*
X120648897Y-108210552D01*
X120648897Y-108210552D02*
X120506040Y-108210552D01*
X120506040Y-108210552D02*
X120410802Y-108258171D01*
X119220325Y-108829600D02*
X119125087Y-108877219D01*
X119125087Y-108877219D02*
X118934611Y-108877219D01*
X118934611Y-108877219D02*
X118839373Y-108829600D01*
X118839373Y-108829600D02*
X118791754Y-108734361D01*
X118791754Y-108734361D02*
X118791754Y-108686742D01*
X118791754Y-108686742D02*
X118839373Y-108591504D01*
X118839373Y-108591504D02*
X118934611Y-108543885D01*
X118934611Y-108543885D02*
X119077468Y-108543885D01*
X119077468Y-108543885D02*
X119172706Y-108496266D01*
X119172706Y-108496266D02*
X119220325Y-108401028D01*
X119220325Y-108401028D02*
X119220325Y-108353409D01*
X119220325Y-108353409D02*
X119172706Y-108258171D01*
X119172706Y-108258171D02*
X119077468Y-108210552D01*
X119077468Y-108210552D02*
X118934611Y-108210552D01*
X118934611Y-108210552D02*
X118839373Y-108258171D01*
X118363182Y-108877219D02*
X118363182Y-108210552D01*
X118363182Y-108305790D02*
X118315563Y-108258171D01*
X118315563Y-108258171D02*
X118220325Y-108210552D01*
X118220325Y-108210552D02*
X118077468Y-108210552D01*
X118077468Y-108210552D02*
X117982230Y-108258171D01*
X117982230Y-108258171D02*
X117934611Y-108353409D01*
X117934611Y-108353409D02*
X117934611Y-108877219D01*
X117934611Y-108353409D02*
X117886992Y-108258171D01*
X117886992Y-108258171D02*
X117791754Y-108210552D01*
X117791754Y-108210552D02*
X117648897Y-108210552D01*
X117648897Y-108210552D02*
X117553658Y-108258171D01*
X117553658Y-108258171D02*
X117506039Y-108353409D01*
X117506039Y-108353409D02*
X117506039Y-108877219D01*
X116601278Y-108877219D02*
X116601278Y-108353409D01*
X116601278Y-108353409D02*
X116648897Y-108258171D01*
X116648897Y-108258171D02*
X116744135Y-108210552D01*
X116744135Y-108210552D02*
X116934611Y-108210552D01*
X116934611Y-108210552D02*
X117029849Y-108258171D01*
X116601278Y-108829600D02*
X116696516Y-108877219D01*
X116696516Y-108877219D02*
X116934611Y-108877219D01*
X116934611Y-108877219D02*
X117029849Y-108829600D01*
X117029849Y-108829600D02*
X117077468Y-108734361D01*
X117077468Y-108734361D02*
X117077468Y-108639123D01*
X117077468Y-108639123D02*
X117029849Y-108543885D01*
X117029849Y-108543885D02*
X116934611Y-108496266D01*
X116934611Y-108496266D02*
X116696516Y-108496266D01*
X116696516Y-108496266D02*
X116601278Y-108448647D01*
X115982230Y-108877219D02*
X116077468Y-108829600D01*
X116077468Y-108829600D02*
X116125087Y-108734361D01*
X116125087Y-108734361D02*
X116125087Y-107877219D01*
X115458420Y-108877219D02*
X115553658Y-108829600D01*
X115553658Y-108829600D02*
X115601277Y-108734361D01*
X115601277Y-108734361D02*
X115601277Y-107877219D01*
X114696515Y-108829600D02*
X114791753Y-108877219D01*
X114791753Y-108877219D02*
X114982229Y-108877219D01*
X114982229Y-108877219D02*
X115077467Y-108829600D01*
X115077467Y-108829600D02*
X115125086Y-108734361D01*
X115125086Y-108734361D02*
X115125086Y-108353409D01*
X115125086Y-108353409D02*
X115077467Y-108258171D01*
X115077467Y-108258171D02*
X114982229Y-108210552D01*
X114982229Y-108210552D02*
X114791753Y-108210552D01*
X114791753Y-108210552D02*
X114696515Y-108258171D01*
X114696515Y-108258171D02*
X114648896Y-108353409D01*
X114648896Y-108353409D02*
X114648896Y-108448647D01*
X114648896Y-108448647D02*
X115125086Y-108543885D01*
X114267943Y-108829600D02*
X114172705Y-108877219D01*
X114172705Y-108877219D02*
X113982229Y-108877219D01*
X113982229Y-108877219D02*
X113886991Y-108829600D01*
X113886991Y-108829600D02*
X113839372Y-108734361D01*
X113839372Y-108734361D02*
X113839372Y-108686742D01*
X113839372Y-108686742D02*
X113886991Y-108591504D01*
X113886991Y-108591504D02*
X113982229Y-108543885D01*
X113982229Y-108543885D02*
X114125086Y-108543885D01*
X114125086Y-108543885D02*
X114220324Y-108496266D01*
X114220324Y-108496266D02*
X114267943Y-108401028D01*
X114267943Y-108401028D02*
X114267943Y-108353409D01*
X114267943Y-108353409D02*
X114220324Y-108258171D01*
X114220324Y-108258171D02*
X114125086Y-108210552D01*
X114125086Y-108210552D02*
X113982229Y-108210552D01*
X113982229Y-108210552D02*
X113886991Y-108258171D01*
X113553657Y-108210552D02*
X113172705Y-108210552D01*
X113410800Y-107877219D02*
X113410800Y-108734361D01*
X113410800Y-108734361D02*
X113363181Y-108829600D01*
X113363181Y-108829600D02*
X113267943Y-108877219D01*
X113267943Y-108877219D02*
X113172705Y-108877219D01*
D10*
G36*
X126313474Y-107010000D02*
G01*
X126313474Y-106240024D01*
X126204297Y-106240024D01*
X126204297Y-106342178D01*
X126176271Y-106342178D01*
X126202893Y-106365992D01*
X126198682Y-106326297D01*
X126186715Y-106293163D01*
X126167234Y-106265181D01*
X126141185Y-106243602D01*
X126110179Y-106230551D01*
X126072712Y-106225980D01*
X126030357Y-106231775D01*
X125995494Y-106248421D01*
X125966283Y-106276416D01*
X125945156Y-106311932D01*
X125931842Y-106355149D01*
X125927082Y-106408002D01*
X125964878Y-106335218D01*
X125906077Y-106335218D01*
X125938317Y-106365992D01*
X125933133Y-106324505D01*
X125920394Y-106290998D01*
X125900520Y-106263777D01*
X125874099Y-106243072D01*
X125842413Y-106230431D01*
X125803922Y-106225980D01*
X125757083Y-106232327D01*
X125718298Y-106250588D01*
X125685587Y-106281301D01*
X125661753Y-106320362D01*
X125646818Y-106367511D01*
X125641501Y-106424794D01*
X125641501Y-107010000D01*
X125759104Y-107010000D01*
X125759104Y-106423389D01*
X125765102Y-106380676D01*
X125781513Y-106349933D01*
X125807701Y-106329604D01*
X125843123Y-106322578D01*
X125877400Y-106329379D01*
X125903329Y-106349200D01*
X125919671Y-106379372D01*
X125925677Y-106421985D01*
X125925677Y-107010000D01*
X126029297Y-107010000D01*
X126029297Y-106423389D01*
X126035295Y-106380676D01*
X126051707Y-106349933D01*
X126077699Y-106329538D01*
X126111913Y-106322578D01*
X126147398Y-106329444D01*
X126173523Y-106349200D01*
X126189864Y-106379372D01*
X126195871Y-106421985D01*
X126195871Y-107010000D01*
X126313474Y-107010000D01*
G37*
G36*
X125401471Y-107010000D02*
G01*
X125401471Y-106240024D01*
X125275503Y-106240024D01*
X125275503Y-106386997D01*
X125248880Y-106386997D01*
X125275503Y-106420580D01*
X125268930Y-106363230D01*
X125250380Y-106316684D01*
X125220182Y-106278492D01*
X125180313Y-106250213D01*
X125130175Y-106232400D01*
X125066858Y-106225980D01*
X125007278Y-106230981D01*
X124957664Y-106245043D01*
X124916144Y-106267382D01*
X124881356Y-106298093D01*
X124854173Y-106335669D01*
X124833905Y-106381229D01*
X124820924Y-106436395D01*
X124816265Y-106503196D01*
X124816265Y-106569019D01*
X124942295Y-106569019D01*
X124942295Y-106503196D01*
X124947657Y-106447790D01*
X124962094Y-106406712D01*
X124984304Y-106376495D01*
X125014759Y-106354444D01*
X125054428Y-106340362D01*
X125106059Y-106335218D01*
X125159097Y-106341054D01*
X125200176Y-106357175D01*
X125232089Y-106382845D01*
X125255184Y-106417088D01*
X125270053Y-106461785D01*
X125275503Y-106519987D01*
X125275503Y-107010000D01*
X125401471Y-107010000D01*
G37*
G36*
X124649081Y-107010000D02*
G01*
X124376079Y-106613777D01*
X124632228Y-106240024D01*
X124483851Y-106240024D01*
X124331260Y-106477978D01*
X124312331Y-106511622D01*
X124297677Y-106540992D01*
X124284365Y-106511622D01*
X124265437Y-106477978D01*
X124112846Y-106240024D01*
X123964468Y-106240024D01*
X124220679Y-106615181D01*
X123949081Y-107010000D01*
X124097459Y-107010000D01*
X124262628Y-106758002D01*
X124281557Y-106722342D01*
X124297677Y-106689370D01*
X124313736Y-106722342D01*
X124335473Y-106758002D01*
X124500642Y-107010000D01*
X124649081Y-107010000D01*
G37*
G36*
X123454245Y-107023982D02*
G01*
X123518826Y-107019835D01*
X123575617Y-107007976D01*
X123625765Y-106988995D01*
X123671468Y-106961834D01*
X123708971Y-106928162D01*
X123739154Y-106887512D01*
X123760876Y-106841653D01*
X123774331Y-106789571D01*
X123779027Y-106729975D01*
X123653059Y-106729975D01*
X123646568Y-106784475D01*
X123628287Y-106828218D01*
X123598470Y-106863698D01*
X123559494Y-106889875D01*
X123512166Y-106906190D01*
X123454245Y-106911997D01*
X123398388Y-106905974D01*
X123352949Y-106889020D01*
X123315637Y-106861622D01*
X123287197Y-106825149D01*
X123269915Y-106781927D01*
X123263858Y-106729975D01*
X123267655Y-106690017D01*
X123278658Y-106654649D01*
X123296769Y-106622936D01*
X123321373Y-106596182D01*
X123352453Y-106575442D01*
X123391230Y-106560593D01*
X123546630Y-106517178D01*
X123607581Y-106493040D01*
X123657691Y-106459762D01*
X123698549Y-106417100D01*
X123729033Y-106366621D01*
X123747463Y-106310433D01*
X123753809Y-106246985D01*
X123749571Y-106193848D01*
X123737334Y-106146603D01*
X123717417Y-106104225D01*
X123689988Y-106066294D01*
X123656166Y-106034462D01*
X123615262Y-106008299D01*
X123570220Y-105989558D01*
X123520121Y-105977991D01*
X123464015Y-105973982D01*
X123407002Y-105978001D01*
X123356240Y-105989578D01*
X123310752Y-106008299D01*
X123269241Y-106034408D01*
X123234705Y-106066014D01*
X123206461Y-106103492D01*
X123185716Y-106145507D01*
X123173039Y-106192062D01*
X123168664Y-106244176D01*
X123294632Y-106244176D01*
X123300132Y-106199610D01*
X123315941Y-106162148D01*
X123342260Y-106130115D01*
X123376260Y-106105973D01*
X123416287Y-106091208D01*
X123464015Y-106086029D01*
X123511752Y-106091239D01*
X123551313Y-106106024D01*
X123584488Y-106130115D01*
X123609933Y-106162040D01*
X123625292Y-106199504D01*
X123630649Y-106244176D01*
X123627148Y-106280530D01*
X123617063Y-106312189D01*
X123600547Y-106340102D01*
X123578203Y-106363599D01*
X123550308Y-106382011D01*
X123515855Y-106395423D01*
X123356243Y-106440181D01*
X123291972Y-106465001D01*
X123239619Y-106500137D01*
X123197363Y-106545938D01*
X123166182Y-106600139D01*
X123147201Y-106660929D01*
X123140637Y-106729975D01*
X123145175Y-106788695D01*
X123158181Y-106840103D01*
X123179167Y-106885436D01*
X123208258Y-106925858D01*
X123244388Y-106959758D01*
X123288343Y-106987590D01*
X123336737Y-107007353D01*
X123391639Y-107019674D01*
X123454245Y-107023982D01*
G37*
G36*
X122871237Y-107010000D02*
G01*
X122997206Y-106240024D01*
X122888029Y-106240024D01*
X122809627Y-106783220D01*
X122801262Y-106851120D01*
X122795644Y-106911997D01*
X122789355Y-106851120D01*
X122780196Y-106783220D01*
X122683598Y-106240024D01*
X122557630Y-106240024D01*
X122461032Y-106783220D01*
X122450529Y-106851120D01*
X122444240Y-106911997D01*
X122437218Y-106851120D01*
X122428791Y-106783220D01*
X122347642Y-106240024D01*
X122244022Y-106240024D01*
X122375608Y-107010000D01*
X122514215Y-107010000D01*
X122602448Y-106477978D01*
X122612951Y-106394691D01*
X122620644Y-106326791D01*
X122624857Y-106368129D01*
X122631818Y-106422718D01*
X122640245Y-106477978D01*
X122732630Y-107010000D01*
X122871237Y-107010000D01*
G37*
G36*
X122082394Y-107010000D02*
G01*
X122082394Y-106895205D01*
X121809392Y-106895205D01*
X121809392Y-106354818D01*
X122054428Y-106354818D01*
X122054428Y-106240024D01*
X121683423Y-106240024D01*
X121683423Y-106895205D01*
X121424404Y-106895205D01*
X121424404Y-107010000D01*
X122082394Y-107010000D01*
G37*
G36*
X121760360Y-106101416D02*
G01*
X121802898Y-106095057D01*
X121833205Y-106077602D01*
X121852899Y-106050136D01*
X121859767Y-106013183D01*
X121852862Y-105974900D01*
X121833205Y-105946688D01*
X121802840Y-105928721D01*
X121760360Y-105922203D01*
X121717943Y-105928721D01*
X121687637Y-105946688D01*
X121667933Y-105974905D01*
X121661014Y-106013183D01*
X121667895Y-106050131D01*
X121687637Y-106077602D01*
X121717885Y-106095057D01*
X121760360Y-106101416D01*
G37*
G36*
X120865210Y-107010000D02*
G01*
X120926461Y-107003407D01*
X120976506Y-106984818D01*
X121017801Y-106954740D01*
X121049187Y-106914615D01*
X121068409Y-106866168D01*
X121075198Y-106806973D01*
X121075198Y-106354818D01*
X121296360Y-106354818D01*
X121296360Y-106240024D01*
X121075198Y-106240024D01*
X121075198Y-106023014D01*
X120949168Y-106023014D01*
X120949168Y-106240024D01*
X120634156Y-106240024D01*
X120634156Y-106354818D01*
X120949168Y-106354818D01*
X120949168Y-106806973D01*
X120943170Y-106843131D01*
X120926087Y-106870720D01*
X120899787Y-106888897D01*
X120865210Y-106895205D01*
X120641178Y-106895205D01*
X120641178Y-107010000D01*
X120865210Y-107010000D01*
G37*
G36*
X120091754Y-107023982D02*
G01*
X120152531Y-107019850D01*
X120206058Y-107008010D01*
X120253443Y-106988995D01*
X120296411Y-106962026D01*
X120332126Y-106928391D01*
X120361276Y-106887512D01*
X120382203Y-106841737D01*
X120395201Y-106789649D01*
X120399744Y-106729975D01*
X120399744Y-106519987D01*
X120395165Y-106459410D01*
X120382135Y-106407163D01*
X120361276Y-106361840D01*
X120332168Y-106321382D01*
X120296458Y-106287959D01*
X120253443Y-106261029D01*
X120206054Y-106241979D01*
X120152528Y-106230120D01*
X120091754Y-106225980D01*
X120025634Y-106230875D01*
X119968752Y-106244782D01*
X119919569Y-106266991D01*
X119876881Y-106297421D01*
X119841205Y-106335768D01*
X119815100Y-106380162D01*
X119798145Y-106431715D01*
X119790786Y-106492021D01*
X119916754Y-106492021D01*
X119924729Y-106444656D01*
X119941652Y-106407339D01*
X119967190Y-106377899D01*
X120000094Y-106356435D01*
X120040907Y-106342893D01*
X120091754Y-106338026D01*
X120144987Y-106343641D01*
X120188381Y-106359441D01*
X120224072Y-106384921D01*
X120250896Y-106419200D01*
X120267709Y-106462824D01*
X120273776Y-106518583D01*
X120273776Y-106729975D01*
X120267725Y-106785792D01*
X120250922Y-106829706D01*
X120224072Y-106864431D01*
X120188331Y-106890302D01*
X120144938Y-106906313D01*
X120091754Y-106911997D01*
X120040962Y-106907053D01*
X120000149Y-106893277D01*
X119967190Y-106871392D01*
X119941548Y-106841546D01*
X119924665Y-106804405D01*
X119916754Y-106758002D01*
X119790786Y-106758002D01*
X119798145Y-106818308D01*
X119815100Y-106869861D01*
X119841205Y-106914255D01*
X119876881Y-106952602D01*
X119919565Y-106983004D01*
X119968747Y-107005194D01*
X120025631Y-107019091D01*
X120091754Y-107023982D01*
G37*
G36*
X119554969Y-107010000D02*
G01*
X119554969Y-105988026D01*
X119428940Y-105988026D01*
X119428940Y-106240024D01*
X119428940Y-106386997D01*
X119402317Y-106386997D01*
X119428940Y-106416428D01*
X119422338Y-106358108D01*
X119403944Y-106312145D01*
X119374351Y-106275683D01*
X119335176Y-106248994D01*
X119285737Y-106232090D01*
X119223165Y-106225980D01*
X119165890Y-106230822D01*
X119116952Y-106244593D01*
X119074825Y-106266723D01*
X119038395Y-106297421D01*
X119009223Y-106334962D01*
X118987912Y-106379003D01*
X118974508Y-106430806D01*
X118969763Y-106492021D01*
X118969763Y-107010000D01*
X119095731Y-107010000D01*
X119095731Y-106513026D01*
X119101218Y-106456771D01*
X119116277Y-106413143D01*
X119139878Y-106379303D01*
X119171984Y-106353704D01*
X119211182Y-106337982D01*
X119259557Y-106332409D01*
X119309694Y-106338234D01*
X119350263Y-106354665D01*
X119383450Y-106381441D01*
X119407790Y-106416709D01*
X119423300Y-106461939D01*
X119428940Y-106519987D01*
X119428940Y-107010000D01*
X119554969Y-107010000D01*
G37*
G36*
X117886302Y-107010000D02*
G01*
X117886302Y-106895205D01*
X117613300Y-106895205D01*
X117613300Y-106354818D01*
X117858336Y-106354818D01*
X117858336Y-106240024D01*
X117487331Y-106240024D01*
X117487331Y-106895205D01*
X117228312Y-106895205D01*
X117228312Y-107010000D01*
X117886302Y-107010000D01*
G37*
G36*
X117564268Y-106101416D02*
G01*
X117606806Y-106095057D01*
X117637113Y-106077602D01*
X117656807Y-106050136D01*
X117663675Y-106013183D01*
X117656769Y-105974900D01*
X117637113Y-105946688D01*
X117606748Y-105928721D01*
X117564268Y-105922203D01*
X117521851Y-105928721D01*
X117491544Y-105946688D01*
X117471841Y-105974905D01*
X117464922Y-106013183D01*
X117471803Y-106050131D01*
X117491544Y-106077602D01*
X117521793Y-106095057D01*
X117564268Y-106101416D01*
G37*
G36*
X116776890Y-107021174D02*
G01*
X116833439Y-107018030D01*
X116881812Y-107009178D01*
X116923191Y-106995284D01*
X116961291Y-106974860D01*
X116991753Y-106949729D01*
X117015576Y-106919691D01*
X117032664Y-106885264D01*
X117043330Y-106845300D01*
X117047084Y-106798607D01*
X116921115Y-106798607D01*
X116916707Y-106832242D01*
X116904162Y-106859493D01*
X116883319Y-106881894D01*
X116856464Y-106897853D01*
X116821711Y-106908202D01*
X116776890Y-106911997D01*
X116715280Y-106911997D01*
X116669545Y-106908115D01*
X116634143Y-106897533D01*
X116606836Y-106881222D01*
X116585682Y-106858251D01*
X116572847Y-106829873D01*
X116568306Y-106794394D01*
X116574419Y-106747888D01*
X116590716Y-106716053D01*
X116617865Y-106694212D01*
X116659287Y-106682409D01*
X116872084Y-106651573D01*
X116921726Y-106638896D01*
X116961725Y-106617231D01*
X116993900Y-106586543D01*
X117017293Y-106548403D01*
X117032036Y-106501749D01*
X117037314Y-106444394D01*
X117032677Y-106395147D01*
X117019464Y-106353252D01*
X116998071Y-106317258D01*
X116968010Y-106286186D01*
X116932172Y-106262183D01*
X116889327Y-106244292D01*
X116838121Y-106232870D01*
X116776890Y-106228789D01*
X116715280Y-106228789D01*
X116642474Y-106235461D01*
X116582427Y-106254208D01*
X116532586Y-106284110D01*
X116501001Y-106314245D01*
X116478169Y-106347957D01*
X116463297Y-106385873D01*
X116456321Y-106429007D01*
X116583694Y-106429007D01*
X116589144Y-106403703D01*
X116601694Y-106381581D01*
X116622223Y-106361840D01*
X116647282Y-106347523D01*
X116677848Y-106338463D01*
X116715280Y-106335218D01*
X116776890Y-106335218D01*
X116818909Y-106338891D01*
X116851870Y-106348973D01*
X116877701Y-106364649D01*
X116897830Y-106386429D01*
X116909881Y-106412550D01*
X116914093Y-106444394D01*
X116909061Y-106480780D01*
X116895226Y-106507409D01*
X116872611Y-106526293D01*
X116839905Y-106536779D01*
X116641091Y-106564806D01*
X116578388Y-106579951D01*
X116530393Y-106603955D01*
X116494118Y-106636186D01*
X116467876Y-106677115D01*
X116451148Y-106728866D01*
X116445086Y-106794394D01*
X116449889Y-106847318D01*
X116463492Y-106891840D01*
X116485344Y-106929592D01*
X116515794Y-106961700D01*
X116552369Y-106986441D01*
X116596713Y-107004985D01*
X116650381Y-107016896D01*
X116715280Y-107021174D01*
X116776890Y-107021174D01*
G37*
G36*
X114990681Y-107010000D02*
G01*
X115051932Y-107003407D01*
X115101977Y-106984818D01*
X115143272Y-106954740D01*
X115174658Y-106914615D01*
X115193880Y-106866168D01*
X115200669Y-106806973D01*
X115200669Y-106354818D01*
X115421831Y-106354818D01*
X115421831Y-106240024D01*
X115200669Y-106240024D01*
X115200669Y-106023014D01*
X115074639Y-106023014D01*
X115074639Y-106240024D01*
X114759627Y-106240024D01*
X114759627Y-106354818D01*
X115074639Y-106354818D01*
X115074639Y-106806973D01*
X115068641Y-106843131D01*
X115051558Y-106870720D01*
X115025259Y-106888897D01*
X114990681Y-106895205D01*
X114766649Y-106895205D01*
X114766649Y-107010000D01*
X114990681Y-107010000D01*
G37*
G36*
X114519659Y-107010000D02*
G01*
X114519659Y-105988026D01*
X114393629Y-105988026D01*
X114393629Y-106240024D01*
X114393629Y-106386997D01*
X114367007Y-106386997D01*
X114393629Y-106416428D01*
X114387028Y-106358108D01*
X114368633Y-106312145D01*
X114339041Y-106275683D01*
X114299865Y-106248994D01*
X114250427Y-106232090D01*
X114187855Y-106225980D01*
X114130580Y-106230822D01*
X114081642Y-106244593D01*
X114039514Y-106266723D01*
X114003085Y-106297421D01*
X113973913Y-106334962D01*
X113952601Y-106379003D01*
X113939198Y-106430806D01*
X113934453Y-106492021D01*
X113934453Y-107010000D01*
X114060421Y-107010000D01*
X114060421Y-106513026D01*
X114065907Y-106456771D01*
X114080967Y-106413143D01*
X114104568Y-106379303D01*
X114136674Y-106353704D01*
X114175871Y-106337982D01*
X114224247Y-106332409D01*
X114274383Y-106338234D01*
X114314952Y-106354665D01*
X114348139Y-106381441D01*
X114372479Y-106416709D01*
X114387989Y-106461939D01*
X114393629Y-106519987D01*
X114393629Y-107010000D01*
X114519659Y-107010000D01*
G37*
G36*
X113448955Y-106230350D02*
G01*
X113501530Y-106242889D01*
X113548122Y-106263105D01*
X113590081Y-106291380D01*
X113625121Y-106326394D01*
X113653818Y-106368801D01*
X113674258Y-106415921D01*
X113687091Y-106470493D01*
X113691614Y-106533970D01*
X113691614Y-106715992D01*
X113687127Y-106778520D01*
X113674325Y-106832915D01*
X113653818Y-106880490D01*
X113625076Y-106923360D01*
X113590030Y-106958604D01*
X113548122Y-106986919D01*
X113501534Y-107007100D01*
X113448958Y-107019619D01*
X113389242Y-107023982D01*
X113309764Y-107017191D01*
X113242877Y-106997997D01*
X113186215Y-106967318D01*
X113149446Y-106935990D01*
X113122060Y-106900457D01*
X113103118Y-106860133D01*
X113092425Y-106813995D01*
X113218394Y-106813995D01*
X113228712Y-106842342D01*
X113246762Y-106866620D01*
X113273715Y-106887512D01*
X113305176Y-106902127D01*
X113343210Y-106911460D01*
X113389242Y-106914806D01*
X113441267Y-106908925D01*
X113483964Y-106892270D01*
X113519423Y-106865102D01*
X113545987Y-106829197D01*
X113562500Y-106784946D01*
X113568394Y-106729975D01*
X113568394Y-106657191D01*
X113086808Y-106657191D01*
X113086808Y-106519987D01*
X113210028Y-106519987D01*
X113210028Y-106559188D01*
X113568394Y-106559188D01*
X113568394Y-106519987D01*
X113562591Y-106461085D01*
X113546617Y-106415158D01*
X113521499Y-106379303D01*
X113487251Y-106352414D01*
X113444050Y-106335632D01*
X113389242Y-106329600D01*
X113334391Y-106335634D01*
X113291172Y-106352417D01*
X113256923Y-106379303D01*
X113231805Y-106415158D01*
X113215831Y-106461085D01*
X113210028Y-106519987D01*
X113086808Y-106519987D01*
X113091266Y-106461269D01*
X113104033Y-106409898D01*
X113124604Y-106364649D01*
X113153159Y-106324023D01*
X113188176Y-106290127D01*
X113230301Y-106262433D01*
X113276854Y-106242597D01*
X113329452Y-106230277D01*
X113389242Y-106225980D01*
X113448955Y-106230350D01*
G37*
G36*
X147940771Y-86974482D02*
G01*
X148385720Y-88046037D01*
X149223046Y-87242478D01*
X150060371Y-86428661D01*
X149983862Y-87610918D01*
X149907353Y-88792748D01*
X150548490Y-88472179D01*
X151189628Y-88151611D01*
X150845123Y-89371909D01*
X150500619Y-90582377D01*
X151075078Y-90678120D01*
X151649110Y-90773863D01*
X151610642Y-90883711D01*
X151572601Y-90984156D01*
X151218693Y-91946290D01*
X150864357Y-92917399D01*
X150854527Y-92960569D01*
X150864357Y-93003739D01*
X150998142Y-93410648D01*
X151141756Y-93807726D01*
X151448220Y-94625817D01*
X151754256Y-95443908D01*
X151797426Y-95572991D01*
X151850000Y-95702501D01*
X151816660Y-95697799D01*
X151792725Y-95693097D01*
X150433513Y-95334060D01*
X149074729Y-94975023D01*
X148653715Y-94865175D01*
X148232274Y-94764730D01*
X147864262Y-94692923D01*
X147495394Y-94630519D01*
X146701238Y-94482202D01*
X145906655Y-94333886D01*
X145868614Y-94333886D01*
X145830146Y-94333886D01*
X145409560Y-94482202D01*
X144988119Y-94621115D01*
X144744059Y-94702326D01*
X144500000Y-94783537D01*
X144485894Y-94760028D01*
X144471362Y-94736093D01*
X144189262Y-94147528D01*
X143906734Y-93568368D01*
X143471188Y-92644702D01*
X143356366Y-92381408D01*
X144356385Y-92381408D01*
X144466660Y-92601960D01*
X144567105Y-92812253D01*
X144758592Y-93209331D01*
X144940247Y-93597005D01*
X144978715Y-93644877D01*
X145026160Y-93635473D01*
X145313389Y-93544432D01*
X145600619Y-93443987D01*
X145792105Y-93396115D01*
X145992995Y-93415349D01*
X146725174Y-93553835D01*
X147466756Y-93692748D01*
X148002747Y-93788491D01*
X148538738Y-93893638D01*
X149050793Y-94018446D01*
X149553018Y-94152230D01*
X149940692Y-94257377D01*
X150328367Y-94353120D01*
X150338197Y-94357822D01*
X150357004Y-94362523D01*
X150313834Y-94233441D01*
X150271092Y-94113762D01*
X150122775Y-93668812D01*
X149964628Y-93223863D01*
X149919841Y-93043091D01*
X149921458Y-92879358D01*
X150021903Y-92544257D01*
X150208688Y-92042033D01*
X150385642Y-91539381D01*
X150395472Y-91520574D01*
X150404876Y-91501340D01*
X149874014Y-91410299D01*
X149332894Y-91319257D01*
X149538913Y-90611442D01*
X149744504Y-89902771D01*
X149314087Y-90108790D01*
X148892646Y-90314381D01*
X148940518Y-89534331D01*
X148988389Y-88764111D01*
X148983688Y-88764111D01*
X148978986Y-88754280D01*
X148519504Y-89194528D01*
X148060022Y-89644606D01*
X147682178Y-88744877D01*
X147303907Y-87845147D01*
X147165422Y-88055868D01*
X147026509Y-88256757D01*
X146873490Y-88496115D01*
X146720472Y-88725643D01*
X146696536Y-88783345D01*
X146710642Y-88840620D01*
X147251334Y-89778390D01*
X147792027Y-90725991D01*
X148529335Y-92018097D01*
X149266215Y-93319606D01*
X149280321Y-93334139D01*
X149285022Y-93357647D01*
X148060022Y-93118716D01*
X146825619Y-92869528D01*
X145591215Y-92630597D01*
X144356385Y-92381408D01*
X143356366Y-92381408D01*
X143064279Y-91711633D01*
X142719774Y-90888840D01*
X142365867Y-90065620D01*
X142021362Y-89242399D01*
X141893617Y-88945766D01*
X142892027Y-88945766D01*
X142959132Y-89099212D01*
X143016407Y-89242399D01*
X143451953Y-90276340D01*
X143887500Y-91309854D01*
X143916137Y-91343193D01*
X143954605Y-91357726D01*
X145007353Y-91568446D01*
X146050270Y-91778739D01*
X146734577Y-91917652D01*
X147418885Y-92056138D01*
X147447950Y-92056138D01*
X147495394Y-92065969D01*
X147442821Y-91974927D01*
X147390247Y-91883886D01*
X146988468Y-91166239D01*
X146576857Y-90453294D01*
X146165247Y-89730519D01*
X145763468Y-89012872D01*
X145715596Y-88960299D01*
X145648490Y-88945766D01*
X144308941Y-88945766D01*
X142978367Y-88945766D01*
X142892027Y-88945766D01*
X141893617Y-88945766D01*
X141667027Y-88419606D01*
X141590945Y-88228120D01*
X141504605Y-88027230D01*
X141561880Y-88027230D01*
X141600348Y-88027230D01*
X142710371Y-88027230D01*
X143806289Y-88027230D01*
X144911610Y-88027230D01*
X146012229Y-88027230D01*
X146064802Y-88022528D01*
X146107972Y-87988762D01*
X146590963Y-87261712D01*
X147074380Y-86524404D01*
X147275697Y-86218368D01*
X147485990Y-85902501D01*
X147940771Y-86974482D01*
G37*
G36*
X150793597Y-110699949D02*
G01*
X149679544Y-111540755D01*
X147020350Y-111540755D01*
X146507745Y-112019471D01*
X146507745Y-112313173D01*
X147020350Y-112873710D01*
X149617873Y-112873710D01*
X149617873Y-113762449D01*
X147020350Y-113762449D01*
X146507745Y-114316269D01*
X146507745Y-114610277D01*
X147020350Y-115088687D01*
X148982231Y-115088687D01*
X149679544Y-115895300D01*
X146897313Y-115895300D01*
X145762500Y-115088687D01*
X145762500Y-113919680D01*
X146357231Y-113324949D01*
X145762500Y-112730218D01*
X145762500Y-111540755D01*
X146897313Y-110699949D01*
X150793597Y-110699949D01*
G37*
D12*
G36*
X124913570Y-82005506D02*
G01*
X125010629Y-82039051D01*
X125091643Y-82093172D01*
X125157048Y-82166193D01*
X125208215Y-82260279D01*
X125244368Y-82380048D01*
X125485362Y-83538662D01*
X125498558Y-83661252D01*
X125485298Y-83753876D01*
X125450594Y-83824585D01*
X125394025Y-83877905D01*
X125312765Y-83912323D01*
X125197852Y-83925238D01*
X125081080Y-83913275D01*
X124984095Y-83879403D01*
X124902721Y-83824585D01*
X124836823Y-83750895D01*
X124785645Y-83657023D01*
X124749837Y-83538662D01*
X124508843Y-82380048D01*
X124495162Y-82255894D01*
X124507843Y-82163089D01*
X124541547Y-82093172D01*
X124597084Y-82040742D01*
X124678703Y-82006567D01*
X124796195Y-81993631D01*
X124913570Y-82005506D01*
G37*
G36*
X135823409Y-82005506D02*
G01*
X135920468Y-82039051D01*
X136001482Y-82093172D01*
X136066888Y-82166193D01*
X136118055Y-82260279D01*
X136154207Y-82380048D01*
X136395202Y-83538662D01*
X136408398Y-83661252D01*
X136395137Y-83753876D01*
X136360434Y-83824585D01*
X136303865Y-83877905D01*
X136222605Y-83912323D01*
X136107691Y-83925238D01*
X135990920Y-83913275D01*
X135893935Y-83879403D01*
X135812561Y-83824585D01*
X135746662Y-83750895D01*
X135695485Y-83657023D01*
X135659677Y-83538662D01*
X135418682Y-82380048D01*
X135405002Y-82255894D01*
X135417683Y-82163089D01*
X135451386Y-82093172D01*
X135506924Y-82040742D01*
X135588543Y-82006567D01*
X135706034Y-81993631D01*
X135823409Y-82005506D01*
G37*
G36*
X140187345Y-82005506D02*
G01*
X140284404Y-82039051D01*
X140365418Y-82093172D01*
X140430824Y-82166193D01*
X140481990Y-82260279D01*
X140518143Y-82380048D01*
X140759138Y-83538662D01*
X140772334Y-83661252D01*
X140759073Y-83753876D01*
X140724370Y-83824585D01*
X140667801Y-83877905D01*
X140586541Y-83912323D01*
X140471627Y-83925238D01*
X140354856Y-83913275D01*
X140257870Y-83879403D01*
X140176496Y-83824585D01*
X140110598Y-83750895D01*
X140059420Y-83657023D01*
X140023613Y-83538662D01*
X139782618Y-82380048D01*
X139768938Y-82255894D01*
X139781618Y-82163089D01*
X139815322Y-82093172D01*
X139870860Y-82040742D01*
X139952479Y-82006567D01*
X140069970Y-81993631D01*
X140187345Y-82005506D01*
G37*
G36*
X118338719Y-82235260D02*
G01*
X118472393Y-82554999D01*
X118781495Y-83273219D01*
X118253307Y-83273219D01*
X118260451Y-82558650D01*
X118260610Y-82236213D01*
X118257276Y-82026970D01*
X118338719Y-82235260D01*
G37*
G36*
X123142255Y-82832825D02*
G01*
X122762030Y-82832825D01*
X122641317Y-82820414D01*
X122537006Y-82784688D01*
X122445626Y-82725981D01*
X122370259Y-82647486D01*
X122314372Y-82551827D01*
X122277660Y-82435613D01*
X122265473Y-82311264D01*
X122282130Y-82214670D01*
X122323382Y-82138259D01*
X122387653Y-82080381D01*
X122475591Y-82043571D01*
X122595176Y-82029987D01*
X122975401Y-82029987D01*
X123142255Y-82832825D01*
G37*
G36*
X152182350Y-84613244D02*
G01*
X113078169Y-84613244D01*
X113078169Y-83876658D01*
X113367058Y-83876658D01*
X113452629Y-84288000D01*
X115000041Y-84288000D01*
X114914514Y-83876658D01*
X115549026Y-83876658D01*
X115634596Y-84288000D01*
X117182009Y-84288000D01*
X117785130Y-84288000D01*
X118238225Y-84288000D01*
X118248227Y-83643601D01*
X118937077Y-83643601D01*
X119214904Y-84288000D01*
X119669586Y-84288000D01*
X118749507Y-82260966D01*
X121804358Y-82260966D01*
X121810771Y-82311264D01*
X121824724Y-82420690D01*
X121874308Y-82590042D01*
X121948802Y-82743442D01*
X122048890Y-82883151D01*
X122170326Y-83004426D01*
X122304155Y-83098484D01*
X122451976Y-83167328D01*
X122177325Y-84288000D01*
X122663124Y-84288000D01*
X122900626Y-83231942D01*
X123225286Y-83231942D01*
X123444848Y-84288000D01*
X123884607Y-84288000D01*
X123454259Y-82218246D01*
X124045865Y-82218246D01*
X124050612Y-82255894D01*
X124070671Y-82414974D01*
X124296742Y-83502307D01*
X124350508Y-83690438D01*
X124426192Y-83851453D01*
X124523116Y-83989138D01*
X124642041Y-84106222D01*
X124780042Y-84200932D01*
X124930769Y-84268631D01*
X125096668Y-84310071D01*
X125280882Y-84324355D01*
X125466835Y-84308708D01*
X125615527Y-84265466D01*
X125734473Y-84197938D01*
X125829073Y-84106222D01*
X125897099Y-83993950D01*
X125937335Y-83860073D01*
X125947819Y-83698662D01*
X125923058Y-83502307D01*
X125697304Y-82416403D01*
X125643248Y-82227127D01*
X125567425Y-82065647D01*
X125470578Y-81928058D01*
X125352006Y-81811536D01*
X125214138Y-81717275D01*
X125063481Y-81649865D01*
X124987138Y-81630869D01*
X126070385Y-81630869D01*
X126158178Y-82052848D01*
X127334256Y-82052848D01*
X127481901Y-82763289D01*
X126398538Y-82763289D01*
X126486331Y-83185267D01*
X127562550Y-83185267D01*
X127791796Y-84288000D01*
X128237112Y-84288000D01*
X127684635Y-81630869D01*
X130281437Y-81630869D01*
X131395758Y-83321958D01*
X131596587Y-84288000D01*
X132041903Y-84288000D01*
X131841074Y-83321958D01*
X132109078Y-82218873D01*
X132744754Y-82218873D01*
X132765680Y-82380048D01*
X133211154Y-82380048D01*
X133198398Y-82256433D01*
X133213377Y-82163653D01*
X133251003Y-82093172D01*
X133310690Y-82040340D01*
X133394287Y-82006315D01*
X133510095Y-81993631D01*
X133626993Y-82005293D01*
X133726449Y-82038605D01*
X133812053Y-82092855D01*
X133881843Y-82166222D01*
X133935329Y-82260008D01*
X133972081Y-82378619D01*
X134213234Y-83538662D01*
X134225640Y-83660682D01*
X134210419Y-83753537D01*
X134172274Y-83825220D01*
X134111944Y-83879182D01*
X134027933Y-83913799D01*
X133912070Y-83926667D01*
X133795548Y-83914765D01*
X133696483Y-83880745D01*
X133611224Y-83825220D01*
X133541590Y-83750589D01*
X133488448Y-83656435D01*
X133452149Y-83538662D01*
X133390551Y-83242897D01*
X133834120Y-83242897D01*
X133752201Y-82848542D01*
X132863157Y-82848542D01*
X133006674Y-83538662D01*
X133050400Y-83692756D01*
X133113177Y-83830326D01*
X133194961Y-83953497D01*
X133294750Y-84062507D01*
X133408702Y-84153468D01*
X133538196Y-84227354D01*
X133677558Y-84280600D01*
X133828618Y-84313176D01*
X133993513Y-84324355D01*
X134158253Y-84312615D01*
X134295581Y-84279753D01*
X134410252Y-84228148D01*
X134510446Y-84154351D01*
X134587029Y-84063919D01*
X134642198Y-83954608D01*
X134672538Y-83834955D01*
X134679062Y-83697733D01*
X134658550Y-83538662D01*
X134417555Y-82380048D01*
X134373154Y-82223270D01*
X134370859Y-82218246D01*
X134955705Y-82218246D01*
X134960452Y-82255894D01*
X134980511Y-82414974D01*
X135206582Y-83502307D01*
X135260347Y-83690438D01*
X135336031Y-83851453D01*
X135432956Y-83989138D01*
X135551880Y-84106222D01*
X135689881Y-84200932D01*
X135840609Y-84268631D01*
X136006508Y-84310071D01*
X136190722Y-84324355D01*
X136376675Y-84308708D01*
X136525367Y-84265466D01*
X136644312Y-84197938D01*
X136738913Y-84106222D01*
X136806939Y-83993950D01*
X136842190Y-83876658D01*
X137368705Y-83876658D01*
X137454275Y-84288000D01*
X139001688Y-84288000D01*
X138571340Y-82218246D01*
X139319641Y-82218246D01*
X139324388Y-82255894D01*
X139344446Y-82414974D01*
X139570518Y-83502307D01*
X139624283Y-83690438D01*
X139699967Y-83851453D01*
X139796892Y-83989138D01*
X139915816Y-84106222D01*
X140053817Y-84200932D01*
X140204544Y-84268631D01*
X140370444Y-84310071D01*
X140554658Y-84324355D01*
X140740610Y-84308708D01*
X140889303Y-84265466D01*
X141008248Y-84197938D01*
X141102848Y-84106222D01*
X141170875Y-83993950D01*
X141211110Y-83860073D01*
X141221594Y-83698662D01*
X141196833Y-83502307D01*
X140971079Y-82416403D01*
X140917023Y-82227127D01*
X140841200Y-82065647D01*
X140744354Y-81928058D01*
X140625781Y-81811536D01*
X140487913Y-81717275D01*
X140337256Y-81649865D01*
X140260913Y-81630869D01*
X141366228Y-81630869D01*
X141918705Y-84288000D01*
X142460546Y-84288000D01*
X142731704Y-82140800D01*
X142765996Y-82394018D01*
X142812988Y-82699786D01*
X142865219Y-82987296D01*
X143135584Y-84288000D01*
X143539146Y-84288000D01*
X142986669Y-81630869D01*
X143565183Y-81630869D01*
X144117660Y-84288000D01*
X144563135Y-84288000D01*
X144319918Y-83118272D01*
X145015436Y-83118272D01*
X145258653Y-84288000D01*
X145704286Y-84288000D01*
X145274204Y-82219525D01*
X145822511Y-82219525D01*
X145843358Y-82380048D01*
X146288674Y-82380048D01*
X146275877Y-82256409D01*
X146290754Y-82163628D01*
X146328204Y-82093172D01*
X146387621Y-82040380D01*
X146471173Y-82006339D01*
X146587297Y-81993631D01*
X146704386Y-82005333D01*
X146803941Y-82038752D01*
X146889572Y-82093172D01*
X146959426Y-82166766D01*
X147012972Y-82260907D01*
X147049759Y-82380048D01*
X147290753Y-83538662D01*
X147303136Y-83660781D01*
X147287838Y-83753379D01*
X147249635Y-83824585D01*
X147189270Y-83878074D01*
X147105114Y-83912448D01*
X146988954Y-83925238D01*
X146872070Y-83913398D01*
X146773025Y-83879611D01*
X146688108Y-83824585D01*
X146618896Y-83750473D01*
X146565948Y-83656564D01*
X146529668Y-83538662D01*
X146084352Y-83538662D01*
X146127848Y-83692135D01*
X146190503Y-83829566D01*
X146272322Y-83953020D01*
X146372236Y-84062331D01*
X146486244Y-84153443D01*
X146615715Y-84227354D01*
X146755087Y-84280573D01*
X146906453Y-84313162D01*
X147071985Y-84324355D01*
X147236074Y-84312630D01*
X147373110Y-84279783D01*
X147487772Y-84228148D01*
X147588065Y-84154340D01*
X147664697Y-84063908D01*
X147719876Y-83954608D01*
X147750130Y-83834963D01*
X147756600Y-83697739D01*
X147736069Y-83538662D01*
X147495075Y-82380048D01*
X147450674Y-82223270D01*
X147387466Y-82084889D01*
X147305676Y-81962515D01*
X147205585Y-81854426D01*
X147090969Y-81764129D01*
X146960378Y-81690721D01*
X146819933Y-81637752D01*
X146787718Y-81630869D01*
X147918323Y-81630869D01*
X148001671Y-82031415D01*
X149121866Y-82031415D01*
X149265383Y-82722171D01*
X148269813Y-82722171D01*
X148349827Y-83107000D01*
X149345397Y-83107000D01*
X149507648Y-83887295D01*
X148387452Y-83887295D01*
X148470800Y-84288000D01*
X150028691Y-84288000D01*
X149476214Y-81630869D01*
X150000908Y-81630869D01*
X150086479Y-82042052D01*
X150767391Y-82042052D01*
X151234298Y-84288000D01*
X151679614Y-84288000D01*
X151212707Y-82042052D01*
X151893461Y-82042052D01*
X151807890Y-81630869D01*
X150000908Y-81630869D01*
X149476214Y-81630869D01*
X147918323Y-81630869D01*
X146787718Y-81630869D01*
X146668620Y-81605423D01*
X146504426Y-81594355D01*
X146338982Y-81606260D01*
X146202070Y-81639483D01*
X146088639Y-81691515D01*
X145989435Y-81765507D01*
X145913581Y-81855600D01*
X145858916Y-81963943D01*
X145828858Y-82082349D01*
X145822511Y-82219525D01*
X145274204Y-82219525D01*
X145151809Y-81630869D01*
X144706175Y-81630869D01*
X144930024Y-82706930D01*
X144234506Y-82706930D01*
X144010657Y-81630869D01*
X143565183Y-81630869D01*
X142986669Y-81630869D01*
X142444987Y-81630869D01*
X142168114Y-83778069D01*
X142132393Y-83503101D01*
X142084766Y-83180187D01*
X142031582Y-82888867D01*
X141769949Y-81630869D01*
X141366228Y-81630869D01*
X140260913Y-81630869D01*
X140171364Y-81608587D01*
X139987098Y-81594355D01*
X139801075Y-81609944D01*
X139652330Y-81653021D01*
X139533358Y-81720263D01*
X139438749Y-81811536D01*
X139370572Y-81923293D01*
X139330206Y-82056859D01*
X139319641Y-82218246D01*
X138571340Y-82218246D01*
X138449211Y-81630869D01*
X138003578Y-81630869D01*
X138470484Y-83876658D01*
X137368705Y-83876658D01*
X136842190Y-83876658D01*
X136847174Y-83860073D01*
X136857658Y-83698662D01*
X136832897Y-83502307D01*
X136607144Y-82416403D01*
X136553088Y-82227127D01*
X136477264Y-82065647D01*
X136380418Y-81928058D01*
X136261845Y-81811536D01*
X136123977Y-81717275D01*
X135973320Y-81649865D01*
X135807428Y-81608587D01*
X135623162Y-81594355D01*
X135437139Y-81609944D01*
X135288394Y-81653021D01*
X135169422Y-81720263D01*
X135074813Y-81811536D01*
X135006636Y-81923293D01*
X134966270Y-82056859D01*
X134955705Y-82218246D01*
X134370859Y-82218246D01*
X134309947Y-82084889D01*
X134228157Y-81962515D01*
X134127971Y-81854419D01*
X134013300Y-81764123D01*
X133882700Y-81690721D01*
X133742348Y-81637784D01*
X133590783Y-81605439D01*
X133425954Y-81594355D01*
X133261162Y-81606244D01*
X133124541Y-81639453D01*
X133011120Y-81691515D01*
X132911869Y-81765481D01*
X132835967Y-81855425D01*
X132781238Y-81963467D01*
X132751132Y-82081575D01*
X132744754Y-82218873D01*
X132109078Y-82218873D01*
X132251939Y-81630869D01*
X131783128Y-81630869D01*
X131573091Y-82552459D01*
X131538482Y-82765670D01*
X131529433Y-82932049D01*
X131450689Y-82765670D01*
X131330668Y-82552459D01*
X130743899Y-81630869D01*
X130281437Y-81630869D01*
X127684635Y-81630869D01*
X126070385Y-81630869D01*
X124987138Y-81630869D01*
X124897589Y-81608587D01*
X124713323Y-81594355D01*
X124527299Y-81609944D01*
X124378555Y-81653021D01*
X124259583Y-81720263D01*
X124164973Y-81811536D01*
X124096797Y-81923293D01*
X124056431Y-82056859D01*
X124045865Y-82218246D01*
X123454259Y-82218246D01*
X123332130Y-81630869D01*
X122512145Y-81630869D01*
X122342181Y-81642791D01*
X122200787Y-81676117D01*
X122083023Y-81728347D01*
X121979503Y-81803049D01*
X121900462Y-81894017D01*
X121843457Y-82003315D01*
X121811689Y-82123312D01*
X121804358Y-82260966D01*
X118749507Y-82260966D01*
X118463503Y-81630869D01*
X117888958Y-81630869D01*
X117824783Y-83273219D01*
X117785130Y-84288000D01*
X117182009Y-84288000D01*
X116629532Y-81630869D01*
X116183899Y-81630869D01*
X116650806Y-83876658D01*
X115549026Y-83876658D01*
X114914514Y-83876658D01*
X114447564Y-81630869D01*
X114001931Y-81630869D01*
X114468838Y-83876658D01*
X113367058Y-83876658D01*
X113078169Y-83876658D01*
X113078169Y-81305466D01*
X152182350Y-81305466D01*
X152182350Y-84613244D01*
G37*
D11*
X122577770Y-110567275D02*
X122577770Y-110043465D01*
X122577770Y-110043465D02*
X122625389Y-109948227D01*
X122625389Y-109948227D02*
X122720627Y-109900608D01*
X122720627Y-109900608D02*
X122911103Y-109900608D01*
X122911103Y-109900608D02*
X123006341Y-109948227D01*
X122577770Y-110519656D02*
X122673008Y-110567275D01*
X122673008Y-110567275D02*
X122911103Y-110567275D01*
X122911103Y-110567275D02*
X123006341Y-110519656D01*
X123006341Y-110519656D02*
X123053960Y-110424417D01*
X123053960Y-110424417D02*
X123053960Y-110329179D01*
X123053960Y-110329179D02*
X123006341Y-110233941D01*
X123006341Y-110233941D02*
X122911103Y-110186322D01*
X122911103Y-110186322D02*
X122673008Y-110186322D01*
X122673008Y-110186322D02*
X122577770Y-110138703D01*
X122101579Y-109900608D02*
X122101579Y-110567275D01*
X122101579Y-109995846D02*
X122053960Y-109948227D01*
X122053960Y-109948227D02*
X121958722Y-109900608D01*
X121958722Y-109900608D02*
X121815865Y-109900608D01*
X121815865Y-109900608D02*
X121720627Y-109948227D01*
X121720627Y-109948227D02*
X121673008Y-110043465D01*
X121673008Y-110043465D02*
X121673008Y-110567275D01*
X120768246Y-110567275D02*
X120768246Y-109567275D01*
X120768246Y-110519656D02*
X120863484Y-110567275D01*
X120863484Y-110567275D02*
X121053960Y-110567275D01*
X121053960Y-110567275D02*
X121149198Y-110519656D01*
X121149198Y-110519656D02*
X121196817Y-110472036D01*
X121196817Y-110472036D02*
X121244436Y-110376798D01*
X121244436Y-110376798D02*
X121244436Y-110091084D01*
X121244436Y-110091084D02*
X121196817Y-109995846D01*
X121196817Y-109995846D02*
X121149198Y-109948227D01*
X121149198Y-109948227D02*
X121053960Y-109900608D01*
X121053960Y-109900608D02*
X120863484Y-109900608D01*
X120863484Y-109900608D02*
X120768246Y-109948227D01*
X119101579Y-110519656D02*
X119196817Y-110567275D01*
X119196817Y-110567275D02*
X119387293Y-110567275D01*
X119387293Y-110567275D02*
X119482531Y-110519656D01*
X119482531Y-110519656D02*
X119530150Y-110472036D01*
X119530150Y-110472036D02*
X119577769Y-110376798D01*
X119577769Y-110376798D02*
X119577769Y-110091084D01*
X119577769Y-110091084D02*
X119530150Y-109995846D01*
X119530150Y-109995846D02*
X119482531Y-109948227D01*
X119482531Y-109948227D02*
X119387293Y-109900608D01*
X119387293Y-109900608D02*
X119196817Y-109900608D01*
X119196817Y-109900608D02*
X119101579Y-109948227D01*
X118673007Y-110567275D02*
X118673007Y-109567275D01*
X118244436Y-110567275D02*
X118244436Y-110043465D01*
X118244436Y-110043465D02*
X118292055Y-109948227D01*
X118292055Y-109948227D02*
X118387293Y-109900608D01*
X118387293Y-109900608D02*
X118530150Y-109900608D01*
X118530150Y-109900608D02*
X118625388Y-109948227D01*
X118625388Y-109948227D02*
X118673007Y-109995846D01*
X117387293Y-110519656D02*
X117482531Y-110567275D01*
X117482531Y-110567275D02*
X117673007Y-110567275D01*
X117673007Y-110567275D02*
X117768245Y-110519656D01*
X117768245Y-110519656D02*
X117815864Y-110424417D01*
X117815864Y-110424417D02*
X117815864Y-110043465D01*
X117815864Y-110043465D02*
X117768245Y-109948227D01*
X117768245Y-109948227D02*
X117673007Y-109900608D01*
X117673007Y-109900608D02*
X117482531Y-109900608D01*
X117482531Y-109900608D02*
X117387293Y-109948227D01*
X117387293Y-109948227D02*
X117339674Y-110043465D01*
X117339674Y-110043465D02*
X117339674Y-110138703D01*
X117339674Y-110138703D02*
X117815864Y-110233941D01*
X116482531Y-110567275D02*
X116482531Y-110043465D01*
X116482531Y-110043465D02*
X116530150Y-109948227D01*
X116530150Y-109948227D02*
X116625388Y-109900608D01*
X116625388Y-109900608D02*
X116815864Y-109900608D01*
X116815864Y-109900608D02*
X116911102Y-109948227D01*
X116482531Y-110519656D02*
X116577769Y-110567275D01*
X116577769Y-110567275D02*
X116815864Y-110567275D01*
X116815864Y-110567275D02*
X116911102Y-110519656D01*
X116911102Y-110519656D02*
X116958721Y-110424417D01*
X116958721Y-110424417D02*
X116958721Y-110329179D01*
X116958721Y-110329179D02*
X116911102Y-110233941D01*
X116911102Y-110233941D02*
X116815864Y-110186322D01*
X116815864Y-110186322D02*
X116577769Y-110186322D01*
X116577769Y-110186322D02*
X116482531Y-110138703D01*
X116006340Y-109900608D02*
X116006340Y-110900608D01*
X116006340Y-109948227D02*
X115911102Y-109900608D01*
X115911102Y-109900608D02*
X115720626Y-109900608D01*
X115720626Y-109900608D02*
X115625388Y-109948227D01*
X115625388Y-109948227D02*
X115577769Y-109995846D01*
X115577769Y-109995846D02*
X115530150Y-110091084D01*
X115530150Y-110091084D02*
X115530150Y-110376798D01*
X115530150Y-110376798D02*
X115577769Y-110472036D01*
X115577769Y-110472036D02*
X115625388Y-110519656D01*
X115625388Y-110519656D02*
X115720626Y-110567275D01*
X115720626Y-110567275D02*
X115911102Y-110567275D01*
X115911102Y-110567275D02*
X116006340Y-110519656D01*
X114720626Y-110519656D02*
X114815864Y-110567275D01*
X114815864Y-110567275D02*
X115006340Y-110567275D01*
X115006340Y-110567275D02*
X115101578Y-110519656D01*
X115101578Y-110519656D02*
X115149197Y-110424417D01*
X115149197Y-110424417D02*
X115149197Y-110043465D01*
X115149197Y-110043465D02*
X115101578Y-109948227D01*
X115101578Y-109948227D02*
X115006340Y-109900608D01*
X115006340Y-109900608D02*
X114815864Y-109900608D01*
X114815864Y-109900608D02*
X114720626Y-109948227D01*
X114720626Y-109948227D02*
X114673007Y-110043465D01*
X114673007Y-110043465D02*
X114673007Y-110138703D01*
X114673007Y-110138703D02*
X115149197Y-110233941D01*
X114292054Y-110519656D02*
X114196816Y-110567275D01*
X114196816Y-110567275D02*
X114006340Y-110567275D01*
X114006340Y-110567275D02*
X113911102Y-110519656D01*
X113911102Y-110519656D02*
X113863483Y-110424417D01*
X113863483Y-110424417D02*
X113863483Y-110376798D01*
X113863483Y-110376798D02*
X113911102Y-110281560D01*
X113911102Y-110281560D02*
X114006340Y-110233941D01*
X114006340Y-110233941D02*
X114149197Y-110233941D01*
X114149197Y-110233941D02*
X114244435Y-110186322D01*
X114244435Y-110186322D02*
X114292054Y-110091084D01*
X114292054Y-110091084D02*
X114292054Y-110043465D01*
X114292054Y-110043465D02*
X114244435Y-109948227D01*
X114244435Y-109948227D02*
X114149197Y-109900608D01*
X114149197Y-109900608D02*
X114006340Y-109900608D01*
X114006340Y-109900608D02*
X113911102Y-109948227D01*
X113577768Y-109900608D02*
X113196816Y-109900608D01*
X113434911Y-109567275D02*
X113434911Y-110424417D01*
X113434911Y-110424417D02*
X113387292Y-110519656D01*
X113387292Y-110519656D02*
X113292054Y-110567275D01*
X113292054Y-110567275D02*
X113196816Y-110567275D01*
X126768245Y-111510552D02*
X126768245Y-112177219D01*
X126768245Y-111605790D02*
X126720626Y-111558171D01*
X126720626Y-111558171D02*
X126625388Y-111510552D01*
X126625388Y-111510552D02*
X126482531Y-111510552D01*
X126482531Y-111510552D02*
X126387293Y-111558171D01*
X126387293Y-111558171D02*
X126339674Y-111653409D01*
X126339674Y-111653409D02*
X126339674Y-112177219D01*
X125482531Y-112129600D02*
X125577769Y-112177219D01*
X125577769Y-112177219D02*
X125768245Y-112177219D01*
X125768245Y-112177219D02*
X125863483Y-112129600D01*
X125863483Y-112129600D02*
X125911102Y-112034361D01*
X125911102Y-112034361D02*
X125911102Y-111653409D01*
X125911102Y-111653409D02*
X125863483Y-111558171D01*
X125863483Y-111558171D02*
X125768245Y-111510552D01*
X125768245Y-111510552D02*
X125577769Y-111510552D01*
X125577769Y-111510552D02*
X125482531Y-111558171D01*
X125482531Y-111558171D02*
X125434912Y-111653409D01*
X125434912Y-111653409D02*
X125434912Y-111748647D01*
X125434912Y-111748647D02*
X125911102Y-111843885D01*
X125149197Y-111510552D02*
X124768245Y-111510552D01*
X125006340Y-111177219D02*
X125006340Y-112034361D01*
X125006340Y-112034361D02*
X124958721Y-112129600D01*
X124958721Y-112129600D02*
X124863483Y-112177219D01*
X124863483Y-112177219D02*
X124768245Y-112177219D01*
X124530149Y-111510552D02*
X124339673Y-112177219D01*
X124339673Y-112177219D02*
X124149197Y-111701028D01*
X124149197Y-111701028D02*
X123958721Y-112177219D01*
X123958721Y-112177219D02*
X123768245Y-111510552D01*
X123244435Y-112177219D02*
X123339673Y-112129600D01*
X123339673Y-112129600D02*
X123387292Y-112081980D01*
X123387292Y-112081980D02*
X123434911Y-111986742D01*
X123434911Y-111986742D02*
X123434911Y-111701028D01*
X123434911Y-111701028D02*
X123387292Y-111605790D01*
X123387292Y-111605790D02*
X123339673Y-111558171D01*
X123339673Y-111558171D02*
X123244435Y-111510552D01*
X123244435Y-111510552D02*
X123101578Y-111510552D01*
X123101578Y-111510552D02*
X123006340Y-111558171D01*
X123006340Y-111558171D02*
X122958721Y-111605790D01*
X122958721Y-111605790D02*
X122911102Y-111701028D01*
X122911102Y-111701028D02*
X122911102Y-111986742D01*
X122911102Y-111986742D02*
X122958721Y-112081980D01*
X122958721Y-112081980D02*
X123006340Y-112129600D01*
X123006340Y-112129600D02*
X123101578Y-112177219D01*
X123101578Y-112177219D02*
X123244435Y-112177219D01*
X122482530Y-112177219D02*
X122482530Y-111510552D01*
X122482530Y-111701028D02*
X122434911Y-111605790D01*
X122434911Y-111605790D02*
X122387292Y-111558171D01*
X122387292Y-111558171D02*
X122292054Y-111510552D01*
X122292054Y-111510552D02*
X122196816Y-111510552D01*
X121863482Y-112177219D02*
X121863482Y-111177219D01*
X121768244Y-111796266D02*
X121482530Y-112177219D01*
X121482530Y-111510552D02*
X121863482Y-111891504D01*
X121053958Y-112177219D02*
X121053958Y-111510552D01*
X121053958Y-111177219D02*
X121101577Y-111224838D01*
X121101577Y-111224838D02*
X121053958Y-111272457D01*
X121053958Y-111272457D02*
X121006339Y-111224838D01*
X121006339Y-111224838D02*
X121053958Y-111177219D01*
X121053958Y-111177219D02*
X121053958Y-111272457D01*
X120577768Y-111510552D02*
X120577768Y-112177219D01*
X120577768Y-111605790D02*
X120530149Y-111558171D01*
X120530149Y-111558171D02*
X120434911Y-111510552D01*
X120434911Y-111510552D02*
X120292054Y-111510552D01*
X120292054Y-111510552D02*
X120196816Y-111558171D01*
X120196816Y-111558171D02*
X120149197Y-111653409D01*
X120149197Y-111653409D02*
X120149197Y-112177219D01*
X119244435Y-111510552D02*
X119244435Y-112320076D01*
X119244435Y-112320076D02*
X119292054Y-112415314D01*
X119292054Y-112415314D02*
X119339673Y-112462933D01*
X119339673Y-112462933D02*
X119434911Y-112510552D01*
X119434911Y-112510552D02*
X119577768Y-112510552D01*
X119577768Y-112510552D02*
X119673006Y-112462933D01*
X119244435Y-112129600D02*
X119339673Y-112177219D01*
X119339673Y-112177219D02*
X119530149Y-112177219D01*
X119530149Y-112177219D02*
X119625387Y-112129600D01*
X119625387Y-112129600D02*
X119673006Y-112081980D01*
X119673006Y-112081980D02*
X119720625Y-111986742D01*
X119720625Y-111986742D02*
X119720625Y-111701028D01*
X119720625Y-111701028D02*
X119673006Y-111605790D01*
X119673006Y-111605790D02*
X119625387Y-111558171D01*
X119625387Y-111558171D02*
X119530149Y-111510552D01*
X119530149Y-111510552D02*
X119339673Y-111510552D01*
X119339673Y-111510552D02*
X119244435Y-111558171D01*
X118053958Y-112129600D02*
X117958720Y-112177219D01*
X117958720Y-112177219D02*
X117768244Y-112177219D01*
X117768244Y-112177219D02*
X117673006Y-112129600D01*
X117673006Y-112129600D02*
X117625387Y-112034361D01*
X117625387Y-112034361D02*
X117625387Y-111986742D01*
X117625387Y-111986742D02*
X117673006Y-111891504D01*
X117673006Y-111891504D02*
X117768244Y-111843885D01*
X117768244Y-111843885D02*
X117911101Y-111843885D01*
X117911101Y-111843885D02*
X118006339Y-111796266D01*
X118006339Y-111796266D02*
X118053958Y-111701028D01*
X118053958Y-111701028D02*
X118053958Y-111653409D01*
X118053958Y-111653409D02*
X118006339Y-111558171D01*
X118006339Y-111558171D02*
X117911101Y-111510552D01*
X117911101Y-111510552D02*
X117768244Y-111510552D01*
X117768244Y-111510552D02*
X117673006Y-111558171D01*
X117292053Y-111510552D02*
X117101577Y-112177219D01*
X117101577Y-112177219D02*
X116911101Y-111701028D01*
X116911101Y-111701028D02*
X116720625Y-112177219D01*
X116720625Y-112177219D02*
X116530149Y-111510552D01*
X116149196Y-112177219D02*
X116149196Y-111510552D01*
X116149196Y-111177219D02*
X116196815Y-111224838D01*
X116196815Y-111224838D02*
X116149196Y-111272457D01*
X116149196Y-111272457D02*
X116101577Y-111224838D01*
X116101577Y-111224838D02*
X116149196Y-111177219D01*
X116149196Y-111177219D02*
X116149196Y-111272457D01*
X115815863Y-111510552D02*
X115434911Y-111510552D01*
X115673006Y-111177219D02*
X115673006Y-112034361D01*
X115673006Y-112034361D02*
X115625387Y-112129600D01*
X115625387Y-112129600D02*
X115530149Y-112177219D01*
X115530149Y-112177219D02*
X115434911Y-112177219D01*
X114673006Y-112129600D02*
X114768244Y-112177219D01*
X114768244Y-112177219D02*
X114958720Y-112177219D01*
X114958720Y-112177219D02*
X115053958Y-112129600D01*
X115053958Y-112129600D02*
X115101577Y-112081980D01*
X115101577Y-112081980D02*
X115149196Y-111986742D01*
X115149196Y-111986742D02*
X115149196Y-111701028D01*
X115149196Y-111701028D02*
X115101577Y-111605790D01*
X115101577Y-111605790D02*
X115053958Y-111558171D01*
X115053958Y-111558171D02*
X114958720Y-111510552D01*
X114958720Y-111510552D02*
X114768244Y-111510552D01*
X114768244Y-111510552D02*
X114673006Y-111558171D01*
X114244434Y-112177219D02*
X114244434Y-111177219D01*
X113815863Y-112177219D02*
X113815863Y-111653409D01*
X113815863Y-111653409D02*
X113863482Y-111558171D01*
X113863482Y-111558171D02*
X113958720Y-111510552D01*
X113958720Y-111510552D02*
X114101577Y-111510552D01*
X114101577Y-111510552D02*
X114196815Y-111558171D01*
X114196815Y-111558171D02*
X114244434Y-111605790D01*
X113339672Y-112081980D02*
X113292053Y-112129600D01*
X113292053Y-112129600D02*
X113339672Y-112177219D01*
X113339672Y-112177219D02*
X113387291Y-112129600D01*
X113387291Y-112129600D02*
X113339672Y-112081980D01*
X113339672Y-112081980D02*
X113339672Y-112177219D01*
D13*
G36*
X128105256Y-92165000D02*
G01*
X127772780Y-92165000D01*
X127496328Y-91486004D01*
X126722841Y-91486004D01*
X126663307Y-92165000D01*
X126355256Y-92165000D01*
X126449780Y-91219932D01*
X126747265Y-91219932D01*
X127391303Y-91219932D01*
X127069361Y-90429043D01*
X126924189Y-90057947D01*
X126855801Y-89861942D01*
X126848779Y-90057947D01*
X126820843Y-90432554D01*
X126747265Y-91219932D01*
X126449780Y-91219932D01*
X126610795Y-89610067D01*
X127034251Y-89610067D01*
X128105256Y-92165000D01*
G37*
G36*
X125289746Y-92165000D02*
G01*
X124929335Y-89897052D01*
X125629244Y-89897052D01*
X125583753Y-89610067D01*
X123868711Y-89610067D01*
X123914201Y-89897052D01*
X124614262Y-89897052D01*
X124974826Y-92165000D01*
X125289746Y-92165000D01*
G37*
G36*
X123191700Y-92165000D02*
G01*
X122831289Y-89897052D01*
X123531198Y-89897052D01*
X123485707Y-89610067D01*
X121770665Y-89610067D01*
X121816155Y-89897052D01*
X122516216Y-89897052D01*
X122876779Y-92165000D01*
X123191700Y-92165000D01*
G37*
G36*
X121636178Y-92165000D02*
G01*
X121230125Y-89610067D01*
X119760241Y-89610067D01*
X119805731Y-89897052D01*
X120964205Y-89897052D01*
X121090143Y-90687941D01*
X120054248Y-90687941D01*
X120099738Y-90971568D01*
X121135633Y-90971568D01*
X121279126Y-91878014D01*
X120120652Y-91878014D01*
X120166142Y-92165000D01*
X121636178Y-92165000D01*
G37*
G36*
X119636135Y-92165000D02*
G01*
X119230081Y-89610067D01*
X118771668Y-89610067D01*
X118621153Y-90716029D01*
X118106564Y-89610067D01*
X117634107Y-89610067D01*
X118040160Y-92165000D01*
X118344701Y-92165000D01*
X118152207Y-90957524D01*
X118083972Y-90563835D01*
X118000013Y-90114123D01*
X117910712Y-89704558D01*
X118530173Y-91023927D01*
X118803114Y-91023927D01*
X118995608Y-89736004D01*
X119023696Y-90103437D01*
X119072697Y-90513002D01*
X119139101Y-90957524D01*
X119331595Y-92165000D01*
X119636135Y-92165000D01*
G37*
G36*
X117468022Y-92165000D02*
G01*
X117153101Y-92165000D01*
X116985031Y-91115061D01*
X116477617Y-91115061D01*
X116321142Y-91104287D01*
X116179584Y-91073054D01*
X116050650Y-91022248D01*
X115931605Y-90951649D01*
X115827629Y-90864492D01*
X115737408Y-90759687D01*
X115665274Y-90641704D01*
X115612082Y-90510044D01*
X115578040Y-90362487D01*
X115567102Y-90220700D01*
X115896319Y-90220700D01*
X115903646Y-90362487D01*
X115940334Y-90498194D01*
X116000362Y-90610617D01*
X116083928Y-90703817D01*
X116186818Y-90774350D01*
X116302775Y-90816795D01*
X116435638Y-90831434D01*
X116943052Y-90831434D01*
X116792537Y-89893541D01*
X116285123Y-89893541D01*
X116153211Y-89908928D01*
X116051790Y-89951460D01*
X115973561Y-90019631D01*
X115920884Y-90109062D01*
X115896319Y-90220700D01*
X115567102Y-90220700D01*
X115566208Y-90209105D01*
X115578223Y-90077482D01*
X115611318Y-89963608D01*
X115667121Y-89859940D01*
X115742851Y-89773664D01*
X115840601Y-89702879D01*
X115951632Y-89652955D01*
X116083229Y-89621319D01*
X116239633Y-89610067D01*
X117062121Y-89610067D01*
X117468022Y-92165000D01*
G37*
G36*
X114799516Y-92165000D02*
G01*
X114439105Y-89897052D01*
X115139013Y-89897052D01*
X115093523Y-89610067D01*
X113378480Y-89610067D01*
X113423971Y-89897052D01*
X114124032Y-89897052D01*
X114484595Y-92165000D01*
X114799516Y-92165000D01*
G37*
G36*
X118995608Y-96365000D02*
G01*
X118635197Y-94097052D01*
X119335106Y-94097052D01*
X119289616Y-93810067D01*
X117574573Y-93810067D01*
X117620063Y-94097052D01*
X118320124Y-94097052D01*
X118680688Y-96365000D01*
X118995608Y-96365000D01*
G37*
G36*
X117464663Y-96365000D02*
G01*
X117058610Y-93810067D01*
X116743536Y-93810067D01*
X116918628Y-94901985D01*
X116099651Y-94901985D01*
X115924560Y-93810067D01*
X115609639Y-93810067D01*
X116015540Y-96365000D01*
X116330613Y-96365000D01*
X116145142Y-95188970D01*
X116964118Y-95188970D01*
X117149590Y-96365000D01*
X117464663Y-96365000D01*
G37*
G36*
X115342041Y-96365000D02*
G01*
X114935987Y-93810067D01*
X113466103Y-93810067D01*
X113511593Y-94097052D01*
X114670067Y-94097052D01*
X114796005Y-94887941D01*
X113760110Y-94887941D01*
X113805600Y-95171568D01*
X114841495Y-95171568D01*
X114984988Y-96078014D01*
X113826514Y-96078014D01*
X113872004Y-96365000D01*
X115342041Y-96365000D01*
G37*
G36*
X134206900Y-100565000D02*
G01*
X134161409Y-100278014D01*
X133639951Y-100278014D01*
X133325030Y-98297052D01*
X133846489Y-98297052D01*
X133800999Y-98010067D01*
X132435986Y-98010067D01*
X132481477Y-98297052D01*
X133002935Y-98297052D01*
X133318008Y-100278014D01*
X132796397Y-100278014D01*
X132841887Y-100565000D01*
X134206900Y-100565000D01*
G37*
G36*
X132224411Y-100565000D02*
G01*
X131818357Y-98010067D01*
X131359944Y-98010067D01*
X131209429Y-99116029D01*
X130694840Y-98010067D01*
X130222383Y-98010067D01*
X130628437Y-100565000D01*
X130932977Y-100565000D01*
X130740483Y-99357524D01*
X130672248Y-98963835D01*
X130588289Y-98514123D01*
X130498988Y-98104558D01*
X131118449Y-99423927D01*
X131391390Y-99423927D01*
X131583884Y-98136004D01*
X131611972Y-98503437D01*
X131660973Y-98913002D01*
X131727377Y-99357524D01*
X131919871Y-100565000D01*
X132224411Y-100565000D01*
G37*
G36*
X130056298Y-100565000D02*
G01*
X129741377Y-100565000D01*
X129573308Y-99515061D01*
X129065893Y-99515061D01*
X128909418Y-99504287D01*
X128767860Y-99473054D01*
X128638926Y-99422248D01*
X128519881Y-99351649D01*
X128415905Y-99264492D01*
X128325685Y-99159687D01*
X128253550Y-99041704D01*
X128200358Y-98910044D01*
X128166316Y-98762487D01*
X128155378Y-98620700D01*
X128484595Y-98620700D01*
X128491922Y-98762487D01*
X128528610Y-98898194D01*
X128588638Y-99010617D01*
X128672204Y-99103817D01*
X128775094Y-99174350D01*
X128891051Y-99216795D01*
X129023914Y-99231434D01*
X129531328Y-99231434D01*
X129380814Y-98293541D01*
X128873399Y-98293541D01*
X128741488Y-98308928D01*
X128640067Y-98351460D01*
X128561837Y-98419631D01*
X128509160Y-98509062D01*
X128484595Y-98620700D01*
X128155378Y-98620700D01*
X128154484Y-98609105D01*
X128166500Y-98477482D01*
X128199594Y-98363608D01*
X128255397Y-98259940D01*
X128331127Y-98173664D01*
X128428877Y-98102879D01*
X128539908Y-98052955D01*
X128671505Y-98021319D01*
X128827909Y-98010067D01*
X129650397Y-98010067D01*
X130056298Y-100565000D01*
G37*
G36*
X126994414Y-97987982D02*
G01*
X127145596Y-98025203D01*
X127278097Y-98085016D01*
X127394814Y-98167451D01*
X127493973Y-98270345D01*
X127574282Y-98392944D01*
X127636073Y-98538174D01*
X127678288Y-98709975D01*
X127860249Y-99864938D01*
X127872174Y-100008913D01*
X127860419Y-100135572D01*
X127827124Y-100248247D01*
X127771984Y-100351386D01*
X127699021Y-100437082D01*
X127606695Y-100507297D01*
X127501442Y-100557519D01*
X127379469Y-100588909D01*
X127237277Y-100599957D01*
X127061928Y-100586911D01*
X126909313Y-100549650D01*
X126775687Y-100489824D01*
X126658117Y-100407463D01*
X126558247Y-100304399D01*
X126478022Y-100181759D01*
X126417026Y-100036606D01*
X126376321Y-99864938D01*
X126194360Y-98706464D01*
X126183033Y-98567301D01*
X126500635Y-98567301D01*
X126509281Y-98709975D01*
X126691395Y-99864938D01*
X126727156Y-100003896D01*
X126782304Y-100113502D01*
X126855801Y-100199246D01*
X126948224Y-100263138D01*
X127058594Y-100302560D01*
X127191787Y-100316482D01*
X127321771Y-100301777D01*
X127417514Y-100261914D01*
X127487626Y-100199246D01*
X127533096Y-100116168D01*
X127553993Y-100007729D01*
X127545329Y-99864938D01*
X127363368Y-98709975D01*
X127327524Y-98571119D01*
X127272328Y-98461558D01*
X127198809Y-98375820D01*
X127106443Y-98311683D01*
X126997158Y-98272288D01*
X126866334Y-98258431D01*
X126733971Y-98273243D01*
X126637256Y-98313235D01*
X126567136Y-98375820D01*
X126521577Y-98458907D01*
X126500635Y-98567301D01*
X126183033Y-98567301D01*
X126182655Y-98562662D01*
X126195045Y-98436666D01*
X126229318Y-98324987D01*
X126285318Y-98222762D01*
X126358372Y-98137647D01*
X126449899Y-98067769D01*
X126553943Y-98017647D01*
X126676291Y-97986120D01*
X126820843Y-97974957D01*
X126994414Y-97987982D01*
G37*
G36*
X125125340Y-100599957D02*
G01*
X125286838Y-100589323D01*
X125423168Y-100559451D01*
X125538416Y-100512487D01*
X125640877Y-100444588D01*
X125720563Y-100360605D01*
X125779911Y-100258780D01*
X125815863Y-100145747D01*
X125829520Y-100015821D01*
X125818226Y-99864938D01*
X125503306Y-99864938D01*
X125509090Y-100003471D01*
X125480630Y-100112118D01*
X125421026Y-100199246D01*
X125335460Y-100263947D01*
X125224307Y-100305027D01*
X125079850Y-100319993D01*
X124939776Y-100305353D01*
X124819250Y-100263251D01*
X124714096Y-100194056D01*
X124627876Y-100101926D01*
X124566929Y-99993359D01*
X124530303Y-99864938D01*
X124524164Y-99763715D01*
X124538531Y-99674309D01*
X124572283Y-99593829D01*
X124624464Y-99524689D01*
X124693407Y-99471864D01*
X124782331Y-99434460D01*
X125153275Y-99325925D01*
X125297631Y-99265334D01*
X125409647Y-99183311D01*
X125494605Y-99079240D01*
X125550539Y-98957133D01*
X125575201Y-98818330D01*
X125566351Y-98657463D01*
X125528047Y-98500346D01*
X125469826Y-98366430D01*
X125392415Y-98252221D01*
X125295089Y-98155239D01*
X125181556Y-98078331D01*
X125052121Y-98022257D01*
X124903915Y-97987238D01*
X124733330Y-97974957D01*
X124590738Y-97985250D01*
X124468792Y-98014398D01*
X124364066Y-98060747D01*
X124270633Y-98126029D01*
X124196568Y-98204899D01*
X124139973Y-98298731D01*
X124104316Y-98402381D01*
X124090320Y-98518512D01*
X124099825Y-98650441D01*
X124414746Y-98650441D01*
X124410905Y-98537193D01*
X124435887Y-98444042D01*
X124488324Y-98365287D01*
X124562681Y-98305576D01*
X124656412Y-98268415D01*
X124775309Y-98255073D01*
X124894964Y-98267725D01*
X125000031Y-98304431D01*
X125093741Y-98365287D01*
X125170757Y-98445994D01*
X125224027Y-98540076D01*
X125254789Y-98650441D01*
X125261453Y-98742629D01*
X125248758Y-98822740D01*
X125218000Y-98893768D01*
X125170447Y-98954553D01*
X125107857Y-99001570D01*
X125027338Y-99035429D01*
X124649219Y-99147475D01*
X124496497Y-99211702D01*
X124379531Y-99298976D01*
X124292319Y-99410036D01*
X124235974Y-99540258D01*
X124211651Y-99689936D01*
X124222252Y-99864938D01*
X124263507Y-100035773D01*
X124326554Y-100180686D01*
X124410538Y-100303648D01*
X124516259Y-100407463D01*
X124639581Y-100489541D01*
X124780031Y-100549430D01*
X124940674Y-100586841D01*
X125125340Y-100599957D01*
G37*
G36*
X123027294Y-100599957D02*
G01*
X123188792Y-100589323D01*
X123325122Y-100559451D01*
X123440370Y-100512487D01*
X123542831Y-100444588D01*
X123622517Y-100360605D01*
X123681865Y-100258780D01*
X123717817Y-100145747D01*
X123731474Y-100015821D01*
X123720180Y-99864938D01*
X123405260Y-99864938D01*
X123411044Y-100003471D01*
X123382584Y-100112118D01*
X123322980Y-100199246D01*
X123237414Y-100263947D01*
X123126261Y-100305027D01*
X122981804Y-100319993D01*
X122841730Y-100305353D01*
X122721204Y-100263251D01*
X122616050Y-100194056D01*
X122529830Y-100101926D01*
X122468883Y-99993359D01*
X122432257Y-99864938D01*
X122426118Y-99763715D01*
X122440485Y-99674309D01*
X122474237Y-99593829D01*
X122526418Y-99524689D01*
X122595361Y-99471864D01*
X122684285Y-99434460D01*
X123055229Y-99325925D01*
X123199585Y-99265334D01*
X123311600Y-99183311D01*
X123396559Y-99079240D01*
X123452493Y-98957133D01*
X123477155Y-98818330D01*
X123468305Y-98657463D01*
X123430001Y-98500346D01*
X123371780Y-98366430D01*
X123294369Y-98252221D01*
X123197043Y-98155239D01*
X123083510Y-98078331D01*
X122954075Y-98022257D01*
X122805869Y-97987238D01*
X122635284Y-97974957D01*
X122492692Y-97985250D01*
X122370746Y-98014398D01*
X122266020Y-98060747D01*
X122172587Y-98126029D01*
X122098522Y-98204899D01*
X122041927Y-98298731D01*
X122006270Y-98402381D01*
X121992274Y-98518512D01*
X122001779Y-98650441D01*
X122316700Y-98650441D01*
X122312859Y-98537193D01*
X122337841Y-98444042D01*
X122390278Y-98365287D01*
X122464635Y-98305576D01*
X122558366Y-98268415D01*
X122677263Y-98255073D01*
X122796918Y-98267725D01*
X122901985Y-98304431D01*
X122995695Y-98365287D01*
X123072711Y-98445994D01*
X123125981Y-98540076D01*
X123156743Y-98650441D01*
X123163407Y-98742629D01*
X123150711Y-98822740D01*
X123119954Y-98893768D01*
X123072401Y-98954553D01*
X123009811Y-99001570D01*
X122929291Y-99035429D01*
X122551173Y-99147475D01*
X122398451Y-99211702D01*
X122281485Y-99298976D01*
X122194273Y-99410036D01*
X122137928Y-99540258D01*
X122113605Y-99689936D01*
X122124206Y-99864938D01*
X122165461Y-100035773D01*
X122228508Y-100180686D01*
X122312492Y-100303648D01*
X122418213Y-100407463D01*
X122541534Y-100489541D01*
X122681985Y-100549430D01*
X122842628Y-100586841D01*
X123027294Y-100599957D01*
G37*
G36*
X121618623Y-100565000D02*
G01*
X121573133Y-100278014D01*
X121051675Y-100278014D01*
X120736754Y-98297052D01*
X121258212Y-98297052D01*
X121212722Y-98010067D01*
X119847710Y-98010067D01*
X119893200Y-98297052D01*
X120414659Y-98297052D01*
X120729732Y-100278014D01*
X120208121Y-100278014D01*
X120253611Y-100565000D01*
X121618623Y-100565000D01*
G37*
G36*
X119562709Y-100565000D02*
G01*
X118785712Y-100565000D01*
X118612192Y-100552180D01*
X118459676Y-100515417D01*
X118324749Y-100456158D01*
X118204719Y-100374337D01*
X118101444Y-100271645D01*
X118020179Y-100152491D01*
X117959895Y-100014568D01*
X117921092Y-99854558D01*
X117911844Y-99707077D01*
X118224016Y-99707077D01*
X118229143Y-99844025D01*
X118265747Y-99972344D01*
X118325666Y-100077752D01*
X118409425Y-100164289D01*
X118511854Y-100228157D01*
X118632248Y-100267632D01*
X118775179Y-100281525D01*
X119209168Y-100281525D01*
X119065675Y-99371568D01*
X118631686Y-99371568D01*
X118490661Y-99387794D01*
X118384401Y-99432242D01*
X118304401Y-99502848D01*
X118249980Y-99595545D01*
X118224016Y-99707077D01*
X117911844Y-99707077D01*
X117911240Y-99697451D01*
X117936968Y-99558719D01*
X117995250Y-99434861D01*
X118080460Y-99336458D01*
X118151092Y-99286727D01*
X118233677Y-99251610D01*
X118330657Y-99231434D01*
X118327146Y-99221053D01*
X118196358Y-99179874D01*
X118076949Y-99112518D01*
X117972632Y-99023155D01*
X117887966Y-98916513D01*
X117825963Y-98796734D01*
X117791643Y-98671507D01*
X117784611Y-98575358D01*
X118102456Y-98575358D01*
X118106564Y-98695931D01*
X118139944Y-98813158D01*
X118195194Y-98910015D01*
X118272954Y-98990091D01*
X118367900Y-99049189D01*
X118479079Y-99085658D01*
X118610620Y-99098474D01*
X119023696Y-99098474D01*
X118894094Y-98293541D01*
X118477660Y-98293541D01*
X118346765Y-98307215D01*
X118249119Y-98344284D01*
X118176631Y-98402076D01*
X118126679Y-98479628D01*
X118102456Y-98575358D01*
X117784611Y-98575358D01*
X117781628Y-98534580D01*
X117794174Y-98417456D01*
X117826753Y-98316286D01*
X117880298Y-98225226D01*
X117952444Y-98149912D01*
X118045503Y-98088835D01*
X118149930Y-98046912D01*
X118277251Y-98019832D01*
X118432170Y-98010067D01*
X119156655Y-98010067D01*
X119562709Y-100565000D01*
G37*
G36*
X117335062Y-100565000D02*
G01*
X116929161Y-98010067D01*
X116614087Y-98010067D01*
X116974651Y-100278014D01*
X115819535Y-100278014D01*
X115865025Y-100565000D01*
X117335062Y-100565000D01*
G37*
G36*
X115342040Y-100565000D02*
G01*
X114935986Y-98010067D01*
X113466102Y-98010067D01*
X113511593Y-98297052D01*
X114670067Y-98297052D01*
X114796005Y-99087941D01*
X113760110Y-99087941D01*
X113805600Y-99371568D01*
X114841495Y-99371568D01*
X114984988Y-100278014D01*
X113826513Y-100278014D01*
X113872003Y-100565000D01*
X115342040Y-100565000D01*
G37*
D11*
G36*
X130945806Y-107720270D02*
G01*
X130979856Y-107733284D01*
X131006676Y-107754045D01*
X131026462Y-107781737D01*
X131038898Y-107816448D01*
X131043374Y-107860169D01*
X131043374Y-108006531D01*
X131038900Y-108050253D01*
X131026464Y-108084987D01*
X131006676Y-108112716D01*
X130979861Y-108133441D01*
X130945811Y-108146436D01*
X130902384Y-108151123D01*
X130859983Y-108146368D01*
X130826109Y-108133051D01*
X130798825Y-108111556D01*
X130778718Y-108082991D01*
X130765997Y-108046776D01*
X130761395Y-108000730D01*
X130761395Y-107865969D01*
X130765998Y-107819925D01*
X130778721Y-107783732D01*
X130798825Y-107755205D01*
X130826114Y-107733674D01*
X130859988Y-107720338D01*
X130902384Y-107715577D01*
X130945806Y-107720270D01*
G37*
G36*
X132656476Y-107993803D02*
G01*
X132686555Y-108004436D01*
X132710697Y-108021369D01*
X132729184Y-108044175D01*
X132740368Y-108071190D01*
X132744281Y-108103679D01*
X132740097Y-108136807D01*
X132728101Y-108164351D01*
X132708133Y-108187637D01*
X132682263Y-108204604D01*
X132649226Y-108215446D01*
X132607016Y-108219389D01*
X132557108Y-108214749D01*
X132517138Y-108201866D01*
X132485017Y-108181531D01*
X132460007Y-108153633D01*
X132445046Y-108120540D01*
X132439832Y-108080598D01*
X132439832Y-107989984D01*
X132618801Y-107989984D01*
X132656476Y-107993803D01*
G37*
G36*
X136852568Y-107993803D02*
G01*
X136882647Y-108004436D01*
X136906789Y-108021369D01*
X136925276Y-108044175D01*
X136936460Y-108071190D01*
X136940373Y-108103679D01*
X136936189Y-108136807D01*
X136924193Y-108164351D01*
X136904225Y-108187637D01*
X136878355Y-108204604D01*
X136845318Y-108215446D01*
X136803108Y-108219389D01*
X136753200Y-108214749D01*
X136713230Y-108201866D01*
X136681109Y-108181531D01*
X136656099Y-108153633D01*
X136641138Y-108120540D01*
X136635924Y-108080598D01*
X136635924Y-107989984D01*
X136814893Y-107989984D01*
X136852568Y-107993803D01*
G37*
G36*
X147762408Y-107993803D02*
G01*
X147792487Y-108004436D01*
X147816629Y-108021369D01*
X147835115Y-108044175D01*
X147846299Y-108071190D01*
X147850212Y-108103679D01*
X147846028Y-108136807D01*
X147834033Y-108164351D01*
X147814064Y-108187637D01*
X147788195Y-108204604D01*
X147755157Y-108215446D01*
X147712948Y-108219389D01*
X147663040Y-108214749D01*
X147623069Y-108201866D01*
X147590949Y-108181531D01*
X147565939Y-108153633D01*
X147550977Y-108120540D01*
X147545764Y-108080598D01*
X147545764Y-107989984D01*
X147724733Y-107989984D01*
X147762408Y-107993803D01*
G37*
G36*
X139432993Y-108201620D02*
G01*
X139283944Y-108201620D01*
X139234312Y-108196651D01*
X139194765Y-108182838D01*
X139163105Y-108160893D01*
X139139042Y-108131097D01*
X139124227Y-108094391D01*
X139118958Y-108048724D01*
X139124194Y-108002207D01*
X139138999Y-107964167D01*
X139163105Y-107932709D01*
X139194975Y-107909169D01*
X139234524Y-107894488D01*
X139283944Y-107889234D01*
X139432993Y-107889234D01*
X139432993Y-108201620D01*
G37*
G36*
X139432993Y-107747267D02*
G01*
X139292370Y-107747267D01*
X139247259Y-107742723D01*
X139211355Y-107730093D01*
X139182644Y-107710020D01*
X139160816Y-107682878D01*
X139147443Y-107649853D01*
X139142711Y-107609209D01*
X139147457Y-107568035D01*
X139160784Y-107535057D01*
X139182400Y-107508398D01*
X139210861Y-107488793D01*
X139246633Y-107476411D01*
X139291760Y-107471945D01*
X139432993Y-107471945D01*
X139432993Y-107747267D01*
G37*
G36*
X129218879Y-107851376D02*
G01*
X129269193Y-107873297D01*
X129305525Y-107883005D01*
X129269193Y-107894057D01*
X129218879Y-107917077D01*
X128802079Y-108140804D01*
X128378684Y-107920008D01*
X128327637Y-107897171D01*
X128293260Y-107887219D01*
X128327943Y-107877021D01*
X128377524Y-107855345D01*
X128801713Y-107629420D01*
X129218879Y-107851376D01*
G37*
G36*
X141807156Y-107851376D02*
G01*
X141857470Y-107873297D01*
X141893801Y-107883005D01*
X141857470Y-107894057D01*
X141807156Y-107917077D01*
X141390355Y-108140804D01*
X140966960Y-107920008D01*
X140915914Y-107897171D01*
X140881536Y-107887219D01*
X140916219Y-107877021D01*
X140965800Y-107855345D01*
X141389989Y-107629420D01*
X141807156Y-107851376D01*
G37*
G36*
X151038558Y-107851376D02*
G01*
X151088872Y-107873297D01*
X151125204Y-107883005D01*
X151088872Y-107894057D01*
X151038558Y-107917077D01*
X150621758Y-108140804D01*
X150198363Y-107920008D01*
X150147316Y-107897171D01*
X150112939Y-107887219D01*
X150147622Y-107877021D01*
X150197203Y-107855345D01*
X150621392Y-107629420D01*
X151038558Y-107851376D01*
G37*
G36*
X151375899Y-108710908D02*
G01*
X128045984Y-108710908D01*
X128045984Y-107798619D01*
X128157095Y-107798619D01*
X128157095Y-107887219D01*
X128157095Y-107973803D01*
X128801102Y-108308171D01*
X129445109Y-107973803D01*
X129445109Y-107798619D01*
X129020933Y-107577824D01*
X130586823Y-107577824D01*
X130586823Y-107865969D01*
X130586823Y-108336320D01*
X130592219Y-108396102D01*
X130607589Y-108447112D01*
X130632411Y-108491030D01*
X130667117Y-108529028D01*
X130708939Y-108558878D01*
X130758323Y-108580898D01*
X130816719Y-108594842D01*
X130885959Y-108599797D01*
X131106449Y-108599797D01*
X131106449Y-108453862D01*
X130889439Y-108453862D01*
X130849572Y-108449852D01*
X130818274Y-108438771D01*
X130793635Y-108421256D01*
X130775056Y-108397576D01*
X130763585Y-108368433D01*
X130759502Y-108332229D01*
X130759502Y-108286006D01*
X130757330Y-108166456D01*
X130775389Y-108204677D01*
X130800657Y-108237890D01*
X130832414Y-108265080D01*
X130869215Y-108284669D01*
X130912050Y-108296860D01*
X130962285Y-108301149D01*
X131019708Y-108295891D01*
X131069016Y-108280864D01*
X131111775Y-108256506D01*
X131149070Y-108222320D01*
X131178364Y-108181232D01*
X131199966Y-108132768D01*
X131213639Y-108075515D01*
X131218496Y-108007691D01*
X131218496Y-107858398D01*
X131217326Y-107842095D01*
X131422683Y-107842095D01*
X131422683Y-108347800D01*
X131597805Y-108347800D01*
X131597805Y-107863649D01*
X131602370Y-107817147D01*
X131614905Y-107781092D01*
X131634563Y-107753129D01*
X131661292Y-107732071D01*
X131694302Y-107719055D01*
X131735436Y-107714417D01*
X131777254Y-107719160D01*
X131810823Y-107732478D01*
X131838018Y-107754045D01*
X131858003Y-107782585D01*
X131870710Y-107819125D01*
X131875326Y-107865969D01*
X131875326Y-108347800D01*
X132050448Y-108347800D01*
X132050448Y-107825181D01*
X132264710Y-107825181D01*
X132264710Y-108080598D01*
X132264710Y-108347800D01*
X132435130Y-108347800D01*
X132435130Y-108200399D01*
X132436610Y-108200399D01*
X132440518Y-108229520D01*
X132461325Y-108274343D01*
X132494601Y-108310971D01*
X132540704Y-108339007D01*
X132595171Y-108355739D01*
X132663253Y-108361782D01*
X132721010Y-108357216D01*
X132770124Y-108344283D01*
X132812118Y-108323646D01*
X132848145Y-108295287D01*
X132877689Y-108259982D01*
X132898842Y-108219857D01*
X132911908Y-108173970D01*
X132916472Y-108121020D01*
X132912357Y-108071691D01*
X132908155Y-108056357D01*
X133101120Y-108056357D01*
X133106962Y-108126696D01*
X133123502Y-108186231D01*
X133149938Y-108236937D01*
X133186421Y-108280266D01*
X133231270Y-108314978D01*
X133283609Y-108340287D01*
X133344885Y-108356170D01*
X133416987Y-108361782D01*
X133489549Y-108356118D01*
X133521452Y-108347800D01*
X133943696Y-108347800D01*
X134118879Y-108347800D01*
X134118879Y-107897904D01*
X134392370Y-107897904D01*
X134392370Y-108347800D01*
X134567554Y-108347800D01*
X134567554Y-107842095D01*
X135618775Y-107842095D01*
X135618775Y-108347800D01*
X135793897Y-108347800D01*
X135793897Y-107863649D01*
X135798462Y-107817147D01*
X135810997Y-107781092D01*
X135830655Y-107753129D01*
X135857384Y-107732071D01*
X135890394Y-107719055D01*
X135931528Y-107714417D01*
X135973346Y-107719160D01*
X136006915Y-107732478D01*
X136034110Y-107754045D01*
X136054095Y-107782585D01*
X136066802Y-107819125D01*
X136071418Y-107865969D01*
X136071418Y-108347800D01*
X136246540Y-108347800D01*
X136246540Y-107825181D01*
X136460802Y-107825181D01*
X136460802Y-108080598D01*
X136460802Y-108347800D01*
X136631222Y-108347800D01*
X136631222Y-108200399D01*
X136632702Y-108200399D01*
X136636610Y-108229520D01*
X136657418Y-108274343D01*
X136690693Y-108310971D01*
X136736796Y-108339007D01*
X136791263Y-108355739D01*
X136859345Y-108361782D01*
X136917102Y-108357216D01*
X136966216Y-108344283D01*
X137008210Y-108323646D01*
X137044237Y-108295287D01*
X137073781Y-108259982D01*
X137094934Y-108219857D01*
X137108000Y-108173970D01*
X137112564Y-108121020D01*
X137108449Y-108071691D01*
X137096644Y-108028610D01*
X137077515Y-107990655D01*
X137051203Y-107957261D01*
X137018109Y-107929028D01*
X136977315Y-107905720D01*
X136932868Y-107889459D01*
X136881850Y-107879220D01*
X136823136Y-107875617D01*
X136635924Y-107875617D01*
X136635924Y-107850826D01*
X137264300Y-107850826D01*
X137264300Y-107923183D01*
X137439422Y-107923183D01*
X137439422Y-107859009D01*
X137443966Y-107813291D01*
X137456357Y-107778455D01*
X137475692Y-107751969D01*
X137502051Y-107732434D01*
X137535913Y-107720066D01*
X137579495Y-107715577D01*
X137623460Y-107720601D01*
X137657889Y-107734574D01*
X137685008Y-107757037D01*
X137704587Y-107786788D01*
X137717204Y-107825514D01*
X137721828Y-107875800D01*
X137721828Y-108347800D01*
X137897011Y-108347800D01*
X137897011Y-107577824D01*
X138082758Y-107577824D01*
X138457365Y-108599797D01*
X138640547Y-108599797D01*
X138532042Y-108305912D01*
X138630706Y-108057028D01*
X138943531Y-108057028D01*
X138948293Y-108114263D01*
X138962040Y-108164957D01*
X138984441Y-108210291D01*
X139015146Y-108250468D01*
X139053215Y-108284211D01*
X139099541Y-108311896D01*
X139150152Y-108331340D01*
X139207904Y-108343525D01*
X139274052Y-108347800D01*
X139602864Y-108347800D01*
X139602864Y-107798619D01*
X140745371Y-107798619D01*
X140745371Y-107887219D01*
X140745371Y-107973803D01*
X141389378Y-108308171D01*
X141874383Y-108056357D01*
X143171741Y-108056357D01*
X143177583Y-108126696D01*
X143194123Y-108186231D01*
X143220559Y-108236937D01*
X143257042Y-108280266D01*
X143301891Y-108314978D01*
X143354230Y-108340287D01*
X143415506Y-108356170D01*
X143487608Y-108361782D01*
X143560170Y-108356118D01*
X143621526Y-108340121D01*
X143673651Y-108314680D01*
X143718051Y-108279839D01*
X143754093Y-108236395D01*
X143778209Y-108189591D01*
X143965163Y-108189591D01*
X143965163Y-108347800D01*
X144639518Y-108347800D01*
X144639518Y-108189591D01*
X144807313Y-108189591D01*
X144807313Y-108347800D01*
X145415783Y-108347800D01*
X146474270Y-108347800D01*
X146672595Y-108347800D01*
X146806685Y-108136774D01*
X146827262Y-108097756D01*
X146843321Y-108063257D01*
X146859014Y-108097756D01*
X146880324Y-108136774D01*
X147015207Y-108347800D01*
X147213593Y-108347800D01*
X146944682Y-107949989D01*
X147028945Y-107825181D01*
X147370642Y-107825181D01*
X147370642Y-108080598D01*
X147370642Y-108347800D01*
X147541062Y-108347800D01*
X147541062Y-108200399D01*
X147542541Y-108200399D01*
X147546450Y-108229520D01*
X147567257Y-108274343D01*
X147600533Y-108310971D01*
X147646636Y-108339007D01*
X147701103Y-108355739D01*
X147769185Y-108361782D01*
X147826942Y-108357216D01*
X147862699Y-108347800D01*
X148178597Y-108347800D01*
X148341324Y-108347800D01*
X148341324Y-107918054D01*
X148336805Y-107735544D01*
X148324776Y-107551995D01*
X148310000Y-107390612D01*
X148453920Y-107904499D01*
X148597534Y-107904499D01*
X148736875Y-107403251D01*
X148720205Y-107548637D01*
X148708054Y-107723454D01*
X148703353Y-107918054D01*
X148703353Y-108347800D01*
X148866079Y-108347800D01*
X148866079Y-107798619D01*
X149976774Y-107798619D01*
X149976774Y-107887219D01*
X149976774Y-107973803D01*
X150620781Y-108308171D01*
X151264788Y-107973803D01*
X151264788Y-107798619D01*
X150620781Y-107463396D01*
X149976774Y-107798619D01*
X148866079Y-107798619D01*
X148866079Y-107325826D01*
X148638934Y-107325826D01*
X148524323Y-107764914D01*
X148407391Y-107325826D01*
X148178597Y-107325826D01*
X148178597Y-108347800D01*
X147862699Y-108347800D01*
X147876055Y-108344283D01*
X147918049Y-108323646D01*
X147954077Y-108295287D01*
X147983620Y-108259982D01*
X148004774Y-108219857D01*
X148017840Y-108173970D01*
X148022404Y-108121020D01*
X148018289Y-108071691D01*
X148006483Y-108028610D01*
X147987355Y-107990655D01*
X147961043Y-107957261D01*
X147927948Y-107929028D01*
X147887154Y-107905720D01*
X147842708Y-107889459D01*
X147791690Y-107879220D01*
X147732976Y-107875617D01*
X147545764Y-107875617D01*
X147545764Y-107822006D01*
X147549957Y-107785699D01*
X147561587Y-107757496D01*
X147580263Y-107735483D01*
X147604954Y-107719809D01*
X147637957Y-107709550D01*
X147681746Y-107705746D01*
X147739129Y-107712098D01*
X147780115Y-107729071D01*
X147801131Y-107747048D01*
X147814151Y-107768957D01*
X147819865Y-107795933D01*
X147988454Y-107795933D01*
X147980847Y-107745830D01*
X147963918Y-107701845D01*
X147937605Y-107662762D01*
X147900954Y-107627833D01*
X147858609Y-107600971D01*
X147808670Y-107580997D01*
X147749734Y-107568296D01*
X147680097Y-107563780D01*
X147605871Y-107568725D01*
X147544441Y-107582502D01*
X147493631Y-107603972D01*
X147451669Y-107632656D01*
X147416760Y-107669764D01*
X147391717Y-107713275D01*
X147376138Y-107764466D01*
X147370642Y-107825181D01*
X147028945Y-107825181D01*
X147195947Y-107577824D01*
X146997561Y-107577824D01*
X146878553Y-107766685D01*
X146858464Y-107804359D01*
X146843321Y-107837820D01*
X146828850Y-107804359D01*
X146808639Y-107766685D01*
X146689631Y-107577824D01*
X146491306Y-107577824D01*
X146741777Y-107950539D01*
X146474270Y-108347800D01*
X145415783Y-108347800D01*
X145415783Y-107325826D01*
X145240600Y-107325826D01*
X145240600Y-108189591D01*
X144807313Y-108189591D01*
X144639518Y-108189591D01*
X144377201Y-108189591D01*
X144377201Y-107735971D01*
X144611552Y-107735971D01*
X144611552Y-107577824D01*
X144202018Y-107577824D01*
X144202018Y-108189591D01*
X143965163Y-108189591D01*
X143778209Y-108189591D01*
X143780215Y-108185698D01*
X143796549Y-108126325D01*
X143802315Y-108056357D01*
X143802315Y-107577824D01*
X143627192Y-107577824D01*
X143627192Y-108055502D01*
X143622678Y-108102546D01*
X143610219Y-108139572D01*
X143590617Y-108168769D01*
X143563725Y-108190870D01*
X143530066Y-108204545D01*
X143487608Y-108209436D01*
X143445295Y-108204567D01*
X143411465Y-108190907D01*
X143384171Y-108168769D01*
X143364148Y-108139515D01*
X143351455Y-108102488D01*
X143346863Y-108055502D01*
X143346863Y-107577824D01*
X143171741Y-107577824D01*
X143171741Y-108056357D01*
X141874383Y-108056357D01*
X142033386Y-107973803D01*
X142033386Y-107798619D01*
X141389378Y-107463396D01*
X140745371Y-107798619D01*
X139602864Y-107798619D01*
X139602864Y-107348541D01*
X144186081Y-107348541D01*
X144189720Y-107377944D01*
X144200072Y-107401991D01*
X144217161Y-107421936D01*
X144239334Y-107436541D01*
X144266803Y-107445743D01*
X144300997Y-107449047D01*
X144335192Y-107445744D01*
X144362684Y-107436543D01*
X144384895Y-107421936D01*
X144401983Y-107401991D01*
X144412335Y-107377944D01*
X144415975Y-107348541D01*
X144412322Y-107318683D01*
X144401955Y-107294363D01*
X144384895Y-107274291D01*
X144362661Y-107259508D01*
X144335169Y-107250210D01*
X144300997Y-107246875D01*
X144266826Y-107250211D01*
X144239357Y-107259510D01*
X144217161Y-107274291D01*
X144200101Y-107294363D01*
X144189734Y-107318683D01*
X144186081Y-107348541D01*
X139602864Y-107348541D01*
X139602864Y-107325826D01*
X139290111Y-107325826D01*
X139224933Y-107329701D01*
X139168377Y-107340698D01*
X139119202Y-107358127D01*
X139073822Y-107383197D01*
X139036810Y-107413595D01*
X139007156Y-107449535D01*
X138985364Y-107490532D01*
X138971990Y-107536815D01*
X138967344Y-107589609D01*
X138969402Y-107609209D01*
X138972937Y-107642874D01*
X138989326Y-107690847D01*
X139015776Y-107733202D01*
X139050692Y-107767234D01*
X139092826Y-107791880D01*
X139141673Y-107806130D01*
X139141673Y-107809488D01*
X139103834Y-107816860D01*
X139069628Y-107830423D01*
X139038419Y-107850277D01*
X138998814Y-107889328D01*
X138968627Y-107938326D01*
X138949958Y-107994027D01*
X138944378Y-108048724D01*
X138943531Y-108057028D01*
X138630706Y-108057028D01*
X138820676Y-107577824D01*
X138636578Y-107577824D01*
X138488140Y-107971910D01*
X138462677Y-108047075D01*
X138444970Y-108123218D01*
X138428483Y-108047075D01*
X138404792Y-107971910D01*
X138266550Y-107577824D01*
X138082758Y-107577824D01*
X137897011Y-107577824D01*
X137725919Y-107577824D01*
X137725919Y-107732979D01*
X137725287Y-107732979D01*
X137723056Y-107712847D01*
X137703507Y-107662151D01*
X137671880Y-107620811D01*
X137629858Y-107589907D01*
X137577918Y-107570659D01*
X137513244Y-107563780D01*
X137455283Y-107568943D01*
X137406475Y-107583561D01*
X137365063Y-107607012D01*
X137329818Y-107639617D01*
X137302403Y-107678957D01*
X137281994Y-107726174D01*
X137268961Y-107782822D01*
X137264300Y-107850826D01*
X136635924Y-107850826D01*
X136635924Y-107822006D01*
X136640117Y-107785699D01*
X136651748Y-107757496D01*
X136670423Y-107735483D01*
X136695114Y-107719809D01*
X136728118Y-107709550D01*
X136771906Y-107705746D01*
X136829289Y-107712098D01*
X136870275Y-107729071D01*
X136891291Y-107747048D01*
X136904311Y-107768957D01*
X136910026Y-107795933D01*
X137078614Y-107795933D01*
X137071008Y-107745830D01*
X137054079Y-107701845D01*
X137027765Y-107662762D01*
X136991114Y-107627833D01*
X136948770Y-107600971D01*
X136898831Y-107580997D01*
X136839895Y-107568296D01*
X136770258Y-107563780D01*
X136696031Y-107568725D01*
X136634602Y-107582502D01*
X136583791Y-107603972D01*
X136541830Y-107632656D01*
X136506921Y-107669764D01*
X136481878Y-107713275D01*
X136466298Y-107764466D01*
X136460802Y-107825181D01*
X136246540Y-107825181D01*
X136246540Y-107577824D01*
X136075509Y-107577824D01*
X136075509Y-107724797D01*
X136074593Y-107724797D01*
X136072334Y-107706362D01*
X136052817Y-107658112D01*
X136021348Y-107618429D01*
X135980065Y-107588696D01*
X135930053Y-107570304D01*
X135868879Y-107563780D01*
X135813173Y-107568816D01*
X135765199Y-107583219D01*
X135723479Y-107606569D01*
X135686980Y-107639312D01*
X135658033Y-107678756D01*
X135636832Y-107724806D01*
X135623492Y-107778716D01*
X135618775Y-107842095D01*
X134567554Y-107842095D01*
X134567554Y-107325826D01*
X134392370Y-107325826D01*
X134392370Y-107739696D01*
X134118879Y-107739696D01*
X134118879Y-107325826D01*
X133943696Y-107325826D01*
X133943696Y-108347800D01*
X133521452Y-108347800D01*
X133550905Y-108340121D01*
X133603030Y-108314680D01*
X133647430Y-108279839D01*
X133683472Y-108236395D01*
X133709593Y-108185698D01*
X133725928Y-108126325D01*
X133731693Y-108056357D01*
X133731693Y-107577824D01*
X133556571Y-107577824D01*
X133556571Y-108055502D01*
X133552057Y-108102546D01*
X133539597Y-108139572D01*
X133519996Y-108168769D01*
X133493104Y-108190870D01*
X133459445Y-108204545D01*
X133416987Y-108209436D01*
X133374674Y-108204567D01*
X133340844Y-108190907D01*
X133313550Y-108168769D01*
X133293527Y-108139515D01*
X133280834Y-108102488D01*
X133276242Y-108055502D01*
X133276242Y-107577824D01*
X133101120Y-107577824D01*
X133101120Y-108056357D01*
X132908155Y-108056357D01*
X132900552Y-108028610D01*
X132881423Y-107990655D01*
X132855111Y-107957261D01*
X132822017Y-107929028D01*
X132781222Y-107905720D01*
X132736776Y-107889459D01*
X132685758Y-107879220D01*
X132627044Y-107875617D01*
X132439832Y-107875617D01*
X132439832Y-107822006D01*
X132444025Y-107785699D01*
X132455655Y-107757496D01*
X132474331Y-107735483D01*
X132499022Y-107719809D01*
X132532026Y-107709550D01*
X132575814Y-107705746D01*
X132633197Y-107712098D01*
X132674183Y-107729071D01*
X132695199Y-107747048D01*
X132708219Y-107768957D01*
X132713934Y-107795933D01*
X132882522Y-107795933D01*
X132874916Y-107745830D01*
X132857987Y-107701845D01*
X132831673Y-107662762D01*
X132795022Y-107627833D01*
X132752678Y-107600971D01*
X132702739Y-107580997D01*
X132643803Y-107568296D01*
X132574166Y-107563780D01*
X132499939Y-107568725D01*
X132438510Y-107582502D01*
X132387699Y-107603972D01*
X132345737Y-107632656D01*
X132310829Y-107669764D01*
X132285785Y-107713275D01*
X132270206Y-107764466D01*
X132264710Y-107825181D01*
X132050448Y-107825181D01*
X132050448Y-107577824D01*
X131879417Y-107577824D01*
X131879417Y-107724797D01*
X131878501Y-107724797D01*
X131876242Y-107706362D01*
X131856724Y-107658112D01*
X131825256Y-107618429D01*
X131783973Y-107588696D01*
X131733961Y-107570304D01*
X131672787Y-107563780D01*
X131617081Y-107568816D01*
X131569107Y-107583219D01*
X131527387Y-107606569D01*
X131490887Y-107639312D01*
X131461941Y-107678756D01*
X131440740Y-107724806D01*
X131427400Y-107778716D01*
X131422683Y-107842095D01*
X131217326Y-107842095D01*
X131213665Y-107791070D01*
X131200031Y-107733908D01*
X131178431Y-107685215D01*
X131149070Y-107643647D01*
X131111710Y-107608963D01*
X131068927Y-107584293D01*
X131019643Y-107569095D01*
X130962285Y-107563780D01*
X130912108Y-107568120D01*
X130869294Y-107580466D01*
X130832472Y-107600331D01*
X130800657Y-107627955D01*
X130775364Y-107661548D01*
X130757304Y-107700052D01*
X130757304Y-107577824D01*
X130586823Y-107577824D01*
X129020933Y-107577824D01*
X128801102Y-107463396D01*
X128157095Y-107798619D01*
X128045984Y-107798619D01*
X128045984Y-107135764D01*
X151375899Y-107135764D01*
X151375899Y-108710908D01*
G37*
D14*
G36*
X152180767Y-80170000D02*
G01*
X151755785Y-78126053D01*
X151311507Y-78126053D01*
X151269863Y-79004228D01*
X150858558Y-78126053D01*
X150410861Y-78126053D01*
X150835844Y-80170000D01*
X151154214Y-80170000D01*
X150975551Y-79310509D01*
X150890799Y-78945488D01*
X150790903Y-78578391D01*
X150694916Y-78255624D01*
X151190240Y-79283398D01*
X151471120Y-79283398D01*
X151535355Y-78280903D01*
X151563077Y-78571674D01*
X151612048Y-78921308D01*
X151683855Y-79310509D01*
X151862519Y-80170000D01*
X152180767Y-80170000D01*
G37*
G36*
X149835792Y-80197965D02*
G01*
X149982666Y-80186000D01*
X150098402Y-80153179D01*
X150189388Y-80102405D01*
X150260286Y-80034078D01*
X150311544Y-79949661D01*
X150341845Y-79849987D01*
X150349936Y-79730880D01*
X150331971Y-79587114D01*
X150028133Y-78126053D01*
X149685582Y-78126053D01*
X149989054Y-79585404D01*
X149999820Y-79681598D01*
X149990478Y-79754918D01*
X149964874Y-79811329D01*
X149922211Y-79854199D01*
X149860342Y-79881724D01*
X149772166Y-79892051D01*
X149684915Y-79882622D01*
X149610934Y-79855626D01*
X149547341Y-79811329D01*
X149495859Y-79752432D01*
X149455887Y-79678185D01*
X149427906Y-79585404D01*
X149124434Y-78126053D01*
X148781639Y-78126053D01*
X149085478Y-79587114D01*
X149124925Y-79724635D01*
X149180986Y-79843323D01*
X149253296Y-79945774D01*
X149342543Y-80033834D01*
X149445702Y-80104508D01*
X149560752Y-80155498D01*
X149689860Y-80187012D01*
X149835792Y-80197965D01*
G37*
G36*
X148761734Y-80170000D02*
G01*
X148423457Y-80170000D01*
X148254563Y-79357648D01*
X148004825Y-79357648D01*
X147822131Y-80170000D01*
X147448440Y-80170000D01*
X147659710Y-79307944D01*
X147546002Y-79254987D01*
X147443056Y-79182636D01*
X147349644Y-79089347D01*
X147272653Y-78981878D01*
X147215350Y-78863878D01*
X147177208Y-78733607D01*
X147166475Y-78649433D01*
X147516246Y-78649433D01*
X147525621Y-78745087D01*
X147553861Y-78834482D01*
X147596851Y-78908066D01*
X147654825Y-78968447D01*
X147725117Y-79013606D01*
X147805357Y-79041088D01*
X147898213Y-79050635D01*
X148190694Y-79050635D01*
X148062344Y-78433066D01*
X147769863Y-78433066D01*
X147677875Y-78443516D01*
X147610231Y-78471832D01*
X147560792Y-78516353D01*
X147529059Y-78575131D01*
X147516246Y-78649433D01*
X147166475Y-78649433D01*
X147161542Y-78610743D01*
X147167182Y-78504855D01*
X147191618Y-78412550D01*
X147235469Y-78328475D01*
X147296269Y-78258499D01*
X147375900Y-78201036D01*
X147466487Y-78160859D01*
X147575252Y-78135224D01*
X147705994Y-78126053D01*
X148336751Y-78126053D01*
X148761734Y-80170000D01*
G37*
G36*
X147052889Y-80170000D02*
G01*
X146627906Y-78126053D01*
X145429528Y-78126053D01*
X145493642Y-78434166D01*
X146355331Y-78434166D01*
X146465729Y-78965516D01*
X145699905Y-78965516D01*
X145761454Y-79261538D01*
X146527278Y-79261538D01*
X146652086Y-79861765D01*
X145790397Y-79861765D01*
X145854511Y-80170000D01*
X147052889Y-80170000D01*
G37*
G36*
X145538705Y-80170000D02*
G01*
X144768241Y-79122564D01*
X145080383Y-78126053D01*
X144697777Y-78126053D01*
X144554406Y-78639085D01*
X144526196Y-78747041D01*
X144509466Y-78825076D01*
X144462449Y-78747041D01*
X144391741Y-78639085D01*
X144029284Y-78126053D01*
X143658890Y-78126053D01*
X144383925Y-79115603D01*
X144050533Y-80170000D01*
X144431919Y-80170000D01*
X144597637Y-79605554D01*
X144624748Y-79496011D01*
X144642822Y-79411870D01*
X144692770Y-79495523D01*
X144765310Y-79604455D01*
X145167090Y-80170000D01*
X145538705Y-80170000D01*
G37*
G36*
X142047986Y-80170000D02*
G01*
X141709710Y-80170000D01*
X141540816Y-79357648D01*
X141291078Y-79357648D01*
X141108384Y-80170000D01*
X140734692Y-80170000D01*
X140945963Y-79307944D01*
X140832254Y-79254987D01*
X140729309Y-79182636D01*
X140635896Y-79089347D01*
X140558906Y-78981878D01*
X140501602Y-78863878D01*
X140463461Y-78733607D01*
X140452728Y-78649433D01*
X140802499Y-78649433D01*
X140811873Y-78745087D01*
X140840114Y-78834482D01*
X140883103Y-78908066D01*
X140941078Y-78968447D01*
X141011370Y-79013606D01*
X141091609Y-79041088D01*
X141184466Y-79050635D01*
X141476946Y-79050635D01*
X141348597Y-78433066D01*
X141056116Y-78433066D01*
X140964128Y-78443516D01*
X140896483Y-78471832D01*
X140847044Y-78516353D01*
X140815311Y-78575131D01*
X140802499Y-78649433D01*
X140452728Y-78649433D01*
X140447795Y-78610743D01*
X140453434Y-78504855D01*
X140477871Y-78412550D01*
X140521721Y-78328475D01*
X140582522Y-78258499D01*
X140662152Y-78201036D01*
X140752740Y-78160859D01*
X140861504Y-78135224D01*
X140992247Y-78126053D01*
X141623004Y-78126053D01*
X142047986Y-80170000D01*
G37*
G36*
X139560093Y-78612949D02*
G01*
X139675971Y-78638236D01*
X139783122Y-78679630D01*
X139882429Y-78736891D01*
X139969846Y-78807688D01*
X140046416Y-78892854D01*
X140108877Y-78988967D01*
X140157435Y-79097500D01*
X140191863Y-79220261D01*
X140266601Y-79579665D01*
X140283279Y-79705266D01*
X140279270Y-79813113D01*
X140257198Y-79906584D01*
X140215973Y-79992313D01*
X140158315Y-80062955D01*
X140082686Y-80120418D01*
X139995570Y-80160757D01*
X139890830Y-80186454D01*
X139764682Y-80195645D01*
X139637384Y-80186953D01*
X139521293Y-80161672D01*
X139414682Y-80120418D01*
X139315805Y-80063150D01*
X139228581Y-79992165D01*
X139151999Y-79906584D01*
X139089402Y-79810102D01*
X139040862Y-79701703D01*
X139006552Y-79579665D01*
X138931814Y-79220261D01*
X138917452Y-79111876D01*
X139261810Y-79111876D01*
X139272166Y-79208782D01*
X139351667Y-79591266D01*
X139379860Y-79683607D01*
X139420361Y-79756318D01*
X139472690Y-79812916D01*
X139537028Y-79854905D01*
X139612198Y-79880690D01*
X139701057Y-79889731D01*
X139787438Y-79880039D01*
X139850512Y-79853873D01*
X139896207Y-79812916D01*
X139924990Y-79758558D01*
X139936408Y-79686879D01*
X139926493Y-79591266D01*
X139846992Y-79208782D01*
X139818322Y-79115412D01*
X139777280Y-79042487D01*
X139724382Y-78986277D01*
X139659309Y-78944550D01*
X139584493Y-78919073D01*
X139497358Y-78910195D01*
X139409099Y-78919909D01*
X139345715Y-78945922D01*
X139300743Y-78986277D01*
X139272751Y-79040028D01*
X139261810Y-79111876D01*
X138917452Y-79111876D01*
X138915070Y-79093904D01*
X138919115Y-78985937D01*
X138941217Y-78892854D01*
X138982328Y-78807428D01*
X139039601Y-78736985D01*
X139114508Y-78679630D01*
X139200806Y-78639355D01*
X139305875Y-78613556D01*
X139433855Y-78604281D01*
X139560093Y-78612949D01*
G37*
G36*
X138692212Y-80170000D02*
G01*
X138357599Y-80170000D01*
X138297910Y-79882746D01*
X138296216Y-79922774D01*
X138275981Y-80001741D01*
X138240973Y-80067906D01*
X138190575Y-80123310D01*
X138127493Y-80163422D01*
X138049014Y-80188821D01*
X137951057Y-80197965D01*
X137843082Y-80187950D01*
X137743303Y-80158433D01*
X137649783Y-80109105D01*
X137561123Y-80038230D01*
X137486271Y-79954034D01*
X137423991Y-79855719D01*
X137374197Y-79741418D01*
X137337519Y-79608729D01*
X137251057Y-79192418D01*
X137238437Y-79100290D01*
X137584182Y-79100290D01*
X137595317Y-79200600D01*
X137678237Y-79599448D01*
X137706852Y-79694263D01*
X137746644Y-79766715D01*
X137796817Y-79821099D01*
X137858805Y-79861219D01*
X137930642Y-79885785D01*
X138014926Y-79894371D01*
X138098486Y-79884268D01*
X138159024Y-79856926D01*
X138202505Y-79813649D01*
X138229006Y-79757074D01*
X138238844Y-79683081D01*
X138228028Y-79585404D01*
X138150969Y-79214644D01*
X138122572Y-79120342D01*
X138082250Y-79045386D01*
X138030558Y-78986399D01*
X137966659Y-78941817D01*
X137893762Y-78914884D01*
X137809274Y-78905554D01*
X137725504Y-78914706D01*
X137664829Y-78939287D01*
X137621329Y-78977484D01*
X137594542Y-79028676D01*
X137584182Y-79100290D01*
X137238437Y-79100290D01*
X137232039Y-79053580D01*
X137235252Y-78938418D01*
X137257108Y-78842394D01*
X137295753Y-78761695D01*
X137352764Y-78692801D01*
X137423535Y-78643694D01*
X137510848Y-78612959D01*
X137619253Y-78601960D01*
X137746247Y-78616574D01*
X137859950Y-78659475D01*
X137963757Y-78731775D01*
X138048562Y-78826427D01*
X138098854Y-78917611D01*
X138014316Y-78557630D01*
X137924556Y-78126053D01*
X138267229Y-78126053D01*
X138692212Y-80170000D01*
G37*
G36*
X136203219Y-78612949D02*
G01*
X136319098Y-78638236D01*
X136426249Y-78679630D01*
X136525555Y-78736891D01*
X136612972Y-78807688D01*
X136689542Y-78892854D01*
X136752003Y-78988967D01*
X136800561Y-79097500D01*
X136834989Y-79220261D01*
X136909727Y-79579665D01*
X136926406Y-79705266D01*
X136922396Y-79813113D01*
X136900324Y-79906584D01*
X136859099Y-79992313D01*
X136801441Y-80062955D01*
X136725812Y-80120418D01*
X136638696Y-80160757D01*
X136533956Y-80186454D01*
X136407808Y-80195645D01*
X136280510Y-80186953D01*
X136164419Y-80161672D01*
X136057808Y-80120418D01*
X135958931Y-80063150D01*
X135871707Y-79992165D01*
X135795125Y-79906584D01*
X135732528Y-79810102D01*
X135683989Y-79701703D01*
X135649678Y-79579665D01*
X135574940Y-79220261D01*
X135560578Y-79111876D01*
X135904936Y-79111876D01*
X135915293Y-79208782D01*
X135994794Y-79591266D01*
X136022987Y-79683607D01*
X136063487Y-79756318D01*
X136115816Y-79812916D01*
X136180154Y-79854905D01*
X136255325Y-79880690D01*
X136344183Y-79889731D01*
X136430564Y-79880039D01*
X136493639Y-79853873D01*
X136539333Y-79812916D01*
X136568117Y-79758558D01*
X136579534Y-79686879D01*
X136569619Y-79591266D01*
X136490118Y-79208782D01*
X136461448Y-79115412D01*
X136420407Y-79042487D01*
X136367508Y-78986277D01*
X136302435Y-78944550D01*
X136227620Y-78919073D01*
X136140484Y-78910195D01*
X136052225Y-78919909D01*
X135988841Y-78945922D01*
X135943869Y-78986277D01*
X135915878Y-79040028D01*
X135904936Y-79111876D01*
X135560578Y-79111876D01*
X135558197Y-79093904D01*
X135562242Y-78985937D01*
X135584344Y-78892854D01*
X135625454Y-78807428D01*
X135682727Y-78736985D01*
X135757634Y-78679630D01*
X135843932Y-78639355D01*
X135949001Y-78613556D01*
X136076981Y-78604281D01*
X136203219Y-78612949D01*
G37*
G36*
X134573422Y-80170000D02*
G01*
X134678685Y-80161062D01*
X134762673Y-80136375D01*
X134829708Y-80097828D01*
X134882878Y-80045436D01*
X134921140Y-79981368D01*
X134943699Y-79905770D01*
X134949576Y-79815507D01*
X134935879Y-79706671D01*
X134777854Y-78946343D01*
X135194654Y-78946343D01*
X135128831Y-78630048D01*
X134712030Y-78630048D01*
X134621782Y-78196029D01*
X134279232Y-78196029D01*
X134369480Y-78630048D01*
X133769253Y-78630048D01*
X133835076Y-78946343D01*
X134435303Y-78946343D01*
X134591618Y-79698489D01*
X134594984Y-79763016D01*
X134577697Y-79810352D01*
X134541518Y-79842044D01*
X134483419Y-79853583D01*
X134037309Y-79853583D01*
X134103133Y-80170000D01*
X134573422Y-80170000D01*
G37*
G36*
X133658367Y-80170000D02*
G01*
X133592543Y-79853583D01*
X133079389Y-79853583D01*
X132890833Y-78946343D01*
X133349277Y-78946343D01*
X133283454Y-78630048D01*
X132482337Y-78630048D01*
X132736716Y-79853583D01*
X132273387Y-79853583D01*
X132339211Y-80170000D01*
X133658367Y-80170000D01*
G37*
G36*
X132622411Y-78372494D02*
G01*
X132689105Y-78365635D01*
X132738678Y-78347086D01*
X132775307Y-78318272D01*
X132800000Y-78279427D01*
X132810595Y-78231714D01*
X132805593Y-78171482D01*
X132786364Y-78112531D01*
X132755973Y-78063583D01*
X132713879Y-78022983D01*
X132635372Y-77982316D01*
X132538391Y-77968150D01*
X132471840Y-77975077D01*
X132422391Y-77993820D01*
X132385861Y-78022983D01*
X132361242Y-78062074D01*
X132350733Y-78110325D01*
X132355942Y-78171482D01*
X132374905Y-78229540D01*
X132405111Y-78277937D01*
X132447166Y-78318272D01*
X132525510Y-78358472D01*
X132622411Y-78372494D01*
G37*
G36*
X131349539Y-80197965D02*
G01*
X131475759Y-80188967D01*
X131581572Y-80163716D01*
X131670474Y-80123960D01*
X131748266Y-80067132D01*
X131807642Y-79997560D01*
X131850359Y-79913545D01*
X131873897Y-79821486D01*
X131879037Y-79715934D01*
X131863304Y-79593586D01*
X131782704Y-79206339D01*
X131748515Y-79085765D01*
X131699776Y-78979318D01*
X131636646Y-78885160D01*
X131559313Y-78802063D01*
X131470628Y-78732596D01*
X131369445Y-78676088D01*
X131260780Y-78635316D01*
X131144046Y-78610459D01*
X131017735Y-78601960D01*
X130876115Y-78612748D01*
X130761783Y-78642583D01*
X130669545Y-78688973D01*
X130595439Y-78751315D01*
X130538788Y-78829656D01*
X130503348Y-78921091D01*
X130489348Y-79029174D01*
X130499696Y-79158590D01*
X130835774Y-79158590D01*
X130834459Y-79081619D01*
X130851604Y-79021570D01*
X130885600Y-78973820D01*
X130933789Y-78938707D01*
X130997432Y-78916157D01*
X131081238Y-78907875D01*
X131171245Y-78916855D01*
X131248311Y-78942577D01*
X131315101Y-78984567D01*
X131369651Y-79041277D01*
X131411307Y-79113704D01*
X131439787Y-79205240D01*
X131520509Y-79593586D01*
X131529866Y-79687422D01*
X131517688Y-79758879D01*
X131487536Y-79814138D01*
X131440337Y-79855621D01*
X131375166Y-79882197D01*
X131285914Y-79892051D01*
X131201698Y-79884405D01*
X131128045Y-79862393D01*
X131062920Y-79826472D01*
X131007645Y-79777213D01*
X130965582Y-79716238D01*
X130936158Y-79641458D01*
X130600080Y-79641458D01*
X130641304Y-79765657D01*
X130698995Y-79873589D01*
X130773245Y-79967434D01*
X130865205Y-80048611D01*
X130969294Y-80113046D01*
X131083459Y-80159494D01*
X131209476Y-80188085D01*
X131349539Y-80197965D01*
G37*
G36*
X129755854Y-80195645D02*
G01*
X129873818Y-80188658D01*
X129972002Y-80169197D01*
X130053586Y-80138981D01*
X130127192Y-80094578D01*
X130182682Y-80041382D01*
X130222602Y-79978757D01*
X130246270Y-79908218D01*
X130253565Y-79827127D01*
X130242508Y-79732438D01*
X129904720Y-79732438D01*
X129908847Y-79790529D01*
X129896564Y-79835129D01*
X129869183Y-79870436D01*
X129829965Y-79895308D01*
X129774721Y-79911991D01*
X129698213Y-79918307D01*
X129577679Y-79918307D01*
X129462802Y-79905256D01*
X129377889Y-79869825D01*
X129332492Y-79832700D01*
X129300897Y-79787375D01*
X129281901Y-79732194D01*
X129279184Y-79656349D01*
X129303028Y-79607508D01*
X129350905Y-79574966D01*
X129435774Y-79554141D01*
X129799940Y-79503949D01*
X129910255Y-79475468D01*
X129990898Y-79427562D01*
X130048457Y-79360701D01*
X130083561Y-79278277D01*
X130096228Y-79178850D01*
X130083018Y-79056863D01*
X130051543Y-78950789D01*
X130005687Y-78860887D01*
X129945629Y-78784741D01*
X129870404Y-78720785D01*
X129785056Y-78671895D01*
X129685680Y-78635522D01*
X129569847Y-78612451D01*
X129434675Y-78604281D01*
X129309378Y-78604281D01*
X129181789Y-78612904D01*
X129078402Y-78636710D01*
X128994851Y-78673473D01*
X128927627Y-78722250D01*
X128873824Y-78785446D01*
X128840684Y-78856880D01*
X128827075Y-78939125D01*
X128834692Y-79035858D01*
X129173702Y-79035858D01*
X129172364Y-78989253D01*
X129185091Y-78951401D01*
X129211926Y-78919476D01*
X129271673Y-78888220D01*
X129365799Y-78876123D01*
X129491095Y-78876123D01*
X129592497Y-78888377D01*
X129667438Y-78921796D01*
X129722527Y-78975990D01*
X129751824Y-79046971D01*
X129753074Y-79110541D01*
X129729965Y-79150041D01*
X129686476Y-79176075D01*
X129614926Y-79194127D01*
X129271154Y-79241877D01*
X129170527Y-79264019D01*
X129092503Y-79297515D01*
X129032717Y-79341028D01*
X128988077Y-79394651D01*
X128950263Y-79481119D01*
X128936627Y-79590013D01*
X128952051Y-79728897D01*
X128984028Y-79835768D01*
X129031443Y-79927450D01*
X129094338Y-80006193D01*
X129173946Y-80073401D01*
X129263661Y-80124592D01*
X129368607Y-80162767D01*
X129491443Y-80187034D01*
X129635321Y-80195645D01*
X129755854Y-80195645D01*
G37*
D13*
G36*
X151487960Y-106166200D02*
G01*
X151487960Y-104626248D01*
X151269607Y-104626248D01*
X151269607Y-104830557D01*
X151213554Y-104830557D01*
X151266799Y-104878185D01*
X151258377Y-104798794D01*
X151234443Y-104732526D01*
X151195480Y-104676562D01*
X151143382Y-104633404D01*
X151081370Y-104607303D01*
X151006436Y-104598160D01*
X150921726Y-104609750D01*
X150852001Y-104643043D01*
X150793578Y-104699033D01*
X150751324Y-104770065D01*
X150724696Y-104856499D01*
X150715176Y-104962204D01*
X150790769Y-104816636D01*
X150673166Y-104816636D01*
X150737646Y-104878185D01*
X150727278Y-104795211D01*
X150701801Y-104728196D01*
X150662053Y-104673754D01*
X150609211Y-104632344D01*
X150545839Y-104607063D01*
X150468857Y-104598160D01*
X150375179Y-104610855D01*
X150297608Y-104647377D01*
X150232186Y-104708802D01*
X150184519Y-104786925D01*
X150154649Y-104881223D01*
X150144014Y-104995788D01*
X150144014Y-106166200D01*
X150379220Y-106166200D01*
X150379220Y-104992979D01*
X150391216Y-104907552D01*
X150424039Y-104846067D01*
X150476415Y-104805409D01*
X150547259Y-104791357D01*
X150615813Y-104804959D01*
X150667671Y-104844601D01*
X150700354Y-104904945D01*
X150712367Y-104990170D01*
X150712367Y-106166200D01*
X150919607Y-106166200D01*
X150919607Y-104992979D01*
X150931603Y-104907552D01*
X150964426Y-104846067D01*
X151016410Y-104805276D01*
X151084838Y-104791357D01*
X151155809Y-104805089D01*
X151208058Y-104844601D01*
X151240741Y-104904945D01*
X151252755Y-104990170D01*
X151252755Y-106166200D01*
X151487960Y-106166200D01*
G37*
G36*
X149663955Y-106166200D02*
G01*
X149663955Y-104626248D01*
X149412018Y-104626248D01*
X149412018Y-104920195D01*
X149358773Y-104920195D01*
X149412018Y-104987361D01*
X149398872Y-104872661D01*
X149361773Y-104779568D01*
X149301376Y-104703185D01*
X149221638Y-104646627D01*
X149121363Y-104611001D01*
X148994729Y-104598160D01*
X148875568Y-104608162D01*
X148776340Y-104636286D01*
X148693301Y-104680965D01*
X148623725Y-104742386D01*
X148569359Y-104817538D01*
X148528823Y-104908659D01*
X148502861Y-105018990D01*
X148493543Y-105152592D01*
X148493543Y-105284239D01*
X148745602Y-105284239D01*
X148745602Y-105152592D01*
X148756327Y-105041780D01*
X148785201Y-104959624D01*
X148829621Y-104899190D01*
X148890531Y-104855089D01*
X148969869Y-104826925D01*
X149073131Y-104816636D01*
X149179207Y-104828309D01*
X149261364Y-104860550D01*
X149325190Y-104911890D01*
X149371381Y-104980376D01*
X149401118Y-105069770D01*
X149412018Y-105186175D01*
X149412018Y-106166200D01*
X149663955Y-106166200D01*
G37*
G36*
X148159175Y-106166200D02*
G01*
X147613170Y-105373754D01*
X148125469Y-104626248D01*
X147828714Y-104626248D01*
X147523533Y-105102156D01*
X147485675Y-105169444D01*
X147456366Y-105228185D01*
X147429743Y-105169444D01*
X147391886Y-105102156D01*
X147086704Y-104626248D01*
X146789949Y-104626248D01*
X147302371Y-105376562D01*
X146759175Y-106166200D01*
X147055930Y-106166200D01*
X147386268Y-105662204D01*
X147424126Y-105590885D01*
X147456366Y-105524940D01*
X147488484Y-105590885D01*
X147531959Y-105662204D01*
X147862297Y-106166200D01*
X148159175Y-106166200D01*
G37*
G36*
X145769503Y-106194165D02*
G01*
X145898664Y-106185871D01*
X146012246Y-106162152D01*
X146112542Y-106124190D01*
X146203949Y-106069868D01*
X146278954Y-106002524D01*
X146339321Y-105921224D01*
X146382765Y-105829506D01*
X146409675Y-105725343D01*
X146419066Y-105606151D01*
X146167130Y-105606151D01*
X146154148Y-105715151D01*
X146117587Y-105802637D01*
X146057953Y-105873597D01*
X145980000Y-105925950D01*
X145885344Y-105958581D01*
X145769503Y-105970195D01*
X145657788Y-105958148D01*
X145566910Y-105924240D01*
X145492287Y-105869444D01*
X145435406Y-105796498D01*
X145400842Y-105710055D01*
X145388728Y-105606151D01*
X145396322Y-105526235D01*
X145418328Y-105455498D01*
X145454551Y-105392072D01*
X145503759Y-105338565D01*
X145565918Y-105297085D01*
X145643473Y-105267386D01*
X145954272Y-105180557D01*
X146076174Y-105132280D01*
X146176395Y-105065725D01*
X146258110Y-104980400D01*
X146319078Y-104879442D01*
X146355938Y-104767067D01*
X146368630Y-104640170D01*
X146360154Y-104533897D01*
X146335680Y-104439407D01*
X146295846Y-104354650D01*
X146240989Y-104278788D01*
X146173345Y-104215124D01*
X146091537Y-104162798D01*
X146001453Y-104125316D01*
X145901254Y-104102183D01*
X145789042Y-104094165D01*
X145675016Y-104102203D01*
X145573492Y-104125357D01*
X145482517Y-104162798D01*
X145399495Y-104215017D01*
X145330423Y-104278229D01*
X145273934Y-104353185D01*
X145232445Y-104437215D01*
X145207091Y-104530324D01*
X145198341Y-104634553D01*
X145450277Y-104634553D01*
X145461276Y-104545420D01*
X145492895Y-104470496D01*
X145545532Y-104406430D01*
X145613533Y-104358146D01*
X145693586Y-104328616D01*
X145789042Y-104318258D01*
X145884516Y-104328678D01*
X145963638Y-104358249D01*
X146029988Y-104406430D01*
X146080878Y-104470280D01*
X146111597Y-104545209D01*
X146122311Y-104634553D01*
X146115308Y-104707260D01*
X146095138Y-104770579D01*
X146062106Y-104826405D01*
X146017418Y-104873399D01*
X145961628Y-104910223D01*
X145892723Y-104937047D01*
X145573498Y-105026562D01*
X145444956Y-105076202D01*
X145340250Y-105146474D01*
X145255738Y-105238077D01*
X145193377Y-105346479D01*
X145155415Y-105468059D01*
X145142287Y-105606151D01*
X145151363Y-105723590D01*
X145177374Y-105826406D01*
X145219346Y-105917072D01*
X145277528Y-105997917D01*
X145349788Y-106065716D01*
X145437699Y-106121381D01*
X145534486Y-106160907D01*
X145644291Y-106185549D01*
X145769503Y-106194165D01*
G37*
G36*
X144603487Y-106166200D02*
G01*
X144855424Y-104626248D01*
X144637071Y-104626248D01*
X144480267Y-105712641D01*
X144463536Y-105848440D01*
X144452301Y-105970195D01*
X144439722Y-105848440D01*
X144421404Y-105712641D01*
X144228208Y-104626248D01*
X143976272Y-104626248D01*
X143783076Y-105712641D01*
X143762071Y-105848440D01*
X143749492Y-105970195D01*
X143735448Y-105848440D01*
X143718595Y-105712641D01*
X143556296Y-104626248D01*
X143349056Y-104626248D01*
X143612228Y-106166200D01*
X143889443Y-106166200D01*
X144065909Y-105102156D01*
X144086914Y-104935582D01*
X144102301Y-104799783D01*
X144110727Y-104882459D01*
X144124649Y-104991636D01*
X144141502Y-105102156D01*
X144326272Y-106166200D01*
X144603487Y-106166200D01*
G37*
G36*
X143025801Y-106166200D02*
G01*
X143025801Y-105936611D01*
X142479796Y-105936611D01*
X142479796Y-104855837D01*
X142969869Y-104855837D01*
X142969869Y-104626248D01*
X142227859Y-104626248D01*
X142227859Y-105936611D01*
X141709820Y-105936611D01*
X141709820Y-106166200D01*
X143025801Y-106166200D01*
G37*
G36*
X142381732Y-104349033D02*
G01*
X142466809Y-104336314D01*
X142527423Y-104301405D01*
X142566811Y-104246473D01*
X142580546Y-104172567D01*
X142566736Y-104096000D01*
X142527423Y-104039577D01*
X142466692Y-104003643D01*
X142381732Y-103990606D01*
X142296899Y-104003642D01*
X142236286Y-104039577D01*
X142196878Y-104096011D01*
X142183041Y-104172567D01*
X142196803Y-104246462D01*
X142236286Y-104301405D01*
X142296782Y-104336314D01*
X142381732Y-104349033D01*
G37*
G36*
X140591432Y-106166200D02*
G01*
X140713934Y-106153014D01*
X140814025Y-106115837D01*
X140896614Y-106055680D01*
X140959386Y-105975430D01*
X140997831Y-105878536D01*
X141011408Y-105760146D01*
X141011408Y-104855837D01*
X141453732Y-104855837D01*
X141453732Y-104626248D01*
X141011408Y-104626248D01*
X141011408Y-104192229D01*
X140759349Y-104192229D01*
X140759349Y-104626248D01*
X140129325Y-104626248D01*
X140129325Y-104855837D01*
X140759349Y-104855837D01*
X140759349Y-105760146D01*
X140747353Y-105832463D01*
X140713187Y-105887641D01*
X140660587Y-105923995D01*
X140591432Y-105936611D01*
X140143369Y-105936611D01*
X140143369Y-106166200D01*
X140591432Y-106166200D01*
G37*
G36*
X139044520Y-106194165D02*
G01*
X139166074Y-106185900D01*
X139273128Y-106162221D01*
X139367898Y-106124190D01*
X139453834Y-106070252D01*
X139525265Y-106002983D01*
X139583564Y-105921224D01*
X139625418Y-105829675D01*
X139651415Y-105725498D01*
X139660501Y-105606151D01*
X139660501Y-105186175D01*
X139651343Y-105065021D01*
X139625282Y-104960526D01*
X139583564Y-104869881D01*
X139525349Y-104788964D01*
X139453929Y-104722118D01*
X139367898Y-104668258D01*
X139273121Y-104630158D01*
X139166068Y-104606440D01*
X139044520Y-104598160D01*
X138912281Y-104607950D01*
X138798516Y-104635765D01*
X138700151Y-104680182D01*
X138614775Y-104741042D01*
X138543422Y-104817737D01*
X138491212Y-104906525D01*
X138457302Y-105009631D01*
X138442584Y-105130243D01*
X138694520Y-105130243D01*
X138710470Y-105035513D01*
X138744316Y-104960878D01*
X138795392Y-104901999D01*
X138861201Y-104859071D01*
X138942826Y-104831987D01*
X139044520Y-104822253D01*
X139150987Y-104833483D01*
X139237774Y-104865083D01*
X139309157Y-104916042D01*
X139362805Y-104984600D01*
X139396431Y-105071848D01*
X139408564Y-105183366D01*
X139408564Y-105606151D01*
X139396463Y-105717784D01*
X139362856Y-105805612D01*
X139309157Y-105875062D01*
X139237674Y-105926805D01*
X139150888Y-105958827D01*
X139044520Y-105970195D01*
X138942936Y-105960306D01*
X138861311Y-105932754D01*
X138795392Y-105888984D01*
X138744109Y-105829293D01*
X138710342Y-105755010D01*
X138694520Y-105662204D01*
X138442584Y-105662204D01*
X138457302Y-105782817D01*
X138491212Y-105885922D01*
X138543422Y-105974711D01*
X138614775Y-106051405D01*
X138700143Y-106112209D01*
X138798506Y-106156589D01*
X138912274Y-106184383D01*
X139044520Y-106194165D01*
G37*
G36*
X137970951Y-106166200D02*
G01*
X137970951Y-104122253D01*
X137718892Y-104122253D01*
X137718892Y-104626248D01*
X137718892Y-104920195D01*
X137665647Y-104920195D01*
X137718892Y-104979057D01*
X137705689Y-104862417D01*
X137668900Y-104770490D01*
X137609715Y-104697567D01*
X137531364Y-104644188D01*
X137432487Y-104610380D01*
X137307343Y-104598160D01*
X137192793Y-104607845D01*
X137094917Y-104635386D01*
X137010662Y-104679646D01*
X136937803Y-104741042D01*
X136879459Y-104816125D01*
X136836836Y-104904207D01*
X136810029Y-105007812D01*
X136800539Y-105130243D01*
X136800539Y-106166200D01*
X137052475Y-106166200D01*
X137052475Y-105172253D01*
X137063448Y-105059742D01*
X137093567Y-104972486D01*
X137140769Y-104904807D01*
X137204981Y-104853609D01*
X137283376Y-104822165D01*
X137380127Y-104811018D01*
X137480400Y-104822668D01*
X137561538Y-104855531D01*
X137627912Y-104909082D01*
X137676592Y-104979619D01*
X137707612Y-105070078D01*
X137718892Y-105186175D01*
X137718892Y-106166200D01*
X137970951Y-106166200D01*
G37*
G36*
X134205214Y-106166200D02*
G01*
X134731680Y-104122253D01*
X134474004Y-104122253D01*
X134124004Y-105513827D01*
X134063798Y-105782616D01*
X134028871Y-105970195D01*
X133991013Y-105781273D01*
X133927999Y-105511018D01*
X133592043Y-104122253D01*
X133331680Y-104122253D01*
X133860832Y-106166200D01*
X134205214Y-106166200D01*
G37*
G36*
X132952371Y-106166200D02*
G01*
X132952371Y-105933802D01*
X132272032Y-105205837D01*
X132139193Y-105049127D01*
X132062106Y-104925812D01*
X132015249Y-104801616D01*
X132000434Y-104684989D01*
X132012021Y-104576841D01*
X132044566Y-104489241D01*
X132097032Y-104417665D01*
X132167115Y-104363518D01*
X132252840Y-104330121D01*
X132358739Y-104318258D01*
X132468354Y-104330481D01*
X132556858Y-104364844D01*
X132628993Y-104420474D01*
X132682949Y-104494098D01*
X132716458Y-104584440D01*
X132728400Y-104696224D01*
X132980337Y-104696224D01*
X132967975Y-104575156D01*
X132939695Y-104469083D01*
X132896439Y-104375655D01*
X132837353Y-104291783D01*
X132765890Y-104222671D01*
X132680895Y-104167072D01*
X132586820Y-104127440D01*
X132480219Y-104102780D01*
X132358739Y-104094165D01*
X132233539Y-104102868D01*
X132125260Y-104127612D01*
X132031209Y-104167072D01*
X131946126Y-104222623D01*
X131875621Y-104290850D01*
X131818351Y-104372846D01*
X131777251Y-104464313D01*
X131751695Y-104568458D01*
X131742758Y-104687798D01*
X131751026Y-104783217D01*
X131776893Y-104885332D01*
X131822625Y-104995788D01*
X131882534Y-105099593D01*
X131971410Y-105220041D01*
X132095567Y-105359832D01*
X132647189Y-105936611D01*
X131717601Y-105936611D01*
X131717601Y-106166200D01*
X132952371Y-106166200D01*
G37*
G36*
X130674806Y-106194165D02*
G01*
X130741347Y-106186860D01*
X130795998Y-106166198D01*
X130841380Y-106132616D01*
X130876046Y-106088070D01*
X130897052Y-106035642D01*
X130904394Y-105973003D01*
X130896972Y-105906536D01*
X130875871Y-105851401D01*
X130841380Y-105805086D01*
X130795780Y-105769781D01*
X130741132Y-105748206D01*
X130674806Y-105740606D01*
X130608402Y-105748212D01*
X130553760Y-105769792D01*
X130508233Y-105805086D01*
X130473741Y-105851401D01*
X130452641Y-105906536D01*
X130445218Y-105973003D01*
X130452560Y-106035642D01*
X130473566Y-106088070D01*
X130508233Y-106132616D01*
X130553542Y-106166188D01*
X130608186Y-106186855D01*
X130674806Y-106194165D01*
G37*
G36*
X129066228Y-104989743D02*
G01*
X129118124Y-105019601D01*
X129152105Y-105067325D01*
X129164286Y-105135739D01*
X129152042Y-105206844D01*
X129118124Y-105256151D01*
X129066107Y-105287132D01*
X128996369Y-105298160D01*
X128926632Y-105287132D01*
X128874614Y-105256151D01*
X128840603Y-105206833D01*
X128828330Y-105135739D01*
X128840539Y-105067336D01*
X128874614Y-105019601D01*
X128926510Y-104989743D01*
X128996369Y-104979057D01*
X129066228Y-104989743D01*
G37*
G36*
X129119598Y-104102947D02*
G01*
X129227514Y-104128069D01*
X129322556Y-104168415D01*
X129408432Y-104224916D01*
X129479372Y-104294079D01*
X129536757Y-104376999D01*
X129577814Y-104469433D01*
X129603393Y-104574981D01*
X129612350Y-104696224D01*
X129612350Y-105592229D01*
X129603462Y-105711584D01*
X129577947Y-105816728D01*
X129536757Y-105909989D01*
X129479293Y-105993762D01*
X129408341Y-106063391D01*
X129322556Y-106120038D01*
X129227521Y-106160315D01*
X129119605Y-106185397D01*
X128996369Y-106194165D01*
X128873052Y-106185393D01*
X128765140Y-106160308D01*
X128670183Y-106120038D01*
X128584397Y-106063391D01*
X128513446Y-105993762D01*
X128455982Y-105909989D01*
X128414723Y-105816721D01*
X128389168Y-105711578D01*
X128380267Y-105592229D01*
X128380267Y-104696224D01*
X128623899Y-104696224D01*
X128623899Y-105592229D01*
X128635930Y-105701969D01*
X128670170Y-105793492D01*
X128726115Y-105870788D01*
X128800324Y-105929969D01*
X128888984Y-105965971D01*
X128996369Y-105978621D01*
X129103673Y-105965975D01*
X129192295Y-105929975D01*
X129266502Y-105870788D01*
X129322447Y-105793492D01*
X129356687Y-105701969D01*
X129368718Y-105592229D01*
X129368718Y-104696224D01*
X129356681Y-104586405D01*
X129322437Y-104494888D01*
X129266502Y-104417665D01*
X129192295Y-104358478D01*
X129103673Y-104322478D01*
X128996369Y-104309832D01*
X128888984Y-104322481D01*
X128800324Y-104358484D01*
X128726115Y-104417665D01*
X128670180Y-104494888D01*
X128635935Y-104586405D01*
X128623899Y-104696224D01*
X128380267Y-104696224D01*
X128389237Y-104574988D01*
X128414856Y-104469440D01*
X128455982Y-104376999D01*
X128513288Y-104293979D01*
X128583769Y-104224827D01*
X128668718Y-104168415D01*
X128762850Y-104128206D01*
X128871161Y-104103019D01*
X128996369Y-104094165D01*
X129119598Y-104102947D01*
G37*
D15*
%TO.C,REF\u002A\u002A*%
X133767128Y-114733945D02*
X133797954Y-114743568D01*
X133835916Y-114759563D01*
X133854296Y-114768159D01*
X133867561Y-114769713D01*
X133870495Y-114757798D01*
X133870498Y-114757461D01*
X133876709Y-114746087D01*
X133898131Y-114740256D01*
X133939653Y-114738614D01*
X134008812Y-114738614D01*
X134008812Y-115342179D01*
X133870495Y-115342179D01*
X133870495Y-114926027D01*
X133836110Y-114894161D01*
X133825368Y-114885104D01*
X133793370Y-114869630D01*
X133753965Y-114869010D01*
X133700312Y-114882664D01*
X133682225Y-114883529D01*
X133661008Y-114870283D01*
X133632768Y-114838800D01*
X133619069Y-114821385D01*
X133602868Y-114796797D01*
X133600371Y-114781145D01*
X133609442Y-114767941D01*
X133637289Y-114751245D01*
X133680540Y-114738030D01*
X133727464Y-114731478D01*
X133767128Y-114733945D01*
G36*
X133767128Y-114733945D02*
G01*
X133797954Y-114743568D01*
X133835916Y-114759563D01*
X133854296Y-114768159D01*
X133867561Y-114769713D01*
X133870495Y-114757798D01*
X133870498Y-114757461D01*
X133876709Y-114746087D01*
X133898131Y-114740256D01*
X133939653Y-114738614D01*
X134008812Y-114738614D01*
X134008812Y-115342179D01*
X133870495Y-115342179D01*
X133870495Y-114926027D01*
X133836110Y-114894161D01*
X133825368Y-114885104D01*
X133793370Y-114869630D01*
X133753965Y-114869010D01*
X133700312Y-114882664D01*
X133682225Y-114883529D01*
X133661008Y-114870283D01*
X133632768Y-114838800D01*
X133619069Y-114821385D01*
X133602868Y-114796797D01*
X133600371Y-114781145D01*
X133609442Y-114767941D01*
X133637289Y-114751245D01*
X133680540Y-114738030D01*
X133727464Y-114731478D01*
X133767128Y-114733945D01*
G37*
X133950265Y-115689965D02*
X133988255Y-115707745D01*
X134021386Y-115733806D01*
X134021386Y-115707745D01*
X134022211Y-115697849D01*
X134029893Y-115687358D01*
X134050667Y-115682725D01*
X134090544Y-115681683D01*
X134159703Y-115681683D01*
X134159703Y-116297822D01*
X134021386Y-116297822D01*
X134021386Y-116097226D01*
X134021369Y-116085710D01*
X134020189Y-116004758D01*
X134017294Y-115938817D01*
X134012888Y-115891258D01*
X134007181Y-115865452D01*
X134001940Y-115855710D01*
X133969676Y-115825156D01*
X133925730Y-115811631D01*
X133877743Y-115817941D01*
X133865973Y-115822217D01*
X133840898Y-115829776D01*
X133823762Y-115827428D01*
X133806518Y-115812064D01*
X133781124Y-115780571D01*
X133739936Y-115728568D01*
X133768886Y-115705125D01*
X133796405Y-115691015D01*
X133844745Y-115681486D01*
X133899230Y-115681174D01*
X133950265Y-115689965D01*
G36*
X133950265Y-115689965D02*
G01*
X133988255Y-115707745D01*
X134021386Y-115733806D01*
X134021386Y-115707745D01*
X134022211Y-115697849D01*
X134029893Y-115687358D01*
X134050667Y-115682725D01*
X134090544Y-115681683D01*
X134159703Y-115681683D01*
X134159703Y-116297822D01*
X134021386Y-116297822D01*
X134021386Y-116097226D01*
X134021369Y-116085710D01*
X134020189Y-116004758D01*
X134017294Y-115938817D01*
X134012888Y-115891258D01*
X134007181Y-115865452D01*
X134001940Y-115855710D01*
X133969676Y-115825156D01*
X133925730Y-115811631D01*
X133877743Y-115817941D01*
X133865973Y-115822217D01*
X133840898Y-115829776D01*
X133823762Y-115827428D01*
X133806518Y-115812064D01*
X133781124Y-115780571D01*
X133739936Y-115728568D01*
X133768886Y-115705125D01*
X133796405Y-115691015D01*
X133844745Y-115681486D01*
X133899230Y-115681174D01*
X133950265Y-115689965D01*
G37*
X136573960Y-116297822D02*
X136448218Y-116297822D01*
X136448218Y-116103740D01*
X136448078Y-116058594D01*
X136446649Y-115983823D01*
X136443029Y-115928467D01*
X136436434Y-115888702D01*
X136426079Y-115860700D01*
X136411178Y-115840635D01*
X136390946Y-115824681D01*
X136368859Y-115812792D01*
X136342705Y-115809421D01*
X136305508Y-115816917D01*
X136293555Y-115820038D01*
X136263718Y-115824735D01*
X136242383Y-115818005D01*
X136217655Y-115797177D01*
X136212963Y-115792647D01*
X136187020Y-115764626D01*
X136170291Y-115741843D01*
X136167996Y-115736355D01*
X136172543Y-115716088D01*
X136195602Y-115699884D01*
X136231995Y-115688513D01*
X136276544Y-115682740D01*
X136324072Y-115683334D01*
X136369400Y-115691063D01*
X136407351Y-115706694D01*
X136419381Y-115713993D01*
X136439632Y-115724676D01*
X136447129Y-115722230D01*
X136448218Y-115706647D01*
X136448473Y-115701053D01*
X136454539Y-115688660D01*
X136473356Y-115683020D01*
X136511089Y-115681683D01*
X136573960Y-115681683D01*
X136573960Y-116297822D01*
G36*
X136573960Y-116297822D02*
G01*
X136448218Y-116297822D01*
X136448218Y-116103740D01*
X136448078Y-116058594D01*
X136446649Y-115983823D01*
X136443029Y-115928467D01*
X136436434Y-115888702D01*
X136426079Y-115860700D01*
X136411178Y-115840635D01*
X136390946Y-115824681D01*
X136368859Y-115812792D01*
X136342705Y-115809421D01*
X136305508Y-115816917D01*
X136293555Y-115820038D01*
X136263718Y-115824735D01*
X136242383Y-115818005D01*
X136217655Y-115797177D01*
X136212963Y-115792647D01*
X136187020Y-115764626D01*
X136170291Y-115741843D01*
X136167996Y-115736355D01*
X136172543Y-115716088D01*
X136195602Y-115699884D01*
X136231995Y-115688513D01*
X136276544Y-115682740D01*
X136324072Y-115683334D01*
X136369400Y-115691063D01*
X136407351Y-115706694D01*
X136419381Y-115713993D01*
X136439632Y-115724676D01*
X136447129Y-115722230D01*
X136448218Y-115706647D01*
X136448473Y-115701053D01*
X136454539Y-115688660D01*
X136473356Y-115683020D01*
X136511089Y-115681683D01*
X136573960Y-115681683D01*
X136573960Y-116297822D01*
G37*
X134260297Y-114934342D02*
X134261357Y-115022394D01*
X134265509Y-115093510D01*
X134273921Y-115145199D01*
X134287757Y-115180360D01*
X134308182Y-115201889D01*
X134336364Y-115212682D01*
X134373465Y-115215636D01*
X134408890Y-115213000D01*
X134437500Y-115202679D01*
X134458296Y-115181772D01*
X134472442Y-115147381D01*
X134481103Y-115096610D01*
X134485445Y-115026563D01*
X134486633Y-114934342D01*
X134486633Y-114738614D01*
X134612376Y-114738614D01*
X134612376Y-114974578D01*
X134612160Y-115037561D01*
X134610484Y-115119007D01*
X134606277Y-115181121D01*
X134598521Y-115227458D01*
X134586196Y-115261573D01*
X134568285Y-115287022D01*
X134543767Y-115307362D01*
X134511623Y-115326147D01*
X134444125Y-115349928D01*
X134373681Y-115351480D01*
X134307264Y-115329580D01*
X134278286Y-115315383D01*
X134263909Y-115313261D01*
X134260297Y-115323293D01*
X134254299Y-115334556D01*
X134232830Y-115340489D01*
X134191138Y-115342179D01*
X134121980Y-115342179D01*
X134121980Y-114738614D01*
X134260297Y-114738614D01*
X134260297Y-114934342D01*
G36*
X134260297Y-114934342D02*
G01*
X134261357Y-115022394D01*
X134265509Y-115093510D01*
X134273921Y-115145199D01*
X134287757Y-115180360D01*
X134308182Y-115201889D01*
X134336364Y-115212682D01*
X134373465Y-115215636D01*
X134408890Y-115213000D01*
X134437500Y-115202679D01*
X134458296Y-115181772D01*
X134472442Y-115147381D01*
X134481103Y-115096610D01*
X134485445Y-115026563D01*
X134486633Y-114934342D01*
X134486633Y-114738614D01*
X134612376Y-114738614D01*
X134612376Y-114974578D01*
X134612160Y-115037561D01*
X134610484Y-115119007D01*
X134606277Y-115181121D01*
X134598521Y-115227458D01*
X134586196Y-115261573D01*
X134568285Y-115287022D01*
X134543767Y-115307362D01*
X134511623Y-115326147D01*
X134444125Y-115349928D01*
X134373681Y-115351480D01*
X134307264Y-115329580D01*
X134278286Y-115315383D01*
X134263909Y-115313261D01*
X134260297Y-115323293D01*
X134254299Y-115334556D01*
X134232830Y-115340489D01*
X134191138Y-115342179D01*
X134121980Y-115342179D01*
X134121980Y-114738614D01*
X134260297Y-114738614D01*
X134260297Y-114934342D01*
G37*
X136362605Y-114737424D02*
X136419926Y-114755434D01*
X136445199Y-114767674D01*
X136457910Y-114768938D01*
X136460792Y-114757798D01*
X136460795Y-114757461D01*
X136467006Y-114746087D01*
X136488428Y-114740256D01*
X136529950Y-114738614D01*
X136599109Y-114738614D01*
X136599109Y-115342179D01*
X136460792Y-115342179D01*
X136460792Y-115134132D01*
X136460697Y-115063879D01*
X136460051Y-115006170D01*
X136458320Y-114965787D01*
X136454974Y-114938615D01*
X136449481Y-114920540D01*
X136441310Y-114907447D01*
X136429928Y-114895221D01*
X136414424Y-114882217D01*
X136369843Y-114864745D01*
X136323047Y-114869873D01*
X136280180Y-114897507D01*
X136267927Y-114910368D01*
X136259132Y-114923384D01*
X136253233Y-114940706D01*
X136249651Y-114966501D01*
X136247809Y-115004939D01*
X136247128Y-115060189D01*
X136247030Y-115136418D01*
X136247030Y-115342179D01*
X136108713Y-115342179D01*
X136108989Y-115118985D01*
X136109008Y-115109044D01*
X136110207Y-115014106D01*
X136113891Y-114940358D01*
X136121006Y-114884214D01*
X136132500Y-114842087D01*
X136149318Y-114810391D01*
X136172409Y-114785541D01*
X136202717Y-114763950D01*
X136234012Y-114749002D01*
X136297037Y-114735421D01*
X136362605Y-114737424D01*
G36*
X136362605Y-114737424D02*
G01*
X136419926Y-114755434D01*
X136445199Y-114767674D01*
X136457910Y-114768938D01*
X136460792Y-114757798D01*
X136460795Y-114757461D01*
X136467006Y-114746087D01*
X136488428Y-114740256D01*
X136529950Y-114738614D01*
X136599109Y-114738614D01*
X136599109Y-115342179D01*
X136460792Y-115342179D01*
X136460792Y-115134132D01*
X136460697Y-115063879D01*
X136460051Y-115006170D01*
X136458320Y-114965787D01*
X136454974Y-114938615D01*
X136449481Y-114920540D01*
X136441310Y-114907447D01*
X136429928Y-114895221D01*
X136414424Y-114882217D01*
X136369843Y-114864745D01*
X136323047Y-114869873D01*
X136280180Y-114897507D01*
X136267927Y-114910368D01*
X136259132Y-114923384D01*
X136253233Y-114940706D01*
X136249651Y-114966501D01*
X136247809Y-115004939D01*
X136247128Y-115060189D01*
X136247030Y-115136418D01*
X136247030Y-115342179D01*
X136108713Y-115342179D01*
X136108989Y-115118985D01*
X136109008Y-115109044D01*
X136110207Y-115014106D01*
X136113891Y-114940358D01*
X136121006Y-114884214D01*
X136132500Y-114842087D01*
X136149318Y-114810391D01*
X136172409Y-114785541D01*
X136202717Y-114763950D01*
X136234012Y-114749002D01*
X136297037Y-114735421D01*
X136362605Y-114737424D01*
G37*
X133413409Y-114741493D02*
X133482021Y-114768224D01*
X133540048Y-114812351D01*
X133582907Y-114872958D01*
X133585801Y-114879137D01*
X133604176Y-114939409D01*
X133613357Y-115011407D01*
X133613285Y-115086369D01*
X133603901Y-115155536D01*
X133585149Y-115210149D01*
X133561995Y-115248212D01*
X133511030Y-115302135D01*
X133447306Y-115336411D01*
X133392785Y-115350272D01*
X133309767Y-115351785D01*
X133230326Y-115330882D01*
X133159879Y-115288464D01*
X133114284Y-115250880D01*
X133155351Y-115208510D01*
X133181296Y-115183409D01*
X133204764Y-115169434D01*
X133226524Y-115172511D01*
X133254356Y-115191287D01*
X133265454Y-115198638D01*
X133312337Y-115213683D01*
X133366224Y-115213673D01*
X133416675Y-115198168D01*
X133435672Y-115185716D01*
X133463537Y-115148946D01*
X133477506Y-115094939D01*
X133478405Y-115021331D01*
X133478403Y-115021289D01*
X133468009Y-114955433D01*
X133445114Y-114909772D01*
X133407439Y-114881528D01*
X133352708Y-114867920D01*
X133318241Y-114866090D01*
X133288126Y-114873584D01*
X133257240Y-114895295D01*
X133217272Y-114928926D01*
X133166656Y-114888250D01*
X133148163Y-114872667D01*
X133125065Y-114850340D01*
X133116039Y-114837183D01*
X133119236Y-114831253D01*
X133137646Y-114813048D01*
X133166973Y-114789895D01*
X133189920Y-114774830D01*
X133262774Y-114743880D01*
X133338799Y-114733073D01*
X133413409Y-114741493D01*
G36*
X133413409Y-114741493D02*
G01*
X133482021Y-114768224D01*
X133540048Y-114812351D01*
X133582907Y-114872958D01*
X133585801Y-114879137D01*
X133604176Y-114939409D01*
X133613357Y-115011407D01*
X133613285Y-115086369D01*
X133603901Y-115155536D01*
X133585149Y-115210149D01*
X133561995Y-115248212D01*
X133511030Y-115302135D01*
X133447306Y-115336411D01*
X133392785Y-115350272D01*
X133309767Y-115351785D01*
X133230326Y-115330882D01*
X133159879Y-115288464D01*
X133114284Y-115250880D01*
X133155351Y-115208510D01*
X133181296Y-115183409D01*
X133204764Y-115169434D01*
X133226524Y-115172511D01*
X133254356Y-115191287D01*
X133265454Y-115198638D01*
X133312337Y-115213683D01*
X133366224Y-115213673D01*
X133416675Y-115198168D01*
X133435672Y-115185716D01*
X133463537Y-115148946D01*
X133477506Y-115094939D01*
X133478405Y-115021331D01*
X133478403Y-115021289D01*
X133468009Y-114955433D01*
X133445114Y-114909772D01*
X133407439Y-114881528D01*
X133352708Y-114867920D01*
X133318241Y-114866090D01*
X133288126Y-114873584D01*
X133257240Y-114895295D01*
X133217272Y-114928926D01*
X133166656Y-114888250D01*
X133148163Y-114872667D01*
X133125065Y-114850340D01*
X133116039Y-114837183D01*
X133119236Y-114831253D01*
X133137646Y-114813048D01*
X133166973Y-114789895D01*
X133189920Y-114774830D01*
X133262774Y-114743880D01*
X133338799Y-114733073D01*
X133413409Y-114741493D01*
G37*
X135212857Y-115083771D02*
X135209349Y-115123565D01*
X135193844Y-115199538D01*
X135166110Y-115257511D01*
X135123898Y-115301300D01*
X135064960Y-115334722D01*
X135042076Y-115342676D01*
X134982812Y-115352601D01*
X134920447Y-115352331D01*
X134867823Y-115341430D01*
X134866789Y-115341034D01*
X134824381Y-115316087D01*
X134781537Y-115277468D01*
X134745986Y-115233306D01*
X134725459Y-115191727D01*
X134719374Y-115161334D01*
X134714164Y-115104429D01*
X134713291Y-115053705D01*
X134839976Y-115053705D01*
X134847549Y-115114545D01*
X134865341Y-115164538D01*
X134892296Y-115197204D01*
X134902513Y-115202812D01*
X134941473Y-115213007D01*
X134986536Y-115215104D01*
X135024448Y-115208020D01*
X135039244Y-115197861D01*
X135060014Y-115162334D01*
X135073083Y-115106732D01*
X135077624Y-115033766D01*
X135077551Y-115012762D01*
X135075974Y-114970203D01*
X135070728Y-114942439D01*
X135059723Y-114921925D01*
X135040868Y-114901112D01*
X135004989Y-114875887D01*
X134958280Y-114865573D01*
X134913151Y-114875396D01*
X134875680Y-114903805D01*
X134851943Y-114949253D01*
X134843675Y-114988497D01*
X134839976Y-115053705D01*
X134713291Y-115053705D01*
X134713049Y-115039621D01*
X134715844Y-114975116D01*
X134722366Y-114919121D01*
X134732432Y-114879842D01*
X134755877Y-114835372D01*
X134805637Y-114780692D01*
X134869238Y-114746055D01*
X134944790Y-114732345D01*
X135030399Y-114740448D01*
X135044644Y-114743899D01*
X135110982Y-114773664D01*
X135160971Y-114822530D01*
X135194612Y-114890501D01*
X135211906Y-114977580D01*
X135212410Y-115033766D01*
X135212857Y-115083771D01*
G36*
X135212857Y-115083771D02*
G01*
X135209349Y-115123565D01*
X135193844Y-115199538D01*
X135166110Y-115257511D01*
X135123898Y-115301300D01*
X135064960Y-115334722D01*
X135042076Y-115342676D01*
X134982812Y-115352601D01*
X134920447Y-115352331D01*
X134867823Y-115341430D01*
X134866789Y-115341034D01*
X134824381Y-115316087D01*
X134781537Y-115277468D01*
X134745986Y-115233306D01*
X134725459Y-115191727D01*
X134719374Y-115161334D01*
X134714164Y-115104429D01*
X134713291Y-115053705D01*
X134839976Y-115053705D01*
X134847549Y-115114545D01*
X134865341Y-115164538D01*
X134892296Y-115197204D01*
X134902513Y-115202812D01*
X134941473Y-115213007D01*
X134986536Y-115215104D01*
X135024448Y-115208020D01*
X135039244Y-115197861D01*
X135060014Y-115162334D01*
X135073083Y-115106732D01*
X135077624Y-115033766D01*
X135077551Y-115012762D01*
X135075974Y-114970203D01*
X135070728Y-114942439D01*
X135059723Y-114921925D01*
X135040868Y-114901112D01*
X135004989Y-114875887D01*
X134958280Y-114865573D01*
X134913151Y-114875396D01*
X134875680Y-114903805D01*
X134851943Y-114949253D01*
X134843675Y-114988497D01*
X134839976Y-115053705D01*
X134713291Y-115053705D01*
X134713049Y-115039621D01*
X134715844Y-114975116D01*
X134722366Y-114919121D01*
X134732432Y-114879842D01*
X134755877Y-114835372D01*
X134805637Y-114780692D01*
X134869238Y-114746055D01*
X134944790Y-114732345D01*
X135030399Y-114740448D01*
X135044644Y-114743899D01*
X135110982Y-114773664D01*
X135160971Y-114822530D01*
X135194612Y-114890501D01*
X135211906Y-114977580D01*
X135212410Y-115033766D01*
X135212857Y-115083771D01*
G37*
X135312997Y-115879130D02*
X135329997Y-115929850D01*
X135350107Y-115985997D01*
X135366899Y-116028532D01*
X135378986Y-116053990D01*
X135384980Y-116058903D01*
X135386426Y-116054630D01*
X135394254Y-116028422D01*
X135406723Y-115984649D01*
X135422447Y-115928211D01*
X135440043Y-115864010D01*
X135487914Y-115687971D01*
X135561007Y-115684152D01*
X135567177Y-115683846D01*
X135606592Y-115683441D01*
X135625533Y-115687487D01*
X135627945Y-115696726D01*
X135624898Y-115705749D01*
X135614874Y-115736632D01*
X135599180Y-115785544D01*
X135578934Y-115848987D01*
X135555256Y-115923462D01*
X135529263Y-116005471D01*
X135436736Y-116297822D01*
X135320993Y-116297822D01*
X135266457Y-116112352D01*
X135256386Y-116078294D01*
X135237775Y-116016378D01*
X135221872Y-115964787D01*
X135210109Y-115928130D01*
X135203918Y-115911018D01*
X135202154Y-115909741D01*
X135193571Y-115920779D01*
X135181316Y-115949969D01*
X135167426Y-115992750D01*
X135166692Y-115995263D01*
X135148096Y-116058400D01*
X135126818Y-116129889D01*
X135107321Y-116194734D01*
X135075705Y-116299122D01*
X135017402Y-116295328D01*
X134959098Y-116291535D01*
X134905098Y-116121782D01*
X134881390Y-116047193D01*
X134854833Y-115963539D01*
X134829404Y-115883342D01*
X134808354Y-115816857D01*
X134765609Y-115681683D01*
X134908612Y-115681683D01*
X134943274Y-115810570D01*
X134952488Y-115844625D01*
X134969915Y-115908115D01*
X134986054Y-115965874D01*
X134998322Y-116008614D01*
X135018709Y-116077773D01*
X135148745Y-115687971D01*
X135198476Y-115684237D01*
X135248206Y-115680504D01*
X135312997Y-115879130D01*
G36*
X135312997Y-115879130D02*
G01*
X135329997Y-115929850D01*
X135350107Y-115985997D01*
X135366899Y-116028532D01*
X135378986Y-116053990D01*
X135384980Y-116058903D01*
X135386426Y-116054630D01*
X135394254Y-116028422D01*
X135406723Y-115984649D01*
X135422447Y-115928211D01*
X135440043Y-115864010D01*
X135487914Y-115687971D01*
X135561007Y-115684152D01*
X135567177Y-115683846D01*
X135606592Y-115683441D01*
X135625533Y-115687487D01*
X135627945Y-115696726D01*
X135624898Y-115705749D01*
X135614874Y-115736632D01*
X135599180Y-115785544D01*
X135578934Y-115848987D01*
X135555256Y-115923462D01*
X135529263Y-116005471D01*
X135436736Y-116297822D01*
X135320993Y-116297822D01*
X135266457Y-116112352D01*
X135256386Y-116078294D01*
X135237775Y-116016378D01*
X135221872Y-115964787D01*
X135210109Y-115928130D01*
X135203918Y-115911018D01*
X135202154Y-115909741D01*
X135193571Y-115920779D01*
X135181316Y-115949969D01*
X135167426Y-115992750D01*
X135166692Y-115995263D01*
X135148096Y-116058400D01*
X135126818Y-116129889D01*
X135107321Y-116194734D01*
X135075705Y-116299122D01*
X135017402Y-116295328D01*
X134959098Y-116291535D01*
X134905098Y-116121782D01*
X134881390Y-116047193D01*
X134854833Y-115963539D01*
X134829404Y-115883342D01*
X134808354Y-115816857D01*
X134765609Y-115681683D01*
X134908612Y-115681683D01*
X134943274Y-115810570D01*
X134952488Y-115844625D01*
X134969915Y-115908115D01*
X134986054Y-115965874D01*
X134998322Y-116008614D01*
X135018709Y-116077773D01*
X135148745Y-115687971D01*
X135198476Y-115684237D01*
X135248206Y-115680504D01*
X135312997Y-115879130D01*
G37*
X136170761Y-116036813D02*
X136169167Y-116090571D01*
X136165962Y-116128018D01*
X136165413Y-116131450D01*
X136143838Y-116192835D01*
X136104438Y-116244877D01*
X136052752Y-116280135D01*
X135997248Y-116294729D01*
X135928977Y-116293597D01*
X135866173Y-116274029D01*
X135849815Y-116265771D01*
X135828779Y-116256923D01*
X135820774Y-116259676D01*
X135819505Y-116274029D01*
X135818922Y-116281186D01*
X135811394Y-116291772D01*
X135790488Y-116296645D01*
X135750346Y-116297822D01*
X135681188Y-116297822D01*
X135681188Y-115995930D01*
X135819505Y-115995930D01*
X135820496Y-116048230D01*
X135824519Y-116083050D01*
X135833108Y-116106905D01*
X135847797Y-116126895D01*
X135886584Y-116156618D01*
X135931974Y-116166582D01*
X135975989Y-116154260D01*
X136013060Y-116119888D01*
X136022859Y-116094735D01*
X136030097Y-116050194D01*
X136033279Y-115996155D01*
X136032277Y-115940728D01*
X136026961Y-115892022D01*
X136017204Y-115858148D01*
X136014087Y-115852593D01*
X135984038Y-115824674D01*
X135943315Y-115812306D01*
X135899579Y-115815183D01*
X135860491Y-115833000D01*
X135833710Y-115865452D01*
X135832603Y-115868181D01*
X135825963Y-115898634D01*
X135821278Y-115944139D01*
X135819505Y-115995930D01*
X135681188Y-115995930D01*
X135681188Y-115442773D01*
X135819505Y-115442773D01*
X135819505Y-115735878D01*
X135845124Y-115712693D01*
X135869792Y-115698282D01*
X135916480Y-115686236D01*
X135971056Y-115682354D01*
X136024354Y-115687120D01*
X136067207Y-115701014D01*
X136097878Y-115720779D01*
X136129471Y-115754449D01*
X136150733Y-115799730D01*
X136163514Y-115860981D01*
X136169664Y-115942563D01*
X136170568Y-115975540D01*
X136170633Y-115996155D01*
X136170761Y-116036813D01*
G36*
X136170761Y-116036813D02*
G01*
X136169167Y-116090571D01*
X136165962Y-116128018D01*
X136165413Y-116131450D01*
X136143838Y-116192835D01*
X136104438Y-116244877D01*
X136052752Y-116280135D01*
X135997248Y-116294729D01*
X135928977Y-116293597D01*
X135866173Y-116274029D01*
X135849815Y-116265771D01*
X135828779Y-116256923D01*
X135820774Y-116259676D01*
X135819505Y-116274029D01*
X135818922Y-116281186D01*
X135811394Y-116291772D01*
X135790488Y-116296645D01*
X135750346Y-116297822D01*
X135681188Y-116297822D01*
X135681188Y-115995930D01*
X135819505Y-115995930D01*
X135820496Y-116048230D01*
X135824519Y-116083050D01*
X135833108Y-116106905D01*
X135847797Y-116126895D01*
X135886584Y-116156618D01*
X135931974Y-116166582D01*
X135975989Y-116154260D01*
X136013060Y-116119888D01*
X136022859Y-116094735D01*
X136030097Y-116050194D01*
X136033279Y-115996155D01*
X136032277Y-115940728D01*
X136026961Y-115892022D01*
X136017204Y-115858148D01*
X136014087Y-115852593D01*
X135984038Y-115824674D01*
X135943315Y-115812306D01*
X135899579Y-115815183D01*
X135860491Y-115833000D01*
X135833710Y-115865452D01*
X135832603Y-115868181D01*
X135825963Y-115898634D01*
X135821278Y-115944139D01*
X135819505Y-115995930D01*
X135681188Y-115995930D01*
X135681188Y-115442773D01*
X135819505Y-115442773D01*
X135819505Y-115735878D01*
X135845124Y-115712693D01*
X135869792Y-115698282D01*
X135916480Y-115686236D01*
X135971056Y-115682354D01*
X136024354Y-115687120D01*
X136067207Y-115701014D01*
X136097878Y-115720779D01*
X136129471Y-115754449D01*
X136150733Y-115799730D01*
X136163514Y-115860981D01*
X136169664Y-115942563D01*
X136170568Y-115975540D01*
X136170633Y-115996155D01*
X136170761Y-116036813D01*
G37*
X138344997Y-115074931D02*
X138343373Y-115114310D01*
X138339688Y-115162332D01*
X138333410Y-115196368D01*
X138323044Y-115223338D01*
X138307092Y-115250158D01*
X138306412Y-115251175D01*
X138267132Y-115294629D01*
X138219072Y-115327772D01*
X138163185Y-115347439D01*
X138089666Y-115353824D01*
X138017609Y-115341268D01*
X137953201Y-115311011D01*
X137902627Y-115264294D01*
X137888108Y-115242221D01*
X137860993Y-115173602D01*
X137847546Y-115088939D01*
X137847776Y-115067523D01*
X137982920Y-115067523D01*
X137983174Y-115107574D01*
X137987421Y-115134313D01*
X137997096Y-115154859D01*
X138013638Y-115176331D01*
X138036593Y-115197639D01*
X138082505Y-115216653D01*
X138131802Y-115213122D01*
X138178917Y-115186694D01*
X138192207Y-115174072D01*
X138206397Y-115152465D01*
X138214266Y-115122094D01*
X138218726Y-115074770D01*
X138219955Y-115039219D01*
X138213224Y-114966620D01*
X138192567Y-114914642D01*
X138157894Y-114882999D01*
X138117249Y-114867847D01*
X138068777Y-114869123D01*
X138023845Y-114894703D01*
X138013103Y-114904442D01*
X137999548Y-114921480D01*
X137991505Y-114943772D01*
X137987043Y-114977947D01*
X137984228Y-115030638D01*
X137982920Y-115067523D01*
X137847776Y-115067523D01*
X137848583Y-114992351D01*
X137849907Y-114978651D01*
X137868374Y-114890908D01*
X137902540Y-114822793D01*
X137952479Y-114774231D01*
X138018261Y-114745148D01*
X138099961Y-114735471D01*
X138130828Y-114736379D01*
X138194128Y-114747493D01*
X138245889Y-114774021D01*
X138294147Y-114819436D01*
X138301865Y-114828551D01*
X138322681Y-114859248D01*
X138336362Y-114894007D01*
X138343948Y-114938056D01*
X138346479Y-114996621D01*
X138345672Y-115039219D01*
X138344997Y-115074931D01*
G36*
X138344997Y-115074931D02*
G01*
X138343373Y-115114310D01*
X138339688Y-115162332D01*
X138333410Y-115196368D01*
X138323044Y-115223338D01*
X138307092Y-115250158D01*
X138306412Y-115251175D01*
X138267132Y-115294629D01*
X138219072Y-115327772D01*
X138163185Y-115347439D01*
X138089666Y-115353824D01*
X138017609Y-115341268D01*
X137953201Y-115311011D01*
X137902627Y-115264294D01*
X137888108Y-115242221D01*
X137860993Y-115173602D01*
X137847546Y-115088939D01*
X137847776Y-115067523D01*
X137982920Y-115067523D01*
X137983174Y-115107574D01*
X137987421Y-115134313D01*
X137997096Y-115154859D01*
X138013638Y-115176331D01*
X138036593Y-115197639D01*
X138082505Y-115216653D01*
X138131802Y-115213122D01*
X138178917Y-115186694D01*
X138192207Y-115174072D01*
X138206397Y-115152465D01*
X138214266Y-115122094D01*
X138218726Y-115074770D01*
X138219955Y-115039219D01*
X138213224Y-114966620D01*
X138192567Y-114914642D01*
X138157894Y-114882999D01*
X138117249Y-114867847D01*
X138068777Y-114869123D01*
X138023845Y-114894703D01*
X138013103Y-114904442D01*
X137999548Y-114921480D01*
X137991505Y-114943772D01*
X137987043Y-114977947D01*
X137984228Y-115030638D01*
X137982920Y-115067523D01*
X137847776Y-115067523D01*
X137848583Y-114992351D01*
X137849907Y-114978651D01*
X137868374Y-114890908D01*
X137902540Y-114822793D01*
X137952479Y-114774231D01*
X138018261Y-114745148D01*
X138099961Y-114735471D01*
X138130828Y-114736379D01*
X138194128Y-114747493D01*
X138245889Y-114774021D01*
X138294147Y-114819436D01*
X138301865Y-114828551D01*
X138322681Y-114859248D01*
X138336362Y-114894007D01*
X138343948Y-114938056D01*
X138346479Y-114996621D01*
X138345672Y-115039219D01*
X138344997Y-115074931D01*
G37*
X133099444Y-114999878D02*
X133097825Y-115096121D01*
X133097615Y-115098014D01*
X133079535Y-115186325D01*
X133046870Y-115254986D01*
X132998601Y-115305506D01*
X132933713Y-115339393D01*
X132921801Y-115343268D01*
X132847971Y-115354688D01*
X132771614Y-115348320D01*
X132700626Y-115325563D01*
X132642904Y-115287819D01*
X132599667Y-115247872D01*
X132645625Y-115211532D01*
X132691583Y-115175193D01*
X132746969Y-115202101D01*
X132811056Y-115223905D01*
X132867632Y-115224558D01*
X132913920Y-115204525D01*
X132947230Y-115164315D01*
X132959171Y-115140222D01*
X132965837Y-115119630D01*
X132961980Y-115105720D01*
X132944675Y-115097181D01*
X132910997Y-115092704D01*
X132858021Y-115090978D01*
X132782822Y-115090693D01*
X132600495Y-115090693D01*
X132600495Y-115003492D01*
X132601857Y-114965210D01*
X132730234Y-114965210D01*
X132736399Y-114972251D01*
X132754654Y-114975916D01*
X132789352Y-114977306D01*
X132844846Y-114977525D01*
X132874603Y-114977176D01*
X132921562Y-114974867D01*
X132953416Y-114970822D01*
X132965148Y-114965542D01*
X132962146Y-114946062D01*
X132940988Y-114908786D01*
X132905731Y-114878164D01*
X132863699Y-114859668D01*
X132822220Y-114858773D01*
X132790997Y-114873604D01*
X132755618Y-114907355D01*
X132733122Y-114949233D01*
X132731805Y-114953690D01*
X132730234Y-114965210D01*
X132601857Y-114965210D01*
X132602136Y-114957371D01*
X132606955Y-114911740D01*
X132613840Y-114880893D01*
X132618859Y-114869117D01*
X132655390Y-114816667D01*
X132708175Y-114772921D01*
X132769904Y-114744279D01*
X132802102Y-114736457D01*
X132878820Y-114732896D01*
X132947179Y-114751009D01*
X133005299Y-114788779D01*
X133051302Y-114844191D01*
X133083310Y-114915229D01*
X133092900Y-114965542D01*
X133099444Y-114999878D01*
G36*
X133099444Y-114999878D02*
G01*
X133097825Y-115096121D01*
X133097615Y-115098014D01*
X133079535Y-115186325D01*
X133046870Y-115254986D01*
X132998601Y-115305506D01*
X132933713Y-115339393D01*
X132921801Y-115343268D01*
X132847971Y-115354688D01*
X132771614Y-115348320D01*
X132700626Y-115325563D01*
X132642904Y-115287819D01*
X132599667Y-115247872D01*
X132645625Y-115211532D01*
X132691583Y-115175193D01*
X132746969Y-115202101D01*
X132811056Y-115223905D01*
X132867632Y-115224558D01*
X132913920Y-115204525D01*
X132947230Y-115164315D01*
X132959171Y-115140222D01*
X132965837Y-115119630D01*
X132961980Y-115105720D01*
X132944675Y-115097181D01*
X132910997Y-115092704D01*
X132858021Y-115090978D01*
X132782822Y-115090693D01*
X132600495Y-115090693D01*
X132600495Y-115003492D01*
X132601857Y-114965210D01*
X132730234Y-114965210D01*
X132736399Y-114972251D01*
X132754654Y-114975916D01*
X132789352Y-114977306D01*
X132844846Y-114977525D01*
X132874603Y-114977176D01*
X132921562Y-114974867D01*
X132953416Y-114970822D01*
X132965148Y-114965542D01*
X132962146Y-114946062D01*
X132940988Y-114908786D01*
X132905731Y-114878164D01*
X132863699Y-114859668D01*
X132822220Y-114858773D01*
X132790997Y-114873604D01*
X132755618Y-114907355D01*
X132733122Y-114949233D01*
X132731805Y-114953690D01*
X132730234Y-114965210D01*
X132601857Y-114965210D01*
X132602136Y-114957371D01*
X132606955Y-114911740D01*
X132613840Y-114880893D01*
X132618859Y-114869117D01*
X132655390Y-114816667D01*
X132708175Y-114772921D01*
X132769904Y-114744279D01*
X132802102Y-114736457D01*
X132878820Y-114732896D01*
X132947179Y-114751009D01*
X133005299Y-114788779D01*
X133051302Y-114844191D01*
X133083310Y-114915229D01*
X133092900Y-114965542D01*
X133099444Y-114999878D01*
G37*
X135578874Y-114738207D02*
X135651495Y-114756408D01*
X135704546Y-114790144D01*
X135738329Y-114839642D01*
X135753147Y-114905126D01*
X135750147Y-114967820D01*
X135728493Y-115020699D01*
X135686967Y-115059796D01*
X135624736Y-115085873D01*
X135540969Y-115099695D01*
X135486540Y-115106940D01*
X135436860Y-115122615D01*
X135411211Y-115145314D01*
X135409662Y-115174998D01*
X135419984Y-115193507D01*
X135451951Y-115215443D01*
X135497395Y-115225818D01*
X135550649Y-115224399D01*
X135606048Y-115210952D01*
X135657928Y-115185243D01*
X135709653Y-115151013D01*
X135755148Y-115197049D01*
X135800643Y-115243084D01*
X135762921Y-115273876D01*
X135748253Y-115284574D01*
X135706983Y-115308880D01*
X135662327Y-115329825D01*
X135626984Y-115341845D01*
X135575234Y-115350552D01*
X135511435Y-115350667D01*
X135433200Y-115341081D01*
X135362722Y-115316783D01*
X135312836Y-115278188D01*
X135283423Y-115225198D01*
X135274365Y-115157718D01*
X135280921Y-115098354D01*
X135301970Y-115049752D01*
X135339864Y-115014946D01*
X135397004Y-114991798D01*
X135475785Y-114978170D01*
X135484834Y-114977183D01*
X135533885Y-114970892D01*
X135573675Y-114964309D01*
X135596312Y-114958708D01*
X135603866Y-114954197D01*
X135616637Y-114930941D01*
X135614563Y-114901171D01*
X135597495Y-114875327D01*
X135588533Y-114869691D01*
X135551188Y-114860660D01*
X135502950Y-114861267D01*
X135452650Y-114870878D01*
X135409115Y-114888858D01*
X135363372Y-114915847D01*
X135327890Y-114874384D01*
X135319280Y-114863850D01*
X135299883Y-114835632D01*
X135291897Y-114816508D01*
X135300283Y-114804781D01*
X135326226Y-114786476D01*
X135363688Y-114766777D01*
X135368966Y-114764370D01*
X135418366Y-114745482D01*
X135465983Y-114736452D01*
X135525072Y-114734639D01*
X135578874Y-114738207D01*
G36*
X135578874Y-114738207D02*
G01*
X135651495Y-114756408D01*
X135704546Y-114790144D01*
X135738329Y-114839642D01*
X135753147Y-114905126D01*
X135750147Y-114967820D01*
X135728493Y-115020699D01*
X135686967Y-115059796D01*
X135624736Y-115085873D01*
X135540969Y-115099695D01*
X135486540Y-115106940D01*
X135436860Y-115122615D01*
X135411211Y-115145314D01*
X135409662Y-115174998D01*
X135419984Y-115193507D01*
X135451951Y-115215443D01*
X135497395Y-115225818D01*
X135550649Y-115224399D01*
X135606048Y-115210952D01*
X135657928Y-115185243D01*
X135709653Y-115151013D01*
X135755148Y-115197049D01*
X135800643Y-115243084D01*
X135762921Y-115273876D01*
X135748253Y-115284574D01*
X135706983Y-115308880D01*
X135662327Y-115329825D01*
X135626984Y-115341845D01*
X135575234Y-115350552D01*
X135511435Y-115350667D01*
X135433200Y-115341081D01*
X135362722Y-115316783D01*
X135312836Y-115278188D01*
X135283423Y-115225198D01*
X135274365Y-115157718D01*
X135280921Y-115098354D01*
X135301970Y-115049752D01*
X135339864Y-115014946D01*
X135397004Y-114991798D01*
X135475785Y-114978170D01*
X135484834Y-114977183D01*
X135533885Y-114970892D01*
X135573675Y-114964309D01*
X135596312Y-114958708D01*
X135603866Y-114954197D01*
X135616637Y-114930941D01*
X135614563Y-114901171D01*
X135597495Y-114875327D01*
X135588533Y-114869691D01*
X135551188Y-114860660D01*
X135502950Y-114861267D01*
X135452650Y-114870878D01*
X135409115Y-114888858D01*
X135363372Y-114915847D01*
X135327890Y-114874384D01*
X135319280Y-114863850D01*
X135299883Y-114835632D01*
X135291897Y-114816508D01*
X135300283Y-114804781D01*
X135326226Y-114786476D01*
X135363688Y-114766777D01*
X135368966Y-114764370D01*
X135418366Y-114745482D01*
X135465983Y-114736452D01*
X135525072Y-114734639D01*
X135578874Y-114738207D01*
G37*
X133744353Y-115989753D02*
X133742718Y-116036692D01*
X133727827Y-116126459D01*
X133697185Y-116197045D01*
X133650524Y-116248952D01*
X133587574Y-116282686D01*
X133567235Y-116288647D01*
X133494612Y-116296971D01*
X133417928Y-116289946D01*
X133348663Y-116268265D01*
X133324262Y-116255959D01*
X133289275Y-116234879D01*
X133268072Y-116217534D01*
X133264942Y-116213571D01*
X133259085Y-116199077D01*
X133267524Y-116183321D01*
X133293221Y-116159460D01*
X133305622Y-116149072D01*
X133330052Y-116130063D01*
X133342861Y-116122293D01*
X133346530Y-116123094D01*
X133367561Y-116131745D01*
X133398960Y-116146931D01*
X133409197Y-116151926D01*
X133469590Y-116170475D01*
X133522057Y-116165694D01*
X133568065Y-116137500D01*
X133573419Y-116132291D01*
X133599013Y-116099659D01*
X133613637Y-116068342D01*
X133621736Y-116033763D01*
X133241782Y-116033763D01*
X133241852Y-115967748D01*
X133241892Y-115961182D01*
X133247022Y-115908218D01*
X133380099Y-115908218D01*
X133381670Y-115919203D01*
X133389738Y-115926773D01*
X133408967Y-115930975D01*
X133444019Y-115932783D01*
X133499554Y-115933169D01*
X133530429Y-115932768D01*
X133576002Y-115930429D01*
X133607348Y-115926465D01*
X133619010Y-115921413D01*
X133609064Y-115879827D01*
X133579947Y-115841013D01*
X133537952Y-115814086D01*
X133489440Y-115804772D01*
X133453723Y-115815272D01*
X133418020Y-115840940D01*
X133390879Y-115874381D01*
X133380099Y-115908218D01*
X133247022Y-115908218D01*
X133249758Y-115879965D01*
X133272655Y-115813895D01*
X133312607Y-115756940D01*
X133336979Y-115732848D01*
X133387315Y-115700597D01*
X133447419Y-115684970D01*
X133523338Y-115683871D01*
X133560010Y-115688179D01*
X133627703Y-115710549D01*
X133679530Y-115751263D01*
X133715945Y-115810949D01*
X133737401Y-115890236D01*
X133739579Y-115921413D01*
X133744353Y-115989753D01*
G36*
X133744353Y-115989753D02*
G01*
X133742718Y-116036692D01*
X133727827Y-116126459D01*
X133697185Y-116197045D01*
X133650524Y-116248952D01*
X133587574Y-116282686D01*
X133567235Y-116288647D01*
X133494612Y-116296971D01*
X133417928Y-116289946D01*
X133348663Y-116268265D01*
X133324262Y-116255959D01*
X133289275Y-116234879D01*
X133268072Y-116217534D01*
X133264942Y-116213571D01*
X133259085Y-116199077D01*
X133267524Y-116183321D01*
X133293221Y-116159460D01*
X133305622Y-116149072D01*
X133330052Y-116130063D01*
X133342861Y-116122293D01*
X133346530Y-116123094D01*
X133367561Y-116131745D01*
X133398960Y-116146931D01*
X133409197Y-116151926D01*
X133469590Y-116170475D01*
X133522057Y-116165694D01*
X133568065Y-116137500D01*
X133573419Y-116132291D01*
X133599013Y-116099659D01*
X133613637Y-116068342D01*
X133621736Y-116033763D01*
X133241782Y-116033763D01*
X133241852Y-115967748D01*
X133241892Y-115961182D01*
X133247022Y-115908218D01*
X133380099Y-115908218D01*
X133381670Y-115919203D01*
X133389738Y-115926773D01*
X133408967Y-115930975D01*
X133444019Y-115932783D01*
X133499554Y-115933169D01*
X133530429Y-115932768D01*
X133576002Y-115930429D01*
X133607348Y-115926465D01*
X133619010Y-115921413D01*
X133609064Y-115879827D01*
X133579947Y-115841013D01*
X133537952Y-115814086D01*
X133489440Y-115804772D01*
X133453723Y-115815272D01*
X133418020Y-115840940D01*
X133390879Y-115874381D01*
X133380099Y-115908218D01*
X133247022Y-115908218D01*
X133249758Y-115879965D01*
X133272655Y-115813895D01*
X133312607Y-115756940D01*
X133336979Y-115732848D01*
X133387315Y-115700597D01*
X133447419Y-115684970D01*
X133523338Y-115683871D01*
X133560010Y-115688179D01*
X133627703Y-115710549D01*
X133679530Y-115751263D01*
X133715945Y-115810949D01*
X133737401Y-115890236D01*
X133739579Y-115921413D01*
X133744353Y-115989753D01*
G37*
X137187022Y-114964861D02*
X137191421Y-115052936D01*
X137190322Y-115091371D01*
X137177926Y-115175367D01*
X137150608Y-115241595D01*
X137106941Y-115292784D01*
X137045495Y-115331663D01*
X136985888Y-115349812D01*
X136911110Y-115353284D01*
X136835664Y-115339930D01*
X136768366Y-115310425D01*
X136743428Y-115294012D01*
X136715951Y-115272973D01*
X136703414Y-115259129D01*
X136704124Y-115253417D01*
X136718158Y-115233955D01*
X136744533Y-115210376D01*
X136790240Y-115175513D01*
X136843799Y-115202262D01*
X136858282Y-115208882D01*
X136900916Y-115223273D01*
X136936649Y-115229010D01*
X136962998Y-115224282D01*
X137004347Y-115201514D01*
X137039104Y-115166170D01*
X137058983Y-115125273D01*
X137067083Y-115090693D01*
X136687129Y-115090693D01*
X136687199Y-115024679D01*
X136687774Y-115003757D01*
X136691972Y-114958862D01*
X136825445Y-114958862D01*
X136825690Y-114961434D01*
X136832604Y-114969443D01*
X136852141Y-114974364D01*
X136888467Y-114976843D01*
X136945748Y-114977525D01*
X136964575Y-114977517D01*
X137013470Y-114977065D01*
X137042863Y-114975113D01*
X137057115Y-114970558D01*
X137060582Y-114962299D01*
X137057625Y-114949233D01*
X137057173Y-114947752D01*
X137031699Y-114902285D01*
X136991539Y-114870981D01*
X136943651Y-114859327D01*
X136925949Y-114860259D01*
X136893094Y-114871408D01*
X136861575Y-114899763D01*
X136853085Y-114909789D01*
X136833336Y-114938423D01*
X136825445Y-114958862D01*
X136691972Y-114958862D01*
X136692512Y-114953091D01*
X136700459Y-114911166D01*
X136709168Y-114887696D01*
X136739790Y-114836646D01*
X136780799Y-114790283D01*
X136824168Y-114758514D01*
X136836699Y-114752614D01*
X136909661Y-114733046D01*
X136984168Y-114735109D01*
X137054217Y-114757931D01*
X137113807Y-114800639D01*
X137146038Y-114840025D01*
X137172392Y-114895510D01*
X137186482Y-114962299D01*
X137187022Y-114964861D01*
G36*
X137187022Y-114964861D02*
G01*
X137191421Y-115052936D01*
X137190322Y-115091371D01*
X137177926Y-115175367D01*
X137150608Y-115241595D01*
X137106941Y-115292784D01*
X137045495Y-115331663D01*
X136985888Y-115349812D01*
X136911110Y-115353284D01*
X136835664Y-115339930D01*
X136768366Y-115310425D01*
X136743428Y-115294012D01*
X136715951Y-115272973D01*
X136703414Y-115259129D01*
X136704124Y-115253417D01*
X136718158Y-115233955D01*
X136744533Y-115210376D01*
X136790240Y-115175513D01*
X136843799Y-115202262D01*
X136858282Y-115208882D01*
X136900916Y-115223273D01*
X136936649Y-115229010D01*
X136962998Y-115224282D01*
X137004347Y-115201514D01*
X137039104Y-115166170D01*
X137058983Y-115125273D01*
X137067083Y-115090693D01*
X136687129Y-115090693D01*
X136687199Y-115024679D01*
X136687774Y-115003757D01*
X136691972Y-114958862D01*
X136825445Y-114958862D01*
X136825690Y-114961434D01*
X136832604Y-114969443D01*
X136852141Y-114974364D01*
X136888467Y-114976843D01*
X136945748Y-114977525D01*
X136964575Y-114977517D01*
X137013470Y-114977065D01*
X137042863Y-114975113D01*
X137057115Y-114970558D01*
X137060582Y-114962299D01*
X137057625Y-114949233D01*
X137057173Y-114947752D01*
X137031699Y-114902285D01*
X136991539Y-114870981D01*
X136943651Y-114859327D01*
X136925949Y-114860259D01*
X136893094Y-114871408D01*
X136861575Y-114899763D01*
X136853085Y-114909789D01*
X136833336Y-114938423D01*
X136825445Y-114958862D01*
X136691972Y-114958862D01*
X136692512Y-114953091D01*
X136700459Y-114911166D01*
X136709168Y-114887696D01*
X136739790Y-114836646D01*
X136780799Y-114790283D01*
X136824168Y-114758514D01*
X136836699Y-114752614D01*
X136909661Y-114733046D01*
X136984168Y-114735109D01*
X137054217Y-114757931D01*
X137113807Y-114800639D01*
X137146038Y-114840025D01*
X137172392Y-114895510D01*
X137186482Y-114962299D01*
X137187022Y-114964861D01*
G37*
X134769413Y-116132333D02*
X134754244Y-116189419D01*
X134721277Y-116238255D01*
X134671270Y-116273386D01*
X134666362Y-116275521D01*
X134611646Y-116290903D01*
X134549993Y-116296899D01*
X134491376Y-116293233D01*
X134445767Y-116279629D01*
X134427549Y-116270754D01*
X134414179Y-116268637D01*
X134411188Y-116279706D01*
X134405524Y-116289942D01*
X134383607Y-116296038D01*
X134341068Y-116297822D01*
X134270948Y-116297822D01*
X134275053Y-116055768D01*
X134275492Y-116033763D01*
X134411188Y-116033763D01*
X134411188Y-116077773D01*
X134415924Y-116110666D01*
X134436336Y-116146931D01*
X134443871Y-116153597D01*
X134474753Y-116167620D01*
X134521213Y-116171228D01*
X134549090Y-116169819D01*
X134601255Y-116159204D01*
X134633587Y-116139425D01*
X134644492Y-116111824D01*
X134632374Y-116077743D01*
X134625304Y-116068824D01*
X134593724Y-116048818D01*
X134543744Y-116037395D01*
X134472487Y-116033763D01*
X134411188Y-116033763D01*
X134275492Y-116033763D01*
X134276169Y-115999794D01*
X134279106Y-115915996D01*
X134284058Y-115851920D01*
X134292002Y-115804073D01*
X134303917Y-115768962D01*
X134320780Y-115743093D01*
X134343572Y-115722974D01*
X134373269Y-115705110D01*
X134388589Y-115698290D01*
X134441589Y-115685417D01*
X134505513Y-115680095D01*
X134571602Y-115682227D01*
X134631099Y-115691714D01*
X134675247Y-115708461D01*
X134690604Y-115718185D01*
X134725960Y-115747005D01*
X134737926Y-115771137D01*
X134735020Y-115775800D01*
X134716909Y-115792088D01*
X134687672Y-115813817D01*
X134672725Y-115823987D01*
X134647270Y-115838397D01*
X134630728Y-115839773D01*
X134615370Y-115829827D01*
X134577094Y-115809684D01*
X134525590Y-115801400D01*
X134472957Y-115807742D01*
X134471961Y-115808030D01*
X134434838Y-115824158D01*
X134416463Y-115849405D01*
X134411380Y-115891158D01*
X134411188Y-115930879D01*
X134542423Y-115935168D01*
X134563331Y-115935873D01*
X134616043Y-115938326D01*
X134651381Y-115942180D01*
X134675267Y-115948878D01*
X134693624Y-115959864D01*
X134712376Y-115976580D01*
X134743337Y-116015244D01*
X134766029Y-116072456D01*
X134768254Y-116111824D01*
X134769413Y-116132333D01*
G36*
X134769413Y-116132333D02*
G01*
X134754244Y-116189419D01*
X134721277Y-116238255D01*
X134671270Y-116273386D01*
X134666362Y-116275521D01*
X134611646Y-116290903D01*
X134549993Y-116296899D01*
X134491376Y-116293233D01*
X134445767Y-116279629D01*
X134427549Y-116270754D01*
X134414179Y-116268637D01*
X134411188Y-116279706D01*
X134405524Y-116289942D01*
X134383607Y-116296038D01*
X134341068Y-116297822D01*
X134270948Y-116297822D01*
X134275053Y-116055768D01*
X134275492Y-116033763D01*
X134411188Y-116033763D01*
X134411188Y-116077773D01*
X134415924Y-116110666D01*
X134436336Y-116146931D01*
X134443871Y-116153597D01*
X134474753Y-116167620D01*
X134521213Y-116171228D01*
X134549090Y-116169819D01*
X134601255Y-116159204D01*
X134633587Y-116139425D01*
X134644492Y-116111824D01*
X134632374Y-116077743D01*
X134625304Y-116068824D01*
X134593724Y-116048818D01*
X134543744Y-116037395D01*
X134472487Y-116033763D01*
X134411188Y-116033763D01*
X134275492Y-116033763D01*
X134276169Y-115999794D01*
X134279106Y-115915996D01*
X134284058Y-115851920D01*
X134292002Y-115804073D01*
X134303917Y-115768962D01*
X134320780Y-115743093D01*
X134343572Y-115722974D01*
X134373269Y-115705110D01*
X134388589Y-115698290D01*
X134441589Y-115685417D01*
X134505513Y-115680095D01*
X134571602Y-115682227D01*
X134631099Y-115691714D01*
X134675247Y-115708461D01*
X134690604Y-115718185D01*
X134725960Y-115747005D01*
X134737926Y-115771137D01*
X134735020Y-115775800D01*
X134716909Y-115792088D01*
X134687672Y-115813817D01*
X134672725Y-115823987D01*
X134647270Y-115838397D01*
X134630728Y-115839773D01*
X134615370Y-115829827D01*
X134577094Y-115809684D01*
X134525590Y-115801400D01*
X134472957Y-115807742D01*
X134471961Y-115808030D01*
X134434838Y-115824158D01*
X134416463Y-115849405D01*
X134411380Y-115891158D01*
X134411188Y-115930879D01*
X134542423Y-115935168D01*
X134563331Y-115935873D01*
X134616043Y-115938326D01*
X134651381Y-115942180D01*
X134675267Y-115948878D01*
X134693624Y-115959864D01*
X134712376Y-115976580D01*
X134743337Y-116015244D01*
X134766029Y-116072456D01*
X134768254Y-116111824D01*
X134769413Y-116132333D01*
G37*
X137187299Y-116130223D02*
X137187157Y-116131882D01*
X137171835Y-116196479D01*
X137137753Y-116245063D01*
X137083218Y-116280072D01*
X137055036Y-116288589D01*
X137006764Y-116295228D01*
X136953978Y-116296813D01*
X136906353Y-116293160D01*
X136873566Y-116284083D01*
X136853652Y-116276813D01*
X136834155Y-116284083D01*
X136827023Y-116288295D01*
X136798557Y-116295126D01*
X136760059Y-116297822D01*
X136699703Y-116297822D01*
X136699703Y-116054484D01*
X136699707Y-116033763D01*
X136838020Y-116033763D01*
X136838020Y-116082111D01*
X136842668Y-116118904D01*
X136861015Y-116151269D01*
X136871514Y-116158274D01*
X136908988Y-116169191D01*
X136955773Y-116171917D01*
X137001652Y-116166379D01*
X137036410Y-116152505D01*
X137053726Y-116134161D01*
X137064356Y-116101566D01*
X137054929Y-116075729D01*
X137023764Y-116053263D01*
X136973667Y-116038850D01*
X136907582Y-116033763D01*
X136838020Y-116033763D01*
X136699707Y-116033763D01*
X136699707Y-116033440D01*
X136699937Y-115954122D01*
X136700797Y-115895154D01*
X136702679Y-115852616D01*
X136705974Y-115822592D01*
X136711073Y-115801163D01*
X136718366Y-115784411D01*
X136728246Y-115768419D01*
X136760023Y-115730948D01*
X136805055Y-115702339D01*
X136864210Y-115686555D01*
X136942161Y-115681703D01*
X136944695Y-115681708D01*
X136998880Y-115684155D01*
X137047380Y-115690256D01*
X137080478Y-115698809D01*
X137089552Y-115703096D01*
X137118433Y-115721248D01*
X137144568Y-115742822D01*
X137161764Y-115762236D01*
X137163825Y-115773909D01*
X137159803Y-115777063D01*
X137115976Y-115810739D01*
X137086671Y-115830600D01*
X137067294Y-115838613D01*
X137053253Y-115836746D01*
X137039957Y-115826965D01*
X137015418Y-115814756D01*
X136974064Y-115806615D01*
X136927326Y-115804503D01*
X136885034Y-115808800D01*
X136857017Y-115819887D01*
X136855543Y-115821236D01*
X136842953Y-115846581D01*
X136838020Y-115884411D01*
X136838020Y-115933169D01*
X136954331Y-115933216D01*
X137007760Y-115934061D01*
X137052735Y-115937740D01*
X137084907Y-115945309D01*
X137110899Y-115957808D01*
X137116948Y-115961647D01*
X137160710Y-116003845D01*
X137183987Y-116059647D01*
X137185955Y-116101566D01*
X137187299Y-116130223D01*
G36*
X137187299Y-116130223D02*
G01*
X137187157Y-116131882D01*
X137171835Y-116196479D01*
X137137753Y-116245063D01*
X137083218Y-116280072D01*
X137055036Y-116288589D01*
X137006764Y-116295228D01*
X136953978Y-116296813D01*
X136906353Y-116293160D01*
X136873566Y-116284083D01*
X136853652Y-116276813D01*
X136834155Y-116284083D01*
X136827023Y-116288295D01*
X136798557Y-116295126D01*
X136760059Y-116297822D01*
X136699703Y-116297822D01*
X136699703Y-116054484D01*
X136699707Y-116033763D01*
X136838020Y-116033763D01*
X136838020Y-116082111D01*
X136842668Y-116118904D01*
X136861015Y-116151269D01*
X136871514Y-116158274D01*
X136908988Y-116169191D01*
X136955773Y-116171917D01*
X137001652Y-116166379D01*
X137036410Y-116152505D01*
X137053726Y-116134161D01*
X137064356Y-116101566D01*
X137054929Y-116075729D01*
X137023764Y-116053263D01*
X136973667Y-116038850D01*
X136907582Y-116033763D01*
X136838020Y-116033763D01*
X136699707Y-116033763D01*
X136699707Y-116033440D01*
X136699937Y-115954122D01*
X136700797Y-115895154D01*
X136702679Y-115852616D01*
X136705974Y-115822592D01*
X136711073Y-115801163D01*
X136718366Y-115784411D01*
X136728246Y-115768419D01*
X136760023Y-115730948D01*
X136805055Y-115702339D01*
X136864210Y-115686555D01*
X136942161Y-115681703D01*
X136944695Y-115681708D01*
X136998880Y-115684155D01*
X137047380Y-115690256D01*
X137080478Y-115698809D01*
X137089552Y-115703096D01*
X137118433Y-115721248D01*
X137144568Y-115742822D01*
X137161764Y-115762236D01*
X137163825Y-115773909D01*
X137159803Y-115777063D01*
X137115976Y-115810739D01*
X137086671Y-115830600D01*
X137067294Y-115838613D01*
X137053253Y-115836746D01*
X137039957Y-115826965D01*
X137015418Y-115814756D01*
X136974064Y-115806615D01*
X136927326Y-115804503D01*
X136885034Y-115808800D01*
X136857017Y-115819887D01*
X136855543Y-115821236D01*
X136842953Y-115846581D01*
X136838020Y-115884411D01*
X136838020Y-115933169D01*
X136954331Y-115933216D01*
X137007760Y-115934061D01*
X137052735Y-115937740D01*
X137084907Y-115945309D01*
X137110899Y-115957808D01*
X137116948Y-115961647D01*
X137160710Y-116003845D01*
X137183987Y-116059647D01*
X137185955Y-116101566D01*
X137187299Y-116130223D01*
G37*
X137755940Y-116299136D02*
X137689926Y-116295336D01*
X137623911Y-116291535D01*
X137620772Y-116090347D01*
X137619844Y-116041425D01*
X137617208Y-115967926D01*
X137612683Y-115913991D01*
X137605438Y-115875995D01*
X137594642Y-115850313D01*
X137579462Y-115833320D01*
X137559066Y-115821389D01*
X137520797Y-115809205D01*
X137482738Y-115813940D01*
X137442549Y-115839979D01*
X137403861Y-115872533D01*
X137403861Y-116297822D01*
X137265544Y-116297822D01*
X137265544Y-116067176D01*
X137265677Y-115994882D01*
X137266413Y-115930641D01*
X137268181Y-115883618D01*
X137271411Y-115849548D01*
X137276530Y-115824170D01*
X137283967Y-115803221D01*
X137294150Y-115782436D01*
X137296564Y-115778024D01*
X137328675Y-115735047D01*
X137366256Y-115705013D01*
X137411564Y-115689243D01*
X137471561Y-115682222D01*
X137531643Y-115686025D01*
X137580525Y-115700868D01*
X137617624Y-115720052D01*
X137617624Y-115304859D01*
X137566792Y-115331354D01*
X137545558Y-115340980D01*
X137478536Y-115354592D01*
X137411930Y-115345184D01*
X137350187Y-115313905D01*
X137297757Y-115261902D01*
X137289543Y-115249680D01*
X137281649Y-115231763D01*
X137276500Y-115207404D01*
X137273527Y-115171927D01*
X137272161Y-115120656D01*
X137271915Y-115067236D01*
X137404749Y-115067236D01*
X137404861Y-115111849D01*
X137408272Y-115141601D01*
X137415937Y-115162835D01*
X137428814Y-115181896D01*
X137445171Y-115199617D01*
X137471329Y-115213028D01*
X137510742Y-115216436D01*
X137545559Y-115213471D01*
X137580020Y-115198631D01*
X137602215Y-115168569D01*
X137614097Y-115120254D01*
X137617624Y-115050650D01*
X137616712Y-115013624D01*
X137607609Y-114943728D01*
X137588828Y-114896464D01*
X137560476Y-114872168D01*
X137531840Y-114865332D01*
X137481970Y-114868537D01*
X137439833Y-114888380D01*
X137429749Y-114897480D01*
X137419063Y-114913223D01*
X137412456Y-114936658D01*
X137408532Y-114973604D01*
X137405897Y-115029880D01*
X137404749Y-115067236D01*
X137271915Y-115067236D01*
X137271831Y-115048917D01*
X137271944Y-115016184D01*
X137273872Y-114940044D01*
X137279240Y-114883166D01*
X137289406Y-114841249D01*
X137305725Y-114809996D01*
X137329553Y-114785106D01*
X137362247Y-114762282D01*
X137388759Y-114749184D01*
X137451615Y-114734739D01*
X137517869Y-114736707D01*
X137576757Y-114755433D01*
X137602030Y-114767673D01*
X137614742Y-114768938D01*
X137617624Y-114757798D01*
X137617626Y-114757461D01*
X137623838Y-114746087D01*
X137645260Y-114740256D01*
X137686782Y-114738614D01*
X137755940Y-114738614D01*
X137755940Y-115050650D01*
X137755940Y-116299136D01*
G36*
X137755940Y-116299136D02*
G01*
X137689926Y-116295336D01*
X137623911Y-116291535D01*
X137620772Y-116090347D01*
X137619844Y-116041425D01*
X137617208Y-115967926D01*
X137612683Y-115913991D01*
X137605438Y-115875995D01*
X137594642Y-115850313D01*
X137579462Y-115833320D01*
X137559066Y-115821389D01*
X137520797Y-115809205D01*
X137482738Y-115813940D01*
X137442549Y-115839979D01*
X137403861Y-115872533D01*
X137403861Y-116297822D01*
X137265544Y-116297822D01*
X137265544Y-116067176D01*
X137265677Y-115994882D01*
X137266413Y-115930641D01*
X137268181Y-115883618D01*
X137271411Y-115849548D01*
X137276530Y-115824170D01*
X137283967Y-115803221D01*
X137294150Y-115782436D01*
X137296564Y-115778024D01*
X137328675Y-115735047D01*
X137366256Y-115705013D01*
X137411564Y-115689243D01*
X137471561Y-115682222D01*
X137531643Y-115686025D01*
X137580525Y-115700868D01*
X137617624Y-115720052D01*
X137617624Y-115304859D01*
X137566792Y-115331354D01*
X137545558Y-115340980D01*
X137478536Y-115354592D01*
X137411930Y-115345184D01*
X137350187Y-115313905D01*
X137297757Y-115261902D01*
X137289543Y-115249680D01*
X137281649Y-115231763D01*
X137276500Y-115207404D01*
X137273527Y-115171927D01*
X137272161Y-115120656D01*
X137271915Y-115067236D01*
X137404749Y-115067236D01*
X137404861Y-115111849D01*
X137408272Y-115141601D01*
X137415937Y-115162835D01*
X137428814Y-115181896D01*
X137445171Y-115199617D01*
X137471329Y-115213028D01*
X137510742Y-115216436D01*
X137545559Y-115213471D01*
X137580020Y-115198631D01*
X137602215Y-115168569D01*
X137614097Y-115120254D01*
X137617624Y-115050650D01*
X137616712Y-115013624D01*
X137607609Y-114943728D01*
X137588828Y-114896464D01*
X137560476Y-114872168D01*
X137531840Y-114865332D01*
X137481970Y-114868537D01*
X137439833Y-114888380D01*
X137429749Y-114897480D01*
X137419063Y-114913223D01*
X137412456Y-114936658D01*
X137408532Y-114973604D01*
X137405897Y-115029880D01*
X137404749Y-115067236D01*
X137271915Y-115067236D01*
X137271831Y-115048917D01*
X137271944Y-115016184D01*
X137273872Y-114940044D01*
X137279240Y-114883166D01*
X137289406Y-114841249D01*
X137305725Y-114809996D01*
X137329553Y-114785106D01*
X137362247Y-114762282D01*
X137388759Y-114749184D01*
X137451615Y-114734739D01*
X137517869Y-114736707D01*
X137576757Y-114755433D01*
X137602030Y-114767673D01*
X137614742Y-114768938D01*
X137617624Y-114757798D01*
X137617626Y-114757461D01*
X137623838Y-114746087D01*
X137645260Y-114740256D01*
X137686782Y-114738614D01*
X137755940Y-114738614D01*
X137755940Y-115050650D01*
X137755940Y-116299136D01*
G37*
X135844389Y-110570018D02*
X135901237Y-110871570D01*
X136111001Y-110958041D01*
X136320764Y-111044512D01*
X136572410Y-110873395D01*
X136622216Y-110839661D01*
X136688244Y-110795381D01*
X136745410Y-110757561D01*
X136790744Y-110728142D01*
X136821280Y-110709067D01*
X136834046Y-110702278D01*
X136841887Y-110707106D01*
X136865325Y-110727339D01*
X136900794Y-110760543D01*
X136945289Y-110803670D01*
X136995805Y-110853670D01*
X137049336Y-110907495D01*
X137102877Y-110962095D01*
X137153423Y-111014423D01*
X137197968Y-111061428D01*
X137233507Y-111100063D01*
X137257034Y-111127278D01*
X137265544Y-111140024D01*
X137263565Y-111145500D01*
X137249857Y-111169927D01*
X137224825Y-111210129D01*
X137190499Y-111262952D01*
X137148907Y-111325247D01*
X137102079Y-111393862D01*
X137076380Y-111431283D01*
X137032173Y-111496432D01*
X136994272Y-111553289D01*
X136964698Y-111598770D01*
X136945472Y-111629793D01*
X136938614Y-111643274D01*
X136938726Y-111644021D01*
X136944776Y-111661110D01*
X136958654Y-111696006D01*
X136978427Y-111744151D01*
X137002160Y-111800986D01*
X137027918Y-111861953D01*
X137053766Y-111922492D01*
X137077771Y-111978047D01*
X137097998Y-112024057D01*
X137112511Y-112055965D01*
X137119377Y-112069212D01*
X137123439Y-112070387D01*
X137148121Y-112075687D01*
X137192111Y-112084467D01*
X137251887Y-112096040D01*
X137323929Y-112109721D01*
X137404716Y-112124823D01*
X137447294Y-112132830D01*
X137525445Y-112148107D01*
X137593775Y-112162215D01*
X137648551Y-112174345D01*
X137686037Y-112183686D01*
X137702500Y-112189427D01*
X137705457Y-112195119D01*
X137710362Y-112222930D01*
X137714216Y-112269250D01*
X137717021Y-112329720D01*
X137718781Y-112399983D01*
X137719499Y-112475680D01*
X137719177Y-112552453D01*
X137717819Y-112625944D01*
X137715428Y-112691794D01*
X137712006Y-112745645D01*
X137707556Y-112783138D01*
X137702082Y-112799916D01*
X137698760Y-112801809D01*
X137673987Y-112809926D01*
X137631011Y-112820666D01*
X137574802Y-112832853D01*
X137510325Y-112845310D01*
X137488570Y-112849277D01*
X137388093Y-112867729D01*
X137309126Y-112882559D01*
X137248934Y-112894380D01*
X137204778Y-112903809D01*
X137173920Y-112911460D01*
X137153625Y-112917948D01*
X137141154Y-112923888D01*
X137133771Y-112929894D01*
X137132913Y-112930902D01*
X137120838Y-112951919D01*
X137102971Y-112990376D01*
X137081042Y-113041761D01*
X137056784Y-113101563D01*
X137031927Y-113165270D01*
X137008205Y-113228371D01*
X136987347Y-113286355D01*
X136971087Y-113334709D01*
X136961156Y-113368922D01*
X136959285Y-113384483D01*
X136960536Y-113386502D01*
X136973486Y-113406028D01*
X136997840Y-113442042D01*
X137031340Y-113491228D01*
X137071727Y-113550267D01*
X137116745Y-113615842D01*
X137129100Y-113633884D01*
X137172545Y-113698599D01*
X137210091Y-113756476D01*
X137239594Y-113804082D01*
X137258914Y-113837985D01*
X137265905Y-113854752D01*
X137264398Y-113859161D01*
X137248695Y-113880882D01*
X137217714Y-113916354D01*
X137173673Y-113963188D01*
X137118790Y-114018996D01*
X137055286Y-114081392D01*
X137018988Y-114116317D01*
X136961595Y-114170711D01*
X136911361Y-114217302D01*
X136870984Y-114253636D01*
X136843161Y-114277261D01*
X136830590Y-114285724D01*
X136821952Y-114282587D01*
X136795360Y-114267747D01*
X136756741Y-114243477D01*
X136711134Y-114212852D01*
X136678707Y-114190503D01*
X136613970Y-114146122D01*
X136544886Y-114098987D01*
X136481787Y-114056155D01*
X136358178Y-113972547D01*
X136254417Y-114028650D01*
X136229984Y-114041599D01*
X136185552Y-114063749D01*
X136151191Y-114079041D01*
X136132828Y-114084743D01*
X136126818Y-114077421D01*
X136111895Y-114049541D01*
X136089852Y-114003575D01*
X136061917Y-113942441D01*
X136029317Y-113869055D01*
X135993276Y-113786335D01*
X135955023Y-113697197D01*
X135915783Y-113604559D01*
X135876783Y-113511337D01*
X135839249Y-113420450D01*
X135804409Y-113334814D01*
X135773488Y-113257345D01*
X135747714Y-113190962D01*
X135728311Y-113138582D01*
X135716508Y-113103121D01*
X135713531Y-113087496D01*
X135713732Y-113087039D01*
X135727601Y-113072595D01*
X135756611Y-113049974D01*
X135794772Y-113023864D01*
X135806817Y-113015892D01*
X135898469Y-112940256D01*
X135974323Y-112850169D01*
X136032581Y-112749381D01*
X136071448Y-112641640D01*
X136089128Y-112530697D01*
X136083826Y-112420303D01*
X136062347Y-112322115D01*
X136023782Y-112222966D01*
X135967562Y-112134512D01*
X135890410Y-112050487D01*
X135860095Y-112023645D01*
X135762094Y-111957510D01*
X135656227Y-111912970D01*
X135545561Y-111889625D01*
X135433164Y-111887078D01*
X135322105Y-111904929D01*
X135215451Y-111942780D01*
X135116270Y-112000232D01*
X135027631Y-112076887D01*
X134952600Y-112172345D01*
X134938175Y-112195985D01*
X134889143Y-112304034D01*
X134863103Y-112416548D01*
X134859372Y-112530614D01*
X134877268Y-112643318D01*
X134916109Y-112751745D01*
X134975214Y-112852982D01*
X135053900Y-112944114D01*
X135151485Y-113022228D01*
X135154654Y-113024333D01*
X135192411Y-113050940D01*
X135220709Y-113073561D01*
X135233634Y-113087496D01*
X135232003Y-113098421D01*
X135221864Y-113130231D01*
X135203884Y-113179534D01*
X135179292Y-113243413D01*
X135149311Y-113318948D01*
X135115170Y-113403223D01*
X135078092Y-113493320D01*
X135039306Y-113586321D01*
X135000036Y-113679308D01*
X134961509Y-113769364D01*
X134924950Y-113853571D01*
X134891586Y-113929010D01*
X134862643Y-113992765D01*
X134839346Y-114041917D01*
X134822923Y-114073549D01*
X134814598Y-114084743D01*
X134807674Y-114083227D01*
X134780477Y-114072331D01*
X134740280Y-114053228D01*
X134693009Y-114028650D01*
X134589248Y-113972547D01*
X134465639Y-114056155D01*
X134429120Y-114080913D01*
X134361194Y-114127171D01*
X134293475Y-114173503D01*
X134236291Y-114212852D01*
X134204732Y-114234297D01*
X134163714Y-114260939D01*
X134133301Y-114279178D01*
X134118446Y-114285941D01*
X134112065Y-114283070D01*
X134088996Y-114265485D01*
X134053433Y-114234523D01*
X134008471Y-114193231D01*
X133957206Y-114144653D01*
X133902733Y-114091835D01*
X133848148Y-114037823D01*
X133796547Y-113985661D01*
X133751024Y-113938396D01*
X133714675Y-113899072D01*
X133690595Y-113870736D01*
X133681881Y-113856432D01*
X133682383Y-113853711D01*
X133692755Y-113831560D01*
X133714912Y-113793235D01*
X133746712Y-113742200D01*
X133786016Y-113681914D01*
X133830681Y-113615842D01*
X133843207Y-113597617D01*
X133887193Y-113533485D01*
X133925937Y-113476789D01*
X133957182Y-113430844D01*
X133978669Y-113398970D01*
X133988140Y-113384483D01*
X133988373Y-113383862D01*
X133985578Y-113366139D01*
X133974903Y-113330235D01*
X133958081Y-113280662D01*
X133936843Y-113221932D01*
X133912921Y-113158556D01*
X133888046Y-113095046D01*
X133863950Y-113035913D01*
X133842365Y-112985669D01*
X133825023Y-112948826D01*
X133813655Y-112929894D01*
X133812516Y-112928719D01*
X133804376Y-112922773D01*
X133790629Y-112916776D01*
X133768537Y-112910114D01*
X133735363Y-112902173D01*
X133688370Y-112892337D01*
X133624820Y-112879991D01*
X133541976Y-112864520D01*
X133437100Y-112845310D01*
X133415348Y-112841267D01*
X133353036Y-112828769D01*
X133300619Y-112816927D01*
X133263066Y-112806917D01*
X133245343Y-112799916D01*
X133242378Y-112794075D01*
X133237435Y-112766016D01*
X133233518Y-112719500D01*
X133230629Y-112658886D01*
X133228773Y-112588532D01*
X133227952Y-112512796D01*
X133228168Y-112436037D01*
X133229426Y-112362612D01*
X133231728Y-112296880D01*
X133235076Y-112243200D01*
X133239474Y-112205930D01*
X133244926Y-112189427D01*
X133250491Y-112186989D01*
X133278178Y-112179305D01*
X133324979Y-112168436D01*
X133387157Y-112155192D01*
X133460979Y-112140384D01*
X133542710Y-112124823D01*
X133587336Y-112116509D01*
X133663824Y-112102092D01*
X133729660Y-112089467D01*
X133781323Y-112079321D01*
X133815293Y-112072341D01*
X133828048Y-112069212D01*
X133828528Y-112068568D01*
X133836651Y-112052181D01*
X133852137Y-112017852D01*
X133873050Y-111970136D01*
X133897455Y-111913586D01*
X133923416Y-111852758D01*
X133948997Y-111792206D01*
X133972262Y-111736485D01*
X133991277Y-111690150D01*
X134004105Y-111657755D01*
X134008812Y-111643855D01*
X134006736Y-111638965D01*
X133992920Y-111615692D01*
X133967860Y-111576519D01*
X133933568Y-111524520D01*
X133892059Y-111462768D01*
X133845346Y-111394336D01*
X133819718Y-111356860D01*
X133775490Y-111291156D01*
X133737570Y-111233492D01*
X133707980Y-111187014D01*
X133688743Y-111154865D01*
X133681881Y-111140190D01*
X133686649Y-111132230D01*
X133706593Y-111108446D01*
X133739313Y-111072451D01*
X133781805Y-111027295D01*
X133831065Y-110976028D01*
X133884091Y-110921701D01*
X133937877Y-110867364D01*
X133989421Y-110816067D01*
X134035720Y-110770859D01*
X134073769Y-110734792D01*
X134100565Y-110710914D01*
X134113105Y-110702278D01*
X134120066Y-110705636D01*
X134145627Y-110721210D01*
X134186874Y-110747715D01*
X134240837Y-110783210D01*
X134304542Y-110825750D01*
X134375016Y-110873395D01*
X134626662Y-111044512D01*
X135046188Y-110871570D01*
X135103036Y-110570018D01*
X135159885Y-110268466D01*
X135787540Y-110268466D01*
X135844389Y-110570018D01*
G36*
X135844389Y-110570018D02*
G01*
X135901237Y-110871570D01*
X136111001Y-110958041D01*
X136320764Y-111044512D01*
X136572410Y-110873395D01*
X136622216Y-110839661D01*
X136688244Y-110795381D01*
X136745410Y-110757561D01*
X136790744Y-110728142D01*
X136821280Y-110709067D01*
X136834046Y-110702278D01*
X136841887Y-110707106D01*
X136865325Y-110727339D01*
X136900794Y-110760543D01*
X136945289Y-110803670D01*
X136995805Y-110853670D01*
X137049336Y-110907495D01*
X137102877Y-110962095D01*
X137153423Y-111014423D01*
X137197968Y-111061428D01*
X137233507Y-111100063D01*
X137257034Y-111127278D01*
X137265544Y-111140024D01*
X137263565Y-111145500D01*
X137249857Y-111169927D01*
X137224825Y-111210129D01*
X137190499Y-111262952D01*
X137148907Y-111325247D01*
X137102079Y-111393862D01*
X137076380Y-111431283D01*
X137032173Y-111496432D01*
X136994272Y-111553289D01*
X136964698Y-111598770D01*
X136945472Y-111629793D01*
X136938614Y-111643274D01*
X136938726Y-111644021D01*
X136944776Y-111661110D01*
X136958654Y-111696006D01*
X136978427Y-111744151D01*
X137002160Y-111800986D01*
X137027918Y-111861953D01*
X137053766Y-111922492D01*
X137077771Y-111978047D01*
X137097998Y-112024057D01*
X137112511Y-112055965D01*
X137119377Y-112069212D01*
X137123439Y-112070387D01*
X137148121Y-112075687D01*
X137192111Y-112084467D01*
X137251887Y-112096040D01*
X137323929Y-112109721D01*
X137404716Y-112124823D01*
X137447294Y-112132830D01*
X137525445Y-112148107D01*
X137593775Y-112162215D01*
X137648551Y-112174345D01*
X137686037Y-112183686D01*
X137702500Y-112189427D01*
X137705457Y-112195119D01*
X137710362Y-112222930D01*
X137714216Y-112269250D01*
X137717021Y-112329720D01*
X137718781Y-112399983D01*
X137719499Y-112475680D01*
X137719177Y-112552453D01*
X137717819Y-112625944D01*
X137715428Y-112691794D01*
X137712006Y-112745645D01*
X137707556Y-112783138D01*
X137702082Y-112799916D01*
X137698760Y-112801809D01*
X137673987Y-112809926D01*
X137631011Y-112820666D01*
X137574802Y-112832853D01*
X137510325Y-112845310D01*
X137488570Y-112849277D01*
X137388093Y-112867729D01*
X137309126Y-112882559D01*
X137248934Y-112894380D01*
X137204778Y-112903809D01*
X137173920Y-112911460D01*
X137153625Y-112917948D01*
X137141154Y-112923888D01*
X137133771Y-112929894D01*
X137132913Y-112930902D01*
X137120838Y-112951919D01*
X137102971Y-112990376D01*
X137081042Y-113041761D01*
X137056784Y-113101563D01*
X137031927Y-113165270D01*
X137008205Y-113228371D01*
X136987347Y-113286355D01*
X136971087Y-113334709D01*
X136961156Y-113368922D01*
X136959285Y-113384483D01*
X136960536Y-113386502D01*
X136973486Y-113406028D01*
X136997840Y-113442042D01*
X137031340Y-113491228D01*
X137071727Y-113550267D01*
X137116745Y-113615842D01*
X137129100Y-113633884D01*
X137172545Y-113698599D01*
X137210091Y-113756476D01*
X137239594Y-113804082D01*
X137258914Y-113837985D01*
X137265905Y-113854752D01*
X137264398Y-113859161D01*
X137248695Y-113880882D01*
X137217714Y-113916354D01*
X137173673Y-113963188D01*
X137118790Y-114018996D01*
X137055286Y-114081392D01*
X137018988Y-114116317D01*
X136961595Y-114170711D01*
X136911361Y-114217302D01*
X136870984Y-114253636D01*
X136843161Y-114277261D01*
X136830590Y-114285724D01*
X136821952Y-114282587D01*
X136795360Y-114267747D01*
X136756741Y-114243477D01*
X136711134Y-114212852D01*
X136678707Y-114190503D01*
X136613970Y-114146122D01*
X136544886Y-114098987D01*
X136481787Y-114056155D01*
X136358178Y-113972547D01*
X136254417Y-114028650D01*
X136229984Y-114041599D01*
X136185552Y-114063749D01*
X136151191Y-114079041D01*
X136132828Y-114084743D01*
X136126818Y-114077421D01*
X136111895Y-114049541D01*
X136089852Y-114003575D01*
X136061917Y-113942441D01*
X136029317Y-113869055D01*
X135993276Y-113786335D01*
X135955023Y-113697197D01*
X135915783Y-113604559D01*
X135876783Y-113511337D01*
X135839249Y-113420450D01*
X135804409Y-113334814D01*
X135773488Y-113257345D01*
X135747714Y-113190962D01*
X135728311Y-113138582D01*
X135716508Y-113103121D01*
X135713531Y-113087496D01*
X135713732Y-113087039D01*
X135727601Y-113072595D01*
X135756611Y-113049974D01*
X135794772Y-113023864D01*
X135806817Y-113015892D01*
X135898469Y-112940256D01*
X135974323Y-112850169D01*
X136032581Y-112749381D01*
X136071448Y-112641640D01*
X136089128Y-112530697D01*
X136083826Y-112420303D01*
X136062347Y-112322115D01*
X136023782Y-112222966D01*
X135967562Y-112134512D01*
X135890410Y-112050487D01*
X135860095Y-112023645D01*
X135762094Y-111957510D01*
X135656227Y-111912970D01*
X135545561Y-111889625D01*
X135433164Y-111887078D01*
X135322105Y-111904929D01*
X135215451Y-111942780D01*
X135116270Y-112000232D01*
X135027631Y-112076887D01*
X134952600Y-112172345D01*
X134938175Y-112195985D01*
X134889143Y-112304034D01*
X134863103Y-112416548D01*
X134859372Y-112530614D01*
X134877268Y-112643318D01*
X134916109Y-112751745D01*
X134975214Y-112852982D01*
X135053900Y-112944114D01*
X135151485Y-113022228D01*
X135154654Y-113024333D01*
X135192411Y-113050940D01*
X135220709Y-113073561D01*
X135233634Y-113087496D01*
X135232003Y-113098421D01*
X135221864Y-113130231D01*
X135203884Y-113179534D01*
X135179292Y-113243413D01*
X135149311Y-113318948D01*
X135115170Y-113403223D01*
X135078092Y-113493320D01*
X135039306Y-113586321D01*
X135000036Y-113679308D01*
X134961509Y-113769364D01*
X134924950Y-113853571D01*
X134891586Y-113929010D01*
X134862643Y-113992765D01*
X134839346Y-114041917D01*
X134822923Y-114073549D01*
X134814598Y-114084743D01*
X134807674Y-114083227D01*
X134780477Y-114072331D01*
X134740280Y-114053228D01*
X134693009Y-114028650D01*
X134589248Y-113972547D01*
X134465639Y-114056155D01*
X134429120Y-114080913D01*
X134361194Y-114127171D01*
X134293475Y-114173503D01*
X134236291Y-114212852D01*
X134204732Y-114234297D01*
X134163714Y-114260939D01*
X134133301Y-114279178D01*
X134118446Y-114285941D01*
X134112065Y-114283070D01*
X134088996Y-114265485D01*
X134053433Y-114234523D01*
X134008471Y-114193231D01*
X133957206Y-114144653D01*
X133902733Y-114091835D01*
X133848148Y-114037823D01*
X133796547Y-113985661D01*
X133751024Y-113938396D01*
X133714675Y-113899072D01*
X133690595Y-113870736D01*
X133681881Y-113856432D01*
X133682383Y-113853711D01*
X133692755Y-113831560D01*
X133714912Y-113793235D01*
X133746712Y-113742200D01*
X133786016Y-113681914D01*
X133830681Y-113615842D01*
X133843207Y-113597617D01*
X133887193Y-113533485D01*
X133925937Y-113476789D01*
X133957182Y-113430844D01*
X133978669Y-113398970D01*
X133988140Y-113384483D01*
X133988373Y-113383862D01*
X133985578Y-113366139D01*
X133974903Y-113330235D01*
X133958081Y-113280662D01*
X133936843Y-113221932D01*
X133912921Y-113158556D01*
X133888046Y-113095046D01*
X133863950Y-113035913D01*
X133842365Y-112985669D01*
X133825023Y-112948826D01*
X133813655Y-112929894D01*
X133812516Y-112928719D01*
X133804376Y-112922773D01*
X133790629Y-112916776D01*
X133768537Y-112910114D01*
X133735363Y-112902173D01*
X133688370Y-112892337D01*
X133624820Y-112879991D01*
X133541976Y-112864520D01*
X133437100Y-112845310D01*
X133415348Y-112841267D01*
X133353036Y-112828769D01*
X133300619Y-112816927D01*
X133263066Y-112806917D01*
X133245343Y-112799916D01*
X133242378Y-112794075D01*
X133237435Y-112766016D01*
X133233518Y-112719500D01*
X133230629Y-112658886D01*
X133228773Y-112588532D01*
X133227952Y-112512796D01*
X133228168Y-112436037D01*
X133229426Y-112362612D01*
X133231728Y-112296880D01*
X133235076Y-112243200D01*
X133239474Y-112205930D01*
X133244926Y-112189427D01*
X133250491Y-112186989D01*
X133278178Y-112179305D01*
X133324979Y-112168436D01*
X133387157Y-112155192D01*
X133460979Y-112140384D01*
X133542710Y-112124823D01*
X133587336Y-112116509D01*
X133663824Y-112102092D01*
X133729660Y-112089467D01*
X133781323Y-112079321D01*
X133815293Y-112072341D01*
X133828048Y-112069212D01*
X133828528Y-112068568D01*
X133836651Y-112052181D01*
X133852137Y-112017852D01*
X133873050Y-111970136D01*
X133897455Y-111913586D01*
X133923416Y-111852758D01*
X133948997Y-111792206D01*
X133972262Y-111736485D01*
X133991277Y-111690150D01*
X134004105Y-111657755D01*
X134008812Y-111643855D01*
X134006736Y-111638965D01*
X133992920Y-111615692D01*
X133967860Y-111576519D01*
X133933568Y-111524520D01*
X133892059Y-111462768D01*
X133845346Y-111394336D01*
X133819718Y-111356860D01*
X133775490Y-111291156D01*
X133737570Y-111233492D01*
X133707980Y-111187014D01*
X133688743Y-111154865D01*
X133681881Y-111140190D01*
X133686649Y-111132230D01*
X133706593Y-111108446D01*
X133739313Y-111072451D01*
X133781805Y-111027295D01*
X133831065Y-110976028D01*
X133884091Y-110921701D01*
X133937877Y-110867364D01*
X133989421Y-110816067D01*
X134035720Y-110770859D01*
X134073769Y-110734792D01*
X134100565Y-110710914D01*
X134113105Y-110702278D01*
X134120066Y-110705636D01*
X134145627Y-110721210D01*
X134186874Y-110747715D01*
X134240837Y-110783210D01*
X134304542Y-110825750D01*
X134375016Y-110873395D01*
X134626662Y-111044512D01*
X135046188Y-110871570D01*
X135103036Y-110570018D01*
X135159885Y-110268466D01*
X135787540Y-110268466D01*
X135844389Y-110570018D01*
G37*
D16*
%TO.C,G\u002A\u002A\u002A*%
G36*
X140579011Y-113832267D02*
G01*
X140608055Y-113839133D01*
X140638600Y-113855919D01*
X140673794Y-113885861D01*
X140716784Y-113932194D01*
X140770717Y-113998156D01*
X140838742Y-114086982D01*
X140924005Y-114201908D01*
X140984078Y-114283514D01*
X141077453Y-114410191D01*
X141175116Y-114542527D01*
X141268592Y-114669037D01*
X141349401Y-114778237D01*
X141416096Y-114868392D01*
X141497897Y-114979638D01*
X141561803Y-115067812D01*
X141609956Y-115136172D01*
X141644502Y-115187974D01*
X141667585Y-115226475D01*
X141681350Y-115254931D01*
X141687940Y-115276599D01*
X141689501Y-115294736D01*
X141684192Y-115334132D01*
X141652356Y-115401580D01*
X141598857Y-115449935D01*
X141584477Y-115454816D01*
X141556036Y-115459372D01*
X141511841Y-115463194D01*
X141449397Y-115466338D01*
X141366207Y-115468864D01*
X141259775Y-115470828D01*
X141127605Y-115472288D01*
X140967200Y-115473303D01*
X140776065Y-115473931D01*
X140551702Y-115474229D01*
X139547237Y-115474862D01*
X139491583Y-115425134D01*
X139475326Y-115409681D01*
X139444420Y-115364850D01*
X139435928Y-115311072D01*
X139435931Y-115307637D01*
X139436435Y-115292184D01*
X139439038Y-115276356D01*
X139445482Y-115257577D01*
X139457510Y-115233273D01*
X139476864Y-115200868D01*
X139505287Y-115157786D01*
X139544522Y-115101453D01*
X139596311Y-115029292D01*
X139662396Y-114938728D01*
X139744522Y-114827187D01*
X139844429Y-114692092D01*
X139963862Y-114530869D01*
X140006282Y-114473498D01*
X140083031Y-114369204D01*
X140159239Y-114265108D01*
X140227972Y-114170691D01*
X140282294Y-114095437D01*
X140292082Y-114081831D01*
X140366307Y-113983046D01*
X140427117Y-113911880D01*
X140477984Y-113865078D01*
X140522380Y-113839384D01*
X140563779Y-113831542D01*
X140579011Y-113832267D01*
G37*
G36*
X143507623Y-110941669D02*
G01*
X144336854Y-110946803D01*
X144379949Y-110996920D01*
X144406300Y-111036919D01*
X144423028Y-111113024D01*
X144422517Y-111124770D01*
X144416796Y-111152772D01*
X144402586Y-111186915D01*
X144377238Y-111231642D01*
X144338101Y-111291393D01*
X144282528Y-111370610D01*
X144207867Y-111473737D01*
X144198959Y-111485942D01*
X144131014Y-111579237D01*
X144068096Y-111665948D01*
X144014223Y-111740517D01*
X143973415Y-111797381D01*
X143949689Y-111830980D01*
X143940122Y-111844536D01*
X143908331Y-111888580D01*
X143859859Y-111955113D01*
X143797610Y-112040170D01*
X143724488Y-112139787D01*
X143643394Y-112250000D01*
X143557234Y-112366845D01*
X143523142Y-112413031D01*
X143431013Y-112537873D01*
X143340458Y-112660624D01*
X143255405Y-112775954D01*
X143179785Y-112878534D01*
X143117528Y-112963035D01*
X143072563Y-113024127D01*
X143022353Y-113094864D01*
X142979507Y-113161176D01*
X142953575Y-113209219D01*
X142947370Y-113234269D01*
X142949776Y-113238591D01*
X142969849Y-113268398D01*
X143008039Y-113322468D01*
X143062036Y-113397614D01*
X143129531Y-113490647D01*
X143208214Y-113598381D01*
X143295778Y-113717628D01*
X143389913Y-113845201D01*
X143491180Y-113982119D01*
X143600116Y-114129416D01*
X143708473Y-114275940D01*
X143812119Y-114416101D01*
X143906920Y-114544310D01*
X143988743Y-114654977D01*
X144053454Y-114742513D01*
X144074747Y-114771307D01*
X144145096Y-114866257D01*
X144210049Y-114953666D01*
X144265654Y-115028231D01*
X144307961Y-115084649D01*
X144333015Y-115117618D01*
X144358159Y-115151616D01*
X144407915Y-115238134D01*
X144425994Y-115311703D01*
X144412637Y-115374479D01*
X144368088Y-115428618D01*
X144313131Y-115474862D01*
X143470514Y-115474229D01*
X143376510Y-115474115D01*
X143181587Y-115473517D01*
X143018972Y-115472402D01*
X142886274Y-115470706D01*
X142781104Y-115468370D01*
X142701071Y-115465330D01*
X142643785Y-115461525D01*
X142606856Y-115456893D01*
X142587894Y-115451372D01*
X142583356Y-115448178D01*
X142566952Y-115432104D01*
X142541385Y-115402721D01*
X142505589Y-115358605D01*
X142458494Y-115298334D01*
X142399034Y-115220484D01*
X142326139Y-115123631D01*
X142238743Y-115006352D01*
X142135778Y-114867224D01*
X142016175Y-114704823D01*
X141878867Y-114517726D01*
X141722786Y-114304510D01*
X141546864Y-114063751D01*
X141510170Y-114013506D01*
X141422875Y-113894026D01*
X141334172Y-113772686D01*
X141249678Y-113657165D01*
X141175009Y-113555143D01*
X141115781Y-113474299D01*
X141105936Y-113460871D01*
X141033454Y-113361923D01*
X140956178Y-113256316D01*
X140882754Y-113155869D01*
X140821825Y-113072400D01*
X140803849Y-113047760D01*
X140739025Y-112959064D01*
X140660972Y-112852487D01*
X140568551Y-112726478D01*
X140460621Y-112579482D01*
X140336042Y-112409949D01*
X140193674Y-112216326D01*
X140032377Y-111997060D01*
X139851011Y-111750600D01*
X139770416Y-111640578D01*
X139686898Y-111525415D01*
X139611813Y-111420682D01*
X139547736Y-111330027D01*
X139497246Y-111257097D01*
X139462917Y-111205541D01*
X139447326Y-111179006D01*
X139434414Y-111129040D01*
X139434006Y-111077710D01*
X139436231Y-111068382D01*
X139463812Y-111015574D01*
X139507839Y-110973151D01*
X139556262Y-110953368D01*
X139574345Y-110952846D01*
X139625788Y-110952362D01*
X139706118Y-110952039D01*
X139811598Y-110951879D01*
X139938494Y-110951883D01*
X140083068Y-110952054D01*
X140241586Y-110952393D01*
X140410309Y-110952904D01*
X141229290Y-110955734D01*
X141285555Y-111014191D01*
X141310847Y-111043811D01*
X141353837Y-111097954D01*
X141411068Y-111172114D01*
X141479145Y-111261847D01*
X141554669Y-111362712D01*
X141634244Y-111470264D01*
X141926667Y-111867881D01*
X142089730Y-111645539D01*
X142093613Y-111640244D01*
X142169662Y-111536535D01*
X142255918Y-111418888D01*
X142342071Y-111301366D01*
X142417811Y-111198032D01*
X142486395Y-111107209D01*
X142549631Y-111029982D01*
X142598411Y-110978338D01*
X142630611Y-110954702D01*
X142657339Y-110950467D01*
X142719717Y-110946664D01*
X142815466Y-110943771D01*
X142943357Y-110941808D01*
X143102166Y-110940790D01*
X143290663Y-110940738D01*
X143507623Y-110941669D01*
G37*
%TD*%
%LPC*%
D17*
%TO.C,J8*%
X154280000Y-108575000D03*
D18*
X154280000Y-107325000D03*
X154280000Y-106075000D03*
X154280000Y-104825000D03*
%TD*%
D17*
%TO.C,J6*%
X154280000Y-92575000D03*
D18*
X154280000Y-91325000D03*
X154280000Y-90075000D03*
X154280000Y-88825000D03*
%TD*%
D19*
%TO.C,H1*%
X115200000Y-79350000D03*
%TD*%
D20*
%TO.C,J4*%
X126850000Y-77650000D03*
D21*
X125600000Y-77650000D03*
X124350000Y-77650000D03*
X123100000Y-77650000D03*
%TD*%
D19*
%TO.C,H2*%
X151900000Y-114050000D03*
%TD*%
D22*
%TO.C,J1*%
X126300000Y-113800000D03*
D18*
X126300000Y-115050000D03*
%TD*%
D22*
%TO.C,J7*%
X153380000Y-96825000D03*
D18*
X153380000Y-98075000D03*
X153380000Y-99325000D03*
X153380000Y-100575000D03*
%TD*%
D22*
%TO.C,J3*%
X131000000Y-113800000D03*
D18*
X131000000Y-115050000D03*
%TD*%
D17*
%TO.C,J5*%
X154305000Y-84600000D03*
D18*
X154305000Y-83350000D03*
X154305000Y-82100000D03*
X154305000Y-80850000D03*
%TD*%
%LPD*%
M02*
