%TF.GenerationSoftware,KiCad,Pcbnew,7.99.0-3012-g423a5b9961*%
%TF.CreationDate,2023-11-02T23:52:04-04:00*%
%TF.ProjectId,switch,73776974-6368-42e6-9b69-6361645f7063,rev?*%
%TF.SameCoordinates,Original*%
%TF.FileFunction,Copper,L2,Inr*%
%TF.FilePolarity,Positive*%
%FSLAX46Y46*%
G04 Gerber Fmt 4.6, Leading zero omitted, Abs format (unit mm)*
G04 Created by KiCad (PCBNEW 7.99.0-3012-g423a5b9961) date 2023-11-02 23:52:04*
%MOMM*%
%LPD*%
G01*
G04 APERTURE LIST*
G04 Aperture macros list*
%AMRoundRect*
0 Rectangle with rounded corners*
0 $1 Rounding radius*
0 $2 $3 $4 $5 $6 $7 $8 $9 X,Y pos of 4 corners*
0 Add a 4 corners polygon primitive as box body*
4,1,4,$2,$3,$4,$5,$6,$7,$8,$9,$2,$3,0*
0 Add four circle primitives for the rounded corners*
1,1,$1+$1,$2,$3*
1,1,$1+$1,$4,$5*
1,1,$1+$1,$6,$7*
1,1,$1+$1,$8,$9*
0 Add four rect primitives between the rounded corners*
20,1,$1+$1,$2,$3,$4,$5,0*
20,1,$1+$1,$4,$5,$6,$7,0*
20,1,$1+$1,$6,$7,$8,$9,0*
20,1,$1+$1,$8,$9,$2,$3,0*%
G04 Aperture macros list end*
%TA.AperFunction,ComponentPad*%
%ADD10RoundRect,0.200000X0.450000X-0.200000X0.450000X0.200000X-0.450000X0.200000X-0.450000X-0.200000X0*%
%TD*%
%TA.AperFunction,ComponentPad*%
%ADD11O,1.300000X0.800000*%
%TD*%
%TA.AperFunction,ComponentPad*%
%ADD12C,0.500000*%
%TD*%
%TA.AperFunction,ComponentPad*%
%ADD13RoundRect,0.200000X0.200000X0.450000X-0.200000X0.450000X-0.200000X-0.450000X0.200000X-0.450000X0*%
%TD*%
%TA.AperFunction,ComponentPad*%
%ADD14O,0.800000X1.300000*%
%TD*%
%TA.AperFunction,ComponentPad*%
%ADD15RoundRect,0.200000X-0.200000X-0.450000X0.200000X-0.450000X0.200000X0.450000X-0.200000X0.450000X0*%
%TD*%
%TA.AperFunction,ComponentPad*%
%ADD16C,2.000000*%
%TD*%
%TA.AperFunction,ViaPad*%
%ADD17C,0.450000*%
%TD*%
G04 APERTURE END LIST*
D10*
%TO.N,/Magnetics/RX0+*%
%TO.C,J8*%
X155300000Y-114604800D03*
D11*
%TO.N,/Magnetics/RX0-*%
X155300000Y-113354800D03*
%TO.N,/Magnetics/TX0+*%
X155300000Y-112104800D03*
%TO.N,/Magnetics/TX0-*%
X155300000Y-110854800D03*
%TD*%
D10*
%TO.N,/Magnetics/RX2+*%
%TO.C,J6*%
X155300000Y-95215400D03*
D11*
%TO.N,/Magnetics/RX2-*%
X155300000Y-93965400D03*
%TO.N,/Magnetics/TX2+*%
X155300000Y-92715400D03*
%TO.N,/Magnetics/TX2-*%
X155300000Y-91465400D03*
%TD*%
D12*
%TO.N,GND*%
%TO.C,U3*%
X126876199Y-103361063D03*
X126876199Y-102094396D03*
X126876199Y-100827730D03*
X126876199Y-99561063D03*
X125609532Y-103361063D03*
X125609532Y-102094396D03*
X125609532Y-100827730D03*
X125609532Y-99561063D03*
X124342866Y-103361063D03*
X124342866Y-102094396D03*
X124342866Y-100827730D03*
X124342866Y-99561063D03*
X123076199Y-103361063D03*
X123076199Y-102094396D03*
X123076199Y-100827730D03*
X123076199Y-99561063D03*
%TD*%
D13*
%TO.N,/Magnetics/TX4-*%
%TO.C,J4*%
X124575000Y-73476200D03*
D14*
%TO.N,/Magnetics/TX4+*%
X123325000Y-73476200D03*
%TO.N,/Magnetics/RX4-*%
X122075000Y-73476200D03*
%TO.N,/Magnetics/RX4+*%
X120825000Y-73476200D03*
%TD*%
D15*
%TO.N,GND*%
%TO.C,J1*%
X123174600Y-118280600D03*
D14*
%TO.N,Net-(D7-A)*%
X124424600Y-118280600D03*
%TD*%
D16*
%TO.N,Net-(R2-Pad2)*%
%TO.C,SW1*%
X107023600Y-97141800D03*
%TO.N,/IP175G/AFT*%
X107023600Y-90641800D03*
%TD*%
D10*
%TO.N,/Magnetics/TX1-*%
%TO.C,J7*%
X155300000Y-103327200D03*
D11*
%TO.N,/Magnetics/TX1+*%
X155300000Y-102077200D03*
%TO.N,/Magnetics/RX1-*%
X155300000Y-100827200D03*
%TO.N,/Magnetics/RX1+*%
X155300000Y-99577200D03*
%TD*%
D15*
%TO.N,VCC*%
%TO.C,J3*%
X123159200Y-113766600D03*
D14*
%TO.N,GND*%
X124409200Y-113766600D03*
%TD*%
D16*
%TO.N,Net-(R3-Pad2)*%
%TO.C,SW2*%
X111810800Y-90678000D03*
%TO.N,/IP175G/F_POWER_OFF*%
X111810800Y-97178000D03*
%TD*%
D13*
%TO.N,/Magnetics/RX3+*%
%TO.C,J5*%
X132816600Y-73500000D03*
D14*
%TO.N,/Magnetics/RX3-*%
X131566600Y-73500000D03*
%TO.N,/Magnetics/TX3+*%
X130316600Y-73500000D03*
%TO.N,/Magnetics/TX3-*%
X129066600Y-73500000D03*
%TD*%
D17*
%TO.N,GND*%
X152400000Y-116840000D03*
X134300000Y-121100000D03*
X124460000Y-111760000D03*
X154940000Y-105410000D03*
X114300000Y-73660000D03*
X113030000Y-115570000D03*
X131699000Y-102235000D03*
X114300000Y-111760000D03*
X121285000Y-109855000D03*
X115570000Y-114300000D03*
X132080000Y-120650000D03*
X152400000Y-107950000D03*
X116992400Y-95148400D03*
X114300000Y-113030000D03*
X120650000Y-114300000D03*
X113030000Y-120650000D03*
X105714800Y-103835200D03*
X113030000Y-111760000D03*
X114300000Y-114300000D03*
X113030000Y-114300000D03*
X142240000Y-81280000D03*
X137160000Y-76200000D03*
X115570000Y-116840000D03*
X137160000Y-78740000D03*
X113665000Y-122580400D03*
X112014000Y-80010000D03*
X132080000Y-121920000D03*
X125730000Y-111760000D03*
X113030000Y-116840000D03*
X120345200Y-105232200D03*
X116126000Y-93180800D03*
X130048000Y-105816400D03*
X114300000Y-76200000D03*
X132257800Y-100380800D03*
X125272800Y-95021400D03*
X154940000Y-116840000D03*
X115039200Y-120339800D03*
X118694200Y-100939600D03*
X133350000Y-120650000D03*
X152400000Y-81280000D03*
X116513800Y-104267000D03*
X129540000Y-120650000D03*
X132593200Y-106095800D03*
X125730000Y-116840000D03*
X144780000Y-81280000D03*
X120650000Y-115570000D03*
X109220000Y-87630000D03*
X130810000Y-120650000D03*
X106680000Y-87630000D03*
X124587000Y-110083600D03*
X115824000Y-104952800D03*
X115059200Y-91936200D03*
X114300000Y-115570000D03*
X120446800Y-109982000D03*
X125730000Y-119380000D03*
X154940000Y-81280000D03*
X139700000Y-86360000D03*
X123596400Y-109880400D03*
X105765600Y-101244400D03*
X121920000Y-114300000D03*
X125552200Y-107340400D03*
X122834400Y-107238800D03*
X120650000Y-116840000D03*
X116840000Y-73660000D03*
X111760000Y-87630000D03*
X113030000Y-118110000D03*
X115570000Y-115570000D03*
X116357400Y-120624600D03*
X114909600Y-108991400D03*
X147320000Y-81280000D03*
X119380000Y-114300000D03*
X154940000Y-78740000D03*
X110998000Y-85090000D03*
X125730000Y-118110000D03*
X129540000Y-121920000D03*
X116840000Y-76200000D03*
X111637000Y-105410000D03*
X139700000Y-83820000D03*
X114786600Y-105562400D03*
X125730000Y-113030000D03*
X119380000Y-99898200D03*
X149860000Y-107950000D03*
X125780800Y-110490000D03*
X114300000Y-87630000D03*
X125730000Y-114300000D03*
X120650000Y-113030000D03*
X106680000Y-82550000D03*
X119380000Y-116840000D03*
X139700000Y-81280000D03*
X121920000Y-115570000D03*
X105765600Y-114173000D03*
X142240000Y-78740000D03*
X119735600Y-103327200D03*
X130810000Y-121920000D03*
X154940000Y-107950000D03*
X121920000Y-116840000D03*
X105765600Y-111607600D03*
X147320000Y-73660000D03*
X105613200Y-109016800D03*
X137160000Y-83820000D03*
X137160000Y-73660000D03*
X106680000Y-80010000D03*
X139700000Y-78740000D03*
X147320000Y-78740000D03*
X147320000Y-76200000D03*
X139700000Y-76200000D03*
X132542400Y-105029000D03*
X129822000Y-97358200D03*
X130022600Y-98145600D03*
X114300000Y-116840000D03*
X106680000Y-85090000D03*
X137160000Y-81280000D03*
X114020600Y-91948000D03*
X121767600Y-96901000D03*
X111900000Y-104700000D03*
X122021600Y-96342200D03*
X149860000Y-78740000D03*
X113030000Y-113030000D03*
X117627400Y-98298000D03*
X137160000Y-86360000D03*
X105689400Y-106426000D03*
X154940000Y-119380000D03*
X133350000Y-121920000D03*
X152400000Y-78740000D03*
X113030000Y-119380000D03*
X149860000Y-81280000D03*
X119380000Y-115570000D03*
%TO.N,VCC*%
X128066800Y-98323400D03*
X117144800Y-108737400D03*
X105994200Y-98958400D03*
X114198400Y-106019600D03*
X128524000Y-105918000D03*
X126187200Y-95758000D03*
X125577600Y-106553000D03*
X130073400Y-101396800D03*
%TO.N,+1.1VA*%
X129187000Y-96393000D03*
X126136400Y-108153200D03*
%TO.N,+3.3V*%
X105753500Y-102336600D03*
X117652800Y-100101400D03*
X113284000Y-103149400D03*
X118237000Y-108661200D03*
X117398800Y-104419400D03*
%TO.N,+1.1V*%
X122326400Y-106705400D03*
X121056400Y-100076000D03*
%TO.N,/Magnetics/CT4*%
X122552200Y-89828000D03*
X116100600Y-90666200D03*
X118869200Y-89904200D03*
%TO.N,/Magnetics/CT3*%
X130197600Y-89777200D03*
X115084600Y-89396200D03*
X126463800Y-89853400D03*
%TO.N,/Magnetics/CT1*%
X138704200Y-97383600D03*
X135255000Y-105003600D03*
X138729600Y-101142800D03*
%TO.N,/Magnetics/CT2*%
X135255000Y-106019600D03*
X138653400Y-89789000D03*
X138704200Y-93522800D03*
%TO.N,/Magnetics/CT0*%
X138900000Y-110500000D03*
X138800000Y-116900000D03*
X136800000Y-121100000D03*
%TO.N,/Magnetics/REF0*%
X144600000Y-121000000D03*
X144700000Y-110600000D03*
X144700000Y-116900000D03*
%TO.N,Net-(JP1-A)*%
X109829600Y-100431600D03*
%TO.N,Net-(JP2-A)*%
X109194600Y-103886000D03*
%TO.N,Net-(JP3-A)*%
X109194600Y-106476800D03*
%TO.N,Net-(JP4-A)*%
X109143800Y-109093000D03*
%TO.N,Net-(JP5-A)*%
X109169200Y-111633000D03*
%TO.N,Net-(JP6-A)*%
X109169200Y-114223800D03*
%TO.N,Net-(R21-Pad1)*%
X114957600Y-79109200D03*
X126463800Y-79922000D03*
X130248400Y-79922000D03*
%TO.N,Net-(R22-Pad1)*%
X149473800Y-86918800D03*
X148661000Y-93573600D03*
X148686400Y-89763600D03*
%TO.N,Net-(R23-Pad1)*%
X149499200Y-85775800D03*
X148686400Y-101219000D03*
X148711800Y-97383600D03*
%TO.N,Net-(R24-Pad1)*%
X122628400Y-79896600D03*
X118869200Y-79896600D03*
X116024400Y-79083800D03*
%TD*%
%TA.AperFunction,Conductor*%
%TO.N,GND*%
G36*
X152488473Y-72103438D02*
G01*
X152493825Y-72103907D01*
X152877648Y-72154439D01*
X152882964Y-72155377D01*
X153260909Y-72239165D01*
X153266120Y-72240560D01*
X153590122Y-72342718D01*
X153635332Y-72356973D01*
X153640417Y-72358824D01*
X153703590Y-72384991D01*
X153998081Y-72506974D01*
X154002951Y-72509245D01*
X154346355Y-72688010D01*
X154351005Y-72690695D01*
X154596590Y-72847151D01*
X154677508Y-72898702D01*
X154681940Y-72901805D01*
X154871096Y-73046950D01*
X154989042Y-73137454D01*
X154989070Y-73137475D01*
X154993199Y-73140940D01*
X155278617Y-73402478D01*
X155282431Y-73406291D01*
X155325402Y-73453186D01*
X155543975Y-73691719D01*
X155547453Y-73695864D01*
X155783105Y-74002975D01*
X155786203Y-74007398D01*
X155942198Y-74252262D01*
X155994207Y-74333901D01*
X155996912Y-74338588D01*
X156175662Y-74681967D01*
X156177943Y-74686859D01*
X156326093Y-75044527D01*
X156327936Y-75049594D01*
X156367654Y-75175565D01*
X156418277Y-75336124D01*
X156444342Y-75418791D01*
X156445742Y-75424018D01*
X156529528Y-75801963D01*
X156530468Y-75807292D01*
X156580993Y-76191086D01*
X156581465Y-76196477D01*
X156598499Y-76586713D01*
X156598499Y-76661810D01*
X156598500Y-76661823D01*
X156598500Y-91413481D01*
X156582621Y-91467557D01*
X156596640Y-91495924D01*
X156598500Y-91517318D01*
X156598500Y-92663481D01*
X156582621Y-92717557D01*
X156596640Y-92745924D01*
X156598500Y-92767318D01*
X156598500Y-93913481D01*
X156582621Y-93967557D01*
X156596640Y-93995924D01*
X156598500Y-94017318D01*
X156598500Y-99525281D01*
X156582621Y-99579357D01*
X156596640Y-99607724D01*
X156598500Y-99629118D01*
X156598500Y-100775281D01*
X156582621Y-100829357D01*
X156596640Y-100857724D01*
X156598500Y-100879118D01*
X156598500Y-102025281D01*
X156582621Y-102079357D01*
X156596640Y-102107724D01*
X156598500Y-102129118D01*
X156598500Y-110802881D01*
X156582621Y-110856957D01*
X156596640Y-110885324D01*
X156598500Y-110906718D01*
X156598500Y-112052881D01*
X156582621Y-112106957D01*
X156596640Y-112135324D01*
X156598500Y-112156718D01*
X156598500Y-113302881D01*
X156582621Y-113356957D01*
X156596640Y-113385324D01*
X156598500Y-113406718D01*
X156598500Y-118850400D01*
X156581496Y-119239853D01*
X156581024Y-119245244D01*
X156530496Y-119629040D01*
X156529556Y-119634369D01*
X156445768Y-120012314D01*
X156444368Y-120017541D01*
X156327961Y-120386736D01*
X156326110Y-120391821D01*
X156177967Y-120749472D01*
X156175680Y-120754376D01*
X155996934Y-121097742D01*
X155994228Y-121102428D01*
X155786227Y-121428926D01*
X155783123Y-121433359D01*
X155547463Y-121740477D01*
X155543984Y-121744622D01*
X155282456Y-122030030D01*
X155278630Y-122033856D01*
X154993222Y-122295384D01*
X154989077Y-122298863D01*
X154681959Y-122534523D01*
X154677526Y-122537627D01*
X154351028Y-122745628D01*
X154346342Y-122748334D01*
X154002976Y-122927080D01*
X153998072Y-122929367D01*
X153640421Y-123077510D01*
X153635336Y-123079361D01*
X153266141Y-123195768D01*
X153260914Y-123197168D01*
X152882969Y-123280956D01*
X152877640Y-123281896D01*
X152493844Y-123332424D01*
X152488453Y-123332896D01*
X152099000Y-123349900D01*
X109777177Y-123349900D01*
X109777161Y-123349899D01*
X109773423Y-123349899D01*
X109707531Y-123349900D01*
X109318074Y-123332898D01*
X109312684Y-123332427D01*
X108928886Y-123281901D01*
X108923557Y-123280961D01*
X108545609Y-123197175D01*
X108540395Y-123195778D01*
X108404542Y-123152945D01*
X108171182Y-123079367D01*
X108166098Y-123077517D01*
X108018204Y-123016258D01*
X107808444Y-122929374D01*
X107803552Y-122927093D01*
X107460171Y-122748342D01*
X107455484Y-122745637D01*
X107128987Y-122537637D01*
X107124566Y-122534541D01*
X106817442Y-122298879D01*
X106813297Y-122295401D01*
X106604006Y-122103623D01*
X106527867Y-122033855D01*
X106524054Y-122030041D01*
X106262512Y-121744620D01*
X106259044Y-121740485D01*
X106142918Y-121589148D01*
X106023370Y-121433352D01*
X106020285Y-121428946D01*
X105812270Y-121102428D01*
X105809585Y-121097780D01*
X105630819Y-120754374D01*
X105628537Y-120749479D01*
X105489146Y-120412963D01*
X107848387Y-120412963D01*
X107878013Y-120682213D01*
X107878015Y-120682224D01*
X107921671Y-120849209D01*
X107946528Y-120944288D01*
X108052470Y-121193590D01*
X108140102Y-121337180D01*
X108193579Y-121424805D01*
X108193586Y-121424815D01*
X108366853Y-121633019D01*
X108366859Y-121633024D01*
X108500190Y-121752488D01*
X108568598Y-121813782D01*
X108794510Y-121963244D01*
X109039776Y-122078220D01*
X109039783Y-122078222D01*
X109039785Y-122078223D01*
X109299157Y-122156257D01*
X109299164Y-122156258D01*
X109299169Y-122156260D01*
X109567161Y-122195700D01*
X109567166Y-122195700D01*
X109770236Y-122195700D01*
X109821733Y-122191930D01*
X109972756Y-122180877D01*
X110123129Y-122147380D01*
X110237146Y-122121982D01*
X110237148Y-122121981D01*
X110237153Y-122121980D01*
X110490158Y-122025214D01*
X110726377Y-121892641D01*
X110940777Y-121727088D01*
X111128786Y-121532081D01*
X111286399Y-121311779D01*
X111360387Y-121167869D01*
X111410249Y-121070890D01*
X111410251Y-121070884D01*
X111410256Y-121070875D01*
X111497718Y-120814505D01*
X111546919Y-120548133D01*
X111556812Y-120277435D01*
X111527186Y-120008182D01*
X111458672Y-119746112D01*
X111352730Y-119496810D01*
X111211618Y-119265590D01*
X111186263Y-119235123D01*
X111038346Y-119057380D01*
X111038340Y-119057375D01*
X110836602Y-118876618D01*
X110610692Y-118727157D01*
X110610690Y-118727156D01*
X110365424Y-118612180D01*
X110365419Y-118612178D01*
X110365414Y-118612176D01*
X110106042Y-118534142D01*
X110106028Y-118534139D01*
X110081981Y-118530600D01*
X122274601Y-118530600D01*
X122274601Y-118787182D01*
X122281008Y-118857702D01*
X122281009Y-118857707D01*
X122331581Y-119019996D01*
X122419527Y-119165477D01*
X122539722Y-119285672D01*
X122685204Y-119373619D01*
X122685203Y-119373619D01*
X122847494Y-119424190D01*
X122847493Y-119424190D01*
X122918008Y-119430598D01*
X122918026Y-119430599D01*
X122924599Y-119430598D01*
X122924600Y-119430598D01*
X122924600Y-118530600D01*
X122274601Y-118530600D01*
X110081981Y-118530600D01*
X109990391Y-118517121D01*
X109838039Y-118494700D01*
X109634969Y-118494700D01*
X109634964Y-118494700D01*
X109432444Y-118509523D01*
X109432431Y-118509525D01*
X109168053Y-118568417D01*
X109168046Y-118568420D01*
X108915039Y-118665187D01*
X108678826Y-118797757D01*
X108464422Y-118963312D01*
X108276422Y-119158309D01*
X108276416Y-119158316D01*
X108118802Y-119378619D01*
X108118799Y-119378624D01*
X107994950Y-119619509D01*
X107994943Y-119619527D01*
X107907484Y-119875885D01*
X107907481Y-119875899D01*
X107858281Y-120142268D01*
X107858280Y-120142275D01*
X107848387Y-120412963D01*
X105489146Y-120412963D01*
X105480392Y-120391829D01*
X105478541Y-120386744D01*
X105362133Y-120017545D01*
X105360732Y-120012318D01*
X105276943Y-119634370D01*
X105276005Y-119629054D01*
X105225473Y-119245228D01*
X105225004Y-119239876D01*
X105208034Y-118851178D01*
X105208034Y-118280600D01*
X122919702Y-118280600D01*
X122939105Y-118378145D01*
X122994360Y-118460840D01*
X123077055Y-118516095D01*
X123149976Y-118530600D01*
X123199224Y-118530600D01*
X123272145Y-118516095D01*
X123354840Y-118460840D01*
X123410095Y-118378145D01*
X123424600Y-118305223D01*
X123424600Y-119430599D01*
X123431181Y-119430599D01*
X123501702Y-119424191D01*
X123501707Y-119424190D01*
X123663996Y-119373618D01*
X123809474Y-119285673D01*
X123860024Y-119235123D01*
X123921347Y-119201637D01*
X123991038Y-119206620D01*
X124013680Y-119217810D01*
X124075075Y-119256388D01*
X124245345Y-119315968D01*
X124245350Y-119315969D01*
X124424596Y-119336165D01*
X124424600Y-119336165D01*
X124424604Y-119336165D01*
X124603849Y-119315969D01*
X124603852Y-119315968D01*
X124603855Y-119315968D01*
X124774122Y-119256389D01*
X124926862Y-119160416D01*
X125054416Y-119032862D01*
X125150389Y-118880122D01*
X125209968Y-118709855D01*
X125225100Y-118575554D01*
X125225100Y-117985646D01*
X125209968Y-117851345D01*
X125150389Y-117681078D01*
X125054416Y-117528338D01*
X124926862Y-117400784D01*
X124918806Y-117395722D01*
X124774123Y-117304811D01*
X124603854Y-117245231D01*
X124603849Y-117245230D01*
X124424604Y-117225035D01*
X124424596Y-117225035D01*
X124245350Y-117245230D01*
X124245337Y-117245233D01*
X124075079Y-117304809D01*
X124013678Y-117343390D01*
X123946441Y-117362390D01*
X123879606Y-117342022D01*
X123860025Y-117326076D01*
X123809478Y-117275528D01*
X123809477Y-117275527D01*
X123663995Y-117187580D01*
X123663996Y-117187580D01*
X123501705Y-117137009D01*
X123501706Y-117137009D01*
X123431172Y-117130600D01*
X123424600Y-117130600D01*
X123424600Y-118255976D01*
X123410095Y-118183055D01*
X123354840Y-118100360D01*
X123272145Y-118045105D01*
X123199224Y-118030600D01*
X123149976Y-118030600D01*
X123077055Y-118045105D01*
X122994360Y-118100360D01*
X122939105Y-118183055D01*
X122919702Y-118280600D01*
X105208034Y-118280600D01*
X105208034Y-118030600D01*
X122274600Y-118030600D01*
X122924600Y-118030600D01*
X122924600Y-117130600D01*
X122924599Y-117130599D01*
X122918036Y-117130600D01*
X122918017Y-117130601D01*
X122847497Y-117137008D01*
X122847492Y-117137009D01*
X122685203Y-117187581D01*
X122539722Y-117275527D01*
X122419527Y-117395722D01*
X122331580Y-117541204D01*
X122281009Y-117703493D01*
X122274600Y-117774027D01*
X122274600Y-118030600D01*
X105208034Y-118030600D01*
X105208034Y-114223800D01*
X108539106Y-114223800D01*
X108557415Y-114374591D01*
X108611279Y-114516619D01*
X108697568Y-114641630D01*
X108811266Y-114742357D01*
X108945766Y-114812948D01*
X109019508Y-114831124D01*
X109093250Y-114849300D01*
X109093251Y-114849300D01*
X109245150Y-114849300D01*
X109294310Y-114837182D01*
X109392634Y-114812948D01*
X109527134Y-114742357D01*
X109640832Y-114641630D01*
X109727121Y-114516619D01*
X109780985Y-114374591D01*
X109795389Y-114255963D01*
X122358700Y-114255963D01*
X122374153Y-114373353D01*
X122374156Y-114373362D01*
X122433495Y-114516620D01*
X122434664Y-114519441D01*
X122530918Y-114644882D01*
X122656359Y-114741136D01*
X122802438Y-114801644D01*
X122919839Y-114817100D01*
X123398560Y-114817099D01*
X123398563Y-114817099D01*
X123515953Y-114801646D01*
X123515957Y-114801644D01*
X123515962Y-114801644D01*
X123662041Y-114741136D01*
X123692282Y-114717930D01*
X123757451Y-114692736D01*
X123825896Y-114706774D01*
X123840655Y-114715988D01*
X123956722Y-114800317D01*
X124129556Y-114877266D01*
X124159199Y-114883566D01*
X124159200Y-114883566D01*
X124159200Y-113791223D01*
X124173705Y-113864145D01*
X124228960Y-113946840D01*
X124311655Y-114002095D01*
X124384576Y-114016600D01*
X124433824Y-114016600D01*
X124659200Y-114016600D01*
X124659200Y-114883566D01*
X124688843Y-114877266D01*
X124861679Y-114800314D01*
X125014735Y-114689112D01*
X125141327Y-114548518D01*
X125141329Y-114548515D01*
X125235916Y-114384684D01*
X125235921Y-114384672D01*
X125294380Y-114204754D01*
X125309200Y-114063759D01*
X125309200Y-114016600D01*
X124659200Y-114016600D01*
X124433824Y-114016600D01*
X124506745Y-114002095D01*
X124589440Y-113946840D01*
X124644695Y-113864145D01*
X124664098Y-113766600D01*
X124644695Y-113669055D01*
X124589440Y-113586360D01*
X124506745Y-113531105D01*
X124433824Y-113516600D01*
X124384576Y-113516600D01*
X124311655Y-113531105D01*
X124228960Y-113586360D01*
X124173705Y-113669055D01*
X124159200Y-113741976D01*
X124159200Y-112649632D01*
X124659200Y-112649632D01*
X124659200Y-113516600D01*
X125309200Y-113516600D01*
X125309200Y-113469440D01*
X125294380Y-113328445D01*
X125235921Y-113148527D01*
X125235916Y-113148515D01*
X125141329Y-112984684D01*
X125141327Y-112984681D01*
X125014739Y-112844090D01*
X125014736Y-112844088D01*
X124861677Y-112732882D01*
X124688848Y-112655935D01*
X124659200Y-112649632D01*
X124159200Y-112649632D01*
X124129554Y-112655934D01*
X123956715Y-112732887D01*
X123840654Y-112817211D01*
X123774847Y-112840691D01*
X123706794Y-112824865D01*
X123692283Y-112815269D01*
X123662042Y-112792064D01*
X123515962Y-112731556D01*
X123515960Y-112731555D01*
X123398561Y-112716100D01*
X122919836Y-112716100D01*
X122802446Y-112731553D01*
X122802437Y-112731556D01*
X122656360Y-112792063D01*
X122530918Y-112888318D01*
X122434663Y-113013760D01*
X122374156Y-113159837D01*
X122374155Y-113159839D01*
X122358701Y-113277229D01*
X122358700Y-113277245D01*
X122358700Y-114255963D01*
X109795389Y-114255963D01*
X109799294Y-114223800D01*
X109780985Y-114073009D01*
X109727121Y-113930981D01*
X109640832Y-113805970D01*
X109527134Y-113705243D01*
X109392634Y-113634652D01*
X109392633Y-113634651D01*
X109392632Y-113634651D01*
X109245150Y-113598300D01*
X109245149Y-113598300D01*
X109093251Y-113598300D01*
X109093250Y-113598300D01*
X108945767Y-113634651D01*
X108811267Y-113705242D01*
X108697567Y-113805971D01*
X108611280Y-113930979D01*
X108611279Y-113930980D01*
X108590839Y-113984878D01*
X108557415Y-114073009D01*
X108539106Y-114223800D01*
X105208034Y-114223800D01*
X105208034Y-111633000D01*
X108539106Y-111633000D01*
X108557415Y-111783791D01*
X108611279Y-111925819D01*
X108697568Y-112050830D01*
X108811266Y-112151557D01*
X108945766Y-112222148D01*
X109019508Y-112240324D01*
X109093250Y-112258500D01*
X109093251Y-112258500D01*
X109245150Y-112258500D01*
X109294310Y-112246382D01*
X109392634Y-112222148D01*
X109527134Y-112151557D01*
X109640832Y-112050830D01*
X109727121Y-111925819D01*
X109780985Y-111783791D01*
X109799294Y-111633000D01*
X109780985Y-111482209D01*
X109727121Y-111340181D01*
X109640832Y-111215170D01*
X109527134Y-111114443D01*
X109392634Y-111043852D01*
X109392633Y-111043851D01*
X109392632Y-111043851D01*
X109245150Y-111007500D01*
X109245149Y-111007500D01*
X109093251Y-111007500D01*
X109093250Y-111007500D01*
X108945767Y-111043851D01*
X108811267Y-111114442D01*
X108697567Y-111215171D01*
X108611280Y-111340179D01*
X108611279Y-111340180D01*
X108558329Y-111479800D01*
X108557415Y-111482209D01*
X108539106Y-111633000D01*
X105208034Y-111633000D01*
X105208034Y-109093000D01*
X108513706Y-109093000D01*
X108532015Y-109243791D01*
X108585879Y-109385819D01*
X108672168Y-109510830D01*
X108785866Y-109611557D01*
X108920366Y-109682148D01*
X108994108Y-109700324D01*
X109067850Y-109718500D01*
X109067851Y-109718500D01*
X109219750Y-109718500D01*
X109268910Y-109706382D01*
X109367234Y-109682148D01*
X109501734Y-109611557D01*
X109615432Y-109510830D01*
X109701721Y-109385819D01*
X109755585Y-109243791D01*
X109773894Y-109093000D01*
X109755585Y-108942209D01*
X109701721Y-108800181D01*
X109658386Y-108737400D01*
X116514706Y-108737400D01*
X116533015Y-108888191D01*
X116586879Y-109030219D01*
X116673168Y-109155230D01*
X116786866Y-109255957D01*
X116921366Y-109326548D01*
X116995108Y-109344724D01*
X117068850Y-109362900D01*
X117068851Y-109362900D01*
X117220750Y-109362900D01*
X117269910Y-109350782D01*
X117368234Y-109326548D01*
X117502734Y-109255957D01*
X117616432Y-109155230D01*
X117626075Y-109141259D01*
X117680354Y-109097269D01*
X117749802Y-109089607D01*
X117810351Y-109118881D01*
X117879066Y-109179757D01*
X118013566Y-109250348D01*
X118087308Y-109268524D01*
X118161050Y-109286700D01*
X118161051Y-109286700D01*
X118312950Y-109286700D01*
X118362110Y-109274582D01*
X118460434Y-109250348D01*
X118594934Y-109179757D01*
X118708632Y-109079030D01*
X118794921Y-108954019D01*
X118848785Y-108811991D01*
X118867094Y-108661200D01*
X118848785Y-108510409D01*
X118794921Y-108368381D01*
X118708632Y-108243370D01*
X118606850Y-108153200D01*
X125506306Y-108153200D01*
X125524615Y-108303991D01*
X125578479Y-108446019D01*
X125664768Y-108571030D01*
X125778466Y-108671757D01*
X125912966Y-108742348D01*
X125986708Y-108760524D01*
X126060450Y-108778700D01*
X126060451Y-108778700D01*
X126212350Y-108778700D01*
X126261510Y-108766582D01*
X126359834Y-108742348D01*
X126494334Y-108671757D01*
X126608032Y-108571030D01*
X126694321Y-108446019D01*
X126748185Y-108303991D01*
X126766494Y-108153200D01*
X126748185Y-108002409D01*
X126694321Y-107860381D01*
X126608032Y-107735370D01*
X126494334Y-107634643D01*
X126359834Y-107564052D01*
X126359833Y-107564051D01*
X126359832Y-107564051D01*
X126212350Y-107527700D01*
X126212349Y-107527700D01*
X126060451Y-107527700D01*
X126060450Y-107527700D01*
X125912967Y-107564051D01*
X125778467Y-107634642D01*
X125664767Y-107735371D01*
X125578480Y-107860379D01*
X125578479Y-107860380D01*
X125578479Y-107860381D01*
X125524615Y-108002409D01*
X125506306Y-108153200D01*
X118606850Y-108153200D01*
X118594934Y-108142643D01*
X118460434Y-108072052D01*
X118460433Y-108072051D01*
X118460432Y-108072051D01*
X118312950Y-108035700D01*
X118312949Y-108035700D01*
X118161051Y-108035700D01*
X118161050Y-108035700D01*
X118013567Y-108072051D01*
X117879067Y-108142642D01*
X117765367Y-108243370D01*
X117755723Y-108257343D01*
X117701439Y-108301332D01*
X117631990Y-108308990D01*
X117571447Y-108279717D01*
X117569692Y-108278162D01*
X117502734Y-108218843D01*
X117368234Y-108148252D01*
X117368233Y-108148251D01*
X117368232Y-108148251D01*
X117220750Y-108111900D01*
X117220749Y-108111900D01*
X117068851Y-108111900D01*
X117068850Y-108111900D01*
X116921367Y-108148251D01*
X116786867Y-108218842D01*
X116759179Y-108243371D01*
X116685111Y-108308990D01*
X116673167Y-108319571D01*
X116586880Y-108444579D01*
X116586879Y-108444580D01*
X116561914Y-108510409D01*
X116533015Y-108586609D01*
X116514706Y-108737400D01*
X109658386Y-108737400D01*
X109615432Y-108675170D01*
X109501734Y-108574443D01*
X109367234Y-108503852D01*
X109367233Y-108503851D01*
X109367232Y-108503851D01*
X109219750Y-108467500D01*
X109219749Y-108467500D01*
X109067851Y-108467500D01*
X109067850Y-108467500D01*
X108920367Y-108503851D01*
X108785867Y-108574442D01*
X108672167Y-108675171D01*
X108585880Y-108800179D01*
X108585879Y-108800180D01*
X108585879Y-108800181D01*
X108532015Y-108942209D01*
X108513706Y-109093000D01*
X105208034Y-109093000D01*
X105208034Y-106476800D01*
X108564506Y-106476800D01*
X108582815Y-106627591D01*
X108636679Y-106769619D01*
X108722968Y-106894630D01*
X108836666Y-106995357D01*
X108971166Y-107065948D01*
X109044908Y-107084124D01*
X109118650Y-107102300D01*
X109118651Y-107102300D01*
X109270550Y-107102300D01*
X109319710Y-107090182D01*
X109418034Y-107065948D01*
X109552534Y-106995357D01*
X109666232Y-106894630D01*
X109752521Y-106769619D01*
X109776876Y-106705400D01*
X121696306Y-106705400D01*
X121714615Y-106856191D01*
X121768479Y-106998219D01*
X121854768Y-107123230D01*
X121968466Y-107223957D01*
X122102966Y-107294548D01*
X122176708Y-107312724D01*
X122250450Y-107330900D01*
X122250451Y-107330900D01*
X122402350Y-107330900D01*
X122451510Y-107318782D01*
X122549834Y-107294548D01*
X122684334Y-107223957D01*
X122798032Y-107123230D01*
X122884321Y-106998219D01*
X122938185Y-106856191D01*
X122956494Y-106705400D01*
X122938185Y-106554609D01*
X122937575Y-106553000D01*
X124947506Y-106553000D01*
X124965815Y-106703791D01*
X125019679Y-106845819D01*
X125105968Y-106970830D01*
X125219666Y-107071557D01*
X125354166Y-107142148D01*
X125427908Y-107160324D01*
X125501650Y-107178500D01*
X125501651Y-107178500D01*
X125653550Y-107178500D01*
X125702710Y-107166382D01*
X125801034Y-107142148D01*
X125935534Y-107071557D01*
X126049232Y-106970830D01*
X126135521Y-106845819D01*
X126189385Y-106703791D01*
X126207694Y-106553000D01*
X126189385Y-106402209D01*
X126135521Y-106260181D01*
X126049232Y-106135170D01*
X125935534Y-106034443D01*
X125801034Y-105963852D01*
X125801033Y-105963851D01*
X125801032Y-105963851D01*
X125653550Y-105927500D01*
X125653549Y-105927500D01*
X125501651Y-105927500D01*
X125501650Y-105927500D01*
X125354167Y-105963851D01*
X125219667Y-106034442D01*
X125105967Y-106135171D01*
X125019680Y-106260179D01*
X125019679Y-106260180D01*
X124994714Y-106326009D01*
X124965815Y-106402209D01*
X124947506Y-106553000D01*
X122937575Y-106553000D01*
X122884321Y-106412581D01*
X122798032Y-106287570D01*
X122684334Y-106186843D01*
X122549834Y-106116252D01*
X122549833Y-106116251D01*
X122549832Y-106116251D01*
X122402350Y-106079900D01*
X122402349Y-106079900D01*
X122250451Y-106079900D01*
X122250450Y-106079900D01*
X122102967Y-106116251D01*
X121968467Y-106186842D01*
X121854767Y-106287571D01*
X121768480Y-106412579D01*
X121768479Y-106412580D01*
X121714615Y-106554608D01*
X121705117Y-106632831D01*
X121696306Y-106705400D01*
X109776876Y-106705400D01*
X109806385Y-106627591D01*
X109824694Y-106476800D01*
X109806385Y-106326009D01*
X109752521Y-106183981D01*
X109666232Y-106058970D01*
X109621792Y-106019600D01*
X113568306Y-106019600D01*
X113586615Y-106170391D01*
X113640479Y-106312419D01*
X113726768Y-106437430D01*
X113840466Y-106538157D01*
X113974966Y-106608748D01*
X114048708Y-106626924D01*
X114122450Y-106645100D01*
X114122451Y-106645100D01*
X114274350Y-106645100D01*
X114345385Y-106627591D01*
X114421834Y-106608748D01*
X114556334Y-106538157D01*
X114670032Y-106437430D01*
X114756321Y-106312419D01*
X114810185Y-106170391D01*
X114828494Y-106019600D01*
X114816158Y-105918000D01*
X127893906Y-105918000D01*
X127912215Y-106068791D01*
X127966079Y-106210819D01*
X128052368Y-106335830D01*
X128166066Y-106436557D01*
X128300566Y-106507148D01*
X128374308Y-106525324D01*
X128448050Y-106543500D01*
X128448051Y-106543500D01*
X128599950Y-106543500D01*
X128649110Y-106531382D01*
X128747434Y-106507148D01*
X128881934Y-106436557D01*
X128995632Y-106335830D01*
X129081921Y-106210819D01*
X129135785Y-106068791D01*
X129141758Y-106019600D01*
X134624906Y-106019600D01*
X134643215Y-106170391D01*
X134697079Y-106312419D01*
X134783368Y-106437430D01*
X134897066Y-106538157D01*
X135031566Y-106608748D01*
X135105308Y-106626924D01*
X135179050Y-106645100D01*
X135179051Y-106645100D01*
X135330948Y-106645100D01*
X135330949Y-106645100D01*
X135380725Y-106632831D01*
X135450526Y-106635900D01*
X135507589Y-106676219D01*
X135533794Y-106740988D01*
X135534400Y-106753228D01*
X135534400Y-120446800D01*
X135534399Y-120446800D01*
X136261411Y-120452726D01*
X136328287Y-120472956D01*
X136373610Y-120526132D01*
X136382990Y-120595369D01*
X136353448Y-120658686D01*
X136342627Y-120669537D01*
X136328369Y-120682168D01*
X136242080Y-120807179D01*
X136242079Y-120807180D01*
X136190084Y-120944282D01*
X136188215Y-120949209D01*
X136169906Y-121100000D01*
X136188215Y-121250791D01*
X136242079Y-121392819D01*
X136328368Y-121517830D01*
X136442066Y-121618557D01*
X136576566Y-121689148D01*
X136650308Y-121707324D01*
X136724050Y-121725500D01*
X136724051Y-121725500D01*
X136875950Y-121725500D01*
X136925110Y-121713382D01*
X137023434Y-121689148D01*
X137157934Y-121618557D01*
X137271632Y-121517830D01*
X137357921Y-121392819D01*
X137411785Y-121250791D01*
X137430094Y-121100000D01*
X137411785Y-120949209D01*
X137357921Y-120807181D01*
X137271632Y-120682170D01*
X137267393Y-120678414D01*
X137230268Y-120619227D01*
X137231035Y-120549361D01*
X137269452Y-120491001D01*
X137333322Y-120462676D01*
X137350627Y-120461604D01*
X143939270Y-120515309D01*
X144006146Y-120535539D01*
X144051469Y-120588715D01*
X144060849Y-120657952D01*
X144044237Y-120699839D01*
X144045566Y-120700537D01*
X144042079Y-120707180D01*
X143988215Y-120849208D01*
X143976073Y-120949208D01*
X143969906Y-121000000D01*
X143988215Y-121150791D01*
X144042079Y-121292819D01*
X144128368Y-121417830D01*
X144242066Y-121518557D01*
X144376566Y-121589148D01*
X144450308Y-121607324D01*
X144524050Y-121625500D01*
X144524051Y-121625500D01*
X144675950Y-121625500D01*
X144725110Y-121613382D01*
X144823434Y-121589148D01*
X144957934Y-121518557D01*
X145071632Y-121417830D01*
X145157921Y-121292819D01*
X145211785Y-121150791D01*
X145230094Y-121000000D01*
X145211785Y-120849209D01*
X145157921Y-120707181D01*
X145157920Y-120707179D01*
X145155261Y-120700168D01*
X145156605Y-120699658D01*
X145144504Y-120639264D01*
X145169995Y-120574210D01*
X145226610Y-120533265D01*
X145269035Y-120526148D01*
X147802600Y-120546800D01*
X147802799Y-120438363D01*
X150164787Y-120438363D01*
X150194413Y-120707613D01*
X150194415Y-120707624D01*
X150257574Y-120949209D01*
X150262928Y-120969688D01*
X150368870Y-121218990D01*
X150490221Y-121417830D01*
X150509979Y-121450205D01*
X150509986Y-121450215D01*
X150683253Y-121658419D01*
X150683259Y-121658424D01*
X150779462Y-121744622D01*
X150884998Y-121839182D01*
X151110910Y-121988644D01*
X151356176Y-122103620D01*
X151356183Y-122103622D01*
X151356185Y-122103623D01*
X151615557Y-122181657D01*
X151615564Y-122181658D01*
X151615569Y-122181660D01*
X151883561Y-122221100D01*
X151883566Y-122221100D01*
X152086636Y-122221100D01*
X152138133Y-122217330D01*
X152289156Y-122206277D01*
X152403194Y-122180874D01*
X152553546Y-122147382D01*
X152553548Y-122147381D01*
X152553553Y-122147380D01*
X152806558Y-122050614D01*
X153042777Y-121918041D01*
X153257177Y-121752488D01*
X153445186Y-121557481D01*
X153602799Y-121337179D01*
X153676787Y-121193269D01*
X153726649Y-121096290D01*
X153726651Y-121096284D01*
X153726656Y-121096275D01*
X153814118Y-120839905D01*
X153863319Y-120573533D01*
X153873212Y-120302835D01*
X153843586Y-120033582D01*
X153775072Y-119771512D01*
X153669130Y-119522210D01*
X153528018Y-119290990D01*
X153487712Y-119242557D01*
X153354746Y-119082780D01*
X153354740Y-119082775D01*
X153153002Y-118902018D01*
X152927092Y-118752557D01*
X152872909Y-118727157D01*
X152681824Y-118637580D01*
X152681819Y-118637578D01*
X152681814Y-118637576D01*
X152422442Y-118559542D01*
X152422428Y-118559539D01*
X152306791Y-118542521D01*
X152154439Y-118520100D01*
X151951369Y-118520100D01*
X151951364Y-118520100D01*
X151748844Y-118534923D01*
X151748831Y-118534925D01*
X151484453Y-118593817D01*
X151484446Y-118593820D01*
X151231439Y-118690587D01*
X150995226Y-118823157D01*
X150995224Y-118823158D01*
X150995223Y-118823159D01*
X150932893Y-118871288D01*
X150780822Y-118988712D01*
X150592822Y-119183709D01*
X150592816Y-119183716D01*
X150435202Y-119404019D01*
X150435199Y-119404024D01*
X150311350Y-119644909D01*
X150311343Y-119644927D01*
X150223884Y-119901285D01*
X150223881Y-119901299D01*
X150204140Y-120008175D01*
X150179373Y-120142268D01*
X150174681Y-120167668D01*
X150174680Y-120167675D01*
X150164787Y-120438363D01*
X147802799Y-120438363D01*
X147815772Y-113354803D01*
X154244435Y-113354803D01*
X154264630Y-113534049D01*
X154264631Y-113534054D01*
X154324211Y-113704323D01*
X154416253Y-113850806D01*
X154435253Y-113918043D01*
X154414885Y-113984878D01*
X154409635Y-113992264D01*
X154325464Y-114101957D01*
X154264956Y-114248037D01*
X154264955Y-114248039D01*
X154249500Y-114365438D01*
X154249500Y-114844163D01*
X154264953Y-114961553D01*
X154264956Y-114961562D01*
X154325464Y-115107641D01*
X154421718Y-115233082D01*
X154547159Y-115329336D01*
X154693238Y-115389844D01*
X154810639Y-115405300D01*
X155789360Y-115405299D01*
X155789363Y-115405299D01*
X155906753Y-115389846D01*
X155906757Y-115389844D01*
X155906762Y-115389844D01*
X156052841Y-115329336D01*
X156178282Y-115233082D01*
X156274536Y-115107641D01*
X156335044Y-114961562D01*
X156350500Y-114844161D01*
X156350499Y-114365440D01*
X156350499Y-114365438D01*
X156350499Y-114365436D01*
X156335046Y-114248046D01*
X156335044Y-114248039D01*
X156335044Y-114248038D01*
X156274536Y-114101959D01*
X156190362Y-113992262D01*
X156165170Y-113927095D01*
X156179208Y-113858651D01*
X156183740Y-113850815D01*
X156246045Y-113751658D01*
X156275788Y-113704324D01*
X156288129Y-113669055D01*
X156335368Y-113534055D01*
X156335369Y-113534049D01*
X156351280Y-113392835D01*
X156366936Y-113355575D01*
X156355523Y-113337816D01*
X156351280Y-113316764D01*
X156335369Y-113175550D01*
X156335368Y-113175545D01*
X156278757Y-113013760D01*
X156275789Y-113005278D01*
X156179816Y-112852538D01*
X156144759Y-112817481D01*
X156111274Y-112756158D01*
X156116258Y-112686466D01*
X156144759Y-112642119D01*
X156179816Y-112607062D01*
X156275789Y-112454322D01*
X156335368Y-112284055D01*
X156335369Y-112284049D01*
X156351280Y-112142835D01*
X156366936Y-112105575D01*
X156355523Y-112087816D01*
X156351280Y-112066764D01*
X156335369Y-111925550D01*
X156335368Y-111925545D01*
X156275788Y-111755276D01*
X156236582Y-111692880D01*
X156179816Y-111602538D01*
X156144759Y-111567481D01*
X156111274Y-111506158D01*
X156116258Y-111436466D01*
X156144759Y-111392119D01*
X156179816Y-111357062D01*
X156275789Y-111204322D01*
X156335368Y-111034055D01*
X156338360Y-111007500D01*
X156351280Y-110892835D01*
X156366936Y-110855575D01*
X156355523Y-110837816D01*
X156351280Y-110816764D01*
X156335369Y-110675550D01*
X156335368Y-110675545D01*
X156275788Y-110505276D01*
X156179815Y-110352537D01*
X156052262Y-110224984D01*
X155899523Y-110129011D01*
X155729254Y-110069431D01*
X155729249Y-110069430D01*
X155594960Y-110054300D01*
X155594954Y-110054300D01*
X155005046Y-110054300D01*
X155005039Y-110054300D01*
X154870750Y-110069430D01*
X154870745Y-110069431D01*
X154700476Y-110129011D01*
X154547737Y-110224984D01*
X154420184Y-110352537D01*
X154324211Y-110505276D01*
X154264631Y-110675545D01*
X154264630Y-110675550D01*
X154244435Y-110854796D01*
X154244435Y-110854803D01*
X154264630Y-111034049D01*
X154264631Y-111034054D01*
X154324211Y-111204323D01*
X154420184Y-111357062D01*
X154455241Y-111392119D01*
X154488726Y-111453442D01*
X154483742Y-111523134D01*
X154455241Y-111567481D01*
X154420184Y-111602537D01*
X154324211Y-111755276D01*
X154264631Y-111925545D01*
X154264630Y-111925550D01*
X154244435Y-112104796D01*
X154244435Y-112104803D01*
X154264630Y-112284049D01*
X154264631Y-112284054D01*
X154324211Y-112454323D01*
X154420184Y-112607062D01*
X154455241Y-112642119D01*
X154488726Y-112703442D01*
X154483742Y-112773134D01*
X154455241Y-112817481D01*
X154420184Y-112852537D01*
X154324211Y-113005276D01*
X154264631Y-113175545D01*
X154264630Y-113175550D01*
X154244435Y-113354796D01*
X154244435Y-113354803D01*
X147815772Y-113354803D01*
X147828000Y-106678400D01*
X135845998Y-106605690D01*
X135779079Y-106585599D01*
X135733645Y-106532518D01*
X135724121Y-106463300D01*
X135744699Y-106411254D01*
X135812921Y-106312419D01*
X135866785Y-106170391D01*
X135868827Y-106153573D01*
X135896447Y-106089394D01*
X135954381Y-106050337D01*
X135991724Y-106044517D01*
X151739600Y-106019600D01*
X151739600Y-102077203D01*
X154244435Y-102077203D01*
X154264630Y-102256449D01*
X154264631Y-102256454D01*
X154324211Y-102426723D01*
X154416253Y-102573206D01*
X154435253Y-102640443D01*
X154414885Y-102707278D01*
X154409635Y-102714664D01*
X154325464Y-102824357D01*
X154264956Y-102970437D01*
X154264955Y-102970439D01*
X154249500Y-103087838D01*
X154249500Y-103566563D01*
X154264953Y-103683953D01*
X154264956Y-103683962D01*
X154325464Y-103830041D01*
X154421718Y-103955482D01*
X154547159Y-104051736D01*
X154693238Y-104112244D01*
X154810639Y-104127700D01*
X155789360Y-104127699D01*
X155789363Y-104127699D01*
X155906753Y-104112246D01*
X155906757Y-104112244D01*
X155906762Y-104112244D01*
X156052841Y-104051736D01*
X156178282Y-103955482D01*
X156274536Y-103830041D01*
X156335044Y-103683962D01*
X156350500Y-103566561D01*
X156350499Y-103087840D01*
X156350499Y-103087838D01*
X156350499Y-103087836D01*
X156335046Y-102970446D01*
X156335044Y-102970439D01*
X156335044Y-102970438D01*
X156274536Y-102824359D01*
X156190362Y-102714662D01*
X156165170Y-102649495D01*
X156179208Y-102581051D01*
X156183740Y-102573215D01*
X156275789Y-102426722D01*
X156335368Y-102256455D01*
X156335369Y-102256449D01*
X156351280Y-102115235D01*
X156366936Y-102077975D01*
X156355523Y-102060216D01*
X156351280Y-102039164D01*
X156335369Y-101897950D01*
X156335368Y-101897945D01*
X156306210Y-101814616D01*
X156275789Y-101727678D01*
X156265372Y-101711100D01*
X156179815Y-101574937D01*
X156144759Y-101539881D01*
X156111274Y-101478558D01*
X156116258Y-101408866D01*
X156144759Y-101364519D01*
X156179816Y-101329462D01*
X156275789Y-101176722D01*
X156335368Y-101006455D01*
X156336583Y-100995673D01*
X156351280Y-100865235D01*
X156366936Y-100827975D01*
X156355523Y-100810216D01*
X156351280Y-100789164D01*
X156335369Y-100647950D01*
X156335368Y-100647945D01*
X156300378Y-100547949D01*
X156275789Y-100477678D01*
X156179816Y-100324938D01*
X156144759Y-100289881D01*
X156111274Y-100228558D01*
X156116258Y-100158866D01*
X156144759Y-100114519D01*
X156157878Y-100101400D01*
X156179816Y-100079462D01*
X156275789Y-99926722D01*
X156335368Y-99756455D01*
X156338461Y-99729006D01*
X156351280Y-99615235D01*
X156366936Y-99577975D01*
X156355523Y-99560216D01*
X156351280Y-99539164D01*
X156335369Y-99397950D01*
X156335368Y-99397945D01*
X156294546Y-99281282D01*
X156275789Y-99227678D01*
X156273959Y-99224766D01*
X156236582Y-99165280D01*
X156179816Y-99074938D01*
X156052262Y-98947384D01*
X155996821Y-98912548D01*
X155899523Y-98851411D01*
X155729254Y-98791831D01*
X155729249Y-98791830D01*
X155594960Y-98776700D01*
X155594954Y-98776700D01*
X155005046Y-98776700D01*
X155005039Y-98776700D01*
X154870750Y-98791830D01*
X154870745Y-98791831D01*
X154700476Y-98851411D01*
X154547737Y-98947384D01*
X154420184Y-99074937D01*
X154324211Y-99227676D01*
X154264631Y-99397945D01*
X154264630Y-99397950D01*
X154244435Y-99577196D01*
X154244435Y-99577203D01*
X154264630Y-99756449D01*
X154264631Y-99756454D01*
X154324211Y-99926723D01*
X154420184Y-100079462D01*
X154455241Y-100114519D01*
X154488726Y-100175842D01*
X154483742Y-100245534D01*
X154455241Y-100289881D01*
X154420184Y-100324937D01*
X154324211Y-100477676D01*
X154264631Y-100647945D01*
X154264630Y-100647950D01*
X154244435Y-100827196D01*
X154244435Y-100827203D01*
X154264630Y-101006449D01*
X154264631Y-101006454D01*
X154324211Y-101176723D01*
X154420184Y-101329462D01*
X154455241Y-101364519D01*
X154488726Y-101425842D01*
X154483742Y-101495534D01*
X154455241Y-101539881D01*
X154420184Y-101574937D01*
X154324211Y-101727676D01*
X154264631Y-101897945D01*
X154264630Y-101897950D01*
X154244435Y-102077196D01*
X154244435Y-102077203D01*
X151739600Y-102077203D01*
X151739600Y-93965403D01*
X154244435Y-93965403D01*
X154264630Y-94144649D01*
X154264631Y-94144654D01*
X154324211Y-94314923D01*
X154416253Y-94461406D01*
X154435253Y-94528643D01*
X154414885Y-94595478D01*
X154409635Y-94602864D01*
X154325464Y-94712557D01*
X154264956Y-94858637D01*
X154264955Y-94858639D01*
X154249500Y-94976038D01*
X154249500Y-95454763D01*
X154264953Y-95572153D01*
X154264956Y-95572162D01*
X154325464Y-95718241D01*
X154421718Y-95843682D01*
X154547159Y-95939936D01*
X154693238Y-96000444D01*
X154810639Y-96015900D01*
X155789360Y-96015899D01*
X155789363Y-96015899D01*
X155906753Y-96000446D01*
X155906757Y-96000444D01*
X155906762Y-96000444D01*
X156052841Y-95939936D01*
X156178282Y-95843682D01*
X156274536Y-95718241D01*
X156335044Y-95572162D01*
X156350500Y-95454761D01*
X156350499Y-94976040D01*
X156350499Y-94976038D01*
X156350499Y-94976036D01*
X156335046Y-94858646D01*
X156335044Y-94858639D01*
X156335044Y-94858638D01*
X156274536Y-94712559D01*
X156190362Y-94602862D01*
X156165170Y-94537695D01*
X156179208Y-94469251D01*
X156183740Y-94461415D01*
X156275789Y-94314922D01*
X156335368Y-94144655D01*
X156335369Y-94144649D01*
X156351280Y-94003435D01*
X156366936Y-93966175D01*
X156355523Y-93948416D01*
X156351280Y-93927364D01*
X156335369Y-93786150D01*
X156335368Y-93786145D01*
X156275788Y-93615876D01*
X156179815Y-93463137D01*
X156144759Y-93428081D01*
X156111274Y-93366758D01*
X156116258Y-93297066D01*
X156144759Y-93252719D01*
X156179816Y-93217662D01*
X156275789Y-93064922D01*
X156335368Y-92894655D01*
X156335369Y-92894649D01*
X156351280Y-92753435D01*
X156366936Y-92716175D01*
X156355523Y-92698416D01*
X156351280Y-92677364D01*
X156335369Y-92536150D01*
X156335368Y-92536145D01*
X156275788Y-92365876D01*
X156179815Y-92213137D01*
X156144759Y-92178081D01*
X156111274Y-92116758D01*
X156116258Y-92047066D01*
X156144759Y-92002719D01*
X156179816Y-91967662D01*
X156275789Y-91814922D01*
X156335368Y-91644655D01*
X156347030Y-91541153D01*
X156351280Y-91503435D01*
X156366936Y-91466175D01*
X156355523Y-91448416D01*
X156351280Y-91427364D01*
X156335369Y-91286150D01*
X156335368Y-91286145D01*
X156275788Y-91115876D01*
X156179815Y-90963137D01*
X156052262Y-90835584D01*
X155899523Y-90739611D01*
X155729254Y-90680031D01*
X155729249Y-90680030D01*
X155594960Y-90664900D01*
X155594954Y-90664900D01*
X155005046Y-90664900D01*
X155005039Y-90664900D01*
X154870750Y-90680030D01*
X154870745Y-90680031D01*
X154700476Y-90739611D01*
X154547737Y-90835584D01*
X154420184Y-90963137D01*
X154324211Y-91115876D01*
X154264631Y-91286145D01*
X154264630Y-91286150D01*
X154244435Y-91465396D01*
X154244435Y-91465403D01*
X154264630Y-91644649D01*
X154264631Y-91644654D01*
X154324211Y-91814923D01*
X154420184Y-91967662D01*
X154455241Y-92002719D01*
X154488726Y-92064042D01*
X154483742Y-92133734D01*
X154455241Y-92178081D01*
X154420184Y-92213137D01*
X154324211Y-92365876D01*
X154264631Y-92536145D01*
X154264630Y-92536150D01*
X154244435Y-92715396D01*
X154244435Y-92715403D01*
X154264630Y-92894649D01*
X154264631Y-92894654D01*
X154324211Y-93064923D01*
X154420184Y-93217662D01*
X154455241Y-93252719D01*
X154488726Y-93314042D01*
X154483742Y-93383734D01*
X154455241Y-93428081D01*
X154420184Y-93463137D01*
X154324211Y-93615876D01*
X154264631Y-93786145D01*
X154264630Y-93786150D01*
X154244435Y-93965396D01*
X154244435Y-93965403D01*
X151739600Y-93965403D01*
X151739600Y-87503000D01*
X150066857Y-87503000D01*
X149999818Y-87483315D01*
X149954063Y-87430511D01*
X149944119Y-87361353D01*
X149964807Y-87308560D01*
X150031720Y-87211620D01*
X150031721Y-87211619D01*
X150085585Y-87069591D01*
X150103894Y-86918800D01*
X150085585Y-86768009D01*
X150031721Y-86625981D01*
X149945432Y-86500970D01*
X149889440Y-86451366D01*
X149852314Y-86392177D01*
X149853082Y-86322312D01*
X149889439Y-86265736D01*
X149970832Y-86193630D01*
X150057121Y-86068619D01*
X150110985Y-85926591D01*
X150129294Y-85775800D01*
X150110985Y-85625009D01*
X150057121Y-85482981D01*
X149970832Y-85357970D01*
X149857134Y-85257243D01*
X149722634Y-85186652D01*
X149722633Y-85186651D01*
X149722632Y-85186651D01*
X149575150Y-85150300D01*
X149575149Y-85150300D01*
X149423251Y-85150300D01*
X149423250Y-85150300D01*
X149275767Y-85186651D01*
X149141267Y-85257242D01*
X149027567Y-85357971D01*
X148941280Y-85482979D01*
X148941279Y-85482980D01*
X148941279Y-85482981D01*
X148887415Y-85625009D01*
X148869106Y-85775800D01*
X148887415Y-85926591D01*
X148941279Y-86068619D01*
X149027568Y-86193630D01*
X149083558Y-86243233D01*
X149120685Y-86302422D01*
X149119917Y-86372287D01*
X149083559Y-86428863D01*
X149002167Y-86500970D01*
X148915880Y-86625979D01*
X148915879Y-86625980D01*
X148862015Y-86768008D01*
X148843706Y-86918800D01*
X148862015Y-87069591D01*
X148915879Y-87211619D01*
X148915879Y-87211620D01*
X148982793Y-87308560D01*
X149004676Y-87374914D01*
X148987211Y-87442566D01*
X148935943Y-87490036D01*
X148880743Y-87503000D01*
X135712200Y-87503000D01*
X135689162Y-104320099D01*
X135669386Y-104387111D01*
X135616519Y-104432794D01*
X135547347Y-104442643D01*
X135507538Y-104429727D01*
X135478434Y-104414452D01*
X135438289Y-104404557D01*
X135330950Y-104378100D01*
X135330949Y-104378100D01*
X135179051Y-104378100D01*
X135179050Y-104378100D01*
X135031567Y-104414451D01*
X134897067Y-104485042D01*
X134783367Y-104585771D01*
X134697080Y-104710779D01*
X134697079Y-104710780D01*
X134643215Y-104852808D01*
X134624906Y-105003600D01*
X134643215Y-105154391D01*
X134697079Y-105296419D01*
X134697080Y-105296420D01*
X134783369Y-105421432D01*
X134788342Y-105427045D01*
X134786558Y-105428625D01*
X134817513Y-105477991D01*
X134816735Y-105547857D01*
X134786655Y-105594661D01*
X134788342Y-105596155D01*
X134783369Y-105601767D01*
X134697080Y-105726779D01*
X134697079Y-105726780D01*
X134681747Y-105767209D01*
X134643215Y-105868809D01*
X134624906Y-106019600D01*
X129141758Y-106019600D01*
X129154094Y-105918000D01*
X129135785Y-105767209D01*
X129081921Y-105625181D01*
X128995632Y-105500170D01*
X128881934Y-105399443D01*
X128747434Y-105328852D01*
X128747433Y-105328851D01*
X128747432Y-105328851D01*
X128599950Y-105292500D01*
X128599949Y-105292500D01*
X128448051Y-105292500D01*
X128448050Y-105292500D01*
X128300567Y-105328851D01*
X128166067Y-105399442D01*
X128052367Y-105500171D01*
X127966080Y-105625179D01*
X127966079Y-105625180D01*
X127927548Y-105726780D01*
X127912215Y-105767209D01*
X127893906Y-105918000D01*
X114816158Y-105918000D01*
X114810185Y-105868809D01*
X114756321Y-105726781D01*
X114670032Y-105601770D01*
X114556334Y-105501043D01*
X114421834Y-105430452D01*
X114421833Y-105430451D01*
X114421832Y-105430451D01*
X114274350Y-105394100D01*
X114274349Y-105394100D01*
X114122451Y-105394100D01*
X114122450Y-105394100D01*
X113974967Y-105430451D01*
X113840467Y-105501042D01*
X113787624Y-105547857D01*
X113726772Y-105601767D01*
X113726767Y-105601771D01*
X113640480Y-105726779D01*
X113640479Y-105726780D01*
X113625147Y-105767209D01*
X113586615Y-105868809D01*
X113568306Y-106019600D01*
X109621792Y-106019600D01*
X109552534Y-105958243D01*
X109418034Y-105887652D01*
X109418033Y-105887651D01*
X109418032Y-105887651D01*
X109270550Y-105851300D01*
X109270549Y-105851300D01*
X109118651Y-105851300D01*
X109118650Y-105851300D01*
X108971167Y-105887651D01*
X108836667Y-105958242D01*
X108836666Y-105958243D01*
X108750654Y-106034443D01*
X108722967Y-106058971D01*
X108636680Y-106183979D01*
X108636679Y-106183980D01*
X108582815Y-106326008D01*
X108573563Y-106402208D01*
X108564506Y-106476800D01*
X105208034Y-106476800D01*
X105208034Y-103886000D01*
X108564506Y-103886000D01*
X108582815Y-104036791D01*
X108636679Y-104178819D01*
X108722968Y-104303830D01*
X108836666Y-104404557D01*
X108971166Y-104475148D01*
X109044908Y-104493324D01*
X109118650Y-104511500D01*
X109118651Y-104511500D01*
X109270550Y-104511500D01*
X109319710Y-104499382D01*
X109418034Y-104475148D01*
X109524253Y-104419400D01*
X116768706Y-104419400D01*
X116787015Y-104570191D01*
X116840879Y-104712219D01*
X116927168Y-104837230D01*
X117040866Y-104937957D01*
X117175366Y-105008548D01*
X117249108Y-105026724D01*
X117322850Y-105044900D01*
X117322851Y-105044900D01*
X117474750Y-105044900D01*
X117523910Y-105032782D01*
X117622234Y-105008548D01*
X117756734Y-104937957D01*
X117870432Y-104837230D01*
X117956721Y-104712219D01*
X118010585Y-104570191D01*
X118028894Y-104419400D01*
X118010585Y-104268609D01*
X117956721Y-104126581D01*
X117897876Y-104041329D01*
X122749484Y-104041329D01*
X122908255Y-104096887D01*
X123076195Y-104115809D01*
X123076203Y-104115809D01*
X123244142Y-104096887D01*
X123402912Y-104041330D01*
X123402913Y-104041329D01*
X124016151Y-104041329D01*
X124174922Y-104096887D01*
X124342862Y-104115809D01*
X124342870Y-104115809D01*
X124510809Y-104096887D01*
X124669579Y-104041330D01*
X124669580Y-104041329D01*
X125282817Y-104041329D01*
X125441588Y-104096887D01*
X125609528Y-104115809D01*
X125609536Y-104115809D01*
X125777475Y-104096887D01*
X125936245Y-104041330D01*
X125936246Y-104041329D01*
X126549484Y-104041329D01*
X126708255Y-104096887D01*
X126876195Y-104115809D01*
X126876203Y-104115809D01*
X127044142Y-104096887D01*
X127202912Y-104041330D01*
X127202913Y-104041329D01*
X126876200Y-103714616D01*
X126876199Y-103714616D01*
X126549484Y-104041329D01*
X125936246Y-104041329D01*
X125609533Y-103714616D01*
X125609532Y-103714616D01*
X125282817Y-104041329D01*
X124669580Y-104041329D01*
X124342867Y-103714616D01*
X124342866Y-103714616D01*
X124016151Y-104041329D01*
X123402913Y-104041329D01*
X123076200Y-103714616D01*
X123076199Y-103714616D01*
X122749484Y-104041329D01*
X117897876Y-104041329D01*
X117870432Y-104001570D01*
X117756734Y-103900843D01*
X117622234Y-103830252D01*
X117622233Y-103830251D01*
X117622232Y-103830251D01*
X117474750Y-103793900D01*
X117474749Y-103793900D01*
X117322851Y-103793900D01*
X117322850Y-103793900D01*
X117175367Y-103830251D01*
X117040867Y-103900842D01*
X116927167Y-104001571D01*
X116840880Y-104126579D01*
X116840879Y-104126580D01*
X116787015Y-104268608D01*
X116770508Y-104404557D01*
X116768706Y-104419400D01*
X109524253Y-104419400D01*
X109552534Y-104404557D01*
X109666232Y-104303830D01*
X109752521Y-104178819D01*
X109806385Y-104036791D01*
X109824694Y-103886000D01*
X109806385Y-103735209D01*
X109752521Y-103593181D01*
X109666232Y-103468170D01*
X109552534Y-103367443D01*
X109418034Y-103296852D01*
X109418033Y-103296851D01*
X109418032Y-103296851D01*
X109270550Y-103260500D01*
X109270549Y-103260500D01*
X109118651Y-103260500D01*
X109118650Y-103260500D01*
X108971167Y-103296851D01*
X108836667Y-103367442D01*
X108836666Y-103367443D01*
X108747849Y-103446128D01*
X108722967Y-103468171D01*
X108636680Y-103593179D01*
X108636679Y-103593180D01*
X108582815Y-103735208D01*
X108571275Y-103830251D01*
X108564506Y-103886000D01*
X105208034Y-103886000D01*
X105208034Y-103149400D01*
X112653906Y-103149400D01*
X112672215Y-103300191D01*
X112726079Y-103442219D01*
X112812368Y-103567230D01*
X112926066Y-103667957D01*
X113060566Y-103738548D01*
X113134308Y-103756724D01*
X113208050Y-103774900D01*
X113208051Y-103774900D01*
X113359950Y-103774900D01*
X113409110Y-103762782D01*
X113507434Y-103738548D01*
X113641934Y-103667957D01*
X113755632Y-103567230D01*
X113841921Y-103442219D01*
X113872698Y-103361066D01*
X122321453Y-103361066D01*
X122340374Y-103529001D01*
X122340375Y-103529006D01*
X122395931Y-103687777D01*
X122690154Y-103393555D01*
X122976199Y-103393555D01*
X123014396Y-103446128D01*
X123060361Y-103461063D01*
X123092037Y-103461063D01*
X123138002Y-103446128D01*
X123176199Y-103393555D01*
X123176199Y-103361064D01*
X123429752Y-103361064D01*
X123709531Y-103640843D01*
X123709532Y-103640843D01*
X123956821Y-103393555D01*
X124242866Y-103393555D01*
X124281063Y-103446128D01*
X124327028Y-103461063D01*
X124358704Y-103461063D01*
X124404669Y-103446128D01*
X124442866Y-103393555D01*
X124442866Y-103361063D01*
X124696419Y-103361063D01*
X124976199Y-103640843D01*
X125223487Y-103393555D01*
X125509532Y-103393555D01*
X125547729Y-103446128D01*
X125593694Y-103461063D01*
X125625370Y-103461063D01*
X125671335Y-103446128D01*
X125709532Y-103393555D01*
X125709532Y-103361064D01*
X125963085Y-103361064D01*
X126242864Y-103640843D01*
X126242865Y-103640843D01*
X126490154Y-103393555D01*
X126776199Y-103393555D01*
X126814396Y-103446128D01*
X126860361Y-103461063D01*
X126892037Y-103461063D01*
X126938002Y-103446128D01*
X126976199Y-103393555D01*
X126976199Y-103361063D01*
X127229752Y-103361063D01*
X127556465Y-103687776D01*
X127556466Y-103687776D01*
X127612023Y-103529006D01*
X127630945Y-103361066D01*
X127630945Y-103361059D01*
X127612023Y-103193119D01*
X127556465Y-103034348D01*
X127229752Y-103361062D01*
X127229752Y-103361063D01*
X126976199Y-103361063D01*
X126976199Y-103328571D01*
X126938002Y-103275998D01*
X126892037Y-103261063D01*
X126860361Y-103261063D01*
X126814396Y-103275998D01*
X126776199Y-103328571D01*
X126776199Y-103393555D01*
X126490154Y-103393555D01*
X126522646Y-103361063D01*
X126242865Y-103081282D01*
X126242864Y-103081282D01*
X125963085Y-103361062D01*
X125963085Y-103361064D01*
X125709532Y-103361064D01*
X125709532Y-103328571D01*
X125671335Y-103275998D01*
X125625370Y-103261063D01*
X125593694Y-103261063D01*
X125547729Y-103275998D01*
X125509532Y-103328571D01*
X125509532Y-103393555D01*
X125223487Y-103393555D01*
X125255979Y-103361063D01*
X124976199Y-103081283D01*
X124696419Y-103361063D01*
X124442866Y-103361063D01*
X124442866Y-103328571D01*
X124404669Y-103275998D01*
X124358704Y-103261063D01*
X124327028Y-103261063D01*
X124281063Y-103275998D01*
X124242866Y-103328571D01*
X124242866Y-103393555D01*
X123956821Y-103393555D01*
X123989313Y-103361063D01*
X123709532Y-103081282D01*
X123709531Y-103081282D01*
X123429752Y-103361062D01*
X123429752Y-103361064D01*
X123176199Y-103361064D01*
X123176199Y-103328571D01*
X123138002Y-103275998D01*
X123092037Y-103261063D01*
X123060361Y-103261063D01*
X123014396Y-103275998D01*
X122976199Y-103328571D01*
X122976199Y-103393555D01*
X122690154Y-103393555D01*
X122722646Y-103361063D01*
X122395931Y-103034348D01*
X122340375Y-103193116D01*
X122340374Y-103193121D01*
X122321453Y-103361059D01*
X122321453Y-103361066D01*
X113872698Y-103361066D01*
X113895785Y-103300191D01*
X113914094Y-103149400D01*
X113895785Y-102998609D01*
X113841921Y-102856581D01*
X113755632Y-102731570D01*
X113751296Y-102727729D01*
X122796418Y-102727729D01*
X123076199Y-103007510D01*
X123076200Y-103007510D01*
X123355979Y-102727729D01*
X124063085Y-102727729D01*
X124342866Y-103007510D01*
X124342867Y-103007510D01*
X124622646Y-102727729D01*
X125329751Y-102727729D01*
X125609532Y-103007510D01*
X125609533Y-103007510D01*
X125889312Y-102727729D01*
X126596418Y-102727729D01*
X126876199Y-103007510D01*
X126876200Y-103007510D01*
X127155979Y-102727729D01*
X127155979Y-102727728D01*
X126876200Y-102447949D01*
X126876199Y-102447949D01*
X126596418Y-102727728D01*
X126596418Y-102727729D01*
X125889312Y-102727729D01*
X125889312Y-102727728D01*
X125609533Y-102447949D01*
X125609532Y-102447949D01*
X125329751Y-102727728D01*
X125329751Y-102727729D01*
X124622646Y-102727729D01*
X124622646Y-102727728D01*
X124342867Y-102447949D01*
X124342866Y-102447949D01*
X124063085Y-102727728D01*
X124063085Y-102727729D01*
X123355979Y-102727729D01*
X123355979Y-102727728D01*
X123076200Y-102447949D01*
X123076199Y-102447949D01*
X122796418Y-102727728D01*
X122796418Y-102727729D01*
X113751296Y-102727729D01*
X113641934Y-102630843D01*
X113507434Y-102560252D01*
X113507433Y-102560251D01*
X113507432Y-102560251D01*
X113359950Y-102523900D01*
X113359949Y-102523900D01*
X113208051Y-102523900D01*
X113208050Y-102523900D01*
X113060567Y-102560251D01*
X112926067Y-102630842D01*
X112812367Y-102731571D01*
X112726080Y-102856579D01*
X112726079Y-102856580D01*
X112672215Y-102998608D01*
X112662177Y-103081282D01*
X112653906Y-103149400D01*
X105208034Y-103149400D01*
X105208034Y-102961853D01*
X105227719Y-102894814D01*
X105280523Y-102849059D01*
X105349681Y-102839115D01*
X105389660Y-102852057D01*
X105395565Y-102855156D01*
X105395566Y-102855157D01*
X105471126Y-102894814D01*
X105530066Y-102925748D01*
X105677550Y-102962100D01*
X105677551Y-102962100D01*
X105829450Y-102962100D01*
X105878610Y-102949982D01*
X105976934Y-102925748D01*
X106111434Y-102855157D01*
X106225132Y-102754430D01*
X106311421Y-102629419D01*
X106365285Y-102487391D01*
X106383594Y-102336600D01*
X106365285Y-102185809D01*
X106330618Y-102094399D01*
X122321453Y-102094399D01*
X122340374Y-102262334D01*
X122340375Y-102262339D01*
X122395931Y-102421110D01*
X122690154Y-102126888D01*
X122976199Y-102126888D01*
X123014396Y-102179461D01*
X123060361Y-102194396D01*
X123092037Y-102194396D01*
X123138002Y-102179461D01*
X123176199Y-102126888D01*
X123176199Y-102094397D01*
X123429752Y-102094397D01*
X123709531Y-102374176D01*
X123709532Y-102374176D01*
X123956821Y-102126888D01*
X124242866Y-102126888D01*
X124281063Y-102179461D01*
X124327028Y-102194396D01*
X124358704Y-102194396D01*
X124404669Y-102179461D01*
X124442866Y-102126888D01*
X124442866Y-102094396D01*
X124696419Y-102094396D01*
X124976199Y-102374176D01*
X125223487Y-102126888D01*
X125509532Y-102126888D01*
X125547729Y-102179461D01*
X125593694Y-102194396D01*
X125625370Y-102194396D01*
X125671335Y-102179461D01*
X125709532Y-102126888D01*
X125709532Y-102094397D01*
X125963085Y-102094397D01*
X126242864Y-102374176D01*
X126242865Y-102374176D01*
X126490154Y-102126888D01*
X126776199Y-102126888D01*
X126814396Y-102179461D01*
X126860361Y-102194396D01*
X126892037Y-102194396D01*
X126938002Y-102179461D01*
X126976199Y-102126888D01*
X126976199Y-102094396D01*
X127229752Y-102094396D01*
X127556465Y-102421109D01*
X127556466Y-102421109D01*
X127612023Y-102262339D01*
X127630945Y-102094399D01*
X127630945Y-102094392D01*
X127612023Y-101926452D01*
X127556465Y-101767681D01*
X127229752Y-102094395D01*
X127229752Y-102094396D01*
X126976199Y-102094396D01*
X126976199Y-102061904D01*
X126938002Y-102009331D01*
X126892037Y-101994396D01*
X126860361Y-101994396D01*
X126814396Y-102009331D01*
X126776199Y-102061904D01*
X126776199Y-102126888D01*
X126490154Y-102126888D01*
X126522646Y-102094396D01*
X126242865Y-101814615D01*
X126242864Y-101814615D01*
X125963085Y-102094395D01*
X125963085Y-102094397D01*
X125709532Y-102094397D01*
X125709532Y-102061904D01*
X125671335Y-102009331D01*
X125625370Y-101994396D01*
X125593694Y-101994396D01*
X125547729Y-102009331D01*
X125509532Y-102061904D01*
X125509532Y-102126888D01*
X125223487Y-102126888D01*
X125255979Y-102094396D01*
X124976199Y-101814616D01*
X124696419Y-102094396D01*
X124442866Y-102094396D01*
X124442866Y-102061904D01*
X124404669Y-102009331D01*
X124358704Y-101994396D01*
X124327028Y-101994396D01*
X124281063Y-102009331D01*
X124242866Y-102061904D01*
X124242866Y-102126888D01*
X123956821Y-102126888D01*
X123989313Y-102094396D01*
X123709532Y-101814615D01*
X123709531Y-101814615D01*
X123429752Y-102094395D01*
X123429752Y-102094397D01*
X123176199Y-102094397D01*
X123176199Y-102061904D01*
X123138002Y-102009331D01*
X123092037Y-101994396D01*
X123060361Y-101994396D01*
X123014396Y-102009331D01*
X122976199Y-102061904D01*
X122976199Y-102126888D01*
X122690154Y-102126888D01*
X122722646Y-102094396D01*
X122395931Y-101767681D01*
X122340375Y-101926449D01*
X122340374Y-101926454D01*
X122321453Y-102094392D01*
X122321453Y-102094399D01*
X106330618Y-102094399D01*
X106311421Y-102043781D01*
X106225132Y-101918770D01*
X106111434Y-101818043D01*
X105976934Y-101747452D01*
X105976933Y-101747451D01*
X105976932Y-101747451D01*
X105829450Y-101711100D01*
X105829449Y-101711100D01*
X105677551Y-101711100D01*
X105677550Y-101711100D01*
X105530067Y-101747451D01*
X105389659Y-101821143D01*
X105321151Y-101834867D01*
X105256098Y-101809375D01*
X105215154Y-101752759D01*
X105208034Y-101711346D01*
X105208034Y-101461063D01*
X122796419Y-101461063D01*
X123076199Y-101740843D01*
X123355979Y-101461063D01*
X124063086Y-101461063D01*
X124342866Y-101740843D01*
X124622646Y-101461063D01*
X125329752Y-101461063D01*
X125609532Y-101740843D01*
X125889312Y-101461063D01*
X126596419Y-101461063D01*
X126876199Y-101740843D01*
X127155979Y-101461063D01*
X127091716Y-101396800D01*
X129443306Y-101396800D01*
X129461615Y-101547591D01*
X129515479Y-101689619D01*
X129601768Y-101814630D01*
X129715466Y-101915357D01*
X129849966Y-101985948D01*
X129884241Y-101994396D01*
X129997450Y-102022300D01*
X129997451Y-102022300D01*
X130149350Y-102022300D01*
X130201966Y-102009331D01*
X130296834Y-101985948D01*
X130431334Y-101915357D01*
X130545032Y-101814630D01*
X130631321Y-101689619D01*
X130685185Y-101547591D01*
X130703494Y-101396800D01*
X130685185Y-101246009D01*
X130631321Y-101103981D01*
X130545032Y-100978970D01*
X130431334Y-100878243D01*
X130296834Y-100807652D01*
X130296833Y-100807651D01*
X130296832Y-100807651D01*
X130149350Y-100771300D01*
X130149349Y-100771300D01*
X129997451Y-100771300D01*
X129997450Y-100771300D01*
X129849967Y-100807651D01*
X129715467Y-100878242D01*
X129601767Y-100978971D01*
X129515480Y-101103979D01*
X129515479Y-101103980D01*
X129487892Y-101176723D01*
X129461615Y-101246009D01*
X129443306Y-101396800D01*
X127091716Y-101396800D01*
X126876199Y-101181283D01*
X126596419Y-101461063D01*
X125889312Y-101461063D01*
X125609532Y-101181283D01*
X125329752Y-101461063D01*
X124622646Y-101461063D01*
X124342866Y-101181283D01*
X124063086Y-101461063D01*
X123355979Y-101461063D01*
X123076199Y-101181283D01*
X122796419Y-101461063D01*
X105208034Y-101461063D01*
X105208034Y-100431600D01*
X109199506Y-100431600D01*
X109217815Y-100582391D01*
X109271679Y-100724419D01*
X109357968Y-100849430D01*
X109471666Y-100950157D01*
X109606166Y-101020748D01*
X109679908Y-101038924D01*
X109753650Y-101057100D01*
X109753651Y-101057100D01*
X109905550Y-101057100D01*
X109954710Y-101044982D01*
X110053034Y-101020748D01*
X110187534Y-100950157D01*
X110301232Y-100849430D01*
X110316208Y-100827733D01*
X122321453Y-100827733D01*
X122340374Y-100995668D01*
X122340375Y-100995673D01*
X122395931Y-101154444D01*
X122690154Y-100860222D01*
X122976199Y-100860222D01*
X123014396Y-100912795D01*
X123060361Y-100927730D01*
X123092037Y-100927730D01*
X123138002Y-100912795D01*
X123176199Y-100860222D01*
X123176199Y-100827731D01*
X123429752Y-100827731D01*
X123709531Y-101107510D01*
X123709532Y-101107510D01*
X123956821Y-100860222D01*
X124242866Y-100860222D01*
X124281063Y-100912795D01*
X124327028Y-100927730D01*
X124358704Y-100927730D01*
X124404669Y-100912795D01*
X124442866Y-100860222D01*
X124442866Y-100827730D01*
X124696419Y-100827730D01*
X124976199Y-101107510D01*
X125223487Y-100860222D01*
X125509532Y-100860222D01*
X125547729Y-100912795D01*
X125593694Y-100927730D01*
X125625370Y-100927730D01*
X125671335Y-100912795D01*
X125709532Y-100860222D01*
X125709532Y-100827731D01*
X125963085Y-100827731D01*
X126242864Y-101107510D01*
X126242865Y-101107510D01*
X126490154Y-100860222D01*
X126776199Y-100860222D01*
X126814396Y-100912795D01*
X126860361Y-100927730D01*
X126892037Y-100927730D01*
X126938002Y-100912795D01*
X126976199Y-100860222D01*
X126976199Y-100827730D01*
X127229752Y-100827730D01*
X127556465Y-101154443D01*
X127556466Y-101154443D01*
X127612023Y-100995673D01*
X127630945Y-100827733D01*
X127630945Y-100827726D01*
X127612023Y-100659786D01*
X127556465Y-100501015D01*
X127229752Y-100827729D01*
X127229752Y-100827730D01*
X126976199Y-100827730D01*
X126976199Y-100795238D01*
X126938002Y-100742665D01*
X126892037Y-100727730D01*
X126860361Y-100727730D01*
X126814396Y-100742665D01*
X126776199Y-100795238D01*
X126776199Y-100860222D01*
X126490154Y-100860222D01*
X126522646Y-100827730D01*
X126242865Y-100547949D01*
X126242864Y-100547949D01*
X125963085Y-100827729D01*
X125963085Y-100827731D01*
X125709532Y-100827731D01*
X125709532Y-100795238D01*
X125671335Y-100742665D01*
X125625370Y-100727730D01*
X125593694Y-100727730D01*
X125547729Y-100742665D01*
X125509532Y-100795238D01*
X125509532Y-100860222D01*
X125223487Y-100860222D01*
X125255979Y-100827730D01*
X124976199Y-100547950D01*
X124696419Y-100827730D01*
X124442866Y-100827730D01*
X124442866Y-100795238D01*
X124404669Y-100742665D01*
X124358704Y-100727730D01*
X124327028Y-100727730D01*
X124281063Y-100742665D01*
X124242866Y-100795238D01*
X124242866Y-100860222D01*
X123956821Y-100860222D01*
X123989313Y-100827730D01*
X123709532Y-100547949D01*
X123709531Y-100547949D01*
X123429752Y-100827729D01*
X123429752Y-100827731D01*
X123176199Y-100827731D01*
X123176199Y-100795238D01*
X123138002Y-100742665D01*
X123092037Y-100727730D01*
X123060361Y-100727730D01*
X123014396Y-100742665D01*
X122976199Y-100795238D01*
X122976199Y-100860222D01*
X122690154Y-100860222D01*
X122722646Y-100827730D01*
X122395931Y-100501015D01*
X122340375Y-100659783D01*
X122340374Y-100659788D01*
X122321453Y-100827726D01*
X122321453Y-100827733D01*
X110316208Y-100827733D01*
X110387521Y-100724419D01*
X110441385Y-100582391D01*
X110459694Y-100431600D01*
X110441385Y-100280809D01*
X110387521Y-100138781D01*
X110361719Y-100101400D01*
X117022706Y-100101400D01*
X117041015Y-100252191D01*
X117094879Y-100394219D01*
X117181168Y-100519230D01*
X117294866Y-100619957D01*
X117429366Y-100690548D01*
X117473800Y-100701500D01*
X117576850Y-100726900D01*
X117576851Y-100726900D01*
X117728750Y-100726900D01*
X117777910Y-100714782D01*
X117876234Y-100690548D01*
X118010734Y-100619957D01*
X118124432Y-100519230D01*
X118210721Y-100394219D01*
X118264585Y-100252191D01*
X118282894Y-100101400D01*
X118279810Y-100076000D01*
X120426306Y-100076000D01*
X120444615Y-100226791D01*
X120498479Y-100368819D01*
X120584768Y-100493830D01*
X120698466Y-100594557D01*
X120832966Y-100665148D01*
X120906708Y-100683324D01*
X120980450Y-100701500D01*
X120980451Y-100701500D01*
X121132350Y-100701500D01*
X121181510Y-100689382D01*
X121279834Y-100665148D01*
X121414334Y-100594557D01*
X121528032Y-100493830D01*
X121614321Y-100368819D01*
X121668185Y-100226791D01*
X121672118Y-100194396D01*
X122796418Y-100194396D01*
X123076199Y-100474177D01*
X123076200Y-100474177D01*
X123355979Y-100194396D01*
X124063085Y-100194396D01*
X124342866Y-100474177D01*
X124342867Y-100474177D01*
X124622646Y-100194396D01*
X125329751Y-100194396D01*
X125609532Y-100474177D01*
X125609533Y-100474177D01*
X125889312Y-100194396D01*
X126596418Y-100194396D01*
X126876199Y-100474177D01*
X126876200Y-100474177D01*
X127155979Y-100194396D01*
X127155979Y-100194395D01*
X126876200Y-99914616D01*
X126876199Y-99914616D01*
X126596418Y-100194395D01*
X126596418Y-100194396D01*
X125889312Y-100194396D01*
X125889312Y-100194395D01*
X125609533Y-99914616D01*
X125609532Y-99914616D01*
X125329751Y-100194395D01*
X125329751Y-100194396D01*
X124622646Y-100194396D01*
X124622646Y-100194395D01*
X124342867Y-99914616D01*
X124342866Y-99914616D01*
X124063085Y-100194395D01*
X124063085Y-100194396D01*
X123355979Y-100194396D01*
X123355979Y-100194395D01*
X123076200Y-99914616D01*
X123076199Y-99914616D01*
X122796418Y-100194395D01*
X122796418Y-100194396D01*
X121672118Y-100194396D01*
X121686494Y-100076000D01*
X121668185Y-99925209D01*
X121614321Y-99783181D01*
X121528032Y-99658170D01*
X121418424Y-99561066D01*
X122321453Y-99561066D01*
X122340374Y-99729001D01*
X122340375Y-99729006D01*
X122395931Y-99887777D01*
X122690154Y-99593555D01*
X122976199Y-99593555D01*
X123014396Y-99646128D01*
X123060361Y-99661063D01*
X123092037Y-99661063D01*
X123138002Y-99646128D01*
X123176199Y-99593555D01*
X123176199Y-99561064D01*
X123429752Y-99561064D01*
X123709531Y-99840843D01*
X123709532Y-99840843D01*
X123956821Y-99593555D01*
X124242866Y-99593555D01*
X124281063Y-99646128D01*
X124327028Y-99661063D01*
X124358704Y-99661063D01*
X124404669Y-99646128D01*
X124442866Y-99593555D01*
X124442866Y-99561063D01*
X124696419Y-99561063D01*
X124976199Y-99840843D01*
X125223487Y-99593555D01*
X125509532Y-99593555D01*
X125547729Y-99646128D01*
X125593694Y-99661063D01*
X125625370Y-99661063D01*
X125671335Y-99646128D01*
X125709532Y-99593555D01*
X125709532Y-99561064D01*
X125963085Y-99561064D01*
X126242864Y-99840843D01*
X126242865Y-99840843D01*
X126490154Y-99593555D01*
X126776199Y-99593555D01*
X126814396Y-99646128D01*
X126860361Y-99661063D01*
X126892037Y-99661063D01*
X126938002Y-99646128D01*
X126976199Y-99593555D01*
X126976199Y-99561063D01*
X127229752Y-99561063D01*
X127556465Y-99887776D01*
X127556466Y-99887776D01*
X127612023Y-99729006D01*
X127630945Y-99561066D01*
X127630945Y-99561059D01*
X127612023Y-99393119D01*
X127556465Y-99234348D01*
X127229752Y-99561062D01*
X127229752Y-99561063D01*
X126976199Y-99561063D01*
X126976199Y-99528571D01*
X126938002Y-99475998D01*
X126892037Y-99461063D01*
X126860361Y-99461063D01*
X126814396Y-99475998D01*
X126776199Y-99528571D01*
X126776199Y-99593555D01*
X126490154Y-99593555D01*
X126522646Y-99561063D01*
X126242865Y-99281282D01*
X126242864Y-99281282D01*
X125963085Y-99561062D01*
X125963085Y-99561064D01*
X125709532Y-99561064D01*
X125709532Y-99528571D01*
X125671335Y-99475998D01*
X125625370Y-99461063D01*
X125593694Y-99461063D01*
X125547729Y-99475998D01*
X125509532Y-99528571D01*
X125509532Y-99593555D01*
X125223487Y-99593555D01*
X125255979Y-99561063D01*
X124976199Y-99281283D01*
X124696419Y-99561063D01*
X124442866Y-99561063D01*
X124442866Y-99528571D01*
X124404669Y-99475998D01*
X124358704Y-99461063D01*
X124327028Y-99461063D01*
X124281063Y-99475998D01*
X124242866Y-99528571D01*
X124242866Y-99593555D01*
X123956821Y-99593555D01*
X123989313Y-99561063D01*
X123709532Y-99281282D01*
X123709531Y-99281282D01*
X123429752Y-99561062D01*
X123429752Y-99561064D01*
X123176199Y-99561064D01*
X123176199Y-99528571D01*
X123138002Y-99475998D01*
X123092037Y-99461063D01*
X123060361Y-99461063D01*
X123014396Y-99475998D01*
X122976199Y-99528571D01*
X122976199Y-99593555D01*
X122690154Y-99593555D01*
X122722646Y-99561063D01*
X122395931Y-99234348D01*
X122340375Y-99393116D01*
X122340374Y-99393121D01*
X122321453Y-99561059D01*
X122321453Y-99561066D01*
X121418424Y-99561066D01*
X121414334Y-99557443D01*
X121279834Y-99486852D01*
X121279833Y-99486851D01*
X121279832Y-99486851D01*
X121132350Y-99450500D01*
X121132349Y-99450500D01*
X120980451Y-99450500D01*
X120980450Y-99450500D01*
X120832967Y-99486851D01*
X120698467Y-99557442D01*
X120584767Y-99658171D01*
X120498480Y-99783179D01*
X120498479Y-99783180D01*
X120476001Y-99842452D01*
X120444615Y-99925209D01*
X120426306Y-100076000D01*
X118279810Y-100076000D01*
X118264585Y-99950609D01*
X118210721Y-99808581D01*
X118124432Y-99683570D01*
X118010734Y-99582843D01*
X117876234Y-99512252D01*
X117876233Y-99512251D01*
X117876232Y-99512251D01*
X117728750Y-99475900D01*
X117728749Y-99475900D01*
X117576851Y-99475900D01*
X117576850Y-99475900D01*
X117429367Y-99512251D01*
X117294867Y-99582842D01*
X117181167Y-99683571D01*
X117094880Y-99808579D01*
X117094879Y-99808580D01*
X117050074Y-99926723D01*
X117041015Y-99950609D01*
X117022706Y-100101400D01*
X110361719Y-100101400D01*
X110301232Y-100013770D01*
X110187534Y-99913043D01*
X110053034Y-99842452D01*
X110053033Y-99842451D01*
X110053032Y-99842451D01*
X109905550Y-99806100D01*
X109905549Y-99806100D01*
X109753651Y-99806100D01*
X109753650Y-99806100D01*
X109606167Y-99842451D01*
X109471667Y-99913042D01*
X109357967Y-100013771D01*
X109271680Y-100138779D01*
X109271679Y-100138780D01*
X109257624Y-100175842D01*
X109217815Y-100280809D01*
X109199506Y-100431600D01*
X105208034Y-100431600D01*
X105208034Y-99318479D01*
X105227719Y-99251440D01*
X105280523Y-99205685D01*
X105349681Y-99195741D01*
X105413237Y-99224766D01*
X105434084Y-99248039D01*
X105436278Y-99251218D01*
X105436279Y-99251219D01*
X105522568Y-99376230D01*
X105636266Y-99476957D01*
X105770766Y-99547548D01*
X105844508Y-99565724D01*
X105918250Y-99583900D01*
X105918251Y-99583900D01*
X106070150Y-99583900D01*
X106119310Y-99571782D01*
X106217634Y-99547548D01*
X106352134Y-99476957D01*
X106465832Y-99376230D01*
X106552121Y-99251219D01*
X106605985Y-99109191D01*
X106624294Y-98958400D01*
X106614871Y-98880795D01*
X122749484Y-98880795D01*
X123076199Y-99207510D01*
X123076200Y-99207510D01*
X123402913Y-98880795D01*
X124016151Y-98880795D01*
X124342866Y-99207510D01*
X124342867Y-99207510D01*
X124669580Y-98880795D01*
X125282817Y-98880795D01*
X125609532Y-99207510D01*
X125609533Y-99207510D01*
X125936246Y-98880795D01*
X126549484Y-98880795D01*
X126876199Y-99207510D01*
X126876200Y-99207510D01*
X127202913Y-98880795D01*
X127044142Y-98825239D01*
X127044137Y-98825238D01*
X126876203Y-98806317D01*
X126876195Y-98806317D01*
X126708257Y-98825238D01*
X126708252Y-98825239D01*
X126549484Y-98880795D01*
X125936246Y-98880795D01*
X125777475Y-98825239D01*
X125777470Y-98825238D01*
X125609536Y-98806317D01*
X125609528Y-98806317D01*
X125441590Y-98825238D01*
X125441585Y-98825239D01*
X125282817Y-98880795D01*
X124669580Y-98880795D01*
X124510809Y-98825239D01*
X124510804Y-98825238D01*
X124342870Y-98806317D01*
X124342862Y-98806317D01*
X124174924Y-98825238D01*
X124174919Y-98825239D01*
X124016151Y-98880795D01*
X123402913Y-98880795D01*
X123244142Y-98825239D01*
X123244137Y-98825238D01*
X123076203Y-98806317D01*
X123076195Y-98806317D01*
X122908257Y-98825238D01*
X122908252Y-98825239D01*
X122749484Y-98880795D01*
X106614871Y-98880795D01*
X106605985Y-98807609D01*
X106554727Y-98672454D01*
X106549361Y-98602794D01*
X106582508Y-98541288D01*
X106643646Y-98507467D01*
X106691078Y-98506177D01*
X106907551Y-98542300D01*
X106907552Y-98542300D01*
X107139648Y-98542300D01*
X107139649Y-98542300D01*
X107368581Y-98504098D01*
X107588103Y-98428736D01*
X107792226Y-98318270D01*
X107975384Y-98175713D01*
X108132579Y-98004953D01*
X108259524Y-97810649D01*
X108352757Y-97598100D01*
X108409734Y-97373105D01*
X108425900Y-97178006D01*
X110405500Y-97178006D01*
X110424664Y-97409297D01*
X110424666Y-97409308D01*
X110481642Y-97634300D01*
X110574875Y-97846848D01*
X110701816Y-98041147D01*
X110701819Y-98041151D01*
X110701821Y-98041153D01*
X110859016Y-98211913D01*
X110859019Y-98211915D01*
X110859022Y-98211918D01*
X111042165Y-98354464D01*
X111042171Y-98354468D01*
X111042174Y-98354470D01*
X111246297Y-98464936D01*
X111360287Y-98504068D01*
X111465815Y-98540297D01*
X111465817Y-98540297D01*
X111465819Y-98540298D01*
X111694751Y-98578500D01*
X111694752Y-98578500D01*
X111926848Y-98578500D01*
X111926849Y-98578500D01*
X112155781Y-98540298D01*
X112375303Y-98464936D01*
X112579426Y-98354470D01*
X112619345Y-98323400D01*
X127436706Y-98323400D01*
X127455015Y-98474191D01*
X127508879Y-98616219D01*
X127595168Y-98741230D01*
X127708866Y-98841957D01*
X127843366Y-98912548D01*
X127917108Y-98930724D01*
X127990850Y-98948900D01*
X127990851Y-98948900D01*
X128142750Y-98948900D01*
X128191910Y-98936782D01*
X128290234Y-98912548D01*
X128424734Y-98841957D01*
X128538432Y-98741230D01*
X128624721Y-98616219D01*
X128678585Y-98474191D01*
X128696894Y-98323400D01*
X128678585Y-98172609D01*
X128624721Y-98030581D01*
X128538432Y-97905570D01*
X128424734Y-97804843D01*
X128290234Y-97734252D01*
X128290233Y-97734251D01*
X128290232Y-97734251D01*
X128142750Y-97697900D01*
X128142749Y-97697900D01*
X127990851Y-97697900D01*
X127990850Y-97697900D01*
X127843367Y-97734251D01*
X127708867Y-97804842D01*
X127595167Y-97905571D01*
X127508880Y-98030579D01*
X127508879Y-98030580D01*
X127455015Y-98172608D01*
X127438193Y-98311153D01*
X127436706Y-98323400D01*
X112619345Y-98323400D01*
X112762584Y-98211913D01*
X112919779Y-98041153D01*
X113046724Y-97846849D01*
X113139957Y-97634300D01*
X113196934Y-97409305D01*
X113196935Y-97409297D01*
X113216100Y-97178006D01*
X113216100Y-97177993D01*
X113196935Y-96946702D01*
X113196933Y-96946691D01*
X113139957Y-96721699D01*
X113046724Y-96509151D01*
X112970839Y-96393000D01*
X128556906Y-96393000D01*
X128575215Y-96543791D01*
X128629079Y-96685819D01*
X128715368Y-96810830D01*
X128829066Y-96911557D01*
X128963566Y-96982148D01*
X129037308Y-97000324D01*
X129111050Y-97018500D01*
X129111051Y-97018500D01*
X129262950Y-97018500D01*
X129312110Y-97006382D01*
X129410434Y-96982148D01*
X129544934Y-96911557D01*
X129658632Y-96810830D01*
X129744921Y-96685819D01*
X129798785Y-96543791D01*
X129817094Y-96393000D01*
X129798785Y-96242209D01*
X129744921Y-96100181D01*
X129658632Y-95975170D01*
X129544934Y-95874443D01*
X129410434Y-95803852D01*
X129410433Y-95803851D01*
X129410432Y-95803851D01*
X129262950Y-95767500D01*
X129262949Y-95767500D01*
X129111051Y-95767500D01*
X129111050Y-95767500D01*
X128963567Y-95803851D01*
X128829067Y-95874442D01*
X128829066Y-95874443D01*
X128726470Y-95965335D01*
X128715367Y-95975171D01*
X128629080Y-96100179D01*
X128629079Y-96100180D01*
X128612428Y-96144087D01*
X128575215Y-96242209D01*
X128556906Y-96393000D01*
X112970839Y-96393000D01*
X112919783Y-96314852D01*
X112919780Y-96314849D01*
X112919779Y-96314847D01*
X112762584Y-96144087D01*
X112762579Y-96144083D01*
X112762577Y-96144081D01*
X112579434Y-96001535D01*
X112579428Y-96001531D01*
X112375304Y-95891064D01*
X112375295Y-95891061D01*
X112155784Y-95815702D01*
X111938846Y-95779502D01*
X111926849Y-95777500D01*
X111694751Y-95777500D01*
X111682754Y-95779502D01*
X111465815Y-95815702D01*
X111246304Y-95891061D01*
X111246295Y-95891064D01*
X111042171Y-96001531D01*
X111042165Y-96001535D01*
X110859022Y-96144081D01*
X110859019Y-96144084D01*
X110859016Y-96144086D01*
X110859016Y-96144087D01*
X110829795Y-96175830D01*
X110701816Y-96314852D01*
X110574875Y-96509151D01*
X110481642Y-96721699D01*
X110424666Y-96946691D01*
X110424664Y-96946702D01*
X110405500Y-97177993D01*
X110405500Y-97178006D01*
X108425900Y-97178006D01*
X108428900Y-97141806D01*
X108428900Y-97141793D01*
X108409735Y-96910502D01*
X108409733Y-96910491D01*
X108352757Y-96685499D01*
X108259524Y-96472951D01*
X108132583Y-96278652D01*
X108132580Y-96278649D01*
X108132579Y-96278647D01*
X107975384Y-96107887D01*
X107975379Y-96107883D01*
X107975377Y-96107881D01*
X107792234Y-95965335D01*
X107792228Y-95965331D01*
X107588104Y-95854864D01*
X107588095Y-95854861D01*
X107368584Y-95779502D01*
X107239730Y-95758000D01*
X125557106Y-95758000D01*
X125575415Y-95908791D01*
X125629279Y-96050819D01*
X125715568Y-96175830D01*
X125829266Y-96276557D01*
X125963766Y-96347148D01*
X126037508Y-96365324D01*
X126111250Y-96383500D01*
X126111251Y-96383500D01*
X126263150Y-96383500D01*
X126312310Y-96371382D01*
X126410634Y-96347148D01*
X126545134Y-96276557D01*
X126658832Y-96175830D01*
X126745121Y-96050819D01*
X126798985Y-95908791D01*
X126817294Y-95758000D01*
X126798985Y-95607209D01*
X126745121Y-95465181D01*
X126658832Y-95340170D01*
X126545134Y-95239443D01*
X126410634Y-95168852D01*
X126410633Y-95168851D01*
X126410632Y-95168851D01*
X126263150Y-95132500D01*
X126263149Y-95132500D01*
X126111251Y-95132500D01*
X126111250Y-95132500D01*
X125963767Y-95168851D01*
X125829267Y-95239442D01*
X125715567Y-95340171D01*
X125629280Y-95465179D01*
X125629279Y-95465180D01*
X125575415Y-95607208D01*
X125559134Y-95741300D01*
X125557106Y-95758000D01*
X107239730Y-95758000D01*
X107196882Y-95750850D01*
X107139649Y-95741300D01*
X106907551Y-95741300D01*
X106861764Y-95748940D01*
X106678615Y-95779502D01*
X106459104Y-95854861D01*
X106459095Y-95854864D01*
X106254971Y-95965331D01*
X106254965Y-95965335D01*
X106071822Y-96107881D01*
X106071819Y-96107884D01*
X106071816Y-96107886D01*
X106071816Y-96107887D01*
X106038492Y-96144087D01*
X105914616Y-96278652D01*
X105787675Y-96472951D01*
X105694442Y-96685499D01*
X105637466Y-96910491D01*
X105637464Y-96910502D01*
X105618300Y-97141793D01*
X105618300Y-97141806D01*
X105637464Y-97373097D01*
X105637466Y-97373108D01*
X105694442Y-97598100D01*
X105787675Y-97810648D01*
X105914616Y-98004947D01*
X105914619Y-98004951D01*
X105914621Y-98004953D01*
X106025056Y-98124918D01*
X106055978Y-98187572D01*
X106048118Y-98256998D01*
X106003970Y-98311153D01*
X105937553Y-98332844D01*
X105933826Y-98332900D01*
X105918250Y-98332900D01*
X105770767Y-98369251D01*
X105636267Y-98439842D01*
X105636266Y-98439843D01*
X105522568Y-98540570D01*
X105461312Y-98629315D01*
X105434084Y-98668761D01*
X105379801Y-98712751D01*
X105310352Y-98720410D01*
X105247787Y-98689306D01*
X105211970Y-98629315D01*
X105208034Y-98598320D01*
X105208034Y-90641806D01*
X105618300Y-90641806D01*
X105637464Y-90873097D01*
X105637466Y-90873108D01*
X105694442Y-91098100D01*
X105787675Y-91310648D01*
X105914616Y-91504947D01*
X105914619Y-91504951D01*
X105914621Y-91504953D01*
X106071816Y-91675713D01*
X106071819Y-91675715D01*
X106071822Y-91675718D01*
X106254965Y-91818264D01*
X106254971Y-91818268D01*
X106254974Y-91818270D01*
X106459097Y-91928736D01*
X106564541Y-91964935D01*
X106678615Y-92004097D01*
X106678617Y-92004097D01*
X106678619Y-92004098D01*
X106907551Y-92042300D01*
X106907552Y-92042300D01*
X107139648Y-92042300D01*
X107139649Y-92042300D01*
X107368581Y-92004098D01*
X107588103Y-91928736D01*
X107792226Y-91818270D01*
X107796527Y-91814923D01*
X107853729Y-91770400D01*
X107975384Y-91675713D01*
X108132579Y-91504953D01*
X108259524Y-91310649D01*
X108352757Y-91098100D01*
X108409734Y-90873105D01*
X108414384Y-90816991D01*
X108425900Y-90678006D01*
X110405500Y-90678006D01*
X110424664Y-90909297D01*
X110424666Y-90909308D01*
X110481642Y-91134300D01*
X110574875Y-91346848D01*
X110701816Y-91541147D01*
X110701819Y-91541151D01*
X110701821Y-91541153D01*
X110859016Y-91711913D01*
X110859019Y-91711915D01*
X110859022Y-91711918D01*
X111042165Y-91854464D01*
X111042171Y-91854468D01*
X111042174Y-91854470D01*
X111246297Y-91964936D01*
X111356355Y-92002719D01*
X111465815Y-92040297D01*
X111465817Y-92040297D01*
X111465819Y-92040298D01*
X111694751Y-92078500D01*
X111694752Y-92078500D01*
X111926848Y-92078500D01*
X111926849Y-92078500D01*
X112155781Y-92040298D01*
X112375303Y-91964936D01*
X112579426Y-91854470D01*
X112630238Y-91814922D01*
X112640929Y-91806600D01*
X112762584Y-91711913D01*
X112919779Y-91541153D01*
X113046724Y-91346849D01*
X113139957Y-91134300D01*
X113196934Y-90909305D01*
X113196935Y-90909297D01*
X113216100Y-90678006D01*
X113216100Y-90677993D01*
X113196935Y-90446702D01*
X113196933Y-90446691D01*
X113139957Y-90221699D01*
X113046724Y-90009151D01*
X112919783Y-89814852D01*
X112919780Y-89814849D01*
X112919779Y-89814847D01*
X112762584Y-89644087D01*
X112762579Y-89644083D01*
X112762577Y-89644081D01*
X112579434Y-89501535D01*
X112579428Y-89501531D01*
X112384794Y-89396200D01*
X114454506Y-89396200D01*
X114472815Y-89546991D01*
X114526679Y-89689019D01*
X114612968Y-89814030D01*
X114726666Y-89914757D01*
X114861166Y-89985348D01*
X114934908Y-90003524D01*
X115008650Y-90021700D01*
X115008651Y-90021700D01*
X115160550Y-90021700D01*
X115211462Y-90009151D01*
X115308034Y-89985348D01*
X115442534Y-89914757D01*
X115556232Y-89814030D01*
X115642521Y-89689019D01*
X115696385Y-89546991D01*
X115714694Y-89396200D01*
X115696385Y-89245409D01*
X115642521Y-89103381D01*
X115556232Y-88978370D01*
X115442534Y-88877643D01*
X115308034Y-88807052D01*
X115308033Y-88807051D01*
X115308032Y-88807051D01*
X115160550Y-88770700D01*
X115160549Y-88770700D01*
X115008651Y-88770700D01*
X115008650Y-88770700D01*
X114861167Y-88807051D01*
X114726667Y-88877642D01*
X114612967Y-88978371D01*
X114526680Y-89103379D01*
X114526679Y-89103380D01*
X114472815Y-89245408D01*
X114468675Y-89279502D01*
X114454506Y-89396200D01*
X112384794Y-89396200D01*
X112375304Y-89391064D01*
X112375295Y-89391061D01*
X112155784Y-89315702D01*
X111938846Y-89279502D01*
X111926849Y-89277500D01*
X111694751Y-89277500D01*
X111682754Y-89279502D01*
X111465815Y-89315702D01*
X111246304Y-89391061D01*
X111246295Y-89391064D01*
X111042171Y-89501531D01*
X111042165Y-89501535D01*
X110859022Y-89644081D01*
X110859019Y-89644084D01*
X110859016Y-89644086D01*
X110859016Y-89644087D01*
X110800067Y-89708122D01*
X110701816Y-89814852D01*
X110574875Y-90009151D01*
X110481642Y-90221699D01*
X110424666Y-90446691D01*
X110424664Y-90446702D01*
X110405500Y-90677993D01*
X110405500Y-90678006D01*
X108425900Y-90678006D01*
X108428900Y-90641806D01*
X108428900Y-90641793D01*
X108409735Y-90410502D01*
X108409733Y-90410491D01*
X108352757Y-90185499D01*
X108259524Y-89972951D01*
X108132583Y-89778652D01*
X108132580Y-89778649D01*
X108132579Y-89778647D01*
X107975384Y-89607887D01*
X107975379Y-89607883D01*
X107975377Y-89607881D01*
X107792234Y-89465335D01*
X107792228Y-89465331D01*
X107588104Y-89354864D01*
X107588095Y-89354861D01*
X107368584Y-89279502D01*
X107196882Y-89250850D01*
X107139649Y-89241300D01*
X106907551Y-89241300D01*
X106861764Y-89248940D01*
X106678615Y-89279502D01*
X106459104Y-89354861D01*
X106459095Y-89354864D01*
X106254971Y-89465331D01*
X106254965Y-89465335D01*
X106071822Y-89607881D01*
X106071819Y-89607884D01*
X106071816Y-89607886D01*
X106071816Y-89607887D01*
X106038492Y-89644087D01*
X105914616Y-89778652D01*
X105787675Y-89972951D01*
X105694442Y-90185499D01*
X105637466Y-90410491D01*
X105637464Y-90410502D01*
X105618300Y-90641793D01*
X105618300Y-90641806D01*
X105208034Y-90641806D01*
X105208034Y-79109200D01*
X114327506Y-79109200D01*
X114345815Y-79259991D01*
X114399679Y-79402019D01*
X114485968Y-79527030D01*
X114599666Y-79627757D01*
X114734166Y-79698348D01*
X114778600Y-79709300D01*
X114881650Y-79734700D01*
X114881651Y-79734700D01*
X115033550Y-79734700D01*
X115082710Y-79722582D01*
X115181034Y-79698348D01*
X115315534Y-79627757D01*
X115423108Y-79532454D01*
X115486341Y-79502733D01*
X115555604Y-79511917D01*
X115587559Y-79532452D01*
X115666466Y-79602357D01*
X115800966Y-79672948D01*
X115874708Y-79691124D01*
X115948450Y-79709300D01*
X115948451Y-79709300D01*
X116100350Y-79709300D01*
X116149510Y-79697182D01*
X116247834Y-79672948D01*
X116382334Y-79602357D01*
X116405174Y-79582122D01*
X116468406Y-79552402D01*
X116537670Y-79561586D01*
X116590973Y-79606758D01*
X116611393Y-79673577D01*
X116611400Y-79674939D01*
X116611400Y-90022752D01*
X116591715Y-90089791D01*
X116538911Y-90135546D01*
X116469753Y-90145490D01*
X116429775Y-90132549D01*
X116324032Y-90077051D01*
X116176550Y-90040700D01*
X116176549Y-90040700D01*
X116024651Y-90040700D01*
X116024650Y-90040700D01*
X115877167Y-90077051D01*
X115742667Y-90147642D01*
X115628967Y-90248371D01*
X115542680Y-90373379D01*
X115542679Y-90373380D01*
X115514875Y-90446695D01*
X115488815Y-90515409D01*
X115470506Y-90666200D01*
X115488815Y-90816991D01*
X115542679Y-90959019D01*
X115628968Y-91084030D01*
X115742666Y-91184757D01*
X115877166Y-91255348D01*
X115929442Y-91268233D01*
X116024650Y-91291700D01*
X116024651Y-91291700D01*
X116176550Y-91291700D01*
X116271758Y-91268233D01*
X116324034Y-91255348D01*
X116429775Y-91199850D01*
X116498282Y-91186125D01*
X116563336Y-91211618D01*
X116604280Y-91268233D01*
X116611400Y-91309647D01*
X116611400Y-92887800D01*
X135128000Y-92887800D01*
X135128000Y-76860400D01*
X116611400Y-76860400D01*
X116611400Y-78492660D01*
X116591715Y-78559699D01*
X116538911Y-78605454D01*
X116469753Y-78615398D01*
X116406197Y-78586373D01*
X116405175Y-78585477D01*
X116382335Y-78565243D01*
X116247832Y-78494651D01*
X116100350Y-78458300D01*
X116100349Y-78458300D01*
X115948451Y-78458300D01*
X115948450Y-78458300D01*
X115800967Y-78494651D01*
X115666464Y-78565243D01*
X115558890Y-78660545D01*
X115495657Y-78690266D01*
X115426394Y-78681082D01*
X115394438Y-78660546D01*
X115315534Y-78590643D01*
X115181034Y-78520052D01*
X115181033Y-78520051D01*
X115181032Y-78520051D01*
X115033550Y-78483700D01*
X115033549Y-78483700D01*
X114881651Y-78483700D01*
X114881650Y-78483700D01*
X114734167Y-78520051D01*
X114599667Y-78590642D01*
X114599666Y-78590643D01*
X114520763Y-78660545D01*
X114485967Y-78691371D01*
X114399680Y-78816379D01*
X114399679Y-78816380D01*
X114399679Y-78816381D01*
X114345815Y-78958409D01*
X114327506Y-79109200D01*
X105208034Y-79109200D01*
X105208034Y-76651826D01*
X105208035Y-76651823D01*
X105208034Y-76585931D01*
X105225036Y-76196453D01*
X105225504Y-76191104D01*
X105276035Y-75807265D01*
X105276972Y-75801959D01*
X105360761Y-75424001D01*
X105362148Y-75418820D01*
X105430837Y-75200963D01*
X107848387Y-75200963D01*
X107878013Y-75470213D01*
X107878015Y-75470224D01*
X107946526Y-75732282D01*
X107946528Y-75732288D01*
X108052470Y-75981590D01*
X108183614Y-76196477D01*
X108193579Y-76212805D01*
X108193586Y-76212815D01*
X108366853Y-76421019D01*
X108366859Y-76421024D01*
X108568598Y-76601782D01*
X108794510Y-76751244D01*
X109039776Y-76866220D01*
X109039783Y-76866222D01*
X109039785Y-76866223D01*
X109299157Y-76944257D01*
X109299164Y-76944258D01*
X109299169Y-76944260D01*
X109567161Y-76983700D01*
X109567166Y-76983700D01*
X109770236Y-76983700D01*
X109821733Y-76979930D01*
X109972756Y-76968877D01*
X110086794Y-76943474D01*
X110237146Y-76909982D01*
X110237148Y-76909981D01*
X110237153Y-76909980D01*
X110490158Y-76813214D01*
X110726377Y-76680641D01*
X110940777Y-76515088D01*
X111128786Y-76320081D01*
X111286399Y-76099779D01*
X111360387Y-75955869D01*
X111410249Y-75858890D01*
X111410251Y-75858884D01*
X111410256Y-75858875D01*
X111497718Y-75602505D01*
X111546919Y-75336133D01*
X111552787Y-75175563D01*
X150393387Y-75175563D01*
X150423013Y-75444813D01*
X150423015Y-75444824D01*
X150464241Y-75602514D01*
X150491528Y-75706888D01*
X150597470Y-75956190D01*
X150685102Y-76099780D01*
X150738579Y-76187405D01*
X150738586Y-76187415D01*
X150911853Y-76395619D01*
X150911859Y-76395624D01*
X151045190Y-76515088D01*
X151113598Y-76576382D01*
X151339510Y-76725844D01*
X151584776Y-76840820D01*
X151584783Y-76840822D01*
X151584785Y-76840823D01*
X151844157Y-76918857D01*
X151844164Y-76918858D01*
X151844169Y-76918860D01*
X152112161Y-76958300D01*
X152112166Y-76958300D01*
X152315236Y-76958300D01*
X152366733Y-76954530D01*
X152517756Y-76943477D01*
X152668129Y-76909980D01*
X152782146Y-76884582D01*
X152782148Y-76884581D01*
X152782153Y-76884580D01*
X153035158Y-76787814D01*
X153271377Y-76655241D01*
X153485777Y-76489688D01*
X153673786Y-76294681D01*
X153831399Y-76074379D01*
X153918492Y-75904982D01*
X153955249Y-75833490D01*
X153955251Y-75833484D01*
X153955256Y-75833475D01*
X154042718Y-75577105D01*
X154091919Y-75310733D01*
X154101812Y-75040035D01*
X154072186Y-74770782D01*
X154003672Y-74508712D01*
X153897730Y-74259410D01*
X153756618Y-74028190D01*
X153737426Y-74005128D01*
X153583346Y-73819980D01*
X153583340Y-73819975D01*
X153381602Y-73639218D01*
X153155692Y-73489757D01*
X153077679Y-73453186D01*
X152910424Y-73374780D01*
X152910419Y-73374778D01*
X152910414Y-73374776D01*
X152651042Y-73296742D01*
X152651028Y-73296739D01*
X152535391Y-73279721D01*
X152383039Y-73257300D01*
X152179969Y-73257300D01*
X152179964Y-73257300D01*
X151977444Y-73272123D01*
X151977431Y-73272125D01*
X151713053Y-73331017D01*
X151713046Y-73331020D01*
X151460039Y-73427787D01*
X151223826Y-73560357D01*
X151009422Y-73725912D01*
X150821422Y-73920909D01*
X150821416Y-73920916D01*
X150663802Y-74141219D01*
X150663799Y-74141224D01*
X150539950Y-74382109D01*
X150539943Y-74382127D01*
X150452484Y-74638485D01*
X150452481Y-74638499D01*
X150403281Y-74904868D01*
X150403280Y-74904875D01*
X150393387Y-75175563D01*
X111552787Y-75175563D01*
X111556812Y-75065435D01*
X111527186Y-74796182D01*
X111458672Y-74534112D01*
X111352730Y-74284810D01*
X111211618Y-74053590D01*
X111190475Y-74028184D01*
X111038346Y-73845380D01*
X111038340Y-73845375D01*
X110955511Y-73771160D01*
X120024500Y-73771160D01*
X120039630Y-73905449D01*
X120039631Y-73905454D01*
X120099211Y-74075723D01*
X120157233Y-74168063D01*
X120195184Y-74228462D01*
X120322738Y-74356016D01*
X120404689Y-74407509D01*
X120473483Y-74450736D01*
X120475478Y-74451989D01*
X120637583Y-74508712D01*
X120645745Y-74511568D01*
X120645750Y-74511569D01*
X120824996Y-74531765D01*
X120825000Y-74531765D01*
X120825004Y-74531765D01*
X121004249Y-74511569D01*
X121004252Y-74511568D01*
X121004255Y-74511568D01*
X121174522Y-74451989D01*
X121327262Y-74356016D01*
X121362319Y-74320959D01*
X121423642Y-74287474D01*
X121493334Y-74292458D01*
X121537681Y-74320959D01*
X121572738Y-74356016D01*
X121654689Y-74407509D01*
X121723483Y-74450736D01*
X121725478Y-74451989D01*
X121887583Y-74508712D01*
X121895745Y-74511568D01*
X121895750Y-74511569D01*
X122074996Y-74531765D01*
X122075000Y-74531765D01*
X122075004Y-74531765D01*
X122254249Y-74511569D01*
X122254252Y-74511568D01*
X122254255Y-74511568D01*
X122424522Y-74451989D01*
X122577262Y-74356016D01*
X122612319Y-74320959D01*
X122673642Y-74287474D01*
X122743334Y-74292458D01*
X122787681Y-74320959D01*
X122822738Y-74356016D01*
X122904689Y-74407509D01*
X122973483Y-74450736D01*
X122975478Y-74451989D01*
X123137583Y-74508712D01*
X123145745Y-74511568D01*
X123145750Y-74511569D01*
X123324996Y-74531765D01*
X123325000Y-74531765D01*
X123325004Y-74531765D01*
X123504249Y-74511569D01*
X123504252Y-74511568D01*
X123504255Y-74511568D01*
X123674522Y-74451989D01*
X123676517Y-74450736D01*
X123745311Y-74407509D01*
X123821006Y-74359946D01*
X123888242Y-74340946D01*
X123955077Y-74361313D01*
X123962446Y-74366550D01*
X124072159Y-74450736D01*
X124218238Y-74511244D01*
X124335639Y-74526700D01*
X124814360Y-74526699D01*
X124814363Y-74526699D01*
X124931753Y-74511246D01*
X124931757Y-74511244D01*
X124931762Y-74511244D01*
X125077841Y-74450736D01*
X125203282Y-74354482D01*
X125299536Y-74229041D01*
X125360044Y-74082962D01*
X125375500Y-73965561D01*
X125375500Y-73794960D01*
X128266100Y-73794960D01*
X128281230Y-73929249D01*
X128281231Y-73929254D01*
X128340811Y-74099523D01*
X128436784Y-74252262D01*
X128564338Y-74379816D01*
X128608411Y-74407509D01*
X128715083Y-74474536D01*
X128717078Y-74475789D01*
X128862573Y-74526700D01*
X128887345Y-74535368D01*
X128887350Y-74535369D01*
X129066596Y-74555565D01*
X129066600Y-74555565D01*
X129066604Y-74555565D01*
X129245849Y-74535369D01*
X129245852Y-74535368D01*
X129245855Y-74535368D01*
X129416122Y-74475789D01*
X129568862Y-74379816D01*
X129603919Y-74344759D01*
X129665242Y-74311274D01*
X129734934Y-74316258D01*
X129779281Y-74344759D01*
X129814338Y-74379816D01*
X129858411Y-74407509D01*
X129965083Y-74474536D01*
X129967078Y-74475789D01*
X130112573Y-74526700D01*
X130137345Y-74535368D01*
X130137350Y-74535369D01*
X130316596Y-74555565D01*
X130316600Y-74555565D01*
X130316604Y-74555565D01*
X130495849Y-74535369D01*
X130495852Y-74535368D01*
X130495855Y-74535368D01*
X130666122Y-74475789D01*
X130818862Y-74379816D01*
X130853919Y-74344759D01*
X130915242Y-74311274D01*
X130984934Y-74316258D01*
X131029281Y-74344759D01*
X131064338Y-74379816D01*
X131108411Y-74407509D01*
X131215083Y-74474536D01*
X131217078Y-74475789D01*
X131362573Y-74526700D01*
X131387345Y-74535368D01*
X131387350Y-74535369D01*
X131566596Y-74555565D01*
X131566600Y-74555565D01*
X131566604Y-74555565D01*
X131745849Y-74535369D01*
X131745852Y-74535368D01*
X131745855Y-74535368D01*
X131916122Y-74475789D01*
X131918117Y-74474536D01*
X132024763Y-74407525D01*
X132062606Y-74383746D01*
X132129842Y-74364746D01*
X132196677Y-74385113D01*
X132204046Y-74390350D01*
X132313759Y-74474536D01*
X132459838Y-74535044D01*
X132577239Y-74550500D01*
X133055960Y-74550499D01*
X133055963Y-74550499D01*
X133173353Y-74535046D01*
X133173357Y-74535044D01*
X133173362Y-74535044D01*
X133319441Y-74474536D01*
X133444882Y-74378282D01*
X133541136Y-74252841D01*
X133601644Y-74106762D01*
X133617100Y-73989361D01*
X133617099Y-73010640D01*
X133617099Y-73010636D01*
X133601646Y-72893246D01*
X133601644Y-72893241D01*
X133601644Y-72893238D01*
X133541136Y-72747159D01*
X133444882Y-72621718D01*
X133319441Y-72525464D01*
X133277286Y-72508003D01*
X133173362Y-72464956D01*
X133173360Y-72464955D01*
X133055961Y-72449500D01*
X132577236Y-72449500D01*
X132459846Y-72464953D01*
X132459837Y-72464956D01*
X132313757Y-72525464D01*
X132204064Y-72609635D01*
X132138895Y-72634829D01*
X132070450Y-72620790D01*
X132062606Y-72616253D01*
X131916123Y-72524211D01*
X131745854Y-72464631D01*
X131745849Y-72464630D01*
X131566604Y-72444435D01*
X131566596Y-72444435D01*
X131387350Y-72464630D01*
X131387345Y-72464631D01*
X131217076Y-72524211D01*
X131064337Y-72620184D01*
X131029281Y-72655241D01*
X130967958Y-72688726D01*
X130898266Y-72683742D01*
X130853919Y-72655241D01*
X130818862Y-72620184D01*
X130666123Y-72524211D01*
X130495854Y-72464631D01*
X130495849Y-72464630D01*
X130316604Y-72444435D01*
X130316596Y-72444435D01*
X130137350Y-72464630D01*
X130137345Y-72464631D01*
X129967076Y-72524211D01*
X129814337Y-72620184D01*
X129779281Y-72655241D01*
X129717958Y-72688726D01*
X129648266Y-72683742D01*
X129603919Y-72655241D01*
X129568862Y-72620184D01*
X129416123Y-72524211D01*
X129245854Y-72464631D01*
X129245849Y-72464630D01*
X129066604Y-72444435D01*
X129066596Y-72444435D01*
X128887350Y-72464630D01*
X128887345Y-72464631D01*
X128717076Y-72524211D01*
X128564337Y-72620184D01*
X128436784Y-72747737D01*
X128340811Y-72900476D01*
X128281231Y-73070745D01*
X128281230Y-73070750D01*
X128266100Y-73205039D01*
X128266100Y-73794960D01*
X125375500Y-73794960D01*
X125375499Y-72986840D01*
X125375499Y-72986836D01*
X125360046Y-72869446D01*
X125360044Y-72869441D01*
X125360044Y-72869438D01*
X125299536Y-72723359D01*
X125203282Y-72597918D01*
X125077841Y-72501664D01*
X124931762Y-72441156D01*
X124931760Y-72441155D01*
X124814361Y-72425700D01*
X124335636Y-72425700D01*
X124218246Y-72441153D01*
X124218237Y-72441156D01*
X124072157Y-72501664D01*
X123962464Y-72585835D01*
X123897295Y-72611029D01*
X123828850Y-72596990D01*
X123821006Y-72592453D01*
X123674523Y-72500411D01*
X123504254Y-72440831D01*
X123504249Y-72440830D01*
X123325004Y-72420635D01*
X123324996Y-72420635D01*
X123145750Y-72440830D01*
X123145745Y-72440831D01*
X122975476Y-72500411D01*
X122822737Y-72596384D01*
X122787681Y-72631441D01*
X122726358Y-72664926D01*
X122656666Y-72659942D01*
X122612319Y-72631441D01*
X122577262Y-72596384D01*
X122424523Y-72500411D01*
X122254254Y-72440831D01*
X122254249Y-72440830D01*
X122075004Y-72420635D01*
X122074996Y-72420635D01*
X121895750Y-72440830D01*
X121895745Y-72440831D01*
X121725476Y-72500411D01*
X121572737Y-72596384D01*
X121537681Y-72631441D01*
X121476358Y-72664926D01*
X121406666Y-72659942D01*
X121362319Y-72631441D01*
X121327262Y-72596384D01*
X121174523Y-72500411D01*
X121004254Y-72440831D01*
X121004249Y-72440830D01*
X120825004Y-72420635D01*
X120824996Y-72420635D01*
X120645750Y-72440830D01*
X120645745Y-72440831D01*
X120475476Y-72500411D01*
X120322737Y-72596384D01*
X120195184Y-72723937D01*
X120099211Y-72876676D01*
X120039631Y-73046945D01*
X120039630Y-73046950D01*
X120024500Y-73181239D01*
X120024500Y-73771160D01*
X110955511Y-73771160D01*
X110836602Y-73664618D01*
X110610692Y-73515157D01*
X110556509Y-73489757D01*
X110365424Y-73400180D01*
X110365419Y-73400178D01*
X110365414Y-73400176D01*
X110106042Y-73322142D01*
X110106028Y-73322139D01*
X109990391Y-73305121D01*
X109838039Y-73282700D01*
X109634969Y-73282700D01*
X109634964Y-73282700D01*
X109432444Y-73297523D01*
X109432431Y-73297525D01*
X109168053Y-73356417D01*
X109168046Y-73356420D01*
X108915039Y-73453187D01*
X108678826Y-73585757D01*
X108464422Y-73751312D01*
X108276422Y-73946309D01*
X108276416Y-73946316D01*
X108118802Y-74166619D01*
X108118799Y-74166624D01*
X107994950Y-74407509D01*
X107994943Y-74407527D01*
X107907484Y-74663885D01*
X107907481Y-74663899D01*
X107903701Y-74684364D01*
X107862973Y-74904868D01*
X107858281Y-74930268D01*
X107858280Y-74930275D01*
X107848387Y-75200963D01*
X105430837Y-75200963D01*
X105478571Y-75049569D01*
X105480400Y-75044541D01*
X105628566Y-74686835D01*
X105630830Y-74681979D01*
X105809599Y-74338565D01*
X105812295Y-74333897D01*
X105935042Y-74141221D01*
X106020301Y-74007390D01*
X106023393Y-74002975D01*
X106259073Y-73695830D01*
X106262533Y-73691709D01*
X106524068Y-73406294D01*
X106527894Y-73402468D01*
X106813309Y-73140933D01*
X106817430Y-73137473D01*
X107124580Y-72901788D01*
X107128990Y-72898701D01*
X107455497Y-72690695D01*
X107460165Y-72687999D01*
X107803579Y-72509230D01*
X107808435Y-72506966D01*
X108166141Y-72358800D01*
X108171169Y-72356971D01*
X108540420Y-72240548D01*
X108545601Y-72239161D01*
X108923564Y-72155370D01*
X108928865Y-72154435D01*
X109312704Y-72103904D01*
X109318053Y-72103436D01*
X109707531Y-72086434D01*
X109773423Y-72086435D01*
X109773427Y-72086434D01*
X152033108Y-72086434D01*
X152099000Y-72086434D01*
X152488473Y-72103438D01*
G37*
%TD.AperFunction*%
%TD*%
M02*
