%TF.GenerationSoftware,KiCad,Pcbnew,8.99.0-187-g1297ddc88d*%
%TF.CreationDate,2024-06-02T21:20:44+08:00*%
%TF.ProjectId,switch,73776974-6368-42e6-9b69-6361645f7063,V2*%
%TF.SameCoordinates,Original*%
%TF.FileFunction,Copper,L4,Bot*%
%TF.FilePolarity,Positive*%
%FSLAX46Y46*%
G04 Gerber Fmt 4.6, Leading zero omitted, Abs format (unit mm)*
G04 Created by KiCad (PCBNEW 8.99.0-187-g1297ddc88d) date 2024-06-02 21:20:44*
%MOMM*%
%LPD*%
G01*
G04 APERTURE LIST*
G04 Aperture macros list*
%AMRoundRect*
0 Rectangle with rounded corners*
0 $1 Rounding radius*
0 $2 $3 $4 $5 $6 $7 $8 $9 X,Y pos of 4 corners*
0 Add a 4 corners polygon primitive as box body*
4,1,4,$2,$3,$4,$5,$6,$7,$8,$9,$2,$3,0*
0 Add four circle primitives for the rounded corners*
1,1,$1+$1,$2,$3*
1,1,$1+$1,$4,$5*
1,1,$1+$1,$6,$7*
1,1,$1+$1,$8,$9*
0 Add four rect primitives between the rounded corners*
20,1,$1+$1,$2,$3,$4,$5,0*
20,1,$1+$1,$4,$5,$6,$7,0*
20,1,$1+$1,$6,$7,$8,$9,0*
20,1,$1+$1,$8,$9,$2,$3,0*%
G04 Aperture macros list end*
%TA.AperFunction,ComponentPad*%
%ADD10RoundRect,0.200000X0.450000X-0.200000X0.450000X0.200000X-0.450000X0.200000X-0.450000X-0.200000X0*%
%TD*%
%TA.AperFunction,ComponentPad*%
%ADD11O,1.300000X0.800000*%
%TD*%
%TA.AperFunction,HeatsinkPad*%
%ADD12C,0.500000*%
%TD*%
%TA.AperFunction,HeatsinkPad*%
%ADD13R,4.300000X4.300000*%
%TD*%
%TA.AperFunction,ComponentPad*%
%ADD14RoundRect,0.200000X0.200000X0.450000X-0.200000X0.450000X-0.200000X-0.450000X0.200000X-0.450000X0*%
%TD*%
%TA.AperFunction,ComponentPad*%
%ADD15O,0.800000X1.300000*%
%TD*%
%TA.AperFunction,ComponentPad*%
%ADD16RoundRect,0.200000X-0.450000X0.200000X-0.450000X-0.200000X0.450000X-0.200000X0.450000X0.200000X0*%
%TD*%
%TA.AperFunction,ViaPad*%
%ADD17C,0.450000*%
%TD*%
%TA.AperFunction,Conductor*%
%ADD18C,0.500000*%
%TD*%
%TA.AperFunction,Conductor*%
%ADD19C,0.090000*%
%TD*%
%TA.AperFunction,Conductor*%
%ADD20C,0.125000*%
%TD*%
G04 APERTURE END LIST*
D10*
%TO.P,J8,1,Pin_1*%
%TO.N,/Magnetics/RX0+*%
X154280000Y-108575000D03*
D11*
%TO.P,J8,2,Pin_2*%
%TO.N,/Magnetics/RX0-*%
X154280000Y-107325000D03*
%TO.P,J8,3,Pin_3*%
%TO.N,/Magnetics/TX0+*%
X154280000Y-106075000D03*
%TO.P,J8,4,Pin_4*%
%TO.N,/Magnetics/TX0-*%
X154280000Y-104825000D03*
%TD*%
D10*
%TO.P,J6,1,Pin_1*%
%TO.N,/Magnetics/RX2+*%
X154280000Y-92575000D03*
D11*
%TO.P,J6,2,Pin_2*%
%TO.N,/Magnetics/RX2-*%
X154280000Y-91325000D03*
%TO.P,J6,3,Pin_3*%
%TO.N,/Magnetics/TX2+*%
X154280000Y-90075000D03*
%TO.P,J6,4,Pin_4*%
%TO.N,/Magnetics/TX2-*%
X154280000Y-88825000D03*
%TD*%
D12*
%TO.P,U3,49,E-Pad_GND*%
%TO.N,GND*%
X126876199Y-103361063D03*
X126876199Y-102094396D03*
X126876199Y-100827730D03*
X126876199Y-99561063D03*
X125609532Y-103361063D03*
X125609532Y-102094396D03*
X125609532Y-100827730D03*
X125609532Y-99561063D03*
D13*
X124976199Y-101461063D03*
D12*
X124342866Y-103361063D03*
X124342866Y-102094396D03*
X124342866Y-100827730D03*
X124342866Y-99561063D03*
X123076199Y-103361063D03*
X123076199Y-102094396D03*
X123076199Y-100827730D03*
X123076199Y-99561063D03*
%TD*%
D14*
%TO.P,J4,1,Pin_1*%
%TO.N,/Magnetics/TX4-*%
X126850000Y-77650000D03*
D15*
%TO.P,J4,2,Pin_2*%
%TO.N,/Magnetics/TX4+*%
X125600000Y-77650000D03*
%TO.P,J4,3,Pin_3*%
%TO.N,/Magnetics/RX4-*%
X124350000Y-77650000D03*
%TO.P,J4,4,Pin_4*%
%TO.N,/Magnetics/RX4+*%
X123100000Y-77650000D03*
%TD*%
D16*
%TO.P,J1,1,Pin_1*%
%TO.N,GND*%
X126300000Y-113800000D03*
D11*
%TO.P,J1,2,Pin_2*%
%TO.N,Net-(D7-A)*%
X126300000Y-115050000D03*
%TD*%
D16*
%TO.P,J7,1,Pin_1*%
%TO.N,/Magnetics/RX1+*%
X153380000Y-96825000D03*
D11*
%TO.P,J7,2,Pin_2*%
%TO.N,/Magnetics/RX1-*%
X153380000Y-98075000D03*
%TO.P,J7,3,Pin_3*%
%TO.N,/Magnetics/TX1+*%
X153380000Y-99325000D03*
%TO.P,J7,4,Pin_4*%
%TO.N,/Magnetics/TX1-*%
X153380000Y-100575000D03*
%TD*%
D16*
%TO.P,J3,1,Pin_1*%
%TO.N,VCC*%
X131000000Y-113800000D03*
D11*
%TO.P,J3,2,Pin_2*%
%TO.N,GND*%
X131000000Y-115050000D03*
%TD*%
D10*
%TO.P,J5,1,Pin_1*%
%TO.N,/Magnetics/RX3+*%
X154305000Y-84600000D03*
D11*
%TO.P,J5,2,Pin_2*%
%TO.N,/Magnetics/RX3-*%
X154305000Y-83350000D03*
%TO.P,J5,3,Pin_3*%
%TO.N,/Magnetics/TX3+*%
X154305000Y-82100000D03*
%TO.P,J5,4,Pin_4*%
%TO.N,/Magnetics/TX3-*%
X154305000Y-80850000D03*
%TD*%
D17*
%TO.N,GND*%
X133180000Y-112920000D03*
X125860000Y-112360000D03*
X114720034Y-114495546D03*
X128660000Y-114940000D03*
X116992400Y-95148400D03*
X113450034Y-115765546D03*
X118630000Y-78310000D03*
X128660000Y-116210000D03*
X114720034Y-109415546D03*
X120030000Y-116690000D03*
X127130000Y-112360000D03*
X117270000Y-110470000D03*
X139690000Y-116560000D03*
X114720034Y-115765546D03*
X137160000Y-76450000D03*
X117260034Y-114495546D03*
X132480000Y-76440000D03*
X137160000Y-78740000D03*
X112870000Y-80370000D03*
X129940000Y-78730000D03*
X133180000Y-114200000D03*
X116850000Y-93180800D03*
X129940000Y-76440000D03*
X130042800Y-104250000D03*
X131350000Y-99900000D03*
X118760000Y-116690000D03*
X126250000Y-95050000D03*
X118694200Y-100939600D03*
X137150000Y-114890000D03*
X116513800Y-104267000D03*
X119690000Y-79610000D03*
X115990034Y-109415546D03*
X133180000Y-115470000D03*
X114220000Y-107100000D03*
X124900000Y-110050000D03*
X115824000Y-104952800D03*
X115990034Y-115765546D03*
X116420000Y-91370000D03*
X142070000Y-116570000D03*
X118930000Y-105550000D03*
X124000000Y-109850000D03*
X124590000Y-112360000D03*
X125552200Y-107340400D03*
X149860000Y-76850000D03*
X147150000Y-116570000D03*
X122834400Y-107238800D03*
X115150000Y-91370000D03*
X117260034Y-109415546D03*
X117660000Y-105550000D03*
X133180000Y-110380000D03*
X119690000Y-78340000D03*
X113420000Y-82900000D03*
X132480000Y-78730000D03*
X115990034Y-114495546D03*
X130370000Y-111650000D03*
X113700000Y-90120000D03*
X154940000Y-78740000D03*
X112050000Y-105350000D03*
X134610000Y-114890000D03*
X114813600Y-104500000D03*
X119380000Y-99898200D03*
X137150000Y-116560000D03*
X125780800Y-110490000D03*
X113700000Y-91390000D03*
X115570000Y-82910000D03*
X128660000Y-113670000D03*
X139690000Y-114890000D03*
X139700000Y-81280000D03*
X144610000Y-116570000D03*
X119735600Y-103327200D03*
X139700000Y-78740000D03*
X147320000Y-78740000D03*
X139700000Y-76450000D03*
X130400000Y-96650000D03*
X117260034Y-115765546D03*
X116000000Y-110470000D03*
X137160000Y-81280000D03*
X121120000Y-97440000D03*
X112400000Y-103150000D03*
X122000000Y-97760000D03*
X149860000Y-78740000D03*
X117627400Y-98020000D03*
X118630000Y-77040000D03*
X152400000Y-76850000D03*
X114730000Y-110470000D03*
X152400000Y-78740000D03*
X149860000Y-81280000D03*
X116390000Y-105550000D03*
X130370000Y-110380000D03*
X147320000Y-76850000D03*
X133180000Y-111650000D03*
%TO.N,VCC*%
X128066800Y-98323400D03*
X114200000Y-105150000D03*
X129082800Y-104300000D03*
X126900000Y-95050000D03*
X125577600Y-106553000D03*
X129827600Y-100922400D03*
%TO.N,+1.1VA*%
X129400000Y-95900000D03*
X126136400Y-108153200D03*
%TO.N,+3.3V*%
X118000000Y-100200000D03*
X117900000Y-104150000D03*
%TO.N,+1.1V*%
X122326400Y-106705400D03*
X121056400Y-100076000D03*
%TO.N,/Magnetics/CT4*%
X116400000Y-90450000D03*
X121650000Y-89450000D03*
X128050000Y-89550000D03*
%TO.N,/Magnetics/CT3*%
X136250000Y-84200000D03*
X136280000Y-87230000D03*
X136330000Y-113530000D03*
%TO.N,/Magnetics/CT1*%
X136330000Y-111430000D03*
X136330000Y-99630000D03*
X136330000Y-96480000D03*
%TO.N,/Magnetics/CT2*%
X136330000Y-112430000D03*
X136280000Y-90330000D03*
X136280000Y-93380000D03*
%TO.N,/Magnetics/CT0*%
X136330000Y-105580000D03*
X136330000Y-110380000D03*
X136330000Y-102530000D03*
%TO.N,/IP175G/LINK_LED2{slash}REDUCE_IPG_EN*%
X116050000Y-98600000D03*
X120550000Y-103350000D03*
%TO.N,/IP175G/LINK_LED1{slash}SCLK{slash}BF_STM_DIS*%
X116100000Y-100345674D03*
X120550000Y-104050000D03*
%TO.N,/IP175G/LINK_LED0*%
X116325000Y-101375000D03*
X120498096Y-104672844D03*
%TO.N,/Magnetics/REF4*%
X128000000Y-83450000D03*
X121650000Y-83500000D03*
X117300000Y-82900000D03*
%TO.N,Net-(R21-Pad1)*%
X147580000Y-80280000D03*
X147580000Y-84130000D03*
X147630000Y-86780000D03*
%TO.N,Net-(R22-Pad1)*%
X147630000Y-90030000D03*
X147730000Y-81380000D03*
X147580000Y-93180000D03*
%TO.N,Net-(R23-Pad1)*%
X147580000Y-99630000D03*
X147190000Y-110320000D03*
X147630000Y-96630000D03*
%TO.N,Net-(R25-Pad1)*%
X147580000Y-102580000D03*
X147530000Y-105630000D03*
X147180000Y-112030000D03*
%TD*%
D18*
%TO.N,VCC*%
X114200000Y-105150000D02*
X114200000Y-105500000D01*
X129300000Y-100394800D02*
X129827600Y-100922400D01*
X129300000Y-99556600D02*
X128066800Y-98323400D01*
X130000000Y-112800000D02*
X131000000Y-113800000D01*
X116752200Y-108052200D02*
X124902200Y-108052200D01*
X129300000Y-100394800D02*
X129300000Y-99556600D01*
X128750000Y-104300000D02*
X126497000Y-106553000D01*
X129082800Y-104300000D02*
X129082800Y-101667200D01*
X126497000Y-106553000D02*
X125577600Y-106553000D01*
X129650000Y-112800000D02*
X130000000Y-112800000D01*
X126900000Y-95050000D02*
X128066800Y-96216800D01*
X114200000Y-105500000D02*
X116752200Y-108052200D01*
X125420361Y-106553000D02*
X124902200Y-107071161D01*
X124902200Y-108052200D02*
X129650000Y-112800000D01*
X125577600Y-106553000D02*
X125420361Y-106553000D01*
X128066800Y-96216800D02*
X128066800Y-98323400D01*
X129082800Y-104300000D02*
X128750000Y-104300000D01*
X129082800Y-101667200D02*
X129827600Y-100922400D01*
X124902200Y-107071161D02*
X124902200Y-108052200D01*
D19*
%TO.N,+1.1VA*%
X129485418Y-96393000D02*
X129485418Y-95985418D01*
X126441200Y-108026200D02*
X126644400Y-107823000D01*
X126263400Y-108026200D02*
X126441200Y-108026200D01*
X130517900Y-105975826D02*
X130517900Y-97425482D01*
X129485418Y-95985418D02*
X129400000Y-95900000D01*
X126136400Y-108153200D02*
X126263400Y-108026200D01*
X126644400Y-107823000D02*
X128670726Y-107823000D01*
X130517900Y-97425482D02*
X129485418Y-96393000D01*
X128670726Y-107823000D02*
X130517900Y-105975826D01*
D20*
%TO.N,+1.1V*%
X121056400Y-100076000D02*
X121056400Y-105435400D01*
X121056400Y-105435400D02*
X122326400Y-106705400D01*
D18*
%TO.N,/Magnetics/CT4*%
X128050000Y-89550000D02*
X121750000Y-89550000D01*
X121750000Y-89550000D02*
X121650000Y-89450000D01*
X121650000Y-89450000D02*
X117400000Y-89450000D01*
X117400000Y-89450000D02*
X116400000Y-90450000D01*
%TO.N,/Magnetics/CT3*%
X138200000Y-111660000D02*
X136330000Y-113530000D01*
X136280000Y-87230000D02*
X136280000Y-84230000D01*
X138200000Y-89150000D02*
X138200000Y-111660000D01*
X136280000Y-84230000D02*
X136250000Y-84200000D01*
X136280000Y-87230000D02*
X138200000Y-89150000D01*
%TO.N,/Magnetics/CT1*%
X136330000Y-96480000D02*
X136330000Y-99630000D01*
X136980000Y-110780000D02*
X136330000Y-111430000D01*
X136330000Y-99630000D02*
X136980000Y-100280000D01*
X136980000Y-100280000D02*
X136980000Y-110780000D01*
%TO.N,/Magnetics/CT2*%
X137590000Y-111170000D02*
X136330000Y-112430000D01*
X136280000Y-90330000D02*
X136280000Y-93380000D01*
X136280000Y-93380000D02*
X137590000Y-94690000D01*
X137590000Y-94690000D02*
X137590000Y-111170000D01*
%TO.N,/Magnetics/CT0*%
X136330000Y-105580000D02*
X136330000Y-110380000D01*
X136330000Y-102530000D02*
X136330000Y-105580000D01*
D20*
%TO.N,/IP175G/LINK_LED2{slash}REDUCE_IPG_EN*%
X116050000Y-98600000D02*
X116050000Y-98949474D01*
X116050000Y-98949474D02*
X120450526Y-103350000D01*
X120450526Y-103350000D02*
X120550000Y-103350000D01*
%TO.N,/IP175G/LINK_LED1{slash}SCLK{slash}BF_STM_DIS*%
X116100000Y-100345674D02*
X119804326Y-104050000D01*
X119804326Y-104050000D02*
X120550000Y-104050000D01*
%TO.N,/IP175G/LINK_LED0*%
X119622844Y-104672844D02*
X120498096Y-104672844D01*
X116325000Y-101375000D02*
X119622844Y-104672844D01*
D18*
%TO.N,/Magnetics/REF4*%
X121650000Y-83500000D02*
X117900000Y-83500000D01*
X121700000Y-83450000D02*
X121650000Y-83500000D01*
X117900000Y-83500000D02*
X117300000Y-82900000D01*
X128000000Y-83450000D02*
X121700000Y-83450000D01*
%TO.N,Net-(R21-Pad1)*%
X147630000Y-86780000D02*
X147630000Y-86480000D01*
X147580000Y-84130000D02*
X148630000Y-83080000D01*
X148630000Y-81330000D02*
X147580000Y-80280000D01*
X147580000Y-86430000D02*
X147580000Y-84130000D01*
X147630000Y-86480000D02*
X147580000Y-86430000D01*
X148630000Y-83080000D02*
X148630000Y-81330000D01*
%TO.N,Net-(R22-Pad1)*%
X146930000Y-89330000D02*
X146930000Y-82180000D01*
X147580000Y-90080000D02*
X147630000Y-90030000D01*
X147630000Y-90030000D02*
X146930000Y-89330000D01*
X147580000Y-93180000D02*
X147580000Y-90080000D01*
X146930000Y-82180000D02*
X147730000Y-81380000D01*
%TO.N,Net-(R23-Pad1)*%
X147630000Y-99580000D02*
X147580000Y-99630000D01*
X146880000Y-100330000D02*
X146880000Y-110010000D01*
X147630000Y-96630000D02*
X147630000Y-99580000D01*
X146880000Y-110010000D02*
X147190000Y-110320000D01*
X147580000Y-99630000D02*
X146880000Y-100330000D01*
%TO.N,Net-(R25-Pad1)*%
X147930000Y-111280000D02*
X147930000Y-106030000D01*
X147180000Y-112030000D02*
X147930000Y-111280000D01*
X147580000Y-102580000D02*
X147580000Y-105580000D01*
X147580000Y-105580000D02*
X147530000Y-105630000D01*
X147930000Y-106030000D02*
X147530000Y-105630000D01*
%TD*%
%TA.AperFunction,Conductor*%
%TO.N,GND*%
G36*
X126430670Y-107223185D02*
G01*
X126476425Y-107275989D01*
X126486369Y-107345147D01*
X126457344Y-107408703D01*
X126425630Y-107434887D01*
X126370857Y-107466511D01*
X126370856Y-107466512D01*
X126339873Y-107497493D01*
X126278551Y-107530977D01*
X126222520Y-107530207D01*
X126212349Y-107527700D01*
X126060451Y-107527700D01*
X126060450Y-107527700D01*
X125912967Y-107564051D01*
X125778464Y-107634643D01*
X125758926Y-107651953D01*
X125695692Y-107681674D01*
X125626429Y-107672490D01*
X125573126Y-107627317D01*
X125552707Y-107560497D01*
X125552700Y-107559137D01*
X125552700Y-107391969D01*
X125572385Y-107324930D01*
X125589019Y-107304288D01*
X125653488Y-107239819D01*
X125714811Y-107206334D01*
X125741169Y-107203500D01*
X126363631Y-107203500D01*
X126430670Y-107223185D01*
G37*
%TD.AperFunction*%
%TA.AperFunction,Conductor*%
G36*
X129991734Y-101780726D02*
G01*
X130047667Y-101822598D01*
X130072084Y-101888062D01*
X130072400Y-101896908D01*
X130072400Y-105739931D01*
X130052715Y-105806970D01*
X130036081Y-105827612D01*
X128522512Y-107341181D01*
X128461189Y-107374666D01*
X128434831Y-107377500D01*
X126829708Y-107377500D01*
X126762669Y-107357815D01*
X126716914Y-107305011D01*
X126706970Y-107235853D01*
X126735995Y-107172297D01*
X126782256Y-107138939D01*
X126805125Y-107129466D01*
X126805127Y-107129465D01*
X126836877Y-107108251D01*
X126861950Y-107091498D01*
X126911669Y-107058277D01*
X128983126Y-104986818D01*
X129044449Y-104953334D01*
X129070807Y-104950500D01*
X129146871Y-104950500D01*
X129231415Y-104933682D01*
X129272544Y-104925501D01*
X129390927Y-104876465D01*
X129497469Y-104805276D01*
X129588076Y-104714669D01*
X129659265Y-104608127D01*
X129708301Y-104489744D01*
X129722363Y-104419050D01*
X129733300Y-104364071D01*
X129733300Y-101988008D01*
X129752985Y-101920969D01*
X129769619Y-101900327D01*
X129860719Y-101809227D01*
X129922042Y-101775742D01*
X129991734Y-101780726D01*
G37*
%TD.AperFunction*%
%TA.AperFunction,Conductor*%
G36*
X151152691Y-75986149D02*
G01*
X151536751Y-76002925D01*
X151547495Y-76003865D01*
X151925958Y-76053697D01*
X151936596Y-76055574D01*
X152309268Y-76138200D01*
X152319683Y-76140990D01*
X152683565Y-76255727D01*
X152683733Y-76255780D01*
X152693878Y-76259471D01*
X153046565Y-76405565D01*
X153056324Y-76410116D01*
X153394918Y-76586381D01*
X153404282Y-76591788D01*
X153726213Y-76796884D01*
X153735065Y-76803082D01*
X154037890Y-77035451D01*
X154046165Y-77042394D01*
X154181613Y-77166510D01*
X154327593Y-77300277D01*
X154335242Y-77307926D01*
X154593118Y-77589350D01*
X154600071Y-77597637D01*
X154832436Y-77900461D01*
X154838637Y-77909317D01*
X155043734Y-78231253D01*
X155049133Y-78240605D01*
X155225383Y-78579178D01*
X155229955Y-78588981D01*
X155376015Y-78941596D01*
X155376027Y-78941623D01*
X155379727Y-78951789D01*
X155494514Y-79315838D01*
X155497313Y-79326286D01*
X155579929Y-79698924D01*
X155581808Y-79709578D01*
X155631634Y-80088015D01*
X155632577Y-80098791D01*
X155649382Y-80483574D01*
X155649500Y-80488984D01*
X155649500Y-112597293D01*
X155649382Y-112602702D01*
X155632614Y-112986750D01*
X155631671Y-112997526D01*
X155581849Y-113375957D01*
X155579971Y-113386610D01*
X155497354Y-113759272D01*
X155494554Y-113769721D01*
X155379775Y-114133755D01*
X155376075Y-114143921D01*
X155230002Y-114496572D01*
X155225430Y-114506376D01*
X155049183Y-114844942D01*
X155043775Y-114854310D01*
X154838681Y-115176244D01*
X154832476Y-115185105D01*
X154600110Y-115487930D01*
X154593156Y-115496217D01*
X154335284Y-115777635D01*
X154327635Y-115785284D01*
X154046217Y-116043156D01*
X154037930Y-116050110D01*
X153735105Y-116282476D01*
X153726244Y-116288681D01*
X153404310Y-116493775D01*
X153394942Y-116499183D01*
X153056376Y-116675430D01*
X153046572Y-116680002D01*
X152693921Y-116826075D01*
X152683755Y-116829775D01*
X152319721Y-116944554D01*
X152309272Y-116947354D01*
X151936610Y-117029971D01*
X151925957Y-117031849D01*
X151547526Y-117081671D01*
X151536750Y-117082614D01*
X151152703Y-117099382D01*
X151147294Y-117099500D01*
X116323678Y-117099500D01*
X116315833Y-117099013D01*
X116249128Y-117099493D01*
X116243670Y-117099412D01*
X115859127Y-117085239D01*
X115848246Y-117084357D01*
X115469157Y-117036759D01*
X115458396Y-117034924D01*
X115084946Y-116954166D01*
X115074389Y-116951391D01*
X114709499Y-116838106D01*
X114699226Y-116834413D01*
X114345727Y-116689480D01*
X114335818Y-116684899D01*
X113996409Y-116509423D01*
X113986942Y-116503987D01*
X113664296Y-116299350D01*
X113655352Y-116293110D01*
X113351936Y-116060875D01*
X113343578Y-116053873D01*
X113061781Y-115795870D01*
X113054062Y-115788152D01*
X112796038Y-115506355D01*
X112789028Y-115497987D01*
X112556795Y-115194598D01*
X112550557Y-115185659D01*
X112345887Y-114862990D01*
X112340464Y-114853543D01*
X112164976Y-114514144D01*
X112160409Y-114504270D01*
X112015439Y-114150721D01*
X112011749Y-114140453D01*
X112009669Y-114133755D01*
X111985706Y-114056582D01*
X125150001Y-114056582D01*
X125156408Y-114127102D01*
X125156409Y-114127107D01*
X125206981Y-114289396D01*
X125294927Y-114434877D01*
X125344857Y-114484807D01*
X125378342Y-114546130D01*
X125373358Y-114615822D01*
X125360279Y-114641378D01*
X125340608Y-114670817D01*
X125340602Y-114670828D01*
X125280264Y-114816498D01*
X125280261Y-114816510D01*
X125249500Y-114971153D01*
X125249500Y-115128846D01*
X125280261Y-115283489D01*
X125280264Y-115283501D01*
X125340602Y-115429172D01*
X125340609Y-115429185D01*
X125428210Y-115560288D01*
X125428213Y-115560292D01*
X125539707Y-115671786D01*
X125539711Y-115671789D01*
X125670814Y-115759390D01*
X125670827Y-115759397D01*
X125783464Y-115806052D01*
X125816503Y-115819737D01*
X125956408Y-115847566D01*
X125971153Y-115850499D01*
X125971156Y-115850500D01*
X125971158Y-115850500D01*
X126628844Y-115850500D01*
X126628845Y-115850499D01*
X126783497Y-115819737D01*
X126929179Y-115759394D01*
X127060289Y-115671789D01*
X127171789Y-115560289D01*
X127259394Y-115429179D01*
X127312901Y-115300000D01*
X129882096Y-115300000D01*
X129884584Y-115312516D01*
X129884587Y-115312523D01*
X129952428Y-115476306D01*
X129952433Y-115476316D01*
X130050923Y-115623716D01*
X130050926Y-115623720D01*
X130176279Y-115749073D01*
X130176283Y-115749076D01*
X130323683Y-115847566D01*
X130323692Y-115847571D01*
X130487479Y-115915413D01*
X130487487Y-115915415D01*
X130661353Y-115949999D01*
X130661357Y-115950000D01*
X130750000Y-115950000D01*
X130750000Y-115300000D01*
X129882096Y-115300000D01*
X127312901Y-115300000D01*
X127319737Y-115283497D01*
X127350500Y-115128842D01*
X127350500Y-114971158D01*
X127350500Y-114971155D01*
X127350499Y-114971153D01*
X127328986Y-114863000D01*
X127319737Y-114816503D01*
X127259397Y-114670828D01*
X127259397Y-114670827D01*
X127259392Y-114670818D01*
X127259280Y-114670651D01*
X127239721Y-114641378D01*
X127218843Y-114574704D01*
X127237326Y-114507324D01*
X127255143Y-114484806D01*
X127305072Y-114434877D01*
X127393019Y-114289395D01*
X127443590Y-114127106D01*
X127450000Y-114056572D01*
X127450000Y-114050000D01*
X126349728Y-114050000D01*
X126441614Y-114011940D01*
X126511940Y-113941614D01*
X126550000Y-113849728D01*
X126550000Y-113750272D01*
X126511940Y-113658386D01*
X126441614Y-113588060D01*
X126349728Y-113550000D01*
X126250272Y-113550000D01*
X126158386Y-113588060D01*
X126088060Y-113658386D01*
X126050000Y-113750272D01*
X126050000Y-113849728D01*
X126088060Y-113941614D01*
X126158386Y-114011940D01*
X126250272Y-114050000D01*
X125150001Y-114050000D01*
X125150001Y-114056582D01*
X111985706Y-114056582D01*
X111898453Y-113775580D01*
X111895679Y-113765031D01*
X111849170Y-113550000D01*
X125150000Y-113550000D01*
X126050000Y-113550000D01*
X126050000Y-112900000D01*
X126550000Y-112900000D01*
X126550000Y-113550000D01*
X127449999Y-113550000D01*
X127449999Y-113543417D01*
X127443591Y-113472897D01*
X127443590Y-113472892D01*
X127393018Y-113310603D01*
X127305072Y-113165122D01*
X127184877Y-113044927D01*
X127039395Y-112956980D01*
X127039396Y-112956980D01*
X126877105Y-112906409D01*
X126877106Y-112906409D01*
X126806572Y-112900000D01*
X126550000Y-112900000D01*
X126050000Y-112900000D01*
X125793417Y-112900000D01*
X125722897Y-112906408D01*
X125722892Y-112906409D01*
X125560603Y-112956981D01*
X125415122Y-113044927D01*
X125294927Y-113165122D01*
X125206980Y-113310604D01*
X125156409Y-113472893D01*
X125150000Y-113543427D01*
X125150000Y-113550000D01*
X111849170Y-113550000D01*
X111814900Y-113391556D01*
X111813072Y-113380832D01*
X111765456Y-113001720D01*
X111764576Y-112990873D01*
X111750458Y-112608244D01*
X111750374Y-112603672D01*
X111750374Y-112602198D01*
X111750377Y-112601310D01*
X111750858Y-112534127D01*
X111750374Y-112526313D01*
X111750375Y-112174497D01*
X111750401Y-105564071D01*
X113549499Y-105564071D01*
X113568648Y-105660331D01*
X113568648Y-105660332D01*
X113574496Y-105689737D01*
X113574498Y-105689742D01*
X113586903Y-105719689D01*
X113623535Y-105808127D01*
X113686592Y-105902500D01*
X113694726Y-105914673D01*
X116337525Y-108557472D01*
X116337532Y-108557478D01*
X116399222Y-108598697D01*
X116399224Y-108598698D01*
X116399227Y-108598700D01*
X116444073Y-108628665D01*
X116562456Y-108677701D01*
X116562460Y-108677701D01*
X116562461Y-108677702D01*
X116688128Y-108702700D01*
X116688131Y-108702700D01*
X124581392Y-108702700D01*
X124648431Y-108722385D01*
X124669073Y-108739019D01*
X126919804Y-110989749D01*
X129144724Y-113214669D01*
X129211008Y-113280953D01*
X129235332Y-113305277D01*
X129341866Y-113376461D01*
X129341875Y-113376466D01*
X129366365Y-113386610D01*
X129460256Y-113425501D01*
X129460260Y-113425501D01*
X129460261Y-113425502D01*
X129585928Y-113450500D01*
X129585931Y-113450500D01*
X129679192Y-113450500D01*
X129746231Y-113470185D01*
X129766873Y-113486819D01*
X129913181Y-113633127D01*
X129946666Y-113694450D01*
X129949500Y-113720808D01*
X129949500Y-114039363D01*
X129964953Y-114156753D01*
X129964956Y-114156762D01*
X130025464Y-114302842D01*
X130046927Y-114330813D01*
X130072121Y-114395983D01*
X130058082Y-114464427D01*
X130051653Y-114475189D01*
X129952436Y-114623678D01*
X129952428Y-114623693D01*
X129884587Y-114787476D01*
X129884584Y-114787483D01*
X129882096Y-114800000D01*
X130950272Y-114800000D01*
X130858386Y-114838060D01*
X130788060Y-114908386D01*
X130750000Y-115000272D01*
X130750000Y-115099728D01*
X130788060Y-115191614D01*
X130858386Y-115261940D01*
X130950272Y-115300000D01*
X131049728Y-115300000D01*
X131250000Y-115300000D01*
X131250000Y-115950000D01*
X131338643Y-115950000D01*
X131338646Y-115949999D01*
X131512512Y-115915415D01*
X131512520Y-115915413D01*
X131676307Y-115847571D01*
X131676316Y-115847566D01*
X131823716Y-115749076D01*
X131823720Y-115749073D01*
X131949073Y-115623720D01*
X131949076Y-115623716D01*
X132047566Y-115476316D01*
X132047571Y-115476306D01*
X132115412Y-115312523D01*
X132115415Y-115312516D01*
X132117904Y-115300000D01*
X131250000Y-115300000D01*
X131049728Y-115300000D01*
X131141614Y-115261940D01*
X131211940Y-115191614D01*
X131250000Y-115099728D01*
X131250000Y-115000272D01*
X131211940Y-114908386D01*
X131141614Y-114838060D01*
X131049728Y-114800000D01*
X132117904Y-114800000D01*
X132115415Y-114787483D01*
X132115412Y-114787476D01*
X132047571Y-114623693D01*
X132047566Y-114623683D01*
X131948346Y-114475190D01*
X131927468Y-114408512D01*
X131945953Y-114341132D01*
X131953073Y-114330812D01*
X131974535Y-114302842D01*
X131974534Y-114302842D01*
X131974536Y-114302841D01*
X132035044Y-114156762D01*
X132050500Y-114039361D01*
X132050499Y-113560640D01*
X132050499Y-113560636D01*
X132035046Y-113443246D01*
X132035044Y-113443241D01*
X132035044Y-113443238D01*
X131974536Y-113297159D01*
X131878282Y-113171718D01*
X131752841Y-113075464D01*
X131734046Y-113067679D01*
X131606762Y-113014956D01*
X131606760Y-113014955D01*
X131489370Y-112999501D01*
X131489367Y-112999500D01*
X131489361Y-112999500D01*
X131489354Y-112999500D01*
X131170808Y-112999500D01*
X131103769Y-112979815D01*
X131083127Y-112963181D01*
X130414674Y-112294727D01*
X130414673Y-112294726D01*
X130414669Y-112294723D01*
X130308127Y-112223535D01*
X130298955Y-112219736D01*
X130189744Y-112174499D01*
X130189738Y-112174497D01*
X130064071Y-112149500D01*
X130064069Y-112149500D01*
X129970807Y-112149500D01*
X129903768Y-112129815D01*
X129883126Y-112113181D01*
X127569946Y-109800000D01*
X132900000Y-109800000D01*
X135555500Y-109800000D01*
X135622539Y-109819685D01*
X135668294Y-109872489D01*
X135679500Y-109924000D01*
X135679500Y-110444069D01*
X135679500Y-110444071D01*
X135679499Y-110444071D01*
X135704497Y-110569738D01*
X135704499Y-110569744D01*
X135753533Y-110688124D01*
X135753538Y-110688133D01*
X135824723Y-110794668D01*
X135824726Y-110794672D01*
X135847372Y-110817318D01*
X135880857Y-110878641D01*
X135875873Y-110948333D01*
X135847375Y-110992677D01*
X135824727Y-111015326D01*
X135824724Y-111015329D01*
X135753534Y-111121874D01*
X135704499Y-111240255D01*
X135704497Y-111240263D01*
X135679501Y-111365926D01*
X135679501Y-111494073D01*
X135704497Y-111619736D01*
X135704499Y-111619744D01*
X135747713Y-111724073D01*
X135753535Y-111738127D01*
X135821779Y-111840263D01*
X135824726Y-111844673D01*
X135828592Y-111849384D01*
X135826960Y-111850722D01*
X135855857Y-111903642D01*
X135850873Y-111973334D01*
X135827492Y-112009713D01*
X135828592Y-112010616D01*
X135824726Y-112015326D01*
X135753534Y-112121874D01*
X135704499Y-112240255D01*
X135704497Y-112240263D01*
X135679501Y-112365926D01*
X135679501Y-112494073D01*
X135704497Y-112619736D01*
X135704499Y-112619744D01*
X135753535Y-112738127D01*
X135813093Y-112827263D01*
X135824726Y-112844673D01*
X135824727Y-112844674D01*
X135872371Y-112892317D01*
X135905857Y-112953640D01*
X135900873Y-113023331D01*
X135872374Y-113067679D01*
X135824723Y-113115331D01*
X135753534Y-113221874D01*
X135704499Y-113340255D01*
X135704497Y-113340263D01*
X135679501Y-113465926D01*
X135679501Y-113594073D01*
X135704497Y-113719736D01*
X135704499Y-113719744D01*
X135723257Y-113765031D01*
X135753535Y-113838127D01*
X135814061Y-113928712D01*
X135824726Y-113944673D01*
X135915326Y-114035273D01*
X135915329Y-114035275D01*
X135915331Y-114035277D01*
X136021873Y-114106465D01*
X136140256Y-114155501D01*
X136219624Y-114171288D01*
X136265926Y-114180498D01*
X136265930Y-114180499D01*
X136265931Y-114180499D01*
X136394070Y-114180499D01*
X136394071Y-114180498D01*
X136440374Y-114171288D01*
X150049500Y-114171288D01*
X150080730Y-114408512D01*
X150081162Y-114411789D01*
X150095266Y-114464427D01*
X150143947Y-114646104D01*
X150207693Y-114800000D01*
X150236776Y-114870212D01*
X150358064Y-115080289D01*
X150358066Y-115080292D01*
X150358067Y-115080293D01*
X150505733Y-115272736D01*
X150505739Y-115272743D01*
X150677256Y-115444260D01*
X150677262Y-115444265D01*
X150869711Y-115591936D01*
X151079788Y-115713224D01*
X151303900Y-115806054D01*
X151538211Y-115868838D01*
X151718586Y-115892584D01*
X151778711Y-115900500D01*
X151778712Y-115900500D01*
X152021289Y-115900500D01*
X152069388Y-115894167D01*
X152261789Y-115868838D01*
X152496100Y-115806054D01*
X152720212Y-115713224D01*
X152930289Y-115591936D01*
X153122738Y-115444265D01*
X153294265Y-115272738D01*
X153441936Y-115080289D01*
X153563224Y-114870212D01*
X153656054Y-114646100D01*
X153718838Y-114411789D01*
X153750500Y-114171288D01*
X153750500Y-113928712D01*
X153718838Y-113688211D01*
X153656054Y-113453900D01*
X153563224Y-113229788D01*
X153441936Y-113019711D01*
X153294265Y-112827262D01*
X153294260Y-112827256D01*
X153122743Y-112655739D01*
X153122736Y-112655733D01*
X152930293Y-112508067D01*
X152930292Y-112508066D01*
X152930289Y-112508064D01*
X152720212Y-112386776D01*
X152669876Y-112365926D01*
X152496104Y-112293947D01*
X152261785Y-112231161D01*
X152021289Y-112199500D01*
X152021288Y-112199500D01*
X151778712Y-112199500D01*
X151778711Y-112199500D01*
X151538214Y-112231161D01*
X151303895Y-112293947D01*
X151079794Y-112386773D01*
X151079785Y-112386777D01*
X150869706Y-112508067D01*
X150677263Y-112655733D01*
X150677256Y-112655739D01*
X150505739Y-112827256D01*
X150505733Y-112827263D01*
X150358067Y-113019706D01*
X150236777Y-113229785D01*
X150236773Y-113229794D01*
X150143947Y-113453895D01*
X150081161Y-113688214D01*
X150049500Y-113928711D01*
X150049500Y-114171288D01*
X136440374Y-114171288D01*
X136519744Y-114155501D01*
X136638127Y-114106465D01*
X136744669Y-114035277D01*
X138705276Y-112074670D01*
X138776465Y-111968127D01*
X138825501Y-111849744D01*
X138825501Y-111849741D01*
X138825504Y-111849734D01*
X138825884Y-111847824D01*
X138850499Y-111724073D01*
X138850500Y-111724071D01*
X138850500Y-109924000D01*
X138870185Y-109856961D01*
X138922989Y-109811206D01*
X138974500Y-109800000D01*
X146105500Y-109800000D01*
X146172539Y-109819685D01*
X146218294Y-109872489D01*
X146229500Y-109924000D01*
X146229500Y-110074070D01*
X146240677Y-110130256D01*
X146240677Y-110130258D01*
X146254497Y-110199736D01*
X146254499Y-110199744D01*
X146303534Y-110318125D01*
X146374726Y-110424673D01*
X146374727Y-110424674D01*
X146775327Y-110825273D01*
X146775331Y-110825276D01*
X146881866Y-110896461D01*
X146881872Y-110896464D01*
X146881873Y-110896465D01*
X147000256Y-110945501D01*
X147059900Y-110957364D01*
X147121811Y-110989749D01*
X147156385Y-111050465D01*
X147152646Y-111120234D01*
X147123390Y-111166663D01*
X146674727Y-111615325D01*
X146674726Y-111615326D01*
X146603534Y-111721874D01*
X146554499Y-111840255D01*
X146554497Y-111840263D01*
X146529501Y-111965926D01*
X146529501Y-112094073D01*
X146554497Y-112219736D01*
X146554499Y-112219744D01*
X146585234Y-112293946D01*
X146603535Y-112338127D01*
X146674723Y-112444669D01*
X146674726Y-112444673D01*
X146765326Y-112535273D01*
X146765329Y-112535275D01*
X146765331Y-112535277D01*
X146871873Y-112606465D01*
X146990256Y-112655501D01*
X147115926Y-112680498D01*
X147115930Y-112680499D01*
X147115931Y-112680499D01*
X147244070Y-112680499D01*
X147244071Y-112680498D01*
X147369744Y-112655501D01*
X147488127Y-112606465D01*
X147594669Y-112535277D01*
X148435276Y-111694669D01*
X148506465Y-111588127D01*
X148555501Y-111469744D01*
X148563307Y-111430500D01*
X148580500Y-111344069D01*
X148580500Y-109924000D01*
X148600185Y-109856961D01*
X148652989Y-109811206D01*
X148704500Y-109800000D01*
X150950000Y-109800000D01*
X150950000Y-108814363D01*
X153229500Y-108814363D01*
X153244953Y-108931753D01*
X153244956Y-108931762D01*
X153305464Y-109077841D01*
X153401718Y-109203282D01*
X153527159Y-109299536D01*
X153673238Y-109360044D01*
X153790639Y-109375500D01*
X154769360Y-109375499D01*
X154769363Y-109375499D01*
X154886753Y-109360046D01*
X154886757Y-109360044D01*
X154886762Y-109360044D01*
X155032841Y-109299536D01*
X155158282Y-109203282D01*
X155254536Y-109077841D01*
X155315044Y-108931762D01*
X155330500Y-108814361D01*
X155330499Y-108335640D01*
X155330499Y-108335638D01*
X155330499Y-108335636D01*
X155315046Y-108218246D01*
X155315044Y-108218239D01*
X155315044Y-108218238D01*
X155254536Y-108072159D01*
X155169104Y-107960821D01*
X155143911Y-107895654D01*
X155157949Y-107827209D01*
X155164374Y-107816453D01*
X155239394Y-107704179D01*
X155299737Y-107558497D01*
X155330500Y-107403842D01*
X155330500Y-107246158D01*
X155330500Y-107246155D01*
X155330499Y-107246153D01*
X155315808Y-107172297D01*
X155299737Y-107091503D01*
X155299735Y-107091498D01*
X155239397Y-106945827D01*
X155239390Y-106945814D01*
X155151789Y-106814711D01*
X155151786Y-106814707D01*
X155124760Y-106787681D01*
X155091275Y-106726358D01*
X155096259Y-106656666D01*
X155124760Y-106612319D01*
X155151786Y-106585292D01*
X155151789Y-106585289D01*
X155239394Y-106454179D01*
X155299737Y-106308497D01*
X155330500Y-106153842D01*
X155330500Y-105996158D01*
X155330500Y-105996155D01*
X155330499Y-105996153D01*
X155314789Y-105917174D01*
X155299737Y-105841503D01*
X155285912Y-105808127D01*
X155239397Y-105695827D01*
X155239390Y-105695814D01*
X155151789Y-105564711D01*
X155151786Y-105564707D01*
X155124760Y-105537681D01*
X155091275Y-105476358D01*
X155096259Y-105406666D01*
X155124760Y-105362319D01*
X155151786Y-105335292D01*
X155151789Y-105335289D01*
X155239394Y-105204179D01*
X155299737Y-105058497D01*
X155330500Y-104903842D01*
X155330500Y-104746158D01*
X155330500Y-104746155D01*
X155330499Y-104746153D01*
X155303045Y-104608133D01*
X155299737Y-104591503D01*
X155292296Y-104573538D01*
X155239397Y-104445827D01*
X155239390Y-104445814D01*
X155151789Y-104314711D01*
X155151786Y-104314707D01*
X155040292Y-104203213D01*
X155040288Y-104203210D01*
X154909185Y-104115609D01*
X154909172Y-104115602D01*
X154763501Y-104055264D01*
X154763489Y-104055261D01*
X154608845Y-104024500D01*
X154608842Y-104024500D01*
X153951158Y-104024500D01*
X153951155Y-104024500D01*
X153796510Y-104055261D01*
X153796498Y-104055264D01*
X153650827Y-104115602D01*
X153650814Y-104115609D01*
X153519711Y-104203210D01*
X153519707Y-104203213D01*
X153408213Y-104314707D01*
X153408210Y-104314711D01*
X153320609Y-104445814D01*
X153320602Y-104445827D01*
X153260264Y-104591498D01*
X153260261Y-104591510D01*
X153229500Y-104746153D01*
X153229500Y-104903846D01*
X153260261Y-105058489D01*
X153260264Y-105058501D01*
X153320602Y-105204172D01*
X153320609Y-105204185D01*
X153408210Y-105335288D01*
X153408213Y-105335292D01*
X153435240Y-105362319D01*
X153468725Y-105423642D01*
X153463741Y-105493334D01*
X153435240Y-105537681D01*
X153408213Y-105564707D01*
X153408210Y-105564711D01*
X153320609Y-105695814D01*
X153320602Y-105695827D01*
X153260264Y-105841498D01*
X153260261Y-105841510D01*
X153229500Y-105996153D01*
X153229500Y-106153846D01*
X153260261Y-106308489D01*
X153260264Y-106308501D01*
X153320602Y-106454172D01*
X153320609Y-106454185D01*
X153408210Y-106585288D01*
X153408213Y-106585292D01*
X153435240Y-106612319D01*
X153468725Y-106673642D01*
X153463741Y-106743334D01*
X153435240Y-106787681D01*
X153408213Y-106814707D01*
X153408210Y-106814711D01*
X153320609Y-106945814D01*
X153320602Y-106945827D01*
X153260264Y-107091498D01*
X153260261Y-107091510D01*
X153229500Y-107246153D01*
X153229500Y-107403846D01*
X153260261Y-107558489D01*
X153260264Y-107558501D01*
X153320602Y-107704172D01*
X153320609Y-107704185D01*
X153395620Y-107816446D01*
X153416498Y-107883124D01*
X153398014Y-107950504D01*
X153390894Y-107960823D01*
X153305464Y-108072157D01*
X153244956Y-108218237D01*
X153244955Y-108218239D01*
X153229500Y-108335638D01*
X153229500Y-108814363D01*
X150950000Y-108814363D01*
X150950000Y-100653846D01*
X152329500Y-100653846D01*
X152360261Y-100808489D01*
X152360264Y-100808501D01*
X152420602Y-100954172D01*
X152420609Y-100954185D01*
X152508210Y-101085288D01*
X152508213Y-101085292D01*
X152619707Y-101196786D01*
X152619711Y-101196789D01*
X152750814Y-101284390D01*
X152750827Y-101284397D01*
X152877993Y-101337070D01*
X152896503Y-101344737D01*
X153048644Y-101375000D01*
X153051153Y-101375499D01*
X153051156Y-101375500D01*
X153051158Y-101375500D01*
X153708844Y-101375500D01*
X153708845Y-101375499D01*
X153863497Y-101344737D01*
X154009179Y-101284394D01*
X154140289Y-101196789D01*
X154251789Y-101085289D01*
X154339394Y-100954179D01*
X154399737Y-100808497D01*
X154430500Y-100653842D01*
X154430500Y-100496158D01*
X154430500Y-100496155D01*
X154430499Y-100496153D01*
X154423083Y-100458869D01*
X154399737Y-100341503D01*
X154389826Y-100317575D01*
X154339397Y-100195827D01*
X154339390Y-100195814D01*
X154251789Y-100064711D01*
X154251786Y-100064707D01*
X154224760Y-100037681D01*
X154191275Y-99976358D01*
X154196259Y-99906666D01*
X154224760Y-99862319D01*
X154251786Y-99835292D01*
X154251789Y-99835289D01*
X154339394Y-99704179D01*
X154348812Y-99681443D01*
X154398673Y-99561066D01*
X154399737Y-99558497D01*
X154430500Y-99403842D01*
X154430500Y-99246158D01*
X154430500Y-99246155D01*
X154430499Y-99246153D01*
X154421682Y-99201827D01*
X154399737Y-99091503D01*
X154383095Y-99051325D01*
X154339397Y-98945827D01*
X154339390Y-98945814D01*
X154251789Y-98814711D01*
X154251786Y-98814707D01*
X154224760Y-98787681D01*
X154191275Y-98726358D01*
X154196259Y-98656666D01*
X154224760Y-98612319D01*
X154251786Y-98585292D01*
X154251789Y-98585289D01*
X154339394Y-98454179D01*
X154399737Y-98308497D01*
X154430500Y-98153842D01*
X154430500Y-97996158D01*
X154430500Y-97996155D01*
X154430499Y-97996153D01*
X154399738Y-97841510D01*
X154399737Y-97841503D01*
X154399735Y-97841498D01*
X154339397Y-97695827D01*
X154339390Y-97695814D01*
X154264379Y-97583553D01*
X154243501Y-97516876D01*
X154261985Y-97449496D01*
X154269100Y-97439183D01*
X154354536Y-97327841D01*
X154415044Y-97181762D01*
X154430500Y-97064361D01*
X154430499Y-96585640D01*
X154430499Y-96585638D01*
X154430499Y-96585636D01*
X154415046Y-96468246D01*
X154415044Y-96468239D01*
X154415044Y-96468238D01*
X154354536Y-96322159D01*
X154258282Y-96196718D01*
X154132841Y-96100464D01*
X153986762Y-96039956D01*
X153986760Y-96039955D01*
X153869370Y-96024501D01*
X153869367Y-96024500D01*
X153869361Y-96024500D01*
X153869354Y-96024500D01*
X152890636Y-96024500D01*
X152773246Y-96039953D01*
X152773237Y-96039956D01*
X152627160Y-96100463D01*
X152501718Y-96196718D01*
X152405463Y-96322160D01*
X152344956Y-96468237D01*
X152344955Y-96468239D01*
X152329500Y-96585638D01*
X152329500Y-97064363D01*
X152344953Y-97181753D01*
X152344956Y-97181762D01*
X152405464Y-97327842D01*
X152490894Y-97439176D01*
X152516088Y-97504345D01*
X152502050Y-97572790D01*
X152495620Y-97583552D01*
X152420612Y-97695809D01*
X152420602Y-97695827D01*
X152360264Y-97841498D01*
X152360261Y-97841510D01*
X152329500Y-97996153D01*
X152329500Y-98153846D01*
X152360261Y-98308489D01*
X152360264Y-98308501D01*
X152420602Y-98454172D01*
X152420609Y-98454185D01*
X152508210Y-98585288D01*
X152508213Y-98585292D01*
X152535240Y-98612319D01*
X152568725Y-98673642D01*
X152563741Y-98743334D01*
X152535240Y-98787681D01*
X152508213Y-98814707D01*
X152508210Y-98814711D01*
X152420609Y-98945814D01*
X152420602Y-98945827D01*
X152360264Y-99091498D01*
X152360261Y-99091510D01*
X152329500Y-99246153D01*
X152329500Y-99403846D01*
X152360261Y-99558489D01*
X152360264Y-99558501D01*
X152420602Y-99704172D01*
X152420609Y-99704185D01*
X152508210Y-99835288D01*
X152508213Y-99835292D01*
X152535240Y-99862319D01*
X152568725Y-99923642D01*
X152563741Y-99993334D01*
X152535240Y-100037681D01*
X152508213Y-100064707D01*
X152508210Y-100064711D01*
X152420609Y-100195814D01*
X152420602Y-100195827D01*
X152360264Y-100341498D01*
X152360261Y-100341510D01*
X152329500Y-100496153D01*
X152329500Y-100653846D01*
X150950000Y-100653846D01*
X150950000Y-92814363D01*
X153229500Y-92814363D01*
X153244953Y-92931753D01*
X153244956Y-92931762D01*
X153305464Y-93077841D01*
X153401718Y-93203282D01*
X153527159Y-93299536D01*
X153673238Y-93360044D01*
X153790639Y-93375500D01*
X154769360Y-93375499D01*
X154769363Y-93375499D01*
X154886753Y-93360046D01*
X154886757Y-93360044D01*
X154886762Y-93360044D01*
X155032841Y-93299536D01*
X155158282Y-93203282D01*
X155254536Y-93077841D01*
X155315044Y-92931762D01*
X155330500Y-92814361D01*
X155330499Y-92335640D01*
X155330499Y-92335638D01*
X155330499Y-92335636D01*
X155315046Y-92218246D01*
X155315044Y-92218239D01*
X155315044Y-92218238D01*
X155254536Y-92072159D01*
X155169104Y-91960821D01*
X155143911Y-91895654D01*
X155157949Y-91827209D01*
X155164374Y-91816453D01*
X155239394Y-91704179D01*
X155299737Y-91558497D01*
X155330500Y-91403842D01*
X155330500Y-91246158D01*
X155330500Y-91246155D01*
X155330499Y-91246153D01*
X155299738Y-91091510D01*
X155299737Y-91091503D01*
X155293109Y-91075501D01*
X155239397Y-90945827D01*
X155239390Y-90945814D01*
X155151789Y-90814711D01*
X155151786Y-90814707D01*
X155124760Y-90787681D01*
X155091275Y-90726358D01*
X155096259Y-90656666D01*
X155124760Y-90612319D01*
X155151786Y-90585292D01*
X155151789Y-90585289D01*
X155239394Y-90454179D01*
X155299737Y-90308497D01*
X155330500Y-90153842D01*
X155330500Y-89996158D01*
X155330500Y-89996155D01*
X155330499Y-89996153D01*
X155299738Y-89841510D01*
X155299737Y-89841503D01*
X155299735Y-89841498D01*
X155239397Y-89695827D01*
X155239390Y-89695814D01*
X155151789Y-89564711D01*
X155151786Y-89564707D01*
X155124760Y-89537681D01*
X155091275Y-89476358D01*
X155096259Y-89406666D01*
X155124760Y-89362319D01*
X155151786Y-89335292D01*
X155151789Y-89335289D01*
X155239394Y-89204179D01*
X155299737Y-89058497D01*
X155330500Y-88903842D01*
X155330500Y-88746158D01*
X155330500Y-88746155D01*
X155330499Y-88746153D01*
X155299738Y-88591510D01*
X155299737Y-88591503D01*
X155299735Y-88591498D01*
X155239397Y-88445827D01*
X155239390Y-88445814D01*
X155151789Y-88314711D01*
X155151786Y-88314707D01*
X155040292Y-88203213D01*
X155040288Y-88203210D01*
X154909185Y-88115609D01*
X154909172Y-88115602D01*
X154763501Y-88055264D01*
X154763489Y-88055261D01*
X154608845Y-88024500D01*
X154608842Y-88024500D01*
X153951158Y-88024500D01*
X153951155Y-88024500D01*
X153796510Y-88055261D01*
X153796498Y-88055264D01*
X153650827Y-88115602D01*
X153650814Y-88115609D01*
X153519711Y-88203210D01*
X153519707Y-88203213D01*
X153408213Y-88314707D01*
X153408210Y-88314711D01*
X153320609Y-88445814D01*
X153320602Y-88445827D01*
X153260264Y-88591498D01*
X153260261Y-88591510D01*
X153229500Y-88746153D01*
X153229500Y-88903846D01*
X153260261Y-89058489D01*
X153260264Y-89058501D01*
X153320602Y-89204172D01*
X153320609Y-89204185D01*
X153408210Y-89335288D01*
X153408213Y-89335292D01*
X153435240Y-89362319D01*
X153468725Y-89423642D01*
X153463741Y-89493334D01*
X153435240Y-89537681D01*
X153408213Y-89564707D01*
X153408210Y-89564711D01*
X153320609Y-89695814D01*
X153320602Y-89695827D01*
X153260264Y-89841498D01*
X153260261Y-89841510D01*
X153229500Y-89996153D01*
X153229500Y-90153846D01*
X153260261Y-90308489D01*
X153260264Y-90308501D01*
X153320602Y-90454172D01*
X153320609Y-90454185D01*
X153408210Y-90585288D01*
X153408213Y-90585292D01*
X153435240Y-90612319D01*
X153468725Y-90673642D01*
X153463741Y-90743334D01*
X153435240Y-90787681D01*
X153408213Y-90814707D01*
X153408210Y-90814711D01*
X153320609Y-90945814D01*
X153320602Y-90945827D01*
X153260264Y-91091498D01*
X153260261Y-91091510D01*
X153229500Y-91246153D01*
X153229500Y-91403846D01*
X153260261Y-91558489D01*
X153260264Y-91558501D01*
X153320602Y-91704172D01*
X153320609Y-91704185D01*
X153395620Y-91816446D01*
X153416498Y-91883124D01*
X153398014Y-91950504D01*
X153390894Y-91960823D01*
X153305464Y-92072157D01*
X153244956Y-92218237D01*
X153244955Y-92218239D01*
X153229500Y-92335638D01*
X153229500Y-92814363D01*
X150950000Y-92814363D01*
X150950000Y-84839363D01*
X153254500Y-84839363D01*
X153269953Y-84956753D01*
X153269956Y-84956762D01*
X153330464Y-85102841D01*
X153426718Y-85228282D01*
X153552159Y-85324536D01*
X153698238Y-85385044D01*
X153815639Y-85400500D01*
X154794360Y-85400499D01*
X154794363Y-85400499D01*
X154911753Y-85385046D01*
X154911757Y-85385044D01*
X154911762Y-85385044D01*
X155057841Y-85324536D01*
X155183282Y-85228282D01*
X155279536Y-85102841D01*
X155340044Y-84956762D01*
X155355500Y-84839361D01*
X155355499Y-84360640D01*
X155355499Y-84360638D01*
X155355499Y-84360636D01*
X155340046Y-84243246D01*
X155340044Y-84243239D01*
X155340044Y-84243238D01*
X155279536Y-84097159D01*
X155194104Y-83985821D01*
X155168911Y-83920654D01*
X155182949Y-83852209D01*
X155189374Y-83841453D01*
X155264394Y-83729179D01*
X155324737Y-83583497D01*
X155355500Y-83428842D01*
X155355500Y-83271158D01*
X155355500Y-83271155D01*
X155355499Y-83271153D01*
X155324738Y-83116510D01*
X155324737Y-83116503D01*
X155313650Y-83089736D01*
X155264397Y-82970827D01*
X155264390Y-82970814D01*
X155176789Y-82839711D01*
X155176786Y-82839707D01*
X155149760Y-82812681D01*
X155116275Y-82751358D01*
X155121259Y-82681666D01*
X155149760Y-82637319D01*
X155176786Y-82610292D01*
X155176789Y-82610289D01*
X155264394Y-82479179D01*
X155324737Y-82333497D01*
X155355500Y-82178842D01*
X155355500Y-82021158D01*
X155355500Y-82021155D01*
X155355499Y-82021153D01*
X155337430Y-81930315D01*
X155324737Y-81866503D01*
X155324735Y-81866498D01*
X155264397Y-81720827D01*
X155264390Y-81720814D01*
X155176789Y-81589711D01*
X155176786Y-81589707D01*
X155149760Y-81562681D01*
X155116275Y-81501358D01*
X155121259Y-81431666D01*
X155149760Y-81387319D01*
X155176786Y-81360292D01*
X155176789Y-81360289D01*
X155264394Y-81229179D01*
X155324737Y-81083497D01*
X155355500Y-80928842D01*
X155355500Y-80771158D01*
X155355500Y-80771155D01*
X155355499Y-80771153D01*
X155324738Y-80616510D01*
X155324737Y-80616503D01*
X155324735Y-80616498D01*
X155264397Y-80470827D01*
X155264390Y-80470814D01*
X155176789Y-80339711D01*
X155176786Y-80339707D01*
X155065292Y-80228213D01*
X155065288Y-80228210D01*
X154934185Y-80140609D01*
X154934172Y-80140602D01*
X154788501Y-80080264D01*
X154788489Y-80080261D01*
X154633845Y-80049500D01*
X154633842Y-80049500D01*
X153976158Y-80049500D01*
X153976155Y-80049500D01*
X153821510Y-80080261D01*
X153821498Y-80080264D01*
X153675827Y-80140602D01*
X153675814Y-80140609D01*
X153544711Y-80228210D01*
X153544707Y-80228213D01*
X153433213Y-80339707D01*
X153433210Y-80339711D01*
X153345609Y-80470814D01*
X153345602Y-80470827D01*
X153285264Y-80616498D01*
X153285261Y-80616510D01*
X153254500Y-80771153D01*
X153254500Y-80928846D01*
X153285261Y-81083489D01*
X153285264Y-81083501D01*
X153345602Y-81229172D01*
X153345609Y-81229185D01*
X153433210Y-81360288D01*
X153433213Y-81360292D01*
X153460240Y-81387319D01*
X153493725Y-81448642D01*
X153488741Y-81518334D01*
X153460240Y-81562681D01*
X153433213Y-81589707D01*
X153433210Y-81589711D01*
X153345609Y-81720814D01*
X153345602Y-81720827D01*
X153285264Y-81866498D01*
X153285261Y-81866510D01*
X153254500Y-82021153D01*
X153254500Y-82178846D01*
X153285261Y-82333489D01*
X153285264Y-82333501D01*
X153345602Y-82479172D01*
X153345609Y-82479185D01*
X153433210Y-82610288D01*
X153433213Y-82610292D01*
X153460240Y-82637319D01*
X153493725Y-82698642D01*
X153488741Y-82768334D01*
X153460240Y-82812681D01*
X153433213Y-82839707D01*
X153433210Y-82839711D01*
X153345609Y-82970814D01*
X153345602Y-82970827D01*
X153285264Y-83116498D01*
X153285261Y-83116510D01*
X153254500Y-83271153D01*
X153254500Y-83428846D01*
X153285261Y-83583489D01*
X153285264Y-83583501D01*
X153345602Y-83729172D01*
X153345609Y-83729185D01*
X153420620Y-83841446D01*
X153441498Y-83908124D01*
X153423014Y-83975504D01*
X153415894Y-83985823D01*
X153330464Y-84097157D01*
X153269956Y-84243237D01*
X153269955Y-84243239D01*
X153254500Y-84360638D01*
X153254500Y-84839363D01*
X150950000Y-84839363D01*
X150950000Y-81950000D01*
X149404500Y-81950000D01*
X149337461Y-81930315D01*
X149291706Y-81877511D01*
X149280500Y-81826000D01*
X149280500Y-81265928D01*
X149255502Y-81140261D01*
X149255501Y-81140260D01*
X149255501Y-81140256D01*
X149206465Y-81021873D01*
X149159729Y-80951927D01*
X149159729Y-80951926D01*
X149135274Y-80915327D01*
X147994673Y-79774726D01*
X147889143Y-79704214D01*
X147888127Y-79703535D01*
X147769744Y-79654499D01*
X147769736Y-79654497D01*
X147644073Y-79629501D01*
X147644069Y-79629501D01*
X147515931Y-79629501D01*
X147515926Y-79629501D01*
X147390263Y-79654497D01*
X147390255Y-79654499D01*
X147271874Y-79703534D01*
X147165326Y-79774726D01*
X147074726Y-79865326D01*
X147003534Y-79971874D01*
X146954499Y-80090255D01*
X146954497Y-80090263D01*
X146929501Y-80215926D01*
X146929501Y-80344073D01*
X146954497Y-80469736D01*
X146954499Y-80469744D01*
X147003534Y-80588125D01*
X147074726Y-80694673D01*
X147197372Y-80817319D01*
X147230857Y-80878642D01*
X147225873Y-80948334D01*
X147197372Y-80992681D01*
X146424727Y-81765325D01*
X146424724Y-81765328D01*
X146377987Y-81835275D01*
X146377988Y-81835276D01*
X146353537Y-81871869D01*
X146353533Y-81871877D01*
X146352882Y-81873450D01*
X146352320Y-81874147D01*
X146350665Y-81877244D01*
X146350077Y-81876930D01*
X146309043Y-81927854D01*
X146242749Y-81949921D01*
X146238320Y-81950000D01*
X132900000Y-81950000D01*
X132900000Y-109800000D01*
X127569946Y-109800000D01*
X126559572Y-108789626D01*
X126526087Y-108728303D01*
X126531071Y-108658611D01*
X126565024Y-108609130D01*
X126608032Y-108571030D01*
X126694321Y-108446019D01*
X126711096Y-108401784D01*
X126739354Y-108358077D01*
X126792616Y-108304817D01*
X126853940Y-108271333D01*
X126880296Y-108268500D01*
X128729376Y-108268500D01*
X128729378Y-108268500D01*
X128786030Y-108253320D01*
X128842683Y-108238140D01*
X128893476Y-108208814D01*
X128944270Y-108179489D01*
X130874389Y-106249369D01*
X130933041Y-106147782D01*
X130963400Y-106034477D01*
X130963400Y-105917174D01*
X130963400Y-97366831D01*
X130933040Y-97253525D01*
X130893621Y-97185250D01*
X130874389Y-97151938D01*
X130874387Y-97151936D01*
X130874386Y-97151934D01*
X130874385Y-97151933D01*
X130002883Y-96280432D01*
X129969398Y-96219109D01*
X129974382Y-96149418D01*
X129974505Y-96149088D01*
X130011785Y-96050791D01*
X130030094Y-95900000D01*
X130011785Y-95749209D01*
X129957921Y-95607181D01*
X129871632Y-95482170D01*
X129757934Y-95381443D01*
X129623434Y-95310852D01*
X129623433Y-95310851D01*
X129623432Y-95310851D01*
X129475950Y-95274500D01*
X129475949Y-95274500D01*
X129324051Y-95274500D01*
X129324050Y-95274500D01*
X129176567Y-95310851D01*
X129042067Y-95381442D01*
X128928367Y-95482171D01*
X128842080Y-95607179D01*
X128842079Y-95607180D01*
X128788213Y-95749211D01*
X128787493Y-95752135D01*
X128786380Y-95754045D01*
X128785555Y-95756222D01*
X128785192Y-95756084D01*
X128752333Y-95812513D01*
X128690112Y-95844298D01*
X128620583Y-95837397D01*
X128577272Y-95805548D01*
X128576384Y-95806437D01*
X127314673Y-94544726D01*
X127314669Y-94544723D01*
X127208127Y-94473535D01*
X127089744Y-94424499D01*
X127089736Y-94424497D01*
X126964073Y-94399501D01*
X126964069Y-94399501D01*
X126835931Y-94399501D01*
X126835926Y-94399501D01*
X126710263Y-94424497D01*
X126710255Y-94424499D01*
X126591874Y-94473534D01*
X126485326Y-94544726D01*
X126394726Y-94635326D01*
X126323534Y-94741874D01*
X126274499Y-94860255D01*
X126274497Y-94860263D01*
X126249501Y-94985926D01*
X126249501Y-95114073D01*
X126274497Y-95239736D01*
X126274499Y-95239744D01*
X126303952Y-95310851D01*
X126323535Y-95358127D01*
X126339114Y-95381443D01*
X126394726Y-95464673D01*
X126394727Y-95464674D01*
X127379981Y-96449927D01*
X127413466Y-96511250D01*
X127416300Y-96537608D01*
X127416300Y-98387469D01*
X127416300Y-98387471D01*
X127416299Y-98387471D01*
X127441297Y-98513138D01*
X127441299Y-98513144D01*
X127471182Y-98585289D01*
X127490335Y-98631527D01*
X127538232Y-98703211D01*
X127561526Y-98738073D01*
X127561527Y-98738074D01*
X128613181Y-99789726D01*
X128646666Y-99851049D01*
X128649500Y-99877407D01*
X128649500Y-100458869D01*
X128649500Y-100458871D01*
X128649499Y-100458871D01*
X128674497Y-100584538D01*
X128674499Y-100584544D01*
X128723535Y-100702927D01*
X128794723Y-100809469D01*
X128794726Y-100809473D01*
X128819972Y-100834719D01*
X128853457Y-100896042D01*
X128848473Y-100965734D01*
X128819972Y-101010081D01*
X128577527Y-101252525D01*
X128577526Y-101252526D01*
X128521038Y-101337069D01*
X128521036Y-101337072D01*
X128506336Y-101359070D01*
X128506333Y-101359075D01*
X128457299Y-101477455D01*
X128457297Y-101477461D01*
X128432300Y-101603128D01*
X128432300Y-103663651D01*
X128412615Y-103730690D01*
X128377192Y-103766753D01*
X128335327Y-103794726D01*
X126263873Y-105866181D01*
X126202550Y-105899666D01*
X126176192Y-105902500D01*
X125356290Y-105902500D01*
X125230622Y-105927497D01*
X125230616Y-105927499D01*
X125112231Y-105976535D01*
X125005692Y-106047722D01*
X125005685Y-106047728D01*
X124396924Y-106656489D01*
X124350813Y-106725501D01*
X124325735Y-106763033D01*
X124276699Y-106881416D01*
X124276697Y-106881422D01*
X124251700Y-107007089D01*
X124251700Y-107277700D01*
X124232015Y-107344739D01*
X124179211Y-107390494D01*
X124127700Y-107401700D01*
X122810665Y-107401700D01*
X122743626Y-107382015D01*
X122697871Y-107329211D01*
X122687927Y-107260053D01*
X122716952Y-107196497D01*
X122728433Y-107184888D01*
X122798032Y-107123230D01*
X122884321Y-106998219D01*
X122938185Y-106856191D01*
X122956494Y-106705400D01*
X122938185Y-106554609D01*
X122884321Y-106412581D01*
X122798032Y-106287570D01*
X122684334Y-106186843D01*
X122549834Y-106116252D01*
X122549833Y-106116251D01*
X122549832Y-106116251D01*
X122402348Y-106079899D01*
X122394905Y-106078996D01*
X122395216Y-106076427D01*
X122340004Y-106060215D01*
X122319362Y-106043581D01*
X121555719Y-105279938D01*
X121522234Y-105218615D01*
X121519400Y-105192257D01*
X121519400Y-104041329D01*
X122749484Y-104041329D01*
X122908255Y-104096887D01*
X123076195Y-104115809D01*
X123076203Y-104115809D01*
X123244142Y-104096887D01*
X123402912Y-104041330D01*
X123402913Y-104041329D01*
X124016151Y-104041329D01*
X124174922Y-104096887D01*
X124342862Y-104115809D01*
X124342870Y-104115809D01*
X124510809Y-104096887D01*
X124669579Y-104041330D01*
X124669580Y-104041329D01*
X125282817Y-104041329D01*
X125441588Y-104096887D01*
X125609528Y-104115809D01*
X125609536Y-104115809D01*
X125777475Y-104096887D01*
X125936245Y-104041330D01*
X125936246Y-104041329D01*
X126549484Y-104041329D01*
X126708255Y-104096887D01*
X126876195Y-104115809D01*
X126876203Y-104115809D01*
X127044142Y-104096887D01*
X127202912Y-104041330D01*
X127202913Y-104041329D01*
X126876200Y-103714616D01*
X126876199Y-103714616D01*
X126549484Y-104041329D01*
X125936246Y-104041329D01*
X125609533Y-103714616D01*
X125609532Y-103714616D01*
X125282817Y-104041329D01*
X124669580Y-104041329D01*
X124342867Y-103714616D01*
X124342866Y-103714616D01*
X124016151Y-104041329D01*
X123402913Y-104041329D01*
X123076200Y-103714616D01*
X123076199Y-103714616D01*
X122749484Y-104041329D01*
X121519400Y-104041329D01*
X121519400Y-103361066D01*
X122321453Y-103361066D01*
X122340374Y-103529001D01*
X122340375Y-103529006D01*
X122395931Y-103687777D01*
X122702755Y-103380954D01*
X122976199Y-103380954D01*
X122991423Y-103417708D01*
X123019554Y-103445839D01*
X123056308Y-103461063D01*
X123096090Y-103461063D01*
X123132844Y-103445839D01*
X123160975Y-103417708D01*
X123176199Y-103380954D01*
X123176199Y-103361064D01*
X123429752Y-103361064D01*
X123709531Y-103640843D01*
X123709532Y-103640843D01*
X123969422Y-103380954D01*
X124242866Y-103380954D01*
X124258090Y-103417708D01*
X124286221Y-103445839D01*
X124322975Y-103461063D01*
X124362757Y-103461063D01*
X124399511Y-103445839D01*
X124427642Y-103417708D01*
X124442866Y-103380954D01*
X124442866Y-103361063D01*
X124696419Y-103361063D01*
X124976199Y-103640843D01*
X125236088Y-103380954D01*
X125509532Y-103380954D01*
X125524756Y-103417708D01*
X125552887Y-103445839D01*
X125589641Y-103461063D01*
X125629423Y-103461063D01*
X125666177Y-103445839D01*
X125694308Y-103417708D01*
X125709532Y-103380954D01*
X125709532Y-103361064D01*
X125963085Y-103361064D01*
X126242864Y-103640843D01*
X126242865Y-103640843D01*
X126502755Y-103380954D01*
X126776199Y-103380954D01*
X126791423Y-103417708D01*
X126819554Y-103445839D01*
X126856308Y-103461063D01*
X126896090Y-103461063D01*
X126932844Y-103445839D01*
X126960975Y-103417708D01*
X126976199Y-103380954D01*
X126976199Y-103361063D01*
X127229752Y-103361063D01*
X127556465Y-103687776D01*
X127556466Y-103687776D01*
X127612023Y-103529006D01*
X127630945Y-103361066D01*
X127630945Y-103361059D01*
X127612023Y-103193119D01*
X127556465Y-103034348D01*
X127229752Y-103361062D01*
X127229752Y-103361063D01*
X126976199Y-103361063D01*
X126976199Y-103341172D01*
X126960975Y-103304418D01*
X126932844Y-103276287D01*
X126896090Y-103261063D01*
X126856308Y-103261063D01*
X126819554Y-103276287D01*
X126791423Y-103304418D01*
X126776199Y-103341172D01*
X126776199Y-103380954D01*
X126502755Y-103380954D01*
X126522646Y-103361063D01*
X126242865Y-103081282D01*
X126242864Y-103081282D01*
X125963085Y-103361062D01*
X125963085Y-103361064D01*
X125709532Y-103361064D01*
X125709532Y-103341172D01*
X125694308Y-103304418D01*
X125666177Y-103276287D01*
X125629423Y-103261063D01*
X125589641Y-103261063D01*
X125552887Y-103276287D01*
X125524756Y-103304418D01*
X125509532Y-103341172D01*
X125509532Y-103380954D01*
X125236088Y-103380954D01*
X125255979Y-103361063D01*
X124976199Y-103081283D01*
X124696419Y-103361063D01*
X124442866Y-103361063D01*
X124442866Y-103341172D01*
X124427642Y-103304418D01*
X124399511Y-103276287D01*
X124362757Y-103261063D01*
X124322975Y-103261063D01*
X124286221Y-103276287D01*
X124258090Y-103304418D01*
X124242866Y-103341172D01*
X124242866Y-103380954D01*
X123969422Y-103380954D01*
X123989313Y-103361063D01*
X123709532Y-103081282D01*
X123709531Y-103081282D01*
X123429752Y-103361062D01*
X123429752Y-103361064D01*
X123176199Y-103361064D01*
X123176199Y-103341172D01*
X123160975Y-103304418D01*
X123132844Y-103276287D01*
X123096090Y-103261063D01*
X123056308Y-103261063D01*
X123019554Y-103276287D01*
X122991423Y-103304418D01*
X122976199Y-103341172D01*
X122976199Y-103380954D01*
X122702755Y-103380954D01*
X122722646Y-103361063D01*
X122395931Y-103034348D01*
X122340375Y-103193116D01*
X122340374Y-103193121D01*
X122321453Y-103361059D01*
X122321453Y-103361066D01*
X121519400Y-103361066D01*
X121519400Y-102727729D01*
X122796418Y-102727729D01*
X123076199Y-103007510D01*
X123076200Y-103007510D01*
X123355979Y-102727729D01*
X124063085Y-102727729D01*
X124342866Y-103007510D01*
X124342867Y-103007510D01*
X124622646Y-102727729D01*
X125329751Y-102727729D01*
X125609532Y-103007510D01*
X125609533Y-103007510D01*
X125889312Y-102727729D01*
X126596418Y-102727729D01*
X126876199Y-103007510D01*
X126876200Y-103007510D01*
X127155979Y-102727729D01*
X127155979Y-102727728D01*
X126876200Y-102447949D01*
X126876199Y-102447949D01*
X126596418Y-102727728D01*
X126596418Y-102727729D01*
X125889312Y-102727729D01*
X125889312Y-102727728D01*
X125609533Y-102447949D01*
X125609532Y-102447949D01*
X125329751Y-102727728D01*
X125329751Y-102727729D01*
X124622646Y-102727729D01*
X124622646Y-102727728D01*
X124342867Y-102447949D01*
X124342866Y-102447949D01*
X124063085Y-102727728D01*
X124063085Y-102727729D01*
X123355979Y-102727729D01*
X123355979Y-102727728D01*
X123076200Y-102447949D01*
X123076199Y-102447949D01*
X122796418Y-102727728D01*
X122796418Y-102727729D01*
X121519400Y-102727729D01*
X121519400Y-102094399D01*
X122321453Y-102094399D01*
X122340374Y-102262334D01*
X122340375Y-102262339D01*
X122395931Y-102421110D01*
X122702755Y-102114287D01*
X122976199Y-102114287D01*
X122991423Y-102151041D01*
X123019554Y-102179172D01*
X123056308Y-102194396D01*
X123096090Y-102194396D01*
X123132844Y-102179172D01*
X123160975Y-102151041D01*
X123176199Y-102114287D01*
X123176199Y-102094397D01*
X123429752Y-102094397D01*
X123709531Y-102374176D01*
X123709532Y-102374176D01*
X123969422Y-102114287D01*
X124242866Y-102114287D01*
X124258090Y-102151041D01*
X124286221Y-102179172D01*
X124322975Y-102194396D01*
X124362757Y-102194396D01*
X124399511Y-102179172D01*
X124427642Y-102151041D01*
X124442866Y-102114287D01*
X124442866Y-102094396D01*
X124696419Y-102094396D01*
X124976199Y-102374176D01*
X125236088Y-102114287D01*
X125509532Y-102114287D01*
X125524756Y-102151041D01*
X125552887Y-102179172D01*
X125589641Y-102194396D01*
X125629423Y-102194396D01*
X125666177Y-102179172D01*
X125694308Y-102151041D01*
X125709532Y-102114287D01*
X125709532Y-102094397D01*
X125963085Y-102094397D01*
X126242864Y-102374176D01*
X126242865Y-102374176D01*
X126502755Y-102114287D01*
X126776199Y-102114287D01*
X126791423Y-102151041D01*
X126819554Y-102179172D01*
X126856308Y-102194396D01*
X126896090Y-102194396D01*
X126932844Y-102179172D01*
X126960975Y-102151041D01*
X126976199Y-102114287D01*
X126976199Y-102094396D01*
X127229752Y-102094396D01*
X127556465Y-102421109D01*
X127556466Y-102421109D01*
X127612023Y-102262339D01*
X127630945Y-102094399D01*
X127630945Y-102094392D01*
X127612023Y-101926452D01*
X127556465Y-101767681D01*
X127229752Y-102094395D01*
X127229752Y-102094396D01*
X126976199Y-102094396D01*
X126976199Y-102074505D01*
X126960975Y-102037751D01*
X126932844Y-102009620D01*
X126896090Y-101994396D01*
X126856308Y-101994396D01*
X126819554Y-102009620D01*
X126791423Y-102037751D01*
X126776199Y-102074505D01*
X126776199Y-102114287D01*
X126502755Y-102114287D01*
X126522646Y-102094396D01*
X126242865Y-101814615D01*
X126242864Y-101814615D01*
X125963085Y-102094395D01*
X125963085Y-102094397D01*
X125709532Y-102094397D01*
X125709532Y-102074505D01*
X125694308Y-102037751D01*
X125666177Y-102009620D01*
X125629423Y-101994396D01*
X125589641Y-101994396D01*
X125552887Y-102009620D01*
X125524756Y-102037751D01*
X125509532Y-102074505D01*
X125509532Y-102114287D01*
X125236088Y-102114287D01*
X125255979Y-102094396D01*
X124976199Y-101814616D01*
X124696419Y-102094396D01*
X124442866Y-102094396D01*
X124442866Y-102074505D01*
X124427642Y-102037751D01*
X124399511Y-102009620D01*
X124362757Y-101994396D01*
X124322975Y-101994396D01*
X124286221Y-102009620D01*
X124258090Y-102037751D01*
X124242866Y-102074505D01*
X124242866Y-102114287D01*
X123969422Y-102114287D01*
X123989313Y-102094396D01*
X123709532Y-101814615D01*
X123709531Y-101814615D01*
X123429752Y-102094395D01*
X123429752Y-102094397D01*
X123176199Y-102094397D01*
X123176199Y-102074505D01*
X123160975Y-102037751D01*
X123132844Y-102009620D01*
X123096090Y-101994396D01*
X123056308Y-101994396D01*
X123019554Y-102009620D01*
X122991423Y-102037751D01*
X122976199Y-102074505D01*
X122976199Y-102114287D01*
X122702755Y-102114287D01*
X122722646Y-102094396D01*
X122395931Y-101767681D01*
X122340375Y-101926449D01*
X122340374Y-101926454D01*
X122321453Y-102094392D01*
X122321453Y-102094399D01*
X121519400Y-102094399D01*
X121519400Y-101461063D01*
X122796419Y-101461063D01*
X123076199Y-101740843D01*
X123355979Y-101461063D01*
X124063086Y-101461063D01*
X124342866Y-101740843D01*
X124622646Y-101461063D01*
X125329752Y-101461063D01*
X125609532Y-101740843D01*
X125889312Y-101461063D01*
X126596419Y-101461063D01*
X126876199Y-101740843D01*
X127155979Y-101461063D01*
X126876199Y-101181283D01*
X126596419Y-101461063D01*
X125889312Y-101461063D01*
X125609532Y-101181283D01*
X125329752Y-101461063D01*
X124622646Y-101461063D01*
X124342866Y-101181283D01*
X124063086Y-101461063D01*
X123355979Y-101461063D01*
X123076199Y-101181283D01*
X122796419Y-101461063D01*
X121519400Y-101461063D01*
X121519400Y-100827733D01*
X122321453Y-100827733D01*
X122340374Y-100995668D01*
X122340375Y-100995673D01*
X122395931Y-101154444D01*
X122702755Y-100847621D01*
X122976199Y-100847621D01*
X122991423Y-100884375D01*
X123019554Y-100912506D01*
X123056308Y-100927730D01*
X123096090Y-100927730D01*
X123132844Y-100912506D01*
X123160975Y-100884375D01*
X123176199Y-100847621D01*
X123176199Y-100827731D01*
X123429752Y-100827731D01*
X123709531Y-101107510D01*
X123709532Y-101107510D01*
X123969422Y-100847621D01*
X124242866Y-100847621D01*
X124258090Y-100884375D01*
X124286221Y-100912506D01*
X124322975Y-100927730D01*
X124362757Y-100927730D01*
X124399511Y-100912506D01*
X124427642Y-100884375D01*
X124442866Y-100847621D01*
X124442866Y-100827730D01*
X124696419Y-100827730D01*
X124976199Y-101107510D01*
X125236088Y-100847621D01*
X125509532Y-100847621D01*
X125524756Y-100884375D01*
X125552887Y-100912506D01*
X125589641Y-100927730D01*
X125629423Y-100927730D01*
X125666177Y-100912506D01*
X125694308Y-100884375D01*
X125709532Y-100847621D01*
X125709532Y-100827731D01*
X125963085Y-100827731D01*
X126242864Y-101107510D01*
X126242865Y-101107510D01*
X126502755Y-100847621D01*
X126776199Y-100847621D01*
X126791423Y-100884375D01*
X126819554Y-100912506D01*
X126856308Y-100927730D01*
X126896090Y-100927730D01*
X126932844Y-100912506D01*
X126960975Y-100884375D01*
X126976199Y-100847621D01*
X126976199Y-100827730D01*
X127229752Y-100827730D01*
X127556465Y-101154443D01*
X127556466Y-101154443D01*
X127612023Y-100995673D01*
X127630945Y-100827733D01*
X127630945Y-100827726D01*
X127612023Y-100659786D01*
X127556465Y-100501015D01*
X127229752Y-100827729D01*
X127229752Y-100827730D01*
X126976199Y-100827730D01*
X126976199Y-100807839D01*
X126960975Y-100771085D01*
X126932844Y-100742954D01*
X126896090Y-100727730D01*
X126856308Y-100727730D01*
X126819554Y-100742954D01*
X126791423Y-100771085D01*
X126776199Y-100807839D01*
X126776199Y-100847621D01*
X126502755Y-100847621D01*
X126522646Y-100827730D01*
X126242865Y-100547949D01*
X126242864Y-100547949D01*
X125963085Y-100827729D01*
X125963085Y-100827731D01*
X125709532Y-100827731D01*
X125709532Y-100807839D01*
X125694308Y-100771085D01*
X125666177Y-100742954D01*
X125629423Y-100727730D01*
X125589641Y-100727730D01*
X125552887Y-100742954D01*
X125524756Y-100771085D01*
X125509532Y-100807839D01*
X125509532Y-100847621D01*
X125236088Y-100847621D01*
X125255979Y-100827730D01*
X124976199Y-100547950D01*
X124696419Y-100827730D01*
X124442866Y-100827730D01*
X124442866Y-100807839D01*
X124427642Y-100771085D01*
X124399511Y-100742954D01*
X124362757Y-100727730D01*
X124322975Y-100727730D01*
X124286221Y-100742954D01*
X124258090Y-100771085D01*
X124242866Y-100807839D01*
X124242866Y-100847621D01*
X123969422Y-100847621D01*
X123989313Y-100827730D01*
X123709532Y-100547949D01*
X123709531Y-100547949D01*
X123429752Y-100827729D01*
X123429752Y-100827731D01*
X123176199Y-100827731D01*
X123176199Y-100807839D01*
X123160975Y-100771085D01*
X123132844Y-100742954D01*
X123096090Y-100727730D01*
X123056308Y-100727730D01*
X123019554Y-100742954D01*
X122991423Y-100771085D01*
X122976199Y-100807839D01*
X122976199Y-100847621D01*
X122702755Y-100847621D01*
X122722646Y-100827730D01*
X122395931Y-100501015D01*
X122340375Y-100659783D01*
X122340374Y-100659788D01*
X122321453Y-100827726D01*
X122321453Y-100827733D01*
X121519400Y-100827733D01*
X121519400Y-100544975D01*
X121539085Y-100477936D01*
X121541350Y-100474535D01*
X121541598Y-100474177D01*
X121614321Y-100368819D01*
X121668185Y-100226791D01*
X121672118Y-100194396D01*
X122796418Y-100194396D01*
X123076199Y-100474177D01*
X123076200Y-100474177D01*
X123355979Y-100194396D01*
X124063085Y-100194396D01*
X124342866Y-100474177D01*
X124342867Y-100474177D01*
X124622646Y-100194396D01*
X125329751Y-100194396D01*
X125609532Y-100474177D01*
X125609533Y-100474177D01*
X125889312Y-100194396D01*
X126596418Y-100194396D01*
X126876199Y-100474177D01*
X126876200Y-100474177D01*
X127155979Y-100194396D01*
X127155979Y-100194395D01*
X126876200Y-99914616D01*
X126876199Y-99914616D01*
X126596418Y-100194395D01*
X126596418Y-100194396D01*
X125889312Y-100194396D01*
X125889312Y-100194395D01*
X125609533Y-99914616D01*
X125609532Y-99914616D01*
X125329751Y-100194395D01*
X125329751Y-100194396D01*
X124622646Y-100194396D01*
X124622646Y-100194395D01*
X124342867Y-99914616D01*
X124342866Y-99914616D01*
X124063085Y-100194395D01*
X124063085Y-100194396D01*
X123355979Y-100194396D01*
X123355979Y-100194395D01*
X123076200Y-99914616D01*
X123076199Y-99914616D01*
X122796418Y-100194395D01*
X122796418Y-100194396D01*
X121672118Y-100194396D01*
X121686494Y-100076000D01*
X121668185Y-99925209D01*
X121614321Y-99783181D01*
X121528032Y-99658170D01*
X121418424Y-99561066D01*
X122321453Y-99561066D01*
X122340374Y-99729001D01*
X122340375Y-99729006D01*
X122395931Y-99887777D01*
X122702755Y-99580954D01*
X122976199Y-99580954D01*
X122991423Y-99617708D01*
X123019554Y-99645839D01*
X123056308Y-99661063D01*
X123096090Y-99661063D01*
X123132844Y-99645839D01*
X123160975Y-99617708D01*
X123176199Y-99580954D01*
X123176199Y-99561064D01*
X123429752Y-99561064D01*
X123709531Y-99840843D01*
X123709532Y-99840843D01*
X123969422Y-99580954D01*
X124242866Y-99580954D01*
X124258090Y-99617708D01*
X124286221Y-99645839D01*
X124322975Y-99661063D01*
X124362757Y-99661063D01*
X124399511Y-99645839D01*
X124427642Y-99617708D01*
X124442866Y-99580954D01*
X124442866Y-99561063D01*
X124696419Y-99561063D01*
X124976199Y-99840843D01*
X125236088Y-99580954D01*
X125509532Y-99580954D01*
X125524756Y-99617708D01*
X125552887Y-99645839D01*
X125589641Y-99661063D01*
X125629423Y-99661063D01*
X125666177Y-99645839D01*
X125694308Y-99617708D01*
X125709532Y-99580954D01*
X125709532Y-99561064D01*
X125963085Y-99561064D01*
X126242864Y-99840843D01*
X126242865Y-99840843D01*
X126502755Y-99580954D01*
X126776199Y-99580954D01*
X126791423Y-99617708D01*
X126819554Y-99645839D01*
X126856308Y-99661063D01*
X126896090Y-99661063D01*
X126932844Y-99645839D01*
X126960975Y-99617708D01*
X126976199Y-99580954D01*
X126976199Y-99561063D01*
X127229752Y-99561063D01*
X127556465Y-99887776D01*
X127556466Y-99887776D01*
X127612023Y-99729006D01*
X127630945Y-99561066D01*
X127630945Y-99561059D01*
X127612023Y-99393119D01*
X127556465Y-99234348D01*
X127229752Y-99561062D01*
X127229752Y-99561063D01*
X126976199Y-99561063D01*
X126976199Y-99541172D01*
X126960975Y-99504418D01*
X126932844Y-99476287D01*
X126896090Y-99461063D01*
X126856308Y-99461063D01*
X126819554Y-99476287D01*
X126791423Y-99504418D01*
X126776199Y-99541172D01*
X126776199Y-99580954D01*
X126502755Y-99580954D01*
X126522646Y-99561063D01*
X126242865Y-99281282D01*
X126242864Y-99281282D01*
X125963085Y-99561062D01*
X125963085Y-99561064D01*
X125709532Y-99561064D01*
X125709532Y-99541172D01*
X125694308Y-99504418D01*
X125666177Y-99476287D01*
X125629423Y-99461063D01*
X125589641Y-99461063D01*
X125552887Y-99476287D01*
X125524756Y-99504418D01*
X125509532Y-99541172D01*
X125509532Y-99580954D01*
X125236088Y-99580954D01*
X125255979Y-99561063D01*
X124976199Y-99281283D01*
X124696419Y-99561063D01*
X124442866Y-99561063D01*
X124442866Y-99541172D01*
X124427642Y-99504418D01*
X124399511Y-99476287D01*
X124362757Y-99461063D01*
X124322975Y-99461063D01*
X124286221Y-99476287D01*
X124258090Y-99504418D01*
X124242866Y-99541172D01*
X124242866Y-99580954D01*
X123969422Y-99580954D01*
X123989313Y-99561063D01*
X123709532Y-99281282D01*
X123709531Y-99281282D01*
X123429752Y-99561062D01*
X123429752Y-99561064D01*
X123176199Y-99561064D01*
X123176199Y-99541172D01*
X123160975Y-99504418D01*
X123132844Y-99476287D01*
X123096090Y-99461063D01*
X123056308Y-99461063D01*
X123019554Y-99476287D01*
X122991423Y-99504418D01*
X122976199Y-99541172D01*
X122976199Y-99580954D01*
X122702755Y-99580954D01*
X122722646Y-99561063D01*
X122395931Y-99234348D01*
X122340375Y-99393116D01*
X122340374Y-99393121D01*
X122321453Y-99561059D01*
X122321453Y-99561066D01*
X121418424Y-99561066D01*
X121414334Y-99557443D01*
X121279834Y-99486852D01*
X121279833Y-99486851D01*
X121279832Y-99486851D01*
X121132350Y-99450500D01*
X121132349Y-99450500D01*
X120980451Y-99450500D01*
X120980450Y-99450500D01*
X120832967Y-99486851D01*
X120698467Y-99557442D01*
X120584767Y-99658171D01*
X120498480Y-99783179D01*
X120498479Y-99783180D01*
X120444615Y-99925208D01*
X120426306Y-100076000D01*
X120444615Y-100226791D01*
X120498479Y-100368819D01*
X120498479Y-100368820D01*
X120544761Y-100435871D01*
X120571202Y-100474177D01*
X120571450Y-100474535D01*
X120593333Y-100540889D01*
X120593400Y-100544975D01*
X120593400Y-102538731D01*
X120573715Y-102605770D01*
X120520911Y-102651525D01*
X120451753Y-102661469D01*
X120388197Y-102632444D01*
X120381719Y-102626412D01*
X118504482Y-100749175D01*
X118470997Y-100687852D01*
X118475981Y-100618160D01*
X118490111Y-100591058D01*
X118557921Y-100492819D01*
X118611785Y-100350791D01*
X118630094Y-100200000D01*
X118611785Y-100049209D01*
X118557921Y-99907181D01*
X118471632Y-99782170D01*
X118357934Y-99681443D01*
X118223434Y-99610852D01*
X118223433Y-99610851D01*
X118223432Y-99610851D01*
X118075950Y-99574500D01*
X118075949Y-99574500D01*
X117924051Y-99574500D01*
X117924050Y-99574500D01*
X117776567Y-99610851D01*
X117642067Y-99681442D01*
X117620564Y-99700491D01*
X117557329Y-99730209D01*
X117488066Y-99721023D01*
X117450659Y-99695353D01*
X116675666Y-98920359D01*
X116654062Y-98880795D01*
X122749484Y-98880795D01*
X123076199Y-99207510D01*
X123076200Y-99207510D01*
X123402913Y-98880795D01*
X124016151Y-98880795D01*
X124342866Y-99207510D01*
X124342867Y-99207510D01*
X124669580Y-98880795D01*
X125282817Y-98880795D01*
X125609532Y-99207510D01*
X125609533Y-99207510D01*
X125936246Y-98880795D01*
X126549484Y-98880795D01*
X126876199Y-99207510D01*
X126876200Y-99207510D01*
X127202913Y-98880795D01*
X127044142Y-98825239D01*
X127044137Y-98825238D01*
X126876203Y-98806317D01*
X126876195Y-98806317D01*
X126708257Y-98825238D01*
X126708252Y-98825239D01*
X126549484Y-98880795D01*
X125936246Y-98880795D01*
X125777475Y-98825239D01*
X125777470Y-98825238D01*
X125609536Y-98806317D01*
X125609528Y-98806317D01*
X125441590Y-98825238D01*
X125441585Y-98825239D01*
X125282817Y-98880795D01*
X124669580Y-98880795D01*
X124510809Y-98825239D01*
X124510804Y-98825238D01*
X124342870Y-98806317D01*
X124342862Y-98806317D01*
X124174924Y-98825238D01*
X124174919Y-98825239D01*
X124016151Y-98880795D01*
X123402913Y-98880795D01*
X123244142Y-98825239D01*
X123244137Y-98825238D01*
X123076203Y-98806317D01*
X123076195Y-98806317D01*
X122908257Y-98825238D01*
X122908252Y-98825239D01*
X122749484Y-98880795D01*
X116654062Y-98880795D01*
X116642181Y-98859036D01*
X116647165Y-98789344D01*
X116647406Y-98788705D01*
X116647794Y-98787681D01*
X116661785Y-98750791D01*
X116680094Y-98600000D01*
X116661785Y-98449209D01*
X116607921Y-98307181D01*
X116521632Y-98182170D01*
X116407934Y-98081443D01*
X116273434Y-98010852D01*
X116273433Y-98010851D01*
X116273432Y-98010851D01*
X116125950Y-97974500D01*
X116125949Y-97974500D01*
X115974051Y-97974500D01*
X115974050Y-97974500D01*
X115826567Y-98010851D01*
X115692067Y-98081442D01*
X115578367Y-98182171D01*
X115492080Y-98307179D01*
X115492079Y-98307180D01*
X115438215Y-98449208D01*
X115419906Y-98600000D01*
X115438215Y-98750791D01*
X115492079Y-98892819D01*
X115492080Y-98892820D01*
X115582629Y-99024003D01*
X115580746Y-99025302D01*
X115601153Y-99063251D01*
X115618551Y-99128180D01*
X115618556Y-99128191D01*
X115679503Y-99233756D01*
X115679509Y-99233764D01*
X115982403Y-99536658D01*
X116015888Y-99597981D01*
X116010904Y-99667673D01*
X115969032Y-99723606D01*
X115924398Y-99744735D01*
X115876572Y-99756523D01*
X115876569Y-99756524D01*
X115742067Y-99827116D01*
X115742066Y-99827117D01*
X115631344Y-99925208D01*
X115628367Y-99927845D01*
X115542080Y-100052853D01*
X115542079Y-100052854D01*
X115488400Y-100194396D01*
X115488215Y-100194883D01*
X115469906Y-100345674D01*
X115488215Y-100496465D01*
X115542079Y-100638493D01*
X115628368Y-100763504D01*
X115742066Y-100864231D01*
X115742068Y-100864232D01*
X115746924Y-100866781D01*
X115797138Y-100915365D01*
X115813113Y-100983383D01*
X115791350Y-101047018D01*
X115767080Y-101082179D01*
X115767079Y-101082180D01*
X115729495Y-101181283D01*
X115713215Y-101224209D01*
X115694906Y-101375000D01*
X115713215Y-101525791D01*
X115767079Y-101667819D01*
X115853368Y-101792830D01*
X115967066Y-101893557D01*
X116101566Y-101964148D01*
X116249051Y-102000500D01*
X116256495Y-102001404D01*
X116256183Y-102003972D01*
X116311396Y-102020185D01*
X116332038Y-102036819D01*
X117675124Y-103379905D01*
X117708609Y-103441228D01*
X117703625Y-103510920D01*
X117661753Y-103566853D01*
X117645069Y-103577382D01*
X117542068Y-103631441D01*
X117505710Y-103663651D01*
X117448183Y-103714616D01*
X117428367Y-103732171D01*
X117342080Y-103857179D01*
X117342079Y-103857180D01*
X117342079Y-103857181D01*
X117288215Y-103999209D01*
X117269906Y-104150000D01*
X117288215Y-104300791D01*
X117342079Y-104442819D01*
X117428368Y-104567830D01*
X117542066Y-104668557D01*
X117676566Y-104739148D01*
X117705007Y-104746158D01*
X117824050Y-104775500D01*
X117824051Y-104775500D01*
X117975950Y-104775500D01*
X118025110Y-104763382D01*
X118123434Y-104739148D01*
X118257934Y-104668557D01*
X118371632Y-104567830D01*
X118457921Y-104442819D01*
X118466936Y-104419046D01*
X118509112Y-104363347D01*
X118574709Y-104339289D01*
X118642899Y-104354515D01*
X118670558Y-104375339D01*
X119338555Y-105043336D01*
X119338557Y-105043337D01*
X119338561Y-105043340D01*
X119412327Y-105085928D01*
X119444133Y-105104291D01*
X119561889Y-105135844D01*
X119683799Y-105135844D01*
X120030424Y-105135844D01*
X120097463Y-105155529D01*
X120112647Y-105167025D01*
X120140162Y-105191401D01*
X120274662Y-105261992D01*
X120347471Y-105279938D01*
X120422146Y-105298344D01*
X120469400Y-105298344D01*
X120536439Y-105318029D01*
X120582194Y-105370833D01*
X120593400Y-105422344D01*
X120593400Y-105496355D01*
X120611544Y-105564069D01*
X120624953Y-105614112D01*
X120624956Y-105614117D01*
X120685903Y-105719682D01*
X120685909Y-105719690D01*
X121669459Y-106703240D01*
X121702944Y-106764563D01*
X121704874Y-106775973D01*
X121714614Y-106856189D01*
X121714615Y-106856194D01*
X121748604Y-106945814D01*
X121768479Y-106998219D01*
X121854768Y-107123230D01*
X121924362Y-107184885D01*
X121961489Y-107244074D01*
X121960721Y-107313939D01*
X121922304Y-107372299D01*
X121858433Y-107400624D01*
X121842135Y-107401700D01*
X117073008Y-107401700D01*
X117005969Y-107382015D01*
X116985327Y-107365381D01*
X114886819Y-105266873D01*
X114853334Y-105205550D01*
X114850500Y-105179192D01*
X114850500Y-105085928D01*
X114825502Y-104960261D01*
X114825501Y-104960260D01*
X114825501Y-104960256D01*
X114776465Y-104841873D01*
X114776464Y-104841872D01*
X114776461Y-104841866D01*
X114705276Y-104735331D01*
X114705273Y-104735327D01*
X114614672Y-104644726D01*
X114614668Y-104644723D01*
X114508133Y-104573538D01*
X114508124Y-104573533D01*
X114389744Y-104524499D01*
X114389738Y-104524497D01*
X114264071Y-104499500D01*
X114264069Y-104499500D01*
X114135931Y-104499500D01*
X114135929Y-104499500D01*
X114010261Y-104524497D01*
X114010255Y-104524499D01*
X113891875Y-104573533D01*
X113891866Y-104573538D01*
X113785331Y-104644723D01*
X113785327Y-104644726D01*
X113694726Y-104735327D01*
X113694723Y-104735331D01*
X113623538Y-104841866D01*
X113623533Y-104841875D01*
X113574499Y-104960255D01*
X113574497Y-104960261D01*
X113549500Y-105085928D01*
X113549500Y-105085931D01*
X113549500Y-105564069D01*
X113549500Y-105564071D01*
X113549499Y-105564071D01*
X111750401Y-105564071D01*
X111750459Y-90514073D01*
X115749501Y-90514073D01*
X115774497Y-90639736D01*
X115774499Y-90639744D01*
X115823534Y-90758125D01*
X115894726Y-90864673D01*
X115985326Y-90955273D01*
X115985329Y-90955275D01*
X115985331Y-90955277D01*
X116091873Y-91026465D01*
X116210256Y-91075501D01*
X116290740Y-91091510D01*
X116335926Y-91100498D01*
X116335930Y-91100499D01*
X116335931Y-91100499D01*
X116464070Y-91100499D01*
X116464071Y-91100498D01*
X116589744Y-91075501D01*
X116708127Y-91026465D01*
X116814669Y-90955277D01*
X117633127Y-90136819D01*
X117694450Y-90103334D01*
X117720808Y-90100500D01*
X117741019Y-90100500D01*
X117808058Y-90120185D01*
X117853813Y-90172989D01*
X117865016Y-90225251D01*
X117850000Y-92700000D01*
X131693000Y-92700000D01*
X131793000Y-80431800D01*
X131767645Y-80431753D01*
X117924600Y-80406399D01*
X117913132Y-82296175D01*
X117893041Y-82363094D01*
X117839960Y-82408528D01*
X117770742Y-82418052D01*
X117721123Y-82396028D01*
X117719734Y-82398108D01*
X117714671Y-82394725D01*
X117714669Y-82394723D01*
X117608127Y-82323535D01*
X117542074Y-82296175D01*
X117489744Y-82274499D01*
X117489736Y-82274497D01*
X117364073Y-82249501D01*
X117364069Y-82249501D01*
X117235931Y-82249501D01*
X117235926Y-82249501D01*
X117110263Y-82274497D01*
X117110255Y-82274499D01*
X116991874Y-82323534D01*
X116885326Y-82394726D01*
X116794726Y-82485326D01*
X116723534Y-82591874D01*
X116674499Y-82710255D01*
X116674497Y-82710263D01*
X116649501Y-82835926D01*
X116649501Y-82964073D01*
X116674497Y-83089736D01*
X116674499Y-83089744D01*
X116723535Y-83208127D01*
X116794723Y-83314669D01*
X116794726Y-83314673D01*
X116794727Y-83314674D01*
X117394724Y-83914669D01*
X117451773Y-83971718D01*
X117485332Y-84005277D01*
X117591866Y-84076461D01*
X117591872Y-84076464D01*
X117591873Y-84076465D01*
X117710256Y-84125501D01*
X117710260Y-84125501D01*
X117710261Y-84125502D01*
X117801373Y-84143626D01*
X117863284Y-84176011D01*
X117897858Y-84236727D01*
X117901179Y-84265995D01*
X117874417Y-88676252D01*
X117854326Y-88743171D01*
X117801245Y-88788605D01*
X117750419Y-88799500D01*
X117335929Y-88799500D01*
X117210261Y-88824497D01*
X117210255Y-88824499D01*
X117168312Y-88841873D01*
X117168311Y-88841873D01*
X117091881Y-88873530D01*
X117091863Y-88873540D01*
X116985332Y-88944721D01*
X116985325Y-88944727D01*
X115894726Y-90035326D01*
X115823534Y-90141874D01*
X115774499Y-90260255D01*
X115774497Y-90260263D01*
X115749501Y-90385926D01*
X115749501Y-90514073D01*
X111750459Y-90514073D01*
X111750498Y-80563250D01*
X111750500Y-80563240D01*
X111750500Y-80551423D01*
X111750501Y-80551421D01*
X111750500Y-80488233D01*
X111750618Y-80482825D01*
X111762270Y-80215931D01*
X111767384Y-80098774D01*
X111768327Y-80087999D01*
X111797640Y-79865331D01*
X111818147Y-79709552D01*
X111820020Y-79698930D01*
X111870485Y-79471288D01*
X113349500Y-79471288D01*
X113381161Y-79711785D01*
X113443947Y-79946104D01*
X113524511Y-80140602D01*
X113536776Y-80170212D01*
X113658064Y-80380289D01*
X113658066Y-80380292D01*
X113658067Y-80380293D01*
X113805733Y-80572736D01*
X113805739Y-80572743D01*
X113977256Y-80744260D01*
X113977262Y-80744265D01*
X114169711Y-80891936D01*
X114379788Y-81013224D01*
X114603900Y-81106054D01*
X114838211Y-81168838D01*
X115018586Y-81192584D01*
X115078711Y-81200500D01*
X115078712Y-81200500D01*
X115321289Y-81200500D01*
X115369388Y-81194167D01*
X115561789Y-81168838D01*
X115796100Y-81106054D01*
X116020212Y-81013224D01*
X116230289Y-80891936D01*
X116422738Y-80744265D01*
X116594265Y-80572738D01*
X116741936Y-80380289D01*
X116863224Y-80170212D01*
X116956054Y-79946100D01*
X117018838Y-79711789D01*
X117050500Y-79471288D01*
X117050500Y-79228712D01*
X117018838Y-78988211D01*
X116956054Y-78753900D01*
X116863224Y-78529788D01*
X116741936Y-78319711D01*
X116603549Y-78139361D01*
X116594266Y-78127263D01*
X116594260Y-78127256D01*
X116445850Y-77978846D01*
X122299500Y-77978846D01*
X122330261Y-78133489D01*
X122330264Y-78133501D01*
X122390602Y-78279172D01*
X122390609Y-78279185D01*
X122478210Y-78410288D01*
X122478213Y-78410292D01*
X122589707Y-78521786D01*
X122589711Y-78521789D01*
X122720814Y-78609390D01*
X122720827Y-78609397D01*
X122866498Y-78669735D01*
X122866503Y-78669737D01*
X123021153Y-78700499D01*
X123021156Y-78700500D01*
X123021158Y-78700500D01*
X123178844Y-78700500D01*
X123178845Y-78700499D01*
X123333497Y-78669737D01*
X123479179Y-78609394D01*
X123610289Y-78521789D01*
X123618577Y-78513501D01*
X123637319Y-78494760D01*
X123698642Y-78461275D01*
X123768334Y-78466259D01*
X123812681Y-78494760D01*
X123839707Y-78521786D01*
X123839711Y-78521789D01*
X123970814Y-78609390D01*
X123970827Y-78609397D01*
X124116498Y-78669735D01*
X124116503Y-78669737D01*
X124271153Y-78700499D01*
X124271156Y-78700500D01*
X124271158Y-78700500D01*
X124428844Y-78700500D01*
X124428845Y-78700499D01*
X124583497Y-78669737D01*
X124729179Y-78609394D01*
X124860289Y-78521789D01*
X124868577Y-78513501D01*
X124887319Y-78494760D01*
X124948642Y-78461275D01*
X125018334Y-78466259D01*
X125062681Y-78494760D01*
X125089707Y-78521786D01*
X125089711Y-78521789D01*
X125220814Y-78609390D01*
X125220827Y-78609397D01*
X125366498Y-78669735D01*
X125366503Y-78669737D01*
X125521153Y-78700499D01*
X125521156Y-78700500D01*
X125521158Y-78700500D01*
X125678844Y-78700500D01*
X125678845Y-78700499D01*
X125833497Y-78669737D01*
X125979179Y-78609394D01*
X126091447Y-78534378D01*
X126158123Y-78513501D01*
X126225503Y-78531985D01*
X126235812Y-78539097D01*
X126347159Y-78624536D01*
X126493238Y-78685044D01*
X126610639Y-78700500D01*
X127089360Y-78700499D01*
X127089363Y-78700499D01*
X127206753Y-78685046D01*
X127206757Y-78685044D01*
X127206762Y-78685044D01*
X127352841Y-78624536D01*
X127478282Y-78528282D01*
X127574536Y-78402841D01*
X127635044Y-78256762D01*
X127650500Y-78139361D01*
X127650499Y-77160640D01*
X127650499Y-77160636D01*
X127635046Y-77043246D01*
X127635044Y-77043241D01*
X127635044Y-77043238D01*
X127574536Y-76897159D01*
X127478282Y-76771718D01*
X127352841Y-76675464D01*
X127243711Y-76630261D01*
X127206762Y-76614956D01*
X127206760Y-76614955D01*
X127089361Y-76599500D01*
X126610636Y-76599500D01*
X126493246Y-76614953D01*
X126493237Y-76614956D01*
X126347157Y-76675464D01*
X126235823Y-76760894D01*
X126170654Y-76786088D01*
X126102209Y-76772049D01*
X126091446Y-76765620D01*
X125979185Y-76690609D01*
X125979172Y-76690602D01*
X125833501Y-76630264D01*
X125833489Y-76630261D01*
X125678845Y-76599500D01*
X125678842Y-76599500D01*
X125521158Y-76599500D01*
X125521155Y-76599500D01*
X125366510Y-76630261D01*
X125366498Y-76630264D01*
X125220827Y-76690602D01*
X125220814Y-76690609D01*
X125089711Y-76778210D01*
X125089707Y-76778213D01*
X125062681Y-76805240D01*
X125001358Y-76838725D01*
X124931666Y-76833741D01*
X124887319Y-76805240D01*
X124860292Y-76778213D01*
X124860288Y-76778210D01*
X124729185Y-76690609D01*
X124729172Y-76690602D01*
X124583501Y-76630264D01*
X124583489Y-76630261D01*
X124428845Y-76599500D01*
X124428842Y-76599500D01*
X124271158Y-76599500D01*
X124271155Y-76599500D01*
X124116510Y-76630261D01*
X124116498Y-76630264D01*
X123970827Y-76690602D01*
X123970814Y-76690609D01*
X123839711Y-76778210D01*
X123839707Y-76778213D01*
X123812681Y-76805240D01*
X123751358Y-76838725D01*
X123681666Y-76833741D01*
X123637319Y-76805240D01*
X123610292Y-76778213D01*
X123610288Y-76778210D01*
X123479185Y-76690609D01*
X123479172Y-76690602D01*
X123333501Y-76630264D01*
X123333489Y-76630261D01*
X123178845Y-76599500D01*
X123178842Y-76599500D01*
X123021158Y-76599500D01*
X123021155Y-76599500D01*
X122866510Y-76630261D01*
X122866498Y-76630264D01*
X122720827Y-76690602D01*
X122720814Y-76690609D01*
X122589711Y-76778210D01*
X122589707Y-76778213D01*
X122478213Y-76889707D01*
X122478210Y-76889711D01*
X122390609Y-77020814D01*
X122390602Y-77020827D01*
X122330264Y-77166498D01*
X122330261Y-77166510D01*
X122299500Y-77321153D01*
X122299500Y-77978846D01*
X116445850Y-77978846D01*
X116422743Y-77955739D01*
X116422736Y-77955733D01*
X116230293Y-77808067D01*
X116230292Y-77808066D01*
X116230289Y-77808064D01*
X116020212Y-77686776D01*
X116020205Y-77686773D01*
X115796104Y-77593947D01*
X115561785Y-77531161D01*
X115321289Y-77499500D01*
X115321288Y-77499500D01*
X115078712Y-77499500D01*
X115078711Y-77499500D01*
X114838214Y-77531161D01*
X114603895Y-77593947D01*
X114379794Y-77686773D01*
X114379785Y-77686777D01*
X114169706Y-77808067D01*
X113977263Y-77955733D01*
X113977256Y-77955739D01*
X113805739Y-78127256D01*
X113805733Y-78127263D01*
X113658067Y-78319706D01*
X113536777Y-78529785D01*
X113536773Y-78529794D01*
X113443947Y-78753895D01*
X113381161Y-78988214D01*
X113349500Y-79228711D01*
X113349500Y-79471288D01*
X111870485Y-79471288D01*
X111902644Y-79326226D01*
X111905432Y-79315823D01*
X112020218Y-78951758D01*
X112023918Y-78941596D01*
X112101665Y-78753895D01*
X112169993Y-78588934D01*
X112174550Y-78579162D01*
X112350811Y-78240564D01*
X112356217Y-78231202D01*
X112414720Y-78139370D01*
X112561315Y-77909257D01*
X112567497Y-77900429D01*
X112799877Y-77597584D01*
X112806827Y-77589301D01*
X113064716Y-77307862D01*
X113072355Y-77300225D01*
X113353779Y-77042346D01*
X113362050Y-77035403D01*
X113664904Y-76803015D01*
X113673741Y-76796828D01*
X113995697Y-76591717D01*
X114005025Y-76586333D01*
X114343623Y-76410069D01*
X114353414Y-76405503D01*
X114706091Y-76259418D01*
X114716212Y-76255734D01*
X115080290Y-76140941D01*
X115090705Y-76138150D01*
X115463399Y-76055525D01*
X115474029Y-76053651D01*
X115852493Y-76003826D01*
X115863226Y-76002886D01*
X116235183Y-75986646D01*
X116246565Y-75986150D01*
X116251973Y-75986032D01*
X116315892Y-75986032D01*
X151147281Y-75986032D01*
X151152691Y-75986149D01*
G37*
%TD.AperFunction*%
%TD*%
M02*
