%TF.GenerationSoftware,KiCad,Pcbnew,8.99.0-2194-gb3b7cbcab2*%
%TF.CreationDate,2024-11-16T00:43:09-05:00*%
%TF.ProjectId,minifoc esc,6d696e69-666f-4632-9065-73632e6b6963,V1.0*%
%TF.SameCoordinates,Original*%
%TF.FileFunction,Legend,Top*%
%TF.FilePolarity,Positive*%
%FSLAX46Y46*%
G04 Gerber Fmt 4.6, Leading zero omitted, Abs format (unit mm)*
G04 Created by KiCad (PCBNEW 8.99.0-2194-gb3b7cbcab2) date 2024-11-16 00:43:09*
%MOMM*%
%LPD*%
G01*
G04 APERTURE LIST*
G04 Aperture macros list*
%AMRoundRect*
0 Rectangle with rounded corners*
0 $1 Rounding radius*
0 $2 $3 $4 $5 $6 $7 $8 $9 X,Y pos of 4 corners*
0 Add a 4 corners polygon primitive as box body*
4,1,4,$2,$3,$4,$5,$6,$7,$8,$9,$2,$3,0*
0 Add four circle primitives for the rounded corners*
1,1,$1+$1,$2,$3*
1,1,$1+$1,$4,$5*
1,1,$1+$1,$6,$7*
1,1,$1+$1,$8,$9*
0 Add four rect primitives between the rounded corners*
20,1,$1+$1,$2,$3,$4,$5,0*
20,1,$1+$1,$4,$5,$6,$7,0*
20,1,$1+$1,$6,$7,$8,$9,0*
20,1,$1+$1,$8,$9,$2,$3,0*%
G04 Aperture macros list end*
%ADD10C,0.150000*%
%ADD11C,0.120000*%
%ADD12C,0.152400*%
%ADD13C,0.000000*%
%ADD14RoundRect,0.225000X-0.250000X0.225000X-0.250000X-0.225000X0.250000X-0.225000X0.250000X0.225000X0*%
%ADD15RoundRect,0.140000X0.140000X0.170000X-0.140000X0.170000X-0.140000X-0.170000X0.140000X-0.170000X0*%
%ADD16RoundRect,0.135000X-0.185000X0.135000X-0.185000X-0.135000X0.185000X-0.135000X0.185000X0.135000X0*%
%ADD17RoundRect,0.135000X-0.135000X-0.185000X0.135000X-0.185000X0.135000X0.185000X-0.135000X0.185000X0*%
%ADD18RoundRect,0.135000X0.135000X0.185000X-0.135000X0.185000X-0.135000X-0.185000X0.135000X-0.185000X0*%
%ADD19RoundRect,0.135000X0.185000X-0.135000X0.185000X0.135000X-0.185000X0.135000X-0.185000X-0.135000X0*%
%ADD20RoundRect,0.140000X-0.140000X-0.170000X0.140000X-0.170000X0.140000X0.170000X-0.140000X0.170000X0*%
%ADD21RoundRect,0.225000X-0.225000X-0.250000X0.225000X-0.250000X0.225000X0.250000X-0.225000X0.250000X0*%
%ADD22C,0.650000*%
%ADD23R,0.600000X1.450000*%
%ADD24R,0.300000X1.450000*%
%ADD25O,1.000000X2.100000*%
%ADD26O,1.000000X1.600000*%
%ADD27RoundRect,0.200000X0.200000X0.275000X-0.200000X0.275000X-0.200000X-0.275000X0.200000X-0.275000X0*%
%ADD28RoundRect,0.140000X-0.170000X0.140000X-0.170000X-0.140000X0.170000X-0.140000X0.170000X0.140000X0*%
%ADD29RoundRect,0.200000X-0.200000X-0.275000X0.200000X-0.275000X0.200000X0.275000X-0.200000X0.275000X0*%
%ADD30RoundRect,0.218750X-0.218750X-0.256250X0.218750X-0.256250X0.218750X0.256250X-0.218750X0.256250X0*%
%ADD31RoundRect,0.225000X0.225000X0.250000X-0.225000X0.250000X-0.225000X-0.250000X0.225000X-0.250000X0*%
%ADD32R,4.000000X4.000000*%
%ADD33R,0.762000X0.304800*%
%ADD34R,2.387600X3.098800*%
%ADD35RoundRect,0.050000X0.387500X0.050000X-0.387500X0.050000X-0.387500X-0.050000X0.387500X-0.050000X0*%
%ADD36RoundRect,0.050000X0.050000X0.387500X-0.050000X0.387500X-0.050000X-0.387500X0.050000X-0.387500X0*%
%ADD37R,3.200000X3.200000*%
%ADD38RoundRect,0.225000X0.250000X-0.225000X0.250000X0.225000X-0.250000X0.225000X-0.250000X-0.225000X0*%
%ADD39R,3.200000X1.200000*%
%ADD40R,0.711200X0.254000*%
%ADD41R,0.254000X0.711200*%
%ADD42R,3.810000X5.791200*%
%ADD43R,1.400000X1.200000*%
%ADD44RoundRect,0.218750X-0.256250X0.218750X-0.256250X-0.218750X0.256250X-0.218750X0.256250X0.218750X0*%
%ADD45RoundRect,0.200000X0.275000X-0.200000X0.275000X0.200000X-0.275000X0.200000X-0.275000X-0.200000X0*%
G04 APERTURE END LIST*
D10*
G36*
X159208982Y-104807616D02*
G01*
X159204826Y-104868391D01*
X159192967Y-104921418D01*
X159173995Y-104967900D01*
X159147059Y-105009886D01*
X159113439Y-105044672D01*
X159072512Y-105072925D01*
X159026818Y-105093094D01*
X158974723Y-105105654D01*
X158914975Y-105110049D01*
X158452990Y-105110049D01*
X158392336Y-105105619D01*
X158340083Y-105093027D01*
X158294842Y-105072925D01*
X158254338Y-105044714D01*
X158220929Y-105009933D01*
X158194031Y-104967900D01*
X158175025Y-104921414D01*
X158163146Y-104868387D01*
X158158982Y-104807616D01*
X158163233Y-104746881D01*
X158175343Y-104694119D01*
X158194703Y-104648064D01*
X158222015Y-104606481D01*
X158255671Y-104572164D01*
X158296247Y-104544444D01*
X158341428Y-104524709D01*
X158393246Y-104512379D01*
X158452990Y-104508052D01*
X158452990Y-104634020D01*
X158396886Y-104639648D01*
X158353273Y-104655133D01*
X158319328Y-104679510D01*
X158293971Y-104712630D01*
X158278090Y-104754477D01*
X158272372Y-104807616D01*
X158278058Y-104860785D01*
X158293918Y-104903150D01*
X158319328Y-104937126D01*
X158353384Y-104962315D01*
X158397001Y-104978245D01*
X158452990Y-104984020D01*
X158914975Y-104984020D01*
X158971005Y-104978243D01*
X159014640Y-104962313D01*
X159048698Y-104937126D01*
X159074072Y-104903155D01*
X159089914Y-104860790D01*
X159095593Y-104807616D01*
X159089881Y-104754472D01*
X159074019Y-104712625D01*
X159048698Y-104679510D01*
X159014752Y-104655136D01*
X158971120Y-104639649D01*
X158914975Y-104634020D01*
X158914975Y-104508052D01*
X158973814Y-104512344D01*
X159025472Y-104524643D01*
X159071107Y-104544444D01*
X159112106Y-104572205D01*
X159145974Y-104606528D01*
X159173323Y-104648064D01*
X159192648Y-104694116D01*
X159204739Y-104746878D01*
X159208982Y-104807616D01*
G37*
G36*
X159195000Y-104273579D02*
G01*
X159080205Y-104273579D01*
X159080205Y-103996424D01*
X158282203Y-103996424D01*
X158489382Y-104273579D01*
X158345218Y-104273579D01*
X158173026Y-104042586D01*
X158173026Y-103870395D01*
X159080205Y-103870395D01*
X159080205Y-103643615D01*
X159195000Y-103643615D01*
X159195000Y-104273579D01*
G37*
G36*
X158715316Y-103062531D02*
G01*
X158739975Y-103079537D01*
X158755466Y-103105545D01*
X158760980Y-103140414D01*
X158755466Y-103175283D01*
X158739975Y-103201292D01*
X158715322Y-103218250D01*
X158679769Y-103224373D01*
X158645562Y-103218282D01*
X158621700Y-103201292D01*
X158606771Y-103175344D01*
X158601428Y-103140414D01*
X158606771Y-103105485D01*
X158621700Y-103079537D01*
X158645568Y-103062499D01*
X158679769Y-103056395D01*
X158715316Y-103062531D01*
G37*
G36*
X158967689Y-102836813D02*
G01*
X159020260Y-102849591D01*
X159066894Y-102870220D01*
X159108781Y-102898952D01*
X159143595Y-102934428D01*
X159171919Y-102977321D01*
X159192054Y-103024800D01*
X159204596Y-103078755D01*
X159208982Y-103140414D01*
X159204598Y-103202032D01*
X159192057Y-103255990D01*
X159171919Y-103303507D01*
X159143595Y-103346400D01*
X159108781Y-103381876D01*
X159066894Y-103410608D01*
X159020264Y-103431203D01*
X158967692Y-103443961D01*
X158908014Y-103448404D01*
X158460012Y-103448404D01*
X158399390Y-103443926D01*
X158346616Y-103431136D01*
X158300399Y-103410608D01*
X158258939Y-103381915D01*
X158224358Y-103346445D01*
X158196107Y-103303507D01*
X158175934Y-103255987D01*
X158163373Y-103202028D01*
X158158982Y-103140414D01*
X158266816Y-103140414D01*
X158273139Y-103194066D01*
X158291139Y-103238377D01*
X158320732Y-103275480D01*
X158359344Y-103303448D01*
X158405102Y-103320570D01*
X158460012Y-103326588D01*
X158908014Y-103326588D01*
X158962884Y-103320573D01*
X159008646Y-103303453D01*
X159047294Y-103275480D01*
X159076887Y-103238377D01*
X159094887Y-103194066D01*
X159101210Y-103140414D01*
X159094885Y-103086721D01*
X159076884Y-103042392D01*
X159047294Y-103005287D01*
X159008646Y-102977314D01*
X158962884Y-102960194D01*
X158908014Y-102954179D01*
X158460012Y-102954179D01*
X158405102Y-102960197D01*
X158359344Y-102977319D01*
X158320732Y-103005287D01*
X158291142Y-103042392D01*
X158273140Y-103086721D01*
X158266816Y-103140414D01*
X158158982Y-103140414D01*
X158163409Y-103077810D01*
X158176003Y-103023654D01*
X158196107Y-102976588D01*
X158224313Y-102934114D01*
X158258889Y-102898873D01*
X158300399Y-102870220D01*
X158346620Y-102849657D01*
X158399394Y-102836848D01*
X158460012Y-102832363D01*
X158908014Y-102832363D01*
X158967689Y-102836813D01*
G37*
G36*
X140692383Y-110578982D02*
G01*
X140631608Y-110574826D01*
X140578581Y-110562967D01*
X140532099Y-110543995D01*
X140490113Y-110517059D01*
X140455327Y-110483439D01*
X140427074Y-110442512D01*
X140406905Y-110396818D01*
X140394345Y-110344723D01*
X140389950Y-110284975D01*
X140389950Y-109822990D01*
X140394380Y-109762336D01*
X140406972Y-109710083D01*
X140427074Y-109664842D01*
X140455285Y-109624338D01*
X140490066Y-109590929D01*
X140532099Y-109564031D01*
X140578585Y-109545025D01*
X140631612Y-109533146D01*
X140692383Y-109528982D01*
X140753118Y-109533233D01*
X140805880Y-109545343D01*
X140851935Y-109564703D01*
X140893518Y-109592015D01*
X140927835Y-109625671D01*
X140955555Y-109666247D01*
X140975290Y-109711428D01*
X140987620Y-109763246D01*
X140991947Y-109822990D01*
X140865979Y-109822990D01*
X140860351Y-109766886D01*
X140844866Y-109723273D01*
X140820489Y-109689328D01*
X140787369Y-109663971D01*
X140745522Y-109648090D01*
X140692383Y-109642372D01*
X140639214Y-109648058D01*
X140596849Y-109663918D01*
X140562873Y-109689328D01*
X140537684Y-109723384D01*
X140521754Y-109767001D01*
X140515979Y-109822990D01*
X140515979Y-110284975D01*
X140521756Y-110341005D01*
X140537686Y-110384640D01*
X140562873Y-110418698D01*
X140596844Y-110444072D01*
X140639209Y-110459914D01*
X140692383Y-110465593D01*
X140745527Y-110459881D01*
X140787374Y-110444019D01*
X140820489Y-110418698D01*
X140844863Y-110384752D01*
X140860350Y-110341120D01*
X140865979Y-110284975D01*
X140991947Y-110284975D01*
X140987655Y-110343814D01*
X140975356Y-110395472D01*
X140955555Y-110441107D01*
X140927794Y-110482106D01*
X140893471Y-110515974D01*
X140851935Y-110543323D01*
X140805883Y-110562648D01*
X140753121Y-110574739D01*
X140692383Y-110578982D01*
G37*
G36*
X141220803Y-110565000D02*
G01*
X141220803Y-110448801D01*
X141560972Y-110084818D01*
X141627392Y-110006463D01*
X141665935Y-109944806D01*
X141689364Y-109882708D01*
X141696771Y-109824394D01*
X141690978Y-109770320D01*
X141674705Y-109726520D01*
X141648472Y-109690732D01*
X141613430Y-109663659D01*
X141570568Y-109646960D01*
X141517619Y-109641029D01*
X141462811Y-109647140D01*
X141418559Y-109664322D01*
X141382491Y-109692137D01*
X141355513Y-109728949D01*
X141338759Y-109774120D01*
X141332788Y-109830012D01*
X141206820Y-109830012D01*
X141213000Y-109769478D01*
X141227141Y-109716441D01*
X141248768Y-109669727D01*
X141278312Y-109627791D01*
X141314043Y-109593235D01*
X141356541Y-109565436D01*
X141403578Y-109545620D01*
X141456878Y-109533290D01*
X141517619Y-109528982D01*
X141580219Y-109533334D01*
X141634358Y-109545706D01*
X141681384Y-109565436D01*
X141723925Y-109593211D01*
X141759178Y-109627325D01*
X141787812Y-109668323D01*
X141808362Y-109714056D01*
X141821141Y-109766129D01*
X141825609Y-109825799D01*
X141821475Y-109873508D01*
X141808542Y-109924566D01*
X141785675Y-109979794D01*
X141755721Y-110031696D01*
X141711283Y-110091920D01*
X141649205Y-110161816D01*
X141373393Y-110450205D01*
X141838188Y-110450205D01*
X141838188Y-110565000D01*
X141220803Y-110565000D01*
G37*
G36*
X142060021Y-110565000D02*
G01*
X142060021Y-110448801D01*
X142400190Y-110084818D01*
X142466610Y-110006463D01*
X142505154Y-109944806D01*
X142528582Y-109882708D01*
X142535989Y-109824394D01*
X142530196Y-109770320D01*
X142513924Y-109726520D01*
X142487690Y-109690732D01*
X142452649Y-109663659D01*
X142409786Y-109646960D01*
X142356837Y-109641029D01*
X142302029Y-109647140D01*
X142257777Y-109664322D01*
X142221710Y-109692137D01*
X142194732Y-109728949D01*
X142177978Y-109774120D01*
X142172006Y-109830012D01*
X142046038Y-109830012D01*
X142052219Y-109769478D01*
X142066359Y-109716441D01*
X142087987Y-109669727D01*
X142117530Y-109627791D01*
X142153261Y-109593235D01*
X142195759Y-109565436D01*
X142242797Y-109545620D01*
X142296097Y-109533290D01*
X142356837Y-109528982D01*
X142419437Y-109533334D01*
X142473576Y-109545706D01*
X142520602Y-109565436D01*
X142563143Y-109593211D01*
X142598396Y-109627325D01*
X142627031Y-109668323D01*
X142647581Y-109714056D01*
X142660359Y-109766129D01*
X142664827Y-109825799D01*
X142660693Y-109873508D01*
X142647760Y-109924566D01*
X142624894Y-109979794D01*
X142594940Y-110031696D01*
X142550501Y-110091920D01*
X142488423Y-110161816D01*
X142212612Y-110450205D01*
X142677406Y-110450205D01*
X142677406Y-110565000D01*
X142060021Y-110565000D01*
G37*
G36*
X134735000Y-103254811D02*
G01*
X134300980Y-103455029D01*
X134300980Y-103624411D01*
X134735000Y-103624411D01*
X134735000Y-103749036D01*
X133713026Y-103749036D01*
X133713026Y-103434024D01*
X133826416Y-103434024D01*
X133826416Y-103624411D01*
X134187590Y-103624411D01*
X134187590Y-103434024D01*
X134181746Y-103383880D01*
X134165134Y-103342558D01*
X134137887Y-103308056D01*
X134102170Y-103282084D01*
X134059208Y-103266085D01*
X134006973Y-103260428D01*
X133953851Y-103266134D01*
X133910743Y-103282173D01*
X133875448Y-103308056D01*
X133848597Y-103342508D01*
X133832194Y-103383830D01*
X133826416Y-103434024D01*
X133713026Y-103434024D01*
X133717385Y-103374307D01*
X133729914Y-103321494D01*
X133750151Y-103274472D01*
X133778282Y-103231861D01*
X133812416Y-103196613D01*
X133853039Y-103168043D01*
X133898271Y-103147426D01*
X133949200Y-103134681D01*
X134006973Y-103130247D01*
X134074333Y-103136453D01*
X134133041Y-103154304D01*
X134184781Y-103183431D01*
X134229286Y-103222801D01*
X134263609Y-103269578D01*
X134288401Y-103324847D01*
X134735000Y-103116203D01*
X134735000Y-103254811D01*
G37*
G36*
X134748982Y-102628389D02*
G01*
X134743529Y-102698609D01*
X134728107Y-102758187D01*
X134703555Y-102808983D01*
X134669909Y-102852421D01*
X134627873Y-102887822D01*
X134579012Y-102913400D01*
X134521987Y-102929354D01*
X134454975Y-102934975D01*
X134454975Y-102809006D01*
X134508984Y-102803131D01*
X134552561Y-102786639D01*
X134588026Y-102760036D01*
X134614629Y-102724571D01*
X134631121Y-102680994D01*
X134636997Y-102626984D01*
X134631121Y-102573018D01*
X134614630Y-102529482D01*
X134588026Y-102494055D01*
X134552557Y-102467417D01*
X134508980Y-102450906D01*
X134454975Y-102445024D01*
X134392021Y-102445024D01*
X134337911Y-102450763D01*
X134294357Y-102466834D01*
X134259031Y-102492651D01*
X134232316Y-102527165D01*
X134215847Y-102569349D01*
X134210000Y-102621428D01*
X134210000Y-102899987D01*
X133713026Y-102899987D01*
X133713026Y-102355386D01*
X133827821Y-102355386D01*
X133827821Y-102782384D01*
X134095205Y-102779575D01*
X134095205Y-102614406D01*
X134100666Y-102543967D01*
X134115968Y-102485436D01*
X134140105Y-102436657D01*
X134172936Y-102395992D01*
X134213874Y-102363478D01*
X134262871Y-102339562D01*
X134321549Y-102324401D01*
X134392021Y-102318994D01*
X134454975Y-102318994D01*
X134521937Y-102324660D01*
X134578943Y-102340749D01*
X134627823Y-102366566D01*
X134669909Y-102402342D01*
X134703522Y-102446090D01*
X134728080Y-102497312D01*
X134743520Y-102557451D01*
X134748982Y-102628389D01*
G37*
G36*
X136315692Y-102737385D02*
G01*
X136368505Y-102749914D01*
X136415527Y-102770151D01*
X136458138Y-102798282D01*
X136493386Y-102832416D01*
X136521956Y-102873039D01*
X136542573Y-102918271D01*
X136555318Y-102969200D01*
X136559752Y-103026973D01*
X136553546Y-103094333D01*
X136535695Y-103153041D01*
X136506568Y-103204781D01*
X136467198Y-103249286D01*
X136420421Y-103283609D01*
X136365152Y-103308401D01*
X136573796Y-103755000D01*
X136435188Y-103755000D01*
X136234970Y-103320980D01*
X136065588Y-103320980D01*
X136065588Y-103755000D01*
X135940963Y-103755000D01*
X135940963Y-103207590D01*
X136065588Y-103207590D01*
X136255975Y-103207590D01*
X136306119Y-103201746D01*
X136347441Y-103185134D01*
X136381943Y-103157887D01*
X136407915Y-103122170D01*
X136423914Y-103079208D01*
X136429571Y-103026973D01*
X136423865Y-102973851D01*
X136407826Y-102930743D01*
X136381943Y-102895448D01*
X136347491Y-102868597D01*
X136306169Y-102852194D01*
X136255975Y-102846416D01*
X136065588Y-102846416D01*
X136065588Y-103207590D01*
X135940963Y-103207590D01*
X135940963Y-102733026D01*
X136255975Y-102733026D01*
X136315692Y-102737385D01*
G37*
G36*
X137054588Y-103768982D02*
G01*
X136984368Y-103763529D01*
X136924790Y-103748107D01*
X136873994Y-103723555D01*
X136830556Y-103689909D01*
X136795155Y-103647873D01*
X136769577Y-103599012D01*
X136753623Y-103541987D01*
X136748002Y-103474975D01*
X136873971Y-103474975D01*
X136879846Y-103528984D01*
X136896338Y-103572561D01*
X136922941Y-103608026D01*
X136958406Y-103634629D01*
X137001983Y-103651121D01*
X137055993Y-103656997D01*
X137110000Y-103651120D01*
X137153555Y-103634627D01*
X137188983Y-103608026D01*
X137215621Y-103572557D01*
X137232133Y-103528980D01*
X137238015Y-103474975D01*
X137238015Y-103405000D01*
X137232131Y-103350996D01*
X137215619Y-103307441D01*
X137188983Y-103272009D01*
X137153551Y-103245373D01*
X137109996Y-103228861D01*
X137055993Y-103222978D01*
X136945412Y-103222978D01*
X136945412Y-103113801D01*
X137196005Y-102847821D01*
X136776029Y-102847821D01*
X136776029Y-102733026D01*
X137338826Y-102733026D01*
X137338826Y-102850629D01*
X137058801Y-103148789D01*
X137058801Y-103110992D01*
X137129034Y-103116460D01*
X137188471Y-103131907D01*
X137239011Y-103156477D01*
X137282100Y-103190127D01*
X137317183Y-103232091D01*
X137342559Y-103280915D01*
X137358399Y-103337943D01*
X137363983Y-103405000D01*
X137363983Y-103474975D01*
X137358320Y-103541941D01*
X137342242Y-103598948D01*
X137316443Y-103647827D01*
X137280696Y-103689909D01*
X137236948Y-103723519D01*
X137185718Y-103748078D01*
X137125559Y-103763519D01*
X137054588Y-103768982D01*
G37*
G36*
X137332383Y-105228982D02*
G01*
X137271608Y-105224826D01*
X137218581Y-105212967D01*
X137172099Y-105193995D01*
X137130113Y-105167059D01*
X137095327Y-105133439D01*
X137067074Y-105092512D01*
X137046905Y-105046818D01*
X137034345Y-104994723D01*
X137029950Y-104934975D01*
X137029950Y-104472990D01*
X137034380Y-104412336D01*
X137046972Y-104360083D01*
X137067074Y-104314842D01*
X137095285Y-104274338D01*
X137130066Y-104240929D01*
X137172099Y-104214031D01*
X137218585Y-104195025D01*
X137271612Y-104183146D01*
X137332383Y-104178982D01*
X137393118Y-104183233D01*
X137445880Y-104195343D01*
X137491935Y-104214703D01*
X137533518Y-104242015D01*
X137567835Y-104275671D01*
X137595555Y-104316247D01*
X137615290Y-104361428D01*
X137627620Y-104413246D01*
X137631947Y-104472990D01*
X137505979Y-104472990D01*
X137500351Y-104416886D01*
X137484866Y-104373273D01*
X137460489Y-104339328D01*
X137427369Y-104313971D01*
X137385522Y-104298090D01*
X137332383Y-104292372D01*
X137279214Y-104298058D01*
X137236849Y-104313918D01*
X137202873Y-104339328D01*
X137177684Y-104373384D01*
X137161754Y-104417001D01*
X137155979Y-104472990D01*
X137155979Y-104934975D01*
X137161756Y-104991005D01*
X137177686Y-105034640D01*
X137202873Y-105068698D01*
X137236844Y-105094072D01*
X137279209Y-105109914D01*
X137332383Y-105115593D01*
X137385527Y-105109881D01*
X137427374Y-105094019D01*
X137460489Y-105068698D01*
X137484863Y-105034752D01*
X137500350Y-104991120D01*
X137505979Y-104934975D01*
X137631947Y-104934975D01*
X137627655Y-104993814D01*
X137615356Y-105045472D01*
X137595555Y-105091107D01*
X137567794Y-105132106D01*
X137533471Y-105165974D01*
X137491935Y-105193323D01*
X137445883Y-105212648D01*
X137393121Y-105224739D01*
X137332383Y-105228982D01*
G37*
G36*
X137866420Y-105215000D02*
G01*
X137866420Y-105100205D01*
X138143575Y-105100205D01*
X138143575Y-104302203D01*
X137866420Y-104509382D01*
X137866420Y-104365218D01*
X138097413Y-104193026D01*
X138269604Y-104193026D01*
X138269604Y-105100205D01*
X138496384Y-105100205D01*
X138496384Y-105215000D01*
X137866420Y-105215000D01*
G37*
G36*
X138887600Y-104631198D02*
G01*
X138891813Y-104634007D01*
X138913687Y-104613588D01*
X138946401Y-104597615D01*
X138983961Y-104588229D01*
X139026207Y-104584975D01*
X139085771Y-104589651D01*
X139138332Y-104603104D01*
X139185087Y-104624909D01*
X139227091Y-104654849D01*
X139262378Y-104691278D01*
X139291455Y-104734818D01*
X139312485Y-104782834D01*
X139325474Y-104836580D01*
X139329984Y-104897178D01*
X139325087Y-104961408D01*
X139310949Y-105018660D01*
X139287975Y-105070102D01*
X139256328Y-105116604D01*
X139218027Y-105155358D01*
X139172509Y-105187034D01*
X139121967Y-105209928D01*
X139065210Y-105224068D01*
X139000989Y-105228982D01*
X138936722Y-105224165D01*
X138879466Y-105210265D01*
X138828065Y-105187705D01*
X138781626Y-105156457D01*
X138742892Y-105118388D01*
X138711195Y-105072911D01*
X138688220Y-105022383D01*
X138674083Y-104966071D01*
X138669185Y-104902796D01*
X138669442Y-104899987D01*
X138795215Y-104899987D01*
X138801931Y-104961619D01*
X138821104Y-105013438D01*
X138852207Y-105057142D01*
X138893156Y-105089703D01*
X138942116Y-105109977D01*
X138999585Y-105116997D01*
X139058167Y-105109916D01*
X139106685Y-105089703D01*
X139147135Y-105057189D01*
X139178126Y-105013438D01*
X139197299Y-104961619D01*
X139204016Y-104899987D01*
X139197299Y-104838418D01*
X139178126Y-104786659D01*
X139147130Y-104742858D01*
X139106685Y-104710333D01*
X139058163Y-104690074D01*
X138999585Y-104682978D01*
X138942120Y-104690012D01*
X138893156Y-104710333D01*
X138852211Y-104742904D01*
X138821104Y-104786659D01*
X138801931Y-104838418D01*
X138795215Y-104899987D01*
X138669442Y-104899987D01*
X138675319Y-104835687D01*
X138694403Y-104764921D01*
X138723441Y-104694214D01*
X138763036Y-104617215D01*
X138999585Y-104193026D01*
X139139597Y-104193026D01*
X138887600Y-104631198D01*
G37*
G36*
X139495692Y-93067385D02*
G01*
X139548505Y-93079914D01*
X139595527Y-93100151D01*
X139638138Y-93128282D01*
X139673386Y-93162416D01*
X139701956Y-93203039D01*
X139722573Y-93248271D01*
X139735318Y-93299200D01*
X139739752Y-93356973D01*
X139733546Y-93424333D01*
X139715695Y-93483041D01*
X139686568Y-93534781D01*
X139647198Y-93579286D01*
X139600421Y-93613609D01*
X139545152Y-93638401D01*
X139753796Y-94085000D01*
X139615188Y-94085000D01*
X139414970Y-93650980D01*
X139245588Y-93650980D01*
X139245588Y-94085000D01*
X139120963Y-94085000D01*
X139120963Y-93537590D01*
X139245588Y-93537590D01*
X139435975Y-93537590D01*
X139486119Y-93531746D01*
X139527441Y-93515134D01*
X139561943Y-93487887D01*
X139587915Y-93452170D01*
X139603914Y-93409208D01*
X139609571Y-93356973D01*
X139603865Y-93303851D01*
X139587826Y-93260743D01*
X139561943Y-93225448D01*
X139527491Y-93198597D01*
X139486169Y-93182194D01*
X139435975Y-93176416D01*
X139245588Y-93176416D01*
X139245588Y-93537590D01*
X139120963Y-93537590D01*
X139120963Y-93063026D01*
X139435975Y-93063026D01*
X139495692Y-93067385D01*
G37*
G36*
X140389988Y-94085000D02*
G01*
X140389988Y-93861029D01*
X139928002Y-93861029D01*
X139928002Y-93663620D01*
X140300412Y-93063026D01*
X140443172Y-93063026D01*
X140053971Y-93691585D01*
X140053971Y-93746174D01*
X140389988Y-93746174D01*
X140389988Y-93496985D01*
X140516017Y-93496985D01*
X140516017Y-94085000D01*
X140389988Y-94085000D01*
G37*
G36*
X134725000Y-105904420D02*
G01*
X134290980Y-106104638D01*
X134290980Y-106274020D01*
X134725000Y-106274020D01*
X134725000Y-106398645D01*
X133703026Y-106398645D01*
X133703026Y-106083633D01*
X133816416Y-106083633D01*
X133816416Y-106274020D01*
X134177590Y-106274020D01*
X134177590Y-106083633D01*
X134171746Y-106033489D01*
X134155134Y-105992167D01*
X134127887Y-105957665D01*
X134092170Y-105931693D01*
X134049208Y-105915694D01*
X133996973Y-105910037D01*
X133943851Y-105915743D01*
X133900743Y-105931782D01*
X133865448Y-105957665D01*
X133838597Y-105992117D01*
X133822194Y-106033439D01*
X133816416Y-106083633D01*
X133703026Y-106083633D01*
X133707385Y-106023916D01*
X133719914Y-105971103D01*
X133740151Y-105924081D01*
X133768282Y-105881470D01*
X133802416Y-105846222D01*
X133843039Y-105817652D01*
X133888271Y-105797035D01*
X133939200Y-105784290D01*
X133996973Y-105779856D01*
X134064333Y-105786062D01*
X134123041Y-105803913D01*
X134174781Y-105833040D01*
X134219286Y-105872410D01*
X134253609Y-105919187D01*
X134278401Y-105974456D01*
X134725000Y-105765812D01*
X134725000Y-105904420D01*
G37*
G36*
X134725000Y-105563579D02*
G01*
X134610205Y-105563579D01*
X134610205Y-105286424D01*
X133812203Y-105286424D01*
X134019382Y-105563579D01*
X133875218Y-105563579D01*
X133703026Y-105332586D01*
X133703026Y-105160395D01*
X134610205Y-105160395D01*
X134610205Y-104933615D01*
X134725000Y-104933615D01*
X134725000Y-105563579D01*
G37*
G36*
X134725000Y-104724360D02*
G01*
X134610205Y-104724360D01*
X134610205Y-104447206D01*
X133812203Y-104447206D01*
X134019382Y-104724360D01*
X133875218Y-104724360D01*
X133703026Y-104493368D01*
X133703026Y-104321176D01*
X134610205Y-104321176D01*
X134610205Y-104094397D01*
X134725000Y-104094397D01*
X134725000Y-104724360D01*
G37*
G36*
X134828982Y-101708007D02*
G01*
X134824826Y-101768782D01*
X134812967Y-101821809D01*
X134793995Y-101868291D01*
X134767059Y-101910277D01*
X134733439Y-101945063D01*
X134692512Y-101973316D01*
X134646818Y-101993485D01*
X134594723Y-102006045D01*
X134534975Y-102010440D01*
X134072990Y-102010440D01*
X134012336Y-102006010D01*
X133960083Y-101993418D01*
X133914842Y-101973316D01*
X133874338Y-101945105D01*
X133840929Y-101910324D01*
X133814031Y-101868291D01*
X133795025Y-101821805D01*
X133783146Y-101768778D01*
X133778982Y-101708007D01*
X133783233Y-101647272D01*
X133795343Y-101594510D01*
X133814703Y-101548455D01*
X133842015Y-101506872D01*
X133875671Y-101472555D01*
X133916247Y-101444835D01*
X133961428Y-101425100D01*
X134013246Y-101412770D01*
X134072990Y-101408443D01*
X134072990Y-101534411D01*
X134016886Y-101540039D01*
X133973273Y-101555524D01*
X133939328Y-101579901D01*
X133913971Y-101613021D01*
X133898090Y-101654868D01*
X133892372Y-101708007D01*
X133898058Y-101761176D01*
X133913918Y-101803541D01*
X133939328Y-101837517D01*
X133973384Y-101862706D01*
X134017001Y-101878636D01*
X134072990Y-101884411D01*
X134534975Y-101884411D01*
X134591005Y-101878634D01*
X134634640Y-101862704D01*
X134668698Y-101837517D01*
X134694072Y-101803546D01*
X134709914Y-101761181D01*
X134715593Y-101708007D01*
X134709881Y-101654863D01*
X134694019Y-101613016D01*
X134668698Y-101579901D01*
X134634752Y-101555527D01*
X134591120Y-101540040D01*
X134534975Y-101534411D01*
X134534975Y-101408443D01*
X134593814Y-101412735D01*
X134645472Y-101425034D01*
X134691107Y-101444835D01*
X134732106Y-101472596D01*
X134765974Y-101506919D01*
X134793323Y-101548455D01*
X134812648Y-101594507D01*
X134824739Y-101647269D01*
X134828982Y-101708007D01*
G37*
G36*
X134561408Y-100554521D02*
G01*
X134618660Y-100568660D01*
X134670102Y-100591634D01*
X134716604Y-100623280D01*
X134755358Y-100661581D01*
X134787034Y-100707100D01*
X134809928Y-100757642D01*
X134824068Y-100814398D01*
X134828982Y-100878619D01*
X134824165Y-100942886D01*
X134810265Y-101000143D01*
X134787705Y-101051543D01*
X134756457Y-101097982D01*
X134718388Y-101136716D01*
X134672911Y-101168413D01*
X134622383Y-101191389D01*
X134566071Y-101205525D01*
X134502796Y-101210423D01*
X134435687Y-101204290D01*
X134364921Y-101185205D01*
X134294214Y-101156167D01*
X134217215Y-101116573D01*
X133793026Y-100880024D01*
X133793026Y-100740011D01*
X134231198Y-100992009D01*
X134234007Y-100987796D01*
X134213588Y-100965921D01*
X134197615Y-100933207D01*
X134188229Y-100895647D01*
X134187026Y-100880024D01*
X134282978Y-100880024D01*
X134290012Y-100937489D01*
X134310333Y-100986452D01*
X134342904Y-101027397D01*
X134386659Y-101058504D01*
X134438418Y-101077677D01*
X134499987Y-101084394D01*
X134561619Y-101077677D01*
X134613438Y-101058504D01*
X134657142Y-101027402D01*
X134689703Y-100986452D01*
X134709977Y-100937492D01*
X134716997Y-100880024D01*
X134709916Y-100821442D01*
X134689703Y-100772923D01*
X134657189Y-100732474D01*
X134613438Y-100701482D01*
X134561619Y-100682309D01*
X134499987Y-100675592D01*
X134438418Y-100682309D01*
X134386659Y-100701482D01*
X134342858Y-100732478D01*
X134310333Y-100772923D01*
X134290074Y-100821446D01*
X134282978Y-100880024D01*
X134187026Y-100880024D01*
X134184975Y-100853401D01*
X134189651Y-100793837D01*
X134203104Y-100741277D01*
X134224909Y-100694521D01*
X134254849Y-100652517D01*
X134291278Y-100617231D01*
X134334818Y-100588153D01*
X134382834Y-100567123D01*
X134436580Y-100554135D01*
X134497178Y-100549624D01*
X134561408Y-100554521D01*
G37*
G36*
X149712383Y-113538982D02*
G01*
X149651608Y-113534826D01*
X149598581Y-113522967D01*
X149552099Y-113503995D01*
X149510113Y-113477059D01*
X149475327Y-113443439D01*
X149447074Y-113402512D01*
X149426905Y-113356818D01*
X149414345Y-113304723D01*
X149409950Y-113244975D01*
X149409950Y-112782990D01*
X149414380Y-112722336D01*
X149426972Y-112670083D01*
X149447074Y-112624842D01*
X149475285Y-112584338D01*
X149510066Y-112550929D01*
X149552099Y-112524031D01*
X149598585Y-112505025D01*
X149651612Y-112493146D01*
X149712383Y-112488982D01*
X149773118Y-112493233D01*
X149825880Y-112505343D01*
X149871935Y-112524703D01*
X149913518Y-112552015D01*
X149947835Y-112585671D01*
X149975555Y-112626247D01*
X149995290Y-112671428D01*
X150007620Y-112723246D01*
X150011947Y-112782990D01*
X149885979Y-112782990D01*
X149880351Y-112726886D01*
X149864866Y-112683273D01*
X149840489Y-112649328D01*
X149807369Y-112623971D01*
X149765522Y-112608090D01*
X149712383Y-112602372D01*
X149659214Y-112608058D01*
X149616849Y-112623918D01*
X149582873Y-112649328D01*
X149557684Y-112683384D01*
X149541754Y-112727001D01*
X149535979Y-112782990D01*
X149535979Y-113244975D01*
X149541756Y-113301005D01*
X149557686Y-113344640D01*
X149582873Y-113378698D01*
X149616844Y-113404072D01*
X149659209Y-113419914D01*
X149712383Y-113425593D01*
X149765527Y-113419881D01*
X149807374Y-113404019D01*
X149840489Y-113378698D01*
X149864863Y-113344752D01*
X149880350Y-113301120D01*
X149885979Y-113244975D01*
X150011947Y-113244975D01*
X150007655Y-113303814D01*
X149995356Y-113355472D01*
X149975555Y-113401107D01*
X149947794Y-113442106D01*
X149913471Y-113475974D01*
X149871935Y-113503323D01*
X149825883Y-113522648D01*
X149773121Y-113534739D01*
X149712383Y-113538982D01*
G37*
G36*
X150246420Y-113525000D02*
G01*
X150246420Y-113410205D01*
X150523575Y-113410205D01*
X150523575Y-112612203D01*
X150246420Y-112819382D01*
X150246420Y-112675218D01*
X150477413Y-112503026D01*
X150649604Y-112503026D01*
X150649604Y-113410205D01*
X150876384Y-113410205D01*
X150876384Y-113525000D01*
X150246420Y-113525000D01*
G37*
G36*
X151443383Y-112493842D02*
G01*
X151500824Y-112507795D01*
X151551776Y-112530321D01*
X151597826Y-112561535D01*
X151636347Y-112599598D01*
X151667975Y-112645115D01*
X151690946Y-112695605D01*
X151705085Y-112751914D01*
X151709984Y-112815230D01*
X151703851Y-112882339D01*
X151684766Y-112953105D01*
X151655775Y-113023810D01*
X151616195Y-113100811D01*
X151379585Y-113525000D01*
X151232612Y-113525000D01*
X151484609Y-113086828D01*
X151480396Y-113084019D01*
X151468583Y-113096810D01*
X151450293Y-113109237D01*
X151403399Y-113126700D01*
X151346002Y-113132990D01*
X151288333Y-113128344D01*
X151237157Y-113114936D01*
X151191335Y-113093117D01*
X151150247Y-113063210D01*
X151115616Y-113026790D01*
X151086982Y-112983208D01*
X151066364Y-112935194D01*
X151053615Y-112881423D01*
X151049185Y-112820786D01*
X151049398Y-112817978D01*
X151175215Y-112817978D01*
X151181931Y-112879609D01*
X151201104Y-112931428D01*
X151232207Y-112975133D01*
X151273156Y-113007693D01*
X151322116Y-113027968D01*
X151379585Y-113034987D01*
X151437673Y-113027988D01*
X151486168Y-113007950D01*
X151527291Y-112974781D01*
X151558266Y-112931624D01*
X151577304Y-112880129D01*
X151584016Y-112817978D01*
X151577299Y-112756408D01*
X151558126Y-112704649D01*
X151527130Y-112660848D01*
X151486685Y-112628323D01*
X151438167Y-112608110D01*
X151379585Y-112601029D01*
X151322116Y-112608048D01*
X151273156Y-112628323D01*
X151232211Y-112660894D01*
X151201104Y-112704649D01*
X151181931Y-112756408D01*
X151175215Y-112817978D01*
X151049398Y-112817978D01*
X151054118Y-112755619D01*
X151068290Y-112698182D01*
X151091195Y-112647191D01*
X151122870Y-112601196D01*
X151161399Y-112562667D01*
X151207394Y-112530992D01*
X151258351Y-112507995D01*
X151314899Y-112493869D01*
X151378181Y-112488982D01*
X151443383Y-112493842D01*
G37*
G36*
X134041992Y-100518982D02*
G01*
X133981217Y-100514826D01*
X133928190Y-100502967D01*
X133881708Y-100483995D01*
X133839722Y-100457059D01*
X133804936Y-100423439D01*
X133776683Y-100382512D01*
X133756514Y-100336818D01*
X133743954Y-100284723D01*
X133739559Y-100224975D01*
X133739559Y-99762990D01*
X133743989Y-99702336D01*
X133756581Y-99650083D01*
X133776683Y-99604842D01*
X133804894Y-99564338D01*
X133839675Y-99530929D01*
X133881708Y-99504031D01*
X133928194Y-99485025D01*
X133981221Y-99473146D01*
X134041992Y-99468982D01*
X134102727Y-99473233D01*
X134155489Y-99485343D01*
X134201544Y-99504703D01*
X134243127Y-99532015D01*
X134277444Y-99565671D01*
X134305164Y-99606247D01*
X134324899Y-99651428D01*
X134337229Y-99703246D01*
X134341556Y-99762990D01*
X134215588Y-99762990D01*
X134209960Y-99706886D01*
X134194475Y-99663273D01*
X134170098Y-99629328D01*
X134136978Y-99603971D01*
X134095131Y-99588090D01*
X134041992Y-99582372D01*
X133988823Y-99588058D01*
X133946458Y-99603918D01*
X133912482Y-99629328D01*
X133887293Y-99663384D01*
X133871363Y-99707001D01*
X133865588Y-99762990D01*
X133865588Y-100224975D01*
X133871365Y-100281005D01*
X133887295Y-100324640D01*
X133912482Y-100358698D01*
X133946453Y-100384072D01*
X133988818Y-100399914D01*
X134041992Y-100405593D01*
X134095136Y-100399881D01*
X134136983Y-100384019D01*
X134170098Y-100358698D01*
X134194472Y-100324752D01*
X134209959Y-100281120D01*
X134215588Y-100224975D01*
X134341556Y-100224975D01*
X134337264Y-100283814D01*
X134324965Y-100335472D01*
X134305164Y-100381107D01*
X134277403Y-100422106D01*
X134243080Y-100455974D01*
X134201544Y-100483323D01*
X134155492Y-100502648D01*
X134102730Y-100514739D01*
X134041992Y-100518982D01*
G37*
G36*
X134861610Y-100518982D02*
G01*
X134791390Y-100513529D01*
X134731812Y-100498107D01*
X134681016Y-100473555D01*
X134637578Y-100439909D01*
X134602177Y-100397873D01*
X134576599Y-100349012D01*
X134560645Y-100291987D01*
X134555024Y-100224975D01*
X134680993Y-100224975D01*
X134686868Y-100278984D01*
X134703360Y-100322561D01*
X134729963Y-100358026D01*
X134765428Y-100384629D01*
X134809005Y-100401121D01*
X134863015Y-100406997D01*
X134916981Y-100401121D01*
X134960517Y-100384630D01*
X134995944Y-100358026D01*
X135022582Y-100322557D01*
X135039093Y-100278980D01*
X135044975Y-100224975D01*
X135044975Y-100162021D01*
X135039236Y-100107911D01*
X135023165Y-100064357D01*
X134997348Y-100029031D01*
X134962834Y-100002316D01*
X134920650Y-99985847D01*
X134868571Y-99980000D01*
X134590012Y-99980000D01*
X134590012Y-99483026D01*
X135134613Y-99483026D01*
X135134613Y-99597821D01*
X134707615Y-99597821D01*
X134710424Y-99865205D01*
X134875593Y-99865205D01*
X134946032Y-99870666D01*
X135004563Y-99885968D01*
X135053342Y-99910105D01*
X135094007Y-99942936D01*
X135126521Y-99983874D01*
X135150437Y-100032871D01*
X135165598Y-100091549D01*
X135171005Y-100162021D01*
X135171005Y-100224975D01*
X135165339Y-100291937D01*
X135149250Y-100348943D01*
X135123433Y-100397823D01*
X135087657Y-100439909D01*
X135043909Y-100473522D01*
X134992687Y-100498080D01*
X134932548Y-100513520D01*
X134861610Y-100518982D01*
G37*
G36*
X147862383Y-102038982D02*
G01*
X147801608Y-102034826D01*
X147748581Y-102022967D01*
X147702099Y-102003995D01*
X147660113Y-101977059D01*
X147625327Y-101943439D01*
X147597074Y-101902512D01*
X147576905Y-101856818D01*
X147564345Y-101804723D01*
X147559950Y-101744975D01*
X147559950Y-101282990D01*
X147564380Y-101222336D01*
X147576972Y-101170083D01*
X147597074Y-101124842D01*
X147625285Y-101084338D01*
X147660066Y-101050929D01*
X147702099Y-101024031D01*
X147748585Y-101005025D01*
X147801612Y-100993146D01*
X147862383Y-100988982D01*
X147923118Y-100993233D01*
X147975880Y-101005343D01*
X148021935Y-101024703D01*
X148063518Y-101052015D01*
X148097835Y-101085671D01*
X148125555Y-101126247D01*
X148145290Y-101171428D01*
X148157620Y-101223246D01*
X148161947Y-101282990D01*
X148035979Y-101282990D01*
X148030351Y-101226886D01*
X148014866Y-101183273D01*
X147990489Y-101149328D01*
X147957369Y-101123971D01*
X147915522Y-101108090D01*
X147862383Y-101102372D01*
X147809214Y-101108058D01*
X147766849Y-101123918D01*
X147732873Y-101149328D01*
X147707684Y-101183384D01*
X147691754Y-101227001D01*
X147685979Y-101282990D01*
X147685979Y-101744975D01*
X147691756Y-101801005D01*
X147707686Y-101844640D01*
X147732873Y-101878698D01*
X147766844Y-101904072D01*
X147809209Y-101919914D01*
X147862383Y-101925593D01*
X147915527Y-101919881D01*
X147957374Y-101904019D01*
X147990489Y-101878698D01*
X148014863Y-101844752D01*
X148030350Y-101801120D01*
X148035979Y-101744975D01*
X148161947Y-101744975D01*
X148157655Y-101803814D01*
X148145356Y-101855472D01*
X148125555Y-101901107D01*
X148097794Y-101942106D01*
X148063471Y-101975974D01*
X148021935Y-102003323D01*
X147975883Y-102022648D01*
X147923121Y-102034739D01*
X147862383Y-102038982D01*
G37*
G36*
X148396420Y-102025000D02*
G01*
X148396420Y-101910205D01*
X148673575Y-101910205D01*
X148673575Y-101112203D01*
X148396420Y-101319382D01*
X148396420Y-101175218D01*
X148627413Y-101003026D01*
X148799604Y-101003026D01*
X148799604Y-101910205D01*
X149026384Y-101910205D01*
X149026384Y-102025000D01*
X148396420Y-102025000D01*
G37*
G36*
X149588535Y-100993034D02*
G01*
X149640441Y-101004644D01*
X149686389Y-101023299D01*
X149728367Y-101049451D01*
X149763132Y-101081063D01*
X149791413Y-101118492D01*
X149812158Y-101160507D01*
X149824835Y-101207062D01*
X149829210Y-101259176D01*
X149823815Y-101311703D01*
X149808002Y-101359158D01*
X149781582Y-101402730D01*
X149746402Y-101439261D01*
X149704373Y-101465920D01*
X149654210Y-101483208D01*
X149654210Y-101487421D01*
X149712289Y-101503891D01*
X149761310Y-101532911D01*
X149801650Y-101572863D01*
X149832019Y-101621816D01*
X149850792Y-101677157D01*
X149857237Y-101739419D01*
X149852459Y-101797026D01*
X149838598Y-101848688D01*
X149815899Y-101895490D01*
X149784929Y-101937266D01*
X149746920Y-101972348D01*
X149701104Y-102001186D01*
X149650800Y-102021740D01*
X149594023Y-102034523D01*
X149529585Y-102038982D01*
X149466091Y-102034556D01*
X149409519Y-102021803D01*
X149358798Y-102001186D01*
X149312551Y-101972311D01*
X149274311Y-101937224D01*
X149243271Y-101895490D01*
X149220606Y-101848692D01*
X149206765Y-101797029D01*
X149201994Y-101739419D01*
X149202285Y-101736610D01*
X149328024Y-101736610D01*
X149334520Y-101790193D01*
X149353142Y-101835025D01*
X149384016Y-101873142D01*
X149424126Y-101901783D01*
X149471936Y-101919387D01*
X149529585Y-101925593D01*
X149587274Y-101919386D01*
X149635104Y-101901780D01*
X149675215Y-101873142D01*
X149706089Y-101835025D01*
X149724711Y-101790193D01*
X149731207Y-101736610D01*
X149724672Y-101682091D01*
X149706015Y-101636846D01*
X149675215Y-101598735D01*
X149635100Y-101570060D01*
X149587270Y-101552436D01*
X149529585Y-101546222D01*
X149471941Y-101552434D01*
X149424130Y-101570058D01*
X149384016Y-101598735D01*
X149353216Y-101636846D01*
X149334558Y-101682091D01*
X149328024Y-101736610D01*
X149202285Y-101736610D01*
X149208439Y-101677157D01*
X149227212Y-101621816D01*
X149257581Y-101572863D01*
X149297921Y-101532911D01*
X149346942Y-101503891D01*
X149405021Y-101487421D01*
X149405021Y-101483208D01*
X149354855Y-101465922D01*
X149312804Y-101439263D01*
X149277587Y-101402730D01*
X149251203Y-101359161D01*
X149235410Y-101311707D01*
X149230885Y-101267602D01*
X149355989Y-101267602D01*
X149361618Y-101314995D01*
X149377711Y-101354530D01*
X149404288Y-101388014D01*
X149438948Y-101413270D01*
X149480104Y-101428737D01*
X149529585Y-101434176D01*
X149579990Y-101428687D01*
X149621314Y-101413178D01*
X149655553Y-101388014D01*
X149681732Y-101354580D01*
X149697618Y-101315043D01*
X149703181Y-101267602D01*
X149697617Y-101220163D01*
X149681730Y-101180649D01*
X149655553Y-101147252D01*
X149621310Y-101122052D01*
X149579986Y-101106524D01*
X149529585Y-101101029D01*
X149480109Y-101106474D01*
X149438953Y-101121960D01*
X149404288Y-101147252D01*
X149377713Y-101180698D01*
X149361619Y-101220212D01*
X149355989Y-101267602D01*
X149230885Y-101267602D01*
X149230021Y-101259176D01*
X149234396Y-101207062D01*
X149247073Y-101160507D01*
X149267818Y-101118492D01*
X149296132Y-101081107D01*
X149331107Y-101049490D01*
X149373514Y-101023299D01*
X149419918Y-101004578D01*
X149471620Y-100993000D01*
X149529585Y-100988982D01*
X149588535Y-100993034D01*
G37*
G36*
X162088982Y-93708007D02*
G01*
X162084826Y-93768782D01*
X162072967Y-93821809D01*
X162053995Y-93868291D01*
X162027059Y-93910277D01*
X161993439Y-93945063D01*
X161952512Y-93973316D01*
X161906818Y-93993485D01*
X161854723Y-94006045D01*
X161794975Y-94010440D01*
X161332990Y-94010440D01*
X161272336Y-94006010D01*
X161220083Y-93993418D01*
X161174842Y-93973316D01*
X161134338Y-93945105D01*
X161100929Y-93910324D01*
X161074031Y-93868291D01*
X161055025Y-93821805D01*
X161043146Y-93768778D01*
X161038982Y-93708007D01*
X161043233Y-93647272D01*
X161055343Y-93594510D01*
X161074703Y-93548455D01*
X161102015Y-93506872D01*
X161135671Y-93472555D01*
X161176247Y-93444835D01*
X161221428Y-93425100D01*
X161273246Y-93412770D01*
X161332990Y-93408443D01*
X161332990Y-93534411D01*
X161276886Y-93540039D01*
X161233273Y-93555524D01*
X161199328Y-93579901D01*
X161173971Y-93613021D01*
X161158090Y-93654868D01*
X161152372Y-93708007D01*
X161158058Y-93761176D01*
X161173918Y-93803541D01*
X161199328Y-93837517D01*
X161233384Y-93862706D01*
X161277001Y-93878636D01*
X161332990Y-93884411D01*
X161794975Y-93884411D01*
X161851005Y-93878634D01*
X161894640Y-93862704D01*
X161928698Y-93837517D01*
X161954072Y-93803546D01*
X161969914Y-93761181D01*
X161975593Y-93708007D01*
X161969881Y-93654863D01*
X161954019Y-93613016D01*
X161928698Y-93579901D01*
X161894752Y-93555527D01*
X161851120Y-93540040D01*
X161794975Y-93534411D01*
X161794975Y-93408443D01*
X161853814Y-93412735D01*
X161905472Y-93425034D01*
X161951107Y-93444835D01*
X161992106Y-93472596D01*
X162025974Y-93506919D01*
X162053323Y-93548455D01*
X162072648Y-93594507D01*
X162084739Y-93647269D01*
X162088982Y-93708007D01*
G37*
G36*
X162075000Y-93179587D02*
G01*
X161958801Y-93179587D01*
X161594818Y-92839418D01*
X161516463Y-92772998D01*
X161454806Y-92734455D01*
X161392708Y-92711026D01*
X161334394Y-92703619D01*
X161280320Y-92709412D01*
X161236520Y-92725685D01*
X161200732Y-92751918D01*
X161173659Y-92786960D01*
X161156960Y-92829822D01*
X161151029Y-92882771D01*
X161157140Y-92937579D01*
X161174322Y-92981831D01*
X161202137Y-93017899D01*
X161238949Y-93044877D01*
X161284120Y-93061631D01*
X161340012Y-93067602D01*
X161340012Y-93193570D01*
X161279478Y-93187390D01*
X161226441Y-93173249D01*
X161179727Y-93151622D01*
X161137791Y-93122078D01*
X161103235Y-93086347D01*
X161075436Y-93043849D01*
X161055620Y-92996812D01*
X161043290Y-92943512D01*
X161038982Y-92882771D01*
X161043334Y-92820171D01*
X161055706Y-92766032D01*
X161075436Y-92719006D01*
X161103211Y-92676465D01*
X161137325Y-92641212D01*
X161178323Y-92612578D01*
X161224056Y-92592028D01*
X161276129Y-92579249D01*
X161335799Y-92574781D01*
X161383508Y-92578915D01*
X161434566Y-92591848D01*
X161489794Y-92614715D01*
X161541696Y-92644669D01*
X161601920Y-92689107D01*
X161671816Y-92751185D01*
X161960205Y-93026997D01*
X161960205Y-92562202D01*
X162075000Y-92562202D01*
X162075000Y-93179587D01*
G37*
G36*
X136798982Y-102308007D02*
G01*
X136794826Y-102368782D01*
X136782967Y-102421809D01*
X136763995Y-102468291D01*
X136737059Y-102510277D01*
X136703439Y-102545063D01*
X136662512Y-102573316D01*
X136616818Y-102593485D01*
X136564723Y-102606045D01*
X136504975Y-102610440D01*
X136042990Y-102610440D01*
X135982336Y-102606010D01*
X135930083Y-102593418D01*
X135884842Y-102573316D01*
X135844338Y-102545105D01*
X135810929Y-102510324D01*
X135784031Y-102468291D01*
X135765025Y-102421805D01*
X135753146Y-102368778D01*
X135748982Y-102308007D01*
X135753233Y-102247272D01*
X135765343Y-102194510D01*
X135784703Y-102148455D01*
X135812015Y-102106872D01*
X135845671Y-102072555D01*
X135886247Y-102044835D01*
X135931428Y-102025100D01*
X135983246Y-102012770D01*
X136042990Y-102008443D01*
X136042990Y-102134411D01*
X135986886Y-102140039D01*
X135943273Y-102155524D01*
X135909328Y-102179901D01*
X135883971Y-102213021D01*
X135868090Y-102254868D01*
X135862372Y-102308007D01*
X135868058Y-102361176D01*
X135883918Y-102403541D01*
X135909328Y-102437517D01*
X135943384Y-102462706D01*
X135987001Y-102478636D01*
X136042990Y-102484411D01*
X136504975Y-102484411D01*
X136561005Y-102478634D01*
X136604640Y-102462704D01*
X136638698Y-102437517D01*
X136664072Y-102403546D01*
X136679914Y-102361181D01*
X136685593Y-102308007D01*
X136679881Y-102254863D01*
X136664019Y-102213016D01*
X136638698Y-102179901D01*
X136604752Y-102155527D01*
X136561120Y-102140040D01*
X136504975Y-102134411D01*
X136504975Y-102008443D01*
X136563814Y-102012735D01*
X136615472Y-102025034D01*
X136661107Y-102044835D01*
X136702106Y-102072596D01*
X136735974Y-102106919D01*
X136763323Y-102148455D01*
X136782648Y-102194507D01*
X136794739Y-102247269D01*
X136798982Y-102308007D01*
G37*
G36*
X136785000Y-101634019D02*
G01*
X135877821Y-101269975D01*
X135877821Y-101659176D01*
X136042990Y-101659176D01*
X136042990Y-101785205D01*
X135763026Y-101785205D01*
X135763026Y-101135580D01*
X135880629Y-101135580D01*
X136785000Y-101496815D01*
X136785000Y-101634019D01*
G37*
G36*
X161018808Y-105148982D02*
G01*
X160945779Y-105143264D01*
X160884200Y-105127133D01*
X160832039Y-105101505D01*
X160787755Y-105066428D01*
X160751889Y-105022693D01*
X160725854Y-104971585D01*
X160709554Y-104911664D01*
X160703796Y-104840992D01*
X160829764Y-104840992D01*
X160835894Y-104901600D01*
X160852794Y-104948900D01*
X160879468Y-104985889D01*
X160915626Y-105013508D01*
X160961158Y-105030784D01*
X161018808Y-105036997D01*
X161076418Y-105030786D01*
X161121931Y-105013511D01*
X161158088Y-104985889D01*
X161184761Y-104948900D01*
X161201662Y-104901600D01*
X161207791Y-104840992D01*
X161207791Y-104113026D01*
X161333760Y-104113026D01*
X161333760Y-104840992D01*
X161327960Y-104911617D01*
X161311534Y-104971522D01*
X161285277Y-105022646D01*
X161249068Y-105066428D01*
X161204450Y-105101589D01*
X161152258Y-105127213D01*
X161091024Y-105143296D01*
X161018808Y-105148982D01*
G37*
G36*
X161787990Y-104551198D02*
G01*
X161792203Y-104554007D01*
X161814078Y-104533588D01*
X161846792Y-104517615D01*
X161884352Y-104508229D01*
X161926598Y-104504975D01*
X161986162Y-104509651D01*
X162038722Y-104523104D01*
X162085478Y-104544909D01*
X162127482Y-104574849D01*
X162162768Y-104611278D01*
X162191846Y-104654818D01*
X162212876Y-104702834D01*
X162225864Y-104756580D01*
X162230375Y-104817178D01*
X162225478Y-104881408D01*
X162211339Y-104938660D01*
X162188365Y-104990102D01*
X162156719Y-105036604D01*
X162118418Y-105075358D01*
X162072899Y-105107034D01*
X162022357Y-105129928D01*
X161965601Y-105144068D01*
X161901380Y-105148982D01*
X161837113Y-105144165D01*
X161779856Y-105130265D01*
X161728456Y-105107705D01*
X161682017Y-105076457D01*
X161643283Y-105038388D01*
X161611586Y-104992911D01*
X161588610Y-104942383D01*
X161574474Y-104886071D01*
X161569576Y-104822796D01*
X161569833Y-104819987D01*
X161695605Y-104819987D01*
X161702322Y-104881619D01*
X161721495Y-104933438D01*
X161752597Y-104977142D01*
X161793547Y-105009703D01*
X161842507Y-105029977D01*
X161899975Y-105036997D01*
X161958557Y-105029916D01*
X162007076Y-105009703D01*
X162047525Y-104977189D01*
X162078517Y-104933438D01*
X162097690Y-104881619D01*
X162104407Y-104819987D01*
X162097690Y-104758418D01*
X162078517Y-104706659D01*
X162047521Y-104662858D01*
X162007076Y-104630333D01*
X161958553Y-104610074D01*
X161899975Y-104602978D01*
X161842510Y-104610012D01*
X161793547Y-104630333D01*
X161752602Y-104662904D01*
X161721495Y-104706659D01*
X161702322Y-104758418D01*
X161695605Y-104819987D01*
X161569833Y-104819987D01*
X161575709Y-104755687D01*
X161594794Y-104684921D01*
X161623832Y-104614214D01*
X161663426Y-104537215D01*
X161899975Y-104113026D01*
X162039988Y-104113026D01*
X161787990Y-104551198D01*
G37*
G36*
X150895000Y-109414811D02*
G01*
X150460980Y-109615029D01*
X150460980Y-109784411D01*
X150895000Y-109784411D01*
X150895000Y-109909036D01*
X149873026Y-109909036D01*
X149873026Y-109594024D01*
X149986416Y-109594024D01*
X149986416Y-109784411D01*
X150347590Y-109784411D01*
X150347590Y-109594024D01*
X150341746Y-109543880D01*
X150325134Y-109502558D01*
X150297887Y-109468056D01*
X150262170Y-109442084D01*
X150219208Y-109426085D01*
X150166973Y-109420428D01*
X150113851Y-109426134D01*
X150070743Y-109442173D01*
X150035448Y-109468056D01*
X150008597Y-109502508D01*
X149992194Y-109543830D01*
X149986416Y-109594024D01*
X149873026Y-109594024D01*
X149877385Y-109534307D01*
X149889914Y-109481494D01*
X149910151Y-109434472D01*
X149938282Y-109391861D01*
X149972416Y-109356613D01*
X150013039Y-109328043D01*
X150058271Y-109307426D01*
X150109200Y-109294681D01*
X150166973Y-109290247D01*
X150234333Y-109296453D01*
X150293041Y-109314304D01*
X150344781Y-109343431D01*
X150389286Y-109382801D01*
X150423609Y-109429578D01*
X150448401Y-109484847D01*
X150895000Y-109276203D01*
X150895000Y-109414811D01*
G37*
G36*
X150667026Y-108457149D02*
G01*
X150718688Y-108471010D01*
X150765490Y-108493710D01*
X150807266Y-108524679D01*
X150842348Y-108562688D01*
X150871186Y-108608504D01*
X150891740Y-108658808D01*
X150904523Y-108715586D01*
X150908982Y-108780024D01*
X150904556Y-108843517D01*
X150891803Y-108900089D01*
X150871186Y-108950810D01*
X150842311Y-108997058D01*
X150807224Y-109035298D01*
X150765490Y-109066337D01*
X150718692Y-109089002D01*
X150667029Y-109102843D01*
X150609419Y-109107614D01*
X150547157Y-109101169D01*
X150491816Y-109082396D01*
X150442863Y-109052028D01*
X150402911Y-109011688D01*
X150373891Y-108962667D01*
X150357421Y-108904587D01*
X150353208Y-108904587D01*
X150335922Y-108954754D01*
X150309263Y-108996804D01*
X150272730Y-109032021D01*
X150229161Y-109058405D01*
X150181707Y-109074199D01*
X150129176Y-109079587D01*
X150077062Y-109075212D01*
X150030507Y-109062535D01*
X149988492Y-109041791D01*
X149951107Y-109013476D01*
X149919490Y-108978501D01*
X149893299Y-108936095D01*
X149874578Y-108889691D01*
X149863000Y-108837988D01*
X149858982Y-108780024D01*
X149971029Y-108780024D01*
X149976474Y-108829500D01*
X149991960Y-108870656D01*
X150017252Y-108905320D01*
X150050698Y-108931895D01*
X150090212Y-108947989D01*
X150137602Y-108953619D01*
X150184995Y-108947991D01*
X150224530Y-108931897D01*
X150258014Y-108905320D01*
X150283270Y-108870660D01*
X150298737Y-108829504D01*
X150304176Y-108780024D01*
X150416222Y-108780024D01*
X150422434Y-108837668D01*
X150440058Y-108885478D01*
X150468735Y-108925592D01*
X150506846Y-108956392D01*
X150552091Y-108975050D01*
X150606610Y-108981585D01*
X150660193Y-108975088D01*
X150705025Y-108956466D01*
X150743142Y-108925592D01*
X150771783Y-108885483D01*
X150789387Y-108837672D01*
X150795593Y-108780024D01*
X150789386Y-108722334D01*
X150771780Y-108674504D01*
X150743142Y-108634394D01*
X150705025Y-108603520D01*
X150660193Y-108584898D01*
X150606610Y-108578401D01*
X150552091Y-108584936D01*
X150506846Y-108603594D01*
X150468735Y-108634394D01*
X150440060Y-108674509D01*
X150422436Y-108722338D01*
X150416222Y-108780024D01*
X150304176Y-108780024D01*
X150298687Y-108729618D01*
X150283178Y-108688294D01*
X150258014Y-108654055D01*
X150224580Y-108627876D01*
X150185043Y-108611990D01*
X150137602Y-108606428D01*
X150090163Y-108611992D01*
X150050649Y-108627878D01*
X150017252Y-108654055D01*
X149992052Y-108688299D01*
X149976524Y-108729623D01*
X149971029Y-108780024D01*
X149858982Y-108780024D01*
X149863034Y-108721073D01*
X149874644Y-108669167D01*
X149893299Y-108623220D01*
X149919451Y-108581242D01*
X149951063Y-108546476D01*
X149988492Y-108518195D01*
X150030507Y-108497451D01*
X150077062Y-108484774D01*
X150129176Y-108480399D01*
X150181703Y-108485793D01*
X150229158Y-108501606D01*
X150272730Y-108528026D01*
X150309261Y-108563206D01*
X150335920Y-108605235D01*
X150353208Y-108655399D01*
X150357421Y-108655399D01*
X150373891Y-108597319D01*
X150402911Y-108548298D01*
X150442863Y-108507958D01*
X150491816Y-108477590D01*
X150547157Y-108458817D01*
X150609419Y-108452372D01*
X150667026Y-108457149D01*
G37*
G36*
X141032383Y-108518982D02*
G01*
X140971608Y-108514826D01*
X140918581Y-108502967D01*
X140872099Y-108483995D01*
X140830113Y-108457059D01*
X140795327Y-108423439D01*
X140767074Y-108382512D01*
X140746905Y-108336818D01*
X140734345Y-108284723D01*
X140729950Y-108224975D01*
X140729950Y-107762990D01*
X140734380Y-107702336D01*
X140746972Y-107650083D01*
X140767074Y-107604842D01*
X140795285Y-107564338D01*
X140830066Y-107530929D01*
X140872099Y-107504031D01*
X140918585Y-107485025D01*
X140971612Y-107473146D01*
X141032383Y-107468982D01*
X141093118Y-107473233D01*
X141145880Y-107485343D01*
X141191935Y-107504703D01*
X141233518Y-107532015D01*
X141267835Y-107565671D01*
X141295555Y-107606247D01*
X141315290Y-107651428D01*
X141327620Y-107703246D01*
X141331947Y-107762990D01*
X141205979Y-107762990D01*
X141200351Y-107706886D01*
X141184866Y-107663273D01*
X141160489Y-107629328D01*
X141127369Y-107603971D01*
X141085522Y-107588090D01*
X141032383Y-107582372D01*
X140979214Y-107588058D01*
X140936849Y-107603918D01*
X140902873Y-107629328D01*
X140877684Y-107663384D01*
X140861754Y-107707001D01*
X140855979Y-107762990D01*
X140855979Y-108224975D01*
X140861756Y-108281005D01*
X140877686Y-108324640D01*
X140902873Y-108358698D01*
X140936844Y-108384072D01*
X140979209Y-108399914D01*
X141032383Y-108405593D01*
X141085527Y-108399881D01*
X141127374Y-108384019D01*
X141160489Y-108358698D01*
X141184863Y-108324752D01*
X141200350Y-108281120D01*
X141205979Y-108224975D01*
X141331947Y-108224975D01*
X141327655Y-108283814D01*
X141315356Y-108335472D01*
X141295555Y-108381107D01*
X141267794Y-108422106D01*
X141233471Y-108455974D01*
X141191935Y-108483323D01*
X141145883Y-108502648D01*
X141093121Y-108514739D01*
X141032383Y-108518982D01*
G37*
G36*
X141560803Y-108505000D02*
G01*
X141560803Y-108388801D01*
X141900972Y-108024818D01*
X141967392Y-107946463D01*
X142005935Y-107884806D01*
X142029364Y-107822708D01*
X142036771Y-107764394D01*
X142030978Y-107710320D01*
X142014705Y-107666520D01*
X141988472Y-107630732D01*
X141953430Y-107603659D01*
X141910568Y-107586960D01*
X141857619Y-107581029D01*
X141802811Y-107587140D01*
X141758559Y-107604322D01*
X141722491Y-107632137D01*
X141695513Y-107668949D01*
X141678759Y-107714120D01*
X141672788Y-107770012D01*
X141546820Y-107770012D01*
X141553000Y-107709478D01*
X141567141Y-107656441D01*
X141588768Y-107609727D01*
X141618312Y-107567791D01*
X141654043Y-107533235D01*
X141696541Y-107505436D01*
X141743578Y-107485620D01*
X141796878Y-107473290D01*
X141857619Y-107468982D01*
X141920219Y-107473334D01*
X141974358Y-107485706D01*
X142021384Y-107505436D01*
X142063925Y-107533211D01*
X142099178Y-107567325D01*
X142127812Y-107608323D01*
X142148362Y-107654056D01*
X142161141Y-107706129D01*
X142165609Y-107765799D01*
X142161475Y-107813508D01*
X142148542Y-107864566D01*
X142125675Y-107919794D01*
X142095721Y-107971696D01*
X142051283Y-108031920D01*
X141989205Y-108101816D01*
X141713393Y-108390205D01*
X142178188Y-108390205D01*
X142178188Y-108505000D01*
X141560803Y-108505000D01*
G37*
G36*
X142734514Y-107916771D02*
G01*
X142760462Y-107931700D01*
X142777500Y-107955568D01*
X142783604Y-107989769D01*
X142777468Y-108025316D01*
X142760462Y-108049975D01*
X142734454Y-108065466D01*
X142699585Y-108070980D01*
X142664716Y-108065466D01*
X142638707Y-108049975D01*
X142621749Y-108025322D01*
X142615626Y-107989769D01*
X142621717Y-107955562D01*
X142638707Y-107931700D01*
X142664655Y-107916771D01*
X142699585Y-107911428D01*
X142734514Y-107916771D01*
G37*
G36*
X142762189Y-107473409D02*
G01*
X142816345Y-107486003D01*
X142863411Y-107506107D01*
X142905885Y-107534313D01*
X142941126Y-107568889D01*
X142969779Y-107610399D01*
X142990342Y-107656620D01*
X143003151Y-107709394D01*
X143007636Y-107770012D01*
X143007636Y-108218014D01*
X143003186Y-108277689D01*
X142990408Y-108330260D01*
X142969779Y-108376894D01*
X142941047Y-108418781D01*
X142905571Y-108453595D01*
X142862678Y-108481919D01*
X142815199Y-108502054D01*
X142761244Y-108514596D01*
X142699585Y-108518982D01*
X142637967Y-108514598D01*
X142584009Y-108502057D01*
X142536492Y-108481919D01*
X142493599Y-108453595D01*
X142458123Y-108418781D01*
X142429391Y-108376894D01*
X142408796Y-108330264D01*
X142396038Y-108277692D01*
X142391595Y-108218014D01*
X142391595Y-107770012D01*
X142513411Y-107770012D01*
X142513411Y-108218014D01*
X142519426Y-108272884D01*
X142536546Y-108318646D01*
X142564519Y-108357294D01*
X142601622Y-108386887D01*
X142645933Y-108404887D01*
X142699585Y-108411210D01*
X142753278Y-108404885D01*
X142797607Y-108386884D01*
X142834712Y-108357294D01*
X142862685Y-108318646D01*
X142879805Y-108272884D01*
X142885820Y-108218014D01*
X142885820Y-107770012D01*
X142879802Y-107715102D01*
X142862680Y-107669344D01*
X142834712Y-107630732D01*
X142797607Y-107601142D01*
X142753278Y-107583140D01*
X142699585Y-107576816D01*
X142645933Y-107583139D01*
X142601622Y-107601139D01*
X142564519Y-107630732D01*
X142536551Y-107669344D01*
X142519429Y-107715102D01*
X142513411Y-107770012D01*
X142391595Y-107770012D01*
X142396073Y-107709390D01*
X142408863Y-107656616D01*
X142429391Y-107610399D01*
X142458084Y-107568939D01*
X142493554Y-107534358D01*
X142536492Y-107506107D01*
X142584012Y-107485934D01*
X142637971Y-107473373D01*
X142699585Y-107468982D01*
X142762189Y-107473409D01*
G37*
G36*
X151085000Y-102724420D02*
G01*
X150650980Y-102924638D01*
X150650980Y-103094020D01*
X151085000Y-103094020D01*
X151085000Y-103218645D01*
X150063026Y-103218645D01*
X150063026Y-102903633D01*
X150176416Y-102903633D01*
X150176416Y-103094020D01*
X150537590Y-103094020D01*
X150537590Y-102903633D01*
X150531746Y-102853489D01*
X150515134Y-102812167D01*
X150487887Y-102777665D01*
X150452170Y-102751693D01*
X150409208Y-102735694D01*
X150356973Y-102730037D01*
X150303851Y-102735743D01*
X150260743Y-102751782D01*
X150225448Y-102777665D01*
X150198597Y-102812117D01*
X150182194Y-102853439D01*
X150176416Y-102903633D01*
X150063026Y-102903633D01*
X150067385Y-102843916D01*
X150079914Y-102791103D01*
X150100151Y-102744081D01*
X150128282Y-102701470D01*
X150162416Y-102666222D01*
X150203039Y-102637652D01*
X150248271Y-102617035D01*
X150299200Y-102604290D01*
X150356973Y-102599856D01*
X150424333Y-102606062D01*
X150483041Y-102623913D01*
X150534781Y-102653040D01*
X150579286Y-102692410D01*
X150613609Y-102739187D01*
X150638401Y-102794456D01*
X151085000Y-102585812D01*
X151085000Y-102724420D01*
G37*
G36*
X151085000Y-102383579D02*
G01*
X150970205Y-102383579D01*
X150970205Y-102106424D01*
X150172203Y-102106424D01*
X150379382Y-102383579D01*
X150235218Y-102383579D01*
X150063026Y-102152586D01*
X150063026Y-101980395D01*
X150970205Y-101980395D01*
X150970205Y-101753615D01*
X151085000Y-101753615D01*
X151085000Y-102383579D01*
G37*
G36*
X151085000Y-101110402D02*
G01*
X150861029Y-101110402D01*
X150861029Y-101572387D01*
X150663620Y-101572387D01*
X150063026Y-101199978D01*
X150063026Y-101057218D01*
X150691585Y-101446419D01*
X150746174Y-101446419D01*
X150746174Y-101110402D01*
X150496985Y-101110402D01*
X150496985Y-100984373D01*
X151085000Y-100984373D01*
X151085000Y-101110402D01*
G37*
G36*
X134139581Y-98287532D02*
G01*
X134196277Y-98300357D01*
X134245654Y-98320823D01*
X134290435Y-98349673D01*
X134327521Y-98384975D01*
X134357639Y-98427252D01*
X134379373Y-98474470D01*
X134392861Y-98528154D01*
X134397573Y-98589612D01*
X134397573Y-98997009D01*
X134392874Y-99058473D01*
X134379396Y-99112417D01*
X134357639Y-99160102D01*
X134327479Y-99202801D01*
X134290388Y-99238315D01*
X134245654Y-99267203D01*
X134196277Y-99287669D01*
X134139581Y-99300493D01*
X134074196Y-99305000D01*
X133809559Y-99305000D01*
X133809559Y-99193014D01*
X133935588Y-99193014D01*
X134074196Y-99193014D01*
X134133711Y-99186733D01*
X134181111Y-99169228D01*
X134219093Y-99141235D01*
X134247487Y-99103607D01*
X134265233Y-99056453D01*
X134271605Y-98997009D01*
X134271605Y-98589612D01*
X134265263Y-98531077D01*
X134247546Y-98484353D01*
X134219093Y-98446791D01*
X134181111Y-98418798D01*
X134133711Y-98401293D01*
X134074196Y-98395012D01*
X133935588Y-98395012D01*
X133935588Y-99193014D01*
X133809559Y-99193014D01*
X133809559Y-98283026D01*
X134074196Y-98283026D01*
X134139581Y-98287532D01*
G37*
G36*
X134924588Y-99318982D02*
G01*
X134854368Y-99313529D01*
X134794790Y-99298107D01*
X134743994Y-99273555D01*
X134700556Y-99239909D01*
X134665155Y-99197873D01*
X134639577Y-99149012D01*
X134623623Y-99091987D01*
X134618002Y-99024975D01*
X134743971Y-99024975D01*
X134749846Y-99078984D01*
X134766338Y-99122561D01*
X134792941Y-99158026D01*
X134828406Y-99184629D01*
X134871983Y-99201121D01*
X134925993Y-99206997D01*
X134980000Y-99201120D01*
X135023555Y-99184627D01*
X135058983Y-99158026D01*
X135085621Y-99122557D01*
X135102133Y-99078980D01*
X135108015Y-99024975D01*
X135108015Y-98955000D01*
X135102131Y-98900996D01*
X135085619Y-98857441D01*
X135058983Y-98822009D01*
X135023551Y-98795373D01*
X134979996Y-98778861D01*
X134925993Y-98772978D01*
X134815412Y-98772978D01*
X134815412Y-98663801D01*
X135066005Y-98397821D01*
X134646029Y-98397821D01*
X134646029Y-98283026D01*
X135208826Y-98283026D01*
X135208826Y-98400629D01*
X134928801Y-98698789D01*
X134928801Y-98660992D01*
X134999034Y-98666460D01*
X135058471Y-98681907D01*
X135109011Y-98706477D01*
X135152100Y-98740127D01*
X135187183Y-98782091D01*
X135212559Y-98830915D01*
X135228399Y-98887943D01*
X135233983Y-98955000D01*
X135233983Y-99024975D01*
X135228320Y-99091941D01*
X135212242Y-99148948D01*
X135186443Y-99197827D01*
X135150696Y-99239909D01*
X135106948Y-99273519D01*
X135055718Y-99298078D01*
X134995559Y-99313519D01*
X134924588Y-99318982D01*
G37*
G36*
X136135000Y-105724420D02*
G01*
X135700980Y-105924638D01*
X135700980Y-106094020D01*
X136135000Y-106094020D01*
X136135000Y-106218645D01*
X135113026Y-106218645D01*
X135113026Y-105903633D01*
X135226416Y-105903633D01*
X135226416Y-106094020D01*
X135587590Y-106094020D01*
X135587590Y-105903633D01*
X135581746Y-105853489D01*
X135565134Y-105812167D01*
X135537887Y-105777665D01*
X135502170Y-105751693D01*
X135459208Y-105735694D01*
X135406973Y-105730037D01*
X135353851Y-105735743D01*
X135310743Y-105751782D01*
X135275448Y-105777665D01*
X135248597Y-105812117D01*
X135232194Y-105853439D01*
X135226416Y-105903633D01*
X135113026Y-105903633D01*
X135117385Y-105843916D01*
X135129914Y-105791103D01*
X135150151Y-105744081D01*
X135178282Y-105701470D01*
X135212416Y-105666222D01*
X135253039Y-105637652D01*
X135298271Y-105617035D01*
X135349200Y-105604290D01*
X135406973Y-105599856D01*
X135474333Y-105606062D01*
X135533041Y-105623913D01*
X135584781Y-105653040D01*
X135629286Y-105692410D01*
X135663609Y-105739187D01*
X135688401Y-105794456D01*
X136135000Y-105585812D01*
X136135000Y-105724420D01*
G37*
G36*
X136135000Y-105383579D02*
G01*
X136020205Y-105383579D01*
X136020205Y-105106424D01*
X135222203Y-105106424D01*
X135429382Y-105383579D01*
X135285218Y-105383579D01*
X135113026Y-105152586D01*
X135113026Y-104980395D01*
X136020205Y-104980395D01*
X136020205Y-104753615D01*
X136135000Y-104753615D01*
X136135000Y-105383579D01*
G37*
G36*
X135655316Y-104172531D02*
G01*
X135679975Y-104189537D01*
X135695466Y-104215545D01*
X135700980Y-104250414D01*
X135695466Y-104285283D01*
X135679975Y-104311292D01*
X135655322Y-104328250D01*
X135619769Y-104334373D01*
X135585562Y-104328282D01*
X135561700Y-104311292D01*
X135546771Y-104285344D01*
X135541428Y-104250414D01*
X135546771Y-104215485D01*
X135561700Y-104189537D01*
X135585568Y-104172499D01*
X135619769Y-104166395D01*
X135655316Y-104172531D01*
G37*
G36*
X135907689Y-103946813D02*
G01*
X135960260Y-103959591D01*
X136006894Y-103980220D01*
X136048781Y-104008952D01*
X136083595Y-104044428D01*
X136111919Y-104087321D01*
X136132054Y-104134800D01*
X136144596Y-104188755D01*
X136148982Y-104250414D01*
X136144598Y-104312032D01*
X136132057Y-104365990D01*
X136111919Y-104413507D01*
X136083595Y-104456400D01*
X136048781Y-104491876D01*
X136006894Y-104520608D01*
X135960264Y-104541203D01*
X135907692Y-104553961D01*
X135848014Y-104558404D01*
X135400012Y-104558404D01*
X135339390Y-104553926D01*
X135286616Y-104541136D01*
X135240399Y-104520608D01*
X135198939Y-104491915D01*
X135164358Y-104456445D01*
X135136107Y-104413507D01*
X135115934Y-104365987D01*
X135103373Y-104312028D01*
X135098982Y-104250414D01*
X135206816Y-104250414D01*
X135213139Y-104304066D01*
X135231139Y-104348377D01*
X135260732Y-104385480D01*
X135299344Y-104413448D01*
X135345102Y-104430570D01*
X135400012Y-104436588D01*
X135848014Y-104436588D01*
X135902884Y-104430573D01*
X135948646Y-104413453D01*
X135987294Y-104385480D01*
X136016887Y-104348377D01*
X136034887Y-104304066D01*
X136041210Y-104250414D01*
X136034885Y-104196721D01*
X136016884Y-104152392D01*
X135987294Y-104115287D01*
X135948646Y-104087314D01*
X135902884Y-104070194D01*
X135848014Y-104064179D01*
X135400012Y-104064179D01*
X135345102Y-104070197D01*
X135299344Y-104087319D01*
X135260732Y-104115287D01*
X135231142Y-104152392D01*
X135213140Y-104196721D01*
X135206816Y-104250414D01*
X135098982Y-104250414D01*
X135103409Y-104187810D01*
X135116003Y-104133654D01*
X135136107Y-104086588D01*
X135164313Y-104044114D01*
X135198889Y-104008873D01*
X135240399Y-103980220D01*
X135286620Y-103959657D01*
X135339394Y-103946848D01*
X135400012Y-103942363D01*
X135848014Y-103942363D01*
X135907689Y-103946813D01*
G37*
G36*
X145468982Y-105757616D02*
G01*
X145464826Y-105818391D01*
X145452967Y-105871418D01*
X145433995Y-105917900D01*
X145407059Y-105959886D01*
X145373439Y-105994672D01*
X145332512Y-106022925D01*
X145286818Y-106043094D01*
X145234723Y-106055654D01*
X145174975Y-106060049D01*
X144712990Y-106060049D01*
X144652336Y-106055619D01*
X144600083Y-106043027D01*
X144554842Y-106022925D01*
X144514338Y-105994714D01*
X144480929Y-105959933D01*
X144454031Y-105917900D01*
X144435025Y-105871414D01*
X144423146Y-105818387D01*
X144418982Y-105757616D01*
X144423233Y-105696881D01*
X144435343Y-105644119D01*
X144454703Y-105598064D01*
X144482015Y-105556481D01*
X144515671Y-105522164D01*
X144556247Y-105494444D01*
X144601428Y-105474709D01*
X144653246Y-105462379D01*
X144712990Y-105458052D01*
X144712990Y-105584020D01*
X144656886Y-105589648D01*
X144613273Y-105605133D01*
X144579328Y-105629510D01*
X144553971Y-105662630D01*
X144538090Y-105704477D01*
X144532372Y-105757616D01*
X144538058Y-105810785D01*
X144553918Y-105853150D01*
X144579328Y-105887126D01*
X144613384Y-105912315D01*
X144657001Y-105928245D01*
X144712990Y-105934020D01*
X145174975Y-105934020D01*
X145231005Y-105928243D01*
X145274640Y-105912313D01*
X145308698Y-105887126D01*
X145334072Y-105853155D01*
X145349914Y-105810790D01*
X145355593Y-105757616D01*
X145349881Y-105704472D01*
X145334019Y-105662625D01*
X145308698Y-105629510D01*
X145274752Y-105605136D01*
X145231120Y-105589649D01*
X145174975Y-105584020D01*
X145174975Y-105458052D01*
X145233814Y-105462344D01*
X145285472Y-105474643D01*
X145331107Y-105494444D01*
X145372106Y-105522205D01*
X145405974Y-105556528D01*
X145433323Y-105598064D01*
X145452648Y-105644116D01*
X145464739Y-105696878D01*
X145468982Y-105757616D01*
G37*
G36*
X145455000Y-105229196D02*
G01*
X145338801Y-105229196D01*
X144974818Y-104889027D01*
X144896463Y-104822607D01*
X144834806Y-104784064D01*
X144772708Y-104760635D01*
X144714394Y-104753228D01*
X144660320Y-104759021D01*
X144616520Y-104775294D01*
X144580732Y-104801527D01*
X144553659Y-104836569D01*
X144536960Y-104879431D01*
X144531029Y-104932380D01*
X144537140Y-104987188D01*
X144554322Y-105031440D01*
X144582137Y-105067508D01*
X144618949Y-105094486D01*
X144664120Y-105111240D01*
X144720012Y-105117211D01*
X144720012Y-105243179D01*
X144659478Y-105236999D01*
X144606441Y-105222858D01*
X144559727Y-105201231D01*
X144517791Y-105171687D01*
X144483235Y-105135956D01*
X144455436Y-105093458D01*
X144435620Y-105046421D01*
X144423290Y-104993121D01*
X144418982Y-104932380D01*
X144423334Y-104869780D01*
X144435706Y-104815641D01*
X144455436Y-104768615D01*
X144483211Y-104726074D01*
X144517325Y-104690821D01*
X144558323Y-104662187D01*
X144604056Y-104641637D01*
X144656129Y-104628858D01*
X144715799Y-104624390D01*
X144763508Y-104628524D01*
X144814566Y-104641457D01*
X144869794Y-104664324D01*
X144921696Y-104694278D01*
X144981920Y-104738716D01*
X145051816Y-104800794D01*
X145340205Y-105076606D01*
X145340205Y-104611811D01*
X145455000Y-104611811D01*
X145455000Y-105229196D01*
G37*
G36*
X145455000Y-103950402D02*
G01*
X145231029Y-103950402D01*
X145231029Y-104412387D01*
X145033620Y-104412387D01*
X144433026Y-104039978D01*
X144433026Y-103897218D01*
X145061585Y-104286419D01*
X145116174Y-104286419D01*
X145116174Y-103950402D01*
X144866985Y-103950402D01*
X144866985Y-103824373D01*
X145455000Y-103824373D01*
X145455000Y-103950402D01*
G37*
G36*
X143376083Y-94027385D02*
G01*
X143428896Y-94039914D01*
X143475918Y-94060151D01*
X143518529Y-94088282D01*
X143553777Y-94122416D01*
X143582347Y-94163039D01*
X143602964Y-94208271D01*
X143615709Y-94259200D01*
X143620143Y-94316973D01*
X143613937Y-94384333D01*
X143596086Y-94443041D01*
X143566959Y-94494781D01*
X143527589Y-94539286D01*
X143480812Y-94573609D01*
X143425543Y-94598401D01*
X143634187Y-95045000D01*
X143495579Y-95045000D01*
X143295361Y-94610980D01*
X143125979Y-94610980D01*
X143125979Y-95045000D01*
X143001354Y-95045000D01*
X143001354Y-94497590D01*
X143125979Y-94497590D01*
X143316366Y-94497590D01*
X143366510Y-94491746D01*
X143407832Y-94475134D01*
X143442334Y-94447887D01*
X143468306Y-94412170D01*
X143484305Y-94369208D01*
X143489962Y-94316973D01*
X143484256Y-94263851D01*
X143468217Y-94220743D01*
X143442334Y-94185448D01*
X143407882Y-94158597D01*
X143366560Y-94142194D01*
X143316366Y-94136416D01*
X143125979Y-94136416D01*
X143125979Y-94497590D01*
X143001354Y-94497590D01*
X143001354Y-94023026D01*
X143316366Y-94023026D01*
X143376083Y-94027385D01*
G37*
G36*
X143836420Y-95045000D02*
G01*
X143836420Y-94930205D01*
X144113575Y-94930205D01*
X144113575Y-94132203D01*
X143836420Y-94339382D01*
X143836420Y-94195218D01*
X144067413Y-94023026D01*
X144239604Y-94023026D01*
X144239604Y-94930205D01*
X144466384Y-94930205D01*
X144466384Y-95045000D01*
X143836420Y-95045000D01*
G37*
G36*
X144670021Y-95045000D02*
G01*
X144670021Y-94928801D01*
X145010190Y-94564818D01*
X145076610Y-94486463D01*
X145115154Y-94424806D01*
X145138582Y-94362708D01*
X145145989Y-94304394D01*
X145140196Y-94250320D01*
X145123924Y-94206520D01*
X145097690Y-94170732D01*
X145062649Y-94143659D01*
X145019786Y-94126960D01*
X144966837Y-94121029D01*
X144912029Y-94127140D01*
X144867777Y-94144322D01*
X144831710Y-94172137D01*
X144804732Y-94208949D01*
X144787978Y-94254120D01*
X144782006Y-94310012D01*
X144656038Y-94310012D01*
X144662219Y-94249478D01*
X144676359Y-94196441D01*
X144697987Y-94149727D01*
X144727530Y-94107791D01*
X144763261Y-94073235D01*
X144805759Y-94045436D01*
X144852797Y-94025620D01*
X144906097Y-94013290D01*
X144966837Y-94008982D01*
X145029437Y-94013334D01*
X145083576Y-94025706D01*
X145130602Y-94045436D01*
X145173143Y-94073211D01*
X145208396Y-94107325D01*
X145237031Y-94148323D01*
X145257581Y-94194056D01*
X145270359Y-94246129D01*
X145274827Y-94305799D01*
X145270693Y-94353508D01*
X145257760Y-94404566D01*
X145234894Y-94459794D01*
X145204940Y-94511696D01*
X145160501Y-94571920D01*
X145098423Y-94641816D01*
X144822612Y-94930205D01*
X145287406Y-94930205D01*
X145287406Y-95045000D01*
X144670021Y-95045000D01*
G37*
G36*
X147752383Y-93698982D02*
G01*
X147691608Y-93694826D01*
X147638581Y-93682967D01*
X147592099Y-93663995D01*
X147550113Y-93637059D01*
X147515327Y-93603439D01*
X147487074Y-93562512D01*
X147466905Y-93516818D01*
X147454345Y-93464723D01*
X147449950Y-93404975D01*
X147449950Y-92942990D01*
X147454380Y-92882336D01*
X147466972Y-92830083D01*
X147487074Y-92784842D01*
X147515285Y-92744338D01*
X147550066Y-92710929D01*
X147592099Y-92684031D01*
X147638585Y-92665025D01*
X147691612Y-92653146D01*
X147752383Y-92648982D01*
X147813118Y-92653233D01*
X147865880Y-92665343D01*
X147911935Y-92684703D01*
X147953518Y-92712015D01*
X147987835Y-92745671D01*
X148015555Y-92786247D01*
X148035290Y-92831428D01*
X148047620Y-92883246D01*
X148051947Y-92942990D01*
X147925979Y-92942990D01*
X147920351Y-92886886D01*
X147904866Y-92843273D01*
X147880489Y-92809328D01*
X147847369Y-92783971D01*
X147805522Y-92768090D01*
X147752383Y-92762372D01*
X147699214Y-92768058D01*
X147656849Y-92783918D01*
X147622873Y-92809328D01*
X147597684Y-92843384D01*
X147581754Y-92887001D01*
X147575979Y-92942990D01*
X147575979Y-93404975D01*
X147581756Y-93461005D01*
X147597686Y-93504640D01*
X147622873Y-93538698D01*
X147656844Y-93564072D01*
X147699209Y-93579914D01*
X147752383Y-93585593D01*
X147805527Y-93579881D01*
X147847374Y-93564019D01*
X147880489Y-93538698D01*
X147904863Y-93504752D01*
X147920350Y-93461120D01*
X147925979Y-93404975D01*
X148051947Y-93404975D01*
X148047655Y-93463814D01*
X148035356Y-93515472D01*
X148015555Y-93561107D01*
X147987794Y-93602106D01*
X147953471Y-93635974D01*
X147911935Y-93663323D01*
X147865883Y-93682648D01*
X147813121Y-93694739D01*
X147752383Y-93698982D01*
G37*
G36*
X148286420Y-93685000D02*
G01*
X148286420Y-93570205D01*
X148563575Y-93570205D01*
X148563575Y-92772203D01*
X148286420Y-92979382D01*
X148286420Y-92835218D01*
X148517413Y-92663026D01*
X148689604Y-92663026D01*
X148689604Y-93570205D01*
X148916384Y-93570205D01*
X148916384Y-93685000D01*
X148286420Y-93685000D01*
G37*
G36*
X149125639Y-93685000D02*
G01*
X149125639Y-93570205D01*
X149402793Y-93570205D01*
X149402793Y-92772203D01*
X149125639Y-92979382D01*
X149125639Y-92835218D01*
X149356631Y-92663026D01*
X149528823Y-92663026D01*
X149528823Y-93570205D01*
X149755602Y-93570205D01*
X149755602Y-93685000D01*
X149125639Y-93685000D01*
G37*
G36*
X138762383Y-91068982D02*
G01*
X138701608Y-91064826D01*
X138648581Y-91052967D01*
X138602099Y-91033995D01*
X138560113Y-91007059D01*
X138525327Y-90973439D01*
X138497074Y-90932512D01*
X138476905Y-90886818D01*
X138464345Y-90834723D01*
X138459950Y-90774975D01*
X138459950Y-90312990D01*
X138464380Y-90252336D01*
X138476972Y-90200083D01*
X138497074Y-90154842D01*
X138525285Y-90114338D01*
X138560066Y-90080929D01*
X138602099Y-90054031D01*
X138648585Y-90035025D01*
X138701612Y-90023146D01*
X138762383Y-90018982D01*
X138823118Y-90023233D01*
X138875880Y-90035343D01*
X138921935Y-90054703D01*
X138963518Y-90082015D01*
X138997835Y-90115671D01*
X139025555Y-90156247D01*
X139045290Y-90201428D01*
X139057620Y-90253246D01*
X139061947Y-90312990D01*
X138935979Y-90312990D01*
X138930351Y-90256886D01*
X138914866Y-90213273D01*
X138890489Y-90179328D01*
X138857369Y-90153971D01*
X138815522Y-90138090D01*
X138762383Y-90132372D01*
X138709214Y-90138058D01*
X138666849Y-90153918D01*
X138632873Y-90179328D01*
X138607684Y-90213384D01*
X138591754Y-90257001D01*
X138585979Y-90312990D01*
X138585979Y-90774975D01*
X138591756Y-90831005D01*
X138607686Y-90874640D01*
X138632873Y-90908698D01*
X138666844Y-90934072D01*
X138709209Y-90949914D01*
X138762383Y-90955593D01*
X138815527Y-90949881D01*
X138857374Y-90934019D01*
X138890489Y-90908698D01*
X138914863Y-90874752D01*
X138930350Y-90831120D01*
X138935979Y-90774975D01*
X139061947Y-90774975D01*
X139057655Y-90833814D01*
X139045356Y-90885472D01*
X139025555Y-90931107D01*
X138997794Y-90972106D01*
X138963471Y-91005974D01*
X138921935Y-91033323D01*
X138875883Y-91052648D01*
X138823121Y-91064739D01*
X138762383Y-91068982D01*
G37*
G36*
X139296420Y-91055000D02*
G01*
X139296420Y-90940205D01*
X139573575Y-90940205D01*
X139573575Y-90142203D01*
X139296420Y-90349382D01*
X139296420Y-90205218D01*
X139527413Y-90033026D01*
X139699604Y-90033026D01*
X139699604Y-90940205D01*
X139926384Y-90940205D01*
X139926384Y-91055000D01*
X139296420Y-91055000D01*
G37*
G36*
X140130021Y-91055000D02*
G01*
X140130021Y-90938801D01*
X140470190Y-90574818D01*
X140536610Y-90496463D01*
X140575154Y-90434806D01*
X140598582Y-90372708D01*
X140605989Y-90314394D01*
X140600196Y-90260320D01*
X140583924Y-90216520D01*
X140557690Y-90180732D01*
X140522649Y-90153659D01*
X140479786Y-90136960D01*
X140426837Y-90131029D01*
X140372029Y-90137140D01*
X140327777Y-90154322D01*
X140291710Y-90182137D01*
X140264732Y-90218949D01*
X140247978Y-90264120D01*
X140242006Y-90320012D01*
X140116038Y-90320012D01*
X140122219Y-90259478D01*
X140136359Y-90206441D01*
X140157987Y-90159727D01*
X140187530Y-90117791D01*
X140223261Y-90083235D01*
X140265759Y-90055436D01*
X140312797Y-90035620D01*
X140366097Y-90023290D01*
X140426837Y-90018982D01*
X140489437Y-90023334D01*
X140543576Y-90035706D01*
X140590602Y-90055436D01*
X140633143Y-90083211D01*
X140668396Y-90117325D01*
X140697031Y-90158323D01*
X140717581Y-90204056D01*
X140730359Y-90256129D01*
X140734827Y-90315799D01*
X140730693Y-90363508D01*
X140717760Y-90414566D01*
X140694894Y-90469794D01*
X140664940Y-90521696D01*
X140620501Y-90581920D01*
X140558423Y-90651816D01*
X140282612Y-90940205D01*
X140747406Y-90940205D01*
X140747406Y-91055000D01*
X140130021Y-91055000D01*
G37*
G36*
X162158982Y-97208007D02*
G01*
X162154826Y-97268782D01*
X162142967Y-97321809D01*
X162123995Y-97368291D01*
X162097059Y-97410277D01*
X162063439Y-97445063D01*
X162022512Y-97473316D01*
X161976818Y-97493485D01*
X161924723Y-97506045D01*
X161864975Y-97510440D01*
X161402990Y-97510440D01*
X161342336Y-97506010D01*
X161290083Y-97493418D01*
X161244842Y-97473316D01*
X161204338Y-97445105D01*
X161170929Y-97410324D01*
X161144031Y-97368291D01*
X161125025Y-97321805D01*
X161113146Y-97268778D01*
X161108982Y-97208007D01*
X161113233Y-97147272D01*
X161125343Y-97094510D01*
X161144703Y-97048455D01*
X161172015Y-97006872D01*
X161205671Y-96972555D01*
X161246247Y-96944835D01*
X161291428Y-96925100D01*
X161343246Y-96912770D01*
X161402990Y-96908443D01*
X161402990Y-97034411D01*
X161346886Y-97040039D01*
X161303273Y-97055524D01*
X161269328Y-97079901D01*
X161243971Y-97113021D01*
X161228090Y-97154868D01*
X161222372Y-97208007D01*
X161228058Y-97261176D01*
X161243918Y-97303541D01*
X161269328Y-97337517D01*
X161303384Y-97362706D01*
X161347001Y-97378636D01*
X161402990Y-97384411D01*
X161864975Y-97384411D01*
X161921005Y-97378634D01*
X161964640Y-97362704D01*
X161998698Y-97337517D01*
X162024072Y-97303546D01*
X162039914Y-97261181D01*
X162045593Y-97208007D01*
X162039881Y-97154863D01*
X162024019Y-97113016D01*
X161998698Y-97079901D01*
X161964752Y-97055527D01*
X161921120Y-97040040D01*
X161864975Y-97034411D01*
X161864975Y-96908443D01*
X161923814Y-96912735D01*
X161975472Y-96925034D01*
X162021107Y-96944835D01*
X162062106Y-96972596D01*
X162095974Y-97006919D01*
X162123323Y-97048455D01*
X162142648Y-97094507D01*
X162154739Y-97147269D01*
X162158982Y-97208007D01*
G37*
G36*
X162158982Y-96395411D02*
G01*
X162153529Y-96465631D01*
X162138107Y-96525209D01*
X162113555Y-96576005D01*
X162079909Y-96619443D01*
X162037873Y-96654844D01*
X161989012Y-96680422D01*
X161931987Y-96696376D01*
X161864975Y-96701997D01*
X161864975Y-96576028D01*
X161918984Y-96570153D01*
X161962561Y-96553661D01*
X161998026Y-96527058D01*
X162024629Y-96491593D01*
X162041121Y-96448016D01*
X162046997Y-96394006D01*
X162041120Y-96339999D01*
X162024627Y-96296444D01*
X161998026Y-96261016D01*
X161962557Y-96234378D01*
X161918980Y-96217866D01*
X161864975Y-96211984D01*
X161795000Y-96211984D01*
X161740996Y-96217868D01*
X161697441Y-96234380D01*
X161662009Y-96261016D01*
X161635373Y-96296448D01*
X161618861Y-96340003D01*
X161612978Y-96394006D01*
X161612978Y-96504587D01*
X161503801Y-96504587D01*
X161237821Y-96253994D01*
X161237821Y-96673970D01*
X161123026Y-96673970D01*
X161123026Y-96111173D01*
X161240629Y-96111173D01*
X161538789Y-96391198D01*
X161500992Y-96391198D01*
X161506460Y-96320965D01*
X161521907Y-96261528D01*
X161546477Y-96210988D01*
X161580127Y-96167899D01*
X161622091Y-96132816D01*
X161670915Y-96107440D01*
X161727943Y-96091600D01*
X161795000Y-96086016D01*
X161864975Y-96086016D01*
X161931941Y-96091679D01*
X161988948Y-96107757D01*
X162037827Y-96133556D01*
X162079909Y-96169303D01*
X162113519Y-96213051D01*
X162138078Y-96264281D01*
X162153519Y-96324440D01*
X162158982Y-96395411D01*
G37*
G36*
X145965000Y-111334811D02*
G01*
X145530980Y-111535029D01*
X145530980Y-111704411D01*
X145965000Y-111704411D01*
X145965000Y-111829036D01*
X144943026Y-111829036D01*
X144943026Y-111514024D01*
X145056416Y-111514024D01*
X145056416Y-111704411D01*
X145417590Y-111704411D01*
X145417590Y-111514024D01*
X145411746Y-111463880D01*
X145395134Y-111422558D01*
X145367887Y-111388056D01*
X145332170Y-111362084D01*
X145289208Y-111346085D01*
X145236973Y-111340428D01*
X145183851Y-111346134D01*
X145140743Y-111362173D01*
X145105448Y-111388056D01*
X145078597Y-111422508D01*
X145062194Y-111463830D01*
X145056416Y-111514024D01*
X144943026Y-111514024D01*
X144947385Y-111454307D01*
X144959914Y-111401494D01*
X144980151Y-111354472D01*
X145008282Y-111311861D01*
X145042416Y-111276613D01*
X145083039Y-111248043D01*
X145128271Y-111227426D01*
X145179200Y-111214681D01*
X145236973Y-111210247D01*
X145304333Y-111216453D01*
X145363041Y-111234304D01*
X145414781Y-111263431D01*
X145459286Y-111302801D01*
X145493609Y-111349578D01*
X145518401Y-111404847D01*
X145965000Y-111196203D01*
X145965000Y-111334811D01*
G37*
G36*
X145711408Y-110374521D02*
G01*
X145768660Y-110388660D01*
X145820102Y-110411634D01*
X145866604Y-110443280D01*
X145905358Y-110481581D01*
X145937034Y-110527100D01*
X145959928Y-110577642D01*
X145974068Y-110634398D01*
X145978982Y-110698619D01*
X145974165Y-110762886D01*
X145960265Y-110820143D01*
X145937705Y-110871543D01*
X145906457Y-110917982D01*
X145868388Y-110956716D01*
X145822911Y-110988413D01*
X145772383Y-111011389D01*
X145716071Y-111025525D01*
X145652796Y-111030423D01*
X145585687Y-111024290D01*
X145514921Y-111005205D01*
X145444214Y-110976167D01*
X145367215Y-110936573D01*
X144943026Y-110700024D01*
X144943026Y-110560011D01*
X145381198Y-110812009D01*
X145384007Y-110807796D01*
X145363588Y-110785921D01*
X145347615Y-110753207D01*
X145338229Y-110715647D01*
X145337026Y-110700024D01*
X145432978Y-110700024D01*
X145440012Y-110757489D01*
X145460333Y-110806452D01*
X145492904Y-110847397D01*
X145536659Y-110878504D01*
X145588418Y-110897677D01*
X145649987Y-110904394D01*
X145711619Y-110897677D01*
X145763438Y-110878504D01*
X145807142Y-110847402D01*
X145839703Y-110806452D01*
X145859977Y-110757492D01*
X145866997Y-110700024D01*
X145859916Y-110641442D01*
X145839703Y-110592923D01*
X145807189Y-110552474D01*
X145763438Y-110521482D01*
X145711619Y-110502309D01*
X145649987Y-110495592D01*
X145588418Y-110502309D01*
X145536659Y-110521482D01*
X145492858Y-110552478D01*
X145460333Y-110592923D01*
X145440074Y-110641446D01*
X145432978Y-110700024D01*
X145337026Y-110700024D01*
X145334975Y-110673401D01*
X145339651Y-110613837D01*
X145353104Y-110561277D01*
X145374909Y-110514521D01*
X145404849Y-110472517D01*
X145441278Y-110437231D01*
X145484818Y-110408153D01*
X145532834Y-110387123D01*
X145586580Y-110374135D01*
X145647178Y-110369624D01*
X145711408Y-110374521D01*
G37*
G36*
X145698808Y-91248982D02*
G01*
X145625779Y-91243264D01*
X145564200Y-91227133D01*
X145512039Y-91201505D01*
X145467755Y-91166428D01*
X145431889Y-91122693D01*
X145405854Y-91071585D01*
X145389554Y-91011664D01*
X145383796Y-90940992D01*
X145509764Y-90940992D01*
X145515894Y-91001600D01*
X145532794Y-91048900D01*
X145559468Y-91085889D01*
X145595626Y-91113508D01*
X145641158Y-91130784D01*
X145698808Y-91136997D01*
X145756418Y-91130786D01*
X145801931Y-91113511D01*
X145838088Y-91085889D01*
X145864761Y-91048900D01*
X145881662Y-91001600D01*
X145887791Y-90940992D01*
X145887791Y-90213026D01*
X146013760Y-90213026D01*
X146013760Y-90940992D01*
X146007960Y-91011617D01*
X145991534Y-91071522D01*
X145965277Y-91122646D01*
X145929068Y-91166428D01*
X145884450Y-91201589D01*
X145832258Y-91227213D01*
X145771024Y-91243296D01*
X145698808Y-91248982D01*
G37*
G36*
X146280412Y-91235000D02*
G01*
X146280412Y-91118801D01*
X146620581Y-90754818D01*
X146687001Y-90676463D01*
X146725544Y-90614806D01*
X146748973Y-90552708D01*
X146756380Y-90494394D01*
X146750587Y-90440320D01*
X146734314Y-90396520D01*
X146708081Y-90360732D01*
X146673039Y-90333659D01*
X146630177Y-90316960D01*
X146577228Y-90311029D01*
X146522420Y-90317140D01*
X146478168Y-90334322D01*
X146442100Y-90362137D01*
X146415122Y-90398949D01*
X146398368Y-90444120D01*
X146392397Y-90500012D01*
X146266429Y-90500012D01*
X146272609Y-90439478D01*
X146286750Y-90386441D01*
X146308377Y-90339727D01*
X146337921Y-90297791D01*
X146373652Y-90263235D01*
X146416150Y-90235436D01*
X146463187Y-90215620D01*
X146516487Y-90203290D01*
X146577228Y-90198982D01*
X146639828Y-90203334D01*
X146693967Y-90215706D01*
X146740993Y-90235436D01*
X146783534Y-90263211D01*
X146818787Y-90297325D01*
X146847421Y-90338323D01*
X146867971Y-90384056D01*
X146880750Y-90436129D01*
X146885218Y-90495799D01*
X146881084Y-90543508D01*
X146868151Y-90594566D01*
X146845284Y-90649794D01*
X146815330Y-90701696D01*
X146770892Y-90761920D01*
X146708814Y-90831816D01*
X146433002Y-91120205D01*
X146897797Y-91120205D01*
X146897797Y-91235000D01*
X146280412Y-91235000D01*
G37*
X137933333Y-98644819D02*
X137600000Y-98168628D01*
X137361905Y-98644819D02*
X137361905Y-97644819D01*
X137361905Y-97644819D02*
X137742857Y-97644819D01*
X137742857Y-97644819D02*
X137838095Y-97692438D01*
X137838095Y-97692438D02*
X137885714Y-97740057D01*
X137885714Y-97740057D02*
X137933333Y-97835295D01*
X137933333Y-97835295D02*
X137933333Y-97978152D01*
X137933333Y-97978152D02*
X137885714Y-98073390D01*
X137885714Y-98073390D02*
X137838095Y-98121009D01*
X137838095Y-98121009D02*
X137742857Y-98168628D01*
X137742857Y-98168628D02*
X137361905Y-98168628D01*
X138314286Y-97740057D02*
X138361905Y-97692438D01*
X138361905Y-97692438D02*
X138457143Y-97644819D01*
X138457143Y-97644819D02*
X138695238Y-97644819D01*
X138695238Y-97644819D02*
X138790476Y-97692438D01*
X138790476Y-97692438D02*
X138838095Y-97740057D01*
X138838095Y-97740057D02*
X138885714Y-97835295D01*
X138885714Y-97835295D02*
X138885714Y-97930533D01*
X138885714Y-97930533D02*
X138838095Y-98073390D01*
X138838095Y-98073390D02*
X138266667Y-98644819D01*
X138266667Y-98644819D02*
X138885714Y-98644819D01*
G36*
X148367742Y-105481167D02*
G01*
X148438859Y-105486748D01*
X148497518Y-105502346D01*
X148546018Y-105526889D01*
X148586095Y-105560240D01*
X148618240Y-105601835D01*
X148641714Y-105650536D01*
X148656468Y-105707717D01*
X148661688Y-105775174D01*
X148661688Y-106517123D01*
X148535720Y-106517123D01*
X148535720Y-105775174D01*
X148530650Y-105720579D01*
X148516595Y-105677004D01*
X148494443Y-105642123D01*
X148463608Y-105615874D01*
X148422481Y-105599244D01*
X148367742Y-105593152D01*
X148313900Y-105599194D01*
X148272919Y-105615785D01*
X148241713Y-105642123D01*
X148219141Y-105677060D01*
X148204851Y-105720635D01*
X148199703Y-105775174D01*
X148199703Y-106517123D01*
X148073735Y-106517123D01*
X148073735Y-105775174D01*
X148078946Y-105706890D01*
X148093631Y-105649380D01*
X148116905Y-105600757D01*
X148148656Y-105559569D01*
X148188332Y-105526616D01*
X148236753Y-105502273D01*
X148295752Y-105486742D01*
X148367742Y-105481167D01*
G37*
G36*
X147543911Y-105481167D02*
G01*
X147614131Y-105486620D01*
X147673709Y-105502042D01*
X147724505Y-105526594D01*
X147767943Y-105560240D01*
X147803344Y-105602276D01*
X147828922Y-105651137D01*
X147844876Y-105708162D01*
X147850497Y-105775174D01*
X147724528Y-105775174D01*
X147718653Y-105721165D01*
X147702161Y-105677588D01*
X147675558Y-105642123D01*
X147640093Y-105615520D01*
X147596516Y-105599028D01*
X147542506Y-105593152D01*
X147488499Y-105599029D01*
X147444944Y-105615522D01*
X147409516Y-105642123D01*
X147382878Y-105677592D01*
X147366366Y-105721169D01*
X147360484Y-105775174D01*
X147360484Y-105845150D01*
X147366368Y-105899153D01*
X147382880Y-105942708D01*
X147409516Y-105978140D01*
X147444948Y-106004776D01*
X147488503Y-106021288D01*
X147542506Y-106027171D01*
X147653087Y-106027171D01*
X147653087Y-106136348D01*
X147402494Y-106402328D01*
X147822470Y-106402328D01*
X147822470Y-106517123D01*
X147259673Y-106517123D01*
X147259673Y-106399520D01*
X147539698Y-106101360D01*
X147539698Y-106139157D01*
X147469465Y-106133689D01*
X147410028Y-106118242D01*
X147359488Y-106093672D01*
X147316399Y-106060022D01*
X147281316Y-106018058D01*
X147255940Y-105969234D01*
X147240100Y-105912206D01*
X147234516Y-105845150D01*
X147234516Y-105775174D01*
X147240179Y-105708208D01*
X147256257Y-105651201D01*
X147282056Y-105602322D01*
X147317803Y-105560240D01*
X147361551Y-105526630D01*
X147412781Y-105502071D01*
X147472940Y-105486630D01*
X147543911Y-105481167D01*
G37*
G36*
X162088982Y-95428007D02*
G01*
X162084826Y-95488782D01*
X162072967Y-95541809D01*
X162053995Y-95588291D01*
X162027059Y-95630277D01*
X161993439Y-95665063D01*
X161952512Y-95693316D01*
X161906818Y-95713485D01*
X161854723Y-95726045D01*
X161794975Y-95730440D01*
X161332990Y-95730440D01*
X161272336Y-95726010D01*
X161220083Y-95713418D01*
X161174842Y-95693316D01*
X161134338Y-95665105D01*
X161100929Y-95630324D01*
X161074031Y-95588291D01*
X161055025Y-95541805D01*
X161043146Y-95488778D01*
X161038982Y-95428007D01*
X161043233Y-95367272D01*
X161055343Y-95314510D01*
X161074703Y-95268455D01*
X161102015Y-95226872D01*
X161135671Y-95192555D01*
X161176247Y-95164835D01*
X161221428Y-95145100D01*
X161273246Y-95132770D01*
X161332990Y-95128443D01*
X161332990Y-95254411D01*
X161276886Y-95260039D01*
X161233273Y-95275524D01*
X161199328Y-95299901D01*
X161173971Y-95333021D01*
X161158090Y-95374868D01*
X161152372Y-95428007D01*
X161158058Y-95481176D01*
X161173918Y-95523541D01*
X161199328Y-95557517D01*
X161233384Y-95582706D01*
X161277001Y-95598636D01*
X161332990Y-95604411D01*
X161794975Y-95604411D01*
X161851005Y-95598634D01*
X161894640Y-95582704D01*
X161928698Y-95557517D01*
X161954072Y-95523546D01*
X161969914Y-95481181D01*
X161975593Y-95428007D01*
X161969881Y-95374863D01*
X161954019Y-95333016D01*
X161928698Y-95299901D01*
X161894752Y-95275527D01*
X161851120Y-95260040D01*
X161794975Y-95254411D01*
X161794975Y-95128443D01*
X161853814Y-95132735D01*
X161905472Y-95145034D01*
X161951107Y-95164835D01*
X161992106Y-95192596D01*
X162025974Y-95226919D01*
X162053323Y-95268455D01*
X162072648Y-95314507D01*
X162084739Y-95367269D01*
X162088982Y-95428007D01*
G37*
G36*
X162075000Y-94893970D02*
G01*
X161960205Y-94893970D01*
X161960205Y-94616815D01*
X161162203Y-94616815D01*
X161369382Y-94893970D01*
X161225218Y-94893970D01*
X161053026Y-94662977D01*
X161053026Y-94490786D01*
X161960205Y-94490786D01*
X161960205Y-94264006D01*
X162075000Y-94264006D01*
X162075000Y-94893970D01*
G37*
G36*
X154471992Y-105318982D02*
G01*
X154411217Y-105314826D01*
X154358190Y-105302967D01*
X154311708Y-105283995D01*
X154269722Y-105257059D01*
X154234936Y-105223439D01*
X154206683Y-105182512D01*
X154186514Y-105136818D01*
X154173954Y-105084723D01*
X154169559Y-105024975D01*
X154169559Y-104562990D01*
X154173989Y-104502336D01*
X154186581Y-104450083D01*
X154206683Y-104404842D01*
X154234894Y-104364338D01*
X154269675Y-104330929D01*
X154311708Y-104304031D01*
X154358194Y-104285025D01*
X154411221Y-104273146D01*
X154471992Y-104268982D01*
X154532727Y-104273233D01*
X154585489Y-104285343D01*
X154631544Y-104304703D01*
X154673127Y-104332015D01*
X154707444Y-104365671D01*
X154735164Y-104406247D01*
X154754899Y-104451428D01*
X154767229Y-104503246D01*
X154771556Y-104562990D01*
X154645588Y-104562990D01*
X154639960Y-104506886D01*
X154624475Y-104463273D01*
X154600098Y-104429328D01*
X154566978Y-104403971D01*
X154525131Y-104388090D01*
X154471992Y-104382372D01*
X154418823Y-104388058D01*
X154376458Y-104403918D01*
X154342482Y-104429328D01*
X154317293Y-104463384D01*
X154301363Y-104507001D01*
X154295588Y-104562990D01*
X154295588Y-105024975D01*
X154301365Y-105081005D01*
X154317295Y-105124640D01*
X154342482Y-105158698D01*
X154376453Y-105184072D01*
X154418818Y-105199914D01*
X154471992Y-105205593D01*
X154525136Y-105199881D01*
X154566983Y-105184019D01*
X154600098Y-105158698D01*
X154624472Y-105124752D01*
X154639959Y-105081120D01*
X154645588Y-105024975D01*
X154771556Y-105024975D01*
X154767264Y-105083814D01*
X154754965Y-105135472D01*
X154735164Y-105181107D01*
X154707403Y-105222106D01*
X154673080Y-105255974D01*
X154631544Y-105283323D01*
X154585492Y-105302648D01*
X154532730Y-105314739D01*
X154471992Y-105318982D01*
G37*
G36*
X155363774Y-104273842D02*
G01*
X155421215Y-104287795D01*
X155472167Y-104310321D01*
X155518216Y-104341535D01*
X155556737Y-104379598D01*
X155588365Y-104425115D01*
X155611337Y-104475605D01*
X155625475Y-104531914D01*
X155630375Y-104595230D01*
X155624242Y-104662339D01*
X155605157Y-104733105D01*
X155576166Y-104803810D01*
X155536586Y-104880811D01*
X155299975Y-105305000D01*
X155153002Y-105305000D01*
X155405000Y-104866828D01*
X155400787Y-104864019D01*
X155388974Y-104876810D01*
X155370684Y-104889237D01*
X155323789Y-104906700D01*
X155266392Y-104912990D01*
X155208723Y-104908344D01*
X155157547Y-104894936D01*
X155111725Y-104873117D01*
X155070638Y-104843210D01*
X155036006Y-104806790D01*
X155007373Y-104763208D01*
X154986755Y-104715194D01*
X154974006Y-104661423D01*
X154969576Y-104600786D01*
X154969789Y-104597978D01*
X155095605Y-104597978D01*
X155102322Y-104659609D01*
X155121495Y-104711428D01*
X155152597Y-104755133D01*
X155193547Y-104787693D01*
X155242507Y-104807968D01*
X155299975Y-104814987D01*
X155358064Y-104807988D01*
X155406558Y-104787950D01*
X155447681Y-104754781D01*
X155478656Y-104711624D01*
X155497694Y-104660129D01*
X155504407Y-104597978D01*
X155497690Y-104536408D01*
X155478517Y-104484649D01*
X155447521Y-104440848D01*
X155407076Y-104408323D01*
X155358557Y-104388110D01*
X155299975Y-104381029D01*
X155242507Y-104388048D01*
X155193547Y-104408323D01*
X155152602Y-104440894D01*
X155121495Y-104484649D01*
X155102322Y-104536408D01*
X155095605Y-104597978D01*
X154969789Y-104597978D01*
X154974509Y-104535619D01*
X154988681Y-104478182D01*
X155011586Y-104427191D01*
X155043260Y-104381196D01*
X155081789Y-104342667D01*
X155127784Y-104310992D01*
X155178741Y-104287995D01*
X155235290Y-104273869D01*
X155298571Y-104268982D01*
X155363774Y-104273842D01*
G37*
G36*
X145208808Y-113538982D02*
G01*
X145135779Y-113533264D01*
X145074200Y-113517133D01*
X145022039Y-113491505D01*
X144977755Y-113456428D01*
X144941889Y-113412693D01*
X144915854Y-113361585D01*
X144899554Y-113301664D01*
X144893796Y-113230992D01*
X145019764Y-113230992D01*
X145025894Y-113291600D01*
X145042794Y-113338900D01*
X145069468Y-113375889D01*
X145105626Y-113403508D01*
X145151158Y-113420784D01*
X145208808Y-113426997D01*
X145266418Y-113420786D01*
X145311931Y-113403511D01*
X145348088Y-113375889D01*
X145374761Y-113338900D01*
X145391662Y-113291600D01*
X145397791Y-113230992D01*
X145397791Y-112503026D01*
X145523760Y-112503026D01*
X145523760Y-113230992D01*
X145517960Y-113301617D01*
X145501534Y-113361522D01*
X145475277Y-113412646D01*
X145439068Y-113456428D01*
X145394450Y-113491589D01*
X145342258Y-113517213D01*
X145281024Y-113533296D01*
X145208808Y-113538982D01*
G37*
G36*
X146229988Y-113525000D02*
G01*
X146229988Y-113301029D01*
X145768002Y-113301029D01*
X145768002Y-113103620D01*
X146140412Y-112503026D01*
X146283172Y-112503026D01*
X145893971Y-113131585D01*
X145893971Y-113186174D01*
X146229988Y-113186174D01*
X146229988Y-112936985D01*
X146356017Y-112936985D01*
X146356017Y-113525000D01*
X146229988Y-113525000D01*
G37*
G36*
X141520757Y-95018982D02*
G01*
X141449640Y-95013401D01*
X141390981Y-94997803D01*
X141342481Y-94973260D01*
X141302404Y-94939909D01*
X141270259Y-94898314D01*
X141246785Y-94849613D01*
X141232031Y-94792432D01*
X141226811Y-94724975D01*
X141226811Y-93983026D01*
X141352779Y-93983026D01*
X141352779Y-94724975D01*
X141357849Y-94779570D01*
X141371904Y-94823145D01*
X141394056Y-94858026D01*
X141424891Y-94884275D01*
X141466018Y-94900905D01*
X141520757Y-94906997D01*
X141574599Y-94900955D01*
X141615580Y-94884364D01*
X141646786Y-94858026D01*
X141669358Y-94823089D01*
X141683648Y-94779514D01*
X141688796Y-94724975D01*
X141688796Y-93983026D01*
X141814764Y-93983026D01*
X141814764Y-94724975D01*
X141809553Y-94793259D01*
X141794868Y-94850769D01*
X141771594Y-94899392D01*
X141739843Y-94940580D01*
X141700167Y-94973533D01*
X141651746Y-94997876D01*
X141592747Y-95013407D01*
X141520757Y-95018982D01*
G37*
G36*
X142060412Y-95005000D02*
G01*
X142060412Y-94888801D01*
X142400581Y-94524818D01*
X142467001Y-94446463D01*
X142505544Y-94384806D01*
X142528973Y-94322708D01*
X142536380Y-94264394D01*
X142530587Y-94210320D01*
X142514314Y-94166520D01*
X142488081Y-94130732D01*
X142453039Y-94103659D01*
X142410177Y-94086960D01*
X142357228Y-94081029D01*
X142302420Y-94087140D01*
X142258168Y-94104322D01*
X142222100Y-94132137D01*
X142195122Y-94168949D01*
X142178368Y-94214120D01*
X142172397Y-94270012D01*
X142046429Y-94270012D01*
X142052609Y-94209478D01*
X142066750Y-94156441D01*
X142088377Y-94109727D01*
X142117921Y-94067791D01*
X142153652Y-94033235D01*
X142196150Y-94005436D01*
X142243187Y-93985620D01*
X142296487Y-93973290D01*
X142357228Y-93968982D01*
X142419828Y-93973334D01*
X142473967Y-93985706D01*
X142520993Y-94005436D01*
X142563534Y-94033211D01*
X142598787Y-94067325D01*
X142627421Y-94108323D01*
X142647971Y-94154056D01*
X142660750Y-94206129D01*
X142665218Y-94265799D01*
X142661084Y-94313508D01*
X142648151Y-94364566D01*
X142625284Y-94419794D01*
X142595330Y-94471696D01*
X142550892Y-94531920D01*
X142488814Y-94601816D01*
X142213002Y-94890205D01*
X142677797Y-94890205D01*
X142677797Y-95005000D01*
X142060412Y-95005000D01*
G37*
G36*
X150431992Y-94288982D02*
G01*
X150371217Y-94284826D01*
X150318190Y-94272967D01*
X150271708Y-94253995D01*
X150229722Y-94227059D01*
X150194936Y-94193439D01*
X150166683Y-94152512D01*
X150146514Y-94106818D01*
X150133954Y-94054723D01*
X150129559Y-93994975D01*
X150129559Y-93532990D01*
X150133989Y-93472336D01*
X150146581Y-93420083D01*
X150166683Y-93374842D01*
X150194894Y-93334338D01*
X150229675Y-93300929D01*
X150271708Y-93274031D01*
X150318194Y-93255025D01*
X150371221Y-93243146D01*
X150431992Y-93238982D01*
X150492727Y-93243233D01*
X150545489Y-93255343D01*
X150591544Y-93274703D01*
X150633127Y-93302015D01*
X150667444Y-93335671D01*
X150695164Y-93376247D01*
X150714899Y-93421428D01*
X150727229Y-93473246D01*
X150731556Y-93532990D01*
X150605588Y-93532990D01*
X150599960Y-93476886D01*
X150584475Y-93433273D01*
X150560098Y-93399328D01*
X150526978Y-93373971D01*
X150485131Y-93358090D01*
X150431992Y-93352372D01*
X150378823Y-93358058D01*
X150336458Y-93373918D01*
X150302482Y-93399328D01*
X150277293Y-93433384D01*
X150261363Y-93477001D01*
X150255588Y-93532990D01*
X150255588Y-93994975D01*
X150261365Y-94051005D01*
X150277295Y-94094640D01*
X150302482Y-94128698D01*
X150336453Y-94154072D01*
X150378818Y-94169914D01*
X150431992Y-94175593D01*
X150485136Y-94169881D01*
X150526983Y-94154019D01*
X150560098Y-94128698D01*
X150584472Y-94094752D01*
X150599959Y-94051120D01*
X150605588Y-93994975D01*
X150731556Y-93994975D01*
X150727264Y-94053814D01*
X150714965Y-94105472D01*
X150695164Y-94151107D01*
X150667403Y-94192106D01*
X150633080Y-94225974D01*
X150591544Y-94253323D01*
X150545492Y-94272648D01*
X150492730Y-94284739D01*
X150431992Y-94288982D01*
G37*
G36*
X151318926Y-93243034D02*
G01*
X151370832Y-93254644D01*
X151416779Y-93273299D01*
X151458757Y-93299451D01*
X151493523Y-93331063D01*
X151521804Y-93368492D01*
X151542548Y-93410507D01*
X151555225Y-93457062D01*
X151559600Y-93509176D01*
X151554206Y-93561703D01*
X151538393Y-93609158D01*
X151511973Y-93652730D01*
X151476793Y-93689261D01*
X151434764Y-93715920D01*
X151384600Y-93733208D01*
X151384600Y-93737421D01*
X151442680Y-93753891D01*
X151491701Y-93782911D01*
X151532041Y-93822863D01*
X151562409Y-93871816D01*
X151581182Y-93927157D01*
X151587627Y-93989419D01*
X151582850Y-94047026D01*
X151568989Y-94098688D01*
X151546289Y-94145490D01*
X151515320Y-94187266D01*
X151477311Y-94222348D01*
X151431495Y-94251186D01*
X151381191Y-94271740D01*
X151324413Y-94284523D01*
X151259975Y-94288982D01*
X151196482Y-94284556D01*
X151139910Y-94271803D01*
X151089189Y-94251186D01*
X151042941Y-94222311D01*
X151004701Y-94187224D01*
X150973662Y-94145490D01*
X150950997Y-94098692D01*
X150937156Y-94047029D01*
X150932385Y-93989419D01*
X150932676Y-93986610D01*
X151058414Y-93986610D01*
X151064911Y-94040193D01*
X151083533Y-94085025D01*
X151114407Y-94123142D01*
X151154516Y-94151783D01*
X151202327Y-94169387D01*
X151259975Y-94175593D01*
X151317665Y-94169386D01*
X151365495Y-94151780D01*
X151405605Y-94123142D01*
X151436479Y-94085025D01*
X151455101Y-94040193D01*
X151461598Y-93986610D01*
X151455063Y-93932091D01*
X151436405Y-93886846D01*
X151405605Y-93848735D01*
X151365490Y-93820060D01*
X151317661Y-93802436D01*
X151259975Y-93796222D01*
X151202331Y-93802434D01*
X151154521Y-93820058D01*
X151114407Y-93848735D01*
X151083607Y-93886846D01*
X151064949Y-93932091D01*
X151058414Y-93986610D01*
X150932676Y-93986610D01*
X150938830Y-93927157D01*
X150957603Y-93871816D01*
X150987971Y-93822863D01*
X151028311Y-93782911D01*
X151077332Y-93753891D01*
X151135412Y-93737421D01*
X151135412Y-93733208D01*
X151085245Y-93715922D01*
X151043195Y-93689263D01*
X151007978Y-93652730D01*
X150981594Y-93609161D01*
X150965800Y-93561707D01*
X150961276Y-93517602D01*
X151086380Y-93517602D01*
X151092008Y-93564995D01*
X151108102Y-93604530D01*
X151134679Y-93638014D01*
X151169339Y-93663270D01*
X151210495Y-93678737D01*
X151259975Y-93684176D01*
X151310381Y-93678687D01*
X151351705Y-93663178D01*
X151385944Y-93638014D01*
X151412123Y-93604580D01*
X151428009Y-93565043D01*
X151433571Y-93517602D01*
X151428007Y-93470163D01*
X151412121Y-93430649D01*
X151385944Y-93397252D01*
X151351700Y-93372052D01*
X151310376Y-93356524D01*
X151259975Y-93351029D01*
X151210499Y-93356474D01*
X151169343Y-93371960D01*
X151134679Y-93397252D01*
X151108104Y-93430698D01*
X151092010Y-93470212D01*
X151086380Y-93517602D01*
X150961276Y-93517602D01*
X150960412Y-93509176D01*
X150964787Y-93457062D01*
X150977464Y-93410507D01*
X150998208Y-93368492D01*
X151026523Y-93331107D01*
X151061498Y-93299490D01*
X151103904Y-93273299D01*
X151150308Y-93254578D01*
X151202011Y-93243000D01*
X151259975Y-93238982D01*
X151318926Y-93243034D01*
G37*
G36*
X160872803Y-103785000D02*
G01*
X160872803Y-102763026D01*
X160998772Y-102763026D01*
X160998772Y-103670205D01*
X161460757Y-103670205D01*
X161460757Y-103785000D01*
X160872803Y-103785000D01*
G37*
G36*
X161656029Y-103785000D02*
G01*
X161656029Y-103670205D01*
X161933184Y-103670205D01*
X161933184Y-102872203D01*
X161656029Y-103079382D01*
X161656029Y-102935218D01*
X161887022Y-102763026D01*
X162059213Y-102763026D01*
X162059213Y-103670205D01*
X162285993Y-103670205D01*
X162285993Y-103785000D01*
X161656029Y-103785000D01*
G37*
G36*
X139252383Y-96068982D02*
G01*
X139191608Y-96064826D01*
X139138581Y-96052967D01*
X139092099Y-96033995D01*
X139050113Y-96007059D01*
X139015327Y-95973439D01*
X138987074Y-95932512D01*
X138966905Y-95886818D01*
X138954345Y-95834723D01*
X138949950Y-95774975D01*
X138949950Y-95312990D01*
X138954380Y-95252336D01*
X138966972Y-95200083D01*
X138987074Y-95154842D01*
X139015285Y-95114338D01*
X139050066Y-95080929D01*
X139092099Y-95054031D01*
X139138585Y-95035025D01*
X139191612Y-95023146D01*
X139252383Y-95018982D01*
X139313118Y-95023233D01*
X139365880Y-95035343D01*
X139411935Y-95054703D01*
X139453518Y-95082015D01*
X139487835Y-95115671D01*
X139515555Y-95156247D01*
X139535290Y-95201428D01*
X139547620Y-95253246D01*
X139551947Y-95312990D01*
X139425979Y-95312990D01*
X139420351Y-95256886D01*
X139404866Y-95213273D01*
X139380489Y-95179328D01*
X139347369Y-95153971D01*
X139305522Y-95138090D01*
X139252383Y-95132372D01*
X139199214Y-95138058D01*
X139156849Y-95153918D01*
X139122873Y-95179328D01*
X139097684Y-95213384D01*
X139081754Y-95257001D01*
X139075979Y-95312990D01*
X139075979Y-95774975D01*
X139081756Y-95831005D01*
X139097686Y-95874640D01*
X139122873Y-95908698D01*
X139156844Y-95934072D01*
X139199209Y-95949914D01*
X139252383Y-95955593D01*
X139305527Y-95949881D01*
X139347374Y-95934019D01*
X139380489Y-95908698D01*
X139404863Y-95874752D01*
X139420350Y-95831120D01*
X139425979Y-95774975D01*
X139551947Y-95774975D01*
X139547655Y-95833814D01*
X139535356Y-95885472D01*
X139515555Y-95931107D01*
X139487794Y-95972106D01*
X139453471Y-96005974D01*
X139411935Y-96033323D01*
X139365883Y-96052648D01*
X139313121Y-96064739D01*
X139252383Y-96068982D01*
G37*
G36*
X139786420Y-96055000D02*
G01*
X139786420Y-95940205D01*
X140063575Y-95940205D01*
X140063575Y-95142203D01*
X139786420Y-95349382D01*
X139786420Y-95205218D01*
X140017413Y-95033026D01*
X140189604Y-95033026D01*
X140189604Y-95940205D01*
X140416384Y-95940205D01*
X140416384Y-96055000D01*
X139786420Y-96055000D01*
G37*
G36*
X140911220Y-96068982D02*
G01*
X140841000Y-96063529D01*
X140781422Y-96048107D01*
X140730625Y-96023555D01*
X140687188Y-95989909D01*
X140651787Y-95947873D01*
X140626209Y-95899012D01*
X140610255Y-95841987D01*
X140604634Y-95774975D01*
X140730602Y-95774975D01*
X140736478Y-95828984D01*
X140752970Y-95872561D01*
X140779573Y-95908026D01*
X140815038Y-95934629D01*
X140858615Y-95951121D01*
X140912624Y-95956997D01*
X140966591Y-95951121D01*
X141010127Y-95934630D01*
X141045553Y-95908026D01*
X141072192Y-95872557D01*
X141088703Y-95828980D01*
X141094585Y-95774975D01*
X141094585Y-95712021D01*
X141088845Y-95657911D01*
X141072774Y-95614357D01*
X141046958Y-95579031D01*
X141012443Y-95552316D01*
X140970259Y-95535847D01*
X140918181Y-95530000D01*
X140639622Y-95530000D01*
X140639622Y-95033026D01*
X141184222Y-95033026D01*
X141184222Y-95147821D01*
X140757224Y-95147821D01*
X140760033Y-95415205D01*
X140925203Y-95415205D01*
X140995642Y-95420666D01*
X141054173Y-95435968D01*
X141102951Y-95460105D01*
X141143617Y-95492936D01*
X141176131Y-95533874D01*
X141200047Y-95582871D01*
X141215207Y-95641549D01*
X141220614Y-95712021D01*
X141220614Y-95774975D01*
X141214948Y-95841937D01*
X141198859Y-95898943D01*
X141173042Y-95947823D01*
X141137266Y-95989909D01*
X141093518Y-96023522D01*
X141042296Y-96048080D01*
X140982157Y-96063520D01*
X140911220Y-96068982D01*
G37*
G36*
X135139581Y-90847532D02*
G01*
X135196277Y-90860357D01*
X135245654Y-90880823D01*
X135290435Y-90909673D01*
X135327521Y-90944975D01*
X135357639Y-90987252D01*
X135379373Y-91034470D01*
X135392861Y-91088154D01*
X135397573Y-91149612D01*
X135397573Y-91557009D01*
X135392874Y-91618473D01*
X135379396Y-91672417D01*
X135357639Y-91720102D01*
X135327479Y-91762801D01*
X135290388Y-91798315D01*
X135245654Y-91827203D01*
X135196277Y-91847669D01*
X135139581Y-91860493D01*
X135074196Y-91865000D01*
X134809559Y-91865000D01*
X134809559Y-91753014D01*
X134935588Y-91753014D01*
X135074196Y-91753014D01*
X135133711Y-91746733D01*
X135181111Y-91729228D01*
X135219093Y-91701235D01*
X135247487Y-91663607D01*
X135265233Y-91616453D01*
X135271605Y-91557009D01*
X135271605Y-91149612D01*
X135265263Y-91091077D01*
X135247546Y-91044353D01*
X135219093Y-91006791D01*
X135181111Y-90978798D01*
X135133711Y-90961293D01*
X135074196Y-90955012D01*
X134935588Y-90955012D01*
X134935588Y-91753014D01*
X134809559Y-91753014D01*
X134809559Y-90843026D01*
X135074196Y-90843026D01*
X135139581Y-90847532D01*
G37*
G36*
X135646029Y-91865000D02*
G01*
X135646029Y-91750205D01*
X135923184Y-91750205D01*
X135923184Y-90952203D01*
X135646029Y-91159382D01*
X135646029Y-91015218D01*
X135877022Y-90843026D01*
X136049213Y-90843026D01*
X136049213Y-91750205D01*
X136275993Y-91750205D01*
X136275993Y-91865000D01*
X135646029Y-91865000D01*
G37*
G36*
X151750757Y-102848982D02*
G01*
X151679640Y-102843401D01*
X151620981Y-102827803D01*
X151572481Y-102803260D01*
X151532404Y-102769909D01*
X151500259Y-102728314D01*
X151476785Y-102679613D01*
X151462031Y-102622432D01*
X151456811Y-102554975D01*
X151456811Y-101813026D01*
X151582779Y-101813026D01*
X151582779Y-102554975D01*
X151587849Y-102609570D01*
X151601904Y-102653145D01*
X151624056Y-102688026D01*
X151654891Y-102714275D01*
X151696018Y-102730905D01*
X151750757Y-102736997D01*
X151804599Y-102730955D01*
X151845580Y-102714364D01*
X151876786Y-102688026D01*
X151899358Y-102653089D01*
X151913648Y-102609514D01*
X151918796Y-102554975D01*
X151918796Y-101813026D01*
X152044764Y-101813026D01*
X152044764Y-102554975D01*
X152039553Y-102623259D01*
X152024868Y-102680769D01*
X152001594Y-102729392D01*
X151969843Y-102770580D01*
X151930167Y-102803533D01*
X151881746Y-102827876D01*
X151822747Y-102843407D01*
X151750757Y-102848982D01*
G37*
G36*
X152296029Y-102835000D02*
G01*
X152296029Y-102720205D01*
X152573184Y-102720205D01*
X152573184Y-101922203D01*
X152296029Y-102129382D01*
X152296029Y-101985218D01*
X152527022Y-101813026D01*
X152699213Y-101813026D01*
X152699213Y-102720205D01*
X152925993Y-102720205D01*
X152925993Y-102835000D01*
X152296029Y-102835000D01*
G37*
G36*
X145457803Y-92735000D02*
G01*
X145457803Y-92352821D01*
X145149752Y-91713026D01*
X145284208Y-91713026D01*
X145482960Y-92133002D01*
X145509522Y-92192536D01*
X145522161Y-92228196D01*
X145535473Y-92192536D01*
X145562767Y-92133002D01*
X145761581Y-91713026D01*
X145891762Y-91713026D01*
X145583772Y-92352821D01*
X145583772Y-92735000D01*
X145457803Y-92735000D01*
G37*
G36*
X146066029Y-92735000D02*
G01*
X146066029Y-92620205D01*
X146343184Y-92620205D01*
X146343184Y-91822203D01*
X146066029Y-92029382D01*
X146066029Y-91885218D01*
X146297022Y-91713026D01*
X146469213Y-91713026D01*
X146469213Y-92620205D01*
X146695993Y-92620205D01*
X146695993Y-92735000D01*
X146066029Y-92735000D01*
G37*
G36*
X139772383Y-105738982D02*
G01*
X139711608Y-105734826D01*
X139658581Y-105722967D01*
X139612099Y-105703995D01*
X139570113Y-105677059D01*
X139535327Y-105643439D01*
X139507074Y-105602512D01*
X139486905Y-105556818D01*
X139474345Y-105504723D01*
X139469950Y-105444975D01*
X139469950Y-104982990D01*
X139474380Y-104922336D01*
X139486972Y-104870083D01*
X139507074Y-104824842D01*
X139535285Y-104784338D01*
X139570066Y-104750929D01*
X139612099Y-104724031D01*
X139658585Y-104705025D01*
X139711612Y-104693146D01*
X139772383Y-104688982D01*
X139833118Y-104693233D01*
X139885880Y-104705343D01*
X139931935Y-104724703D01*
X139973518Y-104752015D01*
X140007835Y-104785671D01*
X140035555Y-104826247D01*
X140055290Y-104871428D01*
X140067620Y-104923246D01*
X140071947Y-104982990D01*
X139945979Y-104982990D01*
X139940351Y-104926886D01*
X139924866Y-104883273D01*
X139900489Y-104849328D01*
X139867369Y-104823971D01*
X139825522Y-104808090D01*
X139772383Y-104802372D01*
X139719214Y-104808058D01*
X139676849Y-104823918D01*
X139642873Y-104849328D01*
X139617684Y-104883384D01*
X139601754Y-104927001D01*
X139595979Y-104982990D01*
X139595979Y-105444975D01*
X139601756Y-105501005D01*
X139617686Y-105544640D01*
X139642873Y-105578698D01*
X139676844Y-105604072D01*
X139719209Y-105619914D01*
X139772383Y-105625593D01*
X139825527Y-105619881D01*
X139867374Y-105604019D01*
X139900489Y-105578698D01*
X139924863Y-105544752D01*
X139940350Y-105501120D01*
X139945979Y-105444975D01*
X140071947Y-105444975D01*
X140067655Y-105503814D01*
X140055356Y-105555472D01*
X140035555Y-105601107D01*
X140007794Y-105642106D01*
X139973471Y-105675974D01*
X139931935Y-105703323D01*
X139885883Y-105722648D01*
X139833121Y-105734739D01*
X139772383Y-105738982D01*
G37*
G36*
X140306420Y-105725000D02*
G01*
X140306420Y-105610205D01*
X140583575Y-105610205D01*
X140583575Y-104812203D01*
X140306420Y-105019382D01*
X140306420Y-104875218D01*
X140537413Y-104703026D01*
X140709604Y-104703026D01*
X140709604Y-105610205D01*
X140936384Y-105610205D01*
X140936384Y-105725000D01*
X140306420Y-105725000D01*
G37*
G36*
X141424198Y-105738982D02*
G01*
X141353978Y-105733529D01*
X141294400Y-105718107D01*
X141243603Y-105693555D01*
X141200166Y-105659909D01*
X141164765Y-105617873D01*
X141139187Y-105569012D01*
X141123233Y-105511987D01*
X141117612Y-105444975D01*
X141243580Y-105444975D01*
X141249456Y-105498984D01*
X141265948Y-105542561D01*
X141292551Y-105578026D01*
X141328016Y-105604629D01*
X141371593Y-105621121D01*
X141425602Y-105626997D01*
X141479610Y-105621120D01*
X141523165Y-105604627D01*
X141558592Y-105578026D01*
X141585231Y-105542557D01*
X141601742Y-105498980D01*
X141607624Y-105444975D01*
X141607624Y-105375000D01*
X141601741Y-105320996D01*
X141585229Y-105277441D01*
X141558592Y-105242009D01*
X141523160Y-105215373D01*
X141479605Y-105198861D01*
X141425602Y-105192978D01*
X141315021Y-105192978D01*
X141315021Y-105083801D01*
X141565614Y-104817821D01*
X141145639Y-104817821D01*
X141145639Y-104703026D01*
X141708435Y-104703026D01*
X141708435Y-104820629D01*
X141428411Y-105118789D01*
X141428411Y-105080992D01*
X141498643Y-105086460D01*
X141558081Y-105101907D01*
X141608620Y-105126477D01*
X141651710Y-105160127D01*
X141686793Y-105202091D01*
X141712168Y-105250915D01*
X141728008Y-105307943D01*
X141733592Y-105375000D01*
X141733592Y-105444975D01*
X141727930Y-105511941D01*
X141711851Y-105568948D01*
X141686052Y-105617827D01*
X141650305Y-105659909D01*
X141606558Y-105693519D01*
X141555327Y-105718078D01*
X141495168Y-105733519D01*
X141424198Y-105738982D01*
G37*
G36*
X137795692Y-95917385D02*
G01*
X137848505Y-95929914D01*
X137895527Y-95950151D01*
X137938138Y-95978282D01*
X137973386Y-96012416D01*
X138001956Y-96053039D01*
X138022573Y-96098271D01*
X138035318Y-96149200D01*
X138039752Y-96206973D01*
X138033546Y-96274333D01*
X138015695Y-96333041D01*
X137986568Y-96384781D01*
X137947198Y-96429286D01*
X137900421Y-96463609D01*
X137845152Y-96488401D01*
X138053796Y-96935000D01*
X137915188Y-96935000D01*
X137714970Y-96500980D01*
X137545588Y-96500980D01*
X137545588Y-96935000D01*
X137420963Y-96935000D01*
X137420963Y-96387590D01*
X137545588Y-96387590D01*
X137735975Y-96387590D01*
X137786119Y-96381746D01*
X137827441Y-96365134D01*
X137861943Y-96337887D01*
X137887915Y-96302170D01*
X137903914Y-96259208D01*
X137909571Y-96206973D01*
X137903865Y-96153851D01*
X137887826Y-96110743D01*
X137861943Y-96075448D01*
X137827491Y-96048597D01*
X137786169Y-96032194D01*
X137735975Y-96026416D01*
X137545588Y-96026416D01*
X137545588Y-96387590D01*
X137420963Y-96387590D01*
X137420963Y-95913026D01*
X137735975Y-95913026D01*
X137795692Y-95917385D01*
G37*
G36*
X138256029Y-96935000D02*
G01*
X138256029Y-96820205D01*
X138533184Y-96820205D01*
X138533184Y-96022203D01*
X138256029Y-96229382D01*
X138256029Y-96085218D01*
X138487022Y-95913026D01*
X138659213Y-95913026D01*
X138659213Y-96820205D01*
X138885993Y-96820205D01*
X138885993Y-96935000D01*
X138256029Y-96935000D01*
G37*
G36*
X149112383Y-100138982D02*
G01*
X149051608Y-100134826D01*
X148998581Y-100122967D01*
X148952099Y-100103995D01*
X148910113Y-100077059D01*
X148875327Y-100043439D01*
X148847074Y-100002512D01*
X148826905Y-99956818D01*
X148814345Y-99904723D01*
X148809950Y-99844975D01*
X148809950Y-99382990D01*
X148814380Y-99322336D01*
X148826972Y-99270083D01*
X148847074Y-99224842D01*
X148875285Y-99184338D01*
X148910066Y-99150929D01*
X148952099Y-99124031D01*
X148998585Y-99105025D01*
X149051612Y-99093146D01*
X149112383Y-99088982D01*
X149173118Y-99093233D01*
X149225880Y-99105343D01*
X149271935Y-99124703D01*
X149313518Y-99152015D01*
X149347835Y-99185671D01*
X149375555Y-99226247D01*
X149395290Y-99271428D01*
X149407620Y-99323246D01*
X149411947Y-99382990D01*
X149285979Y-99382990D01*
X149280351Y-99326886D01*
X149264866Y-99283273D01*
X149240489Y-99249328D01*
X149207369Y-99223971D01*
X149165522Y-99208090D01*
X149112383Y-99202372D01*
X149059214Y-99208058D01*
X149016849Y-99223918D01*
X148982873Y-99249328D01*
X148957684Y-99283384D01*
X148941754Y-99327001D01*
X148935979Y-99382990D01*
X148935979Y-99844975D01*
X148941756Y-99901005D01*
X148957686Y-99944640D01*
X148982873Y-99978698D01*
X149016844Y-100004072D01*
X149059209Y-100019914D01*
X149112383Y-100025593D01*
X149165527Y-100019881D01*
X149207374Y-100004019D01*
X149240489Y-99978698D01*
X149264863Y-99944752D01*
X149280350Y-99901120D01*
X149285979Y-99844975D01*
X149411947Y-99844975D01*
X149407655Y-99903814D01*
X149395356Y-99955472D01*
X149375555Y-100001107D01*
X149347794Y-100042106D01*
X149313471Y-100075974D01*
X149271935Y-100103323D01*
X149225883Y-100122648D01*
X149173121Y-100134739D01*
X149112383Y-100138982D01*
G37*
G36*
X149646420Y-100125000D02*
G01*
X149646420Y-100010205D01*
X149923575Y-100010205D01*
X149923575Y-99212203D01*
X149646420Y-99419382D01*
X149646420Y-99275218D01*
X149877413Y-99103026D01*
X150049604Y-99103026D01*
X150049604Y-100010205D01*
X150276384Y-100010205D01*
X150276384Y-100125000D01*
X149646420Y-100125000D01*
G37*
G36*
X150625590Y-100125000D02*
G01*
X150989634Y-99217821D01*
X150600433Y-99217821D01*
X150600433Y-99382990D01*
X150474403Y-99382990D01*
X150474403Y-99103026D01*
X151124028Y-99103026D01*
X151124028Y-99220629D01*
X150762793Y-100125000D01*
X150625590Y-100125000D01*
G37*
G36*
X134488473Y-95997125D02*
G01*
X134542417Y-96010603D01*
X134590102Y-96032360D01*
X134632801Y-96062520D01*
X134668315Y-96099611D01*
X134697203Y-96144345D01*
X134717669Y-96193722D01*
X134730493Y-96250418D01*
X134735000Y-96315803D01*
X134735000Y-96580440D01*
X133713026Y-96580440D01*
X133713026Y-96315803D01*
X133825012Y-96315803D01*
X133825012Y-96454411D01*
X134623014Y-96454411D01*
X134623014Y-96315803D01*
X134616733Y-96256288D01*
X134599228Y-96208888D01*
X134571235Y-96170906D01*
X134533607Y-96142512D01*
X134486453Y-96124766D01*
X134427009Y-96118394D01*
X134019612Y-96118394D01*
X133961077Y-96124736D01*
X133914353Y-96142453D01*
X133876791Y-96170906D01*
X133848798Y-96208888D01*
X133831293Y-96256288D01*
X133825012Y-96315803D01*
X133713026Y-96315803D01*
X133717532Y-96250418D01*
X133730357Y-96193722D01*
X133750823Y-96144345D01*
X133779673Y-96099564D01*
X133814975Y-96062478D01*
X133857252Y-96032360D01*
X133904470Y-96010626D01*
X133958154Y-95997138D01*
X134019612Y-95992426D01*
X134427009Y-95992426D01*
X134488473Y-95997125D01*
G37*
G36*
X134735000Y-95749587D02*
G01*
X134618801Y-95749587D01*
X134254818Y-95409418D01*
X134176463Y-95342998D01*
X134114806Y-95304455D01*
X134052708Y-95281026D01*
X133994394Y-95273619D01*
X133940320Y-95279412D01*
X133896520Y-95295685D01*
X133860732Y-95321918D01*
X133833659Y-95356960D01*
X133816960Y-95399822D01*
X133811029Y-95452771D01*
X133817140Y-95507579D01*
X133834322Y-95551831D01*
X133862137Y-95587899D01*
X133898949Y-95614877D01*
X133944120Y-95631631D01*
X134000012Y-95637602D01*
X134000012Y-95763570D01*
X133939478Y-95757390D01*
X133886441Y-95743249D01*
X133839727Y-95721622D01*
X133797791Y-95692078D01*
X133763235Y-95656347D01*
X133735436Y-95613849D01*
X133715620Y-95566812D01*
X133703290Y-95513512D01*
X133698982Y-95452771D01*
X133703334Y-95390171D01*
X133715706Y-95336032D01*
X133735436Y-95289006D01*
X133763211Y-95246465D01*
X133797325Y-95211212D01*
X133838323Y-95182578D01*
X133884056Y-95162028D01*
X133936129Y-95149249D01*
X133995799Y-95144781D01*
X134043508Y-95148915D01*
X134094566Y-95161848D01*
X134149794Y-95184715D01*
X134201696Y-95214669D01*
X134261920Y-95259107D01*
X134331816Y-95321185D01*
X134620205Y-95596997D01*
X134620205Y-95132202D01*
X134735000Y-95132202D01*
X134735000Y-95749587D01*
G37*
G36*
X150935000Y-111314811D02*
G01*
X150500980Y-111515029D01*
X150500980Y-111684411D01*
X150935000Y-111684411D01*
X150935000Y-111809036D01*
X149913026Y-111809036D01*
X149913026Y-111494024D01*
X150026416Y-111494024D01*
X150026416Y-111684411D01*
X150387590Y-111684411D01*
X150387590Y-111494024D01*
X150381746Y-111443880D01*
X150365134Y-111402558D01*
X150337887Y-111368056D01*
X150302170Y-111342084D01*
X150259208Y-111326085D01*
X150206973Y-111320428D01*
X150153851Y-111326134D01*
X150110743Y-111342173D01*
X150075448Y-111368056D01*
X150048597Y-111402508D01*
X150032194Y-111443830D01*
X150026416Y-111494024D01*
X149913026Y-111494024D01*
X149917385Y-111434307D01*
X149929914Y-111381494D01*
X149950151Y-111334472D01*
X149978282Y-111291861D01*
X150012416Y-111256613D01*
X150053039Y-111228043D01*
X150098271Y-111207426D01*
X150149200Y-111194681D01*
X150206973Y-111190247D01*
X150274333Y-111196453D01*
X150333041Y-111214304D01*
X150384781Y-111243431D01*
X150429286Y-111282801D01*
X150463609Y-111329578D01*
X150488401Y-111384847D01*
X150935000Y-111176203D01*
X150935000Y-111314811D01*
G37*
G36*
X150935000Y-110834019D02*
G01*
X150027821Y-110469975D01*
X150027821Y-110859176D01*
X150192990Y-110859176D01*
X150192990Y-110985205D01*
X149913026Y-110985205D01*
X149913026Y-110335580D01*
X150030629Y-110335580D01*
X150935000Y-110696815D01*
X150935000Y-110834019D01*
G37*
G36*
X146762383Y-111878982D02*
G01*
X146701608Y-111874826D01*
X146648581Y-111862967D01*
X146602099Y-111843995D01*
X146560113Y-111817059D01*
X146525327Y-111783439D01*
X146497074Y-111742512D01*
X146476905Y-111696818D01*
X146464345Y-111644723D01*
X146459950Y-111584975D01*
X146459950Y-111122990D01*
X146464380Y-111062336D01*
X146476972Y-111010083D01*
X146497074Y-110964842D01*
X146525285Y-110924338D01*
X146560066Y-110890929D01*
X146602099Y-110864031D01*
X146648585Y-110845025D01*
X146701612Y-110833146D01*
X146762383Y-110828982D01*
X146823118Y-110833233D01*
X146875880Y-110845343D01*
X146921935Y-110864703D01*
X146963518Y-110892015D01*
X146997835Y-110925671D01*
X147025555Y-110966247D01*
X147045290Y-111011428D01*
X147057620Y-111063246D01*
X147061947Y-111122990D01*
X146935979Y-111122990D01*
X146930351Y-111066886D01*
X146914866Y-111023273D01*
X146890489Y-110989328D01*
X146857369Y-110963971D01*
X146815522Y-110948090D01*
X146762383Y-110942372D01*
X146709214Y-110948058D01*
X146666849Y-110963918D01*
X146632873Y-110989328D01*
X146607684Y-111023384D01*
X146591754Y-111067001D01*
X146585979Y-111122990D01*
X146585979Y-111584975D01*
X146591756Y-111641005D01*
X146607686Y-111684640D01*
X146632873Y-111718698D01*
X146666844Y-111744072D01*
X146709209Y-111759914D01*
X146762383Y-111765593D01*
X146815527Y-111759881D01*
X146857374Y-111744019D01*
X146890489Y-111718698D01*
X146914863Y-111684752D01*
X146930350Y-111641120D01*
X146935979Y-111584975D01*
X147061947Y-111584975D01*
X147057655Y-111643814D01*
X147045356Y-111695472D01*
X147025555Y-111741107D01*
X146997794Y-111782106D01*
X146963471Y-111815974D01*
X146921935Y-111843323D01*
X146875883Y-111862648D01*
X146823121Y-111874739D01*
X146762383Y-111878982D01*
G37*
G36*
X147296420Y-111865000D02*
G01*
X147296420Y-111750205D01*
X147573575Y-111750205D01*
X147573575Y-110952203D01*
X147296420Y-111159382D01*
X147296420Y-111015218D01*
X147527413Y-110843026D01*
X147699604Y-110843026D01*
X147699604Y-111750205D01*
X147926384Y-111750205D01*
X147926384Y-111865000D01*
X147296420Y-111865000D01*
G37*
G36*
X148569597Y-111865000D02*
G01*
X148569597Y-111641029D01*
X148107612Y-111641029D01*
X148107612Y-111443620D01*
X148480021Y-110843026D01*
X148622781Y-110843026D01*
X148233580Y-111471585D01*
X148233580Y-111526174D01*
X148569597Y-111526174D01*
X148569597Y-111276985D01*
X148695626Y-111276985D01*
X148695626Y-111865000D01*
X148569597Y-111865000D01*
G37*
G36*
X147042383Y-113588982D02*
G01*
X146981608Y-113584826D01*
X146928581Y-113572967D01*
X146882099Y-113553995D01*
X146840113Y-113527059D01*
X146805327Y-113493439D01*
X146777074Y-113452512D01*
X146756905Y-113406818D01*
X146744345Y-113354723D01*
X146739950Y-113294975D01*
X146739950Y-112832990D01*
X146744380Y-112772336D01*
X146756972Y-112720083D01*
X146777074Y-112674842D01*
X146805285Y-112634338D01*
X146840066Y-112600929D01*
X146882099Y-112574031D01*
X146928585Y-112555025D01*
X146981612Y-112543146D01*
X147042383Y-112538982D01*
X147103118Y-112543233D01*
X147155880Y-112555343D01*
X147201935Y-112574703D01*
X147243518Y-112602015D01*
X147277835Y-112635671D01*
X147305555Y-112676247D01*
X147325290Y-112721428D01*
X147337620Y-112773246D01*
X147341947Y-112832990D01*
X147215979Y-112832990D01*
X147210351Y-112776886D01*
X147194866Y-112733273D01*
X147170489Y-112699328D01*
X147137369Y-112673971D01*
X147095522Y-112658090D01*
X147042383Y-112652372D01*
X146989214Y-112658058D01*
X146946849Y-112673918D01*
X146912873Y-112699328D01*
X146887684Y-112733384D01*
X146871754Y-112777001D01*
X146865979Y-112832990D01*
X146865979Y-113294975D01*
X146871756Y-113351005D01*
X146887686Y-113394640D01*
X146912873Y-113428698D01*
X146946844Y-113454072D01*
X146989209Y-113469914D01*
X147042383Y-113475593D01*
X147095527Y-113469881D01*
X147137374Y-113454019D01*
X147170489Y-113428698D01*
X147194863Y-113394752D01*
X147210350Y-113351120D01*
X147215979Y-113294975D01*
X147341947Y-113294975D01*
X147337655Y-113353814D01*
X147325356Y-113405472D01*
X147305555Y-113451107D01*
X147277794Y-113492106D01*
X147243471Y-113525974D01*
X147201935Y-113553323D01*
X147155883Y-113572648D01*
X147103121Y-113584739D01*
X147042383Y-113588982D01*
G37*
G36*
X147570803Y-113575000D02*
G01*
X147570803Y-113458801D01*
X147910972Y-113094818D01*
X147977392Y-113016463D01*
X148015935Y-112954806D01*
X148039364Y-112892708D01*
X148046771Y-112834394D01*
X148040978Y-112780320D01*
X148024705Y-112736520D01*
X147998472Y-112700732D01*
X147963430Y-112673659D01*
X147920568Y-112656960D01*
X147867619Y-112651029D01*
X147812811Y-112657140D01*
X147768559Y-112674322D01*
X147732491Y-112702137D01*
X147705513Y-112738949D01*
X147688759Y-112784120D01*
X147682788Y-112840012D01*
X147556820Y-112840012D01*
X147563000Y-112779478D01*
X147577141Y-112726441D01*
X147598768Y-112679727D01*
X147628312Y-112637791D01*
X147664043Y-112603235D01*
X147706541Y-112575436D01*
X147753578Y-112555620D01*
X147806878Y-112543290D01*
X147867619Y-112538982D01*
X147930219Y-112543334D01*
X147984358Y-112555706D01*
X148031384Y-112575436D01*
X148073925Y-112603211D01*
X148109178Y-112637325D01*
X148137812Y-112678323D01*
X148158362Y-112724056D01*
X148171141Y-112776129D01*
X148175609Y-112835799D01*
X148171475Y-112883508D01*
X148158542Y-112934566D01*
X148135675Y-112989794D01*
X148105721Y-113041696D01*
X148061283Y-113101920D01*
X147999205Y-113171816D01*
X147723393Y-113460205D01*
X148188188Y-113460205D01*
X148188188Y-113575000D01*
X147570803Y-113575000D01*
G37*
G36*
X148694198Y-113588982D02*
G01*
X148623978Y-113583529D01*
X148564400Y-113568107D01*
X148513603Y-113543555D01*
X148470166Y-113509909D01*
X148434765Y-113467873D01*
X148409187Y-113419012D01*
X148393233Y-113361987D01*
X148387612Y-113294975D01*
X148513580Y-113294975D01*
X148519456Y-113348984D01*
X148535948Y-113392561D01*
X148562551Y-113428026D01*
X148598016Y-113454629D01*
X148641593Y-113471121D01*
X148695602Y-113476997D01*
X148749610Y-113471120D01*
X148793165Y-113454627D01*
X148828592Y-113428026D01*
X148855231Y-113392557D01*
X148871742Y-113348980D01*
X148877624Y-113294975D01*
X148877624Y-113225000D01*
X148871741Y-113170996D01*
X148855229Y-113127441D01*
X148828592Y-113092009D01*
X148793160Y-113065373D01*
X148749605Y-113048861D01*
X148695602Y-113042978D01*
X148585021Y-113042978D01*
X148585021Y-112933801D01*
X148835614Y-112667821D01*
X148415639Y-112667821D01*
X148415639Y-112553026D01*
X148978435Y-112553026D01*
X148978435Y-112670629D01*
X148698411Y-112968789D01*
X148698411Y-112930992D01*
X148768643Y-112936460D01*
X148828081Y-112951907D01*
X148878620Y-112976477D01*
X148921710Y-113010127D01*
X148956793Y-113052091D01*
X148982168Y-113100915D01*
X148998008Y-113157943D01*
X149003592Y-113225000D01*
X149003592Y-113294975D01*
X148997930Y-113361941D01*
X148981851Y-113418948D01*
X148956052Y-113467827D01*
X148920305Y-113509909D01*
X148876558Y-113543519D01*
X148825327Y-113568078D01*
X148765168Y-113583519D01*
X148694198Y-113588982D01*
G37*
G36*
X148465000Y-99034420D02*
G01*
X148030980Y-99234638D01*
X148030980Y-99404020D01*
X148465000Y-99404020D01*
X148465000Y-99528645D01*
X147443026Y-99528645D01*
X147443026Y-99213633D01*
X147556416Y-99213633D01*
X147556416Y-99404020D01*
X147917590Y-99404020D01*
X147917590Y-99213633D01*
X147911746Y-99163489D01*
X147895134Y-99122167D01*
X147867887Y-99087665D01*
X147832170Y-99061693D01*
X147789208Y-99045694D01*
X147736973Y-99040037D01*
X147683851Y-99045743D01*
X147640743Y-99061782D01*
X147605448Y-99087665D01*
X147578597Y-99122117D01*
X147562194Y-99163439D01*
X147556416Y-99213633D01*
X147443026Y-99213633D01*
X147447385Y-99153916D01*
X147459914Y-99101103D01*
X147480151Y-99054081D01*
X147508282Y-99011470D01*
X147542416Y-98976222D01*
X147583039Y-98947652D01*
X147628271Y-98927035D01*
X147679200Y-98914290D01*
X147736973Y-98909856D01*
X147804333Y-98916062D01*
X147863041Y-98933913D01*
X147914781Y-98963040D01*
X147959286Y-99002410D01*
X147993609Y-99049187D01*
X148018401Y-99104456D01*
X148465000Y-98895812D01*
X148465000Y-99034420D01*
G37*
G36*
X148465000Y-98693579D02*
G01*
X148350205Y-98693579D01*
X148350205Y-98416424D01*
X147552203Y-98416424D01*
X147759382Y-98693579D01*
X147615218Y-98693579D01*
X147443026Y-98462586D01*
X147443026Y-98290395D01*
X148350205Y-98290395D01*
X148350205Y-98063615D01*
X148465000Y-98063615D01*
X148465000Y-98693579D01*
G37*
G36*
X148478982Y-97575801D02*
G01*
X148473529Y-97646021D01*
X148458107Y-97705599D01*
X148433555Y-97756396D01*
X148399909Y-97799833D01*
X148357873Y-97835234D01*
X148309012Y-97860812D01*
X148251987Y-97876766D01*
X148184975Y-97882387D01*
X148184975Y-97756419D01*
X148238984Y-97750543D01*
X148282561Y-97734051D01*
X148318026Y-97707448D01*
X148344629Y-97671983D01*
X148361121Y-97628406D01*
X148366997Y-97574397D01*
X148361120Y-97520389D01*
X148344627Y-97476834D01*
X148318026Y-97441407D01*
X148282557Y-97414768D01*
X148238980Y-97398257D01*
X148184975Y-97392375D01*
X148115000Y-97392375D01*
X148060996Y-97398258D01*
X148017441Y-97414770D01*
X147982009Y-97441407D01*
X147955373Y-97476839D01*
X147938861Y-97520394D01*
X147932978Y-97574397D01*
X147932978Y-97684978D01*
X147823801Y-97684978D01*
X147557821Y-97434385D01*
X147557821Y-97854360D01*
X147443026Y-97854360D01*
X147443026Y-97291564D01*
X147560629Y-97291564D01*
X147858789Y-97571588D01*
X147820992Y-97571588D01*
X147826460Y-97501356D01*
X147841907Y-97441918D01*
X147866477Y-97391379D01*
X147900127Y-97348289D01*
X147942091Y-97313206D01*
X147990915Y-97287831D01*
X148047943Y-97271991D01*
X148115000Y-97266407D01*
X148184975Y-97266407D01*
X148251941Y-97272069D01*
X148308948Y-97288148D01*
X148357827Y-97313947D01*
X148399909Y-97349694D01*
X148433519Y-97393441D01*
X148458078Y-97444672D01*
X148473519Y-97504831D01*
X148478982Y-97575801D01*
G37*
G36*
X137312383Y-102228982D02*
G01*
X137251608Y-102224826D01*
X137198581Y-102212967D01*
X137152099Y-102193995D01*
X137110113Y-102167059D01*
X137075327Y-102133439D01*
X137047074Y-102092512D01*
X137026905Y-102046818D01*
X137014345Y-101994723D01*
X137009950Y-101934975D01*
X137009950Y-101472990D01*
X137014380Y-101412336D01*
X137026972Y-101360083D01*
X137047074Y-101314842D01*
X137075285Y-101274338D01*
X137110066Y-101240929D01*
X137152099Y-101214031D01*
X137198585Y-101195025D01*
X137251612Y-101183146D01*
X137312383Y-101178982D01*
X137373118Y-101183233D01*
X137425880Y-101195343D01*
X137471935Y-101214703D01*
X137513518Y-101242015D01*
X137547835Y-101275671D01*
X137575555Y-101316247D01*
X137595290Y-101361428D01*
X137607620Y-101413246D01*
X137611947Y-101472990D01*
X137485979Y-101472990D01*
X137480351Y-101416886D01*
X137464866Y-101373273D01*
X137440489Y-101339328D01*
X137407369Y-101313971D01*
X137365522Y-101298090D01*
X137312383Y-101292372D01*
X137259214Y-101298058D01*
X137216849Y-101313918D01*
X137182873Y-101339328D01*
X137157684Y-101373384D01*
X137141754Y-101417001D01*
X137135979Y-101472990D01*
X137135979Y-101934975D01*
X137141756Y-101991005D01*
X137157686Y-102034640D01*
X137182873Y-102068698D01*
X137216844Y-102094072D01*
X137259209Y-102109914D01*
X137312383Y-102115593D01*
X137365527Y-102109881D01*
X137407374Y-102094019D01*
X137440489Y-102068698D01*
X137464863Y-102034752D01*
X137480350Y-101991120D01*
X137485979Y-101934975D01*
X137611947Y-101934975D01*
X137607655Y-101993814D01*
X137595356Y-102045472D01*
X137575555Y-102091107D01*
X137547794Y-102132106D01*
X137513471Y-102165974D01*
X137471935Y-102193323D01*
X137425883Y-102212648D01*
X137373121Y-102224739D01*
X137312383Y-102228982D01*
G37*
G36*
X137840803Y-102215000D02*
G01*
X137840803Y-102098801D01*
X138180972Y-101734818D01*
X138247392Y-101656463D01*
X138285935Y-101594806D01*
X138309364Y-101532708D01*
X138316771Y-101474394D01*
X138310978Y-101420320D01*
X138294705Y-101376520D01*
X138268472Y-101340732D01*
X138233430Y-101313659D01*
X138190568Y-101296960D01*
X138137619Y-101291029D01*
X138082811Y-101297140D01*
X138038559Y-101314322D01*
X138002491Y-101342137D01*
X137975513Y-101378949D01*
X137958759Y-101424120D01*
X137952788Y-101480012D01*
X137826820Y-101480012D01*
X137833000Y-101419478D01*
X137847141Y-101366441D01*
X137868768Y-101319727D01*
X137898312Y-101277791D01*
X137934043Y-101243235D01*
X137976541Y-101215436D01*
X138023578Y-101195620D01*
X138076878Y-101183290D01*
X138137619Y-101178982D01*
X138200219Y-101183334D01*
X138254358Y-101195706D01*
X138301384Y-101215436D01*
X138343925Y-101243211D01*
X138379178Y-101277325D01*
X138407812Y-101318323D01*
X138428362Y-101364056D01*
X138441141Y-101416129D01*
X138445609Y-101475799D01*
X138441475Y-101523508D01*
X138428542Y-101574566D01*
X138405675Y-101629794D01*
X138375721Y-101681696D01*
X138331283Y-101741920D01*
X138269205Y-101811816D01*
X137993393Y-102100205D01*
X138458188Y-102100205D01*
X138458188Y-102215000D01*
X137840803Y-102215000D01*
G37*
G36*
X138685639Y-102215000D02*
G01*
X138685639Y-102100205D01*
X138962793Y-102100205D01*
X138962793Y-101302203D01*
X138685639Y-101509382D01*
X138685639Y-101365218D01*
X138916631Y-101193026D01*
X139088823Y-101193026D01*
X139088823Y-102100205D01*
X139315602Y-102100205D01*
X139315602Y-102215000D01*
X138685639Y-102215000D01*
G37*
G36*
X147135000Y-94904420D02*
G01*
X146700980Y-95104638D01*
X146700980Y-95274020D01*
X147135000Y-95274020D01*
X147135000Y-95398645D01*
X146113026Y-95398645D01*
X146113026Y-95083633D01*
X146226416Y-95083633D01*
X146226416Y-95274020D01*
X146587590Y-95274020D01*
X146587590Y-95083633D01*
X146581746Y-95033489D01*
X146565134Y-94992167D01*
X146537887Y-94957665D01*
X146502170Y-94931693D01*
X146459208Y-94915694D01*
X146406973Y-94910037D01*
X146353851Y-94915743D01*
X146310743Y-94931782D01*
X146275448Y-94957665D01*
X146248597Y-94992117D01*
X146232194Y-95033439D01*
X146226416Y-95083633D01*
X146113026Y-95083633D01*
X146117385Y-95023916D01*
X146129914Y-94971103D01*
X146150151Y-94924081D01*
X146178282Y-94881470D01*
X146212416Y-94846222D01*
X146253039Y-94817652D01*
X146298271Y-94797035D01*
X146349200Y-94784290D01*
X146406973Y-94779856D01*
X146474333Y-94786062D01*
X146533041Y-94803913D01*
X146584781Y-94833040D01*
X146629286Y-94872410D01*
X146663609Y-94919187D01*
X146688401Y-94974456D01*
X147135000Y-94765812D01*
X147135000Y-94904420D01*
G37*
G36*
X147135000Y-94563579D02*
G01*
X147020205Y-94563579D01*
X147020205Y-94286424D01*
X146222203Y-94286424D01*
X146429382Y-94563579D01*
X146285218Y-94563579D01*
X146113026Y-94332586D01*
X146113026Y-94160395D01*
X147020205Y-94160395D01*
X147020205Y-93933615D01*
X147135000Y-93933615D01*
X147135000Y-94563579D01*
G37*
G36*
X147148982Y-93438779D02*
G01*
X147143529Y-93508999D01*
X147128107Y-93568577D01*
X147103555Y-93619374D01*
X147069909Y-93662811D01*
X147027873Y-93698212D01*
X146979012Y-93723790D01*
X146921987Y-93739744D01*
X146854975Y-93745365D01*
X146854975Y-93619397D01*
X146908984Y-93613521D01*
X146952561Y-93597029D01*
X146988026Y-93570426D01*
X147014629Y-93534961D01*
X147031121Y-93491384D01*
X147036997Y-93437375D01*
X147031121Y-93383408D01*
X147014630Y-93339872D01*
X146988026Y-93304446D01*
X146952557Y-93277807D01*
X146908980Y-93261296D01*
X146854975Y-93255414D01*
X146792021Y-93255414D01*
X146737911Y-93261154D01*
X146694357Y-93277225D01*
X146659031Y-93303041D01*
X146632316Y-93337556D01*
X146615847Y-93379740D01*
X146610000Y-93431818D01*
X146610000Y-93710377D01*
X146113026Y-93710377D01*
X146113026Y-93165777D01*
X146227821Y-93165777D01*
X146227821Y-93592775D01*
X146495205Y-93589966D01*
X146495205Y-93424796D01*
X146500666Y-93354357D01*
X146515968Y-93295826D01*
X146540105Y-93247048D01*
X146572936Y-93206382D01*
X146613874Y-93173868D01*
X146662871Y-93149952D01*
X146721549Y-93134792D01*
X146792021Y-93129385D01*
X146854975Y-93129385D01*
X146921937Y-93135051D01*
X146978943Y-93151140D01*
X147027823Y-93176957D01*
X147069909Y-93212733D01*
X147103522Y-93256481D01*
X147128080Y-93307703D01*
X147143520Y-93367842D01*
X147148982Y-93438779D01*
G37*
G36*
X151865692Y-103147385D02*
G01*
X151918505Y-103159914D01*
X151965527Y-103180151D01*
X152008138Y-103208282D01*
X152043386Y-103242416D01*
X152071956Y-103283039D01*
X152092573Y-103328271D01*
X152105318Y-103379200D01*
X152109752Y-103436973D01*
X152103546Y-103504333D01*
X152085695Y-103563041D01*
X152056568Y-103614781D01*
X152017198Y-103659286D01*
X151970421Y-103693609D01*
X151915152Y-103718401D01*
X152123796Y-104165000D01*
X151985188Y-104165000D01*
X151784970Y-103730980D01*
X151615588Y-103730980D01*
X151615588Y-104165000D01*
X151490963Y-104165000D01*
X151490963Y-103617590D01*
X151615588Y-103617590D01*
X151805975Y-103617590D01*
X151856119Y-103611746D01*
X151897441Y-103595134D01*
X151931943Y-103567887D01*
X151957915Y-103532170D01*
X151973914Y-103489208D01*
X151979571Y-103436973D01*
X151973865Y-103383851D01*
X151957826Y-103340743D01*
X151931943Y-103305448D01*
X151897491Y-103278597D01*
X151856169Y-103262194D01*
X151805975Y-103256416D01*
X151615588Y-103256416D01*
X151615588Y-103617590D01*
X151490963Y-103617590D01*
X151490963Y-103143026D01*
X151805975Y-103143026D01*
X151865692Y-103147385D01*
G37*
G36*
X152683774Y-103133842D02*
G01*
X152741215Y-103147795D01*
X152792167Y-103170321D01*
X152838216Y-103201535D01*
X152876737Y-103239598D01*
X152908365Y-103285115D01*
X152931337Y-103335605D01*
X152945475Y-103391914D01*
X152950375Y-103455230D01*
X152944242Y-103522339D01*
X152925157Y-103593105D01*
X152896166Y-103663810D01*
X152856586Y-103740811D01*
X152619975Y-104165000D01*
X152473002Y-104165000D01*
X152725000Y-103726828D01*
X152720787Y-103724019D01*
X152708974Y-103736810D01*
X152690684Y-103749237D01*
X152643789Y-103766700D01*
X152586392Y-103772990D01*
X152528723Y-103768344D01*
X152477547Y-103754936D01*
X152431725Y-103733117D01*
X152390638Y-103703210D01*
X152356006Y-103666790D01*
X152327373Y-103623208D01*
X152306755Y-103575194D01*
X152294006Y-103521423D01*
X152289576Y-103460786D01*
X152289789Y-103457978D01*
X152415605Y-103457978D01*
X152422322Y-103519609D01*
X152441495Y-103571428D01*
X152472597Y-103615133D01*
X152513547Y-103647693D01*
X152562507Y-103667968D01*
X152619975Y-103674987D01*
X152678064Y-103667988D01*
X152726558Y-103647950D01*
X152767681Y-103614781D01*
X152798656Y-103571624D01*
X152817694Y-103520129D01*
X152824407Y-103457978D01*
X152817690Y-103396408D01*
X152798517Y-103344649D01*
X152767521Y-103300848D01*
X152727076Y-103268323D01*
X152678557Y-103248110D01*
X152619975Y-103241029D01*
X152562507Y-103248048D01*
X152513547Y-103268323D01*
X152472602Y-103300894D01*
X152441495Y-103344649D01*
X152422322Y-103396408D01*
X152415605Y-103457978D01*
X152289789Y-103457978D01*
X152294509Y-103395619D01*
X152308681Y-103338182D01*
X152331586Y-103287191D01*
X152363260Y-103241196D01*
X152401789Y-103202667D01*
X152447784Y-103170992D01*
X152498741Y-103147995D01*
X152555290Y-103133869D01*
X152618571Y-103128982D01*
X152683774Y-103133842D01*
G37*
G36*
X158328982Y-98268007D02*
G01*
X158324826Y-98328782D01*
X158312967Y-98381809D01*
X158293995Y-98428291D01*
X158267059Y-98470277D01*
X158233439Y-98505063D01*
X158192512Y-98533316D01*
X158146818Y-98553485D01*
X158094723Y-98566045D01*
X158034975Y-98570440D01*
X157572990Y-98570440D01*
X157512336Y-98566010D01*
X157460083Y-98553418D01*
X157414842Y-98533316D01*
X157374338Y-98505105D01*
X157340929Y-98470324D01*
X157314031Y-98428291D01*
X157295025Y-98381805D01*
X157283146Y-98328778D01*
X157278982Y-98268007D01*
X157283233Y-98207272D01*
X157295343Y-98154510D01*
X157314703Y-98108455D01*
X157342015Y-98066872D01*
X157375671Y-98032555D01*
X157416247Y-98004835D01*
X157461428Y-97985100D01*
X157513246Y-97972770D01*
X157572990Y-97968443D01*
X157572990Y-98094411D01*
X157516886Y-98100039D01*
X157473273Y-98115524D01*
X157439328Y-98139901D01*
X157413971Y-98173021D01*
X157398090Y-98214868D01*
X157392372Y-98268007D01*
X157398058Y-98321176D01*
X157413918Y-98363541D01*
X157439328Y-98397517D01*
X157473384Y-98422706D01*
X157517001Y-98438636D01*
X157572990Y-98444411D01*
X158034975Y-98444411D01*
X158091005Y-98438634D01*
X158134640Y-98422704D01*
X158168698Y-98397517D01*
X158194072Y-98363546D01*
X158209914Y-98321181D01*
X158215593Y-98268007D01*
X158209881Y-98214863D01*
X158194019Y-98173016D01*
X158168698Y-98139901D01*
X158134752Y-98115527D01*
X158091120Y-98100040D01*
X158034975Y-98094411D01*
X158034975Y-97968443D01*
X158093814Y-97972735D01*
X158145472Y-97985034D01*
X158191107Y-98004835D01*
X158232106Y-98032596D01*
X158265974Y-98066919D01*
X158293323Y-98108455D01*
X158312648Y-98154507D01*
X158324739Y-98207269D01*
X158328982Y-98268007D01*
G37*
G36*
X158315000Y-97300011D02*
G01*
X158091029Y-97300011D01*
X158091029Y-97761997D01*
X157893620Y-97761997D01*
X157293026Y-97389587D01*
X157293026Y-97246827D01*
X157921585Y-97636028D01*
X157976174Y-97636028D01*
X157976174Y-97300011D01*
X157726985Y-97300011D01*
X157726985Y-97173982D01*
X158315000Y-97173982D01*
X158315000Y-97300011D01*
G37*
D11*
%TO.C,C10*%
X157900000Y-102974420D02*
X157900000Y-103255580D01*
X156880000Y-102974420D02*
X156880000Y-103255580D01*
%TO.C,C22*%
X140227836Y-103840000D02*
X140012164Y-103840000D01*
X140227836Y-104560000D02*
X140012164Y-104560000D01*
%TO.C,R5*%
X134870000Y-102356359D02*
X134870000Y-102663641D01*
X135630000Y-102356359D02*
X135630000Y-102663641D01*
%TO.C,R3*%
X137946359Y-100500000D02*
X138253641Y-100500000D01*
X137946359Y-101260000D02*
X138253641Y-101260000D01*
%TO.C,C16*%
X138267836Y-103280000D02*
X138052164Y-103280000D01*
X138267836Y-104000000D02*
X138052164Y-104000000D01*
%TO.C,R4*%
X139983641Y-92120000D02*
X139676359Y-92120000D01*
X139983641Y-92880000D02*
X139676359Y-92880000D01*
%TO.C,R11*%
X134880000Y-104573641D02*
X134880000Y-104266359D01*
X135640000Y-104573641D02*
X135640000Y-104266359D01*
%TO.C,C6*%
X136307836Y-99300000D02*
X136092164Y-99300000D01*
X136307836Y-100020000D02*
X136092164Y-100020000D01*
%TO.C,C19*%
X138237836Y-97020000D02*
X138022164Y-97020000D01*
X138237836Y-97740000D02*
X138022164Y-97740000D01*
%TO.C,C5*%
X136307836Y-98320000D02*
X136092164Y-98320000D01*
X136307836Y-99040000D02*
X136092164Y-99040000D01*
%TO.C,C18*%
X148232164Y-102350000D02*
X148447836Y-102350000D01*
X148232164Y-103070000D02*
X148447836Y-103070000D01*
%TO.C,C2*%
X159309420Y-93100000D02*
X159590580Y-93100000D01*
X159309420Y-94120000D02*
X159590580Y-94120000D01*
%TO.C,C7*%
X136317836Y-100280000D02*
X136102164Y-100280000D01*
X136317836Y-101000000D02*
X136102164Y-101000000D01*
%TO.C,J6*%
X151890000Y-108810000D02*
X151890000Y-110810000D01*
X151890000Y-112710000D02*
X151890000Y-114610000D01*
X151890000Y-114610000D02*
X161290000Y-114610000D01*
X161290000Y-108810000D02*
X161290000Y-110810000D01*
X161290000Y-112710000D02*
X161290000Y-114610000D01*
%TO.C,R8*%
X148517258Y-108537500D02*
X148042742Y-108537500D01*
X148517258Y-109582500D02*
X148042742Y-109582500D01*
%TO.C,C20*%
X142190000Y-104332164D02*
X142190000Y-104547836D01*
X142910000Y-104332164D02*
X142910000Y-104547836D01*
%TO.C,R14*%
X137072742Y-93787500D02*
X137547258Y-93787500D01*
X137072742Y-94832500D02*
X137547258Y-94832500D01*
%TO.C,D3*%
X134175000Y-96685000D02*
X134175000Y-98155000D01*
X134175000Y-98155000D02*
X136460000Y-98155000D01*
X136460000Y-96685000D02*
X134175000Y-96685000D01*
%TO.C,R10*%
X135890000Y-104266359D02*
X135890000Y-104573641D01*
X136650000Y-104266359D02*
X136650000Y-104573641D01*
%TO.C,C24*%
X143370000Y-104332164D02*
X143370000Y-104547836D01*
X144090000Y-104332164D02*
X144090000Y-104547836D01*
%TO.C,R12*%
X137132742Y-90717500D02*
X137607258Y-90717500D01*
X137132742Y-91762500D02*
X137607258Y-91762500D01*
%TO.C,C11*%
X145200000Y-94002164D02*
X145200000Y-94217836D01*
X145920000Y-94002164D02*
X145920000Y-94217836D01*
%TO.C,C12*%
X139722164Y-91120000D02*
X139937836Y-91120000D01*
X139722164Y-91840000D02*
X139937836Y-91840000D01*
%TO.C,C3*%
X159550580Y-96120000D02*
X159269420Y-96120000D01*
X159550580Y-97140000D02*
X159269420Y-97140000D01*
%TO.C,R6*%
X144960000Y-109403641D02*
X144960000Y-109096359D01*
X145720000Y-109403641D02*
X145720000Y-109096359D01*
%TO.C,R2*%
X137936359Y-99470000D02*
X138243641Y-99470000D01*
X137936359Y-100230000D02*
X138243641Y-100230000D01*
D12*
%TO.C,U3*%
X145776800Y-103738450D02*
X145776800Y-104224860D01*
X145776800Y-107595440D02*
X145776800Y-108081850D01*
X145776800Y-108081850D02*
X150120200Y-108081850D01*
X150120200Y-103738450D02*
X145776800Y-103738450D01*
X150120200Y-104224860D02*
X150120200Y-103738450D01*
X150120200Y-108081850D02*
X150120200Y-107595440D01*
X151250500Y-107110300D02*
G75*
G02*
X151047300Y-107110300I-101600J0D01*
G01*
X151047300Y-107110300D02*
G75*
G02*
X151250500Y-107110300I101600J0D01*
G01*
D11*
%TO.C,C1*%
X159289420Y-94610000D02*
X159570580Y-94610000D01*
X159289420Y-95630000D02*
X159570580Y-95630000D01*
%TO.C,C9*%
X154739420Y-103110000D02*
X155020580Y-103110000D01*
X154739420Y-104130000D02*
X155020580Y-104130000D01*
%TO.C,J4*%
X134840000Y-108810000D02*
X134840000Y-110810000D01*
X134840000Y-112710000D02*
X134840000Y-114610000D01*
X134840000Y-114610000D02*
X144240000Y-114610000D01*
X144240000Y-108810000D02*
X144240000Y-110810000D01*
X144240000Y-112710000D02*
X144240000Y-114610000D01*
%TO.C,U2*%
X139620000Y-95719700D02*
X139620000Y-96369700D01*
X139620000Y-102939700D02*
X139620000Y-102289700D01*
X140270000Y-95719700D02*
X139620000Y-95719700D01*
X140270000Y-102939700D02*
X139620000Y-102939700D01*
X146190000Y-95719700D02*
X146840000Y-95719700D01*
X146190000Y-102939700D02*
X146540000Y-102939700D01*
X146840000Y-95719700D02*
X146840000Y-96369700D01*
X146840000Y-102289700D02*
X146840000Y-102699700D01*
X147080000Y-103269700D02*
X146600000Y-103269700D01*
X146840000Y-102939700D01*
X147080000Y-103269700D01*
G36*
X147080000Y-103269700D02*
G01*
X146600000Y-103269700D01*
X146840000Y-102939700D01*
X147080000Y-103269700D01*
G37*
%TO.C,C8*%
X149710000Y-96210580D02*
X149710000Y-95929420D01*
X150730000Y-96210580D02*
X150730000Y-95929420D01*
%TO.C,L1*%
X158420000Y-102340000D02*
X158420000Y-99140000D01*
X162020000Y-102340000D02*
X162020000Y-99140000D01*
%TO.C,C15*%
X140187836Y-94120000D02*
X139972164Y-94120000D01*
X140187836Y-94840000D02*
X139972164Y-94840000D01*
%TO.C,D1*%
X135825000Y-92035000D02*
X135825000Y-93505000D01*
X135825000Y-93505000D02*
X138110000Y-93505000D01*
X138110000Y-92035000D02*
X135825000Y-92035000D01*
D12*
%TO.C,U1*%
X151650000Y-94297063D02*
X151650000Y-94769630D01*
X151650000Y-101190496D02*
X151650000Y-101663063D01*
X151650000Y-101663063D02*
X152119519Y-101663063D01*
X152119519Y-94297063D02*
X151650000Y-94297063D01*
X156539881Y-101663063D02*
X157009400Y-101663063D01*
X157009400Y-94297063D02*
X156539881Y-94297063D01*
X157009400Y-94769630D02*
X157009400Y-94297063D01*
X157009400Y-101663063D02*
X157009400Y-101190496D01*
D13*
G36*
X151319800Y-99921004D02*
G01*
X151065800Y-99921004D01*
X151065800Y-99540004D01*
X151319800Y-99540004D01*
X151319800Y-99921004D01*
G37*
G36*
X152769759Y-93966863D02*
G01*
X152388759Y-93966863D01*
X152388759Y-93712863D01*
X152769759Y-93712863D01*
X152769759Y-93966863D01*
G37*
G36*
X156270641Y-102247263D02*
G01*
X155889641Y-102247263D01*
X155889641Y-101993263D01*
X156270641Y-101993263D01*
X156270641Y-102247263D01*
G37*
G36*
X157593600Y-96420122D02*
G01*
X157339600Y-96420122D01*
X157339600Y-96039122D01*
X157593600Y-96039122D01*
X157593600Y-96420122D01*
G37*
D11*
%TO.C,Y1*%
X144880000Y-90660000D02*
X140880000Y-90660000D01*
X144880000Y-93960000D02*
X144880000Y-90660000D01*
%TO.C,C13*%
X141190000Y-104322164D02*
X141190000Y-104537836D01*
X141910000Y-104322164D02*
X141910000Y-104537836D01*
%TO.C,R1*%
X137946359Y-98470000D02*
X138253641Y-98470000D01*
X137946359Y-99230000D02*
X138253641Y-99230000D01*
%TO.C,C17*%
X149321664Y-98120000D02*
X149537336Y-98120000D01*
X149321664Y-98840000D02*
X149537336Y-98840000D01*
%TO.C,D2*%
X134265000Y-92065000D02*
X134265000Y-94350000D01*
X135735000Y-92065000D02*
X134265000Y-92065000D01*
X135735000Y-94350000D02*
X135735000Y-92065000D01*
%TO.C,R7*%
X148676359Y-109930000D02*
X148983641Y-109930000D01*
X148676359Y-110690000D02*
X148983641Y-110690000D01*
%TO.C,C14*%
X145910000Y-109122164D02*
X145910000Y-109337836D01*
X146630000Y-109122164D02*
X146630000Y-109337836D01*
%TO.C,C23*%
X138217836Y-95270000D02*
X138002164Y-95270000D01*
X138217836Y-95990000D02*
X138002164Y-95990000D01*
%TO.C,R13*%
X147627500Y-95657258D02*
X147627500Y-95182742D01*
X148672500Y-95657258D02*
X148672500Y-95182742D01*
%TO.C,C21*%
X138247836Y-102300000D02*
X138032164Y-102300000D01*
X138247836Y-103020000D02*
X138032164Y-103020000D01*
%TO.C,R15*%
X135422742Y-95367500D02*
X135897258Y-95367500D01*
X135422742Y-96412500D02*
X135897258Y-96412500D01*
%TO.C,R9*%
X152353641Y-104530000D02*
X152046359Y-104530000D01*
X152353641Y-105290000D02*
X152046359Y-105290000D01*
%TO.C,C4*%
X159092164Y-97490000D02*
X159307836Y-97490000D01*
X159092164Y-98210000D02*
X159307836Y-98210000D01*
%TD*%
%LPC*%
D14*
%TO.C,C10*%
X157390000Y-103890000D03*
X157390000Y-102340000D03*
%TD*%
D15*
%TO.C,C22*%
X140600000Y-104200000D03*
X139640000Y-104200000D03*
%TD*%
D16*
%TO.C,R5*%
X135250000Y-102000000D03*
X135250000Y-103020000D03*
%TD*%
D17*
%TO.C,R3*%
X137590000Y-100880000D03*
X138610000Y-100880000D03*
%TD*%
D15*
%TO.C,C16*%
X138640000Y-103640000D03*
X137680000Y-103640000D03*
%TD*%
D18*
%TO.C,R4*%
X140340000Y-92500000D03*
X139320000Y-92500000D03*
%TD*%
D19*
%TO.C,R11*%
X135260000Y-104930000D03*
X135260000Y-103910000D03*
%TD*%
D15*
%TO.C,C6*%
X136680000Y-99660000D03*
X135720000Y-99660000D03*
%TD*%
%TO.C,C19*%
X138610000Y-97380000D03*
X137650000Y-97380000D03*
%TD*%
%TO.C,C5*%
X136680000Y-98680000D03*
X135720000Y-98680000D03*
%TD*%
D20*
%TO.C,C18*%
X147860000Y-102710000D03*
X148820000Y-102710000D03*
%TD*%
D21*
%TO.C,C2*%
X158675000Y-93610000D03*
X160225000Y-93610000D03*
%TD*%
D15*
%TO.C,C7*%
X136690000Y-100640000D03*
X135730000Y-100640000D03*
%TD*%
D22*
%TO.C,J6*%
X153700000Y-108110000D03*
X159480000Y-108110000D03*
D23*
X153340000Y-106665000D03*
X154140000Y-106665000D03*
D24*
X155340000Y-106665000D03*
X156340000Y-106665000D03*
X156840000Y-106665000D03*
X157840000Y-106665000D03*
D23*
X159040000Y-106665000D03*
X159840000Y-106665000D03*
X159840000Y-106665000D03*
X159040000Y-106665000D03*
D24*
X158340000Y-106665000D03*
X157340000Y-106665000D03*
X155840000Y-106665000D03*
X154840000Y-106665000D03*
D23*
X154140000Y-106665000D03*
X153340000Y-106665000D03*
D25*
X152270000Y-107580000D03*
D26*
X152270000Y-111760000D03*
D25*
X160910000Y-107580000D03*
D26*
X160910000Y-111760000D03*
%TD*%
D27*
%TO.C,R8*%
X149105000Y-109060000D03*
X147455000Y-109060000D03*
%TD*%
D28*
%TO.C,C20*%
X142550000Y-103960000D03*
X142550000Y-104920000D03*
%TD*%
D29*
%TO.C,R14*%
X136485000Y-94310000D03*
X138135000Y-94310000D03*
%TD*%
D30*
%TO.C,D3*%
X134872500Y-97420000D03*
X136447500Y-97420000D03*
%TD*%
D16*
%TO.C,R10*%
X136270000Y-103910000D03*
X136270000Y-104930000D03*
%TD*%
D28*
%TO.C,C24*%
X143730000Y-103960000D03*
X143730000Y-104920000D03*
%TD*%
D29*
%TO.C,R12*%
X136545000Y-91240000D03*
X138195000Y-91240000D03*
%TD*%
D28*
%TO.C,C11*%
X145560000Y-93630000D03*
X145560000Y-94590000D03*
%TD*%
D20*
%TO.C,C12*%
X139350000Y-91480000D03*
X140310000Y-91480000D03*
%TD*%
D31*
%TO.C,C3*%
X160185000Y-96630000D03*
X158635000Y-96630000D03*
%TD*%
D19*
%TO.C,R6*%
X145340000Y-109760000D03*
X145340000Y-108740000D03*
%TD*%
D32*
%TO.C,J2*%
X160170000Y-90302000D03*
X154670000Y-90302000D03*
X149170000Y-90302000D03*
%TD*%
D17*
%TO.C,R2*%
X137580000Y-99850000D03*
X138600000Y-99850000D03*
%TD*%
D33*
%TO.C,U3*%
X149917000Y-107110300D03*
X149917000Y-106310200D03*
X149917000Y-105510100D03*
X149917000Y-104710000D03*
D34*
X147948500Y-105910150D03*
D33*
X145980000Y-104710000D03*
X145980000Y-105510100D03*
X145980000Y-106310200D03*
X145980000Y-107110300D03*
%TD*%
D21*
%TO.C,C1*%
X158655000Y-95120000D03*
X160205000Y-95120000D03*
%TD*%
%TO.C,C9*%
X154105000Y-103620000D03*
X155655000Y-103620000D03*
%TD*%
D22*
%TO.C,J4*%
X136650000Y-108110000D03*
X142430000Y-108110000D03*
D23*
X136290000Y-106665000D03*
X137090000Y-106665000D03*
D24*
X138290000Y-106665000D03*
X139290000Y-106665000D03*
X139790000Y-106665000D03*
X140790000Y-106665000D03*
D23*
X141990000Y-106665000D03*
X142790000Y-106665000D03*
X142790000Y-106665000D03*
X141990000Y-106665000D03*
D24*
X141290000Y-106665000D03*
X140290000Y-106665000D03*
X138790000Y-106665000D03*
X137790000Y-106665000D03*
D23*
X137090000Y-106665000D03*
X136290000Y-106665000D03*
D25*
X135220000Y-107580000D03*
D26*
X135220000Y-111760000D03*
D25*
X143860000Y-107580000D03*
D26*
X143860000Y-111760000D03*
%TD*%
D35*
%TO.C,U2*%
X146667500Y-101929700D03*
X146667500Y-101529700D03*
X146667500Y-101129700D03*
X146667500Y-100729700D03*
X146667500Y-100329700D03*
X146667500Y-99929700D03*
X146667500Y-99529700D03*
X146667500Y-99129700D03*
X146667500Y-98729700D03*
X146667500Y-98329700D03*
X146667500Y-97929700D03*
X146667500Y-97529700D03*
X146667500Y-97129700D03*
X146667500Y-96729700D03*
D36*
X145830000Y-95892200D03*
X145430000Y-95892200D03*
X145030000Y-95892200D03*
X144630000Y-95892200D03*
X144230000Y-95892200D03*
X143830000Y-95892200D03*
X143430000Y-95892200D03*
X143030000Y-95892200D03*
X142630000Y-95892200D03*
X142230000Y-95892200D03*
X141830000Y-95892200D03*
X141430000Y-95892200D03*
X141030000Y-95892200D03*
X140630000Y-95892200D03*
D35*
X139792500Y-96729700D03*
X139792500Y-97129700D03*
X139792500Y-97529700D03*
X139792500Y-97929700D03*
X139792500Y-98329700D03*
X139792500Y-98729700D03*
X139792500Y-99129700D03*
X139792500Y-99529700D03*
X139792500Y-99929700D03*
X139792500Y-100329700D03*
X139792500Y-100729700D03*
X139792500Y-101129700D03*
X139792500Y-101529700D03*
X139792500Y-101929700D03*
D36*
X140630000Y-102767200D03*
X141030000Y-102767200D03*
X141430000Y-102767200D03*
X141830000Y-102767200D03*
X142230000Y-102767200D03*
X142630000Y-102767200D03*
X143030000Y-102767200D03*
X143430000Y-102767200D03*
X143830000Y-102767200D03*
X144230000Y-102767200D03*
X144630000Y-102767200D03*
X145030000Y-102767200D03*
X145430000Y-102767200D03*
X145830000Y-102767200D03*
D37*
X143230000Y-99329700D03*
%TD*%
D38*
%TO.C,C8*%
X150220000Y-96845000D03*
X150220000Y-95295000D03*
%TD*%
D39*
%TO.C,L1*%
X160220000Y-99540000D03*
X160220000Y-101940000D03*
%TD*%
D15*
%TO.C,C15*%
X140560000Y-94480000D03*
X139600000Y-94480000D03*
%TD*%
D30*
%TO.C,D1*%
X136522500Y-92770000D03*
X138097500Y-92770000D03*
%TD*%
D40*
%TO.C,U1*%
X156730000Y-100730756D03*
X156730000Y-100230630D03*
X156730000Y-99730504D03*
X156730000Y-99230378D03*
X156730000Y-98730252D03*
X156730000Y-98230126D03*
X156730000Y-97730000D03*
X156730000Y-97229874D03*
X156730000Y-96729748D03*
X156730000Y-96229622D03*
X156730000Y-95729496D03*
X156730000Y-95229370D03*
D41*
X156080141Y-94576463D03*
X155580015Y-94576463D03*
X155079889Y-94576463D03*
X154579763Y-94576463D03*
X154079637Y-94576463D03*
X153579511Y-94576463D03*
X153079385Y-94576463D03*
X152579259Y-94576463D03*
D40*
X151929400Y-95229370D03*
X151929400Y-95729496D03*
X151929400Y-96229622D03*
X151929400Y-96729748D03*
X151929400Y-97229874D03*
X151929400Y-97730000D03*
X151929400Y-98230126D03*
X151929400Y-98730252D03*
X151929400Y-99230378D03*
X151929400Y-99730504D03*
X151929400Y-100230630D03*
X151929400Y-100730756D03*
D41*
X152579259Y-101383663D03*
X153079385Y-101383663D03*
X153579511Y-101383663D03*
X154079637Y-101383663D03*
X154579763Y-101383663D03*
X155079889Y-101383663D03*
X155580015Y-101383663D03*
X156080141Y-101383663D03*
D42*
X154329700Y-97980063D03*
%TD*%
D43*
%TO.C,Y1*%
X143980000Y-91460000D03*
X141780000Y-91460000D03*
X141780000Y-93160000D03*
X143980000Y-93160000D03*
%TD*%
D28*
%TO.C,C13*%
X141550000Y-103950000D03*
X141550000Y-104910000D03*
%TD*%
D17*
%TO.C,R1*%
X137590000Y-98850000D03*
X138610000Y-98850000D03*
%TD*%
D20*
%TO.C,C17*%
X148949500Y-98480000D03*
X149909500Y-98480000D03*
%TD*%
D44*
%TO.C,D2*%
X135000000Y-92762500D03*
X135000000Y-94337500D03*
%TD*%
D17*
%TO.C,R7*%
X148320000Y-110310000D03*
X149340000Y-110310000D03*
%TD*%
D28*
%TO.C,C14*%
X146270000Y-108750000D03*
X146270000Y-109710000D03*
%TD*%
D15*
%TO.C,C23*%
X138590000Y-95630000D03*
X137630000Y-95630000D03*
%TD*%
D45*
%TO.C,R13*%
X148150000Y-96245000D03*
X148150000Y-94595000D03*
%TD*%
D15*
%TO.C,C21*%
X138620000Y-102660000D03*
X137660000Y-102660000D03*
%TD*%
D29*
%TO.C,R15*%
X134835000Y-95890000D03*
X136485000Y-95890000D03*
%TD*%
D18*
%TO.C,R9*%
X152710000Y-104910000D03*
X151690000Y-104910000D03*
%TD*%
D20*
%TO.C,C4*%
X158720000Y-97850000D03*
X159680000Y-97850000D03*
%TD*%
%LPD*%
M02*
