M48
; DRILL file {KiCad 8.99.0-2194-gb3b7cbcab2} date 2024-11-16T00:43:09-0500
; FORMAT={-:-/ absolute / inch / decimal}
; #@! TF.CreationDate,2024-11-16T00:43:09-05:00
; #@! TF.GenerationSoftware,Kicad,Pcbnew,8.99.0-2194-gb3b7cbcab2
; #@! TF.FileFunction,Plated,1,4,PTH
FMAT,2
INCH
; #@! TA.AperFunction,Plated,PTH,ViaDrill
T1C0.0118
; #@! TA.AperFunction,Plated,PTH,ComponentDrill
T2C0.0236
; #@! TA.AperFunction,Plated,PTH,ComponentDrill
T3C0.0394
%
G90
G05
T1
X5.3102Y-3.6224
X5.3134Y-3.8843
X5.3146Y-3.9138
X5.3378Y-3.8583
X5.3421Y-3.7728
X5.3449Y-3.9917
X5.3744Y-4.2992
X5.3835Y-4.339
X5.3866Y-3.6783
X5.3894Y-4.0429
X5.3909Y-4.065
X5.396Y-4.1095
X5.3969Y-3.7441
X5.4106Y-3.8016
X5.4158Y-4.0031
X5.4161Y-3.8626
X5.4201Y-4.3161
X5.4206Y-4.1093
X5.4248Y-4.361
X5.4394Y-3.9961
X5.4606Y-3.6228
X5.4618Y-4.0
X5.4654Y-4.115
X5.4709Y-4.322
X5.4736Y-3.6831
X5.4768Y-4.3622
X5.4795Y-3.573
X5.4795Y-3.789
X5.511Y-3.6937
X5.5157Y-3.7882
X5.5209Y-4.3169
X5.5287Y-4.3622
X5.5343Y-3.8366
X5.535Y-3.9394
X5.536Y-3.8947
X5.5366Y-4.1331
X5.5374Y-3.8091
X5.5402Y-4.0098
X5.5437Y-3.5736
X5.546Y-3.9172
X5.5512Y-4.2614
X5.5527Y-4.1517
X5.5669Y-3.8043
X5.5685Y-4.0083
X5.5689Y-4.3193
X5.578Y-4.3622
X5.5846Y-3.8567
X5.585Y-3.9555
X5.5949Y-3.8091
X5.5956Y-4.0122
X5.598Y-3.737
X5.6102Y-4.3303
X5.6106Y-4.1559
X5.6195Y-3.8087
X5.6315Y-4.0063
X5.639Y-3.9106
X5.6583Y-3.7157
X5.6587Y-4.0075
X5.674Y-4.1512
X5.6783Y-3.8177
X5.6929Y-3.8567
X5.6929Y-3.965
X5.7201Y-4.2484
X5.7209Y-3.8091
X5.7295Y-4.352
X5.7315Y-3.8697
X5.7358Y-3.6606
X5.7575Y-4.3535
X5.765Y-4.0445
X5.7795Y-3.785
X5.7937Y-3.7244
X5.8035Y-4.3445
X5.8106Y-3.8181
X5.8118Y-3.4854
X5.8118Y-3.5343
X5.8118Y-3.5811
X5.8118Y-3.6248
X5.8122Y-3.9917
X5.817Y-3.9676
X5.8247Y-4.1394
X5.8247Y-4.1992
X5.8248Y-4.2508
X5.8378Y-3.6602
X5.8736Y-3.4854
X5.8736Y-3.6248
X5.8783Y-3.6681
X5.8795Y-3.7835
X5.8906Y-4.0433
X5.9106Y-3.6976
X5.9232Y-3.6602
X5.9268Y-3.8803
X5.9315Y-4.2957
X5.9429Y-3.4854
X5.9429Y-3.5343
X5.9429Y-3.5811
X5.9429Y-3.6248
X5.9484Y-4.3272
X5.9488Y-3.7413
X5.9492Y-3.7659
X5.9516Y-3.9756
X5.9518Y-3.7904
X5.9555Y-3.6819
X5.9622Y-4.1953
X5.9728Y-4.0295
X5.9756Y-3.6413
X5.9894Y-3.6803
X5.996Y-4.0378
X6.0063Y-4.1598
X6.0094Y-3.8591
X6.0098Y-3.8043
X6.0098Y-3.9165
X6.0193Y-3.4854
X6.0193Y-3.5343
X6.0193Y-3.5811
X6.0193Y-3.6248
X6.0366Y-4.1555
X6.0394Y-3.6512
X6.0419Y-3.695
X6.0461Y-4.298
X6.0492Y-3.7531
X6.0492Y-3.8591
X6.0492Y-3.963
X6.0496Y-3.8043
X6.0496Y-3.9169
X6.0551Y-4.3378
X6.0622Y-4.122
X6.0661Y-3.6701
X6.0665Y-3.6941
X6.083Y-4.1351
X6.0854Y-4.2437
X6.0882Y-3.652
X6.0882Y-3.6941
X6.0902Y-3.4854
X6.0902Y-3.6248
X6.0917Y-4.315
X6.0965Y-4.3598
X6.1008Y-3.7531
X6.1008Y-3.8591
X6.1008Y-3.9626
X6.1012Y-3.8039
X6.1012Y-3.9169
X6.1047Y-4.0343
X6.1047Y-4.2776
X6.1128Y-3.6946
X6.1169Y-3.6661
X6.1269Y-4.0236
X6.1319Y-3.6441
X6.1323Y-4.2465
X6.1417Y-3.8591
X6.1421Y-3.8043
X6.1421Y-3.9165
X6.1425Y-4.3209
X6.1484Y-4.361
X6.1496Y-4.2811
X6.1515Y-4.0232
X6.1555Y-3.6898
X6.1579Y-4.1039
X6.1594Y-3.4854
X6.1594Y-3.5343
X6.1594Y-3.5811
X6.1594Y-3.6248
X6.1701Y-3.7228
X6.1724Y-4.2461
X6.1846Y-3.6618
X6.1925Y-4.3157
X6.1937Y-3.6232
X6.1972Y-4.276
X6.198Y-3.7791
X6.1988Y-3.7441
X6.2004Y-4.361
X6.2016Y-3.9614
X6.202Y-3.9909
X6.2055Y-3.585
X6.213Y-3.7181
X6.2193Y-3.6476
X6.224Y-3.7528
X6.226Y-4.2437
X6.2303Y-3.9925
X6.2358Y-3.4854
X6.2358Y-3.5343
X6.2358Y-3.5811
X6.2358Y-3.6248
X6.2406Y-4.3181
X6.2463Y-3.7169
X6.2476Y-4.2752
X6.2492Y-4.1031
X6.2496Y-4.361
X6.2748Y-3.7106
X6.2772Y-4.076
X6.2819Y-4.3291
X6.2898Y-4.287
X6.3067Y-3.4854
X6.3067Y-3.6248
X6.3323Y-4.1276
X6.335Y-3.6843
X6.3504Y-3.7217
X6.3665Y-3.4854
X6.3669Y-3.5343
X6.3669Y-3.5811
X6.3669Y-3.6248
T3
X5.8728Y-3.5552
X6.0894Y-3.5552
X6.3059Y-3.5552
T2
G00X5.3236Y-4.2138
M15
G01X5.3236Y-4.2571
M16
G05
G00X5.3236Y-4.3882
M15
G01X5.3236Y-4.4118
M16
G05
G00X5.6638Y-4.2138
M15
G01X5.6638Y-4.2571
M16
G05
G00X5.6638Y-4.3882
M15
G01X5.6638Y-4.4118
M16
G05
G00X5.9949Y-4.2138
M15
G01X5.9949Y-4.2571
M16
G05
G00X5.9949Y-4.3882
M15
G01X5.9949Y-4.4118
M16
G05
G00X6.335Y-4.2138
M15
G01X6.335Y-4.2571
M16
G05
G00X6.335Y-4.3882
M15
G01X6.335Y-4.4118
M16
G05
M30
