%TF.GenerationSoftware,KiCad,Pcbnew,7.99.0-957-g18dd623122*%
%TF.CreationDate,2023-07-04T11:51:19-04:00*%
%TF.ProjectId,carrier,63617272-6965-4722-9e6b-696361645f70,V1.1*%
%TF.SameCoordinates,Original*%
%TF.FileFunction,Paste,Top*%
%TF.FilePolarity,Positive*%
%FSLAX46Y46*%
G04 Gerber Fmt 4.6, Leading zero omitted, Abs format (unit mm)*
G04 Created by KiCad (PCBNEW 7.99.0-957-g18dd623122) date 2023-07-04 11:51:19*
%MOMM*%
%LPD*%
G01*
G04 APERTURE LIST*
G04 Aperture macros list*
%AMRoundRect*
0 Rectangle with rounded corners*
0 $1 Rounding radius*
0 $2 $3 $4 $5 $6 $7 $8 $9 X,Y pos of 4 corners*
0 Add a 4 corners polygon primitive as box body*
4,1,4,$2,$3,$4,$5,$6,$7,$8,$9,$2,$3,0*
0 Add four circle primitives for the rounded corners*
1,1,$1+$1,$2,$3*
1,1,$1+$1,$4,$5*
1,1,$1+$1,$6,$7*
1,1,$1+$1,$8,$9*
0 Add four rect primitives between the rounded corners*
20,1,$1+$1,$2,$3,$4,$5,0*
20,1,$1+$1,$4,$5,$6,$7,0*
20,1,$1+$1,$6,$7,$8,$9,0*
20,1,$1+$1,$8,$9,$2,$3,0*%
G04 Aperture macros list end*
%ADD10R,0.250000X1.100000*%
%ADD11RoundRect,0.225000X-0.225000X-0.250000X0.225000X-0.250000X0.225000X0.250000X-0.225000X0.250000X0*%
%ADD12RoundRect,0.135000X-0.185000X0.135000X-0.185000X-0.135000X0.185000X-0.135000X0.185000X0.135000X0*%
%ADD13R,2.600000X0.300000*%
%ADD14RoundRect,0.112500X-0.187500X-0.112500X0.187500X-0.112500X0.187500X0.112500X-0.187500X0.112500X0*%
%ADD15RoundRect,0.200000X0.275000X-0.200000X0.275000X0.200000X-0.275000X0.200000X-0.275000X-0.200000X0*%
%ADD16RoundRect,0.225000X0.250000X-0.225000X0.250000X0.225000X-0.250000X0.225000X-0.250000X-0.225000X0*%
%ADD17RoundRect,0.135000X-0.135000X-0.185000X0.135000X-0.185000X0.135000X0.185000X-0.135000X0.185000X0*%
%ADD18RoundRect,0.200000X-0.275000X0.200000X-0.275000X-0.200000X0.275000X-0.200000X0.275000X0.200000X0*%
%ADD19RoundRect,0.225000X0.225000X0.250000X-0.225000X0.250000X-0.225000X-0.250000X0.225000X-0.250000X0*%
%ADD20RoundRect,0.200000X-0.200000X-0.275000X0.200000X-0.275000X0.200000X0.275000X-0.200000X0.275000X0*%
%ADD21RoundRect,0.200000X0.200000X0.275000X-0.200000X0.275000X-0.200000X-0.275000X0.200000X-0.275000X0*%
%ADD22R,1.500000X0.900000*%
%ADD23RoundRect,0.140000X0.170000X-0.140000X0.170000X0.140000X-0.170000X0.140000X-0.170000X-0.140000X0*%
%ADD24RoundRect,0.218750X-0.256250X0.218750X-0.256250X-0.218750X0.256250X-0.218750X0.256250X0.218750X0*%
%ADD25RoundRect,0.135000X0.135000X0.185000X-0.135000X0.185000X-0.135000X-0.185000X0.135000X-0.185000X0*%
%ADD26RoundRect,0.112500X0.112500X-0.187500X0.112500X0.187500X-0.112500X0.187500X-0.112500X-0.187500X0*%
%ADD27R,0.200000X0.700000*%
%ADD28R,0.590000X0.350000*%
%ADD29R,0.350000X0.590000*%
%ADD30R,0.300000X0.550000*%
%ADD31R,0.400000X0.550000*%
%ADD32RoundRect,0.150000X-0.700000X0.150000X-0.700000X-0.150000X0.700000X-0.150000X0.700000X0.150000X0*%
%ADD33RoundRect,0.250000X-1.150000X0.250000X-1.150000X-0.250000X1.150000X-0.250000X1.150000X0.250000X0*%
%ADD34RoundRect,0.140000X-0.170000X0.140000X-0.170000X-0.140000X0.170000X-0.140000X0.170000X0.140000X0*%
%ADD35RoundRect,0.250000X0.475000X-0.250000X0.475000X0.250000X-0.475000X0.250000X-0.475000X-0.250000X0*%
%ADD36R,0.650000X0.400000*%
%ADD37RoundRect,0.225000X-0.250000X0.225000X-0.250000X-0.225000X0.250000X-0.225000X0.250000X0.225000X0*%
%ADD38R,0.300000X1.400000*%
%ADD39R,0.300000X1.550000*%
%ADD40R,1.200000X2.750000*%
%ADD41R,1.400000X1.200000*%
%ADD42R,0.600000X1.450000*%
%ADD43R,0.300000X1.450000*%
%ADD44RoundRect,0.250000X-0.475000X0.250000X-0.475000X-0.250000X0.475000X-0.250000X0.475000X0.250000X0*%
%ADD45RoundRect,0.140000X0.140000X0.170000X-0.140000X0.170000X-0.140000X-0.170000X0.140000X-0.170000X0*%
%ADD46RoundRect,0.250000X-0.787500X-1.025000X0.787500X-1.025000X0.787500X1.025000X-0.787500X1.025000X0*%
%ADD47RoundRect,0.150000X-0.150000X0.512500X-0.150000X-0.512500X0.150000X-0.512500X0.150000X0.512500X0*%
%ADD48RoundRect,0.150000X0.150000X-0.512500X0.150000X0.512500X-0.150000X0.512500X-0.150000X-0.512500X0*%
%ADD49R,0.760000X1.250000*%
%ADD50C,0.230000*%
%ADD51RoundRect,0.100000X-0.637500X-0.100000X0.637500X-0.100000X0.637500X0.100000X-0.637500X0.100000X0*%
%ADD52RoundRect,0.125000X0.137500X-0.125000X0.137500X0.125000X-0.137500X0.125000X-0.137500X-0.125000X0*%
%ADD53RoundRect,0.140000X-0.140000X-0.170000X0.140000X-0.170000X0.140000X0.170000X-0.140000X0.170000X0*%
%ADD54RoundRect,0.150000X-0.587500X-0.150000X0.587500X-0.150000X0.587500X0.150000X-0.587500X0.150000X0*%
%ADD55RoundRect,0.247500X-0.247500X0.247500X-0.247500X-0.247500X0.247500X-0.247500X0.247500X0.247500X0*%
%ADD56RoundRect,0.062500X-0.062500X0.350000X-0.062500X-0.350000X0.062500X-0.350000X0.062500X0.350000X0*%
%ADD57RoundRect,0.062500X-0.350000X0.062500X-0.350000X-0.062500X0.350000X-0.062500X0.350000X0.062500X0*%
G04 APERTURE END LIST*
D10*
%TO.C,U16*%
X29620995Y3539000D03*
X30120995Y3539000D03*
X30620995Y3539000D03*
X31120995Y3539000D03*
X31620995Y3539000D03*
X31620995Y7839000D03*
X31120995Y7839000D03*
X30620995Y7839000D03*
X30120995Y7839000D03*
X29620995Y7839000D03*
%TD*%
D11*
%TO.C,C25*%
X45201995Y21072000D03*
X46751995Y21072000D03*
%TD*%
D12*
%TO.C,R15*%
X4331995Y83415000D03*
X4331995Y82395000D03*
%TD*%
D13*
%TO.C,J1*%
X59530495Y87279000D03*
X59530495Y86779000D03*
X59530495Y86279000D03*
X59530495Y85779000D03*
X59530495Y85279000D03*
X59530495Y84779000D03*
X59530495Y84279000D03*
X59530495Y83779000D03*
X59530495Y83279000D03*
X59530495Y82779000D03*
X59530495Y82279000D03*
X59530495Y81779000D03*
X59530495Y81279000D03*
X59530495Y80779000D03*
X59530495Y80279000D03*
X59530495Y79779000D03*
X59530495Y79279000D03*
X59530495Y78779000D03*
X59530495Y78279000D03*
%TD*%
D14*
%TO.C,D13*%
X6775495Y16230000D03*
X8875495Y16230000D03*
%TD*%
D12*
%TO.C,R22*%
X29477995Y2008000D03*
X29477995Y988000D03*
%TD*%
D15*
%TO.C,R1*%
X46368995Y28359000D03*
X46368995Y30009000D03*
%TD*%
D16*
%TO.C,C38*%
X7368995Y34013000D03*
X7368995Y35563000D03*
%TD*%
D12*
%TO.C,R4*%
X36578995Y76448000D03*
X36578995Y75428000D03*
%TD*%
%TO.C,R3*%
X41007495Y76448000D03*
X41007495Y75428000D03*
%TD*%
D17*
%TO.C,R13*%
X13716995Y30724000D03*
X14736995Y30724000D03*
%TD*%
D18*
%TO.C,R12*%
X33922995Y95033000D03*
X33922995Y93383000D03*
%TD*%
D19*
%TO.C,C30*%
X27839995Y12547000D03*
X26289995Y12547000D03*
%TD*%
D20*
%TO.C,R20*%
X37277995Y17008000D03*
X38927995Y17008000D03*
%TD*%
D17*
%TO.C,R10*%
X25502595Y86807200D03*
X26522595Y86807200D03*
%TD*%
D21*
%TO.C,R21*%
X12776995Y37439000D03*
X11126995Y37439000D03*
%TD*%
D22*
%TO.C,D9*%
X5246995Y57268000D03*
X5246995Y60568000D03*
X346995Y60568000D03*
X346995Y57268000D03*
%TD*%
D23*
%TO.C,C8*%
X25504595Y87775000D03*
X25504595Y88735000D03*
%TD*%
D24*
%TO.C,D5*%
X12586995Y40639500D03*
X12586995Y39064500D03*
%TD*%
D25*
%TO.C,R6*%
X49153995Y85461000D03*
X48133995Y85461000D03*
%TD*%
D14*
%TO.C,D15*%
X10520995Y6832000D03*
X12620995Y6832000D03*
%TD*%
D26*
%TO.C,D3*%
X39612595Y13452800D03*
X39612595Y15552800D03*
%TD*%
D23*
%TO.C,C9*%
X36689495Y83586000D03*
X36689495Y84546000D03*
%TD*%
D27*
%TO.C,Module1*%
X34990995Y34840000D03*
X34990995Y37920000D03*
X35390995Y34840000D03*
X35390995Y37920000D03*
X35790995Y34840000D03*
X35790995Y37920000D03*
X36190995Y34840000D03*
X36190995Y37920000D03*
X36590995Y34840000D03*
X36590995Y37920000D03*
X36990995Y34840000D03*
X36990995Y37920000D03*
X37390995Y34840000D03*
X37390995Y37920000D03*
X37790995Y34840000D03*
X37790995Y37920000D03*
X38190995Y34840000D03*
X38190995Y37920000D03*
X38590995Y34840000D03*
X38590995Y37920000D03*
X38990995Y34840000D03*
X38990995Y37920000D03*
X39390995Y34840000D03*
X39390995Y37920000D03*
X39790995Y34840000D03*
X39790995Y37920000D03*
X40190995Y34840000D03*
X40190995Y37920000D03*
X40590995Y34840000D03*
X40590995Y37920000D03*
X40990995Y34840000D03*
X40990995Y37920000D03*
X41390995Y34840000D03*
X41390995Y37920000D03*
X41790995Y34840000D03*
X41790995Y37920000D03*
X42190995Y34840000D03*
X42190995Y37920000D03*
X42590995Y34840000D03*
X42590995Y37920000D03*
X42990995Y34840000D03*
X42990995Y37920000D03*
X43390995Y34840000D03*
X43390995Y37920000D03*
X43790995Y34840000D03*
X43790995Y37920000D03*
X44190995Y34840000D03*
X44190995Y37920000D03*
X44590995Y34840000D03*
X44590995Y37920000D03*
X44990995Y34840000D03*
X44990995Y37920000D03*
X45390995Y34840000D03*
X45390995Y37920000D03*
X45790995Y34840000D03*
X45790995Y37920000D03*
X46190995Y34840000D03*
X46190995Y37920000D03*
X46590995Y34840000D03*
X46590995Y37920000D03*
X46990995Y34840000D03*
X46990995Y37920000D03*
X47390995Y34840000D03*
X47390995Y37920000D03*
X47790995Y34840000D03*
X47790995Y37920000D03*
X48190995Y34840000D03*
X48190995Y37920000D03*
X48590995Y34840000D03*
X48590995Y37920000D03*
X48990995Y34840000D03*
X48990995Y37920000D03*
X49390995Y34840000D03*
X49390995Y37920000D03*
X49790995Y34840000D03*
X49790995Y37920000D03*
X50190995Y34840000D03*
X50190995Y37920000D03*
X50590995Y34840000D03*
X50590995Y37920000D03*
X50990995Y34840000D03*
X50990995Y37920000D03*
X51390995Y34840000D03*
X51390995Y37920000D03*
X51790995Y34840000D03*
X51790995Y37920000D03*
X52190995Y34840000D03*
X52190995Y37920000D03*
X52590995Y34840000D03*
X52590995Y37920000D03*
X52990995Y34840000D03*
X52990995Y37920000D03*
X53390995Y34840000D03*
X53390995Y37920000D03*
X53790995Y34840000D03*
X53790995Y37920000D03*
X54190995Y34840000D03*
X54190995Y37920000D03*
X54590995Y34840000D03*
X54590995Y37920000D03*
X34990995Y68760000D03*
X34990995Y71840000D03*
X35390995Y68760000D03*
X35390995Y71840000D03*
X35790995Y68760000D03*
X35790995Y71840000D03*
X36190995Y68760000D03*
X36190995Y71840000D03*
X36590995Y68760000D03*
X36590995Y71840000D03*
X36990995Y68760000D03*
X36990995Y71840000D03*
X37390995Y68760000D03*
X37390995Y71840000D03*
X37790995Y68760000D03*
X37790995Y71840000D03*
X38190995Y68760000D03*
X38190995Y71840000D03*
X38590995Y68760000D03*
X38590995Y71840000D03*
X38990995Y68760000D03*
X38990995Y71840000D03*
X39390995Y68760000D03*
X39390995Y71840000D03*
X39790995Y68760000D03*
X39790995Y71840000D03*
X40190995Y68760000D03*
X40190995Y71840000D03*
X40590995Y68760000D03*
X40590995Y71840000D03*
X40990995Y68760000D03*
X40990995Y71840000D03*
X41390995Y68760000D03*
X41390995Y71840000D03*
X41790995Y68760000D03*
X41790995Y71840000D03*
X42190995Y68760000D03*
X42190995Y71840000D03*
X42590995Y68760000D03*
X42590995Y71840000D03*
X42990995Y68760000D03*
X42990995Y71840000D03*
X43390995Y68760000D03*
X43390995Y71840000D03*
X43790995Y68760000D03*
X43790995Y71840000D03*
X44190995Y68760000D03*
X44190995Y71840000D03*
X44590995Y68760000D03*
X44590995Y71840000D03*
X44990995Y68760000D03*
X44990995Y71840000D03*
X45390995Y68760000D03*
X45390995Y71840000D03*
X45790995Y68760000D03*
X45790995Y71840000D03*
X46190995Y68760000D03*
X46190995Y71840000D03*
X46590995Y68760000D03*
X46590995Y71840000D03*
X46990995Y68760000D03*
X46990995Y71840000D03*
X47390995Y68760000D03*
X47390995Y71840000D03*
X47790995Y68760000D03*
X47790995Y71840000D03*
X48190995Y68760000D03*
X48190995Y71840000D03*
X48590995Y68760000D03*
X48590995Y71840000D03*
X48990995Y68760000D03*
X48990995Y71840000D03*
X49390995Y68760000D03*
X49390995Y71840000D03*
X49790995Y68760000D03*
X49790995Y71840000D03*
X50190995Y68760000D03*
X50190995Y71840000D03*
X50590995Y68760000D03*
X50590995Y71840000D03*
X50990995Y68760000D03*
X50990995Y71840000D03*
X51390995Y68760000D03*
X51390995Y71840000D03*
X51790995Y68760000D03*
X51790995Y71840000D03*
X52190995Y68760000D03*
X52190995Y71840000D03*
X52590995Y68760000D03*
X52590995Y71840000D03*
X52990995Y68760000D03*
X52990995Y71840000D03*
X53390995Y68760000D03*
X53390995Y71840000D03*
X53790995Y68760000D03*
X53790995Y71840000D03*
X54190995Y68760000D03*
X54190995Y71840000D03*
X54590995Y68760000D03*
X54590995Y71840000D03*
%TD*%
D24*
%TO.C,D1*%
X9003995Y30244500D03*
X9003995Y28669500D03*
%TD*%
D12*
%TO.C,R5*%
X45833495Y76702000D03*
X45833495Y75682000D03*
%TD*%
D25*
%TO.C,R9*%
X26522595Y85740400D03*
X25502595Y85740400D03*
%TD*%
D28*
%TO.C,U13*%
X40173895Y22860000D03*
X40173895Y22360000D03*
X40173895Y21860000D03*
X40173895Y21360000D03*
X40173895Y20860000D03*
X40173895Y20360000D03*
X40173895Y19860000D03*
D29*
X39008895Y19445000D03*
D28*
X37843895Y19860000D03*
X37843895Y20360000D03*
X37843895Y20860000D03*
X37843895Y21360000D03*
X37843895Y21860000D03*
X37843895Y22360000D03*
X37843895Y22860000D03*
D29*
X39008895Y23275000D03*
%TD*%
D18*
%TO.C,R11*%
X32398995Y95033000D03*
X32398995Y93383000D03*
%TD*%
D22*
%TO.C,D11*%
X5246995Y71460000D03*
X5246995Y74760000D03*
X346995Y74760000D03*
X346995Y71460000D03*
%TD*%
D12*
%TO.C,R16*%
X3315995Y83415000D03*
X3315995Y82395000D03*
%TD*%
D30*
%TO.C,U7*%
X7892995Y83171000D03*
X8392995Y83171000D03*
D31*
X8892995Y83171000D03*
D30*
X9392995Y83171000D03*
X9892995Y83171000D03*
X9892995Y83941000D03*
X9392995Y83941000D03*
D31*
X8892995Y83941000D03*
D30*
X8392995Y83941000D03*
X7892995Y83941000D03*
%TD*%
D32*
%TO.C,SW2*%
X7683495Y21869000D03*
X7683495Y20619000D03*
D33*
X11033495Y23719000D03*
X11033495Y18769000D03*
%TD*%
D11*
%TO.C,C33*%
X3967995Y41138000D03*
X5517995Y41138000D03*
%TD*%
D14*
%TO.C,D14*%
X3154995Y16230000D03*
X5254995Y16230000D03*
%TD*%
D25*
%TO.C,R8*%
X17824095Y75134150D03*
X16804095Y75134150D03*
%TD*%
D23*
%TO.C,C11*%
X41007495Y85882000D03*
X41007495Y86842000D03*
%TD*%
D32*
%TO.C,SW4*%
X7683495Y12176000D03*
X7683495Y10926000D03*
D33*
X11033495Y14026000D03*
X11033495Y9076000D03*
%TD*%
D20*
%TO.C,R19*%
X7443995Y37439000D03*
X9093995Y37439000D03*
%TD*%
D32*
%TO.C,SW5*%
X33495Y12176000D03*
X33495Y10926000D03*
D33*
X3383495Y14026000D03*
X3383495Y9076000D03*
%TD*%
D11*
%TO.C,C20*%
X45304495Y13808500D03*
X46854495Y13808500D03*
%TD*%
D24*
%TO.C,D2*%
X9135995Y33434500D03*
X9135995Y31859500D03*
%TD*%
D34*
%TO.C,C19*%
X11570995Y83306025D03*
X11570995Y82346025D03*
%TD*%
D35*
%TO.C,C16*%
X24172095Y81042150D03*
X24172095Y82942150D03*
%TD*%
D11*
%TO.C,C24*%
X45201995Y22566000D03*
X46751995Y22566000D03*
%TD*%
D36*
%TO.C,U6*%
X15795995Y28042000D03*
X15795995Y28692000D03*
X15795995Y29342000D03*
X13895995Y29342000D03*
X13895995Y28042000D03*
%TD*%
D37*
%TO.C,C21*%
X43238995Y21105000D03*
X43238995Y19555000D03*
%TD*%
D30*
%TO.C,U8*%
X14242995Y83308000D03*
X14742995Y83308000D03*
D31*
X15242995Y83308000D03*
D30*
X15742995Y83308000D03*
X16242995Y83308000D03*
X16242995Y84078000D03*
X15742995Y84078000D03*
D31*
X15242995Y84078000D03*
D30*
X14742995Y84078000D03*
X14242995Y84078000D03*
%TD*%
D20*
%TO.C,R18*%
X36247595Y15417200D03*
X37897595Y15417200D03*
%TD*%
D32*
%TO.C,SW3*%
X33495Y21869000D03*
X33495Y20619000D03*
D33*
X3383495Y23719000D03*
X3383495Y18769000D03*
%TD*%
D38*
%TO.C,U4*%
X26942995Y88290200D03*
X27442995Y88290200D03*
X27942995Y88290200D03*
X28442995Y88290200D03*
X28942995Y88290200D03*
X28942995Y92690200D03*
X28442995Y92690200D03*
X27942995Y92690200D03*
X27442995Y92690200D03*
X26942995Y92690200D03*
%TD*%
D39*
%TO.C,J18*%
X38261995Y5908000D03*
X38511995Y-1642000D03*
X38761995Y5908000D03*
X39011995Y-1642000D03*
X39261995Y5908000D03*
X39511995Y-1642000D03*
X39761995Y5908000D03*
X42011995Y-1642000D03*
X42261995Y5908000D03*
X42511995Y-1642000D03*
X42761995Y5908000D03*
X43011995Y-1642000D03*
X43261995Y5908000D03*
X43511995Y-1642000D03*
X43761995Y5908000D03*
X44011995Y-1642000D03*
X44261995Y5908000D03*
X44511995Y-1642000D03*
X44761995Y5908000D03*
X45011995Y-1642000D03*
X45261995Y5908000D03*
X45511995Y-1642000D03*
X45761995Y5908000D03*
X46011995Y-1642000D03*
X46261995Y5908000D03*
X46511995Y-1642000D03*
X46761995Y5908000D03*
X47011995Y-1642000D03*
X47261995Y5908000D03*
X47511995Y-1642000D03*
X47761995Y5908000D03*
X48011995Y-1642000D03*
X48261995Y5908000D03*
X48511995Y-1642000D03*
X48761995Y5908000D03*
X49011995Y-1642000D03*
X49261995Y5908000D03*
X49511995Y-1642000D03*
X49761995Y5908000D03*
X50011995Y-1642000D03*
X50261995Y5908000D03*
X50511995Y-1642000D03*
X50761995Y5908000D03*
X51011995Y-1642000D03*
X51261995Y5908000D03*
X51511995Y-1642000D03*
X51761995Y5908000D03*
X52011995Y-1642000D03*
X52261995Y5908000D03*
X52511995Y-1642000D03*
X52761995Y5908000D03*
X53011995Y-1642000D03*
X53261995Y5908000D03*
X53511995Y-1642000D03*
X53761995Y5908000D03*
X54011995Y-1642000D03*
X54261995Y5908000D03*
X54511995Y-1642000D03*
X54761995Y5908000D03*
X55011995Y-1642000D03*
X55261995Y5908000D03*
X55511995Y-1642000D03*
X55761995Y5908000D03*
X56011995Y-1642000D03*
X56261995Y5908000D03*
X56511995Y-1642000D03*
X56761995Y5908000D03*
D40*
X37161995Y5133000D03*
X57861995Y5133000D03*
%TD*%
D37*
%TO.C,C27*%
X34988995Y20855000D03*
X34988995Y19305000D03*
%TD*%
D41*
%TO.C,Y1*%
X48576495Y83860000D03*
X46376495Y83860000D03*
X46376495Y82260000D03*
X48576495Y82260000D03*
%TD*%
D42*
%TO.C,J2*%
X31974995Y98631500D03*
X31174995Y98631500D03*
D43*
X29974995Y98631500D03*
X28974995Y98631500D03*
X28474995Y98631500D03*
X27474995Y98631500D03*
D42*
X26274995Y98631500D03*
X25474995Y98631500D03*
X25474995Y98631500D03*
X26274995Y98631500D03*
D43*
X26974995Y98631500D03*
X27974995Y98631500D03*
X29474995Y98631500D03*
X30474995Y98631500D03*
D42*
X31174995Y98631500D03*
X31974995Y98631500D03*
%TD*%
D44*
%TO.C,C6*%
X39348495Y76136000D03*
X39348495Y74236000D03*
%TD*%
D14*
%TO.C,D16*%
X-844505Y6832000D03*
X1255495Y6832000D03*
%TD*%
D35*
%TO.C,C4*%
X18584095Y81042150D03*
X18584095Y82942150D03*
%TD*%
D45*
%TO.C,C2*%
X61834995Y92192000D03*
X60874995Y92192000D03*
%TD*%
D34*
%TO.C,C3*%
X50270495Y83540000D03*
X50270495Y82580000D03*
%TD*%
%TO.C,C15*%
X35419495Y80736000D03*
X35419495Y79776000D03*
%TD*%
D46*
%TO.C,C12*%
X23901695Y77596400D03*
X30126695Y77596400D03*
%TD*%
D20*
%TO.C,R24*%
X4127995Y33909000D03*
X5777995Y33909000D03*
%TD*%
D47*
%TO.C,U2*%
X19026095Y79065650D03*
X18076095Y79065650D03*
X17126095Y79065650D03*
X17126095Y76790650D03*
X18076095Y76790650D03*
X19026095Y76790650D03*
%TD*%
D34*
%TO.C,C13*%
X45579495Y79212000D03*
X45579495Y78252000D03*
%TD*%
D24*
%TO.C,D4*%
X9030995Y40639500D03*
X9030995Y39064500D03*
%TD*%
D12*
%TO.C,R7*%
X42023495Y76448000D03*
X42023495Y75428000D03*
%TD*%
D22*
%TO.C,D10*%
X5246995Y64380000D03*
X5246995Y67680000D03*
X346995Y67680000D03*
X346995Y64380000D03*
%TD*%
D48*
%TO.C,U17*%
X258995Y31380000D03*
X1208995Y31380000D03*
X2158995Y31380000D03*
X2158995Y33655000D03*
X258995Y33655000D03*
%TD*%
D37*
%TO.C,C23*%
X36488995Y20855000D03*
X36488995Y19305000D03*
%TD*%
D49*
%TO.C,SW1*%
X51945995Y28210000D03*
X50675995Y28210000D03*
X50675995Y22060000D03*
X51945995Y22060000D03*
%TD*%
D25*
%TO.C,R14*%
X11677995Y34679000D03*
X10657995Y34679000D03*
%TD*%
D50*
%TO.C,U12*%
X45776995Y25082000D03*
X46176995Y25082000D03*
X45776995Y24682000D03*
X46176995Y24682000D03*
%TD*%
D44*
%TO.C,C5*%
X44309495Y76380000D03*
X44309495Y74480000D03*
%TD*%
D11*
%TO.C,C34*%
X3967995Y48250000D03*
X5517995Y48250000D03*
%TD*%
D47*
%TO.C,U15*%
X31443995Y12287500D03*
X30493995Y12287500D03*
X29543995Y12287500D03*
X29543995Y10012500D03*
X31443995Y10012500D03*
%TD*%
D51*
%TO.C,U14*%
X26909823Y23392800D03*
X26909823Y22742800D03*
X26909823Y22092800D03*
X26909823Y21442800D03*
X26909823Y20792800D03*
X26909823Y20142800D03*
X26909823Y19492800D03*
X26909823Y18842800D03*
X26909823Y18192800D03*
X26909823Y17542800D03*
X26909823Y16892800D03*
X26909823Y16242800D03*
X26909823Y15592800D03*
X26909823Y14942800D03*
X32634823Y14942800D03*
X32634823Y15592800D03*
X32634823Y16242800D03*
X32634823Y16892800D03*
X32634823Y17542800D03*
X32634823Y18192800D03*
X32634823Y18842800D03*
X32634823Y19492800D03*
X32634823Y20142800D03*
X32634823Y20792800D03*
X32634823Y21442800D03*
X32634823Y22092800D03*
X32634823Y22742800D03*
X32634823Y23392800D03*
%TD*%
D21*
%TO.C,R17*%
X46904495Y16856500D03*
X45254495Y16856500D03*
%TD*%
D30*
%TO.C,U5*%
X29450995Y95447200D03*
X28950995Y95447200D03*
D31*
X28450995Y95447200D03*
D30*
X27950995Y95447200D03*
X27450995Y95447200D03*
X27450995Y94677200D03*
X27950995Y94677200D03*
D31*
X28450995Y94677200D03*
D30*
X28950995Y94677200D03*
X29450995Y94677200D03*
%TD*%
D52*
%TO.C,U11*%
X41233495Y13776000D03*
X41233495Y14576000D03*
X41233495Y15376000D03*
X41233495Y16176000D03*
X43608495Y16176000D03*
X43608495Y15376000D03*
X43608495Y14576000D03*
X43608495Y13776000D03*
%TD*%
D37*
%TO.C,C28*%
X41738995Y21105000D03*
X41738995Y19555000D03*
%TD*%
D35*
%TO.C,C17*%
X26966095Y81042150D03*
X26966095Y82942150D03*
%TD*%
D22*
%TO.C,D6*%
X5246995Y35932000D03*
X5246995Y39232000D03*
X346995Y39232000D03*
X346995Y35932000D03*
%TD*%
D11*
%TO.C,C26*%
X45201995Y19548000D03*
X46751995Y19548000D03*
%TD*%
D53*
%TO.C,C7*%
X46996495Y80774000D03*
X47956495Y80774000D03*
%TD*%
D11*
%TO.C,C37*%
X3967995Y69586000D03*
X5517995Y69586000D03*
%TD*%
D19*
%TO.C,C29*%
X36196595Y23240400D03*
X34646595Y23240400D03*
%TD*%
D12*
%TO.C,R23*%
X32906995Y12422000D03*
X32906995Y11402000D03*
%TD*%
D36*
%TO.C,U9*%
X15673995Y31997000D03*
X15673995Y32647000D03*
X15673995Y33297000D03*
X13773995Y33297000D03*
X13773995Y31997000D03*
%TD*%
D23*
%TO.C,C1*%
X64656995Y95760000D03*
X64656995Y96720000D03*
%TD*%
D35*
%TO.C,C14*%
X21378095Y81042150D03*
X21378095Y82942150D03*
%TD*%
%TO.C,C18*%
X29760095Y81042150D03*
X29760095Y82942150D03*
%TD*%
D11*
%TO.C,C36*%
X3967995Y62474000D03*
X5517995Y62474000D03*
%TD*%
%TO.C,C22*%
X45304495Y15332500D03*
X46854495Y15332500D03*
%TD*%
D54*
%TO.C,U1*%
X64696495Y94102000D03*
X64696495Y92202000D03*
X66571495Y93152000D03*
%TD*%
D19*
%TO.C,C32*%
X34951995Y7619400D03*
X33401995Y7619400D03*
%TD*%
D55*
%TO.C,U3*%
X42237495Y82756000D03*
X41007495Y82756000D03*
X39777495Y82756000D03*
X42237495Y81526000D03*
X41007495Y81526000D03*
X39777495Y81526000D03*
X42237495Y80296000D03*
X41007495Y80296000D03*
X39777495Y80296000D03*
D56*
X43007495Y84463500D03*
X42507495Y84463500D03*
X42007495Y84463500D03*
X41507495Y84463500D03*
X41007495Y84463500D03*
X40507495Y84463500D03*
X40007495Y84463500D03*
X39507495Y84463500D03*
X39007495Y84463500D03*
D57*
X38069995Y83526000D03*
X38069995Y83026000D03*
X38069995Y82526000D03*
X38069995Y82026000D03*
X38069995Y81526000D03*
X38069995Y81026000D03*
X38069995Y80526000D03*
X38069995Y80026000D03*
X38069995Y79526000D03*
D56*
X39007495Y78588500D03*
X39507495Y78588500D03*
X40007495Y78588500D03*
X40507495Y78588500D03*
X41007495Y78588500D03*
X41507495Y78588500D03*
X42007495Y78588500D03*
X42507495Y78588500D03*
X43007495Y78588500D03*
D57*
X43944995Y79526000D03*
X43944995Y80026000D03*
X43944995Y80526000D03*
X43944995Y81026000D03*
X43944995Y81526000D03*
X43944995Y82026000D03*
X43944995Y82526000D03*
X43944995Y83026000D03*
X43944995Y83526000D03*
%TD*%
D22*
%TO.C,D8*%
X5246995Y50156000D03*
X5246995Y53456000D03*
X346995Y53456000D03*
X346995Y50156000D03*
%TD*%
D18*
%TO.C,R2*%
X47892995Y30009000D03*
X47892995Y28359000D03*
%TD*%
D53*
%TO.C,C10*%
X45369995Y85588000D03*
X46329995Y85588000D03*
%TD*%
D22*
%TO.C,D7*%
X5246995Y43044000D03*
X5246995Y46344000D03*
X346995Y46344000D03*
X346995Y43044000D03*
%TD*%
D11*
%TO.C,C31*%
X33401995Y9270400D03*
X34951995Y9270400D03*
%TD*%
%TO.C,C35*%
X3967995Y55362000D03*
X5517995Y55362000D03*
%TD*%
M02*
