M48
; DRILL file {KiCad 7.99.0-unknown} date 2023-12-09T11:39:08-0500
; FORMAT={-:-/ absolute / inch / decimal}
; #@! TF.CreationDate,2023-12-09T11:39:08-05:00
; #@! TF.GenerationSoftware,Kicad,Pcbnew,7.99.0-unknown
; #@! TF.FileFunction,Plated,1,4,PTH
FMAT,2
INCH
; #@! TA.AperFunction,Plated,PTH,ViaDrill
T1C0.0118
; #@! TA.AperFunction,Plated,PTH,ComponentDrill
T2C0.0197
; #@! TA.AperFunction,Plated,PTH,ComponentDrill
T3C0.0236
; #@! TA.AperFunction,Plated,PTH,ComponentDrill
T4C0.0276
; #@! TA.AperFunction,Plated,PTH,ComponentDrill
T5C0.0354
; #@! TA.AperFunction,Plated,PTH,ComponentDrill
T6C0.0394
; #@! TA.AperFunction,Plated,PTH,ComponentDrill
T7C0.0598
%
G90
G05
T1
X-0.521Y1.9564
X-0.5149Y1.7607
X-0.5149Y1.6584
X-0.5078Y3.1531
X-0.507Y1.8631
X-0.5059Y1.4684
X-0.5037Y3.2544
X-0.4981Y3.3651
X-0.4942Y0.996
X-0.4913Y1.9733
X-0.4814Y1.2657
X-0.4811Y2.0884
X-0.4578Y3.5957
X-0.4459Y1.9804
X-0.4399Y1.3004
X-0.4299Y2.2244
X-0.4282Y3.4739
X-0.4139Y1.8917
X-0.4139Y1.6839
X-0.4099Y1.7864
X-0.4099Y1.5805
X-0.3999Y2.4844
X-0.3899Y2.5184
X-0.3879Y0.9064
X-0.3859Y1.5384
X-0.3771Y2.6033
X-0.3771Y2.4025
X-0.3731Y2.4891
X-0.3633Y2.744
X-0.3623Y2.9517
X-0.362Y2.8557
X-0.3584Y3.0472
X-0.3561Y1.1533
X-0.3499Y2.0064
X-0.3289Y0.7401
X-0.3102Y1.8631
X-0.3065Y1.3195
X-0.255Y3.2401
X-0.2383Y3.3483
X-0.2378Y2.1861
X-0.2174Y3.1287
X-0.1979Y2.9964
X-0.195Y1.2411
X-0.1899Y3.1304
X-0.1779Y1.8384
X-0.1779Y1.4804
X-0.1497Y0.87
X-0.1414Y0.7539
X-0.1259Y1.6624
X-0.1241Y3.5147
X-0.1199Y3.0664
X-0.1088Y1.1607
X-0.0621Y1.1118
X-0.0621Y1.0918
X-0.0621Y1.0718
X-0.0621Y1.0518
X-0.0621Y1.0318
X-0.0621Y1.0118
X-0.0621Y0.9918
X-0.046Y3.6084
X-0.0198Y1.1692
X-0.0179Y1.9664
X0.0061Y1.2884
X0.0161Y1.3184
X0.0374Y1.2913
X0.058Y0.748
X0.0601Y3.3484
X0.0743Y1.2463
X0.0881Y1.8284
X0.1062Y1.7171
X0.1089Y3.5191
X0.1101Y1.6424
X0.1101Y1.5604
X0.1101Y1.4984
X0.1121Y1.9224
X0.1121Y1.8924
X0.1121Y1.8164
X0.1141Y1.8624
X0.1141Y1.2464
X0.1161Y1.3624
X0.1161Y1.3424
X0.1161Y1.3224
X0.1161Y1.3024
X0.1181Y1.9724
X0.1681Y1.4624
X0.1702Y2.7204
X0.1702Y1.0088
X0.1721Y1.2284
X0.1841Y2.8964
X0.1861Y3.3464
X0.1901Y1.5364
X0.2001Y1.0701
X0.2125Y3.2174
X0.2128Y1.7624
X0.2137Y1.79
X0.2164Y3.0098
X0.2179Y1.719
X0.2198Y1.8169
X0.2201Y1.6932
X0.2218Y1.5138
X0.2219Y1.5638
X0.2221Y1.6424
X0.2221Y1.666
X0.2241Y1.5363
X0.2258Y1.7408
X0.2301Y1.8424
X0.2338Y1.5835
X0.235Y1.607
X0.2361Y1.2144
X0.2374Y1.1919
X0.241Y0.8644
X0.2461Y1.0004
X0.2511Y0.8894
X0.2861Y1.9224
X0.2861Y1.8764
X0.2861Y1.8124
X0.2861Y1.7344
X0.2861Y1.5144
X0.2881Y1.9704
X0.2881Y1.6544
X0.2881Y1.4664
X0.2928Y1.323
X0.294Y1.5902
X0.2942Y2.9537
X0.2961Y1.3784
X0.2961Y0.867
X0.3041Y1.7481
X0.3061Y1.5344
X0.3221Y1.5564
X0.3227Y1.3758
X0.3341Y2.7284
X0.3349Y1.342
X0.3361Y3.3464
X0.3361Y2.8964
X0.3441Y0.8964
X0.3527Y1.3281
X0.3561Y1.7064
X0.3661Y1.3084
X0.3698Y3.2137
X0.3701Y1.4944
X0.3701Y1.4544
X0.3701Y1.4144
X0.3781Y1.2884
X0.3788Y1.0993
X0.3821Y1.3764
X0.3837Y3.0843
X0.3841Y1.5844
X0.4021Y1.6564
X0.4143Y2.5383
X0.4182Y1.4645
X0.4321Y1.7164
X0.4339Y1.0403
X0.4481Y1.7624
X0.4587Y2.9687
X0.4721Y2.7344
X0.4801Y1.4484
X0.4831Y2.3779
X0.4841Y2.8964
X0.4861Y3.3484
X0.4881Y1.1304
X0.4881Y1.1104
X0.4881Y1.0884
X0.4881Y1.0684
X0.4881Y1.0484
X0.4981Y1.4944
X0.5078Y1.6151
X0.5146Y3.1062
X0.5152Y1.7976
X0.5201Y0.8685
X0.5264Y1.4974
X0.5301Y1.5524
X0.5361Y0.9167
X0.5361Y0.8894
X0.5526Y3.2226
X0.5561Y1.2424
X0.5609Y2.185
X0.5641Y1.6044
X0.5661Y1.3684
X0.5801Y1.7844
X0.6156Y1.4356
X0.6241Y2.7304
X0.6261Y1.7484
X0.6281Y1.6504
X0.6321Y2.8964
X0.6321Y1.4964
X0.6341Y3.3484
X0.6514Y3.2177
X0.6521Y1.4524
X0.6521Y1.1044
X0.6534Y2.9852
X0.6898Y0.9222
X0.7095Y1.1899
X0.7101Y2.6264
X0.7105Y2.3917
X0.7253Y1.3808
X0.7261Y1.6244
X0.7261Y1.4864
X0.7263Y2.5629
X0.7281Y2.6444
X0.7361Y0.9364
X0.7373Y1.7263
X0.743Y3.1298
X0.7481Y2.6644
X0.7541Y1.7624
X0.7671Y2.6834
X0.7812Y1.7654
X0.7831Y2.6994
X0.7941Y2.0544
X0.7951Y1.4325
X0.8021Y0.9364
X0.8048Y1.7686
X0.8066Y1.4616
X0.829Y1.7697
X0.8335Y2.6663
X0.8381Y3.2544
X0.8434Y0.8956
X0.8469Y1.0376
X0.8513Y1.0088
X0.8541Y2.1104
X0.8556Y1.7624
X0.8576Y1.0704
X0.8661Y1.1044
X0.8781Y2.2844
X0.8781Y2.2163
X0.8804Y1.7743
X0.8821Y1.9564
X0.8821Y1.9304
X0.8821Y1.9064
X0.8821Y1.8864
X0.9035Y1.7593
X0.9103Y2.7942
X0.9113Y1.0472
X0.9152Y1.4763
X0.9221Y2.1184
X0.9221Y1.1564
X0.9261Y2.5284
X0.9261Y2.5015
X0.9282Y1.7715
X0.9389Y1.7214
X0.9541Y1.9964
X0.9546Y2.9359
X0.9713Y3.2509
X0.9812Y1.6102
X0.9821Y1.7244
X0.9871Y1.306
X1.0081Y1.7244
X1.0221Y1.9584
X1.0301Y1.7244
X1.0321Y2.0404
X1.0461Y3.0064
X1.0481Y2.3804
X1.052Y1.8673
X1.052Y1.6613
X1.0681Y2.5044
X1.0881Y2.0424
X1.0984Y1.9481
X1.1101Y2.3784
X1.1101Y1.7244
X1.1336Y0.8931
X1.1341Y1.8144
X1.1341Y1.7244
X1.1407Y1.937
X1.1481Y2.0464
X1.1581Y1.7244
X1.1682Y2.4074
X1.1692Y2.9419
X1.1751Y3.0363
X1.1841Y2.5504
X1.1889Y2.7991
X1.1901Y2.0424
X1.1901Y1.9204
X1.2101Y1.7124
X1.2161Y1.7404
X1.2184Y2.9832
X1.2201Y2.0704
X1.2233Y2.493
X1.2233Y1.0974
X1.2465Y2.073
X1.2601Y2.1324
X1.2629Y1.2133
X1.2639Y2.0875
X1.2681Y2.1584
X1.2753Y2.3789
X1.2774Y1.0718
X1.2781Y1.1444
X1.2929Y1.8644
X1.302Y3.0521
X1.3161Y1.8684
X1.3241Y2.0304
X1.3341Y2.2564
X1.3411Y1.9334
X1.3521Y0.8644
X1.3561Y2.3484
X1.3581Y1.1704
X1.3621Y1.1044
X1.3828Y1.1456
X1.3941Y2.1764
X1.4005Y3.0511
X1.4034Y0.805
X1.416Y2.8149
X1.4211Y2.6781
X1.4372Y0.8324
X1.4421Y0.8544
X1.4441Y1.2604
X1.4447Y1.9213
X1.4447Y1.8753
X1.4447Y1.8273
X1.4447Y1.7793
X1.4447Y1.7333
X1.4447Y1.6853
X1.4447Y1.5433
X1.4447Y1.4973
X1.4447Y1.4493
X1.4447Y1.4013
X1.4447Y1.3553
X1.4447Y1.3073
X1.4447Y1.2133
X1.4481Y1.8984
X1.4526Y0.6161
X1.4681Y1.0584
X1.5048Y1.9055
X1.5081Y1.2604
X1.5087Y1.8753
X1.5087Y1.8273
X1.5087Y1.7793
X1.5087Y1.7333
X1.5087Y1.6853
X1.5087Y1.5433
X1.5087Y1.4973
X1.5087Y1.4493
X1.5087Y1.4013
X1.5087Y1.3553
X1.5087Y1.3073
X1.5087Y1.2133
X1.5121Y2.2024
X1.5181Y2.4684
X1.5181Y1.9324
X1.5301Y1.5507
X1.5321Y1.9524
X1.5391Y1.5714
X1.5627Y1.9213
X1.5627Y1.8753
X1.564Y1.7874
X1.5647Y1.8273
X1.5647Y1.7333
X1.5647Y1.6853
X1.5647Y1.6373
X1.5647Y1.5913
X1.5647Y1.5433
X1.5647Y1.4973
X1.5647Y1.2613
X1.5647Y1.2133
X1.5661Y1.9644
X1.5667Y1.4493
X1.5668Y1.4033
X1.5668Y1.3553
X1.5668Y1.3073
X1.5761Y1.0084
X1.5861Y1.1344
X1.5881Y2.7804
X1.5934Y2.3257
X1.6101Y0.867
X1.618Y2.559
X1.6243Y1.7226
X1.6261Y1.2584
X1.6267Y1.9213
X1.6267Y1.8753
X1.6281Y1.4624
X1.6282Y1.3524
X1.6287Y1.8273
X1.6287Y1.7793
X1.6287Y1.6853
X1.6287Y1.6373
X1.6287Y1.5913
X1.6287Y1.5433
X1.6287Y1.4973
X1.6287Y1.2133
X1.6381Y1.4084
X1.6461Y1.3024
X1.6481Y1.1504
X1.6524Y3.1495
X1.6557Y1.7709
X1.6561Y1.7444
X1.6701Y1.0784
X1.6721Y1.1064
X1.6801Y2.7744
X1.6801Y1.2244
X1.6809Y3.0088
X1.6957Y2.2981
X1.7095Y3.623
X1.7131Y2.6784
X1.7131Y2.6524
X1.7131Y2.6284
X1.7131Y2.6044
X1.7131Y2.5784
X1.7184Y3.4399
X1.7233Y3.3523
X1.7281Y1.7744
X1.7499Y3.1584
X1.7561Y2.4964
X1.7587Y3.3966
X1.7617Y2.7962
X1.7765Y3.3789
X1.7843Y2.8237
X1.7843Y2.7962
X1.8101Y1.0744
X1.8201Y1.1284
X1.8286Y2.6535
X1.8473Y0.7174
X1.8513Y2.43
X1.8681Y2.1424
X1.8819Y1.4925
X1.8936Y2.992
X1.9061Y0.9204
X1.9117Y0.8195
X1.9121Y1.9044
X1.9121Y1.8524
X1.9123Y1.2735
X1.9221Y0.6141
X1.9339Y2.8907
X1.9398Y1.6397
X1.9664Y3.6308
X1.9678Y0.7545
X1.9841Y2.0804
X1.9841Y1.7844
X1.9861Y1.3985
X2.0261Y1.8649
X2.0321Y2.7084
X2.0383Y3.6259
X2.0707Y1.0747
X2.0881Y1.5944
X2.1052Y3.0196
T2
X-0.4387Y3.3529
X-0.4387Y3.3037
X-0.4387Y3.2544
X-0.4387Y3.2052
X-0.4387Y3.156
X0.2344Y3.5724
X0.2836Y3.5724
X0.3329Y3.5724
X0.3821Y3.5724
X0.5864Y3.5724
X0.6356Y3.5724
X0.6849Y3.5724
X0.7341Y3.5724
T4
X1.075Y3.1525
X1.0947Y3.2115
X1.1538Y3.1525
X1.1931Y3.2115
X1.2325Y3.1525
X1.2719Y3.2115
X1.3113Y3.1525
X1.3703Y3.2115
X1.39Y3.1525
T6
X-0.4328Y3.0053
X-0.4328Y2.9053
X-0.4328Y2.8053
X-0.4328Y2.7053
X-0.2872Y3.0053
X-0.2872Y2.9053
X-0.2872Y2.8053
X-0.2872Y2.7053
X-0.287Y2.5581
X-0.287Y2.4581
X-0.287Y2.3581
X-0.287Y2.2581
X-0.287Y2.1581
X-0.287Y2.0581
X-0.2852Y1.9132
X-0.2852Y1.8132
X-0.2852Y1.7132
X-0.2852Y1.6132
X-0.2852Y1.5132
X-0.2852Y1.4132
X-0.1372Y3.3144
X-0.1372Y3.2144
X-0.1372Y3.1144
X-0.1372Y3.0144
X-0.1372Y2.9144
X-0.1372Y2.8144
X-0.1372Y2.7144
X-0.1372Y2.6144
X-0.1372Y2.5144
X-0.1372Y2.4144
X-0.1372Y2.3144
X-0.1372Y2.2144
X-0.1372Y2.1144
X-0.1372Y2.0144
X-0.1372Y1.9144
X-0.1372Y1.8144
X-0.1372Y1.7144
X-0.1372Y1.6144
X-0.1372Y1.5144
X-0.1372Y1.4144
X-0.0372Y3.3144
X-0.0372Y3.2144
X-0.0372Y3.1144
X-0.0372Y3.0144
X-0.0372Y2.9144
X-0.0372Y2.8144
X-0.0372Y2.7144
X-0.0372Y2.6144
X-0.0372Y2.5144
X-0.0372Y2.4144
X-0.0372Y2.3144
X-0.0372Y2.2144
X-0.0372Y2.1144
X-0.0372Y2.0144
X-0.0372Y1.9144
X-0.0372Y1.8144
X-0.0372Y1.7144
X-0.0372Y1.6144
X-0.0372Y1.5144
X-0.0372Y1.4144
X2.0717Y3.4741
X2.0717Y3.3741
X2.0717Y3.2741
X2.0717Y3.1741
T7
X-0.448Y0.7981
X-0.248Y0.7981
X-0.048Y0.7981
T3
G00X0.9806Y3.5009
M15
G01X0.9806Y3.5324
M16
G05
G00X0.9806Y3.1604
M15
G01X0.9806Y3.2037
M16
G05
G00X1.4845Y3.5009
M15
G01X1.4845Y3.5324
M16
G05
G00X1.4845Y3.1604
M15
G01X1.4845Y3.2037
M16
G05
G00X1.7317Y0.8455
M15
G01X1.7317Y0.8022
M16
G05
G00X1.7317Y0.6711
M15
G01X1.7317Y0.6474
M16
G05
G00X1.8812Y2.035
M15
G01X1.9245Y2.035
M16
G05
G00X1.8812Y1.6948
M15
G01X1.9245Y1.6948
M16
G05
G00X2.0556Y2.035
M15
G01X2.0792Y2.035
M16
G05
G00X2.0556Y1.6948
M15
G01X2.0792Y1.6948
M16
G05
G00X2.0719Y0.8455
M15
G01X2.0719Y0.8022
M16
G05
G00X2.0719Y0.6711
M15
G01X2.0719Y0.6474
M16
G05
T5
G00X1.7406Y1.5719
M15
G01X1.8115Y1.5719
M16
G05
G00X1.7406Y1.001
M15
G01X1.8115Y1.001
M16
G05
G00X1.995Y1.5719
M15
G01X2.0265Y1.5719
M16
G05
G00X1.995Y1.001
M15
G01X2.0265Y1.001
M16
G05
T0
M30
