M48
; DRILL file {KiCad 7.99.0-unknown} date 2023-11-27T23:23:57-0500
; FORMAT={-:-/ absolute / inch / decimal}
; #@! TF.CreationDate,2023-11-27T23:23:57-05:00
; #@! TF.GenerationSoftware,Kicad,Pcbnew,7.99.0-unknown
; #@! TF.FileFunction,Plated,1,4,PTH
FMAT,2
INCH
; #@! TA.AperFunction,Plated,PTH,ViaDrill
T1C0.0079
; #@! TA.AperFunction,Plated,PTH,ComponentDrill
T2C0.0197
; #@! TA.AperFunction,Plated,PTH,ComponentDrill
T3C0.0236
; #@! TA.AperFunction,Plated,PTH,ComponentDrill
T4C0.0276
; #@! TA.AperFunction,Plated,PTH,ComponentDrill
T5C0.0354
; #@! TA.AperFunction,Plated,PTH,ComponentDrill
T6C0.0394
; #@! TA.AperFunction,Plated,PTH,ComponentDrill
T7C0.0598
%
G90
G05
T1
X4.2142Y2.548
X4.2204Y2.3523
X4.2204Y2.2499
X4.2282Y2.4546
X4.2293Y2.06
X4.244Y2.5649
X4.2542Y2.68
X4.2893Y2.572
X4.2953Y1.892
X4.3053Y2.816
X4.3213Y2.4833
X4.3213Y2.2754
X4.3253Y2.378
X4.3253Y2.172
X4.3353Y3.076
X4.3453Y3.11
X4.3493Y2.13
X4.3581Y3.1948
X4.3581Y2.994
X4.3621Y3.0806
X4.3792Y1.7449
X4.3853Y2.598
X4.4251Y2.4546
X4.4287Y1.9111
X4.4974Y2.7777
X4.5178Y3.7202
X4.5373Y3.588
X4.5453Y3.722
X4.5573Y2.43
X4.5573Y2.072
X4.6093Y2.254
X4.6153Y3.658
X4.6264Y1.7522
X4.6731Y1.7033
X4.6731Y1.6833
X4.6731Y1.6633
X4.6731Y1.6433
X4.6731Y1.6233
X4.6731Y1.6033
X4.6731Y1.5833
X4.7173Y2.558
X4.7413Y1.88
X4.7513Y1.91
X4.7726Y1.8828
X4.7953Y3.94
X4.8095Y1.8378
X4.8233Y2.42
X4.8415Y2.3087
X4.8453Y2.234
X4.8453Y2.152
X4.8453Y2.09
X4.8473Y2.514
X4.8473Y2.484
X4.8473Y2.408
X4.8493Y2.454
X4.8493Y1.838
X4.8513Y1.954
X4.8513Y1.934
X4.8513Y1.914
X4.8513Y1.894
X4.8533Y2.564
X4.9033Y2.054
X4.9054Y1.6003
X4.9073Y2.086
X4.9073Y1.82
X4.9193Y3.488
X4.9213Y3.938
X4.9253Y2.128
X4.9293Y2.238
X4.9353Y1.6616
X4.9481Y2.354
X4.949Y2.3815
X4.9531Y2.3106
X4.9551Y2.4084
X4.9553Y2.2847
X4.957Y2.1054
X4.9572Y2.1553
X4.9573Y2.234
X4.9574Y2.2575
X4.9594Y2.1279
X4.961Y2.3324
X4.9653Y2.434
X4.9691Y2.175
X4.9702Y2.1986
X4.9713Y1.806
X4.9727Y1.7834
X4.9763Y1.456
X4.9813Y1.592
X4.9863Y1.481
X5.0213Y2.514
X5.0213Y2.468
X5.0213Y2.404
X5.0213Y2.326
X5.0213Y2.106
X5.0233Y2.562
X5.0233Y2.246
X5.0233Y2.168
X5.0233Y2.058
X5.028Y1.9146
X5.0313Y2.2043
X5.0313Y1.97
X5.0314Y1.4586
X5.0413Y2.126
X5.0573Y2.148
X5.0579Y1.9673
X5.0693Y3.32
X5.0701Y1.9336
X5.0713Y3.938
X5.0713Y3.488
X5.0793Y1.488
X5.0879Y1.9197
X5.0913Y2.298
X5.1013Y1.9
X5.1053Y2.086
X5.1053Y2.046
X5.1053Y2.006
X5.1133Y1.88
X5.1141Y1.6909
X5.1173Y2.334
X5.1173Y1.968
X5.1193Y2.176
X5.1373Y2.248
X5.1652Y1.6869
X5.1673Y2.308
X5.1833Y2.354
X5.2073Y3.326
X5.2153Y2.04
X5.2193Y3.488
X5.2213Y3.94
X5.2233Y1.722
X5.2233Y1.702
X5.2233Y1.68
X5.2233Y1.66
X5.2233Y1.64
X5.2333Y2.086
X5.2505Y2.3891
X5.2553Y1.46
X5.2616Y2.0889
X5.2653Y2.144
X5.2713Y1.5083
X5.2713Y1.481
X5.2913Y1.834
X5.2993Y2.196
X5.3013Y1.96
X5.3153Y2.376
X5.3509Y2.0271
X5.3593Y3.322
X5.3613Y2.34
X5.3633Y2.242
X5.3673Y3.488
X5.3673Y2.088
X5.3693Y3.94
X5.3873Y2.044
X5.3873Y1.696
X5.4251Y1.5137
X5.4453Y3.218
X5.4613Y2.216
X5.4613Y2.078
X5.4633Y3.236
X5.4713Y1.528
X5.4725Y2.3178
X5.4833Y3.256
X5.4893Y2.354
X5.5023Y3.275
X5.5164Y2.3569
X5.5183Y3.291
X5.5293Y2.646
X5.5304Y2.024
X5.5373Y1.528
X5.54Y2.3601
X5.5418Y2.0531
X5.5642Y2.3613
X5.5733Y3.846
X5.5822Y1.6291
X5.5865Y1.6003
X5.5893Y2.702
X5.5908Y2.3539
X5.5928Y1.662
X5.6013Y1.696
X5.6133Y2.876
X5.6133Y2.8079
X5.6156Y2.3658
X5.6173Y2.548
X5.6173Y2.522
X5.6173Y2.498
X5.6173Y2.478
X5.6388Y2.3508
X5.6493Y3.77
X5.6573Y2.71
X5.6613Y3.12
X5.6613Y3.093
X5.6635Y2.363
X5.6893Y2.588
X5.7173Y2.316
X5.7433Y2.316
X5.7573Y2.55
X5.7653Y2.316
X5.7673Y2.632
X5.7813Y3.598
X5.7833Y2.972
X5.7873Y2.4589
X5.8033Y3.096
X5.8233Y2.634
X5.8336Y2.5396
X5.8453Y2.97
X5.8453Y2.316
X5.8693Y2.406
X5.8693Y2.316
X5.8759Y2.5285
X5.8833Y2.638
X5.8933Y2.316
X5.9193Y3.142
X5.9253Y2.634
X5.9253Y2.512
X5.9433Y3.076
X5.9453Y2.304
X5.9513Y2.332
X5.9553Y2.662
X5.9813Y3.024
X5.9817Y2.6645
X5.9953Y2.724
X5.9982Y1.8049
X5.9991Y2.6791
X6.0033Y2.75
X6.0105Y2.9704
X6.0133Y1.736
X6.0282Y2.456
X6.0513Y2.46
X6.0593Y2.622
X6.0693Y2.848
X6.0763Y2.525
X6.0873Y1.456
X6.0913Y2.94
X6.0933Y1.762
X6.0973Y1.696
X6.1293Y2.768
X6.1724Y1.4239
X6.1773Y1.446
X6.1793Y1.852
X6.1799Y2.5128
X6.1799Y2.4668
X6.1799Y2.4188
X6.1799Y2.3708
X6.1799Y2.3248
X6.1799Y2.2768
X6.1799Y2.1348
X6.1799Y2.0888
X6.1799Y2.0408
X6.1799Y1.9928
X6.1799Y1.9468
X6.1799Y1.8988
X6.1799Y1.8048
X6.1833Y2.49
X6.2033Y1.65
X6.24Y2.4971
X6.2433Y1.852
X6.2439Y2.4668
X6.2439Y2.4188
X6.2439Y2.3708
X6.2439Y2.3248
X6.2439Y2.2768
X6.2439Y2.1348
X6.2439Y2.0888
X6.2439Y2.0408
X6.2439Y1.9928
X6.2439Y1.9468
X6.2439Y1.8988
X6.2439Y1.8048
X6.2473Y2.794
X6.2533Y3.06
X6.2533Y2.524
X6.2653Y2.1423
X6.2673Y2.544
X6.2743Y2.163
X6.2979Y2.5128
X6.2979Y2.4668
X6.2993Y2.3789
X6.2999Y2.4188
X6.2999Y2.3248
X6.2999Y2.2768
X6.2999Y2.2288
X6.2999Y2.1828
X6.2999Y2.1348
X6.2999Y2.0888
X6.2999Y1.8528
X6.2999Y1.8048
X6.3013Y2.556
X6.3019Y2.0408
X6.302Y1.9948
X6.302Y1.9468
X6.302Y1.8988
X6.3113Y1.6
X6.3213Y1.726
X6.3233Y3.372
X6.3595Y2.3142
X6.3613Y1.85
X6.3619Y2.5128
X6.3619Y2.4668
X6.3633Y2.054
X6.3634Y1.944
X6.3639Y2.4188
X6.3639Y2.3708
X6.3639Y2.2768
X6.3639Y2.2288
X6.3639Y2.1828
X6.3639Y2.1348
X6.3639Y2.0888
X6.3639Y1.8048
X6.3733Y2.0
X6.3813Y1.894
X6.3833Y1.742
X6.391Y2.3625
X6.3913Y2.336
X6.4053Y1.67
X6.4073Y1.698
X6.4153Y3.366
X6.4153Y1.816
X6.4483Y3.27
X6.4483Y3.244
X6.4483Y3.22
X6.4483Y3.196
X6.4483Y3.17
X6.4633Y2.366
X6.4753Y3.678
X6.4913Y3.088
X6.5453Y1.666
X6.5553Y1.72
X6.6033Y2.734
X6.6413Y1.512
X6.6469Y1.411
X6.6473Y2.496
X6.6473Y2.444
X6.7193Y2.672
X6.7193Y2.376
X6.7673Y3.3
X6.8233Y2.186
T2
X4.2965Y3.9444
X4.2965Y3.8952
X4.2965Y3.846
X4.2965Y3.7968
X4.2965Y3.7476
X4.9697Y4.164
X5.0189Y4.164
X5.0681Y4.164
X5.1173Y4.164
X5.3217Y4.164
X5.3709Y4.164
X5.4201Y4.164
X5.4693Y4.164
T4
X5.8103Y3.6878
X5.83Y3.7469
X5.889Y3.6878
X5.9284Y3.7469
X5.9678Y3.6878
X6.0071Y3.7469
X6.0465Y3.6878
X6.1056Y3.7469
X6.1252Y3.6878
T6
X4.3024Y3.5969
X4.3024Y3.4969
X4.3024Y3.3969
X4.3024Y3.2969
X4.4481Y3.5969
X4.4481Y3.4969
X4.4481Y3.3969
X4.4481Y3.2969
X4.4483Y3.1496
X4.4483Y3.0496
X4.4483Y2.9496
X4.4483Y2.8496
X4.4483Y2.7496
X4.4483Y2.6496
X4.45Y2.5047
X4.45Y2.4047
X4.45Y2.3047
X4.45Y2.2047
X4.45Y2.1047
X4.45Y2.0047
X4.5981Y3.9059
X4.5981Y3.8059
X4.5981Y3.7059
X4.5981Y3.6059
X4.5981Y3.5059
X4.5981Y3.4059
X4.5981Y3.3059
X4.5981Y3.2059
X4.5981Y3.1059
X4.5981Y3.0059
X4.5981Y2.9059
X4.5981Y2.8059
X4.5981Y2.7059
X4.5981Y2.6059
X4.5981Y2.5059
X4.5981Y2.4059
X4.5981Y2.3059
X4.5981Y2.2059
X4.5981Y2.1059
X4.5981Y2.0059
X4.6981Y3.9059
X4.6981Y3.8059
X4.6981Y3.7059
X4.6981Y3.6059
X4.6981Y3.5059
X4.6981Y3.4059
X4.6981Y3.3059
X4.6981Y3.2059
X4.6981Y3.1059
X4.6981Y3.0059
X4.6981Y2.9059
X4.6981Y2.8059
X4.6981Y2.7059
X4.6981Y2.6059
X4.6981Y2.5059
X4.6981Y2.4059
X4.6981Y2.3059
X4.6981Y2.2059
X4.6981Y2.1059
X4.6981Y2.0059
T7
X4.2764Y1.3807
X4.4764Y1.3807
X4.6764Y1.3807
T3
G00X5.7158Y4.0362
M15
G01X5.7158Y4.0677
M16
G05
G00X5.7158Y3.6957
M15
G01X5.7158Y3.739
M16
G05
G00X6.2197Y4.0362
M15
G01X6.2197Y4.0677
M16
G05
G00X6.2197Y3.6957
M15
G01X6.2197Y3.739
M16
G05
G00X6.467Y1.437
M15
G01X6.467Y1.3937
M16
G05
G00X6.467Y1.2626
M15
G01X6.467Y1.239
M16
G05
G00X6.6164Y2.6265
M15
G01X6.6597Y2.6265
M16
G05
G00X6.6164Y2.2864
M15
G01X6.6597Y2.2864
M16
G05
G00X6.7908Y2.6265
M15
G01X6.8144Y2.6265
M16
G05
G00X6.7908Y2.2864
M15
G01X6.8144Y2.2864
M16
G05
G00X6.8071Y1.437
M15
G01X6.8071Y1.3937
M16
G05
G00X6.8071Y1.2626
M15
G01X6.8071Y1.239
M16
G05
T5
G00X6.4759Y2.1634
M15
G01X6.5467Y2.1634
M16
G05
G00X6.4759Y1.5926
M15
G01X6.5467Y1.5926
M16
G05
G00X6.7302Y2.1634
M15
G01X6.7617Y2.1634
M16
G05
G00X6.7302Y1.5926
M15
G01X6.7617Y1.5926
M16
G05
T0
M30
