%TF.GenerationSoftware,KiCad,Pcbnew,7.99.0-unknown*%
%TF.CreationDate,2023-12-09T11:39:08-05:00*%
%TF.ProjectId,carrier,63617272-6965-4722-9e6b-696361645f70,V3*%
%TF.SameCoordinates,Original*%
%TF.FileFunction,Soldermask,Top*%
%TF.FilePolarity,Negative*%
%FSLAX46Y46*%
G04 Gerber Fmt 4.6, Leading zero omitted, Abs format (unit mm)*
G04 Created by KiCad (PCBNEW 7.99.0-unknown) date 2023-12-09 11:39:08*
%MOMM*%
%LPD*%
G01*
G04 APERTURE LIST*
G04 Aperture macros list*
%AMRoundRect*
0 Rectangle with rounded corners*
0 $1 Rounding radius*
0 $2 $3 $4 $5 $6 $7 $8 $9 X,Y pos of 4 corners*
0 Add a 4 corners polygon primitive as box body*
4,1,4,$2,$3,$4,$5,$6,$7,$8,$9,$2,$3,0*
0 Add four circle primitives for the rounded corners*
1,1,$1+$1,$2,$3*
1,1,$1+$1,$4,$5*
1,1,$1+$1,$6,$7*
1,1,$1+$1,$8,$9*
0 Add four rect primitives between the rounded corners*
20,1,$1+$1,$2,$3,$4,$5,0*
20,1,$1+$1,$4,$5,$6,$7,0*
20,1,$1+$1,$6,$7,$8,$9,0*
20,1,$1+$1,$8,$9,$2,$3,0*%
G04 Aperture macros list end*
%ADD10C,0.010000*%
%ADD11RoundRect,0.200000X0.275000X-0.200000X0.275000X0.200000X-0.275000X0.200000X-0.275000X-0.200000X0*%
%ADD12RoundRect,0.135000X0.135000X0.185000X-0.135000X0.185000X-0.135000X-0.185000X0.135000X-0.185000X0*%
%ADD13RoundRect,0.140000X-0.170000X0.140000X-0.170000X-0.140000X0.170000X-0.140000X0.170000X0.140000X0*%
%ADD14RoundRect,0.135000X-0.135000X-0.185000X0.135000X-0.185000X0.135000X0.185000X-0.135000X0.185000X0*%
%ADD15R,0.350000X0.375000*%
%ADD16R,0.375000X0.350000*%
%ADD17RoundRect,0.250000X0.550000X-1.500000X0.550000X1.500000X-0.550000X1.500000X-0.550000X-1.500000X0*%
%ADD18RoundRect,0.140000X0.170000X-0.140000X0.170000X0.140000X-0.170000X0.140000X-0.170000X-0.140000X0*%
%ADD19R,0.800000X0.700000*%
%ADD20RoundRect,0.140000X-0.140000X-0.170000X0.140000X-0.170000X0.140000X0.170000X-0.140000X0.170000X0*%
%ADD21RoundRect,0.250000X-0.650000X1.000000X-0.650000X-1.000000X0.650000X-1.000000X0.650000X1.000000X0*%
%ADD22RoundRect,0.200000X0.200000X0.450000X-0.200000X0.450000X-0.200000X-0.450000X0.200000X-0.450000X0*%
%ADD23O,0.800000X1.300000*%
%ADD24RoundRect,0.250000X0.325000X0.650000X-0.325000X0.650000X-0.325000X-0.650000X0.325000X-0.650000X0*%
%ADD25RoundRect,0.200000X0.200000X0.275000X-0.200000X0.275000X-0.200000X-0.275000X0.200000X-0.275000X0*%
%ADD26RoundRect,0.140000X0.140000X0.170000X-0.140000X0.170000X-0.140000X-0.170000X0.140000X-0.170000X0*%
%ADD27C,0.650000*%
%ADD28R,1.450000X0.600000*%
%ADD29R,1.450000X0.300000*%
%ADD30O,2.100000X1.000000*%
%ADD31O,1.600000X1.000000*%
%ADD32RoundRect,0.135000X0.185000X-0.135000X0.185000X0.135000X-0.185000X0.135000X-0.185000X-0.135000X0*%
%ADD33R,0.300000X0.550000*%
%ADD34R,0.400000X0.550000*%
%ADD35RoundRect,0.218750X0.218750X0.256250X-0.218750X0.256250X-0.218750X-0.256250X0.218750X-0.256250X0*%
%ADD36RoundRect,0.225000X0.225000X0.250000X-0.225000X0.250000X-0.225000X-0.250000X0.225000X-0.250000X0*%
%ADD37R,0.700000X0.200000*%
%ADD38RoundRect,0.150000X-0.150000X0.587500X-0.150000X-0.587500X0.150000X-0.587500X0.150000X0.587500X0*%
%ADD39RoundRect,0.135000X-0.185000X0.135000X-0.185000X-0.135000X0.185000X-0.135000X0.185000X0.135000X0*%
%ADD40RoundRect,0.200000X-0.200000X-0.275000X0.200000X-0.275000X0.200000X0.275000X-0.200000X0.275000X0*%
%ADD41R,1.700000X1.700000*%
%ADD42O,1.700000X1.700000*%
%ADD43RoundRect,0.250000X-1.500000X-0.550000X1.500000X-0.550000X1.500000X0.550000X-1.500000X0.550000X0*%
%ADD44RoundRect,0.225000X0.250000X-0.225000X0.250000X0.225000X-0.250000X0.225000X-0.250000X-0.225000X0*%
%ADD45RoundRect,0.218750X-0.218750X-0.256250X0.218750X-0.256250X0.218750X0.256250X-0.218750X0.256250X0*%
%ADD46R,0.550000X0.300000*%
%ADD47R,0.550000X0.400000*%
%ADD48RoundRect,0.250000X0.850000X-0.375000X0.850000X0.375000X-0.850000X0.375000X-0.850000X-0.375000X0*%
%ADD49C,3.200000*%
%ADD50R,3.000000X3.000000*%
%ADD51C,3.000000*%
%ADD52RoundRect,0.150000X0.150000X-0.587500X0.150000X0.587500X-0.150000X0.587500X-0.150000X-0.587500X0*%
%ADD53RoundRect,0.200000X-0.450000X0.200000X-0.450000X-0.200000X0.450000X-0.200000X0.450000X0.200000X0*%
%ADD54O,1.300000X0.800000*%
%ADD55R,0.800000X0.900000*%
%ADD56R,0.750000X2.290000*%
%ADD57RoundRect,0.250000X1.000000X0.650000X-1.000000X0.650000X-1.000000X-0.650000X1.000000X-0.650000X0*%
%ADD58R,2.600000X0.300000*%
%ADD59O,3.300000X1.500000*%
%ADD60O,2.300000X1.500000*%
%ADD61RoundRect,0.250000X0.650000X-0.325000X0.650000X0.325000X-0.650000X0.325000X-0.650000X-0.325000X0*%
%ADD62RoundRect,0.218750X0.381250X-0.218750X0.381250X0.218750X-0.381250X0.218750X-0.381250X-0.218750X0*%
%ADD63RoundRect,0.250000X-0.650000X0.325000X-0.650000X-0.325000X0.650000X-0.325000X0.650000X0.325000X0*%
%ADD64RoundRect,0.150000X-0.512500X-0.150000X0.512500X-0.150000X0.512500X0.150000X-0.512500X0.150000X0*%
%ADD65R,1.000000X0.750000*%
%ADD66RoundRect,0.200000X-0.275000X0.200000X-0.275000X-0.200000X0.275000X-0.200000X0.275000X0.200000X0*%
%ADD67R,2.286000X1.854500*%
%ADD68RoundRect,0.112500X0.112500X-0.187500X0.112500X0.187500X-0.112500X0.187500X-0.112500X-0.187500X0*%
%ADD69RoundRect,0.250000X0.350000X0.350000X-0.350000X0.350000X-0.350000X-0.350000X0.350000X-0.350000X0*%
%ADD70C,1.200000*%
%ADD71O,1.200000X2.400000*%
%ADD72O,1.200000X2.100000*%
%ADD73R,0.590000X0.350000*%
%ADD74R,0.350000X0.590000*%
%ADD75RoundRect,0.150000X0.150000X-0.512500X0.150000X0.512500X-0.150000X0.512500X-0.150000X-0.512500X0*%
%ADD76RoundRect,0.125000X0.137500X-0.125000X0.137500X0.125000X-0.137500X0.125000X-0.137500X-0.125000X0*%
%ADD77RoundRect,0.062500X0.062500X-0.362500X0.062500X0.362500X-0.062500X0.362500X-0.062500X-0.362500X0*%
%ADD78RoundRect,0.062500X0.362500X-0.062500X0.362500X0.062500X-0.362500X0.062500X-0.362500X-0.062500X0*%
%ADD79R,5.450000X5.450000*%
%ADD80RoundRect,0.144000X0.943000X0.258000X-0.943000X0.258000X-0.943000X-0.258000X0.943000X-0.258000X0*%
%ADD81RoundRect,0.102000X0.175000X-0.245000X0.175000X0.245000X-0.175000X0.245000X-0.175000X-0.245000X0*%
%ADD82RoundRect,0.102000X-0.175000X0.245000X-0.175000X-0.245000X0.175000X-0.245000X0.175000X0.245000X0*%
%ADD83RoundRect,0.102000X0.800000X-0.100000X0.800000X0.100000X-0.800000X0.100000X-0.800000X-0.100000X0*%
%ADD84R,0.600000X1.450000*%
%ADD85R,0.300000X1.450000*%
%ADD86O,1.000000X2.100000*%
%ADD87O,1.000000X1.600000*%
G04 APERTURE END LIST*
D10*
%TO.C,U12*%
X8565995Y24289000D02*
X8571995Y24289000D01*
X8576995Y24288000D01*
X8581995Y24287000D01*
X8586995Y24285000D01*
X8591995Y24283000D01*
X8596995Y24281000D01*
X8600995Y24279000D01*
X8605995Y24277000D01*
X8609995Y24274000D01*
X8614995Y24271000D01*
X8618995Y24268000D01*
X8622995Y24264000D01*
X8626995Y24261000D01*
X8629995Y24257000D01*
X8633995Y24253000D01*
X8636995Y24249000D01*
X8639995Y24244000D01*
X8642995Y24240000D01*
X8644995Y24235000D01*
X8646995Y24231000D01*
X8648995Y24226000D01*
X8650995Y24221000D01*
X8652995Y24216000D01*
X8653995Y24211000D01*
X8654995Y24206000D01*
X8654995Y24200000D01*
X8655995Y24195000D01*
X8655995Y24190000D01*
X8655995Y23990000D01*
X8655995Y23985000D01*
X8654995Y23980000D01*
X8654995Y23974000D01*
X8653995Y23969000D01*
X8652995Y23964000D01*
X8650995Y23959000D01*
X8648995Y23954000D01*
X8646995Y23949000D01*
X8644995Y23945000D01*
X8642995Y23940000D01*
X8639995Y23936000D01*
X8636995Y23931000D01*
X8633995Y23927000D01*
X8629995Y23923000D01*
X8626995Y23919000D01*
X8622995Y23916000D01*
X8618995Y23912000D01*
X8614995Y23909000D01*
X8609995Y23906000D01*
X8605995Y23903000D01*
X8600995Y23901000D01*
X8596995Y23899000D01*
X8591995Y23897000D01*
X8586995Y23895000D01*
X8581995Y23893000D01*
X8576995Y23892000D01*
X8571995Y23891000D01*
X8565995Y23891000D01*
X8560995Y23890000D01*
X8555995Y23890000D01*
X6255995Y23890000D01*
X6250995Y23890000D01*
X6245995Y23891000D01*
X6239995Y23891000D01*
X6234995Y23892000D01*
X6229995Y23893000D01*
X6224995Y23895000D01*
X6219995Y23897000D01*
X6214995Y23899000D01*
X6210995Y23901000D01*
X6205995Y23903000D01*
X6201995Y23906000D01*
X6196995Y23909000D01*
X6192995Y23912000D01*
X6188995Y23916000D01*
X6184995Y23919000D01*
X6181995Y23923000D01*
X6177995Y23927000D01*
X6174995Y23931000D01*
X6171995Y23936000D01*
X6168995Y23940000D01*
X6166995Y23945000D01*
X6164995Y23949000D01*
X6162995Y23954000D01*
X6160995Y23959000D01*
X6158995Y23964000D01*
X6157995Y23969000D01*
X6156995Y23974000D01*
X6156995Y23980000D01*
X6155995Y23985000D01*
X6155995Y23990000D01*
X6155995Y24190000D01*
X6155995Y24195000D01*
X6156995Y24200000D01*
X6156995Y24206000D01*
X6157995Y24211000D01*
X6158995Y24216000D01*
X6160995Y24221000D01*
X6162995Y24226000D01*
X6164995Y24231000D01*
X6166995Y24235000D01*
X6168995Y24240000D01*
X6171995Y24244000D01*
X6174995Y24249000D01*
X6177995Y24253000D01*
X6181995Y24257000D01*
X6184995Y24261000D01*
X6188995Y24264000D01*
X6192995Y24268000D01*
X6196995Y24271000D01*
X6201995Y24274000D01*
X6205995Y24277000D01*
X6210995Y24279000D01*
X6214995Y24281000D01*
X6219995Y24283000D01*
X6224995Y24285000D01*
X6229995Y24287000D01*
X6234995Y24288000D01*
X6239995Y24289000D01*
X6245995Y24289000D01*
X6250995Y24290000D01*
X6255995Y24290000D01*
X8555995Y24290000D01*
X8560995Y24290000D01*
X8565995Y24289000D01*
G36*
X8565995Y24289000D02*
G01*
X8571995Y24289000D01*
X8576995Y24288000D01*
X8581995Y24287000D01*
X8586995Y24285000D01*
X8591995Y24283000D01*
X8596995Y24281000D01*
X8600995Y24279000D01*
X8605995Y24277000D01*
X8609995Y24274000D01*
X8614995Y24271000D01*
X8618995Y24268000D01*
X8622995Y24264000D01*
X8626995Y24261000D01*
X8629995Y24257000D01*
X8633995Y24253000D01*
X8636995Y24249000D01*
X8639995Y24244000D01*
X8642995Y24240000D01*
X8644995Y24235000D01*
X8646995Y24231000D01*
X8648995Y24226000D01*
X8650995Y24221000D01*
X8652995Y24216000D01*
X8653995Y24211000D01*
X8654995Y24206000D01*
X8654995Y24200000D01*
X8655995Y24195000D01*
X8655995Y24190000D01*
X8655995Y23990000D01*
X8655995Y23985000D01*
X8654995Y23980000D01*
X8654995Y23974000D01*
X8653995Y23969000D01*
X8652995Y23964000D01*
X8650995Y23959000D01*
X8648995Y23954000D01*
X8646995Y23949000D01*
X8644995Y23945000D01*
X8642995Y23940000D01*
X8639995Y23936000D01*
X8636995Y23931000D01*
X8633995Y23927000D01*
X8629995Y23923000D01*
X8626995Y23919000D01*
X8622995Y23916000D01*
X8618995Y23912000D01*
X8614995Y23909000D01*
X8609995Y23906000D01*
X8605995Y23903000D01*
X8600995Y23901000D01*
X8596995Y23899000D01*
X8591995Y23897000D01*
X8586995Y23895000D01*
X8581995Y23893000D01*
X8576995Y23892000D01*
X8571995Y23891000D01*
X8565995Y23891000D01*
X8560995Y23890000D01*
X8555995Y23890000D01*
X6255995Y23890000D01*
X6250995Y23890000D01*
X6245995Y23891000D01*
X6239995Y23891000D01*
X6234995Y23892000D01*
X6229995Y23893000D01*
X6224995Y23895000D01*
X6219995Y23897000D01*
X6214995Y23899000D01*
X6210995Y23901000D01*
X6205995Y23903000D01*
X6201995Y23906000D01*
X6196995Y23909000D01*
X6192995Y23912000D01*
X6188995Y23916000D01*
X6184995Y23919000D01*
X6181995Y23923000D01*
X6177995Y23927000D01*
X6174995Y23931000D01*
X6171995Y23936000D01*
X6168995Y23940000D01*
X6166995Y23945000D01*
X6164995Y23949000D01*
X6162995Y23954000D01*
X6160995Y23959000D01*
X6158995Y23964000D01*
X6157995Y23969000D01*
X6156995Y23974000D01*
X6156995Y23980000D01*
X6155995Y23985000D01*
X6155995Y23990000D01*
X6155995Y24190000D01*
X6155995Y24195000D01*
X6156995Y24200000D01*
X6156995Y24206000D01*
X6157995Y24211000D01*
X6158995Y24216000D01*
X6160995Y24221000D01*
X6162995Y24226000D01*
X6164995Y24231000D01*
X6166995Y24235000D01*
X6168995Y24240000D01*
X6171995Y24244000D01*
X6174995Y24249000D01*
X6177995Y24253000D01*
X6181995Y24257000D01*
X6184995Y24261000D01*
X6188995Y24264000D01*
X6192995Y24268000D01*
X6196995Y24271000D01*
X6201995Y24274000D01*
X6205995Y24277000D01*
X6210995Y24279000D01*
X6214995Y24281000D01*
X6219995Y24283000D01*
X6224995Y24285000D01*
X6229995Y24287000D01*
X6234995Y24288000D01*
X6239995Y24289000D01*
X6245995Y24289000D01*
X6250995Y24290000D01*
X6255995Y24290000D01*
X8555995Y24290000D01*
X8560995Y24290000D01*
X8565995Y24289000D01*
G37*
X7265995Y25589000D02*
X7271995Y25589000D01*
X7276995Y25588000D01*
X7281995Y25587000D01*
X7286995Y25585000D01*
X7291995Y25583000D01*
X7296995Y25581000D01*
X7300995Y25579000D01*
X7305995Y25577000D01*
X7309995Y25574000D01*
X7314995Y25571000D01*
X7318995Y25568000D01*
X7322995Y25564000D01*
X7326995Y25561000D01*
X7329995Y25557000D01*
X7333995Y25553000D01*
X7336995Y25549000D01*
X7339995Y25544000D01*
X7342995Y25540000D01*
X7344995Y25535000D01*
X7346995Y25531000D01*
X7348995Y25526000D01*
X7350995Y25521000D01*
X7352995Y25516000D01*
X7353995Y25511000D01*
X7354995Y25506000D01*
X7354995Y25500000D01*
X7355995Y25495000D01*
X7355995Y25490000D01*
X7355995Y24990000D01*
X7355995Y24985000D01*
X7354995Y24980000D01*
X7354995Y24974000D01*
X7353995Y24969000D01*
X7352995Y24964000D01*
X7350995Y24959000D01*
X7348995Y24954000D01*
X7346995Y24949000D01*
X7344995Y24945000D01*
X7342995Y24940000D01*
X7339995Y24936000D01*
X7336995Y24931000D01*
X7333995Y24927000D01*
X7329995Y24923000D01*
X7326995Y24919000D01*
X7322995Y24916000D01*
X7318995Y24912000D01*
X7314995Y24909000D01*
X7309995Y24906000D01*
X7305995Y24903000D01*
X7300995Y24901000D01*
X7296995Y24899000D01*
X7291995Y24897000D01*
X7286995Y24895000D01*
X7281995Y24893000D01*
X7276995Y24892000D01*
X7271995Y24891000D01*
X7265995Y24891000D01*
X7260995Y24890000D01*
X7255995Y24890000D01*
X7105995Y24890000D01*
X7100995Y24890000D01*
X7095995Y24891000D01*
X7089995Y24891000D01*
X7084995Y24892000D01*
X7079995Y24893000D01*
X7074995Y24895000D01*
X7069995Y24897000D01*
X7064995Y24899000D01*
X7060995Y24901000D01*
X7055995Y24903000D01*
X7051995Y24906000D01*
X7046995Y24909000D01*
X7042995Y24912000D01*
X7038995Y24916000D01*
X7034995Y24919000D01*
X7031995Y24923000D01*
X7027995Y24927000D01*
X7024995Y24931000D01*
X7021995Y24936000D01*
X7018995Y24940000D01*
X7016995Y24945000D01*
X7014995Y24949000D01*
X7012995Y24954000D01*
X7010995Y24959000D01*
X7008995Y24964000D01*
X7007995Y24969000D01*
X7006995Y24974000D01*
X7006995Y24980000D01*
X7005995Y24985000D01*
X7005995Y24990000D01*
X7005995Y25490000D01*
X7005995Y25495000D01*
X7006995Y25500000D01*
X7006995Y25506000D01*
X7007995Y25511000D01*
X7008995Y25516000D01*
X7010995Y25521000D01*
X7012995Y25526000D01*
X7014995Y25531000D01*
X7016995Y25535000D01*
X7018995Y25540000D01*
X7021995Y25544000D01*
X7024995Y25549000D01*
X7027995Y25553000D01*
X7031995Y25557000D01*
X7034995Y25561000D01*
X7038995Y25564000D01*
X7042995Y25568000D01*
X7046995Y25571000D01*
X7051995Y25574000D01*
X7055995Y25577000D01*
X7060995Y25579000D01*
X7064995Y25581000D01*
X7069995Y25583000D01*
X7074995Y25585000D01*
X7079995Y25587000D01*
X7084995Y25588000D01*
X7089995Y25589000D01*
X7095995Y25589000D01*
X7100995Y25590000D01*
X7105995Y25590000D01*
X7255995Y25590000D01*
X7260995Y25590000D01*
X7265995Y25589000D01*
G36*
X7265995Y25589000D02*
G01*
X7271995Y25589000D01*
X7276995Y25588000D01*
X7281995Y25587000D01*
X7286995Y25585000D01*
X7291995Y25583000D01*
X7296995Y25581000D01*
X7300995Y25579000D01*
X7305995Y25577000D01*
X7309995Y25574000D01*
X7314995Y25571000D01*
X7318995Y25568000D01*
X7322995Y25564000D01*
X7326995Y25561000D01*
X7329995Y25557000D01*
X7333995Y25553000D01*
X7336995Y25549000D01*
X7339995Y25544000D01*
X7342995Y25540000D01*
X7344995Y25535000D01*
X7346995Y25531000D01*
X7348995Y25526000D01*
X7350995Y25521000D01*
X7352995Y25516000D01*
X7353995Y25511000D01*
X7354995Y25506000D01*
X7354995Y25500000D01*
X7355995Y25495000D01*
X7355995Y25490000D01*
X7355995Y24990000D01*
X7355995Y24985000D01*
X7354995Y24980000D01*
X7354995Y24974000D01*
X7353995Y24969000D01*
X7352995Y24964000D01*
X7350995Y24959000D01*
X7348995Y24954000D01*
X7346995Y24949000D01*
X7344995Y24945000D01*
X7342995Y24940000D01*
X7339995Y24936000D01*
X7336995Y24931000D01*
X7333995Y24927000D01*
X7329995Y24923000D01*
X7326995Y24919000D01*
X7322995Y24916000D01*
X7318995Y24912000D01*
X7314995Y24909000D01*
X7309995Y24906000D01*
X7305995Y24903000D01*
X7300995Y24901000D01*
X7296995Y24899000D01*
X7291995Y24897000D01*
X7286995Y24895000D01*
X7281995Y24893000D01*
X7276995Y24892000D01*
X7271995Y24891000D01*
X7265995Y24891000D01*
X7260995Y24890000D01*
X7255995Y24890000D01*
X7105995Y24890000D01*
X7100995Y24890000D01*
X7095995Y24891000D01*
X7089995Y24891000D01*
X7084995Y24892000D01*
X7079995Y24893000D01*
X7074995Y24895000D01*
X7069995Y24897000D01*
X7064995Y24899000D01*
X7060995Y24901000D01*
X7055995Y24903000D01*
X7051995Y24906000D01*
X7046995Y24909000D01*
X7042995Y24912000D01*
X7038995Y24916000D01*
X7034995Y24919000D01*
X7031995Y24923000D01*
X7027995Y24927000D01*
X7024995Y24931000D01*
X7021995Y24936000D01*
X7018995Y24940000D01*
X7016995Y24945000D01*
X7014995Y24949000D01*
X7012995Y24954000D01*
X7010995Y24959000D01*
X7008995Y24964000D01*
X7007995Y24969000D01*
X7006995Y24974000D01*
X7006995Y24980000D01*
X7005995Y24985000D01*
X7005995Y24990000D01*
X7005995Y25490000D01*
X7005995Y25495000D01*
X7006995Y25500000D01*
X7006995Y25506000D01*
X7007995Y25511000D01*
X7008995Y25516000D01*
X7010995Y25521000D01*
X7012995Y25526000D01*
X7014995Y25531000D01*
X7016995Y25535000D01*
X7018995Y25540000D01*
X7021995Y25544000D01*
X7024995Y25549000D01*
X7027995Y25553000D01*
X7031995Y25557000D01*
X7034995Y25561000D01*
X7038995Y25564000D01*
X7042995Y25568000D01*
X7046995Y25571000D01*
X7051995Y25574000D01*
X7055995Y25577000D01*
X7060995Y25579000D01*
X7064995Y25581000D01*
X7069995Y25583000D01*
X7074995Y25585000D01*
X7079995Y25587000D01*
X7084995Y25588000D01*
X7089995Y25589000D01*
X7095995Y25589000D01*
X7100995Y25590000D01*
X7105995Y25590000D01*
X7255995Y25590000D01*
X7260995Y25590000D01*
X7265995Y25589000D01*
G37*
X7265995Y23789000D02*
X7271995Y23789000D01*
X7276995Y23788000D01*
X7281995Y23787000D01*
X7286995Y23785000D01*
X7291995Y23783000D01*
X7296995Y23781000D01*
X7300995Y23779000D01*
X7305995Y23777000D01*
X7309995Y23774000D01*
X7314995Y23771000D01*
X7318995Y23768000D01*
X7322995Y23764000D01*
X7326995Y23761000D01*
X7329995Y23757000D01*
X7333995Y23753000D01*
X7336995Y23749000D01*
X7339995Y23744000D01*
X7342995Y23740000D01*
X7344995Y23735000D01*
X7346995Y23731000D01*
X7348995Y23726000D01*
X7350995Y23721000D01*
X7352995Y23716000D01*
X7353995Y23711000D01*
X7354995Y23706000D01*
X7354995Y23700000D01*
X7355995Y23695000D01*
X7355995Y23690000D01*
X7355995Y23190000D01*
X7355995Y23185000D01*
X7354995Y23180000D01*
X7354995Y23174000D01*
X7353995Y23169000D01*
X7352995Y23164000D01*
X7350995Y23159000D01*
X7348995Y23154000D01*
X7346995Y23149000D01*
X7344995Y23145000D01*
X7342995Y23140000D01*
X7339995Y23136000D01*
X7336995Y23131000D01*
X7333995Y23127000D01*
X7329995Y23123000D01*
X7326995Y23119000D01*
X7322995Y23116000D01*
X7318995Y23112000D01*
X7314995Y23109000D01*
X7309995Y23106000D01*
X7305995Y23103000D01*
X7300995Y23101000D01*
X7296995Y23099000D01*
X7291995Y23097000D01*
X7286995Y23095000D01*
X7281995Y23093000D01*
X7276995Y23092000D01*
X7271995Y23091000D01*
X7265995Y23091000D01*
X7260995Y23090000D01*
X7255995Y23090000D01*
X7105995Y23090000D01*
X7100995Y23090000D01*
X7095995Y23091000D01*
X7089995Y23091000D01*
X7084995Y23092000D01*
X7079995Y23093000D01*
X7074995Y23095000D01*
X7069995Y23097000D01*
X7064995Y23099000D01*
X7060995Y23101000D01*
X7055995Y23103000D01*
X7051995Y23106000D01*
X7046995Y23109000D01*
X7042995Y23112000D01*
X7038995Y23116000D01*
X7034995Y23119000D01*
X7031995Y23123000D01*
X7027995Y23127000D01*
X7024995Y23131000D01*
X7021995Y23136000D01*
X7018995Y23140000D01*
X7016995Y23145000D01*
X7014995Y23149000D01*
X7012995Y23154000D01*
X7010995Y23159000D01*
X7008995Y23164000D01*
X7007995Y23169000D01*
X7006995Y23174000D01*
X7006995Y23180000D01*
X7005995Y23185000D01*
X7005995Y23190000D01*
X7005995Y23690000D01*
X7005995Y23695000D01*
X7006995Y23700000D01*
X7006995Y23706000D01*
X7007995Y23711000D01*
X7008995Y23716000D01*
X7010995Y23721000D01*
X7012995Y23726000D01*
X7014995Y23731000D01*
X7016995Y23735000D01*
X7018995Y23740000D01*
X7021995Y23744000D01*
X7024995Y23749000D01*
X7027995Y23753000D01*
X7031995Y23757000D01*
X7034995Y23761000D01*
X7038995Y23764000D01*
X7042995Y23768000D01*
X7046995Y23771000D01*
X7051995Y23774000D01*
X7055995Y23777000D01*
X7060995Y23779000D01*
X7064995Y23781000D01*
X7069995Y23783000D01*
X7074995Y23785000D01*
X7079995Y23787000D01*
X7084995Y23788000D01*
X7089995Y23789000D01*
X7095995Y23789000D01*
X7100995Y23790000D01*
X7105995Y23790000D01*
X7255995Y23790000D01*
X7260995Y23790000D01*
X7265995Y23789000D01*
G36*
X7265995Y23789000D02*
G01*
X7271995Y23789000D01*
X7276995Y23788000D01*
X7281995Y23787000D01*
X7286995Y23785000D01*
X7291995Y23783000D01*
X7296995Y23781000D01*
X7300995Y23779000D01*
X7305995Y23777000D01*
X7309995Y23774000D01*
X7314995Y23771000D01*
X7318995Y23768000D01*
X7322995Y23764000D01*
X7326995Y23761000D01*
X7329995Y23757000D01*
X7333995Y23753000D01*
X7336995Y23749000D01*
X7339995Y23744000D01*
X7342995Y23740000D01*
X7344995Y23735000D01*
X7346995Y23731000D01*
X7348995Y23726000D01*
X7350995Y23721000D01*
X7352995Y23716000D01*
X7353995Y23711000D01*
X7354995Y23706000D01*
X7354995Y23700000D01*
X7355995Y23695000D01*
X7355995Y23690000D01*
X7355995Y23190000D01*
X7355995Y23185000D01*
X7354995Y23180000D01*
X7354995Y23174000D01*
X7353995Y23169000D01*
X7352995Y23164000D01*
X7350995Y23159000D01*
X7348995Y23154000D01*
X7346995Y23149000D01*
X7344995Y23145000D01*
X7342995Y23140000D01*
X7339995Y23136000D01*
X7336995Y23131000D01*
X7333995Y23127000D01*
X7329995Y23123000D01*
X7326995Y23119000D01*
X7322995Y23116000D01*
X7318995Y23112000D01*
X7314995Y23109000D01*
X7309995Y23106000D01*
X7305995Y23103000D01*
X7300995Y23101000D01*
X7296995Y23099000D01*
X7291995Y23097000D01*
X7286995Y23095000D01*
X7281995Y23093000D01*
X7276995Y23092000D01*
X7271995Y23091000D01*
X7265995Y23091000D01*
X7260995Y23090000D01*
X7255995Y23090000D01*
X7105995Y23090000D01*
X7100995Y23090000D01*
X7095995Y23091000D01*
X7089995Y23091000D01*
X7084995Y23092000D01*
X7079995Y23093000D01*
X7074995Y23095000D01*
X7069995Y23097000D01*
X7064995Y23099000D01*
X7060995Y23101000D01*
X7055995Y23103000D01*
X7051995Y23106000D01*
X7046995Y23109000D01*
X7042995Y23112000D01*
X7038995Y23116000D01*
X7034995Y23119000D01*
X7031995Y23123000D01*
X7027995Y23127000D01*
X7024995Y23131000D01*
X7021995Y23136000D01*
X7018995Y23140000D01*
X7016995Y23145000D01*
X7014995Y23149000D01*
X7012995Y23154000D01*
X7010995Y23159000D01*
X7008995Y23164000D01*
X7007995Y23169000D01*
X7006995Y23174000D01*
X7006995Y23180000D01*
X7005995Y23185000D01*
X7005995Y23190000D01*
X7005995Y23690000D01*
X7005995Y23695000D01*
X7006995Y23700000D01*
X7006995Y23706000D01*
X7007995Y23711000D01*
X7008995Y23716000D01*
X7010995Y23721000D01*
X7012995Y23726000D01*
X7014995Y23731000D01*
X7016995Y23735000D01*
X7018995Y23740000D01*
X7021995Y23744000D01*
X7024995Y23749000D01*
X7027995Y23753000D01*
X7031995Y23757000D01*
X7034995Y23761000D01*
X7038995Y23764000D01*
X7042995Y23768000D01*
X7046995Y23771000D01*
X7051995Y23774000D01*
X7055995Y23777000D01*
X7060995Y23779000D01*
X7064995Y23781000D01*
X7069995Y23783000D01*
X7074995Y23785000D01*
X7079995Y23787000D01*
X7084995Y23788000D01*
X7089995Y23789000D01*
X7095995Y23789000D01*
X7100995Y23790000D01*
X7105995Y23790000D01*
X7255995Y23790000D01*
X7260995Y23790000D01*
X7265995Y23789000D01*
G37*
X7715995Y25589000D02*
X7721995Y25589000D01*
X7726995Y25588000D01*
X7731995Y25587000D01*
X7736995Y25585000D01*
X7741995Y25583000D01*
X7746995Y25581000D01*
X7750995Y25579000D01*
X7755995Y25577000D01*
X7759995Y25574000D01*
X7764995Y25571000D01*
X7768995Y25568000D01*
X7772995Y25564000D01*
X7776995Y25561000D01*
X7779995Y25557000D01*
X7783995Y25553000D01*
X7786995Y25549000D01*
X7789995Y25544000D01*
X7792995Y25540000D01*
X7794995Y25535000D01*
X7796995Y25531000D01*
X7798995Y25526000D01*
X7800995Y25521000D01*
X7802995Y25516000D01*
X7803995Y25511000D01*
X7804995Y25506000D01*
X7804995Y25500000D01*
X7805995Y25495000D01*
X7805995Y25490000D01*
X7805995Y24990000D01*
X7805995Y24985000D01*
X7804995Y24980000D01*
X7804995Y24974000D01*
X7803995Y24969000D01*
X7802995Y24964000D01*
X7800995Y24959000D01*
X7798995Y24954000D01*
X7796995Y24949000D01*
X7794995Y24945000D01*
X7792995Y24940000D01*
X7789995Y24936000D01*
X7786995Y24931000D01*
X7783995Y24927000D01*
X7779995Y24923000D01*
X7776995Y24919000D01*
X7772995Y24916000D01*
X7768995Y24912000D01*
X7764995Y24909000D01*
X7759995Y24906000D01*
X7755995Y24903000D01*
X7750995Y24901000D01*
X7746995Y24899000D01*
X7741995Y24897000D01*
X7736995Y24895000D01*
X7731995Y24893000D01*
X7726995Y24892000D01*
X7721995Y24891000D01*
X7715995Y24891000D01*
X7710995Y24890000D01*
X7705995Y24890000D01*
X7555995Y24890000D01*
X7550995Y24890000D01*
X7545995Y24891000D01*
X7539995Y24891000D01*
X7534995Y24892000D01*
X7529995Y24893000D01*
X7524995Y24895000D01*
X7519995Y24897000D01*
X7514995Y24899000D01*
X7510995Y24901000D01*
X7505995Y24903000D01*
X7501995Y24906000D01*
X7496995Y24909000D01*
X7492995Y24912000D01*
X7488995Y24916000D01*
X7484995Y24919000D01*
X7481995Y24923000D01*
X7477995Y24927000D01*
X7474995Y24931000D01*
X7471995Y24936000D01*
X7468995Y24940000D01*
X7466995Y24945000D01*
X7464995Y24949000D01*
X7462995Y24954000D01*
X7460995Y24959000D01*
X7458995Y24964000D01*
X7457995Y24969000D01*
X7456995Y24974000D01*
X7456995Y24980000D01*
X7455995Y24985000D01*
X7455995Y24990000D01*
X7455995Y25490000D01*
X7455995Y25495000D01*
X7456995Y25500000D01*
X7456995Y25506000D01*
X7457995Y25511000D01*
X7458995Y25516000D01*
X7460995Y25521000D01*
X7462995Y25526000D01*
X7464995Y25531000D01*
X7466995Y25535000D01*
X7468995Y25540000D01*
X7471995Y25544000D01*
X7474995Y25549000D01*
X7477995Y25553000D01*
X7481995Y25557000D01*
X7484995Y25561000D01*
X7488995Y25564000D01*
X7492995Y25568000D01*
X7496995Y25571000D01*
X7501995Y25574000D01*
X7505995Y25577000D01*
X7510995Y25579000D01*
X7514995Y25581000D01*
X7519995Y25583000D01*
X7524995Y25585000D01*
X7529995Y25587000D01*
X7534995Y25588000D01*
X7539995Y25589000D01*
X7545995Y25589000D01*
X7550995Y25590000D01*
X7555995Y25590000D01*
X7705995Y25590000D01*
X7710995Y25590000D01*
X7715995Y25589000D01*
G36*
X7715995Y25589000D02*
G01*
X7721995Y25589000D01*
X7726995Y25588000D01*
X7731995Y25587000D01*
X7736995Y25585000D01*
X7741995Y25583000D01*
X7746995Y25581000D01*
X7750995Y25579000D01*
X7755995Y25577000D01*
X7759995Y25574000D01*
X7764995Y25571000D01*
X7768995Y25568000D01*
X7772995Y25564000D01*
X7776995Y25561000D01*
X7779995Y25557000D01*
X7783995Y25553000D01*
X7786995Y25549000D01*
X7789995Y25544000D01*
X7792995Y25540000D01*
X7794995Y25535000D01*
X7796995Y25531000D01*
X7798995Y25526000D01*
X7800995Y25521000D01*
X7802995Y25516000D01*
X7803995Y25511000D01*
X7804995Y25506000D01*
X7804995Y25500000D01*
X7805995Y25495000D01*
X7805995Y25490000D01*
X7805995Y24990000D01*
X7805995Y24985000D01*
X7804995Y24980000D01*
X7804995Y24974000D01*
X7803995Y24969000D01*
X7802995Y24964000D01*
X7800995Y24959000D01*
X7798995Y24954000D01*
X7796995Y24949000D01*
X7794995Y24945000D01*
X7792995Y24940000D01*
X7789995Y24936000D01*
X7786995Y24931000D01*
X7783995Y24927000D01*
X7779995Y24923000D01*
X7776995Y24919000D01*
X7772995Y24916000D01*
X7768995Y24912000D01*
X7764995Y24909000D01*
X7759995Y24906000D01*
X7755995Y24903000D01*
X7750995Y24901000D01*
X7746995Y24899000D01*
X7741995Y24897000D01*
X7736995Y24895000D01*
X7731995Y24893000D01*
X7726995Y24892000D01*
X7721995Y24891000D01*
X7715995Y24891000D01*
X7710995Y24890000D01*
X7705995Y24890000D01*
X7555995Y24890000D01*
X7550995Y24890000D01*
X7545995Y24891000D01*
X7539995Y24891000D01*
X7534995Y24892000D01*
X7529995Y24893000D01*
X7524995Y24895000D01*
X7519995Y24897000D01*
X7514995Y24899000D01*
X7510995Y24901000D01*
X7505995Y24903000D01*
X7501995Y24906000D01*
X7496995Y24909000D01*
X7492995Y24912000D01*
X7488995Y24916000D01*
X7484995Y24919000D01*
X7481995Y24923000D01*
X7477995Y24927000D01*
X7474995Y24931000D01*
X7471995Y24936000D01*
X7468995Y24940000D01*
X7466995Y24945000D01*
X7464995Y24949000D01*
X7462995Y24954000D01*
X7460995Y24959000D01*
X7458995Y24964000D01*
X7457995Y24969000D01*
X7456995Y24974000D01*
X7456995Y24980000D01*
X7455995Y24985000D01*
X7455995Y24990000D01*
X7455995Y25490000D01*
X7455995Y25495000D01*
X7456995Y25500000D01*
X7456995Y25506000D01*
X7457995Y25511000D01*
X7458995Y25516000D01*
X7460995Y25521000D01*
X7462995Y25526000D01*
X7464995Y25531000D01*
X7466995Y25535000D01*
X7468995Y25540000D01*
X7471995Y25544000D01*
X7474995Y25549000D01*
X7477995Y25553000D01*
X7481995Y25557000D01*
X7484995Y25561000D01*
X7488995Y25564000D01*
X7492995Y25568000D01*
X7496995Y25571000D01*
X7501995Y25574000D01*
X7505995Y25577000D01*
X7510995Y25579000D01*
X7514995Y25581000D01*
X7519995Y25583000D01*
X7524995Y25585000D01*
X7529995Y25587000D01*
X7534995Y25588000D01*
X7539995Y25589000D01*
X7545995Y25589000D01*
X7550995Y25590000D01*
X7555995Y25590000D01*
X7705995Y25590000D01*
X7710995Y25590000D01*
X7715995Y25589000D01*
G37*
X7715995Y23789000D02*
X7721995Y23789000D01*
X7726995Y23788000D01*
X7731995Y23787000D01*
X7736995Y23785000D01*
X7741995Y23783000D01*
X7746995Y23781000D01*
X7750995Y23779000D01*
X7755995Y23777000D01*
X7759995Y23774000D01*
X7764995Y23771000D01*
X7768995Y23768000D01*
X7772995Y23764000D01*
X7776995Y23761000D01*
X7779995Y23757000D01*
X7783995Y23753000D01*
X7786995Y23749000D01*
X7789995Y23744000D01*
X7792995Y23740000D01*
X7794995Y23735000D01*
X7796995Y23731000D01*
X7798995Y23726000D01*
X7800995Y23721000D01*
X7802995Y23716000D01*
X7803995Y23711000D01*
X7804995Y23706000D01*
X7804995Y23700000D01*
X7805995Y23695000D01*
X7805995Y23690000D01*
X7805995Y23190000D01*
X7805995Y23185000D01*
X7804995Y23180000D01*
X7804995Y23174000D01*
X7803995Y23169000D01*
X7802995Y23164000D01*
X7800995Y23159000D01*
X7798995Y23154000D01*
X7796995Y23149000D01*
X7794995Y23145000D01*
X7792995Y23140000D01*
X7789995Y23136000D01*
X7786995Y23131000D01*
X7783995Y23127000D01*
X7779995Y23123000D01*
X7776995Y23119000D01*
X7772995Y23116000D01*
X7768995Y23112000D01*
X7764995Y23109000D01*
X7759995Y23106000D01*
X7755995Y23103000D01*
X7750995Y23101000D01*
X7746995Y23099000D01*
X7741995Y23097000D01*
X7736995Y23095000D01*
X7731995Y23093000D01*
X7726995Y23092000D01*
X7721995Y23091000D01*
X7715995Y23091000D01*
X7710995Y23090000D01*
X7705995Y23090000D01*
X7555995Y23090000D01*
X7550995Y23090000D01*
X7545995Y23091000D01*
X7539995Y23091000D01*
X7534995Y23092000D01*
X7529995Y23093000D01*
X7524995Y23095000D01*
X7519995Y23097000D01*
X7514995Y23099000D01*
X7510995Y23101000D01*
X7505995Y23103000D01*
X7501995Y23106000D01*
X7496995Y23109000D01*
X7492995Y23112000D01*
X7488995Y23116000D01*
X7484995Y23119000D01*
X7481995Y23123000D01*
X7477995Y23127000D01*
X7474995Y23131000D01*
X7471995Y23136000D01*
X7468995Y23140000D01*
X7466995Y23145000D01*
X7464995Y23149000D01*
X7462995Y23154000D01*
X7460995Y23159000D01*
X7458995Y23164000D01*
X7457995Y23169000D01*
X7456995Y23174000D01*
X7456995Y23180000D01*
X7455995Y23185000D01*
X7455995Y23190000D01*
X7455995Y23690000D01*
X7455995Y23695000D01*
X7456995Y23700000D01*
X7456995Y23706000D01*
X7457995Y23711000D01*
X7458995Y23716000D01*
X7460995Y23721000D01*
X7462995Y23726000D01*
X7464995Y23731000D01*
X7466995Y23735000D01*
X7468995Y23740000D01*
X7471995Y23744000D01*
X7474995Y23749000D01*
X7477995Y23753000D01*
X7481995Y23757000D01*
X7484995Y23761000D01*
X7488995Y23764000D01*
X7492995Y23768000D01*
X7496995Y23771000D01*
X7501995Y23774000D01*
X7505995Y23777000D01*
X7510995Y23779000D01*
X7514995Y23781000D01*
X7519995Y23783000D01*
X7524995Y23785000D01*
X7529995Y23787000D01*
X7534995Y23788000D01*
X7539995Y23789000D01*
X7545995Y23789000D01*
X7550995Y23790000D01*
X7555995Y23790000D01*
X7705995Y23790000D01*
X7710995Y23790000D01*
X7715995Y23789000D01*
G36*
X7715995Y23789000D02*
G01*
X7721995Y23789000D01*
X7726995Y23788000D01*
X7731995Y23787000D01*
X7736995Y23785000D01*
X7741995Y23783000D01*
X7746995Y23781000D01*
X7750995Y23779000D01*
X7755995Y23777000D01*
X7759995Y23774000D01*
X7764995Y23771000D01*
X7768995Y23768000D01*
X7772995Y23764000D01*
X7776995Y23761000D01*
X7779995Y23757000D01*
X7783995Y23753000D01*
X7786995Y23749000D01*
X7789995Y23744000D01*
X7792995Y23740000D01*
X7794995Y23735000D01*
X7796995Y23731000D01*
X7798995Y23726000D01*
X7800995Y23721000D01*
X7802995Y23716000D01*
X7803995Y23711000D01*
X7804995Y23706000D01*
X7804995Y23700000D01*
X7805995Y23695000D01*
X7805995Y23690000D01*
X7805995Y23190000D01*
X7805995Y23185000D01*
X7804995Y23180000D01*
X7804995Y23174000D01*
X7803995Y23169000D01*
X7802995Y23164000D01*
X7800995Y23159000D01*
X7798995Y23154000D01*
X7796995Y23149000D01*
X7794995Y23145000D01*
X7792995Y23140000D01*
X7789995Y23136000D01*
X7786995Y23131000D01*
X7783995Y23127000D01*
X7779995Y23123000D01*
X7776995Y23119000D01*
X7772995Y23116000D01*
X7768995Y23112000D01*
X7764995Y23109000D01*
X7759995Y23106000D01*
X7755995Y23103000D01*
X7750995Y23101000D01*
X7746995Y23099000D01*
X7741995Y23097000D01*
X7736995Y23095000D01*
X7731995Y23093000D01*
X7726995Y23092000D01*
X7721995Y23091000D01*
X7715995Y23091000D01*
X7710995Y23090000D01*
X7705995Y23090000D01*
X7555995Y23090000D01*
X7550995Y23090000D01*
X7545995Y23091000D01*
X7539995Y23091000D01*
X7534995Y23092000D01*
X7529995Y23093000D01*
X7524995Y23095000D01*
X7519995Y23097000D01*
X7514995Y23099000D01*
X7510995Y23101000D01*
X7505995Y23103000D01*
X7501995Y23106000D01*
X7496995Y23109000D01*
X7492995Y23112000D01*
X7488995Y23116000D01*
X7484995Y23119000D01*
X7481995Y23123000D01*
X7477995Y23127000D01*
X7474995Y23131000D01*
X7471995Y23136000D01*
X7468995Y23140000D01*
X7466995Y23145000D01*
X7464995Y23149000D01*
X7462995Y23154000D01*
X7460995Y23159000D01*
X7458995Y23164000D01*
X7457995Y23169000D01*
X7456995Y23174000D01*
X7456995Y23180000D01*
X7455995Y23185000D01*
X7455995Y23190000D01*
X7455995Y23690000D01*
X7455995Y23695000D01*
X7456995Y23700000D01*
X7456995Y23706000D01*
X7457995Y23711000D01*
X7458995Y23716000D01*
X7460995Y23721000D01*
X7462995Y23726000D01*
X7464995Y23731000D01*
X7466995Y23735000D01*
X7468995Y23740000D01*
X7471995Y23744000D01*
X7474995Y23749000D01*
X7477995Y23753000D01*
X7481995Y23757000D01*
X7484995Y23761000D01*
X7488995Y23764000D01*
X7492995Y23768000D01*
X7496995Y23771000D01*
X7501995Y23774000D01*
X7505995Y23777000D01*
X7510995Y23779000D01*
X7514995Y23781000D01*
X7519995Y23783000D01*
X7524995Y23785000D01*
X7529995Y23787000D01*
X7534995Y23788000D01*
X7539995Y23789000D01*
X7545995Y23789000D01*
X7550995Y23790000D01*
X7555995Y23790000D01*
X7705995Y23790000D01*
X7710995Y23790000D01*
X7715995Y23789000D01*
G37*
X8565995Y24789000D02*
X8571995Y24789000D01*
X8576995Y24788000D01*
X8581995Y24787000D01*
X8586995Y24785000D01*
X8591995Y24783000D01*
X8596995Y24781000D01*
X8600995Y24779000D01*
X8605995Y24777000D01*
X8609995Y24774000D01*
X8614995Y24771000D01*
X8618995Y24768000D01*
X8622995Y24764000D01*
X8626995Y24761000D01*
X8629995Y24757000D01*
X8633995Y24753000D01*
X8636995Y24749000D01*
X8639995Y24744000D01*
X8642995Y24740000D01*
X8644995Y24735000D01*
X8646995Y24731000D01*
X8648995Y24726000D01*
X8650995Y24721000D01*
X8652995Y24716000D01*
X8653995Y24711000D01*
X8654995Y24706000D01*
X8654995Y24700000D01*
X8655995Y24695000D01*
X8655995Y24690000D01*
X8655995Y24490000D01*
X8655995Y24485000D01*
X8654995Y24480000D01*
X8654995Y24474000D01*
X8653995Y24469000D01*
X8652995Y24464000D01*
X8650995Y24459000D01*
X8648995Y24454000D01*
X8646995Y24449000D01*
X8644995Y24445000D01*
X8642995Y24440000D01*
X8639995Y24436000D01*
X8636995Y24431000D01*
X8633995Y24427000D01*
X8629995Y24423000D01*
X8626995Y24419000D01*
X8622995Y24416000D01*
X8618995Y24412000D01*
X8614995Y24409000D01*
X8609995Y24406000D01*
X8605995Y24403000D01*
X8600995Y24401000D01*
X8596995Y24399000D01*
X8591995Y24397000D01*
X8586995Y24395000D01*
X8581995Y24393000D01*
X8576995Y24392000D01*
X8571995Y24391000D01*
X8565995Y24391000D01*
X8560995Y24390000D01*
X8555995Y24390000D01*
X6255995Y24390000D01*
X6250995Y24390000D01*
X6245995Y24391000D01*
X6239995Y24391000D01*
X6234995Y24392000D01*
X6229995Y24393000D01*
X6224995Y24395000D01*
X6219995Y24397000D01*
X6214995Y24399000D01*
X6210995Y24401000D01*
X6205995Y24403000D01*
X6201995Y24406000D01*
X6196995Y24409000D01*
X6192995Y24412000D01*
X6188995Y24416000D01*
X6184995Y24419000D01*
X6181995Y24423000D01*
X6177995Y24427000D01*
X6174995Y24431000D01*
X6171995Y24436000D01*
X6168995Y24440000D01*
X6166995Y24445000D01*
X6164995Y24449000D01*
X6162995Y24454000D01*
X6160995Y24459000D01*
X6158995Y24464000D01*
X6157995Y24469000D01*
X6156995Y24474000D01*
X6156995Y24480000D01*
X6155995Y24485000D01*
X6155995Y24490000D01*
X6155995Y24690000D01*
X6155995Y24695000D01*
X6156995Y24700000D01*
X6156995Y24706000D01*
X6157995Y24711000D01*
X6158995Y24716000D01*
X6160995Y24721000D01*
X6162995Y24726000D01*
X6164995Y24731000D01*
X6166995Y24735000D01*
X6168995Y24740000D01*
X6171995Y24744000D01*
X6174995Y24749000D01*
X6177995Y24753000D01*
X6181995Y24757000D01*
X6184995Y24761000D01*
X6188995Y24764000D01*
X6192995Y24768000D01*
X6196995Y24771000D01*
X6201995Y24774000D01*
X6205995Y24777000D01*
X6210995Y24779000D01*
X6214995Y24781000D01*
X6219995Y24783000D01*
X6224995Y24785000D01*
X6229995Y24787000D01*
X6234995Y24788000D01*
X6239995Y24789000D01*
X6245995Y24789000D01*
X6250995Y24790000D01*
X6255995Y24790000D01*
X8555995Y24790000D01*
X8560995Y24790000D01*
X8565995Y24789000D01*
G36*
X8565995Y24789000D02*
G01*
X8571995Y24789000D01*
X8576995Y24788000D01*
X8581995Y24787000D01*
X8586995Y24785000D01*
X8591995Y24783000D01*
X8596995Y24781000D01*
X8600995Y24779000D01*
X8605995Y24777000D01*
X8609995Y24774000D01*
X8614995Y24771000D01*
X8618995Y24768000D01*
X8622995Y24764000D01*
X8626995Y24761000D01*
X8629995Y24757000D01*
X8633995Y24753000D01*
X8636995Y24749000D01*
X8639995Y24744000D01*
X8642995Y24740000D01*
X8644995Y24735000D01*
X8646995Y24731000D01*
X8648995Y24726000D01*
X8650995Y24721000D01*
X8652995Y24716000D01*
X8653995Y24711000D01*
X8654995Y24706000D01*
X8654995Y24700000D01*
X8655995Y24695000D01*
X8655995Y24690000D01*
X8655995Y24490000D01*
X8655995Y24485000D01*
X8654995Y24480000D01*
X8654995Y24474000D01*
X8653995Y24469000D01*
X8652995Y24464000D01*
X8650995Y24459000D01*
X8648995Y24454000D01*
X8646995Y24449000D01*
X8644995Y24445000D01*
X8642995Y24440000D01*
X8639995Y24436000D01*
X8636995Y24431000D01*
X8633995Y24427000D01*
X8629995Y24423000D01*
X8626995Y24419000D01*
X8622995Y24416000D01*
X8618995Y24412000D01*
X8614995Y24409000D01*
X8609995Y24406000D01*
X8605995Y24403000D01*
X8600995Y24401000D01*
X8596995Y24399000D01*
X8591995Y24397000D01*
X8586995Y24395000D01*
X8581995Y24393000D01*
X8576995Y24392000D01*
X8571995Y24391000D01*
X8565995Y24391000D01*
X8560995Y24390000D01*
X8555995Y24390000D01*
X6255995Y24390000D01*
X6250995Y24390000D01*
X6245995Y24391000D01*
X6239995Y24391000D01*
X6234995Y24392000D01*
X6229995Y24393000D01*
X6224995Y24395000D01*
X6219995Y24397000D01*
X6214995Y24399000D01*
X6210995Y24401000D01*
X6205995Y24403000D01*
X6201995Y24406000D01*
X6196995Y24409000D01*
X6192995Y24412000D01*
X6188995Y24416000D01*
X6184995Y24419000D01*
X6181995Y24423000D01*
X6177995Y24427000D01*
X6174995Y24431000D01*
X6171995Y24436000D01*
X6168995Y24440000D01*
X6166995Y24445000D01*
X6164995Y24449000D01*
X6162995Y24454000D01*
X6160995Y24459000D01*
X6158995Y24464000D01*
X6157995Y24469000D01*
X6156995Y24474000D01*
X6156995Y24480000D01*
X6155995Y24485000D01*
X6155995Y24490000D01*
X6155995Y24690000D01*
X6155995Y24695000D01*
X6156995Y24700000D01*
X6156995Y24706000D01*
X6157995Y24711000D01*
X6158995Y24716000D01*
X6160995Y24721000D01*
X6162995Y24726000D01*
X6164995Y24731000D01*
X6166995Y24735000D01*
X6168995Y24740000D01*
X6171995Y24744000D01*
X6174995Y24749000D01*
X6177995Y24753000D01*
X6181995Y24757000D01*
X6184995Y24761000D01*
X6188995Y24764000D01*
X6192995Y24768000D01*
X6196995Y24771000D01*
X6201995Y24774000D01*
X6205995Y24777000D01*
X6210995Y24779000D01*
X6214995Y24781000D01*
X6219995Y24783000D01*
X6224995Y24785000D01*
X6229995Y24787000D01*
X6234995Y24788000D01*
X6239995Y24789000D01*
X6245995Y24789000D01*
X6250995Y24790000D01*
X6255995Y24790000D01*
X8555995Y24790000D01*
X8560995Y24790000D01*
X8565995Y24789000D01*
G37*
X6815995Y25589000D02*
X6821995Y25589000D01*
X6826995Y25588000D01*
X6831995Y25587000D01*
X6836995Y25585000D01*
X6841995Y25583000D01*
X6846995Y25581000D01*
X6850995Y25579000D01*
X6855995Y25577000D01*
X6859995Y25574000D01*
X6864995Y25571000D01*
X6868995Y25568000D01*
X6872995Y25564000D01*
X6876995Y25561000D01*
X6879995Y25557000D01*
X6883995Y25553000D01*
X6886995Y25549000D01*
X6889995Y25544000D01*
X6892995Y25540000D01*
X6894995Y25535000D01*
X6896995Y25531000D01*
X6898995Y25526000D01*
X6900995Y25521000D01*
X6902995Y25516000D01*
X6903995Y25511000D01*
X6904995Y25506000D01*
X6904995Y25500000D01*
X6905995Y25495000D01*
X6905995Y25490000D01*
X6905995Y24990000D01*
X6905995Y24985000D01*
X6904995Y24980000D01*
X6904995Y24974000D01*
X6903995Y24969000D01*
X6902995Y24964000D01*
X6900995Y24959000D01*
X6898995Y24954000D01*
X6896995Y24949000D01*
X6894995Y24945000D01*
X6892995Y24940000D01*
X6889995Y24936000D01*
X6886995Y24931000D01*
X6883995Y24927000D01*
X6879995Y24923000D01*
X6876995Y24919000D01*
X6872995Y24916000D01*
X6868995Y24912000D01*
X6864995Y24909000D01*
X6859995Y24906000D01*
X6855995Y24903000D01*
X6850995Y24901000D01*
X6846995Y24899000D01*
X6841995Y24897000D01*
X6836995Y24895000D01*
X6831995Y24893000D01*
X6826995Y24892000D01*
X6821995Y24891000D01*
X6815995Y24891000D01*
X6810995Y24890000D01*
X6805995Y24890000D01*
X6255995Y24890000D01*
X6250995Y24890000D01*
X6245995Y24891000D01*
X6239995Y24891000D01*
X6234995Y24892000D01*
X6229995Y24893000D01*
X6224995Y24895000D01*
X6219995Y24897000D01*
X6214995Y24899000D01*
X6210995Y24901000D01*
X6205995Y24903000D01*
X6201995Y24906000D01*
X6196995Y24909000D01*
X6192995Y24912000D01*
X6188995Y24916000D01*
X6184995Y24919000D01*
X6181995Y24923000D01*
X6177995Y24927000D01*
X6174995Y24931000D01*
X6171995Y24936000D01*
X6168995Y24940000D01*
X6166995Y24945000D01*
X6164995Y24949000D01*
X6162995Y24954000D01*
X6160995Y24959000D01*
X6158995Y24964000D01*
X6157995Y24969000D01*
X6156995Y24974000D01*
X6156995Y24980000D01*
X6155995Y24985000D01*
X6155995Y24990000D01*
X6155995Y25140000D01*
X6155995Y25145000D01*
X6156995Y25150000D01*
X6156995Y25156000D01*
X6157995Y25161000D01*
X6158995Y25166000D01*
X6160995Y25171000D01*
X6162995Y25176000D01*
X6164995Y25181000D01*
X6166995Y25185000D01*
X6168995Y25190000D01*
X6171995Y25194000D01*
X6174995Y25199000D01*
X6177995Y25203000D01*
X6181995Y25207000D01*
X6184995Y25211000D01*
X6188995Y25214000D01*
X6192995Y25218000D01*
X6196995Y25221000D01*
X6201995Y25224000D01*
X6205995Y25227000D01*
X6210995Y25229000D01*
X6214995Y25231000D01*
X6219995Y25233000D01*
X6224995Y25235000D01*
X6229995Y25237000D01*
X6234995Y25238000D01*
X6239995Y25239000D01*
X6245995Y25239000D01*
X6250995Y25240000D01*
X6255995Y25240000D01*
X6505995Y25240000D01*
X6505995Y25490000D01*
X6505995Y25495000D01*
X6506995Y25500000D01*
X6506995Y25506000D01*
X6507995Y25511000D01*
X6508995Y25516000D01*
X6510995Y25521000D01*
X6512995Y25526000D01*
X6514995Y25531000D01*
X6516995Y25535000D01*
X6518995Y25540000D01*
X6521995Y25544000D01*
X6524995Y25549000D01*
X6527995Y25553000D01*
X6531995Y25557000D01*
X6534995Y25561000D01*
X6538995Y25564000D01*
X6542995Y25568000D01*
X6546995Y25571000D01*
X6551995Y25574000D01*
X6555995Y25577000D01*
X6560995Y25579000D01*
X6564995Y25581000D01*
X6569995Y25583000D01*
X6574995Y25585000D01*
X6579995Y25587000D01*
X6584995Y25588000D01*
X6589995Y25589000D01*
X6595995Y25589000D01*
X6600995Y25590000D01*
X6605995Y25590000D01*
X6805995Y25590000D01*
X6810995Y25590000D01*
X6815995Y25589000D01*
G36*
X6815995Y25589000D02*
G01*
X6821995Y25589000D01*
X6826995Y25588000D01*
X6831995Y25587000D01*
X6836995Y25585000D01*
X6841995Y25583000D01*
X6846995Y25581000D01*
X6850995Y25579000D01*
X6855995Y25577000D01*
X6859995Y25574000D01*
X6864995Y25571000D01*
X6868995Y25568000D01*
X6872995Y25564000D01*
X6876995Y25561000D01*
X6879995Y25557000D01*
X6883995Y25553000D01*
X6886995Y25549000D01*
X6889995Y25544000D01*
X6892995Y25540000D01*
X6894995Y25535000D01*
X6896995Y25531000D01*
X6898995Y25526000D01*
X6900995Y25521000D01*
X6902995Y25516000D01*
X6903995Y25511000D01*
X6904995Y25506000D01*
X6904995Y25500000D01*
X6905995Y25495000D01*
X6905995Y25490000D01*
X6905995Y24990000D01*
X6905995Y24985000D01*
X6904995Y24980000D01*
X6904995Y24974000D01*
X6903995Y24969000D01*
X6902995Y24964000D01*
X6900995Y24959000D01*
X6898995Y24954000D01*
X6896995Y24949000D01*
X6894995Y24945000D01*
X6892995Y24940000D01*
X6889995Y24936000D01*
X6886995Y24931000D01*
X6883995Y24927000D01*
X6879995Y24923000D01*
X6876995Y24919000D01*
X6872995Y24916000D01*
X6868995Y24912000D01*
X6864995Y24909000D01*
X6859995Y24906000D01*
X6855995Y24903000D01*
X6850995Y24901000D01*
X6846995Y24899000D01*
X6841995Y24897000D01*
X6836995Y24895000D01*
X6831995Y24893000D01*
X6826995Y24892000D01*
X6821995Y24891000D01*
X6815995Y24891000D01*
X6810995Y24890000D01*
X6805995Y24890000D01*
X6255995Y24890000D01*
X6250995Y24890000D01*
X6245995Y24891000D01*
X6239995Y24891000D01*
X6234995Y24892000D01*
X6229995Y24893000D01*
X6224995Y24895000D01*
X6219995Y24897000D01*
X6214995Y24899000D01*
X6210995Y24901000D01*
X6205995Y24903000D01*
X6201995Y24906000D01*
X6196995Y24909000D01*
X6192995Y24912000D01*
X6188995Y24916000D01*
X6184995Y24919000D01*
X6181995Y24923000D01*
X6177995Y24927000D01*
X6174995Y24931000D01*
X6171995Y24936000D01*
X6168995Y24940000D01*
X6166995Y24945000D01*
X6164995Y24949000D01*
X6162995Y24954000D01*
X6160995Y24959000D01*
X6158995Y24964000D01*
X6157995Y24969000D01*
X6156995Y24974000D01*
X6156995Y24980000D01*
X6155995Y24985000D01*
X6155995Y24990000D01*
X6155995Y25140000D01*
X6155995Y25145000D01*
X6156995Y25150000D01*
X6156995Y25156000D01*
X6157995Y25161000D01*
X6158995Y25166000D01*
X6160995Y25171000D01*
X6162995Y25176000D01*
X6164995Y25181000D01*
X6166995Y25185000D01*
X6168995Y25190000D01*
X6171995Y25194000D01*
X6174995Y25199000D01*
X6177995Y25203000D01*
X6181995Y25207000D01*
X6184995Y25211000D01*
X6188995Y25214000D01*
X6192995Y25218000D01*
X6196995Y25221000D01*
X6201995Y25224000D01*
X6205995Y25227000D01*
X6210995Y25229000D01*
X6214995Y25231000D01*
X6219995Y25233000D01*
X6224995Y25235000D01*
X6229995Y25237000D01*
X6234995Y25238000D01*
X6239995Y25239000D01*
X6245995Y25239000D01*
X6250995Y25240000D01*
X6255995Y25240000D01*
X6505995Y25240000D01*
X6505995Y25490000D01*
X6505995Y25495000D01*
X6506995Y25500000D01*
X6506995Y25506000D01*
X6507995Y25511000D01*
X6508995Y25516000D01*
X6510995Y25521000D01*
X6512995Y25526000D01*
X6514995Y25531000D01*
X6516995Y25535000D01*
X6518995Y25540000D01*
X6521995Y25544000D01*
X6524995Y25549000D01*
X6527995Y25553000D01*
X6531995Y25557000D01*
X6534995Y25561000D01*
X6538995Y25564000D01*
X6542995Y25568000D01*
X6546995Y25571000D01*
X6551995Y25574000D01*
X6555995Y25577000D01*
X6560995Y25579000D01*
X6564995Y25581000D01*
X6569995Y25583000D01*
X6574995Y25585000D01*
X6579995Y25587000D01*
X6584995Y25588000D01*
X6589995Y25589000D01*
X6595995Y25589000D01*
X6600995Y25590000D01*
X6605995Y25590000D01*
X6805995Y25590000D01*
X6810995Y25590000D01*
X6815995Y25589000D01*
G37*
X6815995Y23789000D02*
X6821995Y23789000D01*
X6826995Y23788000D01*
X6831995Y23787000D01*
X6836995Y23785000D01*
X6841995Y23783000D01*
X6846995Y23781000D01*
X6850995Y23779000D01*
X6855995Y23777000D01*
X6859995Y23774000D01*
X6864995Y23771000D01*
X6868995Y23768000D01*
X6872995Y23764000D01*
X6876995Y23761000D01*
X6879995Y23757000D01*
X6883995Y23753000D01*
X6886995Y23749000D01*
X6889995Y23744000D01*
X6892995Y23740000D01*
X6894995Y23735000D01*
X6896995Y23731000D01*
X6898995Y23726000D01*
X6900995Y23721000D01*
X6902995Y23716000D01*
X6903995Y23711000D01*
X6904995Y23706000D01*
X6904995Y23700000D01*
X6905995Y23695000D01*
X6905995Y23690000D01*
X6905995Y23190000D01*
X6905995Y23185000D01*
X6904995Y23180000D01*
X6904995Y23174000D01*
X6903995Y23169000D01*
X6902995Y23164000D01*
X6900995Y23159000D01*
X6898995Y23154000D01*
X6896995Y23149000D01*
X6894995Y23145000D01*
X6892995Y23140000D01*
X6889995Y23136000D01*
X6886995Y23131000D01*
X6883995Y23127000D01*
X6879995Y23123000D01*
X6876995Y23119000D01*
X6872995Y23116000D01*
X6868995Y23112000D01*
X6864995Y23109000D01*
X6859995Y23106000D01*
X6855995Y23103000D01*
X6850995Y23101000D01*
X6846995Y23099000D01*
X6841995Y23097000D01*
X6836995Y23095000D01*
X6831995Y23093000D01*
X6826995Y23092000D01*
X6821995Y23091000D01*
X6815995Y23091000D01*
X6810995Y23090000D01*
X6805995Y23090000D01*
X6605995Y23090000D01*
X6600995Y23090000D01*
X6595995Y23091000D01*
X6589995Y23091000D01*
X6584995Y23092000D01*
X6579995Y23093000D01*
X6574995Y23095000D01*
X6569995Y23097000D01*
X6564995Y23099000D01*
X6560995Y23101000D01*
X6555995Y23103000D01*
X6551995Y23106000D01*
X6546995Y23109000D01*
X6542995Y23112000D01*
X6538995Y23116000D01*
X6534995Y23119000D01*
X6531995Y23123000D01*
X6527995Y23127000D01*
X6524995Y23131000D01*
X6521995Y23136000D01*
X6518995Y23140000D01*
X6516995Y23145000D01*
X6514995Y23149000D01*
X6512995Y23154000D01*
X6510995Y23159000D01*
X6508995Y23164000D01*
X6507995Y23169000D01*
X6506995Y23174000D01*
X6506995Y23180000D01*
X6505995Y23185000D01*
X6505995Y23190000D01*
X6505995Y23440000D01*
X6255995Y23440000D01*
X6250995Y23440000D01*
X6245995Y23441000D01*
X6239995Y23441000D01*
X6234995Y23442000D01*
X6229995Y23443000D01*
X6224995Y23445000D01*
X6219995Y23447000D01*
X6214995Y23449000D01*
X6210995Y23451000D01*
X6205995Y23453000D01*
X6201995Y23456000D01*
X6196995Y23459000D01*
X6192995Y23462000D01*
X6188995Y23466000D01*
X6184995Y23469000D01*
X6181995Y23473000D01*
X6177995Y23477000D01*
X6174995Y23481000D01*
X6171995Y23486000D01*
X6168995Y23490000D01*
X6166995Y23495000D01*
X6164995Y23499000D01*
X6162995Y23504000D01*
X6160995Y23509000D01*
X6158995Y23514000D01*
X6157995Y23519000D01*
X6156995Y23524000D01*
X6156995Y23530000D01*
X6155995Y23535000D01*
X6155995Y23540000D01*
X6155995Y23690000D01*
X6155995Y23695000D01*
X6156995Y23700000D01*
X6156995Y23706000D01*
X6157995Y23711000D01*
X6158995Y23716000D01*
X6160995Y23721000D01*
X6162995Y23726000D01*
X6164995Y23731000D01*
X6166995Y23735000D01*
X6168995Y23740000D01*
X6171995Y23744000D01*
X6174995Y23749000D01*
X6177995Y23753000D01*
X6181995Y23757000D01*
X6184995Y23761000D01*
X6188995Y23764000D01*
X6192995Y23768000D01*
X6196995Y23771000D01*
X6201995Y23774000D01*
X6205995Y23777000D01*
X6210995Y23779000D01*
X6214995Y23781000D01*
X6219995Y23783000D01*
X6224995Y23785000D01*
X6229995Y23787000D01*
X6234995Y23788000D01*
X6239995Y23789000D01*
X6245995Y23789000D01*
X6250995Y23790000D01*
X6255995Y23790000D01*
X6805995Y23790000D01*
X6810995Y23790000D01*
X6815995Y23789000D01*
G36*
X6815995Y23789000D02*
G01*
X6821995Y23789000D01*
X6826995Y23788000D01*
X6831995Y23787000D01*
X6836995Y23785000D01*
X6841995Y23783000D01*
X6846995Y23781000D01*
X6850995Y23779000D01*
X6855995Y23777000D01*
X6859995Y23774000D01*
X6864995Y23771000D01*
X6868995Y23768000D01*
X6872995Y23764000D01*
X6876995Y23761000D01*
X6879995Y23757000D01*
X6883995Y23753000D01*
X6886995Y23749000D01*
X6889995Y23744000D01*
X6892995Y23740000D01*
X6894995Y23735000D01*
X6896995Y23731000D01*
X6898995Y23726000D01*
X6900995Y23721000D01*
X6902995Y23716000D01*
X6903995Y23711000D01*
X6904995Y23706000D01*
X6904995Y23700000D01*
X6905995Y23695000D01*
X6905995Y23690000D01*
X6905995Y23190000D01*
X6905995Y23185000D01*
X6904995Y23180000D01*
X6904995Y23174000D01*
X6903995Y23169000D01*
X6902995Y23164000D01*
X6900995Y23159000D01*
X6898995Y23154000D01*
X6896995Y23149000D01*
X6894995Y23145000D01*
X6892995Y23140000D01*
X6889995Y23136000D01*
X6886995Y23131000D01*
X6883995Y23127000D01*
X6879995Y23123000D01*
X6876995Y23119000D01*
X6872995Y23116000D01*
X6868995Y23112000D01*
X6864995Y23109000D01*
X6859995Y23106000D01*
X6855995Y23103000D01*
X6850995Y23101000D01*
X6846995Y23099000D01*
X6841995Y23097000D01*
X6836995Y23095000D01*
X6831995Y23093000D01*
X6826995Y23092000D01*
X6821995Y23091000D01*
X6815995Y23091000D01*
X6810995Y23090000D01*
X6805995Y23090000D01*
X6605995Y23090000D01*
X6600995Y23090000D01*
X6595995Y23091000D01*
X6589995Y23091000D01*
X6584995Y23092000D01*
X6579995Y23093000D01*
X6574995Y23095000D01*
X6569995Y23097000D01*
X6564995Y23099000D01*
X6560995Y23101000D01*
X6555995Y23103000D01*
X6551995Y23106000D01*
X6546995Y23109000D01*
X6542995Y23112000D01*
X6538995Y23116000D01*
X6534995Y23119000D01*
X6531995Y23123000D01*
X6527995Y23127000D01*
X6524995Y23131000D01*
X6521995Y23136000D01*
X6518995Y23140000D01*
X6516995Y23145000D01*
X6514995Y23149000D01*
X6512995Y23154000D01*
X6510995Y23159000D01*
X6508995Y23164000D01*
X6507995Y23169000D01*
X6506995Y23174000D01*
X6506995Y23180000D01*
X6505995Y23185000D01*
X6505995Y23190000D01*
X6505995Y23440000D01*
X6255995Y23440000D01*
X6250995Y23440000D01*
X6245995Y23441000D01*
X6239995Y23441000D01*
X6234995Y23442000D01*
X6229995Y23443000D01*
X6224995Y23445000D01*
X6219995Y23447000D01*
X6214995Y23449000D01*
X6210995Y23451000D01*
X6205995Y23453000D01*
X6201995Y23456000D01*
X6196995Y23459000D01*
X6192995Y23462000D01*
X6188995Y23466000D01*
X6184995Y23469000D01*
X6181995Y23473000D01*
X6177995Y23477000D01*
X6174995Y23481000D01*
X6171995Y23486000D01*
X6168995Y23490000D01*
X6166995Y23495000D01*
X6164995Y23499000D01*
X6162995Y23504000D01*
X6160995Y23509000D01*
X6158995Y23514000D01*
X6157995Y23519000D01*
X6156995Y23524000D01*
X6156995Y23530000D01*
X6155995Y23535000D01*
X6155995Y23540000D01*
X6155995Y23690000D01*
X6155995Y23695000D01*
X6156995Y23700000D01*
X6156995Y23706000D01*
X6157995Y23711000D01*
X6158995Y23716000D01*
X6160995Y23721000D01*
X6162995Y23726000D01*
X6164995Y23731000D01*
X6166995Y23735000D01*
X6168995Y23740000D01*
X6171995Y23744000D01*
X6174995Y23749000D01*
X6177995Y23753000D01*
X6181995Y23757000D01*
X6184995Y23761000D01*
X6188995Y23764000D01*
X6192995Y23768000D01*
X6196995Y23771000D01*
X6201995Y23774000D01*
X6205995Y23777000D01*
X6210995Y23779000D01*
X6214995Y23781000D01*
X6219995Y23783000D01*
X6224995Y23785000D01*
X6229995Y23787000D01*
X6234995Y23788000D01*
X6239995Y23789000D01*
X6245995Y23789000D01*
X6250995Y23790000D01*
X6255995Y23790000D01*
X6805995Y23790000D01*
X6810995Y23790000D01*
X6815995Y23789000D01*
G37*
X8215995Y25589000D02*
X8221995Y25589000D01*
X8226995Y25588000D01*
X8231995Y25587000D01*
X8236995Y25585000D01*
X8241995Y25583000D01*
X8246995Y25581000D01*
X8250995Y25579000D01*
X8255995Y25577000D01*
X8259995Y25574000D01*
X8264995Y25571000D01*
X8268995Y25568000D01*
X8272995Y25564000D01*
X8276995Y25561000D01*
X8279995Y25557000D01*
X8283995Y25553000D01*
X8286995Y25549000D01*
X8289995Y25544000D01*
X8292995Y25540000D01*
X8294995Y25535000D01*
X8296995Y25531000D01*
X8298995Y25526000D01*
X8300995Y25521000D01*
X8302995Y25516000D01*
X8303995Y25511000D01*
X8304995Y25506000D01*
X8304995Y25500000D01*
X8305995Y25495000D01*
X8305995Y25490000D01*
X8305995Y25240000D01*
X8555995Y25240000D01*
X8560995Y25240000D01*
X8565995Y25239000D01*
X8571995Y25239000D01*
X8576995Y25238000D01*
X8581995Y25237000D01*
X8586995Y25235000D01*
X8591995Y25233000D01*
X8596995Y25231000D01*
X8600995Y25229000D01*
X8605995Y25227000D01*
X8609995Y25224000D01*
X8614995Y25221000D01*
X8618995Y25218000D01*
X8622995Y25214000D01*
X8626995Y25211000D01*
X8629995Y25207000D01*
X8633995Y25203000D01*
X8636995Y25199000D01*
X8639995Y25194000D01*
X8642995Y25190000D01*
X8644995Y25185000D01*
X8646995Y25181000D01*
X8648995Y25176000D01*
X8650995Y25171000D01*
X8652995Y25166000D01*
X8653995Y25161000D01*
X8654995Y25156000D01*
X8654995Y25150000D01*
X8655995Y25145000D01*
X8655995Y25140000D01*
X8655995Y24990000D01*
X8655995Y24985000D01*
X8654995Y24980000D01*
X8654995Y24974000D01*
X8653995Y24969000D01*
X8652995Y24964000D01*
X8650995Y24959000D01*
X8648995Y24954000D01*
X8646995Y24949000D01*
X8644995Y24945000D01*
X8642995Y24940000D01*
X8639995Y24936000D01*
X8636995Y24931000D01*
X8633995Y24927000D01*
X8629995Y24923000D01*
X8626995Y24919000D01*
X8622995Y24916000D01*
X8618995Y24912000D01*
X8614995Y24909000D01*
X8609995Y24906000D01*
X8605995Y24903000D01*
X8600995Y24901000D01*
X8596995Y24899000D01*
X8591995Y24897000D01*
X8586995Y24895000D01*
X8581995Y24893000D01*
X8576995Y24892000D01*
X8571995Y24891000D01*
X8565995Y24891000D01*
X8560995Y24890000D01*
X8555995Y24890000D01*
X8005995Y24890000D01*
X8000995Y24890000D01*
X7995995Y24891000D01*
X7989995Y24891000D01*
X7984995Y24892000D01*
X7979995Y24893000D01*
X7974995Y24895000D01*
X7969995Y24897000D01*
X7964995Y24899000D01*
X7960995Y24901000D01*
X7955995Y24903000D01*
X7951995Y24906000D01*
X7946995Y24909000D01*
X7942995Y24912000D01*
X7938995Y24916000D01*
X7934995Y24919000D01*
X7931995Y24923000D01*
X7927995Y24927000D01*
X7924995Y24931000D01*
X7921995Y24936000D01*
X7918995Y24940000D01*
X7916995Y24945000D01*
X7914995Y24949000D01*
X7912995Y24954000D01*
X7910995Y24959000D01*
X7908995Y24964000D01*
X7907995Y24969000D01*
X7906995Y24974000D01*
X7906995Y24980000D01*
X7905995Y24985000D01*
X7905995Y24990000D01*
X7905995Y25490000D01*
X7905995Y25495000D01*
X7906995Y25500000D01*
X7906995Y25506000D01*
X7907995Y25511000D01*
X7908995Y25516000D01*
X7910995Y25521000D01*
X7912995Y25526000D01*
X7914995Y25531000D01*
X7916995Y25535000D01*
X7918995Y25540000D01*
X7921995Y25544000D01*
X7924995Y25549000D01*
X7927995Y25553000D01*
X7931995Y25557000D01*
X7934995Y25561000D01*
X7938995Y25564000D01*
X7942995Y25568000D01*
X7946995Y25571000D01*
X7951995Y25574000D01*
X7955995Y25577000D01*
X7960995Y25579000D01*
X7964995Y25581000D01*
X7969995Y25583000D01*
X7974995Y25585000D01*
X7979995Y25587000D01*
X7984995Y25588000D01*
X7989995Y25589000D01*
X7995995Y25589000D01*
X8000995Y25590000D01*
X8005995Y25590000D01*
X8205995Y25590000D01*
X8210995Y25590000D01*
X8215995Y25589000D01*
G36*
X8215995Y25589000D02*
G01*
X8221995Y25589000D01*
X8226995Y25588000D01*
X8231995Y25587000D01*
X8236995Y25585000D01*
X8241995Y25583000D01*
X8246995Y25581000D01*
X8250995Y25579000D01*
X8255995Y25577000D01*
X8259995Y25574000D01*
X8264995Y25571000D01*
X8268995Y25568000D01*
X8272995Y25564000D01*
X8276995Y25561000D01*
X8279995Y25557000D01*
X8283995Y25553000D01*
X8286995Y25549000D01*
X8289995Y25544000D01*
X8292995Y25540000D01*
X8294995Y25535000D01*
X8296995Y25531000D01*
X8298995Y25526000D01*
X8300995Y25521000D01*
X8302995Y25516000D01*
X8303995Y25511000D01*
X8304995Y25506000D01*
X8304995Y25500000D01*
X8305995Y25495000D01*
X8305995Y25490000D01*
X8305995Y25240000D01*
X8555995Y25240000D01*
X8560995Y25240000D01*
X8565995Y25239000D01*
X8571995Y25239000D01*
X8576995Y25238000D01*
X8581995Y25237000D01*
X8586995Y25235000D01*
X8591995Y25233000D01*
X8596995Y25231000D01*
X8600995Y25229000D01*
X8605995Y25227000D01*
X8609995Y25224000D01*
X8614995Y25221000D01*
X8618995Y25218000D01*
X8622995Y25214000D01*
X8626995Y25211000D01*
X8629995Y25207000D01*
X8633995Y25203000D01*
X8636995Y25199000D01*
X8639995Y25194000D01*
X8642995Y25190000D01*
X8644995Y25185000D01*
X8646995Y25181000D01*
X8648995Y25176000D01*
X8650995Y25171000D01*
X8652995Y25166000D01*
X8653995Y25161000D01*
X8654995Y25156000D01*
X8654995Y25150000D01*
X8655995Y25145000D01*
X8655995Y25140000D01*
X8655995Y24990000D01*
X8655995Y24985000D01*
X8654995Y24980000D01*
X8654995Y24974000D01*
X8653995Y24969000D01*
X8652995Y24964000D01*
X8650995Y24959000D01*
X8648995Y24954000D01*
X8646995Y24949000D01*
X8644995Y24945000D01*
X8642995Y24940000D01*
X8639995Y24936000D01*
X8636995Y24931000D01*
X8633995Y24927000D01*
X8629995Y24923000D01*
X8626995Y24919000D01*
X8622995Y24916000D01*
X8618995Y24912000D01*
X8614995Y24909000D01*
X8609995Y24906000D01*
X8605995Y24903000D01*
X8600995Y24901000D01*
X8596995Y24899000D01*
X8591995Y24897000D01*
X8586995Y24895000D01*
X8581995Y24893000D01*
X8576995Y24892000D01*
X8571995Y24891000D01*
X8565995Y24891000D01*
X8560995Y24890000D01*
X8555995Y24890000D01*
X8005995Y24890000D01*
X8000995Y24890000D01*
X7995995Y24891000D01*
X7989995Y24891000D01*
X7984995Y24892000D01*
X7979995Y24893000D01*
X7974995Y24895000D01*
X7969995Y24897000D01*
X7964995Y24899000D01*
X7960995Y24901000D01*
X7955995Y24903000D01*
X7951995Y24906000D01*
X7946995Y24909000D01*
X7942995Y24912000D01*
X7938995Y24916000D01*
X7934995Y24919000D01*
X7931995Y24923000D01*
X7927995Y24927000D01*
X7924995Y24931000D01*
X7921995Y24936000D01*
X7918995Y24940000D01*
X7916995Y24945000D01*
X7914995Y24949000D01*
X7912995Y24954000D01*
X7910995Y24959000D01*
X7908995Y24964000D01*
X7907995Y24969000D01*
X7906995Y24974000D01*
X7906995Y24980000D01*
X7905995Y24985000D01*
X7905995Y24990000D01*
X7905995Y25490000D01*
X7905995Y25495000D01*
X7906995Y25500000D01*
X7906995Y25506000D01*
X7907995Y25511000D01*
X7908995Y25516000D01*
X7910995Y25521000D01*
X7912995Y25526000D01*
X7914995Y25531000D01*
X7916995Y25535000D01*
X7918995Y25540000D01*
X7921995Y25544000D01*
X7924995Y25549000D01*
X7927995Y25553000D01*
X7931995Y25557000D01*
X7934995Y25561000D01*
X7938995Y25564000D01*
X7942995Y25568000D01*
X7946995Y25571000D01*
X7951995Y25574000D01*
X7955995Y25577000D01*
X7960995Y25579000D01*
X7964995Y25581000D01*
X7969995Y25583000D01*
X7974995Y25585000D01*
X7979995Y25587000D01*
X7984995Y25588000D01*
X7989995Y25589000D01*
X7995995Y25589000D01*
X8000995Y25590000D01*
X8005995Y25590000D01*
X8205995Y25590000D01*
X8210995Y25590000D01*
X8215995Y25589000D01*
G37*
X8565995Y23789000D02*
X8571995Y23789000D01*
X8576995Y23788000D01*
X8581995Y23787000D01*
X8586995Y23785000D01*
X8591995Y23783000D01*
X8596995Y23781000D01*
X8600995Y23779000D01*
X8605995Y23777000D01*
X8609995Y23774000D01*
X8614995Y23771000D01*
X8618995Y23768000D01*
X8622995Y23764000D01*
X8626995Y23761000D01*
X8629995Y23757000D01*
X8633995Y23753000D01*
X8636995Y23749000D01*
X8639995Y23744000D01*
X8642995Y23740000D01*
X8644995Y23735000D01*
X8646995Y23731000D01*
X8648995Y23726000D01*
X8650995Y23721000D01*
X8652995Y23716000D01*
X8653995Y23711000D01*
X8654995Y23706000D01*
X8654995Y23700000D01*
X8655995Y23695000D01*
X8655995Y23690000D01*
X8655995Y23540000D01*
X8655995Y23535000D01*
X8654995Y23530000D01*
X8654995Y23524000D01*
X8653995Y23519000D01*
X8652995Y23514000D01*
X8650995Y23509000D01*
X8648995Y23504000D01*
X8646995Y23499000D01*
X8644995Y23495000D01*
X8642995Y23490000D01*
X8639995Y23486000D01*
X8636995Y23481000D01*
X8633995Y23477000D01*
X8629995Y23473000D01*
X8626995Y23469000D01*
X8622995Y23466000D01*
X8618995Y23462000D01*
X8614995Y23459000D01*
X8609995Y23456000D01*
X8605995Y23453000D01*
X8600995Y23451000D01*
X8596995Y23449000D01*
X8591995Y23447000D01*
X8586995Y23445000D01*
X8581995Y23443000D01*
X8576995Y23442000D01*
X8571995Y23441000D01*
X8565995Y23441000D01*
X8560995Y23440000D01*
X8555995Y23440000D01*
X8305995Y23440000D01*
X8305995Y23190000D01*
X8305995Y23185000D01*
X8304995Y23180000D01*
X8304995Y23174000D01*
X8303995Y23169000D01*
X8302995Y23164000D01*
X8300995Y23159000D01*
X8298995Y23154000D01*
X8296995Y23149000D01*
X8294995Y23145000D01*
X8292995Y23140000D01*
X8289995Y23136000D01*
X8286995Y23131000D01*
X8283995Y23127000D01*
X8279995Y23123000D01*
X8276995Y23119000D01*
X8272995Y23116000D01*
X8268995Y23112000D01*
X8264995Y23109000D01*
X8259995Y23106000D01*
X8255995Y23103000D01*
X8250995Y23101000D01*
X8246995Y23099000D01*
X8241995Y23097000D01*
X8236995Y23095000D01*
X8231995Y23093000D01*
X8226995Y23092000D01*
X8221995Y23091000D01*
X8215995Y23091000D01*
X8210995Y23090000D01*
X8205995Y23090000D01*
X8005995Y23090000D01*
X8000995Y23090000D01*
X7995995Y23091000D01*
X7989995Y23091000D01*
X7984995Y23092000D01*
X7979995Y23093000D01*
X7974995Y23095000D01*
X7969995Y23097000D01*
X7964995Y23099000D01*
X7960995Y23101000D01*
X7955995Y23103000D01*
X7951995Y23106000D01*
X7946995Y23109000D01*
X7942995Y23112000D01*
X7938995Y23116000D01*
X7934995Y23119000D01*
X7931995Y23123000D01*
X7927995Y23127000D01*
X7924995Y23131000D01*
X7921995Y23136000D01*
X7918995Y23140000D01*
X7916995Y23145000D01*
X7914995Y23149000D01*
X7912995Y23154000D01*
X7910995Y23159000D01*
X7908995Y23164000D01*
X7907995Y23169000D01*
X7906995Y23174000D01*
X7906995Y23180000D01*
X7905995Y23185000D01*
X7905995Y23190000D01*
X7905995Y23690000D01*
X7905995Y23695000D01*
X7906995Y23700000D01*
X7906995Y23706000D01*
X7907995Y23711000D01*
X7908995Y23716000D01*
X7910995Y23721000D01*
X7912995Y23726000D01*
X7914995Y23731000D01*
X7916995Y23735000D01*
X7918995Y23740000D01*
X7921995Y23744000D01*
X7924995Y23749000D01*
X7927995Y23753000D01*
X7931995Y23757000D01*
X7934995Y23761000D01*
X7938995Y23764000D01*
X7942995Y23768000D01*
X7946995Y23771000D01*
X7951995Y23774000D01*
X7955995Y23777000D01*
X7960995Y23779000D01*
X7964995Y23781000D01*
X7969995Y23783000D01*
X7974995Y23785000D01*
X7979995Y23787000D01*
X7984995Y23788000D01*
X7989995Y23789000D01*
X7995995Y23789000D01*
X8000995Y23790000D01*
X8005995Y23790000D01*
X8555995Y23790000D01*
X8560995Y23790000D01*
X8565995Y23789000D01*
G36*
X8565995Y23789000D02*
G01*
X8571995Y23789000D01*
X8576995Y23788000D01*
X8581995Y23787000D01*
X8586995Y23785000D01*
X8591995Y23783000D01*
X8596995Y23781000D01*
X8600995Y23779000D01*
X8605995Y23777000D01*
X8609995Y23774000D01*
X8614995Y23771000D01*
X8618995Y23768000D01*
X8622995Y23764000D01*
X8626995Y23761000D01*
X8629995Y23757000D01*
X8633995Y23753000D01*
X8636995Y23749000D01*
X8639995Y23744000D01*
X8642995Y23740000D01*
X8644995Y23735000D01*
X8646995Y23731000D01*
X8648995Y23726000D01*
X8650995Y23721000D01*
X8652995Y23716000D01*
X8653995Y23711000D01*
X8654995Y23706000D01*
X8654995Y23700000D01*
X8655995Y23695000D01*
X8655995Y23690000D01*
X8655995Y23540000D01*
X8655995Y23535000D01*
X8654995Y23530000D01*
X8654995Y23524000D01*
X8653995Y23519000D01*
X8652995Y23514000D01*
X8650995Y23509000D01*
X8648995Y23504000D01*
X8646995Y23499000D01*
X8644995Y23495000D01*
X8642995Y23490000D01*
X8639995Y23486000D01*
X8636995Y23481000D01*
X8633995Y23477000D01*
X8629995Y23473000D01*
X8626995Y23469000D01*
X8622995Y23466000D01*
X8618995Y23462000D01*
X8614995Y23459000D01*
X8609995Y23456000D01*
X8605995Y23453000D01*
X8600995Y23451000D01*
X8596995Y23449000D01*
X8591995Y23447000D01*
X8586995Y23445000D01*
X8581995Y23443000D01*
X8576995Y23442000D01*
X8571995Y23441000D01*
X8565995Y23441000D01*
X8560995Y23440000D01*
X8555995Y23440000D01*
X8305995Y23440000D01*
X8305995Y23190000D01*
X8305995Y23185000D01*
X8304995Y23180000D01*
X8304995Y23174000D01*
X8303995Y23169000D01*
X8302995Y23164000D01*
X8300995Y23159000D01*
X8298995Y23154000D01*
X8296995Y23149000D01*
X8294995Y23145000D01*
X8292995Y23140000D01*
X8289995Y23136000D01*
X8286995Y23131000D01*
X8283995Y23127000D01*
X8279995Y23123000D01*
X8276995Y23119000D01*
X8272995Y23116000D01*
X8268995Y23112000D01*
X8264995Y23109000D01*
X8259995Y23106000D01*
X8255995Y23103000D01*
X8250995Y23101000D01*
X8246995Y23099000D01*
X8241995Y23097000D01*
X8236995Y23095000D01*
X8231995Y23093000D01*
X8226995Y23092000D01*
X8221995Y23091000D01*
X8215995Y23091000D01*
X8210995Y23090000D01*
X8205995Y23090000D01*
X8005995Y23090000D01*
X8000995Y23090000D01*
X7995995Y23091000D01*
X7989995Y23091000D01*
X7984995Y23092000D01*
X7979995Y23093000D01*
X7974995Y23095000D01*
X7969995Y23097000D01*
X7964995Y23099000D01*
X7960995Y23101000D01*
X7955995Y23103000D01*
X7951995Y23106000D01*
X7946995Y23109000D01*
X7942995Y23112000D01*
X7938995Y23116000D01*
X7934995Y23119000D01*
X7931995Y23123000D01*
X7927995Y23127000D01*
X7924995Y23131000D01*
X7921995Y23136000D01*
X7918995Y23140000D01*
X7916995Y23145000D01*
X7914995Y23149000D01*
X7912995Y23154000D01*
X7910995Y23159000D01*
X7908995Y23164000D01*
X7907995Y23169000D01*
X7906995Y23174000D01*
X7906995Y23180000D01*
X7905995Y23185000D01*
X7905995Y23190000D01*
X7905995Y23690000D01*
X7905995Y23695000D01*
X7906995Y23700000D01*
X7906995Y23706000D01*
X7907995Y23711000D01*
X7908995Y23716000D01*
X7910995Y23721000D01*
X7912995Y23726000D01*
X7914995Y23731000D01*
X7916995Y23735000D01*
X7918995Y23740000D01*
X7921995Y23744000D01*
X7924995Y23749000D01*
X7927995Y23753000D01*
X7931995Y23757000D01*
X7934995Y23761000D01*
X7938995Y23764000D01*
X7942995Y23768000D01*
X7946995Y23771000D01*
X7951995Y23774000D01*
X7955995Y23777000D01*
X7960995Y23779000D01*
X7964995Y23781000D01*
X7969995Y23783000D01*
X7974995Y23785000D01*
X7979995Y23787000D01*
X7984995Y23788000D01*
X7989995Y23789000D01*
X7995995Y23789000D01*
X8000995Y23790000D01*
X8005995Y23790000D01*
X8555995Y23790000D01*
X8560995Y23790000D01*
X8565995Y23789000D01*
G37*
%TO.C,U11*%
X12015995Y27654000D02*
X12021995Y27654000D01*
X12026995Y27653000D01*
X12031995Y27652000D01*
X12036995Y27650000D01*
X12041995Y27648000D01*
X12046995Y27646000D01*
X12050995Y27644000D01*
X12055995Y27642000D01*
X12059995Y27639000D01*
X12064995Y27636000D01*
X12068995Y27633000D01*
X12072995Y27629000D01*
X12076995Y27626000D01*
X12079995Y27622000D01*
X12083995Y27618000D01*
X12086995Y27614000D01*
X12089995Y27609000D01*
X12092995Y27605000D01*
X12094995Y27600000D01*
X12096995Y27596000D01*
X12098995Y27591000D01*
X12100995Y27586000D01*
X12102995Y27581000D01*
X12103995Y27576000D01*
X12104995Y27571000D01*
X12104995Y27565000D01*
X12105995Y27560000D01*
X12105995Y27555000D01*
X12105995Y27405000D01*
X12105995Y27400000D01*
X12104995Y27395000D01*
X12104995Y27389000D01*
X12103995Y27384000D01*
X12102995Y27379000D01*
X12100995Y27374000D01*
X12098995Y27369000D01*
X12096995Y27364000D01*
X12094995Y27360000D01*
X12092995Y27355000D01*
X12089995Y27351000D01*
X12086995Y27346000D01*
X12083995Y27342000D01*
X12079995Y27338000D01*
X12076995Y27334000D01*
X12072995Y27331000D01*
X12068995Y27327000D01*
X12064995Y27324000D01*
X12059995Y27321000D01*
X12055995Y27318000D01*
X12050995Y27316000D01*
X12046995Y27314000D01*
X12041995Y27312000D01*
X12036995Y27310000D01*
X12031995Y27308000D01*
X12026995Y27307000D01*
X12021995Y27306000D01*
X12015995Y27306000D01*
X12010995Y27305000D01*
X12005995Y27305000D01*
X11505995Y27305000D01*
X11500995Y27305000D01*
X11495995Y27306000D01*
X11489995Y27306000D01*
X11484995Y27307000D01*
X11479995Y27308000D01*
X11474995Y27310000D01*
X11469995Y27312000D01*
X11464995Y27314000D01*
X11460995Y27316000D01*
X11455995Y27318000D01*
X11451995Y27321000D01*
X11446995Y27324000D01*
X11442995Y27327000D01*
X11438995Y27331000D01*
X11434995Y27334000D01*
X11431995Y27338000D01*
X11427995Y27342000D01*
X11424995Y27346000D01*
X11421995Y27351000D01*
X11418995Y27355000D01*
X11416995Y27360000D01*
X11414995Y27364000D01*
X11412995Y27369000D01*
X11410995Y27374000D01*
X11408995Y27379000D01*
X11407995Y27384000D01*
X11406995Y27389000D01*
X11406995Y27395000D01*
X11405995Y27400000D01*
X11405995Y27405000D01*
X11405995Y27555000D01*
X11405995Y27560000D01*
X11406995Y27565000D01*
X11406995Y27571000D01*
X11407995Y27576000D01*
X11408995Y27581000D01*
X11410995Y27586000D01*
X11412995Y27591000D01*
X11414995Y27596000D01*
X11416995Y27600000D01*
X11418995Y27605000D01*
X11421995Y27609000D01*
X11424995Y27614000D01*
X11427995Y27618000D01*
X11431995Y27622000D01*
X11434995Y27626000D01*
X11438995Y27629000D01*
X11442995Y27633000D01*
X11446995Y27636000D01*
X11451995Y27639000D01*
X11455995Y27642000D01*
X11460995Y27644000D01*
X11464995Y27646000D01*
X11469995Y27648000D01*
X11474995Y27650000D01*
X11479995Y27652000D01*
X11484995Y27653000D01*
X11489995Y27654000D01*
X11495995Y27654000D01*
X11500995Y27655000D01*
X11505995Y27655000D01*
X12005995Y27655000D01*
X12010995Y27655000D01*
X12015995Y27654000D01*
G36*
X12015995Y27654000D02*
G01*
X12021995Y27654000D01*
X12026995Y27653000D01*
X12031995Y27652000D01*
X12036995Y27650000D01*
X12041995Y27648000D01*
X12046995Y27646000D01*
X12050995Y27644000D01*
X12055995Y27642000D01*
X12059995Y27639000D01*
X12064995Y27636000D01*
X12068995Y27633000D01*
X12072995Y27629000D01*
X12076995Y27626000D01*
X12079995Y27622000D01*
X12083995Y27618000D01*
X12086995Y27614000D01*
X12089995Y27609000D01*
X12092995Y27605000D01*
X12094995Y27600000D01*
X12096995Y27596000D01*
X12098995Y27591000D01*
X12100995Y27586000D01*
X12102995Y27581000D01*
X12103995Y27576000D01*
X12104995Y27571000D01*
X12104995Y27565000D01*
X12105995Y27560000D01*
X12105995Y27555000D01*
X12105995Y27405000D01*
X12105995Y27400000D01*
X12104995Y27395000D01*
X12104995Y27389000D01*
X12103995Y27384000D01*
X12102995Y27379000D01*
X12100995Y27374000D01*
X12098995Y27369000D01*
X12096995Y27364000D01*
X12094995Y27360000D01*
X12092995Y27355000D01*
X12089995Y27351000D01*
X12086995Y27346000D01*
X12083995Y27342000D01*
X12079995Y27338000D01*
X12076995Y27334000D01*
X12072995Y27331000D01*
X12068995Y27327000D01*
X12064995Y27324000D01*
X12059995Y27321000D01*
X12055995Y27318000D01*
X12050995Y27316000D01*
X12046995Y27314000D01*
X12041995Y27312000D01*
X12036995Y27310000D01*
X12031995Y27308000D01*
X12026995Y27307000D01*
X12021995Y27306000D01*
X12015995Y27306000D01*
X12010995Y27305000D01*
X12005995Y27305000D01*
X11505995Y27305000D01*
X11500995Y27305000D01*
X11495995Y27306000D01*
X11489995Y27306000D01*
X11484995Y27307000D01*
X11479995Y27308000D01*
X11474995Y27310000D01*
X11469995Y27312000D01*
X11464995Y27314000D01*
X11460995Y27316000D01*
X11455995Y27318000D01*
X11451995Y27321000D01*
X11446995Y27324000D01*
X11442995Y27327000D01*
X11438995Y27331000D01*
X11434995Y27334000D01*
X11431995Y27338000D01*
X11427995Y27342000D01*
X11424995Y27346000D01*
X11421995Y27351000D01*
X11418995Y27355000D01*
X11416995Y27360000D01*
X11414995Y27364000D01*
X11412995Y27369000D01*
X11410995Y27374000D01*
X11408995Y27379000D01*
X11407995Y27384000D01*
X11406995Y27389000D01*
X11406995Y27395000D01*
X11405995Y27400000D01*
X11405995Y27405000D01*
X11405995Y27555000D01*
X11405995Y27560000D01*
X11406995Y27565000D01*
X11406995Y27571000D01*
X11407995Y27576000D01*
X11408995Y27581000D01*
X11410995Y27586000D01*
X11412995Y27591000D01*
X11414995Y27596000D01*
X11416995Y27600000D01*
X11418995Y27605000D01*
X11421995Y27609000D01*
X11424995Y27614000D01*
X11427995Y27618000D01*
X11431995Y27622000D01*
X11434995Y27626000D01*
X11438995Y27629000D01*
X11442995Y27633000D01*
X11446995Y27636000D01*
X11451995Y27639000D01*
X11455995Y27642000D01*
X11460995Y27644000D01*
X11464995Y27646000D01*
X11469995Y27648000D01*
X11474995Y27650000D01*
X11479995Y27652000D01*
X11484995Y27653000D01*
X11489995Y27654000D01*
X11495995Y27654000D01*
X11500995Y27655000D01*
X11505995Y27655000D01*
X12005995Y27655000D01*
X12010995Y27655000D01*
X12015995Y27654000D01*
G37*
X12015995Y28104000D02*
X12021995Y28104000D01*
X12026995Y28103000D01*
X12031995Y28102000D01*
X12036995Y28100000D01*
X12041995Y28098000D01*
X12046995Y28096000D01*
X12050995Y28094000D01*
X12055995Y28092000D01*
X12059995Y28089000D01*
X12064995Y28086000D01*
X12068995Y28083000D01*
X12072995Y28079000D01*
X12076995Y28076000D01*
X12079995Y28072000D01*
X12083995Y28068000D01*
X12086995Y28064000D01*
X12089995Y28059000D01*
X12092995Y28055000D01*
X12094995Y28050000D01*
X12096995Y28046000D01*
X12098995Y28041000D01*
X12100995Y28036000D01*
X12102995Y28031000D01*
X12103995Y28026000D01*
X12104995Y28021000D01*
X12104995Y28015000D01*
X12105995Y28010000D01*
X12105995Y28005000D01*
X12105995Y27855000D01*
X12105995Y27850000D01*
X12104995Y27845000D01*
X12104995Y27839000D01*
X12103995Y27834000D01*
X12102995Y27829000D01*
X12100995Y27824000D01*
X12098995Y27819000D01*
X12096995Y27814000D01*
X12094995Y27810000D01*
X12092995Y27805000D01*
X12089995Y27801000D01*
X12086995Y27796000D01*
X12083995Y27792000D01*
X12079995Y27788000D01*
X12076995Y27784000D01*
X12072995Y27781000D01*
X12068995Y27777000D01*
X12064995Y27774000D01*
X12059995Y27771000D01*
X12055995Y27768000D01*
X12050995Y27766000D01*
X12046995Y27764000D01*
X12041995Y27762000D01*
X12036995Y27760000D01*
X12031995Y27758000D01*
X12026995Y27757000D01*
X12021995Y27756000D01*
X12015995Y27756000D01*
X12010995Y27755000D01*
X12005995Y27755000D01*
X11505995Y27755000D01*
X11500995Y27755000D01*
X11495995Y27756000D01*
X11489995Y27756000D01*
X11484995Y27757000D01*
X11479995Y27758000D01*
X11474995Y27760000D01*
X11469995Y27762000D01*
X11464995Y27764000D01*
X11460995Y27766000D01*
X11455995Y27768000D01*
X11451995Y27771000D01*
X11446995Y27774000D01*
X11442995Y27777000D01*
X11438995Y27781000D01*
X11434995Y27784000D01*
X11431995Y27788000D01*
X11427995Y27792000D01*
X11424995Y27796000D01*
X11421995Y27801000D01*
X11418995Y27805000D01*
X11416995Y27810000D01*
X11414995Y27814000D01*
X11412995Y27819000D01*
X11410995Y27824000D01*
X11408995Y27829000D01*
X11407995Y27834000D01*
X11406995Y27839000D01*
X11406995Y27845000D01*
X11405995Y27850000D01*
X11405995Y27855000D01*
X11405995Y28005000D01*
X11405995Y28010000D01*
X11406995Y28015000D01*
X11406995Y28021000D01*
X11407995Y28026000D01*
X11408995Y28031000D01*
X11410995Y28036000D01*
X11412995Y28041000D01*
X11414995Y28046000D01*
X11416995Y28050000D01*
X11418995Y28055000D01*
X11421995Y28059000D01*
X11424995Y28064000D01*
X11427995Y28068000D01*
X11431995Y28072000D01*
X11434995Y28076000D01*
X11438995Y28079000D01*
X11442995Y28083000D01*
X11446995Y28086000D01*
X11451995Y28089000D01*
X11455995Y28092000D01*
X11460995Y28094000D01*
X11464995Y28096000D01*
X11469995Y28098000D01*
X11474995Y28100000D01*
X11479995Y28102000D01*
X11484995Y28103000D01*
X11489995Y28104000D01*
X11495995Y28104000D01*
X11500995Y28105000D01*
X11505995Y28105000D01*
X12005995Y28105000D01*
X12010995Y28105000D01*
X12015995Y28104000D01*
G36*
X12015995Y28104000D02*
G01*
X12021995Y28104000D01*
X12026995Y28103000D01*
X12031995Y28102000D01*
X12036995Y28100000D01*
X12041995Y28098000D01*
X12046995Y28096000D01*
X12050995Y28094000D01*
X12055995Y28092000D01*
X12059995Y28089000D01*
X12064995Y28086000D01*
X12068995Y28083000D01*
X12072995Y28079000D01*
X12076995Y28076000D01*
X12079995Y28072000D01*
X12083995Y28068000D01*
X12086995Y28064000D01*
X12089995Y28059000D01*
X12092995Y28055000D01*
X12094995Y28050000D01*
X12096995Y28046000D01*
X12098995Y28041000D01*
X12100995Y28036000D01*
X12102995Y28031000D01*
X12103995Y28026000D01*
X12104995Y28021000D01*
X12104995Y28015000D01*
X12105995Y28010000D01*
X12105995Y28005000D01*
X12105995Y27855000D01*
X12105995Y27850000D01*
X12104995Y27845000D01*
X12104995Y27839000D01*
X12103995Y27834000D01*
X12102995Y27829000D01*
X12100995Y27824000D01*
X12098995Y27819000D01*
X12096995Y27814000D01*
X12094995Y27810000D01*
X12092995Y27805000D01*
X12089995Y27801000D01*
X12086995Y27796000D01*
X12083995Y27792000D01*
X12079995Y27788000D01*
X12076995Y27784000D01*
X12072995Y27781000D01*
X12068995Y27777000D01*
X12064995Y27774000D01*
X12059995Y27771000D01*
X12055995Y27768000D01*
X12050995Y27766000D01*
X12046995Y27764000D01*
X12041995Y27762000D01*
X12036995Y27760000D01*
X12031995Y27758000D01*
X12026995Y27757000D01*
X12021995Y27756000D01*
X12015995Y27756000D01*
X12010995Y27755000D01*
X12005995Y27755000D01*
X11505995Y27755000D01*
X11500995Y27755000D01*
X11495995Y27756000D01*
X11489995Y27756000D01*
X11484995Y27757000D01*
X11479995Y27758000D01*
X11474995Y27760000D01*
X11469995Y27762000D01*
X11464995Y27764000D01*
X11460995Y27766000D01*
X11455995Y27768000D01*
X11451995Y27771000D01*
X11446995Y27774000D01*
X11442995Y27777000D01*
X11438995Y27781000D01*
X11434995Y27784000D01*
X11431995Y27788000D01*
X11427995Y27792000D01*
X11424995Y27796000D01*
X11421995Y27801000D01*
X11418995Y27805000D01*
X11416995Y27810000D01*
X11414995Y27814000D01*
X11412995Y27819000D01*
X11410995Y27824000D01*
X11408995Y27829000D01*
X11407995Y27834000D01*
X11406995Y27839000D01*
X11406995Y27845000D01*
X11405995Y27850000D01*
X11405995Y27855000D01*
X11405995Y28005000D01*
X11405995Y28010000D01*
X11406995Y28015000D01*
X11406995Y28021000D01*
X11407995Y28026000D01*
X11408995Y28031000D01*
X11410995Y28036000D01*
X11412995Y28041000D01*
X11414995Y28046000D01*
X11416995Y28050000D01*
X11418995Y28055000D01*
X11421995Y28059000D01*
X11424995Y28064000D01*
X11427995Y28068000D01*
X11431995Y28072000D01*
X11434995Y28076000D01*
X11438995Y28079000D01*
X11442995Y28083000D01*
X11446995Y28086000D01*
X11451995Y28089000D01*
X11455995Y28092000D01*
X11460995Y28094000D01*
X11464995Y28096000D01*
X11469995Y28098000D01*
X11474995Y28100000D01*
X11479995Y28102000D01*
X11484995Y28103000D01*
X11489995Y28104000D01*
X11495995Y28104000D01*
X11500995Y28105000D01*
X11505995Y28105000D01*
X12005995Y28105000D01*
X12010995Y28105000D01*
X12015995Y28104000D01*
G37*
X12515995Y28954000D02*
X12521995Y28954000D01*
X12526995Y28953000D01*
X12531995Y28952000D01*
X12536995Y28950000D01*
X12541995Y28948000D01*
X12546995Y28946000D01*
X12550995Y28944000D01*
X12555995Y28942000D01*
X12559995Y28939000D01*
X12564995Y28936000D01*
X12568995Y28933000D01*
X12572995Y28929000D01*
X12576995Y28926000D01*
X12579995Y28922000D01*
X12583995Y28918000D01*
X12586995Y28914000D01*
X12589995Y28909000D01*
X12592995Y28905000D01*
X12594995Y28900000D01*
X12596995Y28896000D01*
X12598995Y28891000D01*
X12600995Y28886000D01*
X12602995Y28881000D01*
X12603995Y28876000D01*
X12604995Y28871000D01*
X12604995Y28865000D01*
X12605995Y28860000D01*
X12605995Y28855000D01*
X12605995Y26555000D01*
X12605995Y26550000D01*
X12604995Y26545000D01*
X12604995Y26539000D01*
X12603995Y26534000D01*
X12602995Y26529000D01*
X12600995Y26524000D01*
X12598995Y26519000D01*
X12596995Y26514000D01*
X12594995Y26510000D01*
X12592995Y26505000D01*
X12589995Y26501000D01*
X12586995Y26496000D01*
X12583995Y26492000D01*
X12579995Y26488000D01*
X12576995Y26484000D01*
X12572995Y26481000D01*
X12568995Y26477000D01*
X12564995Y26474000D01*
X12559995Y26471000D01*
X12555995Y26468000D01*
X12550995Y26466000D01*
X12546995Y26464000D01*
X12541995Y26462000D01*
X12536995Y26460000D01*
X12531995Y26458000D01*
X12526995Y26457000D01*
X12521995Y26456000D01*
X12515995Y26456000D01*
X12510995Y26455000D01*
X12505995Y26455000D01*
X12305995Y26455000D01*
X12300995Y26455000D01*
X12295995Y26456000D01*
X12289995Y26456000D01*
X12284995Y26457000D01*
X12279995Y26458000D01*
X12274995Y26460000D01*
X12269995Y26462000D01*
X12264995Y26464000D01*
X12260995Y26466000D01*
X12255995Y26468000D01*
X12251995Y26471000D01*
X12246995Y26474000D01*
X12242995Y26477000D01*
X12238995Y26481000D01*
X12234995Y26484000D01*
X12231995Y26488000D01*
X12227995Y26492000D01*
X12224995Y26496000D01*
X12221995Y26501000D01*
X12218995Y26505000D01*
X12216995Y26510000D01*
X12214995Y26514000D01*
X12212995Y26519000D01*
X12210995Y26524000D01*
X12208995Y26529000D01*
X12207995Y26534000D01*
X12206995Y26539000D01*
X12206995Y26545000D01*
X12205995Y26550000D01*
X12205995Y26555000D01*
X12205995Y28855000D01*
X12205995Y28860000D01*
X12206995Y28865000D01*
X12206995Y28871000D01*
X12207995Y28876000D01*
X12208995Y28881000D01*
X12210995Y28886000D01*
X12212995Y28891000D01*
X12214995Y28896000D01*
X12216995Y28900000D01*
X12218995Y28905000D01*
X12221995Y28909000D01*
X12224995Y28914000D01*
X12227995Y28918000D01*
X12231995Y28922000D01*
X12234995Y28926000D01*
X12238995Y28929000D01*
X12242995Y28933000D01*
X12246995Y28936000D01*
X12251995Y28939000D01*
X12255995Y28942000D01*
X12260995Y28944000D01*
X12264995Y28946000D01*
X12269995Y28948000D01*
X12274995Y28950000D01*
X12279995Y28952000D01*
X12284995Y28953000D01*
X12289995Y28954000D01*
X12295995Y28954000D01*
X12300995Y28955000D01*
X12305995Y28955000D01*
X12505995Y28955000D01*
X12510995Y28955000D01*
X12515995Y28954000D01*
G36*
X12515995Y28954000D02*
G01*
X12521995Y28954000D01*
X12526995Y28953000D01*
X12531995Y28952000D01*
X12536995Y28950000D01*
X12541995Y28948000D01*
X12546995Y28946000D01*
X12550995Y28944000D01*
X12555995Y28942000D01*
X12559995Y28939000D01*
X12564995Y28936000D01*
X12568995Y28933000D01*
X12572995Y28929000D01*
X12576995Y28926000D01*
X12579995Y28922000D01*
X12583995Y28918000D01*
X12586995Y28914000D01*
X12589995Y28909000D01*
X12592995Y28905000D01*
X12594995Y28900000D01*
X12596995Y28896000D01*
X12598995Y28891000D01*
X12600995Y28886000D01*
X12602995Y28881000D01*
X12603995Y28876000D01*
X12604995Y28871000D01*
X12604995Y28865000D01*
X12605995Y28860000D01*
X12605995Y28855000D01*
X12605995Y26555000D01*
X12605995Y26550000D01*
X12604995Y26545000D01*
X12604995Y26539000D01*
X12603995Y26534000D01*
X12602995Y26529000D01*
X12600995Y26524000D01*
X12598995Y26519000D01*
X12596995Y26514000D01*
X12594995Y26510000D01*
X12592995Y26505000D01*
X12589995Y26501000D01*
X12586995Y26496000D01*
X12583995Y26492000D01*
X12579995Y26488000D01*
X12576995Y26484000D01*
X12572995Y26481000D01*
X12568995Y26477000D01*
X12564995Y26474000D01*
X12559995Y26471000D01*
X12555995Y26468000D01*
X12550995Y26466000D01*
X12546995Y26464000D01*
X12541995Y26462000D01*
X12536995Y26460000D01*
X12531995Y26458000D01*
X12526995Y26457000D01*
X12521995Y26456000D01*
X12515995Y26456000D01*
X12510995Y26455000D01*
X12505995Y26455000D01*
X12305995Y26455000D01*
X12300995Y26455000D01*
X12295995Y26456000D01*
X12289995Y26456000D01*
X12284995Y26457000D01*
X12279995Y26458000D01*
X12274995Y26460000D01*
X12269995Y26462000D01*
X12264995Y26464000D01*
X12260995Y26466000D01*
X12255995Y26468000D01*
X12251995Y26471000D01*
X12246995Y26474000D01*
X12242995Y26477000D01*
X12238995Y26481000D01*
X12234995Y26484000D01*
X12231995Y26488000D01*
X12227995Y26492000D01*
X12224995Y26496000D01*
X12221995Y26501000D01*
X12218995Y26505000D01*
X12216995Y26510000D01*
X12214995Y26514000D01*
X12212995Y26519000D01*
X12210995Y26524000D01*
X12208995Y26529000D01*
X12207995Y26534000D01*
X12206995Y26539000D01*
X12206995Y26545000D01*
X12205995Y26550000D01*
X12205995Y26555000D01*
X12205995Y28855000D01*
X12205995Y28860000D01*
X12206995Y28865000D01*
X12206995Y28871000D01*
X12207995Y28876000D01*
X12208995Y28881000D01*
X12210995Y28886000D01*
X12212995Y28891000D01*
X12214995Y28896000D01*
X12216995Y28900000D01*
X12218995Y28905000D01*
X12221995Y28909000D01*
X12224995Y28914000D01*
X12227995Y28918000D01*
X12231995Y28922000D01*
X12234995Y28926000D01*
X12238995Y28929000D01*
X12242995Y28933000D01*
X12246995Y28936000D01*
X12251995Y28939000D01*
X12255995Y28942000D01*
X12260995Y28944000D01*
X12264995Y28946000D01*
X12269995Y28948000D01*
X12274995Y28950000D01*
X12279995Y28952000D01*
X12284995Y28953000D01*
X12289995Y28954000D01*
X12295995Y28954000D01*
X12300995Y28955000D01*
X12305995Y28955000D01*
X12505995Y28955000D01*
X12510995Y28955000D01*
X12515995Y28954000D01*
G37*
X13015995Y28954000D02*
X13021995Y28954000D01*
X13026995Y28953000D01*
X13031995Y28952000D01*
X13036995Y28950000D01*
X13041995Y28948000D01*
X13046995Y28946000D01*
X13050995Y28944000D01*
X13055995Y28942000D01*
X13059995Y28939000D01*
X13064995Y28936000D01*
X13068995Y28933000D01*
X13072995Y28929000D01*
X13076995Y28926000D01*
X13079995Y28922000D01*
X13083995Y28918000D01*
X13086995Y28914000D01*
X13089995Y28909000D01*
X13092995Y28905000D01*
X13094995Y28900000D01*
X13096995Y28896000D01*
X13098995Y28891000D01*
X13100995Y28886000D01*
X13102995Y28881000D01*
X13103995Y28876000D01*
X13104995Y28871000D01*
X13104995Y28865000D01*
X13105995Y28860000D01*
X13105995Y28855000D01*
X13105995Y26555000D01*
X13105995Y26550000D01*
X13104995Y26545000D01*
X13104995Y26539000D01*
X13103995Y26534000D01*
X13102995Y26529000D01*
X13100995Y26524000D01*
X13098995Y26519000D01*
X13096995Y26514000D01*
X13094995Y26510000D01*
X13092995Y26505000D01*
X13089995Y26501000D01*
X13086995Y26496000D01*
X13083995Y26492000D01*
X13079995Y26488000D01*
X13076995Y26484000D01*
X13072995Y26481000D01*
X13068995Y26477000D01*
X13064995Y26474000D01*
X13059995Y26471000D01*
X13055995Y26468000D01*
X13050995Y26466000D01*
X13046995Y26464000D01*
X13041995Y26462000D01*
X13036995Y26460000D01*
X13031995Y26458000D01*
X13026995Y26457000D01*
X13021995Y26456000D01*
X13015995Y26456000D01*
X13010995Y26455000D01*
X13005995Y26455000D01*
X12805995Y26455000D01*
X12800995Y26455000D01*
X12795995Y26456000D01*
X12789995Y26456000D01*
X12784995Y26457000D01*
X12779995Y26458000D01*
X12774995Y26460000D01*
X12769995Y26462000D01*
X12764995Y26464000D01*
X12760995Y26466000D01*
X12755995Y26468000D01*
X12751995Y26471000D01*
X12746995Y26474000D01*
X12742995Y26477000D01*
X12738995Y26481000D01*
X12734995Y26484000D01*
X12731995Y26488000D01*
X12727995Y26492000D01*
X12724995Y26496000D01*
X12721995Y26501000D01*
X12718995Y26505000D01*
X12716995Y26510000D01*
X12714995Y26514000D01*
X12712995Y26519000D01*
X12710995Y26524000D01*
X12708995Y26529000D01*
X12707995Y26534000D01*
X12706995Y26539000D01*
X12706995Y26545000D01*
X12705995Y26550000D01*
X12705995Y26555000D01*
X12705995Y28855000D01*
X12705995Y28860000D01*
X12706995Y28865000D01*
X12706995Y28871000D01*
X12707995Y28876000D01*
X12708995Y28881000D01*
X12710995Y28886000D01*
X12712995Y28891000D01*
X12714995Y28896000D01*
X12716995Y28900000D01*
X12718995Y28905000D01*
X12721995Y28909000D01*
X12724995Y28914000D01*
X12727995Y28918000D01*
X12731995Y28922000D01*
X12734995Y28926000D01*
X12738995Y28929000D01*
X12742995Y28933000D01*
X12746995Y28936000D01*
X12751995Y28939000D01*
X12755995Y28942000D01*
X12760995Y28944000D01*
X12764995Y28946000D01*
X12769995Y28948000D01*
X12774995Y28950000D01*
X12779995Y28952000D01*
X12784995Y28953000D01*
X12789995Y28954000D01*
X12795995Y28954000D01*
X12800995Y28955000D01*
X12805995Y28955000D01*
X13005995Y28955000D01*
X13010995Y28955000D01*
X13015995Y28954000D01*
G36*
X13015995Y28954000D02*
G01*
X13021995Y28954000D01*
X13026995Y28953000D01*
X13031995Y28952000D01*
X13036995Y28950000D01*
X13041995Y28948000D01*
X13046995Y28946000D01*
X13050995Y28944000D01*
X13055995Y28942000D01*
X13059995Y28939000D01*
X13064995Y28936000D01*
X13068995Y28933000D01*
X13072995Y28929000D01*
X13076995Y28926000D01*
X13079995Y28922000D01*
X13083995Y28918000D01*
X13086995Y28914000D01*
X13089995Y28909000D01*
X13092995Y28905000D01*
X13094995Y28900000D01*
X13096995Y28896000D01*
X13098995Y28891000D01*
X13100995Y28886000D01*
X13102995Y28881000D01*
X13103995Y28876000D01*
X13104995Y28871000D01*
X13104995Y28865000D01*
X13105995Y28860000D01*
X13105995Y28855000D01*
X13105995Y26555000D01*
X13105995Y26550000D01*
X13104995Y26545000D01*
X13104995Y26539000D01*
X13103995Y26534000D01*
X13102995Y26529000D01*
X13100995Y26524000D01*
X13098995Y26519000D01*
X13096995Y26514000D01*
X13094995Y26510000D01*
X13092995Y26505000D01*
X13089995Y26501000D01*
X13086995Y26496000D01*
X13083995Y26492000D01*
X13079995Y26488000D01*
X13076995Y26484000D01*
X13072995Y26481000D01*
X13068995Y26477000D01*
X13064995Y26474000D01*
X13059995Y26471000D01*
X13055995Y26468000D01*
X13050995Y26466000D01*
X13046995Y26464000D01*
X13041995Y26462000D01*
X13036995Y26460000D01*
X13031995Y26458000D01*
X13026995Y26457000D01*
X13021995Y26456000D01*
X13015995Y26456000D01*
X13010995Y26455000D01*
X13005995Y26455000D01*
X12805995Y26455000D01*
X12800995Y26455000D01*
X12795995Y26456000D01*
X12789995Y26456000D01*
X12784995Y26457000D01*
X12779995Y26458000D01*
X12774995Y26460000D01*
X12769995Y26462000D01*
X12764995Y26464000D01*
X12760995Y26466000D01*
X12755995Y26468000D01*
X12751995Y26471000D01*
X12746995Y26474000D01*
X12742995Y26477000D01*
X12738995Y26481000D01*
X12734995Y26484000D01*
X12731995Y26488000D01*
X12727995Y26492000D01*
X12724995Y26496000D01*
X12721995Y26501000D01*
X12718995Y26505000D01*
X12716995Y26510000D01*
X12714995Y26514000D01*
X12712995Y26519000D01*
X12710995Y26524000D01*
X12708995Y26529000D01*
X12707995Y26534000D01*
X12706995Y26539000D01*
X12706995Y26545000D01*
X12705995Y26550000D01*
X12705995Y26555000D01*
X12705995Y28855000D01*
X12705995Y28860000D01*
X12706995Y28865000D01*
X12706995Y28871000D01*
X12707995Y28876000D01*
X12708995Y28881000D01*
X12710995Y28886000D01*
X12712995Y28891000D01*
X12714995Y28896000D01*
X12716995Y28900000D01*
X12718995Y28905000D01*
X12721995Y28909000D01*
X12724995Y28914000D01*
X12727995Y28918000D01*
X12731995Y28922000D01*
X12734995Y28926000D01*
X12738995Y28929000D01*
X12742995Y28933000D01*
X12746995Y28936000D01*
X12751995Y28939000D01*
X12755995Y28942000D01*
X12760995Y28944000D01*
X12764995Y28946000D01*
X12769995Y28948000D01*
X12774995Y28950000D01*
X12779995Y28952000D01*
X12784995Y28953000D01*
X12789995Y28954000D01*
X12795995Y28954000D01*
X12800995Y28955000D01*
X12805995Y28955000D01*
X13005995Y28955000D01*
X13010995Y28955000D01*
X13015995Y28954000D01*
G37*
X13815995Y27654000D02*
X13821995Y27654000D01*
X13826995Y27653000D01*
X13831995Y27652000D01*
X13836995Y27650000D01*
X13841995Y27648000D01*
X13846995Y27646000D01*
X13850995Y27644000D01*
X13855995Y27642000D01*
X13859995Y27639000D01*
X13864995Y27636000D01*
X13868995Y27633000D01*
X13872995Y27629000D01*
X13876995Y27626000D01*
X13879995Y27622000D01*
X13883995Y27618000D01*
X13886995Y27614000D01*
X13889995Y27609000D01*
X13892995Y27605000D01*
X13894995Y27600000D01*
X13896995Y27596000D01*
X13898995Y27591000D01*
X13900995Y27586000D01*
X13902995Y27581000D01*
X13903995Y27576000D01*
X13904995Y27571000D01*
X13904995Y27565000D01*
X13905995Y27560000D01*
X13905995Y27555000D01*
X13905995Y27405000D01*
X13905995Y27400000D01*
X13904995Y27395000D01*
X13904995Y27389000D01*
X13903995Y27384000D01*
X13902995Y27379000D01*
X13900995Y27374000D01*
X13898995Y27369000D01*
X13896995Y27364000D01*
X13894995Y27360000D01*
X13892995Y27355000D01*
X13889995Y27351000D01*
X13886995Y27346000D01*
X13883995Y27342000D01*
X13879995Y27338000D01*
X13876995Y27334000D01*
X13872995Y27331000D01*
X13868995Y27327000D01*
X13864995Y27324000D01*
X13859995Y27321000D01*
X13855995Y27318000D01*
X13850995Y27316000D01*
X13846995Y27314000D01*
X13841995Y27312000D01*
X13836995Y27310000D01*
X13831995Y27308000D01*
X13826995Y27307000D01*
X13821995Y27306000D01*
X13815995Y27306000D01*
X13810995Y27305000D01*
X13805995Y27305000D01*
X13305995Y27305000D01*
X13300995Y27305000D01*
X13295995Y27306000D01*
X13289995Y27306000D01*
X13284995Y27307000D01*
X13279995Y27308000D01*
X13274995Y27310000D01*
X13269995Y27312000D01*
X13264995Y27314000D01*
X13260995Y27316000D01*
X13255995Y27318000D01*
X13251995Y27321000D01*
X13246995Y27324000D01*
X13242995Y27327000D01*
X13238995Y27331000D01*
X13234995Y27334000D01*
X13231995Y27338000D01*
X13227995Y27342000D01*
X13224995Y27346000D01*
X13221995Y27351000D01*
X13218995Y27355000D01*
X13216995Y27360000D01*
X13214995Y27364000D01*
X13212995Y27369000D01*
X13210995Y27374000D01*
X13208995Y27379000D01*
X13207995Y27384000D01*
X13206995Y27389000D01*
X13206995Y27395000D01*
X13205995Y27400000D01*
X13205995Y27405000D01*
X13205995Y27555000D01*
X13205995Y27560000D01*
X13206995Y27565000D01*
X13206995Y27571000D01*
X13207995Y27576000D01*
X13208995Y27581000D01*
X13210995Y27586000D01*
X13212995Y27591000D01*
X13214995Y27596000D01*
X13216995Y27600000D01*
X13218995Y27605000D01*
X13221995Y27609000D01*
X13224995Y27614000D01*
X13227995Y27618000D01*
X13231995Y27622000D01*
X13234995Y27626000D01*
X13238995Y27629000D01*
X13242995Y27633000D01*
X13246995Y27636000D01*
X13251995Y27639000D01*
X13255995Y27642000D01*
X13260995Y27644000D01*
X13264995Y27646000D01*
X13269995Y27648000D01*
X13274995Y27650000D01*
X13279995Y27652000D01*
X13284995Y27653000D01*
X13289995Y27654000D01*
X13295995Y27654000D01*
X13300995Y27655000D01*
X13305995Y27655000D01*
X13805995Y27655000D01*
X13810995Y27655000D01*
X13815995Y27654000D01*
G36*
X13815995Y27654000D02*
G01*
X13821995Y27654000D01*
X13826995Y27653000D01*
X13831995Y27652000D01*
X13836995Y27650000D01*
X13841995Y27648000D01*
X13846995Y27646000D01*
X13850995Y27644000D01*
X13855995Y27642000D01*
X13859995Y27639000D01*
X13864995Y27636000D01*
X13868995Y27633000D01*
X13872995Y27629000D01*
X13876995Y27626000D01*
X13879995Y27622000D01*
X13883995Y27618000D01*
X13886995Y27614000D01*
X13889995Y27609000D01*
X13892995Y27605000D01*
X13894995Y27600000D01*
X13896995Y27596000D01*
X13898995Y27591000D01*
X13900995Y27586000D01*
X13902995Y27581000D01*
X13903995Y27576000D01*
X13904995Y27571000D01*
X13904995Y27565000D01*
X13905995Y27560000D01*
X13905995Y27555000D01*
X13905995Y27405000D01*
X13905995Y27400000D01*
X13904995Y27395000D01*
X13904995Y27389000D01*
X13903995Y27384000D01*
X13902995Y27379000D01*
X13900995Y27374000D01*
X13898995Y27369000D01*
X13896995Y27364000D01*
X13894995Y27360000D01*
X13892995Y27355000D01*
X13889995Y27351000D01*
X13886995Y27346000D01*
X13883995Y27342000D01*
X13879995Y27338000D01*
X13876995Y27334000D01*
X13872995Y27331000D01*
X13868995Y27327000D01*
X13864995Y27324000D01*
X13859995Y27321000D01*
X13855995Y27318000D01*
X13850995Y27316000D01*
X13846995Y27314000D01*
X13841995Y27312000D01*
X13836995Y27310000D01*
X13831995Y27308000D01*
X13826995Y27307000D01*
X13821995Y27306000D01*
X13815995Y27306000D01*
X13810995Y27305000D01*
X13805995Y27305000D01*
X13305995Y27305000D01*
X13300995Y27305000D01*
X13295995Y27306000D01*
X13289995Y27306000D01*
X13284995Y27307000D01*
X13279995Y27308000D01*
X13274995Y27310000D01*
X13269995Y27312000D01*
X13264995Y27314000D01*
X13260995Y27316000D01*
X13255995Y27318000D01*
X13251995Y27321000D01*
X13246995Y27324000D01*
X13242995Y27327000D01*
X13238995Y27331000D01*
X13234995Y27334000D01*
X13231995Y27338000D01*
X13227995Y27342000D01*
X13224995Y27346000D01*
X13221995Y27351000D01*
X13218995Y27355000D01*
X13216995Y27360000D01*
X13214995Y27364000D01*
X13212995Y27369000D01*
X13210995Y27374000D01*
X13208995Y27379000D01*
X13207995Y27384000D01*
X13206995Y27389000D01*
X13206995Y27395000D01*
X13205995Y27400000D01*
X13205995Y27405000D01*
X13205995Y27555000D01*
X13205995Y27560000D01*
X13206995Y27565000D01*
X13206995Y27571000D01*
X13207995Y27576000D01*
X13208995Y27581000D01*
X13210995Y27586000D01*
X13212995Y27591000D01*
X13214995Y27596000D01*
X13216995Y27600000D01*
X13218995Y27605000D01*
X13221995Y27609000D01*
X13224995Y27614000D01*
X13227995Y27618000D01*
X13231995Y27622000D01*
X13234995Y27626000D01*
X13238995Y27629000D01*
X13242995Y27633000D01*
X13246995Y27636000D01*
X13251995Y27639000D01*
X13255995Y27642000D01*
X13260995Y27644000D01*
X13264995Y27646000D01*
X13269995Y27648000D01*
X13274995Y27650000D01*
X13279995Y27652000D01*
X13284995Y27653000D01*
X13289995Y27654000D01*
X13295995Y27654000D01*
X13300995Y27655000D01*
X13305995Y27655000D01*
X13805995Y27655000D01*
X13810995Y27655000D01*
X13815995Y27654000D01*
G37*
X13815995Y28104000D02*
X13821995Y28104000D01*
X13826995Y28103000D01*
X13831995Y28102000D01*
X13836995Y28100000D01*
X13841995Y28098000D01*
X13846995Y28096000D01*
X13850995Y28094000D01*
X13855995Y28092000D01*
X13859995Y28089000D01*
X13864995Y28086000D01*
X13868995Y28083000D01*
X13872995Y28079000D01*
X13876995Y28076000D01*
X13879995Y28072000D01*
X13883995Y28068000D01*
X13886995Y28064000D01*
X13889995Y28059000D01*
X13892995Y28055000D01*
X13894995Y28050000D01*
X13896995Y28046000D01*
X13898995Y28041000D01*
X13900995Y28036000D01*
X13902995Y28031000D01*
X13903995Y28026000D01*
X13904995Y28021000D01*
X13904995Y28015000D01*
X13905995Y28010000D01*
X13905995Y28005000D01*
X13905995Y27855000D01*
X13905995Y27850000D01*
X13904995Y27845000D01*
X13904995Y27839000D01*
X13903995Y27834000D01*
X13902995Y27829000D01*
X13900995Y27824000D01*
X13898995Y27819000D01*
X13896995Y27814000D01*
X13894995Y27810000D01*
X13892995Y27805000D01*
X13889995Y27801000D01*
X13886995Y27796000D01*
X13883995Y27792000D01*
X13879995Y27788000D01*
X13876995Y27784000D01*
X13872995Y27781000D01*
X13868995Y27777000D01*
X13864995Y27774000D01*
X13859995Y27771000D01*
X13855995Y27768000D01*
X13850995Y27766000D01*
X13846995Y27764000D01*
X13841995Y27762000D01*
X13836995Y27760000D01*
X13831995Y27758000D01*
X13826995Y27757000D01*
X13821995Y27756000D01*
X13815995Y27756000D01*
X13810995Y27755000D01*
X13805995Y27755000D01*
X13305995Y27755000D01*
X13300995Y27755000D01*
X13295995Y27756000D01*
X13289995Y27756000D01*
X13284995Y27757000D01*
X13279995Y27758000D01*
X13274995Y27760000D01*
X13269995Y27762000D01*
X13264995Y27764000D01*
X13260995Y27766000D01*
X13255995Y27768000D01*
X13251995Y27771000D01*
X13246995Y27774000D01*
X13242995Y27777000D01*
X13238995Y27781000D01*
X13234995Y27784000D01*
X13231995Y27788000D01*
X13227995Y27792000D01*
X13224995Y27796000D01*
X13221995Y27801000D01*
X13218995Y27805000D01*
X13216995Y27810000D01*
X13214995Y27814000D01*
X13212995Y27819000D01*
X13210995Y27824000D01*
X13208995Y27829000D01*
X13207995Y27834000D01*
X13206995Y27839000D01*
X13206995Y27845000D01*
X13205995Y27850000D01*
X13205995Y27855000D01*
X13205995Y28005000D01*
X13205995Y28010000D01*
X13206995Y28015000D01*
X13206995Y28021000D01*
X13207995Y28026000D01*
X13208995Y28031000D01*
X13210995Y28036000D01*
X13212995Y28041000D01*
X13214995Y28046000D01*
X13216995Y28050000D01*
X13218995Y28055000D01*
X13221995Y28059000D01*
X13224995Y28064000D01*
X13227995Y28068000D01*
X13231995Y28072000D01*
X13234995Y28076000D01*
X13238995Y28079000D01*
X13242995Y28083000D01*
X13246995Y28086000D01*
X13251995Y28089000D01*
X13255995Y28092000D01*
X13260995Y28094000D01*
X13264995Y28096000D01*
X13269995Y28098000D01*
X13274995Y28100000D01*
X13279995Y28102000D01*
X13284995Y28103000D01*
X13289995Y28104000D01*
X13295995Y28104000D01*
X13300995Y28105000D01*
X13305995Y28105000D01*
X13805995Y28105000D01*
X13810995Y28105000D01*
X13815995Y28104000D01*
G36*
X13815995Y28104000D02*
G01*
X13821995Y28104000D01*
X13826995Y28103000D01*
X13831995Y28102000D01*
X13836995Y28100000D01*
X13841995Y28098000D01*
X13846995Y28096000D01*
X13850995Y28094000D01*
X13855995Y28092000D01*
X13859995Y28089000D01*
X13864995Y28086000D01*
X13868995Y28083000D01*
X13872995Y28079000D01*
X13876995Y28076000D01*
X13879995Y28072000D01*
X13883995Y28068000D01*
X13886995Y28064000D01*
X13889995Y28059000D01*
X13892995Y28055000D01*
X13894995Y28050000D01*
X13896995Y28046000D01*
X13898995Y28041000D01*
X13900995Y28036000D01*
X13902995Y28031000D01*
X13903995Y28026000D01*
X13904995Y28021000D01*
X13904995Y28015000D01*
X13905995Y28010000D01*
X13905995Y28005000D01*
X13905995Y27855000D01*
X13905995Y27850000D01*
X13904995Y27845000D01*
X13904995Y27839000D01*
X13903995Y27834000D01*
X13902995Y27829000D01*
X13900995Y27824000D01*
X13898995Y27819000D01*
X13896995Y27814000D01*
X13894995Y27810000D01*
X13892995Y27805000D01*
X13889995Y27801000D01*
X13886995Y27796000D01*
X13883995Y27792000D01*
X13879995Y27788000D01*
X13876995Y27784000D01*
X13872995Y27781000D01*
X13868995Y27777000D01*
X13864995Y27774000D01*
X13859995Y27771000D01*
X13855995Y27768000D01*
X13850995Y27766000D01*
X13846995Y27764000D01*
X13841995Y27762000D01*
X13836995Y27760000D01*
X13831995Y27758000D01*
X13826995Y27757000D01*
X13821995Y27756000D01*
X13815995Y27756000D01*
X13810995Y27755000D01*
X13805995Y27755000D01*
X13305995Y27755000D01*
X13300995Y27755000D01*
X13295995Y27756000D01*
X13289995Y27756000D01*
X13284995Y27757000D01*
X13279995Y27758000D01*
X13274995Y27760000D01*
X13269995Y27762000D01*
X13264995Y27764000D01*
X13260995Y27766000D01*
X13255995Y27768000D01*
X13251995Y27771000D01*
X13246995Y27774000D01*
X13242995Y27777000D01*
X13238995Y27781000D01*
X13234995Y27784000D01*
X13231995Y27788000D01*
X13227995Y27792000D01*
X13224995Y27796000D01*
X13221995Y27801000D01*
X13218995Y27805000D01*
X13216995Y27810000D01*
X13214995Y27814000D01*
X13212995Y27819000D01*
X13210995Y27824000D01*
X13208995Y27829000D01*
X13207995Y27834000D01*
X13206995Y27839000D01*
X13206995Y27845000D01*
X13205995Y27850000D01*
X13205995Y27855000D01*
X13205995Y28005000D01*
X13205995Y28010000D01*
X13206995Y28015000D01*
X13206995Y28021000D01*
X13207995Y28026000D01*
X13208995Y28031000D01*
X13210995Y28036000D01*
X13212995Y28041000D01*
X13214995Y28046000D01*
X13216995Y28050000D01*
X13218995Y28055000D01*
X13221995Y28059000D01*
X13224995Y28064000D01*
X13227995Y28068000D01*
X13231995Y28072000D01*
X13234995Y28076000D01*
X13238995Y28079000D01*
X13242995Y28083000D01*
X13246995Y28086000D01*
X13251995Y28089000D01*
X13255995Y28092000D01*
X13260995Y28094000D01*
X13264995Y28096000D01*
X13269995Y28098000D01*
X13274995Y28100000D01*
X13279995Y28102000D01*
X13284995Y28103000D01*
X13289995Y28104000D01*
X13295995Y28104000D01*
X13300995Y28105000D01*
X13305995Y28105000D01*
X13805995Y28105000D01*
X13810995Y28105000D01*
X13815995Y28104000D01*
G37*
X12015995Y28954000D02*
X12021995Y28954000D01*
X12026995Y28953000D01*
X12031995Y28952000D01*
X12036995Y28950000D01*
X12041995Y28948000D01*
X12046995Y28946000D01*
X12050995Y28944000D01*
X12055995Y28942000D01*
X12059995Y28939000D01*
X12064995Y28936000D01*
X12068995Y28933000D01*
X12072995Y28929000D01*
X12076995Y28926000D01*
X12079995Y28922000D01*
X12083995Y28918000D01*
X12086995Y28914000D01*
X12089995Y28909000D01*
X12092995Y28905000D01*
X12094995Y28900000D01*
X12096995Y28896000D01*
X12098995Y28891000D01*
X12100995Y28886000D01*
X12102995Y28881000D01*
X12103995Y28876000D01*
X12104995Y28871000D01*
X12104995Y28865000D01*
X12105995Y28860000D01*
X12105995Y28855000D01*
X12105995Y28305000D01*
X12105995Y28300000D01*
X12104995Y28295000D01*
X12104995Y28289000D01*
X12103995Y28284000D01*
X12102995Y28279000D01*
X12100995Y28274000D01*
X12098995Y28269000D01*
X12096995Y28264000D01*
X12094995Y28260000D01*
X12092995Y28255000D01*
X12089995Y28251000D01*
X12086995Y28246000D01*
X12083995Y28242000D01*
X12079995Y28238000D01*
X12076995Y28234000D01*
X12072995Y28231000D01*
X12068995Y28227000D01*
X12064995Y28224000D01*
X12059995Y28221000D01*
X12055995Y28218000D01*
X12050995Y28216000D01*
X12046995Y28214000D01*
X12041995Y28212000D01*
X12036995Y28210000D01*
X12031995Y28208000D01*
X12026995Y28207000D01*
X12021995Y28206000D01*
X12015995Y28206000D01*
X12010995Y28205000D01*
X12005995Y28205000D01*
X11505995Y28205000D01*
X11500995Y28205000D01*
X11495995Y28206000D01*
X11489995Y28206000D01*
X11484995Y28207000D01*
X11479995Y28208000D01*
X11474995Y28210000D01*
X11469995Y28212000D01*
X11464995Y28214000D01*
X11460995Y28216000D01*
X11455995Y28218000D01*
X11451995Y28221000D01*
X11446995Y28224000D01*
X11442995Y28227000D01*
X11438995Y28231000D01*
X11434995Y28234000D01*
X11431995Y28238000D01*
X11427995Y28242000D01*
X11424995Y28246000D01*
X11421995Y28251000D01*
X11418995Y28255000D01*
X11416995Y28260000D01*
X11414995Y28264000D01*
X11412995Y28269000D01*
X11410995Y28274000D01*
X11408995Y28279000D01*
X11407995Y28284000D01*
X11406995Y28289000D01*
X11406995Y28295000D01*
X11405995Y28300000D01*
X11405995Y28305000D01*
X11405995Y28505000D01*
X11405995Y28510000D01*
X11406995Y28515000D01*
X11406995Y28521000D01*
X11407995Y28526000D01*
X11408995Y28531000D01*
X11410995Y28536000D01*
X11412995Y28541000D01*
X11414995Y28546000D01*
X11416995Y28550000D01*
X11418995Y28555000D01*
X11421995Y28559000D01*
X11424995Y28564000D01*
X11427995Y28568000D01*
X11431995Y28572000D01*
X11434995Y28576000D01*
X11438995Y28579000D01*
X11442995Y28583000D01*
X11446995Y28586000D01*
X11451995Y28589000D01*
X11455995Y28592000D01*
X11460995Y28594000D01*
X11464995Y28596000D01*
X11469995Y28598000D01*
X11474995Y28600000D01*
X11479995Y28602000D01*
X11484995Y28603000D01*
X11489995Y28604000D01*
X11495995Y28604000D01*
X11500995Y28605000D01*
X11505995Y28605000D01*
X11755995Y28605000D01*
X11755995Y28855000D01*
X11755995Y28860000D01*
X11756995Y28865000D01*
X11756995Y28871000D01*
X11757995Y28876000D01*
X11758995Y28881000D01*
X11760995Y28886000D01*
X11762995Y28891000D01*
X11764995Y28896000D01*
X11766995Y28900000D01*
X11768995Y28905000D01*
X11771995Y28909000D01*
X11774995Y28914000D01*
X11777995Y28918000D01*
X11781995Y28922000D01*
X11784995Y28926000D01*
X11788995Y28929000D01*
X11792995Y28933000D01*
X11796995Y28936000D01*
X11801995Y28939000D01*
X11805995Y28942000D01*
X11810995Y28944000D01*
X11814995Y28946000D01*
X11819995Y28948000D01*
X11824995Y28950000D01*
X11829995Y28952000D01*
X11834995Y28953000D01*
X11839995Y28954000D01*
X11845995Y28954000D01*
X11850995Y28955000D01*
X11855995Y28955000D01*
X12005995Y28955000D01*
X12010995Y28955000D01*
X12015995Y28954000D01*
G36*
X12015995Y28954000D02*
G01*
X12021995Y28954000D01*
X12026995Y28953000D01*
X12031995Y28952000D01*
X12036995Y28950000D01*
X12041995Y28948000D01*
X12046995Y28946000D01*
X12050995Y28944000D01*
X12055995Y28942000D01*
X12059995Y28939000D01*
X12064995Y28936000D01*
X12068995Y28933000D01*
X12072995Y28929000D01*
X12076995Y28926000D01*
X12079995Y28922000D01*
X12083995Y28918000D01*
X12086995Y28914000D01*
X12089995Y28909000D01*
X12092995Y28905000D01*
X12094995Y28900000D01*
X12096995Y28896000D01*
X12098995Y28891000D01*
X12100995Y28886000D01*
X12102995Y28881000D01*
X12103995Y28876000D01*
X12104995Y28871000D01*
X12104995Y28865000D01*
X12105995Y28860000D01*
X12105995Y28855000D01*
X12105995Y28305000D01*
X12105995Y28300000D01*
X12104995Y28295000D01*
X12104995Y28289000D01*
X12103995Y28284000D01*
X12102995Y28279000D01*
X12100995Y28274000D01*
X12098995Y28269000D01*
X12096995Y28264000D01*
X12094995Y28260000D01*
X12092995Y28255000D01*
X12089995Y28251000D01*
X12086995Y28246000D01*
X12083995Y28242000D01*
X12079995Y28238000D01*
X12076995Y28234000D01*
X12072995Y28231000D01*
X12068995Y28227000D01*
X12064995Y28224000D01*
X12059995Y28221000D01*
X12055995Y28218000D01*
X12050995Y28216000D01*
X12046995Y28214000D01*
X12041995Y28212000D01*
X12036995Y28210000D01*
X12031995Y28208000D01*
X12026995Y28207000D01*
X12021995Y28206000D01*
X12015995Y28206000D01*
X12010995Y28205000D01*
X12005995Y28205000D01*
X11505995Y28205000D01*
X11500995Y28205000D01*
X11495995Y28206000D01*
X11489995Y28206000D01*
X11484995Y28207000D01*
X11479995Y28208000D01*
X11474995Y28210000D01*
X11469995Y28212000D01*
X11464995Y28214000D01*
X11460995Y28216000D01*
X11455995Y28218000D01*
X11451995Y28221000D01*
X11446995Y28224000D01*
X11442995Y28227000D01*
X11438995Y28231000D01*
X11434995Y28234000D01*
X11431995Y28238000D01*
X11427995Y28242000D01*
X11424995Y28246000D01*
X11421995Y28251000D01*
X11418995Y28255000D01*
X11416995Y28260000D01*
X11414995Y28264000D01*
X11412995Y28269000D01*
X11410995Y28274000D01*
X11408995Y28279000D01*
X11407995Y28284000D01*
X11406995Y28289000D01*
X11406995Y28295000D01*
X11405995Y28300000D01*
X11405995Y28305000D01*
X11405995Y28505000D01*
X11405995Y28510000D01*
X11406995Y28515000D01*
X11406995Y28521000D01*
X11407995Y28526000D01*
X11408995Y28531000D01*
X11410995Y28536000D01*
X11412995Y28541000D01*
X11414995Y28546000D01*
X11416995Y28550000D01*
X11418995Y28555000D01*
X11421995Y28559000D01*
X11424995Y28564000D01*
X11427995Y28568000D01*
X11431995Y28572000D01*
X11434995Y28576000D01*
X11438995Y28579000D01*
X11442995Y28583000D01*
X11446995Y28586000D01*
X11451995Y28589000D01*
X11455995Y28592000D01*
X11460995Y28594000D01*
X11464995Y28596000D01*
X11469995Y28598000D01*
X11474995Y28600000D01*
X11479995Y28602000D01*
X11484995Y28603000D01*
X11489995Y28604000D01*
X11495995Y28604000D01*
X11500995Y28605000D01*
X11505995Y28605000D01*
X11755995Y28605000D01*
X11755995Y28855000D01*
X11755995Y28860000D01*
X11756995Y28865000D01*
X11756995Y28871000D01*
X11757995Y28876000D01*
X11758995Y28881000D01*
X11760995Y28886000D01*
X11762995Y28891000D01*
X11764995Y28896000D01*
X11766995Y28900000D01*
X11768995Y28905000D01*
X11771995Y28909000D01*
X11774995Y28914000D01*
X11777995Y28918000D01*
X11781995Y28922000D01*
X11784995Y28926000D01*
X11788995Y28929000D01*
X11792995Y28933000D01*
X11796995Y28936000D01*
X11801995Y28939000D01*
X11805995Y28942000D01*
X11810995Y28944000D01*
X11814995Y28946000D01*
X11819995Y28948000D01*
X11824995Y28950000D01*
X11829995Y28952000D01*
X11834995Y28953000D01*
X11839995Y28954000D01*
X11845995Y28954000D01*
X11850995Y28955000D01*
X11855995Y28955000D01*
X12005995Y28955000D01*
X12010995Y28955000D01*
X12015995Y28954000D01*
G37*
X12015995Y27204000D02*
X12021995Y27204000D01*
X12026995Y27203000D01*
X12031995Y27202000D01*
X12036995Y27200000D01*
X12041995Y27198000D01*
X12046995Y27196000D01*
X12050995Y27194000D01*
X12055995Y27192000D01*
X12059995Y27189000D01*
X12064995Y27186000D01*
X12068995Y27183000D01*
X12072995Y27179000D01*
X12076995Y27176000D01*
X12079995Y27172000D01*
X12083995Y27168000D01*
X12086995Y27164000D01*
X12089995Y27159000D01*
X12092995Y27155000D01*
X12094995Y27150000D01*
X12096995Y27146000D01*
X12098995Y27141000D01*
X12100995Y27136000D01*
X12102995Y27131000D01*
X12103995Y27126000D01*
X12104995Y27121000D01*
X12104995Y27115000D01*
X12105995Y27110000D01*
X12105995Y27105000D01*
X12105995Y26555000D01*
X12105995Y26550000D01*
X12104995Y26545000D01*
X12104995Y26539000D01*
X12103995Y26534000D01*
X12102995Y26529000D01*
X12100995Y26524000D01*
X12098995Y26519000D01*
X12096995Y26514000D01*
X12094995Y26510000D01*
X12092995Y26505000D01*
X12089995Y26501000D01*
X12086995Y26496000D01*
X12083995Y26492000D01*
X12079995Y26488000D01*
X12076995Y26484000D01*
X12072995Y26481000D01*
X12068995Y26477000D01*
X12064995Y26474000D01*
X12059995Y26471000D01*
X12055995Y26468000D01*
X12050995Y26466000D01*
X12046995Y26464000D01*
X12041995Y26462000D01*
X12036995Y26460000D01*
X12031995Y26458000D01*
X12026995Y26457000D01*
X12021995Y26456000D01*
X12015995Y26456000D01*
X12010995Y26455000D01*
X12005995Y26455000D01*
X11855995Y26455000D01*
X11850995Y26455000D01*
X11845995Y26456000D01*
X11839995Y26456000D01*
X11834995Y26457000D01*
X11829995Y26458000D01*
X11824995Y26460000D01*
X11819995Y26462000D01*
X11814995Y26464000D01*
X11810995Y26466000D01*
X11805995Y26468000D01*
X11801995Y26471000D01*
X11796995Y26474000D01*
X11792995Y26477000D01*
X11788995Y26481000D01*
X11784995Y26484000D01*
X11781995Y26488000D01*
X11777995Y26492000D01*
X11774995Y26496000D01*
X11771995Y26501000D01*
X11768995Y26505000D01*
X11766995Y26510000D01*
X11764995Y26514000D01*
X11762995Y26519000D01*
X11760995Y26524000D01*
X11758995Y26529000D01*
X11757995Y26534000D01*
X11756995Y26539000D01*
X11756995Y26545000D01*
X11755995Y26550000D01*
X11755995Y26555000D01*
X11755995Y26805000D01*
X11505995Y26805000D01*
X11500995Y26805000D01*
X11495995Y26806000D01*
X11489995Y26806000D01*
X11484995Y26807000D01*
X11479995Y26808000D01*
X11474995Y26810000D01*
X11469995Y26812000D01*
X11464995Y26814000D01*
X11460995Y26816000D01*
X11455995Y26818000D01*
X11451995Y26821000D01*
X11446995Y26824000D01*
X11442995Y26827000D01*
X11438995Y26831000D01*
X11434995Y26834000D01*
X11431995Y26838000D01*
X11427995Y26842000D01*
X11424995Y26846000D01*
X11421995Y26851000D01*
X11418995Y26855000D01*
X11416995Y26860000D01*
X11414995Y26864000D01*
X11412995Y26869000D01*
X11410995Y26874000D01*
X11408995Y26879000D01*
X11407995Y26884000D01*
X11406995Y26889000D01*
X11406995Y26895000D01*
X11405995Y26900000D01*
X11405995Y26905000D01*
X11405995Y27105000D01*
X11405995Y27110000D01*
X11406995Y27115000D01*
X11406995Y27121000D01*
X11407995Y27126000D01*
X11408995Y27131000D01*
X11410995Y27136000D01*
X11412995Y27141000D01*
X11414995Y27146000D01*
X11416995Y27150000D01*
X11418995Y27155000D01*
X11421995Y27159000D01*
X11424995Y27164000D01*
X11427995Y27168000D01*
X11431995Y27172000D01*
X11434995Y27176000D01*
X11438995Y27179000D01*
X11442995Y27183000D01*
X11446995Y27186000D01*
X11451995Y27189000D01*
X11455995Y27192000D01*
X11460995Y27194000D01*
X11464995Y27196000D01*
X11469995Y27198000D01*
X11474995Y27200000D01*
X11479995Y27202000D01*
X11484995Y27203000D01*
X11489995Y27204000D01*
X11495995Y27204000D01*
X11500995Y27205000D01*
X11505995Y27205000D01*
X12005995Y27205000D01*
X12010995Y27205000D01*
X12015995Y27204000D01*
G36*
X12015995Y27204000D02*
G01*
X12021995Y27204000D01*
X12026995Y27203000D01*
X12031995Y27202000D01*
X12036995Y27200000D01*
X12041995Y27198000D01*
X12046995Y27196000D01*
X12050995Y27194000D01*
X12055995Y27192000D01*
X12059995Y27189000D01*
X12064995Y27186000D01*
X12068995Y27183000D01*
X12072995Y27179000D01*
X12076995Y27176000D01*
X12079995Y27172000D01*
X12083995Y27168000D01*
X12086995Y27164000D01*
X12089995Y27159000D01*
X12092995Y27155000D01*
X12094995Y27150000D01*
X12096995Y27146000D01*
X12098995Y27141000D01*
X12100995Y27136000D01*
X12102995Y27131000D01*
X12103995Y27126000D01*
X12104995Y27121000D01*
X12104995Y27115000D01*
X12105995Y27110000D01*
X12105995Y27105000D01*
X12105995Y26555000D01*
X12105995Y26550000D01*
X12104995Y26545000D01*
X12104995Y26539000D01*
X12103995Y26534000D01*
X12102995Y26529000D01*
X12100995Y26524000D01*
X12098995Y26519000D01*
X12096995Y26514000D01*
X12094995Y26510000D01*
X12092995Y26505000D01*
X12089995Y26501000D01*
X12086995Y26496000D01*
X12083995Y26492000D01*
X12079995Y26488000D01*
X12076995Y26484000D01*
X12072995Y26481000D01*
X12068995Y26477000D01*
X12064995Y26474000D01*
X12059995Y26471000D01*
X12055995Y26468000D01*
X12050995Y26466000D01*
X12046995Y26464000D01*
X12041995Y26462000D01*
X12036995Y26460000D01*
X12031995Y26458000D01*
X12026995Y26457000D01*
X12021995Y26456000D01*
X12015995Y26456000D01*
X12010995Y26455000D01*
X12005995Y26455000D01*
X11855995Y26455000D01*
X11850995Y26455000D01*
X11845995Y26456000D01*
X11839995Y26456000D01*
X11834995Y26457000D01*
X11829995Y26458000D01*
X11824995Y26460000D01*
X11819995Y26462000D01*
X11814995Y26464000D01*
X11810995Y26466000D01*
X11805995Y26468000D01*
X11801995Y26471000D01*
X11796995Y26474000D01*
X11792995Y26477000D01*
X11788995Y26481000D01*
X11784995Y26484000D01*
X11781995Y26488000D01*
X11777995Y26492000D01*
X11774995Y26496000D01*
X11771995Y26501000D01*
X11768995Y26505000D01*
X11766995Y26510000D01*
X11764995Y26514000D01*
X11762995Y26519000D01*
X11760995Y26524000D01*
X11758995Y26529000D01*
X11757995Y26534000D01*
X11756995Y26539000D01*
X11756995Y26545000D01*
X11755995Y26550000D01*
X11755995Y26555000D01*
X11755995Y26805000D01*
X11505995Y26805000D01*
X11500995Y26805000D01*
X11495995Y26806000D01*
X11489995Y26806000D01*
X11484995Y26807000D01*
X11479995Y26808000D01*
X11474995Y26810000D01*
X11469995Y26812000D01*
X11464995Y26814000D01*
X11460995Y26816000D01*
X11455995Y26818000D01*
X11451995Y26821000D01*
X11446995Y26824000D01*
X11442995Y26827000D01*
X11438995Y26831000D01*
X11434995Y26834000D01*
X11431995Y26838000D01*
X11427995Y26842000D01*
X11424995Y26846000D01*
X11421995Y26851000D01*
X11418995Y26855000D01*
X11416995Y26860000D01*
X11414995Y26864000D01*
X11412995Y26869000D01*
X11410995Y26874000D01*
X11408995Y26879000D01*
X11407995Y26884000D01*
X11406995Y26889000D01*
X11406995Y26895000D01*
X11405995Y26900000D01*
X11405995Y26905000D01*
X11405995Y27105000D01*
X11405995Y27110000D01*
X11406995Y27115000D01*
X11406995Y27121000D01*
X11407995Y27126000D01*
X11408995Y27131000D01*
X11410995Y27136000D01*
X11412995Y27141000D01*
X11414995Y27146000D01*
X11416995Y27150000D01*
X11418995Y27155000D01*
X11421995Y27159000D01*
X11424995Y27164000D01*
X11427995Y27168000D01*
X11431995Y27172000D01*
X11434995Y27176000D01*
X11438995Y27179000D01*
X11442995Y27183000D01*
X11446995Y27186000D01*
X11451995Y27189000D01*
X11455995Y27192000D01*
X11460995Y27194000D01*
X11464995Y27196000D01*
X11469995Y27198000D01*
X11474995Y27200000D01*
X11479995Y27202000D01*
X11484995Y27203000D01*
X11489995Y27204000D01*
X11495995Y27204000D01*
X11500995Y27205000D01*
X11505995Y27205000D01*
X12005995Y27205000D01*
X12010995Y27205000D01*
X12015995Y27204000D01*
G37*
X13465995Y28954000D02*
X13471995Y28954000D01*
X13476995Y28953000D01*
X13481995Y28952000D01*
X13486995Y28950000D01*
X13491995Y28948000D01*
X13496995Y28946000D01*
X13500995Y28944000D01*
X13505995Y28942000D01*
X13509995Y28939000D01*
X13514995Y28936000D01*
X13518995Y28933000D01*
X13522995Y28929000D01*
X13526995Y28926000D01*
X13529995Y28922000D01*
X13533995Y28918000D01*
X13536995Y28914000D01*
X13539995Y28909000D01*
X13542995Y28905000D01*
X13544995Y28900000D01*
X13546995Y28896000D01*
X13548995Y28891000D01*
X13550995Y28886000D01*
X13552995Y28881000D01*
X13553995Y28876000D01*
X13554995Y28871000D01*
X13554995Y28865000D01*
X13555995Y28860000D01*
X13555995Y28855000D01*
X13555995Y28605000D01*
X13805995Y28605000D01*
X13810995Y28605000D01*
X13815995Y28604000D01*
X13821995Y28604000D01*
X13826995Y28603000D01*
X13831995Y28602000D01*
X13836995Y28600000D01*
X13841995Y28598000D01*
X13846995Y28596000D01*
X13850995Y28594000D01*
X13855995Y28592000D01*
X13859995Y28589000D01*
X13864995Y28586000D01*
X13868995Y28583000D01*
X13872995Y28579000D01*
X13876995Y28576000D01*
X13879995Y28572000D01*
X13883995Y28568000D01*
X13886995Y28564000D01*
X13889995Y28559000D01*
X13892995Y28555000D01*
X13894995Y28550000D01*
X13896995Y28546000D01*
X13898995Y28541000D01*
X13900995Y28536000D01*
X13902995Y28531000D01*
X13903995Y28526000D01*
X13904995Y28521000D01*
X13904995Y28515000D01*
X13905995Y28510000D01*
X13905995Y28505000D01*
X13905995Y28305000D01*
X13905995Y28300000D01*
X13904995Y28295000D01*
X13904995Y28289000D01*
X13903995Y28284000D01*
X13902995Y28279000D01*
X13900995Y28274000D01*
X13898995Y28269000D01*
X13896995Y28264000D01*
X13894995Y28260000D01*
X13892995Y28255000D01*
X13889995Y28251000D01*
X13886995Y28246000D01*
X13883995Y28242000D01*
X13879995Y28238000D01*
X13876995Y28234000D01*
X13872995Y28231000D01*
X13868995Y28227000D01*
X13864995Y28224000D01*
X13859995Y28221000D01*
X13855995Y28218000D01*
X13850995Y28216000D01*
X13846995Y28214000D01*
X13841995Y28212000D01*
X13836995Y28210000D01*
X13831995Y28208000D01*
X13826995Y28207000D01*
X13821995Y28206000D01*
X13815995Y28206000D01*
X13810995Y28205000D01*
X13805995Y28205000D01*
X13305995Y28205000D01*
X13300995Y28205000D01*
X13295995Y28206000D01*
X13289995Y28206000D01*
X13284995Y28207000D01*
X13279995Y28208000D01*
X13274995Y28210000D01*
X13269995Y28212000D01*
X13264995Y28214000D01*
X13260995Y28216000D01*
X13255995Y28218000D01*
X13251995Y28221000D01*
X13246995Y28224000D01*
X13242995Y28227000D01*
X13238995Y28231000D01*
X13234995Y28234000D01*
X13231995Y28238000D01*
X13227995Y28242000D01*
X13224995Y28246000D01*
X13221995Y28251000D01*
X13218995Y28255000D01*
X13216995Y28260000D01*
X13214995Y28264000D01*
X13212995Y28269000D01*
X13210995Y28274000D01*
X13208995Y28279000D01*
X13207995Y28284000D01*
X13206995Y28289000D01*
X13206995Y28295000D01*
X13205995Y28300000D01*
X13205995Y28305000D01*
X13205995Y28855000D01*
X13205995Y28860000D01*
X13206995Y28865000D01*
X13206995Y28871000D01*
X13207995Y28876000D01*
X13208995Y28881000D01*
X13210995Y28886000D01*
X13212995Y28891000D01*
X13214995Y28896000D01*
X13216995Y28900000D01*
X13218995Y28905000D01*
X13221995Y28909000D01*
X13224995Y28914000D01*
X13227995Y28918000D01*
X13231995Y28922000D01*
X13234995Y28926000D01*
X13238995Y28929000D01*
X13242995Y28933000D01*
X13246995Y28936000D01*
X13251995Y28939000D01*
X13255995Y28942000D01*
X13260995Y28944000D01*
X13264995Y28946000D01*
X13269995Y28948000D01*
X13274995Y28950000D01*
X13279995Y28952000D01*
X13284995Y28953000D01*
X13289995Y28954000D01*
X13295995Y28954000D01*
X13300995Y28955000D01*
X13305995Y28955000D01*
X13455995Y28955000D01*
X13460995Y28955000D01*
X13465995Y28954000D01*
G36*
X13465995Y28954000D02*
G01*
X13471995Y28954000D01*
X13476995Y28953000D01*
X13481995Y28952000D01*
X13486995Y28950000D01*
X13491995Y28948000D01*
X13496995Y28946000D01*
X13500995Y28944000D01*
X13505995Y28942000D01*
X13509995Y28939000D01*
X13514995Y28936000D01*
X13518995Y28933000D01*
X13522995Y28929000D01*
X13526995Y28926000D01*
X13529995Y28922000D01*
X13533995Y28918000D01*
X13536995Y28914000D01*
X13539995Y28909000D01*
X13542995Y28905000D01*
X13544995Y28900000D01*
X13546995Y28896000D01*
X13548995Y28891000D01*
X13550995Y28886000D01*
X13552995Y28881000D01*
X13553995Y28876000D01*
X13554995Y28871000D01*
X13554995Y28865000D01*
X13555995Y28860000D01*
X13555995Y28855000D01*
X13555995Y28605000D01*
X13805995Y28605000D01*
X13810995Y28605000D01*
X13815995Y28604000D01*
X13821995Y28604000D01*
X13826995Y28603000D01*
X13831995Y28602000D01*
X13836995Y28600000D01*
X13841995Y28598000D01*
X13846995Y28596000D01*
X13850995Y28594000D01*
X13855995Y28592000D01*
X13859995Y28589000D01*
X13864995Y28586000D01*
X13868995Y28583000D01*
X13872995Y28579000D01*
X13876995Y28576000D01*
X13879995Y28572000D01*
X13883995Y28568000D01*
X13886995Y28564000D01*
X13889995Y28559000D01*
X13892995Y28555000D01*
X13894995Y28550000D01*
X13896995Y28546000D01*
X13898995Y28541000D01*
X13900995Y28536000D01*
X13902995Y28531000D01*
X13903995Y28526000D01*
X13904995Y28521000D01*
X13904995Y28515000D01*
X13905995Y28510000D01*
X13905995Y28505000D01*
X13905995Y28305000D01*
X13905995Y28300000D01*
X13904995Y28295000D01*
X13904995Y28289000D01*
X13903995Y28284000D01*
X13902995Y28279000D01*
X13900995Y28274000D01*
X13898995Y28269000D01*
X13896995Y28264000D01*
X13894995Y28260000D01*
X13892995Y28255000D01*
X13889995Y28251000D01*
X13886995Y28246000D01*
X13883995Y28242000D01*
X13879995Y28238000D01*
X13876995Y28234000D01*
X13872995Y28231000D01*
X13868995Y28227000D01*
X13864995Y28224000D01*
X13859995Y28221000D01*
X13855995Y28218000D01*
X13850995Y28216000D01*
X13846995Y28214000D01*
X13841995Y28212000D01*
X13836995Y28210000D01*
X13831995Y28208000D01*
X13826995Y28207000D01*
X13821995Y28206000D01*
X13815995Y28206000D01*
X13810995Y28205000D01*
X13805995Y28205000D01*
X13305995Y28205000D01*
X13300995Y28205000D01*
X13295995Y28206000D01*
X13289995Y28206000D01*
X13284995Y28207000D01*
X13279995Y28208000D01*
X13274995Y28210000D01*
X13269995Y28212000D01*
X13264995Y28214000D01*
X13260995Y28216000D01*
X13255995Y28218000D01*
X13251995Y28221000D01*
X13246995Y28224000D01*
X13242995Y28227000D01*
X13238995Y28231000D01*
X13234995Y28234000D01*
X13231995Y28238000D01*
X13227995Y28242000D01*
X13224995Y28246000D01*
X13221995Y28251000D01*
X13218995Y28255000D01*
X13216995Y28260000D01*
X13214995Y28264000D01*
X13212995Y28269000D01*
X13210995Y28274000D01*
X13208995Y28279000D01*
X13207995Y28284000D01*
X13206995Y28289000D01*
X13206995Y28295000D01*
X13205995Y28300000D01*
X13205995Y28305000D01*
X13205995Y28855000D01*
X13205995Y28860000D01*
X13206995Y28865000D01*
X13206995Y28871000D01*
X13207995Y28876000D01*
X13208995Y28881000D01*
X13210995Y28886000D01*
X13212995Y28891000D01*
X13214995Y28896000D01*
X13216995Y28900000D01*
X13218995Y28905000D01*
X13221995Y28909000D01*
X13224995Y28914000D01*
X13227995Y28918000D01*
X13231995Y28922000D01*
X13234995Y28926000D01*
X13238995Y28929000D01*
X13242995Y28933000D01*
X13246995Y28936000D01*
X13251995Y28939000D01*
X13255995Y28942000D01*
X13260995Y28944000D01*
X13264995Y28946000D01*
X13269995Y28948000D01*
X13274995Y28950000D01*
X13279995Y28952000D01*
X13284995Y28953000D01*
X13289995Y28954000D01*
X13295995Y28954000D01*
X13300995Y28955000D01*
X13305995Y28955000D01*
X13455995Y28955000D01*
X13460995Y28955000D01*
X13465995Y28954000D01*
G37*
X13815995Y27204000D02*
X13821995Y27204000D01*
X13826995Y27203000D01*
X13831995Y27202000D01*
X13836995Y27200000D01*
X13841995Y27198000D01*
X13846995Y27196000D01*
X13850995Y27194000D01*
X13855995Y27192000D01*
X13859995Y27189000D01*
X13864995Y27186000D01*
X13868995Y27183000D01*
X13872995Y27179000D01*
X13876995Y27176000D01*
X13879995Y27172000D01*
X13883995Y27168000D01*
X13886995Y27164000D01*
X13889995Y27159000D01*
X13892995Y27155000D01*
X13894995Y27150000D01*
X13896995Y27146000D01*
X13898995Y27141000D01*
X13900995Y27136000D01*
X13902995Y27131000D01*
X13903995Y27126000D01*
X13904995Y27121000D01*
X13904995Y27115000D01*
X13905995Y27110000D01*
X13905995Y27105000D01*
X13905995Y26905000D01*
X13905995Y26900000D01*
X13904995Y26895000D01*
X13904995Y26889000D01*
X13903995Y26884000D01*
X13902995Y26879000D01*
X13900995Y26874000D01*
X13898995Y26869000D01*
X13896995Y26864000D01*
X13894995Y26860000D01*
X13892995Y26855000D01*
X13889995Y26851000D01*
X13886995Y26846000D01*
X13883995Y26842000D01*
X13879995Y26838000D01*
X13876995Y26834000D01*
X13872995Y26831000D01*
X13868995Y26827000D01*
X13864995Y26824000D01*
X13859995Y26821000D01*
X13855995Y26818000D01*
X13850995Y26816000D01*
X13846995Y26814000D01*
X13841995Y26812000D01*
X13836995Y26810000D01*
X13831995Y26808000D01*
X13826995Y26807000D01*
X13821995Y26806000D01*
X13815995Y26806000D01*
X13810995Y26805000D01*
X13805995Y26805000D01*
X13555995Y26805000D01*
X13555995Y26555000D01*
X13555995Y26550000D01*
X13554995Y26545000D01*
X13554995Y26539000D01*
X13553995Y26534000D01*
X13552995Y26529000D01*
X13550995Y26524000D01*
X13548995Y26519000D01*
X13546995Y26514000D01*
X13544995Y26510000D01*
X13542995Y26505000D01*
X13539995Y26501000D01*
X13536995Y26496000D01*
X13533995Y26492000D01*
X13529995Y26488000D01*
X13526995Y26484000D01*
X13522995Y26481000D01*
X13518995Y26477000D01*
X13514995Y26474000D01*
X13509995Y26471000D01*
X13505995Y26468000D01*
X13500995Y26466000D01*
X13496995Y26464000D01*
X13491995Y26462000D01*
X13486995Y26460000D01*
X13481995Y26458000D01*
X13476995Y26457000D01*
X13471995Y26456000D01*
X13465995Y26456000D01*
X13460995Y26455000D01*
X13455995Y26455000D01*
X13305995Y26455000D01*
X13300995Y26455000D01*
X13295995Y26456000D01*
X13289995Y26456000D01*
X13284995Y26457000D01*
X13279995Y26458000D01*
X13274995Y26460000D01*
X13269995Y26462000D01*
X13264995Y26464000D01*
X13260995Y26466000D01*
X13255995Y26468000D01*
X13251995Y26471000D01*
X13246995Y26474000D01*
X13242995Y26477000D01*
X13238995Y26481000D01*
X13234995Y26484000D01*
X13231995Y26488000D01*
X13227995Y26492000D01*
X13224995Y26496000D01*
X13221995Y26501000D01*
X13218995Y26505000D01*
X13216995Y26510000D01*
X13214995Y26514000D01*
X13212995Y26519000D01*
X13210995Y26524000D01*
X13208995Y26529000D01*
X13207995Y26534000D01*
X13206995Y26539000D01*
X13206995Y26545000D01*
X13205995Y26550000D01*
X13205995Y26555000D01*
X13205995Y27105000D01*
X13205995Y27110000D01*
X13206995Y27115000D01*
X13206995Y27121000D01*
X13207995Y27126000D01*
X13208995Y27131000D01*
X13210995Y27136000D01*
X13212995Y27141000D01*
X13214995Y27146000D01*
X13216995Y27150000D01*
X13218995Y27155000D01*
X13221995Y27159000D01*
X13224995Y27164000D01*
X13227995Y27168000D01*
X13231995Y27172000D01*
X13234995Y27176000D01*
X13238995Y27179000D01*
X13242995Y27183000D01*
X13246995Y27186000D01*
X13251995Y27189000D01*
X13255995Y27192000D01*
X13260995Y27194000D01*
X13264995Y27196000D01*
X13269995Y27198000D01*
X13274995Y27200000D01*
X13279995Y27202000D01*
X13284995Y27203000D01*
X13289995Y27204000D01*
X13295995Y27204000D01*
X13300995Y27205000D01*
X13305995Y27205000D01*
X13805995Y27205000D01*
X13810995Y27205000D01*
X13815995Y27204000D01*
G36*
X13815995Y27204000D02*
G01*
X13821995Y27204000D01*
X13826995Y27203000D01*
X13831995Y27202000D01*
X13836995Y27200000D01*
X13841995Y27198000D01*
X13846995Y27196000D01*
X13850995Y27194000D01*
X13855995Y27192000D01*
X13859995Y27189000D01*
X13864995Y27186000D01*
X13868995Y27183000D01*
X13872995Y27179000D01*
X13876995Y27176000D01*
X13879995Y27172000D01*
X13883995Y27168000D01*
X13886995Y27164000D01*
X13889995Y27159000D01*
X13892995Y27155000D01*
X13894995Y27150000D01*
X13896995Y27146000D01*
X13898995Y27141000D01*
X13900995Y27136000D01*
X13902995Y27131000D01*
X13903995Y27126000D01*
X13904995Y27121000D01*
X13904995Y27115000D01*
X13905995Y27110000D01*
X13905995Y27105000D01*
X13905995Y26905000D01*
X13905995Y26900000D01*
X13904995Y26895000D01*
X13904995Y26889000D01*
X13903995Y26884000D01*
X13902995Y26879000D01*
X13900995Y26874000D01*
X13898995Y26869000D01*
X13896995Y26864000D01*
X13894995Y26860000D01*
X13892995Y26855000D01*
X13889995Y26851000D01*
X13886995Y26846000D01*
X13883995Y26842000D01*
X13879995Y26838000D01*
X13876995Y26834000D01*
X13872995Y26831000D01*
X13868995Y26827000D01*
X13864995Y26824000D01*
X13859995Y26821000D01*
X13855995Y26818000D01*
X13850995Y26816000D01*
X13846995Y26814000D01*
X13841995Y26812000D01*
X13836995Y26810000D01*
X13831995Y26808000D01*
X13826995Y26807000D01*
X13821995Y26806000D01*
X13815995Y26806000D01*
X13810995Y26805000D01*
X13805995Y26805000D01*
X13555995Y26805000D01*
X13555995Y26555000D01*
X13555995Y26550000D01*
X13554995Y26545000D01*
X13554995Y26539000D01*
X13553995Y26534000D01*
X13552995Y26529000D01*
X13550995Y26524000D01*
X13548995Y26519000D01*
X13546995Y26514000D01*
X13544995Y26510000D01*
X13542995Y26505000D01*
X13539995Y26501000D01*
X13536995Y26496000D01*
X13533995Y26492000D01*
X13529995Y26488000D01*
X13526995Y26484000D01*
X13522995Y26481000D01*
X13518995Y26477000D01*
X13514995Y26474000D01*
X13509995Y26471000D01*
X13505995Y26468000D01*
X13500995Y26466000D01*
X13496995Y26464000D01*
X13491995Y26462000D01*
X13486995Y26460000D01*
X13481995Y26458000D01*
X13476995Y26457000D01*
X13471995Y26456000D01*
X13465995Y26456000D01*
X13460995Y26455000D01*
X13455995Y26455000D01*
X13305995Y26455000D01*
X13300995Y26455000D01*
X13295995Y26456000D01*
X13289995Y26456000D01*
X13284995Y26457000D01*
X13279995Y26458000D01*
X13274995Y26460000D01*
X13269995Y26462000D01*
X13264995Y26464000D01*
X13260995Y26466000D01*
X13255995Y26468000D01*
X13251995Y26471000D01*
X13246995Y26474000D01*
X13242995Y26477000D01*
X13238995Y26481000D01*
X13234995Y26484000D01*
X13231995Y26488000D01*
X13227995Y26492000D01*
X13224995Y26496000D01*
X13221995Y26501000D01*
X13218995Y26505000D01*
X13216995Y26510000D01*
X13214995Y26514000D01*
X13212995Y26519000D01*
X13210995Y26524000D01*
X13208995Y26529000D01*
X13207995Y26534000D01*
X13206995Y26539000D01*
X13206995Y26545000D01*
X13205995Y26550000D01*
X13205995Y26555000D01*
X13205995Y27105000D01*
X13205995Y27110000D01*
X13206995Y27115000D01*
X13206995Y27121000D01*
X13207995Y27126000D01*
X13208995Y27131000D01*
X13210995Y27136000D01*
X13212995Y27141000D01*
X13214995Y27146000D01*
X13216995Y27150000D01*
X13218995Y27155000D01*
X13221995Y27159000D01*
X13224995Y27164000D01*
X13227995Y27168000D01*
X13231995Y27172000D01*
X13234995Y27176000D01*
X13238995Y27179000D01*
X13242995Y27183000D01*
X13246995Y27186000D01*
X13251995Y27189000D01*
X13255995Y27192000D01*
X13260995Y27194000D01*
X13264995Y27196000D01*
X13269995Y27198000D01*
X13274995Y27200000D01*
X13279995Y27202000D01*
X13284995Y27203000D01*
X13289995Y27204000D01*
X13295995Y27204000D01*
X13300995Y27205000D01*
X13305995Y27205000D01*
X13805995Y27205000D01*
X13810995Y27205000D01*
X13815995Y27204000D01*
G37*
%TD*%
D11*
%TO.C,R24*%
X9455995Y24020000D03*
X9455995Y25670000D03*
%TD*%
D12*
%TO.C,R1*%
X-10494005Y56895000D03*
X-11514005Y56895000D03*
%TD*%
D13*
%TO.C,C23*%
X9455995Y23395000D03*
X9455995Y22435000D03*
%TD*%
D14*
%TO.C,R39*%
X37885995Y26395000D03*
X38905995Y26395000D03*
%TD*%
D15*
%TO.C,U7*%
X14185995Y40200000D03*
X13685995Y40200000D03*
X13185995Y40200000D03*
X12685995Y40200000D03*
D16*
X12673495Y39687500D03*
X12673495Y39187500D03*
D15*
X12685995Y38675000D03*
X13185995Y38675000D03*
X13685995Y38675000D03*
X14185995Y38675000D03*
D16*
X14198495Y39187500D03*
X14198495Y39687500D03*
%TD*%
D17*
%TO.C,C28*%
X-2678005Y26623000D03*
X-2678005Y32023000D03*
%TD*%
D18*
%TO.C,C35*%
X36895995Y25388600D03*
X36895995Y26348600D03*
%TD*%
D19*
%TO.C,D6*%
X-11069005Y40145000D03*
X-11069005Y41345000D03*
X-12369005Y41345000D03*
X-12369005Y40145000D03*
%TD*%
D20*
%TO.C,C49*%
X34405995Y58095000D03*
X35365995Y58095000D03*
%TD*%
D14*
%TO.C,R12*%
X-12507481Y50924057D03*
X-11487481Y50924057D03*
%TD*%
D21*
%TO.C,D11*%
X40944495Y81923000D03*
X40944495Y77923000D03*
%TD*%
D22*
%TO.C,J14*%
X18645195Y90740200D03*
D23*
X17395195Y90740200D03*
X16145195Y90740200D03*
X14895195Y90740200D03*
%TD*%
D24*
%TO.C,C77*%
X80995Y87245000D03*
X-2869005Y87245000D03*
%TD*%
D18*
%TO.C,C45*%
X25350795Y64199800D03*
X25350795Y65159800D03*
%TD*%
%TO.C,C9*%
X16765595Y41245000D03*
X16765595Y42205000D03*
%TD*%
D12*
%TO.C,R30*%
X15715995Y28105000D03*
X14695995Y28105000D03*
%TD*%
D18*
%TO.C,C52*%
X35696995Y63068000D03*
X35696995Y64028000D03*
%TD*%
D25*
%TO.C,R28*%
X10446995Y27123000D03*
X8796995Y27123000D03*
%TD*%
D26*
%TO.C,C57*%
X40676995Y52823000D03*
X39716995Y52823000D03*
%TD*%
D27*
%TO.C,J3*%
X48861995Y44479000D03*
X48861995Y50259000D03*
D28*
X47416995Y44119000D03*
X47416995Y44919000D03*
D29*
X47416995Y46119000D03*
X47416995Y47119000D03*
X47416995Y47619000D03*
X47416995Y48619000D03*
D28*
X47416995Y49819000D03*
X47416995Y50619000D03*
X47416995Y50619000D03*
X47416995Y49819000D03*
D29*
X47416995Y49119000D03*
X47416995Y48119000D03*
X47416995Y46619000D03*
X47416995Y45619000D03*
D28*
X47416995Y44919000D03*
X47416995Y44119000D03*
D30*
X48331995Y43049000D03*
D31*
X52511995Y43049000D03*
D30*
X48331995Y51689000D03*
D31*
X52511995Y51689000D03*
%TD*%
D32*
%TO.C,R6*%
X45421995Y42013000D03*
X45421995Y43033000D03*
%TD*%
D11*
%TO.C,R8*%
X45021995Y49498000D03*
X45021995Y51148000D03*
%TD*%
D33*
%TO.C,U4*%
X14893995Y67770600D03*
X15393995Y67770600D03*
D34*
X15893995Y67770600D03*
D33*
X16393995Y67770600D03*
X16893995Y67770600D03*
X16893995Y68540600D03*
X16393995Y68540600D03*
D34*
X15893995Y68540600D03*
D33*
X15393995Y68540600D03*
X14893995Y68540600D03*
%TD*%
D35*
%TO.C,D1*%
X-10659005Y58295000D03*
X-12234005Y58295000D03*
%TD*%
D14*
%TO.C,R16*%
X16611195Y45934600D03*
X17631195Y45934600D03*
%TD*%
D36*
%TO.C,C25*%
X8696995Y21023000D03*
X7146995Y21023000D03*
%TD*%
D26*
%TO.C,C43*%
X21705995Y55275000D03*
X20745995Y55275000D03*
%TD*%
D35*
%TO.C,D2*%
X-10634005Y59995000D03*
X-12209005Y59995000D03*
%TD*%
D13*
%TO.C,C63*%
X24905995Y49145000D03*
X24905995Y48185000D03*
%TD*%
D14*
%TO.C,R11*%
X-11404005Y61595000D03*
X-10384005Y61595000D03*
%TD*%
D37*
%TO.C,Module1*%
X3565995Y50045000D03*
X6645995Y50045000D03*
X3565995Y49645000D03*
X6645995Y49645000D03*
X3565995Y49245000D03*
X6645995Y49245000D03*
X3565995Y48845000D03*
X6645995Y48845000D03*
X3565995Y48445000D03*
X6645995Y48445000D03*
X3565995Y48045000D03*
X6645995Y48045000D03*
X3565995Y47645000D03*
X6645995Y47645000D03*
X3565995Y47245000D03*
X6645995Y47245000D03*
X3565995Y46845000D03*
X6645995Y46845000D03*
X3565995Y46445000D03*
X6645995Y46445000D03*
X3565995Y46045000D03*
X6645995Y46045000D03*
X3565995Y45645000D03*
X6645995Y45645000D03*
X3565995Y45245000D03*
X6645995Y45245000D03*
X3565995Y44845000D03*
X6645995Y44845000D03*
X3565995Y44445000D03*
X6645995Y44445000D03*
X3565995Y44045000D03*
X6645995Y44045000D03*
X3565995Y43645000D03*
X6645995Y43645000D03*
X3565995Y43245000D03*
X6645995Y43245000D03*
X3565995Y42845000D03*
X6645995Y42845000D03*
X3565995Y42445000D03*
X6645995Y42445000D03*
X3565995Y42045000D03*
X6645995Y42045000D03*
X3565995Y41645000D03*
X6645995Y41645000D03*
X3565995Y41245000D03*
X6645995Y41245000D03*
X3565995Y40845000D03*
X6645995Y40845000D03*
X3565995Y40445000D03*
X6645995Y40445000D03*
X3565995Y40045000D03*
X6645995Y40045000D03*
X3565995Y39645000D03*
X6645995Y39645000D03*
X3565995Y39245000D03*
X6645995Y39245000D03*
X3565995Y38845000D03*
X6645995Y38845000D03*
X3565995Y38445000D03*
X6645995Y38445000D03*
X3565995Y38045000D03*
X6645995Y38045000D03*
X3565995Y37645000D03*
X6645995Y37645000D03*
X3565995Y37245000D03*
X6645995Y37245000D03*
X3565995Y36845000D03*
X6645995Y36845000D03*
X3565995Y36445000D03*
X6645995Y36445000D03*
X3565995Y36045000D03*
X6645995Y36045000D03*
X3565995Y35645000D03*
X6645995Y35645000D03*
X3565995Y35245000D03*
X6645995Y35245000D03*
X3565995Y34845000D03*
X6645995Y34845000D03*
X3565995Y34445000D03*
X6645995Y34445000D03*
X3565995Y34045000D03*
X6645995Y34045000D03*
X3565995Y33645000D03*
X6645995Y33645000D03*
X3565995Y33245000D03*
X6645995Y33245000D03*
X3565995Y32845000D03*
X6645995Y32845000D03*
X3565995Y32445000D03*
X6645995Y32445000D03*
X3565995Y32045000D03*
X6645995Y32045000D03*
X3565995Y31645000D03*
X6645995Y31645000D03*
X3565995Y31245000D03*
X6645995Y31245000D03*
X3565995Y30845000D03*
X6645995Y30845000D03*
X3565995Y30445000D03*
X6645995Y30445000D03*
X37485995Y50045000D03*
X40565995Y50045000D03*
X37485995Y49645000D03*
X40565995Y49645000D03*
X37485995Y49245000D03*
X40565995Y49245000D03*
X37485995Y48845000D03*
X40565995Y48845000D03*
X37485995Y48445000D03*
X40565995Y48445000D03*
X37485995Y48045000D03*
X40565995Y48045000D03*
X37485995Y47645000D03*
X40565995Y47645000D03*
X37485995Y47245000D03*
X40565995Y47245000D03*
X37485995Y46845000D03*
X40565995Y46845000D03*
X37485995Y46445000D03*
X40565995Y46445000D03*
X37485995Y46045000D03*
X40565995Y46045000D03*
X37485995Y45645000D03*
X40565995Y45645000D03*
X37485995Y45245000D03*
X40565995Y45245000D03*
X37485995Y44845000D03*
X40565995Y44845000D03*
X37485995Y44445000D03*
X40565995Y44445000D03*
X37485995Y44045000D03*
X40565995Y44045000D03*
X37485995Y43645000D03*
X40565995Y43645000D03*
X37485995Y43245000D03*
X40565995Y43245000D03*
X37485995Y42845000D03*
X40565995Y42845000D03*
X37485995Y42445000D03*
X40565995Y42445000D03*
X37485995Y42045000D03*
X40565995Y42045000D03*
X37485995Y41645000D03*
X40565995Y41645000D03*
X37485995Y41245000D03*
X40565995Y41245000D03*
X37485995Y40845000D03*
X40565995Y40845000D03*
X37485995Y40445000D03*
X40565995Y40445000D03*
X37485995Y40045000D03*
X40565995Y40045000D03*
X37485995Y39645000D03*
X40565995Y39645000D03*
X37485995Y39245000D03*
X40565995Y39245000D03*
X37485995Y38845000D03*
X40565995Y38845000D03*
X37485995Y38445000D03*
X40565995Y38445000D03*
X37485995Y38045000D03*
X40565995Y38045000D03*
X37485995Y37645000D03*
X40565995Y37645000D03*
X37485995Y37245000D03*
X40565995Y37245000D03*
X37485995Y36845000D03*
X40565995Y36845000D03*
X37485995Y36445000D03*
X40565995Y36445000D03*
X37485995Y36045000D03*
X40565995Y36045000D03*
X37485995Y35645000D03*
X40565995Y35645000D03*
X37485995Y35245000D03*
X40565995Y35245000D03*
X37485995Y34845000D03*
X40565995Y34845000D03*
X37485995Y34445000D03*
X40565995Y34445000D03*
X37485995Y34045000D03*
X40565995Y34045000D03*
X37485995Y33645000D03*
X40565995Y33645000D03*
X37485995Y33245000D03*
X40565995Y33245000D03*
X37485995Y32845000D03*
X40565995Y32845000D03*
X37485995Y32445000D03*
X40565995Y32445000D03*
X37485995Y32045000D03*
X40565995Y32045000D03*
X37485995Y31645000D03*
X40565995Y31645000D03*
X37485995Y31245000D03*
X40565995Y31245000D03*
X37485995Y30845000D03*
X40565995Y30845000D03*
X37485995Y30445000D03*
X40565995Y30445000D03*
%TD*%
D38*
%TO.C,D10*%
X12971995Y23560500D03*
X11071995Y23560500D03*
X12021995Y21685500D03*
%TD*%
D39*
%TO.C,R27*%
X7621995Y29833000D03*
X7621995Y28813000D03*
%TD*%
D40*
%TO.C,R22*%
X14996995Y26723000D03*
X16646995Y26723000D03*
%TD*%
D26*
%TO.C,C58*%
X40701995Y53873000D03*
X39741995Y53873000D03*
%TD*%
D33*
%TO.C,U17*%
X27112795Y70225000D03*
X26612795Y70225000D03*
D34*
X26112795Y70225000D03*
D33*
X25612795Y70225000D03*
X25112795Y70225000D03*
X25112795Y69455000D03*
X25612795Y69455000D03*
D34*
X26112795Y69455000D03*
D33*
X26612795Y69455000D03*
X27112795Y69455000D03*
%TD*%
D40*
%TO.C,R21*%
X17896995Y24823000D03*
X19546995Y24823000D03*
%TD*%
D41*
%TO.C,J4*%
X-944005Y35925000D03*
D42*
X-3484005Y35925000D03*
X-944005Y38465000D03*
X-3484005Y38465000D03*
X-944005Y41005000D03*
X-3484005Y41005000D03*
X-944005Y43545000D03*
X-3484005Y43545000D03*
X-944005Y46085000D03*
X-3484005Y46085000D03*
X-944005Y48625000D03*
X-3484005Y48625000D03*
X-944005Y51165000D03*
X-3484005Y51165000D03*
X-944005Y53705000D03*
X-3484005Y53705000D03*
X-944005Y56245000D03*
X-3484005Y56245000D03*
X-944005Y58785000D03*
X-3484005Y58785000D03*
X-944005Y61325000D03*
X-3484005Y61325000D03*
X-944005Y63865000D03*
X-3484005Y63865000D03*
X-944005Y66405000D03*
X-3484005Y66405000D03*
X-944005Y68945000D03*
X-3484005Y68945000D03*
X-944005Y71485000D03*
X-3484005Y71485000D03*
X-944005Y74025000D03*
X-3484005Y74025000D03*
X-944005Y76565000D03*
X-3484005Y76565000D03*
X-944005Y79105000D03*
X-3484005Y79105000D03*
X-944005Y81645000D03*
X-3484005Y81645000D03*
X-944005Y84185000D03*
X-3484005Y84185000D03*
%TD*%
D18*
%TO.C,C59*%
X26355995Y64195000D03*
X26355995Y65155000D03*
%TD*%
D26*
%TO.C,C36*%
X38905995Y25395000D03*
X37945995Y25395000D03*
%TD*%
D13*
%TO.C,C56*%
X30655995Y49145000D03*
X30655995Y48185000D03*
%TD*%
D43*
%TO.C,C4*%
X44748795Y60158600D03*
X50148795Y60158600D03*
%TD*%
D44*
%TO.C,C69*%
X46021995Y89953000D03*
X46021995Y91503000D03*
%TD*%
D41*
%TO.C,J6*%
X-7294005Y76335000D03*
D42*
X-7294005Y73795000D03*
X-7294005Y71255000D03*
X-7294005Y68715000D03*
%TD*%
D20*
%TO.C,C5*%
X44641995Y52423000D03*
X45601995Y52423000D03*
%TD*%
D45*
%TO.C,D4*%
X-12258252Y65943722D03*
X-10683252Y65943722D03*
%TD*%
D46*
%TO.C,U13*%
X37331595Y23219000D03*
X37331595Y22719000D03*
D47*
X37331595Y22219000D03*
D46*
X37331595Y21719000D03*
X37331595Y21219000D03*
X38101595Y21219000D03*
X38101595Y21719000D03*
D47*
X38101595Y22219000D03*
D46*
X38101595Y22719000D03*
X38101595Y23219000D03*
%TD*%
D26*
%TO.C,C67*%
X40801995Y91228000D03*
X39841995Y91228000D03*
%TD*%
D18*
%TO.C,C22*%
X13705995Y29675000D03*
X13705995Y30635000D03*
%TD*%
D32*
%TO.C,R46*%
X30246995Y62388000D03*
X30246995Y63408000D03*
%TD*%
D48*
%TO.C,L1*%
X20778795Y47552000D03*
X20778795Y49702000D03*
%TD*%
D11*
%TO.C,R48*%
X39746995Y86803000D03*
X39746995Y88453000D03*
%TD*%
D14*
%TO.C,R42*%
X37885995Y27395000D03*
X38905995Y27395000D03*
%TD*%
D49*
%TO.C,H1*%
X-6778005Y90223000D03*
%TD*%
D50*
%TO.C,J7*%
X-11378005Y20273000D03*
D51*
X-6298005Y20273000D03*
X-1218005Y20273000D03*
%TD*%
D36*
%TO.C,C26*%
X10396995Y28823000D03*
X8846995Y28823000D03*
%TD*%
D11*
%TO.C,R19*%
X16921995Y54398000D03*
X16921995Y56048000D03*
%TD*%
D18*
%TO.C,C64*%
X31649995Y64352200D03*
X31649995Y65312200D03*
%TD*%
D26*
%TO.C,C74*%
X23087595Y78903800D03*
X22127595Y78903800D03*
%TD*%
D52*
%TO.C,Q1*%
X11903995Y34814000D03*
X13803995Y34814000D03*
X12853995Y36689000D03*
%TD*%
D13*
%TO.C,C16*%
X-9944005Y49005000D03*
X-9944005Y48045000D03*
%TD*%
D40*
%TO.C,R37*%
X2596995Y28023000D03*
X4246995Y28023000D03*
%TD*%
D39*
%TO.C,R23*%
X17921995Y27533000D03*
X17921995Y26513000D03*
%TD*%
D53*
%TO.C,J1*%
X-11144005Y85163000D03*
D54*
X-11144005Y83913000D03*
X-11144005Y82663000D03*
X-11144005Y81413000D03*
X-11144005Y80163000D03*
%TD*%
D55*
%TO.C,Y1*%
X33121995Y64223000D03*
X33121995Y62823000D03*
X34221995Y62823000D03*
X34221995Y64223000D03*
%TD*%
D36*
%TO.C,C24*%
X12271995Y25423000D03*
X10721995Y25423000D03*
%TD*%
D13*
%TO.C,C33*%
X3405995Y24887500D03*
X3405995Y23927500D03*
%TD*%
D56*
%TO.C,T1*%
X4685995Y72207500D03*
X5955995Y72207500D03*
X7225995Y72207500D03*
X8495995Y72207500D03*
X9765995Y72207500D03*
X11035995Y72207500D03*
X12305995Y72207500D03*
X13575995Y72207500D03*
X14845995Y72207500D03*
X16115995Y72207500D03*
X17385995Y72207500D03*
X18655995Y72207500D03*
X18655995Y86417500D03*
X17385995Y86417500D03*
X16115995Y86417500D03*
X14845995Y86417500D03*
X13575995Y86417500D03*
X12305995Y86417500D03*
X11035995Y86417500D03*
X9765995Y86417500D03*
X8495995Y86417500D03*
X7225995Y86417500D03*
X5955995Y86417500D03*
X4685995Y86417500D03*
%TD*%
D13*
%TO.C,C44*%
X28555995Y49125000D03*
X28555995Y48165000D03*
%TD*%
D18*
%TO.C,C60*%
X22810795Y64250600D03*
X22810795Y65210600D03*
%TD*%
D14*
%TO.C,R41*%
X50139195Y23684200D03*
X51159195Y23684200D03*
%TD*%
D18*
%TO.C,C61*%
X30633995Y64352200D03*
X30633995Y65312200D03*
%TD*%
D13*
%TO.C,C1*%
X41454395Y25840600D03*
X41454395Y24880600D03*
%TD*%
D26*
%TO.C,C15*%
X11135995Y42875000D03*
X10175995Y42875000D03*
%TD*%
D39*
%TO.C,R3*%
X-6894005Y79845000D03*
X-6894005Y78825000D03*
%TD*%
D33*
%TO.C,U20*%
X35612395Y73425400D03*
X35112395Y73425400D03*
D34*
X34612395Y73425400D03*
D33*
X34112395Y73425400D03*
X33612395Y73425400D03*
X33612395Y72655400D03*
X34112395Y72655400D03*
D34*
X34612395Y72655400D03*
D33*
X35112395Y72655400D03*
X35612395Y72655400D03*
%TD*%
D14*
%TO.C,R9*%
X-11414005Y62645000D03*
X-10394005Y62645000D03*
%TD*%
D18*
%TO.C,C6*%
X2236795Y35115000D03*
X2236795Y36075000D03*
%TD*%
D13*
%TO.C,C7*%
X2236795Y34125000D03*
X2236795Y33165000D03*
%TD*%
D57*
%TO.C,D3*%
X49651995Y54723000D03*
X45651995Y54723000D03*
%TD*%
D12*
%TO.C,R17*%
X19273595Y52223800D03*
X18253595Y52223800D03*
%TD*%
D26*
%TO.C,C50*%
X21705995Y56265000D03*
X20745995Y56265000D03*
%TD*%
D18*
%TO.C,C72*%
X34393195Y74941400D03*
X34393195Y75901400D03*
%TD*%
D20*
%TO.C,C12*%
X10655995Y39175000D03*
X11615995Y39175000D03*
%TD*%
D19*
%TO.C,D7*%
X-11069005Y42770000D03*
X-11069005Y43970000D03*
X-12369005Y43970000D03*
X-12369005Y42770000D03*
%TD*%
D44*
%TO.C,C8*%
X44421995Y89953000D03*
X44421995Y91503000D03*
%TD*%
D36*
%TO.C,C27*%
X4896995Y22673000D03*
X3346995Y22673000D03*
%TD*%
D12*
%TO.C,R38*%
X42317995Y16064200D03*
X41297995Y16064200D03*
%TD*%
D18*
%TO.C,C10*%
X17805995Y41245000D03*
X17805995Y42205000D03*
%TD*%
D32*
%TO.C,R15*%
X18187995Y43799000D03*
X18187995Y44819000D03*
%TD*%
D41*
%TO.C,J10*%
X-7289005Y52275000D03*
D42*
X-7289005Y54815000D03*
X-7289005Y57355000D03*
X-7289005Y59895000D03*
X-7289005Y62435000D03*
X-7289005Y64975000D03*
%TD*%
D14*
%TO.C,R44*%
X30682795Y41819800D03*
X31702795Y41819800D03*
%TD*%
D39*
%TO.C,R32*%
X14715995Y31155000D03*
X14715995Y30135000D03*
%TD*%
%TO.C,R31*%
X6605995Y27325000D03*
X6605995Y26305000D03*
%TD*%
D58*
%TO.C,J2*%
X44381995Y37175800D03*
X44381995Y36675800D03*
X44381995Y36175800D03*
X44381995Y35675800D03*
X44381995Y35175800D03*
X44381995Y34675800D03*
X44381995Y34175800D03*
X44381995Y33675800D03*
X44381995Y33175800D03*
X44381995Y32675800D03*
X44381995Y32175800D03*
X44381995Y31675800D03*
X44381995Y31175800D03*
X44381995Y30675800D03*
X44381995Y30175800D03*
X44381995Y29675800D03*
X44381995Y29175800D03*
X44381995Y28675800D03*
X44381995Y28175800D03*
D59*
X45111995Y39925800D03*
X45111995Y25425800D03*
D60*
X51071995Y25425800D03*
X51071995Y39925800D03*
%TD*%
D14*
%TO.C,R13*%
X-10607481Y50924057D03*
X-9587481Y50924057D03*
%TD*%
D61*
%TO.C,C78*%
X22404395Y84187000D03*
X22404395Y87137000D03*
%TD*%
D41*
%TO.C,J8*%
X52621995Y80623000D03*
D42*
X52621995Y83163000D03*
X52621995Y85703000D03*
X52621995Y88243000D03*
%TD*%
D13*
%TO.C,C17*%
X-9944005Y46330000D03*
X-9944005Y45370000D03*
%TD*%
D45*
%TO.C,D5*%
X-12269005Y64145000D03*
X-10694005Y64145000D03*
%TD*%
D13*
%TO.C,C62*%
X25905995Y49165000D03*
X25905995Y48205000D03*
%TD*%
D18*
%TO.C,C32*%
X11678495Y29675000D03*
X11678495Y30635000D03*
%TD*%
D11*
%TO.C,R18*%
X16921995Y51398000D03*
X16921995Y53048000D03*
%TD*%
D12*
%TO.C,R43*%
X31702795Y42835800D03*
X30682795Y42835800D03*
%TD*%
D62*
%TO.C,FB1*%
X27305995Y43782500D03*
X27305995Y45907500D03*
%TD*%
D26*
%TO.C,C39*%
X21735995Y59045000D03*
X20775995Y59045000D03*
%TD*%
D14*
%TO.C,R52*%
X21844395Y82662000D03*
X22864395Y82662000D03*
%TD*%
D32*
%TO.C,R25*%
X7621995Y26813000D03*
X7621995Y27833000D03*
%TD*%
D39*
%TO.C,R10*%
X10613995Y35261500D03*
X10613995Y34241500D03*
%TD*%
D26*
%TO.C,C71*%
X49101995Y82323000D03*
X48141995Y82323000D03*
%TD*%
D46*
%TO.C,U2*%
X45561995Y46082200D03*
X45561995Y46582200D03*
D47*
X45561995Y47082200D03*
D46*
X45561995Y47582200D03*
X45561995Y48082200D03*
X44791995Y48082200D03*
X44791995Y47582200D03*
D47*
X44791995Y47082200D03*
D46*
X44791995Y46582200D03*
X44791995Y46082200D03*
%TD*%
D18*
%TO.C,C42*%
X27355995Y64205000D03*
X27355995Y65165000D03*
%TD*%
D62*
%TO.C,FB3*%
X37994795Y73840400D03*
X37994795Y75965400D03*
%TD*%
D25*
%TO.C,R45*%
X36171995Y61273000D03*
X34521995Y61273000D03*
%TD*%
D17*
%TO.C,C29*%
X-9878005Y26623000D03*
X-9878005Y32023000D03*
%TD*%
D18*
%TO.C,C41*%
X24350795Y64199800D03*
X24350795Y65159800D03*
%TD*%
D26*
%TO.C,C76*%
X8914395Y70013800D03*
X7954395Y70013800D03*
%TD*%
D63*
%TO.C,C73*%
X48821995Y80898000D03*
X48821995Y77948000D03*
%TD*%
D20*
%TO.C,C13*%
X10655995Y38205000D03*
X11615995Y38205000D03*
%TD*%
D14*
%TO.C,R33*%
X14715669Y29144756D03*
X15735669Y29144756D03*
%TD*%
D13*
%TO.C,C19*%
X-9944005Y41150000D03*
X-9944005Y40190000D03*
%TD*%
D64*
%TO.C,U18*%
X40215295Y73554600D03*
X40215295Y72604600D03*
X40215295Y71654600D03*
X42490295Y71654600D03*
X42490295Y73554600D03*
%TD*%
D18*
%TO.C,C70*%
X33326395Y74941400D03*
X33326395Y75901400D03*
%TD*%
D26*
%TO.C,C34*%
X42322995Y17079200D03*
X41362995Y17079200D03*
%TD*%
D12*
%TO.C,R53*%
X42941995Y91823000D03*
X41921995Y91823000D03*
%TD*%
D26*
%TO.C,C53*%
X21705995Y58065000D03*
X20745995Y58065000D03*
%TD*%
D65*
%TO.C,SW1*%
X50601195Y64989200D03*
X44601195Y64989200D03*
X50601195Y68739200D03*
X44601195Y68739200D03*
%TD*%
D20*
%TO.C,C48*%
X34405995Y57095000D03*
X35365995Y57095000D03*
%TD*%
D13*
%TO.C,C20*%
X15371195Y48395800D03*
X15371195Y47435800D03*
%TD*%
D20*
%TO.C,C47*%
X33161995Y65548000D03*
X34121995Y65548000D03*
%TD*%
D35*
%TO.C,D14*%
X-10644005Y52295000D03*
X-12219005Y52295000D03*
%TD*%
D18*
%TO.C,C3*%
X44321995Y42043000D03*
X44321995Y43003000D03*
%TD*%
D32*
%TO.C,R51*%
X1525595Y85759800D03*
X1525595Y86779800D03*
%TD*%
D35*
%TO.C,D15*%
X-10644005Y53945000D03*
X-12219005Y53945000D03*
%TD*%
D32*
%TO.C,R4*%
X-7944005Y78825000D03*
X-7944005Y79845000D03*
%TD*%
D26*
%TO.C,C75*%
X16280395Y70064600D03*
X15320395Y70064600D03*
%TD*%
D14*
%TO.C,R34*%
X15747595Y30186600D03*
X16767595Y30186600D03*
%TD*%
D36*
%TO.C,C37*%
X16796995Y21923000D03*
X15246995Y21923000D03*
%TD*%
D26*
%TO.C,C38*%
X16735995Y23495000D03*
X15775995Y23495000D03*
%TD*%
D66*
%TO.C,R26*%
X8021995Y32648000D03*
X8021995Y30998000D03*
%TD*%
D67*
%TO.C,L2*%
X45221995Y78438500D03*
X45221995Y82223000D03*
%TD*%
D20*
%TO.C,C14*%
X15875995Y43825000D03*
X16835995Y43825000D03*
%TD*%
D41*
%TO.C,J11*%
X-7244005Y35895000D03*
D42*
X-7244005Y38435000D03*
X-7244005Y40975000D03*
X-7244005Y43515000D03*
X-7244005Y46055000D03*
X-7244005Y48595000D03*
%TD*%
D26*
%TO.C,C21*%
X19243595Y51183800D03*
X18283595Y51183800D03*
%TD*%
D25*
%TO.C,R36*%
X3246995Y26323000D03*
X1596995Y26323000D03*
%TD*%
D39*
%TO.C,R35*%
X5605995Y28200000D03*
X5605995Y27180000D03*
%TD*%
D33*
%TO.C,U3*%
X10669595Y67575400D03*
X10169595Y67575400D03*
D34*
X9669595Y67575400D03*
D33*
X9169595Y67575400D03*
X8669595Y67575400D03*
X8669595Y66805400D03*
X9169595Y66805400D03*
D34*
X9669595Y66805400D03*
D33*
X10169595Y66805400D03*
X10669595Y66805400D03*
%TD*%
D68*
%TO.C,D12*%
X10221995Y30173000D03*
X10221995Y32273000D03*
%TD*%
D13*
%TO.C,C40*%
X29605995Y49175000D03*
X29605995Y48215000D03*
%TD*%
D22*
%TO.C,J15*%
X9704395Y90740200D03*
D23*
X8454395Y90740200D03*
X7204395Y90740200D03*
X5954395Y90740200D03*
%TD*%
D32*
%TO.C,R54*%
X43031995Y89718000D03*
X43031995Y90738000D03*
%TD*%
D69*
%TO.C,J13*%
X34805995Y81573000D03*
D70*
X32305995Y81573000D03*
X30305995Y81573000D03*
X27805995Y81573000D03*
X27305995Y80073000D03*
X29305995Y80073000D03*
X31305995Y80073000D03*
X33305995Y80073000D03*
X35305995Y80073000D03*
D71*
X37705995Y80823000D03*
D72*
X37705995Y89323000D03*
D71*
X24905995Y80823000D03*
D72*
X24905995Y89323000D03*
%TD*%
D13*
%TO.C,C65*%
X39991995Y85603000D03*
X39991995Y84643000D03*
%TD*%
D19*
%TO.C,D8*%
X-11069005Y45375000D03*
X-11069005Y46575000D03*
X-12369005Y46575000D03*
X-12369005Y45375000D03*
%TD*%
D18*
%TO.C,C30*%
X12678495Y29675000D03*
X12678495Y30635000D03*
%TD*%
D12*
%TO.C,R40*%
X46993595Y23684200D03*
X45973595Y23684200D03*
%TD*%
D73*
%TO.C,U8*%
X14670995Y44855000D03*
X14670995Y44355000D03*
X14670995Y43855000D03*
X14670995Y43355000D03*
X14670995Y42855000D03*
X14670995Y42355000D03*
X14670995Y41855000D03*
D74*
X13505995Y41440000D03*
D73*
X12340995Y41855000D03*
X12340995Y42355000D03*
X12340995Y42855000D03*
X12340995Y43355000D03*
X12340995Y43855000D03*
X12340995Y44355000D03*
X12340995Y44855000D03*
D74*
X13505995Y45270000D03*
%TD*%
D25*
%TO.C,R7*%
X45446995Y44323000D03*
X43796995Y44323000D03*
%TD*%
D12*
%TO.C,R14*%
X-11568005Y38923000D03*
X-12588005Y38923000D03*
%TD*%
%TO.C,R2*%
X-10494005Y55795000D03*
X-11514005Y55795000D03*
%TD*%
D43*
%TO.C,C66*%
X46421995Y73423000D03*
X51821995Y73423000D03*
%TD*%
D26*
%TO.C,C68*%
X38474795Y72602900D03*
X37514795Y72602900D03*
%TD*%
D75*
%TO.C,U9*%
X-12194005Y35020000D03*
X-11244005Y35020000D03*
X-10294005Y35020000D03*
X-10294005Y37295000D03*
X-12194005Y37295000D03*
%TD*%
D19*
%TO.C,D9*%
X-11069005Y48050000D03*
X-11069005Y49250000D03*
X-12369005Y49250000D03*
X-12369005Y48050000D03*
%TD*%
D68*
%TO.C,D13*%
X4905995Y24045000D03*
X4905995Y26145000D03*
%TD*%
D61*
%TO.C,C79*%
X49421995Y84748000D03*
X49421995Y87698000D03*
%TD*%
D76*
%TO.C,U6*%
X15380995Y37775000D03*
X15380995Y38575000D03*
X15380995Y39375000D03*
X15380995Y40175000D03*
X17755995Y40175000D03*
X17755995Y39375000D03*
X17755995Y38575000D03*
X17755995Y37775000D03*
%TD*%
D39*
%TO.C,R5*%
X35612395Y47867000D03*
X35612395Y46847000D03*
%TD*%
D40*
%TO.C,R49*%
X39696995Y89928000D03*
X41346995Y89928000D03*
%TD*%
D14*
%TO.C,R47*%
X34391195Y55840600D03*
X35411195Y55840600D03*
%TD*%
D77*
%TO.C,U19*%
X25155995Y52595000D03*
X25655995Y52595000D03*
X26155995Y52595000D03*
X26655995Y52595000D03*
X27155995Y52595000D03*
X27655995Y52595000D03*
X28155995Y52595000D03*
X28655995Y52595000D03*
X29155995Y52595000D03*
X29655995Y52595000D03*
X30155995Y52595000D03*
X30655995Y52595000D03*
D78*
X31355995Y53295000D03*
X31355995Y53795000D03*
X31355995Y54295000D03*
X31355995Y54795000D03*
X31355995Y55295000D03*
X31355995Y55795000D03*
X31355995Y56295000D03*
X31355995Y56795000D03*
X31355995Y57295000D03*
X31355995Y57795000D03*
X31355995Y58295000D03*
X31355995Y58795000D03*
D77*
X30655995Y59495000D03*
X30155995Y59495000D03*
X29655995Y59495000D03*
X29155995Y59495000D03*
X28655995Y59495000D03*
X28155995Y59495000D03*
X27655995Y59495000D03*
X27155995Y59495000D03*
X26655995Y59495000D03*
X26155995Y59495000D03*
X25655995Y59495000D03*
X25155995Y59495000D03*
D78*
X24455995Y58795000D03*
X24455995Y58295000D03*
X24455995Y57795000D03*
X24455995Y57295000D03*
X24455995Y56795000D03*
X24455995Y56295000D03*
X24455995Y55795000D03*
X24455995Y55295000D03*
X24455995Y54795000D03*
X24455995Y54295000D03*
X24455995Y53795000D03*
X24455995Y53295000D03*
D79*
X27905995Y56045000D03*
%TD*%
D26*
%TO.C,C11*%
X11665995Y40255000D03*
X10705995Y40255000D03*
%TD*%
D75*
%TO.C,U10*%
X16635995Y47447500D03*
X17585995Y47447500D03*
X18535995Y47447500D03*
X18535995Y49722500D03*
X16635995Y49722500D03*
%TD*%
D13*
%TO.C,C2*%
X41484395Y27840600D03*
X41484395Y26880600D03*
%TD*%
D25*
%TO.C,R29*%
X4196995Y21048000D03*
X2546995Y21048000D03*
%TD*%
D20*
%TO.C,C51*%
X34375995Y59095000D03*
X35335995Y59095000D03*
%TD*%
D80*
%TO.C,U5*%
X46791995Y84423000D03*
X46791995Y85693000D03*
X46791995Y86963000D03*
X46791995Y88233000D03*
X41851995Y88233000D03*
X41851995Y86963000D03*
X41851995Y85693000D03*
X41851995Y84423000D03*
%TD*%
D41*
%TO.C,J5*%
X-10994005Y76335000D03*
D42*
X-10994005Y73795000D03*
X-10994005Y71255000D03*
X-10994005Y68715000D03*
%TD*%
D81*
%TO.C,U16*%
X31755995Y44205000D03*
X32255995Y44205000D03*
X32755995Y44205000D03*
X33255995Y44205000D03*
D82*
X33255995Y46645000D03*
X32755995Y46645000D03*
X32255995Y46645000D03*
X31755995Y46645000D03*
D83*
X32505995Y45425000D03*
%TD*%
D18*
%TO.C,C46*%
X25955995Y45445000D03*
X25955995Y46405000D03*
%TD*%
D40*
%TO.C,R20*%
X14496995Y25123000D03*
X16146995Y25123000D03*
%TD*%
D27*
%TO.C,J9*%
X45415995Y20395000D03*
X51195995Y20395000D03*
D84*
X45055995Y21840000D03*
X45855995Y21840000D03*
D85*
X47055995Y21840000D03*
X48055995Y21840000D03*
X48555995Y21840000D03*
X49555995Y21840000D03*
D84*
X50755995Y21840000D03*
X51555995Y21840000D03*
X51555995Y21840000D03*
X50755995Y21840000D03*
D85*
X50055995Y21840000D03*
X49055995Y21840000D03*
X47555995Y21840000D03*
X46555995Y21840000D03*
D84*
X45855995Y21840000D03*
X45055995Y21840000D03*
D86*
X43985995Y20925000D03*
D87*
X43985995Y16745000D03*
D86*
X52625995Y20925000D03*
D87*
X52625995Y16745000D03*
%TD*%
D12*
%TO.C,R50*%
X23089595Y79913800D03*
X22069595Y79913800D03*
%TD*%
D13*
%TO.C,C31*%
X2405995Y24870000D03*
X2405995Y23910000D03*
%TD*%
%TO.C,C18*%
X-9944005Y43775000D03*
X-9944005Y42815000D03*
%TD*%
%TO.C,C55*%
X27555995Y49145000D03*
X27555995Y48185000D03*
%TD*%
D26*
%TO.C,C54*%
X21685995Y54295000D03*
X20725995Y54295000D03*
%TD*%
M02*
