%TF.GenerationSoftware,KiCad,Pcbnew,7.99.0-957-g18dd623122*%
%TF.CreationDate,2023-07-04T11:51:19-04:00*%
%TF.ProjectId,carrier,63617272-6965-4722-9e6b-696361645f70,V1.1*%
%TF.SameCoordinates,Original*%
%TF.FileFunction,Soldermask,Top*%
%TF.FilePolarity,Negative*%
%FSLAX46Y46*%
G04 Gerber Fmt 4.6, Leading zero omitted, Abs format (unit mm)*
G04 Created by KiCad (PCBNEW 7.99.0-957-g18dd623122) date 2023-07-04 11:51:19*
%MOMM*%
%LPD*%
G01*
G04 APERTURE LIST*
G04 Aperture macros list*
%AMRoundRect*
0 Rectangle with rounded corners*
0 $1 Rounding radius*
0 $2 $3 $4 $5 $6 $7 $8 $9 X,Y pos of 4 corners*
0 Add a 4 corners polygon primitive as box body*
4,1,4,$2,$3,$4,$5,$6,$7,$8,$9,$2,$3,0*
0 Add four circle primitives for the rounded corners*
1,1,$1+$1,$2,$3*
1,1,$1+$1,$4,$5*
1,1,$1+$1,$6,$7*
1,1,$1+$1,$8,$9*
0 Add four rect primitives between the rounded corners*
20,1,$1+$1,$2,$3,$4,$5,0*
20,1,$1+$1,$4,$5,$6,$7,0*
20,1,$1+$1,$6,$7,$8,$9,0*
20,1,$1+$1,$8,$9,$2,$3,0*%
%AMFreePoly0*
4,1,19,0.500000,-0.750000,0.000000,-0.750000,0.000000,-0.744911,-0.071157,-0.744911,-0.207708,-0.704816,-0.327430,-0.627875,-0.420627,-0.520320,-0.479746,-0.390866,-0.500000,-0.250000,-0.500000,0.250000,-0.479746,0.390866,-0.420627,0.520320,-0.327430,0.627875,-0.207708,0.704816,-0.071157,0.744911,0.000000,0.744911,0.000000,0.750000,0.500000,0.750000,0.500000,-0.750000,0.500000,-0.750000,
$1*%
%AMFreePoly1*
4,1,19,0.000000,0.744911,0.071157,0.744911,0.207708,0.704816,0.327430,0.627875,0.420627,0.520320,0.479746,0.390866,0.500000,0.250000,0.500000,-0.250000,0.479746,-0.390866,0.420627,-0.520320,0.327430,-0.627875,0.207708,-0.704816,0.071157,-0.744911,0.000000,-0.744911,0.000000,-0.750000,-0.500000,-0.750000,-0.500000,0.750000,0.000000,0.750000,0.000000,0.744911,0.000000,0.744911,
$1*%
G04 Aperture macros list end*
%ADD10C,0.165000*%
%ADD11R,0.250000X1.100000*%
%ADD12RoundRect,0.225000X-0.225000X-0.250000X0.225000X-0.250000X0.225000X0.250000X-0.225000X0.250000X0*%
%ADD13RoundRect,0.135000X-0.185000X0.135000X-0.185000X-0.135000X0.185000X-0.135000X0.185000X0.135000X0*%
%ADD14R,2.600000X0.300000*%
%ADD15O,3.300000X1.500000*%
%ADD16O,2.300000X1.500000*%
%ADD17RoundRect,0.112500X-0.187500X-0.112500X0.187500X-0.112500X0.187500X0.112500X-0.187500X0.112500X0*%
%ADD18R,2.000000X2.000000*%
%ADD19RoundRect,0.200000X0.275000X-0.200000X0.275000X0.200000X-0.275000X0.200000X-0.275000X-0.200000X0*%
%ADD20RoundRect,0.225000X0.250000X-0.225000X0.250000X0.225000X-0.250000X0.225000X-0.250000X-0.225000X0*%
%ADD21C,2.700000*%
%ADD22C,1.500000*%
%ADD23O,1.800000X2.800000*%
%ADD24C,3.200000*%
%ADD25RoundRect,0.250500X0.499500X0.499500X-0.499500X0.499500X-0.499500X-0.499500X0.499500X-0.499500X0*%
%ADD26C,2.500000*%
%ADD27RoundRect,0.135000X-0.135000X-0.185000X0.135000X-0.185000X0.135000X0.185000X-0.135000X0.185000X0*%
%ADD28RoundRect,0.200000X-0.275000X0.200000X-0.275000X-0.200000X0.275000X-0.200000X0.275000X0.200000X0*%
%ADD29RoundRect,0.225000X0.225000X0.250000X-0.225000X0.250000X-0.225000X-0.250000X0.225000X-0.250000X0*%
%ADD30RoundRect,0.200000X-0.200000X-0.275000X0.200000X-0.275000X0.200000X0.275000X-0.200000X0.275000X0*%
%ADD31R,1.700000X1.700000*%
%ADD32O,1.700000X1.700000*%
%ADD33RoundRect,0.200000X0.200000X0.275000X-0.200000X0.275000X-0.200000X-0.275000X0.200000X-0.275000X0*%
%ADD34R,1.500000X0.900000*%
%ADD35RoundRect,0.140000X0.170000X-0.140000X0.170000X0.140000X-0.170000X0.140000X-0.170000X-0.140000X0*%
%ADD36RoundRect,0.218750X-0.256250X0.218750X-0.256250X-0.218750X0.256250X-0.218750X0.256250X0.218750X0*%
%ADD37RoundRect,0.135000X0.135000X0.185000X-0.135000X0.185000X-0.135000X-0.185000X0.135000X-0.185000X0*%
%ADD38RoundRect,0.112500X0.112500X-0.187500X0.112500X0.187500X-0.112500X0.187500X-0.112500X-0.187500X0*%
%ADD39R,0.200000X0.700000*%
%ADD40R,0.590000X0.350000*%
%ADD41R,0.350000X0.590000*%
%ADD42RoundRect,0.200000X-0.450000X0.200000X-0.450000X-0.200000X0.450000X-0.200000X0.450000X0.200000X0*%
%ADD43O,1.300000X0.800000*%
%ADD44R,0.300000X0.550000*%
%ADD45R,0.400000X0.550000*%
%ADD46RoundRect,0.150000X-0.700000X0.150000X-0.700000X-0.150000X0.700000X-0.150000X0.700000X0.150000X0*%
%ADD47RoundRect,0.250000X-1.150000X0.250000X-1.150000X-0.250000X1.150000X-0.250000X1.150000X0.250000X0*%
%ADD48FreePoly0,270.000000*%
%ADD49FreePoly1,270.000000*%
%ADD50RoundRect,0.200000X-0.200000X-0.450000X0.200000X-0.450000X0.200000X0.450000X-0.200000X0.450000X0*%
%ADD51O,0.800000X1.300000*%
%ADD52R,1.000000X1.500000*%
%ADD53RoundRect,0.140000X-0.170000X0.140000X-0.170000X-0.140000X0.170000X-0.140000X0.170000X0.140000X0*%
%ADD54RoundRect,0.250000X0.475000X-0.250000X0.475000X0.250000X-0.475000X0.250000X-0.475000X-0.250000X0*%
%ADD55R,0.650000X0.400000*%
%ADD56RoundRect,0.225000X-0.250000X0.225000X-0.250000X-0.225000X0.250000X-0.225000X0.250000X0.225000X0*%
%ADD57R,0.300000X1.400000*%
%ADD58C,1.150000*%
%ADD59C,1.650000*%
%ADD60R,0.300000X1.550000*%
%ADD61R,1.200000X2.750000*%
%ADD62RoundRect,0.200000X0.200000X0.450000X-0.200000X0.450000X-0.200000X-0.450000X0.200000X-0.450000X0*%
%ADD63R,1.400000X1.200000*%
%ADD64C,0.650000*%
%ADD65R,0.600000X1.450000*%
%ADD66R,0.300000X1.450000*%
%ADD67O,1.000000X2.100000*%
%ADD68O,1.000000X1.600000*%
%ADD69RoundRect,0.250000X-0.475000X0.250000X-0.475000X-0.250000X0.475000X-0.250000X0.475000X0.250000X0*%
%ADD70RoundRect,0.140000X0.140000X0.170000X-0.140000X0.170000X-0.140000X-0.170000X0.140000X-0.170000X0*%
%ADD71RoundRect,0.250000X-0.787500X-1.025000X0.787500X-1.025000X0.787500X1.025000X-0.787500X1.025000X0*%
%ADD72RoundRect,0.150000X-0.150000X0.512500X-0.150000X-0.512500X0.150000X-0.512500X0.150000X0.512500X0*%
%ADD73R,3.960000X1.980000*%
%ADD74O,3.960000X1.980000*%
%ADD75RoundRect,0.150000X0.150000X-0.512500X0.150000X0.512500X-0.150000X0.512500X-0.150000X-0.512500X0*%
%ADD76C,1.000000*%
%ADD77R,0.760000X1.250000*%
%ADD78RoundRect,0.100000X-0.637500X-0.100000X0.637500X-0.100000X0.637500X0.100000X-0.637500X0.100000X0*%
%ADD79RoundRect,0.125000X0.137500X-0.125000X0.137500X0.125000X-0.137500X0.125000X-0.137500X-0.125000X0*%
%ADD80R,3.200000X3.200000*%
%ADD81O,3.200000X3.200000*%
%ADD82RoundRect,0.140000X-0.140000X-0.170000X0.140000X-0.170000X0.140000X0.170000X-0.140000X0.170000X0*%
%ADD83RoundRect,0.150000X-0.587500X-0.150000X0.587500X-0.150000X0.587500X0.150000X-0.587500X0.150000X0*%
%ADD84RoundRect,0.062500X-0.062500X0.350000X-0.062500X-0.350000X0.062500X-0.350000X0.062500X0.350000X0*%
%ADD85RoundRect,0.062500X-0.350000X0.062500X-0.350000X-0.062500X0.350000X-0.062500X0.350000X0.062500X0*%
%ADD86R,3.700000X3.700000*%
%ADD87C,2.000000*%
G04 APERTURE END LIST*
D10*
%TO.C,U12*%
X45859495Y25082000D02*
G75*
G03*
X45859495Y25082000I-82500J0D01*
G01*
X45859495Y24682000D02*
G75*
G03*
X45859495Y24682000I-82500J0D01*
G01*
X46259495Y25082000D02*
G75*
G03*
X46259495Y25082000I-82500J0D01*
G01*
X46259495Y24682000D02*
G75*
G03*
X46259495Y24682000I-82500J0D01*
G01*
%TD*%
D11*
%TO.C,U16*%
X29620995Y3539000D03*
X30120995Y3539000D03*
X30620995Y3539000D03*
X31120995Y3539000D03*
X31620995Y3539000D03*
X31620995Y7839000D03*
X31120995Y7839000D03*
X30620995Y7839000D03*
X30120995Y7839000D03*
X29620995Y7839000D03*
%TD*%
D12*
%TO.C,C25*%
X45201995Y21072000D03*
X46751995Y21072000D03*
%TD*%
D13*
%TO.C,R15*%
X4331995Y83415000D03*
X4331995Y82395000D03*
%TD*%
D14*
%TO.C,J1*%
X59530495Y87279000D03*
X59530495Y86779000D03*
X59530495Y86279000D03*
X59530495Y85779000D03*
X59530495Y85279000D03*
X59530495Y84779000D03*
X59530495Y84279000D03*
X59530495Y83779000D03*
X59530495Y83279000D03*
X59530495Y82779000D03*
X59530495Y82279000D03*
X59530495Y81779000D03*
X59530495Y81279000D03*
X59530495Y80779000D03*
X59530495Y80279000D03*
X59530495Y79779000D03*
X59530495Y79279000D03*
X59530495Y78779000D03*
X59530495Y78279000D03*
D15*
X60260495Y90029000D03*
X60260495Y75529000D03*
D16*
X66220495Y75529000D03*
X66220495Y90029000D03*
%TD*%
D17*
%TO.C,D13*%
X6775495Y16230000D03*
X8875495Y16230000D03*
%TD*%
D18*
%TO.C,TP1*%
X11432995Y29454000D03*
%TD*%
D13*
%TO.C,R22*%
X29477995Y2008000D03*
X29477995Y988000D03*
%TD*%
D19*
%TO.C,R1*%
X46368995Y28359000D03*
X46368995Y30009000D03*
%TD*%
D20*
%TO.C,C38*%
X7368995Y34013000D03*
X7368995Y35563000D03*
%TD*%
D21*
%TO.C,H1*%
X-5Y0D03*
%TD*%
D13*
%TO.C,R4*%
X36578995Y76448000D03*
X36578995Y75428000D03*
%TD*%
%TO.C,R3*%
X41007495Y76448000D03*
X41007495Y75428000D03*
%TD*%
D22*
%TO.C,J4*%
X52524995Y95075600D03*
X50024995Y95075600D03*
X48024995Y95075600D03*
X45524995Y95075600D03*
X52524995Y97695600D03*
X50024995Y97695600D03*
X48024995Y97695600D03*
X45524995Y97695600D03*
D23*
X55424995Y99245600D03*
X42624995Y99245600D03*
%TD*%
D24*
%TO.C,U10*%
X17932995Y95519000D03*
X6502995Y95519000D03*
D25*
X17932995Y86629000D03*
D22*
X16662995Y89169000D03*
X15392995Y86629000D03*
X14122995Y89169000D03*
X12852995Y86629000D03*
X11582995Y89169000D03*
X10312995Y86629000D03*
X9042995Y89169000D03*
X7772995Y86629000D03*
X6502995Y89169000D03*
D26*
X20092995Y92469000D03*
X4342995Y92469000D03*
D22*
X5587995Y99579000D03*
X8127995Y99579000D03*
X16307995Y99579000D03*
X18847995Y99579000D03*
%TD*%
D18*
%TO.C,TP2*%
X11564995Y32658000D03*
%TD*%
D27*
%TO.C,R13*%
X13716995Y30724000D03*
X14736995Y30724000D03*
%TD*%
D28*
%TO.C,R12*%
X33922995Y95033000D03*
X33922995Y93383000D03*
%TD*%
D29*
%TO.C,C30*%
X27839995Y12547000D03*
X26289995Y12547000D03*
%TD*%
D30*
%TO.C,R20*%
X37277995Y17008000D03*
X38927995Y17008000D03*
%TD*%
D31*
%TO.C,J8*%
X53733995Y13960000D03*
D32*
X56273995Y13960000D03*
X58813995Y13960000D03*
X61353995Y13960000D03*
%TD*%
D27*
%TO.C,R10*%
X25502595Y86807200D03*
X26522595Y86807200D03*
%TD*%
D33*
%TO.C,R21*%
X12776995Y37439000D03*
X11126995Y37439000D03*
%TD*%
D34*
%TO.C,D9*%
X5246995Y57268000D03*
X5246995Y60568000D03*
X346995Y60568000D03*
X346995Y57268000D03*
%TD*%
D35*
%TO.C,C8*%
X25504595Y87775000D03*
X25504595Y88735000D03*
%TD*%
D36*
%TO.C,D5*%
X12586995Y40639500D03*
X12586995Y39064500D03*
%TD*%
D37*
%TO.C,R6*%
X49153995Y85461000D03*
X48133995Y85461000D03*
%TD*%
D17*
%TO.C,D15*%
X10520995Y6832000D03*
X12620995Y6832000D03*
%TD*%
D31*
%TO.C,J12*%
X22745695Y16002000D03*
D32*
X20205695Y16002000D03*
X17665695Y16002000D03*
%TD*%
D38*
%TO.C,D3*%
X39612595Y13452800D03*
X39612595Y15552800D03*
%TD*%
D35*
%TO.C,C9*%
X36689495Y83586000D03*
X36689495Y84546000D03*
%TD*%
D21*
%TO.C,Module1*%
X18290995Y36840000D03*
X66290995Y36840000D03*
X18290995Y69840000D03*
X66290995Y69840000D03*
D39*
X34990995Y34840000D03*
X34990995Y37920000D03*
X35390995Y34840000D03*
X35390995Y37920000D03*
X35790995Y34840000D03*
X35790995Y37920000D03*
X36190995Y34840000D03*
X36190995Y37920000D03*
X36590995Y34840000D03*
X36590995Y37920000D03*
X36990995Y34840000D03*
X36990995Y37920000D03*
X37390995Y34840000D03*
X37390995Y37920000D03*
X37790995Y34840000D03*
X37790995Y37920000D03*
X38190995Y34840000D03*
X38190995Y37920000D03*
X38590995Y34840000D03*
X38590995Y37920000D03*
X38990995Y34840000D03*
X38990995Y37920000D03*
X39390995Y34840000D03*
X39390995Y37920000D03*
X39790995Y34840000D03*
X39790995Y37920000D03*
X40190995Y34840000D03*
X40190995Y37920000D03*
X40590995Y34840000D03*
X40590995Y37920000D03*
X40990995Y34840000D03*
X40990995Y37920000D03*
X41390995Y34840000D03*
X41390995Y37920000D03*
X41790995Y34840000D03*
X41790995Y37920000D03*
X42190995Y34840000D03*
X42190995Y37920000D03*
X42590995Y34840000D03*
X42590995Y37920000D03*
X42990995Y34840000D03*
X42990995Y37920000D03*
X43390995Y34840000D03*
X43390995Y37920000D03*
X43790995Y34840000D03*
X43790995Y37920000D03*
X44190995Y34840000D03*
X44190995Y37920000D03*
X44590995Y34840000D03*
X44590995Y37920000D03*
X44990995Y34840000D03*
X44990995Y37920000D03*
X45390995Y34840000D03*
X45390995Y37920000D03*
X45790995Y34840000D03*
X45790995Y37920000D03*
X46190995Y34840000D03*
X46190995Y37920000D03*
X46590995Y34840000D03*
X46590995Y37920000D03*
X46990995Y34840000D03*
X46990995Y37920000D03*
X47390995Y34840000D03*
X47390995Y37920000D03*
X47790995Y34840000D03*
X47790995Y37920000D03*
X48190995Y34840000D03*
X48190995Y37920000D03*
X48590995Y34840000D03*
X48590995Y37920000D03*
X48990995Y34840000D03*
X48990995Y37920000D03*
X49390995Y34840000D03*
X49390995Y37920000D03*
X49790995Y34840000D03*
X49790995Y37920000D03*
X50190995Y34840000D03*
X50190995Y37920000D03*
X50590995Y34840000D03*
X50590995Y37920000D03*
X50990995Y34840000D03*
X50990995Y37920000D03*
X51390995Y34840000D03*
X51390995Y37920000D03*
X51790995Y34840000D03*
X51790995Y37920000D03*
X52190995Y34840000D03*
X52190995Y37920000D03*
X52590995Y34840000D03*
X52590995Y37920000D03*
X52990995Y34840000D03*
X52990995Y37920000D03*
X53390995Y34840000D03*
X53390995Y37920000D03*
X53790995Y34840000D03*
X53790995Y37920000D03*
X54190995Y34840000D03*
X54190995Y37920000D03*
X54590995Y34840000D03*
X54590995Y37920000D03*
X34990995Y68760000D03*
X34990995Y71840000D03*
X35390995Y68760000D03*
X35390995Y71840000D03*
X35790995Y68760000D03*
X35790995Y71840000D03*
X36190995Y68760000D03*
X36190995Y71840000D03*
X36590995Y68760000D03*
X36590995Y71840000D03*
X36990995Y68760000D03*
X36990995Y71840000D03*
X37390995Y68760000D03*
X37390995Y71840000D03*
X37790995Y68760000D03*
X37790995Y71840000D03*
X38190995Y68760000D03*
X38190995Y71840000D03*
X38590995Y68760000D03*
X38590995Y71840000D03*
X38990995Y68760000D03*
X38990995Y71840000D03*
X39390995Y68760000D03*
X39390995Y71840000D03*
X39790995Y68760000D03*
X39790995Y71840000D03*
X40190995Y68760000D03*
X40190995Y71840000D03*
X40590995Y68760000D03*
X40590995Y71840000D03*
X40990995Y68760000D03*
X40990995Y71840000D03*
X41390995Y68760000D03*
X41390995Y71840000D03*
X41790995Y68760000D03*
X41790995Y71840000D03*
X42190995Y68760000D03*
X42190995Y71840000D03*
X42590995Y68760000D03*
X42590995Y71840000D03*
X42990995Y68760000D03*
X42990995Y71840000D03*
X43390995Y68760000D03*
X43390995Y71840000D03*
X43790995Y68760000D03*
X43790995Y71840000D03*
X44190995Y68760000D03*
X44190995Y71840000D03*
X44590995Y68760000D03*
X44590995Y71840000D03*
X44990995Y68760000D03*
X44990995Y71840000D03*
X45390995Y68760000D03*
X45390995Y71840000D03*
X45790995Y68760000D03*
X45790995Y71840000D03*
X46190995Y68760000D03*
X46190995Y71840000D03*
X46590995Y68760000D03*
X46590995Y71840000D03*
X46990995Y68760000D03*
X46990995Y71840000D03*
X47390995Y68760000D03*
X47390995Y71840000D03*
X47790995Y68760000D03*
X47790995Y71840000D03*
X48190995Y68760000D03*
X48190995Y71840000D03*
X48590995Y68760000D03*
X48590995Y71840000D03*
X48990995Y68760000D03*
X48990995Y71840000D03*
X49390995Y68760000D03*
X49390995Y71840000D03*
X49790995Y68760000D03*
X49790995Y71840000D03*
X50190995Y68760000D03*
X50190995Y71840000D03*
X50590995Y68760000D03*
X50590995Y71840000D03*
X50990995Y68760000D03*
X50990995Y71840000D03*
X51390995Y68760000D03*
X51390995Y71840000D03*
X51790995Y68760000D03*
X51790995Y71840000D03*
X52190995Y68760000D03*
X52190995Y71840000D03*
X52590995Y68760000D03*
X52590995Y71840000D03*
X52990995Y68760000D03*
X52990995Y71840000D03*
X53390995Y68760000D03*
X53390995Y71840000D03*
X53790995Y68760000D03*
X53790995Y71840000D03*
X54190995Y68760000D03*
X54190995Y71840000D03*
X54590995Y68760000D03*
X54590995Y71840000D03*
%TD*%
D36*
%TO.C,D1*%
X9003995Y30244500D03*
X9003995Y28669500D03*
%TD*%
D13*
%TO.C,R5*%
X45833495Y76702000D03*
X45833495Y75682000D03*
%TD*%
D31*
%TO.C,J9*%
X61343995Y18278000D03*
D32*
X58803995Y18278000D03*
X56263995Y18278000D03*
X53723995Y18278000D03*
%TD*%
D37*
%TO.C,R9*%
X26522595Y85740400D03*
X25502595Y85740400D03*
%TD*%
D40*
%TO.C,U13*%
X40173895Y22860000D03*
X40173895Y22360000D03*
X40173895Y21860000D03*
X40173895Y21360000D03*
X40173895Y20860000D03*
X40173895Y20360000D03*
X40173895Y19860000D03*
D41*
X39008895Y19445000D03*
D40*
X37843895Y19860000D03*
X37843895Y20360000D03*
X37843895Y20860000D03*
X37843895Y21360000D03*
X37843895Y21860000D03*
X37843895Y22360000D03*
X37843895Y22860000D03*
D41*
X39008895Y23275000D03*
%TD*%
D28*
%TO.C,R11*%
X32398995Y95033000D03*
X32398995Y93383000D03*
%TD*%
D34*
%TO.C,D11*%
X5246995Y71460000D03*
X5246995Y74760000D03*
X346995Y74760000D03*
X346995Y71460000D03*
%TD*%
D13*
%TO.C,R16*%
X3315995Y83415000D03*
X3315995Y82395000D03*
%TD*%
D31*
%TO.C,J5*%
X56136995Y27930000D03*
D32*
X58676995Y27930000D03*
X56136995Y25390000D03*
X58676995Y25390000D03*
X56136995Y22850000D03*
X58676995Y22850000D03*
%TD*%
D42*
%TO.C,J6*%
X9963995Y61956000D03*
D43*
X9963995Y60706000D03*
X9963995Y59456000D03*
X9963995Y58206000D03*
X9963995Y56956000D03*
X9963995Y55706000D03*
X9963995Y54456000D03*
X9963995Y53206000D03*
X9963995Y51956000D03*
X9963995Y50706000D03*
X9963995Y49456000D03*
X9963995Y48206000D03*
X9963995Y46956000D03*
X9963995Y45706000D03*
X9963995Y44456000D03*
%TD*%
D44*
%TO.C,U7*%
X7892995Y83171000D03*
X8392995Y83171000D03*
D45*
X8892995Y83171000D03*
D44*
X9392995Y83171000D03*
X9892995Y83171000D03*
X9892995Y83941000D03*
X9392995Y83941000D03*
D45*
X8892995Y83941000D03*
D44*
X8392995Y83941000D03*
X7892995Y83941000D03*
%TD*%
D46*
%TO.C,SW2*%
X7683495Y21869000D03*
X7683495Y20619000D03*
D47*
X11033495Y23719000D03*
X11033495Y18769000D03*
%TD*%
D12*
%TO.C,C33*%
X3967995Y41138000D03*
X5517995Y41138000D03*
%TD*%
D17*
%TO.C,D14*%
X3154995Y16230000D03*
X5254995Y16230000D03*
%TD*%
D37*
%TO.C,R8*%
X17824095Y75134150D03*
X16804095Y75134150D03*
%TD*%
D48*
%TO.C,JP2*%
X48908995Y33136000D03*
D49*
X48908995Y31836000D03*
%TD*%
D35*
%TO.C,C11*%
X41007495Y85882000D03*
X41007495Y86842000D03*
%TD*%
D46*
%TO.C,SW4*%
X7683495Y12176000D03*
X7683495Y10926000D03*
D47*
X11033495Y14026000D03*
X11033495Y9076000D03*
%TD*%
D50*
%TO.C,J10*%
X37988995Y8938000D03*
D51*
X39238995Y8938000D03*
X40488995Y8938000D03*
X41738995Y8938000D03*
X42988995Y8938000D03*
X44238995Y8938000D03*
X45488995Y8938000D03*
X46738995Y8938000D03*
X47988995Y8938000D03*
X49238995Y8938000D03*
%TD*%
D30*
%TO.C,R19*%
X7443995Y37439000D03*
X9093995Y37439000D03*
%TD*%
D48*
%TO.C,JP1*%
X46368995Y33136000D03*
D49*
X46368995Y31836000D03*
%TD*%
D46*
%TO.C,SW5*%
X33495Y12176000D03*
X33495Y10926000D03*
D47*
X3383495Y14026000D03*
X3383495Y9076000D03*
%TD*%
D12*
%TO.C,C20*%
X45304495Y13808500D03*
X46854495Y13808500D03*
%TD*%
D52*
%TO.C,JP4*%
X7429495Y6766000D03*
X8729495Y6766000D03*
%TD*%
D36*
%TO.C,D2*%
X9135995Y33434500D03*
X9135995Y31859500D03*
%TD*%
D53*
%TO.C,C19*%
X11570995Y83306025D03*
X11570995Y82346025D03*
%TD*%
D54*
%TO.C,C16*%
X24172095Y81042150D03*
X24172095Y82942150D03*
%TD*%
D12*
%TO.C,C24*%
X45201995Y22566000D03*
X46751995Y22566000D03*
%TD*%
D55*
%TO.C,U6*%
X15795995Y28042000D03*
X15795995Y28692000D03*
X15795995Y29342000D03*
X13895995Y29342000D03*
X13895995Y28042000D03*
%TD*%
D50*
%TO.C,J20*%
X55806995Y8991000D03*
D51*
X57056995Y8991000D03*
X58306995Y8991000D03*
X59556995Y8991000D03*
X60806995Y8991000D03*
%TD*%
D56*
%TO.C,C21*%
X43238995Y21105000D03*
X43238995Y19555000D03*
%TD*%
D52*
%TO.C,JP5*%
X4269495Y6766000D03*
X2969495Y6766000D03*
%TD*%
D44*
%TO.C,U8*%
X14242995Y83308000D03*
X14742995Y83308000D03*
D45*
X15242995Y83308000D03*
D44*
X15742995Y83308000D03*
X16242995Y83308000D03*
X16242995Y84078000D03*
X15742995Y84078000D03*
D45*
X15242995Y84078000D03*
D44*
X14742995Y84078000D03*
X14242995Y84078000D03*
%TD*%
D30*
%TO.C,R18*%
X36247595Y15417200D03*
X37897595Y15417200D03*
%TD*%
D46*
%TO.C,SW3*%
X33495Y21869000D03*
X33495Y20619000D03*
D47*
X3383495Y23719000D03*
X3383495Y18769000D03*
%TD*%
D31*
%TO.C,J3*%
X36070995Y105146000D03*
D32*
X38610995Y105146000D03*
X36070995Y102606000D03*
X38610995Y102606000D03*
X36070995Y100066000D03*
X38610995Y100066000D03*
X36070995Y97526000D03*
X38610995Y97526000D03*
%TD*%
D57*
%TO.C,U4*%
X26942995Y88290200D03*
X27442995Y88290200D03*
X27942995Y88290200D03*
X28442995Y88290200D03*
X28942995Y88290200D03*
X28942995Y92690200D03*
X28442995Y92690200D03*
X27942995Y92690200D03*
X27442995Y92690200D03*
X26942995Y92690200D03*
%TD*%
D58*
%TO.C,J18*%
X37511995Y633000D03*
D59*
X57511995Y633000D03*
D60*
X38261995Y5908000D03*
X38511995Y-1642000D03*
X38761995Y5908000D03*
X39011995Y-1642000D03*
X39261995Y5908000D03*
X39511995Y-1642000D03*
X39761995Y5908000D03*
X42011995Y-1642000D03*
X42261995Y5908000D03*
X42511995Y-1642000D03*
X42761995Y5908000D03*
X43011995Y-1642000D03*
X43261995Y5908000D03*
X43511995Y-1642000D03*
X43761995Y5908000D03*
X44011995Y-1642000D03*
X44261995Y5908000D03*
X44511995Y-1642000D03*
X44761995Y5908000D03*
X45011995Y-1642000D03*
X45261995Y5908000D03*
X45511995Y-1642000D03*
X45761995Y5908000D03*
X46011995Y-1642000D03*
X46261995Y5908000D03*
X46511995Y-1642000D03*
X46761995Y5908000D03*
X47011995Y-1642000D03*
X47261995Y5908000D03*
X47511995Y-1642000D03*
X47761995Y5908000D03*
X48011995Y-1642000D03*
X48261995Y5908000D03*
X48511995Y-1642000D03*
X48761995Y5908000D03*
X49011995Y-1642000D03*
X49261995Y5908000D03*
X49511995Y-1642000D03*
X49761995Y5908000D03*
X50011995Y-1642000D03*
X50261995Y5908000D03*
X50511995Y-1642000D03*
X50761995Y5908000D03*
X51011995Y-1642000D03*
X51261995Y5908000D03*
X51511995Y-1642000D03*
X51761995Y5908000D03*
X52011995Y-1642000D03*
X52261995Y5908000D03*
X52511995Y-1642000D03*
X52761995Y5908000D03*
X53011995Y-1642000D03*
X53261995Y5908000D03*
X53511995Y-1642000D03*
X53761995Y5908000D03*
X54011995Y-1642000D03*
X54261995Y5908000D03*
X54511995Y-1642000D03*
X54761995Y5908000D03*
X55011995Y-1642000D03*
X55261995Y5908000D03*
X55511995Y-1642000D03*
X55761995Y5908000D03*
X56011995Y-1642000D03*
X56261995Y5908000D03*
X56511995Y-1642000D03*
X56761995Y5908000D03*
D61*
X37161995Y5133000D03*
X57861995Y5133000D03*
%TD*%
D56*
%TO.C,C27*%
X34988995Y20855000D03*
X34988995Y19305000D03*
%TD*%
D62*
%TO.C,J7*%
X39506995Y28692000D03*
D51*
X38256995Y28692000D03*
X37006995Y28692000D03*
X35756995Y28692000D03*
X34506995Y28692000D03*
X33256995Y28692000D03*
X32006995Y28692000D03*
X30756995Y28692000D03*
X29506995Y28692000D03*
X28256995Y28692000D03*
X27006995Y28692000D03*
X25756995Y28692000D03*
X24506995Y28692000D03*
X23256995Y28692000D03*
X22006995Y28692000D03*
%TD*%
D63*
%TO.C,Y1*%
X48576495Y83860000D03*
X46376495Y83860000D03*
X46376495Y82260000D03*
X48576495Y82260000D03*
%TD*%
D64*
%TO.C,J2*%
X31614995Y100076500D03*
X25834995Y100076500D03*
D65*
X31974995Y98631500D03*
X31174995Y98631500D03*
D66*
X29974995Y98631500D03*
X28974995Y98631500D03*
X28474995Y98631500D03*
X27474995Y98631500D03*
D65*
X26274995Y98631500D03*
X25474995Y98631500D03*
X25474995Y98631500D03*
X26274995Y98631500D03*
D66*
X26974995Y98631500D03*
X27974995Y98631500D03*
X29474995Y98631500D03*
X30474995Y98631500D03*
D65*
X31174995Y98631500D03*
X31974995Y98631500D03*
D67*
X33044995Y99546500D03*
D68*
X33044995Y103726500D03*
D67*
X24404995Y99546500D03*
D68*
X24404995Y103726500D03*
%TD*%
D21*
%TO.C,H4*%
X-5Y103886000D03*
%TD*%
D69*
%TO.C,C6*%
X39348495Y76136000D03*
X39348495Y74236000D03*
%TD*%
D17*
%TO.C,D16*%
X-844505Y6832000D03*
X1255495Y6832000D03*
%TD*%
D54*
%TO.C,C4*%
X18584095Y81042150D03*
X18584095Y82942150D03*
%TD*%
D70*
%TO.C,C2*%
X61834995Y92192000D03*
X60874995Y92192000D03*
%TD*%
D53*
%TO.C,C3*%
X50270495Y83540000D03*
X50270495Y82580000D03*
%TD*%
%TO.C,C15*%
X35419495Y80736000D03*
X35419495Y79776000D03*
%TD*%
D31*
%TO.C,J21*%
X62370995Y27411000D03*
D32*
X62370995Y24871000D03*
%TD*%
D71*
%TO.C,C12*%
X23901695Y77596400D03*
X30126695Y77596400D03*
%TD*%
D31*
%TO.C,J11*%
X22745695Y23570000D03*
D32*
X20205695Y23570000D03*
X17665695Y23570000D03*
%TD*%
D30*
%TO.C,R24*%
X4127995Y33909000D03*
X5777995Y33909000D03*
%TD*%
D72*
%TO.C,U2*%
X19026095Y79065650D03*
X18076095Y79065650D03*
X17126095Y79065650D03*
X17126095Y76790650D03*
X18076095Y76790650D03*
X19026095Y76790650D03*
%TD*%
D53*
%TO.C,C13*%
X45579495Y79212000D03*
X45579495Y78252000D03*
%TD*%
D36*
%TO.C,D4*%
X9030995Y40639500D03*
X9030995Y39064500D03*
%TD*%
D13*
%TO.C,R7*%
X42023495Y76448000D03*
X42023495Y75428000D03*
%TD*%
D31*
%TO.C,J17*%
X26836395Y9880000D03*
D32*
X26836395Y7340000D03*
X26836395Y4800000D03*
X26836395Y2260000D03*
%TD*%
D34*
%TO.C,D10*%
X5246995Y64380000D03*
X5246995Y67680000D03*
X346995Y67680000D03*
X346995Y64380000D03*
%TD*%
D73*
%TO.C,J19*%
X73662995Y6848000D03*
D74*
X73662995Y11848000D03*
%TD*%
D75*
%TO.C,U17*%
X258995Y31380000D03*
X1208995Y31380000D03*
X2158995Y31380000D03*
X2158995Y33655000D03*
X258995Y33655000D03*
%TD*%
D76*
%TO.C,TP11*%
X71249995Y25644000D03*
%TD*%
D56*
%TO.C,C23*%
X36488995Y20855000D03*
X36488995Y19305000D03*
%TD*%
D77*
%TO.C,SW1*%
X51945995Y28210000D03*
X50675995Y28210000D03*
X50675995Y22060000D03*
X51945995Y22060000D03*
%TD*%
D21*
%TO.C,H2*%
X66928995Y103886000D03*
%TD*%
D37*
%TO.C,R14*%
X11677995Y34679000D03*
X10657995Y34679000D03*
%TD*%
D76*
%TO.C,TP12*%
X76329995Y25644000D03*
%TD*%
D69*
%TO.C,C5*%
X44309495Y76380000D03*
X44309495Y74480000D03*
%TD*%
D12*
%TO.C,C34*%
X3967995Y48250000D03*
X5517995Y48250000D03*
%TD*%
D72*
%TO.C,U15*%
X31443995Y12287500D03*
X30493995Y12287500D03*
X29543995Y12287500D03*
X29543995Y10012500D03*
X31443995Y10012500D03*
%TD*%
D78*
%TO.C,U14*%
X26909823Y23392800D03*
X26909823Y22742800D03*
X26909823Y22092800D03*
X26909823Y21442800D03*
X26909823Y20792800D03*
X26909823Y20142800D03*
X26909823Y19492800D03*
X26909823Y18842800D03*
X26909823Y18192800D03*
X26909823Y17542800D03*
X26909823Y16892800D03*
X26909823Y16242800D03*
X26909823Y15592800D03*
X26909823Y14942800D03*
X32634823Y14942800D03*
X32634823Y15592800D03*
X32634823Y16242800D03*
X32634823Y16892800D03*
X32634823Y17542800D03*
X32634823Y18192800D03*
X32634823Y18842800D03*
X32634823Y19492800D03*
X32634823Y20142800D03*
X32634823Y20792800D03*
X32634823Y21442800D03*
X32634823Y22092800D03*
X32634823Y22742800D03*
X32634823Y23392800D03*
%TD*%
D33*
%TO.C,R17*%
X46904495Y16856500D03*
X45254495Y16856500D03*
%TD*%
D44*
%TO.C,U5*%
X29450995Y95447200D03*
X28950995Y95447200D03*
D45*
X28450995Y95447200D03*
D44*
X27950995Y95447200D03*
X27450995Y95447200D03*
X27450995Y94677200D03*
X27950995Y94677200D03*
D45*
X28450995Y94677200D03*
D44*
X28950995Y94677200D03*
X29450995Y94677200D03*
%TD*%
D31*
%TO.C,J14*%
X22745695Y19812000D03*
D32*
X20205695Y19812000D03*
X17665695Y19812000D03*
%TD*%
D52*
%TO.C,JP6*%
X10731495Y16418000D03*
X12031495Y16418000D03*
%TD*%
D79*
%TO.C,U11*%
X41233495Y13776000D03*
X41233495Y14576000D03*
X41233495Y15376000D03*
X41233495Y16176000D03*
X43608495Y16176000D03*
X43608495Y15376000D03*
X43608495Y14576000D03*
X43608495Y13776000D03*
%TD*%
D56*
%TO.C,C28*%
X41738995Y21105000D03*
X41738995Y19555000D03*
%TD*%
D54*
%TO.C,C17*%
X26966095Y81042150D03*
X26966095Y82942150D03*
%TD*%
D34*
%TO.C,D6*%
X5246995Y35932000D03*
X5246995Y39232000D03*
X346995Y39232000D03*
X346995Y35932000D03*
%TD*%
D12*
%TO.C,C26*%
X45201995Y19548000D03*
X46751995Y19548000D03*
%TD*%
D80*
%TO.C,D12*%
X65026995Y20056000D03*
D81*
X77726995Y20056000D03*
%TD*%
D82*
%TO.C,C7*%
X46996495Y80774000D03*
X47956495Y80774000D03*
%TD*%
D12*
%TO.C,C37*%
X3967995Y69586000D03*
X5517995Y69586000D03*
%TD*%
D52*
%TO.C,JP7*%
X1109495Y16418000D03*
X-190505Y16418000D03*
%TD*%
D22*
%TO.C,TP7*%
X4408195Y29031600D03*
%TD*%
D29*
%TO.C,C29*%
X36196595Y23240400D03*
X34646595Y23240400D03*
%TD*%
D13*
%TO.C,R23*%
X32906995Y12422000D03*
X32906995Y11402000D03*
%TD*%
D55*
%TO.C,U9*%
X15673995Y31997000D03*
X15673995Y32647000D03*
X15673995Y33297000D03*
X13773995Y33297000D03*
X13773995Y31997000D03*
%TD*%
D35*
%TO.C,C1*%
X64656995Y95760000D03*
X64656995Y96720000D03*
%TD*%
D54*
%TO.C,C14*%
X21378095Y81042150D03*
X21378095Y82942150D03*
%TD*%
D31*
%TO.C,J16*%
X22730695Y4572000D03*
D32*
X20190695Y4572000D03*
X17650695Y4572000D03*
%TD*%
D54*
%TO.C,C18*%
X29760095Y81042150D03*
X29760095Y82942150D03*
%TD*%
D12*
%TO.C,C36*%
X3967995Y62474000D03*
X5517995Y62474000D03*
%TD*%
D31*
%TO.C,J13*%
X22745695Y8382000D03*
D32*
X20205695Y8382000D03*
X17665695Y8382000D03*
%TD*%
D12*
%TO.C,C22*%
X45304495Y15332500D03*
X46854495Y15332500D03*
%TD*%
D83*
%TO.C,U1*%
X64696495Y94102000D03*
X64696495Y92202000D03*
X66571495Y93152000D03*
%TD*%
D29*
%TO.C,C32*%
X34951995Y7619400D03*
X33401995Y7619400D03*
%TD*%
D84*
%TO.C,U3*%
X43007495Y84463500D03*
X42507495Y84463500D03*
X42007495Y84463500D03*
X41507495Y84463500D03*
X41007495Y84463500D03*
X40507495Y84463500D03*
X40007495Y84463500D03*
X39507495Y84463500D03*
X39007495Y84463500D03*
D85*
X38069995Y83526000D03*
X38069995Y83026000D03*
X38069995Y82526000D03*
X38069995Y82026000D03*
X38069995Y81526000D03*
X38069995Y81026000D03*
X38069995Y80526000D03*
X38069995Y80026000D03*
X38069995Y79526000D03*
D84*
X39007495Y78588500D03*
X39507495Y78588500D03*
X40007495Y78588500D03*
X40507495Y78588500D03*
X41007495Y78588500D03*
X41507495Y78588500D03*
X42007495Y78588500D03*
X42507495Y78588500D03*
X43007495Y78588500D03*
D85*
X43944995Y79526000D03*
X43944995Y80026000D03*
X43944995Y80526000D03*
X43944995Y81026000D03*
X43944995Y81526000D03*
X43944995Y82026000D03*
X43944995Y82526000D03*
X43944995Y83026000D03*
X43944995Y83526000D03*
D86*
X41007495Y81526000D03*
%TD*%
D22*
%TO.C,TP8*%
X4306595Y31750000D03*
%TD*%
D34*
%TO.C,D8*%
X5246995Y50156000D03*
X5246995Y53456000D03*
X346995Y53456000D03*
X346995Y50156000D03*
%TD*%
D28*
%TO.C,R2*%
X47892995Y30009000D03*
X47892995Y28359000D03*
%TD*%
D82*
%TO.C,C10*%
X45369995Y85588000D03*
X46329995Y85588000D03*
%TD*%
D21*
%TO.C,H3*%
X66931995Y0D03*
%TD*%
D34*
%TO.C,D7*%
X5246995Y43044000D03*
X5246995Y46344000D03*
X346995Y46344000D03*
X346995Y43044000D03*
%TD*%
D12*
%TO.C,C31*%
X33401995Y9270400D03*
X34951995Y9270400D03*
%TD*%
%TO.C,C35*%
X3967995Y55362000D03*
X5517995Y55362000D03*
%TD*%
D31*
%TO.C,J15*%
X22730695Y12192000D03*
D32*
X20190695Y12192000D03*
X17650695Y12192000D03*
%TD*%
D18*
%TO.C,BZ1*%
X6747495Y3556000D03*
D87*
X11747495Y3556000D03*
%TD*%
M02*
