%TF.GenerationSoftware,KiCad,Pcbnew,7.99.0-957-g18dd623122*%
%TF.CreationDate,2023-06-14T23:17:29-04:00*%
%TF.ProjectId,carrier,63617272-6965-4722-9e6b-696361645f70,V1.0*%
%TF.SameCoordinates,Original*%
%TF.FileFunction,Paste,Top*%
%TF.FilePolarity,Positive*%
%FSLAX46Y46*%
G04 Gerber Fmt 4.6, Leading zero omitted, Abs format (unit mm)*
G04 Created by KiCad (PCBNEW 7.99.0-957-g18dd623122) date 2023-06-14 23:17:29*
%MOMM*%
%LPD*%
G01*
G04 APERTURE LIST*
G04 Aperture macros list*
%AMRoundRect*
0 Rectangle with rounded corners*
0 $1 Rounding radius*
0 $2 $3 $4 $5 $6 $7 $8 $9 X,Y pos of 4 corners*
0 Add a 4 corners polygon primitive as box body*
4,1,4,$2,$3,$4,$5,$6,$7,$8,$9,$2,$3,0*
0 Add four circle primitives for the rounded corners*
1,1,$1+$1,$2,$3*
1,1,$1+$1,$4,$5*
1,1,$1+$1,$6,$7*
1,1,$1+$1,$8,$9*
0 Add four rect primitives between the rounded corners*
20,1,$1+$1,$2,$3,$4,$5,0*
20,1,$1+$1,$4,$5,$6,$7,0*
20,1,$1+$1,$6,$7,$8,$9,0*
20,1,$1+$1,$8,$9,$2,$3,0*%
G04 Aperture macros list end*
%ADD10R,0.250000X1.100000*%
%ADD11RoundRect,0.200000X0.275000X-0.200000X0.275000X0.200000X-0.275000X0.200000X-0.275000X-0.200000X0*%
%ADD12RoundRect,0.218750X0.256250X-0.218750X0.256250X0.218750X-0.256250X0.218750X-0.256250X-0.218750X0*%
%ADD13RoundRect,0.225000X0.250000X-0.225000X0.250000X0.225000X-0.250000X0.225000X-0.250000X-0.225000X0*%
%ADD14RoundRect,0.225000X-0.225000X-0.250000X0.225000X-0.250000X0.225000X0.250000X-0.225000X0.250000X0*%
%ADD15RoundRect,0.135000X-0.185000X0.135000X-0.185000X-0.135000X0.185000X-0.135000X0.185000X0.135000X0*%
%ADD16R,2.600000X0.300000*%
%ADD17RoundRect,0.218750X-0.218750X-0.256250X0.218750X-0.256250X0.218750X0.256250X-0.218750X0.256250X0*%
%ADD18RoundRect,0.250000X-0.787500X-1.025000X0.787500X-1.025000X0.787500X1.025000X-0.787500X1.025000X0*%
%ADD19RoundRect,0.135000X-0.135000X-0.185000X0.135000X-0.185000X0.135000X0.185000X-0.135000X0.185000X0*%
%ADD20RoundRect,0.200000X-0.275000X0.200000X-0.275000X-0.200000X0.275000X-0.200000X0.275000X0.200000X0*%
%ADD21RoundRect,0.200000X-0.200000X-0.275000X0.200000X-0.275000X0.200000X0.275000X-0.200000X0.275000X0*%
%ADD22R,1.500000X0.900000*%
%ADD23RoundRect,0.140000X0.170000X-0.140000X0.170000X0.140000X-0.170000X0.140000X-0.170000X-0.140000X0*%
%ADD24RoundRect,0.135000X0.135000X0.185000X-0.135000X0.185000X-0.135000X-0.185000X0.135000X-0.185000X0*%
%ADD25R,0.200000X0.700000*%
%ADD26RoundRect,0.218750X-0.256250X0.218750X-0.256250X-0.218750X0.256250X-0.218750X0.256250X0.218750X0*%
%ADD27R,0.590000X0.350000*%
%ADD28R,0.350000X0.590000*%
%ADD29R,0.300000X0.550000*%
%ADD30R,0.400000X0.550000*%
%ADD31RoundRect,0.150000X-0.700000X0.150000X-0.700000X-0.150000X0.700000X-0.150000X0.700000X0.150000X0*%
%ADD32RoundRect,0.250000X-1.150000X0.250000X-1.150000X-0.250000X1.150000X-0.250000X1.150000X0.250000X0*%
%ADD33RoundRect,0.140000X-0.140000X-0.170000X0.140000X-0.170000X0.140000X0.170000X-0.140000X0.170000X0*%
%ADD34RoundRect,0.250000X0.475000X-0.250000X0.475000X0.250000X-0.475000X0.250000X-0.475000X-0.250000X0*%
%ADD35R,0.650000X0.400000*%
%ADD36RoundRect,0.225000X-0.250000X0.225000X-0.250000X-0.225000X0.250000X-0.225000X0.250000X0.225000X0*%
%ADD37R,0.300000X1.400000*%
%ADD38R,0.300000X1.550000*%
%ADD39R,1.200000X2.750000*%
%ADD40R,1.400000X1.200000*%
%ADD41R,0.600000X1.450000*%
%ADD42R,0.300000X1.450000*%
%ADD43RoundRect,0.250000X-0.475000X0.250000X-0.475000X-0.250000X0.475000X-0.250000X0.475000X0.250000X0*%
%ADD44RoundRect,0.140000X0.140000X0.170000X-0.140000X0.170000X-0.140000X-0.170000X0.140000X-0.170000X0*%
%ADD45RoundRect,0.140000X-0.170000X0.140000X-0.170000X-0.140000X0.170000X-0.140000X0.170000X0.140000X0*%
%ADD46RoundRect,0.150000X-0.150000X0.512500X-0.150000X-0.512500X0.150000X-0.512500X0.150000X0.512500X0*%
%ADD47RoundRect,0.150000X0.150000X-0.512500X0.150000X0.512500X-0.150000X0.512500X-0.150000X-0.512500X0*%
%ADD48R,0.760000X1.250000*%
%ADD49C,0.230000*%
%ADD50RoundRect,0.100000X-0.637500X-0.100000X0.637500X-0.100000X0.637500X0.100000X-0.637500X0.100000X0*%
%ADD51RoundRect,0.200000X0.200000X0.275000X-0.200000X0.275000X-0.200000X-0.275000X0.200000X-0.275000X0*%
%ADD52RoundRect,0.125000X0.137500X-0.125000X0.137500X0.125000X-0.137500X0.125000X-0.137500X-0.125000X0*%
%ADD53RoundRect,0.225000X0.225000X0.250000X-0.225000X0.250000X-0.225000X-0.250000X0.225000X-0.250000X0*%
%ADD54RoundRect,0.150000X-0.587500X-0.150000X0.587500X-0.150000X0.587500X0.150000X-0.587500X0.150000X0*%
%ADD55RoundRect,0.247500X-0.247500X0.247500X-0.247500X-0.247500X0.247500X-0.247500X0.247500X0.247500X0*%
%ADD56RoundRect,0.062500X-0.062500X0.350000X-0.062500X-0.350000X0.062500X-0.350000X0.062500X0.350000X0*%
%ADD57RoundRect,0.062500X-0.350000X0.062500X-0.350000X-0.062500X0.350000X-0.062500X0.350000X0.062500X0*%
G04 APERTURE END LIST*
D10*
%TO.C,U16*%
X43712000Y48225000D03*
X44212000Y48225000D03*
X44712000Y48225000D03*
X45212000Y48225000D03*
X45712000Y48225000D03*
X45712000Y52525000D03*
X45212000Y52525000D03*
X44712000Y52525000D03*
X44212000Y52525000D03*
X43712000Y52525000D03*
%TD*%
D11*
%TO.C,R25*%
X51472000Y45720000D03*
X51472000Y44070000D03*
%TD*%
%TO.C,R23*%
X48962000Y45720000D03*
X48962000Y44070000D03*
%TD*%
%TO.C,R22*%
X46452000Y45720000D03*
X46452000Y44070000D03*
%TD*%
%TO.C,R21*%
X43942000Y45720000D03*
X43942000Y44070000D03*
%TD*%
D12*
%TO.C,FB2*%
X41432000Y45682500D03*
X41432000Y44107500D03*
%TD*%
%TO.C,FB1*%
X38922000Y45682500D03*
X38922000Y44107500D03*
%TD*%
%TO.C,D13*%
X50922000Y49732500D03*
X50922000Y48157500D03*
%TD*%
%TO.C,D11*%
X48332000Y49732500D03*
X48332000Y48157500D03*
%TD*%
D13*
%TO.C,C39*%
X36412000Y45670000D03*
X36412000Y44120000D03*
%TD*%
%TO.C,C38*%
X33902000Y45670000D03*
X33902000Y44120000D03*
%TD*%
%TO.C,C37*%
X31392000Y45670000D03*
X31392000Y44120000D03*
%TD*%
D14*
%TO.C,C28*%
X41505000Y13224000D03*
X43055000Y13224000D03*
%TD*%
D15*
%TO.C,R15*%
X635000Y75567000D03*
X635000Y74547000D03*
%TD*%
D16*
%TO.C,J1*%
X55833500Y79431000D03*
X55833500Y78931000D03*
X55833500Y78431000D03*
X55833500Y77931000D03*
X55833500Y77431000D03*
X55833500Y76931000D03*
X55833500Y76431000D03*
X55833500Y75931000D03*
X55833500Y75431000D03*
X55833500Y74931000D03*
X55833500Y74431000D03*
X55833500Y73931000D03*
X55833500Y73431000D03*
X55833500Y72931000D03*
X55833500Y72431000D03*
X55833500Y71931000D03*
X55833500Y71431000D03*
X55833500Y70931000D03*
X55833500Y70431000D03*
%TD*%
D17*
%TO.C,D19*%
X3341000Y8062000D03*
X4916000Y8062000D03*
%TD*%
D11*
%TO.C,R1*%
X43296000Y22051000D03*
X43296000Y23701000D03*
%TD*%
D13*
%TO.C,C35*%
X3672000Y26165000D03*
X3672000Y27715000D03*
%TD*%
D18*
%TO.C,C12*%
X20156600Y69826150D03*
X26381600Y69826150D03*
%TD*%
D15*
%TO.C,R4*%
X32882000Y68600000D03*
X32882000Y67580000D03*
%TD*%
%TO.C,R3*%
X37310500Y68600000D03*
X37310500Y67580000D03*
%TD*%
D19*
%TO.C,R13*%
X10020000Y22876000D03*
X11040000Y22876000D03*
%TD*%
D20*
%TO.C,R12*%
X19558000Y88709000D03*
X19558000Y87059000D03*
%TD*%
D21*
%TO.C,R19*%
X33581000Y9160000D03*
X35231000Y9160000D03*
%TD*%
D19*
%TO.C,R10*%
X21805600Y78959200D03*
X22825600Y78959200D03*
%TD*%
D22*
%TO.C,D7*%
X1550000Y49420000D03*
X1550000Y52720000D03*
X-3350000Y52720000D03*
X-3350000Y49420000D03*
%TD*%
D23*
%TO.C,C8*%
X21807600Y79927000D03*
X21807600Y80887000D03*
%TD*%
D24*
%TO.C,R6*%
X45457000Y77613000D03*
X44437000Y77613000D03*
%TD*%
D17*
%TO.C,D22*%
X6897000Y-732000D03*
X8472000Y-732000D03*
%TD*%
D12*
%TO.C,D3*%
X35168000Y6086500D03*
X35168000Y7661500D03*
%TD*%
D23*
%TO.C,C9*%
X32992500Y75738000D03*
X32992500Y76698000D03*
%TD*%
D25*
%TO.C,Module1*%
X31294000Y26992000D03*
X31294000Y30072000D03*
X31694000Y26992000D03*
X31694000Y30072000D03*
X32094000Y26992000D03*
X32094000Y30072000D03*
X32494000Y26992000D03*
X32494000Y30072000D03*
X32894000Y26992000D03*
X32894000Y30072000D03*
X33294000Y26992000D03*
X33294000Y30072000D03*
X33694000Y26992000D03*
X33694000Y30072000D03*
X34094000Y26992000D03*
X34094000Y30072000D03*
X34494000Y26992000D03*
X34494000Y30072000D03*
X34894000Y26992000D03*
X34894000Y30072000D03*
X35294000Y26992000D03*
X35294000Y30072000D03*
X35694000Y26992000D03*
X35694000Y30072000D03*
X36094000Y26992000D03*
X36094000Y30072000D03*
X36494000Y26992000D03*
X36494000Y30072000D03*
X36894000Y26992000D03*
X36894000Y30072000D03*
X37294000Y26992000D03*
X37294000Y30072000D03*
X37694000Y26992000D03*
X37694000Y30072000D03*
X38094000Y26992000D03*
X38094000Y30072000D03*
X38494000Y26992000D03*
X38494000Y30072000D03*
X38894000Y26992000D03*
X38894000Y30072000D03*
X39294000Y26992000D03*
X39294000Y30072000D03*
X39694000Y26992000D03*
X39694000Y30072000D03*
X40094000Y26992000D03*
X40094000Y30072000D03*
X40494000Y26992000D03*
X40494000Y30072000D03*
X40894000Y26992000D03*
X40894000Y30072000D03*
X41294000Y26992000D03*
X41294000Y30072000D03*
X41694000Y26992000D03*
X41694000Y30072000D03*
X42094000Y26992000D03*
X42094000Y30072000D03*
X42494000Y26992000D03*
X42494000Y30072000D03*
X42894000Y26992000D03*
X42894000Y30072000D03*
X43294000Y26992000D03*
X43294000Y30072000D03*
X43694000Y26992000D03*
X43694000Y30072000D03*
X44094000Y26992000D03*
X44094000Y30072000D03*
X44494000Y26992000D03*
X44494000Y30072000D03*
X44894000Y26992000D03*
X44894000Y30072000D03*
X45294000Y26992000D03*
X45294000Y30072000D03*
X45694000Y26992000D03*
X45694000Y30072000D03*
X46094000Y26992000D03*
X46094000Y30072000D03*
X46494000Y26992000D03*
X46494000Y30072000D03*
X46894000Y26992000D03*
X46894000Y30072000D03*
X47294000Y26992000D03*
X47294000Y30072000D03*
X47694000Y26992000D03*
X47694000Y30072000D03*
X48094000Y26992000D03*
X48094000Y30072000D03*
X48494000Y26992000D03*
X48494000Y30072000D03*
X48894000Y26992000D03*
X48894000Y30072000D03*
X49294000Y26992000D03*
X49294000Y30072000D03*
X49694000Y26992000D03*
X49694000Y30072000D03*
X50094000Y26992000D03*
X50094000Y30072000D03*
X50494000Y26992000D03*
X50494000Y30072000D03*
X50894000Y26992000D03*
X50894000Y30072000D03*
X31294000Y60912000D03*
X31294000Y63992000D03*
X31694000Y60912000D03*
X31694000Y63992000D03*
X32094000Y60912000D03*
X32094000Y63992000D03*
X32494000Y60912000D03*
X32494000Y63992000D03*
X32894000Y60912000D03*
X32894000Y63992000D03*
X33294000Y60912000D03*
X33294000Y63992000D03*
X33694000Y60912000D03*
X33694000Y63992000D03*
X34094000Y60912000D03*
X34094000Y63992000D03*
X34494000Y60912000D03*
X34494000Y63992000D03*
X34894000Y60912000D03*
X34894000Y63992000D03*
X35294000Y60912000D03*
X35294000Y63992000D03*
X35694000Y60912000D03*
X35694000Y63992000D03*
X36094000Y60912000D03*
X36094000Y63992000D03*
X36494000Y60912000D03*
X36494000Y63992000D03*
X36894000Y60912000D03*
X36894000Y63992000D03*
X37294000Y60912000D03*
X37294000Y63992000D03*
X37694000Y60912000D03*
X37694000Y63992000D03*
X38094000Y60912000D03*
X38094000Y63992000D03*
X38494000Y60912000D03*
X38494000Y63992000D03*
X38894000Y60912000D03*
X38894000Y63992000D03*
X39294000Y60912000D03*
X39294000Y63992000D03*
X39694000Y60912000D03*
X39694000Y63992000D03*
X40094000Y60912000D03*
X40094000Y63992000D03*
X40494000Y60912000D03*
X40494000Y63992000D03*
X40894000Y60912000D03*
X40894000Y63992000D03*
X41294000Y60912000D03*
X41294000Y63992000D03*
X41694000Y60912000D03*
X41694000Y63992000D03*
X42094000Y60912000D03*
X42094000Y63992000D03*
X42494000Y60912000D03*
X42494000Y63992000D03*
X42894000Y60912000D03*
X42894000Y63992000D03*
X43294000Y60912000D03*
X43294000Y63992000D03*
X43694000Y60912000D03*
X43694000Y63992000D03*
X44094000Y60912000D03*
X44094000Y63992000D03*
X44494000Y60912000D03*
X44494000Y63992000D03*
X44894000Y60912000D03*
X44894000Y63992000D03*
X45294000Y60912000D03*
X45294000Y63992000D03*
X45694000Y60912000D03*
X45694000Y63992000D03*
X46094000Y60912000D03*
X46094000Y63992000D03*
X46494000Y60912000D03*
X46494000Y63992000D03*
X46894000Y60912000D03*
X46894000Y63992000D03*
X47294000Y60912000D03*
X47294000Y63992000D03*
X47694000Y60912000D03*
X47694000Y63992000D03*
X48094000Y60912000D03*
X48094000Y63992000D03*
X48494000Y60912000D03*
X48494000Y63992000D03*
X48894000Y60912000D03*
X48894000Y63992000D03*
X49294000Y60912000D03*
X49294000Y63992000D03*
X49694000Y60912000D03*
X49694000Y63992000D03*
X50094000Y60912000D03*
X50094000Y63992000D03*
X50494000Y60912000D03*
X50494000Y63992000D03*
X50894000Y60912000D03*
X50894000Y63992000D03*
%TD*%
D26*
%TO.C,D1*%
X5307000Y20821500D03*
X5307000Y22396500D03*
%TD*%
D15*
%TO.C,R5*%
X42136500Y68854000D03*
X42136500Y67834000D03*
%TD*%
D24*
%TO.C,R9*%
X22825600Y77892400D03*
X21805600Y77892400D03*
%TD*%
D27*
%TO.C,U12*%
X36476900Y15012000D03*
X36476900Y14512000D03*
X36476900Y14012000D03*
X36476900Y13512000D03*
X36476900Y13012000D03*
X36476900Y12512000D03*
X36476900Y12012000D03*
D28*
X35311900Y11597000D03*
D27*
X34146900Y12012000D03*
X34146900Y12512000D03*
X34146900Y13012000D03*
X34146900Y13512000D03*
X34146900Y14012000D03*
X34146900Y14512000D03*
X34146900Y15012000D03*
D28*
X35311900Y15427000D03*
%TD*%
D20*
%TO.C,R11*%
X18034000Y88709000D03*
X18034000Y87059000D03*
%TD*%
D22*
%TO.C,D9*%
X1550000Y63612000D03*
X1550000Y66912000D03*
X-3350000Y66912000D03*
X-3350000Y63612000D03*
%TD*%
D15*
%TO.C,R16*%
X-381000Y75567000D03*
X-381000Y74547000D03*
%TD*%
D29*
%TO.C,U7*%
X4196000Y75323000D03*
X4696000Y75323000D03*
D30*
X5196000Y75323000D03*
D29*
X5696000Y75323000D03*
X6196000Y75323000D03*
X6196000Y76093000D03*
X5696000Y76093000D03*
D30*
X5196000Y76093000D03*
D29*
X4696000Y76093000D03*
X4196000Y76093000D03*
%TD*%
D31*
%TO.C,SW10*%
X3986500Y14021000D03*
X3986500Y12771000D03*
D32*
X7336500Y15871000D03*
X7336500Y10921000D03*
%TD*%
D14*
%TO.C,C30*%
X271000Y33290000D03*
X1821000Y33290000D03*
%TD*%
D17*
%TO.C,D20*%
X-723000Y8062000D03*
X852000Y8062000D03*
%TD*%
D24*
%TO.C,R8*%
X14127100Y67286150D03*
X13107100Y67286150D03*
%TD*%
D23*
%TO.C,C11*%
X37310500Y78034000D03*
X37310500Y78994000D03*
%TD*%
D31*
%TO.C,SW13*%
X3986500Y4328000D03*
X3986500Y3078000D03*
D32*
X7336500Y6178000D03*
X7336500Y1228000D03*
%TD*%
D31*
%TO.C,SW14*%
X-3663500Y4328000D03*
X-3663500Y3078000D03*
D32*
X-313500Y6178000D03*
X-313500Y1228000D03*
%TD*%
D14*
%TO.C,C22*%
X41607500Y5960500D03*
X43157500Y5960500D03*
%TD*%
D26*
%TO.C,D2*%
X5439000Y25586500D03*
X5439000Y24011500D03*
%TD*%
D33*
%TO.C,C19*%
X17416000Y81042000D03*
X18376000Y81042000D03*
%TD*%
D34*
%TO.C,C16*%
X20475100Y73194150D03*
X20475100Y75094150D03*
%TD*%
D14*
%TO.C,C27*%
X41505000Y14718000D03*
X43055000Y14718000D03*
%TD*%
D35*
%TO.C,U6*%
X12099000Y20194000D03*
X12099000Y20844000D03*
X12099000Y21494000D03*
X10199000Y21494000D03*
X10199000Y20194000D03*
%TD*%
D36*
%TO.C,C20*%
X39542000Y13257000D03*
X39542000Y11707000D03*
%TD*%
D29*
%TO.C,U8*%
X10546000Y75460000D03*
X11046000Y75460000D03*
D30*
X11546000Y75460000D03*
D29*
X12046000Y75460000D03*
X12546000Y75460000D03*
X12546000Y76230000D03*
X12046000Y76230000D03*
D30*
X11546000Y76230000D03*
D29*
X11046000Y76230000D03*
X10546000Y76230000D03*
%TD*%
D11*
%TO.C,R18*%
X33644000Y6049000D03*
X33644000Y7699000D03*
%TD*%
D31*
%TO.C,SW11*%
X-3663500Y14021000D03*
X-3663500Y12771000D03*
D32*
X-313500Y15871000D03*
X-313500Y10921000D03*
%TD*%
D37*
%TO.C,U4*%
X23246000Y80442200D03*
X23746000Y80442200D03*
X24246000Y80442200D03*
X24746000Y80442200D03*
X25246000Y80442200D03*
X25246000Y84842200D03*
X24746000Y84842200D03*
X24246000Y84842200D03*
X23746000Y84842200D03*
X23246000Y84842200D03*
%TD*%
D38*
%TO.C,J11*%
X34565000Y-1940000D03*
X34815000Y-9490000D03*
X35065000Y-1940000D03*
X35315000Y-9490000D03*
X35565000Y-1940000D03*
X35815000Y-9490000D03*
X36065000Y-1940000D03*
X38315000Y-9490000D03*
X38565000Y-1940000D03*
X38815000Y-9490000D03*
X39065000Y-1940000D03*
X39315000Y-9490000D03*
X39565000Y-1940000D03*
X39815000Y-9490000D03*
X40065000Y-1940000D03*
X40315000Y-9490000D03*
X40565000Y-1940000D03*
X40815000Y-9490000D03*
X41065000Y-1940000D03*
X41315000Y-9490000D03*
X41565000Y-1940000D03*
X41815000Y-9490000D03*
X42065000Y-1940000D03*
X42315000Y-9490000D03*
X42565000Y-1940000D03*
X42815000Y-9490000D03*
X43065000Y-1940000D03*
X43315000Y-9490000D03*
X43565000Y-1940000D03*
X43815000Y-9490000D03*
X44065000Y-1940000D03*
X44315000Y-9490000D03*
X44565000Y-1940000D03*
X44815000Y-9490000D03*
X45065000Y-1940000D03*
X45315000Y-9490000D03*
X45565000Y-1940000D03*
X45815000Y-9490000D03*
X46065000Y-1940000D03*
X46315000Y-9490000D03*
X46565000Y-1940000D03*
X46815000Y-9490000D03*
X47065000Y-1940000D03*
X47315000Y-9490000D03*
X47565000Y-1940000D03*
X47815000Y-9490000D03*
X48065000Y-1940000D03*
X48315000Y-9490000D03*
X48565000Y-1940000D03*
X48815000Y-9490000D03*
X49065000Y-1940000D03*
X49315000Y-9490000D03*
X49565000Y-1940000D03*
X49815000Y-9490000D03*
X50065000Y-1940000D03*
X50315000Y-9490000D03*
X50565000Y-1940000D03*
X50815000Y-9490000D03*
X51065000Y-1940000D03*
X51315000Y-9490000D03*
X51565000Y-1940000D03*
X51815000Y-9490000D03*
X52065000Y-1940000D03*
X52315000Y-9490000D03*
X52565000Y-1940000D03*
X52815000Y-9490000D03*
X53065000Y-1940000D03*
D39*
X33465000Y-2715000D03*
X54165000Y-2715000D03*
%TD*%
D36*
%TO.C,C24*%
X31292000Y13007000D03*
X31292000Y11457000D03*
%TD*%
D40*
%TO.C,Y1*%
X44879500Y76012000D03*
X42679500Y76012000D03*
X42679500Y74412000D03*
X44879500Y74412000D03*
%TD*%
D41*
%TO.C,J2*%
X28278000Y90783500D03*
X27478000Y90783500D03*
D42*
X26278000Y90783500D03*
X25278000Y90783500D03*
X24778000Y90783500D03*
X23778000Y90783500D03*
D41*
X22578000Y90783500D03*
X21778000Y90783500D03*
X21778000Y90783500D03*
X22578000Y90783500D03*
D42*
X23278000Y90783500D03*
X24278000Y90783500D03*
X25778000Y90783500D03*
X26778000Y90783500D03*
D41*
X27478000Y90783500D03*
X28278000Y90783500D03*
%TD*%
D43*
%TO.C,C6*%
X35651500Y68288000D03*
X35651500Y66388000D03*
%TD*%
D17*
%TO.C,D23*%
X-4279000Y-732000D03*
X-2704000Y-732000D03*
%TD*%
D34*
%TO.C,C4*%
X14887100Y73194150D03*
X14887100Y75094150D03*
%TD*%
D44*
%TO.C,C2*%
X59196500Y84344000D03*
X58236500Y84344000D03*
%TD*%
D45*
%TO.C,C3*%
X46573500Y75692000D03*
X46573500Y74732000D03*
%TD*%
%TO.C,C15*%
X31722500Y72888000D03*
X31722500Y71928000D03*
%TD*%
D21*
%TO.C,R20*%
X431000Y26061000D03*
X2081000Y26061000D03*
%TD*%
D46*
%TO.C,U2*%
X15329100Y71217650D03*
X14379100Y71217650D03*
X13429100Y71217650D03*
X13429100Y68942650D03*
X14379100Y68942650D03*
X15329100Y68942650D03*
%TD*%
D45*
%TO.C,C13*%
X41882500Y71364000D03*
X41882500Y70404000D03*
%TD*%
D15*
%TO.C,R7*%
X38326500Y68600000D03*
X38326500Y67580000D03*
%TD*%
D22*
%TO.C,D8*%
X1550000Y56532000D03*
X1550000Y59832000D03*
X-3350000Y59832000D03*
X-3350000Y56532000D03*
%TD*%
D47*
%TO.C,U15*%
X-3438000Y23532000D03*
X-2488000Y23532000D03*
X-1538000Y23532000D03*
X-1538000Y25807000D03*
X-3438000Y25807000D03*
%TD*%
D36*
%TO.C,C21*%
X32792000Y13007000D03*
X32792000Y11457000D03*
%TD*%
D48*
%TO.C,SW1*%
X48249000Y20363000D03*
X46979000Y20363000D03*
X46979000Y14213000D03*
X48249000Y14213000D03*
%TD*%
D24*
%TO.C,R14*%
X7981000Y26831000D03*
X6961000Y26831000D03*
%TD*%
D49*
%TO.C,U13*%
X42080000Y17234000D03*
X42480000Y17234000D03*
X42080000Y16834000D03*
X42480000Y16834000D03*
%TD*%
D43*
%TO.C,C5*%
X40612500Y68532000D03*
X40612500Y66632000D03*
%TD*%
D14*
%TO.C,C31*%
X271000Y40402000D03*
X1821000Y40402000D03*
%TD*%
D50*
%TO.C,U14*%
X23212828Y15544800D03*
X23212828Y14894800D03*
X23212828Y14244800D03*
X23212828Y13594800D03*
X23212828Y12944800D03*
X23212828Y12294800D03*
X23212828Y11644800D03*
X23212828Y10994800D03*
X23212828Y10344800D03*
X23212828Y9694800D03*
X23212828Y9044800D03*
X23212828Y8394800D03*
X23212828Y7744800D03*
X23212828Y7094800D03*
X28937828Y7094800D03*
X28937828Y7744800D03*
X28937828Y8394800D03*
X28937828Y9044800D03*
X28937828Y9694800D03*
X28937828Y10344800D03*
X28937828Y10994800D03*
X28937828Y11644800D03*
X28937828Y12294800D03*
X28937828Y12944800D03*
X28937828Y13594800D03*
X28937828Y14244800D03*
X28937828Y14894800D03*
X28937828Y15544800D03*
%TD*%
D51*
%TO.C,R17*%
X43207500Y9008500D03*
X41557500Y9008500D03*
%TD*%
D29*
%TO.C,U5*%
X25754000Y87599200D03*
X25254000Y87599200D03*
D30*
X24754000Y87599200D03*
D29*
X24254000Y87599200D03*
X23754000Y87599200D03*
X23754000Y86829200D03*
X24254000Y86829200D03*
D30*
X24754000Y86829200D03*
D29*
X25254000Y86829200D03*
X25754000Y86829200D03*
%TD*%
D52*
%TO.C,U11*%
X37536500Y5928000D03*
X37536500Y6728000D03*
X37536500Y7528000D03*
X37536500Y8328000D03*
X39911500Y8328000D03*
X39911500Y7528000D03*
X39911500Y6728000D03*
X39911500Y5928000D03*
%TD*%
D36*
%TO.C,C25*%
X38042000Y13257000D03*
X38042000Y11707000D03*
%TD*%
D34*
%TO.C,C17*%
X23269100Y73194150D03*
X23269100Y75094150D03*
%TD*%
D22*
%TO.C,D4*%
X1550000Y28084000D03*
X1550000Y31384000D03*
X-3350000Y31384000D03*
X-3350000Y28084000D03*
%TD*%
D14*
%TO.C,C29*%
X41505000Y11700000D03*
X43055000Y11700000D03*
%TD*%
D33*
%TO.C,C7*%
X43299500Y72926000D03*
X44259500Y72926000D03*
%TD*%
D14*
%TO.C,C34*%
X271000Y61738000D03*
X1821000Y61738000D03*
%TD*%
D53*
%TO.C,C26*%
X32499600Y15392400D03*
X30949600Y15392400D03*
%TD*%
D35*
%TO.C,U9*%
X11977000Y24149000D03*
X11977000Y24799000D03*
X11977000Y25449000D03*
X10077000Y25449000D03*
X10077000Y24149000D03*
%TD*%
D23*
%TO.C,C1*%
X64632000Y86404000D03*
X64632000Y87364000D03*
%TD*%
D34*
%TO.C,C14*%
X17681100Y73194150D03*
X17681100Y75094150D03*
%TD*%
%TO.C,C18*%
X26063100Y73194150D03*
X26063100Y75094150D03*
%TD*%
D14*
%TO.C,C33*%
X271000Y54626000D03*
X1821000Y54626000D03*
%TD*%
%TO.C,C23*%
X41607500Y7484500D03*
X43157500Y7484500D03*
%TD*%
D54*
%TO.C,U1*%
X60999500Y86254000D03*
X60999500Y84354000D03*
X62874500Y85304000D03*
%TD*%
D55*
%TO.C,U3*%
X38540500Y74908000D03*
X37310500Y74908000D03*
X36080500Y74908000D03*
X38540500Y73678000D03*
X37310500Y73678000D03*
X36080500Y73678000D03*
X38540500Y72448000D03*
X37310500Y72448000D03*
X36080500Y72448000D03*
D56*
X39310500Y76615500D03*
X38810500Y76615500D03*
X38310500Y76615500D03*
X37810500Y76615500D03*
X37310500Y76615500D03*
X36810500Y76615500D03*
X36310500Y76615500D03*
X35810500Y76615500D03*
X35310500Y76615500D03*
D57*
X34373000Y75678000D03*
X34373000Y75178000D03*
X34373000Y74678000D03*
X34373000Y74178000D03*
X34373000Y73678000D03*
X34373000Y73178000D03*
X34373000Y72678000D03*
X34373000Y72178000D03*
X34373000Y71678000D03*
D56*
X35310500Y70740500D03*
X35810500Y70740500D03*
X36310500Y70740500D03*
X36810500Y70740500D03*
X37310500Y70740500D03*
X37810500Y70740500D03*
X38310500Y70740500D03*
X38810500Y70740500D03*
X39310500Y70740500D03*
D57*
X40248000Y71678000D03*
X40248000Y72178000D03*
X40248000Y72678000D03*
X40248000Y73178000D03*
X40248000Y73678000D03*
X40248000Y74178000D03*
X40248000Y74678000D03*
X40248000Y75178000D03*
X40248000Y75678000D03*
%TD*%
D22*
%TO.C,D6*%
X1550000Y42308000D03*
X1550000Y45608000D03*
X-3350000Y45608000D03*
X-3350000Y42308000D03*
%TD*%
D20*
%TO.C,R2*%
X44820000Y23701000D03*
X44820000Y22051000D03*
%TD*%
D33*
%TO.C,C10*%
X41673000Y77740000D03*
X42633000Y77740000D03*
%TD*%
D22*
%TO.C,D5*%
X1550000Y35196000D03*
X1550000Y38496000D03*
X-3350000Y38496000D03*
X-3350000Y35196000D03*
%TD*%
D14*
%TO.C,C32*%
X271000Y47514000D03*
X1821000Y47514000D03*
%TD*%
M02*
