%TF.GenerationSoftware,KiCad,Pcbnew,7.99.0-957-g18dd623122*%
%TF.CreationDate,2023-06-14T23:17:29-04:00*%
%TF.ProjectId,carrier,63617272-6965-4722-9e6b-696361645f70,V1.0*%
%TF.SameCoordinates,Original*%
%TF.FileFunction,Soldermask,Top*%
%TF.FilePolarity,Negative*%
%FSLAX46Y46*%
G04 Gerber Fmt 4.6, Leading zero omitted, Abs format (unit mm)*
G04 Created by KiCad (PCBNEW 7.99.0-957-g18dd623122) date 2023-06-14 23:17:29*
%MOMM*%
%LPD*%
G01*
G04 APERTURE LIST*
G04 Aperture macros list*
%AMRoundRect*
0 Rectangle with rounded corners*
0 $1 Rounding radius*
0 $2 $3 $4 $5 $6 $7 $8 $9 X,Y pos of 4 corners*
0 Add a 4 corners polygon primitive as box body*
4,1,4,$2,$3,$4,$5,$6,$7,$8,$9,$2,$3,0*
0 Add four circle primitives for the rounded corners*
1,1,$1+$1,$2,$3*
1,1,$1+$1,$4,$5*
1,1,$1+$1,$6,$7*
1,1,$1+$1,$8,$9*
0 Add four rect primitives between the rounded corners*
20,1,$1+$1,$2,$3,$4,$5,0*
20,1,$1+$1,$4,$5,$6,$7,0*
20,1,$1+$1,$6,$7,$8,$9,0*
20,1,$1+$1,$8,$9,$2,$3,0*%
G04 Aperture macros list end*
%ADD10C,0.165000*%
%ADD11R,0.250000X1.100000*%
%ADD12RoundRect,0.200000X0.275000X-0.200000X0.275000X0.200000X-0.275000X0.200000X-0.275000X-0.200000X0*%
%ADD13R,1.500000X1.000000*%
%ADD14R,1.700000X1.700000*%
%ADD15O,1.700000X1.700000*%
%ADD16RoundRect,0.218750X0.256250X-0.218750X0.256250X0.218750X-0.256250X0.218750X-0.256250X-0.218750X0*%
%ADD17RoundRect,0.225000X0.250000X-0.225000X0.250000X0.225000X-0.250000X0.225000X-0.250000X-0.225000X0*%
%ADD18RoundRect,0.225000X-0.225000X-0.250000X0.225000X-0.250000X0.225000X0.250000X-0.225000X0.250000X0*%
%ADD19RoundRect,0.135000X-0.185000X0.135000X-0.185000X-0.135000X0.185000X-0.135000X0.185000X0.135000X0*%
%ADD20R,2.600000X0.300000*%
%ADD21O,3.300000X1.500000*%
%ADD22O,2.300000X1.500000*%
%ADD23RoundRect,0.218750X-0.218750X-0.256250X0.218750X-0.256250X0.218750X0.256250X-0.218750X0.256250X0*%
%ADD24R,2.000000X2.000000*%
%ADD25RoundRect,0.250000X-0.787500X-1.025000X0.787500X-1.025000X0.787500X1.025000X-0.787500X1.025000X0*%
%ADD26C,2.700000*%
%ADD27C,1.500000*%
%ADD28C,3.450000*%
%ADD29C,3.200000*%
%ADD30RoundRect,0.250500X0.499500X0.499500X-0.499500X0.499500X-0.499500X-0.499500X0.499500X-0.499500X0*%
%ADD31C,2.500000*%
%ADD32RoundRect,0.135000X-0.135000X-0.185000X0.135000X-0.185000X0.135000X0.185000X-0.135000X0.185000X0*%
%ADD33RoundRect,0.200000X-0.275000X0.200000X-0.275000X-0.200000X0.275000X-0.200000X0.275000X0.200000X0*%
%ADD34RoundRect,0.200000X-0.200000X-0.275000X0.200000X-0.275000X0.200000X0.275000X-0.200000X0.275000X0*%
%ADD35R,1.500000X0.900000*%
%ADD36RoundRect,0.140000X0.170000X-0.140000X0.170000X0.140000X-0.170000X0.140000X-0.170000X-0.140000X0*%
%ADD37RoundRect,0.135000X0.135000X0.185000X-0.135000X0.185000X-0.135000X-0.185000X0.135000X-0.185000X0*%
%ADD38R,0.200000X0.700000*%
%ADD39RoundRect,0.218750X-0.256250X0.218750X-0.256250X-0.218750X0.256250X-0.218750X0.256250X0.218750X0*%
%ADD40R,0.590000X0.350000*%
%ADD41R,0.350000X0.590000*%
%ADD42RoundRect,0.200000X-0.450000X0.200000X-0.450000X-0.200000X0.450000X-0.200000X0.450000X0.200000X0*%
%ADD43O,1.300000X0.800000*%
%ADD44R,0.300000X0.550000*%
%ADD45R,0.400000X0.550000*%
%ADD46RoundRect,0.150000X-0.700000X0.150000X-0.700000X-0.150000X0.700000X-0.150000X0.700000X0.150000X0*%
%ADD47RoundRect,0.250000X-1.150000X0.250000X-1.150000X-0.250000X1.150000X-0.250000X1.150000X0.250000X0*%
%ADD48RoundRect,0.200000X-0.200000X-0.450000X0.200000X-0.450000X0.200000X0.450000X-0.200000X0.450000X0*%
%ADD49O,0.800000X1.300000*%
%ADD50R,1.000000X1.500000*%
%ADD51RoundRect,0.140000X-0.140000X-0.170000X0.140000X-0.170000X0.140000X0.170000X-0.140000X0.170000X0*%
%ADD52RoundRect,0.250000X0.475000X-0.250000X0.475000X0.250000X-0.475000X0.250000X-0.475000X-0.250000X0*%
%ADD53R,0.650000X0.400000*%
%ADD54RoundRect,0.225000X-0.250000X0.225000X-0.250000X-0.225000X0.250000X-0.225000X0.250000X0.225000X0*%
%ADD55R,0.300000X1.400000*%
%ADD56C,1.150000*%
%ADD57C,1.650000*%
%ADD58R,0.300000X1.550000*%
%ADD59R,1.200000X2.750000*%
%ADD60RoundRect,0.200000X0.200000X0.450000X-0.200000X0.450000X-0.200000X-0.450000X0.200000X-0.450000X0*%
%ADD61R,1.400000X1.200000*%
%ADD62C,0.650000*%
%ADD63R,0.600000X1.450000*%
%ADD64R,0.300000X1.450000*%
%ADD65O,1.000000X2.100000*%
%ADD66O,1.000000X1.600000*%
%ADD67RoundRect,0.250000X-0.475000X0.250000X-0.475000X-0.250000X0.475000X-0.250000X0.475000X0.250000X0*%
%ADD68RoundRect,0.140000X0.140000X0.170000X-0.140000X0.170000X-0.140000X-0.170000X0.140000X-0.170000X0*%
%ADD69RoundRect,0.140000X-0.170000X0.140000X-0.170000X-0.140000X0.170000X-0.140000X0.170000X0.140000X0*%
%ADD70RoundRect,0.150000X-0.150000X0.512500X-0.150000X-0.512500X0.150000X-0.512500X0.150000X0.512500X0*%
%ADD71R,3.960000X1.980000*%
%ADD72O,3.960000X1.980000*%
%ADD73RoundRect,0.150000X0.150000X-0.512500X0.150000X0.512500X-0.150000X0.512500X-0.150000X-0.512500X0*%
%ADD74C,1.000000*%
%ADD75R,0.760000X1.250000*%
%ADD76RoundRect,0.100000X-0.637500X-0.100000X0.637500X-0.100000X0.637500X0.100000X-0.637500X0.100000X0*%
%ADD77RoundRect,0.200000X0.200000X0.275000X-0.200000X0.275000X-0.200000X-0.275000X0.200000X-0.275000X0*%
%ADD78RoundRect,0.125000X0.137500X-0.125000X0.137500X0.125000X-0.137500X0.125000X-0.137500X-0.125000X0*%
%ADD79R,3.200000X3.200000*%
%ADD80O,3.200000X3.200000*%
%ADD81RoundRect,0.225000X0.225000X0.250000X-0.225000X0.250000X-0.225000X-0.250000X0.225000X-0.250000X0*%
%ADD82RoundRect,0.150000X-0.587500X-0.150000X0.587500X-0.150000X0.587500X0.150000X-0.587500X0.150000X0*%
%ADD83RoundRect,0.062500X-0.062500X0.350000X-0.062500X-0.350000X0.062500X-0.350000X0.062500X0.350000X0*%
%ADD84RoundRect,0.062500X-0.350000X0.062500X-0.350000X-0.062500X0.350000X-0.062500X0.350000X0.062500X0*%
%ADD85R,3.700000X3.700000*%
%ADD86C,2.000000*%
G04 APERTURE END LIST*
D10*
%TO.C,U13*%
X42162500Y17234000D02*
G75*
G03*
X42162500Y17234000I-82500J0D01*
G01*
X42162500Y16834000D02*
G75*
G03*
X42162500Y16834000I-82500J0D01*
G01*
X42562500Y17234000D02*
G75*
G03*
X42562500Y17234000I-82500J0D01*
G01*
X42562500Y16834000D02*
G75*
G03*
X42562500Y16834000I-82500J0D01*
G01*
%TD*%
D11*
%TO.C,U16*%
X43712000Y48225000D03*
X44212000Y48225000D03*
X44712000Y48225000D03*
X45212000Y48225000D03*
X45712000Y48225000D03*
X45712000Y52525000D03*
X45212000Y52525000D03*
X44712000Y52525000D03*
X44212000Y52525000D03*
X43712000Y52525000D03*
%TD*%
D12*
%TO.C,R25*%
X51472000Y45720000D03*
X51472000Y44070000D03*
%TD*%
%TO.C,R23*%
X48962000Y45720000D03*
X48962000Y44070000D03*
%TD*%
%TO.C,R22*%
X46452000Y45720000D03*
X46452000Y44070000D03*
%TD*%
%TO.C,R21*%
X43942000Y45720000D03*
X43942000Y44070000D03*
%TD*%
D13*
%TO.C,JP7*%
X39612000Y50669000D03*
X39612000Y49369000D03*
%TD*%
%TO.C,JP4*%
X36062000Y50669000D03*
X36062000Y49369000D03*
%TD*%
D14*
%TO.C,J21*%
X24200000Y2740000D03*
D15*
X24200000Y200000D03*
X24200000Y-2340000D03*
X24200000Y-4880000D03*
%TD*%
D16*
%TO.C,FB2*%
X41432000Y45682500D03*
X41432000Y44107500D03*
%TD*%
%TO.C,FB1*%
X38922000Y45682500D03*
X38922000Y44107500D03*
%TD*%
%TO.C,D13*%
X50922000Y49732500D03*
X50922000Y48157500D03*
%TD*%
%TO.C,D11*%
X48332000Y49732500D03*
X48332000Y48157500D03*
%TD*%
D17*
%TO.C,C39*%
X36412000Y45670000D03*
X36412000Y44120000D03*
%TD*%
%TO.C,C38*%
X33902000Y45670000D03*
X33902000Y44120000D03*
%TD*%
%TO.C,C37*%
X31392000Y45670000D03*
X31392000Y44120000D03*
%TD*%
D18*
%TO.C,C28*%
X41505000Y13224000D03*
X43055000Y13224000D03*
%TD*%
D19*
%TO.C,R15*%
X635000Y75567000D03*
X635000Y74547000D03*
%TD*%
D20*
%TO.C,J1*%
X55833500Y79431000D03*
X55833500Y78931000D03*
X55833500Y78431000D03*
X55833500Y77931000D03*
X55833500Y77431000D03*
X55833500Y76931000D03*
X55833500Y76431000D03*
X55833500Y75931000D03*
X55833500Y75431000D03*
X55833500Y74931000D03*
X55833500Y74431000D03*
X55833500Y73931000D03*
X55833500Y73431000D03*
X55833500Y72931000D03*
X55833500Y72431000D03*
X55833500Y71931000D03*
X55833500Y71431000D03*
X55833500Y70931000D03*
X55833500Y70431000D03*
D21*
X56563500Y82181000D03*
X56563500Y67681000D03*
D22*
X62523500Y67681000D03*
X62523500Y82181000D03*
%TD*%
D23*
%TO.C,D19*%
X3341000Y8062000D03*
X4916000Y8062000D03*
%TD*%
D24*
%TO.C,TP1*%
X7736000Y21606000D03*
%TD*%
D12*
%TO.C,R1*%
X43296000Y22051000D03*
X43296000Y23701000D03*
%TD*%
D17*
%TO.C,C35*%
X3672000Y26165000D03*
X3672000Y27715000D03*
%TD*%
D25*
%TO.C,C12*%
X20156600Y69826150D03*
X26381600Y69826150D03*
%TD*%
D26*
%TO.C,H1*%
X-3697000Y-7848000D03*
%TD*%
D19*
%TO.C,R4*%
X32882000Y68600000D03*
X32882000Y67580000D03*
%TD*%
%TO.C,R3*%
X37310500Y68600000D03*
X37310500Y67580000D03*
%TD*%
D27*
%TO.C,J4*%
X48828000Y83067000D03*
X46328000Y83067000D03*
X44328000Y83067000D03*
X41828000Y83067000D03*
X48828000Y85687000D03*
X46328000Y85687000D03*
X44328000Y85687000D03*
X41828000Y85687000D03*
D28*
X51898000Y88397000D03*
X38758000Y88397000D03*
X51898000Y82717000D03*
X38758000Y82717000D03*
%TD*%
D29*
%TO.C,U10*%
X14236000Y87671000D03*
X2806000Y87671000D03*
D30*
X14236000Y78781000D03*
D27*
X12966000Y81321000D03*
X11696000Y78781000D03*
X10426000Y81321000D03*
X9156000Y78781000D03*
X7886000Y81321000D03*
X6616000Y78781000D03*
X5346000Y81321000D03*
X4076000Y78781000D03*
X2806000Y81321000D03*
X14236000Y83841000D03*
X11696000Y85111000D03*
X5346000Y85111000D03*
X2806000Y83841000D03*
X15151000Y91731000D03*
X12611000Y91731000D03*
X4431000Y91731000D03*
X1891000Y91731000D03*
D31*
X16396000Y84621000D03*
X646000Y84621000D03*
%TD*%
D24*
%TO.C,TP2*%
X7868000Y24810000D03*
%TD*%
D32*
%TO.C,R13*%
X10020000Y22876000D03*
X11040000Y22876000D03*
%TD*%
D33*
%TO.C,R12*%
X19558000Y88709000D03*
X19558000Y87059000D03*
%TD*%
D34*
%TO.C,R19*%
X33581000Y9160000D03*
X35231000Y9160000D03*
%TD*%
D14*
%TO.C,J6*%
X50037000Y6112000D03*
D15*
X52577000Y6112000D03*
X55117000Y6112000D03*
X57657000Y6112000D03*
%TD*%
D32*
%TO.C,R10*%
X21805600Y78959200D03*
X22825600Y78959200D03*
%TD*%
D35*
%TO.C,D7*%
X1550000Y49420000D03*
X1550000Y52720000D03*
X-3350000Y52720000D03*
X-3350000Y49420000D03*
%TD*%
D36*
%TO.C,C8*%
X21807600Y79927000D03*
X21807600Y80887000D03*
%TD*%
D37*
%TO.C,R6*%
X45457000Y77613000D03*
X44437000Y77613000D03*
%TD*%
D23*
%TO.C,D22*%
X6897000Y-732000D03*
X8472000Y-732000D03*
%TD*%
D14*
%TO.C,J14*%
X19048700Y8154000D03*
D15*
X16508700Y8154000D03*
X13968700Y8154000D03*
%TD*%
D16*
%TO.C,D3*%
X35168000Y6086500D03*
X35168000Y7661500D03*
%TD*%
D36*
%TO.C,C9*%
X32992500Y75738000D03*
X32992500Y76698000D03*
%TD*%
D26*
%TO.C,Module1*%
X14594000Y28992000D03*
X62594000Y28992000D03*
X14594000Y61992000D03*
X62594000Y61992000D03*
D38*
X31294000Y26992000D03*
X31294000Y30072000D03*
X31694000Y26992000D03*
X31694000Y30072000D03*
X32094000Y26992000D03*
X32094000Y30072000D03*
X32494000Y26992000D03*
X32494000Y30072000D03*
X32894000Y26992000D03*
X32894000Y30072000D03*
X33294000Y26992000D03*
X33294000Y30072000D03*
X33694000Y26992000D03*
X33694000Y30072000D03*
X34094000Y26992000D03*
X34094000Y30072000D03*
X34494000Y26992000D03*
X34494000Y30072000D03*
X34894000Y26992000D03*
X34894000Y30072000D03*
X35294000Y26992000D03*
X35294000Y30072000D03*
X35694000Y26992000D03*
X35694000Y30072000D03*
X36094000Y26992000D03*
X36094000Y30072000D03*
X36494000Y26992000D03*
X36494000Y30072000D03*
X36894000Y26992000D03*
X36894000Y30072000D03*
X37294000Y26992000D03*
X37294000Y30072000D03*
X37694000Y26992000D03*
X37694000Y30072000D03*
X38094000Y26992000D03*
X38094000Y30072000D03*
X38494000Y26992000D03*
X38494000Y30072000D03*
X38894000Y26992000D03*
X38894000Y30072000D03*
X39294000Y26992000D03*
X39294000Y30072000D03*
X39694000Y26992000D03*
X39694000Y30072000D03*
X40094000Y26992000D03*
X40094000Y30072000D03*
X40494000Y26992000D03*
X40494000Y30072000D03*
X40894000Y26992000D03*
X40894000Y30072000D03*
X41294000Y26992000D03*
X41294000Y30072000D03*
X41694000Y26992000D03*
X41694000Y30072000D03*
X42094000Y26992000D03*
X42094000Y30072000D03*
X42494000Y26992000D03*
X42494000Y30072000D03*
X42894000Y26992000D03*
X42894000Y30072000D03*
X43294000Y26992000D03*
X43294000Y30072000D03*
X43694000Y26992000D03*
X43694000Y30072000D03*
X44094000Y26992000D03*
X44094000Y30072000D03*
X44494000Y26992000D03*
X44494000Y30072000D03*
X44894000Y26992000D03*
X44894000Y30072000D03*
X45294000Y26992000D03*
X45294000Y30072000D03*
X45694000Y26992000D03*
X45694000Y30072000D03*
X46094000Y26992000D03*
X46094000Y30072000D03*
X46494000Y26992000D03*
X46494000Y30072000D03*
X46894000Y26992000D03*
X46894000Y30072000D03*
X47294000Y26992000D03*
X47294000Y30072000D03*
X47694000Y26992000D03*
X47694000Y30072000D03*
X48094000Y26992000D03*
X48094000Y30072000D03*
X48494000Y26992000D03*
X48494000Y30072000D03*
X48894000Y26992000D03*
X48894000Y30072000D03*
X49294000Y26992000D03*
X49294000Y30072000D03*
X49694000Y26992000D03*
X49694000Y30072000D03*
X50094000Y26992000D03*
X50094000Y30072000D03*
X50494000Y26992000D03*
X50494000Y30072000D03*
X50894000Y26992000D03*
X50894000Y30072000D03*
X31294000Y60912000D03*
X31294000Y63992000D03*
X31694000Y60912000D03*
X31694000Y63992000D03*
X32094000Y60912000D03*
X32094000Y63992000D03*
X32494000Y60912000D03*
X32494000Y63992000D03*
X32894000Y60912000D03*
X32894000Y63992000D03*
X33294000Y60912000D03*
X33294000Y63992000D03*
X33694000Y60912000D03*
X33694000Y63992000D03*
X34094000Y60912000D03*
X34094000Y63992000D03*
X34494000Y60912000D03*
X34494000Y63992000D03*
X34894000Y60912000D03*
X34894000Y63992000D03*
X35294000Y60912000D03*
X35294000Y63992000D03*
X35694000Y60912000D03*
X35694000Y63992000D03*
X36094000Y60912000D03*
X36094000Y63992000D03*
X36494000Y60912000D03*
X36494000Y63992000D03*
X36894000Y60912000D03*
X36894000Y63992000D03*
X37294000Y60912000D03*
X37294000Y63992000D03*
X37694000Y60912000D03*
X37694000Y63992000D03*
X38094000Y60912000D03*
X38094000Y63992000D03*
X38494000Y60912000D03*
X38494000Y63992000D03*
X38894000Y60912000D03*
X38894000Y63992000D03*
X39294000Y60912000D03*
X39294000Y63992000D03*
X39694000Y60912000D03*
X39694000Y63992000D03*
X40094000Y60912000D03*
X40094000Y63992000D03*
X40494000Y60912000D03*
X40494000Y63992000D03*
X40894000Y60912000D03*
X40894000Y63992000D03*
X41294000Y60912000D03*
X41294000Y63992000D03*
X41694000Y60912000D03*
X41694000Y63992000D03*
X42094000Y60912000D03*
X42094000Y63992000D03*
X42494000Y60912000D03*
X42494000Y63992000D03*
X42894000Y60912000D03*
X42894000Y63992000D03*
X43294000Y60912000D03*
X43294000Y63992000D03*
X43694000Y60912000D03*
X43694000Y63992000D03*
X44094000Y60912000D03*
X44094000Y63992000D03*
X44494000Y60912000D03*
X44494000Y63992000D03*
X44894000Y60912000D03*
X44894000Y63992000D03*
X45294000Y60912000D03*
X45294000Y63992000D03*
X45694000Y60912000D03*
X45694000Y63992000D03*
X46094000Y60912000D03*
X46094000Y63992000D03*
X46494000Y60912000D03*
X46494000Y63992000D03*
X46894000Y60912000D03*
X46894000Y63992000D03*
X47294000Y60912000D03*
X47294000Y63992000D03*
X47694000Y60912000D03*
X47694000Y63992000D03*
X48094000Y60912000D03*
X48094000Y63992000D03*
X48494000Y60912000D03*
X48494000Y63992000D03*
X48894000Y60912000D03*
X48894000Y63992000D03*
X49294000Y60912000D03*
X49294000Y63992000D03*
X49694000Y60912000D03*
X49694000Y63992000D03*
X50094000Y60912000D03*
X50094000Y63992000D03*
X50494000Y60912000D03*
X50494000Y63992000D03*
X50894000Y60912000D03*
X50894000Y63992000D03*
%TD*%
D39*
%TO.C,D1*%
X5307000Y20821500D03*
X5307000Y22396500D03*
%TD*%
D19*
%TO.C,R5*%
X42136500Y68854000D03*
X42136500Y67834000D03*
%TD*%
D14*
%TO.C,J9*%
X57647000Y10430000D03*
D15*
X55107000Y10430000D03*
X52567000Y10430000D03*
X50027000Y10430000D03*
%TD*%
D37*
%TO.C,R9*%
X22825600Y77892400D03*
X21805600Y77892400D03*
%TD*%
D40*
%TO.C,U12*%
X36476900Y15012000D03*
X36476900Y14512000D03*
X36476900Y14012000D03*
X36476900Y13512000D03*
X36476900Y13012000D03*
X36476900Y12512000D03*
X36476900Y12012000D03*
D41*
X35311900Y11597000D03*
D40*
X34146900Y12012000D03*
X34146900Y12512000D03*
X34146900Y13012000D03*
X34146900Y13512000D03*
X34146900Y14012000D03*
X34146900Y14512000D03*
X34146900Y15012000D03*
D41*
X35311900Y15427000D03*
%TD*%
D33*
%TO.C,R11*%
X18034000Y88709000D03*
X18034000Y87059000D03*
%TD*%
D35*
%TO.C,D9*%
X1550000Y63612000D03*
X1550000Y66912000D03*
X-3350000Y66912000D03*
X-3350000Y63612000D03*
%TD*%
D19*
%TO.C,R16*%
X-381000Y75567000D03*
X-381000Y74547000D03*
%TD*%
D14*
%TO.C,J5*%
X52440000Y20082000D03*
D15*
X54980000Y20082000D03*
X52440000Y17542000D03*
X54980000Y17542000D03*
X52440000Y15002000D03*
X54980000Y15002000D03*
%TD*%
D42*
%TO.C,J19*%
X6267000Y54108000D03*
D43*
X6267000Y52858000D03*
X6267000Y51608000D03*
X6267000Y50358000D03*
X6267000Y49108000D03*
X6267000Y47858000D03*
X6267000Y46608000D03*
X6267000Y45358000D03*
X6267000Y44108000D03*
X6267000Y42858000D03*
X6267000Y41608000D03*
X6267000Y40358000D03*
X6267000Y39108000D03*
X6267000Y37858000D03*
X6267000Y36608000D03*
%TD*%
D44*
%TO.C,U7*%
X4196000Y75323000D03*
X4696000Y75323000D03*
D45*
X5196000Y75323000D03*
D44*
X5696000Y75323000D03*
X6196000Y75323000D03*
X6196000Y76093000D03*
X5696000Y76093000D03*
D45*
X5196000Y76093000D03*
D44*
X4696000Y76093000D03*
X4196000Y76093000D03*
%TD*%
D46*
%TO.C,SW10*%
X3986500Y14021000D03*
X3986500Y12771000D03*
D47*
X7336500Y15871000D03*
X7336500Y10921000D03*
%TD*%
D18*
%TO.C,C30*%
X271000Y33290000D03*
X1821000Y33290000D03*
%TD*%
D23*
%TO.C,D20*%
X-723000Y8062000D03*
X852000Y8062000D03*
%TD*%
D37*
%TO.C,R8*%
X14127100Y67286150D03*
X13107100Y67286150D03*
%TD*%
D36*
%TO.C,C11*%
X37310500Y78034000D03*
X37310500Y78994000D03*
%TD*%
D46*
%TO.C,SW13*%
X3986500Y4328000D03*
X3986500Y3078000D03*
D47*
X7336500Y6178000D03*
X7336500Y1228000D03*
%TD*%
D48*
%TO.C,J18*%
X34292000Y1090000D03*
D49*
X35542000Y1090000D03*
X36792000Y1090000D03*
X38042000Y1090000D03*
X39292000Y1090000D03*
X40542000Y1090000D03*
X41792000Y1090000D03*
X43042000Y1090000D03*
X44292000Y1090000D03*
X45542000Y1090000D03*
%TD*%
D46*
%TO.C,SW14*%
X-3663500Y4328000D03*
X-3663500Y3078000D03*
D47*
X-313500Y6178000D03*
X-313500Y1228000D03*
%TD*%
D18*
%TO.C,C22*%
X41607500Y5960500D03*
X43157500Y5960500D03*
%TD*%
D50*
%TO.C,JP5*%
X3732500Y-1082000D03*
X5032500Y-1082000D03*
%TD*%
D39*
%TO.C,D2*%
X5439000Y25586500D03*
X5439000Y24011500D03*
%TD*%
D51*
%TO.C,C19*%
X17416000Y81042000D03*
X18376000Y81042000D03*
%TD*%
D52*
%TO.C,C16*%
X20475100Y73194150D03*
X20475100Y75094150D03*
%TD*%
D18*
%TO.C,C27*%
X41505000Y14718000D03*
X43055000Y14718000D03*
%TD*%
D53*
%TO.C,U6*%
X12099000Y20194000D03*
X12099000Y20844000D03*
X12099000Y21494000D03*
X10199000Y21494000D03*
X10199000Y20194000D03*
%TD*%
D48*
%TO.C,J12*%
X52110000Y1143000D03*
D49*
X53360000Y1143000D03*
X54610000Y1143000D03*
X55860000Y1143000D03*
X57110000Y1143000D03*
%TD*%
D54*
%TO.C,C20*%
X39542000Y13257000D03*
X39542000Y11707000D03*
%TD*%
D50*
%TO.C,JP6*%
X572500Y-1082000D03*
X-727500Y-1082000D03*
%TD*%
D44*
%TO.C,U8*%
X10546000Y75460000D03*
X11046000Y75460000D03*
D45*
X11546000Y75460000D03*
D44*
X12046000Y75460000D03*
X12546000Y75460000D03*
X12546000Y76230000D03*
X12046000Y76230000D03*
D45*
X11546000Y76230000D03*
D44*
X11046000Y76230000D03*
X10546000Y76230000D03*
%TD*%
D12*
%TO.C,R18*%
X33644000Y6049000D03*
X33644000Y7699000D03*
%TD*%
D46*
%TO.C,SW11*%
X-3663500Y14021000D03*
X-3663500Y12771000D03*
D47*
X-313500Y15871000D03*
X-313500Y10921000D03*
%TD*%
D14*
%TO.C,J3*%
X32374000Y97298000D03*
D15*
X34914000Y97298000D03*
X32374000Y94758000D03*
X34914000Y94758000D03*
X32374000Y92218000D03*
X34914000Y92218000D03*
X32374000Y89678000D03*
X34914000Y89678000D03*
%TD*%
D55*
%TO.C,U4*%
X23246000Y80442200D03*
X23746000Y80442200D03*
X24246000Y80442200D03*
X24746000Y80442200D03*
X25246000Y80442200D03*
X25246000Y84842200D03*
X24746000Y84842200D03*
X24246000Y84842200D03*
X23746000Y84842200D03*
X23246000Y84842200D03*
%TD*%
D56*
%TO.C,J11*%
X33815000Y-7215000D03*
D57*
X53815000Y-7215000D03*
D58*
X34565000Y-1940000D03*
X34815000Y-9490000D03*
X35065000Y-1940000D03*
X35315000Y-9490000D03*
X35565000Y-1940000D03*
X35815000Y-9490000D03*
X36065000Y-1940000D03*
X38315000Y-9490000D03*
X38565000Y-1940000D03*
X38815000Y-9490000D03*
X39065000Y-1940000D03*
X39315000Y-9490000D03*
X39565000Y-1940000D03*
X39815000Y-9490000D03*
X40065000Y-1940000D03*
X40315000Y-9490000D03*
X40565000Y-1940000D03*
X40815000Y-9490000D03*
X41065000Y-1940000D03*
X41315000Y-9490000D03*
X41565000Y-1940000D03*
X41815000Y-9490000D03*
X42065000Y-1940000D03*
X42315000Y-9490000D03*
X42565000Y-1940000D03*
X42815000Y-9490000D03*
X43065000Y-1940000D03*
X43315000Y-9490000D03*
X43565000Y-1940000D03*
X43815000Y-9490000D03*
X44065000Y-1940000D03*
X44315000Y-9490000D03*
X44565000Y-1940000D03*
X44815000Y-9490000D03*
X45065000Y-1940000D03*
X45315000Y-9490000D03*
X45565000Y-1940000D03*
X45815000Y-9490000D03*
X46065000Y-1940000D03*
X46315000Y-9490000D03*
X46565000Y-1940000D03*
X46815000Y-9490000D03*
X47065000Y-1940000D03*
X47315000Y-9490000D03*
X47565000Y-1940000D03*
X47815000Y-9490000D03*
X48065000Y-1940000D03*
X48315000Y-9490000D03*
X48565000Y-1940000D03*
X48815000Y-9490000D03*
X49065000Y-1940000D03*
X49315000Y-9490000D03*
X49565000Y-1940000D03*
X49815000Y-9490000D03*
X50065000Y-1940000D03*
X50315000Y-9490000D03*
X50565000Y-1940000D03*
X50815000Y-9490000D03*
X51065000Y-1940000D03*
X51315000Y-9490000D03*
X51565000Y-1940000D03*
X51815000Y-9490000D03*
X52065000Y-1940000D03*
X52315000Y-9490000D03*
X52565000Y-1940000D03*
X52815000Y-9490000D03*
X53065000Y-1940000D03*
D59*
X33465000Y-2715000D03*
X54165000Y-2715000D03*
%TD*%
D54*
%TO.C,C24*%
X31292000Y13007000D03*
X31292000Y11457000D03*
%TD*%
D60*
%TO.C,J20*%
X35810000Y20844000D03*
D49*
X34560000Y20844000D03*
X33310000Y20844000D03*
X32060000Y20844000D03*
X30810000Y20844000D03*
X29560000Y20844000D03*
X28310000Y20844000D03*
X27060000Y20844000D03*
X25810000Y20844000D03*
X24560000Y20844000D03*
X23310000Y20844000D03*
X22060000Y20844000D03*
X20810000Y20844000D03*
X19560000Y20844000D03*
X18310000Y20844000D03*
%TD*%
D61*
%TO.C,Y1*%
X44879500Y76012000D03*
X42679500Y76012000D03*
X42679500Y74412000D03*
X44879500Y74412000D03*
%TD*%
D62*
%TO.C,J2*%
X27918000Y92228500D03*
X22138000Y92228500D03*
D63*
X28278000Y90783500D03*
X27478000Y90783500D03*
D64*
X26278000Y90783500D03*
X25278000Y90783500D03*
X24778000Y90783500D03*
X23778000Y90783500D03*
D63*
X22578000Y90783500D03*
X21778000Y90783500D03*
X21778000Y90783500D03*
X22578000Y90783500D03*
D64*
X23278000Y90783500D03*
X24278000Y90783500D03*
X25778000Y90783500D03*
X26778000Y90783500D03*
D63*
X27478000Y90783500D03*
X28278000Y90783500D03*
D65*
X29348000Y91698500D03*
D66*
X29348000Y95878500D03*
D65*
X20708000Y91698500D03*
D66*
X20708000Y95878500D03*
%TD*%
D26*
%TO.C,H4*%
X-3697000Y96038000D03*
%TD*%
D67*
%TO.C,C6*%
X35651500Y68288000D03*
X35651500Y66388000D03*
%TD*%
D23*
%TO.C,D23*%
X-4279000Y-732000D03*
X-2704000Y-732000D03*
%TD*%
D52*
%TO.C,C4*%
X14887100Y73194150D03*
X14887100Y75094150D03*
%TD*%
D68*
%TO.C,C2*%
X59196500Y84344000D03*
X58236500Y84344000D03*
%TD*%
D69*
%TO.C,C3*%
X46573500Y75692000D03*
X46573500Y74732000D03*
%TD*%
%TO.C,C15*%
X31722500Y72888000D03*
X31722500Y71928000D03*
%TD*%
D14*
%TO.C,J10*%
X58674000Y19563000D03*
D15*
X58674000Y17023000D03*
%TD*%
D14*
%TO.C,J8*%
X19048700Y15722000D03*
D15*
X16508700Y15722000D03*
X13968700Y15722000D03*
%TD*%
D34*
%TO.C,R20*%
X431000Y26061000D03*
X2081000Y26061000D03*
%TD*%
D70*
%TO.C,U2*%
X15329100Y71217650D03*
X14379100Y71217650D03*
X13429100Y71217650D03*
X13429100Y68942650D03*
X14379100Y68942650D03*
X15329100Y68942650D03*
%TD*%
D69*
%TO.C,C13*%
X41882500Y71364000D03*
X41882500Y70404000D03*
%TD*%
D19*
%TO.C,R7*%
X38326500Y68600000D03*
X38326500Y67580000D03*
%TD*%
D35*
%TO.C,D8*%
X1550000Y56532000D03*
X1550000Y59832000D03*
X-3350000Y59832000D03*
X-3350000Y56532000D03*
%TD*%
D71*
%TO.C,J7*%
X69966000Y-1000000D03*
D72*
X69966000Y4000000D03*
%TD*%
D73*
%TO.C,U15*%
X-3438000Y23532000D03*
X-2488000Y23532000D03*
X-1538000Y23532000D03*
X-1538000Y25807000D03*
X-3438000Y25807000D03*
%TD*%
D74*
%TO.C,TP7*%
X67553000Y17796000D03*
%TD*%
D54*
%TO.C,C21*%
X32792000Y13007000D03*
X32792000Y11457000D03*
%TD*%
D75*
%TO.C,SW1*%
X48249000Y20363000D03*
X46979000Y20363000D03*
X46979000Y14213000D03*
X48249000Y14213000D03*
%TD*%
D26*
%TO.C,H2*%
X63232000Y96038000D03*
%TD*%
D37*
%TO.C,R14*%
X7981000Y26831000D03*
X6961000Y26831000D03*
%TD*%
D74*
%TO.C,TP8*%
X72633000Y17796000D03*
%TD*%
D67*
%TO.C,C5*%
X40612500Y68532000D03*
X40612500Y66632000D03*
%TD*%
D18*
%TO.C,C31*%
X271000Y40402000D03*
X1821000Y40402000D03*
%TD*%
D76*
%TO.C,U14*%
X23212828Y15544800D03*
X23212828Y14894800D03*
X23212828Y14244800D03*
X23212828Y13594800D03*
X23212828Y12944800D03*
X23212828Y12294800D03*
X23212828Y11644800D03*
X23212828Y10994800D03*
X23212828Y10344800D03*
X23212828Y9694800D03*
X23212828Y9044800D03*
X23212828Y8394800D03*
X23212828Y7744800D03*
X23212828Y7094800D03*
X28937828Y7094800D03*
X28937828Y7744800D03*
X28937828Y8394800D03*
X28937828Y9044800D03*
X28937828Y9694800D03*
X28937828Y10344800D03*
X28937828Y10994800D03*
X28937828Y11644800D03*
X28937828Y12294800D03*
X28937828Y12944800D03*
X28937828Y13594800D03*
X28937828Y14244800D03*
X28937828Y14894800D03*
X28937828Y15544800D03*
%TD*%
D77*
%TO.C,R17*%
X43207500Y9008500D03*
X41557500Y9008500D03*
%TD*%
D44*
%TO.C,U5*%
X25754000Y87599200D03*
X25254000Y87599200D03*
D45*
X24754000Y87599200D03*
D44*
X24254000Y87599200D03*
X23754000Y87599200D03*
X23754000Y86829200D03*
X24254000Y86829200D03*
D45*
X24754000Y86829200D03*
D44*
X25254000Y86829200D03*
X25754000Y86829200D03*
%TD*%
D14*
%TO.C,J13*%
X19048700Y11964000D03*
D15*
X16508700Y11964000D03*
X13968700Y11964000D03*
%TD*%
D50*
%TO.C,JP2*%
X7034500Y8570000D03*
X8334500Y8570000D03*
%TD*%
D78*
%TO.C,U11*%
X37536500Y5928000D03*
X37536500Y6728000D03*
X37536500Y7528000D03*
X37536500Y8328000D03*
X39911500Y8328000D03*
X39911500Y7528000D03*
X39911500Y6728000D03*
X39911500Y5928000D03*
%TD*%
D54*
%TO.C,C25*%
X38042000Y13257000D03*
X38042000Y11707000D03*
%TD*%
D52*
%TO.C,C17*%
X23269100Y73194150D03*
X23269100Y75094150D03*
%TD*%
D35*
%TO.C,D4*%
X1550000Y28084000D03*
X1550000Y31384000D03*
X-3350000Y31384000D03*
X-3350000Y28084000D03*
%TD*%
D18*
%TO.C,C29*%
X41505000Y11700000D03*
X43055000Y11700000D03*
%TD*%
D79*
%TO.C,D10*%
X61330000Y12208000D03*
D80*
X74030000Y12208000D03*
%TD*%
D51*
%TO.C,C7*%
X43299500Y72926000D03*
X44259500Y72926000D03*
%TD*%
D18*
%TO.C,C34*%
X271000Y61738000D03*
X1821000Y61738000D03*
%TD*%
D50*
%TO.C,JP3*%
X-2587500Y8570000D03*
X-3887500Y8570000D03*
%TD*%
D27*
%TO.C,TP35*%
X1002000Y21108000D03*
%TD*%
D81*
%TO.C,C26*%
X32499600Y15392400D03*
X30949600Y15392400D03*
%TD*%
D53*
%TO.C,U9*%
X11977000Y24149000D03*
X11977000Y24799000D03*
X11977000Y25449000D03*
X10077000Y25449000D03*
X10077000Y24149000D03*
%TD*%
D36*
%TO.C,C1*%
X64632000Y86404000D03*
X64632000Y87364000D03*
%TD*%
D52*
%TO.C,C14*%
X17681100Y73194150D03*
X17681100Y75094150D03*
%TD*%
D14*
%TO.C,J17*%
X19033700Y-3276000D03*
D15*
X16493700Y-3276000D03*
X13953700Y-3276000D03*
%TD*%
D52*
%TO.C,C18*%
X26063100Y73194150D03*
X26063100Y75094150D03*
%TD*%
D18*
%TO.C,C33*%
X271000Y54626000D03*
X1821000Y54626000D03*
%TD*%
D14*
%TO.C,J16*%
X19048700Y534000D03*
D15*
X16508700Y534000D03*
X13968700Y534000D03*
%TD*%
D18*
%TO.C,C23*%
X41607500Y7484500D03*
X43157500Y7484500D03*
%TD*%
D82*
%TO.C,U1*%
X60999500Y86254000D03*
X60999500Y84354000D03*
X62874500Y85304000D03*
%TD*%
D83*
%TO.C,U3*%
X39310500Y76615500D03*
X38810500Y76615500D03*
X38310500Y76615500D03*
X37810500Y76615500D03*
X37310500Y76615500D03*
X36810500Y76615500D03*
X36310500Y76615500D03*
X35810500Y76615500D03*
X35310500Y76615500D03*
D84*
X34373000Y75678000D03*
X34373000Y75178000D03*
X34373000Y74678000D03*
X34373000Y74178000D03*
X34373000Y73678000D03*
X34373000Y73178000D03*
X34373000Y72678000D03*
X34373000Y72178000D03*
X34373000Y71678000D03*
D83*
X35310500Y70740500D03*
X35810500Y70740500D03*
X36310500Y70740500D03*
X36810500Y70740500D03*
X37310500Y70740500D03*
X37810500Y70740500D03*
X38310500Y70740500D03*
X38810500Y70740500D03*
X39310500Y70740500D03*
D84*
X40248000Y71678000D03*
X40248000Y72178000D03*
X40248000Y72678000D03*
X40248000Y73178000D03*
X40248000Y73678000D03*
X40248000Y74178000D03*
X40248000Y74678000D03*
X40248000Y75178000D03*
X40248000Y75678000D03*
D85*
X37310500Y73678000D03*
%TD*%
D27*
%TO.C,TP36*%
X1002000Y23902000D03*
%TD*%
D35*
%TO.C,D6*%
X1550000Y42308000D03*
X1550000Y45608000D03*
X-3350000Y45608000D03*
X-3350000Y42308000D03*
%TD*%
D33*
%TO.C,R2*%
X44820000Y23701000D03*
X44820000Y22051000D03*
%TD*%
D51*
%TO.C,C10*%
X41673000Y77740000D03*
X42633000Y77740000D03*
%TD*%
D26*
%TO.C,H3*%
X63235000Y-7848000D03*
%TD*%
D35*
%TO.C,D5*%
X1550000Y35196000D03*
X1550000Y38496000D03*
X-3350000Y38496000D03*
X-3350000Y35196000D03*
%TD*%
D18*
%TO.C,C32*%
X271000Y47514000D03*
X1821000Y47514000D03*
%TD*%
D14*
%TO.C,J15*%
X19033700Y4344000D03*
D15*
X16493700Y4344000D03*
X13953700Y4344000D03*
%TD*%
D24*
%TO.C,BZ1*%
X3050500Y-4292000D03*
D86*
X8050500Y-4292000D03*
%TD*%
M02*
