%TF.GenerationSoftware,KiCad,Pcbnew,7.99.0-957-g18dd623122*%
%TF.CreationDate,2023-07-02T13:55:20-04:00*%
%TF.ProjectId,carrier,63617272-6965-4722-9e6b-696361645f70,V1.0*%
%TF.SameCoordinates,Original*%
%TF.FileFunction,Soldermask,Bot*%
%TF.FilePolarity,Negative*%
%FSLAX46Y46*%
G04 Gerber Fmt 4.6, Leading zero omitted, Abs format (unit mm)*
G04 Created by KiCad (PCBNEW 7.99.0-957-g18dd623122) date 2023-07-02 13:55:20*
%MOMM*%
%LPD*%
G01*
G04 APERTURE LIST*
G04 Aperture macros list*
%AMRoundRect*
0 Rectangle with rounded corners*
0 $1 Rounding radius*
0 $2 $3 $4 $5 $6 $7 $8 $9 X,Y pos of 4 corners*
0 Add a 4 corners polygon primitive as box body*
4,1,4,$2,$3,$4,$5,$6,$7,$8,$9,$2,$3,0*
0 Add four circle primitives for the rounded corners*
1,1,$1+$1,$2,$3*
1,1,$1+$1,$4,$5*
1,1,$1+$1,$6,$7*
1,1,$1+$1,$8,$9*
0 Add four rect primitives between the rounded corners*
20,1,$1+$1,$2,$3,$4,$5,0*
20,1,$1+$1,$4,$5,$6,$7,0*
20,1,$1+$1,$6,$7,$8,$9,0*
20,1,$1+$1,$8,$9,$2,$3,0*%
%AMFreePoly0*
4,1,19,0.500000,-0.750000,0.000000,-0.750000,0.000000,-0.744911,-0.071157,-0.744911,-0.207708,-0.704816,-0.327430,-0.627875,-0.420627,-0.520320,-0.479746,-0.390866,-0.500000,-0.250000,-0.500000,0.250000,-0.479746,0.390866,-0.420627,0.520320,-0.327430,0.627875,-0.207708,0.704816,-0.071157,0.744911,0.000000,0.744911,0.000000,0.750000,0.500000,0.750000,0.500000,-0.750000,0.500000,-0.750000,
$1*%
%AMFreePoly1*
4,1,19,0.000000,0.744911,0.071157,0.744911,0.207708,0.704816,0.327430,0.627875,0.420627,0.520320,0.479746,0.390866,0.500000,0.250000,0.500000,-0.250000,0.479746,-0.390866,0.420627,-0.520320,0.327430,-0.627875,0.207708,-0.704816,0.071157,-0.744911,0.000000,-0.744911,0.000000,-0.750000,-0.500000,-0.750000,-0.500000,0.750000,0.000000,0.750000,0.000000,0.744911,0.000000,0.744911,
$1*%
G04 Aperture macros list end*
%ADD10O,3.300000X1.500000*%
%ADD11O,2.300000X1.500000*%
%ADD12C,2.700000*%
%ADD13C,1.500000*%
%ADD14O,1.800000X2.800000*%
%ADD15C,3.200000*%
%ADD16RoundRect,0.250500X0.499500X0.499500X-0.499500X0.499500X-0.499500X-0.499500X0.499500X-0.499500X0*%
%ADD17C,2.500000*%
%ADD18R,1.700000X1.700000*%
%ADD19O,1.700000X1.700000*%
%ADD20RoundRect,0.200000X-0.450000X0.200000X-0.450000X-0.200000X0.450000X-0.200000X0.450000X0.200000X0*%
%ADD21O,1.300000X0.800000*%
%ADD22RoundRect,0.200000X-0.200000X-0.450000X0.200000X-0.450000X0.200000X0.450000X-0.200000X0.450000X0*%
%ADD23O,0.800000X1.300000*%
%ADD24C,1.150000*%
%ADD25C,1.650000*%
%ADD26RoundRect,0.200000X0.200000X0.450000X-0.200000X0.450000X-0.200000X-0.450000X0.200000X-0.450000X0*%
%ADD27C,0.650000*%
%ADD28O,1.000000X2.100000*%
%ADD29O,1.000000X1.600000*%
%ADD30R,3.960000X1.980000*%
%ADD31O,3.960000X1.980000*%
%ADD32C,1.000000*%
%ADD33R,3.200000X3.200000*%
%ADD34O,3.200000X3.200000*%
%ADD35R,2.000000X2.000000*%
%ADD36C,2.000000*%
%ADD37FreePoly0,0.000000*%
%ADD38FreePoly1,0.000000*%
G04 APERTURE END LIST*
D10*
%TO.C,J1*%
X60260495Y90029000D03*
X60260495Y75529000D03*
D11*
X66220495Y75529000D03*
X66220495Y90029000D03*
%TD*%
D12*
%TO.C,H1*%
X-5Y0D03*
%TD*%
D13*
%TO.C,J4*%
X52524995Y95075600D03*
X50024995Y95075600D03*
X48024995Y95075600D03*
X45524995Y95075600D03*
X52524995Y97695600D03*
X50024995Y97695600D03*
X48024995Y97695600D03*
X45524995Y97695600D03*
D14*
X55424995Y99245600D03*
X42624995Y99245600D03*
%TD*%
D15*
%TO.C,U10*%
X17932995Y95519000D03*
X6502995Y95519000D03*
D16*
X17932995Y86629000D03*
D13*
X16662995Y89169000D03*
X15392995Y86629000D03*
X14122995Y89169000D03*
X12852995Y86629000D03*
X11582995Y89169000D03*
X10312995Y86629000D03*
X9042995Y89169000D03*
X7772995Y86629000D03*
X6502995Y89169000D03*
X18847995Y99579000D03*
X16307995Y99579000D03*
X8127995Y99579000D03*
X5587995Y99579000D03*
D17*
X20092995Y92469000D03*
X4342995Y92469000D03*
%TD*%
D18*
%TO.C,J8*%
X53733995Y13960000D03*
D19*
X56273995Y13960000D03*
X58813995Y13960000D03*
X61353995Y13960000D03*
%TD*%
D18*
%TO.C,J12*%
X22745695Y16002000D03*
D19*
X20205695Y16002000D03*
X17665695Y16002000D03*
%TD*%
D12*
%TO.C,Module1*%
X18290995Y36840000D03*
X66290995Y36840000D03*
X18290995Y69840000D03*
X66290995Y69840000D03*
%TD*%
D18*
%TO.C,J9*%
X61343995Y18278000D03*
D19*
X58803995Y18278000D03*
X56263995Y18278000D03*
X53723995Y18278000D03*
%TD*%
D18*
%TO.C,J5*%
X56136995Y27930000D03*
D19*
X58676995Y27930000D03*
X56136995Y25390000D03*
X58676995Y25390000D03*
X56136995Y22850000D03*
X58676995Y22850000D03*
%TD*%
D20*
%TO.C,J6*%
X9963995Y61956000D03*
D21*
X9963995Y60706000D03*
X9963995Y59456000D03*
X9963995Y58206000D03*
X9963995Y56956000D03*
X9963995Y55706000D03*
X9963995Y54456000D03*
X9963995Y53206000D03*
X9963995Y51956000D03*
X9963995Y50706000D03*
X9963995Y49456000D03*
X9963995Y48206000D03*
X9963995Y46956000D03*
X9963995Y45706000D03*
X9963995Y44456000D03*
%TD*%
D22*
%TO.C,J10*%
X37988995Y8938000D03*
D23*
X39238995Y8938000D03*
X40488995Y8938000D03*
X41738995Y8938000D03*
X42988995Y8938000D03*
X44238995Y8938000D03*
X45488995Y8938000D03*
X46738995Y8938000D03*
X47988995Y8938000D03*
X49238995Y8938000D03*
%TD*%
D22*
%TO.C,J20*%
X55806995Y8991000D03*
D23*
X57056995Y8991000D03*
X58306995Y8991000D03*
X59556995Y8991000D03*
X60806995Y8991000D03*
%TD*%
D18*
%TO.C,J3*%
X36070995Y105146000D03*
D19*
X38610995Y105146000D03*
X36070995Y102606000D03*
X38610995Y102606000D03*
X36070995Y100066000D03*
X38610995Y100066000D03*
X36070995Y97526000D03*
X38610995Y97526000D03*
%TD*%
D24*
%TO.C,J18*%
X37511995Y633000D03*
D25*
X57511995Y633000D03*
%TD*%
D26*
%TO.C,J7*%
X39506995Y28692000D03*
D23*
X38256995Y28692000D03*
X37006995Y28692000D03*
X35756995Y28692000D03*
X34506995Y28692000D03*
X33256995Y28692000D03*
X32006995Y28692000D03*
X30756995Y28692000D03*
X29506995Y28692000D03*
X28256995Y28692000D03*
X27006995Y28692000D03*
X25756995Y28692000D03*
X24506995Y28692000D03*
X23256995Y28692000D03*
X22006995Y28692000D03*
%TD*%
D27*
%TO.C,J2*%
X31614995Y100076500D03*
X25834995Y100076500D03*
D28*
X33044995Y99546500D03*
D29*
X33044995Y103726500D03*
D28*
X24404995Y99546500D03*
D29*
X24404995Y103726500D03*
%TD*%
D12*
%TO.C,H4*%
X-5Y103886000D03*
%TD*%
D18*
%TO.C,J21*%
X62370995Y27411000D03*
D19*
X62370995Y24871000D03*
%TD*%
D18*
%TO.C,J11*%
X22745695Y23570000D03*
D19*
X20205695Y23570000D03*
X17665695Y23570000D03*
%TD*%
D18*
%TO.C,J17*%
X26836395Y9880000D03*
D19*
X26836395Y7340000D03*
X26836395Y4800000D03*
X26836395Y2260000D03*
%TD*%
D30*
%TO.C,J19*%
X73662995Y6848000D03*
D31*
X73662995Y11848000D03*
%TD*%
D32*
%TO.C,TP11*%
X71249995Y25644000D03*
%TD*%
D12*
%TO.C,H2*%
X66928995Y103886000D03*
%TD*%
D32*
%TO.C,TP12*%
X76329995Y25644000D03*
%TD*%
D18*
%TO.C,J14*%
X22745695Y19812000D03*
D19*
X20205695Y19812000D03*
X17665695Y19812000D03*
%TD*%
D33*
%TO.C,D12*%
X65026995Y20056000D03*
D34*
X77726995Y20056000D03*
%TD*%
D18*
%TO.C,J16*%
X22730695Y4572000D03*
D19*
X20190695Y4572000D03*
X17650695Y4572000D03*
%TD*%
D18*
%TO.C,J13*%
X22745695Y8382000D03*
D19*
X20205695Y8382000D03*
X17665695Y8382000D03*
%TD*%
D12*
%TO.C,H3*%
X66931995Y0D03*
%TD*%
D18*
%TO.C,J15*%
X22730695Y12192000D03*
D19*
X20190695Y12192000D03*
X17650695Y12192000D03*
%TD*%
D35*
%TO.C,BZ1*%
X6747495Y3556000D03*
D36*
X11747495Y3556000D03*
%TD*%
D37*
%TO.C,JP3*%
X41008995Y17770000D03*
D38*
X42308995Y17770000D03*
%TD*%
D13*
%TO.C,TP5*%
X34988995Y25080000D03*
%TD*%
%TO.C,TP4*%
X42488995Y25080000D03*
%TD*%
%TO.C,TP3*%
X39988995Y25080000D03*
%TD*%
%TO.C,TP6*%
X37488995Y25080000D03*
%TD*%
M02*
